<?xml version="1.0" standalone="no"?>
<!-- Generator: Paintmaps.com , Online SVG vector map maker -->
<svg xmlns="http://www.w3.org/2000/svg" version="1.1" baseProfile="full"   style="background-color:#e0f2f1" width="800" height="500" viewBox="0 0 800 533">

<path data-code="200" d="M 606.414 135.3346 L 602.1844 143.3113 L 598.1801 149.8906 L 594.9763 157.114 L 593.2797 159.9065 L 591.2622 162.5418 L 586.7373 167.535 L 580.6336 173.3178 L 576.7386 176.2559 L 571.2135 178.9732 L 568.631 180.5002 L 566.3865 182.4461 L 564.468 184.7401 L 562.9523 187.4119 L 560.4637 193.0513 L 556.8554 199.6808 L 553.8308 206.9998 L 550.0809 213.6906 L 547.7852 219.4462 L 544.0796 219.6988 L 541.3896 219.6806 L 537.416 219.0843 L 534.7362 218.0169 L 533.4168 217.2295 L 530.9453 215.3702 L 528.6206 213.2628 L 522.0901 206.3079 L 518.2361 201.3376 L 516.6845 198.6885 L 514.1806 192.8351 L 512.5505 190.1246 L 510.6064 187.553 L 505.1001 181.4402 L 492.1826 168.443 L 487.668 163.6593 L 484.681 159.8245 L 483.1414 156.9661 L 482.6225 155.4732 L 481.9705 152.3895 L 481.6462 149.2284 L 481.5165 141.197 L 482.0012 134.8362 L 482.6652 131.7524 L 483.1926 130.2618 L 484.7629 127.3852 L 487.8096 123.5345 L 501.9151 109.2424 L 506.2249 104.2379 L 507.1466 102.9043 L 508.5258 100.3486 L 512.5676 90.7583 L 512.8765 89.4474 L 512.9551 88.0728 L 512.7383 86.7096 L 512.2911 85.4261 L 510.9717 83.0228 L 507.2439 77.6792 L 515.2064 73.3506 L 522.8958 68.5077 L 528.6103 66.0066 L 536.3356 61.5756 L 543.419 58.5511 L 553.0662 53.3008 L 558.8541 54.2566 L 561.778 55.3262 L 562.9779 56.0295 L 565.1354 57.7864 L 568.6259 61.9807 L 570.5324 66.7326 L 574.2346 73.4189 L 577.3189 80.6924 L 581.6253 88.6668 L 584.0183 94.5817 L 588.3042 102.5652 L 590.6733 108.4914 L 594.9473 116.4749 L 597.4086 122.3625 L 599.7828 126.2882 L 606.414 135.3346 Z" fill="#000000" fill-opacity="1" stroke="#000000" stroke-width="0" paint-order="fill" stroke-opacity="1" stroke-dasharray="" stroke-linecap="butt" stroke-linejoin="miter" stroke-miterlimit="10" clip-path="none" style="filter: url(#f1)"/>
<path data-code="201" d="M 266.5396 378.8324 L 265.6128 371.0537 L 264.3207 365.2435 L 276.593 365.6782 L 283.0603 366.4383 L 287.4657 367.8949 L 294.0012 371.2107 L 298.6507 372.3532 L 305.1385 372.7082 L 309.9825 372.2371 L 313.0941 371.3996 L 314.4818 370.8033 L 320.9115 367.1484 L 326.4981 364.3719 L 330.4887 361.4338 L 336.7989 355.9036 L 339.5316 353.9828 L 341.0183 353.2068 L 342.5442 352.6242 L 345.7104 351.9027 L 350.5784 351.5637 L 355.4464 351.9187 L 358.6126 352.656 L 360.1368 353.2455 L 361.6218 354.0352 L 364.3459 355.981 L 370.622 361.5772 L 374.5973 364.5107 L 383.7529 368.8302 L 386.2312 369.6427 L 387.525 369.7792 L 390.0563 369.3696 L 395.0045 367.4716 L 397.9385 366.7342 L 410.658 364.9659 L 413.6979 364.0806 L 421.6092 360.2845 L 424.6747 359.5472 L 427.8375 359.3128 L 431.0038 359.5267 L 434.0761 360.255 L 441.9413 364.0988 L 444.9061 365.066 L 452.5511 366.9686 L 455.3555 368.1065 L 461.9235 371.4474 L 466.6071 372.558 L 473.1204 372.847 L 477.9901 372.36 L 482.4638 371.04 L 489.0727 367.8152 L 492.8346 371.0082 L 496.4651 374.4469 L 517.3075 395.5254 L 509.5482 397.1162 L 501.2802 399.499 L 498.1105 400.0953 L 491.5425 400.5186 L 476.5546 400.6779 L 471.6969 401.1854 L 468.6041 401.9819 L 467.2267 402.5486 L 460.674 405.8098 L 457.6956 406.6769 L 451.5441 407.9263 L 448.5281 408.93 L 447.1284 409.6468 L 444.5101 411.4402 L 440.8626 414.6513 L 424.7362 431.4764 L 418.8168 437.1659 L 416.3299 439.1777 L 413.7116 440.8732 L 409.4854 442.8236 L 406.763 444.3142 L 404.2215 446.1804 L 401.7875 448.2878 L 394.7638 455.2313 L 371.2621 479.7008 L 369.6832 473.7404 L 367.5702 468.5425 L 366.2269 465.9594 L 365.3461 464.8056 L 363.1477 462.9986 L 355.8526 458.5858 L 351.7749 456.8016 L 343.4079 454.5326 L 342.2677 453.9523 L 338.3966 451.0483 L 337.1164 450.4407 L 334.2062 449.6419 L 326.3137 448.4789 L 323.4104 447.6779 L 322.1371 447.0657 L 318.2966 444.1413 L 317.1616 443.5473 L 307.371 440.6547 L 299.5929 436.4536 L 293.9466 433.7408 L 289.8894 430.8869 L 283.4597 425.491 L 279.2506 422.8306 L 276.2346 421.7314 L 265.0888 418.9253 L 265.891 413.7843 L 266.4201 405.5663 L 266.5396 378.8324 Z" fill="#000000" fill-opacity="1" stroke="#000000" stroke-width="0" paint-order="fill" stroke-opacity="1" stroke-dasharray="" stroke-linecap="butt" stroke-linejoin="miter" stroke-miterlimit="10" clip-path="none" style="filter: url(#f1)"/>
<path data-code="202" d="M 489.6667 300.1031 L 488.6955 307.8522 L 488.3354 319.9413 L 488.3524 352.5172 L 489.0727 367.8152 L 482.4638 371.04 L 477.9901 372.36 L 473.1204 372.847 L 466.6071 372.558 L 461.9235 371.4474 L 455.3555 368.1065 L 452.5511 366.9686 L 444.9061 365.066 L 441.9413 364.0988 L 434.0761 360.255 L 431.0038 359.5267 L 427.8375 359.3128 L 424.6747 359.5472 L 421.6092 360.2845 L 413.6979 364.0806 L 410.658 364.9659 L 397.9385 366.7342 L 395.0045 367.4716 L 390.0563 369.3696 L 387.525 369.7792 L 386.2312 369.6427 L 383.7529 368.8302 L 374.5973 364.5107 L 370.622 361.5772 L 364.3459 355.981 L 361.6218 354.0352 L 360.1368 353.2455 L 358.6126 352.656 L 355.4464 351.9187 L 350.5784 351.5637 L 345.7104 351.9027 L 342.5442 352.6242 L 341.0183 353.2068 L 339.5316 353.9828 L 336.7989 355.9036 L 330.4887 361.4338 L 326.4981 364.3719 L 320.9115 367.1484 L 314.4818 370.8033 L 313.0941 371.3996 L 309.9825 372.2371 L 305.1385 372.7082 L 298.6507 372.3532 L 294.0012 371.2107 L 287.4657 367.8949 L 283.0603 366.4383 L 276.593 365.6782 L 264.3207 365.2435 L 261.1118 358.2181 L 260.284 354.9774 L 259.818 351.6205 L 259.5125 346.4909 L 259.6064 339.6589 L 260.2516 334.6885 L 261.2637 331.5684 L 262.8272 328.9808 L 264.7696 326.8006 L 266.9254 325.0232 L 270.3544 322.7929 L 272.2474 320.9176 L 276.395 314.7183 L 283.7584 305.4945 L 285.5165 302.6429 L 289.0019 295.3694 L 298.0397 283.146 L 301.5472 276.0091 L 303.237 273.4943 L 305.2562 271.2026 L 307.5195 269.1453 L 313.642 264.5595 L 322.376 271.0456 L 326.1311 273.3578 L 329.0293 274.2499 L 332.1222 274.3022 L 333.6464 274.0064 L 336.3244 272.9345 L 341.3102 270.1489 L 346.907 267.4703 L 350.9044 264.5686 L 357.032 258.6674 L 373.621 241.1414 L 377.3641 237.7846 L 380.0848 235.9094 L 381.5613 235.1629 L 384.6677 234.1934 L 389.5254 233.5516 L 402.8355 233.2853 L 407.7461 233.5061 L 410.9243 233.9749 L 413.9676 235.0013 L 415.2921 235.7705 L 417.5879 237.7482 L 419.3886 240.1993 L 420.0645 241.5829 L 420.9094 244.7122 L 421.244 247.9347 L 421.628 256.0912 L 422.1861 259.2865 L 422.6982 260.8317 L 424.1815 263.5013 L 425.1185 264.6892 L 427.2913 266.7557 L 429.8721 268.3647 L 434.0317 270.2172 L 439.195 272.9709 L 441.9396 274.1702 L 446.6403 275.1648 L 456.313 275.9636 L 459.4639 276.5303 L 462.3775 277.5498 L 468.8738 281.0204 L 474.5337 283.6171 L 478.6251 286.6007 L 482.3272 290.2648 L 485.671 294.3407 L 489.6667 300.1031 Z" fill="#000000" fill-opacity="1" stroke="#000000" stroke-width="0" paint-order="fill" stroke-opacity="1" stroke-dasharray="" stroke-linecap="butt" stroke-linejoin="miter" stroke-miterlimit="10" clip-path="none" style="filter: url(#f1)"/>
<path data-code="203" d="M 598.8663 373.9622 L 594.2407 373.9212 L 591.1769 374.3377 L 588.3162 375.2093 L 583.0471 377.6171 L 580.0413 378.6344 L 564.4987 381.0103 L 561.4759 382.0436 L 556.1658 384.5469 L 553.1447 385.5711 L 549.7344 386.2197 L 541.0175 387.2324 L 537.6021 387.8992 L 534.5707 388.9529 L 527.9259 392.1891 L 517.3075 395.5254 L 496.4651 374.4469 L 492.8346 371.0082 L 489.0727 367.8152 L 488.3524 352.5172 L 488.3354 319.9413 L 488.6955 307.8522 L 489.6667 300.1031 L 497.2503 294.0676 L 499.7508 292.3608 L 502.4494 290.9771 L 505.549 290.1009 L 508.7579 289.6799 L 521.8683 289.2543 L 526.6611 288.5716 L 529.5952 287.5679 L 536.1051 284.1178 L 540.3347 282.2221 L 541.7378 281.487 L 544.4926 279.5662 L 548.1999 276 L 551.3918 271.874 L 553.9742 267.3155 L 559.0999 268.7811 L 561.836 269.828 L 569.6227 274.2863 L 575.3168 276.817 L 579.0753 279.4319 L 582.5777 282.5907 L 591.566 291.7691 L 597.9497 298.9014 L 600.655 302.6884 L 601.9266 305.1804 L 603.8895 309.8595 L 605.4411 312.4471 L 608.283 316.0952 L 617.7475 326.6891 L 620.883 330.765 L 617.1006 338.6257 L 614.8032 344.6452 L 610.5019 352.6242 L 608.0577 358.5254 L 598.8663 373.9622 Z" fill="#000000" fill-opacity="1" stroke="#000000" stroke-width="0" paint-order="fill" stroke-opacity="1" stroke-dasharray="" stroke-linecap="butt" stroke-linejoin="miter" stroke-miterlimit="10" clip-path="none" style="filter: url(#f1)"/>
<path data-code="204" d="M 547.7852 219.4462 L 548.712 229.173 L 548.8827 248.2989 L 549.376 255.7749 L 550.6305 261.098 L 551.8338 263.6992 L 553.9742 267.3155 L 551.3918 271.874 L 548.1999 276 L 544.4926 279.5662 L 541.7378 281.487 L 540.3347 282.2221 L 536.1051 284.1178 L 529.5952 287.5679 L 526.6611 288.5716 L 521.8683 289.2543 L 508.7579 289.6799 L 505.549 290.1009 L 502.4494 290.9771 L 499.7508 292.3608 L 497.2503 294.0676 L 489.6667 300.1031 L 485.671 294.3407 L 482.3272 290.2648 L 478.6251 286.6007 L 474.5337 283.6171 L 468.8738 281.0204 L 462.3775 277.5498 L 459.4639 276.5303 L 456.313 275.9636 L 446.6403 275.1648 L 441.9396 274.1702 L 439.195 272.9709 L 434.0317 270.2172 L 429.8721 268.3647 L 427.2913 266.7557 L 425.1185 264.6892 L 424.1815 263.5013 L 422.6982 260.8317 L 422.1861 259.2865 L 421.628 256.0912 L 421.244 247.9347 L 420.9094 244.7122 L 420.0645 241.5829 L 419.3886 240.1993 L 417.5879 237.7482 L 415.2921 235.7705 L 413.9676 235.0013 L 410.9243 233.9749 L 407.7461 233.5061 L 402.8355 233.2853 L 389.5254 233.5516 L 384.6677 234.1934 L 381.5613 235.1629 L 380.0848 235.9094 L 377.3641 237.7846 L 373.621 241.1414 L 357.032 258.6674 L 350.9044 264.5686 L 346.907 267.4703 L 341.3102 270.1489 L 336.3244 272.9345 L 333.6464 274.0064 L 332.1222 274.3022 L 329.0293 274.2499 L 326.1311 273.3578 L 322.376 271.0456 L 313.642 264.5595 L 314.4664 258.433 L 315.3779 255.2856 L 316.0862 253.754 L 318.8821 249.5414 L 325.2725 241.5374 L 327.0801 238.6881 L 330.6713 232.0769 L 330.1678 230.411 L 330.1286 229.4688 L 330.3914 228.4356 L 330.9871 227.5184 L 331.8132 226.7697 L 339.6938 221.7333 L 348.0215 217.8099 L 350.5016 216.1007 L 359.0017 209.3825 L 367.1503 205.1359 L 374.8653 200.3339 L 380.5849 197.8237 L 388.3016 193.3882 L 394.0384 190.9644 L 401.7619 186.563 L 406.0307 184.6923 L 408.8624 183.1425 L 411.561 181.1398 L 415.4082 177.7033 L 421.6178 171.529 L 427.6276 165.175 L 430.9133 161.1877 L 432.7533 158.3316 L 433.4889 156.8045 L 434.4601 153.6867 L 435.6686 147.319 L 436.4964 144.2216 L 439.6097 137.3964 L 440.6219 134.4447 L 442.1273 126.4339 L 442.9774 123.2864 L 443.5492 121.8663 L 446.9509 115.1754 L 449.4805 109.429 L 451.2095 106.9575 L 453.3243 104.8182 L 455.7464 103.0864 L 461.35 100.5693 L 467.778 96.9622 L 474.6464 93.7191 L 477.0274 91.9486 L 479.0859 89.7752 L 480.7535 87.29 L 483.2677 81.5162 L 485.9031 77.2286 L 488.0025 74.5819 L 490.2658 72.1581 L 492.7083 70.0917 L 494.0328 69.2769 L 495.4632 68.6852 L 496.9157 68.4076 L 498.3495 68.4235 L 499.7167 68.7421 L 500.9627 69.3703 L 501.9578 70.2601 L 502.7173 71.2592 L 504.0299 73.3643 L 507.2439 77.6792 L 510.9717 83.0228 L 512.2911 85.4261 L 512.7383 86.7096 L 512.9551 88.0728 L 512.8765 89.4474 L 512.5676 90.7583 L 508.5258 100.3486 L 507.1466 102.9043 L 506.2249 104.2379 L 501.9151 109.2424 L 487.8096 123.5345 L 484.7629 127.3852 L 483.1926 130.2618 L 482.6652 131.7524 L 482.0012 134.8362 L 481.5165 141.197 L 481.6462 149.2284 L 481.9705 152.3895 L 482.6225 155.4732 L 483.1414 156.9661 L 484.681 159.8245 L 487.668 163.6593 L 492.1826 168.443 L 505.1001 181.4402 L 510.6064 187.553 L 512.5505 190.1246 L 514.1806 192.8351 L 516.6845 198.6885 L 518.2361 201.3376 L 522.0901 206.3079 L 528.6206 213.2628 L 530.9453 215.3702 L 533.4168 217.2295 L 534.7362 218.0169 L 537.416 219.0843 L 541.3896 219.6806 L 544.0796 219.6988 L 547.7852 219.4462 Z" fill="#000000" fill-opacity="1" stroke="#000000" stroke-width="0" paint-order="fill" stroke-opacity="1" stroke-dasharray="" stroke-linecap="butt" stroke-linejoin="miter" stroke-miterlimit="10" clip-path="none" style="filter: url(#f1)"/>
<path data-code="205" d="M 180.0874 372.8265 L 179.3824 365.421 L 179.1179 358.0497 L 179.1913 348.885 L 179.606 343.5027 L 180.7155 338.3708 L 183.7981 331.5411 L 184.788 328.5871 L 185.3906 325.3714 L 186.6314 313.8012 L 187.9611 309.1744 L 191.2894 302.4221 L 193.819 296.5665 L 195.6215 293.7172 L 198.914 289.8187 L 202.6264 286.3276 L 205.2993 284.3158 L 213.5964 279.9713 L 219.6762 275.3172 L 227.0259 267.8435 L 229.5794 265.5586 L 232.2591 263.5377 L 235.0806 261.9719 L 240.6415 259.3957 L 247.0627 255.6725 L 252.7875 253.2123 L 260.4735 248.7108 L 266.1624 246.1937 L 272.6092 242.6071 L 273.9883 242.0153 L 277.088 241.1801 L 281.9508 240.6681 L 288.599 240.7295 L 297.3364 241.5033 L 303.4231 240.049 L 306.422 239.0932 L 313.0515 235.857 L 315.9378 234.7874 L 319.0664 234.0568 L 330.6713 232.0769 L 327.0801 238.6881 L 325.2725 241.5374 L 318.8821 249.5414 L 316.0862 253.754 L 315.3779 255.2856 L 314.4664 258.433 L 313.642 264.5595 L 307.5195 269.1453 L 305.2562 271.2026 L 303.237 273.4943 L 301.5472 276.0091 L 298.0397 283.146 L 289.0019 295.3694 L 285.5165 302.6429 L 283.7584 305.4945 L 276.395 314.7183 L 272.2474 320.9176 L 270.3544 322.7929 L 266.9254 325.0232 L 264.7696 326.8006 L 262.8272 328.9808 L 261.2637 331.5684 L 260.2516 334.6885 L 259.6064 339.6589 L 259.5125 346.4909 L 259.818 351.6205 L 260.284 354.9774 L 261.1118 358.2181 L 264.3207 365.2435 L 265.6128 371.0537 L 266.5396 378.8324 L 251.6712 379.6198 L 236.0944 379.44 L 232.3018 379.0759 L 228.6269 378.3795 L 225.2303 377.1733 L 218.8722 374.2216 L 213.4376 372.9904 L 207.7231 372.5284 L 201.8993 372.401 L 180.0874 372.8265 Z" fill="#000000" fill-opacity="1" stroke="#000000" stroke-width="0" paint-order="fill" stroke-opacity="1" stroke-dasharray="" stroke-linecap="butt" stroke-linejoin="miter" stroke-miterlimit="10" clip-path="none" style="filter: url(#f1)"/>






</svg>