<?xml version="1.0" standalone="no"?>
<!-- Generator: Paintmaps.com , Online SVG vector map maker -->
<svg xmlns="http://www.w3.org/2000/svg" version="1.1" baseProfile="full"   style="background-color:#e0f2f1" width="800" height="500" viewBox="0 0 850 567">

<path data-code="200" d="M 644.3839 193.5576 L 631.7418 193.5613 L 625.6219 194.1624 L 622.7268 194.9157 L 616.1181 197.8855 L 613.2405 198.635 L 610.2341 199.0407 L 604.0459 199.3262 L 578.2011 199.4295 L 563.0782 183.7654 L 560.2838 181.0642 L 558.3361 179.4243 L 556.2616 178.0286 L 554.0624 177.0706 L 547.3149 175.6449 L 545.127 174.9199 L 542.9722 173.6989 L 539.0479 170.5243 L 538.7289 164.9266 L 538.0688 160.8805 L 537.2285 158.4517 L 535.0934 154.0506 L 534.2861 151.6049 L 533.8917 148.9394 L 534.0093 144.8801 L 534.6095 142.2465 L 535.0687 141.0706 L 537.9526 135.6232 L 540.032 130.7994 L 543.6365 124.2325 L 546.5872 115.8735 L 547.7728 111.23 L 552.1105 115.0545 L 555.15 117.3368 L 566.1466 123.0753 L 568.6395 123.9676 L 571.4325 124.4823 L 575.7533 124.7847 L 599.3961 124.5875 L 606.6494 124.9256 L 609.4487 125.429 L 611.955 126.3062 L 617.3317 129.1427 L 622.0111 131.2765 L 625.3888 133.6584 L 628.4086 136.5718 L 630.9909 139.8966 L 632.2793 142.4156 L 632.9915 145.0848 L 633.2951 147.8367 L 633.3528 150.7013 L 633.1105 156.6334 L 633.9037 161.7465 L 634.5912 164.3481 L 637.5969 171.1724 L 638.3161 173.7346 L 639.7024 180.2921 L 640.5632 182.7172 L 643.1406 188.3581 L 644.3839 193.5576 Z" fill="#000000" fill-opacity="1" stroke="#000000" stroke-width="0" paint-order="fill" stroke-opacity="1" stroke-dasharray="" stroke-linecap="butt" stroke-linejoin="miter" stroke-miterlimit="10" transform="matrix(0.8500000238418579,0,0,0.8500000238418579,63.74998092651367,42.5248908996582)" clip-path="none" style="filter: url(#f1)"/>
<path data-code="201" d="M 252.3203 510.2993 L 249.6196 503.5821 L 246.2202 497.6425 L 242.839 490.497 L 241.2696 488.2016 L 236.1661 481.5501 L 234.7538 479.2321 L 232.5384 474.5792 L 230.2991 471.6414 L 227.4533 469.3178 L 221.8631 466.5189 L 216.5906 463.4045 L 211.8767 461.3269 L 207.6474 458.8963 L 205.413 457.803 L 201.5289 456.8206 L 197.5124 456.5163 L 193.5191 456.7567 L 190.9424 457.356 L 188.6178 458.4924 L 186.7053 460.0797 L 185.131 461.9825 L 183.9025 464.1784 L 181.7181 468.8745 L 178.4271 473.3996 L 170.5948 481.9389 L 164.372 487.9499 L 160.9986 490.4256 L 156.451 492.7135 L 151.6645 495.5406 L 149.4844 496.0891 L 148.3242 496.0346 L 147.1774 495.6984 L 146.1053 495.0127 L 145.2945 494.0359 L 144.7895 492.9483 L 144.4943 491.8044 L 144.2816 489.3793 L 144.5091 485.4835 L 144.9614 482.8236 L 145.7334 480.2295 L 148.5602 474.6638 L 149.0575 473.5048 L 149.8021 470.8844 L 150.4388 465.3374 L 150.41 458.2877 L 150.1486 455.5113 L 149.6386 452.8139 L 148.7785 450.3419 L 146.5688 445.8938 L 145.6467 443.4857 L 143.9865 436.8774 L 142.8192 432.9458 L 144.1731 427.6693 L 144.7092 422.793 L 144.9142 412.826 L 144.6084 402.1096 L 149.3872 404.0388 L 158.1437 405.8289 L 160.9493 406.6291 L 166.2134 409.0692 L 168.9768 410.014 L 173.3631 410.679 L 186.9977 411.1373 L 191.4333 411.6332 L 194.2489 412.3564 L 200.8569 415.3319 L 203.7358 416.0832 L 206.743 416.4871 L 211.373 416.7332 L 231.815 416.9454 L 239.2352 417.7682 L 239.9481 420.7023 L 240.842 423.1104 L 243.6765 428.6367 L 245.6587 433.515 L 249.2421 440.0838 L 251.2278 444.9602 L 254.5435 451.6531 L 255.2718 454.2284 L 256.2784 459.5068 L 256.98 462.0746 L 260.0301 468.8688 L 260.743 471.4366 L 261.7573 476.715 L 262.4695 479.2809 L 265.0589 484.9068 L 265.9049 487.3394 L 267.1756 493.9721 L 267.8392 496.6056 L 271.8726 506.2626 L 269.4826 507.4648 L 267.101 508.1335 L 252.3203 510.2993 Z" fill="#000000" fill-opacity="1" stroke="#000000" stroke-width="0" paint-order="fill" stroke-opacity="1" stroke-dasharray="" stroke-linecap="butt" stroke-linejoin="miter" stroke-miterlimit="10" transform="matrix(0.8500000238418579,0,0,0.8500000238418579,63.74998092651367,42.5248908996582)" clip-path="none" style="filter: url(#f1)"/>
<path data-code="202" d="M 666.2924 359.8282 L 660.7558 354.0896 L 646.0681 353.9919 L 639.6862 354.3544 L 638.0858 354.4446 L 633.5571 355.4533 L 628.2924 357.8577 L 625.4642 358.842 L 622.3894 359.4093 L 617.6114 359.7812 L 547.1804 359.7098 L 538.9979 359.8826 L 532.9499 360.3015 L 528.1028 358.7274 L 521.5962 355.2298 L 518.1679 353.6669 L 516.0462 352.3483 L 514.2443 350.6709 L 512.7693 348.6722 L 511.7218 346.3204 L 509.8284 337.2458 L 505.3363 326.9388 L 504.0818 324.7261 L 502.4722 322.8326 L 500.528 321.2679 L 499.4292 320.648 L 496.782 319.7539 L 492.602 319.2242 L 485.4051 319.1584 L 478.1976 319.5585 L 475.394 319.9718 L 472.7053 320.7062 L 466.1332 323.862 L 461.1481 325.2295 L 461.3594 279.0766 L 474.8812 265.4862 L 477.6848 262.4732 L 480.2375 259.3175 L 481.6435 257.0596 L 482.5748 254.7322 L 483.9075 247.8403 L 484.6331 245.6219 L 485.2086 244.5173 L 486.6871 242.5356 L 488.496 240.8788 L 489.5026 240.197 L 495.1238 237.4789 L 505.6632 230.5137 L 510.1305 232.5631 L 512.7474 233.213 L 515.4376 233.5586 L 519.5161 233.7033 L 522.2238 233.5793 L 524.8851 233.2224 L 527.447 232.5105 L 529.6786 231.4379 L 533.9036 229.0241 L 538.6049 226.956 L 544.9382 223.2141 L 548.4483 221.625 L 550.7679 220.3364 L 552.9783 218.7022 L 558.2889 214.1996 L 560.488 212.5672 L 562.7816 211.2749 L 566.2628 209.6068 L 568.3112 208.2694 L 571.2204 205.8725 L 578.2011 199.4295 L 604.0459 199.3262 L 610.2341 199.0407 L 613.2405 198.635 L 616.1181 197.8855 L 622.7268 194.9157 L 625.6219 194.1624 L 631.7418 193.5613 L 644.3839 193.5576 L 644.8544 196.2024 L 645.5497 198.7852 L 646.552 201.0844 L 648.8301 205.5062 L 650.322 209.1729 L 651.5632 211.6017 L 653.1474 213.9122 L 659.1779 221.4559 L 661.8152 225.3762 L 663.4931 226.7813 L 666.5108 227.9759 L 667.2884 231.8943 L 668.2753 234.3983 L 670.5252 237.802 L 674.1853 241.9589 L 678.1666 245.8341 L 681.3315 248.4207 L 683.5702 249.8277 L 688.2474 251.9634 L 691.3496 254.0804 L 695.0844 257.61 L 697.5273 260.5967 L 698.8586 262.7662 L 700.8824 267.6201 L 703.1781 272.0231 L 704.215 274.3261 L 704.9567 276.9352 L 706.0063 282.1891 L 707.1805 286.996 L 702.5371 288.6453 L 694.6385 291.9851 L 692.6528 293.4484 L 690.9686 295.2724 L 690.2613 296.3036 L 689.6654 297.4119 L 688.8194 299.9233 L 687.8382 305.1134 L 687.1774 307.6587 L 684.6444 313.3128 L 683.8005 315.7566 L 682.4861 322.3536 L 681.7711 324.9271 L 678.6759 331.7119 L 677.9497 334.2797 L 676.8839 339.5243 L 676.1069 342.0658 L 674.0029 346.0255 L 672.0721 351.1236 L 670.9133 353.5862 L 669.5306 355.7764 L 666.2924 359.8282 Z" fill="#000000" fill-opacity="1" stroke="#000000" stroke-width="0" paint-order="fill" stroke-opacity="1" stroke-dasharray="" stroke-linecap="butt" stroke-linejoin="miter" stroke-miterlimit="10" transform="matrix(0.8500000238418579,0,0,0.8500000238418579,63.74998092651367,42.5248908996582)" clip-path="none" style="filter: url(#f1)"/>
<path data-code="203" d="M 271.8726 506.2626 L 267.8392 496.6056 L 267.1756 493.9721 L 265.9049 487.3394 L 265.0589 484.9068 L 262.4695 479.2809 L 261.7573 476.715 L 260.743 471.4366 L 260.0301 468.8688 L 256.98 462.0746 L 256.2784 459.5068 L 255.2718 454.2284 L 254.5435 451.6531 L 251.2278 444.9602 L 249.2421 440.0838 L 245.6587 433.515 L 243.6765 428.6367 L 240.842 423.1104 L 239.9481 420.7023 L 239.2352 417.7682 L 238.964 411.0941 L 238.3752 407.0349 L 237.5714 404.561 L 234.9989 398.9482 L 234.2811 396.4086 L 232.8124 389.8942 L 232.3398 388.6413 L 231.0049 386.2332 L 225.1717 378.5129 L 223.889 376.0502 L 223.4607 374.7579 L 222.8063 370.7005 L 222.5633 360.9402 L 222.3632 358.1808 L 221.873 355.4796 L 220.8924 352.9325 L 219.4625 350.637 L 216.8674 347.4757 L 197.3581 327.4573 L 193.2613 322.8702 L 190.3901 319.1396 L 192.8619 315.2287 L 194.389 312.1181 L 196.9799 304.7284 L 198.2823 299.7994 L 213.5032 315.58 L 218.1635 320.1371 L 220.0979 321.7976 L 222.1096 323.2553 L 224.0693 324.3109 L 226.8292 325.5112 L 228.7466 326.6458 L 229.7067 327.4103 L 231.4353 329.1892 L 232.1869 330.1885 L 233.2393 332.0519 L 234.839 336.0379 L 237.6982 341.4966 L 239.6494 346.2979 L 240.8004 348.6384 L 242.2431 350.761 L 243.89 352.7559 L 246.6125 355.5209 L 248.5736 357.1664 L 250.6748 358.5527 L 255.3599 360.6753 L 259.6152 363.0159 L 261.8665 364.0302 L 263.1337 364.4059 L 267.0911 364.9694 L 277.9221 365.3188 L 280.5693 365.6795 L 283.1192 366.4365 L 284.2498 366.9887 L 286.3496 368.3712 L 292.1448 373.3021 L 294.1369 374.8124 L 296.3135 376.0803 L 299.7665 377.8009 L 301.8241 379.191 L 308.6146 384.9652 L 310.6609 386.4323 L 312.9319 387.5969 L 318.6898 389.6801 L 320.7311 390.3112 L 323.6657 390.9424 L 320.3592 395.6723 L 318.3094 398.9163 L 315.7003 404.8578 L 312.8981 410.4029 L 312.062 412.8786 L 311.5731 415.5535 L 310.768 423.7585 L 310.2735 426.4164 L 309.4529 428.8565 L 306.9008 434.4918 L 306.2309 437.2606 L 305.7385 443.1006 L 305.5307 456.5144 L 304.9376 460.831 L 304.086 463.3951 L 298.4274 474.8685 L 295.9691 478.1313 L 288.5178 486.3532 L 285.9756 489.5615 L 284.5682 491.8175 L 282.3303 496.5173 L 280.9433 498.5949 L 279.2823 500.4996 L 277.4142 502.2184 L 271.8726 506.2626 Z" fill="#000000" fill-opacity="1" stroke="#000000" stroke-width="0" paint-order="fill" stroke-opacity="1" stroke-dasharray="" stroke-linecap="butt" stroke-linejoin="miter" stroke-miterlimit="10" transform="matrix(0.8500000238418579,0,0,0.8500000238418579,63.74998092651367,42.5248908996582)" clip-path="none" style="filter: url(#f1)"/>
<path data-code="204" d="M 505.6632 230.5137 L 504.6756 228.2615 L 502.2715 223.9317 L 501.2099 221.64 L 500.7964 220.3402 L 500.2618 217.639 L 499.8553 212.0432 L 500.0448 205.0141 L 500.7682 200.9229 L 501.8277 198.3551 L 504.198 194.9476 L 506.9903 191.8182 L 520.8566 177.544 L 524.9724 173.8191 L 527.2322 172.307 L 529.7202 171.2813 L 533.6606 170.6502 L 539.0479 170.5243 L 542.9722 173.6989 L 545.127 174.9199 L 547.3149 175.6449 L 554.0624 177.0706 L 556.2616 178.0286 L 558.3361 179.4243 L 560.2838 181.0642 L 563.0782 183.7654 L 578.2011 199.4295 L 571.2204 205.8725 L 568.3112 208.2694 L 566.2628 209.6068 L 562.7816 211.2749 L 560.488 212.5672 L 558.2889 214.1996 L 552.9783 218.7022 L 550.7679 220.3364 L 548.4483 221.625 L 544.9382 223.2141 L 538.6049 226.956 L 533.9036 229.0241 L 529.6786 231.4379 L 527.447 232.5105 L 524.8851 233.2224 L 522.2238 233.5793 L 519.5161 233.7033 L 515.4376 233.5586 L 512.7474 233.213 L 510.1305 232.5631 L 505.6632 230.5137 Z" fill="#000000" fill-opacity="1" stroke="#000000" stroke-width="0" paint-order="fill" stroke-opacity="1" stroke-dasharray="" stroke-linecap="butt" stroke-linejoin="miter" stroke-miterlimit="10" transform="matrix(0.8500000238418579,0,0,0.8500000238418579,63.74998092651367,42.5248908996582)" clip-path="none" style="filter: url(#f1)"/>
<path data-code="205" d="M 144.6084 402.1096 L 145.1332 398.0936 L 145.6813 395.4807 L 146.5484 393.0406 L 149.2005 387.4354 L 149.9105 384.8713 L 150.9157 379.5892 L 151.649 377.0139 L 152.6859 374.7335 L 154.9985 370.3361 L 156.9419 365.4409 L 160.5239 358.8796 L 162.623 354.0483 L 164.0501 351.7622 L 165.7365 349.6058 L 173.2194 341.3933 L 175.7659 338.2038 L 177.1472 335.959 L 179.264 331.1597 L 181.3272 328.0002 L 184.764 324.1531 L 190.3901 319.1396 L 193.2613 322.8702 L 197.3581 327.4573 L 216.8674 347.4757 L 219.4625 350.637 L 220.8924 352.9325 L 221.873 355.4796 L 222.3632 358.1808 L 222.5633 360.9402 L 222.8063 370.7005 L 223.4607 374.7579 L 223.889 376.0502 L 225.1717 378.5129 L 231.0049 386.2332 L 232.3398 388.6413 L 232.8124 389.8942 L 234.2811 396.4086 L 234.9989 398.9482 L 237.5714 404.561 L 238.3752 407.0349 L 238.964 411.0941 L 239.2352 417.7682 L 231.815 416.9454 L 211.373 416.7332 L 206.743 416.4871 L 203.7358 416.0832 L 200.8569 415.3319 L 194.2489 412.3564 L 191.4333 411.6332 L 186.9977 411.1373 L 173.3631 410.679 L 168.9768 410.014 L 166.2134 409.0692 L 160.9493 406.6291 L 158.1437 405.8289 L 149.3872 404.0388 L 144.6084 402.1096 Z" fill="#000000" fill-opacity="1" stroke="#000000" stroke-width="0" paint-order="fill" stroke-opacity="1" stroke-dasharray="" stroke-linecap="butt" stroke-linejoin="miter" stroke-miterlimit="10" transform="matrix(0.8500000238418579,0,0,0.8500000238418579,63.74998092651367,42.5248908996582)" clip-path="none" style="filter: url(#f1)"/>
<path data-code="206" d="M 361.4629 239.1394 L 362.7153 244.3427 L 365.3329 249.9854 L 366.2205 252.4142 L 367.6934 258.9606 L 368.445 261.472 L 370.9013 266.9439 L 371.4944 269.3914 L 371.5691 270.6969 L 371.4859 272.0043 L 370.8477 274.4557 L 369.7975 276.6027 L 366.8051 281.5993 L 365.3984 283.4026 L 360.8008 286.6222 L 358.3107 289.1656 L 357.0103 291.2882 L 356.5194 292.5468 L 355.9255 295.1935 L 355.6755 299.3129 L 355.8114 302.0779 L 356.1911 304.8035 L 357.3646 308.5904 L 359.9984 314.1843 L 360.9043 318.1459 L 361.2938 323.7305 L 361.3107 330.8629 L 354.5569 330.5341 L 350.6777 329.6795 L 348.4327 328.6557 L 344.1915 326.2814 L 340.6962 324.6829 L 338.3857 323.368 L 336.1901 321.7149 L 329.8279 316.3445 L 327.5773 314.8512 L 321.8166 311.8532 L 318.5503 309.2723 L 313.4194 304.2944 L 297.3849 287.4995 L 292.2061 282.6268 L 288.8616 280.2299 L 283.1446 277.2001 L 275.711 271.1083 L 273.4399 269.5736 L 272.2114 268.9575 L 270.8907 268.4785 L 268.1477 267.9 L 265.3287 267.6332 L 261.0226 267.5187 L 223.1282 267.7065 L 217.338 267.9807 L 213.5377 268.4278 L 212.9883 264.6071 L 212.8699 261.9585 L 213.6448 256.0377 L 216.7723 254.9558 L 223.3015 251.7512 L 225.774 250.9735 L 232.0784 249.4632 L 234.6263 248.4827 L 239.903 246.0126 L 242.7636 245.28 L 247.2549 244.7954 L 251.8547 244.6601 L 303.128 244.9588 L 310.7849 244.7183 L 313.7596 244.3257 L 316.6167 243.5537 L 323.0867 240.165 L 327.74 238.0443 L 332.8512 235.2417 L 335.5505 234.2273 L 338.3329 233.6807 L 342.6467 233.3351 L 355.9255 233.4027 L 361.4629 239.1394 Z" fill="#000000" fill-opacity="1" stroke="#000000" stroke-width="0" paint-order="fill" stroke-opacity="1" stroke-dasharray="" stroke-linecap="butt" stroke-linejoin="miter" stroke-miterlimit="10" transform="matrix(0.8500000238418579,0,0,0.8500000238418579,63.74998092651367,42.5248908996582)" clip-path="none" style="filter: url(#f1)"/>
<path data-code="207" d="M 386.542 353.3382 L 382.4656 349.5325 L 378.4018 346.9704 L 375.7349 344.596 L 373.5956 341.6939 L 371.3352 337.227 L 369.0621 334.4075 L 367.1672 332.8972 L 366.1183 332.298 L 363.7494 331.4302 L 361.3107 330.8629 L 361.2938 323.7305 L 360.9043 318.1459 L 359.9984 314.1843 L 357.3646 308.5904 L 356.1911 304.8035 L 355.8114 302.0779 L 355.6755 299.3129 L 355.9255 295.1935 L 356.5194 292.5468 L 357.0103 291.2882 L 358.3107 289.1656 L 360.8008 286.6222 L 365.3984 283.4026 L 366.8051 281.5993 L 369.7975 276.6027 L 370.8477 274.4557 L 371.4859 272.0043 L 371.5691 270.6969 L 371.4944 269.3914 L 370.9013 266.9439 L 368.445 261.472 L 367.6934 258.9606 L 366.2205 252.4142 L 365.3329 249.9854 L 362.7153 244.3427 L 361.4629 239.1394 L 364.3883 236.6655 L 366.4135 235.1778 L 373.223 231.5187 L 375.4109 229.8732 L 380.7236 225.4081 L 382.9875 223.8584 L 385.422 222.7483 L 391.7483 221.238 L 394.1961 220.4792 L 399.5665 217.7723 L 401.9608 216.9534 L 405.8738 216.5288 L 409.7868 216.9534 L 412.1796 217.7667 L 417.5627 220.4472 L 420.0077 221.1685 L 426.2706 222.6093 L 427.4724 223.1146 L 429.5412 224.467 L 431.3036 226.2065 L 432.7223 228.237 L 435.2998 234.0658 L 438.216 239.5733 L 440.1158 244.5023 L 443.6287 251.1125 L 445.5574 256.0133 L 449.0717 262.6009 L 450.5608 266.2394 L 451.7322 268.5274 L 453.165 270.5861 L 455.6523 273.4939 L 461.3594 279.0766 L 461.1481 325.2295 L 457.3428 326.0804 L 454.9943 326.9914 L 449.6458 329.9349 L 444.9002 331.9655 L 438.4266 335.4011 L 435.9556 336.1675 L 429.6088 337.5726 L 427.2547 338.4442 L 421.7758 341.0721 L 419.2942 341.8009 L 414.2224 342.8735 L 411.7204 343.6512 L 405.2504 347.1281 L 400.54 349.17 L 396.2839 351.4898 L 394.0559 352.4741 L 390.2366 353.2368 L 386.542 353.3382 Z" fill="#000000" fill-opacity="1" stroke="#000000" stroke-width="0" paint-order="fill" stroke-opacity="1" stroke-dasharray="" stroke-linecap="butt" stroke-linejoin="miter" stroke-miterlimit="10" transform="matrix(0.8500000238418579,0,0,0.8500000238418579,63.74998092651367,42.5248908996582)" clip-path="none" style="filter: url(#f1)"/>
<path data-code="208" d="M 355.9255 233.4027 L 356.2531 226.4225 L 356.7124 223.7176 L 357.5464 221.2286 L 360.4084 215.7136 L 362.0053 212.1202 L 363.3204 209.7665 L 369.3805 202.1908 L 370.8815 199.8672 L 371.4711 198.5974 L 372.1699 195.9638 L 372.3404 191.9008 L 371.9607 189.2297 L 371.605 187.9392 L 369.0395 182.3716 L 368.2104 179.9597 L 367.711 177.3167 L 366.8685 169.1362 L 366.3015 166.4669 L 365.8521 165.1765 L 364.5623 162.7815 L 362.9288 160.6006 L 355.4008 152.6605 L 352.96 149.533 L 351.84 147.1474 L 351.5526 145.84 L 351.5758 143.197 L 351.8808 141.9047 L 353.0501 139.4965 L 358.0655 133.1512 L 359.5786 130.8689 L 360.1886 129.6292 L 360.6458 128.3594 L 361.2347 125.7089 L 362.0715 117.5152 L 362.921 113.5461 L 363.9037 111.2338 L 366.1726 106.8213 L 368.1865 101.9619 L 370.0137 98.6972 L 373.4893 102.6193 L 375.8413 105.6887 L 377.1332 107.8545 L 379.2323 112.6783 L 381.4568 116.2022 L 384.1921 119.4049 L 386.2285 121.3153 L 388.4854 122.927 L 389.7322 123.5525 L 392.3174 124.2813 L 393.6382 124.4428 L 396.2889 124.4391 L 398.9044 124.0164 L 401.3155 123.1242 L 406.569 120.0849 L 411.173 117.8496 L 414.1809 115.7232 L 419.0984 111.4348 L 422.1055 109.128 L 424.0806 108.0254 L 427.8056 106.2973 L 429.8871 104.9223 L 432.8174 102.4258 L 440.3222 95.1094 L 443.261 92.6298 L 445.3475 91.2717 L 449.0787 89.5737 L 451.0665 88.4785 L 454.08 86.153 L 457.8648 82.539 L 466.1775 73.9677 L 470.0046 70.4363 L 473.0948 68.2667 L 476.8176 66.5047 L 478.7717 65.3739 L 480.7567 63.8599 L 485.4713 59.6785 L 487.4394 58.1965 L 488.4932 57.5822 L 490.6191 56.8346 L 491.6349 56.6993 L 493.6643 56.7858 L 495.7691 57.4131 L 500.9697 60.1763 L 502.9061 60.8469 L 505.9527 61.5701 L 508.3892 64.5662 L 509.8333 66.6625 L 510.8927 68.7269 L 512.4523 72.6303 L 515.9884 79.1991 L 517.9629 84.0736 L 519.2646 86.2564 L 521.6589 89.3182 L 525.2126 93.2216 L 530.762 98.9507 L 533.5817 101.7327 L 536.4825 104.3287 L 539.5706 106.4757 L 543.2695 108.1813 L 545.1355 109.222 L 547.7728 111.23 L 546.5872 115.8735 L 543.6365 124.2325 L 540.032 130.7994 L 537.9526 135.6232 L 535.0687 141.0706 L 534.6095 142.2465 L 534.0093 144.8801 L 533.8917 148.9394 L 534.2861 151.6049 L 535.0934 154.0506 L 537.2285 158.4517 L 538.0688 160.8805 L 538.7289 164.9266 L 539.0479 170.5243 L 533.6606 170.6502 L 529.7202 171.2813 L 527.2322 172.307 L 524.9724 173.8191 L 520.8566 177.544 L 506.9903 191.8182 L 504.198 194.9476 L 501.8277 198.3551 L 500.7682 200.9229 L 500.0448 205.0141 L 499.8553 212.0432 L 500.2618 217.639 L 500.7964 220.3402 L 501.2099 221.64 L 502.2715 223.9317 L 504.6756 228.2615 L 505.6632 230.5137 L 495.1238 237.4789 L 489.5026 240.197 L 488.496 240.8788 L 486.6871 242.5356 L 485.2086 244.5173 L 484.6331 245.6219 L 483.9075 247.8403 L 482.5748 254.7322 L 481.6435 257.0596 L 480.2375 259.3175 L 477.6848 262.4732 L 474.8812 265.4862 L 461.3594 279.0766 L 455.6523 273.4939 L 453.165 270.5861 L 451.7322 268.5274 L 450.5608 266.2394 L 449.0717 262.6009 L 445.5574 256.0133 L 443.6287 251.1125 L 440.1158 244.5023 L 438.216 239.5733 L 435.2998 234.0658 L 432.7223 228.237 L 431.3036 226.2065 L 429.5412 224.467 L 427.4724 223.1146 L 426.2706 222.6093 L 420.0077 221.1685 L 417.5627 220.4472 L 412.1796 217.7667 L 409.7868 216.9534 L 405.8738 216.5288 L 401.9608 216.9534 L 399.5665 217.7723 L 394.1961 220.4792 L 391.7483 221.238 L 385.422 222.7483 L 382.9875 223.8584 L 380.7236 225.4081 L 375.4109 229.8732 L 373.223 231.5187 L 366.4135 235.1778 L 364.3883 236.6655 L 361.4629 239.1394 L 355.9255 233.4027 Z" fill="#000000" fill-opacity="1" stroke="#000000" stroke-width="0" paint-order="fill" stroke-opacity="1" stroke-dasharray="" stroke-linecap="butt" stroke-linejoin="miter" stroke-miterlimit="10" transform="matrix(0.8500000238418579,0,0,0.8500000238418579,63.74998092651367,42.5248908996582)" clip-path="none" style="filter: url(#f1)"/>
<path data-code="209" d="M 323.6657 390.9424 L 320.7311 390.3112 L 318.6898 389.6801 L 312.9319 387.5969 L 310.6609 386.4323 L 308.6146 384.9652 L 301.8241 379.191 L 299.7665 377.8009 L 296.3135 376.0803 L 294.1369 374.8124 L 292.1448 373.3021 L 286.3496 368.3712 L 284.2498 366.9887 L 283.1192 366.4365 L 280.5693 365.6795 L 277.9221 365.3188 L 267.0911 364.9694 L 263.1337 364.4059 L 261.8665 364.0302 L 259.6152 363.0159 L 255.3599 360.6753 L 250.6748 358.5527 L 248.5736 357.1664 L 246.6125 355.5209 L 243.89 352.7559 L 242.2431 350.761 L 240.8004 348.6384 L 239.6494 346.2979 L 237.6982 341.4966 L 234.839 336.0379 L 233.2393 332.0519 L 232.1869 330.1885 L 231.4353 329.1892 L 229.7067 327.4103 L 228.7466 326.6458 L 226.8292 325.5112 L 224.0693 324.3109 L 222.1096 323.2553 L 220.0979 321.7976 L 218.1635 320.1371 L 213.5032 315.58 L 198.2823 299.7994 L 202.2974 294.3839 L 204.2782 291.1661 L 205.2468 288.758 L 206.6648 282.2361 L 207.4185 279.6777 L 208.4857 277.3935 L 213.5377 268.4278 L 217.338 267.9807 L 223.1282 267.7065 L 261.0226 267.5187 L 265.3287 267.6332 L 268.1477 267.9 L 270.8907 268.4785 L 272.2114 268.9575 L 273.4399 269.5736 L 275.711 271.1083 L 283.1446 277.2001 L 288.8616 280.2299 L 292.2061 282.6268 L 297.3849 287.4995 L 313.4194 304.2944 L 318.5503 309.2723 L 321.8166 311.8532 L 327.5773 314.8512 L 329.8279 316.3445 L 336.1901 321.7149 L 338.3857 323.368 L 340.6962 324.6829 L 344.1915 326.2814 L 348.4327 328.6557 L 350.6777 329.6795 L 354.5569 330.5341 L 361.3107 330.8629 L 363.7494 331.4302 L 366.1183 332.298 L 367.1672 332.8972 L 369.0621 334.4075 L 371.3352 337.227 L 373.5956 341.6939 L 375.7349 344.596 L 378.4018 346.9704 L 382.4656 349.5325 L 386.542 353.3382 L 378.5934 358.0606 L 372.7602 360.5833 L 366.3881 364.2631 L 361.6517 366.2693 L 355.288 369.9585 L 350.5424 371.9459 L 344.1788 375.6201 L 339.4811 377.7277 L 336.4141 379.8447 L 327.9358 387.6984 L 325.9924 389.3213 L 323.6657 390.9424 Z" fill="#000000" fill-opacity="1" stroke="#000000" stroke-width="0" paint-order="fill" stroke-opacity="1" stroke-dasharray="" stroke-linecap="butt" stroke-linejoin="miter" stroke-miterlimit="10" transform="matrix(0.8500000238418579,0,0,0.8500000238418579,63.74998092651367,42.5248908996582)" clip-path="none" style="filter: url(#f1)"/>
<path data-code="210" d="M 355.9255 233.4027 L 342.6467 233.3351 L 338.3329 233.6807 L 335.5505 234.2273 L 332.8512 235.2417 L 327.74 238.0443 L 323.0867 240.165 L 316.6167 243.5537 L 313.7596 244.3257 L 310.7849 244.7183 L 303.128 244.9588 L 251.8547 244.6601 L 247.2549 244.7954 L 242.7636 245.28 L 239.903 246.0126 L 234.6263 248.4827 L 232.0784 249.4632 L 225.774 250.9735 L 223.3015 251.7512 L 216.7723 254.9558 L 213.6448 256.0377 L 206.7444 252.2565 L 202.2777 250.1789 L 199.9623 248.7081 L 197.8575 246.6268 L 196.9806 245.4058 L 195.7168 242.6201 L 195.104 239.5978 L 194.8173 234.8867 L 195.154 194.1117 L 194.8631 185.9706 L 194.1615 179.2064 L 197.6399 178.038 L 202.3193 175.7839 L 203.6316 174.5893 L 203.9535 173.8642 L 204.0444 172.4347 L 208.9611 170.4361 L 211.342 169.2395 L 213.4616 167.8119 L 217.3901 164.4721 L 221.432 163.593 L 223.5269 162.665 L 224.5913 161.9982 L 227.573 159.59 L 235.0454 152.2604 L 237.9708 149.7602 L 240.0516 148.3946 L 244.7029 146.2119 L 247.7882 144.0667 L 250.6755 141.4745 L 257.2371 135.0541 L 260.1752 132.5708 L 262.2617 131.2108 L 266.915 129.0356 L 270.0003 126.8904 L 272.8877 124.2963 L 279.4457 117.8684 L 282.3796 115.3719 L 284.4653 113.9969 L 288.1987 112.2763 L 290.1781 111.1793 L 292.2061 109.701 L 299.0452 103.9511 L 301.1288 102.5949 L 304.8629 100.8686 L 306.8437 99.7603 L 308.8696 98.2708 L 311.7859 95.7743 L 314.6845 93.3925 L 316.7618 92.0194 L 319.192 90.9806 L 320.5445 90.6312 L 324.7413 90.1071 L 336.2535 89.9193 L 341.8881 89.3783 L 345.6715 88.193 L 351.0947 85.505 L 353.8602 84.7461 L 356.7405 84.3761 L 361.1213 84.3742 L 365.4069 85.1424 L 366.7678 85.659 L 368.9353 86.91 L 372.8011 90.1015 L 371.4331 95.2502 L 370.0137 98.6972 L 368.1865 101.9619 L 366.1726 106.8213 L 363.9037 111.2338 L 362.921 113.5461 L 362.0715 117.5152 L 361.2347 125.7089 L 360.6458 128.3594 L 360.1886 129.6292 L 359.5786 130.8689 L 358.0655 133.1512 L 353.0501 139.4965 L 351.8808 141.9047 L 351.5758 143.197 L 351.5526 145.84 L 351.84 147.1474 L 352.96 149.533 L 355.4008 152.6605 L 362.9288 160.6006 L 364.5623 162.7815 L 365.8521 165.1765 L 366.3015 166.4669 L 366.8685 169.1362 L 367.711 177.3167 L 368.2104 179.9597 L 369.0395 182.3716 L 371.605 187.9392 L 371.9607 189.2297 L 372.3404 191.9008 L 372.1699 195.9638 L 371.4711 198.5974 L 370.8815 199.8672 L 369.3805 202.1908 L 363.3204 209.7665 L 362.0053 212.1202 L 360.4084 215.7136 L 357.5464 221.2286 L 356.7124 223.7176 L 356.2531 226.4225 L 355.9255 233.4027 Z" fill="#000000" fill-opacity="1" stroke="#000000" stroke-width="0" paint-order="fill" stroke-opacity="1" stroke-dasharray="" stroke-linecap="butt" stroke-linejoin="miter" stroke-miterlimit="10" transform="matrix(0.8500000238418579,0,0,0.8500000238418579,63.74998092651367,42.5248908996582)" clip-path="none" style="filter: url(#f1)"/>











</svg>