<?xml version="1.0" standalone="no"?>
<!-- Generator: Paintmaps.com , Online SVG vector map maker -->
<svg xmlns="http://www.w3.org/2000/svg" version="1.1" baseProfile="full"   style="background-color:#e0f2f1" width="800" height="500" viewBox="0 0 800 533">

<path data-code="200" d="M 618.4773 193.6773 L 615.1983 192.8277 L 613.0951 191.868 L 611.1274 190.5336 L 605.5054 186.0129 L 603.457 184.8166 L 601.3057 184.0524 L 596.8873 183.0336 L 594.7428 182.3762 L 588.9963 179.6516 L 586.641 179.0584 L 584.1896 178.7659 L 572.8341 178.5802 L 569.0991 178.3403 L 566.6853 177.9048 L 564.5235 177.1259 L 559.8524 174.5771 L 555.7414 172.7809 L 550.1922 169.5502 L 546.0917 167.6423 L 544.137 166.3507 L 540.5116 163.1626 L 535.4893 157.84 L 532.6533 154.274 L 530.6875 151.1402 L 529.5869 150.2577 L 528.6785 149.9488 L 527.1472 145.6893 L 526.4428 142.1644 L 526.2881 139.7274 L 526.3874 137.315 L 526.8267 134.9618 L 527.2322 133.8295 L 528.3698 131.9003 L 529.0736 131.0523 L 530.6838 129.5816 L 532.5732 128.4312 L 535.5731 127.0854 L 539.2613 125.0756 L 541.2425 124.2096 L 543.5035 123.7018 L 545.8156 123.5769 L 548.1179 123.779 L 549.2469 124.014 L 551.3341 124.7749 L 555.0531 126.8044 L 557.0731 127.6457 L 563.6398 129.2611 L 568.2172 131.0392 L 570.0487 131.3514 L 571.8888 131.0047 L 579.4587 127.7 L 584.0534 124.9277 L 589.1202 122.5663 L 594.7021 119.3306 L 598.8352 117.5312 L 604.4147 114.3201 L 608.5478 112.5273 L 614.1273 109.3212 L 618.2598 107.5365 L 623.8325 104.3288 L 627.9582 102.5031 L 633.5025 98.9765 L 639.0358 95.7803 L 637.9438 107.1142 L 637.4526 110.6966 L 636.4673 113.9898 L 634.2796 118.928 L 633.4767 122.7273 L 633.1568 128.0681 L 633.0447 141.6533 L 632.8327 144.3106 L 632.3915 146.8906 L 631.6526 149.1616 L 629.8217 153.0809 L 629.057 155.1811 L 627.1084 163.1117 L 624.5122 169.0851 L 623.7018 172.868 L 623.0153 179.3903 L 622.555 181.9408 L 621.8223 184.2003 L 619.6131 189.15 L 618.4773 193.6773 Z" fill="#000000" fill-opacity="1" stroke="#000000" stroke-width="0" paint-order="fill" stroke-opacity="1" stroke-dasharray="" stroke-linecap="butt" stroke-linejoin="miter" stroke-miterlimit="10" transform="matrix(0.949999988079071,0,0,0.949999988079071,19.99998664855957,13.325027465820312)" clip-path="none" style="filter: url(#f1)"/>
<path data-code="201" d="M 491.2659 297.3308 L 491.7502 295.0335 L 492.1872 291.0123 L 492.2457 285.6584 L 491.81 281.7375 L 491.0853 279.2446 L 489.949 277.0918 L 485.6045 271.3008 L 484.3141 269.2812 L 483.3718 267.1235 L 482.5103 263.7547 L 482.6804 229.2287 L 482.3852 222.7212 L 481.9495 220.2151 L 481.5958 219.0073 L 480.7208 216.986 L 478.7328 213.1473 L 477.0017 208.896 L 473.8903 203.1609 L 472.0539 198.9392 L 470.7851 196.8653 L 469.2895 194.8999 L 466.822 192.0669 L 458.9181 183.8996 L 456.1487 181.4198 L 453.1581 179.3772 L 445.2215 176.0479 L 441.4051 174.7086 L 444.4469 168.7778 L 447.8251 163.0279 L 449.632 158.7799 L 452.76 153.0349 L 454.504 148.7738 L 457.4003 142.9187 L 458.0529 140.6739 L 458.981 136.0743 L 459.6083 133.8394 L 461.8539 128.9062 L 462.5848 126.7945 L 463.9534 118.7275 L 465.3412 113.298 L 467.0377 114.0769 L 468.831 115.2157 L 470.546 116.887 L 471.8617 118.951 L 472.3134 120.1424 L 472.8372 122.6386 L 473.5058 130.3901 L 474.0592 132.9043 L 474.8886 134.9305 L 477.8823 140.4504 L 479.0994 142.1151 L 479.8691 142.7971 L 486.8579 147.1995 L 491.9043 149.4969 L 497.6119 152.4351 L 499.9783 153.076 L 503.6807 153.5148 L 512.5429 153.615 L 518.8014 153.1253 L 521.2078 152.5896 L 528.6785 149.9488 L 529.5869 150.2577 L 530.6875 151.1402 L 532.6533 154.274 L 535.4893 157.84 L 540.5116 163.1626 L 544.137 166.3507 L 546.0917 167.6423 L 550.1922 169.5502 L 555.7414 172.7809 L 559.8524 174.5771 L 564.5235 177.1259 L 566.6853 177.9048 L 569.0991 178.3403 L 572.8341 178.5802 L 584.1896 178.7659 L 586.641 179.0584 L 588.9963 179.6516 L 594.7428 182.3762 L 596.8873 183.0336 L 601.3057 184.0524 L 603.457 184.8166 L 605.5054 186.0129 L 611.1274 190.5336 L 613.0951 191.868 L 615.1983 192.8277 L 618.4773 193.6773 L 617.7403 196.9836 L 617.063 198.4988 L 616.8357 199.0099 L 615.5557 200.7435 L 613.9862 202.2044 L 612.1337 203.3466 L 609.1209 204.6842 L 604.4708 207.2363 L 599.5285 209.5484 L 597.8141 210.8286 L 596.3481 212.4193 L 595.2086 214.2811 L 594.7797 215.3592 L 592.9717 223.2208 L 590.2621 229.1581 L 588.4164 234.7009 L 586.5837 238.4362 L 583.855 240.3013 L 577.3475 245.7949 L 575.3311 247.1079 L 574.2459 247.6256 L 571.8568 248.301 L 569.385 248.6017 L 561.8601 248.7923 L 559.3982 248.9945 L 557.014 249.5023 L 554.9298 250.4767 L 553.2555 251.8127 L 551.8665 253.4183 L 550.7677 255.2621 L 549.33 258.1773 L 547.4228 260.6751 L 544.9911 262.6767 L 541.0798 264.6881 L 539.1047 265.9781 L 536.3378 268.3363 L 533.8747 271.0609 L 532.519 273.1117 L 531.9835 274.2325 L 531.2698 276.7319 L 530.9414 279.3218 L 530.7953 284.628 L 530.9537 308.9392 L 530.9075 317.9166 L 530.6764 317.9166 L 530.6764 317.7983 L 530.0472 317.7983 L 530.0472 317.9166 L 529.6886 317.9166 L 529.6886 317.7983 L 529.3293 317.7983 L 529.3293 317.9166 L 529.2399 317.9166 L 529.2399 318.0366 L 529.06 318.0366 L 529.06 318.1565 L 528.7907 318.1565 L 528.7907 318.2765 L 528.6114 318.2765 L 528.6114 318.1565 L 528.4321 318.1565 L 528.4321 317.9166 L 528.3421 317.9166 L 528.3421 317.7983 L 528.2527 317.7983 L 528.2527 317.6783 L 528.0734 317.6783 L 528.0734 317.5584 L 527.7141 317.5584 L 527.7141 317.4384 L 527.5348 317.4384 L 527.5348 317.3184 L 527.3549 317.3184 L 527.3549 317.1985 L 526.4576 317.1985 L 526.4576 317.0802 L 526.3676 317.0802 L 526.3676 316.9602 L 526.1889 316.9602 L 526.1889 316.8402 L 525.6497 316.8402 L 525.6497 316.7203 L 525.4704 316.7203 L 525.4704 316.6003 L 524.9318 316.6003 L 524.9318 316.482 L 524.3932 316.482 L 524.3932 316.362 L 524.3038 316.362 L 524.3038 315.8822 L 524.1239 315.8822 L 524.1239 315.7639 L 524.0352 315.7639 L 524.0352 315.6439 L 523.9452 315.6439 L 523.9452 315.524 L 523.8552 315.524 L 523.8546 315.404 L 523.7659 315.404 L 523.7659 315.0457 L 523.6753 315.0457 L 523.6753 314.8058 L 523.5859 314.8058 L 523.5859 314.6859 L 523.496 314.6859 L 523.496 314.5659 L 523.406 314.5659 L 523.406 314.4476 L 523.3166 314.4476 L 523.3166 314.3276 L 523.2273 314.3276 L 523.2273 314.2077 L 523.0473 314.2077 L 523.0473 314.0877 L 522.8686 314.0877 L 522.868 313.9677 L 522.778 313.9677 L 522.778 313.8494 L 522.6881 313.8494 L 522.6881 313.7295 L 522.5987 313.7295 L 522.5987 313.6095 L 522.4181 313.6095 L 522.4181 313.4895 L 522.3294 313.4895 L 522.3294 313.3696 L 522.2394 313.3696 L 522.2394 312.7862 L 522.2394 312.6514 L 522.1501 312.6514 L 522.1501 312.1732 L 522.0595 312.1732 L 522.0595 311.9333 L 521.9701 311.9333 L 521.9701 311.815 L 521.7914 311.815 L 521.7914 311.695 L 521.7002 311.695 L 521.7002 311.5751 L 521.6115 311.5751 L 521.6115 311.4551 L 521.5215 311.4551 L 521.5215 311.3352 L 521.4315 311.3352 L 521.4315 311.0969 L 521.3416 311.0969 L 521.3416 310.8569 L 521.2522 310.8569 L 521.2522 310.737 L 521.0729 310.737 L 521.0729 310.617 L 520.9829 310.617 L 520.9829 310.4987 L 520.8036 310.4987 L 520.8036 310.3787 L 520.7136 310.3787 L 520.7136 310.2588 L 520.6236 310.2588 L 520.6236 310.0189 L 520.5343 310.0189 L 520.5343 309.9005 L 520.4443 309.9005 L 520.4443 309.7806 L 520.265 309.7806 L 520.265 309.6606 L 520.175 309.6606 L 520.175 309.4207 L 520.0857 309.4207 L 520.0857 309.3007 L 519.9057 309.3007 L 519.9057 309.1824 L 519.8164 309.1824 L 519.8164 309.0625 L 519.637 309.0625 L 519.637 308.9425 L 519.3677 308.9425 L 519.3677 308.8225 L 519.2778 308.8225 L 519.2778 308.5842 L 519.1878 308.5842 L 519.1878 308.4643 L 519.0085 308.4643 L 519.0085 308.3443 L 518.7392 308.3443 L 518.7392 308.2244 L 518.6498 308.2244 L 518.6498 308.1044 L 518.4699 308.1044 L 518.4699 308.2244 L 518.1118 308.2244 L 518.1118 307.7462 L 518.0206 307.7462 L 518.0206 307.6262 L 517.8419 307.6262 L 517.8419 307.5062 L 517.572 307.5062 L 517.572 307.3863 L 517.2128 307.3863 L 517.2128 307.268 L 516.9441 307.268 L 516.9441 307.148 L 516.7647 307.148 L 516.7647 307.028 L 516.6754 307.028 L 516.6754 306.7881 L 516.5854 306.7881 L 516.5854 306.6681 L 516.1368 306.6681 L 516.1368 306.5498 L 516.0253 306.5498 L 515.7775 306.5498 L 515.7775 306.4299 L 515.5082 306.4299 L 515.5082 306.3099 L 515.2389 306.3099 L 515.2389 306.1899 L 514.9702 306.1899 L 514.9702 306.07 L 514.521 306.07 L 514.521 305.9517 L 514.3423 305.9517 L 514.3423 305.8317 L 513.983 305.8317 L 513.983 305.7117 L 513.7137 305.7117 L 513.7137 305.5918 L 513.4444 305.5918 L 513.4444 305.4718 L 513.2657 305.4718 L 513.2645 305.3519 L 513.0852 305.3519 L 513.0852 305.2335 L 512.8152 305.2335 L 512.8152 305.1136 L 512.5466 305.1136 L 512.5466 304.9936 L 512.2779 304.9936 L 512.2779 304.8736 L 512.0086 304.8736 L 512.0086 304.7537 L 511.8286 304.7537 L 511.8286 304.6354 L 511.2007 304.6354 L 511.2007 304.5154 L 510.9314 304.5154 L 510.9314 304.3954 L 510.4828 304.3954 L 510.4828 304.2755 L 510.3034 304.2755 L 510.3034 304.1555 L 509.9448 304.1555 L 509.9448 304.0356 L 509.4956 304.0356 L 509.4956 303.9172 L 509.1357 303.9172 L 509.1357 303.7973 L 509.0469 303.7973 L 509.0469 303.9172 L 508.5977 303.9172 L 508.5977 303.7973 L 508.0591 303.7973 L 508.0591 303.6773 L 507.7004 303.6773 L 507.7004 303.5574 L 507.6105 303.5574 L 507.6105 303.4374 L 507.0725 303.4374 L 507.0725 303.6773 L 506.9825 303.6773 L 506.9825 303.5574 L 506.8925 303.5574 L 506.8925 303.4374 L 506.7132 303.4374 L 506.7132 303.3191 L 506.6232 303.3191 L 506.6232 303.1991 L 505.5467 303.1991 L 505.5467 303.0792 L 505.3673 303.0792 L 505.3673 302.9592 L 505.098 302.9592 L 505.098 302.8392 L 504.9181 302.8392 L 504.9181 302.7209 L 504.6482 302.7193 L 504.6482 302.6009 L 504.4695 302.6009 L 504.4695 302.481 L 504.2002 302.481 L 504.2002 302.361 L 503.9303 302.361 L 503.9303 302.2411 L 503.7516 302.2411 L 503.7516 302.1211 L 503.4823 302.1211 L 503.4823 302.0028 L 503.3029 302.0028 L 503.3029 301.8828 L 503.2123 301.8828 L 503.2123 301.7629 L 503.1236 301.7629 L 503.1236 301.6429 L 503.0336 301.6429 L 503.0336 301.5229 L 502.8543 301.5229 L 502.8543 301.4046 L 502.675 301.403 L 502.6744 301.2847 L 502.4057 301.2847 L 502.4057 301.403 L 502.2257 301.403 L 502.2257 301.2847 L 501.8671 301.2847 L 501.8671 301.1647 L 501.5978 301.1647 L 501.5978 301.0447 L 501.4185 301.0447 L 501.4185 300.9248 L 501.1492 300.9248 L 501.1492 300.8048 L 500.8799 300.8048 L 500.8799 300.6865 L 500.7899 300.6865 L 500.7899 300.5665 L 500.6106 300.5665 L 500.6106 300.4466 L 500.162 300.4466 L 500.162 300.3266 L 499.892 300.3266 L 499.892 300.2066 L 499.7133 300.2066 L 499.7133 300.0883 L 499.444 300.0883 L 499.444 299.9684 L 498.6361 299.9684 L 498.6361 299.8484 L 498.4562 299.8484 L 498.4562 299.7284 L 498.1875 299.7284 L 498.1875 299.6085 L 498.0076 299.6085 L 498.0076 299.4885 L 497.8282 299.4885 L 497.8282 299.3702 L 497.4696 299.3702 L 497.4696 299.2502 L 497.021 299.2502 L 497.021 299.1303 L 496.841 299.1303 L 496.841 299.0103 L 496.5711 299.0103 L 496.5711 298.8903 L 496.0627 298.8903 L 495.8532 298.8903 L 495.8532 298.772 L 495.6745 298.772 L 495.6745 298.6521 L 495.4945 298.6521 L 495.4945 298.5321 L 494.8666 298.5321 L 494.8666 298.4121 L 494.418 298.4121 L 494.418 298.2922 L 494.0587 298.2922 L 494.0587 298.1722 L 493.79 298.1722 L 493.79 298.0539 L 493.6101 298.0539 L 493.6101 297.9339 L 493.4307 297.9339 L 493.4307 297.814 L 492.2642 297.814 L 492.2642 297.694 L 492.0849 297.694 L 492.0849 297.5741 L 491.8156 297.5741 L 491.8156 297.4557 L 491.6356 297.4557 L 491.6356 297.3358 L 491.2659 297.3308 Z M 491.2394 297.4557 L 491.2659 297.3308 L 491.277 297.4557 L 491.2394 297.4557 Z" fill="#000000" fill-opacity="1" stroke="#000000" stroke-width="0" paint-order="fill" stroke-opacity="1" stroke-dasharray="" stroke-linecap="butt" stroke-linejoin="miter" stroke-miterlimit="10" transform="matrix(0.949999988079071,0,0,0.949999988079071,19.99998664855957,13.325027465820312)" clip-path="none" style="filter: url(#f1)"/>
<path data-code="202" d="M 212.1243 155.6051 L 217.3426 159.899 L 220.0812 161.705 L 222.2837 162.6006 L 226.052 163.2103 L 229.8832 163.1709 L 233.6244 162.5497 L 235.7991 161.7527 L 240.5423 159.4274 L 242.8865 158.7734 L 245.341 158.4053 L 249.1235 158.1653 L 254.2494 158.1193 L 267.0499 158.6468 L 271.3649 157.7151 L 273.5377 157.043 L 279.3175 154.3381 L 281.5594 153.7415 L 283.9103 153.4079 L 291.7625 153.1286 L 317.7334 153.3176 L 323.775 153.2584 L 327.3474 153.4178 L 329.6706 153.7235 L 331.8996 154.3151 L 337.6251 157.0923 L 339.7813 157.7446 L 344.2349 158.6895 L 346.4102 159.36 L 352.0667 162.3673 L 356.2097 164.1256 L 360.8524 166.8157 L 364.8642 168.6727 L 366.9015 169.8066 L 368.8217 171.274 L 370.615 172.9469 L 372.2844 174.7579 L 373.796 176.6871 L 375.0636 178.7462 L 377.515 183.9883 L 378.8744 185.9965 L 383.4568 191.7974 L 384.8267 193.817 L 385.8552 195.6542 L 377.4004 201.4173 L 375.4352 202.3803 L 374.3241 202.732 L 372.028 203.1428 L 369.6777 203.3022 L 360.2559 203.3876 L 357.9992 203.7656 L 356.9042 204.1386 L 355.9274 204.6366 L 354.218 205.9627 L 352.8863 207.6898 L 352.4124 208.7136 L 352.1086 209.8787 L 352.0094 211.0652 L 352.0987 212.2484 L 352.376 213.4135 L 352.8487 214.5408 L 354.1619 216.5358 L 356.638 219.1749 L 359.4659 221.4936 L 361.5303 222.7557 L 366.6913 224.9117 L 373.6999 228.3528 L 366.7289 232.2557 L 361.6073 234.415 L 356.0273 237.5899 L 352.7378 239.013 L 350.9531 239.999 L 349.1124 241.3679 L 346.4989 243.7293 L 333.1518 257.5857 L 330.5697 260.0211 L 328.769 261.4836 L 326.8568 262.7046 L 322.7151 264.4876 L 318.0594 267.1054 L 313.8967 268.9689 L 312.2199 269.9845 L 311.3904 270.6698 L 309.9318 272.2671 L 309.3211 273.1709 L 308.4448 275.1067 L 307.9561 277.0951 L 307.2542 281.1475 L 306.6922 283.1359 L 306.2583 284.1482 L 305.1805 286.0807 L 300.5224 293.1486 L 292.6172 293.8536 L 290.0795 294.4107 L 288.8631 294.8659 L 286.9835 295.9291 L 285.1576 297.3555 L 283.3631 299.0563 L 278.5047 304.2098 L 276.903 305.6099 L 275.0931 306.5515 L 274.0172 306.6944 L 272.9942 306.5235 L 272.0779 306.116 L 271.2761 305.5343 L 269.9981 303.9797 L 269.1902 301.9601 L 268.834 298.5321 L 269.0269 290.0247 L 268.7643 286.434 L 268.1216 284.1449 L 267.6126 283.1458 L 266.2729 281.3989 L 264.5887 280.0153 L 262.552 279.0802 L 260.3237 278.625 L 252.2866 277.9661 L 250.0626 277.4188 L 249.0631 277.0179 L 244.3575 274.5069 L 240.2286 272.714 L 234.6646 269.4767 L 230.516 267.7101 L 225.8751 265.0431 L 221.9312 263.191 L 220.0553 262.0637 L 217.7118 259.8321 L 216.4756 258.0475 L 214.641 253.9014 L 211.5826 248.0479 L 210.0617 243.6636 L 212.2525 241.3169 L 214.1838 238.8404 L 217.3821 232.8522 L 222.5591 226.1294 L 223.8637 224.0704 L 224.8059 221.7582 L 225.3267 219.2702 L 225.5898 216.7116 L 225.7451 212.8071 L 225.7235 207.5699 L 225.4998 203.6867 L 225.1295 201.1593 L 224.4103 198.7321 L 223.8791 197.6229 L 222.5653 195.5753 L 218.0267 189.8796 L 216.727 187.8616 L 214.813 183.6925 L 212.2956 178.8875 L 211.5457 176.7101 L 210.9978 173.1326 L 210.8795 166.9571 L 211.1845 161.9647 L 212.1243 155.6051 Z" fill="#000000" fill-opacity="1" stroke="#000000" stroke-width="0" paint-order="fill" stroke-opacity="1" stroke-dasharray="" stroke-linecap="butt" stroke-linejoin="miter" stroke-miterlimit="10" transform="matrix(0.949999988079071,0,0,0.949999988079071,19.99998664855957,13.325027465820312)" clip-path="none" style="filter: url(#f1)"/>
<path data-code="203" d="M 310.0994 377.6066 L 309.6224 380.0174 L 309.0019 382.1471 L 307.9222 384.9457 L 307.0009 386.8223 L 305.6353 388.3884 L 300.4558 391.6307 L 297.5687 393.0308 L 295.3188 393.5895 L 291.8142 393.9181 L 283.5055 394.1515 L 281.1742 394.4341 L 278.9311 395.0077 L 276.9647 395.8934 L 273.2395 397.9426 L 268.1857 400.332 L 263.6329 403.4099 L 258.3856 406.6834 L 254.0663 395.3741 L 253.0076 393.3874 L 251.6223 391.6947 L 249.9332 390.2979 L 247.8824 389.3087 L 244.4622 388.676 L 240.9459 388.648 L 237.4512 389.0852 L 235.2081 389.7409 L 233.2546 390.6989 L 229.5609 392.8303 L 225.4524 394.656 L 219.9074 397.9098 L 215.831 399.8554 L 214.0014 401.0846 L 212.2248 402.5685 L 206.1591 408.5551 L 203.4636 410.9692 L 201.5052 412.3216 L 199.2713 413.2961 L 196.8409 413.8203 L 194.3457 414.0569 L 187.9787 414.1013 L 181.5766 413.7447 L 175.1245 412.7111 L 170.9784 407.9833 L 168.8912 405.3375 L 167.7167 403.451 L 165.2129 398.2729 L 159.4442 390.5674 L 158.3116 388.3999 L 157.9055 387.1937 L 157.2732 383.4125 L 157.0884 378.1966 L 157.2239 352.9717 L 157.4119 349.0639 L 157.9813 345.2827 L 158.7232 343.0527 L 160.983 338.1441 L 161.6202 335.9175 L 162.5661 331.3228 L 163.2267 329.078 L 166.1699 323.2229 L 167.9737 318.9683 L 171.196 313.2759 L 174.5027 305.4998 L 174.8626 303.5606 L 174.7905 302.5615 L 174.2587 300.6717 L 172.2732 295.9521 L 171.2779 293.9292 L 169.9709 292.1971 L 168.3736 290.7428 L 166.5372 289.6352 L 164.4167 288.9368 L 162.2481 288.5128 L 162.2642 279.7901 L 162.4497 277.3515 L 162.8527 274.9719 L 163.5792 272.7798 L 166.0158 267.9534 L 167.3691 264.859 L 168.4975 262.9314 L 169.9019 261.2733 L 171.5355 259.86 L 173.4169 258.7327 L 176.4334 257.3688 L 182.0178 254.2333 L 186.1657 252.4619 L 191.7396 249.241 L 195.8567 247.4317 L 200.5519 244.924 L 202.6576 244.1944 L 204.9408 243.8082 L 210.0617 243.6636 L 211.5826 248.0479 L 214.641 253.9014 L 216.4756 258.0475 L 217.7118 259.8321 L 220.0553 262.0637 L 221.9312 263.191 L 225.8751 265.0431 L 230.516 267.7101 L 234.6646 269.4767 L 240.2286 272.714 L 244.3575 274.5069 L 249.0631 277.0179 L 250.0626 277.4188 L 252.2866 277.9661 L 260.3237 278.625 L 262.552 279.0802 L 264.5887 280.0153 L 266.2729 281.3989 L 267.6126 283.1458 L 268.1216 284.1449 L 268.7643 286.434 L 269.0269 290.0247 L 268.834 298.5321 L 269.1902 301.9601 L 269.9981 303.9797 L 271.2761 305.5343 L 272.0779 306.116 L 272.9942 306.5235 L 274.0172 306.6944 L 275.0931 306.5515 L 276.903 305.6099 L 278.5047 304.2098 L 283.3631 299.0563 L 285.1576 297.3555 L 286.9835 295.9291 L 288.8631 294.8659 L 290.0795 294.4107 L 292.6172 293.8536 L 300.5224 293.1486 L 304.8533 300.91 L 305.4905 302.7587 L 305.607 303.7233 L 305.3408 305.6033 L 303.6979 310.3935 L 303.0021 315.3366 L 302.7643 320.5591 L 302.7698 325.816 L 303.0428 329.6926 L 303.4945 332.1921 L 304.2666 334.4286 L 306.7563 339.2534 L 308.5446 343.4849 L 311.7712 349.1823 L 313.6002 353.3957 L 316.1268 358.158 L 316.5348 359.1868 L 317.0783 361.4956 L 317.1966 365.0649 L 316.8183 367.4214 L 316.459 368.5668 L 314.8697 371.4935 L 312.2063 375.0858 L 310.0994 377.6066 Z" fill="#000000" fill-opacity="1" stroke="#000000" stroke-width="0" paint-order="fill" stroke-opacity="1" stroke-dasharray="" stroke-linecap="butt" stroke-linejoin="miter" stroke-miterlimit="10" transform="matrix(0.949999988079071,0,0,0.949999988079071,19.99998664855957,13.325027465820312)" clip-path="none" style="filter: url(#f1)"/>
<path data-code="204" d="M 586.5837 238.4362 L 592.7381 248.2287 L 595.0077 253.4626 L 598.0957 259.2159 L 599.8452 263.4819 L 603.2352 269.2171 L 606.2893 274.9687 L 607.8792 277.5914 L 607.5883 277.5914 L 607.5883 277.7113 L 607.2297 277.7113 L 607.2297 277.8297 L 607.1397 277.8297 L 607.1397 277.7113 L 606.9604 277.7113 L 606.9604 277.5914 L 606.7811 277.5914 L 606.7811 277.4714 L 606.4218 277.4714 L 606.4218 277.3515 L 606.1525 277.3515 L 606.1525 277.2315 L 605.9732 277.2315 L 605.9732 277.1115 L 605.1646 277.1115 L 605.1646 277.2315 L 604.8966 277.2315 L 604.8966 277.1115 L 604.5379 277.1115 L 604.5379 277.2315 L 603.9987 277.2315 L 603.9987 277.1115 L 603.5501 277.1115 L 603.5501 277.2315 L 603.0115 277.2315 L 603.0115 277.3515 L 602.2936 277.3515 L 602.2936 277.4714 L 601.845 277.4714 L 601.845 277.5914 L 601.4863 277.5914 L 601.4863 277.7113 L 600.9471 277.7113 L 600.9471 277.8297 L 600.4985 277.8297 L 600.4985 277.9496 L 599.9593 277.9496 L 599.9593 277.8297 L 599.0626 277.8297 L 599.0626 277.9496 L 598.8827 277.9496 L 598.8827 278.0696 L 598.5234 278.0696 L 598.5234 278.1895 L 598.1648 278.1895 L 598.1648 278.3095 L 597.5368 278.3095 L 597.5368 278.1895 L 597.1782 278.1895 L 597.1782 278.2865 L 597.0876 278.3095 L 596.0116 278.3095 L 596.0116 278.4278 L 595.383 278.4278 L 595.383 278.3095 L 595.1137 278.3095 L 595.1137 278.4278 L 594.9344 278.4278 L 594.9344 278.5478 L 594.8444 278.5478 L 594.8444 278.6678 L 594.5751 278.6678 L 594.5751 278.5478 L 594.3958 278.5478 L 594.3958 278.4278 L 594.3059 278.4278 L 594.3059 278.5478 L 594.1265 278.5478 L 594.1265 278.6678 L 593.8572 278.6678 L 593.8572 278.7877 L 593.4086 278.7877 L 593.4086 278.9077 L 593.3186 278.9077 L 593.3186 278.7877 L 593.2293 278.7877 L 593.2293 278.8699 L 593.2293 278.9077 L 591.9734 278.9077 L 591.9734 279.0276 L 591.8834 279.0276 L 591.8834 279.146 L 591.0755 279.146 L 591.0755 279.2659 L 590.8956 279.2659 L 590.8956 279.3859 L 590.7162 279.3859 L 590.7162 279.5058 L 590.5369 279.5058 L 590.5369 279.6258 L 590.2676 279.6258 L 590.2676 279.7441 L 590.0883 279.7441 L 590.0883 279.8345 L 589.9885 279.8641 L 589.9083 279.8641 L 589.9083 279.984 L 589.729 279.984 L 589.729 280.104 L 589.5497 280.104 L 589.5497 280.224 L 589.4597 280.224 L 589.4597 280.2831 L 589.4597 280.3439 L 589.2804 280.3439 L 589.2804 280.4622 L 589.1011 280.4622 L 589.1011 280.5822 L 588.9211 280.5822 L 588.9211 280.7022 L 588.6518 280.7022 L 588.6518 280.8221 L 588.4725 280.8221 L 588.4725 280.9421 L 588.2038 280.9421 L 588.2038 281.1804 L 588.1139 281.1804 L 588.1139 281.3003 L 587.9339 281.3003 L 587.9339 281.4203 L 587.8446 281.4203 L 587.8446 281.5403 L 587.6646 281.5403 L 587.6646 281.6602 L 587.4859 281.6602 L 587.4859 281.7785 L 587.3947 281.7785 L 587.3947 281.8985 L 587.306 281.8985 L 587.306 282.0185 L 587.216 282.0185 L 587.216 282.1384 L 586.9467 282.1384 L 586.9467 282.2584 L 586.6768 282.2584 L 586.6768 282.3767 L 586.4981 282.3767 L 586.4981 282.4967 L 586.4081 282.4967 L 586.4081 282.6166 L 586.3181 282.6166 L 586.3181 282.7366 L 586.2288 282.7366 L 586.2288 282.8566 L 586.1394 282.8566 L 586.1394 282.9765 L 585.8701 282.9765 L 585.8701 283.0948 L 585.6902 283.0948 L 585.6902 283.2148 L 585.6002 283.2148 L 585.6002 283.3348 L 585.3315 283.3348 L 585.3315 283.4547 L 585.1522 283.4547 L 585.1522 283.5747 L 584.8823 283.5747 L 584.8823 283.693 L 584.6136 283.693 L 584.6136 283.813 L 584.5242 283.813 L 584.5242 283.9329 L 584.3443 283.9329 L 584.3443 284.0529 L 584.165 284.0529 L 584.165 284.1728 L 583.8063 284.1728 L 583.8063 284.2928 L 583.4471 284.2928 L 583.4471 284.4111 L 583.3571 284.4111 L 583.3571 284.5311 L 583.2671 284.5311 L 583.2671 284.6511 L 583.1778 284.6511 L 583.1778 284.771 L 582.9972 284.771 L 582.9972 285.0093 L 582.9085 285.0093 L 582.9085 285.1293 L 582.7285 285.1293 L 582.7285 285.2492 L 582.6385 285.2492 L 582.6385 285.3692 L 582.1905 285.3692 L 582.1905 285.4891 L 581.0234 285.4891 L 581.0234 285.6091 L 580.844 285.6091 L 580.844 285.7274 L 580.2161 285.7274 L 580.2161 285.6091 L 578.1153 285.6091 L 577.9958 285.6091 L 577.8824 285.6091 L 577.8824 285.7274 L 577.7031 285.7274 L 577.7031 285.8474 L 577.6131 285.8474 L 577.6131 285.9213 L 577.6131 285.9673 L 577.5404 285.9673 L 577.4338 285.9673 L 577.4338 286.0331 L 577.4338 286.0873 L 577.345 286.0873 L 577.0739 286.0873 L 577.0739 286.2073 L 576.8052 286.2073 L 576.8052 286.3256 L 576.1772 286.3256 L 576.1772 286.4455 L 575.9979 286.4455 L 575.9979 286.5655 L 575.818 286.5655 L 575.818 286.6855 L 575.7286 286.6855 L 575.7286 286.8054 L 575.4593 286.8054 L 575.4593 286.9254 L 575.3694 286.9254 L 575.3694 287.1637 L 575.28 287.1637 L 575.28 287.2836 L 575.19 287.2836 L 575.19 287.4036 L 575.0107 287.4036 L 575.0107 287.5236 L 574.8301 287.5236 L 574.8301 287.6419 L 574.4721 287.6419 L 574.4721 287.7618 L 574.3821 287.7618 L 574.3821 287.8818 L 574.2034 287.8818 L 574.2034 288.0018 L 574.0235 288.0018 L 574.0235 288.1217 L 573.8435 288.1217 L 573.8435 288.2417 L 573.6642 288.2417 L 573.6642 288.36 L 573.5749 288.36 L 573.5749 288.429 L 573.5749 288.48 L 573.4849 288.48 L 573.4849 288.5999 L 573.2994 288.5999 L 572.8853 288.5999 L 572.4977 288.5999 L 572.4977 288.7199 L 572.4077 288.7199 L 572.4077 288.8399 L 572.3177 288.8399 L 572.3177 288.9582 L 572.1384 288.9582 L 572.1384 289.0781 L 571.9591 289.0781 L 571.9591 289.1981 L 571.7797 289.1981 L 571.7797 289.3181 L 571.6898 289.3181 L 571.6898 289.4364 L 571.5998 289.4364 L 571.5998 289.558 L 571.5104 289.558 L 571.5104 289.6763 L 571.3311 289.6763 L 571.3311 289.7963 L 571.1512 289.7963 L 571.1512 289.9162 L 570.9718 289.9162 L 570.9718 290.0362 L 570.8831 290.0362 L 570.8831 290.2745 L 570.7925 290.2745 L 570.7925 290.3944 L 570.6132 290.3944 L 570.6132 290.5144 L 570.4326 290.5144 L 570.4326 290.6344 L 570.3439 290.6344 L 570.3439 290.7543 L 570.1646 290.7543 L 570.1646 290.8743 L 569.9846 290.8743 L 569.9846 290.9926 L 569.8059 290.9926 L 569.8059 291.1126 L 569.446 291.1126 L 569.446 291.2325 L 569.3561 291.2325 L 569.3561 291.3525 L 569.1767 291.3525 L 569.1767 291.4724 L 569.0874 291.4724 L 569.0874 291.5908 L 568.9974 291.5908 L 568.9974 291.7107 L 568.8181 291.7107 L 568.8181 291.8307 L 568.6381 291.8307 L 568.6381 291.9506 L 568.5488 291.9506 L 568.5488 292.0706 L 568.4588 292.0706 L 568.4588 292.1906 L 568.3695 292.1906 L 568.3695 292.3072 L 568.2795 292.3072 L 568.2795 292.4288 L 568.1895 292.4288 L 568.1895 292.5488 L 568.1002 292.5488 L 568.1002 292.6688 L 568.0102 292.6688 L 567.9208 292.6688 L 567.9208 292.7887 L 567.8309 292.7887 L 567.8309 293.027 L 567.7409 293.027 L 567.7409 293.1749 L 567.7409 293.2669 L 567.638 293.2669 L 567.5616 293.2669 L 567.5616 293.3343 L 567.5616 293.3869 L 567.4716 293.3869 L 567.4716 293.5069 L 567.3822 293.5069 L 567.3822 293.6252 L 567.2923 293.6252 L 567.2923 293.7451 L 567.2023 293.7451 L 567.2023 293.8651 L 567.1129 293.8651 L 567.1129 293.9851 L 567.023 293.9851 L 567.023 294.105 L 566.9336 294.105 L 566.9336 294.2233 L 566.8436 294.2233 L 566.8436 294.3433 L 566.6643 294.3433 L 566.6643 294.4633 L 566.395 294.4633 L 566.395 294.3433 L 566.305 294.3433 L 566.305 294.4518 L 565.9464 294.4633 L 565.9464 294.5832 L 565.7665 294.5832 L 565.7665 294.7032 L 565.6771 294.7032 L 565.6771 294.9415 L 565.4972 294.9415 L 565.4972 295.0614 L 565.4084 295.0614 L 565.4084 295.1814 L 565.3184 295.1814 L 565.3184 295.3014 L 565.2272 295.3014 L 565.2272 295.4197 L 565.0485 295.4197 L 565.0485 295.5396 L 564.9586 295.5396 L 564.9586 295.7796 L 564.8686 295.7796 L 564.8686 295.8995 L 564.7792 295.8995 L 564.7792 296.0195 L 564.6899 296.0195 L 564.6899 296.2578 L 564.5999 296.2578 L 564.5999 296.3777 L 564.5093 296.3777 L 564.5093 296.4977 L 564.4206 296.4977 L 564.4206 296.7376 L 564.1513 296.7376 L 564.1513 296.8559 L 564.0613 296.8559 L 564.0613 297.0959 L 563.882 297.0959 L 563.882 297.2158 L 563.7914 297.2158 L 563.7914 297.3358 L 563.7027 297.3358 L 563.7027 297.5741 L 563.6127 297.5741 L 563.6127 297.694 L 563.5227 297.694 L 563.5227 297.814 L 563.4334 297.814 L 563.4334 298.2922 L 563.3434 298.2922 L 563.3434 298.6521 L 563.2534 298.6521 L 563.2534 298.772 L 563.1641 298.772 L 563.1641 299.0103 L 563.0741 299.0103 L 563.0741 299.2502 L 562.9847 299.2502 L 562.9847 299.9684 L 562.8948 299.9684 L 562.8948 301.1647 L 562.8048 301.1647 L 562.8048 301.2847 L 562.7154 301.2847 L 562.7154 301.403 L 562.5355 301.4046 L 562.5355 302.2411 L 562.6255 302.2411 L 562.6255 303.1991 L 562.7154 303.1991 L 562.7154 303.4374 L 562.7154 303.6773 L 562.8048 303.6773 L 562.8048 303.7973 L 562.8948 303.7973 L 562.8948 303.9172 L 562.9847 303.9172 L 562.9847 304.3954 L 562.8948 304.3954 L 562.8948 304.6354 L 562.8048 304.6354 L 562.8048 304.8736 L 562.8948 304.8736 L 562.8948 305.1678 L 562.8948 305.2335 L 562.9847 305.2335 L 562.9847 305.3519 L 562.8948 305.3519 L 562.8948 305.7117 L 562.9847 305.7117 L 562.9847 306.1899 L 563.0741 306.1899 L 563.0741 306.3099 L 563.3434 306.3099 L 563.3434 306.1899 L 563.5227 306.185 L 563.5227 306.07 L 563.5806 306.07 L 563.7027 306.07 L 563.7027 306.1899 L 563.7914 306.1899 L 563.7914 306.3099 L 563.882 306.3099 L 563.882 306.6681 L 563.972 306.6681 L 563.972 306.9081 L 563.882 306.9081 L 563.882 307.1463 L 563.7914 307.1463 L 563.7914 307.268 L 563.6127 307.268 L 563.6127 307.3863 L 563.5227 307.3863 L 563.5227 307.5062 L 563.4334 307.5062 L 563.4334 307.6262 L 563.0741 307.6262 L 563.0741 307.3863 L 562.9847 307.3863 L 562.9847 307.2745 L 562.9847 307.1463 L 562.7154 307.1463 L 562.7154 307.6262 L 562.2668 307.6262 L 562.2662 307.8661 L 562.1768 307.8661 L 562.1768 308.3443 L 562.0869 308.3443 L 562.0869 308.6319 L 562.0869 308.9425 L 561.9975 308.9425 L 561.9975 309.1824 L 561.9075 309.1824 L 561.9075 309.3007 L 561.8176 309.3007 L 561.8176 309.4207 L 561.6389 309.4207 L 561.6389 309.5407 L 561.5477 309.5407 L 561.5477 309.659 L 561.4589 309.659 L 561.4589 309.7806 L 561.369 309.7806 L 561.369 310.0172 L 561.2802 310.0172 L 561.2802 310.2588 L 561.189 310.2588 L 561.189 310.3787 L 561.0997 310.3787 L 561.0997 310.4987 L 561.0103 310.4987 L 561.0103 310.617 L 560.8297 310.617 L 560.8297 310.737 L 560.741 310.737 L 560.741 310.8569 L 560.5611 310.8569 L 560.5611 310.9769 L 560.3817 310.9769 L 560.3817 311.0969 L 559.2152 311.0969 L 559.2152 311.2168 L 559.1252 311.2168 L 559.1252 311.3352 L 558.4973 311.3352 L 558.4973 311.2168 L 558.4073 311.2168 L 558.4073 311.0969 L 558.3186 311.0969 L 558.3186 310.9769 L 558.228 310.9769 L 558.228 310.737 L 558.0486 310.737 L 558.0486 310.617 L 557.4201 310.617 L 557.4201 310.737 L 557.0614 310.737 L 557.0614 310.8569 L 556.9714 310.8569 L 556.9714 310.9769 L 556.8821 310.9769 L 556.8821 311.2168 L 556.7022 311.2168 L 556.7022 311.3352 L 556.5851 311.3352 L 556.3435 311.3352 L 556.3435 311.5751 L 556.2535 311.5751 L 556.2535 311.695 L 556.1636 311.695 L 556.1636 311.815 L 556.0736 311.815 L 556.0736 311.9333 L 555.7149 311.9333 L 555.7149 312.0533 L 555.3557 312.0533 L 555.3557 311.9333 L 555.1763 311.9333 L 555.1763 312.0533 L 555.087 312.0533 L 555.087 312.1732 L 554.907 312.1732 L 554.907 312.2932 L 554.8177 312.2932 L 554.8177 312.7714 L 554.7277 312.7714 L 554.7277 313.0113 L 554.6377 313.0113 L 554.6377 313.1313 L 554.4584 313.1313 L 554.4584 313.2496 L 554.1891 313.2496 L 554.1891 313.3696 L 554.0998 313.3696 L 554.0998 314.0877 L 554.0098 314.0877 L 554.0098 314.5659 L 553.9198 314.5659 L 553.9198 315.0457 L 554.0098 315.0457 L 554.0098 315.524 L 554.0998 315.524 L 554.0998 315.6439 L 554.1891 315.6439 L 554.1891 315.7639 L 554.2791 315.7639 L 554.2791 316.0022 L 554.4584 316.0022 L 554.4584 316.1221 L 554.4935 316.1221 L 554.5484 316.1221 L 554.5484 316.2421 L 554.6377 316.2421 L 554.6377 316.362 L 554.907 316.362 L 554.907 316.482 L 555.3557 316.482 L 555.3557 316.6003 L 555.4456 316.6003 L 555.4456 316.7203 L 556.1636 316.7203 L 556.1636 316.6003 L 556.6122 316.6003 L 556.6122 316.482 L 556.7915 316.482 L 556.7915 316.362 L 556.9714 316.362 L 556.9714 316.2421 L 557.0614 316.2421 L 557.0614 316.1221 L 557.1502 316.1221 L 557.1502 316.0022 L 557.4201 316.0022 L 557.4201 316.1221 L 557.6 316.1221 L 557.6 316.2421 L 557.6894 316.2421 L 557.6894 316.7203 L 557.6 316.7203 L 557.6 316.9602 L 557.51 316.9602 L 557.51 317.1985 L 557.3307 317.1985 L 557.3307 317.3184 L 557.2414 317.3184 L 557.2414 317.4384 L 557.1502 317.4384 L 557.1502 317.5584 L 557.0614 317.5584 L 557.0614 317.6783 L 556.8821 317.6783 L 556.8821 317.7983 L 556.7915 317.7983 L 556.7915 317.9166 L 556.6122 317.9166 L 556.6122 318.0366 L 556.5234 318.0366 L 556.5234 318.1565 L 556.3435 318.1565 L 556.3435 318.2765 L 556.0736 318.2765 L 556.0736 318.3965 L 555.8943 318.3965 L 555.8943 318.5148 L 555.4456 318.5148 L 555.4456 318.6347 L 554.7277 318.6347 L 554.7277 318.7547 L 554.0998 318.7547 L 554.0998 318.8747 L 553.7405 318.8747 L 553.7405 318.9946 L 553.2919 318.9946 L 553.2919 318.8747 L 552.5739 318.8747 L 552.5739 318.7547 L 551.9448 318.7547 L 551.9448 318.6347 L 551.856 318.6347 L 551.856 318.3965 L 551.4968 318.3965 L 551.4968 318.5148 L 551.3174 318.5148 L 551.3174 318.6347 L 550.7788 318.6347 L 550.7788 318.5148 L 550.5089 318.5148 L 550.5089 318.3965 L 550.2402 318.3965 L 550.2402 318.5148 L 550.1509 318.5148 L 550.1509 318.7547 L 550.0609 318.7547 L 550.0609 318.8747 L 549.433 318.8747 L 549.433 318.7547 L 549.343 318.7547 L 549.343 318.6347 L 548.715 318.6347 L 548.715 318.5148 L 548.3564 318.5148 L 548.3564 318.6347 L 547.9965 318.6347 L 547.9965 318.7547 L 547.6385 318.7547 L 547.6385 318.8747 L 547.3685 318.8747 L 547.3685 318.9946 L 547.2786 318.9946 L 547.2786 319.1146 L 546.5607 319.1146 L 546.5607 318.9946 L 546.4707 318.9946 L 546.4707 318.8747 L 546.2914 318.8747 L 546.2914 318.7547 L 546.202 318.7547 L 546.202 318.6347 L 546.112 318.6347 L 546.112 318.5148 L 545.9327 318.5148 L 545.9327 318.2765 L 545.8427 318.2765 L 545.8427 318.1565 L 545.7528 318.1565 L 545.7528 318.0366 L 545.6634 318.0366 L 545.6634 317.7983 L 545.5734 317.7983 L 545.5734 317.5584 L 545.4841 317.5584 L 545.4841 317.4384 L 545.2148 317.4384 L 545.2148 317.3184 L 545.1248 317.3184 L 545.1248 317.1985 L 545.0348 317.1985 L 545.0348 317.0802 L 544.8555 317.0802 L 544.8555 316.9602 L 544.4069 316.9602 L 544.4069 316.8402 L 544.3175 316.8402 L 544.3175 316.7203 L 544.2276 316.7203 L 544.2276 316.6003 L 544.1376 316.6003 L 544.1376 316.482 L 543.7789 316.482 L 543.7789 316.362 L 543.6501 316.362 L 543.061 316.362 L 543.0604 316.2421 L 542.1632 316.2421 L 542.1632 316.362 L 541.8939 316.362 L 541.8939 316.482 L 540.9966 316.482 L 540.9966 316.6003 L 540.368 316.6003 L 540.368 316.7203 L 539.9194 316.7203 L 539.9194 316.8402 L 539.6501 316.8402 L 539.6501 316.9602 L 538.5735 316.9602 L 538.5735 316.8402 L 537.9444 316.8402 L 537.9444 316.9602 L 537.7657 316.9602 L 537.7657 316.8402 L 537.0477 316.8402 L 537.0477 316.9602 L 536.8684 316.9602 L 536.8684 317.0802 L 536.4192 317.0802 L 536.4192 317.1985 L 536.2762 317.1985 L 535.9705 317.1985 L 535.9705 317.3184 L 535.6119 317.3184 L 535.6119 317.4384 L 535.4326 317.4384 L 535.4326 317.5584 L 535.3426 317.5584 L 535.3426 317.6783 L 535.1639 317.6783 L 535.1639 317.7983 L 534.9833 317.7983 L 534.9833 317.9166 L 534.894 317.9166 L 534.894 318.0366 L 534.6241 318.0366 L 534.6241 317.9166 L 534.3554 317.9166 L 534.3554 318.0366 L 534.0861 318.0366 L 534.0861 318.1565 L 533.9961 318.1565 L 533.9961 318.2765 L 533.9067 318.2765 L 533.9067 318.3965 L 533.7268 318.3965 L 533.7268 318.5148 L 533.6381 318.5148 L 533.6381 318.3965 L 533.4581 318.3965 L 533.4575 318.2765 L 533.1882 318.2765 L 533.1882 318.1565 L 532.9195 318.1565 L 532.9195 318.2765 L 532.7396 318.2765 L 532.7396 318.3965 L 532.0217 318.3965 L 532.0217 318.2765 L 531.753 318.2765 L 531.753 318.1565 L 531.573 318.1565 L 531.573 318.0366 L 531.2316 318.0366 L 530.9451 318.0366 L 530.9451 317.9166 L 530.9075 317.9166 L 530.9537 308.9392 L 530.7953 284.628 L 530.9414 279.3218 L 531.2698 276.7319 L 531.9835 274.2325 L 532.519 273.1117 L 533.8747 271.0609 L 536.3378 268.3363 L 539.1047 265.9781 L 541.0798 264.6881 L 544.9911 262.6767 L 547.4228 260.6751 L 549.33 258.1773 L 550.7677 255.2621 L 551.8665 253.4183 L 553.2555 251.8127 L 554.9298 250.4767 L 557.014 249.5023 L 559.3982 248.9945 L 561.8601 248.7923 L 569.385 248.6017 L 571.8568 248.301 L 574.2459 247.6256 L 575.3311 247.1079 L 577.3475 245.7949 L 583.855 240.3013 L 586.5837 238.4362 Z" fill="#000000" fill-opacity="1" stroke="#000000" stroke-width="0" paint-order="fill" stroke-opacity="1" stroke-dasharray="" stroke-linecap="butt" stroke-linejoin="miter" stroke-miterlimit="10" transform="matrix(0.949999988079071,0,0,0.949999988079071,19.99998664855957,13.325027465820312)" clip-path="none" style="filter: url(#f1)"/>
<path data-code="205" d="M 410.4149 314.4476 L 410.1456 314.4476 L 410.1456 314.5659 L 409.9663 314.5659 L 409.9663 314.6859 L 409.877 314.6859 L 409.877 314.8058 L 409.787 314.8058 L 409.787 315.0457 L 409.697 315.0457 L 409.697 315.1657 L 409.5183 315.1657 L 409.5183 315.284 L 409.3846 315.284 L 409.3384 315.284 L 409.3384 315.3498 L 409.3384 315.524 L 409.2484 315.524 L 409.2484 315.6439 L 409.159 315.6439 L 409.159 316.0022 L 409.0691 316.0022 L 409.0691 316.1221 L 408.9791 316.1221 L 408.9791 316.2421 L 408.8004 316.2421 L 408.8004 316.362 L 408.7092 316.362 L 408.7092 316.482 L 408.5305 316.482 L 408.5305 316.7203 L 408.3844 316.7203 L 408.1712 316.7203 L 408.1712 316.8402 L 408.0818 316.8402 L 408.0818 316.9602 L 407.9919 316.9602 L 407.9919 317.2856 L 407.9919 317.5584 L 407.9019 317.5584 L 407.9019 317.7983 L 407.8126 317.7983 L 407.8126 318.1565 L 407.6326 318.1565 L 407.6326 318.2765 L 407.5433 318.2765 L 407.5433 319.1146 L 407.6326 319.1146 L 407.6326 319.2329 L 407.5433 319.2329 L 407.5433 319.4728 L 407.274 319.4728 L 407.274 319.5928 L 407.184 319.5928 L 407.184 319.7128 L 406.9147 319.7128 L 406.9147 319.5928 L 406.6232 319.5928 L 406.556 319.5928 L 406.556 319.7128 L 406.1968 319.7128 L 406.1968 320.3109 L 406.1074 320.3109 L 406.1074 320.5492 L 406.0174 320.5492 L 406.0174 320.7891 L 405.8381 320.7891 L 405.8381 320.9091 L 405.6582 320.9091 L 405.6582 321.029 L 405.5688 321.029 L 405.5688 321.1474 L 405.4788 321.1474 L 405.4788 321.2673 L 405.3895 321.2673 L 405.3895 321.3873 L 405.2995 321.3873 L 405.2995 321.5073 L 405.2095 321.5073 L 405.2095 321.6272 L 405.1202 321.6272 L 405.1202 321.8655 L 405.0308 321.8655 L 405.0308 321.9855 L 404.8509 321.9855 L 404.8509 322.1054 L 404.7609 322.1054 L 404.7609 322.2254 L 404.6716 322.2254 L 404.6716 322.5836 L 404.581 322.5836 L 404.581 322.7036 L 404.4916 322.7036 L 404.4916 322.9435 L 404.4023 322.9435 L 404.4023 323.1818 L 404.3129 323.1818 L 404.3129 323.6616 L 404.2217 323.6616 L 404.2217 323.8999 L 404.133 323.8999 L 404.133 324.0199 L 404.043 324.0199 L 404.043 324.1398 L 403.953 324.1398 L 403.953 324.3798 L 403.8631 324.3798 L 403.8631 324.618 L 403.7737 324.618 L 403.7737 325.2162 L 403.8631 325.2162 L 403.8631 325.3362 L 403.7737 325.3362 L 403.7737 325.5761 L 403.6837 325.5761 L 403.6837 325.8144 L 403.5944 325.8144 L 403.5944 326.4125 L 403.5038 326.4125 L 403.5038 326.5325 L 403.415 326.5325 L 403.415 326.6525 L 403.3251 326.6525 L 403.3251 326.7724 L 403.2351 326.7724 L 403.2351 326.8924 L 403.1451 326.8924 L 403.1451 327.2506 L 403.0558 327.2506 L 403.0558 327.4906 L 402.9658 327.4906 L 402.9658 327.7288 L 402.8765 327.7288 L 402.8765 328.0887 L 402.7859 328.0887 L 402.7859 328.2087 L 402.6965 328.2087 L 402.6965 328.447 L 402.6072 328.447 L 402.6072 328.6869 L 402.5172 328.6869 L 402.5172 328.9268 L 402.4278 328.9268 L 402.4278 329.525 L 402.3379 329.525 L 402.3379 329.6433 L 402.2479 329.6449 L 402.2479 329.8832 L 402.1585 329.8832 L 402.1585 330.1231 L 402.0692 330.1231 L 402.0692 330.4814 L 401.9786 330.4814 L 401.9786 330.6013 L 401.8892 330.6013 L 401.8892 331.0795 L 401.7993 331.0795 L 401.7993 331.1995 L 401.7099 331.1995 L 401.7099 331.4394 L 401.6199 331.4394 L 401.6199 331.6777 L 401.53 331.6777 L 401.53 331.7977 L 401.4406 331.7977 L 401.4406 332.0376 L 401.3513 332.0376 L 401.3513 332.7557 L 401.2607 332.7557 L 401.2607 332.994 L 401.1713 332.994 L 401.1713 333.114 L 401.0813 333.114 L 401.0813 333.3539 L 400.992 333.3539 L 400.992 333.4738 L 400.902 333.4738 L 400.902 333.7138 L 400.902 333.8321 L 400.812 333.8321 L 400.812 334.3103 L 400.7227 334.3103 L 400.7221 334.4303 L 400.6333 334.4303 L 400.6333 334.5502 L 400.5421 334.5502 L 400.5421 335.0284 L 400.4534 335.0284 L 400.4534 335.6266 L 400.3634 335.6266 L 400.3634 335.7465 L 400.2741 335.7465 L 400.2741 335.8665 L 400.1835 335.8665 L 400.1835 336.2248 L 400.0941 336.2248 L 400.0941 336.5846 L 400.0041 336.5846 L 400.0041 336.7046 L 399.8242 336.7046 L 399.8242 336.8246 L 399.7355 336.8246 L 399.7355 336.9429 L 399.6455 336.9429 L 399.6455 337.0628 L 399.5555 337.0628 L 399.5555 337.1828 L 399.3762 337.1828 L 399.3762 337.3028 L 399.2067 337.3028 L 399.1063 337.3028 L 399.1063 337.4227 L 398.9276 337.4227 L 398.9276 337.541 L 398.5683 337.541 L 398.5683 337.661 L 398.4789 337.661 L 398.4789 337.781 L 398.389 337.781 L 398.389 337.9009 L 398.299 337.9009 L 398.299 338.0209 L 398.2097 338.0209 L 398.2097 338.2592 L 398.1197 338.2592 L 398.1197 338.4991 L 398.0297 338.4991 L 398.0297 338.6191 L 397.9404 338.6191 L 397.9404 338.8573 L 397.761 338.8573 L 397.761 339.0973 L 397.6711 339.0973 L 397.6711 339.3372 L 397.5811 339.3372 L 397.5811 339.5755 L 397.4917 339.5755 L 397.4917 339.9354 L 397.4018 339.9354 L 397.4018 340.1736 L 397.3118 340.1736 L 397.3118 340.4136 L 397.1325 340.4136 L 397.1325 340.5335 L 397.0425 340.5335 L 397.0425 340.6535 L 396.9538 340.6535 L 396.9538 341.3716 L 396.8632 341.3716 L 396.8632 341.7298 L 396.7738 341.7298 L 396.7738 341.9698 L 396.6838 341.9698 L 396.6838 342.8062 L 396.5945 342.8062 L 396.5945 342.9262 L 396.5045 342.9262 L 396.5045 343.1661 L 396.4145 343.1661 L 396.4145 343.5243 L 396.5045 343.5243 L 396.5045 344.0042 L 396.4145 344.0042 L 396.4145 344.1225 L 396.3246 344.1225 L 396.3246 344.4824 L 396.2358 344.4824 L 396.2358 344.8406 L 396.1446 344.8406 L 396.1446 345.0806 L 396.0547 345.0806 L 396.0547 345.4388 L 395.9659 345.4388 L 395.9659 345.5588 L 395.8766 345.5588 L 395.8766 345.9187 L 395.786 345.9187 L 395.786 346.0386 L 395.6966 346.0386 L 395.6966 346.8751 L 395.6066 346.8751 L 395.6066 347.115 L 395.5179 347.115 L 395.5179 347.2349 L 395.4279 347.2349 L 395.4279 347.3549 L 395.3367 347.3549 L 395.3367 347.4732 L 395.158 347.4732 L 395.158 347.5932 L 394.8887 347.5932 L 394.8887 347.6901 L 394.8887 347.8331 L 394.7994 347.8331 L 394.7994 347.9531 L 394.7094 347.9531 L 394.7094 348.0714 L 394.5301 348.0714 L 394.5301 348.3113 L 394.4401 348.3113 L 394.4401 349.1494 L 394.3501 349.1494 L 394.3501 349.3877 L 394.2608 349.3877 L 394.2608 349.9875 L 394.3501 349.9875 L 394.3501 350.1058 L 394.2608 350.1058 L 394.2608 350.3457 L 394.1708 350.3457 L 394.1708 351.0639 L 394.2608 351.0639 L 394.2608 351.4221 L 394.1708 351.4221 L 394.1708 351.662 L 394.0808 351.662 L 394.0808 352.5001 L 394.1708 352.5001 L 394.1708 352.6529 L 394.1708 353.0983 L 394.0808 353.0983 L 394.0808 353.6964 L 393.9915 353.6964 L 393.9915 353.8164 L 394.0808 353.8164 L 394.0808 354.0547 L 393.9915 354.0547 L 393.9915 354.5345 L 393.9015 354.5345 L 393.9015 354.8928 L 393.8121 354.8928 L 393.8121 355.7309 L 393.9015 355.7309 L 393.9015 356.9272 L 393.8121 356.9272 L 393.8121 357.2854 L 393.7222 357.2854 L 393.7222 357.4054 L 393.6322 357.4054 L 393.6322 357.8836 L 393.7222 357.8852 L 393.7222 358.3635 L 393.8121 358.3635 L 393.8121 358.8417 L 393.7222 358.8417 L 393.7222 359.0816 L 393.6322 359.0816 L 393.6322 359.4398 L 393.7222 359.4398 L 393.7222 360.038 L 393.6322 360.038 L 393.6322 360.3979 L 393.7222 360.3979 L 393.7222 360.5162 L 393.9915 360.5162 L 393.9915 361.4742 L 393.9015 361.4742 L 393.9015 361.5942 L 393.8121 361.5942 L 393.8121 361.8325 L 393.9015 361.8325 L 393.9015 362.1924 L 393.8121 362.1924 L 393.8121 362.4323 L 393.7222 362.4323 L 393.7222 362.5506 L 393.6322 362.5506 L 393.6322 362.7905 L 393.5429 362.7905 L 393.5429 363.5087 L 393.4529 363.5087 L 393.4529 363.8669 L 393.3629 363.8669 L 393.3629 364.4651 L 393.4529 364.4651 L 393.4529 364.585 L 393.3629 364.585 L 393.3629 365.4231 L 393.2736 365.4231 L 393.2736 365.663 L 393.1836 365.663 L 393.1836 365.7814 L 393.0936 365.7814 L 393.0936 366.0213 L 393.0043 366.0213 L 393.0043 366.4995 L 392.9143 366.4995 L 392.9143 366.7394 L 392.8249 366.7394 L 392.8249 367.0303 L 392.8249 367.0977 L 392.735 367.0977 L 392.735 367.2603 L 392.735 367.4575 L 392.645 367.4575 L 392.645 367.6975 L 392.5556 367.6975 L 392.5556 368.8938 L 392.4663 368.8938 L 392.4663 369.0138 L 392.3757 369.0138 L 392.3757 368.8938 L 392.1964 368.8938 L 392.1964 368.7738 L 392.107 368.7738 L 392.107 369.492 L 392.017 369.492 L 392.017 369.8502 L 392.107 369.8502 L 392.107 369.9702 L 392.017 369.9702 L 392.017 370.0901 L 391.9271 370.0901 L 391.9271 370.2101 L 391.8377 370.2101 L 391.8377 370.33 L 391.7484 370.33 L 391.7484 370.4484 L 391.5684 370.4484 L 391.5684 370.5683 L 391.3885 370.5683 L 391.3885 370.6883 L 390.7605 370.6883 L 390.7605 370.8083 L 390.4912 370.8083 L 390.4912 370.9282 L 390.3119 370.9282 L 390.3119 371.0465 L 390.2213 371.0465 L 390.2213 371.2865 L 390.1326 371.2865 L 390.132 371.6463 L 389.9526 371.6463 L 389.9526 371.7647 L 389.7733 371.7647 L 389.7733 371.8846 L 389.6833 371.8846 L 389.6833 372.1245 L 389.594 372.1245 L 389.594 372.2445 L 389.5034 372.2445 L 389.5034 372.3628 L 389.414 372.3628 L 389.414 372.4828 L 389.2347 372.4828 L 389.2347 372.6027 L 389.1453 372.6027 L 389.1453 372.7227 L 389.0554 372.7227 L 389.0554 372.8427 L 388.8761 372.8427 L 388.8761 373.2009 L 388.7867 373.2009 L 388.7867 373.4408 L 388.6961 373.4408 L 388.6961 373.5608 L 388.5168 373.5608 L 388.5168 373.6791 L 388.3375 373.6791 L 388.3375 373.7991 L 388.2475 373.7991 L 388.2475 373.919 L 388.1581 373.919 L 388.1581 374.039 L 388.0688 374.039 L 388.0688 374.2789 L 387.8888 374.2789 L 387.8888 374.3972 L 387.4396 374.3972 L 387.4396 374.5172 L 387.365 374.5172 L 382.9287 372.9035 L 382.946 372.8706 L 376.2566 370.2183 L 372.7435 369.2915 L 370.1269 368.9727 L 366.1355 368.7689 L 358.1231 368.8675 L 354.2211 369.3276 L 351.7376 370.0145 L 346.0867 373.0218 L 342.0158 374.8804 L 337.3607 377.4538 L 333.9972 378.54 L 329.01 379.0495 L 321.3242 379.0133 L 316.1885 378.6321 L 310.0994 377.6066 L 312.2063 375.0858 L 314.8697 371.4935 L 316.459 368.5668 L 316.8183 367.4214 L 317.1966 365.0649 L 317.0783 361.4956 L 316.5348 359.1868 L 316.1268 358.158 L 313.6002 353.3957 L 311.7712 349.1823 L 308.5446 343.4849 L 306.7563 339.2534 L 304.2666 334.4286 L 303.4945 332.1921 L 303.0428 329.6926 L 302.7698 325.816 L 302.7643 320.5591 L 303.0021 315.3366 L 303.6979 310.3935 L 305.3408 305.6033 L 305.607 303.7233 L 305.4905 302.7587 L 304.8533 300.91 L 300.5224 293.1486 L 305.1805 286.0807 L 306.2583 284.1482 L 306.6922 283.1359 L 307.2542 281.1475 L 307.9561 277.0951 L 308.4448 275.1067 L 309.3211 273.1709 L 309.9318 272.2671 L 311.3904 270.6698 L 312.2199 269.9845 L 313.8967 268.9689 L 318.0594 267.1054 L 322.7151 264.4876 L 326.8568 262.7046 L 328.769 261.4836 L 330.5697 260.0211 L 333.1518 257.5857 L 346.4989 243.7293 L 349.1124 241.3679 L 350.9531 239.999 L 352.7378 239.013 L 356.0273 237.5899 L 361.6073 234.415 L 366.7289 232.2557 L 373.6999 228.3528 L 376.4273 229.8335 L 380.0934 232.1407 L 385.1416 234.5136 L 390.6835 237.7723 L 394.7803 239.6161 L 399.4458 242.2027 L 401.6261 243.0161 L 402.8395 243.2955 L 405.3297 243.634 L 409.1461 243.7868 L 412.9797 243.634 L 415.4959 243.3349 L 419.0744 242.3867 L 423.69 239.9365 L 425.6977 239.2053 L 426.7663 238.9933 L 428.893 238.8897 L 430.9136 239.2611 L 431.8386 239.6785 L 432.66 240.2931 L 433.2942 241.0753 L 434.0632 242.8173 L 434.8021 245.5172 L 435.4941 247.1835 L 437.6867 249.9459 L 440.2121 254.2317 L 441.5832 255.8224 L 443.1935 257.2209 L 445.065 258.3646 L 448.0938 259.7565 L 453.7854 262.7621 L 455.9817 263.4458 L 461.5223 264.7078 L 463.5208 265.4637 L 467.2201 267.2073 L 469.2808 267.7233 L 470.3765 267.789 L 472.5518 267.5113 L 474.4714 266.7866 L 478.1732 264.9806 L 482.5103 263.7547 L 483.3718 267.1235 L 484.3141 269.2812 L 485.6045 271.3008 L 489.949 277.0918 L 491.0853 279.2446 L 491.81 281.7375 L 492.2457 285.6584 L 492.1872 291.0123 L 491.7502 295.0335 L 491.2659 297.3308 L 491.2394 297.4557 L 491.0071 297.4557 L 491.0071 297.5741 L 490.8284 297.5741 L 490.8284 297.4557 L 490.4691 297.4557 L 490.4691 297.3358 L 489.9299 297.3358 L 489.9299 297.4557 L 489.5718 297.4557 L 489.5718 297.5741 L 489.3919 297.5741 L 489.3919 297.4557 L 488.9433 297.4557 L 488.9433 297.3358 L 488.8539 297.3358 L 488.8539 297.4557 L 488.4047 297.4557 L 488.4047 297.5741 L 488.3153 297.5741 L 488.3153 297.4557 L 487.5974 297.4557 L 487.5974 297.3358 L 486.9682 297.3358 L 486.9682 297.4557 L 486.1616 297.4557 L 486.1616 297.5741 L 485.8023 297.5741 L 485.8023 297.4557 L 485.533 297.4557 L 485.533 297.5741 L 485.443 297.5741 L 485.443 297.694 L 485.3537 297.694 L 485.3537 297.814 L 484.2765 297.814 L 484.2765 297.694 L 484.0978 297.694 L 484.0978 297.814 L 483.2886 297.814 L 483.2886 297.694 L 483.1999 297.694 L 483.1999 297.814 L 482.4814 297.814 L 482.4814 297.9339 L 481.9434 297.9339 L 481.9434 298.0539 L 481.4941 298.0539 L 481.4941 298.1722 L 480.9562 298.1722 L 480.9562 298.2922 L 480.7762 298.2922 L 480.7762 298.1722 L 480.6869 298.1722 L 480.6869 298.2922 L 480.1483 298.2922 L 480.1483 298.1722 L 480.0583 298.1722 L 480.0583 298.2922 L 479.5203 298.2922 L 479.5203 298.4121 L 479.3404 298.4121 L 479.3404 298.5321 L 479.251 298.5321 L 479.251 298.6521 L 478.8924 298.6521 L 478.8924 298.772 L 478.7124 298.772 L 478.7124 298.8476 L 478.7124 298.8903 L 478.6224 298.8903 L 478.6224 299.0103 L 478.4425 299.0103 L 478.4425 299.1303 L 478.2644 299.1303 L 478.2644 299.2502 L 478.1744 299.2502 L 478.1744 299.3702 L 477.9045 299.3702 L 477.9045 299.4885 L 477.6352 299.4885 L 477.6352 299.6085 L 477.0067 299.6085 L 477.0067 299.8484 L 476.9173 299.8484 L 476.9173 299.9684 L 476.738 299.9684 L 476.738 300.0883 L 476.5587 300.0883 L 476.5587 300.2066 L 476.3787 300.2066 L 476.3787 300.3266 L 476.2894 300.3266 L 476.2894 300.4466 L 475.9307 300.4466 L 475.9307 300.5665 L 475.7508 300.5665 L 475.7508 300.6865 L 475.3915 300.6865 L 475.3915 300.8048 L 475.2128 300.8048 L 475.2128 300.9248 L 474.9429 300.9248 L 474.9429 301.0447 L 474.8535 301.0447 L 474.8535 301.1647 L 474.6736 301.1647 L 474.6736 301.2847 L 474.045 301.2847 L 474.045 301.403 L 473.8657 301.4046 L 473.8657 301.5229 L 473.6857 301.5229 L 473.6857 301.6429 L 473.2377 301.6429 L 473.2377 301.7629 L 472.8785 301.7629 L 472.8785 301.8828 L 472.5198 301.8828 L 472.5198 302.0028 L 472.2505 302.0028 L 472.2505 302.1211 L 471.8912 302.1211 L 471.8912 302.2411 L 470.994 302.2411 L 470.994 302.361 L 470.5454 302.361 L 470.5454 302.2411 L 470.0062 302.2411 L 470.0062 302.1211 L 468.3916 302.1211 L 468.3916 302.0028 L 468.2117 302.0028 L 468.2117 301.8828 L 468.1223 301.8828 L 468.1223 302.0028 L 467.0451 302.0028 L 467.0451 302.1211 L 466.7758 302.1211 L 466.7758 302.0028 L 466.5065 302.0028 L 466.5065 301.8828 L 466.3278 301.8828 L 466.3278 301.7629 L 466.1479 301.7629 L 466.1479 301.6429 L 465.5187 301.6429 L 465.5187 301.7629 L 465.0707 301.7629 L 465.0707 301.6429 L 464.892 301.6429 L 464.892 301.5229 L 464.622 301.5229 L 464.622 301.4046 L 463.9941 301.4046 L 463.9941 301.5229 L 463.9041 301.5229 L 463.9041 301.6429 L 463.8142 301.6429 L 463.8142 301.7629 L 463.6348 301.7629 L 463.6348 301.8828 L 463.5449 301.8828 L 463.5449 302.0028 L 463.4555 302.0028 L 463.4555 302.1211 L 463.3649 302.1211 L 463.3649 302.2411 L 463.1862 302.2411 L 463.1862 302.361 L 463.0962 302.361 L 463.0962 302.481 L 463.0069 302.481 L 463.0069 302.6009 L 462.9169 302.6009 L 462.9169 302.7193 L 462.8269 302.7209 L 462.8269 302.8392 L 462.6482 302.8392 L 462.6482 302.9592 L 462.4683 302.9592 L 462.4683 303.0792 L 462.289 303.0792 L 462.289 303.1991 L 461.4811 303.1991 L 461.4811 303.3191 L 461.3911 303.3191 L 461.3911 303.4374 L 461.3017 303.4374 L 461.3011 303.5574 L 461.2124 303.5574 L 461.2124 303.6773 L 461.0324 303.6773 L 461.0324 303.7973 L 460.7625 303.7973 L 460.7625 303.6773 L 460.4945 303.6773 L 460.4945 303.7973 L 460.3145 303.7973 L 460.3145 303.9172 L 460.1346 303.9172 L 460.1346 303.7973 L 459.5066 303.7973 L 459.5066 303.9172 L 459.4167 303.9172 L 459.4167 304.0356 L 459.2373 304.0356 L 459.2373 304.1555 L 458.6987 304.1555 L 458.6987 304.2755 L 458.4294 304.2755 L 458.4294 304.3954 L 457.6215 304.3954 L 457.6215 304.5154 L 457.2629 304.5154 L 457.2629 304.6354 L 456.6337 304.6354 L 456.6337 304.7537 L 456.455 304.7537 L 456.455 304.8736 L 456.097 304.8736 L 456.097 304.9936 L 456.0064 304.9936 L 456.0064 304.8736 L 455.4678 304.8736 L 455.4678 304.9936 L 455.1091 304.9936 L 455.1091 304.8736 L 454.3012 304.8736 L 454.3012 304.7537 L 454.0319 304.7537 L 454.0319 304.8736 L 453.8526 304.8736 L 453.8526 304.9936 L 453.7626 304.9936 L 453.7626 305.1136 L 453.5833 305.1136 L 453.5833 305.2335 L 453.224 305.2335 L 453.224 305.3519 L 452.5955 305.3519 L 452.5955 305.4718 L 452.4168 305.4718 L 452.4168 305.5918 L 451.5183 305.5918 L 451.5183 305.7117 L 451.1596 305.7117 L 451.1596 305.8317 L 450.9803 305.8317 L 450.9803 305.9517 L 450.7116 305.9517 L 450.711 306.07 L 450.4417 306.07 L 450.4417 306.1899 L 450.173 306.1899 L 450.173 306.3099 L 449.5445 306.3099 L 449.5445 306.4299 L 449.0958 306.4299 L 449.0958 306.5498 L 448.7372 306.5498 L 448.7372 306.6681 L 448.6478 306.6681 L 448.6478 306.7881 L 448.1086 306.7881 L 448.1086 306.9081 L 447.8387 306.9081 L 447.8387 307.028 L 447.66 307.028 L 447.66 307.148 L 447.48 307.148 L 447.48 307.268 L 447.0314 307.268 L 447.0314 307.3863 L 446.8521 307.3863 L 446.8521 307.5062 L 446.0442 307.5062 L 446.0442 307.6262 L 445.7755 307.6262 L 445.7755 307.7462 L 444.9676 307.7462 L 444.9676 307.6262 L 444.0691 307.6262 L 444.0691 307.5062 L 443.9804 307.5062 L 443.9804 307.6262 L 443.4424 307.6262 L 443.4424 307.7462 L 443.2625 307.7462 L 443.2625 307.8661 L 443.0825 307.8661 L 443.0825 307.9844 L 442.9932 307.9844 L 442.9932 308.1044 L 442.8139 308.1044 L 442.8139 308.2244 L 442.7239 308.2244 L 442.7239 308.3443 L 442.5446 308.3443 L 442.5446 308.4643 L 442.4546 308.4643 L 442.4546 308.7026 L 441.8266 308.7026 L 441.8266 308.8225 L 441.5573 308.8225 L 441.5573 308.9425 L 441.3774 308.9425 L 441.3774 309.0625 L 441.1981 309.0625 L 441.1981 309.1824 L 440.7494 309.1824 L 440.7494 309.3007 L 440.5701 309.3007 L 440.5701 309.4207 L 439.8522 309.4207 L 439.8522 309.3007 L 439.313 309.3007 L 439.313 309.4207 L 438.3264 309.4207 L 438.3264 309.3007 L 437.9671 309.3007 L 437.9671 309.4207 L 437.2492 309.4207 L 437.2492 309.5407 L 436.9799 309.5407 L 436.9799 309.6606 L 436.7106 309.6606 L 436.7106 309.7806 L 436.5313 309.7806 L 436.5313 309.9005 L 436.262 309.9005 L 436.262 310.0189 L 436.0833 310.0189 L 436.0833 310.1388 L 435.9927 310.1388 L 435.9927 310.2588 L 435.8134 310.2588 L 435.8134 310.3787 L 435.3653 310.3787 L 435.3653 310.4987 L 435.0954 310.4987 L 435.0954 310.617 L 434.8261 310.617 L 434.8261 310.737 L 434.6474 310.737 L 434.6474 310.8569 L 434.3775 310.8569 L 434.3775 310.9769 L 433.7489 310.9769 L 433.7489 310.8569 L 433.5696 310.8569 L 433.5696 310.737 L 433.121 310.737 L 433.121 310.617 L 432.8517 310.617 L 432.8517 310.4987 L 432.7617 310.4987 L 432.7617 310.2588 L 432.3131 310.2588 L 432.3131 310.1388 L 431.4158 310.1388 L 431.4158 310.2588 L 430.9678 310.2588 L 430.9678 310.3787 L 430.7867 310.3787 L 430.7867 310.4987 L 430.608 310.4987 L 430.608 310.617 L 430.428 310.617 L 430.428 310.737 L 430.2499 310.737 L 430.2499 310.8569 L 429.89 310.8569 L 429.89 310.9769 L 429.6207 310.9769 L 429.6207 311.0969 L 429.3508 311.0969 L 429.3508 311.2168 L 429.2621 311.2168 L 429.2621 311.3352 L 428.9928 311.3352 L 428.9928 311.4551 L 428.9028 311.4551 L 428.9028 311.5751 L 428.7235 311.5751 L 428.7235 311.695 L 427.7363 311.695 L 427.7363 311.5751 L 426.9284 311.5751 L 426.9284 311.4551 L 426.3892 311.4551 L 426.3892 311.5751 L 426.0305 311.5751 L 426.0305 311.695 L 425.7624 311.695 L 425.7624 311.815 L 425.4925 311.815 L 425.4925 311.9333 L 425.4026 311.9333 L 425.4026 312.0533 L 425.2232 312.0533 L 425.2232 312.1732 L 425.0439 312.1732 L 425.0439 312.2932 L 424.864 312.2932 L 424.864 312.4132 L 424.6846 312.4132 L 424.6846 312.5331 L 424.5947 312.5331 L 424.5947 312.6514 L 424.236 312.6514 L 424.236 312.7714 L 424.0567 312.7714 L 424.0567 312.8914 L 423.8767 312.8914 L 423.8767 313.0113 L 423.6081 313.0113 L 423.6081 313.1313 L 423.4281 313.1313 L 423.4281 313.2496 L 422.8008 313.2496 L 422.8008 313.3696 L 422.4415 313.3696 L 422.4415 313.2496 L 422.3515 313.2496 L 422.3515 313.3696 L 421.9917 313.3696 L 421.9917 313.4895 L 421.4537 313.4895 L 421.4537 313.3696 L 421.095 313.3696 L 421.095 313.4895 L 421.0051 313.4895 L 421.0051 313.3696 L 420.6464 313.3696 L 420.6464 313.4895 L 419.9285 313.4895 L 419.9285 313.3696 L 419.1206 313.3696 L 419.1206 313.2496 L 418.9413 313.2496 L 418.9413 313.1313 L 417.7741 313.1313 L 417.7741 313.0113 L 416.8769 313.0113 L 416.8769 312.8914 L 416.2483 312.8914 L 416.2483 313.0113 L 415.8896 313.0113 L 415.8896 312.8914 L 415.1717 312.8914 L 415.1717 313.0113 L 415.0817 313.0113 L 415.0817 313.2496 L 414.9024 313.2496 L 414.9024 313.3696 L 414.1845 313.3696 L 414.1845 313.2496 L 413.9158 313.2496 L 413.9158 313.3696 L 413.7359 313.3696 L 413.7359 313.4895 L 412.838 313.4895 L 412.838 313.6095 L 412.748 313.6095 L 412.748 313.7295 L 412.6587 313.7295 L 412.6587 313.8494 L 412.5687 313.8494 L 412.5687 313.9677 L 412.3888 313.9677 L 412.3888 314.0877 L 412.2101 314.0877 L 412.2101 314.2077 L 411.9408 314.2077 L 411.9408 314.3276 L 411.7614 314.3276 L 411.7614 314.4476 L 411.2228 314.4476 L 411.2228 314.5659 L 411.1329 314.5659 L 411.1329 314.3276 L 411.0435 314.3276 L 411.0435 314.2077 L 410.7742 314.2077 L 410.7742 314.3276 L 410.4149 314.3276 L 410.4149 314.4476 Z" fill="#000000" fill-opacity="1" stroke="#000000" stroke-width="0" paint-order="fill" stroke-opacity="1" stroke-dasharray="" stroke-linecap="butt" stroke-linejoin="miter" stroke-miterlimit="10" transform="matrix(0.949999988079071,0,0,0.949999988079071,19.99998664855957,13.325027465820312)" clip-path="none" style="filter: url(#f1)"/>
<path data-code="206" d="M 482.5103 263.7547 L 478.1732 264.9806 L 474.4714 266.7866 L 472.5518 267.5113 L 470.3765 267.789 L 469.2808 267.7233 L 467.2201 267.2073 L 463.5208 265.4637 L 461.5223 264.7078 L 455.9817 263.4458 L 453.7854 262.7621 L 448.0938 259.7565 L 445.065 258.3646 L 443.1935 257.2209 L 441.5832 255.8224 L 440.2121 254.2317 L 437.6867 249.9459 L 435.4941 247.1835 L 434.8021 245.5172 L 434.0632 242.8173 L 433.2942 241.0753 L 432.66 240.2931 L 431.8386 239.6785 L 430.9136 239.2611 L 428.893 238.8897 L 426.7663 238.9933 L 425.6977 239.2053 L 423.69 239.9365 L 419.0744 242.3867 L 415.4959 243.3349 L 412.9797 243.634 L 409.1461 243.7868 L 405.3297 243.634 L 402.8395 243.2955 L 401.6261 243.0161 L 399.4458 242.2027 L 394.7803 239.6161 L 390.6835 237.7723 L 385.1416 234.5136 L 380.0934 232.1407 L 376.4273 229.8335 L 373.6999 228.3528 L 366.6913 224.9117 L 361.5303 222.7557 L 359.4659 221.4936 L 356.638 219.1749 L 354.1619 216.5358 L 352.8487 214.5408 L 352.376 213.4135 L 352.0987 212.2484 L 352.0094 211.0652 L 352.1086 209.8787 L 352.4124 208.7136 L 352.8863 207.6898 L 354.218 205.9627 L 355.9274 204.6366 L 356.9042 204.1386 L 357.9992 203.7656 L 360.2559 203.3876 L 369.6777 203.3022 L 372.028 203.1428 L 374.3241 202.732 L 375.4352 202.3803 L 377.4004 201.4173 L 385.8552 195.6542 L 391.0033 199.7526 L 397.6778 205.8115 L 399.5081 207.0736 L 400.5008 207.583 L 401.6095 207.9971 L 403.9056 208.5066 L 407.4391 208.7547 L 410.9757 208.5575 L 413.2762 208.1122 L 414.386 207.7441 L 416.3272 206.7761 L 421.5862 203.5076 L 423.1853 202.2587 L 423.8305 201.4699 L 426.5703 197.0527 L 432.0376 190.0045 L 433.1795 188.1065 L 435.5872 182.9432 L 441.4051 174.7086 L 445.2215 176.0479 L 453.1581 179.3772 L 456.1487 181.4198 L 458.9181 183.8996 L 466.822 192.0669 L 469.2895 194.8999 L 470.7851 196.8653 L 472.0539 198.9392 L 473.8903 203.1609 L 477.0017 208.896 L 478.7328 213.1473 L 480.7208 216.986 L 481.5958 219.0073 L 481.9495 220.2151 L 482.3852 222.7212 L 482.6804 229.2287 L 482.5103 263.7547 Z" fill="#000000" fill-opacity="1" stroke="#000000" stroke-width="0" paint-order="fill" stroke-opacity="1" stroke-dasharray="" stroke-linecap="butt" stroke-linejoin="miter" stroke-miterlimit="10" transform="matrix(0.949999988079071,0,0,0.949999988079071,19.99998664855957,13.325027465820312)" clip-path="none" style="filter: url(#f1)"/>
<path data-code="207" d="M 462.9379 106.1857 L 467.9251 102.7101 L 469.9057 101.098 L 478.2379 92.9489 L 481.0942 90.4149 L 483.1401 89.0066 L 491.7669 84.7191 L 493.8449 84.2048 L 496.0337 84.2377 L 498.068 84.7964 L 501.7106 86.6106 L 503.7904 87.3994 L 506.1623 87.9072 L 508.6303 88.1964 L 513.6878 88.4363 L 518.7663 88.4035 L 522.5093 88.1044 L 524.925 87.6327 L 527.0874 86.8308 L 531.7591 84.264 L 535.8633 82.4333 L 541.4126 79.1779 L 545.5241 77.339 L 551.0931 74.1099 L 555.2226 72.3138 L 560.8926 69.3197 L 563.0679 68.6492 L 567.5246 67.7027 L 569.6913 67.0634 L 574.4764 64.7759 L 576.5649 64.0479 L 578.8265 63.6092 L 585.7826 62.8828 L 589.1374 62.1088 L 594.9073 59.3924 L 603.7177 57.1214 L 608.5195 54.8257 L 610.6005 54.1158 L 612.8362 53.7 L 616.384 53.3007 L 616.384 53.3434 L 616.4733 53.3434 L 616.4733 53.7033 L 616.5633 53.7033 L 616.5633 53.8232 L 616.6526 53.8232 L 616.6532 53.9416 L 616.7426 53.9416 L 616.7426 54.0615 L 617.1019 54.0615 L 617.1019 53.8232 L 617.2812 53.8232 L 617.2812 53.9416 L 617.8198 53.9416 L 617.8198 53.8232 L 617.9098 53.8232 L 617.9098 53.7033 L 619.2556 53.7033 L 619.2556 53.5833 L 619.3456 53.5833 L 619.3456 53.4634 L 619.9736 53.4634 L 619.9736 53.5833 L 620.3322 53.5833 L 620.3328 53.7033 L 620.4222 53.7033 L 620.4222 53.8232 L 621.4994 53.8232 L 621.4994 53.9416 L 621.7681 53.9416 L 621.7687 54.0615 L 621.6787 54.0615 L 621.6787 54.1815 L 621.7681 54.1815 L 621.7687 54.3014 L 621.8586 54.3014 L 621.8586 54.4214 L 621.948 54.4214 L 621.948 54.5397 L 622.038 54.5397 L 622.038 55.1395 L 621.948 55.1395 L 621.948 55.3778 L 621.8586 55.3778 L 621.8586 55.6177 L 621.7687 55.6177 L 621.7687 55.856 L 622.1267 55.856 L 622.1273 56.0959 L 622.2173 56.0959 L 622.2173 56.2159 L 623.0252 56.2159 L 623.0252 56.3359 L 623.2945 56.3359 L 623.2945 56.2159 L 623.5638 56.2159 L 623.5638 56.3359 L 623.6531 56.3359 L 623.6531 56.5741 L 625.0884 56.5741 L 625.089 56.8141 L 625.2689 56.8141 L 625.2689 56.934 L 625.8969 56.934 L 625.8969 57.054 L 626.3455 57.054 L 626.3455 57.1723 L 626.5254 57.1723 L 626.5254 57.2923 L 626.8841 57.2923 L 626.8841 57.054 L 627.0634 57.054 L 627.0634 57.2923 L 627.1534 57.2923 L 627.1534 57.7721 L 627.2434 57.7721 L 627.2434 58.1304 L 627.3327 58.1304 L 627.3327 58.3703 L 627.5127 58.3703 L 627.5127 58.6086 L 627.692 58.6086 L 627.692 58.7285 L 627.9613 58.7285 L 627.9613 58.8485 L 628.0506 58.8485 L 628.0506 58.9685 L 628.1406 58.9685 L 628.1406 59.0868 L 628.0506 59.0884 L 628.0506 59.2067 L 627.9613 59.2067 L 627.9613 59.3267 L 627.692 59.3267 L 627.692 59.4467 L 627.4227 59.4467 L 627.4227 59.5666 L 627.0634 59.5666 L 627.0634 59.6866 L 626.7941 59.6866 L 626.7941 59.8049 L 626.7048 59.8049 L 626.7048 59.9249 L 626.6148 59.9249 L 626.6148 60.7629 L 626.7941 60.7629 L 626.7941 60.8829 L 626.8841 60.8829 L 626.8841 61.0029 L 627.0634 61.0029 L 627.0634 61.2412 L 627.1534 61.2412 L 627.1534 61.3611 L 627.2434 61.3611 L 627.2434 61.4811 L 627.5127 61.4811 L 627.5127 61.601 L 627.7813 61.601 L 627.7813 61.8393 L 627.9613 61.8393 L 627.9613 61.9593 L 628.3199 61.9593 L 628.3199 62.0792 L 628.4099 62.0792 L 628.4099 62.4375 L 628.4999 62.4375 L 628.4999 62.5574 L 628.6792 62.5574 L 628.6792 62.6774 L 628.8585 62.6774 L 628.8585 63.1556 L 628.7686 63.1556 L 628.7686 63.2756 L 628.2306 63.2756 L 628.2306 63.3955 L 627.9613 63.3955 L 627.9613 63.5155 L 627.7813 63.5155 L 627.7813 63.8737 L 627.8713 63.8737 L 627.8713 63.9937 L 627.9613 63.9937 L 627.9613 64.1137 L 628.0506 64.1137 L 628.0506 64.2336 L 628.2306 64.2336 L 628.2306 64.3519 L 628.3199 64.3519 L 628.3199 64.4719 L 628.4099 64.4719 L 628.4099 64.7118 L 628.4999 64.7118 L 628.4999 64.8318 L 628.5892 64.8318 L 628.5892 64.9518 L 628.6792 64.9518 L 628.6792 65.0701 L 628.8585 65.0701 L 628.8585 65.31 L 630.3844 65.31 L 630.3844 65.43 L 630.4743 65.43 L 630.4743 65.6682 L 630.3844 65.6682 L 630.3844 65.7882 L 630.4743 65.7882 L 630.4743 66.3864 L 630.3844 66.3864 L 630.3844 66.6263 L 630.2944 66.6263 L 630.2944 67.3444 L 630.3844 67.3444 L 630.3844 67.2245 L 630.6536 67.2245 L 630.6536 67.1045 L 630.743 67.1045 L 630.743 66.9845 L 630.9229 66.9845 L 630.9229 67.1045 L 631.7302 67.1045 L 631.7302 67.2245 L 632.4481 67.2245 L 628.7525 68.7642 L 627.1478 69.9014 L 625.9283 71.3804 L 625.5351 72.2826 L 625.3786 73.3179 L 625.5345 74.3531 L 625.9277 75.2537 L 626.4792 76.0359 L 627.9064 77.3259 L 629.5007 78.2051 L 632.6601 79.4556 L 633.587 79.9552 L 635.3882 81.1992 L 638.8115 84.2262 L 642.9113 88.3837 L 640.9979 90.9539 L 639.9441 92.7254 L 639.2589 94.6135 L 639.0358 95.7803 L 633.5025 98.9765 L 627.9582 102.5031 L 623.8325 104.3288 L 618.2598 107.5365 L 614.1273 109.3212 L 608.5478 112.5273 L 604.4147 114.3201 L 598.8352 117.5312 L 594.7021 119.3306 L 589.1202 122.5663 L 584.0534 124.9277 L 579.4587 127.7 L 571.8888 131.0047 L 570.0487 131.3514 L 568.2172 131.0392 L 563.6398 129.2611 L 557.0731 127.6457 L 555.0531 126.8044 L 551.3341 124.7749 L 549.2469 124.014 L 548.1179 123.779 L 545.8156 123.5769 L 543.5035 123.7018 L 541.2425 124.2096 L 539.2613 125.0756 L 535.5731 127.0854 L 532.5732 128.4312 L 530.6838 129.5816 L 529.0736 131.0523 L 528.3698 131.9003 L 527.2322 133.8295 L 526.8267 134.9618 L 526.3874 137.315 L 526.2881 139.7274 L 526.4428 142.1644 L 527.1472 145.6893 L 528.6785 149.9488 L 521.2078 152.5896 L 518.8014 153.1253 L 512.5429 153.615 L 503.6807 153.5148 L 499.9783 153.076 L 497.6119 152.4351 L 491.9043 149.4969 L 486.8579 147.1995 L 479.8691 142.7971 L 479.0994 142.1151 L 477.8823 140.4504 L 474.8886 134.9305 L 474.0592 132.9043 L 473.5058 130.3901 L 472.8372 122.6386 L 472.3134 120.1424 L 471.8617 118.951 L 470.546 116.887 L 468.831 115.2157 L 467.0377 114.0769 L 465.3412 113.298 L 462.9379 106.1857 Z" fill="#000000" fill-opacity="1" stroke="#000000" stroke-width="0" paint-order="fill" stroke-opacity="1" stroke-dasharray="" stroke-linecap="butt" stroke-linejoin="miter" stroke-miterlimit="10" transform="matrix(0.949999988079071,0,0,0.949999988079071,19.99998664855957,13.325027465820312)" clip-path="none" style="filter: url(#f1)"/>
<path data-code="208" d="M 296.706 466.0595 L 296.616 466.0595 L 296.616 466.1795 L 296.4361 466.1795 L 296.4361 466.2978 L 296.3461 466.2978 L 296.3461 466.4178 L 296.2574 466.4178 L 296.2574 466.5377 L 296.1674 466.5377 L 296.1674 466.6577 L 296.078 466.6577 L 296.078 466.7777 L 295.7194 466.7777 L 295.7194 466.896 L 295.4495 466.896 L 295.4495 467.016 L 295.0902 467.016 L 295.0902 467.1359 L 294.8215 467.1359 L 294.8215 467.2559 L 294.7315 467.2559 L 294.7315 467.3758 L 294.5522 467.3758 L 294.5522 467.4958 L 294.4622 467.4958 L 294.4622 467.6141 L 294.2829 467.6141 L 294.2829 467.7341 L 294.1929 467.7341 L 294.1929 467.854 L 293.8343 467.854 L 293.8343 467.974 L 293.6543 467.974 L 293.6543 468.094 L 293.565 468.094 L 293.565 468.2123 L 293.2957 468.2123 L 293.2957 468.3322 L 293.1164 468.3322 L 293.1164 468.4522 L 293.0264 468.4522 L 293.0264 468.5722 L 292.8471 468.5722 L 292.8471 468.6921 L 292.7577 468.6921 L 292.7577 468.8121 L 292.5778 468.8121 L 292.5778 468.9304 L 292.4878 468.9304 L 292.4878 469.0504 L 292.3085 469.0504 L 292.3085 469.1703 L 292.1285 469.1703 L 292.1285 469.2903 L 291.7699 469.2903 L 291.7699 469.4103 L 291.4106 469.4103 L 291.4106 469.5286 L 290.6033 469.5286 L 290.6033 469.6485 L 290.334 469.6485 L 290.334 469.7685 L 289.9748 469.7685 L 289.9748 469.6485 L 289.7948 469.6485 L 289.7948 469.7685 L 289.7055 469.7685 L 289.7055 469.6485 L 289.5261 469.6485 L 289.5261 469.7685 L 289.1675 469.7685 L 289.1669 469.8885 L 288.8982 469.8885 L 288.8982 470.0084 L 288.3602 470.0084 L 288.3602 470.1284 L 287.283 470.1284 L 287.283 470.2467 L 287.1031 470.2467 L 287.1031 470.3667 L 286.9244 470.3667 L 286.9244 470.4866 L 286.4745 470.4866 L 286.4745 470.7265 L 286.3852 470.7265 L 286.3852 470.8449 L 286.2952 470.8449 L 286.2952 470.9648 L 286.1159 470.9648 L 286.1159 471.0848 L 286.0259 471.0848 L 286.0259 470.9648 L 285.4873 470.9648 L 285.4873 470.8449 L 284.4107 470.8449 L 284.4107 470.9648 L 284.1414 470.9648 L 284.1414 471.0848 L 283.5135 471.0848 L 283.5135 471.2048 L 283.3335 471.2048 L 283.3335 471.3247 L 283.0636 471.3247 L 283.0636 471.4447 L 282.8849 471.4447 L 282.8849 471.563 L 282.6156 471.563 L 282.6156 471.683 L 282.5256 471.683 L 282.5256 471.563 L 282.4369 471.563 L 282.4369 471.4447 L 282.167 471.4447 L 282.167 471.3247 L 281.7492 471.3247 L 281.6278 471.3247 L 281.6278 471.3822 L 281.6278 471.4447 L 281.5384 471.4447 L 281.5384 471.563 L 281.4491 471.563 L 281.4491 471.8029 L 281.5384 471.8029 L 281.5384 471.9229 L 281.4491 471.9229 L 281.4491 472.1612 L 281.5384 472.1612 L 281.5384 472.2811 L 281.3591 472.2811 L 281.3591 472.4011 L 281.2697 472.4011 L 281.2697 472.521 L 281.1798 472.521 L 281.1798 472.4011 L 280.9105 472.4011 L 280.9105 472.521 L 280.8205 472.521 L 280.8205 471.9229 L 280.9105 471.9229 L 280.9105 471.8029 L 281.0898 471.8029 L 281.0898 471.632 L 281.0898 471.563 L 280.9105 471.563 L 280.9105 471.683 L 280.5518 471.683 L 280.5518 471.563 L 280.4618 471.563 L 280.4618 471.4447 L 280.1925 471.4447 L 280.1925 471.563 L 279.5646 471.563 L 279.564 471.683 L 279.3846 471.683 L 279.3846 471.8029 L 279.116 471.8029 L 279.116 471.9229 L 278.8461 471.9229 L 278.8461 472.0428 L 278.4874 472.0428 L 278.4874 472.1612 L 278.3974 472.1612 L 278.3974 472.2811 L 277.3209 472.2811 L 277.3209 472.4011 L 277.1409 472.4011 L 277.1409 472.2811 L 276.6923 472.2811 L 276.6923 472.4011 L 276.423 472.4011 L 276.423 472.521 L 276.1537 472.521 L 276.1537 472.4011 L 275.8844 472.4011 L 275.8844 472.521 L 275.6157 472.521 L 275.6157 472.641 L 275.5257 472.641 L 275.5257 472.521 L 275.4364 472.521 L 275.4364 472.641 L 274.8966 472.641 L 274.8966 472.761 L 274.7185 472.761 L 274.7185 472.8793 L 274.6285 472.8793 L 274.6285 472.9992 L 273.5513 472.9992 L 273.5513 473.1192 L 273.192 473.1192 L 273.192 473.2392 L 273.0127 473.2392 L 273.0127 473.3591 L 272.4741 473.3591 L 272.4741 473.2392 L 272.0255 473.2392 L 272.0255 473.3591 L 271.8462 473.3591 L 271.8462 473.4775 L 271.5769 473.4775 L 271.5769 473.5974 L 271.4869 473.5974 L 271.4869 473.3591 L 270.9489 473.3591 L 270.9489 473.4775 L 269.6024 473.4775 L 269.6024 473.3591 L 269.1544 473.3591 L 269.1544 473.4775 L 268.6152 473.4775 L 268.6152 473.3591 L 268.0766 473.3591 L 268.0766 473.2392 L 267.8973 473.2392 L 267.8973 473.1192 L 267.718 473.1192 L 267.718 473.2392 L 267.628 473.2392 L 267.628 473.3591 L 267.4487 473.3591 L 267.4487 473.4775 L 267.2693 473.4775 L 267.2693 473.3591 L 266.9107 473.3591 L 266.9107 473.4775 L 266.3715 473.4775 L 266.3715 473.3591 L 266.1928 473.3591 L 266.1928 473.4775 L 266.1016 473.4775 L 266.1016 473.5974 L 265.9228 473.5974 L 265.9228 473.7174 L 265.5636 473.7174 L 265.5636 473.8373 L 265.3836 473.8373 L 265.3836 473.9573 L 265.2049 473.9573 L 265.2049 474.0773 L 265.1149 474.0773 L 265.1149 474.3155 L 265.025 474.3155 L 265.025 474.5555 L 264.9356 474.5555 L 264.9356 474.6754 L 264.6657 474.6754 L 264.6657 474.7937 L 264.487 474.7937 L 264.487 474.6754 L 264.397 474.6754 L 264.397 474.7937 L 264.1277 474.7937 L 264.1277 474.9137 L 263.7691 474.9137 L 263.7691 474.7937 L 263.4998 474.7937 L 263.4998 474.9137 L 263.1405 474.9137 L 263.1405 475.0337 L 263.0512 475.0337 L 263.0512 475.1536 L 262.8712 475.1536 L 262.8712 475.2736 L 262.6919 475.2736 L 262.6919 475.3936 L 262.4226 475.3936 L 262.4226 475.5119 L 262.1539 475.5119 L 262.1539 475.6318 L 261.5253 475.6318 L 261.5253 475.7518 L 260.9861 475.7518 L 260.9861 475.9917 L 260.8962 475.9917 L 260.8962 476.11 L 260.8074 476.11 L 260.8074 476.23 L 260.6275 476.23 L 260.6275 476.35 L 259.9995 476.35 L 259.9995 476.4699 L 259.4609 476.4699 L 259.4609 476.5899 L 258.833 476.5899 L 258.833 476.4699 L 258.653 476.4699 L 258.653 476.5899 L 258.5637 476.5899 L 258.5637 476.7098 L 258.4737 476.7098 L 258.4737 476.9481 L 258.3844 476.9481 L 258.3844 477.0681 L 258.2944 477.0681 L 258.2944 477.1881 L 258.2044 477.1881 L 258.2044 477.308 L 258.1151 477.308 L 258.1151 477.4263 L 258.0251 477.4263 L 258.0251 477.5463 L 257.8458 477.5463 L 257.8458 477.6663 L 257.7558 477.6663 L 257.7558 477.7862 L 257.6664 477.7862 L 257.6664 477.9062 L 257.3971 477.9062 L 257.3971 478.0261 L 257.3078 478.0261 L 257.3078 478.1445 L 257.2166 478.1445 L 257.2166 478.2644 L 257.1278 478.2644 L 257.1278 478.3844 L 256.5899 478.3844 L 256.5899 478.2644 L 256.0506 478.2644 L 256.0506 478.3844 L 255.9607 478.3844 L 255.9607 478.5043 L 255.6914 478.5043 L 255.6914 478.6243 L 255.5121 478.6243 L 255.5121 478.7426 L 255.4221 478.7426 L 255.4221 478.8626 L 255.3327 478.8626 L 255.3327 478.9825 L 255.2428 478.9825 L 255.2428 479.1025 L 255.0628 479.1025 L 255.0628 479.2225 L 254.9735 479.2225 L 254.9735 479.3424 L 254.7048 479.3424 L 254.7048 479.4608 L 254.6148 479.4608 L 254.6148 479.7007 L 254.478 479.7007 L 254.144 469.5434 L 254.2019 432.8466 L 254.5322 428.5625 L 255.0203 425.8099 L 255.8584 423.2693 L 257.8716 418.5152 L 258.4497 415.9402 L 258.7344 411.9141 L 258.3856 406.6834 L 263.6329 403.4099 L 268.1857 400.332 L 273.2395 397.9426 L 276.9647 395.8934 L 278.9311 395.0077 L 281.1742 394.4341 L 283.5055 394.1515 L 291.8142 393.9181 L 295.3188 393.5895 L 297.5687 393.0308 L 300.4558 391.6307 L 305.6353 388.3884 L 307.0009 386.8223 L 307.9222 384.9457 L 309.0019 382.1471 L 309.6224 380.0174 L 310.0994 377.6066 L 316.1885 378.6321 L 321.3242 379.0133 L 329.01 379.0495 L 333.9972 378.54 L 337.3607 377.4538 L 342.0158 374.8804 L 346.0867 373.0218 L 351.7376 370.0145 L 354.2211 369.3276 L 358.1231 368.8675 L 366.1355 368.7689 L 370.1269 368.9727 L 372.7435 369.2915 L 376.2566 370.2183 L 382.946 372.8706 L 382.9287 372.9035 L 387.365 374.5172 L 387.0809 374.5172 L 387.0809 374.6372 L 386.901 374.6372 L 386.901 374.7571 L 386.8116 374.7571 L 386.8116 374.9954 L 386.7217 374.9954 L 386.7217 375.1154 L 386.6329 375.1154 L 386.6329 375.2353 L 386.5417 375.2353 L 386.5417 375.3553 L 386.4524 375.3553 L 386.4524 375.4753 L 386.363 375.4753 L 386.363 375.5952 L 386.273 375.5952 L 386.273 375.7135 L 386.1831 375.7135 L 386.1831 375.8335 L 386.0037 375.8335 L 386.0037 375.9535 L 385.9144 375.9535 L 385.9144 376.0734 L 386.0037 376.0734 L 386.0037 376.1934 L 385.9144 376.1934 L 385.9144 376.3117 L 385.8244 376.3117 L 385.8244 376.4317 L 385.7345 376.4317 L 385.7345 376.5516 L 385.5551 376.5516 L 385.5551 376.6716 L 385.2858 376.6716 L 385.2858 376.7916 L 385.1065 376.7916 L 385.1065 376.9115 L 384.9272 376.9115 L 384.9272 377.2698 L 384.5679 377.2698 L 384.5679 377.628 L 384.4779 377.628 L 384.4779 377.748 L 384.2986 377.748 L 384.2986 377.628 L 384.2093 377.628 L 384.2093 377.748 L 384.1193 377.748 L 384.1193 377.8679 L 383.94 377.8679 L 383.94 377.9879 L 383.6713 377.9879 L 383.6713 378.1078 L 383.5807 378.1078 L 383.5807 378.2278 L 383.312 378.2278 L 383.312 378.4661 L 383.222 378.4661 L 383.222 378.586 L 383.1321 378.586 L 383.1321 378.4661 L 383.0421 378.4661 L 383.0421 378.586 L 382.9534 378.586 L 382.9534 378.706 L 382.7722 378.706 L 382.7722 378.826 L 382.6834 378.826 L 382.6834 378.9443 L 382.5935 378.9443 L 382.5935 379.0643 L 382.3242 379.0643 L 382.3242 379.1842 L 382.2354 379.1842 L 382.2354 379.3042 L 382.0543 379.3042 L 382.0543 379.4241 L 381.7856 379.4241 L 381.7856 379.6624 L 381.6962 379.6624 L 381.6962 379.7824 L 381.5163 379.7824 L 381.5163 379.9023 L 381.3369 379.9023 L 381.3369 380.0223 L 381.1576 380.0223 L 381.1576 380.1423 L 381.0676 380.1423 L 381.0676 380.2606 L 380.9783 380.2606 L 380.9783 380.3805 L 380.7984 380.3805 L 380.7984 380.7404 L 380.709 380.7404 L 380.709 380.8604 L 380.3497 380.8604 L 380.3497 381.0987 L 380.1704 381.0987 L 380.1704 381.2186 L 380.0804 381.2186 L 380.0804 381.3386 L 379.7218 381.3386 L 379.7218 381.4586 L 379.6318 381.4586 L 379.6318 381.5769 L 379.4525 381.5769 L 379.4525 381.6968 L 379.2732 381.6968 L 379.2732 381.5769 L 379.1838 381.5769 L 379.1838 381.6968 L 379.0926 381.6968 L 379.0926 381.8168 L 378.6446 381.8168 L 378.6446 381.9368 L 378.4659 381.9368 L 378.4659 382.0567 L 378.2859 382.0567 L 378.2859 382.175 L 378.016 382.1767 L 378.016 382.295 L 377.7473 382.295 L 377.7473 382.415 L 377.6333 382.415 L 377.568 382.415 L 377.568 382.5218 L 377.2981 382.5349 L 377.2981 382.6549 L 377.1188 382.6549 L 377.1188 382.7749 L 377.0294 382.7749 L 377.0294 383.1331 L 376.9388 383.1331 L 376.9388 383.2531 L 376.8495 383.2531 L 376.8495 383.373 L 376.7601 383.373 L 376.7601 383.4913 L 376.6701 383.493 L 376.6701 383.7313 L 376.1316 383.7313 L 376.1316 383.8512 L 376.0422 383.8512 L 376.0422 383.9712 L 375.5042 383.9712 L 375.5042 384.0911 L 375.3243 384.0911 L 375.3243 384.2095 L 375.2343 384.2095 L 375.2343 384.3294 L 375.1449 384.3294 L 375.1449 384.4494 L 374.7863 384.4494 L 374.7863 384.5693 L 374.6064 384.5693 L 374.6064 384.6893 L 374.5164 384.6893 L 374.5164 384.8076 L 374.2471 384.8076 L 374.2471 384.9276 L 374.0684 384.9276 L 374.0684 385.0476 L 373.9772 385.0476 L 373.9772 385.1675 L 373.7085 385.1675 L 373.7085 385.2875 L 373.5292 385.2875 L 373.5292 385.4074 L 373.2599 385.4074 L 373.2599 385.6457 L 373.0805 385.6457 L 373.0805 385.7657 L 372.9906 385.7657 L 372.9906 386.0056 L 372.7213 386.0056 L 372.7213 386.1239 L 372.6319 386.1239 L 372.6319 386.2439 L 372.3626 386.2439 L 372.3626 386.3638 L 372.2726 386.3638 L 372.2726 386.4838 L 372.0933 386.4838 L 372.0933 386.6038 L 372.0033 386.6038 L 372.0033 386.4838 L 371.9054 386.4838 L 371.734 386.4838 L 371.734 386.6202 L 371.734 386.7237 L 371.6447 386.7237 L 371.6447 386.962 L 371.5547 386.962 L 371.5547 387.082 L 371.3754 387.082 L 371.3754 387.6801 L 371.2854 387.6801 L 371.2854 388.04 L 371.1955 388.04 L 371.1955 388.1583 L 371.1061 388.1583 L 371.1061 388.3983 L 370.9268 388.3983 L 370.9262 388.5182 L 370.8368 388.5182 L 370.8368 388.6382 L 370.7468 388.6382 L 370.7468 388.7565 L 370.3888 388.7565 L 370.3888 388.8765 L 370.2976 388.8765 L 370.2976 388.9964 L 370.1189 388.9964 L 370.1189 389.1164 L 370.0289 389.1164 L 370.0289 388.9964 L 369.849 388.9964 L 369.849 389.1164 L 369.6709 389.1164 L 369.6709 389.2364 L 369.168 389.2364 L 369.131 389.2364 L 369.131 389.3465 L 369.0417 389.3563 L 369.0417 389.4746 L 368.8624 389.4746 L 368.8624 389.5946 L 368.683 389.5946 L 368.683 389.7146 L 368.5931 389.7146 L 368.5931 389.8345 L 368.4137 389.8345 L 368.4137 390.0728 L 368.3238 390.0728 L 368.3238 390.3127 L 368.1444 390.3127 L 368.1444 390.4327 L 368.0545 390.4327 L 368.0545 390.7909 L 367.7852 390.7909 L 367.7852 390.9109 L 367.6958 390.9109 L 367.6958 391.1508 L 367.6058 391.1508 L 367.6058 391.3644 L 367.4265 391.3891 L 367.4265 391.5304 L 367.4265 391.749 L 367.3365 391.749 L 367.3365 391.8689 L 367.2466 391.8689 L 367.2466 391.9889 L 367.1572 391.9889 L 367.1572 392.2272 L 367.0672 392.2272 L 367.0672 392.3471 L 366.8879 392.3471 L 366.8879 392.4671 L 366.798 392.4671 L 366.798 392.7054 L 366.7086 392.7054 L 366.7086 393.0653 L 366.4393 393.0653 L 366.4393 393.5435 L 366.3493 393.5435 L 366.3493 393.6634 L 366.26 393.6634 L 366.26 393.7834 L 366.17 393.7834 L 366.17 393.9034 L 366.08 393.9034 L 366.08 394.0217 L 365.9013 394.0217 L 365.9013 394.1416 L 365.7214 394.1416 L 365.7214 394.3816 L 365.6314 394.3816 L 365.6314 394.5015 L 365.4515 394.5015 L 365.4515 394.6215 L 365.3621 394.6215 L 365.3621 394.7398 L 365.1834 394.7398 L 365.1834 394.8598 L 365.0922 394.8598 L 365.0922 394.9797 L 364.9135 394.9797 L 364.9135 395.0997 L 364.8235 395.0997 L 364.8235 395.2197 L 364.6442 395.2197 L 364.6442 395.338 L 364.4649 395.338 L 364.4649 395.5779 L 364.3743 395.5779 L 364.3743 395.6979 L 364.2849 395.6979 L 364.2849 395.8178 L 364.1956 395.8178 L 364.1956 395.9378 L 363.9263 395.9378 L 363.9263 396.1761 L 363.8363 396.1761 L 363.8363 396.416 L 363.6564 396.416 L 363.6564 396.5359 L 363.4776 396.5359 L 363.4776 396.6543 L 363.3877 396.6543 L 363.3877 396.7742 L 363.2083 396.7742 L 363.2083 397.0141 L 363.1184 397.0141 L 363.1184 397.3724 L 362.9397 397.3724 L 362.9397 397.4924 L 362.8491 397.4924 L 362.8491 397.8522 L 362.7597 397.8522 L 362.7597 397.9706 L 362.6697 397.9706 L 362.6697 398.2105 L 362.4904 398.2105 L 362.4904 398.4504 L 362.4004 398.4504 L 362.4004 398.5704 L 362.2217 398.5704 L 362.2217 398.6887 L 361.9518 398.6887 L 361.9518 398.8086 L 361.8625 398.8086 L 361.8625 399.0486 L 361.7725 399.0486 L 361.7725 399.1685 L 361.5038 399.1685 L 361.5038 399.2868 L 360.9646 399.2868 L 360.9646 399.4068 L 360.7859 399.4068 L 360.7859 399.5268 L 360.6947 399.5268 L 360.6947 399.6467 L 360.516 399.6467 L 360.516 399.8867 L 360.426 399.8867 L 360.426 400.1249 L 360.336 400.1249 L 360.336 400.2449 L 360.2467 400.2449 L 360.2467 400.6031 L 360.1567 400.6031 L 360.1567 401.083 L 359.9774 401.083 L 359.9774 401.203 L 359.7981 401.203 L 359.7981 401.3213 L 359.7081 401.3213 L 359.7081 401.4412 L 359.5288 401.4412 L 359.5288 401.5612 L 359.3494 401.5612 L 359.3494 401.6812 L 359.2595 401.6812 L 359.2595 401.8011 L 358.9902 401.8011 L 358.9902 401.9194 L 358.9002 401.9194 L 358.9002 402.0394 L 358.8108 402.0394 L 358.8108 402.1594 L 358.7209 402.1594 L 358.7209 402.2793 L 358.5415 402.2793 L 358.5415 402.3993 L 358.4516 402.3993 L 358.4516 402.5192 L 358.3622 402.5192 L 358.3622 402.6376 L 358.1823 402.6376 L 358.1823 402.7575 L 358.0029 402.7575 L 358.0029 402.8775 L 357.7336 402.8775 L 357.7336 402.9974 L 357.4644 402.9974 L 357.4644 403.1174 L 357.375 403.1174 L 357.375 403.2357 L 357.285 403.2357 L 357.285 403.3557 L 356.8364 403.3557 L 356.8364 403.4757 L 356.7464 403.4757 L 356.7464 403.7156 L 356.5665 403.7156 L 356.5665 403.8355 L 356.2984 403.8355 L 356.2984 404.0738 L 356.2072 404.0738 L 356.2072 404.1938 L 356.0285 404.1938 L 356.0285 404.4337 L 355.9305 404.4337 L 355.8486 404.4337 L 355.8486 404.6194 L 355.8486 404.672 L 355.7592 404.672 L 355.7592 404.8248 L 355.7592 404.9119 L 355.721 404.9119 L 355.4893 404.9119 L 355.4893 405.2701 L 355.4006 405.2701 L 355.4006 405.5101 L 355.2206 405.5101 L 355.2206 405.75 L 355.0413 405.75 L 355.0413 405.8683 L 354.9513 405.8683 L 354.9513 406.1082 L 354.862 406.1082 L 354.862 406.2282 L 354.772 406.2282 L 354.772 406.5864 L 354.5927 406.5864 L 354.5927 406.7064 L 354.5027 406.7064 L 354.5027 406.9463 L 354.4133 406.9463 L 354.4133 407.0663 L 354.3234 407.0663 L 354.3234 407.1846 L 354.0541 407.1846 L 354.0541 407.3046 L 353.9641 407.3046 L 353.9641 407.5445 L 353.8747 407.5445 L 353.8747 407.6645 L 353.6954 407.6645 L 353.6954 407.7844 L 353.5155 407.7844 L 353.5155 408.1427 L 353.4261 408.1427 L 353.4261 408.2626 L 353.3368 408.2626 L 353.3368 408.8608 L 353.2462 408.8608 L 353.2462 408.9807 L 353.3368 408.9807 L 353.3368 410.0571 L 353.2462 410.0571 L 353.2462 410.297 L 353.3368 410.297 L 353.3368 411.2534 L 353.4261 411.2534 L 353.4261 411.4934 L 353.3368 411.4934 L 353.3368 411.7317 L 353.2462 411.7317 L 353.2462 411.8516 L 353.1568 411.8516 L 353.1568 412.0915 L 353.0668 412.0915 L 353.0668 412.2115 L 352.9775 412.2115 L 352.9775 412.5697 L 352.8875 412.5697 L 352.8875 413.0479 L 352.7976 413.0479 L 352.7976 413.4078 L 352.7076 413.4078 L 352.7076 413.6478 L 352.6188 413.6478 L 352.6188 413.886 L 352.5276 413.886 L 352.5276 414.006 L 352.4389 414.006 L 352.4389 414.2459 L 352.3489 414.2459 L 352.3489 414.4842 L 352.259 414.4842 L 352.259 414.7241 L 352.169 414.7241 L 352.169 414.8441 L 352.259 414.8441 L 352.259 415.0824 L 352.169 415.0824 L 352.169 415.6805 L 352.259 415.6805 L 352.259 415.9796 L 352.259 416.1604 L 352.169 416.1604 L 352.169 416.3987 L 352.259 416.3987 L 352.259 417.1168 L 352.169 417.1168 L 352.169 417.3567 L 352.0796 417.3567 L 352.0796 417.7149 L 351.9009 417.7149 L 351.9009 417.8349 L 351.7204 417.8349 L 351.7204 417.9549 L 351.631 417.9549 L 351.631 418.1948 L 351.541 418.1948 L 351.541 418.3131 L 351.4511 418.3131 L 351.4511 418.553 L 351.1824 418.553 L 351.1824 418.673 L 351.0918 418.673 L 351.0918 418.793 L 351.0024 418.793 L 351.0024 418.9129 L 350.7331 418.9129 L 350.7331 419.0312 L 350.6438 419.0312 L 350.6438 419.0789 L 350.6438 419.1512 L 350.6062 419.1512 L 350.5538 419.1512 L 350.5538 419.2514 L 350.4645 419.2712 L 350.4645 419.3911 L 350.3745 419.3911 L 350.3745 419.5111 L 350.2845 419.5111 L 350.2845 419.6294 L 350.1952 419.6294 L 350.1952 419.7494 L 350.1052 419.7494 L 350.1052 419.8693 L 350.0152 419.8693 L 350.0152 419.9893 L 349.9259 419.9893 L 349.9259 420.1093 L 349.8359 420.1093 L 349.8359 420.2292 L 349.7465 420.2292 L 349.7459 420.3475 L 349.6572 420.3475 L 349.6572 420.7074 L 349.5666 420.7074 L 349.5666 421.0657 L 349.4772 421.0657 L 349.4772 421.373 L 349.4772 421.4255 L 349.4341 421.4255 L 349.2979 421.4255 L 349.2979 421.5882 L 349.2979 421.6638 L 349.2344 421.6638 L 349.2079 421.6638 L 349.2079 421.6967 L 349.2079 421.9038 L 349.0644 421.9038 L 349.028 421.9038 L 349.028 421.9596 L 349.028 422.0237 L 348.9867 422.0237 L 348.9393 422.0237 L 348.9393 422.0977 L 348.9393 422.382 L 348.8487 422.382 L 348.8487 422.5019 L 348.7593 422.5019 L 348.7593 422.7418 L 348.6693 422.7418 L 348.6693 422.8618 L 348.58 422.8618 L 348.58 422.9801 L 348.49 422.9801 L 348.49 423.1001 L 348.3101 423.1001 L 348.3101 423.22 L 348.2213 423.22 L 348.2213 423.5783 L 348.1301 423.5783 L 348.1301 423.8182 L 348.0408 423.8182 L 348.0408 425.0145 L 348.1301 425.0145 L 348.1301 425.9726 L 348.0408 425.9726 L 348.0408 426.0926 L 347.9514 426.0926 L 347.9514 426.4508 L 347.8615 426.4508 L 347.8615 426.5708 L 347.7715 426.5708 L 347.7715 426.6907 L 347.6821 426.6907 L 347.6821 426.8107 L 347.5922 426.8107 L 347.5922 427.049 L 347.4128 427.049 L 347.4128 427.1689 L 347.3229 427.1689 L 347.3229 427.2889 L 347.2335 427.2889 L 347.2335 427.4088 L 347.1435 427.4088 L 347.1435 427.6471 L 347.0536 427.6471 L 347.0536 428.127 L 346.9642 428.127 L 346.9642 428.2453 L 346.4256 428.2453 L 346.4256 428.007 L 346.2463 428.007 L 346.2463 428.127 L 346.1563 428.127 L 346.1563 428.2453 L 345.887 428.2453 L 345.887 428.3653 L 345.7077 428.3653 L 345.7077 428.4852 L 345.6553 428.4852 L 345.6177 428.4852 L 345.6177 428.5723 L 345.6177 428.6052 L 345.5284 428.6052 L 345.5284 428.7251 L 345.3484 428.7251 L 345.3484 428.9634 L 345.2591 428.9634 L 345.2591 429.2214 L 345.2591 429.4433 L 345.1691 429.4433 L 345.1691 429.5616 L 345.0791 429.5616 L 345.0791 430.0612 L 345.0791 430.1598 L 344.9898 430.1598 L 344.9898 431.1178 L 344.8998 431.1178 L 344.8998 431.596 L 344.4512 431.596 L 344.4512 431.716 L 344.2718 431.716 L 344.2718 431.8359 L 344.0025 431.8359 L 344.0025 431.9559 L 343.9126 431.9559 L 343.9126 432.0759 L 343.7339 432.0759 L 343.7339 432.1942 L 343.6427 432.1942 L 343.6427 432.3141 L 343.284 432.3141 L 343.284 432.4341 L 343.1947 432.4341 L 343.1947 432.5541 L 343.0153 432.5541 L 343.0153 432.674 L 342.9247 432.674 L 342.9247 432.7923 L 342.836 432.7923 L 342.836 432.9123 L 342.5987 432.9123 L 342.5661 432.9123 L 342.5661 432.9534 L 342.5661 433.1522 L 342.4077 433.1522 L 342.2974 433.1522 L 342.2974 433.2722 L 342.0281 433.2722 L 342.0281 433.3921 L 341.9381 433.3921 L 341.9381 433.5105 L 341.8488 433.5105 L 341.8488 433.6304 L 341.6688 433.6304 L 341.6688 433.8703 L 341.5795 433.8703 L 341.5795 433.9903 L 341.4895 433.9903 L 341.4895 434.0774 L 341.4895 434.1086 L 341.4581 434.1086 L 341.3995 434.1086 L 341.3995 434.1645 L 341.3995 434.3486 L 341.3102 434.3486 L 341.3102 434.5885 L 341.2202 434.5885 L 341.2202 434.7084 L 341.1309 434.7084 L 341.1309 434.8268 L 340.9509 434.8268 L 340.9509 434.9467 L 340.7722 434.9467 L 340.7722 435.0667 L 340.5923 435.0667 L 340.5923 435.1866 L 340.3476 435.1866 L 340.323 435.1866 L 340.323 435.3066 L 340.2231 435.3066 L 340.1436 435.3066 L 340.1436 435.3838 L 340.143 435.4249 L 340.1017 435.4249 L 340.0543 435.4249 L 340.0543 435.4709 L 340.0543 435.5449 L 339.9785 435.5449 L 339.1564 435.5449 L 339.1564 435.6648 L 339.0664 435.6648 L 339.0664 435.7848 L 338.8865 435.7848 L 338.8865 435.9048 L 338.7072 435.9048 L 338.7072 436.0231 L 338.6178 436.0247 L 338.6178 436.143 L 338.3485 436.143 L 338.3485 436.383 L 338.0792 436.383 L 338.0792 436.5029 L 337.9893 436.5029 L 337.9893 436.6229 L 337.8999 436.6229 L 337.8999 436.7412 L 337.8099 436.7412 L 337.8099 436.8612 L 337.6306 436.8612 L 337.6306 436.9811 L 337.3613 436.9811 L 337.3613 437.1011 L 337.182 437.1011 L 337.182 437.2211 L 337.092 437.2211 L 337.092 437.3394 L 336.9127 437.341 L 336.9127 437.4593 L 336.8227 437.4593 L 336.8227 437.5793 L 336.6434 437.5793 L 336.6434 437.6993 L 336.3747 437.6993 L 336.3747 437.8192 L 336.1948 437.8192 L 336.1948 437.9392 L 336.0154 437.9392 L 336.0154 438.0575 L 335.8355 438.0575 L 335.8355 438.1775 L 335.4756 438.1775 L 335.4756 438.2974 L 335.2075 438.2974 L 335.2075 438.4174 L 335.1176 438.4174 L 335.1176 438.5374 L 334.9389 438.5374 L 334.9389 438.6557 L 334.8477 438.6557 L 334.8477 438.7756 L 334.579 438.7756 L 334.579 439.0156 L 334.489 439.0156 L 334.489 439.1092 L 334.4292 439.1355 L 334.3996 439.1355 L 334.3996 439.2555 L 334.3097 439.2555 L 334.3097 439.4938 L 334.2203 439.4938 L 334.2203 439.6137 L 333.951 439.6137 L 333.951 439.7337 L 333.8611 439.7337 L 333.8611 439.8536 L 333.7711 439.8536 L 333.7711 439.972 L 333.4124 439.972 L 333.4124 440.0919 L 333.3225 440.0919 L 333.3225 440.2119 L 332.9638 440.2119 L 332.9638 440.3319 L 332.6945 440.3319 L 332.6945 440.4518 L 332.5146 440.4518 L 332.5146 440.6901 L 332.4252 440.6901 L 332.4252 440.8101 L 332.3352 440.8101 L 332.3352 440.93 L 332.1559 440.93 L 332.1559 441.05 L 331.7966 441.05 L 331.7966 441.1699 L 331.7073 441.1699 L 331.7073 441.2883 L 331.348 441.2883 L 331.348 441.4082 L 331.1693 441.4082 L 331.1693 441.6481 L 331.0781 441.6481 L 331.0781 441.7681 L 330.9894 441.7681 L 330.9894 441.8881 L 330.8994 441.8881 L 330.8994 442.0064 L 330.81 442.0064 L 330.81 442.1263 L 330.7195 442.1263 L 330.7195 442.2463 L 330.6301 442.2463 L 330.6301 442.3663 L 330.5407 442.3663 L 330.5401 442.4862 L 330.2714 442.4862 L 330.2714 442.6046 L 330.0015 442.6046 L 330.0015 442.7245 L 329.6423 442.7245 L 329.6423 442.8445 L 329.3736 442.8445 L 329.3736 442.9644 L 329.0149 442.9644 L 329.0149 443.0844 L 328.9243 443.0844 L 328.9243 443.2044 L 328.835 443.2044 L 328.835 443.3227 L 328.6557 443.3227 L 328.6557 443.4426 L 328.4763 443.4426 L 328.4763 443.5626 L 328.1171 443.5626 L 328.1171 443.8025 L 327.9377 443.8025 L 327.9377 443.9208 L 327.7584 443.9208 L 327.7584 444.0408 L 327.6684 444.0408 L 327.6684 444.1608 L 327.4897 444.1608 L 327.4897 444.2807 L 327.0405 444.2807 L 327.0405 444.4007 L 326.7718 444.4007 L 326.7718 444.5207 L 326.2326 444.5207 L 326.2326 444.7589 L 326.1426 444.7589 L 326.1426 444.8789 L 326.0539 444.8789 L 326.0539 444.9989 L 325.9627 444.9989 L 325.9627 445.1188 L 325.8733 445.1188 L 325.8733 445.3571 L 325.694 445.3571 L 325.694 445.4771 L 325.604 445.4771 L 325.604 445.717 L 325.4247 445.717 L 325.4247 446.0752 L 325.3353 446.0752 L 325.3353 446.4351 L 325.1554 446.4351 L 325.1554 446.5534 L 325.066 446.5534 L 325.066 446.6734 L 324.9761 446.6734 L 324.9761 446.7934 L 324.8861 446.7934 L 324.8861 446.9133 L 324.7068 446.9133 L 324.7068 447.0333 L 324.5275 447.0333 L 324.5275 447.2716 L 324.3481 447.2716 L 324.3481 447.3915 L 324.1682 447.3915 L 324.1682 447.8697 L 324.0788 447.8697 L 324.0788 448.2296 L 323.9889 448.2296 L 323.9889 448.3496 L 323.8989 448.3496 L 323.8989 448.5879 L 323.8095 448.5879 L 323.8095 448.7078 L 323.7196 448.7078 L 323.7196 448.8278 L 323.6302 448.8278 L 323.6302 448.9477 L 323.4503 448.9477 L 323.4503 449.0677 L 323.3609 449.0677 L 323.3609 449.186 L 323.181 449.186 L 323.181 449.306 L 323.0922 449.306 L 323.0922 449.4259 L 322.9117 449.4259 L 322.9117 449.5459 L 322.733 449.5459 L 322.733 449.6659 L 321.9244 449.6659 L 321.9244 449.7858 L 321.8351 449.7858 L 321.8351 449.6659 L 321.7451 449.6659 L 321.7451 449.7858 L 321.6564 449.7858 L 321.6564 449.9041 L 321.5664 449.9041 L 321.5664 450.0241 L 321.4752 450.0241 L 321.4752 450.1441 L 321.0272 450.1441 L 321.0272 450.0241 L 320.4886 450.0241 L 320.4886 450.1441 L 320.1299 450.1441 L 320.1299 450.0241 L 319.1427 450.0241 L 319.1427 450.1441 L 318.9634 450.1441 L 318.9634 450.264 L 318.7835 450.264 L 318.7835 450.384 L 318.6048 450.384 L 318.6048 450.5023 L 318.4248 450.5023 L 318.4248 450.6223 L 318.2455 450.6223 L 318.2455 450.7422 L 318.1555 450.7422 L 318.1555 450.8622 L 318.0655 450.8622 L 318.0655 450.9822 L 317.7956 450.9822 L 317.7956 451.1021 L 317.7069 451.1021 L 317.7069 451.2204 L 317.6169 451.2204 L 317.6169 451.3404 L 317.1689 451.3404 L 317.1689 451.4604 L 316.809 451.4604 L 316.809 451.5803 L 316.4504 451.5803 L 316.4504 451.7003 L 316.1811 451.7003 L 316.1811 451.8186 L 316.0911 451.8186 L 316.0911 451.9386 L 315.9118 451.9386 L 315.9118 451.8186 L 315.8218 451.8186 L 315.8218 451.9386 L 315.5525 451.9386 L 315.5525 452.0585 L 315.4631 452.0585 L 315.4631 452.1785 L 315.3732 452.1785 L 315.3732 452.2984 L 315.2838 452.2984 L 315.2838 452.4184 L 315.1939 452.4184 L 315.1939 452.5367 L 315.1039 452.5367 L 315.1039 452.6567 L 315.0145 452.6567 L 315.0145 452.7767 L 314.9252 452.7767 L 314.9252 452.8966 L 314.8346 452.8966 L 314.8346 453.0166 L 314.6553 453.0166 L 314.6553 453.1349 L 314.296 453.1349 L 314.296 453.2549 L 314.0273 453.2549 L 314.0273 453.1349 L 313.668 453.1349 L 313.668 453.2549 L 313.2194 453.2549 L 313.2194 453.3748 L 313.1294 453.3748 L 313.1294 453.4948 L 312.9501 453.4948 L 312.9501 453.6147 L 312.6802 453.6147 L 312.6802 453.7347 L 312.5908 453.7347 L 312.5908 453.853 L 312.4115 453.853 L 312.4115 453.973 L 312.1422 453.973 L 312.1422 454.0929 L 312.0529 454.0929 L 312.0529 454.2129 L 311.8729 454.2129 L 311.8729 454.3329 L 311.7836 454.3329 L 311.7836 454.4512 L 311.6936 454.4512 L 311.6936 454.5711 L 311.6036 454.5711 L 311.6036 454.6911 L 311.5143 454.6911 L 311.5143 454.8111 L 311.4243 454.8111 L 311.4243 454.931 L 311.3343 454.931 L 311.3343 455.051 L 311.245 455.051 L 311.245 455.1693 L 311.155 455.1693 L 311.155 455.2893 L 310.9757 455.2893 L 310.9757 455.4092 L 310.8857 455.4092 L 310.8857 455.5292 L 310.7963 455.5292 L 310.7963 455.7675 L 310.7064 455.7675 L 310.7064 455.8874 L 310.6164 455.8874 L 310.6164 456.0074 L 310.5271 456.0074 L 310.5271 456.2473 L 310.3477 456.2473 L 310.3471 456.3673 L 309.9885 456.3673 L 309.9885 456.4856 L 309.8097 456.4856 L 309.8097 456.6056 L 309.7192 456.6056 L 309.7192 456.7255 L 309.5398 456.7255 L 309.5398 456.8455 L 309.3605 456.8455 L 309.3605 456.9655 L 309.2705 456.9655 L 309.2705 457.0838 L 309.0918 457.0838 L 309.0918 457.2037 L 308.4626 457.2037 L 308.4626 457.3237 L 308.014 457.3237 L 308.014 457.4437 L 307.7447 457.4437 L 307.7447 457.5636 L 307.5654 457.5636 L 307.5654 457.6836 L 307.3861 457.6836 L 307.3861 457.8019 L 307.2961 457.8019 L 307.2961 457.6836 L 307.0268 457.6836 L 307.0268 457.8019 L 306.7575 457.8019 L 306.7575 457.9219 L 306.4882 457.9219 L 306.4882 458.0418 L 306.3089 458.0418 L 306.3089 458.1618 L 306.1295 458.1618 L 306.1295 458.2817 L 305.9496 458.2817 L 305.9496 458.4001 L 305.7703 458.4001 L 305.7703 458.52 L 305.6809 458.52 L 305.6809 458.64 L 305.501 458.64 L 305.501 458.76 L 305.4116 458.76 L 305.4116 458.8799 L 305.3223 458.8799 L 305.3223 459.1182 L 305.2311 459.1182 L 305.2311 459.2382 L 305.1423 459.2382 L 305.1423 459.3581 L 305.0524 459.3581 L 305.0524 459.598 L 304.963 459.598 L 304.963 459.7164 L 304.873 459.7164 L 304.873 459.8363 L 304.7831 459.8363 L 304.7831 459.9563 L 304.6931 459.9563 L 304.6931 460.1962 L 304.6043 460.1962 L 304.6043 460.3162 L 304.5131 460.3162 L 304.5131 460.5544 L 304.4244 460.5544 L 304.4244 460.6744 L 304.3344 460.6744 L 304.3344 460.7944 L 304.2445 460.7944 L 304.2445 461.1526 L 304.1545 461.1526 L 304.1545 461.3925 L 304.0651 461.3925 L 304.0651 461.6325 L 303.9752 461.6325 L 303.9752 461.7508 L 303.8858 461.7508 L 303.8858 461.9907 L 303.7952 461.9907 L 303.7952 462.1107 L 303.7059 462.1107 L 303.7059 462.2306 L 303.6165 462.2306 L 303.6165 462.3489 L 303.5265 462.3489 L 303.5265 462.4689 L 303.4366 462.4689 L 303.4366 462.7088 L 303.3472 462.7088 L 303.3472 462.9471 L 303.2572 462.9488 L 303.2572 463.0671 L 303.1679 463.0671 L 303.1679 463.187 L 303.0773 463.187 L 303.0773 463.307 L 302.9879 463.307 L 302.9879 463.427 L 302.8986 463.427 L 302.8986 463.6652 L 302.8086 463.6652 L 302.8086 463.7852 L 302.6293 463.7852 L 302.6293 463.9052 L 301.9114 463.9052 L 301.9114 464.0251 L 300.6549 464.0251 L 300.6549 464.1451 L 300.2956 464.1451 L 300.2956 464.2634 L 300.1156 464.265 L 300.1156 464.3834 L 299.3977 464.3834 L 299.3977 464.5033 L 299.0391 464.5033 L 299.0391 464.6233 L 298.9497 464.6233 L 298.9497 464.7432 L 298.7704 464.7432 L 298.7704 464.8632 L 298.6804 464.8632 L 298.6804 464.9815 L 298.5904 464.9815 L 298.5904 465.1015 L 298.1418 465.1015 L 298.1418 465.2215 L 297.8725 465.2215 L 297.8725 465.3414 L 297.6932 465.3414 L 297.6932 465.4614 L 297.0646 465.4614 L 297.0646 465.8196 L 296.9753 465.8196 L 296.9753 465.9396 L 296.706 465.9396 L 296.706 466.0595 Z" fill="#000000" fill-opacity="1" stroke="#000000" stroke-width="0" paint-order="fill" stroke-opacity="1" stroke-dasharray="" stroke-linecap="butt" stroke-linejoin="miter" stroke-miterlimit="10" transform="matrix(0.949999988079071,0,0,0.949999988079071,19.99998664855957,13.325027465820312)" clip-path="none" style="filter: url(#f1)"/>









</svg>