<?xml version="1.0" standalone="no"?>
<!-- Generator: Paintmaps.com , Online SVG vector map maker -->
<svg xmlns="http://www.w3.org/2000/svg" version="1.1" baseProfile="full"   style="background-color:#e0f2f1" width="800" height="500" viewBox="0 0 850 567">

<path data-code="200" d="M 667.7254 231.2851 L 659.3954 235.8821 L 657.4505 236.5083 L 652.5032 237.6447 L 650.6851 238.3372 L 646.4104 240.3982 L 644.3397 240.9378 L 642.1842 241.2186 L 638.871 241.3744 L 626.5012 241.245 L 622.0456 241.3215 L 618.7919 241.6816 L 616.7147 242.2359 L 614.9627 243.0415 L 611.6329 244.8747 L 607.9481 246.4771 L 603.7969 248.9028 L 600.2157 250.6096 L 598.402 251.646 L 595.8815 253.7012 L 593.6102 256.0592 L 591.6454 258.554 L 589.6542 261.7618 L 589.083 262.4527 L 587.6783 263.57 L 583.0056 266.5587 L 581.3506 267.504 L 577.6559 269.0785 L 572.5389 271.6894 L 568.5795 272.6714 L 564.64 273.6902 L 560.3664 275.8086 L 558.5273 276.526 L 553.5756 277.7153 L 551.6759 278.3136 L 547.5291 280.2571 L 545.6845 280.7173 L 544.7021 280.7702 L 543.7197 280.6996 L 541.874 280.1998 L 537.811 278.0284 L 534.199 276.3599 L 530.0544 273.9945 L 528.1227 273.2535 L 527.0465 272.9992 L 523.7101 272.6023 L 519.1554 272.5229 L 513.4639 272.8213 L 510.154 273.3271 L 504.8362 264.1257 L 504.1174 262.216 L 503.0776 257.0765 L 502.5142 255.0713 L 499.911 249.8525 L 498.3818 246.0317 L 496.611 242.574 L 495.8502 240.7658 L 495.2229 237.658 L 494.8502 232.3274 L 494.5713 230.2325 L 493.9692 228.2184 L 493.5172 227.3349 L 492.3529 225.7663 L 490.9272 224.4682 L 490.1323 223.9346 L 486.5445 222.3116 L 482.3867 220.0226 L 477.9345 217.9601 L 477.1351 217.4323 L 475.683 216.1651 L 474.4492 214.6685 L 473.9354 213.8467 L 472.318 210.1391 L 470.0246 205.8626 L 468.4325 202.1241 L 467.471 200.2424 L 466.2361 198.4548 L 462.1522 193.3035 L 461.0132 191.4644 L 459.3737 187.6686 L 456.7749 182.4321 L 456.2049 180.4269 L 455.4066 176.3077 L 454.8598 174.3039 L 452.5465 168.9557 L 451.8839 165.8523 L 451.2643 159.4191 L 450.8927 157.3257 L 450.2719 155.391 L 448.3093 150.966 L 446.586 143.8772 L 446.2178 142.8952 L 445.2839 141.1502 L 442.9299 137.9512 L 443.2375 132.4898 L 443.888 129.3644 L 446.253 124.0426 L 446.812 122.0462 L 447.618 117.924 L 448.1936 115.9085 L 450.8177 110.6823 L 452.4628 106.8997 L 454.2434 104.1786 L 457.6625 99.8947 L 458.8985 98.1159 L 461.1444 93.4395 L 462.8777 90.7815 L 464.9527 88.2912 L 467.1866 85.8993 L 471.1393 82.2138 L 473.7292 80.435 L 477.4085 78.7693 L 482.4065 75.9364 L 486.1112 74.3576 L 491.107 71.5026 L 494.8039 69.8973 L 499.7942 67.0217 L 504.3235 64.9474 L 508.4461 62.4835 L 512.121 60.8576 L 515.4386 58.9965 L 517.1873 58.1791 L 519.2899 57.6219 L 522.5877 57.272 L 535.0424 57.1559 L 538.4064 56.9633 L 540.5211 56.7002 L 545.4221 64.893 L 546.2777 66.6821 L 546.8731 68.6991 L 547.6647 72.8228 L 548.2083 74.828 L 550.2106 79.2412 L 550.8666 81.1435 L 551.8964 86.2918 L 552.4709 88.3029 L 555.084 93.5306 L 556.6199 97.3514 L 559.233 102.5776 L 559.8085 104.5902 L 560.6013 108.7197 L 561.1525 110.7293 L 563.5484 116.0423 L 564.1119 118.0519 L 564.9178 122.18 L 565.4769 124.1852 L 567.4857 128.594 L 568.1142 130.5243 L 568.4792 132.6162 L 569.0382 139.0582 L 569.6876 142.1807 L 570.4451 144.0036 L 572.1871 147.4672 L 573.3504 150.3133 L 574.3427 152.1995 L 576.3405 154.8059 L 579.5005 157.8505 L 582.1467 159.6602 L 585.7929 161.3464 L 587.5813 162.4975 L 590.05 164.6351 L 592.2221 167.1136 L 593.4007 168.9557 L 594.199 170.9506 L 595.3468 177.1118 L 595.9874 179.0244 L 598.7041 183.9522 L 599.7284 185.4355 L 600.3723 186.0618 L 601.207 186.6013 L 603.0968 187.2629 L 609.473 188.1552 L 611.6009 188.6771 L 615.7577 190.5059 L 617.8217 191.2042 L 620.9067 191.704 L 625.1384 191.9701 L 627.1373 192.3832 L 629.0757 192.9698 L 633.3107 195.1161 L 635.1729 195.7836 L 637.2017 196.1585 L 643.4511 196.7039 L 645.4864 197.0758 L 646.471 197.3772 L 648.2197 198.1857 L 651.5374 200.0395 L 655.2012 201.7007 L 656.8904 202.8224 L 659.2488 204.86 L 671.9229 217.9174 L 674.2361 220.1388 L 676.7919 222.3601 L 674.6055 225.5693 L 672.6771 227.7318 L 670.4896 229.5915 L 667.7254 231.2851 Z" fill="#000000" fill-opacity="1" stroke="#000000" stroke-width="0" paint-order="fill" stroke-opacity="1" stroke-dasharray="" stroke-linecap="butt" stroke-linejoin="miter" stroke-miterlimit="10" transform="matrix(0.949999988079071,0,0,0.949999988079071,21.25002098083496,14.175024032592773)" clip-path="none" style="filter: url(#f1)"/>
<path data-code="201" d="M 262.0456 444.4146 L 259.6695 438.5606 L 256.0652 432.4053 L 255.2603 431.3189 L 254.7311 430.8794 L 254.1191 430.5618 L 252.8104 430.3001 L 251.5049 430.4398 L 248.7595 431.585 L 247.2611 431.8805 L 246.432 431.7644 L 244.8299 431.0455 L 243.304 429.9238 L 241.0823 427.851 L 227.031 413.1132 L 224.2272 409.9569 L 222.4057 407.4533 L 219.7739 401.9478 L 218.6647 400.2983 L 214.3657 394.7251 L 213.3569 393.0492 L 211.6666 389.3725 L 210.5795 387.7892 L 208.5618 385.7855 L 205.243 383.7258 L 204.2882 382.9937 L 203.2882 381.9867 L 201.3763 379.7286 L 208.4857 376.4503 L 210.467 375.9328 L 214.4815 375.1772 L 216.432 374.5377 L 217.3537 374.0599 L 219.883 372.1752 L 226.0586 366.1434 L 228.5096 364.1235 L 230.3046 363.0959 L 231.2627 362.7372 L 234.2176 362.0727 L 237.3456 364.4734 L 239.037 365.404 L 240.95 366.0302 L 245.7936 367.171 L 246.7186 367.5591 L 248.3174 368.6 L 249.6857 369.9392 L 250.7916 371.4975 L 252.4631 375.1434 L 254.1335 377.791 L 256.1788 380.3034 L 258.4137 382.7026 L 260.7655 384.9651 L 263.2297 386.9865 L 264.9531 388.0818 L 268.4813 389.8106 L 269.9951 390.9529 L 271.2951 392.37 L 272.3039 394.0313 L 272.6799 394.9942 L 273.9523 401.0525 L 274.6039 402.9489 L 276.7716 407.3077 L 278.2909 411.1477 L 281.1113 416.3018 L 282.7233 420.1167 L 285.6473 425.2092 L 288.6397 431.9525 L 288.8393 432.7802 L 288.8702 433.6784 L 288.6794 434.5796 L 288.3078 435.397 L 287.1733 436.7701 L 285.6429 437.7697 L 284.7189 438.1079 L 282.7773 438.4563 L 277.6569 438.7253 L 274.583 439.1457 L 272.6965 439.7779 L 268.4416 441.9434 L 263.7171 443.6237 L 262.0456 444.4146 Z" fill="#000000" fill-opacity="1" stroke="#000000" stroke-width="0" paint-order="fill" stroke-opacity="1" stroke-dasharray="" stroke-linecap="butt" stroke-linejoin="miter" stroke-miterlimit="10" transform="matrix(0.949999988079071,0,0,0.949999988079071,21.25002098083496,14.175024032592773)" clip-path="none" style="filter: url(#f1)"/>
<path data-code="202" d="M 392.2654 475.0339 L 390.2885 474.9119 L 388.2807 475.0162 L 386.3082 475.4411 L 385.4195 475.7807 L 381.2363 477.9829 L 377.5526 479.5912 L 372.5811 482.5094 L 368.8885 484.1426 L 363.8983 487.0196 L 360.2201 488.6514 L 355.2442 491.5505 L 351.556 493.1632 L 348.2086 494.9876 L 346.4577 495.7829 L 343.451 496.4886 L 337.2402 497.1354 L 335.2225 497.5264 L 333.3613 498.1806 L 329.961 499.886 L 328.1131 500.5916 L 318.9121 502.7086 L 316.1104 501.8941 L 313.8369 501.6192 L 311.527 501.6236 L 309.2458 501.9338 L 307.0759 502.6395 L 304.0229 504.0993 L 301.9214 504.8578 L 291.921 506.5044 L 289.8095 507.2644 L 286.7433 508.7536 L 284.5844 509.5225 L 281.1466 510.0943 L 277.5963 510.3002 L 271.6292 510.2428 L 266.9686 509.7283 L 264.7656 509.1255 L 259.61 506.7396 L 256.1887 505.9634 L 251.3737 505.6473 L 237.8991 505.4768 L 234.3444 505.1019 L 231.8328 504.5271 L 228.6463 500.646 L 226.5128 498.6217 L 224.9317 497.522 L 221.3484 495.7594 L 219.6327 494.623 L 217.2005 492.559 L 212.5079 488.0325 L 210.1076 485.8906 L 207.5706 484.1206 L 204.0291 482.3741 L 203.2407 481.8449 L 201.7997 480.5806 L 200.567 479.0928 L 200.0521 478.274 L 198.4236 474.5723 L 196.0795 470.3031 L 194.9394 467.7378 L 201.5064 463.1569 L 204.0853 461.7736 L 207.3677 460.9665 L 212.9985 460.3637 L 215.2004 459.9639 L 217.1508 459.3111 L 220.5732 457.6896 L 222.5259 457.0237 L 224.7311 456.6032 L 230.3707 455.9608 L 232.5759 455.5389 L 234.5286 454.8714 L 237.9521 453.2411 L 239.9069 452.584 L 242.1154 452.1797 L 247.7672 451.5858 L 249.9801 451.1609 L 251.9393 450.4538 L 258.6518 446.8785 L 260.2362 445.8435 L 262.0456 444.4146 L 263.7171 443.6237 L 268.4416 441.9434 L 272.6965 439.7779 L 274.583 439.1457 L 277.6569 438.7253 L 282.7773 438.4563 L 284.7189 438.1079 L 285.6429 437.7697 L 287.1733 436.7701 L 288.3078 435.397 L 288.6794 434.5796 L 288.8702 433.6784 L 288.8393 432.7802 L 288.6397 431.9525 L 285.6473 425.2092 L 282.7233 420.1167 L 281.1113 416.3018 L 278.2909 411.1477 L 276.7716 407.3077 L 274.6039 402.9489 L 273.9523 401.0525 L 272.6799 394.9942 L 272.3039 394.0313 L 271.2951 392.37 L 269.9951 390.9529 L 268.4813 389.8106 L 264.9531 388.0818 L 263.2297 386.9865 L 260.7655 384.9651 L 258.4137 382.7026 L 256.1788 380.3034 L 254.1335 377.791 L 252.4631 375.1434 L 250.7916 371.4975 L 249.6857 369.9392 L 248.3174 368.6 L 246.7186 367.5591 L 245.7936 367.171 L 240.95 366.0302 L 239.037 365.404 L 237.3456 364.4734 L 234.2176 362.0727 L 235.1085 359.6397 L 235.5815 358.909 L 236.8759 357.7433 L 241.4803 354.7648 L 243.1573 353.8343 L 252.7751 349.9532 L 257.8436 348.5228 L 269.4108 348.6036 L 273.9942 348.9285 L 277.2501 349.6842 L 281.5038 351.7379 L 284.4709 352.6449 L 288.879 353.0683 L 299.0183 353.2727 L 302.2808 353.7637 L 304.2224 354.4458 L 312.957 359.0178 L 314.7002 360.3306 L 319.6133 364.5822 L 321.2848 373.2131 L 321.8681 375.2551 L 322.2529 376.168 L 324.5198 380.4784 L 326.0634 384.2918 L 328.8793 389.4225 L 330.4219 393.2448 L 333.2014 398.3975 L 334.712 402.2315 L 337.4695 407.3827 L 339.065 411.1785 L 340.1741 413 L 342.204 415.5491 L 353.6983 427.654 L 356.059 429.9517 L 358.5563 431.9908 L 360.3855 433.0316 L 361.3513 433.3903 L 366.3251 434.4267 L 368.2656 434.9765 L 369.9933 435.7836 L 373.3242 437.6345 L 377.0002 439.2972 L 379.4325 440.9628 L 383.2474 444.2117 L 385.6036 445.9832 L 389.1153 447.74 L 390.8012 448.7411 L 392.2698 450.0025 L 393.5278 451.4887 L 394.5168 453.2234 L 396.7132 458.3806 L 397.2204 460.0491 L 397.2964 460.9283 L 396.9822 462.6409 L 395.6084 465.9119 L 394.099 470.8647 L 392.2654 475.0339 Z" fill="#000000" fill-opacity="1" stroke="#000000" stroke-width="0" paint-order="fill" stroke-opacity="1" stroke-dasharray="" stroke-linecap="butt" stroke-linejoin="miter" stroke-miterlimit="10" transform="matrix(0.949999988079071,0,0,0.949999988079071,21.25002098083496,14.175024032592773)" clip-path="none" style="filter: url(#f1)"/>
<path data-code="203" d="M 301.7405 208.6808 L 307.9348 210.4111 L 309.6515 211.2623 L 315.1512 214.6126 L 316.4246 215.9387 L 319.6342 221.6339 L 320.7534 224.4153 L 321.7986 229.5606 L 322.3576 231.5585 L 324.7326 236.8935 L 325.232 238.9693 L 325.4636 241.1201 L 325.457 244.3881 L 325.0556 247.5885 L 324.49 249.5878 L 322.5087 253.7673 L 322.0423 255.6358 L 322.1106 257.6455 L 322.3797 258.6304 L 323.3003 260.2902 L 324.5749 261.6412 L 326.0722 262.6776 L 330.2421 264.6093 L 331.6325 265.7134 L 332.2323 266.3646 L 333.1331 267.9083 L 333.3635 268.8477 L 333.3933 269.8003 L 333.2125 270.7353 L 332.8056 271.6085 L 332.2102 272.3068 L 331.5288 272.8213 L 326.8848 275.2808 L 324.1526 276.2467 L 319.2803 276.97 L 317.4578 277.5374 L 315.9748 278.5268 L 314.891 279.9013 L 314.558 280.729 L 314.4224 281.6361 L 314.5447 282.6078 L 314.8777 283.4737 L 315.9075 285.0158 L 319.1579 288.7999 L 320.2329 290.5772 L 320.5957 291.5357 L 320.9783 293.5145 L 320.932 295.4741 L 320.3586 297.3103 L 319.804 298.1159 L 319.0852 298.7422 L 318.2913 299.1773 L 312.9592 300.6151 L 308.6857 302.5395 L 306.7859 303.1569 L 304.7384 303.5082 L 298.4681 304.0507 L 295.4327 304.7152 L 293.6608 305.4944 L 286.7378 309.03 L 285.1997 310.2075 L 283.2801 312.4127 L 282.3109 314.1606 L 280.699 317.7829 L 277.5875 323.2973 L 276.7308 324.5454 L 275.6436 325.3775 L 268.7018 322.574 L 266.7095 322.0477 L 262.6762 321.2671 L 260.7302 320.6952 L 255.5966 318.2284 L 252.5998 317.5316 L 247.4078 317.0082 L 244.3613 316.4731 L 242.5134 315.8042 L 239.1362 314.093 L 237.2729 313.4388 L 234.1967 312.9684 L 226.7874 312.7199 L 224.6969 312.5391 L 222.6516 312.1304 L 221.6604 311.7864 L 219.7673 310.7382 L 217.2115 308.6683 L 210.8397 302.2881 L 207.038 298.1732 L 205.1405 295.48 L 204.6664 294.4745 L 204.1063 292.3928 L 203.9806 291.3285 L 203.9861 289.188 L 204.3455 287.0725 L 204.6895 286.0449 L 205.7491 284.1117 L 207.0976 282.377 L 209.3766 279.9381 L 216.5786 272.7405 L 219.5159 269.3431 L 221.2877 266.5558 L 223.4422 262.0367 L 224.2503 261.7676 L 225.257 260.9664 L 228.8988 255.0405 L 230.8912 250.3567 L 233.4513 245.0423 L 234.4183 240.9348 L 236.8991 237.7521 L 237.93 236.0188 L 238.7139 234.1282 L 239.8562 230.3574 L 238.9808 226.0971 L 238.6004 221.4104 L 238.6268 215.6917 L 239.1814 212.5442 L 240.1043 210.7169 L 241.4572 209.4629 L 245.2743 207.1019 L 247.8146 205.8229 L 249.7662 205.2319 L 254.7234 204.1323 L 256.5393 203.4531 L 259.9253 201.7978 L 261.8063 201.1803 L 263.835 200.8878 L 265.888 200.8981 L 267.9135 201.2156 L 269.7823 201.8786 L 273.9038 204.1823 L 277.5279 205.8817 L 281.6802 208.2221 L 284.7311 209.2115 L 288.1303 209.6025 L 292.781 209.6378 L 296.2949 209.4202 L 301.7405 208.6808 Z" fill="#000000" fill-opacity="1" stroke="#000000" stroke-width="0" paint-order="fill" stroke-opacity="1" stroke-dasharray="" stroke-linecap="butt" stroke-linejoin="miter" stroke-miterlimit="10" transform="matrix(0.949999988079071,0,0,0.949999988079071,21.25002098083496,14.175024032592773)" clip-path="none" style="filter: url(#f1)"/>
<path data-code="204" d="M 257.8436 348.5228 L 260.7092 344.38 L 261.9507 342.7673 L 263.9828 340.4504 L 269.6544 334.426 L 271.6424 332.0723 L 273.1011 329.9466 L 275.6436 325.3775 L 276.7308 324.5454 L 277.5875 323.2973 L 280.699 317.7829 L 282.3109 314.1606 L 283.2801 312.4127 L 285.1997 310.2075 L 286.7378 309.03 L 293.6608 305.4944 L 295.4327 304.7152 L 298.4681 304.0507 L 304.7384 303.5082 L 306.7859 303.1569 L 308.6857 302.5395 L 312.9592 300.6151 L 318.2913 299.1773 L 319.0852 298.7422 L 319.804 298.1159 L 320.3586 297.3103 L 320.932 295.4741 L 320.9783 293.5145 L 320.5957 291.5357 L 320.2329 290.5772 L 319.1579 288.7999 L 315.9075 285.0158 L 314.8777 283.4737 L 314.5447 282.6078 L 314.4224 281.6361 L 314.558 280.729 L 314.891 279.9013 L 315.9748 278.5268 L 317.4578 277.5374 L 319.2803 276.97 L 324.1526 276.2467 L 326.8848 275.2808 L 331.5288 272.8213 L 332.2102 272.3068 L 332.8056 271.6085 L 333.2125 270.7353 L 333.3933 269.8003 L 333.3635 268.8477 L 333.1331 267.9083 L 332.2323 266.3646 L 331.6325 265.7134 L 330.2421 264.6093 L 326.0722 262.6776 L 324.5749 261.6412 L 323.3003 260.2902 L 322.3797 258.6304 L 322.1106 257.6455 L 322.0423 255.6358 L 322.5087 253.7673 L 324.49 249.5878 L 325.0556 247.5885 L 325.457 244.3881 L 325.4636 241.1201 L 325.232 238.9693 L 324.7326 236.8935 L 322.3576 231.5585 L 321.7986 229.5606 L 320.7534 224.4153 L 319.6342 221.6339 L 316.4246 215.9387 L 315.1512 214.6126 L 309.6515 211.2623 L 307.9348 210.4111 L 301.7405 208.6808 L 297.5265 202.8504 L 295.9652 200.3203 L 294.3158 196.548 L 292.0764 192.2436 L 291.7071 191.3159 L 291.1856 189.2313 L 290.9397 187.0659 L 290.8868 184.8548 L 290.9948 182.7202 L 291.2804 180.6004 L 292.1691 177.6308 L 293.856 174.1407 L 294.5628 172.259 L 295.7194 167.2121 L 298.8573 159.9557 L 299.9665 157.0258 L 300.929 155.1103 L 302.1838 153.3123 L 304.3779 150.8381 L 306.8289 148.655 L 308.6173 147.4628 L 312.2767 145.7913 L 316.471 143.5376 L 317.3707 143.1657 L 319.4556 142.6291 L 321.6189 142.3659 L 324.9365 142.2395 L 338.4398 142.5203 L 342.8413 142.4145 L 346.0013 141.8426 L 347.0002 141.4471 L 348.6408 140.396 L 350.0224 139.042 L 351.1338 137.4676 L 353.3135 132.897 L 358.9367 124.8997 L 360.6523 121.2435 L 361.6369 119.5294 L 362.9049 118.0505 L 363.6447 117.3977 L 365.3416 116.3275 L 366.3548 115.932 L 368.5335 115.4601 L 373.2757 115.2029 L 381.8714 115.5057 L 388.8264 116.3495 L 390.6722 119.2765 L 393.4154 122.549 L 409.9529 139.9432 L 412.2121 142.2616 L 414.5694 144.4006 L 416.2839 145.6031 L 417.2167 146.0838 L 418.209 146.4528 L 420.2653 146.91 L 424.5135 147.2217 L 427.7264 147.1864 L 429.8434 147.0306 L 431.9085 146.691 L 432.9075 146.4073 L 434.7135 145.5296 L 436.202 144.3359 L 437.439 142.9599 L 439.3542 140.0329 L 439.9165 139.4228 L 441.3344 138.5466 L 442.9299 137.9512 L 445.2839 141.1502 L 446.2178 142.8952 L 446.586 143.8772 L 448.3093 150.966 L 450.2719 155.391 L 450.8927 157.3257 L 451.2643 159.4191 L 451.8839 165.8523 L 452.5465 168.9557 L 454.8598 174.3039 L 455.4066 176.3077 L 456.2049 180.4269 L 456.7749 182.4321 L 459.3737 187.6686 L 461.0132 191.4644 L 462.1522 193.3035 L 466.2361 198.4548 L 467.471 200.2424 L 468.4325 202.1241 L 470.0246 205.8626 L 472.318 210.1391 L 473.9354 213.8467 L 474.4492 214.6685 L 475.683 216.1651 L 477.1351 217.4323 L 477.9345 217.9601 L 482.3867 220.0226 L 486.5445 222.3116 L 490.1323 223.9346 L 490.9272 224.4682 L 492.3529 225.7663 L 493.5172 227.3349 L 493.9692 228.2184 L 494.5713 230.2325 L 494.8502 232.3274 L 495.2229 237.658 L 495.8502 240.7658 L 496.611 242.574 L 498.3818 246.0317 L 499.911 249.8525 L 502.5142 255.0713 L 503.0776 257.0765 L 504.1174 262.216 L 504.8362 264.1257 L 510.154 273.3271 L 507.0943 276.0526 L 502.9718 278.468 L 501.4304 279.6485 L 496.8867 283.5516 L 495.2813 284.7056 L 493.5128 285.645 L 490.6814 286.7888 L 487.3196 288.3838 L 483.7164 289.9113 L 480.531 290.3082 L 475.016 290.5214 L 452.7009 290.3979 L 448.2895 290.4861 L 445.0634 290.8389 L 443.0071 291.3917 L 442.1151 291.7724 L 437.944 294.0717 L 434.2614 295.677 L 429.3042 298.5996 L 425.6492 300.3034 L 423.0118 302.1308 L 418.8529 305.6517 L 417.1307 306.9292 L 412.6189 309.2666 L 410.8989 310.4207 L 408.471 312.4935 L 403.7961 317.0214 L 401.4035 319.1678 L 398.8577 320.9642 L 395.2445 322.7445 L 393.5234 323.8868 L 391.0911 325.9479 L 384.0203 332.6104 L 381.4734 334.4069 L 377.8613 336.1886 L 376.1226 337.3471 L 373.6671 339.442 L 367.3604 345.5443 L 365.7594 346.8645 L 364.1221 347.945 L 360.4605 349.6312 L 357.123 351.4718 L 355.3831 352.2818 L 353.4282 352.8478 L 349.4292 353.6358 L 347.482 354.2165 L 345.7554 355.0427 L 342.4223 356.9097 L 338.7298 358.5048 L 335.4033 360.3791 L 333.6734 361.2127 L 331.713 361.7993 L 325.6631 362.9504 L 322.2264 363.9853 L 319.6133 364.5822 L 314.7002 360.3306 L 312.957 359.0178 L 304.2224 354.4458 L 302.2808 353.7637 L 299.0183 353.2727 L 288.879 353.0683 L 284.4709 352.6449 L 281.5038 351.7379 L 277.2501 349.6842 L 273.9942 348.9285 L 269.4108 348.6036 L 257.8436 348.5228 Z" fill="#000000" fill-opacity="1" stroke="#000000" stroke-width="0" paint-order="fill" stroke-opacity="1" stroke-dasharray="" stroke-linecap="butt" stroke-linejoin="miter" stroke-miterlimit="10" transform="matrix(0.949999988079071,0,0,0.949999988079071,21.25002098083496,14.175024032592773)" clip-path="none" style="filter: url(#f1)"/>
<path data-code="205" d="M 194.9394 467.7378 L 190.9525 464.8108 L 189.5037 463.4686 L 188.238 461.9412 L 187.2269 460.2226 L 186.8333 459.2391 L 186.3019 457.3324 L 185.7572 454.3951 L 184.8751 451.1947 L 182.9522 446.8476 L 181.0183 438.7224 L 178.6478 433.3918 L 178.0711 431.388 L 176.9509 426.2735 L 176.2739 424.3933 L 174.2694 419.9668 L 173.5506 416.6694 L 173.276 413.2161 L 173.2099 408.5338 L 173.3069 405.0261 L 173.6068 401.5788 L 174.3356 398.2916 L 176.3059 393.8681 L 176.9377 391.9628 L 177.3269 389.8929 L 177.6224 386.9689 L 184.7318 382.0411 L 186.819 380.9665 L 187.8907 380.6078 L 190.108 380.1623 L 192.3826 379.9491 L 201.3763 379.7286 L 203.2882 381.9867 L 204.2882 382.9937 L 205.243 383.7258 L 208.5618 385.7855 L 210.5795 387.7892 L 211.6666 389.3725 L 213.3569 393.0492 L 214.3657 394.7251 L 218.6647 400.2983 L 219.7739 401.9478 L 222.4057 407.4533 L 224.2272 409.9569 L 227.031 413.1132 L 241.0823 427.851 L 243.304 429.9238 L 244.8299 431.0455 L 246.432 431.7644 L 247.2611 431.8805 L 248.7595 431.585 L 251.5049 430.4398 L 252.8104 430.3001 L 254.1191 430.5618 L 254.7311 430.8794 L 255.2603 431.3189 L 256.0652 432.4053 L 259.6695 438.5606 L 262.0456 444.4146 L 260.2362 445.8435 L 258.6518 446.8785 L 251.9393 450.4538 L 249.9801 451.1609 L 247.7672 451.5858 L 242.1154 452.1797 L 239.9069 452.584 L 237.9521 453.2411 L 234.5286 454.8714 L 232.5759 455.5389 L 230.3707 455.9608 L 224.7311 456.6032 L 222.5259 457.0237 L 220.5732 457.6896 L 217.1508 459.3111 L 215.2004 459.9639 L 212.9985 460.3637 L 207.3677 460.9665 L 204.0853 461.7736 L 201.5064 463.1569 L 194.9394 467.7378 Z" fill="#000000" fill-opacity="1" stroke="#000000" stroke-width="0" paint-order="fill" stroke-opacity="1" stroke-dasharray="" stroke-linecap="butt" stroke-linejoin="miter" stroke-miterlimit="10" transform="matrix(0.949999988079071,0,0,0.949999988079071,21.25002098083496,14.175024032592773)" clip-path="none" style="filter: url(#f1)"/>






</svg>