<?xml version="1.0" standalone="no"?>
<!-- Generator: Paintmaps.com , Online SVG vector map maker -->
<svg xmlns="http://www.w3.org/2000/svg" version="1.1" baseProfile="full"   style="background-color:#e0f2f1" width="800" height="500" viewBox="0 0 800 533">

<path data-code="200" d="M 199.0786 205.8692 L 200.5812 198.9012 L 202.1933 194.6154 L 207.4505 184.9119 L 211.1329 176.4367 L 216.1112 167.115 L 217.2391 162.8027 L 217.1046 158.1916 L 216.4971 155.9342 L 215.5821 153.9423 L 214.4132 152.1397 L 211.5362 149.0358 L 208.1501 146.5958 L 202.3315 143.8637 L 198.6504 141.759 L 195.3813 139.0269 L 192.5429 135.7603 L 190.2598 131.9327 L 186.4205 123.7496 L 180.5322 114.1789 L 177.7225 109.1396 L 179.1964 109.1396 L 179.1964 109.3819 L 181.9153 109.3819 L 181.9153 109.6242 L 185.3599 109.6242 L 185.3599 109.3819 L 185.5417 109.3819 L 185.5417 109.1396 L 186.4479 109.1396 L 186.4479 109.3819 L 188.9863 109.3819 L 188.9863 109.1396 L 189.5303 109.1396 L 189.5303 109.3819 L 190.0743 109.3819 L 190.0743 109.1396 L 190.9806 109.1396 L 190.9806 109.3819 L 192.6126 109.3819 L 192.6126 109.1396 L 193.1567 109.1396 L 193.1567 109.3819 L 193.3372 109.3819 L 193.5189 109.3819 L 194.7875 109.3819 L 194.7875 109.1396 L 195.151 109.1396 L 195.151 108.8972 L 195.8755 108.8972 L 195.8755 109.1396 L 197.1453 109.1396 L 197.1453 108.8972 L 197.3258 108.8972 L 197.3258 109.1396 L 198.7761 109.1396 L 198.7761 108.8972 L 199.3201 108.8972 L 199.3201 108.6582 L 200.2264 108.6582 L 200.2264 108.8972 L 200.5899 108.8972 L 200.5899 109.1396 L 201.8584 109.1396 L 201.8584 108.8972 L 202.0402 108.8972 L 202.0402 108.6582 L 202.5842 108.6582 L 202.5842 108.4159 L 202.7647 108.4159 L 202.7647 107.9312 L 203.3087 107.9312 L 203.3087 108.1735 L 203.671 108.1735 L 203.671 107.9312 L 204.759 107.9312 L 204.759 107.6888 L 204.9408 107.6888 L 204.9408 106.9651 L 205.1213 106.9651 L 205.1225 106.7228 L 205.4848 106.7228 L 205.4848 106.4805 L 205.8471 106.4805 L 205.8471 106.2381 L 206.0288 106.2381 L 206.0288 105.9991 L 206.2093 105.9991 L 206.2093 105.7568 L 206.3911 105.7568 L 206.3911 105.5144 L 206.5728 105.5144 L 206.5728 105.0298 L 207.2974 105.0298 L 207.2974 105.5144 L 207.6596 105.5144 L 207.6596 105.7568 L 208.0231 105.7568 L 208.0231 105.9991 L 208.3854 105.9991 L 208.3854 106.2381 L 208.7477 106.2381 L 208.7477 105.9991 L 208.9294 105.9991 L 208.9294 105.7568 L 210.3797 105.7568 L 210.3797 105.9991 L 210.9237 105.9991 L 210.9237 106.2381 L 212.0118 106.2381 L 212.0118 105.9991 L 212.374 105.9991 L 212.374 105.7568 L 212.5558 105.7568 L 212.5558 105.5144 L 212.7351 105.5144 L 212.7363 105.7568 L 213.2803 105.7568 L 213.2803 105.5144 L 213.8243 105.5144 L 213.8243 105.2721 L 214.1853 105.2721 L 214.1866 105.5144 L 214.7306 105.5144 L 214.7306 105.9991 L 217.4507 105.9991 L 217.4507 105.7568 L 217.6312 105.7568 L 217.6312 105.5144 L 218.5387 105.5144 L 218.5387 105.7568 L 218.7192 105.7568 L 218.7192 105.9991 L 220.3513 105.9991 L 220.3513 105.5144 L 222.1639 105.5144 L 222.1639 105.7568 L 222.3456 105.7568 L 222.3456 105.5144 L 225.0645 105.5144 L 225.0645 105.2721 L 226.6965 105.2721 L 226.6965 105.0298 L 227.0588 105.0298 L 227.0588 104.7874 L 227.9663 104.7874 L 227.9663 104.7011 L 227.9663 104.5484 L 228.3286 104.5484 L 228.3286 104.3061 L 228.6908 104.3061 L 228.6908 104.0637 L 229.2348 104.0637 L 229.2348 103.8214 L 229.5971 103.8214 L 229.5971 104.0637 L 229.7789 104.0637 L 229.7789 104.3061 L 229.9594 104.3061 L 229.9606 104.5484 L 230.3229 104.5484 L 230.3229 104.7111 L 230.3229 104.7874 L 230.5034 104.7874 L 230.5034 105.0298 L 231.7732 105.0298 L 231.7732 104.7874 L 233.5857 104.7874 L 233.5857 104.721 L 233.5857 104.5484 L 235.036 104.5484 L 235.036 104.7243 L 235.036 104.7874 L 235.7618 104.7874 L 235.7618 104.7277 L 235.7618 104.5484 L 236.8498 104.5484 L 236.8498 104.3061 L 239.2064 104.3061 L 239.2064 104.0637 L 239.7504 104.0637 L 239.7504 103.8214 L 240.475 103.8214 L 240.475 103.579 L 241.019 103.579 L 241.019 103.34 L 241.563 103.34 L 241.563 103.0977 L 242.107 103.0977 L 242.107 102.8553 L 243.0133 102.8553 L 243.0133 102.613 L 243.3768 102.613 L 243.3768 102.3707 L 243.9208 102.3707 L 243.9208 102.1283 L 244.4636 102.1283 L 244.4636 102.3707 L 246.0956 102.3707 L 246.0956 101.8893 L 246.2774 101.8893 L 246.2774 101.4046 L 246.8214 101.4046 L 246.8214 101.1623 L 247.3654 101.1623 L 247.3654 100.92 L 247.5459 100.92 L 247.5459 100.6809 L 247.9082 100.6809 L 247.9082 100.4386 L 248.09 100.4353 L 248.09 100.1963 L 248.4522 100.1963 L 248.4522 99.9539 L 248.634 99.9539 L 248.634 99.7116 L 249.178 99.7116 L 249.178 99.4692 L 250.4465 99.4692 L 250.4465 99.7116 L 250.81 99.7116 L 250.81 99.4692 L 251.3541 99.4692 L 251.3541 99.2302 L 251.5346 99.2302 L 251.5346 98.9879 L 251.7163 98.9879 L 251.7163 98.5032 L 251.8968 98.5032 L 251.8968 98.0219 L 252.2603 98.0219 L 252.2603 97.7795 L 252.6226 97.7795 L 252.6226 97.5372 L 252.8044 97.5372 L 252.8044 97.2948 L 252.9849 97.2948 L 252.9849 96.8102 L 253.1666 96.8102 L 253.1666 96.5711 L 253.3484 96.5711 L 253.3484 96.3288 L 255.1609 96.3288 L 255.1609 96.5711 L 255.5232 96.5711 L 255.5232 96.3288 L 256.9735 96.3288 L 256.9735 96.5711 L 257.337 96.5711 L 257.337 96.3288 L 257.8798 96.3288 L 257.8798 96.0865 L 258.0615 96.0865 L 258.0615 95.8441 L 260.0558 95.8441 L 260.0558 96.0865 L 260.7816 96.0865 L 260.7816 95.8441 L 261.5061 95.8441 L 261.5061 95.6018 L 262.4124 95.6018 L 262.4124 95.3628 L 263.3199 95.3628 L 263.3199 95.1204 L 263.6822 95.1204 L 263.6822 94.8781 L 263.8627 94.8781 L 263.8627 94.3934 L 264.0445 94.3934 L 264.0445 94.1511 L 267.8513 94.1511 L 267.8513 94.3934 L 268.9394 94.3934 L 268.9394 94.1511 L 271.6595 94.1511 L 271.6595 93.9121 L 271.296 93.9121 L 271.296 93.4274 L 271.1155 93.4274 L 271.1155 92.9427 L 270.9337 92.9427 L 270.9337 92.219 L 271.1155 92.219 L 271.1155 91.9767 L 271.296 91.9767 L 271.296 91.7343 L 272.0217 91.7343 L 272.0217 91.9767 L 273.2903 91.9767 L 273.2903 92.219 L 273.6538 92.219 L 273.6538 92.4613 L 273.8343 92.4613 L 273.8343 93.185 L 274.0148 93.185 L 274.016 93.4274 L 274.5601 93.4274 L 274.5601 93.6697 L 274.7418 93.6697 L 274.7418 93.9121 L 278.911 93.9121 L 278.911 93.6697 L 279.2732 93.6697 L 279.2732 93.4274 L 281.2675 93.4274 L 281.2675 93.9121 L 281.9933 93.9121 L 281.9933 93.6697 L 282.3556 93.6697 L 282.3556 93.4274 L 282.7178 93.4274 L 282.7191 93.6697 L 283.2619 93.6697 L 283.2619 93.4274 L 284.8939 93.4274 L 284.8939 93.185 L 286.526 93.185 L 286.526 92.9427 L 288.158 92.9427 L 288.158 92.7037 L 288.8825 92.7037 L 288.8825 92.4613 L 289.2448 92.4613 L 289.2448 92.219 L 290.8769 92.219 L 290.8769 92.4613 L 292.3271 92.4613 L 292.3271 92.219 L 292.6894 92.219 L 292.6894 92.4613 L 293.9592 92.4613 L 293.9592 92.219 L 294.3215 92.219 L 294.3215 91.9767 L 294.8655 91.9767 L 294.8655 91.7343 L 295.4095 91.7343 L 295.4095 91.9767 L 295.9535 91.9767 L 295.9535 91.7343 L 297.5856 91.7343 L 297.5856 91.492 L 299.7604 91.492 L 299.7604 91.253 L 300.4862 91.253 L 300.4862 91.0106 L 301.2107 91.0106 L 301.2107 91.253 L 301.9365 91.253 L 301.9365 91.492 L 303.749 91.492 L 303.749 91.253 L 304.4748 91.253 L 304.4748 91.0106 L 305.0188 91.0106 L 305.0188 90.7683 L 305.7433 90.7683 L 305.7433 90.526 L 306.4691 90.526 L 306.4691 90.7683 L 306.6496 90.7683 L 306.6496 90.526 L 309.3697 90.526 L 309.3697 90.2836 L 310.6382 90.2836 L 310.6382 90.0446 L 312.8143 90.0446 L 312.8143 89.8023 L 313.3583 89.8023 L 313.3583 89.5599 L 315.1709 89.5599 L 315.1709 89.8023 L 315.5344 89.8023 L 315.5344 90.0446 L 315.8967 90.0446 L 315.8967 89.8023 L 317.347 89.8023 L 317.347 89.5599 L 318.2532 89.5599 L 318.2532 89.3176 L 319.8853 89.3176 L 319.8853 89.0752 L 320.4293 89.0752 L 320.4293 88.8329 L 322.7859 88.8329 L 322.7859 88.5939 L 323.1482 88.5939 L 323.1482 88.3515 L 324.0544 88.3515 L 324.0544 88.1092 L 324.2362 88.1092 L 324.2362 88.3515 L 324.5985 88.3515 L 324.5985 88.1092 L 328.2248 88.1092 L 328.2248 87.8669 L 328.5871 87.8669 L 328.5871 88.1092 L 329.1311 88.1092 L 329.1311 87.8669 L 329.3129 87.8669 L 329.3129 87.6245 L 330.2191 87.6245 L 330.2191 87.8669 L 331.1254 87.8669 L 331.1254 87.6245 L 331.3072 87.6245 L 331.3072 87.3855 L 331.6694 87.3855 L 331.6694 87.1432 L 332.2135 87.1432 L 332.2135 87.3855 L 332.9392 87.3855 L 332.9392 87.1432 L 333.3015 87.1432 L 333.3015 86.9008 L 333.8455 86.9008 L 333.8455 86.6585 L 334.7518 86.6585 L 334.7518 87.1432 L 335.114 87.1432 L 335.114 86.9008 L 335.4763 86.9008 L 335.4763 86.6585 L 335.8398 86.6585 L 335.8398 86.4162 L 336.3838 86.4162 L 336.3838 86.1738 L 337.2901 86.1738 L 337.2901 85.9348 L 338.1964 85.9348 L 338.1964 85.6925 L 338.7404 85.6925 L 338.7404 85.4501 L 340.9165 85.4501 L 340.9165 85.2078 L 342.185 85.2078 L 342.185 84.9654 L 343.0913 84.9654 L 343.0913 84.7264 L 343.4536 84.7264 L 343.4536 84.4841 L 344.1793 84.4841 L 344.1793 84.2417 L 345.0856 84.2417 L 345.0856 84.4841 L 345.6296 84.4841 L 345.6296 84.2417 L 345.9919 84.2417 L 345.9919 83.9994 L 346.3554 83.9994 L 346.3554 83.7571 L 348.8925 83.7571 L 348.8937 83.5147 L 349.256 83.5147 L 349.256 83.2757 L 349.8 83.2757 L 349.8 83.0334 L 350.161 83.0334 L 350.1623 83.2757 L 350.344 83.2757 L 350.344 83.0334 L 350.5246 83.0334 L 350.5246 82.791 L 351.2503 82.791 L 351.2503 82.5487 L 351.9748 82.5487 L 351.9748 82.3064 L 352.5189 82.3064 L 352.5189 82.5487 L 353.2446 82.5487 L 353.2446 82.3064 L 355.9635 82.3064 L 355.9635 82.0673 L 356.5075 82.0673 L 356.5075 81.825 L 356.8698 81.825 L 356.8698 81.5827 L 358.1395 81.5827 L 358.1395 81.3403 L 358.5018 81.3403 L 358.5018 81.098 L 358.8641 81.098 L 358.8641 80.8556 L 359.2276 80.8556 L 359.2276 80.6166 L 359.4081 80.6166 L 359.4081 80.3743 L 359.7716 80.3743 L 359.7716 80.1319 L 360.1339 80.1319 L 360.1339 79.8896 L 360.4961 79.8896 L 360.4961 79.6473 L 361.0401 79.6473 L 361.0401 79.4082 L 361.9464 79.4082 L 361.9464 79.1659 L 362.3099 79.1659 L 362.3099 78.9236 L 362.8527 78.9236 L 362.8527 78.6812 L 364.3042 78.6812 L 364.3042 78.4389 L 365.7545 78.4356 L 365.7545 78.1966 L 367.2048 78.1966 L 367.2048 77.9575 L 368.1111 77.9575 L 368.1111 77.7152 L 368.6551 77.7152 L 368.6551 77.4729 L 369.3797 77.4729 L 369.3797 77.2305 L 370.1054 77.2305 L 370.1054 76.9882 L 370.83 76.9882 L 370.83 76.7492 L 371.5557 76.7492 L 371.5557 76.5068 L 372.2803 76.5068 L 372.2803 76.2645 L 373.006 76.2645 L 373.006 76.0221 L 373.7318 76.0221 L 373.7318 75.7798 L 374.4563 75.7798 L 374.4563 75.5375 L 375.0003 75.5375 L 375.0003 75.2984 L 375.3626 75.2984 L 375.3626 75.0561 L 375.9066 75.0561 L 375.9066 74.8138 L 376.2689 74.8138 L 376.2689 74.5714 L 377.7204 74.5714 L 377.7204 74.3291 L 378.2632 74.3291 L 378.2632 74.0901 L 378.0827 74.0901 L 378.0827 73.8477 L 378.8072 73.8477 L 378.8072 73.6054 L 379.533 73.6054 L 379.533 73.3631 L 380.077 73.3631 L 380.077 73.1207 L 380.621 73.1207 L 380.621 72.8784 L 381.3456 72.8784 L 381.3456 72.6394 L 381.8896 72.636 L 381.8896 72.397 L 382.7959 72.397 L 382.7959 72.1547 L 383.7034 72.1547 L 383.7034 71.9123 L 384.2462 71.9123 L 384.2462 71.67 L 384.7902 71.67 L 384.7902 71.431 L 385.5159 71.431 L 385.5159 71.1886 L 386.06 71.1886 L 386.06 70.9463 L 386.7845 70.9463 L 386.7845 70.704 L 387.148 70.704 L 387.148 70.4616 L 387.6908 70.4616 L 387.692 70.2193 L 388.0543 70.2193 L 388.0543 69.9803 L 388.4165 69.9803 L 388.4165 69.7379 L 388.7788 69.7379 L 388.7788 69.4956 L 389.3228 69.4956 L 389.3228 69.2533 L 389.8668 69.2533 L 389.8668 69.0109 L 390.0486 69.0109 L 390.0486 68.7719 L 390.4109 68.7719 L 390.4109 68.5296 L 390.9549 68.5296 L 390.9549 68.2872 L 391.8612 68.2872 L 391.8612 68.0449 L 392.4052 68.0449 L 392.4052 67.8025 L 392.5869 67.8025 L 392.5869 67.5635 L 393.1309 67.5602 L 393.1309 67.3212 L 394.2177 67.3212 L 394.2177 66.8365 L 394.7617 66.8365 L 394.7617 66.5942 L 395.1253 66.5942 L 395.1253 66.3518 L 395.4875 66.3518 L 395.4875 66.1128 L 395.8498 66.1128 L 395.8498 65.8705 L 396.212 65.8705 L 396.212 65.6281 L 396.5756 65.6281 L 396.5756 65.3858 L 396.9378 65.3858 L 396.9378 65.1435 L 397.3001 65.1435 L 397.3001 64.9044 L 397.6623 64.9011 L 397.6623 64.6621 L 398.2064 64.6588 L 398.2064 64.4198 L 398.3881 64.4198 L 398.3881 64.1774 L 398.7504 64.1774 L 398.7504 63.9351 L 399.1139 63.9351 L 399.1139 63.6927 L 399.6567 63.6927 L 399.6567 63.4537 L 399.8384 63.4537 L 399.8384 63.2114 L 400.2007 63.2114 L 400.2007 62.969 L 400.5642 62.969 L 400.5642 62.7267 L 400.9264 62.7267 L 400.9264 62.4844 L 401.2887 62.4844 L 401.2887 62.2454 L 401.651 62.2454 L 401.651 62.003 L 402.0145 62.003 L 402.0145 61.7607 L 402.3767 61.7607 L 402.3767 61.5183 L 402.739 61.5183 L 402.739 61.276 L 403.1025 61.276 L 403.1025 61.0337 L 403.4648 61.0337 L 403.4648 60.7946 L 403.827 60.7946 L 403.827 60.5523 L 404.3711 60.5523 L 404.3711 60.31 L 404.7333 60.31 L 404.7333 60.0676 L 405.6396 60.0676 L 405.6396 59.5863 L 405.8214 59.5863 L 405.8214 59.3439 L 406.0031 59.3439 L 406.0031 59.1016 L 406.1836 59.1016 L 406.1836 58.6169 L 407.0911 58.6169 L 407.0911 58.3746 L 407.2717 58.3713 L 407.2717 58.1356 L 407.8157 58.1356 L 407.8157 57.8932 L 408.1779 57.8932 L 408.1779 57.4085 L 408.3597 57.4085 L 408.3597 57.1662 L 408.5414 57.1662 L 408.5414 56.9272 L 409.6282 56.9272 L 409.6282 56.6848 L 410.1723 56.6848 L 410.1723 56.4425 L 410.7163 56.4425 L 410.7163 56.2002 L 410.898 56.2002 L 410.898 55.9578 L 411.442 55.9578 L 411.442 55.7155 L 411.9861 55.7155 L 411.9861 55.4765 L 412.3483 55.4765 L 412.3483 55.2341 L 412.5301 55.2341 L 412.5301 54.9918 L 412.7106 54.9918 L 412.7106 54.5071 L 413.0728 54.5071 L 413.0728 54.2681 L 413.2546 54.2681 L 413.2546 53.7834 L 413.6169 53.7834 L 413.6169 53.5411 L 414.1609 53.5411 L 414.1609 53.2987 L 415.0049 54.1519 L 467.563 108.6184 L 474.9203 116.7616 L 479.9733 123.3612 L 477.6989 129.7317 L 473.3642 138.841 L 470.7785 142.0744 L 469.0531 143.2728 L 467.1596 144.1426 L 463.0589 145.1982 L 451.9545 146.4298 L 447.4605 147.2166 L 443.259 148.5877 L 433.5127 153.0693 L 417.8694 156.9035 L 413.7065 158.5899 L 404.2354 164.1007 L 398.5226 166.9656 L 382.4747 165.6875 L 361.1484 165.2792 L 342.5797 165.329 L 332.2608 166.2983 L 329.771 166.8494 L 325.3317 168.4628 L 315.8817 173.595 L 307.6057 177.3164 L 296.332 183.7268 L 279.1189 190.3662 L 260.8887 201.703 L 254.8074 204.4916 L 239.2823 208.4254 L 229.622 212.9933 L 225.3782 214.4341 L 218.4217 215.5263 L 208.8634 216.0109 L 199.0786 205.8692 Z" fill="#000000" fill-opacity="1" stroke="#000000" stroke-width="0" paint-order="fill" stroke-opacity="1" stroke-dasharray="" stroke-linecap="butt" stroke-linejoin="miter" stroke-miterlimit="10" transform="matrix(0.8999999761581421,0,0,0.8999999761581421,40.00022506713867,26.649860382080078)" clip-path="none" style="filter: url(#f1)"/>
<path data-code="201" d="M 279.1189 190.3662 L 277.6474 203.4824 L 277.0461 216.1305 L 277.3362 226.0597 L 278.0632 230.8567 L 278.6968 233.1705 L 280.6874 237.3434 L 281.9846 239.1194 L 285.0097 242.1669 L 288.4269 244.4907 L 295.9 247.7905 L 299.0047 250.038 L 300.3193 251.4289 L 301.4149 253.0124 L 302.2191 254.815 L 302.6099 256.8467 L 302.4282 259.0941 L 301.7447 261.1557 L 299.4604 264.8903 L 293.0504 271.9148 L 274.5265 289.4329 L 268.9817 294.0208 L 262.2083 298.748 L 260.8613 300.139 L 258.9691 303.5251 L 257.7192 307.2399 L 247.9182 307.2299 L 233.8546 293.1577 L 227.1397 286.007 L 222.7166 280.2772 L 220.4621 276.0047 L 219.6915 273.6876 L 218.7865 268.9039 L 218.3906 261.5142 L 218.8313 251.8206 L 220.0575 240.9121 L 212.0491 227.1984 L 210.4071 222.9193 L 208.8634 216.0109 L 218.4217 215.5263 L 225.3782 214.4341 L 229.622 212.9933 L 239.2823 208.4254 L 254.8074 204.4916 L 260.8887 201.703 L 279.1189 190.3662 Z" fill="#000000" fill-opacity="1" stroke="#000000" stroke-width="0" paint-order="fill" stroke-opacity="1" stroke-dasharray="" stroke-linecap="butt" stroke-linejoin="miter" stroke-miterlimit="10" transform="matrix(0.8999999761581421,0,0,0.8999999761581421,40.00022506713867,26.649860382080078)" clip-path="none" style="filter: url(#f1)"/>
<path data-code="202" d="M 220.0575 240.9121 L 209.4436 247.5316 L 200.2363 253.7361 L 178.5877 264.5584 L 173.6455 265.8365 L 168.5091 266.4506 L 149.9714 266.6066 L 143.0187 272.1007 L 139.1657 274.1955 L 134.826 275.4769 L 126.0072 276.4496 L 130.7179 265.4016 L 132.655 261.8395 L 135.3365 259.0842 L 140.1865 256.4682 L 146.0898 251.4588 L 149.1834 249.2678 L 152.4276 247.5216 L 159.0554 244.5737 L 162.6157 242.2898 L 165.9882 239.5643 L 174.014 231.8825 L 199.0786 205.8692 L 208.8634 216.0109 L 210.4071 222.9193 L 212.0491 227.1984 L 220.0575 240.9121 Z" fill="#000000" fill-opacity="1" stroke="#000000" stroke-width="0" paint-order="fill" stroke-opacity="1" stroke-dasharray="" stroke-linecap="butt" stroke-linejoin="miter" stroke-miterlimit="10" transform="matrix(0.8999999761581421,0,0,0.8999999761581421,40.00022506713867,26.649860382080078)" clip-path="none" style="filter: url(#f1)"/>
<path data-code="203" d="M 163.7685 448.8719 L 171.8055 437.7974 L 181.2891 427.0515 L 183.4988 423.9675 L 184.3553 422.3176 L 184.959 420.5515 L 185.2006 418.6393 L 184.974 416.6707 L 184.3652 414.8449 L 182.4108 411.5219 L 178.457 406.8776 L 159.623 388.2972 L 150.7121 380.2071 L 155.5186 373.0597 L 161.402 365.8892 L 167.7435 359.1933 L 174.5045 353.1946 L 178.1831 350.7579 L 182.0809 349.0881 L 195.9875 346.0971 L 197.9109 345.3866 L 201.7514 343.262 L 205.3242 340.5996 L 213.899 333.3129 L 217.4607 330.6936 L 220.9401 328.7383 L 227.5256 325.6775 L 231.2179 323.2541 L 238.091 317.2554 L 247.9182 307.2299 L 257.7192 307.2399 L 263.056 311.4426 L 266.7023 313.9258 L 274.6036 317.677 L 278.3445 319.888 L 281.5078 322.7495 L 282.8585 324.4194 L 284.9039 328.2603 L 285.4865 330.5276 L 285.7018 332.8315 L 285.1491 337.3895 L 283.5967 341.3233 L 279.7724 348.8591 L 278.3333 353.2842 L 277.2378 357.9152 L 276.7959 366.6295 L 275.6693 374.7129 L 274.2277 379.2609 L 269.7274 389.3661 L 268.4613 393.8809 L 265.9616 405.4369 L 264.3594 409.7093 L 259.2877 419.4294 L 255.7523 428.0208 L 249.7432 439.8324 L 248.319 444.4003 L 244.6142 459.1863 L 235.7606 460.1025 L 231.2092 461.0519 L 227.0637 462.589 L 219.5172 466.4631 L 215.3257 467.9237 L 210.7681 468.6342 L 203.8328 468.4316 L 199.3338 467.3527 L 197.3233 466.5295 L 187.9617 461.3607 L 177.7287 456.723 L 163.7685 448.8719 Z" fill="#000000" fill-opacity="1" stroke="#000000" stroke-width="0" paint-order="fill" stroke-opacity="1" stroke-dasharray="" stroke-linecap="butt" stroke-linejoin="miter" stroke-miterlimit="10" transform="matrix(0.8999999761581421,0,0,0.8999999761581421,40.00022506713867,26.649860382080078)" clip-path="none" style="filter: url(#f1)"/>
<path data-code="204" d="M 150.7121 380.2071 L 142.9515 377.538 L 138.7649 375.5827 L 126.4006 367.7748 L 123.3793 365.036 L 121.324 361.391 L 117.659 348.7727 L 113.1973 338.9265 L 111.7122 334.2855 L 110.8706 329.0404 L 110.5855 320.9901 L 110.9391 315.642 L 111.8441 310.4201 L 113.404 305.8124 L 118.2354 295.9628 L 122.9772 282.6773 L 126.0072 276.4496 L 134.826 275.4769 L 139.1657 274.1955 L 143.0187 272.1007 L 149.9714 266.6066 L 168.5091 266.4506 L 173.6455 265.8365 L 178.5877 264.5584 L 200.2363 253.7361 L 209.4436 247.5316 L 220.0575 240.9121 L 218.8313 251.8206 L 218.3906 261.5142 L 218.7865 268.9039 L 219.6915 273.6876 L 220.4621 276.0047 L 222.7166 280.2772 L 227.1397 286.007 L 233.8546 293.1577 L 247.9182 307.2299 L 238.091 317.2554 L 231.2179 323.2541 L 227.5256 325.6775 L 220.9401 328.7383 L 217.4607 330.6936 L 213.899 333.3129 L 205.3242 340.5996 L 201.7514 343.262 L 197.9109 345.3866 L 195.9875 346.0971 L 182.0809 349.0881 L 178.1831 350.7579 L 174.5045 353.1946 L 167.7435 359.1933 L 161.402 365.8892 L 155.5186 373.0597 L 150.7121 380.2071 Z" fill="#000000" fill-opacity="1" stroke="#000000" stroke-width="0" paint-order="fill" stroke-opacity="1" stroke-dasharray="" stroke-linecap="butt" stroke-linejoin="miter" stroke-miterlimit="10" transform="matrix(0.8999999761581421,0,0,0.8999999761581421,40.00022506713867,26.649860382080078)" clip-path="none" style="filter: url(#f1)"/>
<path data-code="205" d="M 429.0099 466.9643 L 400.0351 470.7023 L 395.6008 471.9871 L 386.04 476.7575 L 381.6381 478.3875 L 374.0667 479.639 L 366.321 479.6987 L 358.7097 478.3941 L 354.0364 476.3093 L 348.0273 471.6816 L 335.3481 458.8576 L 329.5705 453.8747 L 325.2309 451.292 L 322.8569 450.3824 L 317.9271 449.267 L 307.7476 448.6229 L 300.0617 448.9151 L 295.0111 449.4761 L 287.7596 451.2754 L 278.1665 456.0259 L 271.718 458.0908 L 262.2805 459.1165 L 244.6142 459.1863 L 248.319 444.4003 L 249.7432 439.8324 L 255.7523 428.0208 L 259.2877 419.4294 L 264.3594 409.7093 L 265.9616 405.4369 L 268.4613 393.8809 L 269.7274 389.3661 L 274.2277 379.2609 L 275.6693 374.7129 L 276.7959 366.6295 L 277.2378 357.9152 L 329.9627 358.4032 L 337.574 357.8289 L 342.4427 356.7068 L 346.6679 354.6519 L 348.4207 353.3506 L 351.4869 350.2865 L 353.9418 346.751 L 357.6839 338.5879 L 360.109 334.4681 L 364.6292 328.6686 L 369.9162 323.4998 L 373.9136 320.6482 L 378.4624 318.6265 L 383.3436 317.5409 L 388.3493 317.023 L 398.5425 316.7741 L 408.7531 317.0728 L 416.261 317.8795 L 421.0899 319.0381 L 423.4067 319.9278 L 427.587 322.3313 L 438.8334 331.4239 L 444.9209 335.2217 L 449.3216 336.7189 L 465.6234 339.4311 L 475.0709 342.0005 L 474.1098 348.5902 L 473.409 359.4456 L 473.1973 381.5051 L 473.6443 419.8743 L 473.165 427.5362 L 472.1616 432.2634 L 470.0615 436.4064 L 467.0302 439.1551 L 454.8103 446.6378 L 444.7279 451.3484 L 440.702 454.0374 L 435.2294 459.0601 L 431.9703 462.8346 L 429.0099 466.9643 Z" fill="#000000" fill-opacity="1" stroke="#000000" stroke-width="0" paint-order="fill" stroke-opacity="1" stroke-dasharray="" stroke-linecap="butt" stroke-linejoin="miter" stroke-miterlimit="10" transform="matrix(0.8999999761581421,0,0,0.8999999761581421,40.00022506713867,26.649860382080078)" clip-path="none" style="filter: url(#f1)"/>
<path data-code="206" d="M 475.0709 342.0005 L 465.6234 339.4311 L 449.3216 336.7189 L 444.9209 335.2217 L 438.8334 331.4239 L 427.587 322.3313 L 423.4067 319.9278 L 421.0899 319.0381 L 416.261 317.8795 L 408.7531 317.0728 L 398.5425 316.7741 L 388.3493 317.023 L 383.3436 317.5409 L 378.4624 318.6265 L 373.9136 320.6482 L 369.9162 323.4998 L 364.6292 328.6686 L 360.109 334.4681 L 357.6839 338.5879 L 353.9418 346.751 L 351.4869 350.2865 L 348.4207 353.3506 L 346.6679 354.6519 L 342.4427 356.7068 L 337.574 357.8289 L 329.9627 358.4032 L 277.2378 357.9152 L 278.3333 353.2842 L 279.7724 348.8591 L 283.5967 341.3233 L 285.1491 337.3895 L 285.7018 332.8315 L 285.4865 330.5276 L 284.9039 328.2603 L 282.8585 324.4194 L 281.5078 322.7495 L 278.3445 319.888 L 274.6036 317.677 L 266.7023 313.9258 L 263.056 311.4426 L 257.7192 307.2399 L 258.9691 303.5251 L 260.8613 300.139 L 262.2083 298.748 L 268.9817 294.0208 L 274.5265 289.4329 L 293.0504 271.9148 L 299.4604 264.8903 L 301.7447 261.1557 L 302.4282 259.0941 L 302.6099 256.8467 L 302.2191 254.815 L 301.4149 253.0124 L 300.3193 251.4289 L 299.0047 250.038 L 295.9 247.7905 L 288.4269 244.4907 L 285.0097 242.1669 L 281.9846 239.1194 L 280.6874 237.3434 L 278.6968 233.1705 L 278.0632 230.8567 L 277.3362 226.0597 L 277.0461 216.1305 L 277.6474 203.4824 L 279.1189 190.3662 L 296.332 183.7268 L 307.6057 177.3164 L 315.8817 173.595 L 325.3317 168.4628 L 329.771 166.8494 L 332.2608 166.2983 L 342.5797 165.329 L 361.1484 165.2792 L 382.4747 165.6875 L 398.5226 166.9656 L 396.0664 175.9454 L 395.1514 183.3649 L 394.6572 195.9068 L 394.9808 205.8394 L 395.6444 210.6895 L 396.9926 215.3769 L 399.3305 219.7855 L 403.8868 225.7211 L 410.7748 233.1539 L 423.3768 245.812 L 428.9626 250.8513 L 432.8865 253.7959 L 434.9493 255.0474 L 443.2341 258.8153 L 450.7632 262.9616 L 454.6871 264.7874 L 459.099 266.0589 L 470.3627 268.3727 L 474.5306 269.9662 L 483.9582 275.1881 L 492.162 279.0423 L 495.5693 281.2963 L 499.7011 284.6526 L 494.3991 297.8716 L 491.1873 306.7021 L 484.9217 318.3675 L 481.619 327.1681 L 475.0709 342.0005 Z" fill="#000000" fill-opacity="1" stroke="#000000" stroke-width="0" paint-order="fill" stroke-opacity="1" stroke-dasharray="" stroke-linecap="butt" stroke-linejoin="miter" stroke-miterlimit="10" transform="matrix(0.8999999761581421,0,0,0.8999999761581421,40.00022506713867,26.649860382080078)" clip-path="none" style="filter: url(#f1)"/>
<path data-code="207" d="M 644.3649 246.6054 L 638.8973 249.4637 L 629.5619 255.1337 L 619.3376 259.8444 L 609.9449 265.4713 L 601.6278 269.1329 L 592.1952 274.0793 L 587.797 275.6196 L 580.36 276.7882 L 565.0666 277.5716 L 557.5661 278.4348 L 550.8026 280.4631 L 541.1223 284.9912 L 536.261 286.2726 L 531.1906 286.9598 L 523.4001 287.3017 L 515.5386 287.066 L 507.6422 286.173 L 499.7011 284.6526 L 495.5693 281.2963 L 492.162 279.0423 L 483.9582 275.1881 L 474.5306 269.9662 L 470.3627 268.3727 L 459.099 266.0589 L 454.6871 264.7874 L 450.7632 262.9616 L 443.2341 258.8153 L 434.9493 255.0474 L 432.8865 253.7959 L 428.9626 250.8513 L 423.3768 245.812 L 410.7748 233.1539 L 403.8868 225.7211 L 399.3305 219.7855 L 396.9926 215.3769 L 395.6444 210.6895 L 394.9808 205.8394 L 394.6572 195.9068 L 395.1514 183.3649 L 396.0664 175.9454 L 398.5226 166.9656 L 404.2354 164.1007 L 413.7065 158.5899 L 417.8694 156.9035 L 433.5127 153.0693 L 443.259 148.5877 L 447.4605 147.2166 L 451.9545 146.4298 L 463.0589 145.1982 L 467.1596 144.1426 L 469.0531 143.2728 L 470.7785 142.0744 L 473.3642 138.841 L 477.6989 129.7317 L 479.9733 123.3612 L 496.7059 124.8551 L 518.3682 125.1605 L 539.6521 125.021 L 553.2326 125.841 L 560.926 127.5971 L 570.1855 131.9194 L 574.9336 133.6257 L 584.9512 135.1296 L 600.6742 135.5412 L 673.9957 135.176 L 685.3989 152.402 L 687.3646 156.4819 L 688.1078 158.7991 L 689.0166 163.5861 L 689.4187 170.9359 L 688.9668 178.2858 L 688.0979 183.0628 L 686.6164 187.4681 L 682.0489 197.3807 L 678.7799 210.9152 L 677.1827 215.2906 L 676.1058 217.2127 L 673.4355 220.6519 L 670.2573 223.5367 L 666.6023 225.8306 L 660.7601 228.8084 L 655.5913 232.6892 L 651.03 237.5492 L 644.3649 246.6054 Z" fill="#000000" fill-opacity="1" stroke="#000000" stroke-width="0" paint-order="fill" stroke-opacity="1" stroke-dasharray="" stroke-linecap="butt" stroke-linejoin="miter" stroke-miterlimit="10" transform="matrix(0.8999999761581421,0,0,0.8999999761581421,40.00022506713867,26.649860382080078)" clip-path="none" style="filter: url(#f1)"/>








</svg>