<?xml version="1.0" standalone="no"?>
<!-- Generator: Paintmaps.com , Online SVG vector map maker -->
<svg xmlns="http://www.w3.org/2000/svg" version="1.1" baseProfile="full"   style="background-color:#e0f2f1" width="800" height="500" viewBox="0 0 850 567">

<path data-code="200" d="M 438.8431 448.6803 L 434.3699 444.2267 L 431.8635 441.3259 L 430.46 439.2065 L 429.4867 436.8858 L 428.8088 433.2371 L 428.5774 428.2302 L 428.7849 423.2183 L 429.4515 419.5613 L 429.8652 418.3892 L 431.0851 416.1691 L 432.6256 414.1872 L 435.2804 411.5328 L 438.2256 409.2994 L 443.4509 406.7875 L 445.5146 405.4914 L 448.402 403.0902 L 451.0216 400.3487 L 452.5332 398.3483 L 453.699 396.2137 L 456.1702 390.402 L 456.6392 388.529 L 456.6292 387.5213 L 456.3877 386.537 L 455.9639 385.645 L 454.7428 384.1325 L 453.1872 382.9604 L 449.4534 381.1831 L 447.7556 379.9774 L 446.2604 378.418 L 445.6228 377.5159 L 444.6481 375.4116 L 443.9753 371.8417 L 443.6622 363.1275 L 443.3076 359.4469 L 442.7567 357.1028 L 440.5472 352.0439 L 439.8416 349.8423 L 439.326 346.2121 L 438.8519 335.0179 L 438.3866 332.6385 L 437.988 331.4983 L 436.8939 329.5448 L 434.7182 327.1722 L 430.5833 324.4893 L 427.8065 322.1804 L 426.9162 321.7612 L 424.9179 321.2599 L 418.2137 320.725 L 415.9513 320.2957 L 414.8458 319.9033 L 413.8523 319.3886 L 412.0892 318.022 L 410.6644 316.2698 L 410.1148 315.2503 L 409.6935 314.0916 L 409.2873 311.6955 L 409.3263 309.2675 L 409.7702 306.868 L 410.1664 305.706 L 411.2265 303.6888 L 415.7513 297.6474 L 418.357 289.7313 L 419.0751 285.5662 L 419.3581 279.8098 L 419.27 262.2539 L 419.4536 256.5562 L 419.7404 253.8414 L 420.2811 251.3145 L 421.6418 248.2946 L 430.333 249.3225 L 432.6394 249.8859 L 433.7499 250.3101 L 434.8352 250.8702 L 436.8498 252.2485 L 441.5721 256.1571 L 443.5666 257.5287 L 445.7045 258.5146 L 449.0434 259.3882 L 448.8674 267.0092 L 449.1013 270.7065 L 449.5955 273.0808 L 450.018 274.2194 L 451.1775 276.1594 L 452.6791 277.7876 L 454.4334 279.0888 L 459.46 281.4363 L 463.234 283.5792 L 467.2596 285.489 L 469.1422 286.6578 L 470.7569 288.1115 L 472.1264 289.7883 L 475.2616 295.5833 L 477.4599 297.9727 L 479.2632 299.1951 L 480.3133 299.6679 L 488.0098 301.722 L 492.8791 304.0326 L 495.0309 304.7737 L 497.3675 305.208 L 499.7682 305.4293 L 509.3322 305.5652 L 508.3613 312.1482 L 508.1387 316.263 L 508.2116 320.3142 L 508.5399 322.9433 L 509.302 325.4636 L 509.8264 326.483 L 511.1544 328.2973 L 512.7679 329.8182 L 514.6618 331.0305 L 522.4614 334.9256 L 524.6445 335.6299 L 526.9887 335.9602 L 530.5426 335.9032 L 533.9934 335.2392 L 536.4118 334.3321 L 542.6104 336.9428 L 547.3654 339.8302 L 551.4576 341.7619 L 553.4961 342.9088 L 556.3156 345.1624 L 563.4034 352.0523 L 566.1826 354.3981 L 568.1558 355.6742 L 571.2809 357.0894 L 573.2754 358.1541 L 575.0989 359.4704 L 576.8181 360.9728 L 578.424 362.6144 L 579.8803 364.3917 L 581.1001 366.3402 L 581.5755 367.3965 L 581.9452 368.572 L 582.3577 370.9916 L 582.5112 376.9676 L 577.4469 382.3702 L 574.9254 384.6523 L 573.1434 385.9719 L 571.1677 387.0568 L 568.0275 388.4402 L 562.3307 391.668 L 557.1255 393.9266 L 552.3982 396.6564 L 548.2092 398.5528 L 546.1593 399.8859 L 543.2744 402.3105 L 538.6654 406.7959 L 533.2993 412.3528 L 530.8646 415.2653 L 529.5051 417.3764 L 528.9681 418.52 L 528.2941 420.8826 L 527.9646 423.329 L 527.786 428.3426 L 527.8765 437.2765 L 528.0199 443.6801 L 528.3884 450.394 L 524.5087 448.526 L 517.6222 444.8287 L 513.662 443.9031 L 508.1337 443.5577 L 461.452 443.5208 L 454.4737 443.7455 L 451.7623 444.0876 L 449.1579 444.7516 L 443.2673 447.4646 L 438.8431 448.6803 Z" fill="#000000" fill-opacity="1" stroke="#000000" stroke-width="0" paint-order="fill" stroke-opacity="1" stroke-dasharray="" stroke-linecap="butt" stroke-linejoin="miter" stroke-miterlimit="10" transform="matrix(1.100000023841858,0,0,1.100000023841858,-42.50004196166992,-28.349870681762695)" clip-path="none" style="filter: url(#f1)"/>
<path data-code="201" d="M 267.7194 262.1784 L 264.2636 257.475 L 262.3873 254.6647 L 259.9463 249.398 L 258.7843 247.4713 L 253.8671 241.1415 L 252.5856 239.2735 L 249.5159 233.0594 L 248.2294 231.1948 L 243.9422 225.8056 L 242.1049 222.9417 L 240.2135 218.6005 L 236.8872 212.6898 L 235.041 208.3704 L 232.9937 204.8173 L 232.2743 203.0986 L 232.1335 202.1798 L 232.1825 201.3196 L 232.4529 200.5499 L 233.0151 199.9396 L 233.7709 199.6864 L 234.4273 199.8088 L 235.3089 200.4728 L 241.7779 196.4016 L 248.462 190.7189 L 250.498 189.2132 L 252.597 188.0428 L 255.7309 186.6343 L 260.4544 183.8995 L 264.5415 181.9661 L 266.6367 180.7723 L 269.6285 178.3694 L 276.2446 172.001 L 279.2704 169.6032 L 281.4888 168.4244 L 283.7248 167.8057 L 290.3346 167.1752 L 292.3292 166.7108 L 293.2573 166.2664 L 294.1011 165.5957 L 294.7576 164.712 L 295.4555 162.6798 L 295.5737 161.5966 L 295.4618 159.3748 L 294.9223 157.1598 L 292.5392 152.3458 L 291.7218 150.1559 L 291.2099 147.6709 L 290.8465 143.7757 L 290.7169 137.1357 L 290.8578 125.1249 L 291.1043 119.8044 L 291.2489 118.359 L 291.5117 118.359 L 291.5117 118.4798 L 291.7859 118.4798 L 291.7859 118.359 L 292.1518 118.359 L 292.1518 118.2366 L 292.6096 118.2366 L 292.6096 118.359 L 293.0686 118.359 L 293.0686 118.4798 L 295.2656 118.4798 L 295.2656 118.6022 L 295.3574 118.6022 L 295.3574 118.847 L 297.7381 118.847 L 297.7381 118.7246 L 299.0296 118.7246 L 300.2105 118.7246 L 300.2105 118.847 L 300.3023 118.847 L 300.3023 118.7246 L 300.6682 118.7246 L 300.6682 118.6022 L 301.1273 118.6022 L 301.1273 118.4798 L 301.6756 118.4798 L 301.6756 118.6022 L 301.8592 118.6022 L 301.8592 118.7246 L 302.2251 118.7246 L 302.2251 118.6022 L 302.5923 118.6022 L 302.5923 118.4798 L 302.7747 118.4798 L 302.7747 118.359 L 303.1419 118.359 L 303.1419 118.2366 L 303.3243 118.2366 L 303.3243 118.359 L 303.782 118.359 L 303.782 118.4798 L 304.1492 118.4798 L 304.1492 118.359 L 304.3316 118.359 L 304.3316 118.2366 L 305.0648 118.2366 L 305.0648 118.1142 L 305.1566 118.1142 L 305.1566 117.9918 L 305.7049 117.9918 L 305.7049 118.1142 L 306.1639 118.1142 L 306.1639 117.9918 L 307.3536 117.9918 L 307.3536 117.747 L 307.5372 117.747 L 307.5372 117.6263 L 308.6363 117.6263 L 308.6363 117.5039 L 309.2764 117.5039 L 309.2764 117.6263 L 309.5518 117.6263 L 309.5518 117.5039 L 309.826 117.5039 L 309.826 117.3815 L 310.1014 117.3815 L 310.1014 117.2591 L 310.3755 117.2591 L 310.3755 117.1367 L 310.4674 117.1367 L 310.4674 117.0159 L 311.0169 117.0159 L 311.0169 116.8935 L 311.2005 116.8935 L 311.2005 116.7711 L 311.9324 116.7711 L 311.9324 116.6487 L 312.0242 116.6487 L 312.0242 116.5263 L 312.2066 116.5263 L 312.2066 116.6487 L 312.3902 116.6487 L 312.3902 116.5263 L 312.6656 116.5263 L 312.6656 116.4039 L 313.0316 116.4039 L 313.0316 116.2832 L 314.0389 116.2832 L 314.0389 116.1608 L 314.4049 116.1608 L 314.4049 116.0384 L 315.2286 116.0384 L 315.2286 115.916 L 315.3204 115.916 L 315.3204 115.7936 L 315.4122 115.7936 L 315.4122 115.6728 L 315.8699 115.6728 L 315.8699 115.7936 L 316.4195 115.7936 L 316.4195 115.916 L 316.7855 115.916 L 316.7855 116.0384 L 317.1527 116.0384 L 317.1527 116.1608 L 317.2432 116.1608 L 317.2432 116.0384 L 317.335 116.0384 L 317.335 116.1608 L 317.4268 116.1608 L 317.4268 116.0384 L 317.6104 116.0384 L 317.6104 115.916 L 318.3424 115.916 L 318.3424 115.7936 L 319.9911 115.7936 L 319.9911 115.6728 L 320.0829 115.6728 L 320.0829 115.5504 L 320.4488 115.5504 L 320.4488 115.428 L 321.182 115.428 L 321.182 115.5504 L 321.9139 115.5504 L 321.9139 115.6728 L 322.6471 115.6728 L 322.6471 115.7936 L 322.7389 115.7936 L 322.7389 116.0384 L 323.1967 116.0384 L 323.1967 116.1608 L 323.3123 116.1608 L 323.379 116.1608 L 323.379 116.2832 L 323.6104 116.2832 L 324.204 116.2832 L 324.204 116.4039 L 324.2945 116.4039 L 324.2945 116.647 L 324.2945 117.0143 L 324.204 117.0159 L 324.204 117.2591 L 324.1122 117.2591 L 324.1122 117.3815 L 324.0204 117.3815 L 324.0204 117.9918 L 324.1122 117.9918 L 324.1122 118.2366 L 324.204 118.2366 L 324.204 118.359 L 324.3863 118.359 L 324.3863 118.4798 L 324.5699 118.4798 L 324.5699 118.6022 L 324.7535 118.6022 L 324.7535 118.7246 L 324.9359 118.7246 L 324.9359 118.847 L 325.1195 118.847 L 325.1195 118.9694 L 325.3019 118.9694 L 325.3019 119.0901 L 325.5773 119.0901 L 325.5773 119.2125 L 326.035 119.2125 L 326.035 119.3349 L 326.3633 119.3349 L 326.401 119.3349 L 326.401 119.397 L 326.401 119.4573 L 326.4387 119.4573 L 326.7682 119.4573 L 326.7682 119.5797 L 326.9505 119.5797 L 326.9505 119.7005 L 327.226 119.7005 L 327.226 119.4573 L 327.3165 119.4573 L 327.3165 119.3349 L 327.4083 119.3349 L 327.4083 119.2125 L 327.5919 119.2125 L 327.5919 119.4573 L 327.5001 119.4573 L 327.5001 119.5797 L 327.5919 119.5797 L 327.5919 119.8229 L 327.7755 119.8229 L 327.7755 119.9453 L 329.423 119.9453 L 329.423 120.0677 L 329.5148 120.0677 L 329.5148 119.9453 L 329.6984 119.9453 L 329.6984 120.0677 L 329.7902 120.0677 L 329.7902 120.3125 L 329.8807 120.3125 L 329.8807 120.4332 L 329.9725 120.4332 L 329.9725 120.5556 L 330.0643 120.5556 L 330.0643 120.678 L 330.5221 120.678 L 330.5221 120.8004 L 330.4303 120.8004 L 330.4303 121.2884 L 330.3385 121.2884 L 330.3385 121.4108 L 330.4303 121.4108 L 330.4303 121.5332 L 330.3385 121.5332 L 330.3385 121.6556 L 330.4303 121.6556 L 330.4303 121.7763 L 330.5221 121.7763 L 330.5221 121.8987 L 330.6139 121.8987 L 330.6139 122.0211 L 330.7057 122.0211 L 330.7057 122.1318 L 330.7485 122.1435 L 330.7963 122.1435 L 330.7975 122.2659 L 330.9799 122.2659 L 330.9799 122.3867 L 331.1635 122.3867 L 331.1635 122.6315 L 331.2553 122.6315 L 331.2553 122.8763 L 331.3458 122.8763 L 331.3458 122.9987 L 331.5294 122.9987 L 331.5294 123.1194 L 331.713 123.1194 L 331.713 123.2418 L 331.8036 123.2418 L 331.8048 123.3642 L 332.0979 123.3642 L 332.2626 123.3642 L 332.2626 123.4866 L 332.3531 123.4866 L 332.3531 123.6091 L 332.4449 123.6091 L 332.4449 123.7298 L 332.5368 123.7298 L 332.5368 123.8807 L 332.5368 123.9746 L 332.616 123.9746 L 332.6286 123.9746 L 332.6286 124.097 L 332.7204 124.097 L 332.9027 124.097 L 332.9027 124.2194 L 333.0863 124.2194 L 333.0863 124.3418 L 333.4523 124.3418 L 333.4523 124.4625 L 333.7277 124.4625 L 333.7277 124.5849 L 333.8182 124.5849 L 333.8182 124.7073 L 333.91 124.7073 L 333.91 125.0729 L 334.0018 125.0729 L 334.0018 125.1953 L 334.0936 125.1953 L 334.0936 125.3177 L 334.3678 125.3177 L 334.3678 125.4401 L 334.9174 125.4401 L 334.9174 125.5625 L 335.1928 125.5625 L 335.1928 125.6849 L 335.2846 125.6849 L 335.2846 125.928 L 335.3751 125.928 L 335.3751 126.0504 L 335.4669 126.0504 L 335.4669 126.416 L 335.5587 126.416 L 335.5587 126.5384 L 335.6505 126.5384 L 335.6505 126.6608 L 335.7423 126.6608 L 335.7423 126.7832 L 336.2001 126.7832 L 336.2001 126.9056 L 336.3825 126.9056 L 336.3825 127.028 L 336.5661 127.028 L 336.5661 127.1487 L 336.7497 127.1487 L 336.7497 127.2711 L 336.8402 127.2711 L 336.8402 127.3936 L 337.2074 127.3936 L 337.2074 127.516 L 337.3898 127.516 L 337.3898 127.6384 L 337.8475 127.6384 L 337.8475 127.7591 L 338.123 127.7591 L 338.123 127.8815 L 338.3971 127.8815 L 338.3971 128.0039 L 338.4889 128.0039 L 338.4889 128.1263 L 338.5807 128.1263 L 338.5807 128.2487 L 339.0385 128.2487 L 339.0385 128.3711 L 339.1303 128.3711 L 339.1303 128.2487 L 339.588 128.2487 L 339.588 128.3711 L 339.6798 128.3711 L 339.6798 128.4918 L 340.1376 128.4918 L 340.1376 128.6142 L 340.4118 128.6142 L 340.4118 128.7065 L 340.4118 128.7367 L 340.5954 128.7367 L 340.5954 128.8591 L 341.2367 128.8591 L 341.2367 128.9815 L 341.6945 128.9815 L 341.6945 129.1022 L 341.7863 129.1022 L 341.7863 129.2246 L 342.1523 129.2246 L 342.1523 129.347 L 342.3359 129.347 L 342.3359 129.4694 L 342.5182 129.4694 L 342.5182 129.5918 L 342.7936 129.5918 L 342.7936 129.7142 L 343.0892 129.7142 L 343.2514 129.7142 L 343.2514 129.8131 L 343.2514 129.8349 L 343.2891 129.8349 L 343.3432 129.8349 L 343.3432 129.9574 L 343.4891 129.9574 L 343.6174 129.9574 L 343.6174 130.0362 L 343.6174 130.0798 L 343.689 130.0798 L 343.7092 130.0798 L 343.7092 130.2022 L 343.889 130.2022 L 344.0751 130.2022 L 344.0751 130.3162 L 344.2587 130.3246 L 344.2587 130.4269 L 344.2587 130.4453 L 344.2889 130.4453 L 344.4411 130.4453 L 344.4411 130.5392 L 344.4411 130.5677 L 344.4889 130.5677 L 344.7165 130.5677 L 344.7165 130.6901 L 345.0824 130.6901 L 345.0824 130.8125 L 345.2661 130.8125 L 345.2661 130.9349 L 345.5402 130.9349 L 345.5402 131.0573 L 345.8156 131.0573 L 345.8156 131.178 L 346.0898 131.178 L 346.0898 131.2719 L 345.6219 132.5949 L 345.5603 132.605 L 344.3769 136.0223 L 341.5184 142.0755 L 340.8771 144.3542 L 339.9012 149.019 L 339.1479 151.2944 L 338.5769 152.4397 L 336.3472 155.5836 L 330.1612 162.2975 L 327.7554 165.3341 L 326.5167 167.6011 L 326.0929 168.8151 L 325.5735 171.3353 L 325.3333 173.9226 L 325.2314 177.8714 L 325.3257 191.284 L 325.205 206.806 L 325.4251 212.4568 L 325.8112 215.2033 L 326.5846 217.8275 L 327.6309 219.8329 L 330.2869 223.4481 L 329.8216 225.8023 L 329.174 228.0877 L 326.8462 233.0996 L 326.1281 235.2962 L 325.7257 237.6806 L 325.2377 243.7891 L 324.9045 246.2054 L 324.243 248.5512 L 323.7387 249.6411 L 322.4559 251.665 L 320.9456 253.5463 L 311.5589 263.3086 L 308.3923 266.9992 L 307.0467 268.9442 L 304.5491 274.1272 L 303.3029 275.9331 L 301.7799 277.5193 L 300.0306 278.8255 L 295.9586 280.7706 L 290.2831 284.0235 L 286.0312 285.7842 L 280.2337 288.8208 L 278.0052 289.4748 L 275.719 289.9191 L 275.2574 287.5683 L 274.6135 285.2811 L 272.2845 280.2642 L 271.5249 278.0894 L 270.2007 270.9614 L 267.7194 262.1784 Z" fill="#000000" fill-opacity="1" stroke="#000000" stroke-width="0" paint-order="fill" stroke-opacity="1" stroke-dasharray="" stroke-linecap="butt" stroke-linejoin="miter" stroke-miterlimit="10" transform="matrix(1.100000023841858,0,0,1.100000023841858,-42.50004196166992,-28.349870681762695)" clip-path="none" style="filter: url(#f1)"/>
<path data-code="202" d="M 484.3577 509.6666 L 478.9476 506.4237 L 474.8692 504.4937 L 472.8131 503.325 L 466.1403 497.8972 L 464.1106 496.539 L 463.019 495.9957 L 461.9073 495.595 L 459.6071 495.0853 L 452.5332 494.3559 L 450.2293 493.9283 L 448.1015 493.1955 L 443.2283 490.8531 L 441.0188 490.1991 L 435.3521 488.9248 L 433.2607 488.088 L 428.5158 485.4169 L 424.3268 483.5691 L 419.5744 480.9148 L 417.444 480.0998 L 413.9366 479.4275 L 406.3785 478.6695 L 410.2179 473.4682 L 411.7899 471.555 L 415.1527 467.8509 L 418.6827 464.323 L 421.4608 461.9369 L 423.4264 460.619 L 425.5202 459.7018 L 430.6852 458.3067 L 432.4508 457.3174 L 433.1613 456.598 L 435.9683 452.3591 L 438.8431 448.6803 L 443.2673 447.4646 L 449.1579 444.7516 L 451.7623 444.0876 L 454.4737 443.7455 L 461.452 443.5208 L 508.1337 443.5577 L 513.662 443.9031 L 517.6222 444.8287 L 524.5087 448.526 L 528.3884 450.394 L 527.8715 456.4874 L 527.7948 461.5496 L 528.0652 465.272 L 528.5644 467.6799 L 528.9706 468.8402 L 530.2156 471.1056 L 531.7901 473.1496 L 538.0919 479.7444 L 540.548 482.7257 L 541.7968 484.9843 L 542.4532 487.3452 L 542.6041 488.5575 L 542.6104 490.9956 L 542.2155 493.4018 L 541.8395 494.5671 L 540.1896 497.5367 L 537.438 501.1669 L 535.3969 503.5647 L 532.3686 504.4551 L 524.6483 505.9625 L 522.2161 506.8529 L 517.504 509.0311 L 513.5828 509.903 L 508.0871 510.2668 L 501.0811 510.2987 L 491.2292 510.1176 L 484.3577 509.6666 Z" fill="#000000" fill-opacity="1" stroke="#000000" stroke-width="0" paint-order="fill" stroke-opacity="1" stroke-dasharray="" stroke-linecap="butt" stroke-linejoin="miter" stroke-miterlimit="10" transform="matrix(1.100000023841858,0,0,1.100000023841858,-42.50004196166992,-28.349870681762695)" clip-path="none" style="filter: url(#f1)"/>
<path data-code="203" d="M 567.7006 198.1236 L 564.505 194.5772 L 562.0842 192.1392 L 559.5237 189.9493 L 557.6889 188.7487 L 553.5099 186.8472 L 547.8332 183.5826 L 543.6127 181.7783 L 537.9448 178.465 L 533.7256 176.6524 L 528.9593 174.0132 L 526.8566 173.2016 L 523.4473 172.4672 L 523.7529 167.4938 L 524.3289 163.882 L 525.0407 161.6871 L 527.2226 156.6182 L 527.8174 154.1248 L 528.2312 150.2112 L 528.6185 142.2381 L 529.2234 138.3597 L 530.5162 135.0481 L 534.294 127.9989 L 538.5987 126.8737 L 543.8517 126.411 L 549.0883 126.6273 L 552.8409 127.4522 L 558.7013 130.2407 L 560.8844 130.9215 L 565.3853 131.9812 L 567.5811 132.7693 L 570.6647 134.7177 L 577.3362 140.1623 L 579.3848 141.3444 L 582.4986 142.8015 L 587.2661 145.4676 L 590.5157 146.6313 L 597.3633 148.2561 L 597.8386 155.8284 L 598.2813 159.5039 L 598.8548 161.8464 L 601.0291 166.9254 L 601.7573 169.2176 L 602.2138 171.8065 L 602.9193 178.4281 L 603.4248 181.0154 L 604.7516 184.2918 L 608.2766 190.2327 L 599.1327 196.0628 L 597.1834 197.0052 L 594.5526 197.7262 L 591.7997 198.0767 L 587.5579 198.2544 L 567.7006 198.1236 Z" fill="#000000" fill-opacity="1" stroke="#000000" stroke-width="0" paint-order="fill" stroke-opacity="1" stroke-dasharray="" stroke-linecap="butt" stroke-linejoin="miter" stroke-miterlimit="10" transform="matrix(1.100000023841858,0,0,1.100000023841858,-42.50004196166992,-28.349870681762695)" clip-path="none" style="filter: url(#f1)"/>
<path data-code="204" d="M 415.7513 297.6474 L 411.5723 295.9941 L 406.0151 294.2419 L 404.0117 293.3599 L 401.2765 291.8709 L 399.3473 291.0996 L 397.129 290.838 L 396.0084 290.957 L 393.9246 291.7233 L 392.2118 293.0111 L 391.4698 293.7908 L 390.2198 295.5548 L 387.7536 300.726 L 381.2771 309.9047 L 378.4085 316.3167 L 374.1013 323.5269 L 373.3593 324.2747 L 372.4148 324.8985 L 371.3761 325.3411 L 369.1162 325.8442 L 365.4554 326.0789 L 337.9997 325.8744 L 334.1704 325.5876 L 330.507 324.7442 L 328.5112 323.8186 L 324.7246 321.7176 L 320.5369 319.8631 L 314.8915 316.5263 L 310.7453 314.5326 L 307.7585 312.4249 L 303.0514 308.3788 L 301.0933 306.9016 L 299.0371 305.7245 L 295.9158 304.2841 L 291.1433 301.6365 L 287.8811 300.4946 L 280.5167 298.9134 L 278.0631 296.1567 L 277.008 294.3877 L 276.2371 292.1928 L 275.719 289.9191 L 278.0052 289.4748 L 280.2337 288.8208 L 286.0312 285.7842 L 290.2831 284.0235 L 295.9586 280.7706 L 300.0306 278.8255 L 301.7799 277.5193 L 303.3029 275.9331 L 304.5491 274.1272 L 307.0467 268.9442 L 308.3923 266.9992 L 311.5589 263.3086 L 320.9456 253.5463 L 322.4559 251.665 L 323.7387 249.6411 L 324.243 248.5512 L 324.9045 246.2054 L 325.2377 243.7891 L 325.7257 237.6806 L 326.1281 235.2962 L 326.8462 233.0996 L 329.174 228.0877 L 329.8216 225.8023 L 330.2869 223.4481 L 337.6727 223.542 L 340.0949 223.4162 L 342.4742 223.0892 L 344.7668 222.4018 L 345.8735 221.8551 L 347.917 220.4785 L 353.4894 215.6862 L 357.9123 212.5557 L 358.6669 211.8699 L 359.3095 211.0751 L 362.2359 206.4505 L 364.5574 203.6318 L 367.0902 200.8484 L 380.7036 186.859 L 384.1519 183.7402 L 387.2016 181.4413 L 390.2638 187.2866 L 391.5868 189.2736 L 393.824 192.0721 L 397.0963 195.6705 L 400.7521 199.1884 L 402.7617 200.7511 L 404.9813 201.997 L 407.4148 202.7398 L 409.9375 203.1053 L 416.409 203.2881 L 424.2362 202.9293 L 431.8057 201.7488 L 433.0255 204.0074 L 433.4368 205.1007 L 434.1636 208.7427 L 434.3711 211.335 L 434.4152 215.3157 L 433.9247 220.5942 L 432.8444 224.1775 L 430.3028 229.1189 L 428.4668 233.44 L 425.3517 239.3406 L 423.3358 244.9008 L 421.6418 248.2946 L 420.2811 251.3145 L 419.7404 253.8414 L 419.4536 256.5562 L 419.27 262.2539 L 419.3581 279.8098 L 419.0751 285.5662 L 418.357 289.7313 L 415.7513 297.6474 Z" fill="#000000" fill-opacity="1" stroke="#000000" stroke-width="0" paint-order="fill" stroke-opacity="1" stroke-dasharray="" stroke-linecap="butt" stroke-linejoin="miter" stroke-miterlimit="10" transform="matrix(1.100000023841858,0,0,1.100000023841858,-42.50004196166992,-28.349870681762695)" clip-path="none" style="filter: url(#f1)"/>
<path data-code="205" d="M 567.7006 198.1236 L 560.4669 205.9123 L 557.9945 208.3688 L 555.4353 210.6442 L 553.637 211.9537 L 552.6963 212.5004 L 549.3385 213.9457 L 547.5628 214.8898 L 545.7582 216.1943 L 543.1939 218.4663 L 539.933 221.783 L 536.8683 225.3244 L 535.539 227.1454 L 533.2389 230.8058 L 529.0964 223.3659 L 527.3031 218.9861 L 524.8193 214.0346 L 524.0598 211.7223 L 523.5177 207.7869 L 523.3316 195.5414 L 522.9015 190.6049 L 521.942 187.2027 L 519.6532 182.1841 L 518.4874 177.5797 L 523.4473 172.4672 L 526.8566 173.2016 L 528.9593 174.0132 L 533.7256 176.6524 L 537.9448 178.465 L 543.6127 181.7783 L 547.8332 183.5826 L 553.5099 186.8472 L 557.6889 188.7487 L 559.5237 189.9493 L 562.0842 192.1392 L 564.505 194.5772 L 567.7006 198.1236 Z" fill="#000000" fill-opacity="1" stroke="#000000" stroke-width="0" paint-order="fill" stroke-opacity="1" stroke-dasharray="" stroke-linecap="butt" stroke-linejoin="miter" stroke-miterlimit="10" transform="matrix(1.100000023841858,0,0,1.100000023841858,-42.50004196166992,-28.349870681762695)" clip-path="none" style="filter: url(#f1)"/>
<path data-code="206" d="M 488.3091 142.8669 L 488.748 151.1435 L 488.7429 169.1823 L 489.2095 174.5648 L 490.2558 178.1816 L 492.7345 183.1248 L 494.5542 187.4509 L 497.7297 193.3833 L 499.2174 197.2936 L 496.047 197.6357 L 493.8261 197.691 L 491.5348 197.4529 L 489.3428 196.7705 L 487.518 195.6336 L 485.9674 194.1278 L 484.7212 192.3538 L 483.3252 189.3473 L 482.2563 187.4626 L 480.8704 185.8194 L 479.1828 184.4578 L 478.2295 183.9263 L 476.0426 183.212 L 473.7588 182.885 L 467.9726 182.4859 L 465.714 182.0332 L 463.6465 181.0992 L 461.9287 179.7075 L 460.5529 177.9519 L 459.6097 175.8207 L 459.133 173.4799 L 458.6011 166.2144 L 458.2389 163.825 L 457.5749 161.6083 L 455.4018 156.5293 L 453.8751 149.5841 L 453.1205 147.3087 L 451.8755 145.1356 L 450.2972 143.1855 L 447.5582 140.61 L 445.2229 138.9281 L 444.5161 131.2736 L 444.3212 121.2146 L 444.3815 121.1995 L 444.3815 120.0241 L 444.3815 116.3871 L 444.3815 111.2344 L 444.7601 108.9104 L 445.2153 108.1022 L 445.448 108.1022 L 445.448 108.2246 L 445.5398 108.2246 L 445.5398 108.4677 L 445.6316 108.4677 L 445.6316 108.5901 L 445.8152 108.5901 L 445.8152 108.7125 L 445.9057 108.7125 L 445.9057 108.8349 L 446.0893 108.8349 L 446.0893 108.9573 L 446.1811 108.9573 L 446.1811 109.3229 L 446.273 109.3229 L 446.273 109.5677 L 446.3648 109.5677 L 446.3648 109.8108 L 446.4553 109.8108 L 446.4553 109.9332 L 446.8225 109.9332 L 446.8225 110.178 L 446.9131 110.178 L 446.9131 110.3004 L 447.0049 110.3004 L 447.0049 110.4212 L 447.0967 110.4212 L 447.0967 110.5436 L 447.1885 110.5436 L 447.1885 111.0315 L 447.2803 111.0315 L 447.2803 111.1539 L 447.4626 111.1539 L 447.4626 111.2763 L 447.5544 111.2763 L 447.5544 111.3987 L 447.8298 111.3987 L 447.8298 111.5211 L 448.104 111.5211 L 448.104 111.6435 L 448.2876 111.6435 L 448.2876 111.7643 L 448.3794 111.7643 L 448.3794 111.8867 L 448.5618 111.8867 L 448.5618 112.0091 L 448.8372 112.0091 L 448.8372 112.1315 L 448.9277 112.1315 L 448.9277 112.2539 L 449.1113 112.2539 L 449.1113 112.3746 L 449.2031 112.3746 L 449.2031 112.497 L 449.5691 112.497 L 449.5691 112.6194 L 449.7665 112.6194 L 450.3023 112.6194 L 450.3023 112.7418 L 450.5764 112.7418 L 450.5764 112.8642 L 450.6682 112.8642 L 450.6682 112.9866 L 450.76 112.9866 L 450.76 113.1074 L 450.9424 113.1074 L 450.9424 113.4746 L 451.0342 113.4746 L 451.0342 113.597 L 451.3096 113.597 L 451.3096 113.7177 L 451.4919 113.7177 L 451.4919 113.8401 L 451.7673 113.8401 L 451.7673 113.9625 L 452.5911 113.9625 L 452.5911 113.8401 L 452.957 113.8401 L 452.957 113.7177 L 453.416 113.7177 L 453.416 113.8401 L 453.5984 113.8401 L 453.5984 113.9625 L 453.782 113.9625 L 453.782 114.0849 L 454.148 114.0849 L 454.148 114.1587 L 454.148 114.2073 L 454.5139 114.2073 L 454.5139 114.3297 L 454.8811 114.3297 L 454.8811 114.4505 L 455.5212 114.4505 L 455.5212 114.6953 L 456.4368 114.6953 L 456.438 114.5729 L 456.5286 114.5729 L 456.5286 114.4505 L 456.7122 114.4505 L 456.7122 114.6953 L 457.4441 114.6953 L 457.4454 114.5729 L 457.5359 114.5729 L 457.5359 114.4505 L 457.8113 114.4505 L 457.8113 114.3297 L 457.9031 114.3297 L 457.9031 114.2073 L 459.0928 114.2073 L 459.0928 114.3297 L 460.0083 114.3297 L 460.0083 114.2073 L 460.3755 114.2073 L 460.3755 114.0849 L 460.6497 114.0849 L 460.6497 113.9625 L 461.0156 113.9625 L 461.0156 113.8401 L 461.657 113.8401 L 461.657 113.7177 L 461.9324 113.7177 L 461.9324 113.597 L 462.2984 113.597 L 462.2984 113.4746 L 463.7635 113.4746 L 463.7635 113.3522 L 464.1294 113.3522 L 464.1294 113.2298 L 464.9544 113.2298 L 464.9544 113.1074 L 465.045 113.1074 L 465.045 112.9866 L 465.1368 112.9866 L 465.1368 112.8642 L 465.3204 112.8642 L 465.3204 112.7418 L 465.4122 112.7418 L 465.4122 112.8642 L 465.5027 112.8642 L 465.5027 112.7418 L 465.5945 112.7418 L 465.5945 112.6194 L 465.7781 112.6194 L 465.7781 112.497 L 466.1441 112.497 L 466.1441 112.3746 L 466.2359 112.3746 L 466.2359 112.2539 L 466.3277 112.2539 L 466.3277 112.1315 L 466.4195 112.1315 L 466.4195 112.0091 L 466.6937 112.0091 L 466.6937 111.8867 L 466.7855 111.8867 L 466.7855 111.7643 L 466.8773 111.7643 L 466.8773 111.6435 L 467.1514 111.6435 L 467.1514 111.7643 L 467.2432 111.7643 L 467.2432 111.8867 L 467.5174 111.8867 L 467.5174 111.7643 L 467.6092 111.7643 L 467.6092 111.6435 L 467.701 111.6435 L 467.701 111.5211 L 467.8846 111.5211 L 467.8846 111.3987 L 468.0669 111.3987 L 468.0669 111.2763 L 468.2505 111.2763 L 468.2505 111.1539 L 468.3424 111.1539 L 468.3424 111.0315 L 468.5247 111.0315 L 468.5247 110.9108 L 468.6165 110.9108 L 468.6165 110.7884 L 468.8001 110.7884 L 468.8001 110.666 L 468.8919 110.666 L 468.8919 110.5436 L 469.0743 110.5436 L 469.0743 110.4212 L 469.1661 110.4212 L 469.1661 110.3004 L 469.3497 110.3004 L 469.3497 110.178 L 469.4415 110.178 L 469.4415 110.0556 L 469.6238 110.0556 L 469.6238 109.9332 L 469.8074 109.9332 L 469.8074 109.8108 L 469.991 109.8108 L 469.991 109.6884 L 470.0816 109.6884 L 470.0816 109.5677 L 470.1734 109.5677 L 470.1734 109.4453 L 470.2652 109.4453 L 470.2652 109.3229 L 470.4488 109.3229 L 470.4488 109.2005 L 470.5394 109.2005 L 470.5394 109.078 L 470.723 109.078 L 470.723 108.9573 L 470.8148 108.9573 L 470.8148 108.8349 L 470.9984 108.8349 L 470.9984 108.7125 L 471.0889 108.7125 L 471.0889 108.5901 L 471.2725 108.5901 L 471.2725 108.4677 L 471.3643 108.4677 L 471.3643 108.3453 L 471.5467 108.3453 L 471.5467 108.2246 L 471.9139 108.2246 L 471.9139 108.1022 L 472.0962 108.1022 L 472.0962 107.9798 L 472.1881 107.9798 L 472.1881 107.8574 L 472.3717 107.8574 L 472.3717 107.7349 L 472.554 107.7349 L 472.554 107.6142 L 472.7376 107.6142 L 472.7376 107.4918 L 472.9212 107.4918 L 472.9212 107.3694 L 473.1036 107.3694 L 473.1036 107.247 L 473.1954 107.247 L 473.1954 107.1246 L 473.2872 107.1246 L 473.2872 107.0022 L 473.379 107.0022 L 473.379 106.8815 L 473.5613 106.8815 L 473.5613 106.7591 L 473.7449 106.7591 L 473.7449 106.6367 L 473.9286 106.6367 L 473.9286 106.5142 L 474.1109 106.5142 L 474.1109 106.3918 L 474.2945 106.3918 L 474.2945 106.2711 L 474.4781 106.2711 L 474.4781 106.1487 L 474.6605 106.1487 L 474.6605 106.0263 L 474.7523 106.0263 L 474.7523 105.9039 L 474.9359 105.9039 L 474.9359 105.7815 L 475.1182 105.7815 L 475.1182 105.6591 L 475.21 105.6591 L 475.21 105.5384 L 475.3936 105.5384 L 475.3936 105.416 L 475.576 105.416 L 475.576 105.2935 L 475.7596 105.2935 L 475.7596 105.1711 L 475.8514 105.1711 L 475.8514 105.0487 L 476.035 105.0487 L 476.035 104.928 L 476.2174 104.928 L 476.2174 104.8056 L 476.3092 104.8056 L 476.3092 104.6832 L 476.4928 104.6832 L 476.4928 104.5608 L 476.6751 104.5608 L 476.6751 104.4384 L 476.7669 104.4384 L 476.7669 104.316 L 476.9505 104.316 L 476.9505 104.1953 L 477.0411 104.1953 L 477.0423 104.0729 L 477.2247 104.0729 L 477.2247 103.9504 L 477.3165 103.9504 L 477.3165 103.828 L 477.5001 103.828 L 477.5001 103.7056 L 477.5906 103.7056 L 477.5906 103.5849 L 477.7743 103.5849 L 477.7743 103.4625 L 477.9579 103.4625 L 477.9579 103.3401 L 478.0484 103.3401 L 478.0497 103.2177 L 478.232 103.2177 L 478.232 103.0953 L 478.3238 103.0953 L 478.3238 102.9729 L 478.5074 102.9729 L 478.5074 102.8522 L 478.598 102.8522 L 478.598 102.7297 L 478.7816 102.7297 L 478.7816 102.6073 L 478.8734 102.6073 L 478.8734 102.4849 L 479.0557 102.4849 L 479.0557 102.3625 L 479.2393 102.3625 L 479.2393 102.2418 L 479.3311 102.2418 L 479.3311 102.1194 L 479.5148 102.1194 L 479.5148 101.997 L 479.6053 101.997 L 479.6053 101.8746 L 479.7889 101.8746 L 479.7889 101.7522 L 479.8807 101.7522 L 479.8807 101.6298 L 480.0631 101.6298 L 480.0631 101.5091 L 480.1549 101.5091 L 480.1549 101.3866 L 480.3385 101.3866 L 480.3385 101.1418 L 480.5221 101.1418 L 480.5221 101.0194 L 480.7044 101.0194 L 480.7044 100.8987 L 480.888 100.8987 L 480.888 100.7763 L 480.9798 100.7763 L 480.9798 100.6539 L 481.0704 100.6539 L 481.0704 100.5315 L 481.254 100.5315 L 481.254 100.4091 L 481.3458 100.4091 L 481.3458 100.2867 L 481.5294 100.2867 L 481.5294 100.1659 L 481.62 100.1659 L 481.62 100.0435 L 481.8036 100.0435 L 481.8036 99.9211 L 481.8954 99.9211 L 481.8954 99.7987 L 481.9872 99.7987 L 481.9872 99.6763 L 482.2613 99.6763 L 482.2613 99.5556 L 482.3531 99.5556 L 482.3531 99.4332 L 482.4449 99.4332 L 482.4449 99.3108 L 482.5367 99.3108 L 482.5367 99.1884 L 482.6273 99.1884 L 482.6273 99.066 L 482.8109 99.066 L 482.8109 98.9436 L 482.9945 98.9436 L 482.9945 98.8228 L 483.1769 98.8228 L 483.1769 98.7004 L 483.2687 98.7004 L 483.2687 98.578 L 483.3605 98.578 L 483.3605 98.4556 L 483.4523 98.4556 L 483.4523 98.3332 L 483.6346 98.3332 L 483.6346 98.2125 L 483.7264 98.2125 L 483.7264 98.0901 L 483.91 98.0901 L 483.91 97.9677 L 484.0018 97.9677 L 484.0018 97.8453 L 484.1842 97.8453 L 484.1842 97.7229 L 484.276 97.7229 L 484.276 97.6005 L 484.4596 97.6005 L 484.4596 97.4797 L 484.5514 97.4797 L 484.5514 97.3573 L 484.7337 97.3573 L 484.7337 97.2349 L 484.8255 97.2349 L 484.8255 97.1125 L 485.0092 97.1125 L 485.0092 96.9901 L 485.0997 96.9901 L 485.0997 96.8694 L 485.1915 96.8694 L 485.1915 96.747 L 485.2833 96.747 L 485.2833 96.6246 L 485.3751 96.6246 L 485.3751 96.5022 L 485.5587 96.5022 L 485.5587 96.3798 L 485.6493 96.3798 L 485.6493 96.2574 L 485.7411 96.2574 L 485.7411 96.1366 L 485.8329 96.1366 L 485.8329 96.0142 L 485.9247 96.0142 L 485.9247 95.8918 L 486.0165 95.8918 L 486.0165 95.7694 L 486.107 95.7694 L 486.107 95.647 L 486.1988 95.647 L 486.1988 95.5263 L 486.2906 95.5263 L 486.2906 95.4039 L 486.4742 95.4039 L 486.4742 95.2815 L 486.566 95.2815 L 486.566 95.1591 L 486.6566 95.1591 L 486.6679 95.9757 L 486.3648 97.9962 L 486.2328 99.403 L 485.8958 99.9865 L 485.5021 101.011 L 485.1223 103.2898 L 484.0987 107.4063 L 482.9568 110.5234 L 481.8011 112.5071 L 478.9841 116.1323 L 478.6407 131.1261 L 478.9161 135.2929 L 479.5273 137.8349 L 480.0656 138.9885 L 480.8289 140.008 L 482.5342 141.2086 L 484.4583 141.9078 L 488.3091 142.8669 Z" fill="#000000" fill-opacity="1" stroke="#000000" stroke-width="0" paint-order="fill" stroke-opacity="1" stroke-dasharray="" stroke-linecap="butt" stroke-linejoin="miter" stroke-miterlimit="10" transform="matrix(1.100000023841858,0,0,1.100000023841858,-42.50004196166992,-28.349870681762695)" clip-path="none" style="filter: url(#f1)"/>
<path data-code="207" d="M 606.609 88.0462 L 604.7566 90.6737 L 603.6877 92.7663 L 601.5209 100.342 L 598.8849 106.4187 L 598.2562 109.0294 L 597.8286 113.1241 L 597.6852 118.7212 L 598.0298 139.5838 L 594.1765 136.9076 L 592.3845 135.4639 L 590.8326 133.8391 L 589.5348 132.0064 L 589.0141 131.007 L 588.2407 128.7652 L 586.6247 121.8903 L 583.7486 115.9109 L 581.9855 111.5681 L 579.0817 105.5786 L 578.2417 101.6801 L 577.9625 97.6021 L 578.0656 75.2925 L 578.2266 75.2473 L 578.2354 74.647 L 578.3234 74.647 L 578.3234 74.5246 L 578.507 74.5246 L 578.507 74.4022 L 578.6894 74.4022 L 578.6894 74.2798 L 578.873 74.2798 L 578.873 74.1574 L 579.0566 74.1574 L 579.0566 74.0366 L 579.2389 74.0366 L 579.2389 73.9142 L 579.3307 73.9142 L 579.3307 73.7918 L 579.5143 73.7918 L 579.5143 73.6694 L 579.6967 73.6694 L 579.6967 73.547 L 579.7885 73.547 L 579.7885 73.4263 L 579.8803 73.4263 L 579.8803 73.1815 L 579.9721 73.1815 L 579.9721 73.0591 L 580.2462 73.0591 L 580.2462 73.1815 L 580.4299 73.1815 L 580.4299 73.4263 L 580.9794 73.4263 L 580.9794 73.3039 L 581.3454 73.3039 L 581.3454 73.1815 L 581.6195 73.1815 L 581.6195 73.0591 L 581.7113 73.0591 L 581.7113 72.9367 L 581.8949 72.9367 L 581.8949 72.8143 L 581.9867 72.8143 L 581.9867 72.6935 L 582.1691 72.6935 L 582.1691 72.5711 L 582.3527 72.5711 L 582.3527 72.4487 L 582.5363 72.4487 L 582.5363 72.3263 L 582.7187 72.3263 L 582.7187 72.2039 L 582.9023 72.2039 L 582.9023 72.0832 L 583.0846 72.0832 L 583.0846 71.9608 L 583.1764 71.9608 L 583.1764 71.8384 L 584.0014 71.8384 L 584.0014 71.9608 L 584.2756 71.9608 L 584.2756 72.0832 L 584.9169 72.0832 L 584.9169 71.9608 L 585.6488 71.9608 L 585.6488 71.8384 L 586.5656 71.8384 L 586.5656 71.716 L 587.3856 71.716 L 587.5729 71.716 L 587.5729 71.6606 L 587.5729 71.5936 L 587.7968 71.5936 L 587.8471 71.5936 L 587.8471 71.5785 L 587.8471 71.4712 L 588.208 71.4712 L 588.3049 71.4712 L 588.3049 71.4427 L 588.3049 71.3504 L 588.6167 71.3504 L 589.2204 71.3504 L 589.2204 71.228 L 589.3122 71.228 L 589.3122 71.1442 L 589.3122 71.1056 L 589.4392 71.1056 L 590.4113 71.1056 L 590.4113 70.9832 L 591.1432 70.9832 L 591.1432 70.8608 L 591.235 70.8608 L 591.235 70.7401 L 591.5105 70.7401 L 591.5105 70.6177 L 592.1506 70.6177 L 592.1506 70.5456 L 592.1506 70.4953 L 592.426 70.4953 L 592.426 70.3729 L 592.6096 70.3729 L 592.6096 70.2505 L 592.8837 70.2505 L 592.8837 70.1281 L 593.0673 70.1281 L 593.0673 70.0073 L 593.4333 70.0073 L 593.4333 69.8849 L 593.7075 69.8849 L 593.7075 69.7625 L 594.257 69.7625 L 594.257 69.8849 L 594.5324 69.8849 L 594.5324 69.7625 L 594.9902 69.7625 L 594.9902 69.6401 L 595.1725 69.6401 L 595.1725 69.5177 L 595.2644 69.5177 L 595.2644 69.397 L 595.448 69.397 L 595.448 69.2746 L 596.5471 69.2746 L 596.5471 69.1522 L 597.279 69.1522 L 597.279 69.0298 L 597.3708 69.0298 L 597.3708 68.9074 L 597.6462 68.9074 L 597.6462 68.6642 L 597.7368 68.6642 L 597.7368 68.5418 L 597.9204 68.5418 L 597.9204 68.4194 L 598.1945 68.4194 L 598.1945 68.297 L 598.3781 68.297 L 598.3781 68.1746 L 598.4699 68.1746 L 598.4699 68.0539 L 598.8359 68.0539 L 598.8359 67.9315 L 598.9277 67.9315 L 598.9277 67.8091 L 599.2937 67.8091 L 599.2937 67.6867 L 599.3855 67.6867 L 599.3855 67.5643 L 599.6609 67.5643 L 599.6609 67.4418 L 599.935 67.4418 L 599.935 67.3211 L 600.1186 67.3211 L 600.1186 67.1987 L 600.301 67.1987 L 600.301 67.0763 L 600.5764 67.0763 L 600.5764 66.9539 L 600.7588 66.9539 L 600.7588 66.8315 L 600.9424 66.8315 L 600.9424 66.7108 L 601.126 66.7108 L 601.126 66.5884 L 601.3083 66.5884 L 601.3083 66.466 L 601.5837 66.466 L 601.5837 66.3436 L 601.6743 66.3436 L 601.6755 66.2212 L 601.7661 66.2212 L 601.7661 66.1004 L 601.9497 66.0987 L 601.9497 65.978 L 602.0415 65.978 L 602.0415 65.8556 L 602.3156 65.8556 L 602.3156 65.7332 L 602.4993 65.7332 L 602.4993 65.4884 L 602.6816 65.4884 L 602.6816 65.3677 L 602.8652 65.3677 L 602.8652 65.2453 L 602.957 65.2453 L 602.957 65.1229 L 603.2312 65.1229 L 603.2312 65.0005 L 603.4148 65.0005 L 603.4148 64.878 L 603.6889 64.878 L 603.6889 64.7573 L 603.7807 64.7556 L 603.7807 64.6349 L 603.9643 64.6349 L 603.9643 64.5125 L 604.0561 64.5125 L 604.0561 64.3901 L 604.148 64.3901 L 604.148 64.2677 L 604.2385 64.2677 L 604.2385 64.1453 L 604.4221 64.1453 L 604.4221 64.0246 L 604.5139 64.0246 L 604.5139 63.9022 L 604.6963 63.9022 L 604.6963 63.7798 L 604.8799 63.7798 L 604.8799 63.6573 L 605.0635 63.6573 L 605.0635 63.5349 L 605.2458 63.5349 L 605.2458 63.4142 L 605.3376 63.4142 L 605.3376 63.2918 L 605.4294 63.2918 L 605.4294 63.1694 L 605.613 63.1694 L 605.613 62.8022 L 605.7036 62.8022 L 605.7036 62.5591 L 605.979 62.5591 L 605.979 62.6815 L 606.1626 62.6815 L 606.1626 62.5591 L 606.345 62.5591 L 606.345 62.4367 L 606.4368 62.4367 L 606.4368 62.3142 L 606.5286 62.3142 L 606.5286 62.1918 L 606.7109 62.1918 L 606.7109 62.0711 L 606.8945 62.0711 L 606.8945 61.9487 L 606.9863 61.9487 L 606.9863 61.8263 L 607.1699 61.8263 L 607.1699 61.7039 L 607.3523 61.7039 L 607.3523 61.5815 L 607.4441 61.5815 L 607.4441 61.4591 L 607.6277 61.4591 L 607.6277 61.3384 L 607.7182 61.3384 L 607.7182 61.216 L 607.9018 61.216 L 607.9018 61.0935 L 607.9937 61.0935 L 607.9937 60.9711 L 608.0855 60.9711 L 608.0855 60.8487 L 608.1773 60.8487 L 608.1773 60.728 L 608.2678 60.728 L 608.2678 60.6056 L 608.3194 60.6056 L 608.3596 60.6056 L 608.3596 60.4832 L 608.4514 60.4832 L 608.4514 60.3608 L 608.5432 60.3608 L 608.5432 60.2384 L 608.7256 60.2384 L 608.7256 60.116 L 608.8174 60.116 L 608.8174 59.9953 L 609.001 59.9953 L 609.001 59.8728 L 609.0928 59.8728 L 609.0928 59.7504 L 609.2751 59.7504 L 609.2751 59.628 L 609.3669 59.628 L 609.3669 59.5056 L 609.4587 59.5056 L 609.4587 59.3849 L 609.6423 59.3849 L 609.6423 59.2625 L 609.7329 59.2625 L 609.7329 59.1401 L 609.8247 59.1401 L 609.8247 59.0177 L 609.9165 59.0177 L 609.9165 58.8953 L 610.1919 58.8953 L 610.1919 58.7729 L 610.2825 58.7729 L 610.2825 58.6522 L 610.4661 58.6522 L 610.4661 58.5297 L 610.5579 58.5297 L 610.5579 58.4073 L 610.7402 58.4073 L 610.7402 58.2849 L 610.9238 58.2849 L 610.9238 58.1625 L 611.0156 58.1625 L 611.0156 57.9194 L 611.1992 57.9194 L 611.1992 57.797 L 611.2898 57.797 L 611.2898 57.6746 L 611.4734 57.6746 L 611.4734 57.5522 L 611.5652 57.5522 L 611.5652 57.4298 L 611.7476 57.4298 L 611.7476 57.309 L 611.8394 57.309 L 611.8394 57.1866 L 612.023 57.1866 L 612.023 57.0642 L 612.2066 57.0642 L 612.2066 56.9418 L 612.3889 56.9418 L 612.3889 56.8194 L 612.5725 56.8194 L 612.5725 56.6987 L 612.8467 56.6987 L 612.8467 56.8194 L 613.0303 56.8194 L 613.0303 56.9418 L 613.3962 56.9418 L 613.3962 57.0642 L 614.0376 57.0642 L 614.0376 57.1866 L 614.2212 57.1866 L 614.2212 57.309 L 614.4036 57.309 L 614.4036 57.4298 L 614.4954 57.4298 L 614.4954 57.5522 L 614.9531 57.5522 L 614.9531 57.4298 L 615.2286 57.4298 L 615.2286 57.5522 L 615.3191 57.5522 L 615.3191 57.6746 L 615.5945 57.6746 L 615.5945 57.802 L 615.5945 58.0418 L 615.5027 58.0418 L 615.5027 58.1625 L 615.5945 58.1625 L 615.5945 58.2849 L 615.6863 58.2849 L 615.6863 58.5297 L 616.1441 58.5297 L 616.1441 58.6522 L 616.2359 58.6522 L 616.2359 58.7729 L 616.3264 58.7729 L 616.3264 58.8953 L 616.4182 58.8953 L 616.4182 59.0177 L 616.7842 59.0177 L 616.7842 58.8953 L 617.2432 58.8953 L 617.2432 59.0177 L 617.867 59.0177 L 617.0722 59.6733 L 616.1843 60.6056 L 615.7819 60.8152 L 615.1732 61.3618 L 614.8387 61.947 L 614.6928 63.042 L 612.946 67.5626 L 611.9035 69.7525 L 610.6635 71.7042 L 607.7685 75.3211 L 607.4516 82.387 L 606.609 88.0462 Z" fill="#000000" fill-opacity="1" stroke="#000000" stroke-width="0" paint-order="fill" stroke-opacity="1" stroke-dasharray="" stroke-linecap="butt" stroke-linejoin="miter" stroke-miterlimit="10" transform="matrix(1.100000023841858,0,0,1.100000023841858,-42.50004196166992,-28.349870681762695)" clip-path="none" style="filter: url(#f1)"/>
<path data-code="208" d="M 523.4473 172.4672 L 518.4874 177.5797 L 515.6805 173.9645 L 514.5071 172.0362 L 512.6383 167.7202 L 509.4969 161.8229 L 507.8193 157.4164 L 505.2676 152.4799 L 503.5246 148.3164 L 503.0115 147.2735 L 501.7502 145.4592 L 500.1606 143.925 L 499.2501 143.2928 L 498.2591 142.778 L 495.9904 142.161 L 494.8221 142.052 L 492.4604 142.1224 L 488.3091 142.8669 L 484.4583 141.9078 L 482.5342 141.2086 L 480.8289 140.008 L 480.0656 138.9885 L 479.5273 137.8349 L 478.9161 135.2929 L 478.6407 131.1261 L 478.9841 116.1323 L 481.8011 112.5071 L 482.9568 110.5234 L 484.0987 107.4063 L 485.1223 103.2898 L 485.5021 101.011 L 485.8958 99.9865 L 486.2328 99.403 L 486.3648 97.9962 L 486.6679 95.9757 L 486.6566 95.1591 L 486.6566 95.0367 L 486.7484 95.0367 L 486.7484 94.9143 L 486.932 94.9143 L 486.932 94.7935 L 487.0238 94.7935 L 487.0238 94.6711 L 487.298 94.6711 L 487.298 94.9143 L 487.3898 94.9143 L 487.3898 95.1591 L 487.8475 95.1591 L 487.8475 95.0367 L 487.9393 95.0367 L 487.9393 94.9143 L 488.0311 94.9143 L 488.0311 94.7935 L 488.2135 94.7935 L 488.2135 94.6711 L 489.0385 94.6711 L 489.0385 94.5487 L 489.2208 94.5487 L 489.2208 94.4263 L 489.3126 94.4263 L 489.3126 94.3039 L 489.588 94.3039 L 489.588 94.1832 L 489.7704 94.1832 L 489.7704 94.0608 L 489.8622 94.0608 L 489.8622 93.9384 L 489.9955 93.9384 L 490.0458 93.9384 L 490.0458 93.8495 L 490.0458 93.816 L 490.1363 93.816 L 490.1363 93.6936 L 490.2281 93.6936 L 490.2281 93.5728 L 490.3199 93.5712 L 490.3199 93.4504 L 490.5036 93.4504 L 490.5036 93.328 L 490.5954 93.328 L 490.5954 93.2056 L 490.6859 93.2056 L 490.6859 93.0832 L 490.7777 93.0832 L 490.7777 92.9608 L 490.8695 92.9608 L 490.8695 92.8401 L 490.7777 92.8401 L 490.7777 92.555 L 490.7777 92.3505 L 490.8695 92.3505 L 490.8695 92.2297 L 490.9613 92.2281 L 490.9613 91.9849 L 491.0531 91.9849 L 491.0531 91.6177 L 490.9613 91.6177 L 490.9613 91.497 L 490.5954 91.497 L 490.5954 91.3746 L 490.5036 91.3746 L 490.5036 91.2522 L 490.4118 91.2522 L 490.4118 91.1298 L 490.5954 91.1298 L 490.5954 91.0074 L 490.6859 91.0074 L 490.6859 90.8866 L 490.8695 90.8866 L 490.8695 91.0074 L 491.1437 91.0074 L 491.1437 91.1298 L 491.2355 91.1298 L 491.2355 91.2522 L 491.4191 91.2522 L 491.4191 91.3746 L 491.6027 91.3746 L 491.6027 91.497 L 491.8768 91.497 L 491.8768 91.6177 L 492.0604 91.6177 L 492.0604 91.7401 L 492.151 91.7401 L 492.151 91.8625 L 492.2428 91.8625 L 492.2428 91.9849 L 492.61 91.9849 L 492.61 91.8625 L 492.976 91.8625 L 492.976 91.7401 L 493.2501 91.7401 L 493.2501 91.6177 L 493.2501 91.497 L 493.9833 91.497 L 493.9833 91.3746 L 494.0751 91.3746 L 494.0751 91.2522 L 494.1656 91.2522 L 494.1656 91.1298 L 494.2575 91.1298 L 494.2575 91.0074 L 494.4411 91.0074 L 494.4411 90.8866 L 494.5329 90.8866 L 494.5329 90.5194 L 494.6247 90.5194 L 494.6247 90.2746 L 494.7152 90.2746 L 494.7152 90.1539 L 495.0824 90.1539 L 495.0824 90.2746 L 495.4484 90.2746 L 495.4484 90.1539 L 495.5402 90.1539 L 495.5402 89.6643 L 495.4484 89.6643 L 495.4484 89.5435 L 495.3566 89.5418 L 495.3566 89.2987 L 495.4484 89.2987 L 495.4484 89.1763 L 495.5402 89.1763 L 495.5402 89.0539 L 495.632 89.0539 L 495.632 88.9315 L 495.7225 88.9315 L 495.7225 88.8108 L 495.998 88.8108 L 495.998 88.6884 L 496.0898 88.6884 L 496.0898 88.566 L 496.2721 88.566 L 496.2721 88.4436 L 496.3639 88.4436 L 496.3639 88.3212 L 496.5475 88.3212 L 496.5475 88.2004 L 496.8217 88.2004 L 496.8217 88.078 L 496.9135 88.078 L 496.9135 87.7108 L 496.8217 87.7108 L 496.8217 87.3453 L 496.9135 87.3453 L 496.9135 87.2229 L 497.0053 87.2229 L 497.0053 87.1005 L 497.7372 87.1005 L 497.7372 86.978 L 498.0126 86.978 L 498.0126 86.8573 L 498.1044 86.8573 L 498.1044 86.7349 L 498.2868 86.7349 L 498.2868 86.6125 L 498.4704 86.6125 L 498.4704 86.4901 L 499.2023 86.4901 L 499.2023 86.7349 L 499.0199 86.7349 L 499.0199 86.8573 L 498.9281 86.8573 L 498.9281 86.978 L 498.5622 86.978 L 498.5622 87.5884 L 498.6527 87.5884 L 498.6527 88.078 L 498.7445 88.078 L 498.7445 88.4436 L 499.0199 88.4436 L 499.0199 88.566 L 499.2941 88.566 L 499.2941 88.4436 L 499.4777 88.4436 L 499.4777 88.3212 L 499.5695 88.3212 L 499.5695 88.2004 L 499.66 88.2004 L 499.66 88.078 L 499.7519 88.078 L 499.7519 87.9556 L 500.2096 87.9556 L 500.2096 88.078 L 500.3932 88.078 L 500.3932 88.3212 L 500.3014 88.3212 L 500.3014 88.4436 L 500.3932 88.4436 L 500.3932 88.6884 L 500.485 88.6884 L 500.485 89.0539 L 500.6674 89.0539 L 500.6674 89.1612 L 500.6674 89.2987 L 500.7592 89.2987 L 500.7592 89.4211 L 500.9428 89.4211 L 500.9428 89.5435 L 501.7665 89.5435 L 501.7665 89.4211 L 501.8583 89.4211 L 501.8583 89.1797 L 501.8583 88.9315 L 501.9501 88.9315 L 501.9501 88.8108 L 502.0419 88.8108 L 502.0419 88.6884 L 502.2243 88.6884 L 502.2243 88.566 L 502.3161 88.566 L 502.3161 88.6884 L 502.5915 88.6884 L 502.5915 88.8108 L 502.682 88.8108 L 502.682 88.9315 L 502.7738 88.9315 L 502.7738 89.0539 L 502.8656 89.0539 L 502.8656 89.1763 L 502.9574 89.1763 L 502.9574 89.2987 L 503.1888 89.2987 L 503.5988 89.2987 L 503.5988 89.4211 L 503.9648 89.4211 L 503.9648 89.2987 L 504.0566 89.2987 L 504.0566 89.1763 L 504.1484 89.1763 L 504.1484 89.0539 L 504.2389 89.0539 L 504.2389 88.9315 L 504.4225 88.9315 L 504.4225 88.8108 L 504.6967 88.8108 L 504.6967 88.6884 L 505.0639 88.6884 L 505.0639 88.566 L 505.1557 88.566 L 505.1557 88.4436 L 505.2463 88.4436 L 505.2463 88.3597 L 505.2463 88.3212 L 505.3129 88.3212 L 505.3381 88.3212 L 505.3381 88.2004 L 505.5896 88.2004 L 505.6135 88.2004 L 505.6135 88.078 L 505.8876 88.078 L 505.8876 88.0646 L 505.8876 87.9556 L 506.0712 87.9556 L 506.0712 87.8332 L 506.163 87.8332 L 506.163 87.7108 L 506.2536 87.7108 L 506.2536 87.5884 L 506.4372 87.5884 L 506.4372 87.4677 L 506.6208 87.4677 L 506.6208 87.3453 L 506.7113 87.3453 L 506.7113 87.2229 L 506.8949 87.2229 L 506.8949 87.1005 L 507.6281 87.1005 L 507.6281 86.978 L 508.2632 86.978 L 509.4592 86.978 L 509.4592 87.1005 L 509.6428 87.1005 L 509.6428 86.978 L 509.7333 86.978 L 509.7333 86.8573 L 509.8251 86.8573 L 509.8251 86.7349 L 510.6501 86.7349 L 510.6501 86.6125 L 510.8325 86.6125 L 510.8325 86.7349 L 510.9243 86.7349 L 510.9243 86.8573 L 511.382 86.8573 L 511.382 86.7349 L 511.8398 86.7349 L 511.8398 86.8573 L 512.1152 86.8573 L 512.1152 86.7349 L 512.3893 86.7349 L 512.3893 86.6125 L 512.7553 86.6125 L 512.7553 86.4901 L 513.3967 86.4901 L 513.3967 86.3677 L 513.7626 86.3677 L 513.7626 86.2453 L 514.1298 86.2453 L 514.1298 86.3677 L 514.4958 86.3677 L 514.4958 86.6125 L 514.6794 86.6125 L 514.6794 86.7349 L 514.8618 86.7349 L 514.8618 86.8573 L 515.5949 86.8573 L 515.5949 86.7349 L 516.0527 86.7349 L 516.0527 86.6125 L 516.6023 86.6125 L 516.6023 86.4901 L 516.8764 86.4901 L 516.8764 86.3677 L 517.1518 86.3677 L 517.1518 86.2453 L 517.3342 86.2453 L 517.3342 86.1246 L 517.5178 86.1246 L 517.5178 86.0022 L 517.7014 86.0022 L 517.7014 85.8798 L 518.0674 85.8798 L 518.0674 85.7573 L 518.4333 85.7573 L 518.4333 85.6349 L 518.7087 85.6349 L 518.7087 85.5142 L 518.9829 85.5142 L 518.9829 85.3918 L 519.0747 85.3918 L 519.0747 85.2694 L 519.1665 85.2694 L 519.1665 85.2443 L 519.1665 85.147 L 519.257 85.147 L 519.257 85.2359 L 519.257 85.2694 L 519.3488 85.2694 L 519.3488 85.2258 L 519.3488 85.147 L 519.5324 85.147 L 519.5324 85.0246 L 519.7161 85.0246 L 519.7161 84.9022 L 519.8984 84.9022 L 519.8984 84.7815 L 519.9902 84.7815 L 519.9902 84.6591 L 520.082 84.6591 L 520.082 84.5367 L 520.1738 84.5367 L 520.1738 84.4142 L 520.3562 84.4142 L 520.3562 84.2918 L 520.448 84.2918 L 520.448 84.1711 L 520.6316 84.1711 L 520.6316 84.0487 L 520.7234 84.0487 L 520.7234 84.1711 L 520.8139 84.1711 L 520.8139 84.0487 L 520.9975 84.0487 L 520.9975 83.9263 L 521.1811 83.9263 L 521.1811 83.8039 L 521.2717 83.8039 L 521.2717 83.6815 L 521.4553 83.6815 L 521.4553 83.5591 L 521.5471 83.5591 L 521.5471 83.4384 L 521.7307 83.4384 L 521.7307 83.316 L 521.9131 83.316 L 521.9131 83.1935 L 522.0049 83.1935 L 522.0049 83.0711 L 522.1885 83.0711 L 522.1885 82.9487 L 522.279 82.9487 L 522.279 82.828 L 522.3708 82.828 L 522.3708 82.7056 L 522.6462 82.7056 L 522.6462 82.5832 L 522.738 82.5832 L 522.738 82.4608 L 522.8286 82.4608 L 522.8286 82.3384 L 523.0122 82.3384 L 523.0122 82.216 L 523.1958 82.216 L 523.1958 82.0953 L 523.2863 82.0953 L 523.2863 81.9729 L 523.3781 81.9729 L 523.3781 81.8504 L 523.5618 81.8504 L 523.5618 81.728 L 523.7454 81.728 L 523.7454 81.6056 L 523.9277 81.6056 L 523.9277 81.4849 L 524.1113 81.4849 L 524.1113 81.3625 L 524.2031 81.3625 L 524.2031 81.2401 L 524.3855 81.2401 L 524.3855 81.1177 L 524.4773 81.1177 L 524.4773 80.9953 L 524.5691 80.9953 L 524.5691 80.8729 L 524.7527 80.8729 L 524.7527 80.7522 L 524.8432 80.7522 L 524.8432 80.6297 L 525.0268 80.6297 L 525.0268 80.5073 L 525.1186 80.5073 L 525.1186 80.2625 L 525.301 80.2625 L 525.301 80.1418 L 525.3928 80.1418 L 525.3928 80.0194 L 525.4846 80.0194 L 525.4846 79.6522 L 525.6682 79.6522 L 525.6682 79.5298 L 525.9424 79.5298 L 525.9424 79.409 L 526.0342 79.409 L 526.0342 79.2866 L 526.126 79.2866 L 526.126 79.1642 L 526.3083 79.1642 L 526.3083 79.0418 L 526.5837 79.0418 L 526.5837 78.9194 L 526.7673 78.9194 L 526.7673 78.7987 L 526.9497 78.7987 L 526.9497 78.6763 L 527.0415 78.6763 L 527.0415 78.5539 L 527.1333 78.5539 L 527.1333 78.4315 L 527.2251 78.4315 L 527.2251 78.3091 L 527.4075 78.3091 L 527.4075 78.1867 L 527.5911 78.1867 L 527.5911 78.0659 L 527.7747 78.0659 L 527.7747 77.9435 L 527.957 77.9435 L 527.957 77.8211 L 528.0488 77.8211 L 528.0488 77.6987 L 528.1406 77.6987 L 528.1406 77.5763 L 528.323 77.5763 L 528.323 77.4556 L 528.5066 77.4556 L 528.5066 77.3332 L 528.5984 77.3332 L 528.5984 77.2108 L 528.782 77.2108 L 528.782 77.0884 L 528.8725 77.0884 L 528.8725 76.966 L 528.9643 76.966 L 528.9643 76.8436 L 529.0562 76.8436 L 529.0562 76.7228 L 529.2398 76.7228 L 529.2398 76.6004 L 529.6057 76.6004 L 529.6057 76.478 L 529.7893 76.478 L 529.7893 76.3556 L 529.9717 76.3556 L 529.9717 76.2332 L 530.0635 76.2332 L 530.0635 76.1125 L 530.1553 76.1125 L 530.1553 75.9901 L 530.2471 75.9901 L 530.2471 75.8677 L 530.4294 75.8677 L 530.4294 75.7453 L 530.5212 75.7453 L 530.5212 75.6229 L 530.613 75.6229 L 530.613 75.5005 L 530.8872 75.5005 L 530.8872 75.3797 L 530.979 75.3797 L 530.979 75.2573 L 531.0708 75.2573 L 531.0708 75.0125 L 531.2544 75.0125 L 531.2544 74.8901 L 531.4368 74.8901 L 531.4368 74.7694 L 531.6204 74.7694 L 531.6204 74.647 L 531.804 74.647 L 531.804 74.5246 L 531.8945 74.5246 L 531.8945 74.4022 L 531.9863 74.4022 L 531.9863 74.2798 L 532.0781 74.2798 L 532.0781 74.1574 L 532.3523 74.1574 L 532.3523 74.0366 L 532.4441 74.0366 L 532.4441 74.1574 L 532.5359 74.1574 L 532.5359 74.2798 L 532.7195 74.2798 L 532.7195 74.4022 L 532.9019 74.4022 L 532.9019 74.5246 L 533.098 74.5246 L 533.0163 77.5864 L 533.1144 77.5143 L 533.4602 88.8091 L 533.5118 117.97 L 533.7369 122.5577 L 534.294 127.9989 L 530.5162 135.0481 L 529.2234 138.3597 L 528.6185 142.2381 L 528.2312 150.2112 L 527.8174 154.1248 L 527.2226 156.6182 L 525.0407 161.6871 L 524.3289 163.882 L 523.7529 167.4938 L 523.4473 172.4672 Z" fill="#000000" fill-opacity="1" stroke="#000000" stroke-width="0" paint-order="fill" stroke-opacity="1" stroke-dasharray="" stroke-linecap="butt" stroke-linejoin="miter" stroke-miterlimit="10" transform="matrix(1.100000023841858,0,0,1.100000023841858,-42.50004196166992,-28.349870681762695)" clip-path="none" style="filter: url(#f1)"/>
<path data-code="209" d="M 449.0434 259.3882 L 449.8395 255.9257 L 450.2444 254.8022 L 451.453 252.5587 L 453.8084 249.4768 L 460.7453 241.6194 L 462.848 238.4318 L 464.7708 234.156 L 466.0523 232.0483 L 468.4065 229.1357 L 471.1304 226.5702 L 473.1765 225.1785 L 474.292 224.6419 L 476.5921 223.9947 L 480.1599 223.6711 L 488.5568 223.6443 L 492.0189 223.1077 L 494.1128 222.1653 L 495.0196 221.5164 L 496.5865 219.9251 L 497.7661 217.9868 L 498.1862 216.8466 L 498.6615 214.4773 L 498.8527 212.0376 L 498.9407 203.1959 L 499.2174 197.2936 L 497.7297 193.3833 L 494.5542 187.4509 L 492.7345 183.1248 L 490.2558 178.1816 L 489.2095 174.5648 L 488.7429 169.1823 L 488.748 151.1435 L 488.3091 142.8669 L 492.4604 142.1224 L 494.8221 142.052 L 495.9904 142.161 L 498.2591 142.778 L 499.2501 143.2928 L 500.1606 143.925 L 501.7502 145.4592 L 503.0115 147.2735 L 503.5246 148.3164 L 505.2676 152.4799 L 507.8193 157.4164 L 509.4969 161.8229 L 512.6383 167.7202 L 514.5071 172.0362 L 515.6805 173.9645 L 518.4874 177.5797 L 519.6532 182.1841 L 521.942 187.2027 L 522.9015 190.6049 L 523.3316 195.5414 L 523.5177 207.7869 L 524.0598 211.7223 L 524.8193 214.0346 L 527.3031 218.9861 L 529.0964 223.3659 L 533.2389 230.8058 L 532.2705 233.4668 L 529.1819 239.3809 L 527.3949 243.7338 L 524.2195 249.6126 L 522.4199 253.9605 L 519.2382 259.8359 L 516.9217 265.1648 L 514.2003 270.0207 L 512.3831 274.3435 L 510.3256 278.252 L 509.4202 280.3145 L 508.5851 284.1158 L 508.2557 290.781 L 508.4883 298.91 L 509.3322 305.5652 L 499.7682 305.4293 L 497.3675 305.208 L 495.0309 304.7737 L 492.8791 304.0326 L 488.0098 301.722 L 480.3133 299.6679 L 479.2632 299.1951 L 477.4599 297.9727 L 475.2616 295.5833 L 472.1264 289.7883 L 470.7569 288.1115 L 469.1422 286.6578 L 467.2596 285.489 L 463.234 283.5792 L 459.46 281.4363 L 454.4334 279.0888 L 452.6791 277.7876 L 451.1775 276.1594 L 450.018 274.2194 L 449.5955 273.0808 L 449.1013 270.7065 L 448.8674 267.0092 L 449.0434 259.3882 Z" fill="#000000" fill-opacity="1" stroke="#000000" stroke-width="0" paint-order="fill" stroke-opacity="1" stroke-dasharray="" stroke-linecap="butt" stroke-linejoin="miter" stroke-miterlimit="10" transform="matrix(1.100000023841858,0,0,1.100000023841858,-42.50004196166992,-28.349870681762695)" clip-path="none" style="filter: url(#f1)"/>
<path data-code="210" d="M 387.2016 181.4413 L 391.0322 176.8 L 396.4737 170.7736 L 398.4507 168.0052 L 398.9462 166.9807 L 399.5724 164.6869 L 399.6894 162.4014 L 399.2945 160.2333 L 398.8531 159.2407 L 398.2017 158.3604 L 397.3742 157.6997 L 395.5218 156.9552 L 391.4421 156.0464 L 389.381 155.203 L 387.4342 153.9488 L 384.6713 151.6348 L 379.4158 146.4133 L 373.5379 140.0499 L 371.2201 137.2145 L 367.26 131.3742 L 367.1971 131.3742 L 366.5029 130.3028 L 365.7559 128.7367 L 366.9695 128.7367 L 366.9695 128.6142 L 367.06 128.6142 L 367.06 128.4918 L 367.6096 128.4918 L 367.6096 128.3711 L 367.7932 128.3711 L 367.7932 128.4918 L 368.0674 128.4918 L 368.0674 128.6142 L 368.251 128.6142 L 368.251 128.8591 L 368.4346 128.8591 L 368.4346 128.9815 L 368.5251 128.9815 L 368.5251 129.2246 L 368.6169 129.2246 L 368.6169 129.4694 L 368.8005 129.4694 L 368.8005 129.5918 L 368.9841 129.5918 L 368.9841 129.7142 L 369.0747 129.7142 L 369.0747 129.8349 L 369.2583 129.8349 L 369.2583 129.9574 L 369.4419 129.9574 L 369.4419 130.0798 L 369.5325 130.0798 L 369.5325 130.2022 L 369.9915 130.2022 L 369.9915 130.3246 L 370.3574 130.3246 L 370.3574 130.4453 L 370.9988 130.4453 L 370.9988 130.5677 L 371.273 130.5677 L 371.273 130.4453 L 371.7307 130.4453 L 371.7307 130.3246 L 371.9143 130.3246 L 371.9143 130.2022 L 372.1885 130.2022 L 372.1885 130.0798 L 372.3721 130.0798 L 372.3721 129.9574 L 372.5544 129.9574 L 372.5544 129.8349 L 372.8299 129.8349 L 372.8299 129.7142 L 373.0135 129.7142 L 373.0135 129.5918 L 373.3794 129.5918 L 373.3794 129.4694 L 373.4712 129.4694 L 373.4712 129.347 L 373.6536 129.347 L 373.6536 129.2246 L 373.7454 129.2246 L 373.7454 128.9815 L 374.1113 128.9815 L 374.1113 129.1022 L 374.4785 129.1022 L 374.4785 129.2246 L 375.4859 129.2246 L 375.4859 129.1022 L 376.4014 129.1022 L 376.4014 128.9815 L 376.951 128.9815 L 376.951 128.8591 L 377.0415 128.8591 L 377.0415 128.7367 L 377.3169 128.7367 L 377.3169 128.6142 L 377.5005 128.6142 L 377.5005 128.4918 L 377.8665 128.4918 L 377.8665 128.3711 L 378.5984 128.3711 L 378.5984 128.4918 L 378.9656 128.4918 L 378.9656 128.6142 L 379.2398 128.6142 L 379.2398 128.7367 L 379.5152 128.7367 L 379.5152 128.8591 L 380.3389 128.8591 L 380.3389 128.7367 L 381.0708 128.7367 L 381.0708 128.6142 L 381.3462 128.6142 L 381.3462 128.4918 L 381.7122 128.4918 L 381.7122 128.3711 L 382.0781 128.3711 L 382.0781 128.2487 L 382.3536 128.2487 L 382.3536 128.1263 L 382.5372 128.1263 L 382.5372 128.0039 L 382.8113 128.0039 L 382.8113 127.8815 L 382.9949 127.8815 L 382.9949 127.7591 L 383.2691 127.7591 L 383.2691 127.6384 L 383.4527 127.6384 L 383.4527 127.516 L 383.7268 127.516 L 383.7268 127.3936 L 384.0023 127.3936 L 384.0023 127.2711 L 385.1001 127.2711 L 385.1001 127.3936 L 385.2837 127.3936 L 385.2837 127.516 L 385.3755 127.516 L 385.3755 127.6384 L 385.4673 127.6384 L 385.4673 127.7591 L 385.5591 127.7591 L 385.5591 127.8513 L 385.5591 127.8815 L 385.6497 127.8815 L 385.6497 128.0039 L 385.7415 128.0039 L 385.7415 128.2487 L 385.8333 128.2487 L 385.8333 128.3711 L 385.9251 128.3711 L 385.9251 128.6142 L 386.0169 128.6142 L 386.0169 128.7367 L 386.1075 128.7367 L 386.1075 128.8591 L 386.657 128.8591 L 386.657 129.1022 L 386.7488 129.1022 L 386.7488 129.2246 L 386.8406 129.2246 L 386.8406 129.347 L 386.9324 129.347 L 386.9324 129.4694 L 387.3173 129.4694 L 387.482 129.4694 L 387.482 129.5918 L 387.5738 129.5918 L 387.5738 129.7142 L 387.7562 129.7142 L 387.7562 129.5918 L 388.5811 129.5918 L 388.5811 129.4694 L 388.6717 129.4694 L 388.6717 129.347 L 389.0389 129.347 L 389.0389 129.2246 L 389.1294 129.2246 L 389.1294 129.1022 L 389.4967 129.1022 L 389.4967 128.9815 L 389.679 128.9815 L 389.679 129.1022 L 389.9544 129.1022 L 389.9544 128.9815 L 390.8699 128.9815 L 390.8699 128.8591 L 391.0535 128.8591 L 391.0535 128.7367 L 391.3277 128.7367 L 391.3277 128.6142 L 391.6031 128.6142 L 391.6031 128.4918 L 391.7855 128.4918 L 391.7855 128.3711 L 392.1514 128.3711 L 392.1514 128.2487 L 392.2432 128.2487 L 392.2432 128.3711 L 393.1587 128.3711 L 393.1587 128.4918 L 393.3424 128.4918 L 393.3424 128.3711 L 393.4342 128.3711 L 393.4342 128.4918 L 394.3497 128.4918 L 394.3497 128.3711 L 394.5333 128.3711 L 394.5333 128.4918 L 394.7156 128.4918 L 394.7156 128.3711 L 394.8074 128.3711 L 394.8074 128.2487 L 394.8993 128.2487 L 394.8993 128.1263 L 395.0829 128.1263 L 395.0829 128.0039 L 395.2652 128.0039 L 395.2652 127.8815 L 395.8148 127.8815 L 395.8148 127.7591 L 395.9984 127.7591 L 395.9984 127.6384 L 397.5553 127.6384 L 397.5553 127.7591 L 399.7523 127.7591 L 399.7523 127.8815 L 399.8441 127.8815 L 399.8441 127.7591 L 400.0277 127.7591 L 400.0277 127.6384 L 400.3018 127.6384 L 400.3018 127.516 L 401.035 127.516 L 401.035 127.3936 L 401.9505 127.3936 L 401.9505 127.516 L 402.0423 127.516 L 402.0423 127.6384 L 402.1342 127.6384 L 402.1342 127.7591 L 402.8661 127.7591 L 402.8661 127.8815 L 402.9579 127.8815 L 402.9579 128.0039 L 403.1415 128.0039 L 403.1415 128.1263 L 403.232 128.1263 L 403.232 128.2487 L 403.6898 128.2487 L 403.6898 128.1263 L 403.8734 128.1263 L 403.8734 128.0039 L 404.057 128.0039 L 404.057 127.8815 L 404.2394 127.8815 L 404.2394 127.7591 L 404.423 127.7591 L 404.423 127.6384 L 404.8807 127.6384 L 404.8807 127.7591 L 405.0643 127.7591 L 405.0643 127.6384 L 405.1561 127.6384 L 405.1561 127.516 L 405.5221 127.516 L 405.5221 127.3936 L 405.888 127.3936 L 405.888 127.2711 L 406.1635 127.2711 L 406.1635 127.1487 L 406.5294 127.1487 L 406.5294 127.028 L 406.8036 127.028 L 406.8036 126.9056 L 407.1708 126.9056 L 407.1708 126.7832 L 407.2613 126.7832 L 407.2613 126.6608 L 407.5367 126.6608 L 407.5367 126.5384 L 407.8109 126.5384 L 407.8109 126.2953 L 407.9027 126.2953 L 407.9027 126.1729 L 407.9945 126.1729 L 407.9945 126.0504 L 408.0863 126.0504 L 408.0863 125.928 L 408.2687 125.928 L 408.2687 125.8056 L 408.7264 125.8056 L 408.7264 125.6849 L 408.91 125.6849 L 408.91 125.5625 L 409.0936 125.5625 L 409.0936 125.4401 L 409.3678 125.4401 L 409.3678 125.3177 L 409.5514 125.3177 L 409.5514 125.1953 L 409.6432 125.1953 L 409.6432 125.0729 L 409.8256 125.0729 L 409.8256 124.9522 L 409.9174 124.9522 L 409.9174 124.8297 L 410.2179 124.8297 L 410.3751 124.8297 L 410.3751 124.6252 L 410.3751 124.5849 L 410.4066 124.5849 L 410.4669 124.5849 L 410.4669 124.5061 L 410.4669 124.4625 L 410.4996 124.4625 L 411.0165 124.4625 L 411.0165 124.3418 L 411.1083 124.3418 L 411.1083 124.2194 L 411.2906 124.2194 L 411.2906 124.097 L 411.3824 124.097 L 411.3824 123.9746 L 411.5661 123.9746 L 411.5661 123.8522 L 411.6579 123.8522 L 411.6579 123.7298 L 411.8402 123.7298 L 411.8402 123.6091 L 411.932 123.6091 L 411.932 123.4866 L 412.1156 123.4866 L 412.1156 123.3642 L 412.2074 123.3642 L 412.2074 123.2838 L 412.2074 123.2418 L 412.2741 123.2418 L 412.3898 123.2418 L 412.3898 123.1714 L 412.3898 123.1194 L 412.4816 123.1144 L 412.4816 122.9987 L 412.6652 122.9987 L 412.6652 122.8763 L 412.7557 122.8763 L 412.7557 122.7539 L 412.9393 122.7539 L 412.9393 122.6315 L 413.3053 122.6315 L 413.3053 122.7539 L 413.3971 122.7539 L 413.3971 122.6315 L 413.6725 122.6315 L 413.6725 122.5795 L 413.6725 122.5091 L 413.8549 122.5091 L 413.8549 122.3867 L 414.0385 122.3867 L 414.0385 122.2659 L 414.2221 122.2659 L 414.2221 122.1435 L 414.3126 122.1435 L 414.3126 122.0211 L 414.4962 122.0211 L 414.4962 121.8987 L 414.588 121.8987 L 414.588 121.7763 L 414.7704 121.7763 L 414.7704 121.6556 L 415.0458 121.6556 L 415.0458 121.5332 L 415.2281 121.5332 L 415.2294 121.4108 L 415.4118 121.4108 L 415.4118 121.2884 L 415.6872 121.2884 L 415.6872 121.166 L 415.8695 121.166 L 415.8695 121.0452 L 416.0531 121.0436 L 416.0531 120.9228 L 416.2355 120.9228 L 416.2367 120.8004 L 416.5109 120.8004 L 416.5109 120.678 L 416.6945 120.678 L 416.6945 120.5556 L 416.785 120.5556 L 416.785 120.4332 L 416.8768 120.4332 L 416.8768 120.3125 L 416.9687 120.3125 L 416.9687 120.1901 L 417.0605 120.1901 L 417.0605 120.0677 L 417.1523 120.0677 L 417.1523 119.9453 L 417.2428 119.9453 L 417.2428 119.8229 L 417.4264 119.8229 L 417.4264 119.7021 L 417.5182 119.7005 L 417.5182 119.5797 L 417.7018 119.5797 L 417.7018 119.4573 L 417.7924 119.4573 L 417.7924 119.3349 L 417.976 119.3349 L 417.976 119.2125 L 418.0678 119.2125 L 418.0678 119.0901 L 418.1596 119.0901 L 418.1596 118.847 L 418.2501 118.847 L 418.2501 118.7246 L 418.3419 118.7246 L 418.3419 118.4798 L 418.4337 118.4798 L 418.4337 118.2366 L 418.5255 118.2366 L 418.5255 118.1142 L 418.6173 118.1142 L 418.6173 117.8694 L 419.1669 117.8694 L 419.1669 117.9918 L 419.4411 117.9918 L 419.4411 117.747 L 419.6247 117.747 L 419.6247 117.6263 L 419.7165 117.6263 L 419.7165 117.5039 L 419.807 117.5039 L 419.807 117.3815 L 419.8988 117.3815 L 419.8988 117.1367 L 419.9906 117.1367 L 419.9906 116.8935 L 420.0824 116.8935 L 420.0824 116.7711 L 420.2648 116.7711 L 420.2648 116.6487 L 420.3566 116.6487 L 420.3566 116.5263 L 420.632 116.5263 L 420.632 116.4039 L 420.998 116.4039 L 420.998 116.2832 L 421.2721 116.2832 L 421.2721 116.1608 L 422.3788 116.1608 L 422.5549 116.1608 L 422.5549 116.0384 L 422.829 116.0384 L 422.829 115.916 L 422.9208 115.916 L 422.9208 115.7936 L 423.1044 115.7936 L 423.1044 115.6728 L 423.1962 115.6728 L 423.1962 115.5504 L 423.3786 115.5504 L 423.3786 115.428 L 423.4704 115.428 L 423.4704 115.3056 L 423.654 115.3056 L 423.654 115.1832 L 423.7458 115.1832 L 423.7458 115.0608 L 423.9281 115.0608 L 423.9281 114.9401 L 424.0199 114.9401 L 424.0199 114.8177 L 424.2941 114.8177 L 424.2941 114.6953 L 424.4777 114.6953 L 424.4777 114.4505 L 424.6613 114.4505 L 424.6613 114.3297 L 424.7531 114.3297 L 424.7531 114.2073 L 424.8437 114.2073 L 424.8437 114.0849 L 424.9355 114.0849 L 424.9355 113.7881 L 424.9355 113.1074 L 425.0273 113.1074 L 425.0273 112.9866 L 425.1191 112.9866 L 425.1191 112.7418 L 425.2109 112.7418 L 425.2109 112.2539 L 425.3014 112.2539 L 425.3014 112.1315 L 425.3932 112.1315 L 425.3932 112.0091 L 425.485 112.0091 L 425.485 111.8867 L 425.7604 111.8867 L 425.7604 112.0091 L 426.0346 112.0091 L 426.0346 111.8867 L 426.4924 111.8867 L 426.4924 111.7643 L 426.7678 111.7643 L 426.7678 111.5211 L 426.8583 111.5211 L 426.8583 111.3987 L 426.9501 111.3987 L 426.9501 111.1539 L 427.0419 111.1539 L 427.0419 111.0315 L 427.1337 111.0315 L 427.1337 110.9108 L 427.4079 110.9108 L 427.4079 110.7884 L 427.4997 110.7884 L 427.4997 110.666 L 427.5915 110.666 L 427.5915 110.5436 L 427.9574 110.5436 L 427.9574 110.4212 L 428.2329 110.4212 L 428.2329 110.3004 L 428.4152 110.3004 L 428.4152 110.178 L 428.5988 110.178 L 428.5988 109.5677 L 428.7824 109.5677 L 428.7824 109.4453 L 429.1484 109.4453 L 429.1484 109.3229 L 429.4225 109.3229 L 429.4225 109.2005 L 429.5143 109.2005 L 429.5143 108.7125 L 429.6061 108.7125 L 429.6061 108.4677 L 429.6979 108.4677 L 429.6979 108.3453 L 429.8803 108.3453 L 429.8803 108.2246 L 429.9721 108.2246 L 429.9721 107.9798 L 430.0639 107.9798 L 430.0639 107.8574 L 430.3381 107.8574 L 430.3381 107.7349 L 430.4299 107.7349 L 430.4299 107.3694 L 430.5217 107.3694 L 430.5217 107.247 L 430.6135 107.247 L 430.6135 106.6367 L 430.7053 106.6367 L 430.7053 106.5142 L 430.6135 106.5142 L 430.6135 106.2711 L 430.7053 106.2711 L 430.7053 106.1487 L 431.0712 106.1487 L 431.0712 106.0263 L 431.163 106.0263 L 431.163 105.9039 L 431.4372 105.9039 L 431.4372 105.7815 L 433.8191 105.7815 L 433.8191 105.5384 L 433.9096 105.5384 L 433.9096 105.1711 L 434.0014 105.1711 L 434.0014 104.928 L 434.0932 104.928 L 434.0932 104.6832 L 434.185 104.6832 L 434.185 104.4384 L 434.2768 104.4384 L 434.2768 104.316 L 434.185 104.316 L 434.185 104.1953 L 434.2768 104.1953 L 434.2768 103.9504 L 434.3674 103.9504 L 434.3674 103.828 L 434.4592 103.828 L 434.4592 103.7056 L 434.551 103.7056 L 434.551 103.5849 L 434.6428 103.5849 L 434.6428 103.4625 L 434.8264 103.4625 L 434.8264 103.3401 L 435.1923 103.3401 L 435.1923 103.2177 L 436.2915 103.2177 L 436.2915 103.3401 L 436.382 103.3401 L 436.382 103.4625 L 436.4738 103.4625 L 436.4738 103.5849 L 436.8398 103.5849 L 436.8398 103.7056 L 436.9316 103.7056 L 436.9316 103.828 L 437.1152 103.828 L 437.1152 103.9504 L 437.2988 103.9504 L 437.2988 104.0729 L 437.4812 104.0729 L 437.4812 104.1953 L 437.6648 104.1953 L 437.6648 104.316 L 437.8471 104.316 L 437.8471 104.3948 L 437.8471 104.4384 L 438.1225 104.4384 L 438.1225 104.316 L 438.3967 104.316 L 438.3967 104.1953 L 438.8544 104.1953 L 438.8544 104.0729 L 439.2217 104.0729 L 439.2217 103.9504 L 439.5876 103.9504 L 439.5876 103.828 L 439.8618 103.828 L 439.8618 103.7056 L 440.1372 103.7056 L 440.1372 103.828 L 440.7786 103.828 L 440.7786 103.0953 L 440.6867 103.0953 L 440.6867 102.9729 L 440.5949 102.9729 L 440.5949 102.8522 L 440.6867 102.8522 L 440.6867 102.7297 L 440.8691 102.7297 L 440.8691 102.8522 L 441.3281 102.8522 L 441.3281 102.9729 L 441.4187 102.9729 L 441.4187 103.2177 L 441.5105 103.2177 L 441.5105 104.0729 L 441.6023 104.0729 L 441.6023 104.316 L 441.6941 104.316 L 441.6941 104.4384 L 441.9682 104.4384 L 441.9682 104.5608 L 442.2436 104.5608 L 442.2436 104.487 L 442.2436 104.4384 L 442.8838 104.4384 L 442.8838 104.5004 L 442.8838 104.5608 L 442.9756 104.5608 L 442.9756 104.6832 L 443.0674 104.6832 L 443.0674 104.8056 L 443.4333 104.8056 L 443.4333 104.928 L 443.5251 104.928 L 443.5251 105.0487 L 443.6169 105.0487 L 443.6169 105.1711 L 443.7087 105.1711 L 443.7087 105.2935 L 443.8005 105.2935 L 443.8005 105.416 L 443.8911 105.416 L 443.8911 105.5384 L 443.9829 105.5384 L 443.9829 105.6591 L 444.1665 105.6591 L 444.1665 105.7815 L 444.2583 105.7815 L 444.2583 105.9039 L 444.3501 105.9039 L 444.3501 106.0263 L 444.4406 106.0263 L 444.4406 106.1487 L 444.5324 106.1487 L 444.5324 106.2711 L 444.6243 106.2711 L 444.6243 106.3918 L 444.7161 106.3918 L 444.7161 106.5142 L 444.8079 106.5142 L 444.8079 106.6367 L 444.8984 106.6367 L 444.8984 106.7591 L 444.9902 106.7591 L 444.9902 106.8815 L 445.082 106.8815 L 445.082 107.0022 L 445.2656 107.0022 L 445.2656 107.1246 L 445.3574 107.1246 L 445.3574 107.3694 L 445.1738 107.3694 L 445.1738 107.4918 L 444.9902 107.4918 L 444.9902 107.8574 L 445.082 107.8574 L 445.082 107.9798 L 445.1738 107.9798 L 445.1738 108.1022 L 445.2153 108.1022 L 444.7601 108.9104 L 444.3815 111.2344 L 444.3815 116.3871 L 444.3815 120.0241 L 444.3815 121.1995 L 444.3212 121.2146 L 444.5161 131.2736 L 445.2229 138.9281 L 441.9695 139.8135 L 435.7708 141.9832 L 434.6855 142.4527 L 432.5703 143.7321 L 429.6929 146.145 L 427.1526 148.9285 L 425.7617 151.0278 L 424.8537 153.377 L 424.4991 155.8117 L 424.5607 158.2598 L 425.0285 160.6576 L 425.4448 161.8078 L 426.676 163.9508 L 430.5519 168.6223 L 431.9692 170.5439 L 433.0067 172.6835 L 433.277 173.8186 L 433.3802 174.9739 L 433.1161 177.251 L 432.3628 179.2263 L 430.9329 182.0567 L 430.1482 184.1812 L 429.6678 186.5572 L 429.4288 189.0355 L 429.4175 192.8417 L 429.8375 196.5022 L 430.3959 198.6401 L 431.8057 201.7488 L 424.2362 202.9293 L 416.409 203.2881 L 409.9375 203.1053 L 407.4148 202.7398 L 404.9813 201.997 L 402.7617 200.7511 L 400.7521 199.1884 L 397.0963 195.6705 L 393.824 192.0721 L 391.5868 189.2736 L 390.2638 187.2866 L 387.2016 181.4413 Z M 373.4712 122.3867 L 373.4712 122.5091 L 373.7454 122.5091 L 373.7454 122.7539 L 373.8372 122.7539 L 373.8372 122.9987 L 373.4712 122.9987 L 373.4712 123.1194 L 373.0135 123.1194 L 373.0122 122.9987 L 372.8299 122.9987 L 372.8299 122.8763 L 372.738 122.8763 L 372.738 122.6315 L 372.8299 122.6315 L 372.8299 122.3867 L 372.9217 122.3867 L 372.9217 122.0211 L 373.5618 122.0211 L 373.5618 122.3867 L 373.4712 122.3867 Z" fill="#000000" fill-opacity="1" stroke="#000000" stroke-width="0" paint-order="fill" stroke-opacity="1" stroke-dasharray="" stroke-linecap="butt" stroke-linejoin="miter" stroke-miterlimit="10" transform="matrix(1.100000023841858,0,0,1.100000023841858,-42.50004196166992,-28.349870681762695)" clip-path="none" style="filter: url(#f1)"/>
<path data-code="211" d="M 346.0898 131.2719 L 346.0898 131.3005 L 346.4557 131.3005 L 346.4557 131.4229 L 346.7311 131.4229 L 346.7311 131.5453 L 347.9208 131.5453 L 347.9208 131.6677 L 349.4551 131.6677 L 349.7531 131.6677 L 349.7531 131.6392 L 349.7531 131.5453 L 349.8449 131.5453 L 349.8449 131.4229 L 350.5768 131.4229 L 350.5768 131.3005 L 350.8523 131.3005 L 350.8523 131.178 L 350.9428 131.178 L 350.9428 131.0573 L 351.0346 131.0573 L 351.0346 130.9349 L 351.1264 130.9349 L 351.1264 130.8125 L 351.31 130.8125 L 351.31 130.6901 L 351.4924 130.6901 L 351.4924 130.5677 L 351.676 130.5677 L 351.676 130.4453 L 352.1337 130.4453 L 352.1337 130.3246 L 352.2255 130.3246 L 352.2255 130.2022 L 352.4091 130.2022 L 352.4091 130.0798 L 352.4997 130.0798 L 352.4997 129.9574 L 352.6833 129.9574 L 352.6833 129.8349 L 352.7751 129.8349 L 352.7751 129.7142 L 352.9575 129.7142 L 352.9575 129.5918 L 353.1411 129.5918 L 353.1411 128.7367 L 353.2329 128.7367 L 353.2329 128.4918 L 353.3247 128.4918 L 353.3247 128.2487 L 353.507 128.2487 L 353.507 128.1263 L 353.6906 128.1263 L 353.6906 128.4918 L 353.5988 128.4918 L 353.5988 128.6142 L 353.507 128.6142 L 353.507 128.8591 L 353.4152 128.8591 L 353.4152 129.347 L 353.5988 129.347 L 353.5988 129.2246 L 353.7824 129.2246 L 353.7824 129.1022 L 353.8742 129.1022 L 353.8742 128.9815 L 354.0566 128.9798 L 354.0566 128.8591 L 354.1484 128.8591 L 354.1484 128.7367 L 354.2402 128.7367 L 354.2402 128.3711 L 354.1484 128.3711 L 354.1484 127.8815 L 354.0566 127.8815 L 354.0566 127.7591 L 353.9648 127.7591 L 353.9648 127.6384 L 353.8742 127.6384 L 353.8742 127.3936 L 354.1484 127.3936 L 354.1484 127.6384 L 354.2402 127.6384 L 354.2402 127.7591 L 354.4225 127.7591 L 354.4225 128.0039 L 354.5143 128.0039 L 354.5143 128.1263 L 354.7898 128.1263 L 354.7898 128.0039 L 354.8816 128.0039 L 354.8816 127.7591 L 355.3393 127.7591 L 355.3393 127.6384 L 355.5217 127.6384 L 355.5217 127.516 L 355.6135 127.516 L 355.6135 127.3936 L 355.7053 127.3936 L 355.7053 127.1487 L 355.7971 127.1487 L 355.7971 126.9056 L 355.8889 126.9056 L 355.8889 126.7832 L 355.9794 126.7832 L 355.9794 126.5384 L 356.0712 126.5384 L 356.0712 126.2953 L 356.163 126.2953 L 356.163 125.928 L 356.0712 125.928 L 356.0712 125.8056 L 355.5217 125.8056 L 355.5217 125.6849 L 355.1557 125.6849 L 355.1557 125.8056 L 354.8816 125.8056 L 354.8816 125.928 L 354.5143 125.928 L 354.5143 126.0504 L 354.4225 126.0504 L 354.4225 126.1729 L 354.2402 126.1729 L 354.2402 126.2953 L 353.8742 126.2953 L 353.8742 126.416 L 353.7824 126.416 L 353.7824 126.6608 L 353.4152 126.6608 L 353.4152 126.7832 L 353.2329 126.7832 L 353.2329 126.416 L 353.5988 126.416 L 353.5988 126.1729 L 353.6906 126.1729 L 353.6906 126.0504 L 354.0566 126.0504 L 354.0566 125.928 L 354.332 125.928 L 354.332 125.8056 L 354.4225 125.8056 L 354.4238 125.6849 L 354.7898 125.6849 L 354.7898 125.5625 L 355.0639 125.5625 L 355.0639 125.4401 L 355.6135 125.4401 L 355.6135 125.5625 L 356.2548 125.5625 L 356.2548 125.4401 L 356.529 125.4401 L 356.529 125.3177 L 356.7126 125.3177 L 356.7126 125.1953 L 356.8962 125.1953 L 356.8962 125.0729 L 356.9868 125.0729 L 356.9868 124.9522 L 357.7199 124.9522 L 357.7199 124.8297 L 358.1777 124.8297 L 358.1777 124.9522 L 358.3613 124.9522 L 358.3613 125.0729 L 358.7273 125.0729 L 358.7273 125.4401 L 358.8191 125.4401 L 358.8191 125.5625 L 359.0014 125.5625 L 359.0014 125.928 L 359.0932 125.928 L 359.0932 126.5384 L 359.185 126.5384 L 359.185 126.6608 L 359.2768 126.6608 L 359.2768 126.9056 L 359.4592 126.9056 L 359.4592 127.028 L 359.551 127.028 L 359.551 127.1487 L 359.7346 127.1487 L 359.7346 127.2711 L 359.8264 127.2711 L 359.8264 127.3936 L 359.9182 127.3936 L 359.9182 127.516 L 360.0087 127.516 L 360.0087 127.6384 L 360.1924 127.6384 L 360.1924 127.7591 L 360.2842 127.7591 L 360.2842 128.0039 L 360.376 128.0039 L 360.376 128.1263 L 360.8337 128.1263 L 360.8337 128.2487 L 361.0161 128.2487 L 361.0161 128.3711 L 361.1079 128.3711 L 361.1079 128.4918 L 361.2915 128.4918 L 361.2915 128.6142 L 361.4738 128.6142 L 361.4738 128.7367 L 362.1152 128.7367 L 362.1152 128.8591 L 362.6648 128.8591 L 362.6648 128.9815 L 362.8484 128.9815 L 362.8484 129.1022 L 363.3061 129.1022 L 363.3061 129.2246 L 363.4885 129.2246 L 363.4885 129.1022 L 363.8557 129.1022 L 363.8557 128.9815 L 364.2217 128.9815 L 364.2217 128.8591 L 364.3135 128.8591 L 364.3135 128.7367 L 365.7559 128.7367 L 366.5029 130.3028 L 367.1971 131.3742 L 367.26 131.3742 L 371.2201 137.2145 L 373.5379 140.0499 L 379.4158 146.4133 L 384.6713 151.6348 L 387.4342 153.9488 L 389.381 155.203 L 391.4421 156.0464 L 395.5218 156.9552 L 397.3742 157.6997 L 398.2017 158.3604 L 398.8531 159.2407 L 399.2945 160.2333 L 399.6894 162.4014 L 399.5724 164.6869 L 398.9462 166.9807 L 398.4507 168.0052 L 396.4737 170.7736 L 391.0322 176.8 L 387.2016 181.4413 L 384.1519 183.7402 L 380.7036 186.859 L 367.0902 200.8484 L 364.5574 203.6318 L 362.2359 206.4505 L 359.3095 211.0751 L 358.6669 211.8699 L 357.9123 212.5557 L 353.4894 215.6862 L 347.917 220.4785 L 345.8735 221.8551 L 344.7668 222.4018 L 342.4742 223.0892 L 340.0949 223.4162 L 337.6727 223.542 L 330.2869 223.4481 L 327.6309 219.8329 L 326.5846 217.8275 L 325.8112 215.2033 L 325.4251 212.4568 L 325.205 206.806 L 325.3257 191.284 L 325.2314 177.8714 L 325.3333 173.9226 L 325.5735 171.3353 L 326.0929 168.8151 L 326.5167 167.6011 L 327.7554 165.3341 L 330.1612 162.2975 L 336.3472 155.5836 L 338.5769 152.4397 L 339.1479 151.2944 L 339.9012 149.019 L 340.8771 144.3542 L 341.5184 142.0755 L 344.3769 136.0223 L 345.5603 132.605 L 345.6219 132.5949 L 346.0898 131.2719 Z" fill="#000000" fill-opacity="1" stroke="#000000" stroke-width="0" paint-order="fill" stroke-opacity="1" stroke-dasharray="" stroke-linecap="butt" stroke-linejoin="miter" stroke-miterlimit="10" transform="matrix(1.100000023841858,0,0,1.100000023841858,-42.50004196166992,-28.349870681762695)" clip-path="none" style="filter: url(#f1)"/>
<path data-code="212" d="M 235.3089 200.4728 L 236.4382 191.5137 L 237.2997 187.9573 L 238.219 185.8999 L 240.2902 181.9829 L 242.1011 177.6551 L 245.3419 171.8182 L 247.129 167.472 L 249.663 162.5322 L 250.4477 160.3591 L 251.1859 156.8462 L 251.9594 153.3552 L 252.7944 151.1921 L 254.4959 148.2628 L 258.9478 141.4534 L 259.5376 139.0723 L 261.6906 132.5446 L 262.513 130.6566 L 265.1753 125.7704 L 268.3784 117.2591 L 269.3354 114.2442 L 269.9001 111.3987 L 269.9001 111.3568 L 269.9001 111.2763 L 269.9906 111.2763 L 269.9919 111.3987 L 270.0824 111.3987 L 270.0824 111.7643 L 270.1743 111.7643 L 270.1743 111.8867 L 270.9074 111.8867 L 270.9074 112.0091 L 271.6393 112.0091 L 271.6393 112.1315 L 271.9148 112.1315 L 271.9148 112.2539 L 273.1044 112.2539 L 273.1044 112.3746 L 273.1962 112.3746 L 273.1962 112.2539 L 273.288 112.2539 L 273.288 112.3746 L 273.9294 112.3746 L 273.9294 112.2539 L 274.1118 112.2539 L 274.1118 112.3746 L 275.3945 112.3746 L 275.3945 112.2539 L 276.1264 112.2539 L 276.1264 112.1315 L 276.676 112.1315 L 276.676 112.2539 L 277.501 112.2539 L 277.501 112.1315 L 278.2329 112.1315 L 278.2329 112.0091 L 278.5988 112.0091 L 278.5988 111.8867 L 278.966 111.8867 L 278.966 112.0091 L 279.0566 112.0091 L 279.0566 112.6194 L 279.1484 112.6194 L 279.1484 112.7418 L 279.332 112.7418 L 279.332 112.8642 L 279.2402 112.8642 L 279.2402 113.1074 L 279.332 113.1074 L 279.332 113.2298 L 279.5156 113.2298 L 279.5156 113.3522 L 280.4311 113.3522 L 280.4311 113.1074 L 280.5229 113.1074 L 280.5229 112.9866 L 280.6135 112.9866 L 280.6135 113.3522 L 280.7053 113.3522 L 280.7053 113.4746 L 280.7971 113.4746 L 280.7971 113.597 L 280.8889 113.597 L 280.8889 113.7177 L 281.0712 113.7177 L 281.0712 113.597 L 281.1631 113.597 L 281.1631 113.4746 L 281.3467 113.4746 L 281.3467 113.597 L 282.6281 113.597 L 282.6281 113.7177 L 282.7199 113.7177 L 282.7199 113.9625 L 282.8117 113.9625 L 282.8117 114.0849 L 282.9036 114.0849 L 282.9036 114.2073 L 282.9954 114.2073 L 282.9954 114.4505 L 283.0859 114.4505 L 283.0859 114.603 L 283.0859 114.6953 L 283.1777 114.6953 L 283.1777 114.8177 L 283.4531 114.8177 L 283.4531 114.9401 L 283.8191 114.9401 L 283.8191 115.0608 L 284.0932 115.0608 L 284.0932 115.1832 L 284.2768 115.1832 L 284.2768 115.0608 L 284.5522 115.0608 L 284.5522 115.1832 L 284.9182 115.1832 L 284.9182 115.3056 L 285.5596 115.3056 L 285.5596 115.428 L 285.9255 115.428 L 285.9255 115.5504 L 286.2915 115.5504 L 286.2915 115.6728 L 286.7493 115.6728 L 286.7493 115.7936 L 287.207 115.7936 L 287.207 115.916 L 287.5742 115.916 L 287.5742 116.0384 L 287.7566 116.0384 L 287.7566 115.916 L 287.8484 115.916 L 287.8484 116.0384 L 288.032 116.0384 L 288.032 116.1608 L 288.2143 116.1608 L 288.2143 116.2832 L 288.4898 116.2832 L 288.4898 116.4039 L 288.6721 116.4039 L 288.6721 116.5263 L 288.8557 116.5263 L 288.8557 116.2832 L 288.9475 116.2832 L 288.9475 116.1608 L 289.0393 116.1608 L 289.0393 116.0384 L 289.3135 116.0384 L 289.3135 115.916 L 289.4971 115.916 L 289.4971 115.7936 L 290.229 115.7936 L 290.229 115.916 L 290.6868 115.916 L 290.6868 116.0384 L 291.1445 116.0384 L 291.1445 116.2832 L 290.8704 116.2832 L 290.8704 116.4039 L 290.6868 116.4039 L 290.6868 116.2832 L 290.4126 116.2832 L 290.4126 116.1608 L 289.6794 116.1608 L 289.6794 116.2832 L 289.3135 116.2832 L 289.3135 116.4039 L 289.2217 116.4039 L 289.2217 116.5263 L 289.1299 116.5263 L 289.1299 116.7711 L 289.2217 116.7711 L 289.2217 116.8935 L 289.4053 116.8935 L 289.4053 117.0159 L 289.4971 117.0159 L 289.4971 117.1367 L 290.1372 117.1367 L 290.1372 117.0159 L 290.229 117.0159 L 290.229 117.1367 L 290.4126 117.1367 L 290.4126 117.2591 L 290.5044 117.2591 L 290.5044 117.747 L 290.595 117.747 L 290.5962 117.9918 L 290.6868 117.9918 L 290.6868 118.1142 L 290.8704 118.1142 L 290.8704 118.2366 L 291.1445 118.2366 L 291.1445 118.359 L 291.2489 118.359 L 291.1043 119.8044 L 290.8578 125.1249 L 290.7169 137.1357 L 290.8465 143.7757 L 291.2099 147.6709 L 291.7218 150.1559 L 292.5392 152.3458 L 294.9223 157.1598 L 295.4618 159.3748 L 295.5737 161.5966 L 295.4555 162.6798 L 294.7576 164.712 L 294.1011 165.5957 L 293.2573 166.2664 L 292.3292 166.7108 L 290.3346 167.1752 L 283.7248 167.8057 L 281.4888 168.4244 L 279.2704 169.6032 L 276.2446 172.001 L 269.6285 178.3694 L 266.6367 180.7723 L 264.5415 181.9661 L 260.4544 183.8995 L 255.7309 186.6343 L 252.597 188.0428 L 250.498 189.2132 L 248.462 190.7189 L 241.7779 196.4016 L 235.3089 200.4728 Z" fill="#000000" fill-opacity="1" stroke="#000000" stroke-width="0" paint-order="fill" stroke-opacity="1" stroke-dasharray="" stroke-linecap="butt" stroke-linejoin="miter" stroke-miterlimit="10" transform="matrix(1.100000023841858,0,0,1.100000023841858,-42.50004196166992,-28.349870681762695)" clip-path="none" style="filter: url(#f1)"/>
<path data-code="213" d="M 406.3785 478.6695 L 401.816 479.7377 L 399.575 480.462 L 396.7668 481.9259 L 391.5402 485.3063 L 389.5407 485.8864 L 385.988 487.7041 L 384.0752 488.4838 L 381.8581 488.7839 L 380.7338 488.7084 L 378.6173 488.1199 L 373.9629 485.5829 L 369.7802 483.7334 L 364.1387 480.3312 L 359.9685 478.3778 L 357.2156 476.4612 L 352.0306 471.9892 L 350.2222 470.6596 L 348.2377 469.5713 L 345.0925 468.1846 L 339.4296 464.8814 L 335.2469 462.9765 L 333.3831 461.7659 L 329.8971 458.8449 L 325.3132 454.321 L 322.4761 451.831 L 319.5031 449.7836 L 315.5317 447.7631 L 313.815 446.4518 L 312.3361 444.8287 L 311.7124 443.9031 L 310.7478 441.7099 L 310.241 439.2199 L 310.0373 436.646 L 310.0096 426.0387 L 309.7681 422.11 L 308.9985 418.3691 L 306.77 413.3303 L 305.7778 409.8259 L 305.3754 405.9475 L 305.1717 395.3116 L 304.7277 390.1035 L 304.1404 387.6303 L 301.9246 382.5731 L 301.1738 380.2877 L 300.6984 377.697 L 299.9866 371.0519 L 299.5226 368.4529 L 298.7831 366.154 L 296.9697 362.1298 L 296.2327 359.8309 L 295.7737 357.2285 L 295.0996 350.57 L 294.6406 347.9643 L 293.8936 345.6587 L 291.6287 340.6166 L 290.4956 335.9904 L 290.1988 329.7662 L 289.4606 326.1963 L 288.5853 324.1288 L 286.5707 320.1901 L 284.3749 314.821 L 280.6009 307.5153 L 280.5167 298.9134 L 287.8811 300.4946 L 291.1433 301.6365 L 295.9158 304.2841 L 299.0371 305.7245 L 301.0933 306.9016 L 303.0514 308.3788 L 307.7585 312.4249 L 310.7453 314.5326 L 314.8915 316.5263 L 320.5369 319.8631 L 324.7246 321.7176 L 328.5112 323.8186 L 330.507 324.7442 L 334.1704 325.5876 L 337.9997 325.8744 L 365.4554 326.0789 L 369.1162 325.8442 L 371.3761 325.3411 L 372.4148 324.8985 L 373.3593 324.2747 L 374.1013 323.5269 L 378.4085 316.3167 L 381.2771 309.9047 L 387.7536 300.726 L 390.2198 295.5548 L 391.4698 293.7908 L 392.2118 293.0111 L 393.9246 291.7233 L 396.0084 290.957 L 397.129 290.838 L 399.3473 291.0996 L 401.2765 291.8709 L 404.0117 293.3599 L 406.0151 294.2419 L 411.5723 295.9941 L 415.7513 297.6474 L 411.2265 303.6888 L 410.1664 305.706 L 409.7702 306.868 L 409.3263 309.2675 L 409.2873 311.6955 L 409.6935 314.0916 L 410.1148 315.2503 L 410.6644 316.2698 L 412.0892 318.022 L 413.8523 319.3886 L 414.8458 319.9033 L 415.9513 320.2957 L 418.2137 320.725 L 424.9179 321.2599 L 426.9162 321.7612 L 427.8065 322.1804 L 430.5833 324.4893 L 434.7182 327.1722 L 436.8939 329.5448 L 437.988 331.4983 L 438.3866 332.6385 L 438.8519 335.0179 L 439.326 346.2121 L 439.8416 349.8423 L 440.5472 352.0439 L 442.7567 357.1028 L 443.3076 359.4469 L 443.6622 363.1275 L 443.9753 371.8417 L 444.6481 375.4116 L 445.6228 377.5159 L 446.2604 378.418 L 447.7556 379.9774 L 449.4534 381.1831 L 453.1872 382.9604 L 454.7428 384.1325 L 455.9639 385.645 L 456.3877 386.537 L 456.6292 387.5213 L 456.6392 388.529 L 456.1702 390.402 L 453.699 396.2137 L 452.5332 398.3483 L 451.0216 400.3487 L 448.402 403.0902 L 445.5146 405.4914 L 443.4509 406.7875 L 438.2256 409.2994 L 435.2804 411.5328 L 432.6256 414.1872 L 431.0851 416.1691 L 429.8652 418.3892 L 429.4515 419.5613 L 428.7849 423.2183 L 428.5774 428.2302 L 428.8088 433.2371 L 429.4867 436.8858 L 430.46 439.2065 L 431.8635 441.3259 L 434.3699 444.2267 L 438.8431 448.6803 L 435.9683 452.3591 L 433.1613 456.598 L 432.4508 457.3174 L 430.6852 458.3067 L 425.5202 459.7018 L 423.4264 460.619 L 421.4608 461.9369 L 418.6827 464.323 L 415.1527 467.8509 L 411.7899 471.555 L 410.2179 473.4682 L 406.3785 478.6695 Z" fill="#000000" fill-opacity="1" stroke="#000000" stroke-width="0" paint-order="fill" stroke-opacity="1" stroke-dasharray="" stroke-linecap="butt" stroke-linejoin="miter" stroke-miterlimit="10" transform="matrix(1.100000023841858,0,0,1.100000023841858,-42.50004196166992,-28.349870681762695)" clip-path="none" style="filter: url(#f1)"/>
<path data-code="214" d="M 598.0298 139.5838 L 597.3633 148.2561 L 590.5157 146.6313 L 587.2661 145.4676 L 582.4986 142.8015 L 579.3848 141.3444 L 577.3362 140.1623 L 570.6647 134.7177 L 567.5811 132.7693 L 565.3853 131.9812 L 560.8844 130.9215 L 558.7013 130.2407 L 552.8409 127.4522 L 549.0883 126.6273 L 543.8517 126.411 L 538.5987 126.8737 L 534.294 127.9989 L 533.7369 122.5577 L 533.5118 117.97 L 533.4602 88.8091 L 533.1144 77.5143 L 533.0163 77.5864 L 533.098 74.5246 L 533.3596 74.5246 L 533.3596 74.4022 L 533.635 74.4022 L 533.635 74.2798 L 534.2764 74.2798 L 534.2764 74.1574 L 534.5506 74.1574 L 534.5506 74.0366 L 534.826 74.0366 L 534.826 73.9142 L 535.0083 73.9142 L 535.0083 73.7918 L 535.1001 73.7918 L 535.1001 73.6694 L 535.1919 73.6694 L 535.1919 73.547 L 535.3743 73.547 L 535.3743 73.4263 L 535.4661 73.4263 L 535.4661 73.3039 L 535.9238 73.3039 L 535.9238 73.1815 L 536.1074 73.1815 L 536.1074 73.0591 L 536.1992 73.0591 L 536.1992 72.9367 L 536.3816 72.9367 L 536.3816 72.8143 L 536.5652 72.8143 L 536.5652 72.6935 L 536.657 72.6935 L 536.657 72.5711 L 536.7488 72.5711 L 536.7488 72.4487 L 537.023 72.4487 L 537.023 72.3263 L 537.5725 72.3263 L 537.5725 72.6935 L 537.6643 72.6935 L 537.6643 73.1815 L 537.7561 73.1815 L 537.7561 73.3039 L 538.1221 73.3039 L 538.1221 73.4263 L 538.2139 73.4263 L 538.2139 73.547 L 538.3963 73.547 L 538.3963 73.6694 L 538.4881 73.6694 L 538.4881 73.7918 L 538.6717 73.7918 L 538.6717 73.9142 L 538.7635 73.9142 L 538.7635 74.0366 L 538.9458 74.0366 L 538.9458 74.1574 L 539.1294 74.1574 L 539.1294 74.2798 L 539.2212 74.2798 L 539.2212 74.4022 L 539.4036 74.4022 L 539.4036 74.5246 L 539.679 74.5246 L 539.679 74.647 L 539.9531 74.647 L 539.9531 74.7694 L 540.045 74.7694 L 540.045 74.8901 L 540.2286 74.8901 L 540.2286 75.0125 L 541.7855 75.0125 L 541.7855 75.1349 L 541.876 75.1349 L 541.876 75.2573 L 541.9678 75.2573 L 541.9678 75.3797 L 542.0596 75.3797 L 542.0596 75.5005 L 542.8833 75.5005 L 542.8833 75.3797 L 543.0669 75.3797 L 543.0669 75.1349 L 543.9825 75.1349 L 543.9825 75.0125 L 544.6238 75.0125 L 544.6238 74.8901 L 544.8074 74.8901 L 544.8074 75.0125 L 546.5467 75.0125 L 546.5467 75.1349 L 546.6385 75.1349 L 546.6385 75.2573 L 546.7303 75.2573 L 546.7303 75.3797 L 547.7829 75.3797 L 548.379 75.3797 L 548.379 75.5005 L 548.6531 75.5005 L 548.6531 75.6229 L 548.9273 75.6229 L 548.9273 75.5005 L 549.0191 75.5005 L 549.0191 75.3797 L 549.1109 75.3797 L 549.1109 75.3244 L 549.1109 75.2573 L 549.2027 75.2573 L 549.2027 75.1349 L 549.4769 75.1349 L 549.4769 75.2573 L 549.8441 75.2573 L 549.8441 75.1349 L 550.21 75.1349 L 550.21 75.2573 L 550.576 75.2573 L 550.576 75.1349 L 551.2174 75.1349 L 551.2174 75.0125 L 551.4915 75.0125 L 551.4915 74.8901 L 551.6751 74.8901 L 551.6751 74.7694 L 552.1329 74.7694 L 552.1329 74.647 L 552.3165 74.647 L 552.3165 74.5246 L 552.8661 74.5246 L 552.8661 74.647 L 552.9566 74.647 L 552.9566 74.7694 L 553.0484 74.7694 L 553.0484 74.8901 L 553.1402 74.8901 L 553.1402 75.1349 L 553.232 75.1349 L 553.232 75.3797 L 553.4156 75.3797 L 553.4156 75.425 L 553.4156 75.5005 L 554.7889 75.5005 L 554.7889 75.3797 L 555.1549 75.3797 L 555.1549 75.2573 L 555.5208 75.2573 L 555.5208 75.1349 L 555.888 75.1349 L 555.888 75.0125 L 556.0704 75.0125 L 556.0704 74.8901 L 556.4376 74.8901 L 556.4376 75.0125 L 556.62 75.0125 L 556.62 74.8901 L 556.8036 74.8901 L 556.8036 74.7694 L 557.2613 74.7694 L 557.2613 74.647 L 557.9932 74.647 L 557.9932 74.7694 L 558.1768 74.7694 L 558.1768 74.8901 L 558.5428 74.8901 L 558.5428 75.0125 L 558.7264 75.0125 L 558.7264 75.1349 L 558.91 75.1349 L 558.91 75.2573 L 559.0006 75.2573 L 559.276 75.2573 L 559.276 75.1349 L 559.8255 75.1349 L 559.8255 75.2573 L 561.107 75.2573 L 561.107 75.5005 L 561.0152 75.5005 L 561.0152 75.6229 L 560.0997 75.6229 L 560.0997 75.7453 L 560.0079 75.7453 L 560.0079 76.2332 L 560.1915 76.2332 L 560.1915 76.3556 L 560.2833 76.3556 L 560.2833 76.478 L 560.3751 76.478 L 560.3751 76.7228 L 560.4657 76.7228 L 560.4657 76.8436 L 560.8329 76.8436 L 560.8329 76.966 L 561.0152 76.966 L 561.0152 77.0884 L 561.5648 77.0884 L 561.5648 77.3332 L 562.1144 77.3332 L 562.1144 77.2108 L 562.7557 77.2108 L 562.7557 77.3332 L 565.7777 77.3332 L 565.7777 77.2108 L 566.6014 77.2108 L 566.6014 77.0884 L 567.6088 77.0884 L 567.6088 76.966 L 568.0665 76.966 L 568.0665 76.8436 L 568.4337 76.8436 L 568.4337 76.7228 L 568.8915 76.7228 L 568.8915 76.6004 L 569.2574 76.6004 L 569.2574 76.478 L 569.7152 76.478 L 569.7152 76.3556 L 570.173 76.3556 L 570.173 76.2332 L 570.8143 76.2332 L 570.8143 76.1125 L 570.9979 76.1125 L 570.9979 76.2332 L 571.2721 76.2332 L 571.2721 76.1125 L 571.6381 76.1125 L 571.6381 75.9901 L 572.0053 75.9901 L 572.0053 75.8677 L 572.3712 75.8677 L 572.3712 75.7453 L 573.1031 75.7453 L 573.1031 75.6229 L 574.2941 75.6229 L 574.2941 75.5005 L 574.5682 75.5005 L 574.5682 75.3797 L 576.4005 75.3797 L 576.4005 75.2573 L 576.7665 75.2573 L 576.7665 75.1349 L 577.1325 75.1349 L 577.1325 75.0125 L 577.5902 75.0125 L 577.5902 74.8901 L 577.9574 74.8901 L 577.9574 74.7694 L 578.1398 74.7694 L 578.1398 74.647 L 578.2354 74.647 L 578.2266 75.2473 L 578.0656 75.2925 L 577.9625 97.6021 L 578.2417 101.6801 L 579.0817 105.5786 L 581.9855 111.5681 L 583.7486 115.9109 L 586.6247 121.8903 L 588.2407 128.7652 L 589.0141 131.007 L 589.5348 132.0064 L 590.8326 133.8391 L 592.3845 135.4639 L 594.1765 136.9076 L 598.0298 139.5838 Z" fill="#000000" fill-opacity="1" stroke="#000000" stroke-width="0" paint-order="fill" stroke-opacity="1" stroke-dasharray="" stroke-linecap="butt" stroke-linejoin="miter" stroke-miterlimit="10" transform="matrix(1.100000023841858,0,0,1.100000023841858,-42.50004196166992,-28.349870681762695)" clip-path="none" style="filter: url(#f1)"/>
<path data-code="215" d="M 449.0434 259.3882 L 445.7045 258.5146 L 443.5666 257.5287 L 441.5721 256.1571 L 436.8498 252.2485 L 434.8352 250.8702 L 433.7499 250.3101 L 432.6394 249.8859 L 430.333 249.3225 L 421.6418 248.2946 L 423.3358 244.9008 L 425.3517 239.3406 L 428.4668 233.44 L 430.3028 229.1189 L 432.8444 224.1775 L 433.9247 220.5942 L 434.4152 215.3157 L 434.3711 211.335 L 434.1636 208.7427 L 433.4368 205.1007 L 433.0255 204.0074 L 431.8057 201.7488 L 430.3959 198.6401 L 429.8375 196.5022 L 429.4175 192.8417 L 429.4288 189.0355 L 429.6678 186.5572 L 430.1482 184.1812 L 430.9329 182.0567 L 432.3628 179.2263 L 433.1161 177.251 L 433.3802 174.9739 L 433.277 173.8186 L 433.0067 172.6835 L 431.9692 170.5439 L 430.5519 168.6223 L 426.676 163.9508 L 425.4448 161.8078 L 425.0285 160.6576 L 424.5607 158.2598 L 424.4991 155.8117 L 424.8537 153.377 L 425.7617 151.0278 L 427.1526 148.9285 L 429.6929 146.145 L 432.5703 143.7321 L 434.6855 142.4527 L 435.7708 141.9832 L 441.9695 139.8135 L 445.2229 138.9281 L 447.5582 140.61 L 450.2972 143.1855 L 451.8755 145.1356 L 453.1205 147.3087 L 453.8751 149.5841 L 455.4018 156.5293 L 457.5749 161.6083 L 458.2389 163.825 L 458.6011 166.2144 L 459.133 173.4799 L 459.6097 175.8207 L 460.5529 177.9519 L 461.9287 179.7075 L 463.6465 181.0992 L 465.714 182.0332 L 467.9726 182.4859 L 473.7588 182.885 L 476.0426 183.212 L 478.2295 183.9263 L 479.1828 184.4578 L 480.8704 185.8194 L 482.2563 187.4626 L 483.3252 189.3473 L 484.7212 192.3538 L 485.9674 194.1278 L 487.518 195.6336 L 489.3428 196.7705 L 491.5348 197.4529 L 493.8261 197.691 L 496.047 197.6357 L 499.2174 197.2936 L 498.9407 203.1959 L 498.8527 212.0376 L 498.6615 214.4773 L 498.1862 216.8466 L 497.7661 217.9868 L 496.5865 219.9251 L 495.0196 221.5164 L 494.1128 222.1653 L 492.0189 223.1077 L 488.5568 223.6443 L 480.1599 223.6711 L 476.5921 223.9947 L 474.292 224.6419 L 473.1765 225.1785 L 471.1304 226.5702 L 468.4065 229.1357 L 466.0523 232.0483 L 464.7708 234.156 L 462.848 238.4318 L 460.7453 241.6194 L 453.8084 249.4768 L 451.453 252.5587 L 450.2444 254.8022 L 449.8395 255.9257 L 449.0434 259.3882 Z" fill="#000000" fill-opacity="1" stroke="#000000" stroke-width="0" paint-order="fill" stroke-opacity="1" stroke-dasharray="" stroke-linecap="butt" stroke-linejoin="miter" stroke-miterlimit="10" transform="matrix(1.100000023841858,0,0,1.100000023841858,-42.50004196166992,-28.349870681762695)" clip-path="none" style="filter: url(#f1)"/>
















</svg>