<?xml version="1.0" standalone="no"?>
<!-- Generator: Paintmaps.com , Online SVG vector map maker -->
<svg xmlns="http://www.w3.org/2000/svg" version="1.1" baseProfile="full"   style="background-color:#e0f2f1" width="800" height="500" viewBox="0 0 800 533">

<path data-code="200" d="M 489.8813 394.9381 L 486.5173 392.3272 L 484.2934 390.3054 L 473.7908 379.4534 L 470.1902 376.0769 L 467.8527 374.4428 L 465.0921 373.177 L 463.63 372.3655 L 462.1324 371.2733 L 459.9763 369.4364 L 460.0628 362.0734 L 460.2451 360.0197 L 460.6057 358.0258 L 461.2175 356.1958 L 463.1496 352.0467 L 465.1796 344.4391 L 467.4629 339.4855 L 467.8996 337.5458 L 468.0194 335.5477 L 467.8423 333.5523 L 467.6286 332.5727 L 466.8783 330.6913 L 465.782 328.9906 L 462.0251 324.1912 L 461.0267 322.3904 L 460.3827 320.3478 L 460.0325 318.2094 L 459.8512 316.0251 L 459.7668 309.4541 L 460.0096 306.3319 L 460.4431 304.4018 L 460.8079 303.5125 L 461.3133 302.7025 L 462.5889 301.5339 L 468.502 297.9212 L 472.0098 296.4761 L 476.8588 294.0291 L 478.7107 293.4775 L 483.4222 292.459 L 485.1646 291.8226 L 489.2185 289.8995 L 491.0495 289.3659 L 494.8074 288.5628 L 496.6437 287.9653 L 499.0468 286.6231 L 505.1673 282.2864 L 510.7156 285.0043 L 512.036 286.0409 L 512.8978 287.5026 L 514.4193 292.7244 L 515.3708 294.4905 L 516.5922 296.1356 L 518.7244 298.388 L 520.2823 299.715 L 521.9373 300.8294 L 525.2471 302.5427 L 527.3209 304.2518 L 528.9456 306.418 L 531.008 310.7686 L 532.7588 313.2919 L 534.1 314.8426 L 535.5652 316.2391 L 537.2087 317.3729 L 538.1351 317.7772 L 539.0907 318.0148 L 541.0322 318.0148 L 541.9879 317.7772 L 542.9133 317.3729 L 544.5567 316.2363 L 546.6983 314.0714 L 548.5418 311.6078 L 549.5329 309.8556 L 551.0471 306.3874 L 552.0642 304.8882 L 553.345 303.5945 L 554.0797 303.0457 L 555.843 302.1897 L 557.8679 301.7312 L 561.0287 301.5019 L 579.5974 301.5742 L 583.8618 301.8632 L 585.9189 302.3078 L 586.9079 302.6705 L 587.8135 303.1304 L 589.4872 304.2726 L 594.1413 308.2341 L 595.79 309.3735 L 603.977 313.6018 L 605.955 314.1256 L 609.0543 314.448 L 621.8152 314.4716 L 625.9597 314.8537 L 627.9283 315.3762 L 632.768 317.7814 L 637.345 319.3265 L 640.4016 320.6466 L 637.1168 327.4593 L 635.7026 331.1346 L 633.487 335.1864 L 631.6435 339.6273 L 629.0257 344.4933 L 627.5125 348.0894 L 626.4756 349.7999 L 625.2406 351.4117 L 623.1856 353.7127 L 620.9971 355.9095 L 618.7159 357.9646 L 616.319 359.7251 L 612.0952 361.7316 L 611.3376 362.2151 L 609.9567 363.4018 L 608.8083 364.858 L 608.3592 365.6958 L 607.7776 367.6328 L 607.6463 368.6319 L 607.6255 370.6508 L 607.9183 372.6517 L 608.2039 373.6258 L 609.4471 376.1088 L 611.6752 379.898 L 612.7153 381.3028 L 614.0992 382.3352 L 620.1863 385.8965 L 626.2109 388.0002 L 629.2956 388.7381 L 628.1294 395.9941 L 627.6751 397.9727 L 626.8987 399.85 L 625.8076 401.5563 L 624.5351 403.1459 L 622.4488 405.4122 L 618.7221 408.9429 L 616.3106 410.7646 L 614.5734 411.6983 L 612.7465 412.4612 L 605.2859 411.9651 L 601.9803 411.9943 L 598.7434 412.2555 L 595.6639 412.9655 L 590.7888 415.1971 L 588.7462 415.7334 L 584.4245 416.1517 L 574.4221 416.2184 L 570.0556 416.5005 L 566.9511 417.2008 L 562.0718 419.4323 L 560.0282 419.9826 L 557.8929 420.2924 L 554.6018 420.512 L 549.0275 420.6023 L 544.5744 420.537 L 541.2907 420.291 L 539.1647 419.8992 L 537.1169 419.1572 L 530.8527 415.8279 L 529.1863 414.6844 L 527.0145 412.3055 L 524.2185 407.2519 L 522.7668 405.6692 L 520.966 404.4465 L 518.9328 403.7601 L 516.7912 403.4516 L 506.7492 403.3349 L 504.5243 403.1612 L 502.3379 402.7415 L 500.3933 401.9954 L 498.7113 401.0144 L 489.8813 394.9381 Z" fill="#000000" fill-opacity="1" stroke="#000000" stroke-width="0" paint-order="fill" stroke-opacity="1" stroke-dasharray="" stroke-linecap="butt" stroke-linejoin="miter" stroke-miterlimit="10" transform="matrix(1.100000023841858,0,0,1.100000023841858,-39.99991226196289,-26.649921417236328)" clip-path="none" style="filter: url(#f1)"/>
<path data-code="201" d="M 198.3439 215.8137 L 202.354 216.6349 L 203.9985 217.2588 L 204.7405 217.7409 L 205.9046 219.0429 L 208.1493 222.7584 L 208.9591 224.3953 L 209.5187 226.2572 L 209.7094 229.2641 L 209.4853 231.2456 L 208.9789 233.1256 L 207.4511 236.2464 L 206.8154 237.8527 L 206.5694 239.7174 L 206.8696 241.6127 L 207.6887 243.2273 L 208.241 243.9332 L 209.5531 245.1407 L 211.1215 246.0647 L 213.6685 247.1221 L 217.6286 249.205 L 221.8242 251.1378 L 223.2748 252.2285 L 224.5035 253.5972 L 225.4372 255.216 L 226.0188 257.2641 L 226.247 259.3901 L 226.4335 266.8184 L 226.7889 268.7609 L 227.1213 269.6585 L 227.6018 270.477 L 228.8398 271.6469 L 233.1594 274.4093 L 234.7216 275.2819 L 237.3332 276.4129 L 239.0694 277.3286 L 246.481 282.8617 L 251.4009 285.2947 L 253.2653 286.9774 L 254.0948 288.428 L 254.297 289.3201 L 254.2918 290.2344 L 254.0552 291.139 L 253.556 291.9713 L 252.8015 292.6091 L 251.9772 292.9689 L 251.1112 293.1635 L 248.2568 293.2913 L 232.9218 292.723 L 229.6683 292.8856 L 227.5538 293.2677 L 225.5873 294.0569 L 223.8678 295.1949 L 221.6064 297.2945 L 220.3245 298.8883 L 219.3251 300.6599 L 218.9896 301.6298 L 218.7697 303.5862 L 218.8572 304.5477 L 219.3637 306.3068 L 220.8967 309.361 L 221.4813 311.0492 L 221.7366 312.8764 L 221.6397 314.6661 L 221.1124 316.2863 L 220.6445 316.9658 L 219.4064 317.8523 L 216.6781 318.8388 L 216.0153 319.1959 L 215.3984 319.6961 L 214.8638 320.3937 L 214.1791 322.1069 L 213.8404 324.0675 L 213.7018 326.1657 L 213.6914 329.4422 L 213.905 333.8622 L 214.5074 338.0724 L 216.081 342.9371 L 216.0758 344.5489 L 215.6224 346.1093 L 213.2745 352.0203 L 210.6494 356.9683 L 204.8729 351.5506 L 202.7229 349.7887 L 201.2108 348.8119 L 198.6409 347.5933 L 196.9381 346.6401 L 194.5203 344.7476 L 189.9777 340.3026 L 178.1349 327.8637 L 175.0762 324.9805 L 172.5939 323.1991 L 169.1517 321.5928 L 165.2187 319.421 L 164.3746 319.0639 L 162.4352 318.5512 L 158.3698 318.1844 L 127.949 318.3553 L 124.8497 318.2663 L 121.8275 317.8898 L 119.9037 317.2881 L 118.1487 316.2793 L 112.6796 311.7051 L 111.0049 310.5976 L 104.327 307.6561 L 101.0526 306.4347 L 105.2419 303.1082 L 107.5617 300.8822 L 109.6137 298.4631 L 110.7298 296.7081 L 111.156 295.816 L 112.2701 293.1343 L 114.3366 289.0311 L 114.9515 287.1886 L 115.2996 285.1946 L 115.8258 279.0933 L 116.1593 277.1285 L 116.7314 275.3444 L 118.1216 272.1972 L 118.5427 270.5895 L 118.6542 269.4835 L 123.4813 266.8628 L 127.3862 264.3659 L 130.769 262.7263 L 132.451 261.7675 L 134.7864 259.9028 L 141.405 253.5458 L 143.8081 251.7797 L 144.6793 251.3254 L 146.5135 250.6959 L 150.2693 249.9067 L 152.0983 249.3828 L 156.1397 247.4431 L 157.8831 246.8067 L 162.5967 245.8146 L 164.4423 245.2602 L 169.2538 242.7535 L 172.7794 241.2973 L 176.7218 239.0685 L 180.8674 237.0593 L 181.6114 236.5438 L 182.9443 235.2974 L 184.024 233.8009 L 184.4387 232.963 L 184.7608 232.0251 L 185.1203 230.0825 L 185.4006 225.1137 L 185.6247 223.1517 L 186.1614 221.2494 L 187.0951 219.6348 L 188.3603 218.2884 L 189.0971 217.7312 L 190.8051 216.8989 L 192.6903 216.4529 L 198.3439 215.8137 Z" fill="#000000" fill-opacity="1" stroke="#000000" stroke-width="0" paint-order="fill" stroke-opacity="1" stroke-dasharray="" stroke-linecap="butt" stroke-linejoin="miter" stroke-miterlimit="10" transform="matrix(1.100000023841858,0,0,1.100000023841858,-39.99991226196289,-26.649921417236328)" clip-path="none" style="filter: url(#f1)"/>
<path data-code="202" d="M 466.4021 444.934 L 463.8144 445.3939 L 459.6126 445.6913 L 444.7205 445.7427 L 441.6295 446.0678 L 439.6537 446.5875 L 430.5663 451.2715 L 423.3912 457.0158 L 419.1393 459.2501 L 417.4656 460.377 L 414.3465 463.1463 L 406.1898 471.525 L 403.797 473.4995 L 402.015 474.5083 L 400.0224 475.1141 L 396.9096 475.4754 L 392.6546 475.5379 L 381.8539 475.374 L 378.9401 472.9854 L 377.3477 472.0113 L 375.6553 471.318 L 372.3841 470.4009 L 368.523 470.8358 L 364.5535 470.6927 L 361.7293 470.0452 L 357.7557 468.1221 L 356.0143 467.5149 L 354.1186 467.2036 L 351.2215 467.2606 L 349.3321 467.6927 L 348.4849 468.0276 L 341.1701 471.9043 L 339.5204 473.0521 L 334.0159 477.5749 L 332.2484 478.5657 L 330.136 479.2146 L 326.8189 479.612 L 323.4205 479.6995 L 300.4207 479.5161 L 293.0018 479.2076 L 290.6611 471.4778 L 288.4237 466.4339 L 287.8943 464.2482 L 287.6192 461.9749 L 287.442 454.9412 L 287.7359 415.7585 L 287.591 412.275 L 287.2909 410.0045 L 286.6719 407.8188 L 285.611 405.8012 L 284.2823 403.9601 L 280.6244 399.5582 L 277.1207 394.8394 L 282.9963 391.5393 L 287.3107 389.6482 L 292.1222 387.1499 L 299.5318 385.2004 L 304.4277 382.9619 L 307.4791 382.3046 L 314.9313 381.8669 L 318.0702 381.5071 L 320.9017 380.6567 L 324.9462 378.7544 L 328.0309 378.0514 L 331.2678 377.7887 L 334.5682 377.7193 L 366.818 377.7457 L 372.3132 377.8902 L 374.46 378.1028 L 376.539 378.5085 L 378.3669 379.1671 L 382.3864 381.1236 L 385.3774 381.8544 L 390.6568 382.2491 L 397.0711 382.1768 L 399.1689 381.9767 L 401.2126 381.5779 L 403.8617 380.4899 L 411.2326 376.4493 L 416.658 371.8569 L 418.3223 370.7189 L 419.231 370.2701 L 421.1183 369.7338 L 424.03 369.6337 L 425.9413 370.0005 L 426.8636 370.3382 L 427.7598 370.8009 L 429.3949 371.9625 L 433.1914 375.3126 L 434.8265 376.5007 L 435.7196 376.9842 L 437.7528 377.6595 L 440.9011 377.9986 L 443.9347 377.6998 L 445.7428 377.0495 L 447.1028 375.9462 L 448.9682 373.2978 L 450.1187 372.064 L 451.4996 370.9913 L 452.2812 370.5563 L 453.168 370.1992 L 455.0428 369.7588 L 459.9763 369.4364 L 462.1324 371.2733 L 463.63 372.3655 L 465.0921 373.177 L 467.8527 374.4428 L 470.1902 376.0769 L 473.7908 379.4534 L 484.2934 390.3054 L 486.5173 392.3272 L 489.8813 394.9381 L 483.0428 400.7268 L 480.7929 402.9694 L 478.7201 405.3399 L 476.9922 407.9063 L 475.4123 411.4593 L 473.7491 414.7135 L 472.7455 417.4606 L 472.4006 419.5727 L 472.2161 422.8325 L 472.1494 431.6433 L 471.9754 433.8054 L 471.5887 435.9133 L 471.2699 436.9304 L 470.4664 438.6381 L 466.4021 444.934 Z" fill="#000000" fill-opacity="1" stroke="#000000" stroke-width="0" paint-order="fill" stroke-opacity="1" stroke-dasharray="" stroke-linecap="butt" stroke-linejoin="miter" stroke-miterlimit="10" transform="matrix(1.100000023841858,0,0,1.100000023841858,-39.99991226196289,-26.649921417236328)" clip-path="none" style="filter: url(#f1)"/>
<path data-code="203" d="M 82.7454 250.3263 L 84.9569 247.3236 L 85.8197 245.6576 L 86.1688 244.6446 L 86.7274 241.4529 L 87.0599 234.8597 L 87.3986 231.6138 L 87.9009 229.5448 L 89.7705 225.3666 L 90.4082 223.4893 L 90.8115 221.3703 L 91.0867 218.0814 L 91.0669 213.6419 L 90.8762 211.4492 L 90.4885 209.3149 L 89.8476 207.4113 L 87.8748 203.2581 L 86.3992 198.5129 L 84.7693 194.3902 L 91.3618 191.8474 L 93.4481 191.3708 L 99.8677 190.6386 L 101.953 190.2453 L 103.7996 189.6214 L 107.0407 188.0916 L 108.8863 187.4538 L 118.3738 185.9795 L 124.1879 183.7091 L 125.1592 183.5159 L 127.1121 183.4492 L 129.5747 183.9189 L 134.5436 188.703 L 137.4032 190.6816 L 144.7043 194.4152 L 146.773 194.9641 L 150.013 195.3337 L 154.4451 195.4657 L 161.1408 195.4212 L 164.4381 195.2253 L 167.6271 194.6751 L 169.6478 193.9081 L 173.4255 191.8169 L 176.8614 190.2328 L 180.6308 188.1569 L 181.6385 187.7303 L 183.7718 187.1954 L 185.9863 186.9967 L 188.2321 187.0467 L 190.4727 187.3287 L 193.6481 188.1069 L 193.7179 193.519 L 194.0493 196.9636 L 194.563 199.1507 L 196.3024 203.1789 L 197.0048 205.2812 L 197.4185 207.5086 L 198.3439 215.8137 L 192.6903 216.4529 L 190.8051 216.8989 L 189.0971 217.7312 L 188.3603 218.2884 L 187.0951 219.6348 L 186.1614 221.2494 L 185.6247 223.1517 L 185.4006 225.1137 L 185.1203 230.0825 L 184.7608 232.0251 L 184.4387 232.963 L 184.024 233.8009 L 182.9443 235.2974 L 181.6114 236.5438 L 180.8674 237.0593 L 176.7218 239.0685 L 172.7794 241.2973 L 169.2538 242.7535 L 164.4423 245.2602 L 162.5967 245.8146 L 157.8831 246.8067 L 156.1397 247.4431 L 152.0983 249.3828 L 150.2693 249.9067 L 146.5135 250.6959 L 144.6793 251.3254 L 143.8081 251.7797 L 141.405 253.5458 L 134.7864 259.9028 L 132.451 261.7675 L 130.769 262.7263 L 127.3862 264.3659 L 123.4813 266.8628 L 118.6542 269.4835 L 119.4191 265.1927 L 119.664 263.0695 L 119.7755 259.9487 L 119.5087 256.8945 L 118.9408 254.9409 L 117.9935 253.2915 L 117.4067 252.5634 L 116.0572 251.3017 L 114.4659 250.3277 L 109.7731 248.3199 L 108.2287 247.9197 L 107.4106 247.9086 L 106.5363 248.0975 L 104.9554 248.9173 L 100.5169 252.5829 L 98.8089 253.625 L 97.8949 253.9918 L 95.9805 254.4629 L 93.0209 254.7172 L 90.0893 254.549 L 88.4761 254.2225 L 87.1974 253.7612 L 85.5727 252.7913 L 82.7454 250.3263 Z" fill="#000000" fill-opacity="1" stroke="#000000" stroke-width="0" paint-order="fill" stroke-opacity="1" stroke-dasharray="" stroke-linecap="butt" stroke-linejoin="miter" stroke-miterlimit="10" transform="matrix(1.100000023841858,0,0,1.100000023841858,-39.99991226196289,-26.649921417236328)" clip-path="none" style="filter: url(#f1)"/>
<path data-code="204" d="M 320.7516 212.3969 L 319.8044 208.5702 L 317.9139 204.4016 L 317.3178 202.5008 L 316.9135 199.2744 L 316.6477 190.5107 L 316.2528 188.4181 L 315.8911 187.4135 L 314.9261 185.8128 L 313.6516 184.4914 L 312.127 183.4951 L 310.3387 182.867 L 306.6412 182.1667 L 304.8112 181.6804 L 303.1605 180.962 L 299.9622 179.2863 L 297.3443 178.1455 L 295.6206 177.1728 L 293.2404 175.2233 L 291.1051 172.9821 L 289.2595 170.6171 L 287.393 167.5797 L 286.229 166.3597 L 279.552 161.9424 L 275.7024 159.9151 L 276.5215 157.571 L 278.8309 152.541 L 279.3467 150.6374 L 280.2971 145.7769 L 280.9287 143.9733 L 283.8977 138.6292 L 285.0461 137.3148 L 285.8652 136.7812 L 287.7129 136.1434 L 290.7716 135.7932 L 298.4657 135.8266 L 303.9983 136.1462 L 306.143 136.463 L 308.195 137.0174 L 312.2437 138.9252 L 313.9986 139.5408 L 316.8885 140.041 L 320.8715 140.3078 L 325.4006 140.6774 L 327.5912 141.0845 L 334.6297 143.8732 L 336.864 144.2873 L 340.3364 144.5652 L 405.2206 144.6569 L 401.9556 151.0848 L 400.8603 152.2798 L 398.85 153.647 L 397.5797 154.685 L 396.4469 155.9467 L 395.9717 156.6762 L 395.3339 158.4186 L 395.2349 159.3774 L 395.2995 160.3612 L 395.5413 161.3324 L 395.931 162.1842 L 397.0419 163.614 L 398.4676 164.6978 L 399.2752 165.0966 L 401.2511 165.601 L 407.1298 166.054 L 408.8826 166.6515 L 409.6559 167.2212 L 410.2614 167.9896 L 410.6793 168.8663 L 410.9554 169.8112 L 411.2233 171.8399 L 411.2618 175.1066 L 410.97 184.2732 L 411.1211 187.6706 L 411.5109 189.8702 L 411.8579 190.9331 L 412.8302 192.784 L 414.7634 195.2184 L 417.0144 197.3457 L 419.5113 199.0798 L 422.9504 200.725 L 424.6397 201.7963 L 430.9779 206.9125 L 434.8171 209.383 L 437.5256 212.2968 L 434.2575 214.5214 L 432.2952 216.1319 L 425.3733 222.8585 L 422.0781 225.7904 L 417.894 225.3721 L 413.3138 225.2207 L 389.1801 225.3652 L 385.8588 225.1081 L 383.737 224.6176 L 381.9331 223.7422 L 379.9103 221.94 L 378.863 220.4935 L 376.7183 216.4709 L 374.98 214.4422 L 373.6117 213.3195 L 370.4895 211.4395 L 369.1284 210.3779 L 367.3579 208.5396 L 365.8958 206.5512 L 364.7588 205.3396 L 363.0455 204.4461 L 361.0728 203.9834 L 357.8713 203.7194 L 354.5303 203.6999 L 351.1579 203.8431 L 347.846 204.2544 L 345.7368 204.8254 L 341.6756 206.7902 L 339.955 207.4627 L 333.4761 209.176 L 328.5822 211.4242 L 325.7289 212.0606 L 320.7516 212.3969 Z" fill="#000000" fill-opacity="1" stroke="#000000" stroke-width="0" paint-order="fill" stroke-opacity="1" stroke-dasharray="" stroke-linecap="butt" stroke-linejoin="miter" stroke-miterlimit="10" transform="matrix(1.100000023841858,0,0,1.100000023841858,-39.99991226196289,-26.649921417236328)" clip-path="none" style="filter: url(#f1)"/>
<path data-code="205" d="M 422.0781 225.7904 L 424.6574 230.4647 L 425.3567 231.9695 L 425.5765 232.7699 L 425.6485 233.623 L 425.5192 234.5401 L 425.216 235.4002 L 424.2666 236.987 L 423.04 238.4766 L 414.185 247.3236 L 410.624 251.185 L 409.3391 252.7913 L 408.2146 254.4531 L 406.6077 257.9033 L 405.6989 259.5207 L 404.5297 260.913 L 403.1134 262.069 L 402.3089 262.5234 L 400.3914 263.1556 L 397.3535 263.4988 L 381.4527 263.2751 L 378.3169 263.4071 L 376.2764 263.6739 L 374.3193 264.2089 L 373.4814 264.5743 L 369.5651 266.7948 L 366.1146 268.3496 L 362.1993 270.5812 L 361.3604 270.9522 L 359.4731 271.4899 L 357.5066 271.7817 L 354.4844 271.9749 L 347.3656 271.9818 L 345.3637 271.8456 L 343.3982 271.5483 L 341.5026 270.9577 L 340.5845 270.4936 L 338.8931 269.3264 L 336.5597 267.2394 L 332.1234 262.6235 L 328.5843 258.6245 L 326.1363 255.2785 L 324.0448 250.9752 L 323.5508 250.2207 L 322.3628 248.859 L 320.9528 247.7418 L 320.1712 247.3055 L 318.4069 246.6927 L 316.5935 246.3176 L 316.4977 226.1294 L 316.8468 220.3365 L 317.3168 218.1175 L 318.1828 216.0388 L 320.7516 212.3969 L 325.7289 212.0606 L 328.5822 211.4242 L 333.4761 209.176 L 339.955 207.4627 L 341.6756 206.7902 L 345.7368 204.8254 L 347.846 204.2544 L 351.1579 203.8431 L 354.5303 203.6999 L 357.8713 203.7194 L 361.0728 203.9834 L 363.0455 204.4461 L 364.7588 205.3396 L 365.8958 206.5512 L 367.3579 208.5396 L 369.1284 210.3779 L 370.4895 211.4395 L 373.6117 213.3195 L 374.98 214.4422 L 376.7183 216.4709 L 378.863 220.4935 L 379.9103 221.94 L 381.9331 223.7422 L 383.737 224.6176 L 385.8588 225.1081 L 389.1801 225.3652 L 413.3138 225.2207 L 417.894 225.3721 L 422.0781 225.7904 Z" fill="#000000" fill-opacity="1" stroke="#000000" stroke-width="0" paint-order="fill" stroke-opacity="1" stroke-dasharray="" stroke-linecap="butt" stroke-linejoin="miter" stroke-miterlimit="10" transform="matrix(1.100000023841858,0,0,1.100000023841858,-39.99991226196289,-26.649921417236328)" clip-path="none" style="filter: url(#f1)"/>
<path data-code="206" d="M 198.3439 215.8137 L 197.4185 207.5086 L 197.0048 205.2812 L 196.3024 203.1789 L 194.563 199.1507 L 194.0493 196.9636 L 193.7179 193.519 L 193.6481 188.1069 L 201.4078 185.8586 L 206.2839 183.5354 L 208.34 182.9963 L 210.4806 182.7128 L 217.1054 182.5224 L 247.3126 182.7989 L 250.5933 182.6614 L 252.7338 182.3668 L 254.8014 181.7443 L 255.7601 181.2677 L 258.3624 179.3696 L 262.2776 175.4971 L 266.9985 170.1238 L 270.2625 166.9849 L 272.1362 164.9535 L 273.8078 162.8206 L 275.7024 159.9151 L 279.552 161.9424 L 286.229 166.3597 L 287.393 167.5797 L 289.2595 170.6171 L 291.1051 172.9821 L 293.2404 175.2233 L 295.6206 177.1728 L 297.3443 178.1455 L 299.9622 179.2863 L 303.1605 180.962 L 304.8112 181.6804 L 306.6412 182.1667 L 310.3387 182.867 L 312.127 183.4951 L 313.6516 184.4914 L 314.9261 185.8128 L 315.8911 187.4135 L 316.2528 188.4181 L 316.6477 190.5107 L 316.9135 199.2744 L 317.3178 202.5008 L 317.9139 204.4016 L 319.8044 208.5702 L 320.7516 212.3969 L 318.1828 216.0388 L 317.3168 218.1175 L 316.8468 220.3365 L 316.4977 226.1294 L 316.5935 246.3176 L 316.2184 248.2726 L 315.6879 250.1735 L 313.7433 254.3323 L 313.1097 256.1275 L 312.1332 260.9977 L 311.2359 263.7601 L 309.1288 267.8494 L 307.6781 271.4649 L 305.0113 276.3171 L 303.4377 279.8825 L 302.358 281.6153 L 298.4709 286.4702 L 296.7722 289.0325 L 295.2194 292.6091 L 293.5082 295.8605 L 292.7569 297.5557 L 292.2316 299.4649 L 291.2781 304.3365 L 290.6309 306.1373 L 288.5269 310.228 L 287.0627 313.8394 L 284.3979 318.6957 L 282.9035 322.2959 L 280.2377 327.1509 L 278.7704 330.7608 L 276.6518 334.846 L 275.9921 336.6454 L 275.0083 341.517 L 274.4873 343.4178 L 272.5583 347.5822 L 271.9267 349.3788 L 270.9503 354.2491 L 270.4073 356.1527 L 267.926 361.0896 L 266.4576 364.6954 L 263.8169 369.567 L 262.4298 373.252 L 260.2715 378.2792 L 253.7999 377.811 L 239.5133 377.7609 L 236.561 377.3927 L 234.6737 376.8036 L 232.9531 375.8198 L 231.3868 374.5818 L 225.5644 368.8931 L 223.2905 366.9269 L 221.6772 365.839 L 218.2788 364.1396 L 215.7934 362.3416 L 213.4944 360.16 L 210.6494 356.9683 L 213.2745 352.0203 L 215.6224 346.1093 L 216.0758 344.5489 L 216.081 342.9371 L 214.5074 338.0724 L 213.905 333.8622 L 213.6914 329.4422 L 213.7018 326.1657 L 213.8404 324.0675 L 214.1791 322.1069 L 214.8638 320.3937 L 215.3984 319.6961 L 216.0153 319.1959 L 216.6781 318.8388 L 219.4064 317.8523 L 220.6445 316.9658 L 221.1124 316.2863 L 221.6397 314.6661 L 221.7366 312.8764 L 221.4813 311.0492 L 220.8967 309.361 L 219.3637 306.3068 L 218.8572 304.5477 L 218.7697 303.5862 L 218.9896 301.6298 L 219.3251 300.6599 L 220.3245 298.8883 L 221.6064 297.2945 L 223.8678 295.1949 L 225.5873 294.0569 L 227.5538 293.2677 L 229.6683 292.8856 L 232.9218 292.723 L 248.2568 293.2913 L 251.1112 293.1635 L 251.9772 292.9689 L 252.8015 292.6091 L 253.556 291.9713 L 254.0552 291.139 L 254.2918 290.2344 L 254.297 289.3201 L 254.0948 288.428 L 253.2653 286.9774 L 251.4009 285.2947 L 246.481 282.8617 L 239.0694 277.3286 L 237.3332 276.4129 L 234.7216 275.2819 L 233.1594 274.4093 L 228.8398 271.6469 L 227.6018 270.477 L 227.1213 269.6585 L 226.7889 268.7609 L 226.4335 266.8184 L 226.247 259.3901 L 226.0188 257.2641 L 225.4372 255.216 L 224.5035 253.5972 L 223.2748 252.2285 L 221.8242 251.1378 L 217.6286 249.205 L 213.6685 247.1221 L 211.1215 246.0647 L 209.5531 245.1407 L 208.241 243.9332 L 207.6887 243.2273 L 206.8696 241.6127 L 206.5694 239.7174 L 206.8154 237.8527 L 207.4511 236.2464 L 208.9789 233.1256 L 209.4853 231.2456 L 209.7094 229.2641 L 209.5187 226.2572 L 208.9591 224.3953 L 208.1493 222.7584 L 205.9046 219.0429 L 204.7405 217.7409 L 203.9985 217.2588 L 202.354 216.6349 L 198.3439 215.8137 Z" fill="#000000" fill-opacity="1" stroke="#000000" stroke-width="0" paint-order="fill" stroke-opacity="1" stroke-dasharray="" stroke-linecap="butt" stroke-linejoin="miter" stroke-miterlimit="10" transform="matrix(1.100000023841858,0,0,1.100000023841858,-39.99991226196289,-26.649921417236328)" clip-path="none" style="filter: url(#f1)"/>
<path data-code="207" d="M 405.2206 144.6569 L 438.2635 144.8237 L 442.9155 144.5888 L 445.0529 144.1664 L 446.9257 143.3202 L 449.8353 140.5231 L 452.723 138.1262 L 458.2411 142.6658 L 467.1586 151.7684 L 469.9578 154.4182 L 471.4272 155.5965 L 472.9769 156.5845 L 475.7625 157.8309 L 477.2767 158.6604 L 478.8514 159.8304 L 481.1107 161.9466 L 483.1856 164.3713 L 484.3517 166.1596 L 486.0025 169.7028 L 488.1503 173.6754 L 488.762 175.4623 L 488.9361 176.4058 L 489.0153 178.2747 L 488.6828 180.07 L 488.3045 180.9092 L 487.7366 181.6679 L 486.9664 182.2709 L 485.2355 182.8934 L 483.3607 183.0907 L 474.0127 182.867 L 471.9087 182.9768 L 469.8442 183.3311 L 467.8996 184.094 L 466.1738 185.225 L 464.6148 186.584 L 462.5587 188.9211 L 461.4405 190.6844 L 461.0007 191.646 L 460.4244 193.7497 L 460.1597 195.9159 L 460.0503 199.2299 L 460.1857 204.8185 L 460.4275 208.1519 L 461.0538 212.2927 L 449.9801 212.5289 L 437.5256 212.2968 L 434.8171 209.383 L 430.9779 206.9125 L 424.6397 201.7963 L 422.9504 200.725 L 419.5113 199.0798 L 417.0144 197.3457 L 414.7634 195.2184 L 412.8302 192.784 L 411.8579 190.9331 L 411.5109 189.8702 L 411.1211 187.6706 L 410.97 184.2732 L 411.2618 175.1066 L 411.2233 171.8399 L 410.9554 169.8112 L 410.6793 168.8663 L 410.2614 167.9896 L 409.6559 167.2212 L 408.8826 166.6515 L 407.1298 166.054 L 401.2511 165.601 L 399.2752 165.0966 L 398.4676 164.6978 L 397.0419 163.614 L 395.931 162.1842 L 395.5413 161.3324 L 395.2995 160.3612 L 395.2349 159.3774 L 395.3339 158.4186 L 395.9717 156.6762 L 396.4469 155.9467 L 397.5797 154.685 L 398.85 153.647 L 400.8603 152.2798 L 401.9556 151.0848 L 405.2206 144.6569 Z" fill="#000000" fill-opacity="1" stroke="#000000" stroke-width="0" paint-order="fill" stroke-opacity="1" stroke-dasharray="" stroke-linecap="butt" stroke-linejoin="miter" stroke-miterlimit="10" transform="matrix(1.100000023841858,0,0,1.100000023841858,-39.99991226196289,-26.649921417236328)" clip-path="none" style="filter: url(#f1)"/>
<path data-code="208" d="M 556.7507 191.1902 L 560.6587 194.0151 L 565.0044 197.55 L 566.5311 198.531 L 567.3377 198.9242 L 569.1646 199.5064 L 573.8365 200.5041 L 574.7494 200.8348 L 576.473 201.781 L 578.0769 202.9802 L 579.6067 204.3224 L 583.2417 207.9713 L 585.2228 210.3251 L 586.3368 212.0356 L 586.7797 212.9652 L 587.3508 214.9397 L 587.6093 216.9545 L 587.6072 219.9391 L 587.3352 221.8344 L 586.7318 223.5658 L 586.2451 224.3203 L 585.6376 224.9386 L 582.7957 226.8019 L 579.8287 229.2113 L 576.1417 232.7101 L 572.5588 236.4076 L 570.5319 238.7031 L 568.7248 241.0902 L 567.7546 242.759 L 566.2404 246.2398 L 565.2212 247.7488 L 563.9362 249.0466 L 562.3845 250.0373 L 561.4653 250.3791 L 559.5603 250.707 L 558.5942 250.7307 L 556.6715 250.5417 L 555.7305 250.3249 L 553.9984 249.6399 L 550.0988 247.4597 L 549.1869 247.1318 L 547.2725 246.6997 L 545.2977 246.4913 L 543.303 246.4593 L 541.3209 246.6121 L 539.3836 247.0221 L 538.4488 247.3653 L 536.8231 248.2921 L 535.3412 249.4412 L 531.8052 252.5467 L 530.3243 253.6597 L 528.6934 254.574 L 525.3013 256.172 L 521.3995 258.4855 L 517.9303 260.0626 L 516.3827 261.063 L 513.4845 263.4752 L 511.2554 260.4503 L 510.3831 258.7981 L 509.7839 256.9126 L 509.0117 253.0358 L 508.4865 251.1406 L 506.0739 246.1828 L 504.5993 242.5715 L 499.6554 234.2344 L 500.6913 230.4438 L 501.2707 225.7501 L 501.3843 219.8099 L 500.9706 215.1662 L 500.387 212.9624 L 499.6117 211.2742 L 494.9346 203.511 L 500.7507 201.0001 L 503.7166 200.2303 L 507.04 199.9358 L 516.043 199.8079 L 518.2533 199.6287 L 520.4022 199.2354 L 522.4448 198.4865 L 526.2308 196.4203 L 529.6761 194.8557 L 533.457 192.7812 L 534.4626 192.3463 L 536.5479 191.7835 L 540.9353 191.3667 L 556.7507 191.1902 Z" fill="#000000" fill-opacity="1" stroke="#000000" stroke-width="0" paint-order="fill" stroke-opacity="1" stroke-dasharray="" stroke-linecap="butt" stroke-linejoin="miter" stroke-miterlimit="10" transform="matrix(1.100000023841858,0,0,1.100000023841858,-39.99991226196289,-26.649921417236328)" clip-path="none" style="filter: url(#f1)"/>
<path data-code="209" d="M 499.6554 234.2344 L 497.4367 234.8291 L 493.4652 236.6966 L 491.7102 237.2899 L 489.8052 237.6359 L 483.9359 238.2376 L 482.0205 238.6808 L 481.0961 239.0324 L 479.2807 240.1051 L 477.6394 241.4612 L 472.5027 246.7177 L 471.05 247.9405 L 470.2746 248.4088 L 469.4315 248.7256 L 468.502 248.8117 L 467.6787 248.6422 L 466.3145 247.8057 L 465.3109 246.5621 L 464.6638 245.0323 L 463.7582 240.9902 L 463.4132 240.2496 L 462.9172 239.5757 L 462.2169 239.0046 L 461.405 238.603 L 459.5844 238.1612 L 457.6096 238.0097 L 452.4302 237.9541 L 450.3741 237.7415 L 449.3695 237.5109 L 447.5759 236.7091 L 446.8287 236.1686 L 445.5417 234.8444 L 444.584 233.2423 L 444.0202 231.3442 L 443.769 229.3808 L 443.4376 224.3744 L 442.829 221.4356 L 441.6118 218.8984 L 437.5256 212.2968 L 449.9801 212.5289 L 461.0538 212.2927 L 466.599 212.5761 L 473.1155 212.6414 L 476.3221 212.4914 L 479.4297 211.9925 L 481.2702 211.3311 L 485.2334 209.1954 L 488.688 207.5975 L 494.9346 203.511 L 499.6117 211.2742 L 500.387 212.9624 L 500.9706 215.1662 L 501.3843 219.8099 L 501.2707 225.7501 L 500.6913 230.4438 L 499.6554 234.2344 Z" fill="#000000" fill-opacity="1" stroke="#000000" stroke-width="0" paint-order="fill" stroke-opacity="1" stroke-dasharray="" stroke-linecap="butt" stroke-linejoin="miter" stroke-miterlimit="10" transform="matrix(1.100000023841858,0,0,1.100000023841858,-39.99991226196289,-26.649921417236328)" clip-path="none" style="filter: url(#f1)"/>
<path data-code="210" d="M 589.68 179.4211 L 586.4337 174.0047 L 582.2048 168.7566 L 580.5634 166.4569 L 578.4937 162.105 L 577.4975 160.4987 L 575.6373 158.163 L 570.0889 152.0227 L 568.2704 149.5661 L 567.3408 147.8083 L 565.7829 144.3137 L 563.5444 140.2828 L 562.0614 136.6895 L 560.3429 133.4575 L 559.5853 131.7484 L 559.0872 129.7892 L 558.8485 127.7591 L 558.8214 124.6744 L 559.0017 122.6332 L 559.676 119.6958 L 561.6508 115.5717 L 561.9999 114.7186 L 562.5168 112.7941 L 562.9066 109.7525 L 563.3735 102.0852 L 567.0741 102.3297 L 570.1119 102.3367 L 572.1023 102.1838 L 574.0386 101.8198 L 575.8123 101.1639 L 579.7453 98.9713 L 583.2188 97.4428 L 586.3598 95.6628 L 587.9886 94.8764 L 589.8269 94.3206 L 593.6026 93.5508 L 595.4451 93.0019 L 600.243 90.4814 L 603.7394 88.9737 L 608.4477 86.2392 L 611.9368 84.7107 L 616.6524 81.9929 L 620.1457 80.4727 L 624.0589 78.1787 L 628.3483 76.2403 L 633.0764 73.5446 L 636.6343 72.0857 L 643.2799 68.78 L 645.6164 67.5058 L 649.5015 65.0839 L 652.1026 63.9098 L 653.7419 62.9997 L 655.2353 61.8922 L 659.5278 58.1906 L 661.8382 56.6329 L 667.7992 54.2902 L 671.3487 53.2995 L 673.0005 56.2008 L 674.0947 58.895 L 674.9607 60.6069 L 676.0404 62.1576 L 677.2712 63.6138 L 679.3033 65.6244 L 680.7602 66.8139 L 682.3078 67.8115 L 684.8954 68.9912 L 686.5732 69.8958 L 688.15 71.0407 L 689.6652 72.3372 L 693.3127 75.8818 L 698.2555 81.0674 L 700.2137 83.374 L 701.8561 85.8446 L 703.4141 89.4087 L 705.5358 93.4438 L 706.134 95.2863 L 706.3883 97.2788 L 706.3508 99.2895 L 706.0277 101.2612 L 705.3837 103.0564 L 703.3046 107.1041 L 702.9878 108.0489 L 702.5679 110.0304 L 702.3521 112.0771 L 702.2959 114.1461 L 702.4136 116.2067 L 702.7836 118.2271 L 703.1108 119.2067 L 704.0185 120.9088 L 705.1701 122.4248 L 706.4654 123.8032 L 707.8567 125.0454 L 709.3219 126.1125 L 710.8559 126.9087 L 712.4983 127.3714 L 716.5335 134.0314 L 717.1358 135.6071 L 717.2525 136.4616 L 717.0118 138.1346 L 716.4022 139.6394 L 714.8619 142.481 L 713.7135 143.7968 L 712.9079 144.2984 L 712.0315 144.6347 L 710.1494 144.9807 L 708.1474 145.0849 L 698.6255 145.0696 L 696.5422 145.303 L 694.5382 145.8102 L 692.8729 146.5647 L 689.7205 148.3086 L 686.2429 149.844 L 681.5293 152.5605 L 678.0184 154.0458 L 674.0812 156.2677 L 669.9325 158.3102 L 668.4787 159.433 L 666.7435 161.5422 L 666.3058 162.3468 L 665.6514 164.174 L 664.3383 169.8487 L 662.2374 174.9413 L 661.7361 177.0658 L 660.9691 183.666 L 660.5668 185.81 L 659.9457 187.7039 L 658.1157 191.8975 L 657.5926 194.047 L 657.3122 196.2897 L 657.1351 199.7343 L 657.1528 214.5854 L 650.3341 219.6348 L 648.698 220.5047 L 647.7601 220.8187 L 645.828 221.148 L 643.8708 221.148 L 641.9345 220.8117 L 640.115 220.042 L 638.508 218.9165 L 636.2987 216.8989 L 631.3694 211.7105 L 627.971 207.906 L 626.7236 206.3331 L 625.621 204.6976 L 624.7519 202.9593 L 623.6222 200.279 L 622.6645 198.6741 L 620.9012 196.4342 L 618.1885 193.7594 L 615.8979 192.1517 L 612.412 190.6177 L 609.2481 188.8947 L 607.6057 188.1319 L 605.759 187.6025 L 601.9813 186.8535 L 600.1461 186.2491 L 599.327 185.8336 L 597.7909 184.8082 L 592.8064 180.7855 L 591.3276 179.9518 L 589.68 179.4211 Z" fill="#000000" fill-opacity="1" stroke="#000000" stroke-width="0" paint-order="fill" stroke-opacity="1" stroke-dasharray="" stroke-linecap="butt" stroke-linejoin="miter" stroke-miterlimit="10" transform="matrix(1.100000023841858,0,0,1.100000023841858,-39.99991226196289,-26.649921417236328)" clip-path="none" style="filter: url(#f1)"/>
<path data-code="211" d="M 494.9346 203.511 L 488.688 207.5975 L 485.2334 209.1954 L 481.2702 211.3311 L 479.4297 211.9925 L 476.3221 212.4914 L 473.1155 212.6414 L 466.599 212.5761 L 461.0538 212.2927 L 460.4275 208.1519 L 460.1857 204.8185 L 460.0503 199.2299 L 460.1597 195.9159 L 460.4244 193.7497 L 461.0007 191.646 L 461.4405 190.6844 L 462.5587 188.9211 L 464.6148 186.584 L 466.1738 185.225 L 467.8996 184.094 L 469.8442 183.3311 L 471.9087 182.9768 L 474.0127 182.867 L 483.3607 183.0907 L 485.2355 182.8934 L 486.9664 182.2709 L 487.7366 181.6679 L 488.3045 180.9092 L 488.6828 180.07 L 489.0153 178.2747 L 488.9361 176.4058 L 488.762 175.4623 L 488.1503 173.6754 L 486.0025 169.7028 L 484.3517 166.1596 L 483.1856 164.3713 L 481.1107 161.9466 L 478.8514 159.8304 L 477.2767 158.6604 L 475.7625 157.8309 L 472.9769 156.5845 L 471.4272 155.5965 L 469.9578 154.4182 L 467.1586 151.7684 L 458.2411 142.6658 L 452.723 138.1262 L 453.5244 135.6168 L 455.3742 131.5636 L 457.2699 123.9255 L 459.1155 119.7305 L 459.7095 117.8283 L 460.1461 114.613 L 460.5098 105.8215 L 460.8871 103.6817 L 461.2143 102.6396 L 461.6406 101.6766 L 462.7338 99.9036 L 464.7638 97.5498 L 467.1399 95.5753 L 468.948 94.5874 L 469.9995 94.2289 L 473.2666 93.7203 L 476.6191 93.6244 L 490.2825 93.7953 L 503.8375 93.7592 L 509.2691 93.9732 L 511.3825 94.2608 L 513.4126 94.793 L 518.2867 97.0662 L 524.6124 98.7781 L 526.6196 99.5618 L 530.5109 101.4071 L 533.7019 102.1227 L 537.043 102.3797 L 542.7278 102.4534 L 556.4631 102.3478 L 563.3735 102.0852 L 562.9066 109.7525 L 562.5168 112.7941 L 561.9999 114.7186 L 561.6508 115.5717 L 559.676 119.6958 L 559.0017 122.6332 L 558.8214 124.6744 L 558.8485 127.7591 L 559.0872 129.7892 L 559.5853 131.7484 L 560.3429 133.4575 L 562.0614 136.6895 L 563.5444 140.2828 L 565.7829 144.3137 L 567.3408 147.8083 L 568.2704 149.5661 L 570.0889 152.0227 L 575.6373 158.163 L 577.4975 160.4987 L 578.4937 162.105 L 580.5634 166.4569 L 582.2048 168.7566 L 586.4337 174.0047 L 589.68 179.4211 L 583.2855 178.7805 L 576.7586 178.5429 L 571.402 178.6679 L 568.2934 179.2126 L 567.2971 179.5711 L 565.5077 180.5771 L 563.8914 181.8569 L 562.3938 183.3019 L 559.6937 186.5145 L 556.7507 191.1902 L 540.9353 191.3667 L 536.5479 191.7835 L 534.4626 192.3463 L 533.457 192.7812 L 529.6761 194.8557 L 526.2308 196.4203 L 522.4448 198.4865 L 520.4022 199.2354 L 518.2533 199.6287 L 516.043 199.8079 L 507.04 199.9358 L 503.7166 200.2303 L 500.7507 201.0001 L 494.9346 203.511 Z" fill="#000000" fill-opacity="1" stroke="#000000" stroke-width="0" paint-order="fill" stroke-opacity="1" stroke-dasharray="" stroke-linecap="butt" stroke-linejoin="miter" stroke-miterlimit="10" transform="matrix(1.100000023841858,0,0,1.100000023841858,-39.99991226196289,-26.649921417236328)" clip-path="none" style="filter: url(#f1)"/>
<path data-code="212" d="M 316.5935 246.3176 L 318.4069 246.6927 L 320.1712 247.3055 L 320.9528 247.7418 L 322.3628 248.859 L 323.5508 250.2207 L 324.0448 250.9752 L 326.1363 255.2785 L 328.5843 258.6245 L 332.1234 262.6235 L 336.5597 267.2394 L 338.8931 269.3264 L 340.5845 270.4936 L 341.5026 270.9577 L 343.3982 271.5483 L 345.3637 271.8456 L 347.3656 271.9818 L 354.4844 271.9749 L 357.5066 271.7817 L 359.4731 271.4899 L 361.3604 270.9522 L 362.1993 270.5812 L 366.1146 268.3496 L 369.5651 266.7948 L 373.4814 264.5743 L 374.3193 264.2089 L 376.2764 263.6739 L 378.3169 263.4071 L 381.4527 263.2751 L 397.3535 263.4988 L 400.3914 263.1556 L 402.3089 262.5234 L 403.1134 262.069 L 404.5297 260.913 L 405.6989 259.5207 L 406.6077 257.9033 L 408.2146 254.4531 L 409.3391 252.7913 L 410.624 251.185 L 414.185 247.3236 L 423.04 238.4766 L 424.2666 236.987 L 425.216 235.4002 L 425.5192 234.5401 L 425.6485 233.623 L 425.5765 232.7699 L 425.3567 231.9695 L 424.6574 230.4647 L 422.0781 225.7904 L 425.3733 222.8585 L 432.2952 216.1319 L 434.2575 214.5214 L 437.5256 212.2968 L 441.6118 218.8984 L 442.829 221.4356 L 443.4376 224.3744 L 443.769 229.3808 L 444.0202 231.3442 L 444.584 233.2423 L 445.5417 234.8444 L 446.8287 236.1686 L 447.5759 236.7091 L 449.3695 237.5109 L 450.3741 237.7415 L 452.4302 237.9541 L 457.6096 238.0097 L 459.5844 238.1612 L 461.405 238.603 L 462.2169 239.0046 L 462.9172 239.5757 L 463.4132 240.2496 L 463.7582 240.9902 L 464.6638 245.0323 L 465.3109 246.5621 L 466.3145 247.8057 L 467.6787 248.6422 L 468.502 248.8117 L 469.4315 248.7256 L 470.2746 248.4088 L 471.05 247.9405 L 472.5027 246.7177 L 477.6394 241.4612 L 479.2807 240.1051 L 481.0961 239.0324 L 482.0205 238.6808 L 483.9359 238.2376 L 489.8052 237.6359 L 491.7102 237.2899 L 493.4652 236.6966 L 497.4367 234.8291 L 499.6554 234.2344 L 504.5993 242.5715 L 506.0739 246.1828 L 508.4865 251.1406 L 509.0117 253.0358 L 509.7839 256.9126 L 510.3831 258.7981 L 511.2554 260.4503 L 513.4845 263.4752 L 512.8759 266.3876 L 512.2288 268.1884 L 510.133 272.2847 L 508.6532 275.8919 L 506.347 279.9145 L 505.1673 282.2864 L 499.0468 286.6231 L 496.6437 287.9653 L 494.8074 288.5628 L 491.0495 289.3659 L 489.2185 289.8995 L 485.1646 291.8226 L 483.4222 292.459 L 478.7107 293.4775 L 476.8588 294.0291 L 472.0098 296.4761 L 468.502 297.9212 L 462.5889 301.5339 L 461.3133 302.7025 L 460.8079 303.5125 L 460.4431 304.4018 L 460.0096 306.3319 L 459.7668 309.4541 L 459.8512 316.0251 L 460.0325 318.2094 L 460.3827 320.3478 L 461.0267 322.3904 L 462.0251 324.1912 L 465.782 328.9906 L 466.8783 330.6913 L 467.6286 332.5727 L 467.8423 333.5523 L 468.0194 335.5477 L 467.8996 337.5458 L 467.4629 339.4855 L 465.1796 344.4391 L 463.1496 352.0467 L 461.2175 356.1958 L 460.6057 358.0258 L 460.2451 360.0197 L 460.0628 362.0734 L 459.9763 369.4364 L 455.0428 369.7588 L 453.168 370.1992 L 452.2812 370.5563 L 451.4996 370.9913 L 450.1187 372.064 L 448.9682 373.2978 L 447.1028 375.9462 L 445.7428 377.0495 L 443.9347 377.6998 L 440.9011 377.9986 L 437.7528 377.6595 L 435.7196 376.9842 L 434.8265 376.5007 L 433.1914 375.3126 L 429.3949 371.9625 L 427.7598 370.8009 L 426.8636 370.3382 L 425.9413 370.0005 L 424.03 369.6337 L 421.1183 369.7338 L 419.231 370.2701 L 418.3223 370.7189 L 416.658 371.8569 L 411.2326 376.4493 L 403.8617 380.4899 L 401.2126 381.5779 L 399.1689 381.9767 L 397.0711 382.1768 L 390.6568 382.2491 L 385.3774 381.8544 L 382.3864 381.1236 L 378.3669 379.1671 L 376.539 378.5085 L 374.46 378.1028 L 372.3132 377.8902 L 366.818 377.7457 L 334.5682 377.7193 L 331.2678 377.7887 L 328.0309 378.0514 L 324.9462 378.7544 L 320.9017 380.6567 L 318.0702 381.5071 L 314.9313 381.8669 L 307.4791 382.3046 L 304.4277 382.9619 L 299.5318 385.2004 L 292.1222 387.1499 L 287.3107 389.6482 L 282.9963 391.5393 L 277.1207 394.8394 L 275.6201 394.0349 L 274.1006 392.9886 L 272.6541 391.7811 L 270.5615 389.8052 L 267.1663 386.3342 L 263.8523 382.7632 L 261.9608 380.5455 L 260.2715 378.2792 L 262.4298 373.252 L 263.8169 369.567 L 266.4576 364.6954 L 267.926 361.0896 L 270.4073 356.1527 L 270.9503 354.2491 L 271.9267 349.3788 L 272.5583 347.5822 L 274.4873 343.4178 L 275.0083 341.517 L 275.9921 336.6454 L 276.6518 334.846 L 278.7704 330.7608 L 280.2377 327.1509 L 282.9035 322.2959 L 284.3979 318.6957 L 287.0627 313.8394 L 288.5269 310.228 L 290.6309 306.1373 L 291.2781 304.3365 L 292.2316 299.4649 L 292.7569 297.5557 L 293.5082 295.8605 L 295.2194 292.6091 L 296.7722 289.0325 L 298.4709 286.4702 L 302.358 281.6153 L 303.4377 279.8825 L 305.0113 276.3171 L 307.6781 271.4649 L 309.1288 267.8494 L 311.2359 263.7601 L 312.1332 260.9977 L 313.1097 256.1275 L 313.7433 254.3323 L 315.6879 250.1735 L 316.2184 248.2726 L 316.5935 246.3176 Z" fill="#000000" fill-opacity="1" stroke="#000000" stroke-width="0" paint-order="fill" stroke-opacity="1" stroke-dasharray="" stroke-linecap="butt" stroke-linejoin="miter" stroke-miterlimit="10" transform="matrix(1.100000023841858,0,0,1.100000023841858,-39.99991226196289,-26.649921417236328)" clip-path="none" style="filter: url(#f1)"/>
<path data-code="213" d="M 652.927 289.0561 L 652.3194 291.9713 L 651.6691 293.7707 L 649.564 297.8628 L 648.0863 301.4672 L 645.3955 306.3055 L 643.9073 309.9043 L 642.2013 313.1627 L 641.4468 314.8662 L 640.9331 316.7657 L 640.4016 320.6466 L 637.345 319.3265 L 632.768 317.7814 L 627.9283 315.3762 L 625.9597 314.8537 L 621.8152 314.4716 L 609.0543 314.448 L 605.955 314.1256 L 603.977 313.6018 L 595.79 309.3735 L 594.1413 308.2341 L 589.4872 304.2726 L 587.8135 303.1304 L 586.9079 302.6705 L 585.9189 302.3078 L 583.8618 301.8632 L 579.5974 301.5742 L 561.0287 301.5019 L 557.8679 301.7312 L 555.843 302.1897 L 554.0797 303.0457 L 553.345 303.5945 L 552.0642 304.8882 L 551.0471 306.3874 L 549.5329 309.8556 L 548.5418 311.6078 L 546.6983 314.0714 L 544.5567 316.2363 L 542.9133 317.3729 L 541.9879 317.7772 L 541.0322 318.0148 L 539.0907 318.0148 L 538.1351 317.7772 L 537.2087 317.3729 L 535.5652 316.2391 L 534.1 314.8426 L 532.7588 313.2919 L 531.008 310.7686 L 528.9456 306.418 L 527.3209 304.2518 L 525.2471 302.5427 L 521.9373 300.8294 L 520.2823 299.715 L 518.7244 298.388 L 516.5922 296.1356 L 515.3708 294.4905 L 514.4193 292.7244 L 512.8978 287.5026 L 512.036 286.0409 L 510.7156 285.0043 L 505.1673 282.2864 L 506.347 279.9145 L 508.6532 275.8919 L 510.133 272.2847 L 512.2288 268.1884 L 512.8759 266.3876 L 513.4845 263.4752 L 516.3827 261.063 L 517.9303 260.0626 L 521.3995 258.4855 L 525.3013 256.172 L 528.6934 254.574 L 530.3243 253.6597 L 531.8052 252.5467 L 535.3412 249.4412 L 536.8231 248.2921 L 538.4488 247.3653 L 539.3836 247.0221 L 541.3209 246.6121 L 543.303 246.4593 L 545.2977 246.4913 L 547.2725 246.6997 L 549.1869 247.1318 L 550.0988 247.4597 L 553.9984 249.6399 L 555.7305 250.3249 L 556.6715 250.5417 L 558.5942 250.7307 L 559.5603 250.707 L 561.4653 250.3791 L 562.3845 250.0373 L 563.9362 249.0466 L 565.2212 247.7488 L 566.2404 246.2398 L 567.7546 242.759 L 568.7248 241.0902 L 570.5319 238.7031 L 572.5588 236.4076 L 576.1417 232.7101 L 579.8287 229.2113 L 582.7957 226.8019 L 585.6376 224.9386 L 586.2451 224.3203 L 586.7318 223.5658 L 587.3352 221.8344 L 587.6072 219.9391 L 587.6093 216.9545 L 587.3508 214.9397 L 586.7797 212.9652 L 586.3368 212.0356 L 585.2228 210.3251 L 583.2417 207.9713 L 579.6067 204.3224 L 578.0769 202.9802 L 576.473 201.781 L 574.7494 200.8348 L 573.8365 200.5041 L 569.1646 199.5064 L 567.3377 198.9242 L 566.5311 198.531 L 565.0044 197.55 L 560.6587 194.0151 L 556.7507 191.1902 L 559.6937 186.5145 L 562.3938 183.3019 L 563.8914 181.8569 L 565.5077 180.5771 L 567.2971 179.5711 L 568.2934 179.2126 L 571.402 178.6679 L 576.7586 178.5429 L 583.2855 178.7805 L 589.68 179.4211 L 591.3276 179.9518 L 592.8064 180.7855 L 597.7909 184.8082 L 599.327 185.8336 L 600.1461 186.2491 L 601.9813 186.8535 L 605.759 187.6025 L 607.6057 188.1319 L 609.2481 188.8947 L 612.412 190.6177 L 615.8979 192.1517 L 618.1885 193.7594 L 620.9012 196.4342 L 622.6645 198.6741 L 623.6222 200.279 L 624.7519 202.9593 L 625.621 204.6976 L 626.7236 206.3331 L 627.971 207.906 L 631.3694 211.7105 L 636.2987 216.8989 L 638.508 218.9165 L 640.115 220.042 L 641.9345 220.8117 L 643.8708 221.148 L 645.828 221.148 L 647.7601 220.8187 L 648.698 220.5047 L 650.3341 219.6348 L 657.1528 214.5854 L 657.0851 225.4513 L 657.0913 234.365 L 657.3894 238.842 L 658.0845 242.0226 L 660.2959 247.0485 L 660.8274 249.116 L 661.2557 253.4763 L 661.2025 257.913 L 660.8315 261.1756 L 660.3052 263.2529 L 658.4357 267.4437 L 657.8031 269.3348 L 657.3956 271.4788 L 656.7766 276.9799 L 656.3806 279.135 L 655.7574 281.0442 L 653.8878 285.228 L 652.927 289.0561 Z" fill="#000000" fill-opacity="1" stroke="#000000" stroke-width="0" paint-order="fill" stroke-opacity="1" stroke-dasharray="" stroke-linecap="butt" stroke-linejoin="miter" stroke-miterlimit="10" transform="matrix(1.100000023841858,0,0,1.100000023841858,-39.99991226196289,-26.649921417236328)" clip-path="none" style="filter: url(#f1)"/>














</svg>