<?xml version="1.0" standalone="no"?>
<!-- Generator: Paintmaps.com , Online SVG vector map maker -->
<svg xmlns="http://www.w3.org/2000/svg" version="1.1" baseProfile="full"   style="background-color:#e0f2f1" width="800" height="500" viewBox="0 0 800 533">

<path data-code="200" d="M 650.6707 306.0269 L 646.746 310.0735 L 644.2526 308.0243 L 642.4987 306.8431 L 639.2329 305.2253 L 634.7597 302.5975 L 631.453 301.1111 L 626.8504 298.7726 L 623.723 298.0706 L 618.2444 297.7932 L 550.5211 297.7574 L 554.2209 292.5535 L 556.0832 290.438 L 561.2502 285.0166 L 563.018 282.9037 L 564.3309 280.7139 L 565.4368 278.0795 L 566.473 275.9839 L 566.9398 274.5067 L 566.9687 273.6772 L 566.7895 272.8451 L 566.4371 272.0833 L 565.9514 271.3892 L 564.8356 270.3182 L 563.4241 269.4648 L 561.0651 268.4694 L 557.2528 266.565 L 555.4462 265.9598 L 554.4399 265.7567 L 548.2825 265.1184 L 546.2828 264.7534 L 544.514 264.1482 L 540.6529 262.2915 L 538.9081 261.7487 L 535.3277 260.9152 L 533.5947 260.3538 L 528.9692 258.1016 L 527.0004 257.5867 L 524.9569 257.3504 L 521.8533 257.3597 L 518.8164 257.8203 L 517.0456 258.4454 L 513.9888 259.9849 L 512.242 260.6259 L 510.2542 261.0453 L 505.1648 261.6956 L 503.196 262.0924 L 501.48 262.6936 L 498.4909 264.0487 L 496.8425 264.4415 L 495.0966 264.4282 L 494.2386 264.2637 L 492.7107 263.6956 L 489.7186 262.3034 L 487.8483 261.7911 L 485.8715 261.5005 L 482.8117 261.2974 L 477.6268 261.2483 L 473.488 261.3638 L 468.33 261.7062 L 473.3168 253.6768 L 474.1092 252.0325 L 475.1573 249.4472 L 477.6646 244.7994 L 479.0343 241.3408 L 481.5227 236.6865 L 482.963 233.2478 L 483.9454 231.6074 L 485.7341 229.3048 L 488.3888 226.4009 L 490.488 224.3478 L 491.9602 223.0963 L 493.5419 222.0253 L 495.2877 221.2767 L 497.1302 220.8653 L 504.0092 220.1194 L 502.6913 223.2051 L 500.9743 228.527 L 498.6222 233.2226 L 498.3455 234.141 L 498.033 236.0441 L 497.9952 237.9844 L 498.0828 238.9559 L 498.5337 240.871 L 499.3459 242.534 L 500.9743 244.7291 L 502.8735 246.6495 L 504.2829 247.7272 L 505.8805 248.5089 L 506.8062 248.7239 L 507.7409 248.7876 L 508.6745 248.7053 L 509.5923 248.473 L 510.4095 248.1173 L 511.165 247.6648 L 512.5495 246.5646 L 513.8206 245.2958 L 515.0031 243.9169 L 516.5559 241.6753 L 517.3632 240.0084 L 518.3814 237.4071 L 520.8589 232.7275 L 522.2136 229.2583 L 524.1924 225.3432 L 524.7976 223.6298 L 525.9483 218.0862 L 526.2648 217.1864 L 527.1766 215.4797 L 528.3292 213.9043 L 530.2881 211.676 L 539.4675 202.3646 L 542.7492 198.6512 L 544.3547 196.2477 L 546.3634 192.1282 L 547.3847 190.6709 L 550.758 186.4479 L 551.7205 184.9217 L 552.1097 184.0975 L 552.6542 182.2328 L 552.9229 180.2952 L 553.0274 178.319 L 552.8692 173.3103 L 552.6313 171.3116 L 552.0191 168.2179 L 577.448 168.1728 L 582.7832 168.3414 L 584.8645 168.5657 L 586.8742 168.9744 L 588.7734 169.6845 L 591.4828 171.0501 L 593.3053 171.6858 L 595.1179 171.9672 L 596.9593 171.9791 L 598.7828 171.7124 L 600.6263 171.0607 L 604.2037 169.0846 L 607.4824 167.5637 L 611.0926 165.557 L 613.0247 164.8323 L 615.0403 164.4501 L 617.1147 164.2723 L 623.4771 164.2391 L 623.8334 166.0228 L 624.4018 167.7614 L 625.2807 169.2611 L 626.4244 170.5604 L 627.7672 171.6288 L 630.9215 173.2665 L 632.5151 174.2858 L 637.1366 177.9235 L 638.7093 179.0277 L 641.9025 180.6615 L 643.3836 181.5931 L 644.6517 182.7743 L 645.6949 184.1864 L 646.4314 185.8706 L 646.8266 187.7207 L 647.3104 193.4739 L 647.606 195.3665 L 648.1335 197.1236 L 649.8446 201.1489 L 651.0559 206.5956 L 651.68 208.3501 L 652.6127 209.8352 L 654.4631 211.6402 L 655.9482 212.536 L 659.1553 214.1299 L 660.7161 215.2541 L 662.1922 216.548 L 664.1979 218.7365 L 665.3027 220.3889 L 665.7397 221.2953 L 666.0762 222.2814 L 666.4683 224.3226 L 666.6316 226.4115 L 666.6565 229.5941 L 666.531 232.7859 L 666.2245 235.9379 L 665.8353 237.9751 L 665.3306 239.7018 L 668.252 240.9639 L 670.0019 241.8624 L 671.5099 242.8949 L 674.282 245.2958 L 670.3573 249.3423 L 669.4545 253.0159 L 667.6528 257.012 L 667.0675 258.8289 L 666.7112 260.8873 L 666.0513 267.1954 L 665.8422 268.216 L 665.238 270.0342 L 663.2582 273.9652 L 662.1653 276.5426 L 661.2595 278.2308 L 660.1178 279.8287 L 656.9734 283.6482 L 655.3341 286.0783 L 653.8151 289.4665 L 652.1718 292.5509 L 651.4571 294.186 L 650.9883 296.0573 L 650.7534 297.9989 L 650.6359 300.981 L 650.6707 306.0269 Z" fill="#000000" fill-opacity="1" stroke="#000000" stroke-width="0" paint-order="fill" stroke-opacity="1" stroke-dasharray="" stroke-linecap="butt" stroke-linejoin="miter" stroke-miterlimit="10" transform="matrix(1.100000023841858,0,0,1.100000023841858,-40.00007247924805,-26.650001525878906)" clip-path="none" style="filter: url(#f1)"/>
<path data-code="201" d="M 416.248 58.7546 L 442.3378 58.8594 L 447.7875 58.5767 L 449.8907 58.1706 L 451.8745 57.4155 L 459.1875 53.2999 L 462.0223 57.5601 L 464.0648 60.026 L 466.2347 62.3393 L 467.7547 63.7686 L 469.3722 65.0427 L 471.1549 66.0447 L 472.1323 66.3924 L 475.1792 66.914 L 478.3146 67.0414 L 506.0856 66.914 L 509.9974 70.9685 L 506.5116 74.662 L 504.3019 76.6713 L 502.6894 77.7848 L 500.8817 78.5586 L 498.9517 78.9501 L 496.9719 79.112 L 485.8187 78.9461 L 481.8253 79.1306 L 479.8853 79.5075 L 478.9437 79.83 L 477.2675 80.7391 L 475.7346 81.8924 L 472.8898 84.5507 L 470.2491 87.4439 L 468.5331 89.7957 L 467.6711 91.5356 L 467.1803 93.4215 L 466.9634 95.3605 L 466.8559 102.2405 L 466.7145 104.1702 L 466.3492 106.0442 L 465.6156 107.7469 L 464.5595 109.1643 L 463.2675 110.3336 L 462.5479 110.814 L 458.5813 112.6362 L 456.5478 113.7802 L 450.9169 112.0363 L 448.1299 111.5148 L 443.3152 111.2679 L 440.4217 111.3515 L 438.5225 111.5426 L 436.6761 111.9222 L 434.9849 112.5725 L 431.2423 114.7225 L 427.9596 116.2488 L 425.0143 117.9834 L 423.4515 118.7306 L 421.6519 119.1924 L 418.8649 119.3132 L 417.0234 119.0385 L 415.3213 118.4333 L 411.5976 116.3191 L 408.3308 114.7132 L 406.8676 113.7165 L 404.1333 111.3674 L 407.7127 108.6667 L 412.5223 106.3322 L 417.3897 103.2903 L 418.6031 102.1755 L 419.1107 101.3619 L 419.7259 99.5105 L 420.0065 97.4853 L 420.118 94.2669 L 419.9946 89.8435 L 419.69 86.5534 L 418.9783 83.4186 L 416.8612 78.6063 L 416.3655 76.6501 L 416.0917 74.6063 L 415.9185 71.4582 L 415.8976 67.194 L 416.248 58.7546 Z" fill="#000000" fill-opacity="1" stroke="#000000" stroke-width="0" paint-order="fill" stroke-opacity="1" stroke-dasharray="" stroke-linecap="butt" stroke-linejoin="miter" stroke-miterlimit="10" transform="matrix(1.100000023841858,0,0,1.100000023841858,-40.00007247924805,-26.650001525878906)" clip-path="none" style="filter: url(#f1)"/>
<path data-code="202" d="M 372.9791 435.8265 L 377.9808 435.0992 L 379.7874 434.6028 L 381.376 433.8689 L 384.3731 432.2073 L 386.8018 431.1004 L 387.5951 430.6638 L 388.9767 429.618 L 390.6957 427.6538 L 391.5637 426.0997 L 393.1225 422.807 L 394.7808 420.5203 L 397.3767 417.6363 L 403.562 411.4159 L 404.8181 410.0038 L 405.913 408.5054 L 406.7054 406.8305 L 406.9204 405.9055 L 406.9502 404.0355 L 406.775 403.1198 L 406.1489 401.5205 L 404.5524 398.5357 L 403.123 395.1369 L 400.9401 391.2974 L 399.4461 387.9582 L 398.5632 386.2913 L 396.8292 383.99 L 390.8928 377.5201 L 389.7521 375.9686 L 388.8573 374.2632 L 388.3397 372.3959 L 388.0998 370.4622 L 387.9137 362.5509 L 387.5464 359.6524 L 386.979 357.8793 L 385.0221 353.9721 L 383.964 351.4558 L 383.543 350.6303 L 382.5337 349.1904 L 381.3054 347.9388 L 379.9019 346.9156 L 376.661 345.4 L 372.1698 342.8279 L 368.8144 341.4238 L 365.033 339.3574 L 364.2387 339.0097 L 362.4709 338.4894 L 358.8238 337.8086 L 357.0252 337.3414 L 350.7006 334.6937 L 352.8904 331.6572 L 355.7203 328.9763 L 358.4217 324.6497 L 361.5641 320.996 L 363.6474 318.8805 L 365.8422 316.8699 L 368.2102 315.053 L 370.6917 313.3927 L 372.9741 312.5486 L 376.6709 310.522 L 379.9975 309.0927 L 384.5045 306.4994 L 388.5925 304.6108 L 392.3152 302.3825 L 395.6268 300.9001 L 398.6189 299.2212 L 400.2006 298.4886 L 402.9448 297.8728 L 405.8085 297.7374 L 408.708 297.9153 L 412.153 298.4448 L 411.4822 305.6951 L 410.9785 308.5485 L 410.3803 310.2739 L 408.5418 314.2447 L 407.8421 317.2441 L 407.6201 319.3304 L 407.4957 322.505 L 407.7067 326.7175 L 408.1078 328.7693 L 408.4423 329.7646 L 409.4058 331.5974 L 410.6212 333.2617 L 412.6816 335.5949 L 414.8824 337.8139 L 417.1876 339.8829 L 418.8111 341.1 L 427.5485 345.5871 L 429.5313 346.0967 L 432.614 346.3489 L 435.7056 346.1697 L 437.7083 345.7809 L 439.4651 345.1372 L 443.2963 343.2367 L 446.2655 342.5107 L 449.402 342.2042 L 453.6681 342.0422 L 457.9025 342.0117 L 460.9413 342.175 L 462.8206 342.5134 L 463.6876 342.808 L 464.4809 343.2261 L 465.1647 343.8034 L 465.973 345.1677 L 466.7145 348.2176 L 467.2142 349.7451 L 468.0364 351.0365 L 468.5619 351.5806 L 469.8191 352.3756 L 470.5397 352.572 L 471.9651 352.4724 L 475.6022 351.1811 L 479.5539 350.6065 L 484.8333 350.4658 L 490.1586 350.7206 L 489.5663 356.2748 L 487.2889 361.2065 L 486.6847 362.7925 L 486.2965 364.6864 L 486.192 366.6147 L 486.3373 368.5312 L 486.7653 370.3812 L 488.5869 374.3203 L 489.1781 376.0297 L 489.6539 378.8632 L 490.1128 383.71 L 490.7269 386.5196 L 491.4277 388.152 L 493.0233 391.2695 L 494.4048 394.7175 L 496.9361 399.348 L 498.023 401.9054 L 498.9089 403.5989 L 500.6488 405.9918 L 504.4581 410.6408 L 507.6762 415.6522 L 501.6382 415.0444 L 498.0081 415.112 L 496.3488 415.4969 L 495.5794 415.8685 L 494.8806 416.418 L 494.3342 417.1293 L 493.9569 417.919 L 493.5438 419.6284 L 493.3716 422.4035 L 493.5339 426.3133 L 493.9589 429.2464 L 494.5114 431.1163 L 495.2967 432.7368 L 497.0386 435.7866 L 499.4604 441.1657 L 499.8973 442.6162 L 499.9222 443.4139 L 499.761 444.2115 L 499.4464 444.9428 L 498.4919 446.2049 L 497.2267 447.2029 L 496.4722 447.6051 L 493.3617 448.9667 L 489.5773 451.0424 L 486.188 452.4346 L 481.6461 454.9974 L 477.5412 456.8514 L 473.7976 459.0373 L 470.4621 460.4919 L 465.962 463.0891 L 462.6325 464.5463 L 458.1115 467.1131 L 448.522 471.0189 L 443.2048 474.8279 L 439.1625 476.8333 L 435.412 478.8811 L 434.6037 479.2036 L 432.7981 479.6256 L 430.024 479.6999 L 427.3186 479.1598 L 423.4963 477.3203 L 421.7634 476.6912 L 419.7846 476.2891 L 414.6912 475.6853 L 411.735 474.9765 L 410.1633 474.244 L 407.1622 472.5691 L 403.8606 471.0893 L 400.103 469.0096 L 398.3581 468.3606 L 396.3992 467.9797 L 393.3624 467.7408 L 382.2301 467.6094 L 378.2426 461.6637 L 376.9894 459.2908 L 376.4191 457.4805 L 375.6288 453.7897 L 375.1181 452.002 L 373.0468 447.191 L 372.6158 445.3237 L 372.3828 442.3999 L 372.4844 439.4231 L 372.9791 435.8265 Z" fill="#000000" fill-opacity="1" stroke="#000000" stroke-width="0" paint-order="fill" stroke-opacity="1" stroke-dasharray="" stroke-linecap="butt" stroke-linejoin="miter" stroke-miterlimit="10" transform="matrix(1.100000023841858,0,0,1.100000023841858,-40.00007247924805,-26.650001525878906)" clip-path="none" style="filter: url(#f1)"/>
<path data-code="203" d="M 489.5663 356.2748 L 493.5956 359.0034 L 495.2031 360.2828 L 501.9986 366.7567 L 504.3297 368.7289 L 505.9621 369.8105 L 509.1354 371.4284 L 510.517 372.449 L 512.2798 374.3707 L 513.1935 375.9142 L 516.5848 383.134 L 517.0556 385.0942 L 517.2885 387.1248 L 517.4279 393.3877 L 517.2606 402.8703 L 516.9103 407.0177 L 516.2394 410.2307 L 513.6235 411.7211 L 509.9367 414.2547 L 507.6762 415.6522 L 504.4581 410.6408 L 500.6488 405.9918 L 498.9089 403.5989 L 498.023 401.9054 L 496.9361 399.348 L 494.4048 394.7175 L 493.0233 391.2695 L 491.4277 388.152 L 490.7269 386.5196 L 490.1128 383.71 L 489.6539 378.8632 L 489.1781 376.0297 L 488.5869 374.3203 L 486.7653 370.3812 L 486.3373 368.5312 L 486.192 366.6147 L 486.2965 364.6864 L 486.6847 362.7925 L 487.2889 361.2065 L 489.5663 356.2748 Z" fill="#000000" fill-opacity="1" stroke="#000000" stroke-width="0" paint-order="fill" stroke-opacity="1" stroke-dasharray="" stroke-linecap="butt" stroke-linejoin="miter" stroke-miterlimit="10" transform="matrix(1.100000023841858,0,0,1.100000023841858,-40.00007247924805,-26.650001525878906)" clip-path="none" style="filter: url(#f1)"/>
<path data-code="204" d="M 489.5663 356.2748 L 490.1586 350.7206 L 496.0074 343.6733 L 497.0645 342.0051 L 499.1697 337.8365 L 503.3115 332.3884 L 504.3466 330.7202 L 504.7597 329.8177 L 505.3042 327.8535 L 505.557 325.8097 L 505.6476 322.6762 L 505.5421 315.333 L 505.7999 312.2951 L 506.3623 310.3588 L 506.7793 309.5532 L 507.284 308.814 L 508.5133 307.5399 L 510.0064 306.5804 L 510.9211 306.2287 L 512.8203 305.8438 L 515.7726 305.6965 L 526.9516 305.9075 L 529.9427 305.7058 L 531.8718 305.3421 L 533.6037 304.7037 L 537.3662 302.6241 L 540.6758 301.1549 L 543.6829 299.4813 L 545.2546 298.7501 L 547.0383 298.2497 L 550.5211 297.7574 L 618.2444 297.7932 L 623.723 298.0706 L 626.8504 298.7726 L 631.453 301.1111 L 634.7597 302.5975 L 639.2329 305.2253 L 642.4987 306.8431 L 644.2526 308.0243 L 646.746 310.0735 L 642.859 314.124 L 640.5468 316.9628 L 639.6241 318.4904 L 638.4784 321.2203 L 637.7348 322.6736 L 636.1512 324.8793 L 633.0596 328.3485 L 627.807 333.705 L 625.7714 335.5789 L 623.6334 337.21 L 622.2249 337.9745 L 619.5802 339.1504 L 617.3914 340.6461 L 614.0151 343.7689 L 605.5554 352.5945 L 602.2099 355.7957 L 600.7995 356.9224 L 599.3124 357.8594 L 596.6567 359.0154 L 595.2413 359.7758 L 593.1062 361.4122 L 591.1453 363.3327 L 589.4114 365.4535 L 588.4787 366.997 L 587.1051 370.4423 L 585.187 374.2433 L 584.7709 375.4245 L 584.5161 376.668 L 581.6485 380.8393 L 578.4254 384.5567 L 561.304 402.281 L 559.2037 404.2917 L 556.9831 406.0568 L 555.5348 406.877 L 552.8911 408.0436 L 549.1415 410.1392 L 547.5071 410.7443 L 545.7921 411.0722 L 543.1384 411.2726 L 535.1485 411.2327 L 523.4877 411.112 L 520.2478 410.8572 L 516.2394 410.2307 L 516.9103 407.0177 L 517.2606 402.8703 L 517.4279 393.3877 L 517.2885 387.1248 L 517.0556 385.0942 L 516.5848 383.134 L 513.1935 375.9142 L 512.2798 374.3707 L 510.517 372.449 L 509.1354 371.4284 L 505.9621 369.8105 L 504.3297 368.7289 L 501.9986 366.7567 L 495.2031 360.2828 L 493.5956 359.0034 L 489.5663 356.2748 Z" fill="#000000" fill-opacity="1" stroke="#000000" stroke-width="0" paint-order="fill" stroke-opacity="1" stroke-dasharray="" stroke-linecap="butt" stroke-linejoin="miter" stroke-miterlimit="10" transform="matrix(1.100000023841858,0,0,1.100000023841858,-40.00007247924805,-26.650001525878906)" clip-path="none" style="filter: url(#f1)"/>
<path data-code="205" d="M 541.1835 168.2073 L 540.2866 170.1437 L 539.8049 170.7183 L 538.3905 171.589 L 535.7597 172.1663 L 529.8342 172.4928 L 526.8262 172.8816 L 525.0554 173.3899 L 519.4425 175.7271 L 514.2267 179.1432 L 513.4245 179.5228 L 511.6189 180.0695 L 508.785 180.4398 L 503.9634 180.4903 L 501.1007 180.2487 L 498.3535 179.5878 L 496.7709 178.8366 L 493.7897 177.1325 L 491.3271 175.9938 L 489.7196 175.0635 L 487.494 173.2665 L 482.6017 168.4834 L 480.4487 166.5417 L 478.1504 164.9266 L 474.8736 163.3419 L 473.2999 162.332 L 471.0683 160.5071 L 468.9352 158.4925 L 466.9026 156.369 L 465.0582 154.1115 L 464.0429 152.4685 L 463.3482 150.6516 L 462.9032 147.7663 L 462.6902 140.8584 L 462.4075 137.9493 L 461.9676 136.0979 L 460.1839 132.1137 L 459.6055 130.3857 L 459.2582 128.5012 L 458.7396 122.6616 L 458.4668 120.7386 L 456.5478 113.7802 L 458.5813 112.6362 L 462.5479 110.814 L 463.2675 110.3336 L 464.5595 109.1643 L 465.6156 107.7469 L 466.3492 106.0442 L 466.7145 104.1702 L 466.8559 102.2405 L 466.9634 95.3605 L 467.1803 93.4215 L 467.6711 91.5356 L 468.5331 89.7957 L 470.2491 87.4439 L 472.8898 84.5507 L 475.7346 81.8924 L 477.2675 80.7391 L 478.9437 79.83 L 479.8853 79.5075 L 481.8253 79.1306 L 485.8187 78.9461 L 496.9719 79.112 L 498.9517 78.9501 L 500.8817 78.5586 L 502.6894 77.7848 L 504.3019 76.6713 L 506.5116 74.662 L 509.9974 70.9685 L 511.6676 73.1119 L 512.667 74.5943 L 515.0887 79.5685 L 516.1836 81.1346 L 517.4149 82.6356 L 520.0726 85.5434 L 532.4351 98.4767 L 534.5453 100.4847 L 536.8456 102.1742 L 537.6937 102.6002 L 539.5013 103.1496 L 542.3242 103.4814 L 563.0857 103.504 L 559.5591 108.7755 L 558.1984 111.0914 L 557.5285 112.8074 L 556.5302 117.4273 L 556.0116 119.2309 L 553.6774 123.9503 L 552.2789 127.3917 L 550.6784 130.5092 L 549.9786 132.1389 L 549.3565 134.9392 L 548.6309 141.6866 L 548.1571 143.5327 L 547.4514 145.1584 L 545.8299 148.2613 L 544.3975 151.6761 L 542.3749 155.5594 L 541.7628 157.306 L 541.4084 159.2118 L 541.2333 161.172 L 541.1835 168.2073 Z" fill="#000000" fill-opacity="1" stroke="#000000" stroke-width="0" paint-order="fill" stroke-opacity="1" stroke-dasharray="" stroke-linecap="butt" stroke-linejoin="miter" stroke-miterlimit="10" transform="matrix(1.100000023841858,0,0,1.100000023841858,-40.00007247924805,-26.650001525878906)" clip-path="none" style="filter: url(#f1)"/>
<path data-code="206" d="M 563.0857 103.504 L 572.1516 103.3819 L 577.238 103.7216 L 580.1146 104.4197 L 583.9418 106.2963 L 585.6986 106.9267 L 587.6973 107.2997 L 589.7498 107.443 L 592.8335 107.2997 L 594.8352 106.9241 L 596.592 106.2857 L 600.4242 104.3627 L 603.3247 103.6088 L 606.3686 103.2837 L 609.4393 103.2094 L 612.4623 103.4217 L 614.4092 103.8636 L 615.3429 104.2392 L 616.8369 105.1988 L 618.0971 106.4277 L 619.1164 107.8597 L 622.8809 115.9528 L 623.4413 117.8467 L 624.2037 121.8614 L 623.7329 124.9656 L 623.4741 129.2019 L 623.507 134.5119 L 623.8354 137.6228 L 624.6616 140.439 L 626.6165 144.3635 L 627.9553 147.8539 L 629.6892 151.7704 L 628.9198 154.0252 L 626.6583 159.8661 L 625.7356 161.4029 L 623.4771 164.2391 L 617.1147 164.2723 L 615.0403 164.4501 L 613.0247 164.8323 L 611.0926 165.557 L 607.4824 167.5637 L 604.2037 169.0846 L 600.6263 171.0607 L 598.7828 171.7124 L 596.9593 171.9791 L 595.1179 171.9672 L 593.3053 171.6858 L 591.4828 171.0501 L 588.7734 169.6845 L 586.8742 168.9744 L 584.8645 168.5657 L 582.7832 168.3414 L 577.448 168.1728 L 552.0191 168.2179 L 541.1835 168.2073 L 541.2333 161.172 L 541.4084 159.2118 L 541.7628 157.306 L 542.3749 155.5594 L 544.3975 151.6761 L 545.8299 148.2613 L 547.4514 145.1584 L 548.1571 143.5327 L 548.6309 141.6866 L 549.3565 134.9392 L 549.9786 132.1389 L 550.6784 130.5092 L 552.2789 127.3917 L 553.6774 123.9503 L 556.0116 119.2309 L 556.5302 117.4273 L 557.5285 112.8074 L 558.1984 111.0914 L 559.5591 108.7755 L 563.0857 103.504 Z" fill="#000000" fill-opacity="1" stroke="#000000" stroke-width="0" paint-order="fill" stroke-opacity="1" stroke-dasharray="" stroke-linecap="butt" stroke-linejoin="miter" stroke-miterlimit="10" transform="matrix(1.100000023841858,0,0,1.100000023841858,-40.00007247924805,-26.650001525878906)" clip-path="none" style="filter: url(#f1)"/>
<path data-code="207" d="M 412.6955 288.2575 L 412.0883 293.663 L 412.153 298.4448 L 408.708 297.9153 L 405.8085 297.7374 L 402.9448 297.8728 L 400.2006 298.4886 L 398.6189 299.2212 L 395.6268 300.9001 L 392.3152 302.3825 L 388.5925 304.6108 L 384.5045 306.4994 L 379.9975 309.0927 L 376.6709 310.522 L 372.9741 312.5486 L 370.6917 313.3927 L 367.6269 309.2758 L 364.0506 305.0395 L 362.3883 302.8802 L 361.4725 301.3566 L 359.9964 297.9591 L 358.5392 295.7016 L 356.1393 292.9066 L 349.0065 285.4904 L 346.6902 282.6529 L 345.7665 281.1173 L 343.9778 276.8956 L 341.8358 273.007 L 340.3785 269.5803 L 339.3822 267.9373 L 335.759 263.2417 L 334.6621 261.6107 L 333.8121 259.9066 L 332.3887 256.5449 L 329.4643 251.4884 L 328.9885 250.8301 L 328.4012 250.2395 L 327.6577 249.7564 L 326.8375 249.4193 L 325.0557 249.049 L 322.1702 248.9216 L 317.1306 249.0397 L 314.1186 248.9866 L 312.1627 248.7411 L 310.2914 248.1479 L 308.8033 247.2096 L 308.1473 246.6283 L 307.0146 245.3038 L 306.1267 243.7603 L 304.6137 240.518 L 302.0457 236.8258 L 300.3585 234.6904 L 299.3552 233.2066 L 298.6116 231.76 L 297.453 229.0221 L 296.0008 226.7447 L 294.2439 224.6119 L 291.7067 221.8846 L 289.7209 219.9363 L 287.6336 218.1725 L 286.1396 217.209 L 282.8071 215.7491 L 279.806 214.0636 L 278.2373 213.319 L 276.4566 212.8174 L 272.5885 212.1127 L 271.0786 211.6694 L 269.5138 210.9288 L 266.5148 209.242 L 263.2002 207.741 L 261.723 206.7602 L 260.3335 205.6002 L 254.3921 199.774 L 252.3247 198.0062 L 250.8565 197.0294 L 248.2307 195.7872 L 246.8362 195.0041 L 245.4049 193.9623 L 240.5554 189.9437 L 239.0802 189.0054 L 236.4445 187.7976 L 235.039 187.012 L 233.6107 185.9423 L 231.6219 184.0816 L 229.8272 182.0205 L 228.795 180.542 L 228.0376 179.0874 L 226.873 176.3628 L 225.9632 174.8379 L 222.0534 169.8331 L 220.6051 167.569 L 219.1558 164.1422 L 216.6325 159.5024 L 215.2739 156.0412 L 212.7745 151.3842 L 211.0784 147.1147 L 208.0873 141.299 L 209.428 139.145 L 210.8275 137.6506 L 212.5426 136.4748 L 214.5214 135.7793 L 217.6837 135.3679 L 220.9545 135.3002 L 226.4987 135.4489 L 231.6498 135.774 L 241.6423 135.5086 L 290.9034 135.5564 L 314.4261 135.7263 L 317.5128 135.6002 L 320.5089 135.0786 L 322.3842 134.2717 L 324.8607 132.4296 L 327.1281 130.2411 L 333.7643 123.3093 L 335.3061 121.8905 L 336.9266 120.6271 L 338.6008 119.6583 L 341.0644 118.5262 L 344.8418 116.4823 L 345.652 116.1466 L 347.5443 115.6476 L 351.5088 115.2667 L 357.6164 115.2069 L 362.7018 115.3224 L 366.6634 115.7418 L 369.345 116.5859 L 373.1752 118.5182 L 374.9141 119.0889 L 379.3465 120.209 L 383.9043 122.2688 L 385.5716 122.655 L 387.3423 122.574 L 388.9857 122.0073 L 390.4071 121.1009 L 392.364 119.4565 L 394.6374 122.3006 L 395.6089 123.8189 L 397.1995 127.1886 L 399.2629 130.9856 L 399.8393 132.7043 L 399.9985 133.6174 L 400.0642 135.433 L 399.7726 137.1729 L 399.46 137.9838 L 399.0081 138.7243 L 398.4298 139.3348 L 397.1089 140.228 L 392.8477 142.6912 L 389.563 144.0702 L 387.8788 144.9182 L 386.2733 146.041 L 384.7762 147.339 L 383.4006 148.771 L 382.1972 150.3477 L 381.2775 152.1181 L 380.8027 154.0027 L 380.6803 155.9218 L 381.0267 158.7579 L 381.6129 160.4806 L 383.4713 164.3785 L 384.1611 167.2849 L 384.5005 171.4098 L 384.5742 176.6786 L 384.4537 181.9316 L 384.0198 186.0099 L 383.5211 187.9357 L 381.7065 191.8973 L 381.0973 193.6969 L 380.7231 195.7381 L 380.529 197.8456 L 380.4026 202.1523 L 380.4344 222.8839 L 380.311 240.3375 L 380.535 245.6833 L 380.8804 247.7444 L 381.4855 249.5786 L 383.4524 253.4844 L 384.9564 256.8793 L 386.6237 259.3691 L 390.0219 263.1979 L 404.5514 278.0941 L 408.3945 282.1791 L 410.7516 285.0803 L 412.6955 288.2575 Z" fill="#000000" fill-opacity="1" stroke="#000000" stroke-width="0" paint-order="fill" stroke-opacity="1" stroke-dasharray="" stroke-linecap="butt" stroke-linejoin="miter" stroke-miterlimit="10" transform="matrix(1.100000023841858,0,0,1.100000023841858,-40.00007247924805,-26.650001525878906)" clip-path="none" style="filter: url(#f1)"/>
<path data-code="208" d="M 504.0092 220.1194 L 504.9907 219.3908 L 505.4087 218.8812 L 507.0282 216.1884 L 508.1341 214.7471 L 514.0764 208.2453 L 515.9189 205.9692 L 516.9342 204.3434 L 518.4203 200.914 L 520.0825 197.8111 L 520.8261 196.1893 L 521.3546 194.3591 L 522.2674 189.7671 L 523.63 185.9608 L 523.856 184.42 L 523.7535 183.6317 L 523.205 182.1373 L 519.4425 175.7271 L 525.0554 173.3899 L 526.8262 172.8816 L 529.8342 172.4928 L 535.7597 172.1663 L 538.3905 171.589 L 539.8049 170.7183 L 540.2866 170.1437 L 541.1835 168.2073 L 552.0191 168.2179 L 552.6313 171.3116 L 552.8692 173.3103 L 553.0274 178.319 L 552.9229 180.2952 L 552.6542 182.2328 L 552.1097 184.0975 L 551.7205 184.9217 L 550.758 186.4479 L 547.3847 190.6709 L 546.3634 192.1282 L 544.3547 196.2477 L 542.7492 198.6512 L 539.4675 202.3646 L 530.2881 211.676 L 528.3292 213.9043 L 527.1766 215.4797 L 526.2648 217.1864 L 525.9483 218.0862 L 524.7976 223.6298 L 524.1924 225.3432 L 522.2136 229.2583 L 520.8589 232.7275 L 518.3814 237.4071 L 517.3632 240.0084 L 516.5559 241.6753 L 515.0031 243.9169 L 513.8206 245.2958 L 512.5495 246.5646 L 511.165 247.6648 L 510.4095 248.1173 L 509.5923 248.473 L 508.6745 248.7053 L 507.7409 248.7876 L 506.8062 248.7239 L 505.8805 248.5089 L 504.2829 247.7272 L 502.8735 246.6495 L 500.9743 244.7291 L 499.3459 242.534 L 498.5337 240.871 L 498.0828 238.9559 L 497.9952 237.9844 L 498.033 236.0441 L 498.3455 234.141 L 498.6222 233.2226 L 500.9743 228.527 L 502.6913 223.2051 L 504.0092 220.1194 Z" fill="#000000" fill-opacity="1" stroke="#000000" stroke-width="0" paint-order="fill" stroke-opacity="1" stroke-dasharray="" stroke-linecap="butt" stroke-linejoin="miter" stroke-miterlimit="10" transform="matrix(1.100000023841858,0,0,1.100000023841858,-40.00007247924805,-26.650001525878906)" clip-path="none" style="filter: url(#f1)"/>
<path data-code="209" d="M 490.1586 350.7206 L 484.8333 350.4658 L 479.5539 350.6065 L 475.6022 351.1811 L 471.9651 352.4724 L 470.5397 352.572 L 469.8191 352.3756 L 468.5619 351.5806 L 468.0364 351.0365 L 467.2142 349.7451 L 466.7145 348.2176 L 465.973 345.1677 L 465.1647 343.8034 L 464.4809 343.2261 L 463.6876 342.808 L 462.8206 342.5134 L 460.9413 342.175 L 457.9025 342.0117 L 453.6681 342.0422 L 449.402 342.2042 L 446.2655 342.5107 L 443.2963 343.2367 L 439.4651 345.1372 L 437.7083 345.7809 L 435.7056 346.1697 L 432.614 346.3489 L 429.5313 346.0967 L 427.5485 345.5871 L 418.8111 341.1 L 417.1876 339.8829 L 414.8824 337.8139 L 412.6816 335.5949 L 410.6212 333.2617 L 409.4058 331.5974 L 408.4423 329.7646 L 408.1078 328.7693 L 407.7067 326.7175 L 407.4957 322.505 L 407.6201 319.3304 L 407.8421 317.2441 L 408.5418 314.2447 L 410.3803 310.2739 L 410.9785 308.5485 L 411.4822 305.6951 L 412.153 298.4448 L 412.0883 293.663 L 412.6955 288.2575 L 414.7699 288.9397 L 417.551 289.3843 L 420.3679 289.3285 L 422.2023 288.9622 L 423.0842 288.6437 L 424.7535 287.6935 L 429.1909 283.9787 L 430.7656 282.8665 L 431.6226 282.4127 L 432.5841 282.0437 L 434.5918 281.5951 L 437.6894 281.4199 L 440.774 281.7265 L 442.7479 282.2892 L 444.3196 283.0683 L 447.2878 284.8546 L 450.5486 286.4672 L 454.1579 288.6902 L 455.7843 289.3391 L 457.5153 289.6431 L 458.3743 289.6616 L 460.0455 289.3803 L 460.8378 289.0233 L 461.5634 288.4632 L 462.1617 287.6603 L 462.5369 286.7751 L 462.8644 284.8878 L 462.8594 282.8918 L 462.6295 280.8413 L 462.1686 278.8107 L 461.4629 277.0363 L 459.8325 274.009 L 459.2313 272.3262 L 459.0531 271.4211 L 458.9486 269.6347 L 459.2034 267.9054 L 459.938 266.346 L 461.1414 265.2312 L 465.2921 262.8303 L 466.7872 262.1574 L 468.33 261.7062 L 473.488 261.3638 L 477.6268 261.2483 L 482.8117 261.2974 L 485.8715 261.5005 L 487.8483 261.7911 L 489.7186 262.3034 L 492.7107 263.6956 L 494.2386 264.2637 L 495.0966 264.4282 L 496.8425 264.4415 L 498.4909 264.0487 L 501.48 262.6936 L 503.196 262.0924 L 505.1648 261.6956 L 510.2542 261.0453 L 512.242 260.6259 L 513.9888 259.9849 L 517.0456 258.4454 L 518.8164 257.8203 L 521.8533 257.3597 L 524.9569 257.3504 L 527.0004 257.5867 L 528.9692 258.1016 L 533.5947 260.3538 L 535.3277 260.9152 L 538.9081 261.7487 L 540.6529 262.2915 L 544.514 264.1482 L 546.2828 264.7534 L 548.2825 265.1184 L 554.4399 265.7567 L 555.4462 265.9598 L 557.2528 266.565 L 561.0651 268.4694 L 563.4241 269.4648 L 564.8356 270.3182 L 565.9514 271.3892 L 566.4371 272.0833 L 566.7895 272.8451 L 566.9687 273.6772 L 566.9398 274.5067 L 566.473 275.9839 L 565.4368 278.0795 L 564.3309 280.7139 L 563.018 282.9037 L 561.2502 285.0166 L 556.0832 290.438 L 554.2209 292.5535 L 550.5211 297.7574 L 547.0383 298.2497 L 545.2546 298.7501 L 543.6829 299.4813 L 540.6758 301.1549 L 537.3662 302.6241 L 533.6037 304.7037 L 531.8718 305.3421 L 529.9427 305.7058 L 526.9516 305.9075 L 515.7726 305.6965 L 512.8203 305.8438 L 510.9211 306.2287 L 510.0064 306.5804 L 508.5133 307.5399 L 507.284 308.814 L 506.7793 309.5532 L 506.3623 310.3588 L 505.7999 312.2951 L 505.5421 315.333 L 505.6476 322.6762 L 505.557 325.8097 L 505.3042 327.8535 L 504.7597 329.8177 L 504.3466 330.7202 L 503.3115 332.3884 L 499.1697 337.8365 L 497.0645 342.0051 L 496.0074 343.6733 L 490.1586 350.7206 Z" fill="#000000" fill-opacity="1" stroke="#000000" stroke-width="0" paint-order="fill" stroke-opacity="1" stroke-dasharray="" stroke-linecap="butt" stroke-linejoin="miter" stroke-miterlimit="10" transform="matrix(1.100000023841858,0,0,1.100000023841858,-40.00007247924805,-26.650001525878906)" clip-path="none" style="filter: url(#f1)"/>
<path data-code="210" d="M 350.7006 334.6937 L 349.2653 335.2578 L 348.6103 335.6519 L 346.8485 337.2883 L 345.9447 338.6712 L 345.5943 339.4715 L 344.378 343.5154 L 343.6304 344.9275 L 342.5146 346.0171 L 339.9645 348.0331 L 338.7402 349.2501 L 337.5845 350.5905 L 334.9219 354.1221 L 332.6813 353.1506 L 328.9098 351.0524 L 324.7711 349.2965 L 319.9843 346.3184 L 319.405 345.8273 L 318.9173 345.2049 L 318.5948 344.463 L 318.4465 343.676 L 318.5938 342.09 L 320.5079 337.9665 L 320.7796 336.2359 L 320.7269 335.3347 L 320.5278 334.4363 L 319.7613 332.8848 L 319.2378 332.2026 L 317.9886 331.0254 L 316.4876 330.1177 L 313.2984 328.6896 L 309.508 326.5834 L 306.1337 325.1846 L 301.6137 322.6139 L 298.2732 321.1779 L 293.7751 318.5899 L 290.4565 317.0982 L 288.2388 315.6688 L 282.8668 311.5533 L 280.5147 311.0264 L 276.4705 309.6315 L 274.7843 308.9374 L 273.2833 308.011 L 267.7202 303.4336 L 266.2709 302.4847 L 263.1365 300.8789 L 261.8365 299.845 L 260.7754 298.6121 L 260.3574 297.9418 L 259.8199 296.5032 L 259.6736 295.6007 L 260.8083 292.3425 L 263.4152 285.6602 L 264.8744 283.3682 L 266.677 281.3045 L 268.6837 279.4557 L 270.8944 277.9587 L 274.2538 276.5373 L 278.0392 274.4258 L 281.2991 273.0097 L 282.8927 272.1709 L 284.336 271.1211 L 285.6956 269.9107 L 286.9618 268.5902 L 288.1104 267.1715 L 289.0809 265.6359 L 289.7797 263.908 L 290.6755 259.2602 L 291.1563 257.4447 L 291.861 255.8295 L 293.4645 252.708 L 294.8282 249.2454 L 297.3793 244.6136 L 298.4633 242.0482 L 299.3074 240.4264 L 300.3326 238.948 L 302.0457 236.8258 L 304.6137 240.518 L 306.1267 243.7603 L 307.0146 245.3038 L 308.1473 246.6283 L 308.8033 247.2096 L 310.2914 248.1479 L 312.1627 248.7411 L 314.1186 248.9866 L 317.1306 249.0397 L 322.1702 248.9216 L 325.0557 249.049 L 326.8375 249.4193 L 327.6577 249.7564 L 328.4012 250.2395 L 328.9885 250.8301 L 329.4643 251.4884 L 332.3887 256.5449 L 333.8121 259.9066 L 334.6621 261.6107 L 335.759 263.2417 L 339.3822 267.9373 L 340.3785 269.5803 L 341.8358 273.007 L 343.9778 276.8956 L 345.7665 281.1173 L 346.6902 282.6529 L 349.0065 285.4904 L 356.1393 292.9066 L 358.5392 295.7016 L 359.9964 297.9591 L 361.4725 301.3566 L 362.3883 302.8802 L 364.0506 305.0395 L 367.6269 309.2758 L 370.6917 313.3927 L 368.2102 315.053 L 365.8422 316.8699 L 363.6474 318.8805 L 361.5641 320.996 L 358.4217 324.6497 L 355.7203 328.9763 L 352.8904 331.6572 L 350.7006 334.6937 Z" fill="#000000" fill-opacity="1" stroke="#000000" stroke-width="0" paint-order="fill" stroke-opacity="1" stroke-dasharray="" stroke-linecap="butt" stroke-linejoin="miter" stroke-miterlimit="10" transform="matrix(1.100000023841858,0,0,1.100000023841858,-40.00007247924805,-26.650001525878906)" clip-path="none" style="filter: url(#f1)"/>
<path data-code="211" d="M 468.33 261.7062 L 466.7872 262.1574 L 465.2921 262.8303 L 461.1414 265.2312 L 459.938 266.346 L 459.2034 267.9054 L 458.9486 269.6347 L 459.0531 271.4211 L 459.2313 272.3262 L 459.8325 274.009 L 461.4629 277.0363 L 462.1686 278.8107 L 462.6295 280.8413 L 462.8594 282.8918 L 462.8644 284.8878 L 462.5369 286.7751 L 462.1617 287.6603 L 461.5634 288.4632 L 460.8378 289.0233 L 460.0455 289.3803 L 458.3743 289.6616 L 457.5153 289.6431 L 455.7843 289.3391 L 454.1579 288.6902 L 450.5486 286.4672 L 447.2878 284.8546 L 444.3196 283.0683 L 442.7479 282.2892 L 440.774 281.7265 L 437.6894 281.4199 L 434.5918 281.5951 L 432.5841 282.0437 L 431.6226 282.4127 L 430.7656 282.8665 L 429.1909 283.9787 L 424.7535 287.6935 L 423.0842 288.6437 L 422.2023 288.9622 L 420.3679 289.3285 L 417.551 289.3843 L 414.7699 288.9397 L 412.6955 288.2575 L 410.7516 285.0803 L 408.3945 282.1791 L 404.5514 278.0941 L 390.0219 263.1979 L 386.6237 259.3691 L 384.9564 256.8793 L 383.4524 253.4844 L 381.4855 249.5786 L 380.8804 247.7444 L 380.535 245.6833 L 380.311 240.3375 L 380.4344 222.8839 L 380.4026 202.1523 L 380.529 197.8456 L 380.7231 195.7381 L 381.0973 193.6969 L 381.7065 191.8973 L 383.5211 187.9357 L 384.0198 186.0099 L 384.4537 181.9316 L 384.5742 176.6786 L 384.5005 171.4098 L 384.1611 167.2849 L 383.4713 164.3785 L 381.6129 160.4806 L 381.0267 158.7579 L 380.6803 155.9218 L 380.8027 154.0027 L 381.2775 152.1181 L 382.1972 150.3477 L 383.4006 148.771 L 384.7762 147.339 L 386.2733 146.041 L 387.8788 144.9182 L 389.563 144.0702 L 392.8477 142.6912 L 397.1089 140.228 L 398.4298 139.3348 L 399.0081 138.7243 L 399.46 137.9838 L 399.7726 137.1729 L 400.0642 135.433 L 399.9985 133.6174 L 399.8393 132.7043 L 399.2629 130.9856 L 397.1995 127.1886 L 395.6089 123.8189 L 394.6374 122.3006 L 392.364 119.4565 L 394.4264 117.6954 L 395.8578 116.6429 L 400.6395 114.1797 L 402.0709 113.1273 L 404.1333 111.3674 L 406.8676 113.7165 L 408.3308 114.7132 L 411.5976 116.3191 L 415.3213 118.4333 L 417.0234 119.0385 L 418.8649 119.3132 L 421.6519 119.1924 L 423.4515 118.7306 L 425.0143 117.9834 L 427.9596 116.2488 L 431.2423 114.7225 L 434.9849 112.5725 L 436.6761 111.9222 L 438.5225 111.5426 L 440.4217 111.3515 L 443.3152 111.2679 L 448.1299 111.5148 L 450.9169 112.0363 L 456.5478 113.7802 L 458.4668 120.7386 L 458.7396 122.6616 L 459.2582 128.5012 L 459.6055 130.3857 L 460.1839 132.1137 L 461.9676 136.0979 L 462.4075 137.9493 L 462.6902 140.8584 L 462.9032 147.7663 L 463.3482 150.6516 L 464.0429 152.4685 L 465.0582 154.1115 L 466.9026 156.369 L 468.9352 158.4925 L 471.0683 160.5071 L 473.2999 162.332 L 474.8736 163.3419 L 478.1504 164.9266 L 480.4487 166.5417 L 482.6017 168.4834 L 487.494 173.2665 L 489.7196 175.0635 L 491.3271 175.9938 L 493.7897 177.1325 L 496.7709 178.8366 L 498.3535 179.5878 L 501.1007 180.2487 L 503.9634 180.4903 L 508.785 180.4398 L 511.6189 180.0695 L 513.4245 179.5228 L 514.2267 179.1432 L 519.4425 175.7271 L 523.205 182.1373 L 523.7535 183.6317 L 523.856 184.42 L 523.63 185.9608 L 522.2674 189.7671 L 521.3546 194.3591 L 520.8261 196.1893 L 520.0825 197.8111 L 518.4203 200.914 L 516.9342 204.3434 L 515.9189 205.9692 L 514.0764 208.2453 L 508.1341 214.7471 L 507.0282 216.1884 L 505.4087 218.8812 L 504.9907 219.3908 L 504.0092 220.1194 L 497.1302 220.8653 L 495.2877 221.2767 L 493.5419 222.0253 L 491.9602 223.0963 L 490.488 224.3478 L 488.3888 226.4009 L 485.7341 229.3048 L 483.9454 231.6074 L 482.963 233.2478 L 481.5227 236.6865 L 479.0343 241.3408 L 477.6646 244.7994 L 475.1573 249.4472 L 474.1092 252.0325 L 473.3168 253.6768 L 468.33 261.7062 Z" fill="#000000" fill-opacity="1" stroke="#000000" stroke-width="0" paint-order="fill" stroke-opacity="1" stroke-dasharray="" stroke-linecap="butt" stroke-linejoin="miter" stroke-miterlimit="10" transform="matrix(1.100000023841858,0,0,1.100000023841858,-40.00007247924805,-26.650001525878906)" clip-path="none" style="filter: url(#f1)"/>
<path data-code="212" d="M 372.9791 435.8265 L 371.8672 432.6851 L 371.4551 431.8463 L 370.4697 430.405 L 368.6333 428.6491 L 366.6146 427.5104 L 364.0227 423.4374 L 361.5731 420.3318 L 358.1549 416.6728 L 349.6425 408.1245 L 347.6617 405.9307 L 346.0114 403.5325 L 345.3166 401.7116 L 345.0309 399.8072 L 345.1653 396.9418 L 345.6192 395.105 L 347.5044 391.2071 L 347.8369 390.3976 L 348.3246 388.5647 L 348.678 385.6582 L 348.9826 379.6926 L 349.3469 376.7782 L 349.8456 374.9454 L 350.185 374.1398 L 352.0881 370.2923 L 352.5251 368.5073 L 352.6336 366.7023 L 352.5609 365.8198 L 352.0981 364.1502 L 351.6611 363.4056 L 350.4498 362.3121 L 346.2751 359.7878 L 344.7542 358.9742 L 340.5965 357.2702 L 334.9219 354.1221 L 337.5845 350.5905 L 338.7402 349.2501 L 339.9645 348.0331 L 342.5146 346.0171 L 343.6304 344.9275 L 344.378 343.5154 L 345.5943 339.4715 L 345.9447 338.6712 L 346.8485 337.2883 L 348.6103 335.6519 L 349.2653 335.2578 L 350.7006 334.6937 L 357.0252 337.3414 L 358.8238 337.8086 L 362.4709 338.4894 L 364.2387 339.0097 L 365.033 339.3574 L 368.8144 341.4238 L 372.1698 342.8279 L 376.661 345.4 L 379.9019 346.9156 L 381.3054 347.9388 L 382.5337 349.1904 L 383.543 350.6303 L 383.964 351.4558 L 385.0221 353.9721 L 386.979 357.8793 L 387.5464 359.6524 L 387.9137 362.5509 L 388.0998 370.4622 L 388.3397 372.3959 L 388.8573 374.2632 L 389.7521 375.9686 L 390.8928 377.5201 L 396.8292 383.99 L 398.5632 386.2913 L 399.4461 387.9582 L 400.9401 391.2974 L 403.123 395.1369 L 404.5524 398.5357 L 406.1489 401.5205 L 406.775 403.1198 L 406.9502 404.0355 L 406.9204 405.9055 L 406.7054 406.8305 L 405.913 408.5054 L 404.8181 410.0038 L 403.562 411.4159 L 397.3767 417.6363 L 394.7808 420.5203 L 393.1225 422.807 L 391.5637 426.0997 L 390.6957 427.6538 L 388.9767 429.618 L 387.5951 430.6638 L 386.8018 431.1004 L 384.3731 432.2073 L 381.376 433.8689 L 379.7874 434.6028 L 377.9808 435.0992 L 372.9791 435.8265 Z" fill="#000000" fill-opacity="1" stroke="#000000" stroke-width="0" paint-order="fill" stroke-opacity="1" stroke-dasharray="" stroke-linecap="butt" stroke-linejoin="miter" stroke-miterlimit="10" transform="matrix(1.100000023841858,0,0,1.100000023841858,-40.00007247924805,-26.650001525878906)" clip-path="none" style="filter: url(#f1)"/>
<path data-code="213" d="M 302.0457 236.8258 L 300.3326 238.948 L 299.3074 240.4264 L 298.4633 242.0482 L 297.3793 244.6136 L 294.8282 249.2454 L 293.4645 252.708 L 291.861 255.8295 L 291.1563 257.4447 L 290.6755 259.2602 L 289.7797 263.908 L 289.0809 265.6359 L 288.1104 267.1715 L 286.9618 268.5902 L 285.6956 269.9107 L 284.336 271.1211 L 282.8927 272.1709 L 281.2991 273.0097 L 278.0392 274.4258 L 274.2538 276.5373 L 270.8944 277.9587 L 268.6837 279.4557 L 266.677 281.3045 L 264.8744 283.3682 L 263.4152 285.6602 L 260.8083 292.3425 L 259.6736 295.6007 L 255.1327 293.1109 L 253.6217 292.0439 L 251.5393 290.2336 L 249.685 288.2469 L 248.6488 286.7976 L 247.9072 285.1732 L 247.7042 284.2388 L 247.7101 282.3636 L 248.2058 280.6343 L 250.2862 276.9262 L 251.8131 273.5923 L 253.4883 270.6221 L 254.1253 269.0507 L 254.3712 267.2139 L 254.3055 266.2756 L 254.1054 265.3466 L 253.7451 264.4043 L 252.7119 262.6936 L 251.4348 261.1223 L 249.2918 258.8847 L 247.0094 256.7532 L 245.4248 255.4314 L 243.7794 254.2581 L 239.6277 252.2117 L 238.0172 251.1619 L 235.7895 249.2269 L 233.7928 247.0198 L 232.1664 244.5619 L 230.7201 241.1258 L 228.3173 236.4064 L 226.6112 232.1476 L 223.6499 227.0672 L 222.6118 225.8117 L 221.2033 224.9716 L 216.2981 223.517 L 211.6806 221.3325 L 208.8079 220.6941 L 204.7906 220.426 L 196.6235 220.4101 L 191.6178 220.7472 L 188.7859 221.4201 L 184.9587 223.31 L 182.3787 224.1288 L 178.6003 224.5163 L 172.7584 224.5469 L 170.698 222.7937 L 169.2686 221.7412 L 167.7119 220.868 L 165.2543 219.6894 L 163.7901 218.7219 L 158.9725 214.6528 L 157.5371 213.6057 L 155.9635 212.7497 L 153.473 211.6548 L 148.9958 209.0296 L 146.5144 207.9188 L 144.9546 207.0482 L 143.5382 205.9904 L 139.4472 202.4841 L 137.973 201.486 L 137.1807 201.0826 L 135.395 200.5039 L 129.5163 199.6094 L 129.8 187.077 L 129.7343 182.6376 L 129.4944 179.3741 L 128.8465 176.2539 L 127.1842 172.3959 L 126.5332 170.5153 L 125.719 166.0215 L 131.7301 161.89 L 134.0622 160.6491 L 137.0205 159.9099 L 142.0899 159.3273 L 144.0667 158.9503 L 145.8166 158.3544 L 149.7006 156.5774 L 151.7261 156.0638 L 154.9094 155.7174 L 158.1732 155.6152 L 178.0011 155.724 L 181.2251 155.4971 L 184.3107 154.8268 L 188.999 152.6954 L 195.2081 151.1386 L 197.6199 150.0769 L 201.9229 147.5327 L 203.2288 146.5865 L 205.7869 143.5499 L 208.0873 141.299 L 211.0784 147.1147 L 212.7745 151.3842 L 215.2739 156.0412 L 216.6325 159.5024 L 219.1558 164.1422 L 220.6051 167.569 L 222.0534 169.8331 L 225.9632 174.8379 L 226.873 176.3628 L 228.0376 179.0874 L 228.795 180.542 L 229.8272 182.0205 L 231.6219 184.0816 L 233.6107 185.9423 L 235.039 187.012 L 236.4445 187.7976 L 239.0802 189.0054 L 240.5554 189.9437 L 245.4049 193.9623 L 246.8362 195.0041 L 248.2307 195.7872 L 250.8565 197.0294 L 252.3247 198.0062 L 254.3921 199.774 L 260.3335 205.6002 L 261.723 206.7602 L 263.2002 207.741 L 266.5148 209.242 L 269.5138 210.9288 L 271.0786 211.6694 L 272.5885 212.1127 L 276.4566 212.8174 L 278.2373 213.319 L 279.806 214.0636 L 282.8071 215.7491 L 286.1396 217.209 L 287.6336 218.1725 L 289.7209 219.9363 L 291.7067 221.8846 L 294.2439 224.6119 L 296.0008 226.7447 L 297.453 229.0221 L 298.6116 231.76 L 299.3552 233.2066 L 300.3585 234.6904 L 302.0457 236.8258 Z" fill="#000000" fill-opacity="1" stroke="#000000" stroke-width="0" paint-order="fill" stroke-opacity="1" stroke-dasharray="" stroke-linecap="butt" stroke-linejoin="miter" stroke-miterlimit="10" transform="matrix(1.100000023841858,0,0,1.100000023841858,-40.00007247924805,-26.650001525878906)" clip-path="none" style="filter: url(#f1)"/>














</svg>