<?xml version="1.0" standalone="no"?>
<!-- Generator: Paintmaps.com , Online SVG vector map maker -->
<svg xmlns="http://www.w3.org/2000/svg" version="1.1" baseProfile="full"   style="background-color:#e0f2f1" width="800" height="500" viewBox="0 0 800 533">

<path data-code="200" d="M 419.5603 408.8808 L 417.2734 407.9702 L 415.7385 407.6144 L 414.1635 407.4113 L 410.1724 407.2711 L 407.0231 407.5113 L 405.5076 407.865 L 404.1147 408.4889 L 402.8839 409.3365 L 399.3978 412.1693 L 398.0969 412.9004 L 397.3761 413.1633 L 395.8734 413.483 L 394.3239 413.6222 L 386.4553 413.6655 L 384.2148 414.0739 L 383.5098 414.3616 L 382.3803 415.1154 L 381.8926 415.5794 L 381.0798 416.6364 L 380.5114 417.8594 L 379.6668 421.018 L 379.0937 422.1306 L 378.6776 422.5957 L 375.5875 424.8128 L 373.8825 425.8667 L 371.3203 426.9886 L 369.0097 428.1652 L 367.7878 428.6097 L 366.415 428.7664 L 365.0577 428.5839 L 363.867 428.1333 L 361.5491 427.0371 L 359.4737 426.5246 L 356.5147 426.2678 L 351.4377 426.2183 L 352.3128 422.97 L 352.8097 418.1698 L 351.9524 416.392 L 350.2509 413.4046 L 349.4114 411.4093 L 348.7602 410.1491 L 347.9713 408.9973 L 346.6519 407.3432 L 346.6569 404.196 L 349.3743 402.0171 L 352.5042 400.4424 L 353.6477 399.699 L 357.4103 396.562 L 358.5248 395.7546 L 361.6586 394.2027 L 363.4343 392.9724 L 366.7344 389.9139 L 370.9587 385.5581 L 372.376 383.8339 L 373.1621 382.5893 L 373.4715 381.92 L 373.9657 379.9113 L 374.3211 375.7566 L 374.649 373.7045 L 375.0879 372.3814 L 376.4653 369.2971 L 376.985 366.8367 L 377.2229 362.4397 L 377.1502 340.8226 L 377.323 335.4975 L 377.5415 333.7806 L 377.9456 332.1358 L 379.533 328.3863 L 379.9328 326.7756 L 380.2325 324.2492 L 380.5431 319.3737 L 385.5752 319.2149 L 387.7716 318.9581 L 389.1711 318.591 L 392.1785 317.1566 L 393.4573 316.676 L 396.9345 315.9047 L 398.3046 315.4933 L 405.1008 312.0975 L 406.3158 311.1808 L 407.4523 310.1403 L 409.4756 307.8088 L 410.2907 306.5146 L 413.2258 300.1707 L 413.7157 297.8649 L 413.8936 295.4632 L 413.904 287.2848 L 413.7706 284.8656 L 413.568 283.293 L 412.9454 281.1378 L 411.5243 278.0597 L 410.807 275.2301 L 411.136 274.3206 L 411.7401 273.4987 L 412.2053 273.2069 L 413.3035 272.9779 L 414.5417 273.1976 L 417.172 274.3793 L 419.3642 274.9176 L 423.3492 275.229 L 429.0747 275.2476 L 431.2259 277.0831 L 432.3879 277.8658 L 433.6969 278.5217 L 436.4073 279.6106 L 438.4425 280.9522 L 440.4982 281.8638 L 441.5817 282.4547 L 442.6792 283.2487 L 445.3346 285.4647 L 446.7635 286.5135 L 447.1486 290.2268 L 447.3083 294.696 L 447.1235 317.0803 L 447.2809 319.6665 L 447.6173 321.3257 L 448.3111 322.855 L 448.7925 323.5253 L 449.948 324.6678 L 451.219 325.4753 L 453.6711 326.6158 L 457.4592 328.6916 L 457.0338 331.9419 L 457.0988 333.3959 L 457.4004 335.4934 L 454.627 340.4153 L 454.0412 341.6692 L 453.6274 343.0737 L 452.849 346.654 L 452.3173 347.976 L 451.2299 349.7425 L 449.0257 352.7154 L 448.3107 355.4213 L 446.8884 359.478 L 446.05 361.1857 L 444.6931 363.3327 L 441.6045 366.0849 L 439.7178 368.1968 L 438.5852 369.9313 L 437.4231 372.566 L 436.6648 373.7983 L 435.2669 375.5493 L 431.159 380.0577 L 430.2332 381.2415 L 429.4498 382.4965 L 428.2974 385.1487 L 426.331 388.7507 L 425.2641 391.438 L 423.9946 393.8521 L 423.4254 395.1039 L 423.0228 396.5177 L 422.471 399.4174 L 422.0812 400.825 L 420.6253 403.9021 L 420.1492 405.2417 L 419.8484 406.6761 L 419.5603 408.8808 Z" fill="#000000" fill-opacity="1" stroke="#000000" stroke-width="0" paint-order="fill" stroke-opacity="1" stroke-dasharray="" stroke-linecap="butt" stroke-linejoin="miter" stroke-miterlimit="10" transform="matrix(1.149999976158142,0,0,1.149999976158142,-60.000022888183594,-39.97491455078125)" clip-path="none" style="filter: url(#f1)"/>
<path data-code="201" d="M 343.5243 208.8322 L 344.4524 203.804 L 344.9238 202.4666 L 346.0684 200.002 L 346.5386 198.582 L 346.9261 196.1422 L 347.0742 193.6168 L 347.1013 186.7779 L 346.7989 182.5727 L 346.2528 180.3246 L 344.6364 175.9647 L 344.3259 174.1808 L 344.1012 171.48 L 344.0088 165.0155 L 346.1009 165.4805 L 347.3936 165.9786 L 350.3321 167.5914 L 352.925 168.7195 L 356.4126 170.7582 L 358.9927 171.876 L 361.8566 173.4651 L 363.6284 174.1199 L 366.717 179.1996 L 367.6389 181.0754 L 368.1822 183.4554 L 368.6045 187.5317 L 368.8864 189.1218 L 369.3392 190.5253 L 370.7043 193.6374 L 371.2093 195.9463 L 371.4185 198.3675 L 371.5105 202.4862 L 371.4599 204.9528 L 371.2317 207.3689 L 371.0778 208.1526 L 370.6107 209.5726 L 368.7592 213.0013 L 368.0461 214.0511 L 367.5643 214.5099 L 366.9885 214.8626 L 365.7181 215.2421 L 365.0511 215.304 L 363.6907 215.2204 L 363.0101 215.0802 L 361.7332 214.5997 L 358.903 212.925 L 356.3639 211.7092 L 354.0398 210.3676 L 352.1268 209.5581 L 350.6968 209.2611 L 349.2258 209.0992 L 343.5243 208.8322 Z" fill="#000000" fill-opacity="1" stroke="#000000" stroke-width="0" paint-order="fill" stroke-opacity="1" stroke-dasharray="" stroke-linecap="butt" stroke-linejoin="miter" stroke-miterlimit="10" transform="matrix(1.149999976158142,0,0,1.149999976158142,-60.000022888183594,-39.97491455078125)" clip-path="none" style="filter: url(#f1)"/>
<path data-code="202" d="M 330.378 255.6187 L 327.5319 256.026 L 320.6317 256.5674 L 318.0674 257.147 L 315.5477 257.9626 L 313.9464 252.9366 L 313.2109 249.4625 L 312.8354 248.2291 L 311.0798 245.3232 L 309.9943 241.481 L 309.3528 240.0765 L 307.8574 238.0605 L 306.0519 236.2951 L 304.0662 234.8596 L 301.6505 233.5531 L 300.4277 232.5487 L 299.4235 231.303 L 299.0325 230.6008 L 298.5565 229.2757 L 298.2359 227.9114 L 299.3291 227.4525 L 300.3079 226.8225 L 302.5225 223.9207 L 303.485 223.0328 L 304.6223 222.3099 L 306.084 221.8098 L 307.6273 221.5675 L 310.0075 221.4582 L 312.4073 221.5355 L 313.9889 221.7015 L 315.5268 222.014 L 316.8915 222.5162 L 319.8702 224.0032 L 325.3672 225.4613 L 328.9268 227.3381 L 332.1105 228.7694 L 335.3815 230.7565 L 334.967 234.3812 L 334.7199 242.3389 L 334.4558 244.9159 L 334.0583 246.5586 L 332.3676 250.2895 L 331.2021 253.7058 L 330.378 255.6187 Z" fill="#000000" fill-opacity="1" stroke="#000000" stroke-width="0" paint-order="fill" stroke-opacity="1" stroke-dasharray="" stroke-linecap="butt" stroke-linejoin="miter" stroke-miterlimit="10" transform="matrix(1.149999976158142,0,0,1.149999976158142,-60.000022888183594,-39.97491455078125)" clip-path="none" style="filter: url(#f1)"/>
<path data-code="203" d="M 474.8688 199.5576 L 471.1639 199.836 L 469.7296 200.1288 L 469.0328 200.3722 L 468.3479 200.7073 L 467.0873 201.5674 L 465.9392 202.5913 L 464.8858 203.7215 L 463.9395 204.9384 L 463.1503 206.2469 L 462.0459 208.9229 L 460.1522 212.5692 L 459.1108 215.2761 L 457.2059 218.8977 L 456.0532 221.4943 L 455.2767 222.6141 L 453.8057 224.0166 L 452.6286 224.7271 L 450.1564 225.8965 L 447.2496 227.5845 L 444.6486 228.6869 L 442.3041 229.98 L 441.0759 230.5554 L 438.9568 231.0803 L 434.7263 231.5845 L 433.4517 229.6706 L 432.5704 228.5631 L 431.1195 227.0442 L 430.0696 226.1532 L 428.9358 225.419 L 426.3082 224.3311 L 421.372 221.9356 L 423.8979 218.1655 L 427.3504 213.9552 L 428.6052 212.0464 L 429.7777 209.4045 L 431.7383 205.8004 L 432.8164 203.1183 L 434.6161 199.4359 L 435.0132 198.0242 L 435.753 194.417 L 436.2352 193.0816 L 437.7889 190.0406 L 438.8899 187.3667 L 440.8698 183.7668 L 441.9742 181.0939 L 443.8079 177.4259 L 444.2205 176.0163 L 444.9885 172.4246 L 445.4634 171.1057 L 446.8845 168.0132 L 447.383 165.6816 L 447.5833 162.4127 L 447.5821 158.2477 L 447.4657 154.9025 L 447.1386 150.8107 L 450.4186 152.8628 L 452.0953 154.1837 L 455.2028 157.2093 L 457.6 159.8986 L 458.4499 161.0309 L 459.1677 162.224 L 460.0733 164.3483 L 460.6514 165.4743 L 461.4275 166.6324 L 464.4248 170.5509 L 465.1178 171.7306 L 466.2675 174.321 L 466.6248 174.8985 L 467.4875 175.9503 L 468.5146 176.8371 L 469.5962 177.4497 L 473.4527 178.7748 L 474.9891 179.113 L 474.8688 199.5576 Z" fill="#000000" fill-opacity="1" stroke="#000000" stroke-width="0" paint-order="fill" stroke-opacity="1" stroke-dasharray="" stroke-linecap="butt" stroke-linejoin="miter" stroke-miterlimit="10" transform="matrix(1.149999976158142,0,0,1.149999976158142,-60.000022888183594,-39.97491455078125)" clip-path="none" style="filter: url(#f1)"/>
<path data-code="204" d="M 456.726 124.215 L 456.4631 125.6494 L 456.0443 127.0539 L 455.7345 127.7128 L 454.9491 128.9482 L 453.0149 131.2179 L 447.1962 137.1597 L 446.2523 138.3084 L 445.4433 139.5428 L 445.1192 140.2089 L 444.6761 141.6454 L 443.7097 147.7975 L 440.485 145.1855 L 439.3574 144.4069 L 438.1424 143.7758 L 437.4548 143.5418 L 436.0349 143.251 L 431.6775 142.8416 L 429.5689 142.3683 L 428.3415 141.8135 L 425.9977 140.5368 L 423.4068 139.4242 L 419.9277 137.3917 L 418.0077 136.51 L 416.7556 135.7995 L 415.017 134.4177 L 410.6476 130.1805 L 408.9307 128.7358 L 407.7076 127.95 L 404.5475 126.494 L 400.2458 123.7376 L 399.8077 123.2684 L 399.218 122.0907 L 398.9187 120.7584 L 398.6371 117.9268 L 400.4047 117.5741 L 401.6611 117.1967 L 404.6596 115.7221 L 405.945 115.2425 L 409.421 114.4743 L 410.7803 114.0092 L 411.4423 113.6648 L 412.6809 112.812 L 415.5839 110.3464 L 417.4188 109.0492 L 419.9822 107.853 L 422.3182 106.5413 L 423.536 105.9679 L 424.9072 105.5709 L 426.3117 105.3028 L 427.9115 106.6692 L 429.0213 107.4869 L 430.1052 108.1015 L 432.1462 109.0677 L 433.2874 109.8143 L 437.0388 112.9615 L 438.1497 113.7731 L 439.2321 114.3825 L 441.27 115.3529 L 442.4065 116.116 L 444.0021 117.4998 L 448.0593 121.5483 L 449.127 122.4682 L 450.2778 123.2508 L 451.516 123.7798 L 452.7863 124.05 L 454.0868 124.1717 L 456.726 124.215 Z" fill="#000000" fill-opacity="1" stroke="#000000" stroke-width="0" paint-order="fill" stroke-opacity="1" stroke-dasharray="" stroke-linecap="butt" stroke-linejoin="miter" stroke-miterlimit="10" transform="matrix(1.149999976158142,0,0,1.149999976158142,-60.000022888183594,-39.97491455078125)" clip-path="none" style="filter: url(#f1)"/>
<path data-code="205" d="M 346.6519 407.3432 L 344.5865 406.8307 L 343.317 406.2625 L 342.1786 405.5036 L 340.568 404.1898 L 337.5285 401.0405 L 334.4894 397.8902 L 332.8216 397.5798 L 331.7342 397.2261 L 331.1333 396.9292 L 330.0111 396.1671 L 328.9755 395.2535 L 327.5586 393.6932 L 326.7636 392.6146 L 325.4275 390.4687 L 322.1672 388.8982 L 319.5249 387.8391 L 315.9661 385.9634 L 314.6011 385.5478 L 311.1096 384.793 L 309.8222 384.3062 L 306.8361 382.8203 L 305.4722 382.413 L 304.0697 382.1242 L 304.5167 379.8277 L 304.997 378.6305 L 305.3446 378.0211 L 306.6091 376.3124 L 309.0763 373.6632 L 311.2503 371.674 L 312.9255 370.4459 L 316.627 368.6454 L 320.9851 365.854 L 321.8316 364.9826 L 322.8401 363.409 L 323.627 362.418 L 324.5841 361.525 L 325.1274 361.1383 L 325.7179 360.8083 L 327.0818 360.3484 L 329.2496 360.103 L 330.7276 360.1256 L 332.2067 360.2679 L 335.8177 361.03 L 335.0768 362.6964 L 334.1383 365.4456 L 333.5157 366.7222 L 332.7338 367.8689 L 330.1046 371.1131 L 329.3486 372.2907 L 329.0474 372.9311 L 328.6491 374.3799 L 328.5547 375.1234 L 328.5385 376.6207 L 328.7481 378.0984 L 328.9519 378.8151 L 329.5118 380.0732 L 330.8038 382.4439 L 331.921 385.1023 L 333.9237 388.6919 L 334.7713 390.6821 L 335.4268 391.9423 L 336.218 393.0931 L 337.5389 394.7461 L 340.5784 397.8964 L 343.6179 401.0457 L 346.6569 404.196 L 346.6519 407.3432 Z" fill="#000000" fill-opacity="1" stroke="#000000" stroke-width="0" paint-order="fill" stroke-opacity="1" stroke-dasharray="" stroke-linecap="butt" stroke-linejoin="miter" stroke-miterlimit="10" transform="matrix(1.149999976158142,0,0,1.149999976158142,-60.000022888183594,-39.97491455078125)" clip-path="none" style="filter: url(#f1)"/>
<path data-code="206" d="M 474.5374 215.9144 L 472.7246 218.3512 L 470.7466 222.1367 L 467.0788 226.9926 L 466.3688 228.3517 L 466.117 229.0963 L 465.8096 230.642 L 465.6696 232.2311 L 465.6716 242.011 L 465.3955 245.1923 L 465.2334 245.9584 L 464.752 247.3495 L 463.1905 250.373 L 462.0803 253.0314 L 460.2249 256.6829 L 459.803 258.0864 L 459.199 260.9645 L 458.7976 262.3617 L 457.1406 266.0916 L 456.7821 267.5373 L 456.5911 269.0429 L 456.4801 271.3579 L 456.4758 275.2744 L 454.6924 277.4977 L 453.9267 278.697 L 453.2805 280.0375 L 452.1889 282.796 L 452.139 283.5807 L 451.9623 283.9788 L 451.2419 284.6346 L 448.673 285.872 L 446.7635 286.5135 L 445.3346 285.4647 L 442.6792 283.2487 L 441.5817 282.4547 L 440.4982 281.8638 L 438.4425 280.9522 L 436.4073 279.6106 L 435.3133 276.8666 L 434.6671 275.5291 L 433.903 274.3298 L 432.1246 272.1035 L 431.8446 270.6546 L 431.4513 269.245 L 430.0163 266.1565 L 429.5395 264.8263 L 428.7781 261.2264 L 428.3732 259.8291 L 426.9177 256.7592 L 426.4451 255.4011 L 426.1597 253.9183 L 426.0058 252.3931 L 425.9242 250.074 L 425.9884 247.7569 L 426.2788 245.4861 L 426.715 244.0373 L 427.0503 243.3392 L 427.8798 242.0523 L 431.1528 237.8408 L 433.0809 234.012 L 434.7263 231.5845 L 438.9568 231.0803 L 441.0759 230.5554 L 442.3041 229.98 L 444.6486 228.6869 L 447.2496 227.5845 L 450.1564 225.8965 L 452.6286 224.7271 L 453.8057 224.0166 L 455.2767 222.6141 L 456.0532 221.4943 L 457.2059 218.8977 L 459.1108 215.2761 L 460.1522 212.5692 L 462.0459 208.9229 L 463.1503 206.2469 L 463.9395 204.9384 L 464.8858 203.7215 L 465.9392 202.5913 L 467.0873 201.5674 L 468.3479 200.7073 L 469.0328 200.3722 L 469.7296 200.1288 L 471.1639 199.836 L 474.8688 199.5576 L 474.817 210.3821 L 474.5374 215.9144 Z" fill="#000000" fill-opacity="1" stroke="#000000" stroke-width="0" paint-order="fill" stroke-opacity="1" stroke-dasharray="" stroke-linecap="butt" stroke-linejoin="miter" stroke-miterlimit="10" transform="matrix(1.149999976158142,0,0,1.149999976158142,-60.000022888183594,-39.97491455078125)" clip-path="none" style="filter: url(#f1)"/>
<path data-code="207" d="M 344.6364 175.9647 L 338.3843 179.7028 L 336.8375 180.2968 L 335.1932 180.6134 L 330.9341 180.8279 L 313.5369 180.7206 L 313.219 178.9996 L 312.8729 177.8776 L 312.2082 176.5958 L 311.3609 175.4079 L 309.9127 173.7229 L 308.3686 172.0843 L 302.5751 166.125 L 300.4363 164.0564 L 299.3171 163.1253 L 298.128 162.3395 L 295.5557 161.1784 L 292.6288 159.5563 L 292.007 159.2861 L 290.8546 158.9438 L 287.872 158.4457 L 284.7134 156.9144 L 282.5471 155.679 L 281.5127 154.9819 L 280.7412 154.0414 L 280.0935 152.3637 L 283.1434 149.2195 L 285.8994 147.0808 L 289.6419 145.2505 L 294.0658 142.557 L 294.5538 142.1404 L 295.3307 141.1123 L 297.2758 137.6969 L 297.8311 136.4296 L 298.048 135.6789 L 298.3736 133.3267 L 298.4339 130.0794 L 298.2997 122.7146 L 298.4424 120.3387 L 298.7522 118.8115 L 299.0225 118.0814 L 299.7363 116.8873 L 300.6578 115.8819 L 301.7344 115.0755 L 304.8129 113.606 L 307.7433 111.9767 L 310.3578 110.8775 L 313.8996 108.8491 L 315.806 107.9984 L 317.1003 113.6597 L 317.5868 115.0012 L 318.7743 117.4565 L 319.2419 118.7868 L 319.9565 122.3939 L 320.3501 123.8087 L 320.9089 125.0658 L 322.1738 127.4788 L 323.3231 130.132 L 324.576 132.0367 L 327.4422 135.649 L 328.238 136.9369 L 329.3939 139.5871 L 331.344 143.1994 L 332.4194 145.8846 L 334.3541 149.5083 L 335.4334 152.1997 L 337.0548 155.2335 L 338.4156 158.5426 L 339.0564 159.745 L 341.438 163.5862 L 341.8638 164.0245 L 342.3584 164.3689 L 344.0088 165.0155 L 344.1012 171.48 L 344.3259 174.1808 L 344.6364 175.9647 Z" fill="#000000" fill-opacity="1" stroke="#000000" stroke-width="0" paint-order="fill" stroke-opacity="1" stroke-dasharray="" stroke-linecap="butt" stroke-linejoin="miter" stroke-miterlimit="10" transform="matrix(1.149999976158142,0,0,1.149999976158142,-60.000022888183594,-39.97491455078125)" clip-path="none" style="filter: url(#f1)"/>
<path data-code="208" d="M 400.3154 219.2194 L 396.6646 212.6053 L 396.1611 211.2689 L 395.2152 206.9667 L 394.7392 205.6344 L 393.2148 202.5862 L 392.1147 199.9164 L 390.1402 196.3206 L 389.0114 193.6673 L 387.4522 190.6335 L 386.9638 189.2177 L 386.6757 187.6276 L 386.5129 185.1692 L 386.5551 182.6809 L 386.6916 181.0372 L 386.9491 179.4337 L 387.3927 177.9189 L 388.8989 174.9614 L 389.3621 173.6796 L 389.5814 172.3133 L 389.5938 171.6347 L 389.3838 170.3158 L 389.122 169.693 L 388.7187 169.1258 L 388.1448 168.6556 L 387.5079 168.3493 L 386.1289 168.0441 L 383.8706 167.9503 L 376.8605 168.14 L 377.3536 164.1565 L 377.4974 154.2869 L 377.6695 151.8769 L 377.9471 150.3188 L 378.4228 148.9205 L 379.9704 145.8867 L 381.1073 143.2365 L 383.1328 139.6583 L 384.2832 137.006 L 385.8378 133.9836 L 386.0849 133.3349 L 386.4147 131.8882 L 386.5052 129.6711 L 386.3273 128.2284 L 385.9224 126.8456 L 385.1548 124.9369 L 384.8219 123.1972 L 387.1239 121.5782 L 393.0741 118.5671 L 395.1986 118.1 L 398.6371 117.9268 L 398.9187 120.7584 L 399.218 122.0907 L 399.8077 123.2684 L 400.2458 123.7376 L 404.5475 126.494 L 407.7076 127.95 L 408.9307 128.7358 L 410.6476 130.1805 L 415.017 134.4177 L 416.7556 135.7995 L 418.0077 136.51 L 419.9277 137.3917 L 423.4068 139.4242 L 425.9977 140.5368 L 428.3415 141.8135 L 429.5689 142.3683 L 431.6775 142.8416 L 436.0349 143.251 L 437.4548 143.5418 L 438.1424 143.7758 L 439.3574 144.4069 L 440.485 145.1855 L 443.7097 147.7975 L 445.2929 149.4887 L 446.2372 150.2497 L 447.1386 150.8107 L 447.4657 154.9025 L 447.5821 158.2477 L 447.5833 162.4127 L 447.383 165.6816 L 446.8845 168.0132 L 445.4634 171.1057 L 444.9885 172.4246 L 444.2205 176.0163 L 443.8079 177.4259 L 441.9742 181.0939 L 440.8698 183.7668 L 438.8899 187.3667 L 437.7889 190.0406 L 436.2352 193.0816 L 435.753 194.417 L 435.0132 198.0242 L 434.6161 199.4359 L 432.8164 203.1183 L 431.7383 205.8004 L 429.7777 209.4045 L 428.6052 212.0464 L 427.3504 213.9552 L 423.8979 218.1655 L 421.372 221.9356 L 417.4706 219.6381 L 415.9617 219.0421 L 414.3766 218.7172 L 411.09 218.4852 L 406.0765 218.5399 L 402.7775 218.776 L 400.3154 219.2194 Z" fill="#000000" fill-opacity="1" stroke="#000000" stroke-width="0" paint-order="fill" stroke-opacity="1" stroke-dasharray="" stroke-linecap="butt" stroke-linejoin="miter" stroke-miterlimit="10" transform="matrix(1.149999976158142,0,0,1.149999976158142,-60.000022888183594,-39.97491455078125)" clip-path="none" style="filter: url(#f1)"/>
<path data-code="209" d="M 378.6761 476.875 L 376.6664 473.6463 L 374.7955 471.256 L 372.1834 468.4387 L 361.9567 457.9236 L 360.4791 456.1984 L 359.2483 454.3443 L 358.1071 451.6972 L 356.5553 448.6747 L 356.3024 448.0251 L 355.954 446.568 L 355.7285 443.5167 L 355.7185 436.5128 L 355.6036 434.9866 L 355.3399 433.4986 L 355.1206 432.7809 L 354.5305 431.5135 L 351.4377 426.2183 L 356.5147 426.2678 L 359.4737 426.5246 L 361.5491 427.0371 L 363.867 428.1333 L 365.0577 428.5839 L 366.415 428.7664 L 367.7878 428.6097 L 369.0097 428.1652 L 371.3203 426.9886 L 373.8825 425.8667 L 375.5875 424.8128 L 378.6776 422.5957 L 379.0937 422.1306 L 379.6668 421.018 L 380.5114 417.8594 L 381.0798 416.6364 L 381.8926 415.5794 L 382.3803 415.1154 L 383.5098 414.3616 L 384.2148 414.0739 L 386.4553 413.6655 L 394.3239 413.6222 L 395.8734 413.483 L 397.3761 413.1633 L 398.0969 412.9004 L 399.3978 412.1693 L 402.8839 409.3365 L 404.1147 408.4889 L 405.5076 407.865 L 407.0231 407.5113 L 410.1724 407.2711 L 414.1635 407.4113 L 415.7385 407.6144 L 417.2734 407.9702 L 419.5603 408.8808 L 419.7281 414.7637 L 419.6156 420.2353 L 419.3213 422.9123 L 418.5781 425.8089 L 416.2467 427.1546 L 415.0537 428.0631 L 413.346 429.5738 L 410.1589 432.85 L 409.2188 434.0266 L 408.4179 435.296 L 407.853 436.7293 L 407.4786 439.0578 L 407.3889 442.2627 L 407.5312 452.8377 L 407.3549 455.2156 L 407.0479 456.7511 L 406.7965 457.4905 L 406.4686 458.1876 L 405.6519 459.4766 L 402.3962 463.6952 L 400.769 466.9476 L 399.9701 468.2356 L 396.745 472.5398 L 395.9921 473.8216 L 394.8247 476.3862 L 394.0505 477.4968 L 393.0845 478.4496 L 391.9275 479.1766 L 390.5451 479.5911 L 389.1189 479.6994 L 387.6939 479.5746 L 386.3134 479.2137 L 383.3814 477.7257 L 382.1046 477.2565 L 380.7062 476.9966 L 378.6761 476.875 Z" fill="#000000" fill-opacity="1" stroke="#000000" stroke-width="0" paint-order="fill" stroke-opacity="1" stroke-dasharray="" stroke-linecap="butt" stroke-linejoin="miter" stroke-miterlimit="10" transform="matrix(1.149999976158142,0,0,1.149999976158142,-60.000022888183594,-39.97491455078125)" clip-path="none" style="filter: url(#f1)"/>
<path data-code="210" d="M 452.1889 282.796 L 453.2805 280.0375 L 453.9267 278.697 L 454.6924 277.4977 L 456.4758 275.2744 L 456.4801 271.3579 L 456.5911 269.0429 L 456.7821 267.5373 L 457.1406 266.0916 L 458.7976 262.3617 L 459.199 260.9645 L 459.803 258.0864 L 460.2249 256.6829 L 462.0803 253.0314 L 463.1905 250.373 L 464.752 247.3495 L 465.2334 245.9584 L 465.3955 245.1923 L 465.6716 242.011 L 465.6696 232.2311 L 465.8096 230.642 L 466.117 229.0963 L 466.3688 228.3517 L 467.0788 226.9926 L 470.7466 222.1367 L 472.7246 218.3512 L 474.5374 215.9144 L 477.964 215.5535 L 481.2474 215.4483 L 483.6778 215.5401 L 486.0325 215.9144 L 487.4087 216.4187 L 490.3349 218.0294 L 492.8995 219.1947 L 496.3705 221.2519 L 498.9517 222.3955 L 501.8957 223.9918 L 503.1869 224.4889 L 505.2727 224.9694 L 505.439 228.8024 L 505.6846 230.2863 L 506.1362 231.6547 L 507.6826 234.6895 L 508.8516 237.3294 L 509.5871 238.508 L 511.3358 240.7117 L 509.7348 242.0822 L 508.6227 242.8999 L 507.5353 243.5083 L 505.4854 244.456 L 504.3415 245.2005 L 500.5871 248.357 L 499.4738 249.1686 L 498.3871 249.7708 L 496.3376 250.7154 L 495.1926 251.4702 L 493.582 252.8407 L 489.9818 256.3694 L 488.3967 257.7935 L 486.703 258.9711 L 484.1485 260.1653 L 483.0031 260.9119 L 481.3901 262.2751 L 477.788 265.7997 L 476.2029 267.2228 L 474.5092 268.4004 L 471.9558 269.5987 L 470.8135 270.3484 L 469.2075 271.7209 L 465.1054 275.7446 L 463.4685 277.0666 L 462.8842 277.4327 L 461.7342 277.9421 L 459.5153 278.4247 L 457.3587 280.2582 L 456.1951 281.0419 L 454.888 281.6988 L 452.1889 282.796 Z" fill="#000000" fill-opacity="1" stroke="#000000" stroke-width="0" paint-order="fill" stroke-opacity="1" stroke-dasharray="" stroke-linecap="butt" stroke-linejoin="miter" stroke-miterlimit="10" transform="matrix(1.149999976158142,0,0,1.149999976158142,-60.000022888183594,-39.97491455078125)" clip-path="none" style="filter: url(#f1)"/>
<path data-code="211" d="M 443.7097 147.7975 L 444.6761 141.6454 L 445.1192 140.2089 L 445.4433 139.5428 L 446.2523 138.3084 L 447.1962 137.1597 L 453.0149 131.2179 L 454.9491 128.9482 L 455.7345 127.7128 L 456.0443 127.0539 L 456.4631 125.6494 L 456.726 124.215 L 457.4445 121.3823 L 458.878 118.3062 L 459.3378 116.91 L 459.4925 116.1366 L 459.7547 112.9265 L 459.8691 105.5637 L 460.0466 103.9726 L 460.4175 102.4392 L 460.9654 101.1656 L 462.2338 98.7619 L 463.0957 96.7841 L 463.8042 95.4786 L 464.6917 94.238 L 467.1232 91.2589 L 468.3839 89.3594 L 469.549 86.7113 L 470.8092 84.2921 L 471.3618 83.0341 L 471.7524 81.6193 L 472.0219 80.1714 L 472.7281 77.3264 L 474.1179 74.2183 L 474.5684 72.7953 L 474.8348 71.1866 L 475.1863 67.0732 L 475.6751 64.6849 L 476.534 62.8287 L 478.5409 59.5475 L 478.9953 59.0906 L 480.102 58.4503 L 483.9304 57.351 L 487.5124 55.6186 L 490.867 54.4327 L 493.1172 53.2994 L 497.9641 56.4972 L 499.7603 57.4469 L 502.0542 58.0079 L 506.0001 58.4389 L 507.545 58.7256 L 508.9143 59.1886 L 511.9305 60.6024 L 513.3041 61.0045 L 516.0195 61.5243 L 518.6506 61.3624 L 520.7005 61.3593 L 522.1661 61.5181 L 523.5857 61.9192 L 524.8107 62.5936 L 525.9148 63.4578 L 526.9318 64.4374 L 528.3088 66.0543 L 529.4268 67.8362 L 530.5076 70.5205 L 532.4067 74.1585 L 533.45 76.8561 L 535.3962 80.4695 L 536.5351 83.1269 L 537.6677 84.8799 L 540.3251 88.1787 L 541.464 89.9297 L 542.6097 92.585 L 544.5367 96.2076 L 546.4315 101.8792 L 550.1662 108.052 L 550.5007 108.8295 L 550.9195 110.4083 L 551.1639 112.8739 L 551.0742 116.2181 L 550.6999 118.7002 L 549.9946 121.1204 L 548.5657 124.4831 L 547.5336 127.2117 L 546.8194 128.4182 L 545.9617 129.5494 L 544.5378 131.1736 L 542.0212 133.8062 L 539.4446 136.378 L 537.8545 137.8289 L 536.7501 138.6992 L 535.5873 139.4242 L 533.5173 140.3213 L 532.4163 140.9132 L 531.3011 141.7299 L 530.2616 142.6642 L 528.8699 144.2079 L 528.1143 145.3185 L 527.5984 146.4951 L 527.4646 147.1324 L 527.4024 148.0821 L 524.9743 148.8844 L 521.5621 149.8084 L 520.243 150.4333 L 518.4692 151.7749 L 514.1223 156.0162 L 513.0063 157.0195 L 511.8377 157.9136 L 511.2252 158.2941 L 509.3126 159.2036 L 508.103 159.8749 L 506.992 160.6885 L 503.7859 163.415 L 502.6679 164.2266 L 501.4421 164.8876 L 499.5024 165.729 L 496.0136 167.7554 L 493.4354 168.9144 L 492.2858 169.6569 L 490.1384 171.4543 L 488.5464 172.8381 L 487.4358 173.6652 L 486.3426 174.2808 L 484.2807 175.1996 L 481.3812 176.9011 L 479.7157 177.6054 L 476.3538 178.7521 L 474.9891 179.113 L 473.4527 178.7748 L 469.5962 177.4497 L 468.5146 176.8371 L 467.4875 175.9503 L 466.6248 174.8985 L 466.2675 174.321 L 465.1178 171.7306 L 464.4248 170.5509 L 461.4275 166.6324 L 460.6514 165.4743 L 460.0733 164.3483 L 459.1677 162.224 L 458.4499 161.0309 L 457.6 159.8986 L 455.2028 157.2093 L 452.0953 154.1837 L 450.4186 152.8628 L 447.1386 150.8107 L 446.2372 150.2497 L 445.2929 149.4887 L 443.7097 147.7975 Z" fill="#000000" fill-opacity="1" stroke="#000000" stroke-width="0" paint-order="fill" stroke-opacity="1" stroke-dasharray="" stroke-linecap="butt" stroke-linejoin="miter" stroke-miterlimit="10" transform="matrix(1.149999976158142,0,0,1.149999976158142,-60.000022888183594,-39.97491455078125)" clip-path="none" style="filter: url(#f1)"/>
<path data-code="212" d="M 376.8605 168.14 L 374.717 168.8319 L 371.1722 170.7572 L 368.5229 171.8152 L 363.6284 174.1199 L 361.8566 173.4651 L 358.9927 171.876 L 356.4126 170.7582 L 352.925 168.7195 L 350.3321 167.5914 L 347.3936 165.9786 L 346.1009 165.4805 L 344.0088 165.0155 L 342.3584 164.3689 L 341.8638 164.0245 L 341.438 163.5862 L 339.0564 159.745 L 338.4156 158.5426 L 337.0548 155.2335 L 335.4334 152.1997 L 334.3541 149.5083 L 332.4194 145.8846 L 331.344 143.1994 L 329.3939 139.5871 L 328.238 136.9369 L 327.4422 135.649 L 324.576 132.0367 L 323.3231 130.132 L 322.1738 127.4788 L 320.9089 125.0658 L 320.3501 123.8087 L 319.9565 122.3939 L 319.2419 118.7868 L 318.7743 117.4565 L 317.5868 115.0012 L 317.1003 113.6597 L 315.806 107.9984 L 319.9661 105.6823 L 321.2937 105.1502 L 323.9372 104.2974 L 325.9635 104.8151 L 330.2725 105.506 L 331.6538 105.9112 L 335.2129 107.7767 L 337.7922 108.9141 L 341.3394 110.8001 L 342.6987 111.2291 L 345.4883 111.8437 L 346.848 112.2531 L 350.4613 113.969 L 355.9559 115.4344 L 359.5727 117.1276 L 361.0472 117.505 L 362.582 117.6978 L 370.4746 117.8948 L 372.026 118.0278 L 373.5357 118.3042 L 374.8914 118.7816 L 377.8694 120.3171 L 381.1432 121.5504 L 384.8219 123.1972 L 385.1548 124.9369 L 385.9224 126.8456 L 386.3273 128.2284 L 386.5052 129.6711 L 386.4147 131.8882 L 386.0849 133.3349 L 385.8378 133.9836 L 384.2832 137.006 L 383.1328 139.6583 L 381.1073 143.2365 L 379.9704 145.8867 L 378.4228 148.9205 L 377.9471 150.3188 L 377.6695 151.8769 L 377.4974 154.2869 L 377.3536 164.1565 L 376.8605 168.14 Z" fill="#000000" fill-opacity="1" stroke="#000000" stroke-width="0" paint-order="fill" stroke-opacity="1" stroke-dasharray="" stroke-linecap="butt" stroke-linejoin="miter" stroke-miterlimit="10" transform="matrix(1.149999976158142,0,0,1.149999976158142,-60.000022888183594,-39.97491455078125)" clip-path="none" style="filter: url(#f1)"/>
<path data-code="213" d="M 393.337 278.5196 L 392.185 273.0542 L 391.9283 272.3489 L 391.1881 270.997 L 390.2601 269.7585 L 389.2268 268.5861 L 384.2113 263.5414 L 382.622 261.8152 L 381.2813 259.9219 L 380.6993 258.4978 L 380.4116 257.0088 L 380.3083 255.4908 L 380.335 253.9647 L 380.4835 252.4519 L 380.7867 250.9824 L 381.0164 250.2771 L 382.5419 247.2402 L 383.0284 245.8997 L 383.3049 244.424 L 383.4278 242.142 L 383.2724 239.8702 L 382.9835 238.4152 L 382.5013 237.1118 L 381.61 235.3794 L 381.127 234.1656 L 380.934 232.7539 L 380.98 232.0311 L 381.1297 231.3123 L 381.7225 229.9769 L 383.0299 228.195 L 384.5667 226.5327 L 386.2074 224.9426 L 387.349 223.9475 L 388.5474 223.0555 L 389.8397 222.3481 L 390.5261 222.0985 L 395.4484 221.0601 L 400.3154 219.2194 L 402.7775 218.776 L 406.0765 218.5399 L 411.09 218.4852 L 414.3766 218.7172 L 415.9617 219.0421 L 417.4706 219.6381 L 421.372 221.9356 L 426.3082 224.3311 L 428.9358 225.419 L 430.0696 226.1532 L 431.1195 227.0442 L 432.5704 228.5631 L 433.4517 229.6706 L 434.7263 231.5845 L 433.0809 234.012 L 431.1528 237.8408 L 427.8798 242.0523 L 427.0503 243.3392 L 426.715 244.0373 L 426.2788 245.4861 L 425.9884 247.7569 L 425.9242 250.074 L 426.0058 252.3931 L 426.1597 253.9183 L 426.4451 255.4011 L 426.9177 256.7592 L 428.3732 259.8291 L 428.7781 261.2264 L 429.5395 264.8263 L 430.0163 266.1565 L 431.4513 269.245 L 431.8446 270.6546 L 432.1246 272.1035 L 433.903 274.3298 L 434.6671 275.5291 L 435.3133 276.8666 L 436.4073 279.6106 L 433.6969 278.5217 L 432.3879 277.8658 L 431.2259 277.0831 L 429.0747 275.2476 L 423.3492 275.229 L 419.3642 274.9176 L 417.172 274.3793 L 414.5417 273.1976 L 413.3035 272.9779 L 412.2053 273.2069 L 411.7401 273.4987 L 411.136 274.3206 L 410.807 275.2301 L 408.0742 275.9839 L 404.455 277.6709 L 402.9392 278.0638 L 399.7485 278.3752 L 393.337 278.5196 Z" fill="#000000" fill-opacity="1" stroke="#000000" stroke-width="0" paint-order="fill" stroke-opacity="1" stroke-dasharray="" stroke-linecap="butt" stroke-linejoin="miter" stroke-miterlimit="10" transform="matrix(1.149999976158142,0,0,1.149999976158142,-60.000022888183594,-39.97491455078125)" clip-path="none" style="filter: url(#f1)"/>
<path data-code="214" d="M 304.0697 382.1242 L 300.4045 382.0159 L 298.9904 381.7355 L 298.3086 381.4828 L 297.7015 381.1611 L 296.6215 380.3289 L 295.7216 379.3049 L 295.017 378.0974 L 294.1996 376.1577 L 292.7173 373.1002 L 292.1384 370.9429 L 291.9393 368.5516 L 291.8666 360.3298 L 291.7042 358.7211 L 291.3542 357.1651 L 288.7807 351.5327 L 288.0626 350.3344 L 287.1655 349.3145 L 286.1067 348.469 L 284.865 347.8482 L 280.1187 346.6314 L 277.0962 345.2691 L 275.7192 344.836 L 273.4009 344.537 L 267.9036 344.3978 L 265.6344 344.0142 L 264.2988 343.3872 L 263.7377 342.9706 L 262.7895 341.9786 L 262.0834 340.8041 L 261.7926 340.0121 L 261.3974 337.5011 L 261.3568 333.9765 L 261.6278 324.0037 L 261.4824 319.88 L 261.211 318.5425 L 260.982 318.0032 L 260.6684 317.5928 L 260.3498 317.3762 L 259.7179 317.2453 L 258.081 313.0833 L 256.0338 309.4422 L 254.8266 306.7992 L 254.016 305.5236 L 251.2418 301.9216 L 250.509 300.645 L 250.1003 299.2776 L 250.0597 297.9299 L 250.3053 296.7419 L 250.7867 295.2467 L 250.8273 294.2578 L 250.5462 293.5638 L 250.2001 293.1204 L 248.8366 292.0262 L 253.5578 286.4681 L 256.3003 283.6612 L 258.1321 282.3041 L 258.8115 281.9638 L 260.233 281.5317 L 261.7075 281.342 L 263.2152 281.3141 L 266.0571 281.6379 L 267.4299 282.035 L 271.0215 283.7488 L 272.5544 284.1778 L 274.1608 284.417 L 276.6349 284.5738 L 280.8194 284.5923 L 284.1612 284.4758 L 287.3387 284.1572 L 289.8971 285.903 L 291.1133 286.8538 L 292.8314 288.3902 L 294.4656 290.0041 L 295.9884 291.6952 L 296.8825 292.9048 L 297.5882 294.2402 L 297.8299 294.9641 L 298.111 296.4553 L 298.2096 297.9763 L 298.1184 300.2645 L 297.8933 301.7639 L 297.4803 303.1972 L 297.2038 303.8294 L 295.6435 306.857 L 295.232 308.2831 L 295.0101 309.7608 L 294.9486 311.9707 L 295.111 313.3793 L 295.5329 314.6786 L 295.8902 315.253 L 296.8504 316.1037 L 301.28 318.7508 L 303.9034 319.7995 L 307.5063 321.5928 L 308.8694 321.9692 L 311.6362 322.5064 L 312.9742 322.9725 L 314.1165 323.6985 L 315.0941 324.6431 L 315.8826 325.7537 L 316.2055 326.3941 L 317.0048 328.3503 L 318.4882 331.3995 L 318.9364 332.7463 L 319.7867 337.0711 L 320.3579 338.4632 L 321.1877 339.7553 L 322.1634 340.9639 L 328.1812 347.2408 L 330.1742 349.628 L 330.9774 350.9212 L 332.4353 354.1828 L 334.1665 357.2032 L 335.8177 361.03 L 332.2067 360.2679 L 330.7276 360.1256 L 329.2496 360.103 L 327.0818 360.3484 L 325.7179 360.8083 L 325.1274 361.1383 L 324.5841 361.525 L 323.627 362.418 L 322.8401 363.409 L 321.8316 364.9826 L 320.9851 365.854 L 316.627 368.6454 L 312.9255 370.4459 L 311.2503 371.674 L 309.0763 373.6632 L 306.6091 376.3124 L 305.3446 378.0211 L 304.997 378.6305 L 304.5167 379.8277 L 304.0697 382.1242 Z" fill="#000000" fill-opacity="1" stroke="#000000" stroke-width="0" paint-order="fill" stroke-opacity="1" stroke-dasharray="" stroke-linecap="butt" stroke-linejoin="miter" stroke-miterlimit="10" transform="matrix(1.149999976158142,0,0,1.149999976158142,-60.000022888183594,-39.97491455078125)" clip-path="none" style="filter: url(#f1)"/>
<path data-code="215" d="M 393.337 278.5196 L 389.5775 278.5072 L 387.4174 278.8702 L 386.7287 279.1136 L 385.5922 279.722 L 383.1142 281.673 L 378.1092 281.4379 L 375.9205 281.1605 L 373.9143 280.5232 L 370.9262 279.0806 L 369.5357 278.7238 L 367.3481 278.4928 L 362.1725 278.3041 L 360.7429 278.0865 L 359.3809 277.6266 L 358.2436 276.8913 L 357.2912 275.9468 L 356.5333 274.8578 L 355.0182 271.822 L 354.1895 270.7784 L 353.2061 269.872 L 352.0553 269.1388 L 350.1798 268.2447 L 347.2853 266.5608 L 344.078 265.1645 L 340.5738 263.1774 L 338.6453 262.3112 L 337.3672 261.6017 L 335.5536 260.1993 L 330.378 255.6187 L 331.2021 253.7058 L 332.3676 250.2895 L 334.0583 246.5586 L 334.4558 244.9159 L 334.7199 242.3389 L 334.967 234.3812 L 335.3815 230.7565 L 337.2536 227.7217 L 338.3924 225.0498 L 340.3893 221.4561 L 341.4933 218.7925 L 342.7432 216.3888 L 343.2768 215.1173 L 343.6012 213.6613 L 343.7161 212.1547 L 343.5243 208.8322 L 349.2258 209.0992 L 350.6968 209.2611 L 352.1268 209.5581 L 354.0398 210.3676 L 356.3639 211.7092 L 358.903 212.925 L 361.7332 214.5997 L 363.0101 215.0802 L 363.6907 215.2204 L 365.0511 215.304 L 365.7181 215.2421 L 366.9885 214.8626 L 367.5643 214.5099 L 368.0461 214.0511 L 368.7592 213.0013 L 370.6107 209.5726 L 371.0778 208.1526 L 371.2317 207.3689 L 371.4599 204.9528 L 371.5105 202.4862 L 371.4185 198.3675 L 371.2093 195.9463 L 370.7043 193.6374 L 369.3392 190.5253 L 368.8864 189.1218 L 368.6045 187.5317 L 368.1822 183.4554 L 367.6389 181.0754 L 366.717 179.1996 L 363.6284 174.1199 L 368.5229 171.8152 L 371.1722 170.7572 L 374.717 168.8319 L 376.8605 168.14 L 383.8706 167.9503 L 386.1289 168.0441 L 387.5079 168.3493 L 388.1448 168.6556 L 388.7187 169.1258 L 389.122 169.693 L 389.3838 170.3158 L 389.5938 171.6347 L 389.5814 172.3133 L 389.3621 173.6796 L 388.8989 174.9614 L 387.3927 177.9189 L 386.9491 179.4337 L 386.6916 181.0372 L 386.5551 182.6809 L 386.5129 185.1692 L 386.6757 187.6276 L 386.9638 189.2177 L 387.4522 190.6335 L 389.0114 193.6673 L 390.1402 196.3206 L 392.1147 199.9164 L 393.2148 202.5862 L 394.7392 205.6344 L 395.2152 206.9667 L 396.1611 211.2689 L 396.6646 212.6053 L 400.3154 219.2194 L 395.4484 221.0601 L 390.5261 222.0985 L 389.8397 222.3481 L 388.5474 223.0555 L 387.349 223.9475 L 386.2074 224.9426 L 384.5667 226.5327 L 383.0299 228.195 L 381.7225 229.9769 L 381.1297 231.3123 L 380.98 232.0311 L 380.934 232.7539 L 381.127 234.1656 L 381.61 235.3794 L 382.5013 237.1118 L 382.9835 238.4152 L 383.2724 239.8702 L 383.4278 242.142 L 383.3049 244.424 L 383.0284 245.8997 L 382.5419 247.2402 L 381.0164 250.2771 L 380.7867 250.9824 L 380.4835 252.4519 L 380.335 253.9647 L 380.3083 255.4908 L 380.4116 257.0088 L 380.6993 258.4978 L 381.2813 259.9219 L 382.622 261.8152 L 384.2113 263.5414 L 389.2268 268.5861 L 390.2601 269.7585 L 391.1881 270.997 L 391.9283 272.3489 L 392.185 273.0542 L 393.337 278.5196 Z" fill="#000000" fill-opacity="1" stroke="#000000" stroke-width="0" paint-order="fill" stroke-opacity="1" stroke-dasharray="" stroke-linecap="butt" stroke-linejoin="miter" stroke-miterlimit="10" transform="matrix(1.149999976158142,0,0,1.149999976158142,-60.000022888183594,-39.97491455078125)" clip-path="none" style="filter: url(#f1)"/>
<path data-code="216" d="M 292.1624 218.4646 L 292.3697 214.6347 L 292.8376 212.4383 L 293.3805 211.1658 L 294.6272 208.7486 L 295.7224 206.0902 L 297.3117 203.1327 L 298.0116 201.3364 L 300.0762 199.472 L 300.8984 198.4036 L 303.55 193.6601 L 305.2356 189.7467 L 307.4672 185.6889 L 308.1412 184.6485 L 311.3683 181.5848 L 312.4046 181.0702 L 313.5369 180.7206 L 330.9341 180.8279 L 335.1932 180.6134 L 336.8375 180.2968 L 338.3843 179.7028 L 344.6364 175.9647 L 346.2528 180.3246 L 346.7989 182.5727 L 347.1013 186.7779 L 347.0742 193.6168 L 346.9261 196.1422 L 346.5386 198.582 L 346.0684 200.002 L 344.9238 202.4666 L 344.4524 203.804 L 343.5243 208.8322 L 343.7161 212.1547 L 343.6012 213.6613 L 343.2768 215.1173 L 342.7432 216.3888 L 341.4933 218.7925 L 340.3893 221.4561 L 338.3924 225.0498 L 337.2536 227.7217 L 335.3815 230.7565 L 332.1105 228.7694 L 328.9268 227.3381 L 325.3672 225.4613 L 319.8702 224.0032 L 316.8915 222.5162 L 315.5268 222.014 L 313.9889 221.7015 L 312.4073 221.5355 L 310.0075 221.4582 L 307.6273 221.5675 L 306.084 221.8098 L 304.6223 222.3099 L 303.485 223.0328 L 302.5225 223.9207 L 300.3079 226.8225 L 299.3291 227.4525 L 298.2359 227.9114 L 296.6273 225.618 L 295.9935 224.4126 L 294.9772 221.1746 L 294.4641 220.0506 L 293.6624 219.2019 L 292.1624 218.4646 Z" fill="#000000" fill-opacity="1" stroke="#000000" stroke-width="0" paint-order="fill" stroke-opacity="1" stroke-dasharray="" stroke-linecap="butt" stroke-linejoin="miter" stroke-miterlimit="10" transform="matrix(1.149999976158142,0,0,1.149999976158142,-60.000022888183594,-39.97491455078125)" clip-path="none" style="filter: url(#f1)"/>
<path data-code="217" d="M 380.5431 319.3737 L 380.2875 313.4917 L 380.5187 309.3277 L 381.033 306.9683 L 382.3319 303.9902 L 382.8563 302.4218 L 383.1599 300.7471 L 383.3215 299.0198 L 383.434 295.488 L 383.4131 289.2317 L 383.1142 281.673 L 385.5922 279.722 L 386.7287 279.1136 L 387.4174 278.8702 L 389.5775 278.5072 L 393.337 278.5196 L 399.7485 278.3752 L 402.9392 278.0638 L 404.455 277.6709 L 408.0742 275.9839 L 410.807 275.2301 L 411.5243 278.0597 L 412.9454 281.1378 L 413.568 283.293 L 413.7706 284.8656 L 413.904 287.2848 L 413.8936 295.4632 L 413.7157 297.8649 L 413.2258 300.1707 L 410.2907 306.5146 L 409.4756 307.8088 L 407.4523 310.1403 L 406.3158 311.1808 L 405.1008 312.0975 L 398.3046 315.4933 L 396.9345 315.9047 L 393.4573 316.676 L 392.1785 317.1566 L 389.1711 318.591 L 387.7716 318.9581 L 385.5752 319.2149 L 380.5431 319.3737 Z" fill="#000000" fill-opacity="1" stroke="#000000" stroke-width="0" paint-order="fill" stroke-opacity="1" stroke-dasharray="" stroke-linecap="butt" stroke-linejoin="miter" stroke-miterlimit="10" transform="matrix(1.149999976158142,0,0,1.149999976158142,-60.000022888183594,-39.97491455078125)" clip-path="none" style="filter: url(#f1)"/>
<path data-code="218" d="M 287.3387 284.1572 L 289.278 281.5905 L 290.693 280.0695 L 291.7575 279.2136 L 292.3256 278.8537 L 294.8508 277.6524 L 296.6176 276.4314 L 298.8152 274.4175 L 304.1362 269.0016 L 305.8033 267.5157 L 307.5887 266.305 L 309.6478 265.3924 L 310.7244 264.8046 L 312.3079 263.5734 L 313.7101 262.1276 L 314.8389 260.5324 L 315.3234 259.3929 L 315.5477 257.9626 L 318.0674 257.147 L 320.6317 256.5674 L 327.5319 256.026 L 330.378 255.6187 L 335.5536 260.1993 L 337.3672 261.6017 L 338.6453 262.3112 L 340.5738 263.1774 L 344.078 265.1645 L 347.2853 266.5608 L 350.1798 268.2447 L 352.0553 269.1388 L 353.2061 269.872 L 354.1895 270.7784 L 355.0182 271.822 L 356.5333 274.8578 L 357.2912 275.9468 L 358.2436 276.8913 L 359.3809 277.6266 L 360.7429 278.0865 L 362.1725 278.3041 L 367.3481 278.4928 L 369.5357 278.7238 L 370.9262 279.0806 L 373.9143 280.5232 L 375.9205 281.1605 L 378.1092 281.4379 L 383.1142 281.673 L 383.4131 289.2317 L 383.434 295.488 L 383.3215 299.0198 L 383.1599 300.7471 L 382.8563 302.4218 L 382.3319 303.9902 L 381.033 306.9683 L 380.5187 309.3277 L 380.2875 313.4917 L 380.5431 319.3737 L 380.2325 324.2492 L 379.9328 326.7756 L 379.533 328.3863 L 377.9456 332.1358 L 377.5415 333.7806 L 377.323 335.4975 L 377.1502 340.8226 L 377.2229 362.4397 L 376.985 366.8367 L 376.4653 369.2971 L 375.0879 372.3814 L 374.649 373.7045 L 374.3211 375.7566 L 373.9657 379.9113 L 373.4715 381.92 L 373.1621 382.5893 L 372.376 383.8339 L 370.9587 385.5581 L 366.7344 389.9139 L 363.4343 392.9724 L 361.6586 394.2027 L 358.5248 395.7546 L 357.4103 396.562 L 353.6477 399.699 L 352.5042 400.4424 L 349.3743 402.0171 L 346.6569 404.196 L 343.6179 401.0457 L 340.5784 397.8964 L 337.5389 394.7461 L 336.218 393.0931 L 335.4268 391.9423 L 334.7713 390.6821 L 333.9237 388.6919 L 331.921 385.1023 L 330.8038 382.4439 L 329.5118 380.0732 L 328.9519 378.8151 L 328.7481 378.0984 L 328.5385 376.6207 L 328.5547 375.1234 L 328.6491 374.3799 L 329.0474 372.9311 L 329.3486 372.2907 L 330.1046 371.1131 L 332.7338 367.8689 L 333.5157 366.7222 L 334.1383 365.4456 L 335.0768 362.6964 L 335.8177 361.03 L 334.1665 357.2032 L 332.4353 354.1828 L 330.9774 350.9212 L 330.1742 349.628 L 328.1812 347.2408 L 322.1634 340.9639 L 321.1877 339.7553 L 320.3579 338.4632 L 319.7867 337.0711 L 318.9364 332.7463 L 318.4882 331.3995 L 317.0048 328.3503 L 316.2055 326.3941 L 315.8826 325.7537 L 315.0941 324.6431 L 314.1165 323.6985 L 312.9742 322.9725 L 311.6362 322.5064 L 308.8694 321.9692 L 307.5063 321.5928 L 303.9034 319.7995 L 301.28 318.7508 L 296.8504 316.1037 L 295.8902 315.253 L 295.5329 314.6786 L 295.111 313.3793 L 294.9486 311.9707 L 295.0101 309.7608 L 295.232 308.2831 L 295.6435 306.857 L 297.2038 303.8294 L 297.4803 303.1972 L 297.8933 301.7639 L 298.1184 300.2645 L 298.2096 297.9763 L 298.111 296.4553 L 297.8299 294.9641 L 297.5882 294.2402 L 296.8825 292.9048 L 295.9884 291.6952 L 294.4656 290.0041 L 292.8314 288.3902 L 291.1133 286.8538 L 289.8971 285.903 L 287.3387 284.1572 Z" fill="#000000" fill-opacity="1" stroke="#000000" stroke-width="0" paint-order="fill" stroke-opacity="1" stroke-dasharray="" stroke-linecap="butt" stroke-linejoin="miter" stroke-miterlimit="10" transform="matrix(1.149999976158142,0,0,1.149999976158142,-60.000022888183594,-39.97491455078125)" clip-path="none" style="filter: url(#f1)"/>



















</svg>