<?xml version="1.0" standalone="no"?>
<!-- Generator: Paintmaps.com , Online SVG vector map maker -->
<svg xmlns="http://www.w3.org/2000/svg" version="1.1" baseProfile="full"   style="background-color:false" width="800" height="500" viewBox="0 0 800 533">
<path data-code="200" d="M 247.9633 461.152 L 238.959 456.9849 L 234.0572 455.0046 L 227.4413 451.534 L 224.8885 450.7667 L 219.8074 449.7967 L 217.6851 445.5301 L 215.4802 439.1264 L 212.314 432.2137 L 211.3748 427.7998 L 210.6043 420.2098 L 210.0697 417.2519 L 209.2081 414.6441 L 207.0843 410.0733 L 206.2233 407.4598 L 205.7118 404.5172 L 205.4686 401.4884 L 205.4191 396.8908 L 205.6752 392.3411 L 206.3424 388.0209 L 208.238 382.415 L 208.5494 380.2262 L 208.4217 379.1031 L 207.7071 376.943 L 202.5621 367.2657 L 212.9167 368.4749 L 228.3992 368.9035 L 234.1354 368.3907 L 236.7205 367.5183 L 237.8792 366.7836 L 239.5107 365.0004 L 242.1884 360.5692 L 243.5516 357.9174 L 244.5273 354.9691 L 245.0045 351.8524 L 245.1845 348.6495 L 244.7978 336.0889 L 253.5016 342.1348 L 256.8558 343.9582 L 258.2599 344.4365 L 261.1707 345.0296 L 265.6736 345.4008 L 277.941 345.4257 L 285.5125 344.9378 L 289.831 343.9792 L 295.4554 341.4174 L 297.9651 340.5851 L 306.3488 339.3969 L 308.9533 338.7809 L 311.2657 337.564 L 312.1245 336.7337 L 315.9623 330.7585 L 317.7711 327.4715 L 319.7456 322.5066 L 323.0661 315.6073 L 326.7116 302.3445 L 328.9279 303.3528 L 333.834 305.0919 L 336.1651 306.1806 L 347.6232 313.4415 L 348.1864 315.8063 L 349.1256 317.9912 L 352.558 324.3012 L 353.9083 326.226 L 354.7757 326.9989 L 358.8259 329.622 L 361.9605 332.2126 L 366.0645 336.1807 L 374.0314 344.3504 L 376.9372 347.0864 L 378.9633 348.7318 L 381.1115 350.1113 L 385.9143 352.2235 L 391.3133 355.302 L 397.0825 358.0093 L 399.0979 359.4844 L 400.85 361.2963 L 402.2778 363.3779 L 404.9081 369.3378 L 407.346 373.7823 L 410.4606 381.0681 L 417.5966 392.6625 L 405.505 391.9986 L 400.9677 391.4304 L 398.0755 390.6555 L 391.3477 387.5541 L 388.5618 386.7888 L 385.6538 386.3506 L 381.1904 386.0368 L 375.2267 385.945 L 370.868 386.0808 L 366.6815 386.5649 L 364.0455 387.2824 L 362.8746 387.7798 L 357.4469 390.7665 L 353.8918 392.3659 L 351.5248 393.7014 L 349.2734 395.4081 L 346.0648 398.322 L 337.8145 406.7385 L 333.8964 411.0816 L 331.3285 414.5274 L 325.0822 427.4631 L 324.3862 430.1646 L 323.8926 434.3948 L 323.6673 440.1825 L 323.6881 447.4204 L 323.8718 450.2559 L 324.2994 453.0148 L 325.1661 455.6322 L 325.7889 456.7649 L 327.3458 458.7489 L 329.1955 460.3771 L 334.6175 463.2834 L 337.4156 465.6023 L 338.9195 467.5749 L 339.5135 468.675 L 340.3623 471.1737 L 340.8997 473.7509 L 335.4096 474.1029 L 331.4268 474.7898 L 329.0104 475.647 L 323.4406 478.3102 L 319.2505 479.3013 L 313.3844 479.7012 L 308.9504 479.594 L 306.0339 479.3051 L 301.8352 478.3217 L 296.2632 475.647 L 293.7456 474.7458 L 290.8886 474.1718 L 282.1067 473.0736 L 279.2956 472.3351 L 272.5678 469.2164 L 270.0516 468.4473 L 263.6058 466.9358 L 261.2195 466.0155 L 255.6683 463.2566 L 247.9633 461.152 Z" fill="#000000" fill-opacity="1" stroke="#000000" stroke-width="0" paint-order="fill" stroke-opacity="1" stroke-dasharray="" stroke-linecap="butt" stroke-linejoin="miter" stroke-miterlimit="10" clip-path="none"/>
<path data-code="201" d="M 392.8695 237.5954 L 392.2711 228.714 L 391.5508 224.5259 L 391.1045 223.1847 L 389.7657 220.6266 L 388.0538 218.3326 L 386.1044 216.2471 L 382.8262 213.5475 L 380.3753 212.1929 L 377.8139 211.3893 L 372.5484 210.4097 L 370.0451 209.7401 L 359.9416 204.9856 L 358.8 204.3561 L 356.8105 202.837 L 355.1129 200.9543 L 354.3983 199.8867 L 353.2769 197.3095 L 352.9196 195.8459 L 352.4432 191.2961 L 352.7101 164.2941 L 355.2923 164.9121 L 357.7949 165.7309 L 363.3008 168.5281 L 364.4552 169.0141 L 367.0345 169.7259 L 369.6942 170.1009 L 373.781 170.231 L 377.9259 169.8253 L 380.5533 169.106 L 382.8277 168.0077 L 387.1182 165.5339 L 391.9059 163.4388 L 398.3647 159.6697 L 403.1574 157.5211 L 405.4454 156.0593 L 407.6094 154.3221 L 412.6984 149.4126 L 415.5396 146.2576 L 417.2609 144.0516 L 418.7217 141.7021 L 419.2971 140.4508 L 420.0626 137.8335 L 420.5448 135.1664 L 423.8559 131.0394 L 425.2787 128.8181 L 426.4819 126.3347 L 428.5181 121.2301 L 432.4341 119.114 L 435.3019 118.2798 L 438.3117 117.834 L 447.6819 117.4705 L 461.8894 117.6408 L 466.5078 118.0215 L 469.4832 118.5821 L 472.0697 119.4833 L 476.4987 121.6529 L 478.9008 122.5407 L 486.8828 124.0311 L 493.8732 123.8589 L 496.5824 124.1402 L 499.1933 124.7945 L 501.4756 125.8315 L 505.7912 128.2403 L 510.566 130.3698 L 517.0104 134.1868 L 521.7953 136.3277 L 528.264 140.1084 L 533.0704 142.1958 L 538.524 145.1747 L 540.9218 146.0988 L 544.8012 146.9675 L 543.9567 150.9758 L 543.0656 153.4554 L 540.2072 159.1072 L 538.2269 164.097 L 534.6675 170.8336 L 532.589 175.7814 L 530.273 179.3573 L 528.4118 181.5327 L 526.3713 183.5359 L 522.9403 186.0384 L 521.6661 186.6545 L 519.0444 187.4083 L 514.9756 187.8312 L 505.3248 188.0416 L 502.6207 188.3401 L 500.0026 188.9791 L 497.6952 189.9836 L 493.3272 192.3044 L 489.7362 193.8503 L 487.342 195.1648 L 484.0179 197.8051 L 481.0561 200.9141 L 478.639 204.4633 L 478.042 205.7796 L 477.3131 208.4888 L 476.9048 212.6903 L 476.6702 222.6432 L 476.3402 225.4308 L 475.6471 228.1266 L 473.8979 231.5973 L 468.059 240.4539 L 463.0245 239.5852 L 460.5542 238.7549 L 459.3266 238.1312 L 457.0335 236.5967 L 451.6403 232.2134 L 448.1031 230.0361 L 446.737 229.5252 L 443.8908 228.8805 L 439.4661 228.4729 L 419.7512 228.4519 L 415.2706 228.6872 L 412.354 229.0737 L 408.3864 230.2925 L 402.8848 233.1241 L 396.7475 235.4813 L 392.8695 237.5954 Z" fill="#000000" fill-opacity="1" stroke="#000000" stroke-width="0" paint-order="fill" stroke-opacity="1" stroke-dasharray="" stroke-linecap="butt" stroke-linejoin="miter" stroke-miterlimit="10" clip-path="none"/>
<path data-code="202" d="M 520.8747 316.5142 L 517.9216 321.4677 L 515.2526 327.5059 L 513.0097 330.99 L 509.3542 335.2834 L 505.3951 339.351 L 502.2755 342.1693 L 498.9206 344.5207 L 494.1551 346.7114 L 488.7152 349.6693 L 487.5486 350.1553 L 484.9384 350.8422 L 482.2321 351.1904 L 478.08 351.3779 L 458.0545 351.4774 L 455.0002 345.0698 L 453.0322 340.0245 L 449.3953 333.328 L 447.3469 328.3918 L 444.4605 322.7802 L 443.5708 320.1953 L 442.9007 315.8503 L 442.6768 311.3579 L 442.6653 299.1952 L 442.9365 293.1895 L 443.3146 290.2679 L 444.0328 287.4573 L 445.0639 285.1059 L 447.3992 280.6422 L 449.4462 275.7002 L 453.1491 269.0458 L 454.7599 265.3704 L 456.0556 262.9502 L 457.6771 260.6427 L 462.0968 255.0636 L 463.6566 252.6969 L 464.8239 250.1676 L 466.4009 244.9022 L 468.059 240.4539 L 522.3764 240.1095 L 528.8624 240.2358 L 533.3359 240.8557 L 535.9045 241.8678 L 537.6537 243.4902 L 538.9875 246.2243 L 535.9382 250.3761 L 534.7464 252.6663 L 534.2916 253.9673 L 533.6989 256.667 L 532.8179 264.9935 L 532.3336 267.7066 L 531.5207 270.2149 L 528.9263 275.9642 L 527.6319 281.2468 L 526.2716 286.4892 L 523.2395 293.4267 L 522.5285 296.3311 L 522.0198 300.8866 L 521.425 311.8228 L 520.8747 316.5142 Z" fill="#000000" fill-opacity="1" stroke="#000000" stroke-width="0" paint-order="fill" stroke-opacity="1" stroke-dasharray="" stroke-linecap="butt" stroke-linejoin="miter" stroke-miterlimit="10" clip-path="none"/>
<path data-code="203" d="M 326.7116 302.3445 L 318.1994 299.6448 L 310.3337 298.0626 L 307.7831 297.3049 L 301.1894 293.8304 L 295.2817 291.1805 L 289.9207 288.0064 L 285.1782 285.7602 L 282.9318 284.2564 L 279.7835 281.5414 L 271.7434 273.6339 L 268.5377 271.0414 L 266.2196 269.7002 L 262.6716 268.0605 L 257.2504 265.0586 L 254.727 264.1326 L 250.4731 263.4419 L 246.0857 263.2218 L 238.7007 263.2658 L 234.3219 263.5433 L 231.4779 263.9546 L 228.7586 264.7046 L 223.2247 267.4291 L 220.8104 268.2939 L 216.8191 268.9559 L 211.3139 269.2563 L 212.6641 264.0044 L 215.2435 258.2684 L 216.0349 255.7428 L 216.5701 251.5987 L 216.5536 245.7689 L 217.223 238.7759 L 218.1242 234.7026 L 219.1494 232.3435 L 221.4863 227.8722 L 223.0145 224.17 L 224.2758 221.744 L 225.8758 219.4748 L 228.6273 216.2643 L 232.61 212.2044 L 235.7346 209.3593 L 239.0107 206.8931 L 243.6484 204.5972 L 245.8174 203.3057 L 248.5517 200.7419 L 250.0031 198.6833 L 252.1843 193.8867 L 255.301 188.3726 L 257.9062 182.2865 L 260.6857 176.7992 L 261.3328 174.2967 L 261.4146 172.9612 L 261.0709 170.3151 L 260.1684 168.0097 L 257.8588 163.6742 L 255.8068 158.7647 L 252.8128 153.1684 L 251.8958 150.6964 L 251.0585 146.6747 L 256.548 147.0325 L 260.5407 147.7002 L 263.2026 148.6244 L 267.2018 150.5319 L 269.9562 151.5057 L 282.972 153.5893 L 285.7156 154.5766 L 291.078 157.0695 L 293.9931 157.8215 L 297.0331 158.2194 L 301.7089 158.4643 L 328.7212 158.3285 L 336.5109 158.7417 L 340.9449 159.7309 L 347.6454 162.8782 L 352.7101 164.2941 L 352.4432 191.2961 L 352.9196 195.8459 L 353.2769 197.3095 L 354.3983 199.8867 L 355.1129 200.9543 L 356.8105 202.837 L 358.8 204.3561 L 359.9416 204.9856 L 370.0451 209.7401 L 372.5484 210.4097 L 377.8139 211.3893 L 380.3753 212.1929 L 382.8262 213.5475 L 386.1044 216.2471 L 388.0538 218.3326 L 389.7657 220.6266 L 391.1045 223.1847 L 391.5508 224.5259 L 392.2711 228.714 L 392.8695 237.5954 L 388.1442 245.3939 L 385.4328 251.4514 L 384.0847 253.6574 L 381.6367 256.7665 L 372.6696 266.8322 L 371.2225 268.7435 L 368.6395 272.704 L 367.8718 273.5841 L 366.0071 274.9827 L 358.7792 279.2761 L 353.0983 281.9777 L 352.0651 282.6645 L 350.1925 284.3329 L 348.6363 286.3552 L 347.4818 288.9075 L 347.1109 290.3597 L 346.613 294.8846 L 346.7593 304.2118 L 347.6232 313.4415 L 336.1651 306.1806 L 333.834 305.0919 L 328.9279 303.3528 L 326.7116 302.3445 Z" fill="#000000" fill-opacity="1" stroke="#000000" stroke-width="0" paint-order="fill" stroke-opacity="1" stroke-dasharray="" stroke-linecap="butt" stroke-linejoin="miter" stroke-miterlimit="10" clip-path="none"/>
<path data-code="204" d="M 251.0585 146.6747 L 251.0707 126.8245 L 250.8139 114.2103 L 251.5895 108.9679 L 252.3026 106.3085 L 252.7891 105.1165 L 255.6992 99.4876 L 257.6866 94.5112 L 261.3378 87.8377 L 263.4422 82.9053 L 264.8521 80.596 L 266.5209 78.411 L 270.2389 74.2324 L 277.1145 67.1342 L 280.1286 64.2126 L 283.2668 61.5551 L 285.5068 60.0952 L 290.2945 57.9562 L 295.7445 54.9906 L 298.1545 54.0914 L 302.054 53.3012 L 302.567 55.9913 L 303.3046 58.6086 L 306.107 64.2834 L 307.1022 66.696 L 309.4232 73.9167 L 310.15 76.9875 L 314.5518 83.2707 L 317.1311 86.3836 L 323.5798 93.3154 L 330.2021 100.0253 L 333.1531 102.6541 L 335.2237 104.1733 L 337.2506 105.2772 L 341.0604 106.9666 L 343.1913 108.3346 L 345.2081 109.9724 L 350.9379 115.5821 L 363.8798 129.3252 L 366.8286 131.9693 L 369.0169 133.4636 L 370.228 134.0662 L 372.0791 134.6785 L 375.9248 135.2601 L 383.6133 135.4362 L 391.446 135.0401 L 394.496 134.5981 L 397.4183 133.8194 L 402.7994 131.3264 L 405.6327 130.3411 L 408.6554 129.7901 L 414.9054 129.3213 L 418.9075 125.9214 L 421.0671 124.4712 L 423.4958 123.2543 L 428.5181 121.2301 L 426.4819 126.3347 L 425.2787 128.8181 L 423.8559 131.0394 L 420.5448 135.1664 L 420.0626 137.8335 L 419.2971 140.4508 L 418.7217 141.7021 L 417.2609 144.0516 L 415.5396 146.2576 L 412.6984 149.4126 L 407.6094 154.3221 L 405.4454 156.0593 L 403.1574 157.5211 L 398.3647 159.6697 L 391.9059 163.4388 L 387.1182 165.5339 L 382.8277 168.0077 L 380.5533 169.106 L 377.9259 169.8253 L 373.781 170.231 L 369.6942 170.1009 L 367.0345 169.7259 L 364.4552 169.0141 L 363.3008 168.5281 L 357.7949 165.7309 L 355.2923 164.9121 L 352.7101 164.2941 L 347.6454 162.8782 L 340.9449 159.7309 L 336.5109 158.7417 L 328.7212 158.3285 L 301.7089 158.4643 L 297.0331 158.2194 L 293.9931 157.8215 L 291.078 157.0695 L 285.7156 154.5766 L 282.972 153.5893 L 269.9562 151.5057 L 267.2018 150.5319 L 263.2026 148.6244 L 260.5407 147.7002 L 256.548 147.0325 L 251.0585 146.6747 Z" fill="#000000" fill-opacity="1" stroke="#000000" stroke-width="0" paint-order="fill" stroke-opacity="1" stroke-dasharray="" stroke-linecap="butt" stroke-linejoin="miter" stroke-miterlimit="10" clip-path="none"/>
<path data-code="205" d="M 244.7978 336.0889 L 242.4007 335.4556 L 235.4491 333.0353 L 234.2258 332.4939 L 231.9119 331.0665 L 228.7134 328.3918 L 223.7284 323.3465 L 220.0721 319.0416 L 217.835 315.5518 L 215.7457 310.5983 L 212.0564 303.9229 L 210.0446 298.9905 L 207.7918 294.6302 L 206.9215 292.3189 L 206.6804 291.0121 L 206.7012 288.3718 L 206.9573 287.0804 L 207.8305 284.8074 L 209.9126 280.3839 L 210.5985 277.757 L 210.9759 274.9808 L 211.3139 269.2563 L 216.8191 268.9559 L 220.8104 268.2939 L 223.2247 267.4291 L 228.7586 264.7046 L 231.4779 263.9546 L 234.3219 263.5433 L 238.7007 263.2658 L 246.0857 263.2218 L 250.4731 263.4419 L 254.727 264.1326 L 257.2504 265.0586 L 262.6716 268.0605 L 266.2196 269.7002 L 268.5377 271.0414 L 271.7434 273.6339 L 279.7835 281.5414 L 282.9318 284.2564 L 285.1782 285.7602 L 289.9207 288.0064 L 295.2817 291.1805 L 301.1894 293.8304 L 307.7831 297.3049 L 310.3337 298.0626 L 318.1994 299.6448 L 326.7116 302.3445 L 323.0661 315.6073 L 319.7456 322.5066 L 317.7711 327.4715 L 315.9623 330.7585 L 312.1245 336.7337 L 311.2657 337.564 L 308.9533 338.7809 L 306.3488 339.3969 L 297.9651 340.5851 L 295.4554 341.4174 L 289.831 343.9792 L 285.5125 344.9378 L 277.941 345.4257 L 265.6736 345.4008 L 261.1707 345.0296 L 258.2599 344.4365 L 256.8558 343.9582 L 253.5016 342.1348 L 244.7978 336.0889 Z" fill="#000000" fill-opacity="1" stroke="#000000" stroke-width="0" paint-order="fill" stroke-opacity="1" stroke-dasharray="" stroke-linecap="butt" stroke-linejoin="miter" stroke-miterlimit="10" clip-path="none"/>
<path data-code="206" d="M 458.0545 351.4774 L 455.5319 355.0705 L 452.1425 359.0157 L 446.737 364.6885 L 434.7946 376.8244 L 430.4467 381.5617 L 428.9098 383.5209 L 427.6291 385.5566 L 426.9203 387.1982 L 426.4625 388.8838 L 422.6032 390.7301 L 417.5966 392.6625 L 410.4606 381.0681 L 407.346 373.7823 L 404.9081 369.3378 L 402.2778 363.3779 L 400.85 361.2963 L 399.0979 359.4844 L 397.0825 358.0093 L 391.3133 355.302 L 385.9143 352.2235 L 381.1115 350.1113 L 378.9633 348.7318 L 376.9372 347.0864 L 374.0314 344.3504 L 366.0645 336.1807 L 361.9605 332.2126 L 358.8259 329.622 L 354.7757 326.9989 L 353.9083 326.226 L 352.558 324.3012 L 349.1256 317.9912 L 348.1864 315.8063 L 347.6232 313.4415 L 346.7593 304.2118 L 346.613 294.8846 L 347.1109 290.3597 L 347.4818 288.9075 L 348.6363 286.3552 L 350.1925 284.3329 L 352.0651 282.6645 L 353.0983 281.9777 L 358.7792 279.2761 L 366.0071 274.9827 L 367.8718 273.5841 L 368.6395 272.704 L 371.2225 268.7435 L 372.6696 266.8322 L 381.6367 256.7665 L 384.0847 253.6574 L 385.4328 251.4514 L 388.1442 245.3939 L 392.8695 237.5954 L 396.7475 235.4813 L 402.8848 233.1241 L 408.3864 230.2925 L 412.354 229.0737 L 415.2706 228.6872 L 419.7512 228.4519 L 439.4661 228.4729 L 443.8908 228.8805 L 446.737 229.5252 L 448.1031 230.0361 L 451.6403 232.2134 L 457.0335 236.5967 L 459.3266 238.1312 L 460.5542 238.7549 L 463.0245 239.5852 L 468.059 240.4539 L 466.4009 244.9022 L 464.8239 250.1676 L 463.6566 252.6969 L 462.0968 255.0636 L 457.6771 260.6427 L 456.0556 262.9502 L 454.7599 265.3704 L 453.1491 269.0458 L 449.4462 275.7002 L 447.3992 280.6422 L 445.0639 285.1059 L 444.0328 287.4573 L 443.3146 290.2679 L 442.9365 293.1895 L 442.6653 299.1952 L 442.6768 311.3579 L 442.9007 315.8503 L 443.5708 320.1953 L 444.4605 322.7802 L 447.3469 328.3918 L 449.3953 333.328 L 453.0322 340.0245 L 455.0002 345.0698 L 458.0545 351.4774 Z" fill="#000000" fill-opacity="1" stroke="#000000" stroke-width="0" paint-order="fill" stroke-opacity="1" stroke-dasharray="" stroke-linecap="butt" stroke-linejoin="miter" stroke-miterlimit="10" clip-path="none"/>
<path data-code="207" d="M 597.4397 233.6675 L 591.2141 234.2166 L 580.6112 234.6854 L 576.2038 235.1981 L 573.3991 235.9194 L 567.8042 238.5042 L 565.2787 239.3786 L 562.4203 239.9411 L 555.0891 240.7925 L 552.217 241.3455 L 549.6714 242.2256 L 544.0902 244.8716 L 538.9875 246.2243 L 537.6537 243.4902 L 535.9045 241.8678 L 533.3359 240.8557 L 528.8624 240.2358 L 522.3764 240.1095 L 468.059 240.4539 L 473.8979 231.5973 L 475.6471 228.1266 L 476.3402 225.4308 L 476.6702 222.6432 L 476.9048 212.6903 L 477.3131 208.4888 L 478.042 205.7796 L 478.639 204.4633 L 481.0561 200.9141 L 484.0179 197.8051 L 487.342 195.1648 L 489.7362 193.8503 L 493.3272 192.3044 L 497.6952 189.9836 L 500.0026 188.9791 L 502.6207 188.3401 L 505.3248 188.0416 L 514.9756 187.8312 L 519.0444 187.4083 L 521.6661 186.6545 L 522.9403 186.0384 L 526.3713 183.5359 L 528.4118 181.5327 L 530.273 179.3573 L 532.589 175.7814 L 534.6675 170.8336 L 538.2269 164.097 L 540.2072 159.1072 L 543.0656 153.4554 L 543.9567 150.9758 L 544.8012 146.9675 L 549.8996 148.2302 L 555.2721 150.7864 L 558.7253 151.7813 L 560.5254 156.2717 L 562.393 162.7271 L 563.3681 165.1837 L 566.3226 170.8049 L 568.3316 175.7737 L 571.9419 182.4759 L 573.9444 187.4504 L 577.5662 194.1507 L 579.7079 199.0697 L 582.0225 202.6036 L 586.4945 208.1635 L 588.1189 210.4786 L 589.4025 212.9142 L 590.963 216.6106 L 593.9212 222.2242 L 594.879 224.6961 L 596.2673 230.038 L 597.4397 233.6675 Z" fill="#000000" fill-opacity="1" stroke="#000000" stroke-width="0" paint-order="fill" stroke-opacity="1" stroke-dasharray="" stroke-linecap="butt" stroke-linejoin="miter" stroke-miterlimit="10" clip-path="none"/>








</svg>