<?xml version="1.0" standalone="no"?>
<!-- Generator: Paintmaps.com , Online SVG vector map maker -->
<svg xmlns="http://www.w3.org/2000/svg" version="1.1" baseProfile="full"   style="background-color:#e0f2f1" width="800" height="500" viewBox="0 0 800 533">

<path data-code="200" d="M 554.8077 444.3784 L 556.0903 441.2398 L 560.562 426.8322 L 567.6145 411.6641 L 573.4128 388.5254 L 579.041 375.8867 L 580.8719 370.1472 L 582.2962 360.4329 L 583.3173 340.4329 L 584.3887 330.6135 L 585.8981 324.3656 L 591.394 311.6765 L 593.1807 306.1723 L 594.624 297.1218 L 595.3866 284.6596 L 610.4591 285.1302 L 616.3268 286.2227 L 619.1755 287.1891 L 624.6083 290.1807 L 629.4959 294.0504 L 636.0789 300.8025 L 639.9424 305.7605 L 643.1567 311.1051 L 647.5842 322.0379 L 654.7628 337.1177 L 656.2911 342.9077 L 659.0359 357.6682 L 660.9613 363.1346 L 667.3363 375.4875 L 670.7523 383.6094 L 673.5695 388.9498 L 677.1305 394.0212 L 686.7796 406.2775 L 690.0916 411.5002 L 692.4267 417.1011 L 694.3931 425.8112 L 694.3301 425.828 L 695.036 428.2482 L 700.1221 444.5801 L 694.7807 451.307 L 680.6882 460.3407 L 670.412 463.7734 L 660.9991 463.5802 L 649.0086 459.9793 L 632.9875 455.1684 L 602.4549 449.3742 L 587.9087 446.6137 L 556.5914 444.8658 L 554.8077 444.3784 Z" fill="#000000" fill-opacity="1" stroke="#000000" stroke-width="0" paint-order="fill" stroke-opacity="1" stroke-dasharray="" stroke-linecap="butt" stroke-linejoin="miter" stroke-miterlimit="10" clip-path="none" style="filter: url(#f1)"/>
<path data-code="201" d="M 554.8077 444.3784 L 553.7647 444.0927 L 530.4642 437.7146 L 500.1648 434.0759 L 466.4368 435.828 L 460.317 438.3532 L 442.1657 445.8406 L 432.8852 446.5591 L 427.1941 445.8616 L 424.1625 445.4919 L 410.757 438.6767 L 404.9114 435.7062 L 399.6236 435.9541 L 390.0123 437.0801 L 384.8347 437.6851 L 380.7696 440.1809 L 373.0616 454.6306 L 365.6152 475.8953 L 359.5773 479.702 L 355.2254 479.5508 L 346.0395 473.202 L 333.3998 458.9835 L 331.2002 457.0087 L 324.8126 451.2818 L 320.0951 447.0507 L 305.9932 442.0885 L 303.2201 438.8742 L 303.1066 433.4456 L 307.5121 419.1935 L 323.5899 387.8321 L 326.8483 381.475 L 328.0773 372.6052 L 326.3472 368.7312 L 322.8745 365.9035 L 304.1718 357.9455 L 296.4984 354.6808 L 287.8797 347.9455 L 279.1129 334.5211 L 270.8282 327.1513 L 234.0844 305.9664 L 220.1684 307.5504 L 215.8386 308.042 L 199.6505 309.8782 L 191.6054 308.1681 L 180.5917 305.8277 L 118.2943 286.8865 L 101.5831 278.126 L 100.0296 265.2436 L 99.8751 258.9285 L 100.4707 252.8192 L 102.1157 246.9495 L 104.8289 241.9579 L 108.3016 237.5713 L 119.621 227.3444 L 134.495 243.6344 L 161.2177 271.4075 L 195.7461 271.3529 L 212.6054 272.4873 L 222.0434 274.6722 L 236.3849 280.7227 L 241.8586 281.4033 L 244.6191 281.2521 L 249.8313 280.021 L 259.304 275.7731 L 264.8124 273.8193 L 284.3818 270.3445 L 291.261 268.7142 L 298.553 288.9832 L 301.2568 293.5756 L 303.1003 295.4454 L 320.6371 306.9874 L 333.5353 312.832 L 348.1351 320.2942 L 357.425 322.3908 L 370.3767 323.1849 L 420.006 323.29 L 436.2287 322.5169 L 442.484 321.3698 L 448.0649 319.3656 L 460.0145 312.8278 L 470.4326 307.895 L 477.9893 302.6429 L 492.3686 290.8277 L 497.3696 287.5546 L 507.3938 282.3739 L 511.7488 279.084 L 517.2415 272.8739 L 520.0241 267.8655 L 527.1648 249.8234 L 530.5682 239.5503 L 544.9726 247.7016 L 559.125 256.7394 L 569.666 261.4033 L 584.1397 269.0336 L 589.7017 270.689 L 595.4055 271.8361 L 595.3866 284.6596 L 594.624 297.1218 L 593.1807 306.1723 L 591.394 311.6765 L 585.8981 324.3656 L 584.3887 330.6135 L 583.3173 340.4329 L 582.2962 360.4329 L 580.8719 370.1472 L 579.041 375.8867 L 573.4128 388.5254 L 567.6145 411.6641 L 560.562 426.8322 L 556.0903 441.2398 L 554.8077 444.3784 Z" fill="#000000" fill-opacity="1" stroke="#000000" stroke-width="0" paint-order="fill" stroke-opacity="1" stroke-dasharray="" stroke-linecap="butt" stroke-linejoin="miter" stroke-miterlimit="10" clip-path="none" style="filter: url(#f1)"/>
<path data-code="202" d="M 433.2697 85.0458 L 423.9514 105.7139 L 419.7728 116.8652 L 411.756 131.5753 L 408.3085 140.34 L 406.131 144.9997 L 399.3274 157.1846 L 395.0133 168.151 L 387.0469 182.8443 L 382.5185 193.7099 L 377.6845 201.1301 L 369.7559 210.2729 L 346.2569 234.6679 L 335.5048 245.5587 L 328.8241 251.5923 L 324.0909 255.0755 L 319.4586 257.5419 L 310.802 260.8613 L 301.2379 265.0588 L 291.261 268.7142 L 284.3818 270.3445 L 264.8124 273.8193 L 259.304 275.7731 L 249.8313 280.021 L 244.6191 281.2521 L 241.8586 281.4033 L 236.3849 280.7227 L 222.0434 274.6722 L 212.6054 272.4873 L 195.7461 271.3529 L 161.2177 271.4075 L 134.495 243.6344 L 119.621 227.3444 L 125.9834 222.7394 L 138.1441 216.0503 L 142.9719 212.3612 L 154.7954 202.2057 L 159.765 198.5544 L 164.9898 195.7183 L 172.931 192.2897 L 184.7986 185.4662 L 197.4226 179.4241 L 201.8375 176.1888 L 205.701 172.2435 L 208.8932 167.7392 L 215.3754 154.714 L 218.8701 149.6594 L 228.4437 137.298 L 231.7714 132.0333 L 233.1201 129.2266 L 234.9321 123.4829 L 237.951 108.8274 L 239.8481 103.4156 L 245.6811 90.8231 L 247.263 85.0668 L 248.3754 79.1508 L 257.1391 71.8567 L 261.8156 68.8147 L 272.2809 63.9785 L 284.0667 56.9113 L 291.0625 53.4743 L 373.0837 53.302 L 383.3032 53.7012 L 393.2329 55.1802 L 399.4976 57.4239 L 420.8348 68.8525 L 423.4094 70.7937 L 427.8936 75.3609 L 431.3348 80.55 L 433.2697 85.0458 Z" fill="#000000" fill-opacity="1" stroke="#000000" stroke-width="0" paint-order="fill" stroke-opacity="1" stroke-dasharray="" stroke-linecap="butt" stroke-linejoin="miter" stroke-miterlimit="10" clip-path="none" style="filter: url(#f1)"/>
<path data-code="203" d="M 291.261 268.7142 L 301.2379 265.0588 L 310.802 260.8613 L 319.4586 257.5419 L 324.0909 255.0755 L 328.8241 251.5923 L 335.5048 245.5587 L 346.2569 234.6679 L 369.7559 210.2729 L 377.6845 201.1301 L 382.5185 193.7099 L 387.0469 182.8443 L 395.0133 168.151 L 399.3274 157.1846 L 406.131 144.9997 L 408.3085 140.34 L 411.756 131.5753 L 419.7728 116.8652 L 423.9514 105.7139 L 433.2697 85.0458 L 443.6846 103.3232 L 449.2655 116.7433 L 454.3139 126.6257 L 456.5166 131.7938 L 458.4168 140.6888 L 460.024 159.1048 L 461.0355 165.109 L 462.7908 170.6594 L 468.337 183.3275 L 469.8118 189.0124 L 472.0334 200.6217 L 473.9305 206.2393 L 475.2603 208.7183 L 478.6101 213.1679 L 482.6721 216.899 L 484.9284 218.4494 L 495.1039 223.294 L 509.4358 231.1805 L 520.2856 235.1932 L 530.5682 239.5503 L 527.1648 249.8234 L 520.0241 267.8655 L 517.2415 272.8739 L 511.7488 279.084 L 507.3938 282.3739 L 497.3696 287.5546 L 492.3686 290.8277 L 477.9893 302.6429 L 470.4326 307.895 L 460.0145 312.8278 L 448.0649 319.3656 L 442.484 321.3698 L 436.2287 322.5169 L 420.006 323.29 L 370.3767 323.1849 L 357.425 322.3908 L 348.1351 320.2942 L 333.5353 312.832 L 320.6371 306.9874 L 303.1003 295.4454 L 301.2568 293.5756 L 298.553 288.9832 L 291.261 268.7142 Z" fill="#000000" fill-opacity="1" stroke="#000000" stroke-width="0" paint-order="fill" stroke-opacity="1" stroke-dasharray="" stroke-linecap="butt" stroke-linejoin="miter" stroke-miterlimit="10" clip-path="none" style="filter: url(#f1)"/>




</svg>