<?xml version="1.0" standalone="no"?>
<!-- Generator: Paintmaps.com , Online SVG vector map maker -->
<svg xmlns="http://www.w3.org/2000/svg" version="1.1" baseProfile="full"   style="background-color:#e0f2f1" width="800" height="500" viewBox="0 0 800 533">

<path data-code="200" d="M 437.223 177.2467 L 432.696 174.937 L 429.1491 173.4564 L 426.8127 171.8995 L 423.9293 169.3439 L 421.1825 166.5787 L 419.2752 164.394 L 418.1669 162.8342 L 417.3169 161.119 L 417.0564 160.2495 L 416.7867 158.4759 L 416.771 156.7009 L 417.1408 154.1398 L 417.6825 152.5523 L 418.6294 150.3412 L 418.8346 149.5843 L 418.9106 148.7871 L 418.8158 147.976 L 418.5794 147.1912 L 417.8304 145.6815 L 416.37 143.3912 L 414.3242 140.6163 L 422.7231 140.2579 L 426.671 139.8079 L 428.546 139.3079 L 432.6043 137.419 L 434.4366 136.7788 L 436.5105 136.3663 L 441.8293 135.7357 L 443.9105 135.3343 L 445.7553 134.7052 L 448.9959 133.1788 L 450.8438 132.5621 L 452.9303 132.1843 L 458.2667 131.6357 L 460.3594 131.2399 L 463.025 130.1663 L 468.45 127.0524 L 469.8511 125.9094 L 472.2386 123.1385 L 473.7531 122.4649 L 475.3865 121.4399 L 476.9448 120.1927 L 479.1937 118.0997 L 482.0594 115.1219 L 484.0312 112.84 L 485.1677 111.3205 L 486.8208 108.5372 L 487.2531 108.033 L 488.3406 107.3344 L 491.6239 108.5886 L 498.3166 111.5358 L 500.0093 112.633 L 504.7062 116.5997 L 507.1655 118.3636 L 510.5832 120.0288 L 514.5238 122.1969 L 516.3895 122.8691 L 519.5842 123.3649 L 522.878 123.5038 L 546.3144 123.2455 L 549.5018 123.5969 L 551.5206 124.2621 L 552.3268 124.7219 L 553.7445 125.8955 L 554.8956 127.333 L 555.357 128.1385 L 556.0539 129.9593 L 557.1383 133.7538 L 558.2226 136.6621 L 555.6633 137.8135 L 554.0237 138.7038 L 552.3091 139.9218 L 550.1133 142.0288 L 549.0154 143.6329 L 548.6518 144.5385 L 548.4789 145.4593 L 548.4883 146.376 L 548.6862 147.2593 L 549.0873 148.0746 L 549.655 148.726 L 550.2977 149.2093 L 556.1633 152.5662 L 559.7164 153.9551 L 564.5903 156.3593 L 571.0611 157.8745 L 572.7403 158.6898 L 574.158 159.8329 L 575.3413 161.2245 L 575.8299 161.9967 L 577.7195 166.3092 L 579.8288 170.3925 L 581.2986 174.0078 L 582.9996 176.5842 L 584.3767 178.1439 L 586.6559 180.2481 L 589.1361 181.9245 L 591.6642 183.0647 L 593.2496 183.98 L 594.6309 185.1661 L 595.7934 186.6161 L 596.6381 188.3939 L 596.91 189.3703 L 597.2225 191.38 L 597.3225 193.423 L 597.2486 195.4647 L 596.959 197.4758 L 596.6954 198.4563 L 596.3194 199.4077 L 595.2923 201.0077 L 593.9663 202.3077 L 592.4048 203.2786 L 590.5871 203.8716 L 585.9267 204.7091 L 584.1746 205.3063 L 580.1788 207.3549 L 577.607 208.4744 L 576.7684 208.923 L 575.3038 210.0063 L 574.0351 211.3299 L 573.0018 212.848 L 571.0955 217.1827 L 568.9622 221.2563 L 567.4903 224.8702 L 566.4289 226.634 L 565.1528 228.2771 L 562.9924 230.5451 L 560.5956 232.5021 L 558.8685 233.484 L 556.281 234.6507 L 552.355 236.8076 L 550.5685 237.4229 L 548.6404 237.6951 L 546.6935 237.6743 L 544.7789 237.3659 L 543.0185 236.7312 L 539.881 235.0187 L 538.1758 234.2923 L 533.4904 232.9701 L 529.879 231.7215 L 531.3686 227.4007 L 532.1102 225.6354 L 532.5894 224.8577 L 533.7706 223.4757 L 535.1894 222.3674 L 536.8477 221.6035 L 542.2196 220.4674 L 543.8769 219.7257 L 545.2758 218.6271 L 545.8748 217.9577 L 546.7966 216.3702 L 547.0758 215.416 L 547.18 213.4632 L 547.0237 212.4952 L 546.4164 210.7966 L 543.1862 204.2688 L 541.4321 202.1147 L 539.9654 200.9786 L 538.1363 200.1425 L 534.9717 199.5841 L 529.4655 199.4577 L 521.6363 199.7077 L 518.3686 200.0536 L 516.2967 200.5022 L 515.3217 200.8313 L 512.2624 202.3536 L 510.6863 202.9688 L 508.877 203.1786 L 507.9603 203.0813 L 506.2551 202.4563 L 505.5197 201.9702 L 504.2416 200.7591 L 503.2207 199.3091 L 501.6822 195.898 L 500.0385 193.2328 L 497.2874 189.8605 L 493.4635 185.9592 L 491.826 184.5786 L 490.0833 183.4064 L 481.8312 179.3036 L 478.7312 178.6161 L 475.499 178.3939 L 451.1772 178.4828 L 444.5626 178.362 L 441.2887 178.0842 L 437.223 177.2467 Z" fill="#000000" fill-opacity="1" stroke="#000000" stroke-width="0" paint-order="fill" stroke-opacity="1" stroke-dasharray="" stroke-linecap="butt" stroke-linejoin="miter" stroke-miterlimit="10" transform="matrix(0.8500000238418579,0,0,0.8500000238418579,59.999881744384766,39.9749755859375)" clip-path="none" style="filter: url(#f1)"/>
<path data-code="201" d="M 169.8291 205.5397 L 170.275 209.9966 L 170.4531 213.3632 L 170.4656 216.748 L 170.2843 220.1118 L 169.9802 222.2993 L 169.4302 224.391 L 167.5104 228.5368 L 166.8531 230.4396 L 166.3396 233.7132 L 166.3104 237.0576 L 166.5739 239.2576 L 166.8229 240.3298 L 167.5729 242.2173 L 168.5416 243.7756 L 172.1875 248.2562 L 173.7562 250.5728 L 176.2864 256.3506 L 176.7552 257.9075 L 176.7458 259.52 L 175.0593 264.2895 L 174.4385 268.2658 L 174.2552 271.3894 L 174.2562 274.513 L 174.4177 276.5589 L 174.827 278.5436 L 175.1812 279.495 L 176.1583 281.1089 L 176.7593 281.8144 L 178.1312 283.0269 L 179.7312 283.9533 L 183.0885 285.42 L 187.0239 287.5783 L 190.4426 289.1144 L 191.9166 290.1741 L 193.7614 292.2116 L 194.6874 293.856 L 195.7759 296.5033 L 197.403 299.7699 L 198.1145 301.4782 L 198.5957 303.3921 L 199.5165 308.2602 L 199.8447 309.206 L 200.8238 311.0254 L 202.7686 313.4504 L 205.0238 315.574 L 207.5009 317.2782 L 210.0363 318.4476 L 211.6144 319.3671 L 213.6207 321.2018 L 214.6925 322.6865 L 216.2779 326.1573 L 217.9456 329.3934 L 218.6644 331.1212 L 219.2488 334.1045 L 219.4436 339.2823 L 216.6404 339.8656 L 214.8957 340.5934 L 212.605 342.21 L 211.2144 343.5031 L 209.9269 344.9073 L 208.7655 346.41 L 207.7926 348.0211 L 205.8603 352.4364 L 203.428 356.4642 L 201.3988 360.2072 L 200.104 359.8544 L 198.4124 359.1892 L 194.4947 357.0406 L 191.0312 355.4767 L 188.5343 353.7225 L 186.2166 351.5989 L 183.9728 349.3267 L 169.9968 334.5281 L 167.6323 332.5323 L 165.8552 331.5337 L 164.9156 331.2184 L 162.9875 330.9059 L 160.0865 331.0476 L 158.2271 331.5406 L 154.2969 333.6129 L 152.5677 334.2976 L 150.6542 334.7184 L 148.6709 334.9531 L 144.6126 335.1323 L 139.5178 335.0865 L 136.5167 334.8406 L 134.5793 334.4601 L 132.8001 333.7948 L 128.8772 331.5809 L 125.4418 329.9531 L 123.772 328.8226 L 119.0949 324.7907 L 117.472 323.5671 L 115.7637 322.6046 L 113.171 321.4268 L 108.4845 318.6754 L 104.9939 317.1726 L 100.2242 314.5712 L 93.1294 312.4338 L 91.77 306.5963 L 91.1211 304.7949 L 89.5815 301.4602 L 88.9648 299.5505 L 88.5804 297.3949 L 88.02 291.8852 L 87.3492 288.6866 L 85.1607 283.6394 L 83.2409 276.0005 L 81.0013 270.9756 L 80.4846 268.9214 L 80.2024 266.7825 L 79.9992 260.1811 L 80.094 256.8742 L 80.3836 253.6256 L 81.0805 250.5284 L 82.9638 246.3242 L 83.8044 243.4548 L 84.1055 241.3076 L 84.5648 234.5757 L 84.9398 231.234 L 84.3138 224.6868 L 84.1992 219.4202 L 84.4784 215.2952 L 84.8971 213.3035 L 85.2305 212.3452 L 85.6773 211.4077 L 86.7857 209.6758 L 89.9846 205.6522 L 91.1565 203.9827 L 92.0825 202.2244 L 93.6252 198.705 L 95.4044 195.4841 L 96.9335 192.0647 L 97.8835 190.4578 L 99.0877 189.0967 L 100.5117 187.9869 L 102.1721 187.2064 L 104.8794 186.5758 L 107.0075 188.3536 L 108.5345 189.3814 L 110.3179 190.1605 L 112.32 190.6078 L 116.4866 190.8953 L 128.1772 190.9036 L 130.2532 191.0828 L 132.2678 191.4564 L 134.0782 192.0953 L 138.0897 194.073 L 145.4969 196.0314 L 150.3532 198.3675 L 152.1865 198.9202 L 155.9521 199.73 L 157.7865 200.2966 L 162.5917 202.7702 L 169.8291 205.5397 Z" fill="#000000" fill-opacity="1" stroke="#000000" stroke-width="0" paint-order="fill" stroke-opacity="1" stroke-dasharray="" stroke-linecap="butt" stroke-linejoin="miter" stroke-miterlimit="10" transform="matrix(0.8500000238418579,0,0,0.8500000238418579,59.999881744384766,39.9749755859375)" clip-path="none" style="filter: url(#f1)"/>
<path data-code="202" d="M 365.2483 283.4491 L 361.9504 283.9644 L 360.0014 284.0241 L 358.0535 283.9033 L 355.2337 283.2825 L 351.2306 281.3547 L 349.3963 280.6936 L 346.2348 280.1894 L 344.0744 280.1283 L 341.9223 280.2602 L 339.8182 280.6311 L 338.8046 280.9352 L 334.7567 282.8519 L 332.9317 283.5102 L 330.8599 283.9408 L 325.5484 284.6102 L 323.4745 285.0269 L 321.6411 285.6672 L 318.4151 287.2102 L 316.5391 287.8408 L 314.3901 288.2158 L 312.1776 288.3963 L 303.1714 288.5894 L 299.8891 288.9088 L 297.8204 289.4199 L 293.786 291.338 L 292.1287 291.9574 L 286.2902 293.2699 L 284.6236 294.0283 L 282.2611 295.7755 L 280.0746 297.8477 L 273.6986 304.4768 L 270.7517 307.2032 L 268.3694 308.856 L 265.6132 310.1157 L 264.1132 310.9504 L 261.7934 312.7532 L 259.5966 314.831 L 251.7403 322.8615 L 250.2487 324.1907 L 248.6799 325.3629 L 247.1633 326.2032 L 244.3799 327.4087 L 239.6737 330.1156 L 236.1685 331.592 L 231.4706 334.342 L 227.9675 335.8281 L 224.0196 338.024 L 222.4602 338.6392 L 219.4436 339.2823 L 219.2488 334.1045 L 218.6644 331.1212 L 217.9456 329.3934 L 216.2779 326.1573 L 214.6925 322.6865 L 213.6207 321.2018 L 211.6144 319.3671 L 210.0363 318.4476 L 207.5009 317.2782 L 205.0238 315.574 L 202.7686 313.4504 L 200.8238 311.0254 L 199.8447 309.206 L 199.5165 308.2602 L 198.5957 303.3921 L 198.1145 301.4782 L 197.403 299.7699 L 195.7759 296.5033 L 194.6874 293.856 L 193.7614 292.2116 L 191.9166 290.1741 L 190.4426 289.1144 L 187.0239 287.5783 L 183.0885 285.42 L 179.7312 283.9533 L 178.1312 283.0269 L 176.7593 281.8144 L 176.1583 281.1089 L 175.1812 279.495 L 174.827 278.5436 L 174.4177 276.5589 L 174.2562 274.513 L 174.2552 271.3894 L 174.4385 268.2658 L 175.0593 264.2895 L 176.7458 259.52 L 176.7552 257.9075 L 176.2864 256.3506 L 173.7562 250.5728 L 172.1875 248.2562 L 168.5416 243.7756 L 167.5729 242.2173 L 166.8229 240.3298 L 166.5739 239.2576 L 166.3104 237.0576 L 166.3396 233.7132 L 166.8531 230.4396 L 167.5104 228.5368 L 169.4302 224.391 L 169.9802 222.2993 L 170.2843 220.1118 L 170.4656 216.748 L 170.4531 213.3632 L 170.275 209.9966 L 169.8291 205.5397 L 177.3333 210.3799 L 178.9854 211.2049 L 179.9208 211.5132 L 181.8572 211.8896 L 183.8447 212.0632 L 191.9655 212.1757 L 195.9613 212.466 L 198.7676 213.1424 L 202.6488 215.0452 L 204.3696 215.5271 L 206.2228 215.5563 L 207.1436 215.3855 L 208.779 214.7563 L 211.8519 213.0994 L 215.2957 211.5021 L 216.1352 210.9841 L 218.4967 209.1063 L 221.4394 206.2341 L 224.2123 203.1855 L 226.08 200.7841 L 227.1123 199.0869 L 228.7185 195.5425 L 230.3612 193.0564 L 232.3393 190.7272 L 237.2372 185.4397 L 239.0695 183.0342 L 239.9935 181.2883 L 242.0497 176.3411 L 242.5018 174.7703 L 242.5622 173.9564 L 242.2664 172.38 L 240.782 168.3884 L 240.432 166.4662 L 240.2633 164.4815 L 240.2549 162.5051 L 240.6195 159.7093 L 241.2591 158.1023 L 243.2289 155.8009 L 244.9195 152.8857 L 246.0341 151.2704 L 248.0476 148.944 L 250.3049 146.7857 L 252.7976 144.9787 L 256.2507 143.3371 L 260.1663 141.1385 L 261.0143 140.7857 L 262.9142 140.3288 L 265.8372 140.2635 L 267.7601 140.6218 L 269.5934 141.4135 L 271.2476 142.5732 L 275.0871 145.9218 L 276.7059 147.1273 L 278.4402 148.0412 L 282.035 149.3607 L 284.6121 150.6329 L 285.3017 153.2732 L 285.9527 154.6926 L 286.4954 155.3009 L 287.1923 155.7426 L 287.9642 155.9898 L 288.7715 156.062 L 290.3298 155.7607 L 293.9423 153.9704 L 296.6818 153.1829 L 299.7287 152.7607 L 303.8131 152.5259 L 306.7724 152.6079 L 308.6433 152.9329 L 309.5339 153.2565 L 310.9995 154.2148 L 312.0745 155.5482 L 312.4141 156.3676 L 312.5537 157.2926 L 312.4214 158.2843 L 312.0714 159.1495 L 311.0047 160.6398 L 309.6443 161.9829 L 307.2808 163.7953 L 305.5641 164.7717 L 302.1516 166.2009 L 300.685 167.2051 L 299.4464 168.5023 L 298.9454 169.2606 L 298.5537 170.0995 L 298.2933 171.0495 L 298.1912 172.0203 L 298.2308 172.9898 L 298.6964 174.8009 L 300.7402 178.7272 L 302.2308 182.3092 L 304.4766 186.3536 L 306.4391 190.6411 L 307.4995 192.1341 L 308.811 193.4078 L 310.3443 194.3897 L 311.2318 194.7508 L 317.6932 196.2314 L 319.3339 196.9716 L 322.5026 198.6772 L 325.1151 199.8022 L 326.8265 200.7466 L 329.2047 202.6286 L 331.4442 204.7827 L 342.2911 216.2216 L 344.5879 218.2549 L 346.2515 219.3799 L 347.1483 219.8216 L 349.0275 220.3854 L 350.964 220.6716 L 355.8608 221.0813 L 357.7775 221.4132 L 359.5514 222.0035 L 363.6077 223.8827 L 370.0712 225.3076 L 370.9681 225.6646 L 372.5128 226.6535 L 373.8045 227.9674 L 374.3378 228.734 L 374.7733 229.5785 L 375.3035 231.509 L 375.4045 232.4993 L 375.3628 234.4868 L 375.0233 236.4437 L 374.7316 237.3896 L 372.3316 242.3618 L 372.0233 243.3423 L 371.616 245.4576 L 371.3087 250.0492 L 371.316 264.3992 L 371.1931 266.7506 L 370.916 269.052 L 370.3754 271.2617 L 369.9722 272.3061 L 368.0952 276.2603 L 366.5024 280.788 L 365.2483 283.4491 Z" fill="#000000" fill-opacity="1" stroke="#000000" stroke-width="0" paint-order="fill" stroke-opacity="1" stroke-dasharray="" stroke-linecap="butt" stroke-linejoin="miter" stroke-miterlimit="10" transform="matrix(0.8500000238418579,0,0,0.8500000238418579,59.999881744384766,39.9749755859375)" clip-path="none" style="filter: url(#f1)"/>
<path data-code="203" d="M 237.8445 371.0905 L 236.782 373.5849 L 235.3581 378.9349 L 234.5175 380.4696 L 233.2571 381.6141 L 228.9071 384.4044 L 227.3414 385.2835 L 223.055 387.1932 L 219.1123 389.4613 L 215.6092 390.9849 L 212.4217 392.6863 L 210.7467 393.4113 L 207.6821 394.0293 L 200.4478 394.3252 L 198.5447 394.6029 L 196.8259 395.2613 L 196.0884 395.8224 L 195.5416 396.4918 L 194.8322 398.0321 L 193.8874 401.4585 L 193.1457 403.2196 L 192.0874 404.9251 L 188.3228 409.8584 L 187.227 411.5973 L 185.6135 415.1293 L 183.9843 418.3015 L 183.3676 419.9931 L 183.1937 420.9473 L 183.1947 422.8737 L 183.6291 424.6764 L 185.0874 427.8889 L 185.7312 429.6237 L 186.8405 434.4264 L 187.403 436.3139 L 189.3124 440.4847 L 189.9082 442.3153 L 190.3593 445.325 L 190.5572 449.4597 L 187.1635 449.5861 L 184.9333 449.8541 L 182.7708 450.4528 L 181.7593 450.9278 L 179.876 452.1375 L 176.9729 454.5444 L 171.0781 460.4513 L 168.851 454.3861 L 165.6385 446.4111 L 165.2344 445.5028 L 164.1427 443.6722 L 162.1365 441.1306 L 158.374 437.1736 L 155.9656 435.0042 L 153.375 433.2028 L 149.9063 431.6181 L 145.1938 428.9306 L 141.7084 427.4125 L 137.022 424.6709 L 133.5563 423.1251 L 129.6178 420.9528 L 127.8147 420.2876 L 125.8199 419.9042 L 122.7293 419.6695 L 104.7544 419.7931 L 101.6242 419.7015 L 98.569 419.3556 L 96.6221 418.8306 L 95.7804 418.4737 L 91.8315 416.3168 L 87.5377 414.4251 L 81.6971 411.2487 L 86.2815 404.3807 L 87.4169 402.4474 L 91.3659 393.9057 L 92.0815 390.4654 L 92.3554 384.4446 L 92.3409 324.2712 L 92.5304 318.1462 L 93.1294 312.4338 L 100.2242 314.5712 L 104.9939 317.1726 L 108.4845 318.6754 L 113.171 321.4268 L 115.7637 322.6046 L 117.472 323.5671 L 119.0949 324.7907 L 123.772 328.8226 L 125.4418 329.9531 L 128.8772 331.5809 L 132.8001 333.7948 L 134.5793 334.4601 L 136.5167 334.8406 L 139.5178 335.0865 L 144.6126 335.1323 L 148.6709 334.9531 L 150.6542 334.7184 L 152.5677 334.2976 L 154.2969 333.6129 L 158.2271 331.5406 L 160.0865 331.0476 L 162.9875 330.9059 L 164.9156 331.2184 L 165.8552 331.5337 L 167.6323 332.5323 L 169.9968 334.5281 L 183.9728 349.3267 L 186.2166 351.5989 L 188.5343 353.7225 L 191.0312 355.4767 L 194.4947 357.0406 L 198.4124 359.1892 L 200.104 359.8544 L 201.3988 360.2072 L 208.9248 366.3989 L 210.6467 367.528 L 212.5915 368.3405 L 214.6998 368.778 L 216.8634 368.9725 L 227.9435 368.9975 L 231.231 369.1558 L 234.4029 369.6683 L 236.2425 370.31 L 237.8445 371.0905 Z" fill="#000000" fill-opacity="1" stroke="#000000" stroke-width="0" paint-order="fill" stroke-opacity="1" stroke-dasharray="" stroke-linecap="butt" stroke-linejoin="miter" stroke-miterlimit="10" transform="matrix(0.8500000238418579,0,0,0.8500000238418579,59.999881744384766,39.9749755859375)" clip-path="none" style="filter: url(#f1)"/>
<path data-code="204" d="M 284.6121 150.6329 L 285.1527 145.4107 L 285.361 140.5968 L 285.2944 112.8302 L 285.5152 106.9011 L 285.8548 104.6039 L 286.5121 102.408 L 287.5746 100.4331 L 289.5548 97.747 L 291.4381 98.122 L 293.2766 98.665 L 294.91 99.4289 L 298.0693 101.1831 L 301.5287 102.7955 L 303.2068 103.9108 L 307.9078 107.9011 L 309.5339 109.1136 L 311.2422 110.0691 L 314.6318 111.6691 L 318.5318 113.9733 L 321.9849 115.5788 L 324.4672 117.3094 L 328.3807 120.651 L 330.0078 121.8649 L 331.7161 122.8288 L 335.1005 124.4413 L 338.2109 126.3149 L 342.5015 128.2482 L 347.2119 130.958 L 350.6942 132.4941 L 355.3921 135.2329 L 358.8785 136.7538 L 362.8295 138.9343 L 364.566 139.6204 L 369.2545 140.6899 L 371.0753 141.2482 L 375.918 143.6176 L 377.8045 144.1399 L 380.767 144.5051 L 383.7909 144.5954 L 386.8107 144.4871 L 388.792 144.2718 L 390.7128 143.8704 L 392.4638 143.2093 L 396.4617 141.1913 L 399.2971 140.5038 L 402.2784 140.2399 L 406.3388 140.1801 L 410.4231 140.2954 L 414.3242 140.6163 L 416.37 143.3912 L 417.8304 145.6815 L 418.5794 147.1912 L 418.8158 147.976 L 418.9106 148.7871 L 418.8346 149.5843 L 418.6294 150.3412 L 417.6825 152.5523 L 417.1408 154.1398 L 416.771 156.7009 L 416.7867 158.4759 L 417.0564 160.2495 L 417.3169 161.119 L 418.1669 162.8342 L 419.2752 164.394 L 421.1825 166.5787 L 423.9293 169.3439 L 426.8127 171.8995 L 429.1491 173.4564 L 432.696 174.937 L 437.223 177.2467 L 436.9595 186.8258 L 436.7012 188.8522 L 436.2116 190.8078 L 432.6147 198.423 L 431.6231 200.205 L 429.6512 202.7355 L 423.6835 209.0799 L 422.3481 210.7758 L 421.2689 212.6507 L 420.9054 213.6119 L 420.4398 215.5841 L 420.2054 218.541 L 420.495 221.3563 L 421.17 223.0674 L 421.7533 223.8188 L 422.5533 224.4354 L 423.4304 224.8382 L 424.3533 225.091 L 426.3033 225.3243 L 453.8001 224.9118 L 458.123 225.1563 L 460.2209 225.5799 L 461.2365 225.9396 L 463.0844 226.9757 L 464.7615 228.2938 L 467.1021 230.5465 L 469.3073 232.9715 L 471.3459 235.5062 L 472.5261 237.2687 L 474.1906 240.7757 L 475.0917 242.3729 L 476.8667 244.4104 L 478.3333 245.5187 L 479.1698 245.9729 L 481.725 247.1201 L 486.426 249.7617 L 489.9125 251.2756 L 491.4729 252.2742 L 493.6406 254.1187 L 496.2947 256.9312 L 498.076 259.2367 L 499.852 261.9075 L 491.4708 263.8061 L 489.7229 264.4867 L 485.7156 266.5339 L 483.8802 267.0686 L 480.0958 267.7908 L 478.2469 268.3283 L 476.6094 269.1075 L 473.4667 270.8631 L 469.9906 272.4131 L 468.3657 273.4728 L 466.0886 275.4047 L 463.9032 277.5269 L 459.6282 281.9477 L 456.898 284.9686 L 455.6397 286.5283 L 454.523 288.1519 L 453.6376 289.8797 L 452.4803 292.5422 L 450.9751 294.8477 L 448.4772 297.6713 L 445.1678 300.7727 L 439.5835 301.4046 L 432.7231 301.6657 L 429.5272 301.4491 L 427.5835 300.9324 L 426.7043 300.4657 L 425.9314 299.7977 L 425.3512 298.9463 L 424.7533 297.0282 L 424.5752 294.9713 L 424.5168 289.6755 L 424.1835 287.6741 L 423.8127 286.7338 L 423.2262 285.8727 L 422.47 285.2213 L 420.696 284.47 L 417.7367 284.1936 L 414.6471 284.5491 L 412.6294 285.1338 L 407.794 287.4936 L 404.5388 288.3047 L 399.944 288.6866 L 392.9388 288.7227 L 388.3253 288.4755 L 384.9961 287.9172 L 382.9378 287.1866 L 379.0524 285.3811 L 376.9545 284.813 L 365.2483 283.4491 L 366.5024 280.788 L 368.0952 276.2603 L 369.9722 272.3061 L 370.3754 271.2617 L 370.916 269.052 L 371.1931 266.7506 L 371.316 264.3992 L 371.3087 250.0492 L 371.616 245.4576 L 372.0233 243.3423 L 372.3316 242.3618 L 374.7316 237.3896 L 375.0233 236.4437 L 375.3628 234.4868 L 375.4045 232.4993 L 375.3035 231.509 L 374.7733 229.5785 L 374.3378 228.734 L 373.8045 227.9674 L 372.5128 226.6535 L 370.9681 225.6646 L 370.0712 225.3076 L 363.6077 223.8827 L 359.5514 222.0035 L 357.7775 221.4132 L 355.8608 221.0813 L 350.964 220.6716 L 349.0275 220.3854 L 347.1483 219.8216 L 346.2515 219.3799 L 344.5879 218.2549 L 342.2911 216.2216 L 331.4442 204.7827 L 329.2047 202.6286 L 326.8265 200.7466 L 325.1151 199.8022 L 322.5026 198.6772 L 319.3339 196.9716 L 317.6932 196.2314 L 311.2318 194.7508 L 310.3443 194.3897 L 308.811 193.4078 L 307.4995 192.1341 L 306.4391 190.6411 L 304.4766 186.3536 L 302.2308 182.3092 L 300.7402 178.7272 L 298.6964 174.8009 L 298.2308 172.9898 L 298.1912 172.0203 L 298.2933 171.0495 L 298.5537 170.0995 L 298.9454 169.2606 L 299.4464 168.5023 L 300.685 167.2051 L 302.1516 166.2009 L 305.5641 164.7717 L 307.2808 163.7953 L 309.6443 161.9829 L 311.0047 160.6398 L 312.0714 159.1495 L 312.4214 158.2843 L 312.5537 157.2926 L 312.4141 156.3676 L 312.0745 155.5482 L 310.9995 154.2148 L 309.5339 153.2565 L 308.6433 152.9329 L 306.7724 152.6079 L 303.8131 152.5259 L 299.7287 152.7607 L 296.6818 153.1829 L 293.9423 153.9704 L 290.3298 155.7607 L 288.7715 156.062 L 287.9642 155.9898 L 287.1923 155.7426 L 286.4954 155.3009 L 285.9527 154.6926 L 285.3017 153.2732 L 284.6121 150.6329 Z" fill="#000000" fill-opacity="1" stroke="#000000" stroke-width="0" paint-order="fill" stroke-opacity="1" stroke-dasharray="" stroke-linecap="butt" stroke-linejoin="miter" stroke-miterlimit="10" transform="matrix(0.8500000238418579,0,0,0.8500000238418579,59.999881744384766,39.9749755859375)" clip-path="none" style="filter: url(#f1)"/>
<path data-code="205" d="M 603.4537 131.9663 L 577.8486 131.8635 L 572.0195 132.1677 L 568.6976 132.8941 L 563.806 135.1524 L 558.2226 136.6621 L 557.1383 133.7538 L 556.0539 129.9593 L 555.357 128.1385 L 554.8956 127.333 L 553.7445 125.8955 L 552.3268 124.7219 L 551.5206 124.2621 L 549.5018 123.5969 L 546.3144 123.2455 L 522.878 123.5038 L 519.5842 123.3649 L 516.3895 122.8691 L 514.5238 122.1969 L 510.5832 120.0288 L 507.1655 118.3636 L 504.7062 116.5997 L 500.0093 112.633 L 498.3166 111.5358 L 491.6239 108.5886 L 488.3406 107.3344 L 490.4093 103.3108 L 492.1135 100.69 L 494.9176 97.565 L 496.4739 96.1914 L 498.1562 95.0261 L 499.0603 94.5622 L 500.903 93.947 L 504.6551 93.1734 L 506.477 92.6553 L 510.5166 90.74 L 512.2874 90.1303 L 514.2061 89.772 L 520.1217 89.2261 L 522.0603 88.9234 L 527.0644 87.3192 L 529.7342 86.2123 L 534.3602 84.7567 L 536.0873 84.0234 L 540.0446 81.8178 L 543.5206 80.272 L 548.2029 77.5081 L 551.6623 75.929 L 555.6018 73.7387 L 558.3414 72.8595 L 561.2945 72.5484 L 564.2778 72.622 L 567.1903 73.1109 L 568.9601 73.7623 L 572.9507 75.7915 L 580.3215 77.8401 L 584.3351 79.8178 L 586.1538 80.454 L 588.1871 80.8234 L 590.2798 80.9998 L 598.8173 81.1401 L 603.0173 81.4984 L 605.8412 82.2817 L 609.2246 83.8248 L 606.3496 89.0234 L 604.4985 93.4636 L 602.8256 96.7331 L 602.0933 98.4414 L 601.4392 101.3761 L 600.9183 106.4386 L 600.3975 109.3983 L 599.7704 111.1816 L 597.86 115.2955 L 597.4079 117.2274 L 597.2861 120.2274 L 597.5736 122.2177 L 597.8569 123.1858 L 599.135 125.6871 L 603.4537 131.9663 Z" fill="#000000" fill-opacity="1" stroke="#000000" stroke-width="0" paint-order="fill" stroke-opacity="1" stroke-dasharray="" stroke-linecap="butt" stroke-linejoin="miter" stroke-miterlimit="10" transform="matrix(0.8500000238418579,0,0,0.8500000238418579,59.999881744384766,39.9749755859375)" clip-path="none" style="filter: url(#f1)"/>
<path data-code="206" d="M 104.8794 186.5758 L 104.8877 182.4925 L 105.32 179.5272 L 106.0814 177.737 L 106.6064 176.9634 L 107.8898 175.6314 L 109.4502 174.6384 L 111.4335 174.0314 L 113.496 173.7981 L 119.8845 173.7578 L 123.0616 173.5356 L 125.1064 173.062 L 127.5741 171.9009 L 132.0678 169.2939 L 133.3105 168.0398 L 135.3501 164.4203 L 135.998 162.9231 L 136.2657 161.2079 L 136.1178 160.2329 L 135.7918 159.3287 L 134.797 157.6981 L 133.5115 156.237 L 132.0209 154.9468 L 130.3272 153.9148 L 129.3897 153.5579 L 127.4876 153.3051 L 125.6272 153.5745 L 124.0189 154.2245 L 120.9137 155.7607 L 118.9543 156.3107 L 115.821 156.7148 L 109.4054 157.1204 L 106.3043 157.6468 L 104.4929 158.3106 L 100.4783 160.3412 L 97.6335 161.0856 L 94.6742 161.3759 L 91.7211 161.2842 L 89.8002 160.8981 L 88.869 160.5412 L 87.2877 159.5287 L 85.993 158.1801 L 85.4659 157.394 L 84.7138 155.5676 L 84.5159 154.5815 L 84.4013 152.5857 L 84.7888 149.6162 L 85.4211 147.7982 L 87.4148 143.7232 L 87.9867 141.8621 L 88.8429 137.9885 L 89.4398 136.0885 L 90.2638 134.4024 L 94.9252 126.6969 L 97.1835 119.7955 L 97.9408 118.2344 L 98.4492 117.4358 L 100.2356 115.1955 L 102.245 113.1219 L 104.3866 111.2136 L 107.0543 109.1955 L 112.2325 109.9164 L 119.9012 110.3997 L 123.0855 110.8039 L 125.1064 111.34 L 128.9886 113.1386 L 131.0303 113.8608 L 133.2022 114.2719 L 135.4418 114.4872 L 140.0199 114.6288 L 175.9729 114.7275 L 179.3729 114.5455 L 182.6322 113.8594 L 184.5958 112.9358 L 188.6103 110.3664 L 189.8468 109.1539 L 190.3468 108.3122 L 190.7041 107.4011 L 191.1416 105.4511 L 191.9853 99.1858 L 192.6249 97.1289 L 193.9301 94.1053 L 194.6155 91.9761 L 195.0186 89.7303 L 196.1593 80.2817 L 201.8509 80.6553 L 210.0113 80.8053 L 215.8144 80.779 L 220.3665 80.4776 L 223.6144 79.7553 L 227.5175 77.9512 L 229.5321 77.2137 L 235.9268 75.9651 L 238.4352 75.2276 L 245.406 76.6137 L 248.2278 77.4067 L 253.0101 79.9762 L 256.4851 81.5012 L 260.432 83.6748 L 262.1653 84.3539 L 266.8528 85.4123 L 268.684 85.9775 L 273.4528 88.5317 L 276.9246 90.0609 L 280.0673 91.8039 L 281.7194 92.5636 L 284.5767 93.2206 L 289.5621 93.5081 L 289.5548 97.747 L 287.5746 100.4331 L 286.5121 102.408 L 285.8548 104.6039 L 285.5152 106.9011 L 285.2944 112.8302 L 285.361 140.5968 L 285.1527 145.4107 L 284.6121 150.6329 L 282.035 149.3607 L 278.4402 148.0412 L 276.7059 147.1273 L 275.0871 145.9218 L 271.2476 142.5732 L 269.5934 141.4135 L 267.7601 140.6218 L 265.8372 140.2635 L 262.9142 140.3288 L 261.0143 140.7857 L 260.1663 141.1385 L 256.2507 143.3371 L 252.7976 144.9787 L 250.3049 146.7857 L 248.0476 148.944 L 246.0341 151.2704 L 244.9195 152.8857 L 243.2289 155.8009 L 241.2591 158.1023 L 240.6195 159.7093 L 240.2549 162.5051 L 240.2633 164.4815 L 240.432 166.4662 L 240.782 168.3884 L 242.2664 172.38 L 242.5622 173.9564 L 242.5018 174.7703 L 242.0497 176.3411 L 239.9935 181.2883 L 239.0695 183.0342 L 237.2372 185.4397 L 232.3393 190.7272 L 230.3612 193.0564 L 228.7185 195.5425 L 227.1123 199.0869 L 226.08 200.7841 L 224.2123 203.1855 L 221.4394 206.2341 L 218.4967 209.1063 L 216.1352 210.9841 L 215.2957 211.5021 L 211.8519 213.0994 L 208.779 214.7563 L 207.1436 215.3855 L 206.2228 215.5563 L 204.3696 215.5271 L 202.6488 215.0452 L 198.7676 213.1424 L 195.9613 212.466 L 191.9655 212.1757 L 183.8447 212.0632 L 181.8572 211.8896 L 179.9208 211.5132 L 178.9854 211.2049 L 177.3333 210.3799 L 169.8291 205.5397 L 162.5917 202.7702 L 157.7865 200.2966 L 155.9521 199.73 L 152.1865 198.9202 L 150.3532 198.3675 L 145.4969 196.0314 L 138.0897 194.073 L 134.0782 192.0953 L 132.2678 191.4564 L 130.2532 191.0828 L 128.1772 190.9036 L 116.4866 190.8953 L 112.32 190.6078 L 110.3179 190.1605 L 108.5345 189.3814 L 107.0075 188.3536 L 104.8794 186.5758 Z" fill="#000000" fill-opacity="1" stroke="#000000" stroke-width="0" paint-order="fill" stroke-opacity="1" stroke-dasharray="" stroke-linecap="butt" stroke-linejoin="miter" stroke-miterlimit="10" transform="matrix(0.8500000238418579,0,0,0.8500000238418579,59.999881744384766,39.9749755859375)" clip-path="none" style="filter: url(#f1)"/>
<path data-code="207" d="M 679.3514 262.695 L 674.5691 263.2367 L 668.6962 263.4353 L 605.0808 263.4075 L 601.6183 263.2159 L 598.2777 262.67 L 596.2215 261.9395 L 592.3455 260.127 L 589.1632 259.3895 L 582.4017 258.9867 L 569.8143 259.1103 L 566.4924 259.4839 L 564.3778 260.0298 L 559.4893 262.2714 L 552.1029 264.277 L 547.2227 266.5547 L 539.8144 268.5297 L 534.9269 270.8589 L 527.2884 273.2867 L 527.0686 250.3006 L 527.2467 242.2187 L 527.4717 240.102 L 527.8821 238.0604 L 529.879 231.7215 L 533.4904 232.9701 L 538.1758 234.2923 L 539.881 235.0187 L 543.0185 236.7312 L 544.7789 237.3659 L 546.6935 237.6743 L 548.6404 237.6951 L 550.5685 237.4229 L 552.355 236.8076 L 556.281 234.6507 L 558.8685 233.484 L 560.5956 232.5021 L 562.9924 230.5451 L 565.1528 228.2771 L 566.4289 226.634 L 567.4903 224.8702 L 568.9622 221.2563 L 571.0955 217.1827 L 573.0018 212.848 L 574.0351 211.3299 L 575.3038 210.0063 L 576.7684 208.923 L 577.607 208.4744 L 580.1788 207.3549 L 584.1746 205.3063 L 585.9267 204.7091 L 590.5871 203.8716 L 592.4048 203.2786 L 593.9663 202.3077 L 595.2923 201.0077 L 596.3194 199.4077 L 596.6954 198.4563 L 596.959 197.4758 L 597.2486 195.4647 L 597.3225 193.423 L 597.2225 191.38 L 596.91 189.3703 L 596.6381 188.3939 L 595.7934 186.6161 L 594.6309 185.1661 L 593.2496 183.98 L 591.6642 183.0647 L 589.1361 181.9245 L 586.6559 180.2481 L 584.3767 178.1439 L 582.9996 176.5842 L 581.2986 174.0078 L 579.8288 170.3925 L 577.7195 166.3092 L 575.8299 161.9967 L 575.3413 161.2245 L 574.158 159.8329 L 572.7403 158.6898 L 571.0611 157.8745 L 564.5903 156.3593 L 559.7164 153.9551 L 556.1633 152.5662 L 550.2977 149.2093 L 549.655 148.726 L 549.0873 148.0746 L 548.6862 147.2593 L 548.4883 146.376 L 548.4789 145.4593 L 548.6518 144.5385 L 549.0154 143.6329 L 550.1133 142.0288 L 552.3091 139.9218 L 554.0237 138.7038 L 555.6633 137.8135 L 558.2226 136.6621 L 563.806 135.1524 L 568.6976 132.8941 L 572.0195 132.1677 L 577.8486 131.8635 L 603.4537 131.9663 L 643.3109 131.9955 L 660.0411 131.8246 L 662.2067 131.9288 L 664.3181 132.2232 L 665.3431 132.4927 L 667.1442 133.3413 L 668.5754 134.4899 L 670.2608 136.6496 L 672.2212 140.9079 L 674.3973 144.9649 L 675.8618 148.5746 L 677.8879 152.6579 L 678.4566 154.5009 L 678.7139 157.4856 L 678.3379 160.437 L 677.7233 162.2162 L 675.7993 166.2565 L 675.2129 169.1495 L 675.2941 172.1439 L 675.7785 174.0967 L 676.1941 175.0425 L 677.2577 176.787 L 681.5639 182.4939 L 683.7524 186.8619 L 684.8483 188.5939 L 686.1326 190.2189 L 688.2868 192.4716 L 689.8514 193.8119 L 691.5357 194.9383 L 694.9941 196.5327 L 698.9805 198.6272 L 700.7336 199.273 L 703.5503 199.8841 L 704.5378 201.8452 L 705.0274 202.4105 L 706.3045 203.2202 L 707.9982 203.7105 L 712.6034 204.2119 L 714.4596 204.5702 L 715.3669 204.8924 L 716.9419 205.8327 L 718.269 207.1174 L 719.2763 208.7174 L 719.8471 210.6549 L 719.9992 212.6563 L 719.8325 214.6619 L 719.3357 216.6174 L 718.5513 218.3132 L 716.7534 221.4896 L 715.1075 225.0229 L 713.3721 227.5715 L 709.4774 232.4118 L 708.3961 234.1382 L 706.8117 237.6812 L 704.0878 242.5562 L 702.5909 246.1562 L 700.9451 249.3659 L 700.2107 251.0728 L 699.5128 254.2867 L 699.3274 256.5145 L 699.2816 259.9061 L 699.5451 264.4214 L 700.3941 269.8186 L 697.0243 268.4992 L 691.5295 266.7603 L 687.4868 264.7395 L 685.7337 264.0714 L 679.3514 262.695 Z" fill="#000000" fill-opacity="1" stroke="#000000" stroke-width="0" paint-order="fill" stroke-opacity="1" stroke-dasharray="" stroke-linecap="butt" stroke-linejoin="miter" stroke-miterlimit="10" transform="matrix(0.8500000238418579,0,0,0.8500000238418579,59.999881744384766,39.9749755859375)" clip-path="none" style="filter: url(#f1)"/>
<path data-code="208" d="M 527.2884 273.2867 L 519.2665 270.8756 L 514.4853 268.2908 L 511.0103 266.752 L 506.2582 264.1381 L 499.852 261.9075 L 498.076 259.2367 L 496.2947 256.9312 L 493.6406 254.1187 L 491.4729 252.2742 L 489.9125 251.2756 L 486.426 249.7617 L 481.725 247.1201 L 479.1698 245.9729 L 478.3333 245.5187 L 476.8667 244.4104 L 475.0917 242.3729 L 474.1906 240.7757 L 472.5261 237.2687 L 471.3459 235.5062 L 469.3073 232.9715 L 467.1021 230.5465 L 464.7615 228.2938 L 463.0844 226.9757 L 461.2365 225.9396 L 460.2209 225.5799 L 458.123 225.1563 L 453.8001 224.9118 L 426.3033 225.3243 L 424.3533 225.091 L 423.4304 224.8382 L 422.5533 224.4354 L 421.7533 223.8188 L 421.17 223.0674 L 420.495 221.3563 L 420.2054 218.541 L 420.4398 215.5841 L 420.9054 213.6119 L 421.2689 212.6507 L 422.3481 210.7758 L 423.6835 209.0799 L 429.6512 202.7355 L 431.6231 200.205 L 432.6147 198.423 L 436.2116 190.8078 L 436.7012 188.8522 L 436.9595 186.8258 L 437.223 177.2467 L 441.2887 178.0842 L 444.5626 178.362 L 451.1772 178.4828 L 475.499 178.3939 L 478.7312 178.6161 L 481.8312 179.3036 L 490.0833 183.4064 L 491.826 184.5786 L 493.4635 185.9592 L 497.2874 189.8605 L 500.0385 193.2328 L 501.6822 195.898 L 503.2207 199.3091 L 504.2416 200.7591 L 505.5197 201.9702 L 506.2551 202.4563 L 507.9603 203.0813 L 508.877 203.1786 L 510.6863 202.9688 L 512.2624 202.3536 L 515.3217 200.8313 L 516.2967 200.5022 L 518.3686 200.0536 L 521.6363 199.7077 L 529.4655 199.4577 L 534.9717 199.5841 L 538.1363 200.1425 L 539.9654 200.9786 L 541.4321 202.1147 L 543.1862 204.2688 L 546.4164 210.7966 L 547.0237 212.4952 L 547.18 213.4632 L 547.0758 215.416 L 546.7966 216.3702 L 545.8748 217.9577 L 545.2758 218.6271 L 543.8769 219.7257 L 542.2196 220.4674 L 536.8477 221.6035 L 535.1894 222.3674 L 533.7706 223.4757 L 532.5894 224.8577 L 532.1102 225.6354 L 531.3686 227.4007 L 529.879 231.7215 L 527.8821 238.0604 L 527.4717 240.102 L 527.2467 242.2187 L 527.0686 250.3006 L 527.2884 273.2867 Z" fill="#000000" fill-opacity="1" stroke="#000000" stroke-width="0" paint-order="fill" stroke-opacity="1" stroke-dasharray="" stroke-linecap="butt" stroke-linejoin="miter" stroke-miterlimit="10" transform="matrix(0.8500000238418579,0,0,0.8500000238418579,59.999881744384766,39.9749755859375)" clip-path="none" style="filter: url(#f1)"/>









</svg>