<?xml version="1.0" standalone="no"?>
<!-- Generator: Paintmaps.com , Online SVG vector map maker -->
<svg xmlns="http://www.w3.org/2000/svg" version="1.1" baseProfile="full"   style="background-color:false" width="800" height="500" viewBox="0 0 800 533">
<path data-code="200" d="M 557.9503 237.5673 L 558.5057 238.1774 L 557.1126 239.7857 L 553.888 245.292 L 552.9792 247.3714 L 552.3563 249.9525 L 551.9661 255.3757 L 552.1123 274.8534 L 551.8403 278.9276 L 551.3789 281.5578 L 550.5908 283.8932 L 548.0792 288.8978 L 546.2883 293.294 L 543.0865 299.1951 L 541.1113 303.4116 L 539.8249 305.2335 L 537.429 307.5434 L 535.5351 308.7518 L 531.4792 310.9312 L 524.6371 316.2713 L 522.5703 317.6238 L 520.3688 318.5982 L 514.677 319.9523 L 512.4438 320.6438 L 506.5435 323.8147 L 501.988 325.8806 L 498.1418 325.0366 L 494.4812 324.6773 L 490.8421 324.8129 L 488.4817 325.2755 L 486.3146 326.1433 L 484.4029 327.3279 L 478.523 332.0952 L 476.6317 322.1369 L 475.9745 319.7778 L 475.0428 317.7017 L 472.9634 313.7462 L 471.6148 310.4736 L 470.495 308.3213 L 469.0638 306.2995 L 466.6043 303.4303 L 453.1781 289.6418 L 450.6537 286.7997 L 449.1297 284.8236 L 447.8485 282.7255 L 445.9978 278.3548 L 442.8202 272.4164 L 440.5577 267.0051 L 437.8071 262.0971 L 435.9971 257.7195 L 433.4016 252.7692 L 432.9758 251.7066 L 432.3848 249.317 L 432.1179 246.8325 L 432.1115 243.0261 L 432.3187 240.4721 L 433.0063 236.0827 L 440.8081 236.6504 L 449.5034 236.7572 L 453.1475 236.4827 L 455.5155 235.9929 L 456.6633 235.5861 L 457.759 235.0489 L 459.7863 233.6897 L 463.4825 230.3765 L 468.6227 224.8448 L 470.148 222.884 L 471.4394 220.8046 L 474.7556 212.7986 L 475.0009 210.7903 L 474.8013 209.6802 L 474.4048 208.6431 L 473.2316 206.7144 L 469.5124 202.0369 L 468.1702 199.9931 L 466.1835 195.6952 L 464.0482 191.7532 L 463.1279 189.6619 L 462.528 187.2689 L 462.2318 184.7861 L 462.092 180.9746 L 462.1581 174.5312 L 464.8413 173.4466 L 466.3856 172.1806 L 469.4603 167.4641 L 471.2563 163.8662 L 471.9135 161.1647 L 472.2211 156.9211 L 472.0431 152.5893 L 471.6033 149.2642 L 472.7206 150.9318 L 476.6647 152.3605 L 480.2008 154.7043 L 486.5739 155.1213 L 498.2931 161.4477 L 499.8056 163.4848 L 503.226 169.9977 L 505.9423 174.9854 L 507.6531 177.736 L 509.8305 177.9885 L 513.9182 178.463 L 516.1413 178.7748 L 517.7517 181.0153 L 519.9723 181.6322 L 522.8029 181.4373 L 526.0352 181.9559 L 528.2558 182.7778 L 530.7775 184.1065 L 531.8846 185.5335 L 532.0003 186.3097 L 532.0651 186.7435 L 532.0753 186.8113 L 532.0817 186.8554 L 531.4703 188.0739 L 530.9008 188.5112 L 530.1535 189.0857 L 529.9463 190.4059 L 527.1703 192.2871 L 527.1105 192.3277 L 525.6895 193.7818 L 522.7521 196.7866 L 517.7962 199.6999 L 517.5903 199.8202 L 514.7596 200.6252 L 511.3214 202.1403 L 508.0421 204.0605 L 507.174 204.5689 L 505.7567 206.0908 L 508.276 208.0279 L 513.1467 209.2684 L 515.5401 209.8785 L 520.5976 206.7416 L 522.2843 206.1365 L 523.1258 205.8349 L 526.0441 206.2247 L 526.2538 206.2518 L 528.4731 206.9703 L 530.4852 209.0108 L 532.7146 213.8493 L 541.6947 233.344 L 542.2908 235.7861 L 539.9508 240.7585 L 543.3814 240.567 L 547.1145 240.1755 L 555.8962 238.2808 L 555.9445 238.2638 L 557.9503 237.5673 Z" fill="#000000" fill-opacity="1" stroke="#000000" stroke-width="0" paint-order="fill" stroke-opacity="1" stroke-dasharray="" stroke-linecap="butt" stroke-linejoin="miter" stroke-miterlimit="10" clip-path="none"/>
<path data-code="201" d="M 462.1581 174.5312 L 457.6306 175.7107 L 452.7052 178.0969 L 450.5546 178.8528 L 448.2222 179.307 L 441.0509 180.0645 L 437.5923 180.8628 L 431.645 183.6642 L 429.4143 184.3455 L 423.7111 185.6775 L 421.6138 186.4944 L 416.6948 188.9026 L 414.3116 189.5348 L 411.8267 189.8703 L 408.0059 190.0822 L 393.728 190.2466 L 388.6235 190.1568 L 384.9272 189.6958 L 382.5923 188.9094 L 381.611 188.3552 L 379.8747 186.952 L 378.4321 185.2623 L 377.2958 183.2998 L 375.8773 180.1527 L 374.6393 178.0563 L 368.7352 169.9164 L 366.1346 164.5237 L 364.8241 162.407 L 354.676 149.9082 L 359.6179 145.6086 L 368.6437 136.8349 L 371.501 134.5623 L 373.5614 133.3912 L 376.7111 131.9575 L 381.5208 129.3137 L 383.7578 128.5002 L 386.2517 128.0324 L 390.1119 127.7443 L 394.0305 127.6884 L 401.8323 128.0155 L 404.349 128.3883 L 406.7526 129.0611 L 411.6322 131.5016 L 413.8286 132.2964 L 415.0501 132.5659 L 420.1394 133.0387 L 430.5723 133.1929 L 434.3931 133.6166 L 436.8182 134.2945 L 438.8151 135.2724 L 442.599 137.4857 L 449.4195 140.5261 L 451.2435 141.0566 L 452.1993 141.0904 L 454.0284 140.5634 L 455.6668 139.5465 L 457.2137 138.3212 L 457.2569 138.3314 L 457.7539 137.8128 L 459.213 136.7519 L 460.5388 135.9266 L 461.0065 135.6401 L 461.0014 135.7723 L 462.3144 138.1128 L 464.7422 139.9448 L 467.6732 142.4886 L 468.624 144.28 L 469.9955 146.8628 L 471.6033 149.2642 L 472.0431 152.5893 L 472.2211 156.9211 L 471.9135 161.1647 L 471.2563 163.8662 L 469.4603 167.4641 L 466.3856 172.1806 L 464.8413 173.4466 L 462.1581 174.5312 Z" fill="#000000" fill-opacity="1" stroke="#000000" stroke-width="0" paint-order="fill" stroke-opacity="1" stroke-dasharray="" stroke-linecap="butt" stroke-linejoin="miter" stroke-miterlimit="10" clip-path="none"/>
<path data-code="202" d="M 313.8877 478.5874 L 310.6998 469.5646 L 307.5095 463.6194 L 305.6626 459.2419 L 303.8005 456.3574 L 299.4383 450.9309 L 298.143 449.0463 L 295.1027 442.7418 L 293.0499 439.9455 L 285.918 432.0514 L 283.7521 429.311 L 282.5611 427.3637 L 280.6431 423.0319 L 279.4585 421.0931 L 277.3015 418.351 L 271.7342 412.2008 L 269.487 409.496 L 267.6211 406.6336 L 265.6624 402.3916 L 264.4091 400.5511 L 262.0653 398.1734 L 259.4316 396.3685 L 257.5556 392.5231 L 255.6299 386.8304 L 252.7916 380.7243 L 252.1434 378.4075 L 251.2041 373.6606 L 250.5393 371.3472 L 247.5561 365.3156 L 245.7741 360.9178 L 242.8252 354.8557 L 242.1935 352.505 L 241.497 347.8936 L 250.1504 341.8654 L 252.0646 340.696 L 256.2845 338.7623 L 261.1094 336.1473 L 263.3312 335.3508 L 265.7971 334.9 L 269.6154 334.6492 L 285.1808 334.6814 L 288.9622 334.2933 L 291.3772 333.6611 L 301.3792 328.5227 L 303.3938 327.1381 L 310.0885 321.5895 L 312.2416 320.3743 L 314.7266 319.6117 L 318.6274 319.1439 L 322.6237 319.044 L 355.0408 319.2711 L 357.6642 319.5015 L 360.2127 319.9727 L 362.4638 320.7641 L 367.3637 323.1537 L 376.4124 325.4942 L 382.2504 328.5752 L 385.4089 330.0191 L 387.5303 331.2377 L 389.5691 332.8121 L 398.1284 341.0926 L 400.1126 342.7772 L 402.2251 344.2042 L 406.4361 346.1752 L 412.2919 349.1918 L 414.5315 349.8477 L 419.1111 350.7984 L 422.3587 352.0017 L 425.202 353.8168 L 431.2129 358.3638 L 430.1909 361.4008 L 427.9107 366.3511 L 427.2421 368.639 L 425.9291 374.513 L 425.1537 376.684 L 422.8823 381.8038 L 422.2417 384.4307 L 421.9074 387.166 L 421.7104 391.3707 L 421.7574 414.1769 L 421.4689 418.3443 L 421.0126 421.0254 L 420.2589 423.3692 L 417.9888 428.4568 L 416.3059 435.4714 L 415.5432 437.7796 L 413.5922 441.1674 L 409.826 446.2398 L 406.1971 447.9464 L 402.0789 449.5818 L 396.1901 452.6273 L 393.9492 453.3221 L 389.3594 454.3119 L 387.1274 454.9745 L 381.1623 457.7234 L 377.7012 458.503 L 369.358 459.4402 L 366.0393 460.4774 L 361.1813 463.0483 L 356.9258 464.8956 L 351.2098 468.2698 L 347.0395 470.3154 L 345.0172 471.683 L 338.292 477.196 L 336.1363 478.4146 L 334.9072 478.862 L 331.047 479.5517 L 325.72 479.7009 L 320.323 479.4179 L 313.8877 478.5874 Z" fill="#000000" fill-opacity="1" stroke="#000000" stroke-width="0" paint-order="fill" stroke-opacity="1" stroke-dasharray="" stroke-linecap="butt" stroke-linejoin="miter" stroke-miterlimit="10" clip-path="none"/>
<path data-code="203" d="M 433.0063 236.0827 L 421.2261 236.5488 L 376.0667 236.6182 L 369.0784 236.4742 L 364.9995 236.0302 L 362.4015 235.3658 L 357.6426 233.144 L 355.3496 232.2611 L 349.6718 230.8968 L 347.4398 230.1833 L 341.5942 227.1209 L 337.3552 225.199 L 331.6037 221.6384 L 325.5967 218.415 L 323.5808 216.0101 L 322.5093 214.134 L 321.0971 210.9598 L 317.8635 205.0688 L 316.079 200.6608 L 312.8657 194.719 L 311.0786 190.3178 L 308.4857 185.3301 L 307.6557 183.1286 L 305.9791 175.9395 L 314.3656 174.0448 L 316.6459 173.3415 L 322.536 170.2553 L 326.7826 168.4081 L 334.9174 163.2543 L 336.332 161.7935 L 338.006 159.1581 L 339.2949 157.5007 L 340.8316 155.9754 L 342.5882 154.6823 L 351.3191 150.4624 L 353.2524 149.9862 L 354.676 149.9082 L 364.8241 162.407 L 366.1346 164.5237 L 368.7352 169.9164 L 374.6393 178.0563 L 375.8773 180.1527 L 377.2958 183.2998 L 378.4321 185.2623 L 379.8747 186.952 L 381.611 188.3552 L 382.5923 188.9094 L 384.9272 189.6958 L 388.6235 190.1568 L 393.728 190.2466 L 408.0059 190.0822 L 411.8267 189.8703 L 414.3116 189.5348 L 416.6948 188.9026 L 421.6138 186.4944 L 423.7111 185.6775 L 429.4143 184.3455 L 431.645 183.6642 L 437.5923 180.8628 L 441.0509 180.0645 L 448.2222 179.307 L 450.5546 178.8528 L 452.7052 178.0969 L 457.6306 175.7107 L 462.1581 174.5312 L 462.092 180.9746 L 462.2318 184.7861 L 462.528 187.2689 L 463.1279 189.6619 L 464.0482 191.7532 L 466.1835 195.6952 L 468.1702 199.9931 L 469.5124 202.0369 L 473.2316 206.7144 L 474.4048 208.6431 L 474.8013 209.6802 L 475.0009 210.7903 L 474.7556 212.7986 L 471.4394 220.8046 L 470.148 222.884 L 468.6227 224.8448 L 463.4825 230.3765 L 459.7863 233.6897 L 457.759 235.0489 L 456.6633 235.5861 L 455.5155 235.9929 L 453.1475 236.4827 L 449.5034 236.7572 L 440.8081 236.6504 L 433.0063 236.0827 Z" fill="#000000" fill-opacity="1" stroke="#000000" stroke-width="0" paint-order="fill" stroke-opacity="1" stroke-dasharray="" stroke-linecap="butt" stroke-linejoin="miter" stroke-miterlimit="10" clip-path="none"/>
<path data-code="204" d="M 241.497 347.8936 L 241.68 336.4592 L 241.4932 326.5788 L 242.4503 324.6502 L 245.8402 318.744 L 247.6413 314.341 L 250.8749 308.4179 L 252.7916 304.076 L 254.8495 300.9661 L 258.7809 296.0412 L 260.16 293.9414 L 260.7281 292.8161 L 261.5213 290.4993 L 262.6639 285.7354 L 263.9986 281.0918 L 265.126 281.0071 L 265.7564 280.7342 L 266.2191 280.3512 L 268.9506 276.1923 L 272.8172 271.6995 L 289.1363 254.6809 L 291.7331 252.0811 L 294.4163 249.6627 L 297.3041 247.6782 L 301.5597 245.836 L 306.3503 243.0956 L 310.7507 241.1958 L 312.5772 240.2247 L 314.4266 238.8773 L 316.9929 236.5132 L 319.2986 233.8761 L 320.6116 231.9628 L 321.1607 230.9459 L 324.3523 222.4468 L 325.5967 218.415 L 331.6037 221.6384 L 337.3552 225.199 L 341.5942 227.1209 L 347.4398 230.1833 L 349.6718 230.8968 L 355.3496 232.2611 L 357.6426 233.144 L 362.4015 235.3658 L 364.9995 236.0302 L 369.0784 236.4742 L 376.0667 236.6182 L 421.2261 236.5488 L 433.0063 236.0827 L 432.3187 240.4721 L 432.1115 243.0261 L 432.1179 246.8325 L 432.3848 249.317 L 432.9758 251.7066 L 433.4016 252.7692 L 435.9971 257.7195 L 437.8071 262.0971 L 440.5577 267.0051 L 442.8202 272.4164 L 445.9978 278.3548 L 447.8485 282.7255 L 449.1297 284.8236 L 450.6537 286.7997 L 453.1781 289.6418 L 466.6043 303.4303 L 469.0638 306.2995 L 470.495 308.3213 L 471.6148 310.4736 L 472.9634 313.7462 L 475.0428 317.7017 L 475.9745 319.7778 L 476.6317 322.1369 L 478.523 332.0952 L 475.522 332.7748 L 470.4187 334.2543 L 464.5731 335.2661 L 462.3055 335.9253 L 460.3074 336.8863 L 456.4726 339.0403 L 452.1993 340.8435 L 446.4592 344.1465 L 442.2304 346.0481 L 439.4926 347.9648 L 436.2196 351.1848 L 434.1083 353.8558 L 431.2129 358.3638 L 425.202 353.8168 L 422.3587 352.0017 L 419.1111 350.7984 L 414.5315 349.8477 L 412.2919 349.1918 L 406.4361 346.1752 L 402.2251 344.2042 L 400.1126 342.7772 L 398.1284 341.0926 L 389.5691 332.8121 L 387.5303 331.2377 L 385.4089 330.0191 L 382.2504 328.5752 L 376.4124 325.4942 L 367.3637 323.1537 L 362.4638 320.7641 L 360.2127 319.9727 L 357.6642 319.5015 L 355.0408 319.2711 L 322.6237 319.044 L 318.6274 319.1439 L 314.7266 319.6117 L 312.2416 320.3743 L 310.0885 321.5895 L 303.3938 327.1381 L 301.3792 328.5227 L 291.3772 333.6611 L 288.9622 334.2933 L 285.1808 334.6814 L 269.6154 334.6492 L 265.7971 334.9 L 263.3312 335.3508 L 261.1094 336.1473 L 256.2845 338.7623 L 252.0646 340.696 L 250.1504 341.8654 L 241.497 347.8936 Z" fill="#000000" fill-opacity="1" stroke="#000000" stroke-width="0" paint-order="fill" stroke-opacity="1" stroke-dasharray="" stroke-linecap="butt" stroke-linejoin="miter" stroke-miterlimit="10" clip-path="none"/>
<path data-code="205" d="M 354.676 149.9082 L 353.2524 149.9862 L 351.3191 150.4624 L 342.5882 154.6823 L 340.8316 155.9754 L 339.2949 157.5007 L 338.006 159.1581 L 336.332 161.7935 L 334.9174 163.2543 L 326.7826 168.4081 L 322.536 170.2553 L 316.6459 173.3415 L 314.3656 174.0448 L 305.9791 175.9395 L 302.8002 168.9284 L 301.1072 164.4356 L 298.1481 158.3819 L 297.4884 156.0669 L 296.5529 151.3233 L 295.9072 149.0168 L 293.5647 143.9359 L 292.7893 141.7175 L 291.0645 131.8914 L 291.1306 131.849 L 290.6552 130.4932 L 289.6892 126.0733 L 288.8185 123.6142 L 296.7284 121.1772 L 299.362 121.0636 L 301.73 123.0244 L 302.4113 123.5888 L 304.6394 123.4769 L 305.5444 122.05 L 305.6385 120.4213 L 305.2432 118.7181 L 304.8123 116.8674 L 302.8727 113.8271 L 301.7312 111.7035 L 301.6372 111.5273 L 301.3792 111.046 L 301.2381 110.785 L 303.2425 106.099 L 304.2518 105.0771 L 306.6808 104.2534 L 307.9925 102.9247 L 308.3865 100.5843 L 309.8012 99.359 L 314.1609 99.7454 L 316.6751 94.8544 L 317.7669 93.8545 L 318.7965 92.9139 L 320.9103 92.036 L 321.0234 91.9885 L 321.012 91.8496 L 320.5976 87.0094 L 319.5782 85.5892 L 321.3691 81.9201 L 323.7041 77.1341 L 324.0994 74.4886 L 324.0892 71.8465 L 323.8769 69.4077 L 324.4781 67.4723 L 325.8916 65.6369 L 327.624 64.6455 L 327.6888 64.6184 L 328.4235 64.2032 L 330.1598 62.9491 L 330.217 62.8423 L 331.9596 59.6138 L 333.2497 58.8817 L 333.6056 58.6969 L 336.3537 59.0969 L 338.3543 59.3884 L 338.7471 59.2088 L 340.585 58.3631 L 343.9317 57.2327 L 345.6565 57.0242 L 349.7138 55.8921 L 352.7567 54.8668 L 355.0548 54.2177 L 357.1457 53.6313 L 357.2511 53.6279 L 359.759 53.5246 L 361.9528 53.4585 L 367.2722 53.3009 L 371.3688 53.672 L 371.6395 53.6957 L 371.8264 53.7534 L 375.6014 54.9075 L 377.836 55.0041 L 380.1734 56.3209 L 385.4585 59.3596 L 388.7073 60.0663 L 391.1465 61.7899 L 392.3642 62.0932 L 393.4789 60.6679 L 394.0039 59.6138 L 394.2085 59.2189 L 395.6067 57.5123 L 404.3198 57.7174 L 406.6852 57.7733 L 406.7272 57.775 L 407.2902 57.7886 L 407.5839 57.7953 L 409.9239 60.0375 L 410.7399 65.4251 L 409.9951 66.3131 L 408.6096 67.9689 L 406.6827 69.0891 L 404.6541 70.006 L 403.9448 71.2262 L 403.9461 72.5481 L 404.7659 80.8846 L 401.826 83.2267 L 399.3931 84.0419 L 397.062 85.6722 L 395.6473 89.5379 L 395.9537 91.3666 L 397.5781 93.0935 L 400.2168 95.4272 L 401.132 97.5609 L 401.0328 100.103 L 405.3951 103.6552 L 408.03 104.2636 L 409.7548 105.4804 L 411.5801 107.5124 L 413.5057 109.036 L 415.1276 108.9326 L 416.5461 107.8141 L 417.3558 106.0838 L 418.2671 103.9484 L 419.0768 100.9995 L 419.8852 97.2389 L 423.1289 95.6102 L 425.7651 95.3035 L 429.6177 95.2001 L 431.8484 97.2338 L 432.2539 100.3843 L 431.9488 103.6382 L 432.6581 105.3669 L 441.5758 109.0258 L 442.3499 110.0512 L 443.8027 111.9747 L 446.1313 115.432 L 450.3855 116.9589 L 451.6375 117.4097 L 451.8943 117.5047 L 453.3039 118.0131 L 454.3347 118.3842 L 455.649 120.723 L 455.7481 123.5702 L 455.6439 126.3139 L 456.7574 127.5342 L 459.1864 129.3662 L 461.1057 133.1302 L 461.0065 135.6401 L 460.5388 135.9266 L 459.213 136.7519 L 457.7539 137.8128 L 457.2569 138.3314 L 457.2137 138.3212 L 455.6668 139.5465 L 454.0284 140.5634 L 452.1993 141.0904 L 451.2435 141.0566 L 449.4195 140.5261 L 442.599 137.4857 L 438.8151 135.2724 L 436.8182 134.2945 L 434.3931 133.6166 L 430.5723 133.1929 L 420.1394 133.0387 L 415.0501 132.5659 L 413.8286 132.2964 L 411.6322 131.5016 L 406.7526 129.0611 L 404.349 128.3883 L 401.8323 128.0155 L 394.0305 127.6884 L 390.1119 127.7443 L 386.2517 128.0324 L 383.7578 128.5002 L 381.5208 129.3137 L 376.7111 131.9575 L 373.5614 133.3912 L 371.501 134.5623 L 368.6437 136.8349 L 359.6179 145.6086 L 354.676 149.9082 Z" fill="#000000" fill-opacity="1" stroke="#000000" stroke-width="0" paint-order="fill" stroke-opacity="1" stroke-dasharray="" stroke-linecap="butt" stroke-linejoin="miter" stroke-miterlimit="10" clip-path="none"/>






</svg>