<?xml version="1.0" standalone="no"?>
<!-- Generator: Paintmaps.com , Online SVG vector map maker -->
<svg xmlns="http://www.w3.org/2000/svg" version="1.1" baseProfile="full"   style="background-color:false" width="800" height="500" viewBox="0 0 800 533">
<path data-code="200" d="M 558.7173 293.8496 L 554.8848 295.8541 L 549.4869 297.8957 L 543.5798 300.7429 L 539.5624 301.6295 L 535.3664 301.9284 L 531.0957 301.9841 L 489.1319 301.7392 L 485.4413 301.8676 L 481.8507 302.2813 L 478.54 303.2911 L 473.6677 305.6519 L 466.9272 307.3237 L 464.6994 308.0904 L 461.5128 310.0611 L 453.093 316.9713 L 450.5245 313.7307 L 447.975 310.8616 L 433.7734 296.175 L 431.5063 293.2079 L 430.3627 291.0008 L 429.7142 288.6214 L 429.414 286.161 L 429.1607 277.3662 L 428.7998 273.6663 L 428.2273 271.3173 L 427.822 270.2737 L 425.4764 265.2447 L 424.871 262.8941 L 424.5405 260.4353 L 424.2631 254.0858 L 424.3302 242.5182 L 424.6088 238.7507 L 425.0458 236.3173 L 425.3954 235.1437 L 426.3174 233.0683 L 428.4236 229.1505 L 429.8092 225.9031 L 430.8971 223.8429 L 432.2067 221.9634 L 436.5344 216.546 L 437.8162 214.6614 L 440.3049 209.3724 L 441.503 207.4355 L 443.6852 204.7437 L 446.1461 202.29 L 447.9104 200.8293 L 449.7886 199.5965 L 453.9631 197.6089 L 455.8388 196.4083 L 462.0207 191.2966 L 464.8096 189.3951 L 469.0208 187.4632 L 474.7404 184.1534 L 478.9959 182.3515 L 484.7396 179.0755 L 489.9843 176.8008 L 497.1427 172.7006 L 508.007 172.9961 L 510.4184 173.2191 L 512.7678 173.6632 L 514.9349 174.4417 L 519.7426 177.0372 L 523.9462 178.9893 L 526.0752 180.4028 L 528.0814 182.0729 L 532.7751 186.7742 L 536.1466 190.8373 L 538.0819 194.1471 L 539.6549 199.5645 L 540.4186 201.4896 L 541.6155 203.028 L 545.4632 206.1403 L 546.8323 207.7665 L 547.9329 209.6798 L 548.6713 212.1318 L 549.0107 214.7222 L 549.2843 224.108 L 549.7465 228.0613 L 550.0733 229.3312 L 550.913 231.4522 L 552.8647 235.4189 L 554.2098 238.5954 L 555.3661 240.5711 L 556.8366 242.248 L 557.6801 242.9775 L 559.5798 244.1563 L 560.6855 244.5835 L 564.1495 245.2387 L 570.1034 245.6778 L 572.4655 246.0003 L 581.1424 248.5249 L 579.8126 253.152 L 578.674 257.8989 L 577.8837 260.2073 L 577.3175 261.3286 L 575.9433 263.4209 L 572.026 268.3283 L 569.9755 271.4271 L 568.0656 275.7535 L 564.8435 281.6555 L 563.0489 286.0428 L 559.671 291.9279 L 558.7173 293.8496 Z" fill="#000000" fill-opacity="1" stroke="#000000" stroke-width="0" paint-order="fill" stroke-opacity="1" stroke-dasharray="" stroke-linecap="butt" stroke-linejoin="miter" stroke-miterlimit="10" clip-path="none"/>
<path data-code="201" d="M 270.2967 150.5466 L 269.9497 166.775 L 270.0726 180.19 L 270.5665 185.3169 L 271.1111 187.6726 L 272.4701 191.4486 L 272.769 193.372 L 272.6765 194.3599 L 272.1142 196.258 L 269.0619 203.2999 L 267.7434 205.3888 L 263.0915 211.2942 L 261.7452 213.3915 L 260.7788 215.6392 L 259.4439 221.4855 L 258.7536 223.7821 L 257.7822 225.8305 L 252.7503 234.4023 L 247.493 234.5492 L 243.8479 234.3534 L 241.4896 233.9396 L 239.3214 233.1645 L 234.5314 230.5352 L 230.329 228.6 L 228.3292 227.2743 L 226.4459 225.7123 L 223.7507 223.1336 L 218.7226 217.5761 L 216.5898 214.5922 L 214.0643 209.234 L 212.7965 207.1957 L 210.4877 204.3333 L 203.8029 196.9959 L 201.7398 193.9647 L 200.8355 191.6749 L 200.3757 189.2499 L 200.1807 186.7658 L 199.9818 177.9643 L 199.7209 175.5005 L 199.1611 173.1211 L 198.2784 171.0373 L 196.2266 167.0857 L 193.8962 161.7494 L 189.8864 155.6819 L 187.9764 153.2367 L 187.0835 152.1779 L 187.2849 152.1779 L 187.2849 151.933 L 187.3774 151.933 L 187.3774 151.8097 L 187.5623 151.8097 L 187.5623 151.6864 L 187.7459 151.6864 L 187.7459 151.933 L 187.9194 151.933 L 188.0233 151.933 L 188.0233 151.8097 L 188.5768 151.8097 L 188.5768 151.6864 L 188.6692 151.6864 L 188.6692 151.5632 L 188.8529 151.5632 L 188.8529 151.4399 L 189.1302 151.4399 L 189.1302 151.3166 L 189.4063 151.3166 L 189.4063 151.195 L 189.4988 151.195 L 189.4988 151.0718 L 189.9598 151.0718 L 189.9598 150.9485 L 190.0523 150.9485 L 190.0523 150.7019 L 190.1447 150.7019 L 190.1447 150.5804 L 190.3284 150.5804 L 190.3284 150.4571 L 190.5133 150.4571 L 190.5133 150.3338 L 190.6057 150.3338 L 190.6057 150.2105 L 190.7894 150.2105 L 190.7894 149.9657 L 190.8819 149.964 L 190.8819 149.8424 L 191.0668 149.8424 L 191.0668 149.7191 L 191.1086 149.7191 L 191.2517 149.7191 L 191.2517 149.6347 L 191.2517 149.5958 L 191.3175 149.5958 L 191.3429 149.5958 L 191.3429 149.4726 L 191.4353 149.4726 L 191.4353 149.3493 L 191.5278 149.3493 L 191.5278 149.2277 L 191.6202 149.2277 L 191.6202 148.9812 L 191.7127 148.9812 L 191.7127 148.8579 L 191.8963 148.8579 L 191.8963 148.7346 L 192.3574 148.7346 L 192.3574 148.4897 L 192.6347 148.4897 L 192.6347 148.3665 L 192.9108 148.3665 L 192.9108 148.2432 L 193.0033 148.2432 L 193.0033 148.1199 L 193.5568 148.1199 L 193.5568 147.9966 L 193.6492 147.9966 L 193.6492 147.8751 L 194.2027 147.8751 L 194.2027 147.7518 L 194.2951 147.7518 L 194.2951 147.5052 L 194.4788 147.5052 L 194.4788 147.382 L 194.5712 147.382 L 194.5712 147.2604 L 194.6637 147.2604 L 194.6637 147.1371 L 194.7561 147.1371 L 194.7561 147.0138 L 194.8473 147.0138 L 194.8473 146.8905 L 195.0323 146.8905 L 195.0323 146.7673 L 195.2172 146.7673 L 195.2172 146.644 L 195.4008 146.644 L 195.4008 146.5224 L 195.6782 146.5224 L 195.6782 146.3991 L 195.7706 146.3991 L 195.7706 146.2759 L 195.9543 146.2759 L 195.9543 146.1526 L 196.0467 146.1526 L 196.0467 146.0293 L 196.2317 146.0293 L 196.2317 145.9077 L 196.3241 145.9077 L 196.3241 145.7844 L 196.5078 145.7844 L 196.5078 145.7659 L 196.5078 145.6612 L 196.6002 145.6612 L 196.6002 145.7844 L 196.6407 145.7844 L 196.6927 145.7844 L 196.6927 145.7253 L 196.6927 145.6612 L 196.7509 145.6612 L 196.8763 145.6612 L 196.8763 145.5379 L 196.9688 145.5379 L 196.9688 145.4146 L 197.0612 145.4146 L 197.0612 145.315 L 197.0612 145.2356 L 197.0612 145.1698 L 196.9688 145.1698 L 196.9688 145.0465 L 197.1537 145.0465 L 197.1537 144.7999 L 197.3386 144.7999 L 197.3386 144.6767 L 197.4298 144.6767 L 197.4298 144.5551 L 197.5222 144.5551 L 197.5222 144.4318 L 197.6147 144.4318 L 197.6147 144.1852 L 197.7072 144.1852 L 197.7072 143.8171 L 197.8908 143.8171 L 197.8908 143.324 L 198.2606 143.3223 L 198.2606 143.0791 L 198.3518 143.0791 L 198.3531 143.2024 L 198.69 143.2024 L 198.7216 143.2024 L 198.7216 143.1315 L 198.7216 143.0791 L 198.8141 143.0791 L 198.8141 142.9559 L 198.9053 142.9542 L 198.9053 142.8326 L 198.9977 142.8326 L 198.9977 142.586 L 199.2751 142.586 L 199.2751 142.2179 L 199.4588 142.2179 L 199.4588 142.0946 L 199.5512 142.0946 L 199.5512 141.9714 L 199.6437 141.9714 L 199.6437 141.8498 L 199.7361 141.8498 L 199.7361 141.6032 L 200.0122 141.6032 L 200.0122 141.3567 L 200.1047 141.3567 L 200.1047 141.1118 L 200.2896 141.1118 L 200.2896 140.9885 L 200.4732 140.9885 L 200.4732 140.742 L 200.5657 140.742 L 200.5657 140.8653 L 200.7506 140.8653 L 200.7506 140.742 L 200.8431 140.742 L 200.8431 139.8808 L 201.0267 139.8808 L 201.0267 139.7592 L 201.1192 139.7592 L 201.1192 139.5126 L 201.3041 139.5126 L 201.3041 139.3893 L 201.3953 139.3893 L 201.3965 139.2661 L 201.4877 139.2661 L 201.4877 139.1445 L 201.5802 139.1445 L 201.5802 138.9486 L 201.5802 138.8979 L 201.6384 138.8979 L 201.6726 138.8979 L 201.6726 138.7747 L 201.7651 138.7747 L 201.7651 138.5281 L 201.8576 138.5281 L 201.8576 138.4065 L 201.9487 138.4065 L 201.9487 138.2832 L 202.0412 138.2832 L 202.0412 138.16 L 202.1337 138.16 L 202.1337 137.9134 L 202.2261 137.9134 L 202.2261 137.7918 L 202.5022 137.7918 L 202.5022 137.6686 L 202.5947 137.6686 L 202.5947 137.5453 L 202.872 137.5453 L 202.872 137.422 L 202.9632 137.422 L 202.9632 137.2987 L 203.2406 137.2987 L 203.2406 137.1755 L 203.3331 137.1755 L 203.3331 136.684 L 203.5167 136.684 L 203.5167 136.5608 L 203.6092 136.5608 L 203.6092 136.4392 L 203.7016 136.4392 L 203.7016 136.1926 L 203.7941 136.1926 L 203.7941 136.0694 L 203.8865 136.0694 L 203.8865 135.9461 L 204.2551 135.9461 L 204.2551 135.8228 L 204.4387 135.8228 L 204.4387 135.5779 L 204.5312 135.5779 L 204.5312 135.4547 L 204.8086 135.4547 L 204.8086 135.2081 L 205.0847 135.2081 L 205.0847 135.0865 L 205.1771 135.0865 L 205.1771 134.9633 L 205.2696 134.9633 L 205.2696 134.84 L 205.7306 134.84 L 205.7306 134.7167 L 205.9155 134.7167 L 205.9155 134.5934 L 206.0991 134.5934 L 206.0991 134.4702 L 206.1916 134.4702 L 206.1916 134.3486 L 206.3765 134.3486 L 206.3765 134.2253 L 206.5602 134.2253 L 206.5602 134.102 L 206.7451 134.102 L 206.7451 133.9787 L 206.93 133.9787 L 206.93 133.8555 L 207.1136 133.8555 L 207.1136 133.7339 L 207.2985 133.7339 L 207.2985 133.6106 L 207.5746 133.6106 L 207.5746 133.4873 L 207.7596 133.4873 L 207.7596 133.3641 L 207.8748 133.3641 L 210.2153 136.63 L 214.6672 141.328 L 217.4915 143.883 L 219.5471 145.3032 L 220.6591 145.8638 L 222.9503 146.5815 L 225.3123 146.9632 L 232.3859 147.6842 L 234.5719 148.1807 L 238.26 149.5249 L 240.1028 149.812 L 241.9355 149.4743 L 246.6761 147.7062 L 248.9609 147.2756 L 253.7965 146.9024 L 259.948 147.0375 L 262.3632 147.3516 L 264.7 147.9494 L 270.2967 150.5466 Z" fill="#000000" fill-opacity="1" stroke="#000000" stroke-width="0" paint-order="fill" stroke-opacity="1" stroke-dasharray="" stroke-linecap="butt" stroke-linejoin="miter" stroke-miterlimit="10" clip-path="none"/>
<path data-code="202" d="M 277.3019 152.9699 L 282.9569 143.4963 L 283.9144 141.409 L 284.3083 140.1222 L 284.7782 137.4524 L 285.0112 133.3252 L 284.7769 122.2018 L 284.8428 118.2468 L 285.1721 115.7847 L 286.008 113.559 L 286.74 112.6066 L 287.6785 111.8855 L 288.7158 111.4059 L 290.9563 110.8993 L 297.0533 110.3606 L 298.2907 110.1411 L 300.5325 109.4217 L 306.0393 106.3111 L 307.7276 105.1121 L 308.4584 104.3488 L 309.4881 102.4828 L 310.9205 97.1195 L 311.6779 95.0103 L 314.14 90.0219 L 315.9208 85.6178 L 319.1162 79.6769 L 320.9299 75.2964 L 323.4465 70.303 L 324.2355 68.1161 L 324.6066 66.4325 L 331.3749 70.916 L 334.3234 72.1875 L 337.2465 71.7384 L 341.2715 70.7657 L 346.0818 68.6447 L 352.2118 65.9427 L 353.1933 66.3869 L 355.4655 67.4136 L 356.4027 69.4265 L 356.3102 69.9973 L 356.1418 71.0511 L 356.1253 71.1524 L 354.5637 72.3632 L 354.527 72.3919 L 353.7493 74.5315 L 354.4763 75.9381 L 356.2988 76.3164 L 358.7306 76.8889 L 364.283 76.7082 L 364.587 76.693 L 366.6299 76.5951 L 367.2087 76.5663 L 367.3619 76.6271 L 369.9507 77.642 L 371.7846 78.8309 L 373.8668 79.7985 L 374.324 80.0113 L 374.6229 80.1329 L 376.2529 80.7948 L 378.3896 81.982 L 379.2394 85.1112 L 382.4817 85.9775 L 384.0053 86.7678 L 386.1369 87.651 L 387.4845 90.3681 L 390.1543 93.8772 L 391.6691 93.9599 L 393.9716 92.511 L 394.0311 92.4823 L 396.1982 91.4421 L 399.0542 87.3791 L 399.7318 85.0402 L 405.9669 83.1354 L 408.5797 82.1914 L 408.6101 82.1374 L 410.8759 78.1841 L 414.3373 74.116 L 414.4235 72.2585 L 414.4982 70.6694 L 416.7957 68.6143 L 418.1635 64.7488 L 421.6895 63.8943 L 421.9035 63.8116 L 423.298 63.2678 L 425.4498 61.6585 L 425.5017 61.6197 L 426.4238 60.9982 L 427.2002 60.4747 L 427.4509 60.3059 L 428.7099 59.4548 L 431.4164 57.5989 L 434.0039 54.0222 L 441.2763 53.7351 L 445.2621 57.7424 L 445.3545 59.5088 L 445.39 60.1724 L 446.4197 61.9844 L 447.8369 62.1719 L 452.2811 62.1212 L 455.013 62.4978 L 462.6337 66.6689 L 464.8628 67.3545 L 466.6765 66.9306 L 468.4002 65.6692 L 470.262 64.3064 L 469.8035 66.0086 L 470.1062 66.0812 L 469.3792 71.0173 L 468.4977 74.5737 L 465.5087 80.6023 L 463.7103 84.9744 L 460.6934 90.9676 L 460.0196 93.2726 L 458.7974 99.1763 L 458.0413 101.3632 L 455.7578 106.4462 L 455.127 108.7462 L 454.1721 113.4627 L 453.4476 115.7627 L 451.81 118.7467 L 447.6457 124.4376 L 442.9253 126.9065 L 441.3726 128.1848 L 440.7431 129.1339 L 440.2935 130.1961 L 439.7615 132.5214 L 439.2017 137.5605 L 438.7217 140.129 L 437.7845 142.5877 L 435.5921 145.8976 L 432.9489 148.9609 L 423.6615 158.8499 L 421.2868 161.8778 L 418.9361 165.6148 L 418.2661 166.4254 L 416.6373 167.7426 L 410.306 171.5641 L 409.2814 171.9796 L 406.9852 172.5115 L 404.6332 172.6381 L 402.2901 172.422 L 400.0243 171.8428 L 395.1824 169.4583 L 392.9521 168.6292 L 389.0423 167.9419 L 384.978 167.6903 L 351.8394 167.7088 L 346.4161 168.0702 L 343.7805 168.5177 L 341.4881 169.1358 L 336.365 167.2495 L 329.3421 163.7657 L 325.5818 162.9095 L 319.1403 162.1648 L 316.63 161.5957 L 315.4218 161.1499 L 312.315 159.2451 L 306.5839 154.6383 L 304.46 153.4241 L 302.046 152.6456 L 298.2388 152.1272 L 291.6972 151.9972 L 283.7561 152.3113 L 277.3019 152.9699 Z" fill="#000000" fill-opacity="1" stroke="#000000" stroke-width="0" paint-order="fill" stroke-opacity="1" stroke-dasharray="" stroke-linecap="butt" stroke-linejoin="miter" stroke-miterlimit="10" clip-path="none"/>
<path data-code="203" d="M 207.8748 133.3641 L 208.0357 133.3641 L 208.0357 133.2408 L 208.2206 133.2408 L 208.2206 133.1175 L 208.4967 133.1158 L 208.4967 132.9959 L 208.6816 132.9959 L 208.6816 132.8726 L 208.959 132.8726 L 208.959 132.7494 L 209.1426 132.7494 L 209.1426 132.6261 L 209.42 132.6261 L 209.42 132.5028 L 209.881 132.5028 L 209.881 132.3812 L 210.2495 132.3812 L 210.2495 132.258 L 210.6181 132.258 L 210.6181 132.1347 L 211.1716 132.1347 L 211.1716 132.0114 L 211.3565 132.0114 L 211.3565 131.8881 L 211.6326 131.8881 L 211.6326 131.7649 L 211.8175 131.7649 L 211.8175 131.6433 L 212.7395 131.6433 L 212.7395 131.52 L 212.9244 131.52 L 212.9244 131.3967 L 213.3855 131.3967 L 213.3855 131.2735 L 213.9389 131.2735 L 213.9389 131.3967 L 214.1226 131.3967 L 214.1226 131.52 L 214.4924 131.52 L 214.4924 131.3967 L 214.861 131.3967 L 214.861 131.2735 L 215.0459 131.2735 L 215.0459 131.1502 L 215.1371 131.1502 L 215.1371 131.0286 L 215.322 131.0286 L 215.322 130.9053 L 215.4144 130.9053 L 215.4144 130.782 L 215.5981 130.782 L 215.5981 130.6588 L 215.783 130.6588 L 215.783 130.5355 L 215.9679 130.5355 L 215.9679 130.4122 L 216.0604 130.4122 L 216.0604 130.2906 L 216.244 130.2889 L 216.244 130.1674 L 216.5214 130.1674 L 216.5214 130.0441 L 217.2585 130.0441 L 217.2585 129.9208 L 217.3509 129.9208 L 217.3509 129.7975 L 217.4434 129.7975 L 217.4434 129.6759 L 217.9044 129.6759 L 217.9044 129.779 L 217.9044 129.7975 L 217.9969 129.7975 L 217.9969 129.6759 L 218.0893 129.6759 L 218.0893 129.5898 L 218.0893 129.5527 L 218.1286 129.5527 L 218.1805 129.5527 L 218.1805 129.6759 L 218.273 129.6759 L 218.273 129.7975 L 218.5503 129.7975 L 218.5503 129.6759 L 218.6415 129.6759 L 218.6415 129.7975 L 219.195 129.7975 L 219.195 129.6759 L 219.5648 129.6759 L 219.5648 129.5527 L 219.656 129.5527 L 219.656 129.4294 L 219.8409 129.4294 L 219.8409 129.3061 L 220.1183 129.3061 L 220.1183 129.1828 L 220.2095 129.1828 L 220.2095 129.0596 L 220.3944 129.0596 L 220.3944 128.938 L 220.4869 128.938 L 220.4869 128.8147 L 220.6705 128.8147 L 220.6705 128.6914 L 220.763 128.6914 L 220.763 128.5682 L 220.8554 128.5682 L 220.8554 128.4449 L 221.0403 128.4449 L 221.0403 128.3233 L 221.1315 128.3233 L 221.1328 128.2 L 221.224 128.2 L 221.224 127.9535 L 221.3164 127.9535 L 221.3164 127.8302 L 221.4089 127.8302 L 221.4089 127.5853 L 221.5014 127.5853 L 221.5014 127.4621 L 221.7775 127.4621 L 221.7775 127.3388 L 221.8699 127.3388 L 221.8699 127.2645 L 221.8699 127.2155 L 221.9801 127.2155 L 222.146 127.2155 L 222.1473 127.0922 L 222.2385 127.0922 L 222.2385 126.9706 L 222.3309 126.9706 L 222.3309 126.8474 L 222.4234 126.8474 L 222.4234 126.7241 L 222.6083 126.7241 L 222.6083 126.6008 L 222.9769 126.6008 L 222.9769 126.4775 L 223.1605 126.4775 L 223.1605 126.3543 L 223.253 126.3543 L 223.253 126.2327 L 223.8064 126.2327 L 223.8064 126.1094 L 223.8989 126.1094 L 223.8989 125.9861 L 224.0838 125.9861 L 224.0838 125.8629 L 224.175 125.8629 L 224.175 125.7396 L 224.3599 125.7396 L 224.3599 125.4947 L 224.7285 125.4947 L 224.7285 125.618 L 224.8209 125.618 L 224.8209 125.3714 L 225.0058 125.3714 L 225.0058 125.4947 L 225.2819 125.4947 L 225.2819 125.2482 L 225.5593 125.2482 L 225.5593 125.3714 L 225.6518 125.3714 L 225.6518 125.4947 L 225.8354 125.4947 L 225.8354 125.3714 L 226.4813 125.3714 L 226.4813 125.2482 L 226.6662 125.2482 L 226.6662 125.1249 L 226.8499 125.1232 L 226.8499 125.0016 L 227.0348 125.0016 L 227.0348 124.88 L 227.1273 124.88 L 227.1273 124.7568 L 227.2184 124.7568 L 227.2184 124.6335 L 227.4034 124.6335 L 227.4034 124.5102 L 227.5883 124.5102 L 227.5883 124.3869 L 227.6807 124.3869 L 227.6807 124.2653 L 227.9568 124.2653 L 227.9568 124.0188 L 228.0493 124.0188 L 228.0493 123.8955 L 228.2329 123.8955 L 228.2329 123.7722 L 228.3254 123.7722 L 228.3254 123.649 L 228.4178 123.649 L 228.4178 123.5274 L 228.5103 123.5274 L 228.5103 123.4041 L 228.6028 123.4041 L 228.6028 123.2808 L 228.8789 123.2808 L 228.8789 123.0343 L 228.9713 123.0343 L 228.9713 122.7894 L 229.0638 122.7894 L 229.0638 122.6661 L 229.1562 122.6661 L 229.1562 122.4196 L 229.2474 122.4196 L 229.2474 122.298 L 229.3399 122.2963 L 229.3399 122.1747 L 229.4323 122.1747 L 229.4323 122.0515 L 229.5248 122.0515 L 229.5248 121.9282 L 229.8009 121.9282 L 229.8009 121.8049 L 229.8933 121.8049 L 229.8933 121.6816 L 230.1707 121.6816 L 230.1707 121.5601 L 230.4468 121.5601 L 230.4468 121.4368 L 230.5393 121.4368 L 230.5393 121.3135 L 230.6317 121.3135 L 230.6317 121.1902 L 230.8154 121.1902 L 230.8154 121.067 L 231.0927 121.0653 L 231.0927 120.9454 L 231.9223 120.9437 L 231.9223 120.8221 L 232.3833 120.8221 L 232.3833 120.6988 L 232.6607 120.6988 L 232.6607 120.5755 L 232.9368 120.5755 L 232.9368 120.4523 L 233.3054 120.4523 L 233.3054 120.329 L 233.7676 120.329 L 233.7676 120.2074 L 234.1362 120.2074 L 234.1362 120.0841 L 234.3198 120.0841 L 234.3198 120.2074 L 234.4123 120.2074 L 234.4123 120.0841 L 234.5048 120.0841 L 234.5048 120.2074 L 234.6897 120.2074 L 234.6897 120.0841 L 234.7821 120.0841 L 234.7821 120.2074 L 234.8733 120.2074 L 234.8733 120.0841 L 234.9658 120.0841 L 234.9658 119.9609 L 235.0582 119.9609 L 235.0582 119.8376 L 235.5192 119.8376 L 235.5192 119.7143 L 235.7966 119.7143 L 235.7966 119.5927 L 235.9803 119.5927 L 235.9803 119.2229 L 237.5482 119.2229 L 237.5482 119.0996 L 238.0092 119.0996 L 238.0092 118.9763 L 238.3778 118.9763 L 238.3778 118.8548 L 239.0237 118.8548 L 239.0237 118.9763 L 239.5772 118.9763 L 239.5772 118.8548 L 240.1307 118.8548 L 240.1307 118.9763 L 240.2231 118.9763 L 240.2231 119.0996 L 240.4992 119.0996 L 240.4992 118.9763 L 240.869 118.9763 L 240.869 118.8548 L 241.2376 118.8548 L 241.2376 118.9763 L 241.4213 118.9763 L 241.4213 119.0996 L 241.5137 119.0996 L 241.5137 119.1452 L 241.5137 119.2229 L 242.1596 119.2229 L 242.1596 119.0996 L 242.3445 119.0996 L 242.3445 119.2229 L 242.4357 119.2229 L 242.4357 119.3462 L 242.5282 119.3462 L 242.5282 119.5927 L 242.7131 119.5927 L 242.7131 119.4694 L 242.8968 119.4694 L 242.898 119.3462 L 242.9892 119.3462 L 242.9892 119.2229 L 243.1741 119.2229 L 243.1741 119.3462 L 243.359 119.3462 L 243.359 119.2229 L 243.5427 119.2229 L 243.5427 119.0996 L 243.7276 119.0996 L 243.7276 118.9763 L 244.0037 118.9763 L 244.0037 118.8548 L 244.2811 118.8548 L 244.2811 118.7315 L 244.5572 118.7315 L 244.5572 118.6082 L 245.1106 118.6065 L 245.1106 118.4849 L 246.6786 118.4849 L 246.6786 118.3617 L 247.0472 118.3617 L 247.0472 118.2401 L 247.3245 118.2401 L 247.3245 118.1168 L 247.6931 118.1151 L 247.6931 117.9935 L 248.0616 117.9935 L 248.0616 117.8702 L 248.4315 117.8702 L 248.4315 117.747 L 248.8 117.747 L 248.8 117.6237 L 249.5371 117.6237 L 249.5371 117.5021 L 249.7221 117.5021 L 249.7221 117.6237 L 249.907 117.6237 L 249.907 117.747 L 250.0906 117.747 L 250.0906 117.6237 L 250.1831 117.6237 L 250.1831 117.5021 L 250.368 117.5021 L 250.368 117.3788 L 250.4604 117.3788 L 250.4604 117.1323 L 250.5516 117.1323 L 250.5516 117.009 L 250.7365 117.009 L 250.7365 116.8874 L 250.829 116.8874 L 250.829 116.7641 L 250.9215 116.7641 L 250.9215 116.6409 L 251.0126 116.6409 L 251.0126 116.5176 L 251.1051 116.5176 L 251.1051 116.3943 L 251.29 116.3943 L 251.29 116.271 L 251.3825 116.271 L 251.3825 116.1495 L 251.4749 116.1495 L 251.4749 116.0262 L 251.5661 116.0262 L 251.5661 115.9029 L 251.9359 115.9029 L 251.9359 115.7796 L 252.212 115.7796 L 252.212 115.6564 L 252.397 115.6564 L 252.397 115.5348 L 252.4894 115.5348 L 252.4894 115.4115 L 252.7655 115.4115 L 252.7655 115.2882 L 252.9504 115.2882 L 252.9504 115.1649 L 253.2265 115.1649 L 253.2265 115.0417 L 253.319 115.04 L 253.319 114.9184 L 253.4114 114.9167 L 253.4114 114.7968 L 253.5951 114.7968 L 253.5951 114.6735 L 253.6875 114.6735 L 253.6875 114.5503 L 253.78 114.5503 L 253.78 114.427 L 253.8725 114.427 L 253.8725 114.3037 L 254.0561 114.3037 L 254.0561 114.1821 L 254.1486 114.1821 L 254.1486 114.0588 L 254.241 114.0588 L 254.241 113.9356 L 254.3335 113.9356 L 254.3335 113.8123 L 254.5184 113.8123 L 254.5184 113.689 L 254.6096 113.689 L 254.6096 113.5657 L 254.702 113.5657 L 254.702 113.4442 L 254.7945 113.4442 L 254.7945 113.3209 L 254.8869 113.3209 L 254.8869 113.1976 L 254.9794 113.1976 L 254.9794 112.9511 L 255.0706 112.9511 L 255.0706 112.8295 L 255.163 112.8295 L 255.163 112.7062 L 255.2555 112.7062 L 255.2555 112.5829 L 255.348 112.5829 L 255.348 112.4596 L 255.4404 112.4596 L 255.4404 112.2131 L 255.5329 112.2131 L 255.5329 112.0915 L 255.6241 112.0898 L 255.6241 111.9682 L 255.7165 111.9682 L 255.7165 111.845 L 255.9014 111.845 L 255.9014 111.7217 L 255.9939 111.7217 L 255.9939 111.5984 L 256.1775 111.5984 L 256.1775 111.4768 L 256.27 111.4768 L 256.27 111.3536 L 256.3624 111.3536 L 256.3624 111.2303 L 256.4549 111.2303 L 256.4549 111.107 L 256.6385 111.107 L 256.6385 110.9837 L 256.731 110.9837 L 256.731 110.8605 L 256.8235 110.8605 L 256.8235 110.7389 L 256.9159 110.7389 L 256.9159 110.6156 L 257.0084 110.6156 L 257.0084 110.369 L 257.0996 110.369 L 257.0996 110.2458 L 257.192 110.2458 L 257.192 110.1242 L 257.2845 110.1225 L 257.2845 109.8776 L 257.3769 109.8776 L 257.3769 109.7544 L 257.4694 109.7544 L 257.4694 109.6311 L 257.5618 109.6311 L 257.5618 109.5078 L 257.653 109.5078 L 257.653 109.2629 L 257.7455 109.2629 L 257.7455 109.1397 L 257.8379 109.1397 L 257.8379 109.0164 L 257.9304 109.0164 L 257.9304 108.8931 L 258.114 108.8931 L 258.114 108.7715 L 258.2065 108.7715 L 258.2065 108.6483 L 258.299 108.6483 L 258.299 108.4017 L 258.3914 108.4 L 258.3914 108.1552 L 258.4839 108.1552 L 258.4839 108.0336 L 258.5763 108.0336 L 258.5763 107.9103 L 258.6675 107.9103 L 258.6675 107.787 L 258.76 107.787 L 258.76 107.6637 L 258.8524 107.6637 L 258.8524 107.5405 L 258.9449 107.5405 L 258.9449 107.4189 L 259.0373 107.4189 L 259.0373 106.9258 L 258.9449 106.9241 L 258.9449 106.6809 L 258.8524 106.6809 L 258.8524 106.5576 L 258.76 106.5576 L 258.76 106.4344 L 258.6675 106.4344 L 258.6675 106.3111 L 258.5763 106.3111 L 258.5763 106.1878 L 258.4839 106.1878 L 258.4839 106.0662 L 258.3914 106.0662 L 258.3914 105.8197 L 258.299 105.8197 L 258.299 105.6964 L 258.2065 105.6964 L 258.2065 105.5731 L 258.114 105.5731 L 258.114 105.4499 L 258.0229 105.4499 L 258.0229 105.205 L 257.9304 105.205 L 257.9304 105.0817 L 258.5763 105.0817 L 258.5763 104.3438 L 258.8524 104.3438 L 258.8524 104.2205 L 259.1285 104.2205 L 259.1285 104.3438 L 259.221 104.3438 L 259.221 104.467 L 259.4059 104.467 L 259.4059 104.0972 L 259.4984 104.0972 L 259.4984 103.9756 L 259.7745 103.9756 L 259.7745 104.0972 L 260.0518 104.0972 L 260.0518 104.2205 L 260.5128 104.2205 L 260.5128 104.0972 L 260.6053 104.0972 L 260.6053 103.9756 L 260.6965 103.9756 L 260.6965 103.8523 L 260.7889 103.8523 L 260.7889 103.7291 L 260.8814 103.7291 L 260.8814 103.4825 L 260.9739 103.4825 L 260.9739 103.2377 L 260.8814 103.2377 L 260.8814 102.9911 L 261.1575 102.9911 L 261.1575 102.8678 L 261.3424 102.8661 L 261.3424 102.7446 L 261.4349 102.7446 L 261.4349 102.623 L 261.6198 102.623 L 261.6198 102.4997 L 261.711 102.4997 L 261.711 102.3764 L 261.8034 102.3764 L 261.8034 102.1299 L 261.8959 102.1299 L 261.8959 101.6385 L 261.9883 101.6385 L 261.9883 101.1471 L 262.0808 101.1471 L 262.0808 100.7772 L 262.172 100.7772 L 262.172 100.6556 L 262.3569 100.6556 L 262.3569 100.5324 L 262.4494 100.5324 L 262.4494 100.4091 L 262.5418 100.4074 L 262.5418 100.2858 L 262.633 100.2858 L 262.6343 100.0393 L 262.7255 100.0393 L 262.7255 99.9177 L 262.8179 99.916 L 262.8179 99.7944 L 262.9104 99.7944 L 262.9104 99.5479 L 263.0028 99.5479 L 263.0028 99.1797 L 263.0953 99.1797 L 263.0953 98.8099 L 263.2789 98.8099 L 263.2789 98.6866 L 263.4638 98.6866 L 263.4638 98.565 L 263.5563 98.565 L 263.5563 98.4418 L 263.7399 98.4418 L 263.7399 98.1952 L 263.8324 98.1952 L 263.8324 97.8271 L 264.1098 97.8271 L 264.1098 97.7038 L 264.201 97.7038 L 264.201 97.8085 L 264.201 97.8271 L 264.2934 97.8271 L 264.2934 97.6177 L 264.2934 97.4572 L 264.3719 97.4572 L 264.4783 97.4572 L 264.4783 97.334 L 264.4315 97.334 L 264.2934 97.334 L 264.2934 97.2124 L 264.4783 97.2124 L 264.4783 97.0891 L 264.5708 97.0891 L 264.5708 96.9658 L 264.6101 96.9658 L 264.9393 96.9658 L 264.9393 96.7193 L 265.0318 96.7176 L 265.0318 96.3511 L 265.1243 96.3511 L 265.1243 96.2279 L 265.4004 96.2279 L 265.4004 96.1046 L 265.4928 96.1046 L 265.4928 95.8597 L 265.5853 95.8597 L 265.5853 95.7365 L 265.6765 95.7365 L 265.6765 95.1218 L 265.7689 95.1218 L 265.7689 94.6304 L 265.8614 94.6287 L 265.8614 94.5071 L 265.9538 94.5071 L 265.9538 94.3838 L 266.0463 94.3838 L 266.0463 94.2605 L 266.1387 94.2605 L 266.1387 93.8924 L 266.2299 93.8907 L 266.2299 93.6458 L 266.3224 93.6458 L 266.3224 93.4381 L 266.3224 93.3993 L 266.4148 93.3993 L 266.4148 93.249 L 266.4148 93.1544 L 266.4604 93.1544 L 266.5073 93.1544 L 266.5073 93.0582 L 266.5073 92.9079 L 266.5998 92.9079 L 266.5998 92.7846 L 266.6403 92.7846 L 266.691 92.7846 L 266.691 92.6782 L 266.691 92.5398 L 266.7593 92.5398 L 266.7834 92.5398 L 266.7834 92.4891 L 266.7834 92.4165 L 266.8189 92.4165 L 266.8759 92.4165 L 266.8759 92.2983 L 266.8759 92.1699 L 266.9379 92.1699 L 266.9683 92.1699 L 266.9683 92.1091 L 266.9683 92.0467 L 267.0608 92.0467 L 267.0608 91.9251 L 267.1532 91.9251 L 267.1532 91.8018 L 267.2444 91.8018 L 267.2444 91.6785 L 267.4293 91.6785 L 267.4293 91.5552 L 267.5218 91.5552 L 267.5218 91.432 L 267.6142 91.432 L 267.6142 91.3087 L 267.7054 91.3087 L 267.7054 90.9963 L 267.7054 90.9406 L 267.751 90.9406 L 268.0753 90.9406 L 268.0753 90.8173 L 268.1677 90.8173 L 268.1677 90.694 L 268.2589 90.694 L 268.2589 90.5724 L 268.3514 90.5724 L 268.3514 90.1992 L 268.3514 89.956 L 268.4438 89.956 L 268.4438 89.8345 L 268.6287 89.8345 L 268.6287 89.7112 L 268.7199 89.7112 L 268.7199 89.5879 L 268.8453 89.5879 L 268.9048 89.5879 L 268.9048 89.5153 L 268.9048 89.4646 L 268.9454 89.4646 L 269.0897 89.4646 L 269.0897 89.3414 L 269.1822 89.3414 L 269.1822 89.1725 L 269.1822 89.0965 L 269.2443 89.0965 L 269.3659 89.0965 L 269.3659 88.9732 L 269.4583 88.9732 L 269.4583 88.8499 L 269.6432 88.8499 L 269.6432 88.6034 L 269.6432 88.4818 L 269.742 88.4818 L 269.9193 88.4818 L 269.9193 88.3585 L 270.0118 88.3585 L 270.0118 88.2353 L 270.2879 88.2353 L 270.2879 87.8046 L 270.2879 87.7438 L 270.3385 87.7438 L 270.4728 87.7438 L 270.4728 87.6206 L 270.4386 87.6206 L 270.3803 87.6206 L 270.3803 87.4973 L 270.4728 87.4973 L 270.4728 87.374 L 270.6374 87.374 L 270.6577 87.374 L 270.6577 87.1292 L 270.7489 87.1292 L 270.7489 87.0059 L 270.9338 87.0059 L 270.9338 86.8826 L 270.8414 86.8826 L 270.8414 86.7593 L 270.9338 86.7593 L 270.9338 86.6361 L 271.2112 86.6361 L 271.2112 86.7593 L 271.3024 86.7593 L 271.3024 86.6361 L 271.3948 86.6361 L 271.3948 86.4368 L 271.3948 86.3912 L 271.4328 86.3912 L 271.4873 86.3912 L 271.4873 86.3236 L 271.4873 86.2679 L 271.5329 86.2679 L 271.7634 86.2679 L 271.7634 86.1446 L 272.0408 86.1446 L 272.0408 86.0214 L 272.5942 86.0214 L 272.5942 85.8981 L 272.6867 85.8981 L 272.6867 85.7765 L 272.8703 85.7765 L 272.8703 85.6532 L 272.9628 85.6532 L 272.9628 85.53 L 273.0552 85.53 L 273.0552 85.4067 L 273.1477 85.4067 L 273.1477 85.1618 L 273.2402 85.1618 L 273.2402 84.9153 L 273.3313 84.9153 L 273.3313 84.792 L 273.4238 84.792 L 273.4238 84.5454 L 273.5163 84.5454 L 273.5163 84.3006 L 273.6087 84.3006 L 273.6087 84.054 L 273.7012 84.054 L 273.7012 83.8092 L 273.7924 83.8092 L 273.7924 83.4748 L 273.7924 83.3161 L 273.8848 83.3161 L 273.8848 82.7014 L 273.9773 82.7014 L 273.9773 82.3333 L 274.0697 82.3333 L 274.0697 82.21 L 274.1622 82.2083 L 274.1622 82.0867 L 274.2546 82.0867 L 274.2546 81.9634 L 274.6232 81.9634 L 274.6232 81.8402 L 274.9918 81.8402 L 274.9918 81.7186 L 276.0062 81.7169 L 276.0062 81.5953 L 276.3748 81.5953 L 276.3748 81.472 L 276.6522 81.472 L 276.6522 81.3487 L 276.7446 81.3487 L 276.7446 81.2255 L 276.9283 81.2255 L 276.9283 81.1039 L 277.0207 81.1039 L 277.0207 80.9806 L 277.1132 80.9806 L 277.1132 80.8573 L 277.2056 80.8573 L 277.2056 80.7341 L 277.4817 80.7341 L 277.4817 80.6108 L 277.5742 80.6108 L 277.5742 80.4875 L 278.0352 80.4875 L 278.0352 80.3659 L 278.1277 80.3659 L 278.1277 80.2426 L 278.2201 80.2426 L 278.2201 80.1194 L 278.3126 80.1194 L 278.3126 79.9961 L 278.4038 79.9961 L 278.4038 79.8728 L 278.5887 79.8728 L 278.5887 79.7512 L 278.6811 79.7512 L 278.6811 79.628 L 278.7736 79.628 L 278.7736 79.5047 L 278.8648 79.5047 L 278.8648 79.3814 L 278.9572 79.3814 L 278.9572 79.0133 L 279.0396 79.0133 L 279.1422 79.0133 L 279.1422 78.89 L 279.3701 78.89 L 279.5107 78.89 L 279.5107 78.8376 L 279.5107 78.6434 L 279.6032 78.6418 L 279.6032 78.5202 L 279.6956 78.5185 L 279.6956 78.3986 L 279.7881 78.3986 L 279.7881 78.152 L 280.0642 78.1503 L 280.0642 77.9055 L 280.5252 77.9055 L 280.5252 78.0288 L 281.0787 78.0288 L 281.0787 78.1503 L 281.8171 78.1503 L 281.8171 78.0288 L 282.0007 78.0288 L 282.0007 77.9105 L 282.0007 77.7822 L 282.0932 77.7822 L 282.0932 77.5373 L 282.4756 77.5373 L 283.0038 77.5373 L 283.3837 77.5373 L 283.385 77.4141 L 283.4762 77.4141 L 283.4762 77.3617 L 283.4762 77.2908 L 283.5687 77.2908 L 283.5687 77.1675 L 283.6611 77.1675 L 283.6611 77.0459 L 283.7536 77.0459 L 283.7536 76.9227 L 283.846 76.9227 L 283.846 76.7994 L 284.0297 76.7994 L 284.0297 76.6761 L 284.1221 76.6761 L 284.1221 76.5528 L 284.307 76.5528 L 284.307 76.4296 L 284.3982 76.4296 L 284.3995 76.308 L 284.5831 76.308 L 284.5831 76.1847 L 284.6756 76.1847 L 284.6756 76.0614 L 284.8605 76.0614 L 284.8605 75.9381 L 284.9517 75.9381 L 284.9517 75.8149 L 285.1366 75.8149 L 285.1366 75.6933 L 285.2291 75.6916 L 285.2291 75.57 L 285.3215 75.57 L 285.3215 75.4467 L 285.5052 75.4467 L 285.5052 75.3235 L 285.5976 75.3235 L 285.5976 75.2002 L 285.6901 75.2002 L 285.6901 75.0769 L 285.7825 75.0769 L 285.7825 74.9553 L 285.9662 74.9553 L 285.9662 74.832 L 286.0586 74.832 L 286.0586 74.7088 L 286.1511 74.7088 L 286.1511 74.5855 L 286.336 74.5855 L 286.336 74.4622 L 286.4272 74.4622 L 286.4272 74.3406 L 286.8895 74.3406 L 286.8895 74.2174 L 287.258 74.2174 L 287.258 74.0941 L 287.4417 74.0941 L 287.4417 73.9708 L 287.6266 73.9708 L 287.6266 73.8475 L 287.8115 73.8475 L 287.8115 73.7243 L 287.904 73.7243 L 287.904 73.6027 L 288.0876 73.6027 L 288.0876 73.4794 L 288.1801 73.4794 L 288.1801 73.3561 L 288.365 73.3561 L 288.365 73.2328 L 288.4777 73.2328 L 288.826 73.2328 L 288.826 72.988 L 289.1021 72.988 L 289.1021 72.8647 L 289.3795 72.8647 L 289.3795 72.7414 L 290.0241 72.7414 L 290.0241 72.6182 L 290.1166 72.6182 L 290.1166 72.3716 L 290.209 72.3716 L 290.209 72.25 L 290.3015 72.25 L 290.3015 72.0035 L 290.394 72.0018 L 290.394 71.8802 L 290.4851 71.8802 L 290.4851 71.7569 L 290.5776 71.7569 L 290.5776 71.5121 L 290.6701 71.5104 L 290.6701 71.3888 L 290.7625 71.3888 L 290.7625 71.1422 L 290.855 71.1422 L 290.855 71.019 L 290.9474 71.019 L 290.9474 70.7741 L 291.0386 70.7741 L 291.0386 70.5276 L 291.1311 70.5259 L 291.1311 70.4043 L 291.2235 70.4043 L 291.2235 70.1594 L 291.316 70.1594 L 291.316 69.9129 L 291.4084 69.9129 L 291.4084 69.7896 L 291.4996 69.7896 L 291.4996 69.5447 L 291.5921 69.5447 L 291.5921 69.2982 L 291.6845 69.2982 L 291.6845 69.1749 L 291.777 69.1749 L 291.777 68.93 L 291.8695 68.93 L 291.8695 68.6835 L 291.9619 68.6835 L 291.9619 68.5602 L 292.0531 68.5602 L 292.0531 68.3137 L 292.1456 68.3137 L 292.1456 68.0688 L 292.238 68.0688 L 292.238 67.9455 L 292.3305 67.9455 L 292.3305 67.699 L 292.4229 67.699 L 292.4229 67.4541 L 292.5141 67.4541 L 292.5141 67.2076 L 292.6066 67.2076 L 292.6066 67.0843 L 292.699 67.0843 L 292.699 66.8394 L 292.7915 66.8394 L 292.7915 66.5929 L 292.8839 66.5929 L 292.8839 66.4696 L 292.9764 66.4679 L 292.9764 66.2247 L 293.0676 66.2247 L 293.0676 65.9782 L 293.16 65.9782 L 293.16 65.7992 L 293.16 65.4868 L 293.2525 65.4851 L 293.2525 64.9937 L 293.345 64.9937 L 293.345 64.7488 L 293.4374 64.7488 L 293.4374 64.5023 L 293.5286 64.5023 L 293.5286 64.2574 L 293.6211 64.2574 L 293.6211 64.0109 L 293.7135 64.0092 L 293.7135 63.7643 L 293.806 63.7643 L 293.806 63.5195 L 293.8984 63.5178 L 293.8984 63.1496 L 293.9909 63.1496 L 293.9909 62.9048 L 294.0821 62.9048 L 294.0821 62.7815 L 294.1745 62.7815 L 294.1745 62.5349 L 294.267 62.5349 L 294.267 62.4117 L 294.3594 62.4117 L 294.3594 62.1668 L 294.4519 62.1668 L 294.4519 61.9203 L 294.5431 61.9203 L 294.5431 61.797 L 294.6356 61.797 L 294.6356 61.6737 L 294.728 61.6737 L 294.728 61.5521 L 294.8205 61.5521 L 294.8205 61.1823 L 294.9129 61.1823 L 294.9129 60.8142 L 295.0054 60.8142 L 295.0054 60.728 L 295.0054 60.6909 L 295.0966 60.6841 L 295.0966 60.5676 L 295.3347 60.5676 L 295.3739 60.5676 L 295.3739 60.549 L 295.3739 60.4443 L 295.4664 60.4443 L 295.4664 60.3211 L 295.5576 60.3194 L 295.5576 60.1995 L 295.65 60.1995 L 295.65 60.0762 L 296.0199 60.0762 L 296.0199 59.9529 L 296.2035 59.9512 L 296.2035 59.7064 L 296.296 59.7064 L 296.296 59.5831 L 296.6645 59.5831 L 296.6645 59.6912 L 296.6645 59.7064 L 296.8494 59.7064 L 296.8494 59.5831 L 296.9419 59.5831 L 296.9419 59.4615 L 297.0343 59.4615 L 297.0343 59.3382 L 297.1255 59.3382 L 297.1255 59.215 L 297.218 59.215 L 297.218 58.9684 L 297.3105 58.9684 L 297.3105 58.5496 L 297.3105 58.477 L 297.351 58.477 L 297.4029 58.477 L 297.4029 58.3858 L 297.4029 58.3537 L 297.4954 58.3537 L 297.4954 58.2237 L 297.4954 57.6158 L 297.5866 57.6158 L 297.5866 57.4942 L 297.679 57.4925 L 297.679 57.4199 L 297.679 57.2476 L 297.7715 57.2476 L 297.7715 57.1243 L 297.8639 57.1243 L 297.8639 57.0011 L 298.2325 57.0011 L 298.2325 56.6329 L 298.3249 56.6329 L 298.3249 56.1415 L 298.4174 56.1415 L 298.4174 55.7717 L 298.5099 55.7717 L 298.5099 55.5251 L 298.601 55.5251 L 298.601 55.157 L 298.786 55.157 L 298.786 54.2958 L 298.8784 54.2958 L 298.8784 53.3923 L 298.8784 53.3011 L 298.9354 53.3146 L 299.2736 53.3974 L 299.3914 53.4565 L 302.0245 54.7703 L 306.4763 55.103 L 308.2165 55.7683 L 309.0182 56.074 L 309.692 57.1767 L 310.3671 58.2811 L 312.277 58.9161 L 312.3986 58.9583 L 312.6278 59.0461 L 318.7021 61.39 L 321.0451 63.5583 L 323.007 65.3736 L 324.6066 66.4325 L 324.2355 68.1161 L 323.4465 70.303 L 320.9299 75.2964 L 319.1162 79.6769 L 315.9208 85.6178 L 314.14 90.0219 L 311.6779 95.0103 L 310.9205 97.1195 L 309.4881 102.4828 L 308.4584 104.3488 L 307.7276 105.1121 L 306.0393 106.3111 L 300.5325 109.4217 L 298.2907 110.1411 L 297.0533 110.3606 L 290.9563 110.8993 L 288.7158 111.4059 L 287.6785 111.8855 L 286.74 112.6066 L 286.008 113.559 L 285.1721 115.7847 L 284.8428 118.2468 L 284.7769 122.2018 L 285.0112 133.3252 L 284.7782 137.4524 L 284.3083 140.1222 L 283.9144 141.409 L 282.9569 143.4963 L 277.3019 152.9699 L 270.2967 150.5466 L 264.7 147.9494 L 262.3632 147.3516 L 259.948 147.0375 L 253.7965 146.9024 L 248.9609 147.2756 L 246.6761 147.7062 L 241.9355 149.4743 L 240.1028 149.812 L 238.26 149.5249 L 234.5719 148.1807 L 232.3859 147.6842 L 225.3123 146.9632 L 222.9503 146.5815 L 220.6591 145.8638 L 219.5471 145.3032 L 217.4915 143.883 L 214.6672 141.328 L 210.2153 136.63 L 207.8748 133.3641 Z" fill="#000000" fill-opacity="1" stroke="#000000" stroke-width="0" paint-order="fill" stroke-opacity="1" stroke-dasharray="" stroke-linecap="butt" stroke-linejoin="miter" stroke-miterlimit="10" clip-path="none"/>
<path data-code="204" d="M 453.093 316.9713 L 450.5118 321.7368 L 449.7126 323.618 L 447.0694 331.3776 L 446.2132 334.7465 L 429.8168 317.6907 L 426.9988 315.0884 L 423.968 312.915 L 419.7809 310.9595 L 414.9706 308.3691 L 412.8023 307.6142 L 409.251 307.1059 L 400.726 306.9185 L 398.3145 306.7344 L 395.9512 306.2751 L 394.805 305.8782 L 392.6228 304.6556 L 389.768 302.1985 L 388.0949 300.3123 L 386.641 298.274 L 385.5214 296.0821 L 383.8508 289.6008 L 382.8984 287.7517 L 381.4052 286.3636 L 376.1693 282.9001 L 374.2746 281.8041 L 370.0356 279.9938 L 365.186 277.4236 L 364.1526 276.9998 L 361.8449 276.4037 L 358.2455 276.0119 L 350.9262 275.7299 L 347.3483 275.3144 L 345.0774 274.7116 L 344.0655 274.2945 L 339.1818 271.91 L 335.7267 271.113 L 332.0968 270.8293 L 319.7875 270.5895 L 317.3963 270.2821 L 315.0975 269.6708 L 313.0863 268.7387 L 309.274 266.6143 L 305.0477 264.7719 L 300.3096 261.972 L 296.206 260.0334 L 294.1087 258.853 L 292.1088 257.3247 L 289.2997 254.6735 L 286.6514 251.7605 L 283.2748 247.6637 L 287.1517 246.6825 L 294.457 244.0786 L 300.2311 240.8734 L 304.4549 238.977 L 306.3496 237.7443 L 308.1228 236.2818 L 310.5887 233.8163 L 312.0819 232.0365 L 313.9526 229.1454 L 315.7827 224.7751 L 318.9364 218.8359 L 320.6867 214.4318 L 323.891 208.5146 L 325.6857 204.129 L 328.9254 198.2287 L 330.6948 193.8347 L 333.2481 188.8649 L 334.0333 186.6814 L 335.5012 179.6023 L 336.3485 177.4155 L 341.4881 169.1358 L 343.7805 168.5177 L 346.4161 168.0702 L 351.8394 167.7088 L 384.978 167.6903 L 389.0423 167.9419 L 392.9521 168.6292 L 395.1824 169.4583 L 400.0243 171.8428 L 402.2901 172.422 L 404.6332 172.6381 L 406.9852 172.5115 L 409.2814 171.9796 L 410.306 171.5641 L 416.6373 167.7426 L 418.2661 166.4254 L 418.9361 165.6148 L 421.2868 161.8778 L 423.6615 158.8499 L 432.9489 148.9609 L 435.5921 145.8976 L 437.7845 142.5877 L 438.7217 140.129 L 439.2017 137.5605 L 439.7615 132.5214 L 440.2935 130.1961 L 440.7431 129.1339 L 441.3726 128.1848 L 442.9253 126.9065 L 447.6457 124.4376 L 454.2139 127.2104 L 461.5787 131.7868 L 463.2138 133.0753 L 464.4372 134.7792 L 468.1646 141.3736 L 470.8079 147.821 L 472.9255 151.776 L 475.2977 157.0312 L 476.5731 158.86 L 478.1233 160.4542 L 479.8964 161.7579 L 484.9524 164.2098 L 488.6697 166.4761 L 493.4508 169.1273 L 494.9453 170.4259 L 497.1427 172.7006 L 489.9843 176.8008 L 484.7396 179.0755 L 478.9959 182.3515 L 474.7404 184.1534 L 469.0208 187.4632 L 464.8096 189.3951 L 462.0207 191.2966 L 455.8388 196.4083 L 453.9631 197.6089 L 449.7886 199.5965 L 447.9104 200.8293 L 446.1461 202.29 L 443.6852 204.7437 L 441.503 207.4355 L 440.3049 209.3724 L 437.8162 214.6614 L 436.5344 216.546 L 432.2067 221.9634 L 430.8971 223.8429 L 429.8092 225.9031 L 428.4236 229.1505 L 426.3174 233.0683 L 425.3954 235.1437 L 425.0458 236.3173 L 424.6088 238.7507 L 424.3302 242.5182 L 424.2631 254.0858 L 424.5405 260.4353 L 424.871 262.8941 L 425.4764 265.2447 L 427.822 270.2737 L 428.2273 271.3173 L 428.7998 273.6663 L 429.1607 277.3662 L 429.414 286.161 L 429.7142 288.6214 L 430.3627 291.0008 L 431.5063 293.2079 L 433.7734 296.175 L 447.975 310.8616 L 450.5245 313.7307 L 453.093 316.9713 Z" fill="#000000" fill-opacity="1" stroke="#000000" stroke-width="0" paint-order="fill" stroke-opacity="1" stroke-dasharray="" stroke-linecap="butt" stroke-linejoin="miter" stroke-miterlimit="10" clip-path="none"/>
<path data-code="205" d="M 257.6378 244.9043 L 256.2029 241.4864 L 252.7503 234.4023 L 257.7822 225.8305 L 258.7536 223.7821 L 259.4439 221.4855 L 260.7788 215.6392 L 261.7452 213.3915 L 263.0915 211.2942 L 267.7434 205.3888 L 269.0619 203.2999 L 272.1142 196.258 L 272.6765 194.3599 L 272.769 193.372 L 272.4701 191.4486 L 271.1111 187.6726 L 270.5665 185.3169 L 270.0726 180.19 L 269.9497 166.775 L 270.2967 150.5466 L 277.3019 152.9699 L 283.7561 152.3113 L 291.6972 151.9972 L 298.2388 152.1272 L 302.046 152.6456 L 304.46 153.4241 L 306.5839 154.6383 L 312.315 159.2451 L 315.4218 161.1499 L 316.63 161.5957 L 319.1403 162.1648 L 325.5818 162.9095 L 329.3421 163.7657 L 336.365 167.2495 L 341.4881 169.1358 L 336.3485 177.4155 L 335.5012 179.6023 L 334.0333 186.6814 L 333.2481 188.8649 L 330.6948 193.8347 L 328.9254 198.2287 L 325.6857 204.129 L 323.891 208.5146 L 320.6867 214.4318 L 318.9364 218.8359 L 315.7827 224.7751 L 313.9526 229.1454 L 312.0819 232.0365 L 310.5887 233.8163 L 308.1228 236.2818 L 306.3496 237.7443 L 304.4549 238.977 L 300.2311 240.8734 L 294.457 244.0786 L 287.1517 246.6825 L 283.2748 247.6637 L 279.4461 246.0256 L 275.663 245.2151 L 269.0416 244.8385 L 257.6378 244.9043 Z" fill="#000000" fill-opacity="1" stroke="#000000" stroke-width="0" paint-order="fill" stroke-opacity="1" stroke-dasharray="" stroke-linecap="butt" stroke-linejoin="miter" stroke-miterlimit="10" clip-path="none"/>
<path data-code="206" d="M 642.5207 186.0717 L 641.2808 190.0892 L 638.1006 198.558 L 637.5534 199.5712 L 636.2451 201.4778 L 633.9476 204.1054 L 631.3905 206.4611 L 629.5477 207.8036 L 627.7277 208.7712 L 623.343 210.6643 L 618.5695 213.3949 L 614.3292 215.2305 L 611.4516 217.208 L 608.778 219.6178 L 606.1905 222.2082 L 589.9296 239.1661 L 586.0768 243.6429 L 583.355 247.787 L 582.894 248.1686 L 582.2658 248.4405 L 581.1424 248.5249 L 572.4655 246.0003 L 570.1034 245.6778 L 564.1495 245.2387 L 560.6855 244.5835 L 559.5798 244.1563 L 557.6801 242.9775 L 556.8366 242.248 L 555.3661 240.5711 L 554.2098 238.5954 L 552.8647 235.4189 L 550.913 231.4522 L 550.0733 229.3312 L 549.7465 228.0613 L 549.2843 224.108 L 549.0107 214.7222 L 548.6713 212.1318 L 547.9329 209.6798 L 546.8323 207.7665 L 545.4632 206.1403 L 541.6155 203.028 L 540.4186 201.4896 L 539.6549 199.5645 L 538.0819 194.1471 L 536.1466 190.8373 L 532.7751 186.7742 L 528.0814 182.0729 L 526.0752 180.4028 L 523.9462 178.9893 L 519.7426 177.0372 L 514.9349 174.4417 L 512.7678 173.6632 L 510.4184 173.2191 L 508.007 172.9961 L 497.1427 172.7006 L 494.9453 170.4259 L 493.4508 169.1273 L 488.6697 166.4761 L 484.9524 164.2098 L 479.8964 161.7579 L 478.1233 160.4542 L 476.5731 158.86 L 475.2977 157.0312 L 472.9255 151.776 L 470.8079 147.821 L 468.1646 141.3736 L 464.4372 134.7792 L 463.2138 133.0753 L 461.5787 131.7868 L 454.2139 127.2104 L 447.6457 124.4376 L 451.81 118.7467 L 453.4476 115.7627 L 454.1721 113.4627 L 455.127 108.7462 L 455.7578 106.4462 L 458.0413 101.3632 L 458.7974 99.1763 L 460.0196 93.2726 L 460.6934 90.9676 L 463.7103 84.9744 L 465.5087 80.6023 L 468.4977 74.5737 L 469.3792 71.0173 L 470.1062 66.0812 L 469.8035 66.0086 L 470.262 64.3064 L 475.1014 60.7652 L 477.3558 59.9023 L 477.5774 59.8178 L 477.8193 59.7249 L 479.1973 59.9867 L 479.3366 60.0137 L 482.7803 60.7888 L 485.9948 58.8333 L 488.2213 59.2166 L 488.8571 62.3509 L 491.8854 62.1195 L 494.4032 61.2836 L 497.2288 60.853 L 499.3503 60.8327 L 502.2709 59.7925 L 505.7943 58.3419 L 509.9384 58.5074 L 511.9788 60.7179 L 513.7013 61.3106 L 514.7195 62.3154 L 516.3014 66.9424 L 516.5839 67.7682 L 517.2615 67.422 L 518.3937 66.8411 L 519.9098 66.8293 L 526.4729 66.4696 L 531.824 66.2231 L 536.5861 68.008 L 542.4362 67.0505 L 544.764 67.5386 L 547.6074 69.6444 L 549.5376 71.2503 L 551.9668 72.044 L 554.401 73.5453 L 556.8454 76.5663 L 559.7825 77.7603 L 562.0002 77.2384 L 564.4218 76.9176 L 565.8352 76.9075 L 566.7496 77.8143 L 567.7629 78.4138 L 569.1801 78.9119 L 572.1184 80.6142 L 576.859 79.8728 L 584.2289 79.7259 L 585.4549 82.1492 L 586.5746 83.8649 L 591.5393 86.9755 L 594.7867 90.1975 L 597.3159 91.2969 L 600.4455 91.4809 L 605.3913 91.7579 L 605.8739 91.6093 L 606.7414 94.0596 L 607.704 98.4637 L 608.1777 99.8147 L 608.1118 99.8569 L 609.8305 109.648 L 610.6031 111.8585 L 612.9373 116.9212 L 613.5807 119.2195 L 614.5128 123.9462 L 615.1701 126.2529 L 618.1186 132.285 L 619.8056 136.7617 L 622.9732 143.7479 L 624.6437 150.9113 L 625.4708 153.105 L 628.0545 158.0748 L 629.8352 162.4604 L 633.037 168.3809 L 634.8152 172.7732 L 638.0372 178.6432 L 639.4444 181.8061 L 640.512 183.6755 L 642.5207 186.0717 Z" fill="#000000" fill-opacity="1" stroke="#000000" stroke-width="0" paint-order="fill" stroke-opacity="1" stroke-dasharray="" stroke-linecap="butt" stroke-linejoin="miter" stroke-miterlimit="10" clip-path="none"/>
<path data-code="207" d="M 429.1595 399.6821 L 427.9879 404.3277 L 425.6677 409.382 L 424.9191 411.6854 L 424.6658 412.9688 L 424.2745 416.9339 L 423.9528 425.0177 L 423.4208 428.9523 L 422.6939 431.2777 L 420.4584 436.3184 L 418.6828 442.7811 L 417.6455 444.6454 L 416.9109 445.4019 L 410.7442 449.3366 L 407.6513 450.696 L 401.9368 451.9761 L 399.752 452.633 L 395.9588 454.4331 L 393.9817 455.1593 L 391.7273 455.3974 L 390.59 455.2842 L 389.4704 455.0039 L 387.3452 453.9485 L 385.4238 452.5114 L 380.7858 448.5159 L 378.7898 447.1312 L 374.6305 445.076 L 368.8514 441.8523 L 360.8989 439.1453 L 354.0064 436.5633 L 351.6659 436.0212 L 348.0297 435.621 L 341.844 435.4234 L 335.6836 435.5602 L 332.0867 436.0314 L 329.7943 436.7491 L 328.6886 437.308 L 326.6457 438.6978 L 321.9127 442.7304 L 319.9622 444.2199 L 317.9206 445.4121 L 314.8088 446.9522 L 312.7785 448.3082 L 307.0222 453.121 L 305.0413 454.5919 L 298.8227 457.922 L 296.8494 459.403 L 292.0911 463.4829 L 290.1065 464.9588 L 289.0628 465.592 L 284.8491 467.5172 L 281.0166 469.6399 L 279.0244 470.572 L 276.7864 471.2188 L 271.0681 472.4211 L 268.9466 473.279 L 267.0215 474.4222 L 259.2033 479.7011 L 255.4695 477.7152 L 250.007 475.682 L 246.1378 473.7535 L 244.1341 472.9429 L 240.7462 472.3772 L 237.2658 472.5174 L 235.309 467.686 L 233.489 461.8397 L 231.0345 456.8108 L 230.2404 454.5024 L 229.768 451.9085 L 229.5337 449.2404 L 229.4463 445.1858 L 229.6236 441.143 L 230.2467 437.2134 L 231.0623 434.8999 L 233.6537 429.9503 L 235.4901 425.5952 L 238.754 419.7101 L 240.6157 415.3499 L 243.9315 409.4782 L 245.806 405.1619 L 247.8565 401.3353 L 248.6708 399.2836 L 248.9178 398.1116 L 248.971 395.7153 L 248.434 393.4339 L 247.4968 391.4227 L 244.889 387.1283 L 243.4477 385.5578 L 242.3699 384.8874 L 239.9597 384.1275 L 237.3481 383.8185 L 233.2104 383.7306 L 191.4049 384.1157 L 187.138 384.0025 L 182.9686 383.555 L 180.3089 382.8559 L 179.0791 382.3392 L 174.4563 379.8652 L 170.254 377.9587 L 164.5508 374.6387 L 160.3421 372.7136 L 157.4785 371.0688 L 157.4874 365.9149 L 160.674 362.4345 L 162.8385 359.7072 L 164.0239 357.772 L 165.5096 354.3084 L 166.4671 352.4644 L 168.4973 349.6696 L 171.6497 346.1621 L 179.1158 338.4549 L 182.177 334.9002 L 184.0325 332.0294 L 185.5017 328.5608 L 186.4528 326.7151 L 188.4717 323.9169 L 192.4257 319.5347 L 203.3141 308.4383 L 207.1681 304.0071 L 209.021 301.1347 L 210.9031 296.8116 L 212.0847 294.8763 L 214.248 292.1542 L 220.6946 285.2237 L 222.9693 282.5134 L 224.6031 280.0428 L 227.3996 274.3857 L 228.7699 272.4386 L 230.9952 269.8735 L 232.6316 268.3249 L 234.3958 266.9723 L 236.1715 265.9878 L 240.5461 264.066 L 245.3209 261.3759 L 249.4814 259.5336 L 250.4072 258.9324 L 252.0841 257.4733 L 253.4963 255.7306 L 254.4791 253.9017 L 257.6378 244.9043 L 269.0416 244.8385 L 275.663 245.2151 L 279.4461 246.0256 L 283.2748 247.6637 L 286.6514 251.7605 L 289.2997 254.6735 L 292.1088 257.3247 L 294.1087 258.853 L 296.206 260.0334 L 300.3096 261.972 L 305.0477 264.7719 L 309.274 266.6143 L 313.0863 268.7387 L 315.0975 269.6708 L 317.3963 270.2821 L 319.7875 270.5895 L 332.0968 270.8293 L 335.7267 271.113 L 339.1818 271.91 L 344.0655 274.2945 L 345.0774 274.7116 L 347.3483 275.3144 L 350.9262 275.7299 L 358.2455 276.0119 L 361.8449 276.4037 L 364.1526 276.9998 L 365.186 277.4236 L 370.0356 279.9938 L 374.2746 281.8041 L 376.1693 282.9001 L 381.4052 286.3636 L 382.8984 287.7517 L 383.8508 289.6008 L 385.5214 296.0821 L 386.641 298.274 L 388.0949 300.3123 L 389.768 302.1985 L 392.6228 304.6556 L 394.805 305.8782 L 395.9512 306.2751 L 398.3145 306.7344 L 400.726 306.9185 L 409.251 307.1059 L 412.8023 307.6142 L 414.9706 308.3691 L 419.7809 310.9595 L 423.968 312.915 L 426.9988 315.0884 L 429.8168 317.6907 L 446.2132 334.7465 L 445.1405 336.979 L 443.147 342.5314 L 440.733 347.5486 L 439.9769 349.8587 L 439.4044 353.768 L 438.9586 363.1522 L 438.3962 367.0581 L 437.6553 369.3615 L 435.7796 373.3907 L 434.9956 375.5523 L 433.0046 383.7002 L 430.3196 389.913 L 429.5369 393.7835 L 429.1595 399.6821 Z" fill="#000000" fill-opacity="1" stroke="#000000" stroke-width="0" paint-order="fill" stroke-opacity="1" stroke-dasharray="" stroke-linecap="butt" stroke-linejoin="miter" stroke-miterlimit="10" clip-path="none"/>








</svg>