<?xml version="1.0" standalone="no"?>
<!-- Generator: Paintmaps.com , Online SVG vector map maker -->
<svg xmlns="http://www.w3.org/2000/svg" version="1.1" baseProfile="full"   style="background-color:#e0f2f1" width="800" height="500" viewBox="0 0 800 533">

<path data-code="200" d="M 598.1752 230.7001 L 598.1164 229.6478 L 593.2161 228.7397 L 591.501 228.1832 L 590.6625 227.7645 L 589.1097 226.7147 L 587.6982 225.4652 L 586.4233 224.0638 L 585.322 222.5195 L 584.4834 220.8057 L 584.0063 218.8845 L 583.8099 216.9203 L 583.6411 211.1074 L 583.1649 208.502 L 582.3662 207.0791 L 581.8198 206.5909 L 580.5914 205.9421 L 578.0226 204.8986 L 576.9014 203.9602 L 576.0278 202.6903 L 574.0367 199.173 L 573.4068 197.6388 L 572.9686 195.6202 L 572.7959 193.5334 L 572.685 188.3883 L 572.4602 186.4759 L 571.8502 184.7204 L 571.2943 183.9502 L 570.5582 183.3418 L 568.8489 182.6474 L 565.9775 182.3072 L 545.5982 182.5298 L 540.3336 182.9168 L 538.3273 183.3532 L 535.9957 184.2107 L 535.4029 179.6284 L 535.2255 176.5057 L 535.2615 172.3699 L 535.5765 169.3471 L 536.0536 167.4233 L 537.781 163.6214 L 538.3729 162.0038 L 539.8546 155.8722 L 541.8058 151.2519 L 542.2374 149.351 L 542.9365 143.6506 L 543.4933 141.9508 L 543.9543 141.1957 L 545.1021 140.132 L 549.1099 137.7441 L 551.4092 136.8373 L 556.4187 135.7559 L 557.2221 135.4258 L 558.6118 134.5278 L 559.7899 133.3465 L 560.2861 132.6648 L 561.0582 131.099 L 562.52 124.9762 L 562.9705 125.0951 L 563.0635 125.1546 L 564.3289 126.303 L 567.0788 129.3599 L 570.4264 132.575 L 572.8035 134.4785 L 573.7777 135.2588 L 575.4112 137.094 L 581.0609 142.4542 L 582.1679 144.3602 L 581.8008 146.1321 L 581.7752 146.2535 L 581.0828 148.219 L 582.333 150.8093 L 583.2171 152.4105 L 582.7532 153.9219 L 582.0607 155.8873 L 581.5011 159.5994 L 581.2639 160.9616 L 582.8604 166.4368 L 582.1565 169.6924 L 582.1347 171.9664 L 582.9429 173.6435 L 583.9769 175.0942 L 585.4624 176.3969 L 589.7594 180.9122 L 591.3132 182.7474 L 592.184 185.5628 L 598.6732 202.3109 L 600.1853 207.9392 L 599.7034 211.2706 L 598.1733 214.8195 L 597.1024 217.2353 L 598.4902 220.4339 L 598.844 222.3336 L 599.0736 223.4997 L 599.1286 223.7767 L 599.9358 225.1502 L 600.522 226.2936 L 599.6844 227.8771 L 598.6211 229.687 L 598.1752 230.7001 Z" fill="#000000" fill-opacity="1" stroke="#000000" stroke-width="0" paint-order="fill" stroke-opacity="1" stroke-dasharray="" stroke-linecap="butt" stroke-linejoin="miter" stroke-miterlimit="10" clip-path="none" style="filter: url(#f1)"/>
<path data-code="201" d="M 535.9957 184.2107 L 534.4733 185.4793 L 531.6683 187.0312 L 530.1961 188.0531 L 528.1102 189.9224 L 526.2102 192.0422 L 525.1193 193.5802 L 524.6602 194.3934 L 523.2942 197.6553 L 521.3174 201.3509 L 519.6223 205.4463 L 518.7534 206.9438 L 516.601 209.7377 L 513.0818 213.5611 L 511.2662 215.075 L 510.6107 215.4405 L 509.9031 215.6859 L 509.1272 215.7567 L 508.3617 215.6037 L 507.6844 215.2787 L 506.5679 214.2997 L 505.7237 213.0274 L 504.5351 209.9211 L 503.2583 207.752 L 502.1845 206.3911 L 500.9969 205.1149 L 499.0238 203.4404 L 497.5507 202.5993 L 496.8117 202.3198 L 495.2968 201.9429 L 492.2329 201.3813 L 490.7285 200.9272 L 489.9601 200.5782 L 482.4407 195.8264 L 482.8012 193.0553 L 482.953 190.2045 L 482.9283 187.3575 L 482.6551 184.5699 L 482.2206 182.7929 L 481.9162 182.0011 L 480.1641 178.2384 L 479.6917 176.5297 L 478.9945 173.001 L 478.4415 171.2746 L 478.0412 170.4563 L 476.4789 168.1999 L 471.4875 162.6703 L 469.761 160.5215 L 468.8106 158.9962 L 467.3573 155.7748 L 466.4353 154.2558 L 464.7639 152.1031 L 462.2872 149.351 L 457.7273 144.6941 L 455.0011 142.2619 L 452.8127 140.7872 L 449.6691 139.3479 L 448.2501 138.4524 L 446.2789 136.8019 L 444.5088 134.9022 L 443.0698 132.7457 L 442.44 131.0649 L 442.1355 129.2461 L 442.0122 125.5416 L 445.4119 123.9998 L 449.8152 121.6334 L 451.4819 121.1174 L 455.7296 120.1068 L 457.3726 119.3796 L 458.915 118.3703 L 464.0212 114.385 L 467.0481 112.7585 L 468.4615 111.8567 L 470.2496 110.1328 L 471.2095 108.7732 L 472.6836 105.6264 L 475.0731 101.2225 L 476.4096 97.9417 L 478.284 94.2068 L 478.8722 92.4639 L 479.2165 90.501 L 479.4195 87.4605 L 479.3104 72.9244 L 479.6016 68.8771 L 480.0664 66.9509 L 480.7447 65.399 L 483.1512 61.2897 L 484.1909 60.0895 L 483.7763 59.6341 L 493.0269 56.4241 L 494.0381 56.1257 L 496.2198 55.4819 L 496.5708 55.3782 L 502.3771 53.6657 L 503.3237 53.5265 L 504.8642 53.2989 L 506.1847 53.3925 L 507.1968 53.4646 L 509.389 54.1905 L 509.5265 54.2361 L 509.9686 54.5725 L 511.3535 55.6235 L 513.0495 56.9111 L 514.7741 57.9836 L 515.9873 58.4149 L 516.0897 58.4516 L 516.2444 58.506 L 516.3364 58.5388 L 516.7272 58.678 L 519.5065 59.605 L 522.7346 60.9154 L 524.6773 63.0516 L 526.1703 64.9576 L 527.2849 67.0128 L 528.3198 69.8257 L 529.1223 73.5479 L 531.2016 77.3549 L 531.1494 77.4574 L 527.7725 84.0835 L 526.4729 87.2606 L 525.8544 89.8357 L 526.287 92.6448 L 527.0999 94.6975 L 528.3634 96.4227 L 529.11 97.4421 L 530.3763 99.0433 L 531.0413 100.5648 L 531.2433 104.306 L 531.3078 105.4974 L 530.9815 109.3626 L 531.4198 111.1105 L 533.5825 113.2492 L 534.8242 113.7412 L 535.529 114.0207 L 538.3017 114.724 L 540.7718 115.651 L 544.2104 117.6481 L 549.2901 120.7961 L 551.1598 121.722 L 553.0313 122.1912 L 557.6784 122.9867 L 559.6277 123.1537 L 560.749 123.6937 L 562.9705 125.0951 L 562.52 124.9762 L 561.0582 131.099 L 560.2861 132.6648 L 559.7899 133.3465 L 558.6118 134.5278 L 557.2221 135.4258 L 556.4187 135.7559 L 551.4092 136.8373 L 549.1099 137.7441 L 545.1021 140.132 L 543.9543 141.1957 L 543.4933 141.9508 L 542.9365 143.6506 L 542.2374 149.351 L 541.8058 151.2519 L 539.8546 155.8722 L 538.3729 162.0038 L 537.781 163.6214 L 536.0536 167.4233 L 535.5765 169.3471 L 535.2615 172.3699 L 535.2255 176.5057 L 535.4029 179.6284 L 535.9957 184.2107 Z" fill="#000000" fill-opacity="1" stroke="#000000" stroke-width="0" paint-order="fill" stroke-opacity="1" stroke-dasharray="" stroke-linecap="butt" stroke-linejoin="miter" stroke-miterlimit="10" clip-path="none" style="filter: url(#f1)"/>
<path data-code="202" d="M 578.827 379.4414 L 577.1708 379.9992 L 575.6369 380.7517 L 574.2587 381.6864 L 569.751 385.286 L 568.1232 386.2345 L 566.4689 386.8264 L 561.431 388.133 L 557.0002 390.2085 L 554.1715 390.8244 L 551.2119 391.0255 L 547.188 391.0192 L 542.2421 390.7574 L 542.281 387.2249 L 542.1103 385.3745 L 541.654 383.5785 L 541.2974 382.7792 L 540.3782 381.3108 L 538.684 379.3402 L 537.4262 378.1539 L 536.0887 377.0864 L 534.6677 376.1947 L 532.2991 375.1488 L 530.7757 374.3406 L 528.666 372.7369 L 526.6674 370.8852 L 524.0673 368.2697 L 518.2715 362.2645 L 515.7881 359.5592 L 514.1139 357.4356 L 513.2023 355.9204 L 511.8581 352.6459 L 509.8784 348.9616 L 508.5476 345.744 L 507.7479 344.1302 L 506.714 342.6175 L 505.5415 341.1769 L 503.6482 339.0938 L 500.994 336.4429 L 498.8929 334.6507 L 497.3866 333.673 L 494.2136 332.2678 L 490.6184 330.2948 L 489.0267 329.694 L 484.724 328.8352 L 483.0469 328.3394 L 481.5652 327.6173 L 478.7099 325.987 L 475.5265 324.6299 L 471.9437 322.6113 L 470.3615 321.9928 L 467.7889 321.4401 L 468.6948 317.9797 L 470.37 314.3004 L 470.7627 312.6689 L 470.8092 311.8012 L 470.7514 310.9361 L 470.3397 309.3198 L 468.9728 306.4184 L 468.3913 304.8032 L 467.9018 302.0852 L 467.7017 299.2534 L 467.733 295.4515 L 468.0754 292.6601 L 468.6047 290.8793 L 469.0145 290.0218 L 470.0304 288.4408 L 472.9426 284.7641 L 474.0069 283.2477 L 476.4182 278.4453 L 477.5109 276.9162 L 479.3996 274.7889 L 481.5007 272.8993 L 483.0336 271.8672 L 486.18 270.4216 L 489.0438 268.8457 L 490.5606 268.1576 L 492.3667 267.696 L 495.1925 267.4228 L 505.8574 267.4848 L 508.7307 267.3899 L 510.6032 267.1673 L 512.4064 266.7019 L 513.9175 266.0063 L 516.767 264.4063 L 519.1167 263.3262 L 520.6467 262.4371 L 522.0715 261.319 L 523.4251 260.0656 L 528.6528 254.7523 L 530.8117 253.0891 L 531.619 252.6705 L 533.3473 252.1519 L 534.2314 252.033 L 536.0024 252.0393 L 537.7354 252.3884 L 538.5664 252.7249 L 539.2949 253.1523 L 540.5556 254.2337 L 541.58 255.5225 L 541.9974 256.2232 L 543.0124 258.539 L 543.7931 259.9948 L 545.3819 261.8704 L 546.6749 262.8785 L 550.4369 264.782 L 554.0045 266.8524 L 557.2022 268.2057 L 561.4993 270.6632 L 564.677 272.0418 L 568.9703 274.5055 L 570.9481 275.377 L 571.1122 275.9828 L 569.8885 279.6873 L 568.6269 279.0689 L 568.0417 277.8509 L 566.9954 278.2973 L 565.2652 280.254 L 560.3913 284.3063 L 557.169 286.7827 L 553.5075 288.4965 L 552.3104 289.2452 L 551.9831 292.9574 L 549.6695 293.7744 L 549.9446 296.7327 L 551.7204 298.0354 L 552.5276 299.4823 L 555.7186 300.5688 L 557.132 300.5802 L 560.8267 303.7193 L 561.0582 304.0368 L 562.446 305.9365 L 562.6651 306.2362 L 565.3278 308.079 L 566.3541 309.7561 L 567.8861 313.3316 L 566.5344 314.8367 L 568.4268 319.5531 L 566.614 322.949 L 565.3373 324.5299 L 564.8317 325.2445 L 564.0586 326.3386 L 562.3151 330.4175 L 562.2923 333.2227 L 561.8237 335.9471 L 561.6406 340.1158 L 567.4412 347.8967 L 571.1729 354.1459 L 572.2581 357.2636 L 573.1393 358.3323 L 573.1223 360.227 L 576.6671 362.1545 L 578.1791 362.582 L 579.9966 363.0955 L 581.1207 363.8758 L 581.9868 364.4779 L 583.5282 366.2359 L 583.6638 367.6019 L 583.4134 370.631 L 583.9247 371.3937 L 583.2427 372.9797 L 583.4514 374.634 L 583.588 375.7116 L 581.3588 376.2972 L 579.731 375.9026 L 578.1004 375.8874 L 577.6536 376.1113 L 577.9297 378.3879 L 578.827 379.4414 Z" fill="#000000" fill-opacity="1" stroke="#000000" stroke-width="0" paint-order="fill" stroke-opacity="1" stroke-dasharray="" stroke-linecap="butt" stroke-linejoin="miter" stroke-miterlimit="10" clip-path="none" style="filter: url(#f1)"/>
<path data-code="203" d="M 405.7119 460.2808 L 399.879 460.5591 L 396.9413 461.2142 L 384.9911 467.1156 L 383.1499 467.6241 L 376.7934 468.6334 L 375.3079 469.2152 L 373.1366 470.7531 L 371.6625 471.3311 L 369.0596 471.7713 L 362.3181 472.3518 L 357.4025 473.1739 L 359.9466 464.4621 L 362.2412 459.9659 L 363.6631 456.7217 L 364.6573 455.1382 L 365.8316 453.6471 L 374.5263 444.5242 L 375.767 443.0697 L 376.8731 441.5419 L 377.742 439.9306 L 378.7845 437.5035 L 380.6968 433.7939 L 381.2897 432.07 L 381.6378 430.1463 L 381.9044 426.1673 L 381.9224 421.1246 L 381.764 418.136 L 381.2546 415.2409 L 380.9349 414.3214 L 380.047 412.6607 L 375.509 406.7302 L 374.6487 405.1353 L 373.5976 402.7032 L 371.6644 398.9911 L 371.064 397.3506 L 369.9171 392.0651 L 369.3309 390.45 L 367.5723 386.6608 L 367.1312 384.8838 L 366.9139 383.041 L 366.858 381.1716 L 366.9386 379.3048 L 367.1767 377.4696 L 367.6358 375.7065 L 369.4153 371.9451 L 370.2027 369.4181 L 370.5717 366.652 L 371.1816 359.0495 L 373.7987 356.6034 L 376.8731 353.5161 L 394.4503 335.2552 L 396.8739 332.842 L 398.7379 331.2889 L 400.0337 330.5376 L 401.0657 330.2341 L 402.5189 330.2581 L 406.0192 329.1211 L 407.6773 328.3799 L 409.1192 327.4566 L 411.7695 325.2445 L 415.1521 324.363 L 418.8336 322.5809 L 420.413 321.9776 L 424.6674 320.9709 L 426.3245 320.4574 L 430.763 318.3844 L 432.6886 317.8873 L 435.7164 317.556 L 447.1848 317.4523 L 450.298 317.5395 L 453.3496 317.795 L 456.2542 318.4565 L 459.9375 320.1816 L 461.534 320.7407 L 464.1644 321.196 L 467.7889 321.4401 L 470.3615 321.9928 L 471.9437 322.6113 L 475.5265 324.6299 L 478.7099 325.987 L 481.5652 327.6173 L 483.0469 328.3394 L 484.724 328.8352 L 489.0267 329.694 L 490.6184 330.2948 L 494.2136 332.2678 L 497.3866 333.673 L 498.8929 334.6507 L 500.994 336.4429 L 503.6482 339.0938 L 505.5415 341.1769 L 506.714 342.6175 L 507.7479 344.1302 L 508.5476 345.744 L 509.8784 348.9616 L 511.8581 352.6459 L 513.2023 355.9204 L 514.1139 357.4356 L 515.7881 359.5592 L 518.2715 362.2645 L 524.0673 368.2697 L 526.6674 370.8852 L 528.666 372.7369 L 530.7757 374.3406 L 532.2991 375.1488 L 534.6677 376.1947 L 536.0887 377.0864 L 537.4262 378.1539 L 538.684 379.3402 L 540.3782 381.3108 L 541.2974 382.7792 L 541.654 383.5785 L 542.1103 385.3745 L 542.281 387.2249 L 542.2421 390.7574 L 536.6351 390.9458 L 523.9725 390.8535 L 520.1269 390.9395 L 517.3295 391.3278 L 516.4322 391.5909 L 514.9145 392.2713 L 511.5802 394.2595 L 510.3432 395.1651 L 509.812 395.7747 L 509.4117 396.5032 L 509.1518 397.2861 L 508.9545 398.9392 L 509.2676 401.4662 L 509.8348 403.0067 L 511.2624 405.7804 L 511.731 407.3828 L 511.8126 408.2606 L 511.6181 410.0477 L 510.902 411.7703 L 509.8528 413.3007 L 508.6026 414.6717 L 507.1968 415.8682 L 505.6269 416.7991 L 504.7665 417.1115 L 503.0363 417.3075 L 502.1883 417.2203 L 500.6393 416.7321 L 497.9586 415.2472 L 496.4693 414.6553 L 494.0201 414.3201 L 492.4151 414.5149 L 491.6505 414.7792 L 490.9381 415.189 L 490.3377 415.7367 L 489.4394 417.0116 L 487.8638 419.6992 L 486.8108 421.9897 L 486.4229 423.7958 L 486.3697 426.567 L 486.6496 428.3908 L 486.9038 429.2761 L 490.6592 436.9773 L 491.6657 438.5482 L 495.2134 442.9496 L 496.2966 444.4711 L 500.1223 452.2141 L 500.6876 453.8924 L 501.0946 456.6458 L 501.2037 459.4853 L 501.16 464.2901 L 497.7869 463.3959 L 494.1111 461.6202 L 492.4302 461.0333 L 490.5302 460.6704 L 484.7154 459.9747 L 482.86 459.4928 L 479.1653 457.7664 L 477.4891 457.1859 L 475.5939 456.8191 L 470.7447 456.2525 L 468.8532 455.8794 L 467.1828 455.2938 L 464.2536 453.8709 L 462.5888 453.3018 L 459.763 452.8553 L 453.933 452.5138 L 451.0749 452.1584 L 449.2688 451.6689 L 444.8807 449.6162 L 443.1846 449.2064 L 441.4335 449.0686 L 439.6777 449.1811 L 437.9703 449.5745 L 433.5831 451.6639 L 426.8557 453.5117 L 423.1771 455.2837 L 421.4934 455.8604 L 419.5915 456.207 L 414.713 456.6952 L 411.8473 457.3124 L 410.3817 457.922 L 405.7119 460.2808 Z" fill="#000000" fill-opacity="1" stroke="#000000" stroke-width="0" paint-order="fill" stroke-opacity="1" stroke-dasharray="" stroke-linecap="butt" stroke-linejoin="miter" stroke-miterlimit="10" clip-path="none" style="filter: url(#f1)"/>
<path data-code="204" d="M 467.7889 321.4401 L 464.1644 321.196 L 461.534 320.7407 L 459.9375 320.1816 L 456.2542 318.4565 L 453.3496 317.795 L 450.298 317.5395 L 447.1848 317.4523 L 435.7164 317.556 L 432.6886 317.8873 L 430.763 318.3844 L 426.3245 320.4574 L 424.6674 320.9709 L 420.413 321.9776 L 418.8336 322.5809 L 415.1521 324.363 L 411.7695 325.2445 L 408.0416 321.3807 L 408.0871 315.0947 L 408.2835 313.0546 L 408.6999 311.0866 L 409.0347 310.1532 L 409.9169 308.547 L 412.5606 305.0448 L 413.4134 303.6257 L 413.8545 302.0473 L 413.8355 301.2897 L 413.4722 299.8567 L 411.6225 295.4135 L 410.764 293.8136 L 406.7107 288.5939 L 405.654 287.0471 L 403.0492 281.5149 L 400.6189 277.4525 L 399.5878 276.2864 L 398.0796 275.5186 L 396.3712 275.1759 L 389.8364 274.9811 L 387.0485 274.5523 L 385.4113 273.8365 L 384.0795 272.8234 L 382.9649 271.5751 L 382.0855 270.0991 L 379.2455 263.9965 L 378.682 262.2195 L 378.3681 260.2161 L 378.1812 255.0407 L 378.3614 236.088 L 378.222 232.9918 L 377.9763 230.9783 L 377.1956 228.2578 L 375.749 225.2501 L 375.1533 223.673 L 373.2324 215.3647 L 377.4384 217.4174 L 381.4908 219.8546 L 383.2115 220.5401 L 384.973 220.9056 L 387.6803 221.0954 L 390.3875 220.9461 L 392.1509 220.6097 L 393.7778 220.0102 L 401.2706 215.9616 L 403.5017 214.1075 L 409.103 208.545 L 411.4138 206.7945 L 412.2723 206.3519 L 413.9987 205.808 L 416.6841 205.5045 L 419.3923 205.593 L 421.1681 205.8548 L 422.8755 206.338 L 426.5285 208.1668 L 428.1098 208.76 L 429.8362 209.1331 L 435.1739 209.8085 L 436.905 210.1879 L 438.4882 210.79 L 441.3795 212.309 L 442.9788 212.911 L 445.5902 213.3663 L 447.3385 213.4308 L 449.0383 213.3005 L 450.6348 212.9123 L 452.0235 212.1344 L 453.011 210.9582 L 454.7526 208.1984 L 456.4837 206.0787 L 458.4938 204.136 L 460.0125 203.0635 L 461.7503 202.3185 L 463.6275 201.9454 L 471.3736 201.6545 L 474.2089 201.227 L 475.886 200.5858 L 477.3288 199.7244 L 480.1025 197.7097 L 482.4407 195.8264 L 489.9601 200.5782 L 490.7285 200.9272 L 492.2329 201.3813 L 495.2968 201.9429 L 496.8117 202.3198 L 497.5507 202.5993 L 499.0238 203.4404 L 500.9969 205.1149 L 502.1845 206.3911 L 503.2583 207.752 L 504.5351 209.9211 L 505.7237 213.0274 L 506.5679 214.2997 L 507.6844 215.2787 L 508.3617 215.6037 L 509.1272 215.7567 L 509.9031 215.6859 L 510.6107 215.4405 L 511.2662 215.075 L 513.0818 213.5611 L 516.601 209.7377 L 518.7534 206.9438 L 519.6223 205.4463 L 521.3174 201.3509 L 523.2942 197.6553 L 524.6602 194.3934 L 525.1193 193.5802 L 526.2102 192.0422 L 528.1102 189.9224 L 530.1961 188.0531 L 531.6683 187.0312 L 534.4733 185.4793 L 535.9957 184.2107 L 538.3273 183.3532 L 540.3336 182.9168 L 545.5982 182.5298 L 565.9775 182.3072 L 568.8489 182.6474 L 570.5582 183.3418 L 571.2943 183.9502 L 571.8502 184.7204 L 572.4602 186.4759 L 572.685 188.3883 L 572.7959 193.5334 L 572.9686 195.6202 L 573.4068 197.6388 L 574.0367 199.173 L 576.0278 202.6903 L 576.9014 203.9602 L 578.0226 204.8986 L 580.5914 205.9421 L 581.8198 206.5909 L 582.3662 207.0791 L 583.1649 208.502 L 583.6411 211.1074 L 583.8099 216.9203 L 584.0063 218.8845 L 584.4834 220.8057 L 585.322 222.5195 L 586.4233 224.0638 L 587.6982 225.4652 L 589.1097 226.7147 L 590.6625 227.7645 L 591.501 228.1832 L 593.2161 228.7397 L 598.1164 229.6478 L 598.1752 230.7001 L 597.8565 231.4222 L 595.467 231.4741 L 594.6456 231.5424 L 593.1203 234.7878 L 592.8689 237.5906 L 591.945 240.4629 L 589.2776 246.2758 L 584.7158 255.3316 L 581.9147 259.8544 L 578.9883 261.9501 L 577.0968 265.0412 L 573.6544 266.6032 L 573.9371 268.274 L 575.137 275.7147 L 573.201 275.6223 L 571.1312 273.7834 L 570.6797 274.3867 L 570.9481 275.377 L 568.9703 274.5055 L 564.677 272.0418 L 561.4993 270.6632 L 557.2022 268.2057 L 554.0045 266.8524 L 550.4369 264.782 L 546.6749 262.8785 L 545.3819 261.8704 L 543.7931 259.9948 L 543.0124 258.539 L 541.9974 256.2232 L 541.58 255.5225 L 540.5556 254.2337 L 539.2949 253.1523 L 538.5664 252.7249 L 537.7354 252.3884 L 536.0024 252.0393 L 534.2314 252.033 L 533.3473 252.1519 L 531.619 252.6705 L 530.8117 253.0891 L 528.6528 254.7523 L 523.4251 260.0656 L 522.0715 261.319 L 520.6467 262.4371 L 519.1167 263.3262 L 516.767 264.4063 L 513.9175 266.0063 L 512.4064 266.7019 L 510.6032 267.1673 L 508.7307 267.3899 L 505.8574 267.4848 L 495.1925 267.4228 L 492.3667 267.696 L 490.5606 268.1576 L 489.0438 268.8457 L 486.18 270.4216 L 483.0336 271.8672 L 481.5007 272.8993 L 479.3996 274.7889 L 477.5109 276.9162 L 476.4182 278.4453 L 474.0069 283.2477 L 472.9426 284.7641 L 470.0304 288.4408 L 469.0145 290.0218 L 468.6047 290.8793 L 468.0754 292.6601 L 467.733 295.4515 L 467.7017 299.2534 L 467.9018 302.0852 L 468.3913 304.8032 L 468.9728 306.4184 L 470.3397 309.3198 L 470.7514 310.9361 L 470.8092 311.8012 L 470.7627 312.6689 L 470.37 314.3004 L 468.6948 317.9797 L 467.7889 321.4401 Z" fill="#000000" fill-opacity="1" stroke="#000000" stroke-width="0" paint-order="fill" stroke-opacity="1" stroke-dasharray="" stroke-linecap="butt" stroke-linejoin="miter" stroke-miterlimit="10" clip-path="none" style="filter: url(#f1)"/>
<path data-code="205" d="M 357.4025 473.1739 L 355.5566 474.4324 L 354.2399 475.042 L 349.2513 476.3953 L 347.6947 476.9986 L 343.9991 478.7528 L 342.119 479.241 L 339.167 479.5813 L 336.1439 479.6989 L 327.027 479.6078 L 324.0779 479.2663 L 321.4266 478.4367 L 317.8277 476.4813 L 314.7021 474.9838 L 313.1512 473.9821 L 309.3967 471.1541 L 306.1801 469.3315 L 302.5347 460.5426 L 301.1554 458.3786 L 297.9056 454.3338 L 296.938 452.9249 L 296.1498 451.378 L 295.149 448.9231 L 292.7757 444.4977 L 291.422 441.227 L 290.5095 439.7105 L 289.4205 438.28 L 287.6154 436.2248 L 284.4319 432.8757 L 279.2641 427.556 L 276.6422 425.0037 L 275.2886 423.8262 L 273.8761 422.7827 L 272.3622 421.9505 L 270.0163 420.8616 L 267.8536 419.3514 L 265.1786 416.8649 L 258.7557 410.1578 L 256.7248 408.3453 L 255.2507 407.3424 L 254.4558 406.949 L 252.7427 406.4381 L 250.9783 406.1838 L 246.519 405.8069 L 243.9455 405.2403 L 240.2831 403.4519 L 238.6875 402.879 L 236.0571 402.4363 L 231.5751 402.0215 L 228.9807 401.4422 L 224.5461 399.3528 L 222.888 398.8886 L 219.4996 398.2082 L 217.8643 397.6213 L 216.4775 396.7145 L 215.2946 395.5483 L 214.3403 394.1925 L 212.9042 391.0457 L 212.0504 389.6077 L 208.3614 384.8091 L 206.9841 382.6413 L 205.5802 379.3769 L 203.1082 374.9768 L 201.7716 371.7149 L 200.2757 368.8287 L 199.6961 367.3046 L 199.4789 365.558 L 199.7008 363.8075 L 200.2804 362.2645 L 201.6739 359.3517 L 202.1994 357.6696 L 202.6026 355.9166 L 204.3233 355.5625 L 205.9966 355.0641 L 209.66 353.2365 L 211.2403 352.6332 L 215.5222 351.6885 L 217.1908 351.1889 L 220.8618 349.398 L 222.4677 348.8364 L 224.2103 348.5088 L 230.451 347.8435 L 232.1604 347.3857 L 232.9268 347.0644 L 236.539 345.1129 L 239.7139 343.7305 L 243.9901 341.2275 L 247.1641 339.8325 L 251.4564 337.3586 L 254.637 335.9749 L 258.9312 333.5048 L 262.1118 332.1224 L 266.406 329.6523 L 269.5866 328.2699 L 273.8809 325.801 L 277.0643 324.4212 L 281.3728 321.9738 L 284.5752 320.6306 L 288.1589 318.5931 L 291.9675 316.7731 L 293.3078 315.8005 L 295.002 313.9526 L 295.8699 312.464 L 296.902 310.0774 L 298.746 306.3589 L 299.2602 304.6641 L 299.485 302.8302 L 299.4869 300.9659 L 299.2013 298.0392 L 310.9951 298.0633 L 315.5606 298.3364 L 318.1606 298.9372 L 321.825 300.7408 L 323.3902 301.339 L 327.6569 302.2762 L 329.334 302.7834 L 337.5904 307.0267 L 339.7257 308.7253 L 344.4335 313.2519 L 346.5043 315.0757 L 348.6822 316.5783 L 351.6968 318.096 L 352.9973 319.0889 L 354.1195 320.3182 L 354.5928 321.0164 L 355.3118 322.6239 L 355.7045 324.3971 L 356.2139 329.8724 L 356.4862 331.6228 L 357.6748 335.3071 L 357.8863 336.7591 L 357.8076 337.4989 L 357.3665 338.918 L 355.1458 344.2288 L 352.6236 348.6037 L 351.1637 351.8592 L 349.5027 354.7707 L 348.7714 356.3125 L 348.2923 358.0832 L 348.096 359.888 L 348.1719 361.6726 L 348.6234 363.3851 L 349.4932 364.7624 L 350.6818 365.7553 L 351.3838 366.0702 L 352.1483 366.2233 L 352.9034 366.1777 L 354.2333 365.7022 L 356.1343 364.6663 L 359.1621 363.2637 L 361.9889 361.5676 L 363.4715 360.8088 L 365.1695 360.2598 L 371.1816 359.0495 L 370.5717 366.652 L 370.2027 369.4181 L 369.4153 371.9451 L 367.6358 375.7065 L 367.1767 377.4696 L 366.9386 379.3048 L 366.858 381.1716 L 366.9139 383.041 L 367.1312 384.8838 L 367.5723 386.6608 L 369.3309 390.45 L 369.9171 392.0651 L 371.064 397.3506 L 371.6644 398.9911 L 373.5976 402.7032 L 374.6487 405.1353 L 375.509 406.7302 L 380.047 412.6607 L 380.9349 414.3214 L 381.2546 415.2409 L 381.764 418.136 L 381.9224 421.1246 L 381.9044 426.1673 L 381.6378 430.1463 L 381.2897 432.07 L 380.6968 433.7939 L 378.7845 437.5035 L 377.742 439.9306 L 376.8731 441.5419 L 375.767 443.0697 L 374.5263 444.5242 L 365.8316 453.6471 L 364.6573 455.1382 L 363.6631 456.7217 L 362.2412 459.9659 L 359.9466 464.4621 L 357.4025 473.1739 Z" fill="#000000" fill-opacity="1" stroke="#000000" stroke-width="0" paint-order="fill" stroke-opacity="1" stroke-dasharray="" stroke-linecap="butt" stroke-linejoin="miter" stroke-miterlimit="10" clip-path="none" style="filter: url(#f1)"/>
<path data-code="206" d="M 371.1816 359.0495 L 365.1695 360.2598 L 363.4715 360.8088 L 361.9889 361.5676 L 359.1621 363.2637 L 356.1343 364.6663 L 354.2333 365.7022 L 352.9034 366.1777 L 352.1483 366.2233 L 351.3838 366.0702 L 350.6818 365.7553 L 349.4932 364.7624 L 348.6234 363.3851 L 348.1719 361.6726 L 348.096 359.888 L 348.2923 358.0832 L 348.7714 356.3125 L 349.5027 354.7707 L 351.1637 351.8592 L 352.6236 348.6037 L 355.1458 344.2288 L 357.3665 338.918 L 357.8076 337.4989 L 357.8863 336.7591 L 357.6748 335.3071 L 356.4862 331.6228 L 356.2139 329.8724 L 355.7045 324.3971 L 355.3118 322.6239 L 354.5928 321.0164 L 354.1195 320.3182 L 352.9973 319.0889 L 351.6968 318.096 L 348.6822 316.5783 L 346.5043 315.0757 L 344.4335 313.2519 L 339.7257 308.7253 L 337.5904 307.0267 L 329.334 302.7834 L 327.6569 302.2762 L 323.3902 301.339 L 321.825 300.7408 L 318.1606 298.9372 L 315.5606 298.3364 L 310.9951 298.0633 L 299.2013 298.0392 L 300.4421 291.6622 L 302.6665 286.1794 L 303.1484 284.1507 L 303.5155 279.8808 L 303.598 271.1197 L 303.8741 266.8119 L 304.5381 263.7562 L 306.1554 260.1187 L 306.7985 258.2329 L 307.158 256.2675 L 307.3117 254.2514 L 307.2055 251.2122 L 306.5614 248.2602 L 305.6887 246.3921 L 301.6345 239.5054 L 306.4371 240.1252 L 310.4648 240.3364 L 314.4403 240.2251 L 317.3211 239.7103 L 318.2384 239.3764 L 319.8472 238.467 L 324.8662 234.3527 L 326.3754 233.3321 L 329.4877 231.8055 L 333.7534 229.2873 L 336.9293 227.9087 L 340.5548 225.99 L 343.0315 225.216 L 349.258 224.5166 L 351.841 223.9348 L 356.2927 221.8833 L 357.9584 221.3888 L 361.3837 220.6502 L 363.0561 220.1316 L 367.4508 217.8588 L 370.5242 216.6383 L 373.2324 215.3647 L 375.1533 223.673 L 375.749 225.2501 L 377.1956 228.2578 L 377.9763 230.9783 L 378.222 232.9918 L 378.3614 236.088 L 378.1812 255.0407 L 378.3681 260.2161 L 378.682 262.2195 L 379.2455 263.9965 L 382.0855 270.0991 L 382.9649 271.5751 L 384.0795 272.8234 L 385.4113 273.8365 L 387.0485 274.5523 L 389.8364 274.9811 L 396.3712 275.1759 L 398.0796 275.5186 L 399.5878 276.2864 L 400.6189 277.4525 L 403.0492 281.5149 L 405.654 287.0471 L 406.7107 288.5939 L 410.764 293.8136 L 411.6225 295.4135 L 413.4722 299.8567 L 413.8355 301.2897 L 413.8545 302.0473 L 413.4134 303.6257 L 412.5606 305.0448 L 409.9169 308.547 L 409.0347 310.1532 L 408.6999 311.0866 L 408.2835 313.0546 L 408.0871 315.0947 L 408.0416 321.3807 L 411.7695 325.2445 L 409.1192 327.4566 L 407.6773 328.3799 L 406.0192 329.1211 L 402.5189 330.2581 L 401.0657 330.2341 L 400.0337 330.5376 L 398.7379 331.2889 L 396.8739 332.842 L 394.4503 335.2552 L 376.8731 353.5161 L 373.7987 356.6034 L 371.1816 359.0495 Z" fill="#000000" fill-opacity="1" stroke="#000000" stroke-width="0" paint-order="fill" stroke-opacity="1" stroke-dasharray="" stroke-linecap="butt" stroke-linejoin="miter" stroke-miterlimit="10" clip-path="none" style="filter: url(#f1)"/>
<path data-code="207" d="M 389.1933 149.7835 L 391.3541 146.4192 L 392.9297 144.4259 L 395.3723 142.0229 L 397.4156 140.5924 L 400.5715 139.1733 L 404.8553 136.7083 L 408.0444 135.3626 L 410.9063 133.755 L 412.3975 133.0379 L 414.0897 132.5459 L 418.4523 131.7908 L 422.2608 130.6867 L 424.5004 130.1795 L 428.8886 126.6217 L 430.3152 125.7376 L 431.9326 125.0901 L 433.6941 124.7448 L 436.4099 124.6436 L 439.1418 124.9117 L 442.0122 125.5416 L 442.1355 129.2461 L 442.44 131.0649 L 443.0698 132.7457 L 444.5088 134.9022 L 446.2789 136.8019 L 448.2501 138.4524 L 449.6691 139.3479 L 452.8127 140.7872 L 455.0011 142.2619 L 457.7273 144.6941 L 462.2872 149.351 L 464.7639 152.1031 L 466.4353 154.2558 L 467.3573 155.7748 L 468.8106 158.9962 L 469.761 160.5215 L 471.4875 162.6703 L 476.4789 168.1999 L 478.0412 170.4563 L 478.4415 171.2746 L 478.9945 173.001 L 479.6917 176.5297 L 480.1641 178.2384 L 481.9162 182.0011 L 482.2206 182.7929 L 482.6551 184.5699 L 482.9283 187.3575 L 482.953 190.2045 L 482.8012 193.0553 L 482.4407 195.8264 L 480.1025 197.7097 L 477.3288 199.7244 L 475.886 200.5858 L 474.2089 201.227 L 471.3736 201.6545 L 463.6275 201.9454 L 461.7503 202.3185 L 460.0125 203.0635 L 458.4938 204.136 L 456.4837 206.0787 L 454.7526 208.1984 L 453.011 210.9582 L 452.0235 212.1344 L 450.6348 212.9123 L 449.0383 213.3005 L 447.3385 213.4308 L 445.5902 213.3663 L 442.9788 212.911 L 441.3795 212.309 L 438.4882 210.79 L 436.905 210.1879 L 435.1739 209.8085 L 429.8362 209.1331 L 428.1098 208.76 L 426.5285 208.1668 L 422.8755 206.338 L 421.1681 205.8548 L 419.3923 205.593 L 416.6841 205.5045 L 413.9987 205.808 L 412.2723 206.3519 L 411.4138 206.7945 L 409.103 208.545 L 403.5017 214.1075 L 401.2706 215.9616 L 393.7778 220.0102 L 392.1509 220.6097 L 390.3875 220.9461 L 387.6803 221.0954 L 384.973 220.9056 L 383.2115 220.5401 L 381.4908 219.8546 L 377.4384 217.4174 L 373.2324 215.3647 L 376.0431 211.5792 L 377.4992 209.0509 L 378.0683 207.3283 L 379.3242 202.0934 L 381.0184 198.2965 L 381.5809 196.5473 L 381.9214 194.5465 L 382.1368 191.4364 L 382.1017 174.4163 L 382.2487 171.2784 L 382.4982 169.237 L 382.9763 167.2766 L 384.6714 163.4557 L 385.25 161.8356 L 386.2299 157.4519 L 386.7289 155.7444 L 388.4306 152.05 L 389.1933 149.7835 Z" fill="#000000" fill-opacity="1" stroke="#000000" stroke-width="0" paint-order="fill" stroke-opacity="1" stroke-dasharray="" stroke-linecap="butt" stroke-linejoin="miter" stroke-miterlimit="10" clip-path="none" style="filter: url(#f1)"/>








</svg>