<?xml version="1.0" standalone="no"?>
<!-- Generator: Paintmaps.com , Online SVG vector map maker -->
<svg xmlns="http://www.w3.org/2000/svg" version="1.1" baseProfile="full"   style="background-color:#e0f2f1" width="800" height="500" viewBox="0 0 800 533">

<path data-code="200" d="M 458.0164 345.7361 L 457.9741 330.248 L 458.2324 326.4712 L 458.6599 324.0311 L 459.8133 320.9767 L 461.664 317.4149 L 463.3409 313.4994 L 466.2923 308.2016 L 467.9453 304.2663 L 469.7628 300.6694 L 470.5458 298.784 L 471.2671 295.2526 L 471.7655 289.1806 L 472.1381 286.7999 L 472.8125 284.6844 L 473.6893 282.889 L 475.5697 279.6045 L 476.651 278.056 L 477.3575 277.3854 L 478.2879 276.8154 L 479.3018 276.4298 L 482.626 275.9573 L 490.9557 276.0579 L 493.2567 275.936 L 495.424 275.5122 L 496.4276 275.1084 L 497.3421 274.5185 L 498.5858 273.0554 L 499.506 271.3651 L 501.1417 267.9922 L 502.6495 264.1423 L 511.5747 270.091 L 516.2465 272.3177 L 519.6941 274.2274 L 521.5127 275.0535 L 523.5863 275.593 L 525.7364 275.8643 L 535.607 276.3353 L 538.746 277.0455 L 540.56 277.8792 L 544.003 279.8042 L 547.8038 281.502 L 552.9614 284.4954 L 559.4999 287.0834 L 563.1178 288.2783 L 562.1416 292.5351 L 561.6249 296.0635 L 561.282 300.965 L 561.2225 305.7005 L 561.394 307.9257 L 561.8798 310.0016 L 562.3279 310.9602 L 562.9806 311.8229 L 563.8539 312.5118 L 565.8452 313.2723 L 568.0193 313.5619 L 571.5115 313.6168 L 588.8522 313.1519 L 592.502 313.315 L 596.0319 313.9597 L 598.1843 314.9062 L 600.0773 316.2322 L 608.6287 324.3024 L 610.5023 325.6436 L 612.4901 326.5977 L 619.5635 328.5028 L 624.0079 330.5619 L 626.0289 331.2325 L 629.441 331.7492 L 636.4596 332.1181 L 639.9071 332.5098 L 642.103 333.0691 L 646.5599 335.1206 L 648.5752 335.8171 L 650.8579 336.2606 L 659.0619 337.2742 L 667.2087 339.9734 L 664.4012 345.5669 L 662.3768 349.1516 L 661.5367 351.0309 L 660.7502 354.5516 L 660.1512 360.5978 L 659.742 362.9617 L 659.0687 365.0558 L 657.0066 369.6373 L 655.9664 373.8408 L 651.5849 373.5817 L 648.4003 373.059 L 646.4639 372.3883 L 642.9363 370.6707 L 641.0171 369.9879 L 638.9332 369.5581 L 632.5182 368.7777 L 630.4366 368.3433 L 628.5219 367.656 L 624.0822 365.5572 L 621.9092 364.9994 L 618.4913 364.626 L 609.1374 364.4142 L 605.6876 364.1459 L 602.4035 363.4006 L 597.9843 361.2851 L 594.9071 360.3448 L 590.3359 359.9073 L 580.9763 359.7534 L 578.6787 359.5614 L 576.4428 359.1514 L 574.4366 358.432 L 570.0986 356.0711 L 566.307 354.3428 L 561.1997 351.2442 L 557.424 349.4823 L 553.1375 347.0864 L 551.1908 346.3945 L 549.0818 346.0683 L 545.8845 346.1826 L 543.8121 346.6902 L 542.8862 347.0712 L 538.5882 349.4442 L 534.7943 351.168 L 529.6481 354.1995 L 524.9706 356.4445 L 516.2465 362.3535 L 510.227 357.9641 L 507.0561 356.1793 L 503.6645 355.3136 L 497.8485 354.6293 L 495.5794 354.1919 L 493.3927 353.4283 L 490.2172 351.9057 L 488.0053 351.1314 L 484.5178 350.569 L 480.9102 350.3679 L 462.5087 350.3922 L 458.0164 345.7361 Z" fill="#000000" fill-opacity="1" stroke="#000000" stroke-width="0" paint-order="fill" stroke-opacity="1" stroke-dasharray="" stroke-linecap="butt" stroke-linejoin="miter" stroke-miterlimit="10" transform="matrix(0.8999999761581421,0,0,0.8999999761581421,39.99999237060547,26.650012969970703)" clip-path="none" style="filter: url(#f1)"/>
<path data-code="201" d="M 347.259 408.9566 L 337.8731 411.4912 L 331.498 414.3199 L 329.1433 414.9265 L 326.6914 415.2466 L 320.3838 415.4676 L 293.4663 415.3426 L 280.1207 415.4691 L 276.9475 415.1338 L 274.8522 414.7025 L 272.9067 413.9054 L 270.3759 412.1221 L 267.3913 409.1379 L 265.4549 406.646 L 264.3381 404.8079 L 262.1033 400.5358 L 266.5042 394.2823 L 267.9411 391.6044 L 268.6064 389.5454 L 270.1141 383.2675 L 272.4803 377.7212 L 273.0301 375.4366 L 273.3319 373.062 L 273.8017 364.5041 L 274.323 358.9776 L 285.4372 359.5888 L 288.8974 360.0079 L 291.0978 360.584 L 295.5422 362.669 L 297.5506 363.3777 L 299.8253 363.835 L 306.8016 364.7769 L 309.0192 365.3957 L 313.4327 367.534 L 315.4639 368.258 L 317.7718 368.6908 L 321.3257 368.8768 L 324.8624 368.5613 L 327.1314 367.9608 L 328.949 367.1164 L 332.3885 365.1869 L 336.187 363.4631 L 341.3915 360.5505 L 346.3434 358.7246 L 349.8275 356.9734 L 350.0184 363.0074 L 350.2299 365.257 L 350.6357 367.4456 L 351.3387 369.4529 L 353.6854 373.9094 L 355.3715 377.8066 L 357.2804 381.3075 L 358.1 383.1669 L 358.6064 385.3053 L 358.7299 388.6202 L 358.4178 390.815 L 357.7491 392.8527 L 355.4435 397.3534 L 353.3025 402.1742 L 349.4583 408.1671 L 348.9267 408.6091 L 348.3495 408.8621 L 347.259 408.9566 Z" fill="#000000" fill-opacity="1" stroke="#000000" stroke-width="0" paint-order="fill" stroke-opacity="1" stroke-dasharray="" stroke-linecap="butt" stroke-linejoin="miter" stroke-miterlimit="10" transform="matrix(0.8999999761581421,0,0,0.8999999761581421,39.99999237060547,26.650012969970703)" clip-path="none" style="filter: url(#f1)"/>
<path data-code="202" d="M 577.5344 270.5893 L 570.3089 267.7148 L 564.0745 266.3325 L 562.0558 265.7106 L 556.8171 262.9215 L 552.9946 261.2602 L 549.5127 259.384 L 547.6906 258.5854 L 544.5711 257.9224 L 538.195 257.4484 L 536.1454 257.0369 L 535.1566 256.6665 L 533.474 255.6057 L 532.1149 254.17 L 531.1764 252.399 L 530.9181 251.358 L 530.8301 250.3079 L 531.0941 248.2473 L 531.7845 246.4686 L 533.4409 243.015 L 534.2319 239.6848 L 534.5508 236.1198 L 534.872 225.2193 L 535.3635 221.723 L 536.0208 219.6472 L 538.0418 215.0641 L 538.5985 213.005 L 539.4341 208.7558 L 540.0879 206.6601 L 540.5749 205.6283 L 541.798 203.7094 L 544.0282 201.1276 L 546.6161 198.9313 L 548.5891 197.8279 L 550.8627 197.1664 L 554.3983 196.8174 L 558.0082 196.8158 L 562.8663 197.0826 L 568.1554 197.6983 L 571.476 205.8447 L 572.6306 207.4938 L 574.0766 208.8838 L 575.7855 209.937 L 577.8019 210.5695 L 579.8949 210.8545 L 586.2996 211.3224 L 588.3915 211.8498 L 589.418 212.2979 L 591.3052 213.4638 L 593.7411 215.6189 L 595.0397 217.2634 L 595.9004 219.1747 L 596.041 220.2812 L 595.905 221.3877 L 595.5529 222.3906 L 594.4533 224.1586 L 593.0233 225.7345 L 591.3624 227.158 L 589.4866 228.3651 L 588.4566 228.8407 L 586.175 229.4457 L 582.6303 229.7429 L 577.787 229.6957 L 565.6897 229.1973 L 562.345 229.2537 L 560.3035 229.6134 L 559.3536 230.0157 L 558.4814 230.6757 L 557.8573 231.5094 L 557.4572 232.4269 L 557.176 234.3382 L 557.456 236.2357 L 557.815 237.1395 L 558.3454 237.9732 L 559.0232 238.6499 L 565.484 242.4358 L 570.2929 244.4187 L 574.7098 246.6576 L 576.5765 247.348 L 580.415 248.3037 L 582.1879 249.0048 L 582.9892 249.5382 L 584.2581 250.9632 L 587.277 255.8191 L 588.1091 257.6557 L 588.4018 258.7043 L 588.6624 260.8243 L 588.5287 262.9032 L 588.2955 263.8985 L 587.9262 264.8434 L 587.3901 265.7076 L 585.951 266.9665 L 581.1614 269.5804 L 579.464 270.2418 L 577.5344 270.5893 Z" fill="#000000" fill-opacity="1" stroke="#000000" stroke-width="0" paint-order="fill" stroke-opacity="1" stroke-dasharray="" stroke-linecap="butt" stroke-linejoin="miter" stroke-miterlimit="10" transform="matrix(0.8999999761581421,0,0,0.8999999761581421,39.99999237060547,26.650012969970703)" clip-path="none" style="filter: url(#f1)"/>
<path data-code="203" d="M 505.4786 139.6949 L 499.4477 145.2213 L 487.8156 157.207 L 483.8502 160.9929 L 481.316 162.9225 L 479.6722 163.8156 L 476.6362 165.1797 L 474.9318 166.271 L 472.5588 168.2843 L 471.0922 169.7886 L 469.7422 171.3966 L 468.0687 174.0135 L 466.0271 178.8663 L 462.032 185.7645 L 461.0056 186.8222 L 457.6677 188.9331 L 455.3347 190.8245 L 452.4038 193.7905 L 450.52 196.2855 L 449.6307 197.9681 L 448.347 201.1337 L 446.4837 204.7108 L 445.6607 206.5733 L 445.1486 208.4373 L 444.2913 213.2139 L 443.7609 215.0702 L 442.9082 216.919 L 440.9523 220.487 L 439.9773 222.8051 L 435.5581 224.1936 L 428.1383 225.515 L 426.2122 226.2131 L 421.7781 228.3514 L 414.6567 230.1895 L 412.7694 230.9165 L 408.3251 233.035 L 406.0641 233.6127 L 401.3031 234.0242 L 387.8935 234.0653 L 385.5102 234.265 L 383.1943 234.6978 L 381.1562 235.4401 L 376.8307 237.8101 L 373.0436 239.5171 L 369.5927 241.4223 L 367.7786 242.2453 L 364.6477 242.9708 L 359.1871 243.3076 L 358.1435 239.1132 L 356.0665 234.547 L 355.4001 232.4665 L 354.9131 228.9367 L 354.4742 219.2677 L 353.7757 215.7988 L 352.987 213.9149 L 351.1638 210.3302 L 349.1016 205.482 L 345.2357 198.8719 L 347.6842 195.2978 L 349.8721 192.7419 L 355.9773 186.0967 L 357.3467 184.3516 L 358.515 182.4998 L 360.2308 178.5874 L 362.0723 175.0164 L 362.8713 173.1341 L 363.572 169.9045 L 364.1138 164.3414 L 364.6705 161.0874 L 365.3507 159.1228 L 367.4162 154.5932 L 367.8895 152.4731 L 368.0038 149.1902 L 367.7077 147.0259 L 367.0767 145.0308 L 365.3747 141.44 L 364.7014 139.4724 L 364.1561 136.2199 L 363.6532 130.698 L 363.3548 128.8828 L 362.9627 127.4394 L 362.1397 125.5434 L 360.2433 121.9755 L 358.507 118.0752 L 357.3982 116.3606 L 353.4625 111.6374 L 352.2909 109.9989 L 351.4244 108.1791 L 351.0952 106.4858 L 351.15 104.7758 L 351.6336 102.991 L 353.8912 98.661 L 355.6047 94.7303 L 357.1558 92.1896 L 360.4571 87.6081 L 362.2414 88.4768 L 364.2784 89.1932 L 367.7557 89.7662 L 372.4984 89.8074 L 375.9757 89.2587 L 378.0127 88.5073 L 382.3393 86.1145 L 386.1389 84.3998 L 391.3708 81.5863 L 393.3769 80.9401 L 397.4863 80.0027 L 399.4822 79.3885 L 403.9059 77.2517 L 405.9075 76.5399 L 408.1411 76.0995 L 411.6035 75.7885 L 419.8097 75.7413 L 423.2687 76.0461 L 425.5058 76.5216 L 427.5119 77.3294 L 429.2528 78.375 L 435.9513 83.2019 L 435.6381 91.0252 L 434.9797 96.9631 L 433.4822 98.2967 L 432.4523 99.7401 L 431.7322 101.7077 L 431.5401 102.7578 L 431.4475 104.9145 L 431.7699 107.0742 L 432.6055 109.054 L 433.8469 110.6741 L 435.3626 111.9986 L 436.2028 112.5427 L 440.8266 114.6399 L 445.168 117.0663 L 449.0351 118.6712 L 454.2145 121.6371 L 458.9194 123.7633 L 463.2037 126.2979 L 467.0399 127.9866 L 472.177 131.0196 L 475.9675 132.7098 L 479.4184 134.6165 L 481.236 135.4487 L 483.4501 136.0263 L 485.75 136.3129 L 493.978 136.6421 L 497.4324 137.0643 L 499.4442 137.6145 L 505.4786 139.6949 Z" fill="#000000" fill-opacity="1" stroke="#000000" stroke-width="0" paint-order="fill" stroke-opacity="1" stroke-dasharray="" stroke-linecap="butt" stroke-linejoin="miter" stroke-miterlimit="10" transform="matrix(0.8999999761581421,0,0,0.8999999761581421,39.99999237060547,26.650012969970703)" clip-path="none" style="filter: url(#f1)"/>
<path data-code="204" d="M 349.8275 356.9734 L 349.5589 353.9328 L 349.1771 351.7853 L 348.5427 349.8024 L 346.5697 345.1996 L 346.0381 342.9271 L 345.6792 339.3607 L 345.3774 332.08 L 344.9225 328.5074 L 344.3407 326.4194 L 341.7939 319.8611 L 341.2006 314.9488 L 340.9743 307.2947 L 341.1126 300.93 L 341.3332 298.4381 L 341.7584 296.0178 L 342.4477 293.9023 L 344.0995 290.2551 L 344.7705 288.1807 L 345.1923 285.8336 L 345.861 279.8225 L 346.3548 277.4692 L 346.7446 276.3307 L 348.4123 273.3968 L 352.5572 268.0623 L 353.7597 266.1862 L 358.2441 256.889 L 358.819 254.5404 L 359.0968 252.1018 L 359.1871 243.3076 L 364.6477 242.9708 L 367.7786 242.2453 L 369.5927 241.4223 L 373.0436 239.5171 L 376.8307 237.8101 L 381.1562 235.4401 L 383.1943 234.6978 L 385.5102 234.265 L 387.8935 234.0653 L 401.3031 234.0242 L 406.0641 233.6127 L 408.3251 233.035 L 412.7694 230.9165 L 414.6567 230.1895 L 421.7781 228.3514 L 426.2122 226.2131 L 428.1383 225.515 L 435.5581 224.1936 L 439.9773 222.8051 L 444.4056 225.3428 L 447.8246 227.5375 L 449.6147 228.455 L 451.6391 229.0845 L 455.7851 229.9121 L 457.7992 230.4974 L 462.2047 232.6936 L 464.1113 233.4039 L 469.2884 234.4555 L 471.3162 235.0499 L 473.1132 235.9065 L 476.5573 237.836 L 479.4127 239.0812 L 481.2897 240.1191 L 483.8971 242.1858 L 486.3616 244.5452 L 494.4146 252.8532 L 498.316 257.0506 L 501.0366 260.5241 L 502.0413 262.3621 L 502.6495 264.1423 L 501.1417 267.9922 L 499.506 271.3651 L 498.5858 273.0554 L 497.3421 274.5185 L 496.4276 275.1084 L 495.424 275.5122 L 493.2567 275.936 L 490.9557 276.0579 L 482.626 275.9573 L 479.3018 276.4298 L 478.2879 276.8154 L 477.3575 277.3854 L 476.651 278.056 L 475.5697 279.6045 L 473.6893 282.889 L 472.8125 284.6844 L 472.1381 286.7999 L 471.7655 289.1806 L 471.2671 295.2526 L 470.5458 298.784 L 469.7628 300.6694 L 467.9453 304.2663 L 466.2923 308.2016 L 463.3409 313.4994 L 461.664 317.4149 L 459.8133 320.9767 L 458.6599 324.0311 L 458.2324 326.4712 L 457.9741 330.248 L 458.0164 345.7361 L 455.3816 349.0236 L 454.2499 350.7946 L 453.2966 352.779 L 451.6882 356.8621 L 444.7302 364.0194 L 441.8622 367.4456 L 440.6848 369.2974 L 438.9428 373.1946 L 437.0613 376.7123 L 436.2634 378.5885 L 435.9799 379.6508 L 435.7055 381.8364 L 435.885 385.1269 L 436.4131 387.2272 L 438.5907 391.6578 L 439.2766 393.6178 L 439.4915 394.6862 L 439.6778 396.8733 L 439.5555 399.0742 L 439.3669 400.1578 L 438.705 402.1712 L 436.372 406.6048 L 434.7099 410.5462 L 431.779 415.8913 L 429.7375 420.7578 L 426.3276 426.6943 L 425.2188 428.229 L 423.7351 429.3767 L 417.9968 432.9111 L 413.2724 434.9839 L 407.9845 437.738 L 405.9543 438.3416 L 400.7773 439.4283 L 398.8695 440.14 L 394.4503 442.3332 L 392.4316 442.9307 L 387.2591 444.0326 L 385.3513 444.7536 L 380.931 446.9498 L 378.91 447.5442 L 374.7537 448.4099 L 372.7373 449.0485 L 367.5317 451.9276 L 360.5165 454.9941 L 358.8065 455.2837 L 357.9411 455.174 L 356.3122 454.5765 L 352.372 452.5997 L 347.1058 444.7703 L 346.0713 442.9947 L 344.3578 439.0838 L 342.0693 434.6441 L 341.7047 433.6869 L 341.2292 431.5455 L 341.1423 428.2489 L 341.4646 426.08 L 342.1242 424.0834 L 343.9029 420.5079 L 344.6607 418.5677 L 347.259 408.9566 L 348.3495 408.8621 L 348.9267 408.6091 L 349.4583 408.1671 L 353.3025 402.1742 L 355.4435 397.3534 L 357.7491 392.8527 L 358.4178 390.815 L 358.7299 388.6202 L 358.6064 385.3053 L 358.1 383.1669 L 357.2804 381.3075 L 355.3715 377.8066 L 353.6854 373.9094 L 351.3387 369.4529 L 350.6357 367.4456 L 350.2299 365.257 L 350.0184 363.0074 L 349.8275 356.9734 Z" fill="#000000" fill-opacity="1" stroke="#000000" stroke-width="0" paint-order="fill" stroke-opacity="1" stroke-dasharray="" stroke-linecap="butt" stroke-linejoin="miter" stroke-miterlimit="10" transform="matrix(0.8999999761581421,0,0,0.8999999761581421,39.99999237060547,26.650012969970703)" clip-path="none" style="filter: url(#f1)"/>
<path data-code="205" d="M 439.9773 222.8051 L 440.9523 220.487 L 442.9082 216.919 L 443.7609 215.0702 L 444.2913 213.2139 L 445.1486 208.4373 L 445.6607 206.5733 L 446.4837 204.7108 L 448.347 201.1337 L 449.6307 197.9681 L 450.52 196.2855 L 452.4038 193.7905 L 455.3347 190.8245 L 457.6677 188.9331 L 461.0056 186.8222 L 462.032 185.7645 L 466.0271 178.8663 L 468.0687 174.0135 L 469.7422 171.3966 L 471.0922 169.7886 L 472.5588 168.2843 L 474.9318 166.271 L 476.6362 165.1797 L 479.6722 163.8156 L 481.316 162.9225 L 483.8502 160.9929 L 487.8156 157.207 L 499.4477 145.2213 L 505.4786 139.6949 L 508.2529 142.3392 L 510.1961 144.6468 L 511.2604 146.308 L 513.087 149.9705 L 514.2495 151.5632 L 515.6807 152.941 L 517.369 154.0155 L 518.423 154.4377 L 520.6303 154.9346 L 529.887 155.4436 L 533.2843 155.9527 L 535.2824 156.6309 L 539.7267 158.7235 L 542.0175 159.3423 L 545.6308 159.7874 L 549.3321 159.9337 L 554.2851 159.8697 L 557.9384 159.5633 L 561.418 158.754 L 565.852 156.6355 L 568.8035 155.689 L 577.5253 154.581 L 581.9993 153.7991 L 588.4315 156.1203 L 593.7274 158.8195 L 599.7904 160.6988 L 603.5454 162.1132 L 604.2187 163.4757 L 605.3481 164.4344 L 610.756 167.571 L 612.5644 168.2203 L 613.9247 168.5114 L 616.22 170.4379 L 617.6169 171.863 L 618.7314 173.4252 L 619.5361 175.3319 L 619.7819 176.4064 L 619.9888 178.6087 L 619.9088 180.8659 L 619.4835 184.2815 L 617.0522 185.8452 L 615.3661 186.717 L 613.3429 187.3907 L 608.215 188.5993 L 606.3643 189.3141 L 602.9442 190.9541 L 601.0375 191.4235 L 599.0188 191.3961 L 598.03 191.1888 L 596.2811 190.4862 L 592.869 188.7731 L 590.8457 188.1695 L 588.7093 187.8037 L 585.4069 187.5218 L 582.0782 187.4593 L 578.7918 187.6909 L 576.6645 188.1543 L 575.638 188.5444 L 573.6914 189.7317 L 571.2371 192.1109 L 569.319 194.9442 L 568.1554 197.6983 L 562.8663 197.0826 L 558.0082 196.8158 L 554.3983 196.8174 L 550.8627 197.1664 L 548.5891 197.8279 L 546.6161 198.9313 L 544.0282 201.1276 L 541.798 203.7094 L 540.5749 205.6283 L 540.0879 206.6601 L 539.4341 208.7558 L 538.5985 213.005 L 538.0418 215.0641 L 536.0208 219.6472 L 535.3635 221.723 L 534.872 225.2193 L 534.5508 236.1198 L 534.2319 239.6848 L 533.4409 243.015 L 531.7845 246.4686 L 531.0941 248.2473 L 530.8301 250.3079 L 530.9181 251.358 L 531.1764 252.399 L 532.1149 254.17 L 533.474 255.6057 L 535.1566 256.6665 L 536.1454 257.0369 L 538.195 257.4484 L 544.5711 257.9224 L 547.6906 258.5854 L 549.5127 259.384 L 552.9946 261.2602 L 556.8171 262.9215 L 562.0558 265.7106 L 564.0745 266.3325 L 570.3089 267.7148 L 577.5344 270.5893 L 574.6321 275.7927 L 572.7757 278.3227 L 569.2253 282.2382 L 563.1178 288.2783 L 559.4999 287.0834 L 552.9614 284.4954 L 547.8038 281.502 L 544.003 279.8042 L 540.56 277.8792 L 538.746 277.0455 L 535.607 276.3353 L 525.7364 275.8643 L 523.5863 275.593 L 521.5127 275.0535 L 519.6941 274.2274 L 516.2465 272.3177 L 511.5747 270.091 L 502.6495 264.1423 L 502.0413 262.3621 L 501.0366 260.5241 L 498.316 257.0506 L 494.4146 252.8532 L 486.3616 244.5452 L 483.8971 242.1858 L 481.2897 240.1191 L 479.4127 239.0812 L 476.5573 237.836 L 473.1132 235.9065 L 471.3162 235.0499 L 469.2884 234.4555 L 464.1113 233.4039 L 462.2047 232.6936 L 457.7992 230.4974 L 455.7851 229.9121 L 451.6391 229.0845 L 449.6147 228.455 L 447.8246 227.5375 L 444.4056 225.3428 L 439.9773 222.8051 Z" fill="#000000" fill-opacity="1" stroke="#000000" stroke-width="0" paint-order="fill" stroke-opacity="1" stroke-dasharray="" stroke-linecap="butt" stroke-linejoin="miter" stroke-miterlimit="10" transform="matrix(0.8999999761581421,0,0,0.8999999761581421,39.99999237060547,26.650012969970703)" clip-path="none" style="filter: url(#f1)"/>
<path data-code="206" d="M 274.323 358.9776 L 272.9867 355.9842 L 270.7771 352.0261 L 269.7975 349.9289 L 269.4786 348.8666 L 269.1299 346.678 L 269.2362 343.3523 L 269.7975 341.182 L 270.2799 340.1319 L 272.2403 337.3382 L 273.8017 335.6769 L 275.4912 334.1543 L 278.2621 332.2415 L 282.08 330.5345 L 285.5504 328.669 L 287.3839 327.8459 L 290.684 327.1113 L 294.1224 326.8568 L 303.4958 326.8492 L 309.2901 327.1875 L 311.5191 327.535 L 313.6258 328.134 L 317.038 329.7983 L 318.7892 330.4827 L 320.7907 330.7601 L 322.8106 330.5177 L 324.5995 329.8349 L 327.9693 328.0258 L 331.7484 326.2944 L 336.8477 322.9108 L 341.7939 319.8611 L 344.3407 326.4194 L 344.9225 328.5074 L 345.3774 332.08 L 345.6792 339.3607 L 346.0381 342.9271 L 346.5697 345.1996 L 348.5427 349.8024 L 349.1771 351.7853 L 349.5589 353.9328 L 349.8275 356.9734 L 346.3434 358.7246 L 341.3915 360.5505 L 336.187 363.4631 L 332.3885 365.1869 L 328.949 367.1164 L 327.1314 367.9608 L 324.8624 368.5613 L 321.3257 368.8768 L 317.7718 368.6908 L 315.4639 368.258 L 313.4327 367.534 L 309.0192 365.3957 L 306.8016 364.7769 L 299.8253 363.835 L 297.5506 363.3777 L 295.5422 362.669 L 291.0978 360.584 L 288.8974 360.0079 L 285.4372 359.5888 L 274.323 358.9776 Z" fill="#000000" fill-opacity="1" stroke="#000000" stroke-width="0" paint-order="fill" stroke-opacity="1" stroke-dasharray="" stroke-linecap="butt" stroke-linejoin="miter" stroke-miterlimit="10" transform="matrix(0.8999999761581421,0,0,0.8999999761581421,39.99999237060547,26.650012969970703)" clip-path="none" style="filter: url(#f1)"/>
<path data-code="207" d="M 693.6815 324.7108 L 689.9322 325.6908 L 684.1504 327.8444 L 682.4964 328.7116 L 680.8343 329.9142 L 675.3315 334.6405 L 673.6706 335.7561 L 670.0321 337.5957 L 668.5815 338.6581 L 667.2087 339.9734 L 659.0619 337.2742 L 650.8579 336.2606 L 648.5752 335.8171 L 646.5599 335.1206 L 642.103 333.0691 L 639.9071 332.5098 L 636.4596 332.1181 L 629.441 331.7492 L 626.0289 331.2325 L 624.0079 330.5619 L 619.5635 328.5028 L 612.4901 326.5977 L 610.5023 325.6436 L 608.6287 324.3024 L 600.0773 316.2322 L 598.1843 314.9062 L 596.0319 313.9597 L 592.502 313.315 L 588.8522 313.1519 L 571.5115 313.6168 L 568.0193 313.5619 L 565.8452 313.2723 L 563.8539 312.5118 L 562.9806 311.8229 L 562.3279 310.9602 L 561.8798 310.0016 L 561.394 307.9257 L 561.2225 305.7005 L 561.282 300.965 L 561.6249 296.0635 L 562.1416 292.5351 L 563.1178 288.2783 L 569.2253 282.2382 L 572.7757 278.3227 L 574.6321 275.7927 L 577.5344 270.5893 L 579.464 270.2418 L 581.1614 269.5804 L 585.951 266.9665 L 587.3901 265.7076 L 587.9262 264.8434 L 588.2955 263.8985 L 588.5287 262.9032 L 588.6624 260.8243 L 588.4018 258.7043 L 588.1091 257.6557 L 587.277 255.8191 L 584.2581 250.9632 L 582.9892 249.5382 L 582.1879 249.0048 L 580.415 248.3037 L 576.5765 247.348 L 574.7098 246.6576 L 570.2929 244.4187 L 565.484 242.4358 L 559.0232 238.6499 L 558.3454 237.9732 L 557.815 237.1395 L 557.456 236.2357 L 557.176 234.3382 L 557.4572 232.4269 L 557.8573 231.5094 L 558.4814 230.6757 L 559.3536 230.0157 L 560.3035 229.6134 L 562.345 229.2537 L 565.6897 229.1973 L 577.787 229.6957 L 582.6303 229.7429 L 586.175 229.4457 L 588.4566 228.8407 L 589.4866 228.3651 L 591.3624 227.158 L 593.0233 225.7345 L 594.4533 224.1586 L 595.5529 222.3906 L 595.905 221.3877 L 596.041 220.2812 L 595.9004 219.1747 L 595.0397 217.2634 L 593.7411 215.6189 L 591.3052 213.4638 L 589.418 212.2979 L 588.3915 211.8498 L 586.2996 211.3224 L 579.8949 210.8545 L 577.8019 210.5695 L 575.7855 209.937 L 574.0766 208.8838 L 572.6306 207.4938 L 571.476 205.8447 L 568.1554 197.6983 L 569.319 194.9442 L 571.2371 192.1109 L 573.6914 189.7317 L 575.638 188.5444 L 576.6645 188.1543 L 578.7918 187.6909 L 582.0782 187.4593 L 585.4069 187.5218 L 588.7093 187.8037 L 590.8457 188.1695 L 592.869 188.7731 L 596.2811 190.4862 L 598.03 191.1888 L 599.0188 191.3961 L 601.0375 191.4235 L 602.9442 190.9541 L 606.3643 189.3141 L 608.215 188.5993 L 613.3429 187.3907 L 615.3661 186.717 L 617.0522 185.8452 L 619.4835 184.2815 L 622.5504 183.6749 L 625.7408 183.5011 L 627.8681 183.8151 L 629.8811 184.6076 L 632.5262 186.5052 L 639.7002 193.5222 L 642.2413 195.5874 L 647.7933 198.6311 L 655.6337 204.9775 L 665.5798 210.1412 L 667.6556 210.6991 L 670.9054 211.0648 L 687.582 211.2493 L 695.986 210.978 L 699.5798 211.0984 L 701.9232 211.359 L 704.1819 211.8833 L 705.2576 212.2948 L 706.8842 213.2108 L 709.1441 214.9361 L 710.8987 223.5702 L 711.5937 225.5562 L 713.2683 229.2186 L 713.9439 231.3097 L 714.3657 233.6691 L 714.9955 239.7091 L 715.4173 242.0761 L 716.0986 244.1763 L 718.1848 248.7518 L 720 255.15 L 714.9372 258.1495 L 713.0294 259.5486 L 710.3237 261.9034 L 706.9105 265.2763 L 704.5454 267.9511 L 703.16 269.8608 L 702.0695 271.961 L 701.4236 274.3204 L 701.1356 276.7635 L 701.0384 280.5053 L 701.1287 291.7395 L 700.9241 294.0791 L 700.4497 296.2479 L 700.0554 297.2249 L 698.9157 298.7505 L 696.1197 300.8736 L 694.189 302.9129 L 693.1545 304.6046 L 692.7259 305.6959 L 692.2 308.0111 L 691.9223 311.6583 L 692.0869 316.6467 L 692.6024 320.2711 L 693.6815 324.7108 Z" fill="#000000" fill-opacity="1" stroke="#000000" stroke-width="0" paint-order="fill" stroke-opacity="1" stroke-dasharray="" stroke-linecap="butt" stroke-linejoin="miter" stroke-miterlimit="10" transform="matrix(0.8999999761581421,0,0,0.8999999761581421,39.99999237060547,26.650012969970703)" clip-path="none" style="filter: url(#f1)"/>
<path data-code="208" d="M 221.9466 456.7651 L 219.9553 452.2675 L 218.4179 448.259 L 216.1729 443.7522 L 215.2241 440.518 L 214.8469 436.9455 L 214.8091 430.8475 L 215.1064 425.9825 L 215.647 422.4176 L 220.0639 418.7429 L 225.1427 414.105 L 227.7981 412.0185 L 236.8868 407.3471 L 237.815 406.9676 L 239.8794 406.428 L 247.3895 405.6294 L 249.4871 405.2301 L 251.4212 404.5503 L 255.8404 402.3571 L 262.1033 400.5358 L 264.3381 404.8079 L 265.4549 406.646 L 267.3913 409.1379 L 270.3759 412.1221 L 272.9067 413.9054 L 274.8522 414.7025 L 276.9475 415.1338 L 280.1207 415.4691 L 281.6376 419.0447 L 283.4185 424.1734 L 285.1618 427.0479 L 288.5945 431.5349 L 289.8336 433.4141 L 290.8303 435.4915 L 292.4021 439.9114 L 294.2482 444.0951 L 284.0758 450.3425 L 281.8994 451.4338 L 278.501 452.2858 L 272.6872 452.9808 L 270.4125 453.4197 L 268.3892 454.104 L 263.9231 456.1098 L 261.5832 456.7011 L 257.8933 457.1111 L 251.5561 457.259 L 231.0582 457.1203 L 221.9466 456.7651 Z" fill="#000000" fill-opacity="1" stroke="#000000" stroke-width="0" paint-order="fill" stroke-opacity="1" stroke-dasharray="" stroke-linecap="butt" stroke-linejoin="miter" stroke-miterlimit="10" transform="matrix(0.8999999761581421,0,0,0.8999999761581421,39.99999237060547,26.650012969970703)" clip-path="none" style="filter: url(#f1)"/>
<path data-code="209" d="M 341.7939 319.8611 L 336.8477 322.9108 L 331.7484 326.2944 L 327.9693 328.0258 L 324.5995 329.8349 L 322.8106 330.5177 L 320.7907 330.7601 L 318.7892 330.4827 L 317.038 329.7983 L 313.6258 328.134 L 311.5191 327.535 L 309.2901 327.1875 L 303.4958 326.8492 L 294.1224 326.8568 L 290.684 327.1113 L 287.3839 327.8459 L 285.5504 328.669 L 282.08 330.5345 L 278.2621 332.2415 L 275.4912 334.1543 L 273.8017 335.6769 L 272.2403 337.3382 L 270.2799 340.1319 L 269.7975 341.182 L 269.2362 343.3523 L 269.1299 346.678 L 269.4786 348.8666 L 269.7975 349.9289 L 270.7771 352.0261 L 272.9867 355.9842 L 274.323 358.9776 L 266.8575 359.5233 L 263.4819 359.3967 L 261.3215 359.0401 L 260.2813 358.7338 L 258.4569 357.9046 L 254.4504 355.4645 L 252.9472 354.3687 L 252.2911 353.6478 L 251.7481 352.7318 L 251.1194 350.6788 L 250.8073 347.2907 L 251.156 327.5426 L 251.0988 323.8588 L 250.781 320.2513 L 250.5604 319.0807 L 249.886 316.9668 L 247.6901 312.4737 L 246.4727 309.6144 L 245.428 307.8312 L 244.0985 306.3178 L 242.5051 305.0817 L 241.61 304.6016 L 239.4347 303.9279 L 236.0158 303.582 L 229.0098 303.4372 L 225.5828 302.9738 L 223.5526 302.2788 L 219.202 299.9317 L 215.4321 298.1271 L 212.723 296.193 L 207.5688 291.8173 L 205.7319 290.5965 L 201.9551 288.798 L 196.7941 285.8138 L 192.9647 284.1494 L 187.7819 281.214 L 183.9457 279.5695 L 179.6351 277.1065 L 175.9269 275.3751 L 174.0557 274.3173 L 171.4632 272.1988 L 169.1256 269.684 L 167.1286 266.904 L 164.2514 261.9796 L 166.1078 257.7349 L 169.289 252.0271 L 170.8905 248.0446 L 173.2315 243.5774 L 175.3565 238.8922 L 176.5168 237.2538 L 177.9559 235.8516 L 179.6626 234.7634 L 181.8322 234.0501 L 184.1012 233.73 L 186.4274 233.6172 L 205.6096 233.727 L 210.334 233.9053 L 213.7586 234.4403 L 214.8537 234.7786 L 216.677 235.6093 L 220.1142 237.5266 L 222.9319 238.8556 L 224.8226 239.9789 L 227.5089 242.2041 L 234.3011 248.8295 L 236.1289 250.2667 L 238.1293 251.4037 L 239.2347 251.8061 L 241.5174 252.306 L 247.3381 252.9461 L 249.6117 253.3698 L 251.6201 254.0618 L 256.0667 256.162 L 259.193 256.9073 L 264.6422 257.3219 L 272.4998 257.2624 L 275.7724 256.889 L 277.8528 256.3236 L 279.6646 255.464 L 283.0813 253.5146 L 286.8604 251.7573 L 288.6493 250.5487 L 290.3308 249.1236 L 296.763 242.829 L 300.1511 240.0338 L 305.6654 237.1303 L 307.3046 235.9309 L 312.0404 231.9133 L 313.7001 230.7153 L 315.5314 229.7399 L 319.3321 228.1197 L 323.6587 225.9098 L 325.9403 222.4546 L 330.3252 216.698 L 331.3426 214.9757 L 333.0355 211.0633 L 334.7193 208.4708 L 336.7711 206.0749 L 339.0139 203.8298 L 341.4029 201.786 L 345.2357 198.8719 L 349.1016 205.482 L 351.1638 210.3302 L 352.987 213.9149 L 353.7757 215.7988 L 354.4742 219.2677 L 354.9131 228.9367 L 355.4001 232.4665 L 356.0665 234.547 L 358.1435 239.1132 L 359.1871 243.3076 L 359.0968 252.1018 L 358.819 254.5404 L 358.2441 256.889 L 353.7597 266.1862 L 352.5572 268.0623 L 348.4123 273.3968 L 346.7446 276.3307 L 346.3548 277.4692 L 345.861 279.8225 L 345.1923 285.8336 L 344.7705 288.1807 L 344.0995 290.2551 L 342.4477 293.9023 L 341.7584 296.0178 L 341.3332 298.4381 L 341.1126 300.93 L 340.9743 307.2947 L 341.2006 314.9488 L 341.7939 319.8611 Z" fill="#000000" fill-opacity="1" stroke="#000000" stroke-width="0" paint-order="fill" stroke-opacity="1" stroke-dasharray="" stroke-linecap="butt" stroke-linejoin="miter" stroke-miterlimit="10" transform="matrix(0.8999999761581421,0,0,0.8999999761581421,39.99999237060547,26.650012969970703)" clip-path="none" style="filter: url(#f1)"/>
<path data-code="210" d="M 352.372 452.5997 L 325.5723 452.679 L 317.8827 452.3223 L 314.2397 451.5328 L 307.8235 448.7925 L 300.2323 446.9849 L 298.1896 446.1588 L 294.2482 444.0951 L 292.4021 439.9114 L 290.8303 435.4915 L 289.8336 433.4141 L 288.5945 431.5349 L 285.1618 427.0479 L 283.4185 424.1734 L 281.6376 419.0447 L 280.1207 415.4691 L 293.4663 415.3426 L 320.3838 415.4676 L 326.6914 415.2466 L 329.1433 414.9265 L 331.498 414.3199 L 337.8731 411.4912 L 347.259 408.9566 L 344.6607 418.5677 L 343.9029 420.5079 L 342.1242 424.0834 L 341.4646 426.08 L 341.1423 428.2489 L 341.2292 431.5455 L 341.7047 433.6869 L 342.0693 434.6441 L 344.3578 439.0838 L 346.0713 442.9947 L 347.1058 444.7703 L 352.372 452.5997 Z" fill="#000000" fill-opacity="1" stroke="#000000" stroke-width="0" paint-order="fill" stroke-opacity="1" stroke-dasharray="" stroke-linecap="butt" stroke-linejoin="miter" stroke-miterlimit="10" transform="matrix(0.8999999761581421,0,0,0.8999999761581421,39.99999237060547,26.650012969970703)" clip-path="none" style="filter: url(#f1)"/>
<path data-code="211" d="M 145.459 401.336 L 121.6165 401.31 L 118.3747 400.929 L 116.2988 400.298 L 115.3249 399.8088 L 112.6832 397.8686 L 110.2599 395.5626 L 96.0627 380.71 L 93.0106 377.3707 L 91.5966 375.6469 L 90.3392 373.8485 L 87.5581 368.1361 L 86.4104 366.4336 L 84.4923 363.9722 L 80 359.316 L 80.2458 353.6462 L 80.6081 351.4515 L 80.9076 350.3892 L 81.7112 348.5069 L 83.5664 344.9511 L 85.2616 341.0357 L 87.1466 338.2084 L 89.403 335.5717 L 95.0853 329.6307 L 99.2702 325.5781 L 101.026 324.1301 L 102.8892 322.9093 L 106.7003 321.1947 L 111.0463 318.8384 L 112.9656 318.1205 L 118.1438 317.0735 L 120.1693 316.4836 L 125.4424 313.7326 L 129.306 312.1307 L 134.4671 309.177 L 138.1718 307.409 L 139.7687 306.2248 L 141.1644 304.7875 L 142.3132 303.1461 L 144.6371 298.403 L 145.906 296.5619 L 149.4301 292.087 L 151.2591 289.2491 L 152.9508 285.323 L 155.8623 280.0023 L 157.4946 276.0487 L 161.2874 269.3624 L 162.6271 266.2502 L 164.2514 261.9796 L 167.1286 266.904 L 169.1256 269.684 L 171.4632 272.1988 L 174.0557 274.3173 L 175.9269 275.3751 L 179.6351 277.1065 L 183.9457 279.5695 L 187.7819 281.214 L 192.9647 284.1494 L 196.7941 285.8138 L 201.9551 288.798 L 205.7319 290.5965 L 207.5688 291.8173 L 212.723 296.193 L 215.4321 298.1271 L 219.202 299.9317 L 223.5526 302.2788 L 225.5828 302.9738 L 229.0098 303.4372 L 236.0158 303.582 L 239.4347 303.9279 L 241.61 304.6016 L 242.5051 305.0817 L 244.0985 306.3178 L 245.428 307.8312 L 246.4727 309.6144 L 247.6901 312.4737 L 249.886 316.9668 L 250.5604 319.0807 L 250.781 320.2513 L 251.0988 323.8588 L 251.156 327.5426 L 250.8073 347.2907 L 251.1194 350.6788 L 251.7481 352.7318 L 252.2911 353.6478 L 252.9472 354.3687 L 254.4504 355.4645 L 258.4569 357.9046 L 260.2813 358.7338 L 261.3215 359.0401 L 263.4819 359.3967 L 266.8575 359.5233 L 274.323 358.9776 L 273.8017 364.5041 L 273.3319 373.062 L 273.0301 375.4366 L 272.4803 377.7212 L 270.1141 383.2675 L 268.6064 389.5454 L 267.9411 391.6044 L 266.5042 394.2823 L 262.1033 400.5358 L 255.8404 402.3571 L 251.4212 404.5503 L 249.4871 405.2301 L 247.3895 405.6294 L 239.8794 406.428 L 237.815 406.9676 L 236.8868 407.3471 L 227.7981 412.0185 L 225.1427 414.105 L 220.0639 418.7429 L 215.647 422.4176 L 214.7714 417.8071 L 214.1279 415.6322 L 209.8047 406.3381 L 208.6342 404.6936 L 207.187 403.2823 L 205.4712 402.1803 L 204.399 401.749 L 202.1631 401.2415 L 198.6916 400.9976 L 195.1652 401.0829 L 191.6696 401.4564 L 188.3386 402.3221 L 183.9377 404.5305 L 181.9202 405.2636 L 179.6214 405.6949 L 176.0801 405.8595 L 173.7231 405.6949 L 171.4277 405.2667 L 169.4102 404.5427 L 165.015 402.3876 L 161.7115 401.5859 L 155.8703 401.1957 L 145.459 401.336 Z" fill="#000000" fill-opacity="1" stroke="#000000" stroke-width="0" paint-order="fill" stroke-opacity="1" stroke-dasharray="" stroke-linecap="butt" stroke-linejoin="miter" stroke-miterlimit="10" transform="matrix(0.8999999761581421,0,0,0.8999999761581421,39.99999237060547,26.650012969970703)" clip-path="none" style="filter: url(#f1)"/>












</svg>