<?xml version="1.0" standalone="no"?>
<!-- Generator: Paintmaps.com , Online SVG vector map maker -->
<svg xmlns="http://www.w3.org/2000/svg" version="1.1" baseProfile="full"   style="background-color:false" width="800" height="500" viewBox="0 0 800 533">
<path data-code="200" d="M 394.6298 297.6095 L 393.0933 296.1244 L 392.1731 294.5685 L 391.8617 293.5441 L 391.7402 291.3688 L 392.2199 289.2795 L 394.4501 284.4784 L 395.0994 282.1714 L 395.4614 279.7312 L 395.6044 277.2352 L 395.5411 274.7325 L 395.2196 272.267 L 394.521 269.901 L 393.3236 267.7037 L 388.7367 261.8444 L 387.3989 259.7602 L 386.8673 258.6295 L 386.4749 257.4735 L 385.9952 255.067 L 385.6649 248.8348 L 390.153 248.8365 L 392.249 248.4466 L 393.2312 248.0247 L 394.1311 247.3666 L 394.8437 246.484 L 395.3373 245.4866 L 395.8702 243.3079 L 396.0208 240.979 L 395.9221 238.5692 L 395.312 234.9391 L 394.4906 232.7014 L 391.8288 227.7736 L 389.9176 223.423 L 388.6342 221.349 L 386.318 218.4531 L 382.8968 214.8045 L 379.2845 211.3888 L 376.4089 209.173 L 374.3572 208.0373 L 371.2221 206.5691 L 369.3805 205.3979 L 362.2407 199.5706 L 358.1272 196.5752 L 366.1074 192.9587 L 370.4412 191.2188 L 376.1659 187.9094 L 380.4097 186.0868 L 385.2118 183.4373 L 387.328 182.6255 L 390.7593 181.8847 L 395.6234 181.6417 L 397.9991 181.3295 L 400.2811 180.7388 L 405.1857 178.3779 L 407.3108 177.6151 L 409.6257 177.1578 L 416.7706 176.4186 L 419.0982 175.9798 L 421.2448 175.2339 L 426.1455 172.8865 L 428.3605 172.2502 L 432.9183 171.2968 L 435.1497 170.5407 L 436.242 169.9737 L 438.2823 168.5527 L 440.1935 166.8955 L 449.252 157.634 L 452.982 154.1627 L 455.9754 152.0633 L 460.142 150.0702 L 462.033 148.8316 L 464.6846 146.5989 L 470.5827 140.8594 L 473.1736 138.5524 L 474.9861 137.2226 L 477.7263 135.832 L 485.7938 139.9464 L 490.1098 141.7184 L 495.8333 145.0193 L 500.0734 146.8503 L 505.7855 150.1614 L 510.0369 151.9688 L 515.7566 155.2478 L 518.9284 156.6232 L 521.0041 157.7488 L 523.8874 159.9798 L 526.6036 162.5365 L 530.8841 167.1065 L 533.1725 170.0209 L 534.4243 172.1 L 536.7531 177.4598 L 539.463 182.3589 L 541.2172 186.7382 L 543.2727 190.6804 L 544.1676 192.7578 L 544.7346 195.1323 L 545.0004 197.5978 L 545.1801 206.4037 L 545.3611 208.8878 L 545.8029 211.3146 L 546.1813 212.4908 L 547.3217 214.6948 L 548.7823 216.6997 L 551.2744 219.523 L 561.9873 230.4957 L 565.6122 234.0295 L 567.4829 235.6631 L 569.4346 237.1094 L 571.4926 238.2401 L 574.6341 239.6847 L 576.6313 240.9689 L 579.45 243.313 L 583.8863 247.7058 L 586.3772 250.497 L 588.5617 253.4621 L 589.6743 255.6037 L 591.0336 258.8624 L 593.6321 263.7919 L 594.4118 266.033 L 594.9472 269.7136 L 594.9915 273.4719 L 594.6054 277.188 L 593.9827 279.5624 L 593.5473 280.6171 L 590.9893 285.5753 L 589.049 291.2405 L 587.0758 295.2047 L 584.2559 298.3503 L 582.6003 299.5502 L 581.5447 299.962 L 579.2057 300.4615 L 574.0455 300.7822 L 563.2087 300.5948 L 557.9345 300.0076 L 555.45 299.3275 L 550.5669 296.9564 L 548.3532 296.1582 L 545.8421 295.6637 L 543.2487 295.4004 L 536.6038 295.1827 L 524.5342 295.1945 L 520.5801 295.392 L 516.7527 296.0097 L 514.5048 296.8214 L 509.6964 299.4237 L 505.4842 301.307 L 499.7797 304.6332 L 495.5574 306.5217 L 489.8238 309.8057 L 485.5901 311.6739 L 479.8577 314.9495 L 475.6265 316.8109 L 469.8714 320.0629 L 465.5592 321.8686 L 458.0461 325.718 L 454.6894 324.5266 L 449.9444 321.9192 L 445.7094 320.0916 L 439.9922 316.7755 L 434.7991 314.3723 L 430.0692 311.5405 L 425.8392 309.6876 L 421.0233 307.0921 L 420.0019 306.6685 L 417.7249 306.066 L 409.4219 305.1885 L 405.9653 304.3582 L 403.9567 303.3777 L 394.6298 297.6095 Z" fill="#000000" fill-opacity="1" stroke="#000000" stroke-width="0" paint-order="fill" stroke-opacity="1" stroke-dasharray="" stroke-linecap="butt" stroke-linejoin="miter" stroke-miterlimit="10" transform="matrix(0.8999999761581421,0,0,0.8999999761581421,40.0000114440918,26.65003776550293)" clip-path="none"/>
<path data-code="201" d="M 318.3883 444.4872 L 313.1445 436.8492 L 311.5915 433.8081 L 311.2434 432.6319 L 310.8827 430.2136 L 310.8853 427.7699 L 311.2346 425.3668 L 311.9586 423.1493 L 314.3153 418.1743 L 314.9962 415.9045 L 316.3189 410.0232 L 317.1352 407.8395 L 319.6869 402.8662 L 321.4728 398.4852 L 324.68 392.5803 L 326.5773 388.2466 L 327.7215 386.2957 L 332.5931 379.1218 L 339.595 381.0136 L 343.83 381.9384 L 346.6271 382.3366 L 354.8326 382.9745 L 358.7765 383.6327 L 361.2434 384.4951 L 365.9733 386.6569 L 369.9918 387.5513 L 377.0721 387.9563 L 400.2153 387.8517 L 404.4706 388.0677 L 407.2374 388.4271 L 409.8903 389.1056 L 414.6265 391.2826 L 417.0857 392.1736 L 426.4189 393.7447 L 431.9576 395.1421 L 430.9944 398.5443 L 430.2527 403.3859 L 422.7092 411.2501 L 418.5134 415.2716 L 415.8339 417.3221 L 414.0544 418.284 L 410.6876 419.7674 L 409.732 420.331 L 407.9044 421.6727 L 404.4642 424.8335 L 395.3576 434.2452 L 393.6489 435.8467 L 391.8681 437.3048 L 389.9645 438.5165 L 385.6497 440.2767 L 377.5898 444.094 L 372.3498 447.351 L 369.9627 448.5779 L 366.2466 449.5196 L 361.07 449.8554 L 355.8756 449.5955 L 352.1114 448.9104 L 349.7053 448.0109 L 345.0121 445.7445 L 341.2011 444.8483 L 334.4714 444.4214 L 318.3883 444.4872 Z" fill="#000000" fill-opacity="1" stroke="#000000" stroke-width="0" paint-order="fill" stroke-opacity="1" stroke-dasharray="" stroke-linecap="butt" stroke-linejoin="miter" stroke-miterlimit="10" transform="matrix(0.8999999761581421,0,0,0.8999999761581421,40.0000114440918,26.65003776550293)" clip-path="none"/>
<path data-code="202" d="M 431.9576 395.1421 L 426.4189 393.7447 L 417.0857 392.1736 L 414.6265 391.2826 L 409.8903 389.1056 L 407.2374 388.4271 L 404.4706 388.0677 L 400.2153 387.8517 L 377.0721 387.9563 L 369.9918 387.5513 L 365.9733 386.6569 L 361.2434 384.4951 L 358.7765 383.6327 L 354.8326 382.9745 L 346.6271 382.3366 L 343.83 381.9384 L 339.595 381.0136 L 332.5931 379.1218 L 341.2872 375.696 L 347.4536 372.5824 L 348.2358 371.9883 L 348.9092 371.207 L 349.375 370.2535 L 349.6091 369.2308 L 349.6433 368.1794 L 349.2028 366.1763 L 347.4385 362.5378 L 346.6879 360.457 L 346.2297 358.1113 L 345.6159 351.9583 L 345.2425 349.513 L 344.5476 347.1504 L 344.0186 346.0416 L 342.6845 343.9912 L 341.1189 342.0927 L 335.0853 335.8418 L 333.469 333.9906 L 332.0692 331.9806 L 331.087 329.6956 L 330.6123 327.2655 L 330.5453 324.8033 L 330.6668 323.5748 L 331.3148 321.1598 L 332.5058 319.128 L 334.1019 317.4589 L 335.0334 316.7687 L 336.0586 316.2 L 338.3926 315.4912 L 339.5747 315.3444 L 341.9251 315.3663 L 344.2033 315.8422 L 345.283 316.308 L 346.998 317.6209 L 348.1751 319.2933 L 348.5244 320.2266 L 348.6674 321.202 L 348.5776 322.1302 L 347.2853 325.2556 L 346.8524 327.0056 L 346.8562 327.9675 L 347.041 328.9244 L 347.4397 329.8323 L 348.0447 330.6036 L 348.7776 331.2212 L 354.8744 335.1246 L 359.017 337.0822 L 361.07 338.2382 L 367.4617 343.4006 L 369.4223 344.3405 L 370.5285 344.5042 L 371.6132 344.3777 L 372.6257 344.025 L 374.48 342.8791 L 377.0683 340.5553 L 379.5858 337.8855 L 382.0096 335.0419 L 383.4917 333.0539 L 384.7536 330.9512 L 386.5914 326.5584 L 388.6279 322.5993 L 389.5139 320.5152 L 390.2644 316.9324 L 390.8606 309.4986 L 391.2365 307.0549 L 391.8668 304.8341 L 394.6298 297.6095 L 403.9567 303.3777 L 405.9653 304.3582 L 409.4219 305.1885 L 417.7249 306.066 L 420.0019 306.6685 L 421.0233 307.0921 L 425.8392 309.6876 L 430.0692 311.5405 L 434.7991 314.3723 L 439.9922 316.7755 L 445.7094 320.0916 L 449.9444 321.9192 L 454.6894 324.5266 L 458.0461 325.718 L 459.3231 329.1657 L 459.999 331.7697 L 460.418 334.6403 L 460.5762 338.8829 L 460.299 341.556 L 459.9737 342.815 L 459.4586 343.9997 L 458.6852 345.0628 L 457.8461 345.7699 L 456.9323 346.2711 L 454.6603 346.9091 L 451.0215 347.1571 L 425.9595 346.4348 L 419.5184 346.5918 L 417.0452 347.0626 L 414.8442 348.0414 L 413.919 348.6945 L 412.3166 350.291 L 411.1091 352.2604 L 410.4282 354.6264 L 410.2649 357.0565 L 410.5155 359.49 L 411.218 361.8611 L 411.8027 363.0374 L 413.2735 365.1755 L 421.3182 373.8565 L 423.6914 376.9414 L 424.8799 379.11 L 426.81 383.3559 L 429.5338 388.3748 L 431.9576 395.1421 Z" fill="#000000" fill-opacity="1" stroke="#000000" stroke-width="0" paint-order="fill" stroke-opacity="1" stroke-dasharray="" stroke-linecap="butt" stroke-linejoin="miter" stroke-miterlimit="10" transform="matrix(0.8999999761581421,0,0,0.8999999761581421,40.0000114440918,26.65003776550293)" clip-path="none"/>
<path data-code="203" d="M 587.0758 295.2047 L 589.049 291.2405 L 590.9893 285.5753 L 593.5473 280.6171 L 593.9827 279.5624 L 594.6054 277.188 L 594.9915 273.4719 L 594.9472 269.7136 L 594.4118 266.033 L 593.6321 263.7919 L 591.0336 258.8624 L 589.6743 255.6037 L 588.5617 253.4621 L 586.3772 250.497 L 583.8863 247.7058 L 579.45 243.313 L 576.6313 240.9689 L 574.6341 239.6847 L 571.4926 238.2401 L 569.4346 237.1094 L 567.4829 235.6631 L 565.6122 234.0295 L 561.9873 230.4957 L 551.2744 219.523 L 548.7823 216.6997 L 547.3217 214.6948 L 546.1813 212.4908 L 545.8029 211.3146 L 545.3611 208.8878 L 545.1801 206.4037 L 545.0004 197.5978 L 544.7346 195.1323 L 544.1676 192.7578 L 543.2727 190.6804 L 541.2172 186.7382 L 539.463 182.3589 L 536.7531 177.4598 L 534.4243 172.1 L 533.1725 170.0209 L 530.8841 167.1065 L 526.6036 162.5365 L 523.8874 159.9798 L 521.0041 157.7488 L 518.9284 156.6232 L 515.7566 155.2478 L 510.0369 151.9688 L 505.7855 150.1614 L 500.0734 146.8503 L 495.8333 145.0193 L 490.1098 141.7184 L 485.7938 139.9464 L 477.7263 135.832 L 482.3752 128.9534 L 484.0965 126.012 L 484.5408 124.9488 L 485.1357 122.5608 L 485.3027 118.8802 L 484.6724 115.2688 L 481.9651 109.2525 L 479.9425 102.9966 L 478.8363 101.331 L 478.0946 100.7184 L 475.5987 99.5641 L 476.0429 97.2183 L 476.7302 94.9147 L 477.2365 93.8127 L 478.5186 91.737 L 480.0286 89.7862 L 482.5233 86.9999 L 487.0102 82.6763 L 488.9201 81.1491 L 490.9401 79.8597 L 495.1688 77.9578 L 500.9049 74.7008 L 505.1501 72.8731 L 510.8609 69.5519 L 515.0972 67.7091 L 519.9156 65.1035 L 522.0648 64.3221 L 524.3924 63.8681 L 532.7093 62.9602 L 534.9774 62.3679 L 539.8933 60.0289 L 542.0273 59.2779 L 544.3473 58.8256 L 551.4921 58.0797 L 553.816 57.6291 L 555.9575 56.8714 L 560.8481 54.4632 L 563.0732 53.7899 L 565.3616 53.3005 L 565.5439 58.9033 L 565.821 61.0887 L 566.3514 63.1948 L 567.2627 65.2655 L 569.3549 69.1925 L 571.1407 73.5617 L 574.424 79.4294 L 576.1706 83.8222 L 578.7159 88.7871 L 579.1349 89.8283 L 579.693 91.8737 L 580.4208 96.0826 L 580.9132 98.1684 L 581.784 100.2712 L 583.0813 102.2946 L 585.419 105.1044 L 593.1878 113.1188 L 596.4837 116.769 L 598.605 119.6784 L 599.5847 121.5618 L 601.0668 125.0213 L 602.9995 128.0033 L 606.1726 131.7008 L 615.4969 141.6492 L 617.7803 144.5974 L 619.8433 147.7228 L 629.4917 152.1325 L 631.2789 153.4353 L 633.5065 155.9127 L 634.6393 157.8956 L 636.4897 162.0673 L 638.6224 165.9943 L 640.845 171.4166 L 643.9902 177.362 L 646.2988 182.7335 L 649.0201 187.6276 L 650.8313 191.9832 L 652.8804 195.9271 L 653.7765 198.0046 L 654.3904 200.4853 L 654.7739 204.3752 L 654.779 219.0674 L 655.0853 224.3124 L 655.8827 228.0386 L 658.1748 233.0828 L 659.1836 236.4664 L 659.6456 240.1572 L 660.3974 251.9129 L 659.9949 257.2845 L 660.0987 260.0674 L 660.4885 262.7928 L 661.21 265.1656 L 663.0212 269.2225 L 663.792 271.5345 L 664.3185 274.1554 L 665.226 280.8365 L 665.7703 283.3696 L 666.5474 285.5078 L 667.8283 288.1759 L 668.4295 289.99 L 668.4472 292.0337 L 668.1472 293.0277 L 667.5941 293.9457 L 666.7512 294.7119 L 665.7943 295.2097 L 663.6844 295.7295 L 656.518 296.5952 L 654.3031 297.2872 L 649.2947 299.4793 L 645.4255 300.3063 L 638.668 300.6826 L 619.4332 300.6775 L 614.0667 300.3181 L 610.2215 299.4169 L 603.264 295.7599 L 597.8064 293.4057 L 595.5901 294.1769 L 593.3207 294.6781 L 587.0758 295.2047 Z" fill="#000000" fill-opacity="1" stroke="#000000" stroke-width="0" paint-order="fill" stroke-opacity="1" stroke-dasharray="" stroke-linecap="butt" stroke-linejoin="miter" stroke-miterlimit="10" transform="matrix(0.8999999761581421,0,0,0.8999999761581421,40.0000114440918,26.65003776550293)" clip-path="none"/>
<path data-code="204" d="M 253.0672 471.0009 L 247.6994 470.2668 L 242.1139 470.0171 L 236.5537 470.1538 L 232.5136 470.7799 L 229.9974 471.7148 L 222.5855 475.8798 L 220.8186 477.1809 L 218.1454 479.7005 L 216.1507 479.1385 L 214.2876 478.1715 L 212.508 476.8754 L 210.8183 475.3667 L 209.2451 473.6926 L 207.8465 471.8515 L 206.7441 469.7842 L 206.3466 468.5944 L 205.8973 466.1407 L 205.7543 463.638 L 205.8227 461.1252 L 206.0846 458.6393 L 206.5947 456.2328 L 206.9795 455.0853 L 209.5046 450.1693 L 210.2867 447.989 L 210.6791 445.5943 L 210.7247 443.1523 L 210.4158 440.7323 L 209.6893 438.4946 L 207.1124 433.5938 L 205.2202 429.2651 L 203.2254 426.2646 L 200.8472 423.4632 L 194.844 417.1651 L 190.4141 412.8601 L 188.5738 411.2856 L 186.6588 409.895 L 184.621 408.7964 L 181.4783 407.3636 L 179.5988 406.1519 L 177.8293 404.7073 L 175.3612 402.2654 L 173.8664 400.4968 L 172.5552 398.6134 L 171.5034 396.5343 L 170.1744 393.2621 L 168.1683 389.7384 L 166.938 384.9524 L 165.9521 380.1191 L 165.28 377.7801 L 164.337 375.723 L 162.2436 371.7875 L 160.3906 367.4437 L 159.1072 365.3932 L 157.5871 363.466 L 150.8232 356.1267 L 148.502 353.2544 L 147.2274 351.1989 L 145.3706 346.8517 L 142.1659 340.9536 L 140.4395 336.5506 L 138.36 332.6017 L 137.4246 330.5529 L 136.7639 328.2359 L 135.84 323.4904 L 135.1742 321.2087 L 132.2948 315.2246 L 131.7303 312.8653 L 131.5531 310.425 L 131.7379 307.978 L 131.9885 306.7731 L 132.3732 305.5952 L 133.5352 303.4384 L 135.8324 300.5712 L 141.8368 294.2512 L 144.172 291.4008 L 145.4542 289.369 L 147.4084 285.0741 L 148.6804 283.0338 L 150.9853 280.1564 L 156.8657 273.6963 L 159.1616 270.8156 L 160.4235 268.7736 L 162.3537 264.4787 L 164.2054 261.6942 L 167.2924 258.3342 L 170.8857 255.2712 L 175.9637 252.9795 L 181.8606 249.8389 L 190.8647 247.4037 L 196.7995 244.6546 L 205.772 242.2245 L 210.488 240.0019 L 213.008 239.1261 L 215.6938 238.6417 L 219.8541 238.338 L 276.7976 238.3278 L 283.8399 238.5101 L 286.5916 238.7767 L 289.2584 239.283 L 291.7505 240.1673 L 295.2514 241.8667 L 297.7638 242.7561 L 301.8659 243.4227 L 306.1187 243.6539 L 376.9139 243.5408 L 380.7895 244.0656 L 383.0145 244.9449 L 384.5334 246.381 L 385.6649 248.8348 L 385.9952 255.067 L 386.4749 257.4735 L 386.8673 258.6295 L 387.3989 259.7602 L 388.7367 261.8444 L 393.3236 267.7037 L 394.521 269.901 L 395.2196 272.267 L 395.5411 274.7325 L 395.6044 277.2352 L 395.4614 279.7312 L 395.0994 282.1714 L 394.4501 284.4784 L 392.2199 289.2795 L 391.7402 291.3688 L 391.8617 293.5441 L 392.1731 294.5685 L 393.0933 296.1244 L 394.6298 297.6095 L 391.8668 304.8341 L 391.2365 307.0549 L 390.8606 309.4986 L 390.2644 316.9324 L 389.5139 320.5152 L 388.6279 322.5993 L 386.5914 326.5584 L 384.7536 330.9512 L 383.4917 333.0539 L 382.0096 335.0419 L 379.5858 337.8855 L 377.0683 340.5553 L 374.48 342.8791 L 372.6257 344.025 L 371.6132 344.3777 L 370.5285 344.5042 L 369.4223 344.3405 L 367.4617 343.4006 L 361.07 338.2382 L 359.017 337.0822 L 354.8744 335.1246 L 348.7776 331.2212 L 348.0447 330.6036 L 347.4397 329.8323 L 347.041 328.9244 L 346.8562 327.9675 L 346.8524 327.0056 L 347.2853 325.2556 L 348.5776 322.1302 L 348.6674 321.202 L 348.5244 320.2266 L 348.1751 319.2933 L 346.998 317.6209 L 345.283 316.308 L 344.2033 315.8422 L 341.9251 315.3663 L 339.5747 315.3444 L 338.3926 315.4912 L 336.0586 316.2 L 335.0334 316.7687 L 334.1019 317.4589 L 332.5058 319.128 L 331.3148 321.1598 L 330.6668 323.5748 L 330.5453 324.8033 L 330.6123 327.2655 L 331.087 329.6956 L 332.0692 331.9806 L 333.469 333.9906 L 335.0853 335.8418 L 341.1189 342.0927 L 342.6845 343.9912 L 344.0186 346.0416 L 344.5476 347.1504 L 345.2425 349.513 L 345.6159 351.9583 L 346.2297 358.1113 L 346.6879 360.457 L 347.4385 362.5378 L 349.2028 366.1763 L 349.6433 368.1794 L 349.6091 369.2308 L 349.375 370.2535 L 348.9092 371.207 L 348.2358 371.9883 L 347.4536 372.5824 L 341.2872 375.696 L 332.5931 379.1218 L 327.7215 386.2957 L 326.5773 388.2466 L 324.68 392.5803 L 321.4728 398.4852 L 319.6869 402.8662 L 317.1352 407.8395 L 316.3189 410.0232 L 314.9962 415.9045 L 314.3153 418.1743 L 311.9586 423.1493 L 311.2346 425.3668 L 310.8853 427.7699 L 310.8827 430.2136 L 311.2434 432.6319 L 311.5915 433.8081 L 313.1445 436.8492 L 318.3883 444.4872 L 296.1463 444.3657 L 289.7393 444.7083 L 286.0853 445.5133 L 281.163 447.8371 L 279.0809 448.61 L 273.4296 449.9044 L 271.1969 450.6688 L 268.9883 451.9362 L 266.9442 453.5226 L 264.0534 456.2143 L 260.3917 460.089 L 257.0541 464.2269 L 253.0672 471.0009 Z" fill="#000000" fill-opacity="1" stroke="#000000" stroke-width="0" paint-order="fill" stroke-opacity="1" stroke-dasharray="" stroke-linecap="butt" stroke-linejoin="miter" stroke-miterlimit="10" transform="matrix(0.8999999761581421,0,0,0.8999999761581421,40.0000114440918,26.65003776550293)" clip-path="none"/>
<path data-code="205" d="M 385.6649 248.8348 L 384.5334 246.381 L 383.0145 244.9449 L 380.7895 244.0656 L 376.9139 243.5408 L 306.1187 243.6539 L 301.8659 243.4227 L 297.7638 242.7561 L 295.2514 241.8667 L 291.7505 240.1673 L 289.2584 239.283 L 286.5916 238.7767 L 283.8399 238.5101 L 276.7976 238.3278 L 219.8541 238.338 L 215.6938 238.6417 L 213.008 239.1261 L 210.488 240.0019 L 205.772 242.2245 L 196.7995 244.6546 L 190.8647 247.4037 L 181.8606 249.8389 L 175.9637 252.9795 L 170.8857 255.2712 L 171.3983 245.7026 L 171.611 227.5289 L 171.2819 222.0696 L 170.768 219.4302 L 170.3466 218.1544 L 168.529 214.8619 L 163.3979 207.8685 L 160.721 202.7332 L 158.6326 200.1613 L 156.8998 198.7792 L 154.8621 197.7548 L 147.6286 195.9913 L 147.0249 191.747 L 146.5351 183.5217 L 146.0858 179.5136 L 145.4605 176.9671 L 143.219 171.8925 L 142.4811 169.6075 L 141.9077 165.7176 L 141.504 157.6847 L 141.0686 153.7391 L 140.442 151.2381 L 138.1397 146.1939 L 137.3816 143.9865 L 136.7905 140.3447 L 136.731 135.3595 L 137.2563 131.684 L 138.0144 129.431 L 140.5559 124.4729 L 141.9761 121.253 L 143.1797 119.1131 L 144.7302 117.1116 L 147.4476 114.4267 L 149.4677 112.8791 L 152.3712 111.1477 L 161.1184 106.0444 L 164.599 104.9306 L 167.1355 104.5863 L 174.8891 104.1897 L 178.6951 103.7645 L 182.1365 102.7536 L 187.0664 100.4872 L 190.8103 99.64 L 194.7364 99.3008 L 207.9883 98.6578 L 211.1348 100.0855 L 214.9799 102.3165 L 216.9607 103.2835 L 219.1896 103.9568 L 224.8802 105.2276 L 226.9749 106.1575 L 228.8431 107.413 L 234.0792 111.8278 L 235.893 113.1627 L 237.8814 114.2613 L 241.0456 115.6653 L 246.7703 118.9376 L 250.9952 120.8074 L 253.7797 122.7397 L 257.0857 125.9664 L 259.2311 128.6784 L 260.3993 130.6241 L 261.7852 133.8728 L 262.856 135.9907 L 264.223 137.9972 L 265.7722 139.9177 L 270.0135 144.5349 L 283.2805 158.1167 L 287.4421 162.7744 L 288.9128 164.732 L 290.1469 166.7926 L 291.5316 170.0361 L 292.5821 172.095 L 293.8794 173.975 L 295.3565 175.7503 L 297.7967 178.2159 L 299.551 179.6841 L 301.4191 180.9295 L 306.5072 183.525 L 314.4925 189.8771 L 316.4682 190.9589 L 318.7427 191.6508 L 321.0956 192.0119 L 327.038 192.5773 L 329.3479 193.0194 L 331.4642 193.7805 L 336.3333 196.2073 L 339.7949 197.0257 L 343.4262 197.3312 L 349.599 197.3599 L 354.5238 197.0882 L 358.1272 196.5752 L 362.2407 199.5706 L 369.3805 205.3979 L 371.2221 206.5691 L 374.3572 208.0373 L 376.4089 209.173 L 379.2845 211.3888 L 382.8968 214.8045 L 386.318 218.4531 L 388.6342 221.349 L 389.9176 223.423 L 391.8288 227.7736 L 394.4906 232.7014 L 395.312 234.9391 L 395.9221 238.5692 L 396.0208 240.979 L 395.8702 243.3079 L 395.3373 245.4866 L 394.8437 246.484 L 394.1311 247.3666 L 393.2312 248.0247 L 392.249 248.4466 L 390.153 248.8365 L 385.6649 248.8348 Z" fill="#000000" fill-opacity="1" stroke="#000000" stroke-width="0" paint-order="fill" stroke-opacity="1" stroke-dasharray="" stroke-linecap="butt" stroke-linejoin="miter" stroke-miterlimit="10" transform="matrix(0.8999999761581421,0,0,0.8999999761581421,40.0000114440918,26.65003776550293)" clip-path="none"/>






</svg>