<?xml version="1.0" standalone="no"?>
<!-- Generator: Paintmaps.com , Online SVG vector map maker -->
<svg xmlns="http://www.w3.org/2000/svg" version="1.1" baseProfile="full" width="800" height="500" viewBox="0 0 800 533">

<path data-code="200" d="M 708.7892 290.4268 L 687.1362 274.965 L 678.5511 270.2509 L 671.9012 268.2348 L 665.0104 267.0673 L 642.949 265.0414 L 656.3848 246.0869 L 662.0046 235.5698 L 664.7289 224.2922 L 666.8757 204.9454 L 668.2406 197.3959 L 670.6264 190.1212 L 676.7797 175.8809 L 678.6412 168.2873 L 679.6677 160.37 L 680.3575 148.1997 L 680.0411 115.255 L 679.6769 112.0126 L 679.8277 112.0126 L 679.8277 112.3707 L 680.0963 112.3707 L 680.0963 113.0869 L 680.363 113.0869 L 680.363 113.7981 L 680.8983 113.7981 L 680.8983 114.1562 L 681.4355 114.1562 L 681.4355 114.5143 L 681.7004 114.5143 L 681.7004 114.8724 L 682.2412 114.8724 L 682.2412 115.2256 L 684.112 115.2256 L 684.112 115.5837 L 684.9177 115.5837 L 684.9177 115.9418 L 685.4548 115.9418 L 685.4548 116.2999 L 685.9902 116.2999 L 685.9902 116.658 L 686.5273 116.658 L 686.5273 117.0161 L 686.7922 117.0161 L 686.7922 117.3693 L 687.0608 117.3693 L 687.0608 117.7274 L 687.5961 117.7274 L 687.5961 118.0855 L 687.8646 118.0855 L 687.8646 118.4436 L 688.1332 118.4436 L 688.1332 118.8017 L 688.6685 118.8017 L 688.6685 119.1548 L 689.4724 119.1548 L 689.4724 119.5129 L 690.2762 119.5129 L 690.2762 119.871 L 690.8115 119.871 L 690.8115 120.2291 L 691.0801 120.2291 L 691.0801 120.5872 L 691.6154 120.5872 L 691.6154 120.9453 L 692.4193 120.9453 L 692.4193 121.2985 L 693.4899 121.2985 L 693.4899 121.6566 L 694.5623 121.6566 L 694.5623 122.0147 L 696.1701 122.0147 L 696.1701 122.3728 L 696.4386 122.3728 L 696.4386 122.7309 L 696.7054 122.7309 L 696.7054 123.0841 L 696.974 123.0841 L 696.974 123.4422 L 698.3131 123.4422 L 698.3131 123.8003 L 698.8484 123.8003 L 698.8484 124.1583 L 700.1876 124.1583 L 700.1876 124.5164 L 701.26 124.5164 L 701.26 124.8745 L 701.7953 124.8745 L 701.7953 125.2277 L 702.5992 125.2277 L 702.5992 125.5858 L 705.009 125.5858 L 705.009 125.9439 L 705.8147 125.9439 L 705.8147 125.5858 L 706.6167 125.5858 L 706.6167 125.2277 L 707.6892 125.2277 L 707.6892 124.8745 L 708.2226 124.8745 L 708.2226 124.5164 L 709.0284 124.5164 L 709.0284 124.1583 L 709.5655 124.1583 L 709.5655 123.8003 L 709.8322 123.8003 L 709.8322 123.4422 L 710.1008 123.4422 L 710.1008 122.7309 L 710.3657 122.7309 L 710.3657 121.6566 L 710.6361 121.6566 L 710.6361 120.9453 L 710.9047 120.9453 L 710.9047 120.5872 L 711.1714 120.5872 L 711.1714 120.2291 L 712.7791 120.2291 L 712.7791 120.5872 L 713.0477 120.5872 L 713.0477 121.2985 L 713.3144 121.2985 L 713.3144 121.6566 L 713.0477 121.6566 L 713.0477 122.3728 L 712.7791 122.3728 L 712.7791 122.7309 L 712.5106 122.7309 L 712.5106 123.0841 L 712.2438 123.0841 L 712.2438 123.8003 L 712.7791 123.8003 L 712.7791 124.1583 L 715.9946 124.1583 L 715.9946 123.8003 L 716.5299 123.8003 L 716.5299 123.4422 L 717.0652 123.4422 L 717.0652 123.0841 L 717.6024 123.0841 L 717.6024 122.7309 L 718.4044 122.7309 L 718.4044 122.3728 L 718.673 122.3728 L 718.673 122.0147 L 718.9416 122.0147 L 718.9416 121.6566 L 719.2083 121.6566 L 719.2083 121.2985 L 719.4769 121.2985 L 719.4769 120.9453 L 719.9993 120.9453 L 719.7841 121.1759 L 715.3729 127.0084 L 711.9072 133.5129 L 710.6545 137.2361 L 709.1902 144.9327 L 708.436 156.8136 L 708.7892 290.4268 Z" fill="#000000" fill-opacity="1" stroke="#000000" stroke-width="0" paint-order="fill" stroke-opacity="1" stroke-dasharray="" stroke-linecap="butt" stroke-linejoin="miter" stroke-miterlimit="10" clip-path="none" style="filter: url(#f1)"/>
<path data-code="201" d="M 324.3249 395.4808 L 324.3249 395.628 L 323.521 395.628 L 323.521 395.9861 L 322.9839 395.9861 L 322.9839 395.628 L 321.9133 395.628 L 321.9133 395.2748 L 321.6466 395.2748 L 321.6466 394.9167 L 318.9664 394.9167 L 318.9664 395.2748 L 317.3586 395.2748 L 317.3586 395.628 L 316.8233 395.628 L 316.8233 395.9861 L 316.5548 395.9861 L 316.5548 396.3442 L 316.0195 396.3442 L 316.0195 396.7023 L 315.7509 396.7023 L 315.7509 397.0604 L 314.6803 397.0604 L 314.6803 397.4136 L 314.1432 397.4136 L 314.1432 397.7717 L 313.8764 397.7717 L 313.8764 398.1298 L 313.6079 398.1298 L 313.6079 398.4878 L 313.3393 398.4878 L 313.3393 398.8459 L 313.0725 398.8459 L 313.0725 399.204 L 312.804 399.204 L 312.804 399.5572 L 312.5372 399.5572 L 312.5372 400.2734 L 312.2687 400.2734 L 312.2687 401.3428 L 312.0001 401.3428 L 312.0001 402.059 L 311.7334 402.059 L 311.7334 402.4171 L 311.4648 402.4171 L 311.4648 402.7752 L 311.1962 402.7752 L 311.1962 403.1333 L 310.9295 403.1333 L 310.9295 403.4865 L 310.6609 403.4865 L 310.6609 403.8445 L 310.3942 403.8445 L 310.3942 404.2026 L 310.1256 404.2026 L 310.1256 404.5607 L 309.8571 404.5607 L 309.8571 404.9188 L 309.5903 404.9188 L 309.5903 405.9882 L 306.1081 405.9882 L 306.1081 406.3463 L 304.7653 406.3463 L 304.7653 406.7044 L 303.1594 406.7044 L 303.1594 406.3463 L 302.8926 406.3463 L 302.8926 406.7044 L 302.6222 406.7044 L 302.6222 406.3463 L 300.7496 406.3463 L 300.7496 406.7044 L 299.6771 406.7044 L 299.6771 407.0625 L 298.8733 407.0625 L 298.8733 406.7044 L 295.6596 406.7044 L 295.6596 407.0625 L 295.391 407.0625 L 295.391 407.4157 L 294.8557 407.4157 L 294.8557 407.7738 L 294.5872 407.7738 L 294.5872 408.49 L 294.3186 408.49 L 294.3186 408.8481 L 293.7815 408.8481 L 293.7815 409.2012 L 293.0806 409.2012 L 291.9107 409.2012 L 291.9107 408.8481 L 291.3717 408.8481 L 291.3717 409.2012 L 289.7658 409.2012 L 289.7658 409.5593 L 288.9619 409.5593 L 288.9619 410.6336 L 288.158 410.6336 L 288.158 410.9917 L 286.2817 410.9917 L 286.2817 410.6336 L 284.1405 410.6336 L 284.1405 410.9917 L 283.6034 410.9917 L 283.6034 411.3449 L 283.3348 411.3449 L 283.3348 411.703 L 283.0699 411.703 L 283.0699 412.0611 L 282.7995 412.0611 L 282.7995 413.4886 L 282.5291 413.4886 L 282.5291 413.8467 L 281.7289 413.8467 L 281.7289 414.2047 L 280.1211 414.2047 L 280.1211 414.5628 L 277.7095 414.5628 L 277.7095 414.2047 L 276.6371 414.2047 L 276.6371 414.5628 L 275.5665 414.5628 L 275.5665 414.9209 L 275.2979 414.9209 L 275.2979 415.2741 L 274.7626 415.2741 L 274.7626 415.6322 L 274.494 415.6322 L 274.494 417.4178 L 274.2273 417.4178 L 274.2273 418.134 L 274.494 418.134 L 274.494 418.8502 L 274.2273 418.8502 L 274.2273 419.2033 L 273.9587 419.2033 L 273.9587 419.9195 L 273.6902 419.9195 L 273.6902 420.2776 L 273.4234 420.2776 L 273.4234 420.9889 L 273.1549 420.9889 L 273.1549 421.347 L 272.6196 421.347 L 272.6196 421.7051 L 272.351 421.7051 L 272.351 422.0632 L 271.8157 422.0632 L 271.8157 422.7794 L 271.2804 422.7794 L 271.2804 423.1326 L 270.7451 423.1326 L 270.7451 423.4907 L 270.4765 423.4907 L 270.4765 423.8488 L 270.2079 423.8488 L 270.2079 424.2069 L 269.6726 424.2069 L 269.6726 424.5649 L 269.1373 424.5649 L 269.1373 424.9181 L 268.8688 424.9181 L 268.8688 424.5649 L 268.602 424.5649 L 268.602 424.2069 L 268.3335 424.2069 L 268.3335 423.8488 L 267.7963 423.8488 L 267.7963 423.4907 L 267.5314 423.4907 L 267.5314 423.1326 L 266.7257 423.1326 L 266.7257 422.7794 L 266.4572 422.7794 L 266.4572 422.4213 L 266.1886 422.4213 L 266.1886 421.7051 L 265.9219 421.7051 L 265.9219 420.9889 L 265.6533 420.9889 L 265.6533 420.6357 L 265.3884 420.6357 L 265.3884 420.2776 L 265.1161 420.2776 L 265.1161 419.9195 L 264.8494 419.9195 L 264.8494 419.5614 L 264.5827 419.5614 L 264.5827 419.2033 L 264.3141 419.2033 L 264.3141 418.8502 L 263.5102 418.8502 L 263.5102 419.2033 L 262.7064 419.2033 L 262.7064 418.8502 L 261.3672 418.8502 L 261.3672 418.4921 L 260.5633 418.4921 L 260.5633 418.134 L 260.2966 418.134 L 260.2966 417.7759 L 260.028 417.7759 L 260.028 417.4178 L 259.7613 417.4178 L 259.7613 417.7759 L 259.4927 417.7759 L 259.4927 418.134 L 258.6907 418.134 L 258.6907 417.7759 L 257.885 417.7759 L 257.885 417.4178 L 256.2754 417.4178 L 256.2754 417.0597 L 255.4752 417.0597 L 255.4752 416.7065 L 254.6695 416.7065 L 254.6695 416.3484 L 253.8656 416.3484 L 253.8656 415.9903 L 253.3303 415.9903 L 253.3303 416.3484 L 253.0617 416.3484 L 253.0617 415.9903 L 251.7226 415.9903 L 251.7226 416.3484 L 251.4558 416.3484 L 251.4558 416.7065 L 251.1873 416.7065 L 251.1873 416.3484 L 250.1167 416.3484 L 250.1148 415.9903 L 248.7756 415.9903 L 248.7756 415.6322 L 248.5089 415.6322 L 248.5089 415.9903 L 247.9718 415.9903 L 247.9718 415.6322 L 246.0973 415.6322 L 246.0973 415.2741 L 245.5638 415.2741 L 245.5638 414.9209 L 243.1485 414.9209 L 243.1485 414.5628 L 242.3484 414.5628 L 242.3484 414.9209 L 241.8112 414.9209 L 241.8112 415.2741 L 241.0055 415.2741 L 241.0055 415.6322 L 240.2035 415.6322 L 240.2035 415.2741 L 239.9349 415.2741 L 239.9349 415.6322 L 236.7212 415.6322 L 236.7212 415.2741 L 231.3627 415.2741 L 231.3627 414.9209 L 228.9529 414.9209 L 228.9529 414.5628 L 227.8823 414.5628 L 227.8823 414.9209 L 227.6101 414.9209 L 227.6101 414.5628 L 227.0766 414.5628 L 227.0766 414.2047 L 226.808 414.2047 L 226.808 413.4886 L 226.5395 413.4886 L 226.5395 413.1305 L 226.0042 413.1305 L 226.0042 412.7773 L 225.467 412.7773 L 225.467 412.4192 L 220.9142 412.4192 L 220.9142 412.0611 L 220.1122 412.0611 L 220.1122 412.4192 L 219.8436 412.4192 L 219.8436 412.0611 L 218.5044 412.0611 L 218.5026 411.703 L 217.1634 411.703 L 217.1634 410.2755 L 216.6263 410.2755 L 216.6263 409.9174 L 216.0928 409.9174 L 216.0928 409.5593 L 215.8261 409.5593 L 215.8261 408.8481 L 214.4832 408.8481 L 214.4832 408.49 L 213.1459 408.49 L 213.1459 408.1319 L 212.6106 408.1319 L 212.6106 407.4157 L 212.0735 407.4157 L 212.0735 407.0625 L 211.8067 407.0625 L 211.8067 406.7044 L 211.2696 406.7044 L 211.2696 406.3463 L 211.0029 406.3463 L 211.0029 405.9882 L 209.9304 405.9882 L 209.9304 405.6301 L 208.8598 405.6301 L 208.8598 405.9882 L 208.0559 405.9882 L 208.0559 405.6301 L 207.7874 405.6301 L 207.7874 405.272 L 207.5188 405.272 L 207.5188 404.5607 L 206.7168 404.5607 L 206.7168 404.2026 L 205.9147 404.2026 L 205.9147 403.8445 L 204.5737 403.8445 L 204.5737 404.2026 L 204.3051 404.2026 L 204.3051 403.8445 L 203.7717 403.8445 L 203.7717 404.2026 L 201.0878 404.2026 L 201.0878 404.5607 L 200.5544 404.5607 L 200.5544 404.2026 L 200.8229 404.2026 L 200.8229 403.8445 L 199.2152 403.8445 L 199.2152 403.4865 L 198.4113 403.4865 L 198.4113 403.8445 L 198.1427 403.8445 L 198.1427 403.4865 L 196.535 403.4865 L 196.535 402.7752 L 196.2683 402.7752 L 196.2683 402.4171 L 195.733 402.4171 L 195.733 401.7009 L 195.4644 401.7009 L 195.4644 400.6315 L 194.6605 400.6315 L 194.6605 400.2734 L 194.3919 400.2734 L 194.3919 399.9153 L 194.1252 399.9153 L 194.1252 399.7583 L 194.1252 399.5572 L 193.3213 399.5572 L 193.3213 399.204 L 193.0528 399.204 L 193.0528 398.8459 L 191.9822 398.8459 L 191.9822 398.4878 L 191.1783 398.4878 L 191.1783 398.1298 L 190.3763 398.1298 L 190.3763 397.7717 L 188.4981 397.7717 L 188.4981 397.4136 L 187.961 397.4136 L 187.961 397.0604 L 187.1589 397.0604 L 187.1589 396.7023 L 186.8904 396.7023 L 186.8904 396.3442 L 185.8179 396.3442 L 185.8179 395.9861 L 183.9453 395.9861 L 183.9453 395.628 L 182.6061 395.628 L 182.6061 394.9167 L 182.3375 394.9167 L 182.3375 394.5586 L 181.2651 394.5586 L 181.2651 394.9167 L 180.7298 394.9167 L 180.7298 395.2748 L 180.4631 395.2748 L 180.4631 394.9167 L 180.1945 394.9167 L 180.1945 394.5586 L 179.6574 394.5586 L 179.6574 394.2005 L 179.3925 394.2005 L 179.3281 393.8424 L 179.1221 393.8424 L 179.1221 393.7247 L 179.1221 393.4843 L 178.8535 393.4843 L 178.8535 391.6988 L 179.1221 391.6988 L 179.1221 391.3456 L 178.8535 391.3456 L 178.8535 390.9875 L 178.5868 390.9875 L 178.5868 390.6294 L 178.32 390.6294 L 178.32 390.2713 L 178.0515 390.2713 L 178.0515 389.9132 L 177.7829 389.9132 L 177.7829 389.5551 L 177.5143 389.5551 L 177.5143 389.2019 L 177.2494 389.2019 L 177.2494 388.8438 L 176.9772 388.8438 L 176.9772 388.1276 L 176.7104 388.1276 L 176.7104 387.4164 L 176.4437 387.4164 L 176.4437 386.7002 L 175.9066 386.7002 L 175.9066 386.3421 L 175.3713 386.3421 L 175.3713 385.6259 L 175.1064 385.6259 L 175.1064 384.9146 L 174.5674 384.9146 L 174.5674 384.5565 L 174.3007 384.5565 L 174.3007 384.1984 L 173.7635 384.1984 L 173.7635 383.4871 L 173.2282 383.4871 L 173.2282 382.771 L 172.9596 382.771 L 172.9596 381.6967 L 172.6929 381.6967 L 172.6929 381.3435 L 172.4243 381.3435 L 172.4243 380.9854 L 172.1576 380.9854 L 172.1576 380.6273 L 171.889 380.6273 L 171.889 380.2692 L 171.6205 380.2692 L 171.6205 379.9111 L 171.3537 379.9111 L 171.3537 379.5579 L 170.8166 379.5579 L 170.8166 379.1998 L 170.5499 379.1998 L 170.5499 378.8417 L 169.746 378.8417 L 169.746 378.1255 L 169.4774 378.1255 L 169.4774 377.7674 L 168.6736 377.7674 L 168.6736 377.4143 L 167.8697 377.4143 L 167.8697 377.0562 L 167.3344 377.0562 L 167.3344 376.6981 L 166.7991 376.6981 L 166.7991 375.9819 L 166.5305 375.9819 L 166.5305 375.6287 L 166.2638 375.6287 L 166.2638 375.2706 L 165.9952 375.2706 L 165.9952 374.9125 L 165.7266 374.9125 L 165.7266 374.5544 L 165.1913 374.5544 L 165.1913 373.8382 L 164.656 373.8382 L 164.656 373.485 L 163.8503 373.485 L 163.8503 373.1269 L 163.5818 373.1269 L 163.5818 372.7688 L 163.3169 372.7688 L 163.3169 372.0527 L 163.0501 372.0527 L 163.0501 371.6995 L 162.7797 371.6995 L 162.7797 371.3414 L 162.2444 371.3414 L 162.2444 370.9833 L 161.9758 370.9833 L 161.9758 370.6252 L 160.6367 370.6252 L 160.6367 370.2671 L 160.1014 370.2671 L 160.1014 370.6252 L 159.5661 370.6252 L 159.5661 370.2671 L 159.2975 370.2671 L 159.2975 369.909 L 159.0289 369.909 L 159.0289 369.1977 L 158.7622 369.1977 L 158.7622 368.8396 L 158.4936 368.8396 L 158.4936 368.4815 L 158.2269 368.4815 L 158.2251 368.1234 L 157.9583 368.1234 L 157.9583 367.4121 L 157.6898 367.4121 L 157.6898 366.696 L 157.423 366.696 L 157.423 366.3379 L 157.1545 366.3379 L 157.1545 365.6266 L 156.8859 365.6266 L 156.8859 364.9104 L 156.6192 364.9104 L 156.6192 364.5523 L 156.3506 364.5523 L 156.3506 364.1942 L 156.0839 364.1942 L 156.0839 363.841 L 155.8153 363.841 L 155.8153 363.4829 L 155.28 363.4829 L 155.28 363.1248 L 155.0114 363.1248 L 155.0114 362.4086 L 154.7428 362.4086 L 154.7428 362.0555 L 154.2075 362.0505 L 154.2075 361.6974 L 153.9408 361.6974 L 153.9408 361.3393 L 153.6722 361.3393 L 153.6722 360.9812 L 152.8702 360.9812 L 152.8702 360.6231 L 152.0645 360.6231 L 152.0645 360.265 L 147.7784 360.265 L 147.7784 360.6231 L 147.5098 360.6231 L 147.5098 360.265 L 146.706 360.265 L 146.706 359.9118 L 146.4392 359.9118 L 146.4392 359.5537 L 146.1688 359.5537 L 146.1688 359.1956 L 145.9021 359.1956 L 145.9021 358.8375 L 144.8315 358.8375 L 144.8315 358.4794 L 144.5629 358.4794 L 144.5629 358.1262 L 144.0294 358.1262 L 144.0294 357.7681 L 143.2237 357.7681 L 143.2237 357.41 L 141.616 357.41 L 141.616 357.0519 L 140.814 357.0519 L 140.814 356.6939 L 139.7434 356.6939 L 139.7434 356.3358 L 138.9376 356.3358 L 138.9376 356.6939 L 137.6003 356.6939 L 137.6003 357.0519 L 135.9907 357.0519 L 135.9907 357.41 L 135.4536 357.41 L 135.4536 357.0519 L 134.9183 357.0519 L 134.9183 357.41 L 134.1144 357.41 L 134.1144 357.7681 L 133.3105 357.7681 L 133.3105 357.41 L 133.0438 357.41 L 133.0438 357.0519 L 132.5067 357.0519 L 132.5067 356.6939 L 131.9714 356.6939 L 131.9714 356.3358 L 129.8283 356.3358 L 129.8283 355.9826 L 127.9759 355.9826 L 127.6853 355.9826 L 127.6853 355.7324 L 127.6853 355.6245 L 127.5639 355.6245 L 127.15 355.6245 L 127.15 355.2664 L 126.3461 355.2664 L 126.3461 355.6245 L 125.0069 355.6245 L 125.0069 355.9826 L 123.6678 355.9826 L 123.6678 355.6245 L 123.3992 355.6245 L 123.3992 355.2664 L 122.862 355.2664 L 122.862 354.9083 L 122.3267 354.9083 L 122.3267 354.5502 L 122.06 354.5502 L 122.06 354.197 L 121.7896 354.197 L 121.7896 353.8389 L 121.5229 353.8389 L 121.5229 353.4808 L 120.9876 353.4808 L 120.9876 353.1227 L 120.4523 353.1227 L 120.4523 352.7646 L 117.2368 352.7646 L 117.2368 353.1227 L 114.5584 353.1227 L 114.5584 353.4808 L 114.0231 353.4808 L 114.0231 353.1227 L 113.486 353.1227 L 113.486 352.7646 L 112.9488 352.7646 L 112.9488 352.4065 L 112.4154 352.4065 L 112.4154 352.0533 L 110.0038 352.0533 L 110.0038 351.6953 L 109.4685 351.6953 L 109.4685 351.3372 L 108.396 351.3372 L 108.396 350.9791 L 107.5921 350.9791 L 107.5921 350.621 L 106.5197 350.621 L 106.5197 350.9791 L 103.5746 350.9791 L 103.5746 351.3372 L 102.5022 351.3372 L 102.5022 350.9791 L 102.2373 350.9791 L 102.2373 350.621 L 101.9669 350.621 L 101.9669 350.2678 L 100.8926 350.2678 L 100.8926 350.621 L 100.0942 350.621 L 100.0942 350.2678 L 98.7532 350.2678 L 98.7532 350.621 L 97.6789 350.621 L 97.6789 350.2678 L 96.8769 350.2678 L 96.8769 349.9097 L 96.6083 349.9097 L 96.6083 349.5516 L 96.3416 349.5516 L 96.3416 349.1935 L 96.073 349.1935 L 96.073 348.8354 L 95.8045 348.8354 L 95.8045 348.4773 L 95.5377 348.4773 L 95.5377 348.1241 L 95.0024 348.1241 L 95.0024 347.766 L 94.1986 347.766 L 94.1986 347.4079 L 93.93 347.4079 L 93.93 347.0498 L 93.3947 347.0498 L 93.3947 346.6917 L 93.1261 346.6917 L 93.1261 345.9805 L 91.787 345.9805 L 91.787 345.6224 L 91.5184 345.6224 L 91.5184 345.2643 L 90.7145 345.2643 L 90.7145 345.6224 L 88.5715 345.6224 L 88.5715 345.2643 L 86.1617 345.2643 L 86.1617 344.9062 L 82.1405 344.9062 L 82.1405 344.5481 L 81.607 344.5481 L 81.607 344.1949 L 81.0717 344.1949 L 81.0717 342.4093 L 81.3385 342.4093 L 81.3385 340.2657 L 81.0717 340.2657 L 81.0717 339.5495 L 80.8032 339.5495 L 80.8032 338.4801 L 80.5346 338.4801 L 80.5346 335.9784 L 80.2678 335.9784 L 80.2678 332.7604 L 80.5346 332.7604 L 80.5346 331.3329 L 80.2678 331.3329 L 80.2678 329.9055 L 79.9993 329.9055 L 79.9993 329.1893 L 80.2678 329.1893 L 80.2678 328.478 L 80.5346 328.478 L 80.5346 327.7618 L 80.8032 327.7618 L 80.8032 322.4051 L 81.0717 322.4051 L 81.0717 321.3308 L 81.3385 321.3308 L 81.3385 320.9727 L 81.8738 320.9727 L 81.8738 320.2615 L 82.4109 320.2615 L 82.4109 319.9034 L 82.9462 319.9034 L 82.9462 319.5453 L 83.2405 319.5453 L 83.7501 319.5453 L 83.7501 319.1872 L 84.5558 319.1872 L 84.5558 318.834 L 85.0892 318.834 L 85.0892 318.4759 L 85.8931 318.4759 L 85.8931 318.1178 L 86.6951 318.1178 L 86.6951 317.7597 L 86.9637 317.7597 L 86.9637 317.4016 L 87.7694 317.4016 L 87.7694 316.6903 L 88.0362 316.6903 L 88.0362 315.616 L 88.3047 315.616 L 88.3047 315.258 L 88.84 315.258 L 88.84 314.1886 L 89.1086 314.1886 L 89.1086 313.4724 L 89.6439 313.4724 L 89.6439 313.1143 L 89.9125 313.1143 L 89.9125 312.7611 L 90.1792 312.7611 L 90.1792 310.2594 L 89.9125 310.2594 L 89.9125 309.5432 L 90.1792 309.5432 L 90.1792 308.1157 L 90.4478 308.1157 L 90.4478 307.3995 L 90.7145 307.3995 L 90.7145 307.0463 L 90.9831 307.0463 L 90.9831 306.6882 L 91.2516 306.6882 L 91.2516 305.8298 L 91.2516 305.6139 L 91.5184 305.5796 L 91.5184 305.2558 L 91.787 305.2558 L 91.787 304.5446 L 92.0555 304.5446 L 92.0555 303.1171 L 92.3223 303.1171 L 92.3223 302.759 L 92.5908 302.759 L 92.5908 302.0428 L 92.8576 302.0428 L 92.8576 301.6847 L 93.1261 301.6847 L 93.1261 301.3266 L 93.3947 301.3266 L 93.3947 300.9734 L 93.6614 300.9734 L 93.6614 300.6153 L 95.0024 300.6153 L 95.0024 300.2572 L 95.5377 300.2572 L 95.5377 299.8992 L 95.81 299.8992 L 96.073 299.8992 L 96.073 299.5411 L 96.3416 299.5411 L 96.3416 298.8298 L 96.8769 298.8298 L 96.8769 298.4717 L 97.4122 298.4717 L 97.4122 298.1136 L 97.6789 298.1136 L 97.6789 297.7555 L 98.4847 297.7555 L 98.4847 297.3974 L 98.7532 297.3974 L 98.7532 297.0442 L 99.2885 297.0442 L 99.2885 296.6861 L 100.3591 296.6861 L 100.3591 296.328 L 101.4316 296.328 L 101.4316 295.9699 L 102.2373 295.9699 L 102.2373 295.6118 L 102.5022 295.6118 L 102.5022 295.2586 L 102.7708 295.2586 L 102.7708 293.4731 L 104.6452 293.4682 L 104.6452 293.115 L 106.253 293.115 L 106.253 292.7569 L 106.7883 292.7569 L 106.7883 292.3988 L 107.3254 292.3988 L 107.3254 292.0407 L 107.8607 292.0407 L 107.8607 292.3988 L 108.1293 292.3988 L 108.1293 292.0407 L 108.396 292.0407 L 108.396 292.3988 L 109.4685 292.3988 L 109.4685 292.0407 L 109.7352 292.0407 L 109.7352 291.3294 L 110.0038 291.3294 L 110.0038 290.9713 L 110.2723 290.9713 L 110.2723 290.6132 L 110.8058 290.6132 L 110.8058 290.2551 L 111.078 290.2551 L 111.078 289.1858 L 111.3429 289.1858 L 111.3429 288.4696 L 111.6115 288.4696 L 111.6115 287.7534 L 111.8801 287.7534 L 111.8801 287.4002 L 112.4154 287.4002 L 112.4154 287.0421 L 113.486 287.0421 L 113.486 286.684 L 114.0231 286.684 L 114.0231 286.3259 L 114.5584 286.3259 L 114.5584 285.9678 L 114.827 285.9678 L 114.827 285.6146 L 115.0937 285.6146 L 115.0937 284.5403 L 115.629 284.5403 L 115.629 284.1823 L 116.4347 284.1823 L 116.4347 283.8242 L 117.2368 283.8242 L 117.2368 283.471 L 121.5229 283.471 L 121.5229 283.1129 L 125.0069 283.1129 L 125.0069 282.7548 L 128.2206 282.7548 L 128.2206 282.3967 L 133.546 282.3967 L 134.6516 282.3967 L 134.6516 282.0386 L 135.185 282.0386 L 135.185 281.6854 L 135.7222 281.6854 L 135.7222 281.4549 L 135.7222 281.3273 L 136.022 281.3273 L 136.526 281.3273 L 136.526 281.1115 L 136.526 280.9692 L 136.8498 280.9692 L 137.0613 280.9692 L 137.0613 280.876 L 137.0613 280.253 L 137.3281 280.253 L 137.3281 279.5417 L 137.6003 279.5417 L 137.6003 278.8256 L 138.1338 278.8256 L 138.1338 278.4675 L 141.0807 278.4675 L 141.0807 278.1094 L 141.8864 278.1094 L 141.8864 277.7562 L 143.2237 277.7562 L 143.2237 277.3981 L 143.4923 277.3981 L 143.4923 277.04 L 143.759 277.04 L 143.759 276.6819 L 144.2943 276.6819 L 144.2943 276.3238 L 144.8315 276.3238 L 144.8315 275.9657 L 145.6354 275.9657 L 145.6354 275.6125 L 145.9021 275.6125 L 145.9021 275.2544 L 146.1688 275.2544 L 146.1688 274.8963 L 147.5098 274.8963 L 147.5098 274.5382 L 148.0451 274.5382 L 148.0451 274.1801 L 149.9214 274.1801 L 149.9214 273.827 L 150.6241 273.827 L 150.992 273.827 L 150.992 273.6111 L 150.992 273.4689 L 151.2367 273.4689 L 152.5998 273.4689 L 152.5998 273.1108 L 153.6722 273.1108 L 153.6722 272.7527 L 154.4761 272.7527 L 154.4761 272.3946 L 155.28 272.3946 L 155.28 272.0365 L 156.6192 272.0365 L 156.6192 271.6833 L 157.423 271.6833 L 157.423 271.3252 L 157.9583 271.3252 L 157.9583 270.9671 L 159.5661 270.9671 L 159.5661 270.609 L 161.172 270.609 L 161.1738 270.2509 L 162.5111 270.2509 L 162.5111 269.8977 L 163.5818 269.8977 L 163.5818 269.5396 L 164.656 269.5396 L 164.656 269.1815 L 165.7266 269.1815 L 165.7266 268.8235 L 166.5305 268.8235 L 166.5305 268.4654 L 167.603 268.4654 L 167.603 268.1073 L 168.6736 268.1073 L 168.6736 267.7541 L 169.746 267.7541 L 169.746 267.396 L 170.0127 267.396 L 170.0127 267.0379 L 171.3537 267.0379 L 171.3537 266.6798 L 172.9596 266.6798 L 172.9596 265.9685 L 174.5674 265.9685 L 174.5674 265.6104 L 176.177 265.6104 L 176.177 265.2523 L 177.5143 265.2523 L 177.5143 264.8942 L 178.5868 264.8942 L 178.5868 264.5361 L 179.6574 264.5361 L 179.6574 264.178 L 180.7298 264.178 L 180.7298 263.8249 L 181.2651 263.8249 L 181.2651 263.4668 L 182.3375 263.4668 L 182.3375 263.1087 L 183.1414 263.1087 L 183.1414 262.7506 L 184.212 262.7506 L 184.212 262.3925 L 185.2845 262.3925 L 185.2845 262.0393 L 186.0883 262.0393 L 186.0883 261.6812 L 186.3551 261.6812 L 186.3551 261.3231 L 186.8904 261.3231 L 186.8904 260.965 L 187.1589 260.965 L 187.1589 260.6069 L 187.961 260.6069 L 187.961 260.2488 L 188.2332 260.2488 L 188.2332 259.8956 L 189.8373 259.8956 L 189.8391 259.5375 L 190.3763 259.5375 L 190.3763 259.1794 L 190.9097 259.1794 L 190.9097 258.8213 L 191.1783 258.8213 L 191.1783 258.4632 L 191.4469 258.4632 L 191.4469 258.1101 L 192.2489 258.1101 L 192.2489 257.752 L 192.5175 257.752 L 192.5175 257.3939 L 193.0528 257.3939 L 193.0528 257.0358 L 193.3213 257.0358 L 193.3213 256.6777 L 193.8566 256.6777 L 193.8566 256.3196 L 194.3919 256.3196 L 194.3919 256.6777 L 194.9291 256.6777 L 194.9291 256.3196 L 195.4644 256.3196 L 195.4644 255.9664 L 195.733 255.9664 L 195.733 255.6083 L 195.9997 255.6083 L 195.9997 255.2502 L 196.8036 255.2502 L 196.8036 254.8921 L 197.0721 254.8921 L 197.0721 254.534 L 197.876 254.534 L 197.876 254.1808 L 198.4113 254.1808 L 198.4113 253.8227 L 198.678 253.8227 L 198.678 253.5971 L 204.9435 254.1514 L 209.511 255.157 L 231.8833 263.7316 L 251.9691 268.1416 L 258.4534 270.0645 L 272.6619 276.986 L 278.8721 279.1787 L 285.6213 280.4934 L 306.4871 282.5389 L 313.3485 283.6819 L 319.5918 285.5067 L 336.5302 291.8298 L 331.8817 314.895 L 328.8465 325.1178 L 325.3551 331.485 L 312.2208 348.7913 L 308.3487 354.8396 L 305.5654 361.3196 L 303.1097 371.4248 L 317.3752 386.2145 L 324.3249 395.4808 Z" fill="#000000" fill-opacity="1" stroke="#000000" stroke-width="0" paint-order="fill" stroke-opacity="1" stroke-dasharray="" stroke-linecap="butt" stroke-linejoin="miter" stroke-miterlimit="10" clip-path="none" style="filter: url(#f1)"/>
<path data-code="202" d="M 607.402 281.9061 L 607.562 250.0014 L 606.9734 238.2677 L 606.0131 230.6447 L 604.227 223.3357 L 597.761 208.5655 L 595.5794 201.8795 L 594.2016 194.2908 L 591.1314 166.9923 L 587.066 153.4485 L 588.4733 153.4485 L 588.4733 153.0904 L 589.0086 153.0904 L 589.0086 152.7323 L 589.2753 152.7323 L 589.2753 152.3742 L 589.5457 152.3742 L 589.5457 152.021 L 590.8849 152.021 L 590.8849 151.6629 L 591.9555 151.6629 L 591.9555 151.3048 L 592.7612 151.3048 L 592.7612 150.9467 L 593.2965 150.9467 L 593.2965 150.5886 L 594.1004 150.5886 L 594.1004 150.2354 L 594.9043 150.2354 L 594.9043 150.5886 L 596.5102 150.5886 L 596.5102 150.2354 L 596.7787 150.2354 L 596.7787 150.5886 L 597.0473 150.5886 L 597.0473 150.2354 L 597.8493 150.2354 L 597.8493 149.8773 L 598.3865 149.8773 L 598.3865 149.5193 L 598.9218 149.5193 L 598.9218 149.8773 L 601.6001 149.8773 L 601.6001 149.5193 L 603.2079 149.5193 L 603.2079 149.1612 L 605.086 149.1612 L 605.086 148.8031 L 605.6195 148.8031 L 605.6195 148.445 L 606.9587 148.445 L 606.9587 148.0918 L 608.5664 148.0918 L 608.5664 147.7337 L 611.7801 147.7337 L 611.7819 147.3756 L 614.727 147.3756 L 614.727 147.0175 L 616.3347 147.0175 L 616.3347 146.6594 L 620.0855 146.6594 L 620.0855 146.3062 L 620.6208 146.3062 L 620.6208 145.9481 L 621.1579 145.9481 L 621.1579 145.59 L 621.9618 145.59 L 621.9618 145.2319 L 623.0324 145.2319 L 623.0324 144.8738 L 623.5696 144.8738 L 623.5696 144.5157 L 624.6383 144.5157 L 624.6383 144.1626 L 624.9087 144.1626 L 624.9087 143.8045 L 625.1755 143.8045 L 625.1755 143.4464 L 625.7108 143.4464 L 625.7108 143.0883 L 625.9793 143.0883 L 625.9793 142.7302 L 626.5146 142.7302 L 626.5146 142.377 L 626.7814 142.377 L 626.7814 142.0189 L 627.3185 142.0189 L 627.3185 141.6608 L 627.5871 141.6608 L 627.5871 141.3027 L 628.1224 141.3027 L 628.1224 140.9446 L 628.6595 140.9446 L 628.6595 140.2333 L 629.1967 140.2333 L 629.1967 139.8752 L 629.4616 139.8752 L 629.4616 139.5171 L 629.7301 139.5171 L 629.7301 139.1591 L 629.9969 139.1591 L 629.9969 138.801 L 630.534 138.801 L 630.534 138.4478 L 630.8026 138.4478 L 630.8026 138.0897 L 631.0675 138.0897 L 631.0675 137.3735 L 631.3397 137.3735 L 631.3397 137.0154 L 631.6064 137.0154 L 631.6064 136.6573 L 631.8732 136.6573 L 631.8732 136.3041 L 632.1417 136.3041 L 632.1417 135.946 L 632.4103 135.946 L 632.4103 135.5879 L 632.6771 135.5879 L 632.6771 135.2298 L 633.2124 135.2298 L 633.2124 134.8717 L 633.7495 134.8717 L 633.7495 134.5185 L 635.0887 134.5185 L 635.0887 134.1605 L 635.624 134.1605 L 635.624 133.8024 L 635.8925 133.8024 L 635.8925 133.4443 L 636.1593 133.4443 L 636.1593 133.0862 L 636.4278 133.0862 L 636.4278 132.733 L 636.9631 132.7281 L 636.9631 132.0168 L 637.2317 132.0168 L 637.2317 131.6587 L 637.5003 131.6587 L 637.5003 130.9425 L 637.767 130.9425 L 637.767 130.5893 L 638.0356 130.5893 L 638.0356 130.2312 L 638.3023 130.2312 L 638.3023 129.8731 L 638.5709 129.8731 L 638.5709 129.515 L 638.8395 129.515 L 638.8395 128.0876 L 639.9101 128.0876 L 639.9101 127.7295 L 640.1786 127.7295 L 640.1786 127.3714 L 640.7139 127.3714 L 640.7139 127.0133 L 640.9825 127.0133 L 640.9825 126.6601 L 641.2492 126.6601 L 641.2492 125.9439 L 641.5178 125.9439 L 641.5178 124.8745 L 641.7864 124.8745 L 641.7864 124.5164 L 642.5921 124.5164 L 642.5921 124.1583 L 642.857 124.1583 L 642.857 123.8003 L 643.1256 123.8003 L 643.1256 123.4422 L 643.3923 123.4422 L 643.3923 123.0841 L 643.6627 123.0841 L 643.6627 122.7309 L 643.9294 122.7309 L 643.9294 122.3728 L 644.1943 122.3728 L 644.1943 121.6566 L 644.4629 121.6566 L 644.4629 121.2985 L 645 121.2985 L 645 120.9453 L 645.5372 120.9453 L 645.5372 120.5872 L 645.8057 120.5872 L 645.8057 119.871 L 646.0725 119.871 L 646.0725 119.5129 L 646.6078 119.5129 L 646.6078 119.1548 L 646.8782 119.1548 L 646.8782 118.8017 L 647.4116 118.8017 L 647.4116 118.4436 L 648.2155 118.4436 L 648.2155 118.0855 L 648.4841 118.0855 L 648.4841 117.7274 L 648.7508 117.7274 L 648.7508 117.3693 L 649.0194 117.3693 L 649.0194 117.0161 L 649.2861 117.0161 L 649.2861 116.658 L 649.8233 116.658 L 649.8233 116.2999 L 650.8939 116.2999 L 650.8939 115.9418 L 651.1624 115.9418 L 651.1624 116.2999 L 651.431 116.2999 L 651.431 115.2256 L 651.6977 115.2256 L 651.6977 114.5143 L 652.233 114.5143 L 652.233 114.1562 L 652.5016 114.1562 L 652.5016 113.7981 L 653.0369 113.7981 L 653.0369 113.44 L 653.3036 113.44 L 653.3036 113.0869 L 653.8408 113.0869 L 653.8408 112.7288 L 654.1094 112.7288 L 654.1094 112.3707 L 655.7189 112.3707 L 655.7189 112.0126 L 655.9838 112.0126 L 655.9838 111.6545 L 656.2524 111.6545 L 656.2524 111.2964 L 656.7895 111.2964 L 656.7895 110.9432 L 657.0563 110.9432 L 657.0563 110.5851 L 657.5897 110.5851 L 657.5897 110.227 L 658.3954 110.227 L 658.3954 109.8689 L 659.7346 109.8689 L 659.7346 109.5108 L 660.2718 109.5108 L 660.2718 109.1576 L 662.1481 109.1576 L 662.1481 109.5108 L 663.4854 109.5108 L 663.4854 109.8689 L 665.6285 109.8689 L 665.6285 110.227 L 666.1638 110.227 L 666.1656 110.5851 L 668.0401 110.5851 L 668.0401 110.227 L 668.3086 110.227 L 668.3086 109.8689 L 669.1125 109.8689 L 669.1125 109.5108 L 669.9164 109.5108 L 669.9164 109.1576 L 670.4517 109.1576 L 670.4517 108.7995 L 670.7166 108.7995 L 670.7166 108.4414 L 672.5947 108.4414 L 672.5947 108.0834 L 673.9339 108.0834 L 673.9339 108.4414 L 674.2025 108.4414 L 674.2025 108.7995 L 674.7378 108.7995 L 674.7378 109.1576 L 675.0045 109.1576 L 675.0045 109.5108 L 675.2731 109.5108 L 675.2731 109.8689 L 676.077 109.8689 L 676.077 110.227 L 676.8808 110.227 L 676.8808 110.5851 L 677.1494 110.5851 L 677.1494 110.9432 L 677.4161 110.9432 L 677.4161 111.2964 L 678.22 111.2964 L 678.22 111.6545 L 678.7553 111.6545 L 678.7553 112.0126 L 679.6769 112.0126 L 680.0411 115.255 L 680.3575 148.1997 L 679.6677 160.37 L 678.6412 168.2873 L 676.7797 175.8809 L 670.6264 190.1212 L 668.2406 197.3959 L 666.8757 204.9454 L 664.7289 224.2922 L 662.0046 235.5698 L 656.3848 246.0869 L 642.949 265.0414 L 623.4058 277.04 L 617.2876 279.5417 L 607.402 281.9061 Z" fill="#000000" fill-opacity="1" stroke="#000000" stroke-width="0" paint-order="fill" stroke-opacity="1" stroke-dasharray="" stroke-linecap="butt" stroke-linejoin="miter" stroke-miterlimit="10" clip-path="none" style="filter: url(#f1)"/>
<path data-code="203" d="M 448.1783 167.7379 L 448.2371 191.9215 L 439.928 202.3945 L 436.4016 207.9867 L 430.6917 220.4758 L 423.2325 234.8585 L 420.922 241.6524 L 419.2407 253.2488 L 418.8986 265.1984 L 419.6436 281.2979 L 421.7903 296.691 L 382.1412 296.8087 L 360.6003 296.1809 L 347.9702 294.7534 L 336.5302 291.8298 L 319.5918 285.5067 L 313.3485 283.6819 L 306.4871 282.5389 L 285.6213 280.4934 L 278.8721 279.1787 L 272.6619 276.986 L 258.4534 270.0645 L 251.9691 268.1416 L 231.8833 263.7316 L 209.511 255.157 L 204.9435 254.1514 L 198.678 253.5971 L 198.678 253.4646 L 199.2152 253.4646 L 199.2152 253.1066 L 199.4819 253.1066 L 199.4819 252.7485 L 199.7505 252.7485 L 199.7505 252.3904 L 200.0191 252.3904 L 200.0191 252.0372 L 200.2858 252.0372 L 200.2858 251.321 L 200.5544 251.321 L 200.5544 250.9629 L 200.8229 250.9629 L 200.8229 250.6048 L 201.3601 250.6048 L 201.3601 250.2516 L 201.8935 250.2516 L 201.8935 249.8935 L 202.4307 249.8935 L 202.4307 249.5354 L 204.3051 249.5354 L 204.3051 249.1773 L 204.8404 249.1773 L 204.8404 248.8192 L 205.6443 248.8192 L 205.6443 248.4611 L 206.9835 248.4611 L 206.9835 248.108 L 208.0559 248.108 L 208.0559 247.7499 L 209.3951 247.7499 L 209.3951 247.3918 L 210.0537 247.3918 L 210.4657 247.3918 L 210.4657 247.0337 L 211.2696 247.0337 L 211.2696 246.6756 L 212.3402 246.6756 L 212.3402 246.3224 L 213.1459 246.3224 L 213.1459 245.9643 L 214.2165 245.9643 L 214.2165 245.6062 L 215.0204 245.6062 L 215.0204 245.2481 L 215.5575 245.2481 L 215.5575 244.89 L 216.3595 244.89 L 216.3595 244.5319 L 216.8985 244.5319 L 216.8985 244.1787 L 217.432 244.1787 L 217.432 243.8206 L 217.9691 243.8206 L 217.9691 243.4625 L 218.5026 243.4625 L 218.5044 243.1044 L 218.7712 243.1044 L 218.7712 242.7464 L 219.3065 242.7464 L 219.3065 242.3932 L 219.8436 242.3932 L 219.8436 242.0351 L 220.1122 242.0351 L 220.1122 241.677 L 220.6475 241.677 L 220.6475 241.3189 L 221.7181 241.3189 L 221.7181 241.677 L 222.2552 241.677 L 222.2552 241.3189 L 222.7905 241.3189 L 222.7905 240.9608 L 223.5944 240.9608 L 223.5944 240.6027 L 224.1297 240.6027 L 224.1297 240.2495 L 224.665 240.2495 L 224.665 239.8914 L 225.2003 239.8914 L 225.2003 239.5333 L 225.7374 239.5333 L 225.7374 239.1752 L 226.2727 239.1752 L 226.2727 238.8171 L 227.0766 238.8171 L 227.0766 238.4639 L 227.6101 238.4639 L 227.6101 238.1058 L 228.1472 238.1058 L 228.1472 237.7478 L 228.6844 237.7478 L 228.6844 237.3897 L 228.9529 237.3897 L 228.9529 236.6735 L 229.2197 236.6735 L 229.2197 235.6041 L 229.4882 235.6041 L 229.4882 235.246 L 229.7531 235.246 L 229.7531 234.8879 L 230.2903 234.8879 L 230.2903 234.5347 L 230.5588 234.5347 L 230.5588 234.1766 L 230.8274 234.1766 L 230.8274 233.8185 L 231.3627 233.8185 L 231.3627 233.4604 L 231.6313 233.4604 L 231.6313 233.1023 L 232.1666 233.1023 L 232.1666 232.7442 L 232.7019 232.7442 L 232.7019 232.3911 L 232.9705 232.3911 L 232.9705 232.033 L 233.7743 232.033 L 233.7743 231.6749 L 234.0411 231.6749 L 234.0411 231.3168 L 234.3096 231.3168 L 234.3096 230.9587 L 234.5782 230.9587 L 234.5782 230.2474 L 235.3821 230.2474 L 235.3821 229.8893 L 235.6488 229.8893 L 235.6488 229.5312 L 235.9174 229.5312 L 235.9174 229.1731 L 236.4527 229.1731 L 236.4527 228.815 L 236.7212 228.815 L 236.7212 228.1037 L 237.2565 228.1037 L 237.2565 227.7456 L 237.7918 227.7456 L 237.7918 227.3876 L 238.329 227.3876 L 238.329 227.0295 L 239.6682 227.0295 L 239.6682 226.6763 L 240.2035 226.6763 L 240.2035 226.3182 L 240.6413 226.3182 L 240.7369 226.3182 L 240.7369 226.2201 L 240.7369 225.9601 L 241.0055 225.9405 L 241.0055 225.602 L 241.3348 225.602 L 242.3484 225.602 L 242.3484 225.2439 L 242.88 225.2439 L 242.88 224.8858 L 243.9543 224.8858 L 243.9543 224.5326 L 244.4896 224.5326 L 244.4896 224.1745 L 245.0249 224.1745 L 245.0249 223.8164 L 245.2934 223.8164 L 245.2934 223.4583 L 245.5638 223.4583 L 245.5638 223.1002 L 245.8287 223.1002 L 245.8287 222.747 L 246.0973 222.747 L 246.0973 222.3889 L 246.6326 222.3889 L 246.6326 222.0309 L 247.1697 222.0309 L 247.1697 220.9566 L 247.705 220.9566 L 247.705 220.6034 L 247.9718 220.6034 L 247.9718 219.8872 L 248.2403 219.8872 L 248.2403 219.5291 L 248.5089 219.5291 L 248.5089 218.1752 L 248.5089 217.0273 L 247.705 217.0273 L 247.705 216.6742 L 247.4365 216.6742 L 247.4365 215.5999 L 247.1697 215.5999 L 247.1697 214.8886 L 247.4365 214.8886 L 247.4365 214.1724 L 247.705 214.1724 L 247.705 213.8143 L 247.9718 213.8143 L 247.9718 213.4562 L 248.5089 213.4562 L 248.5089 213.103 L 248.7756 213.0981 L 248.7756 212.7449 L 249.0442 212.7449 L 249.0442 212.0287 L 249.3128 212.0287 L 249.3128 211.6707 L 249.5795 211.6707 L 249.5795 211.4842 L 249.5795 210.9594 L 249.8463 210.9594 L 249.8463 210.6013 L 250.0578 210.6013 L 250.3834 210.6013 L 250.3834 210.2432 L 250.652 210.2432 L 250.652 209.8851 L 250.9187 209.8851 L 250.9187 209.527 L 251.4558 209.527 L 251.4558 208.8157 L 251.7226 208.8157 L 251.7226 208.0995 L 252.2615 208.0995 L 252.2615 207.7414 L 252.5264 207.7414 L 252.5264 207.3833 L 252.795 207.3833 L 252.795 207.0301 L 253.0617 207.0301 L 253.0617 206.6721 L 253.3303 206.6721 L 253.3303 205.5978 L 253.5989 205.5978 L 253.5989 204.1703 L 253.8656 204.1703 L 253.8656 203.8122 L 254.1323 203.8122 L 254.1323 203.4541 L 254.6695 203.4541 L 254.6695 202.7428 L 255.2066 202.7428 L 255.2066 202.3847 L 255.4752 202.3847 L 255.4752 202.0266 L 255.7419 202.0266 L 255.7419 201.6685 L 256.0087 201.6685 L 256.0087 201.3154 L 256.2754 201.3154 L 256.2754 200.5992 L 256.8125 200.5992 L 256.8125 200.2411 L 257.0811 200.2411 L 257.0811 199.883 L 257.3497 199.883 L 257.3497 199.5249 L 257.885 199.5249 L 257.885 199.1717 L 258.1535 199.1717 L 258.1535 198.8136 L 258.4203 198.8136 L 258.4203 198.4555 L 258.6907 198.4555 L 258.6907 198.0974 L 259.4927 198.0974 L 259.4927 197.7393 L 259.7613 197.7393 L 259.7613 197.028 L 260.028 197.028 L 260.028 196.3119 L 260.5633 196.3119 L 260.5633 195.9538 L 261.3672 195.9538 L 261.3672 195.5957 L 261.9043 195.5957 L 261.9043 195.2425 L 262.7064 195.2425 L 262.7064 194.8844 L 263.2435 194.8844 L 263.2435 194.5263 L 264.0455 194.5263 L 264.0455 193.8101 L 264.3141 193.8101 L 264.3141 193.4569 L 264.5827 193.4569 L 264.5827 193.0988 L 265.1161 193.0988 L 265.1161 192.7407 L 266.7257 192.7407 L 266.7257 192.0245 L 267.5314 192.0245 L 267.5314 191.6664 L 268.0649 191.6664 L 268.0649 191.3133 L 269.1373 191.3133 L 269.1373 190.9552 L 269.6726 190.9552 L 269.6726 190.5971 L 271.2804 190.5971 L 271.2804 190.239 L 272.0843 190.239 L 272.0843 189.8809 L 272.351 189.8809 L 272.351 189.5277 L 272.6196 189.5277 L 272.6196 189.1696 L 273.1549 189.1696 L 273.1549 188.8115 L 273.6902 188.8115 L 273.6902 188.4534 L 273.9587 188.4534 L 273.9587 188.0953 L 274.494 188.0953 L 274.494 187.7372 L 275.8351 187.7372 L 275.8351 187.384 L 276.1018 187.384 L 276.1018 187.0259 L 276.3704 187.0259 L 276.3704 186.6678 L 277.1742 186.6678 L 277.1742 187.384 L 277.7095 187.384 L 277.7095 187.0259 L 278.7801 187.0259 L 278.7838 186.6678 L 279.584 186.6678 L 279.584 186.3097 L 279.8544 186.3097 L 279.8544 185.9516 L 280.811 185.9516 L 280.9269 185.9516 L 280.9269 185.8535 L 280.9269 185.5985 L 281.1918 185.5985 L 281.1918 185.2404 L 281.6719 185.2404 L 281.9975 185.2404 L 281.9975 184.9755 L 281.9975 184.8823 L 282.106 184.8823 L 282.2642 184.8823 L 282.2642 184.7498 L 282.2642 184.5242 L 282.542 184.5242 L 283.0699 184.5242 L 283.0699 184.1661 L 283.6034 184.1661 L 283.6034 183.808 L 283.8719 183.808 L 283.8719 183.4597 L 283.8719 183.0967 L 284.1405 183.0967 L 284.1405 182.7386 L 284.4072 182.7386 L 284.4072 182.3805 L 284.674 182.3805 L 284.674 182.0224 L 286.4381 182.0224 L 287.3542 182.0224 L 287.3542 181.6692 L 288.9619 181.6692 L 288.9619 181.3111 L 289.2286 181.3111 L 289.2286 180.4625 L 289.2286 180.2369 L 289.6278 180.2369 L 290.0325 180.2369 L 290.0325 180.595 L 290.5678 180.595 L 290.5678 180.953 L 291.1049 180.953 L 291.1049 181.6692 L 292.7109 181.6692 L 292.7109 182.3805 L 292.9813 182.3805 L 293.248 182.3805 L 293.248 182.0224 L 294.3186 182.0224 L 294.3186 182.3805 L 294.8557 182.3805 L 294.8557 182.0224 L 297.2674 182.0224 L 297.2674 181.6692 L 297.5341 181.6692 L 297.5341 181.3111 L 297.8027 181.3111 L 297.8027 180.953 L 298.0694 180.953 L 298.0694 181.3111 L 299.1418 181.3111 L 299.1418 181.6692 L 299.4104 181.6692 L 299.4104 180.2369 L 299.1418 180.2369 L 299.1418 179.8788 L 299.4104 179.8788 L 299.4104 179.5256 L 299.6771 179.5256 L 299.6771 179.1675 L 300.2124 179.1675 L 300.2124 179.5256 L 301.0163 179.5256 L 301.0163 179.8788 L 301.5534 179.8788 L 301.5534 180.2369 L 302.0887 180.2369 L 302.0887 180.595 L 302.3555 180.595 L 302.3555 180.953 L 302.6222 180.953 L 302.6222 181.3111 L 303.4279 181.3111 L 303.4279 181.6692 L 303.9632 181.6692 L 303.9632 182.0224 L 304.4985 182.0224 L 304.5004 182.7386 L 304.7653 182.7386 L 304.7653 183.0967 L 305.8377 183.0967 L 305.8377 182.7386 L 306.1081 182.7386 L 306.1081 182.3805 L 306.3748 182.3805 L 306.3748 182.0224 L 307.1806 182.0224 L 307.1806 181.6692 L 307.714 181.6692 L 307.714 181.3111 L 311.1962 181.3111 L 311.1962 180.953 L 311.4648 180.953 L 311.4648 180.595 L 312.5372 180.595 L 312.5372 180.2369 L 313.3393 180.2369 L 313.3393 179.8788 L 314.4117 179.8788 L 314.4117 179.5256 L 315.2156 179.5256 L 315.2156 179.1675 L 315.7509 179.1675 L 315.7509 178.8094 L 316.0195 178.8094 L 316.0195 179.1675 L 317.0901 179.1675 L 317.0901 179.5256 L 319.7703 179.5256 L 319.7703 179.1675 L 321.378 179.1675 L 321.378 178.8094 L 321.9133 178.8094 L 321.9133 179.1675 L 323.521 179.1675 L 323.521 179.5256 L 325.127 179.5256 L 325.127 179.8788 L 327.2718 179.8788 L 327.2718 180.2369 L 328.3424 180.2369 L 328.3424 179.8788 L 329.4149 179.8788 L 329.4149 179.5256 L 330.4855 179.5256 L 330.4855 179.1675 L 331.2875 179.1675 L 331.2875 178.8094 L 333.4306 178.8094 L 333.4306 179.1675 L 335.3087 179.1675 L 335.3087 178.8094 L 336.1126 178.8094 L 336.1126 178.4513 L 336.6479 178.4513 L 336.6479 178.0932 L 336.9165 178.0932 L 336.9165 177.74 L 337.1832 177.74 L 337.1832 178.0932 L 337.4518 178.0932 L 337.4518 177.74 L 337.7185 177.74 L 337.7185 177.3819 L 338.2556 177.3819 L 338.2556 177.74 L 339.8615 177.74 L 339.8615 178.0932 L 340.3987 178.0932 L 340.3987 177.74 L 340.6654 177.74 L 340.6654 178.0932 L 342.8085 178.0932 L 342.8085 177.74 L 343.3438 177.74 L 343.3438 177.3819 L 343.8809 177.3819 L 343.8809 177.0238 L 346.024 177.0238 L 346.024 177.3819 L 346.5574 177.3819 L 346.5574 177.74 L 347.0964 177.74 L 347.0964 178.0932 L 347.3631 178.0932 L 347.3631 178.4513 L 347.9003 178.4513 L 347.9003 178.8094 L 348.167 178.8094 L 348.167 179.1675 L 348.7023 179.1675 L 348.7023 179.5256 L 348.9709 179.5256 L 348.9709 179.8788 L 349.5062 179.8788 L 349.5062 180.2369 L 349.7747 180.2369 L 349.7747 180.595 L 350.31 180.595 L 350.31 180.953 L 351.6492 180.953 L 351.6492 181.3111 L 353.257 181.3111 L 353.257 181.6692 L 354.3294 181.6692 L 354.3294 182.0224 L 354.8647 182.0224 L 354.8647 182.3805 L 355.939 182.3805 L 355.939 182.7386 L 357.5431 182.7386 L 357.5431 183.0967 L 358.8841 183.0967 L 358.8841 182.7386 L 360.49 182.7386 L 360.49 183.0967 L 360.7585 183.0967 L 360.7585 182.7386 L 361.831 182.7386 L 361.831 182.3805 L 362.3681 182.3805 L 362.3681 182.0224 L 363.7055 182.0224 L 363.7055 181.6692 L 364.2408 181.6692 L 364.2408 181.3111 L 364.7779 181.3111 L 364.7779 180.953 L 366.6505 180.953 L 366.6505 180.595 L 367.1877 180.595 L 367.1877 180.2369 L 368.5269 180.2369 L 368.5269 179.8788 L 369.3307 179.8788 L 369.3307 179.5256 L 370.6699 179.5256 L 370.6699 179.8788 L 371.4738 179.8788 L 371.4738 180.2369 L 373.0797 180.2369 L 373.0797 180.595 L 374.4225 180.595 L 374.4225 180.953 L 377.1009 180.953 L 377.1009 180.595 L 377.6362 180.595 L 377.6362 180.953 L 378.1715 180.953 L 378.1715 181.3111 L 379.2439 181.3111 L 379.2439 180.953 L 380.0478 180.953 L 380.0478 180.595 L 380.8517 180.595 L 380.8517 180.953 L 381.1184 180.953 L 381.1184 181.3111 L 381.9204 181.3111 L 381.9204 181.6692 L 382.4576 181.6692 L 382.4576 182.0224 L 382.9929 182.0224 L 382.9929 182.3805 L 384.8692 182.3805 L 384.8692 182.7386 L 387.0122 182.7386 L 387.0122 183.0967 L 387.8161 183.0967 L 387.8161 183.4548 L 388.3514 183.4548 L 388.3514 183.0967 L 388.62 183.0967 L 388.62 183.4548 L 389.1553 183.4548 L 389.1553 183.0967 L 389.4239 183.0967 L 389.4239 183.4548 L 393.7099 183.4548 L 393.7099 183.808 L 394.2452 183.808 L 394.2452 183.4548 L 395.0491 183.4548 L 395.0491 183.0967 L 397.1922 183.0967 L 397.1922 182.7386 L 397.7311 182.7386 L 397.7311 182.3805 L 397.996 182.3805 L 397.996 182.7386 L 399.6038 182.7386 L 399.6038 182.3805 L 400.9448 182.3805 L 400.9448 182.0224 L 402.0172 182.0224 L 402.0172 181.6692 L 402.2821 181.6692 L 402.284 181.3111 L 402.8193 181.3111 L 402.8193 180.953 L 403.8899 180.953 L 403.8899 180.595 L 404.427 180.595 L 404.427 178.8094 L 404.6937 178.8094 L 404.6937 178.0932 L 404.9623 178.0932 L 404.9623 178.4513 L 405.229 178.4513 L 405.229 178.8094 L 405.7662 178.8094 L 405.7662 179.1675 L 407.1054 179.1675 L 407.1054 178.8094 L 407.6407 178.8094 L 407.6407 178.4513 L 408.9798 178.4513 L 408.9798 178.8094 L 409.7837 178.8094 L 409.7837 178.4513 L 410.5857 178.4513 L 410.5857 178.0932 L 411.9286 178.0932 L 411.9286 177.74 L 412.9992 177.74 L 412.9992 177.3819 L 413.2678 177.3819 L 413.2678 177.0238 L 414.0716 177.0238 L 414.0716 176.6657 L 414.8737 176.6657 L 414.8737 176.3076 L 416.2147 176.3076 L 416.2147 175.9495 L 417.2853 175.9495 L 417.2853 175.5964 L 418.0892 175.5964 L 418.0892 175.2383 L 418.6245 175.2383 L 418.6245 175.9495 L 418.3577 175.9495 L 418.3577 176.6657 L 418.0892 176.6657 L 418.0892 177.0238 L 418.3577 177.0238 L 418.3577 177.3819 L 418.893 177.3819 L 418.893 177.74 L 419.1616 177.74 L 419.1616 177.3819 L 421.8418 177.3819 L 421.8418 177.0238 L 423.181 177.0238 L 423.181 176.6657 L 423.7126 176.6657 L 423.7126 176.3076 L 424.5183 176.3076 L 424.5183 175.9495 L 425.0554 175.9495 L 425.0554 175.5964 L 425.8575 175.5964 L 425.8575 175.2383 L 426.126 175.2383 L 426.126 174.8802 L 426.6613 174.8802 L 426.6613 174.5221 L 427.1985 174.5221 L 427.1985 174.164 L 427.4652 174.164 L 427.4652 173.4527 L 427.7338 173.4527 L 427.7338 173.0946 L 428.2691 173.0946 L 428.2691 172.7365 L 428.8044 172.7365 L 428.8044 172.3784 L 429.073 172.3784 L 429.073 172.0203 L 429.6083 172.0203 L 429.6083 171.6671 L 429.8768 171.6671 L 429.8768 171.309 L 430.4121 171.309 L 430.4121 170.9509 L 430.6807 170.9509 L 430.6807 170.2348 L 430.9474 170.2348 L 430.9493 169.8816 L 431.216 169.8816 L 431.216 169.5235 L 431.4846 169.5235 L 431.4846 169.1654 L 431.7513 169.1654 L 431.7513 168.4492 L 432.0199 168.4492 L 432.0199 168.0911 L 432.2885 168.0911 L 432.2885 167.3798 L 432.5552 167.3798 L 432.5552 167.0217 L 432.8219 167.0217 L 432.8219 166.3055 L 433.0923 166.3055 L 433.0923 165.5942 L 433.3591 165.5942 L 433.3591 165.2362 L 433.0923 165.2362 L 433.0923 164.52 L 432.8219 164.52 L 432.8219 163.8087 L 432.2885 163.8087 L 432.2885 163.0925 L 432.0199 163.0925 L 432.0199 162.7344 L 431.7513 162.7344 L 431.7513 162.3567 L 431.7513 161.3069 L 432.0199 161.3069 L 432.0199 160.9488 L 435.5021 160.9488 L 435.5021 161.3069 L 436.8413 161.3069 L 436.8413 161.665 L 437.3803 161.665 L 437.3803 162.0231 L 438.9862 162.0231 L 438.9862 162.3763 L 439.2529 162.3763 L 439.2529 162.7344 L 439.5233 162.7344 L 439.5233 163.0925 L 439.7882 163.0925 L 439.7882 163.4506 L 440.5939 163.4506 L 440.5939 163.8087 L 441.1292 163.8087 L 441.1292 164.52 L 441.3959 164.52 L 441.3959 164.8781 L 441.9331 164.8781 L 441.9331 165.5942 L 442.1998 165.5942 L 442.1998 165.9523 L 442.4684 165.9523 L 442.4684 166.3055 L 442.737 166.3055 L 442.737 166.6636 L 443.2723 166.6636 L 443.2723 166.3055 L 444.6114 166.3055 L 444.6114 166.6636 L 445.682 166.6636 L 445.682 167.0217 L 446.4859 167.0217 L 446.4859 167.3798 L 447.0212 167.3798 L 447.0212 167.7379 L 448.1783 167.7379 Z" fill="#000000" fill-opacity="1" stroke="#000000" stroke-width="0" paint-order="fill" stroke-opacity="1" stroke-dasharray="" stroke-linecap="butt" stroke-linejoin="miter" stroke-miterlimit="10" clip-path="none" style="filter: url(#f1)"/>
<path data-code="204" d="M 439.917 296.7106 L 445.6416 284.7218 L 451.3606 268.274 L 458.0473 254.2397 L 460.5344 246.8326 L 461.8606 239.1262 L 462.4879 231.199 L 462.6958 206.9075 L 470.5174 196.4492 L 473.4717 190.5627 L 474.5184 187.1878 L 475.2027 183.7148 L 475.681 176.6118 L 475.223 169.8325 L 474.5828 165.9523 L 475.4198 165.9523 L 475.4198 165.5942 L 477.5628 165.5942 L 477.5628 165.9523 L 478.3667 165.9523 L 478.3667 166.3055 L 479.4391 166.3055 L 479.4391 166.6636 L 479.9744 166.6636 L 479.9744 167.0217 L 481.5822 167.0217 L 481.5822 167.3798 L 482.3861 167.3798 L 482.3861 167.0217 L 483.1881 167.0217 L 483.1881 167.3798 L 485.0644 167.3798 L 485.0644 167.0217 L 485.3311 167.0217 L 485.333 167.3798 L 486.9389 167.3798 L 486.9389 167.7379 L 488.0132 167.7379 L 488.0132 167.3798 L 489.0838 167.3798 L 489.0838 167.7379 L 491.2268 167.7379 L 491.2268 167.3798 L 493.6366 167.3798 L 493.6366 167.7379 L 496.0482 167.7379 L 496.0482 167.3798 L 496.5835 167.3798 L 496.5835 167.0217 L 503.5516 167.0217 L 503.5516 166.6636 L 504.0851 166.6636 L 504.0851 166.3055 L 504.889 166.3055 L 504.889 165.9523 L 505.4243 165.9523 L 505.4243 166.3055 L 505.9596 166.3055 L 505.9596 165.9523 L 506.4967 165.9523 L 506.4967 166.3055 L 506.7634 166.3055 L 506.7634 166.6636 L 507.5673 166.6636 L 507.5673 167.0217 L 508.3712 167.0217 L 508.3712 166.6636 L 508.9065 166.6636 L 508.9065 166.3055 L 509.1751 166.3055 L 509.1751 165.9523 L 509.4436 165.9523 L 509.4436 165.5942 L 509.7104 165.5942 L 509.7104 165.9523 L 510.5142 165.9523 L 510.5142 165.5942 L 513.1926 165.5942 L 513.1926 165.2362 L 514.8003 165.2362 L 514.8003 164.8781 L 516.4081 164.8781 L 516.4081 164.52 L 519.355 164.52 L 519.355 164.1619 L 523.9096 164.1619 L 523.9096 163.8087 L 524.4449 163.8087 L 524.4449 163.4506 L 524.9821 163.4506 L 524.9821 163.0925 L 526.588 163.0925 L 526.588 162.7344 L 526.8566 162.7344 L 526.8566 162.3763 L 528.4643 162.3763 L 528.4643 162.1948 L 528.4643 162.0231 L 528.7329 162.0231 L 528.7329 161.665 L 529.2682 161.665 L 529.2682 161.3069 L 529.8035 161.3069 L 529.8035 162.0967 L 529.8035 163.0925 L 530.0721 163.0925 L 530.0721 163.4506 L 530.8759 163.4506 L 530.8759 163.8087 L 531.1427 163.8087 L 531.1427 163.4506 L 531.4112 163.4506 L 531.4112 163.8087 L 533.019 163.8087 L 533.019 164.1619 L 533.8228 164.1619 L 533.8228 163.8087 L 535.162 163.8087 L 535.162 163.4506 L 537.3051 163.4506 L 537.3051 163.8087 L 538.6424 163.8087 L 538.6424 164.1619 L 541.0577 164.1619 L 541.0577 164.52 L 542.395 164.52 L 542.395 164.8781 L 548.0203 164.8781 L 548.0203 164.52 L 548.8242 164.52 L 548.8242 164.1619 L 549.0927 164.1619 L 549.0927 163.8087 L 549.3595 163.8087 L 549.3595 163.4506 L 549.8966 163.4506 L 549.8966 163.0925 L 550.1633 163.0925 L 550.1633 162.7344 L 550.4319 162.7344 L 550.4319 162.3763 L 550.6986 162.3763 L 550.6986 162.7344 L 550.9672 162.7344 L 550.9672 163.0925 L 551.2358 163.0925 L 551.2358 163.4506 L 551.7692 163.4506 L 551.7692 162.7344 L 552.0415 162.7344 L 552.0415 162.3763 L 552.3064 162.3763 L 552.3064 162.0231 L 553.9123 162.0231 L 553.9123 162.3763 L 554.1845 162.3763 L 554.1845 162.7344 L 554.4494 162.7344 L 554.4494 163.0925 L 556.3276 163.0925 L 556.3276 162.7344 L 556.5943 162.7344 L 556.5943 160.5907 L 557.6649 160.5907 L 557.6649 160.9488 L 557.9335 160.9488 L 557.9335 161.3069 L 558.2002 161.3069 L 558.2002 161.665 L 560.0765 161.665 L 560.0765 161.3069 L 560.3433 161.3069 L 560.3433 160.9488 L 560.6118 160.9488 L 560.6118 160.2326 L 560.8804 160.2326 L 560.8804 159.8795 L 561.1471 159.8795 L 561.1471 159.5214 L 561.6843 159.5214 L 561.6843 159.8795 L 562.2196 159.8795 L 562.2196 160.2326 L 562.4882 160.2326 L 562.4882 160.5907 L 562.753 160.5907 L 562.753 160.9488 L 563.0235 160.9488 L 563.0235 161.3069 L 563.5588 161.3069 L 563.5588 161.665 L 563.8255 161.665 L 563.8255 162.0231 L 565.1683 162.0231 L 565.1683 161.665 L 565.7018 161.665 L 565.7018 161.3069 L 566.2389 161.3069 L 566.2389 160.9488 L 567.0391 160.9488 L 567.0391 160.5907 L 567.58 160.5907 L 567.58 160.2326 L 568.1134 160.2326 L 568.1134 159.8795 L 568.6487 159.8795 L 568.6487 159.5214 L 569.4526 159.5214 L 569.4526 159.1633 L 569.9879 159.1633 L 569.9879 158.8052 L 570.7918 158.8052 L 570.7918 158.4471 L 571.8642 158.4471 L 571.8642 158.0939 L 572.1309 158.0939 L 572.1309 157.7358 L 572.6681 157.7358 L 572.6681 157.3777 L 573.2034 157.3777 L 573.2034 157.0196 L 573.7387 157.0196 L 573.7387 156.6615 L 574.0073 156.6615 L 574.0073 157.0196 L 575.3464 157.0196 L 575.3464 156.6615 L 576.9542 156.6615 L 576.9542 156.3034 L 578.2915 156.3034 L 578.2915 155.9502 L 582.3127 155.9502 L 582.3127 155.5921 L 583.1147 155.5921 L 583.1166 155.234 L 583.9205 155.234 L 583.9205 154.876 L 584.7225 154.876 L 584.7225 154.5179 L 585.2596 154.5179 L 585.2596 154.1647 L 585.7949 154.1647 L 585.7949 153.8066 L 586.5988 153.8066 L 586.5988 153.4485 L 587.066 153.4485 L 591.1314 166.9923 L 594.2016 194.2908 L 595.5794 201.8795 L 597.761 208.5655 L 604.227 223.3357 L 606.0131 230.6447 L 606.9734 238.2677 L 607.562 250.0014 L 607.402 281.9061 L 591.3834 283.1129 L 583.639 284.5256 L 576.3839 287.0372 L 562.6132 293.3504 L 551.2045 295.9062 L 539.2347 296.8529 L 522.9476 297.0344 L 491.6113 295.5235 L 471.9468 296.4703 L 439.917 296.7106 Z" fill="#000000" fill-opacity="1" stroke="#000000" stroke-width="0" paint-order="fill" stroke-opacity="1" stroke-dasharray="" stroke-linecap="butt" stroke-linejoin="miter" stroke-miterlimit="10" clip-path="none" style="filter: url(#f1)"/>
<path data-code="205" d="M 439.917 296.7106 L 421.7903 296.691 L 419.6436 281.2979 L 418.8986 265.1984 L 419.2407 253.2488 L 420.922 241.6524 L 423.2325 234.8585 L 430.6917 220.4758 L 436.4016 207.9867 L 439.928 202.3945 L 448.2371 191.9215 L 448.1783 167.7379 L 448.6289 167.7379 L 448.6289 167.3798 L 450.7738 167.3798 L 450.7738 167.0217 L 451.5777 167.0217 L 451.5777 167.3798 L 452.113 167.3798 L 452.113 167.7379 L 452.6483 167.7379 L 452.6483 168.0911 L 453.1836 168.0911 L 453.1836 168.4492 L 453.9875 168.4492 L 453.9875 168.8073 L 455.0599 168.8073 L 455.0599 168.4492 L 455.3267 168.4492 L 455.3267 168.0911 L 456.6658 168.0911 L 456.6677 168.4492 L 456.9344 168.4492 L 456.9344 168.8073 L 458.0068 168.8073 L 458.0068 168.4492 L 460.4166 168.4492 L 460.4166 168.0911 L 460.9538 168.0911 L 460.9538 167.7379 L 461.2187 167.7379 L 461.2187 167.3798 L 462.2929 167.3798 L 462.2929 167.7379 L 466.8476 167.7379 L 466.8476 167.3798 L 467.6515 167.3798 L 467.6515 167.0217 L 468.9906 167.0217 L 468.9906 166.6636 L 469.5259 166.6636 L 469.5259 166.3055 L 470.8651 166.3055 L 470.8651 166.6636 L 472.2043 166.6636 L 472.2043 166.3055 L 472.7414 166.3055 L 472.7414 165.9523 L 474.5828 165.9523 L 475.223 169.8325 L 475.681 176.6118 L 475.2027 183.7148 L 474.5184 187.1878 L 473.4717 190.5627 L 470.5174 196.4492 L 462.6958 206.9075 L 462.4879 231.199 L 461.8606 239.1262 L 460.5344 246.8326 L 458.0473 254.2397 L 451.3606 268.274 L 445.6416 284.7218 L 439.917 296.7106 Z" fill="#000000" fill-opacity="1" stroke="#000000" stroke-width="0" paint-order="fill" stroke-opacity="1" stroke-dasharray="" stroke-linecap="butt" stroke-linejoin="miter" stroke-miterlimit="10" clip-path="none" style="filter: url(#f1)"/>






</svg>