<?xml version="1.0" standalone="no"?>
<!-- Generator: Paintmaps.com , Online SVG vector map maker -->
<svg xmlns="http://www.w3.org/2000/svg" version="1.1" baseProfile="full"   style="background-color:false" width="800" height="500" viewBox="0 0 800 533">
<path data-code="200" d="M 443.8045 131.6189 L 447.4218 136.1708 L 453.5152 142.5931 L 455.5966 145.0151 L 456.7032 146.7902 L 457.0978 147.7754 L 457.3337 148.8202 L 457.4064 149.8814 L 457.3225 150.9411 L 457.0755 151.983 L 456.6719 152.9652 L 455.5485 154.7299 L 453.4425 157.134 L 448.0981 162.6337 L 446.1028 165.1943 L 445.0855 167.0619 L 443.8593 169.9354 L 441.6169 174.3338 L 441.2592 175.2772 L 440.7729 177.3862 L 440.4979 180.6637 L 440.3135 187.171 L 440.0329 189.1891 L 439.4181 191.0179 L 438.9184 191.8108 L 438.2869 192.4606 L 434.522 194.975 L 431.5485 197.5445 L 429.5711 199.7832 L 428.5415 201.4719 L 428.1771 202.4019 L 427.9469 203.4348 L 427.9413 205.5065 L 428.4611 207.4024 L 430.1468 210.7291 L 430.8242 212.6026 L 431.1752 214.6877 L 431.2199 216.834 L 431.1237 217.9086 L 430.6442 220.0131 L 429.8081 221.8463 L 424.761 230.3509 L 424.0378 231.2541 L 422.7992 232.4077 L 421.1605 233.3198 L 420.1969 233.6373 L 418.1714 234.0174 L 416.0765 234.1426 L 413.9605 234.0591 L 411.8668 233.7357 L 409.8535 233.0709 L 408.8911 232.5552 L 407.1282 231.2824 L 402.1259 227.0495 L 400.2211 225.963 L 399.2072 225.5948 L 395.961 225.0046 L 389.0964 224.6544 L 385.6937 224.2892 L 383.5251 223.7467 L 378.2578 221.4022 L 376.1127 220.8507 L 372.7447 220.4572 L 365.8823 220.0787 L 362.5511 219.5555 L 360.5826 218.8818 L 357.1329 217.1872 L 355.284 216.4748 L 350.2851 215.2571 L 348.3333 214.6445 L 343.0951 212.2165 L 340.0367 211.5265 L 334.6968 211.1613 L 334.7024 203.1561 L 334.9752 197.5609 L 335.4603 194.4146 L 336.9157 190.1579 L 337.1069 188.4752 L 336.9314 187.5451 L 336.112 185.8177 L 332.327 180.9216 L 331.255 179.0317 L 330.8917 178.0152 L 330.487 175.8853 L 330.4446 173.7078 L 330.5586 172.6197 L 331.1186 170.4914 L 331.6071 169.4689 L 332.2007 168.518 L 333.5946 166.7787 L 335.1585 165.1943 L 336.8174 163.7486 L 338.5265 162.4817 L 341.794 160.5769 L 343.1074 159.31 L 345.7366 154.709 L 346.2866 153.0352 L 346.3492 152.1022 L 346.1793 151.0872 L 345.3085 149.2748 L 344.0196 147.6607 L 342.4859 146.1777 L 339.8825 144.2416 L 338.0146 143.2922 L 335.1943 142.1058 L 333.3487 140.9745 L 330.8023 138.8372 L 328.5688 136.3467 L 327.3593 134.4732 L 326.5612 132.4074 L 326.0984 129.1627 L 326.0392 124.7286 L 326.047 120.1797 L 330.0801 119.9577 L 331.9525 119.5374 L 332.811 119.1722 L 333.5857 118.6639 L 334.2273 118.0171 L 337.4612 113.1239 L 340.3106 109.8971 L 341.9035 108.5781 L 342.7643 108.0654 L 343.6854 107.7032 L 344.612 107.5407 L 345.5164 107.5705 L 346.367 107.7866 L 347.1216 108.1935 L 347.7107 108.7539 L 349.3763 111.322 L 350.4762 112.4368 L 351.8333 113.2223 L 352.599 113.4071 L 354.136 113.2417 L 357.2201 112.015 L 360.1243 111.4442 L 363.2185 111.5336 L 365.2563 112.0702 L 366.2176 112.5263 L 368.8076 114.4087 L 375.7997 121.3736 L 378.2791 123.4185 L 387.0575 128.0806 L 388.9656 128.7767 L 391.0414 129.1686 L 394.2619 129.4056 L 413.6262 129.2715 L 417.0479 129.3892 L 419.2858 129.6158 L 421.4567 130.0659 L 422.4974 130.4162 L 424.2502 131.2732 L 427.569 133.2048 L 433.5226 135.9293 L 435.1446 136.4256 L 436.0087 136.4793 L 437.6955 136.0769 L 439.2437 135.2348 L 441.5163 133.5923 L 443.8045 131.6189 Z" fill="#000000" fill-opacity="1" stroke="#000000" stroke-width="0" paint-order="fill" stroke-opacity="1" stroke-dasharray="" stroke-linecap="butt" stroke-linejoin="miter" stroke-miterlimit="10" clip-path="none"/>
<path data-code="201" d="M 466.7638 433.857 L 459.3514 434.1387 L 444.6183 434.2519 L 438.5205 434.1729 L 434.9367 433.8972 L 431.5139 433.1296 L 427.3399 431.1503 L 425.1869 430.3097 L 418.4016 428.4735 L 413.1735 426.0351 L 410.996 425.4642 L 408.729 425.1557 L 402.9028 424.9262 L 388.3631 424.9649 L 373.7071 424.7816 L 370.111 424.8844 L 366.6066 425.43 L 365.4787 425.8145 L 363.5393 426.8742 L 360.9906 428.9921 L 358.8131 431.517 L 357.6404 433.4188 L 357.1832 434.4517 L 356.8322 435.5695 L 356.4276 437.8648 L 356.0375 447.2949 L 355.5691 450.7438 L 354.9319 452.7842 L 352.9522 457.2839 L 350.9189 465.4769 L 348.9347 469.8245 L 348.0751 472.5163 L 344.9776 475.0873 L 341.8566 478.0876 L 339.8478 478.9953 L 337.5551 479.4483 L 332.5651 479.7002 L 297.1218 479.5214 L 298.0485 476.8103 L 298.5527 474.7072 L 298.8802 472.3091 L 299.116 468.6471 L 299.2491 460.0054 L 299.154 453.8692 L 298.8109 450.2773 L 298.2609 447.9775 L 294.4167 439.8694 L 292.7656 437.3819 L 290.6562 435.3936 L 286.4588 432.9627 L 284.9631 431.8255 L 283.0415 429.7314 L 281.6856 427.448 L 281.5671 418.1059 L 281.8197 414.7911 L 282.2076 412.6523 L 282.8549 410.6864 L 284.8692 406.218 L 285.4494 404.1985 L 286.5873 398.9923 L 287.2893 397.0458 L 289.4579 392.5834 L 291.3862 387.8035 L 294.6425 382.3246 L 295.8866 381.095 L 296.706 380.7105 L 298.4655 380.5093 L 300.15 380.9251 L 304.0356 382.9745 L 306.1193 383.6496 L 308.3147 384.0282 L 310.5146 384.146 L 312.6408 383.9448 L 313.6524 383.669 L 314.6082 383.2219 L 315.4644 382.5527 L 316.0736 381.7598 L 316.4973 380.8849 L 317.1222 377.9934 L 317.5078 372.6606 L 320.384 374.1033 L 325.2477 375.8248 L 330.4121 378.4942 L 332.384 379.1068 L 336.425 379.9921 L 338.3723 380.6076 L 343.5121 383.1727 L 345.5287 383.672 L 347.6101 383.83 L 349.6949 383.6839 L 351.7215 383.1861 L 353.4866 382.3634 L 356.8155 380.4467 L 360.5345 378.7684 L 365.5637 375.7801 L 369.3073 374.1406 L 374.3689 371.2342 L 378.1259 369.6364 L 382.3312 367.1966 L 385.9709 365.496 L 387.7975 364.475 L 390.3461 362.4599 L 395.9454 357.0466 L 398.4158 354.8422 L 400.8438 353.1386 L 404.4901 351.3128 L 406.225 350.1428 L 408.6686 348.0338 L 414.9475 341.9498 L 416.641 340.6382 L 418.4978 339.6039 L 419.4982 339.2476 L 421.5674 338.8169 L 423.6845 338.6216 L 431.1942 338.3757 L 433.2957 338.1253 L 435.3179 337.6186 L 440.546 335.1638 L 442.5067 334.5781 L 446.5466 333.7181 L 448.5162 333.1025 L 453.6415 330.3526 L 457.3896 328.74 L 462.5182 325.9975 L 464.4923 325.3924 L 469.5405 324.3014 L 471.405 323.6039 L 475.7322 321.471 L 477.7052 320.8868 L 479.7329 320.4724 L 480.398 323.5741 L 480.7479 324.5756 L 481.6746 326.3582 L 487.1196 333.654 L 489.8471 339.1746 L 490.9907 340.8335 L 494.798 345.6253 L 495.9371 347.2886 L 498.6277 352.8361 L 499.7612 354.5069 L 504.1051 360.1601 L 505.1157 361.8608 L 506.8137 365.5884 L 507.3335 366.4185 L 508.5787 367.9343 L 510.0431 369.2295 L 510.8479 369.7706 L 514.4776 371.4831 L 519.5157 374.3865 L 523.2962 375.9425 L 527.5496 378.2468 L 529.413 378.9473 L 535.4527 380.238 L 536.4341 380.6002 L 538.2741 381.639 L 539.9721 382.9536 L 541.5851 384.4232 L 543.9192 386.7736 L 546.906 390.0601 L 549.5956 393.5447 L 552.4751 398.1324 L 545.3467 401.6781 L 541.5304 403.2431 L 536.4587 406.1346 L 531.8577 408.2138 L 527.6602 410.6745 L 523.9132 412.305 L 518.855 415.2204 L 515.1125 416.8599 L 510.0621 419.7931 L 506.3118 421.4102 L 501.1652 424.1139 L 499.1889 424.7026 L 495.139 425.5283 L 493.1671 426.1245 L 491.4199 426.9681 L 488.0508 428.8774 L 484.325 430.5169 L 480.1063 432.8688 L 478.2037 433.5723 L 476.1268 433.9628 L 473.9917 434.1267 L 470.7332 434.1193 L 466.7638 433.857 Z" fill="#000000" fill-opacity="1" stroke="#000000" stroke-width="0" paint-order="fill" stroke-opacity="1" stroke-dasharray="" stroke-linecap="butt" stroke-linejoin="miter" stroke-miterlimit="10" clip-path="none"/>
<path data-code="202" d="M 443.8045 131.6189 L 443.439 129.586 L 441.4447 124.6272 L 441.2022 122.6092 L 441.4526 120.5598 L 442.1255 118.7459 L 443.8962 115.3358 L 445.6165 111.5396 L 446.807 109.684 L 451.0269 104.4987 L 452.3068 102.6982 L 457.204 92.6258 L 457.7909 90.5839 L 458.8763 85.3882 L 459.5582 83.4819 L 461.6083 79.012 L 462.1326 76.9239 L 462.4143 74.7493 L 462.5898 71.4077 L 462.5607 61.1817 L 466.9683 56.6374 L 471.2642 56.7 L 473.3724 56.9429 L 475.4136 57.5212 L 476.3224 57.9624 L 477.9936 59.0906 L 480.2315 61.1654 L 482.2 63.5128 L 483.7851 66.0838 L 484.9599 68.9753 L 485.8598 70.8056 L 487.6237 73.2782 L 489.7018 75.5348 L 491.2075 76.9 L 492.8072 78.0998 L 494.5644 79.0731 L 497.3288 80.3549 L 498.9821 81.4176 L 505.9954 87.3451 L 511.6707 90.9595 L 512.5437 91.8686 L 513.1976 92.2457 L 513.9768 92.5334 L 515.7977 92.8956 L 520.0097 93.1355 L 532.5742 92.9 L 537.0523 93.0088 L 540.2627 93.5931 L 541.2777 93.997 L 542.9444 95.0656 L 544.344 96.4473 L 545.4618 98.0585 L 547.0715 101.7965 L 549.3418 106.1427 L 550.9426 109.9418 L 551.9084 111.8541 L 553.1391 113.6799 L 556.5575 118.0558 L 557.8038 119.8608 L 560.1044 124.584 L 561.2714 126.4665 L 568.6312 135.4807 L 566.0669 137.0099 L 564.2828 138.3766 L 561.8828 140.748 L 560.5135 142.5156 L 559.4504 144.4055 L 558.1962 147.2493 L 555.9516 151.6282 L 555.282 153.618 L 554.8181 156.8642 L 554.8706 161.267 L 555.3927 164.4834 L 556.0622 166.4329 L 558.0956 170.8878 L 558.6489 173.0967 L 559.0335 176.5814 L 559.3901 183.6759 L 559.8964 187.1114 L 560.5481 189.1295 L 562.5278 193.6113 L 563.08 195.8603 L 563.4769 199.4002 L 563.9095 206.6646 L 564.4427 210.4131 L 562.9448 219.1158 L 562.2662 221.0817 L 560.2307 225.5218 L 559.0256 230.3538 L 558.3605 232.1379 L 557.8508 232.9413 L 556.487 234.1888 L 552.6361 236.654 L 550.956 237.587 L 549.0344 238.2562 L 546.9541 238.5364 L 543.8107 238.365 L 541.7863 237.8419 L 537.5073 235.6434 L 535.6774 234.9027 L 529.6388 233.4674 L 527.7653 232.755 L 523.4303 230.6221 L 516.5232 228.8172 L 514.7816 227.9125 L 513.3307 226.7171 L 512.1234 225.3578 L 510.2052 222.4753 L 509.5826 221.8463 L 508.818 221.3485 L 507.9628 220.9938 L 506.0949 220.6406 L 504.1208 220.6868 L 503.1248 220.8552 L 502.1411 221.1339 L 500.395 221.9417 L 497.0997 223.8704 L 493.4086 225.6559 L 491.6256 226.8647 L 489.9477 228.2776 L 487.5298 230.5863 L 478.8498 239.4992 L 475.0391 243.6129 L 473.6374 245.3209 L 472.3921 247.1095 L 471.4151 249.0113 L 469.8233 252.7836 L 466.3334 259.3178 L 463.2113 251.8372 L 461.6933 244.4982 L 461.0125 242.5606 L 457.3795 235.8879 L 456.7871 235.1561 L 455.3361 233.992 L 449.6866 230.6698 L 447.7102 229.9544 L 445.498 229.552 L 440.9171 229.3001 L 433.9105 229.4178 L 429.2726 229.7547 L 424.761 230.3509 L 429.8081 221.8463 L 430.6442 220.0131 L 431.1237 217.9086 L 431.2199 216.834 L 431.1752 214.6877 L 430.8242 212.6026 L 430.1468 210.7291 L 428.4611 207.4024 L 427.9413 205.5065 L 427.9469 203.4348 L 428.1771 202.4019 L 428.5415 201.4719 L 429.5711 199.7832 L 431.5485 197.5445 L 434.522 194.975 L 438.2869 192.4606 L 438.9184 191.8108 L 439.4181 191.0179 L 440.0329 189.1891 L 440.3135 187.171 L 440.4979 180.6637 L 440.7729 177.3862 L 441.2592 175.2772 L 441.6169 174.3338 L 443.8593 169.9354 L 445.0855 167.0619 L 446.1028 165.1943 L 448.0981 162.6337 L 453.4425 157.134 L 455.5485 154.7299 L 456.6719 152.9652 L 457.0755 151.983 L 457.3225 150.9411 L 457.4064 149.8814 L 457.3337 148.8202 L 457.0978 147.7754 L 456.7032 146.7902 L 455.5966 145.0151 L 453.5152 142.5931 L 447.4218 136.1708 L 443.8045 131.6189 Z" fill="#000000" fill-opacity="1" stroke="#000000" stroke-width="0" paint-order="fill" stroke-opacity="1" stroke-dasharray="" stroke-linecap="butt" stroke-linejoin="miter" stroke-miterlimit="10" clip-path="none"/>
<path data-code="203" d="M 334.6968 211.1613 L 330.7408 212.2717 L 328.0926 213.4283 L 326.9524 210.7052 L 326.4561 208.632 L 325.7016 201.0128 L 325.0599 197.8158 L 321.1129 188.8448 L 320.004 187.3901 L 318.6111 186.2991 L 317.8085 185.9399 L 316.9388 185.7536 L 315.2531 185.9697 L 308.6255 189.0028 L 303.5527 191.8838 L 293.5649 194.9169 L 292.7276 191.7825 L 291.5438 188.0578 L 290.4371 181.6951 L 289.8972 179.6219 L 289.1058 177.7871 L 287.3217 174.3054 L 286.148 171.4766 L 285.1554 169.7119 L 284.5562 168.9279 L 283.1768 167.5224 L 281.5883 166.3792 L 270.7241 161.4429 L 273.0022 157.7331 L 274.2184 156.0549 L 275.6079 154.6136 L 277.1874 153.4227 L 279.0106 152.5747 L 284.9664 151.2228 L 286.812 150.4359 L 288.4709 149.3508 L 293.1289 145.4846 L 294.7364 144.3101 L 296.4981 143.3443 L 299.2938 142.1087 L 303.4857 139.6465 L 307.1343 137.9712 L 308.9519 136.9637 L 311.4637 134.9635 L 317.7504 128.8363 L 320.2499 126.8048 L 322.0742 125.7689 L 323.0445 125.4067 L 326.0392 124.7286 L 326.0984 129.1627 L 326.5612 132.4074 L 327.3593 134.4732 L 328.5688 136.3467 L 330.8023 138.8372 L 333.3487 140.9745 L 335.1943 142.1058 L 338.0146 143.2922 L 339.8825 144.2416 L 342.4859 146.1777 L 344.0196 147.6607 L 345.3085 149.2748 L 346.1793 151.0872 L 346.3492 152.1022 L 346.2866 153.0352 L 345.7366 154.709 L 343.1074 159.31 L 341.794 160.5769 L 338.5265 162.4817 L 336.8174 163.7486 L 335.1585 165.1943 L 333.5946 166.7787 L 332.2007 168.518 L 331.6071 169.4689 L 331.1186 170.4914 L 330.5586 172.6197 L 330.4446 173.7078 L 330.487 175.8853 L 330.8917 178.0152 L 331.255 179.0317 L 332.327 180.9216 L 336.112 185.8177 L 336.9314 187.5451 L 337.1069 188.4752 L 336.9157 190.1579 L 335.4603 194.4146 L 334.9752 197.5609 L 334.7024 203.1561 L 334.6968 211.1613 Z" fill="#000000" fill-opacity="1" stroke="#000000" stroke-width="0" paint-order="fill" stroke-opacity="1" stroke-dasharray="" stroke-linecap="butt" stroke-linejoin="miter" stroke-miterlimit="10" clip-path="none"/>
<path data-code="204" d="M 305.367 325.1823 L 304.2268 319.9269 L 303.3102 313.5985 L 302.7557 311.5968 L 300.112 306.3042 L 298.5124 302.4708 L 296.2521 298.1127 L 295.5535 296.0961 L 295.1488 293.8411 L 294.8638 287.9776 L 294.9409 273.6022 L 294.8459 261.6399 L 294.9241 258.109 L 295.3053 254.6601 L 295.9347 252.4498 L 296.4288 251.4035 L 298.3872 248.5686 L 301.5261 245.1227 L 314.0738 232.4911 L 318.0142 228.145 L 320.052 225.3817 L 322.3872 220.6391 L 323.5877 218.7313 L 324.9973 216.9174 L 328.0926 213.4283 L 330.7408 212.2717 L 334.6968 211.1613 L 340.0367 211.5265 L 343.0951 212.2165 L 348.3333 214.6445 L 350.2851 215.2571 L 355.284 216.4748 L 357.1329 217.1872 L 360.5826 218.8818 L 362.5511 219.5555 L 365.8823 220.0787 L 372.7447 220.4572 L 376.1127 220.8507 L 378.2578 221.4022 L 383.5251 223.7467 L 385.6937 224.2892 L 389.0964 224.6544 L 395.961 225.0046 L 399.2072 225.5948 L 400.2211 225.963 L 402.1259 227.0495 L 407.1282 231.2824 L 408.8911 232.5552 L 409.8535 233.0709 L 411.8668 233.7357 L 413.9605 234.0591 L 416.0765 234.1426 L 418.1714 234.0174 L 420.1969 233.6373 L 421.1605 233.3198 L 422.7992 232.4077 L 424.0378 231.2541 L 424.761 230.3509 L 429.2726 229.7547 L 433.9105 229.4178 L 440.9171 229.3001 L 445.498 229.552 L 447.7102 229.9544 L 449.6866 230.6698 L 455.3361 233.992 L 456.7871 235.1561 L 457.3795 235.8879 L 461.0125 242.5606 L 461.6933 244.4982 L 463.2113 251.8372 L 466.3334 259.3178 L 469.7596 265.3377 L 471.8589 270.0669 L 474.6915 275.2745 L 476.2956 279.1169 L 478.4988 283.5122 L 479.193 285.5914 L 479.7184 289.173 L 479.8715 292.8678 L 479.7329 320.4724 L 477.7052 320.8868 L 475.7322 321.471 L 471.405 323.6039 L 469.5405 324.3014 L 464.4923 325.3924 L 462.5182 325.9975 L 457.3896 328.74 L 453.6415 330.3526 L 448.5162 333.1025 L 446.5466 333.7181 L 442.5067 334.5781 L 440.546 335.1638 L 435.3179 337.6186 L 433.2957 338.1253 L 431.1942 338.3757 L 423.6845 338.6216 L 421.5674 338.8169 L 419.4982 339.2476 L 418.4978 339.6039 L 416.641 340.6382 L 414.9475 341.9498 L 408.6686 348.0338 L 406.225 350.1428 L 404.4901 351.3128 L 400.8438 353.1386 L 398.4158 354.8422 L 395.9454 357.0466 L 390.3461 362.4599 L 387.7975 364.475 L 385.9709 365.496 L 382.3312 367.1966 L 378.1259 369.6364 L 374.3689 371.2342 L 369.3073 374.1406 L 365.5637 375.7801 L 360.5345 378.7684 L 356.8155 380.4467 L 353.4866 382.3634 L 351.7215 383.1861 L 349.6949 383.6839 L 347.6101 383.83 L 345.5287 383.672 L 343.5121 383.1727 L 338.3723 380.6076 L 336.425 379.9921 L 332.384 379.1068 L 330.4121 378.4942 L 325.2477 375.8248 L 320.384 374.1033 L 317.5078 372.6606 L 318.3272 369.7333 L 319.966 366.2904 L 320.659 364.3841 L 321.797 359.1958 L 322.385 357.2001 L 323.9812 353.7408 L 324.6318 351.9433 L 324.8833 349.8939 L 324.6363 347.8371 L 323.9745 346.0247 L 322.2676 342.6026 L 320.7205 338.7409 L 318.363 334.3873 L 316.257 329.8041 L 315.1067 328.2138 L 313.6792 326.8739 L 312.8688 326.321 L 311.0747 325.5459 L 308.2141 325.1405 L 305.367 325.1823 Z" fill="#000000" fill-opacity="1" stroke="#000000" stroke-width="0" paint-order="fill" stroke-opacity="1" stroke-dasharray="" stroke-linecap="butt" stroke-linejoin="miter" stroke-miterlimit="10" clip-path="none"/>
<path data-code="205" d="M 584.9829 262.7682 L 581.8094 265.4733 L 579.083 268.4408 L 577.4476 270.9 L 575.7429 274.6932 L 574.6284 276.4967 L 572.6007 279.0409 L 567.4072 284.7463 L 565.3716 287.2876 L 564.2482 289.0895 L 562.5222 292.8827 L 561.3899 294.6772 L 559.3275 297.1946 L 554.0244 302.7763 L 551.9956 305.3086 L 550.9694 307.2134 L 550.6296 308.2537 L 550.4082 309.3179 L 550.245 311.4791 L 550.4015 313.6342 L 550.9001 315.7179 L 553.4432 321.003 L 554.0311 323.0181 L 554.8472 327.2093 L 555.4307 329.2557 L 556.2568 331.0651 L 558.0934 334.5527 L 559.6181 338.4413 L 562.4485 343.6504 L 564.0883 347.4898 L 565.214 349.3052 L 567.2641 351.8419 L 573.2378 358.3239 L 574.5804 360.026 L 575.7138 361.8369 L 577.3504 365.6733 L 579.1993 369.1491 L 580.032 370.9659 L 580.6256 373.0317 L 581.4964 377.3003 L 582.583 381.5272 L 578.7756 382.5899 L 572.3816 385.1028 L 569.9033 386.7736 L 565.2989 390.7442 L 563.6971 391.9321 L 561.9387 392.9083 L 559.1486 394.1678 L 554.9813 396.7656 L 552.4751 398.1324 L 549.5956 393.5447 L 546.906 390.0601 L 543.9192 386.7736 L 541.5851 384.4232 L 539.9721 382.9536 L 538.2741 381.639 L 536.4341 380.6002 L 535.4527 380.238 L 529.413 378.9473 L 527.5496 378.2468 L 523.2962 375.9425 L 519.5157 374.3865 L 514.4776 371.4831 L 510.8479 369.7706 L 510.0431 369.2295 L 508.5787 367.9343 L 507.3335 366.4185 L 506.8137 365.5884 L 505.1157 361.8608 L 504.1051 360.1601 L 499.7612 354.5069 L 498.6277 352.8361 L 495.9371 347.2886 L 494.798 345.6253 L 490.9907 340.8335 L 489.8471 339.1746 L 487.1196 333.654 L 481.6746 326.3582 L 480.7479 324.5756 L 480.398 323.5741 L 479.7329 320.4724 L 479.8715 292.8678 L 479.7184 289.173 L 479.193 285.5914 L 478.4988 283.5122 L 476.2956 279.1169 L 474.6915 275.2745 L 471.8589 270.0669 L 469.7596 265.3377 L 466.3334 259.3178 L 469.8233 252.7836 L 471.4151 249.0113 L 472.3921 247.1095 L 473.6374 245.3209 L 475.0391 243.6129 L 478.8498 239.4992 L 487.5298 230.5863 L 489.9477 228.2776 L 491.6256 226.8647 L 493.4086 225.6559 L 497.0997 223.8704 L 500.395 221.9417 L 502.1411 221.1339 L 503.1248 220.8552 L 504.1208 220.6868 L 506.0949 220.6406 L 507.9628 220.9938 L 508.818 221.3485 L 509.5826 221.8463 L 510.2052 222.4753 L 512.1234 225.3578 L 513.3307 226.7171 L 514.7816 227.9125 L 516.5232 228.8172 L 523.4303 230.6221 L 527.7653 232.755 L 529.6388 233.4674 L 535.6774 234.9027 L 537.5073 235.6434 L 541.7863 237.8419 L 543.8107 238.365 L 546.9541 238.5364 L 549.0344 238.2562 L 550.956 237.587 L 552.6361 236.654 L 556.487 234.1888 L 557.8508 232.9413 L 558.3605 232.1379 L 559.0256 230.3538 L 560.2307 225.5218 L 562.2662 221.0817 L 562.9448 219.1158 L 564.4427 210.4131 L 570.8311 211.9706 L 572.6308 212.8753 L 574.1612 214.096 L 576.0056 216.3674 L 578.3698 220.9029 L 582.9015 227.0793 L 584.5068 229.9872 L 584.879 231.114 L 585.3328 233.445 L 585.6235 238.2666 L 585.4357 254.3173 L 584.9829 262.7682 Z" fill="#000000" fill-opacity="1" stroke="#000000" stroke-width="0" paint-order="fill" stroke-opacity="1" stroke-dasharray="" stroke-linecap="butt" stroke-linejoin="miter" stroke-miterlimit="10" clip-path="none"/>
<path data-code="206" d="M 293.5649 194.9169 L 293.4207 195.92 L 293.1602 196.4908 L 292.7242 197.0139 L 287.7823 200.3198 L 286.1212 201.2841 L 282.3552 202.8848 L 277.1338 205.5602 L 275.1407 206.1444 L 270.0768 207.2235 L 268.2056 207.939 L 263.9466 210.2477 L 260.194 211.8648 L 255.1247 214.7712 L 251.3587 216.3868 L 246.3049 219.2947 L 242.6943 221.0609 L 241.1573 222.2011 L 239.8125 223.541 L 238.688 224.9957 L 237.2258 227.3074 L 235.9739 228.5862 L 229.5541 232.4524 L 227.6828 233.1663 L 224.6468 233.7953 L 221.5135 236.3604 L 219.8043 237.4081 L 217.9688 238.1683 L 214.3761 239.1952 L 215.6292 236.1517 L 216.5782 234.1932 L 217.6838 232.4628 L 220.2537 229.242 L 221.3492 225.1551 L 223.7872 219.8253 L 224.2444 217.7446 L 224.3707 215.6028 L 224.2053 213.467 L 223.7168 211.4072 L 221.2631 206.1087 L 220.5231 202.9743 L 220.3208 200.7878 L 220.2939 198.5789 L 220.4493 196.382 L 220.8406 194.2387 L 221.5381 192.2698 L 223.8453 187.9162 L 225.4662 184.0739 L 228.1322 178.7872 L 228.718 176.7528 L 229.79 171.5451 L 230.483 169.6135 L 232.7176 165.2197 L 234.8012 160.4741 L 240.4273 151.5224 L 245.4453 154.5689 L 247.1891 155.4587 L 249.1509 156.11 L 253.1673 157.0311 L 255.1191 157.6273 L 260.355 160.0567 L 263.4123 160.7647 L 270.7241 161.4429 L 281.5883 166.3792 L 283.1768 167.5224 L 284.5562 168.9279 L 285.1554 169.7119 L 286.148 171.4766 L 287.3217 174.3054 L 289.1058 177.7871 L 289.8972 179.6219 L 290.4371 181.6951 L 291.5438 188.0578 L 292.7276 191.7825 L 293.5649 194.9169 Z" fill="#000000" fill-opacity="1" stroke="#000000" stroke-width="0" paint-order="fill" stroke-opacity="1" stroke-dasharray="" stroke-linecap="butt" stroke-linejoin="miter" stroke-miterlimit="10" clip-path="none"/>
<path data-code="207" d="M 443.8045 131.6189 L 441.5163 133.5923 L 439.2437 135.2348 L 437.6955 136.0769 L 436.0087 136.4793 L 435.1446 136.4256 L 433.5226 135.9293 L 427.569 133.2048 L 424.2502 131.2732 L 422.4974 130.4162 L 421.4567 130.0659 L 419.2858 129.6158 L 417.0479 129.3892 L 413.6262 129.2715 L 394.2619 129.4056 L 391.0414 129.1686 L 388.9656 128.7767 L 387.0575 128.0806 L 378.2791 123.4185 L 375.7997 121.3736 L 368.8076 114.4087 L 366.2176 112.5263 L 365.2563 112.0702 L 363.2185 111.5336 L 360.1243 111.4442 L 357.2201 112.015 L 354.136 113.2417 L 352.599 113.4071 L 351.8333 113.2223 L 350.4762 112.4368 L 349.3763 111.322 L 347.7107 108.7539 L 347.1216 108.1935 L 346.367 107.7866 L 345.5164 107.5705 L 344.612 107.5407 L 343.6854 107.7032 L 342.7643 108.0654 L 341.9035 108.5781 L 340.3106 109.8971 L 337.4612 113.1239 L 334.2273 118.0171 L 333.5857 118.6639 L 332.811 119.1722 L 331.9525 119.5374 L 330.0801 119.9577 L 326.047 120.1797 L 322.8433 117.7458 L 321.1039 116.8203 L 319.1388 116.2271 L 314.1778 115.2925 L 313.2276 114.9527 L 311.5967 113.9929 L 310.262 112.7081 L 309.7366 111.9465 L 309.3454 111.085 L 309.1285 110.1043 L 309.1263 109.1221 L 309.3387 108.1727 L 309.7769 107.3008 L 310.3973 106.6151 L 311.0948 106.1188 L 316.5789 103.0425 L 321.2649 101.1243 L 326.3879 98.2671 L 330.1204 96.5606 L 331.9279 95.3742 L 336.9917 91.0936 L 339.6589 89.229 L 343.3735 87.515 L 348.4306 84.6101 L 352.201 83.0407 L 357.2917 80.2073 L 361.0376 78.5723 L 362.8708 77.4008 L 364.5755 75.9894 L 366.9051 73.5853 L 368.2498 71.7997 L 369.3017 69.8189 L 369.6516 68.7816 L 370.0898 66.6428 L 370.6968 60.2905 L 377.5458 61.7675 L 379.4271 62.4844 L 383.7654 64.653 L 389.662 66.519 L 393.2782 67.935 L 394.1334 69.0483 L 394.8007 69.4985 L 400.3899 71.3556 L 405.5588 73.9042 L 406.566 74.1978 L 408.644 74.5064 L 411.7907 74.3886 L 412.818 74.1934 L 414.7228 73.5421 L 418.1222 71.7923 L 419.9554 71.0724 L 424.9768 69.8919 L 426.9475 69.2659 L 432.0761 66.5131 L 435.8231 64.8945 L 440.9551 62.161 L 442.9281 61.5529 L 447.9729 60.4514 L 449.8375 59.7554 L 454.168 57.633 L 458.1676 56.6284 L 460.9421 54.2303 L 462.4936 53.4627 L 463.3723 53.3002 L 464.2341 53.3286 L 465.0412 53.5536 L 465.7477 53.9903 L 466.2641 54.591 L 466.5927 55.2542 L 466.9683 56.6374 L 462.5607 61.1817 L 462.5898 71.4077 L 462.4143 74.7493 L 462.1326 76.9239 L 461.6083 79.012 L 459.5582 83.4819 L 458.8763 85.3882 L 457.7909 90.5839 L 457.204 92.6258 L 452.3068 102.6982 L 451.0269 104.4987 L 446.807 109.684 L 445.6165 111.5396 L 443.8962 115.3358 L 442.1255 118.7459 L 441.4526 120.5598 L 441.2022 122.6092 L 441.4447 124.6272 L 443.439 129.586 L 443.8045 131.6189 Z" fill="#000000" fill-opacity="1" stroke="#000000" stroke-width="0" paint-order="fill" stroke-opacity="1" stroke-dasharray="" stroke-linecap="butt" stroke-linejoin="miter" stroke-miterlimit="10" clip-path="none"/>








</svg>