<?xml version="1.0" standalone="no"?>
<!-- Generator: Paintmaps.com , Online SVG vector map maker -->
<svg xmlns="http://www.w3.org/2000/svg" version="1.1" baseProfile="full"   style="background-color:false" width="800" height="500" viewBox="0 0 800 533">
<path data-code="200" d="M 398.3153 94.7348 L 399.0072 96.5689 L 403.1177 104.5961 L 406.0204 111.6844 L 407.9303 114.8669 L 410.2026 117.8638 L 417.965 126.2895 L 424.9352 132.6954 L 429.4572 135.7988 L 434.8921 138.2907 L 437.7662 139.8847 L 440.714 142.0219 L 444.9575 145.611 L 439.0927 149.9672 L 435.9484 151.6703 L 432.4152 152.8576 L 423.4921 155.1422 L 421.791 155.89 L 418.8493 157.8443 L 415.2383 161.7228 L 413.4226 164.8425 L 410.18 171.6142 L 407.9324 174.9195 L 403.9652 179.5295 L 400.9908 182.2834 L 397.6991 184.6116 L 393.9141 186.2493 L 389.8097 187.0954 L 383.472 187.5376 L 368.332 187.513 L 355.3352 187.2974 L 346.8706 186.6614 L 340.8604 185.2531 L 332.9649 181.4346 L 327.4604 179.7424 L 319.2844 178.9481 L 300.4371 178.5332 L 294.3225 177.6598 L 290.7443 176.5217 L 280.5622 171.8052 L 269.2276 168.0987 L 269.2276 167.2771 L 269.0782 167.2771 L 269.0782 167.0806 L 268.9288 167.0806 L 268.9288 166.6821 L 268.7793 166.6821 L 268.7793 166.4829 L 268.6319 166.4829 L 268.6319 165.6886 L 268.5521 165.6886 L 268.4825 165.6886 L 268.4825 165.4894 L 268.1836 165.4894 L 268.1836 165.2901 L 268.0342 165.2901 L 268.0342 165.0909 L 267.5879 165.0909 L 267.5879 164.8944 L 267.1396 164.8944 L 267.1396 164.6951 L 266.8428 164.6951 L 266.8428 164.4959 L 266.6934 164.4959 L 266.6934 164.2966 L 266.5439 164.2966 L 266.5439 163.8981 L 265.9482 163.8981 L 265.9482 163.7016 L 266.0977 163.7016 L 266.0977 163.1039 L 266.2471 163.1039 L 266.2471 162.9046 L 266.9922 162.9046 L 266.9922 163.1039 L 267.1396 163.1039 L 267.1396 162.9046 L 267.2891 162.9046 L 267.2891 162.7081 L 267.1396 162.7081 L 267.1396 162.3096 L 266.8428 162.3096 L 266.8428 162.1103 L 266.3945 162.1103 L 266.3945 161.9111 L 266.0977 161.9111 L 266.0977 161.3161 L 266.2471 161.3161 L 266.2471 161.1168 L 266.5439 161.1168 L 266.5439 160.9176 L 267.2891 160.9176 L 267.2891 161.1168 L 267.7374 161.1168 L 267.7374 160.9176 L 267.8868 160.9176 L 267.8868 160.5218 L 267.7374 160.5218 L 267.7374 160.3226 L 267.5879 160.3226 L 267.5879 160.1233 L 267.2891 160.1233 L 267.2891 159.9241 L 266.9922 159.9241 L 266.9922 160.1233 L 266.8428 160.1233 L 266.8428 160.3226 L 266.6934 160.3226 L 266.6934 160.5218 L 266.5439 160.5218 L 266.5439 160.3226 L 266.3945 160.3226 L 266.3945 159.9241 L 266.5439 159.9241 L 266.5439 159.7248 L 267.1396 159.7248 L 267.1396 159.5283 L 267.2891 159.5256 L 267.2891 159.3291 L 267.4385 159.3291 L 267.4385 159.1298 L 267.8868 159.1298 L 267.8868 159.3291 L 268.7793 159.3291 L 268.7793 159.1298 L 269.0782 159.1298 L 269.0782 159.3291 L 269.3382 159.3291 L 269.3771 159.3291 L 269.3771 159.4301 L 269.3771 159.5256 L 269.8233 159.5283 L 269.8233 159.7248 L 270.419 159.7248 L 270.419 160.1233 L 270.8673 160.1233 L 270.8673 160.5218 L 271.0168 160.5218 L 271.0168 160.7183 L 271.1662 160.7183 L 271.1662 160.9176 L 271.9113 160.9176 L 271.9113 161.1168 L 272.0587 161.1168 L 272.0587 161.3161 L 272.3576 161.3161 L 272.3576 161.5153 L 272.507 161.5153 L 272.507 161.7119 L 273.1027 161.7119 L 273.1027 161.5153 L 273.2522 161.5153 L 273.2522 161.3161 L 273.4016 161.3161 L 273.4016 160.9176 L 273.2522 160.9176 L 273.2522 160.7183 L 273.1027 160.7183 L 273.1027 160.5218 L 272.8059 160.5218 L 272.8059 160.3226 L 272.6565 160.3226 L 272.6565 160.1233 L 272.3576 160.1233 L 272.3576 159.9241 L 270.8673 159.9241 L 270.8673 159.7248 L 270.5685 159.7248 L 270.5685 159.3291 L 270.419 159.3291 L 270.419 158.5321 L 270.5685 158.5321 L 270.5685 158.1363 L 270.419 158.1363 L 270.419 157.9371 L 270.5685 157.9371 L 270.5685 157.7378 L 270.7179 157.7378 L 270.7179 157.5386 L 271.0168 157.5386 L 271.0168 157.3421 L 271.1662 157.3421 L 271.1662 157.1428 L 271.6125 157.1428 L 271.6125 156.9436 L 272.0587 156.9436 L 272.0587 156.7443 L 272.3576 156.7443 L 272.3576 156.5451 L 272.507 156.5451 L 272.507 156.3458 L 272.8059 156.3458 L 272.8059 156.1493 L 273.4016 156.1493 L 273.4016 155.9501 L 273.9973 155.9501 L 273.9973 155.7508 L 274.1467 155.7508 L 274.1467 155.5516 L 274.2962 155.5516 L 274.2962 155.3523 L 274.4456 155.3523 L 274.4456 155.1558 L 274.8919 155.1558 L 274.8919 154.9566 L 275.3381 154.9566 L 275.3381 154.7573 L 275.9359 154.7573 L 275.9359 154.5581 L 276.5315 154.5581 L 276.5315 154.3588 L 277.1272 154.3588 L 277.1272 154.1596 L 277.725 154.1596 L 277.725 153.963 L 278.3207 153.963 L 278.3207 153.7638 L 278.7669 153.7638 L 278.7669 153.5646 L 279.0658 153.5646 L 279.0658 153.3653 L 279.2152 153.3653 L 279.2152 153.1661 L 279.6615 153.1661 L 279.6615 152.9695 L 280.1098 152.9695 L 280.1098 152.7703 L 280.4066 152.7703 L 280.4066 152.571 L 280.5561 152.571 L 280.5561 152.3718 L 280.8549 152.3718 L 280.8549 152.1726 L 281.0023 152.1726 L 281.0044 151.9733 L 281.1518 151.9733 L 281.1518 151.5775 L 281.3012 151.5775 L 281.3012 151.179 L 281.4506 151.179 L 281.4506 150.7833 L 281.6001 150.7833 L 281.6001 150.3848 L 281.7495 150.3848 L 281.7495 150.1855 L 282.0463 150.1855 L 282.0463 149.9863 L 282.1958 149.9863 L 282.1958 149.787 L 282.3452 149.787 L 282.3452 149.5905 L 282.642 149.5905 L 282.6441 149.3913 L 282.7915 149.3913 L 282.7915 149.192 L 282.9409 149.192 L 282.9409 148.9928 L 283.2398 148.9928 L 283.2398 148.7935 L 283.3892 148.7935 L 283.3892 148.597 L 283.5366 148.597 L 283.5366 148.3978 L 283.686 148.3978 L 283.686 148.1985 L 283.9849 148.1985 L 283.9849 147.9993 L 284.1343 147.9993 L 284.1343 147.8 L 284.2817 147.8 L 284.2817 147.6008 L 284.4312 147.6008 L 284.4312 147.0058 L 284.5806 147.0058 L 284.5806 146.8065 L 284.8795 146.8065 L 284.8795 146.6073 L 286.2203 146.6073 L 286.2203 146.4108 L 286.5192 146.4108 L 286.5192 146.2115 L 286.816 146.2115 L 286.816 146.0123 L 286.9654 146.0123 L 286.9654 145.813 L 287.2643 145.813 L 287.2643 145.6138 L 287.5611 145.6138 L 287.5611 145.4145 L 287.7105 145.4145 L 287.7105 145.0188 L 287.86 145.0188 L 287.86 144.0252 L 288.0094 144.0252 L 288.0094 143.6268 L 288.1588 143.6268 L 288.1588 143.2283 L 288.3083 143.2283 L 288.3083 143.0317 L 289.4997 143.0317 L 289.4997 142.8325 L 290.2448 142.8325 L 290.2448 142.6332 L 290.5437 142.6332 L 290.5437 142.434 L 290.6931 142.434 L 290.6931 142.0382 L 290.8405 142.0382 L 290.8405 141.6397 L 290.9899 141.6397 L 290.9899 141.4405 L 291.1394 141.4405 L 291.1394 141.042 L 291.2888 141.042 L 291.2888 140.8455 L 291.1394 140.8455 L 291.1394 140.6462 L 291.2888 140.6462 L 291.2888 140.447 L 291.8845 140.447 L 291.8845 140.0485 L 292.0339 140.0485 L 292.0339 139.852 L 292.1834 139.852 L 292.1834 139.6527 L 292.4802 139.6527 L 292.4802 139.852 L 292.6296 139.852 L 292.6296 139.6527 L 292.9285 139.6527 L 292.9285 139.4535 L 293.0779 139.4535 L 293.0779 139.2542 L 293.2274 139.2542 L 293.2274 139.055 L 293.6736 139.055 L 293.6736 138.8557 L 293.9725 138.8557 L 293.9725 138.6592 L 294.2693 138.6592 L 294.2693 138.46 L 294.4188 138.46 L 294.4188 138.2607 L 294.7176 138.2607 L 294.7176 138.0615 L 295.0145 138.0615 L 295.0145 137.8622 L 295.3133 137.8622 L 295.3133 137.6657 L 295.4628 137.6657 L 295.4628 137.4665 L 295.7596 137.4665 L 295.7596 137.2672 L 295.909 137.2672 L 295.909 137.068 L 296.0585 137.068 L 296.0585 136.8687 L 296.2079 136.8687 L 296.2079 136.6695 L 296.6542 136.6695 L 296.6542 136.473 L 296.953 136.473 L 296.953 136.2737 L 297.2519 136.2737 L 297.2519 136.0745 L 297.5487 136.0745 L 297.5487 135.8752 L 297.8476 135.8752 L 297.8476 135.676 L 297.997 135.676 L 297.997 135.4795 L 298.4433 135.4795 L 298.4433 135.2802 L 298.7422 135.2802 L 298.7422 135.081 L 299.6367 135.081 L 299.6367 134.8817 L 300.3818 134.8817 L 300.3818 134.6825 L 300.9775 134.6825 L 300.9775 134.4832 L 301.127 134.4832 L 301.127 134.2867 L 301.7227 134.2867 L 301.7227 134.0875 L 302.0215 134.0875 L 302.0215 133.8882 L 303.0655 133.8882 L 303.0655 133.689 L 303.6531 133.689 L 303.9581 133.689 L 303.9581 133.4897 L 304.1075 133.4897 L 304.1075 133.3123 L 304.1075 133.0939 L 304.3695 133.0939 L 304.5558 133.0939 L 304.5558 132.8947 L 304.6111 132.8947 L 306.1955 132.8947 L 306.1955 133.0939 L 307.5363 133.0939 L 307.5363 132.6954 L 307.6858 132.6954 L 307.6858 132.297 L 309.0266 132.297 L 309.0266 131.7019 L 308.8771 131.7019 L 308.8771 131.5027 L 309.0266 131.5027 L 309.0266 131.1069 L 309.7717 131.1069 L 309.7717 131.3034 L 309.9212 131.3034 L 309.9212 131.5027 L 310.0706 131.5027 L 310.0706 131.7019 L 310.22 131.7019 L 310.22 131.9012 L 310.3695 131.9012 L 310.3695 132.1004 L 311.1146 132.1004 L 311.1146 132.297 L 311.7103 132.297 L 311.7103 132.4962 L 313.7962 132.4962 L 313.7962 132.297 L 315.2885 132.297 L 315.2885 132.1004 L 317.2251 132.1004 L 317.2251 131.9012 L 317.5239 131.9012 L 317.5239 131.7019 L 317.8208 131.7019 L 317.8208 131.5027 L 317.9702 131.5027 L 317.9702 131.3034 L 318.1196 131.3034 L 318.1196 131.5027 L 319.4605 131.5027 L 319.4605 131.7019 L 319.7593 131.7019 L 319.7593 131.9012 L 321.2496 131.9012 L 321.2496 132.1004 L 321.6979 132.1004 L 321.6979 132.297 L 321.5485 132.297 L 321.5485 132.4962 L 321.6979 132.4962 L 321.6979 132.6954 L 321.8473 132.6954 L 321.8473 132.8947 L 321.9947 132.8947 L 321.9947 134.4832 L 322.5925 134.4832 L 322.5925 134.6825 L 324.0827 134.6825 L 324.0827 134.2867 L 324.2322 134.2867 L 324.2322 134.0875 L 324.529 134.0875 L 324.529 133.8882 L 324.9773 133.8882 L 324.9773 133.0939 L 325.1267 133.0939 L 325.1267 132.297 L 325.573 132.297 L 325.573 132.4962 L 325.7224 132.4962 L 325.7224 132.6954 L 325.8718 132.6954 L 325.8718 132.8947 L 325.7224 132.8947 L 325.7224 133.4897 L 325.8718 133.4897 L 325.8718 133.689 L 326.3181 133.689 L 326.3181 133.8882 L 326.617 133.8882 L 326.617 133.689 L 326.7664 133.689 L 326.7664 133.4897 L 326.9138 133.4897 L 326.9138 133.2932 L 327.8084 133.2932 L 327.8084 133.0939 L 328.7029 133.0939 L 328.7029 132.8947 L 328.8524 132.8947 L 328.8524 132.6954 L 329.0018 132.6954 L 329.0018 132.4962 L 329.2986 132.4962 L 329.2986 132.297 L 329.4481 132.297 L 329.4481 132.1004 L 329.5975 132.1004 L 329.5975 131.9012 L 329.7469 131.9012 L 329.7469 130.5092 L 329.5975 130.5092 L 329.5975 129.9142 L 329.4481 129.9142 L 329.4481 129.7149 L 329.2986 129.7149 L 329.2986 129.5157 L 329.1512 129.5157 L 329.1512 129.3164 L 329.2986 129.3164 L 329.2986 128.9207 L 329.1512 128.9207 L 329.1512 128.7214 L 329.0018 128.7214 L 329.0018 128.5222 L 328.8524 128.5222 L 328.8524 128.3229 L 328.7029 128.3229 L 328.7029 128.1237 L 328.4061 128.1237 L 328.4061 127.9244 L 328.2567 127.9244 L 328.2567 127.7279 L 328.1072 127.7279 L 328.1072 127.5287 L 327.9578 127.5287 L 327.9578 127.3513 L 327.9578 126.9309 L 328.2567 126.9309 L 328.2567 126.7344 L 328.4061 126.7344 L 328.4061 126.5352 L 328.7029 126.5352 L 328.7029 126.3359 L 328.8524 126.3359 L 328.8524 126.1367 L 329.0018 126.1367 L 329.0018 125.9374 L 329.1512 125.9374 L 329.1512 126.1367 L 330.9383 126.1367 L 330.9383 125.9374 L 331.5361 125.9374 L 331.5361 125.7382 L 332.1318 125.7382 L 332.1318 125.3424 L 331.9823 125.3424 L 331.9823 124.7447 L 331.8329 124.7447 L 331.8329 124.5481 L 331.5361 124.5481 L 331.5361 124.3489 L 331.3866 124.3489 L 331.3866 124.1497 L 331.8329 124.1497 L 331.8329 123.9504 L 332.2812 123.9504 L 332.2812 123.7512 L 333.0734 123.7512 L 334.0703 123.7512 L 334.0703 123.5519 L 334.8155 123.5519 L 334.8155 123.7512 L 334.9649 123.7512 L 334.9649 124.1497 L 335.1123 124.1497 L 335.1123 124.5481 L 335.2617 124.5481 L 335.2617 124.7447 L 335.4111 124.7447 L 335.4111 125.1432 L 337.2003 125.1432 L 337.2003 124.7447 L 337.6465 124.7447 L 337.6465 124.5481 L 337.9454 124.5481 L 337.9454 124.7447 L 338.5411 124.7447 L 338.5411 124.9439 L 341.0754 124.9439 L 341.0754 124.7447 L 341.2248 124.7447 L 341.2248 124.5481 L 341.3742 124.5481 L 341.3742 124.3489 L 341.5237 124.3489 L 341.5237 123.9504 L 341.6711 123.9504 L 341.6711 123.7512 L 341.8205 123.7512 L 341.8205 123.1561 L 341.9699 123.1561 L 341.9699 122.5584 L 341.8205 122.5584 L 341.8205 122.3619 L 341.6711 122.3619 L 341.6711 122.1626 L 341.5237 122.1626 L 341.5237 121.7641 L 341.3742 121.7641 L 341.3742 121.5649 L 341.0754 121.5649 L 341.0754 120.7706 L 340.9259 120.7706 L 340.9259 120.1756 L 341.0754 120.1756 L 341.0754 119.3786 L 341.2248 119.3786 L 341.2248 119.1521 L 341.2248 118.9829 L 341.3742 118.9829 L 341.3742 118.7836 L 341.5237 118.7836 L 341.5237 118.3851 L 341.6711 118.3851 L 341.6711 117.9894 L 341.8205 117.9894 L 341.8205 117.5909 L 341.9699 117.5909 L 341.9699 117.3916 L 342.7151 117.3916 L 342.7151 117.1924 L 343.2678 117.1924 L 343.9085 117.1924 L 343.9085 116.9931 L 343.7591 116.9931 L 343.7591 116.7966 L 343.9085 116.7966 L 343.9085 116.5974 L 344.9505 116.5974 L 344.9505 116.7966 L 345.0999 116.7966 L 345.0999 116.9931 L 345.2493 116.9959 L 345.2493 117.1924 L 345.3988 117.1924 L 345.3988 117.3916 L 345.5482 117.3916 L 345.5482 117.5909 L 345.6956 117.5909 L 345.6956 117.7901 L 346.2933 117.7901 L 346.2933 117.9894 L 346.4407 117.9894 L 346.4428 118.3851 L 346.7396 118.3851 L 346.7396 118.1859 L 346.5901 118.1859 L 346.5901 117.9894 L 346.7396 117.9894 L 346.7396 117.7901 L 346.5901 117.7901 L 346.5901 117.5909 L 346.889 117.5909 L 346.889 117.3916 L 347.0385 117.3916 L 347.0385 117.1924 L 347.3353 117.1924 L 347.3353 116.9959 L 347.4847 116.9931 L 347.4847 116.7966 L 347.6341 116.7966 L 347.6341 116.5974 L 347.7836 116.5974 L 347.7836 116.3981 L 347.933 116.3981 L 347.933 116.1989 L 348.0804 116.1989 L 348.0825 115.9996 L 348.2298 115.9996 L 348.2298 115.8031 L 348.5287 115.8031 L 348.5287 115.6039 L 348.6781 115.6039 L 348.6781 115.4046 L 348.975 115.4046 L 348.975 115.2054 L 349.5727 115.2054 L 349.5727 115.0061 L 350.1684 115.0061 L 350.1684 114.8096 L 351.5092 114.8096 L 351.5092 115.0061 L 351.8081 115.0061 L 351.8081 115.2054 L 352.2544 115.2054 L 352.2544 115.0061 L 352.4038 115.0061 L 352.4038 114.6104 L 352.2544 114.6104 L 352.2544 114.2119 L 352.107 114.2119 L 352.107 114.0126 L 351.8081 114.0126 L 351.8081 113.8134 L 350.6147 113.8134 L 350.6147 113.6168 L 350.3178 113.6168 L 350.3178 113.4176 L 350.1684 113.4176 L 350.1684 112.8199 L 350.019 112.8199 L 350.019 112.4241 L 350.1684 112.4241 L 350.1684 112.2248 L 350.3178 112.2248 L 350.3178 111.8263 L 350.7641 111.8263 L 350.7641 111.6271 L 350.6147 111.6271 L 350.6147 111.4306 L 350.7641 111.4306 L 350.7641 111.2313 L 351.063 111.2313 L 351.063 111.0321 L 351.9575 111.0321 L 351.9575 111.2313 L 352.5532 111.2313 L 352.5532 111.4306 L 352.7027 111.4306 L 352.7027 111.8263 L 352.8521 111.8263 L 352.8521 112.0256 L 352.9995 112.0256 L 352.9995 112.4241 L 352.8521 112.4241 L 352.8521 112.8199 L 352.7027 112.8199 L 352.7027 113.0191 L 352.8521 113.0191 L 352.8521 113.2183 L 354.6392 113.2183 L 354.6392 113.4176 L 355.8326 113.4176 L 355.8326 113.6168 L 356.1315 113.6168 L 356.1315 113.8134 L 356.5778 113.8134 L 356.5778 114.2119 L 356.2789 114.2119 L 356.2789 114.4111 L 356.1315 114.4111 L 356.1315 114.6104 L 355.6832 114.6104 L 355.6832 114.8069 L 355.2369 114.8069 L 355.2369 115.0061 L 354.4918 115.0061 L 354.4918 115.2054 L 354.3424 115.2054 L 354.3424 115.4046 L 354.1929 115.4046 L 354.1929 116.3981 L 354.3424 116.3981 L 354.3424 116.7966 L 354.4918 116.7966 L 354.4918 116.9931 L 354.6392 116.9959 L 354.6392 117.1924 L 354.9381 117.1924 L 354.9381 117.3916 L 355.0875 117.3916 L 355.0875 117.5909 L 355.2369 117.5909 L 355.2369 117.7901 L 355.3864 117.7901 L 355.3864 117.9894 L 355.5338 117.9894 L 355.5338 117.7901 L 355.6832 117.7901 L 355.6832 117.5909 L 355.8326 117.5909 L 355.8326 117.3916 L 355.9821 117.3916 L 355.9821 117.1924 L 356.1315 117.1924 L 356.1315 116.9959 L 356.2789 116.9931 L 356.2789 116.7966 L 356.7272 116.7966 L 356.7272 116.5974 L 357.0261 116.5974 L 357.0261 116.7966 L 357.1734 116.7966 L 357.1734 116.9931 L 357.3229 116.9959 L 357.3229 117.5909 L 357.1734 117.5909 L 357.1734 117.7901 L 357.0261 117.7901 L 357.0261 117.9894 L 356.8766 117.9894 L 356.8766 118.1859 L 356.4283 118.1859 L 356.4283 118.3851 L 356.2789 118.3851 L 356.2789 118.1859 L 355.9821 118.1859 L 355.9821 118.3851 L 355.5338 118.3851 L 355.5338 118.7836 L 355.8326 118.7836 L 355.8326 118.9829 L 355.9821 118.9829 L 355.9821 119.1794 L 356.2789 119.1794 L 356.2789 119.3786 L 356.5778 119.3786 L 356.5778 119.1794 L 357.3229 119.1794 L 357.3229 118.9829 L 358.3669 118.9829 L 358.3669 118.7836 L 358.5163 118.7836 L 358.5163 118.9829 L 358.8131 118.9829 L 358.8131 119.1794 L 359.2615 119.1794 L 359.2615 119.3786 L 359.5583 119.3786 L 359.5583 119.5779 L 360.0066 119.5779 L 360.0066 119.7771 L 360.6023 119.7771 L 360.6023 119.9764 L 361.0506 119.9764 L 361.0506 120.1756 L 361.198 120.1756 L 361.198 120.3721 L 361.4968 120.3721 L 361.4968 120.5714 L 361.6463 120.5714 L 361.6463 120.7706 L 361.7957 120.7706 L 361.7957 120.9699 L 361.9451 120.9699 L 361.9451 121.1691 L 362.242 121.1691 L 362.242 121.3657 L 362.3914 121.3657 L 362.3914 121.5649 L 364.33 121.5649 L 364.33 121.7641 L 364.7762 121.7641 L 364.7762 121.9634 L 365.5214 121.9634 L 365.5214 121.7641 L 365.8202 121.7641 L 365.8202 121.5649 L 365.9697 121.5649 L 365.9697 121.3657 L 366.2665 121.3657 L 366.2665 121.1691 L 368.9502 121.1691 L 368.9502 120.9699 L 369.0996 120.9699 L 369.0996 120.7706 L 369.2491 120.7706 L 369.2491 120.3721 L 369.3964 120.3721 L 369.3964 119.9764 L 369.6953 119.9764 L 369.6953 119.5779 L 369.8448 119.5779 L 369.8448 119.1794 L 369.9942 119.1794 L 369.9942 118.9829 L 370.1436 118.9829 L 370.1436 118.3851 L 370.291 118.3851 L 370.291 117.9894 L 370.4404 117.9894 L 370.4404 117.5909 L 370.5899 117.5909 L 370.5899 117.3916 L 370.7393 117.3916 L 370.7393 117.1924 L 370.8888 117.1924 L 370.8888 116.9959 L 371.0361 116.9931 L 371.0361 116.5974 L 371.1856 116.5974 L 371.1856 115.6039 L 371.7833 115.6039 L 371.7833 115.0061 L 371.9307 115.0061 L 371.9307 114.4111 L 372.0801 114.4111 L 372.0801 114.2119 L 372.2296 114.2119 L 372.2296 113.8134 L 372.379 113.8134 L 372.379 112.6233 L 372.5284 112.6233 L 372.5284 112.2248 L 372.6758 112.2248 L 372.6758 112.0256 L 372.9747 112.0256 L 372.9747 111.2313 L 373.2736 111.2313 L 373.2736 110.4371 L 373.423 110.4371 L 373.423 110.2378 L 373.5704 110.2378 L 373.5704 109.6401 L 373.7198 109.6401 L 373.7198 109.4408 L 373.423 109.4408 L 373.423 109.2061 L 373.423 108.8458 L 373.5704 108.8458 L 373.5704 108.9768 L 373.5704 109.0451 L 373.7198 109.0451 L 373.7198 109.2443 L 374.0187 109.2443 L 374.0187 109.0451 L 374.1681 109.0451 L 374.1681 108.8458 L 374.3155 108.8458 L 374.3155 108.4473 L 374.465 108.4473 L 374.465 107.8523 L 374.6144 107.8523 L 374.6144 108.0516 L 375.509 108.0516 L 375.509 107.8523 L 375.8078 107.8523 L 375.8078 107.4538 L 375.9552 107.4538 L 375.9552 106.8588 L 376.1047 106.8588 L 376.1047 106.0646 L 376.2541 106.0646 L 376.2541 105.4668 L 376.4035 105.4668 L 376.4035 105.2676 L 376.7024 105.2676 L 376.7024 105.0683 L 376.8498 105.0683 L 376.8498 104.8718 L 376.9992 104.8718 L 376.9992 104.6726 L 377.2981 104.6726 L 377.2981 104.4733 L 377.4475 104.4733 L 377.4475 104.2741 L 377.5949 104.2741 L 377.5949 104.0748 L 378.1927 104.0748 L 378.1927 103.8783 L 378.4895 103.8783 L 378.4895 103.679 L 379.3841 103.679 L 379.3841 103.4798 L 379.5335 103.4798 L 379.5335 103.2806 L 379.8324 103.2806 L 379.8324 103.0813 L 379.9818 103.0813 L 379.9818 102.8821 L 380.2786 102.8821 L 380.2786 102.6855 L 380.4281 102.6855 L 380.4281 102.4863 L 380.7269 102.4863 L 380.7269 102.287 L 380.8743 102.287 L 380.8743 102.0878 L 381.1732 102.0878 L 381.1732 101.8886 L 381.4721 101.8886 L 381.4721 101.692 L 381.7689 101.692 L 381.7689 101.4928 L 381.9183 101.4928 L 381.9183 101.2935 L 382.2172 101.2935 L 382.2172 101.0943 L 382.514 101.0943 L 382.514 100.895 L 382.6634 100.895 L 382.6634 100.6958 L 382.9623 100.6958 L 382.9623 100.4993 L 383.2591 100.4993 L 383.2612 100.3 L 383.558 100.3 L 383.558 100.1008 L 383.8569 100.1008 L 383.8569 99.9015 L 384.1537 99.9015 L 384.1537 99.7023 L 384.3031 99.7023 L 384.3031 99.5058 L 384.602 99.5058 L 384.602 99.3065 L 384.7514 99.3065 L 384.7514 98.908 L 384.8988 98.908 L 384.8988 98.7088 L 385.1977 98.7088 L 385.1977 98.5095 L 385.4966 98.5095 L 385.4966 98.313 L 385.646 98.313 L 385.646 97.9145 L 385.9428 97.9145 L 385.9428 97.7153 L 386.2417 97.7153 L 386.2417 97.516 L 386.5385 97.516 L 386.5385 97.3195 L 386.9868 97.3195 L 386.9868 97.1203 L 387.2857 97.1203 L 387.2857 96.921 L 387.5825 96.921 L 387.5825 96.7218 L 387.8814 96.7218 L 387.8814 96.5225 L 388.1782 96.5225 L 388.1782 96.3233 L 388.3277 96.3233 L 388.3277 96.1268 L 388.4771 96.1268 L 388.4771 95.9275 L 388.776 95.9275 L 388.776 95.7283 L 388.9254 95.7283 L 388.9254 95.529 L 389.2222 95.529 L 389.2222 95.3298 L 389.6705 95.3298 L 389.6705 95.1333 L 390.1168 95.1333 L 390.1168 95.3298 L 390.7125 95.3298 L 390.7125 95.529 L 391.6071 95.529 L 391.6071 95.3298 L 391.7565 95.3298 L 391.7565 95.529 L 392.2048 95.529 L 392.2048 95.7283 L 392.5016 95.7283 L 392.5016 95.9275 L 392.9499 95.9275 L 392.9499 96.1268 L 393.0973 96.1268 L 393.0973 96.5225 L 393.2467 96.5225 L 393.2467 96.7218 L 393.3962 96.7218 L 393.3962 96.921 L 393.9919 96.921 L 393.9919 97.1203 L 394.737 97.1203 L 394.737 97.3195 L 395.0359 97.3195 L 395.0359 97.1203 L 395.1853 97.1203 L 395.1853 96.921 L 395.6316 96.921 L 395.6316 96.7218 L 396.2293 96.7218 L 396.2293 96.5225 L 396.5261 96.5225 L 396.5261 96.3233 L 396.9744 96.3233 L 396.9744 96.5225 L 397.1239 96.5225 L 397.1239 96.3233 L 397.2713 96.3233 L 397.2713 96.1268 L 397.5701 96.1268 L 397.5701 95.9275 L 397.7196 95.9275 L 397.7196 95.7283 L 397.869 95.7283 L 397.869 95.3298 L 398.0164 95.3298 L 398.0164 95.1333 L 398.1658 95.1333 L 398.1658 94.934 L 398.3153 94.934 L 398.3153 94.7348 Z M 354.9381 109.8393 L 354.9381 110.0386 L 355.0875 110.0386 L 355.0875 112.0256 L 355.2369 112.0256 L 355.2369 112.4241 L 355.0875 112.4241 L 355.0875 112.6233 L 354.9381 112.6233 L 354.9381 112.8199 L 354.6392 112.8199 L 354.6392 112.6233 L 354.3424 112.6233 L 354.3424 112.2248 L 354.1929 112.2248 L 354.1929 112.0256 L 354.0435 112.0256 L 354.0435 111.8263 L 353.8941 111.8263 L 353.8941 111.6271 L 353.7467 111.6271 L 353.7467 111.0321 L 353.8941 111.0321 L 353.8941 110.6336 L 354.0435 110.6336 L 354.0435 110.2378 L 354.6392 110.2378 L 354.6392 110.0386 L 354.7886 110.0386 L 354.7886 109.8393 L 354.9381 109.8393 Z" fill="#000000" fill-opacity="1" stroke="#000000" stroke-width="0" paint-order="fill" stroke-opacity="1" stroke-dasharray="" stroke-linecap="butt" stroke-linejoin="miter" stroke-miterlimit="10" clip-path="none"/>
<path data-code="201" d="M 546.1642 111.4879 L 534.7007 118.5926 L 526.3036 122.4192 L 520.1072 125.8201 L 516.8442 127.2939 L 512.9261 128.2929 L 508.8545 128.7706 L 487.9642 129.0599 L 483.866 129.4447 L 479.8906 130.2936 L 477.9828 130.9923 L 474.5437 132.9438 L 465.3094 140.4606 L 462.0341 142.666 L 460.2675 143.5476 L 458.4579 144.1999 L 454.6975 145.0133 L 444.9575 145.611 L 440.714 142.0219 L 437.7662 139.8847 L 434.8921 138.2907 L 429.4572 135.7988 L 424.9352 132.6954 L 417.965 126.2895 L 410.2026 117.8638 L 407.9303 114.8669 L 406.0204 111.6844 L 403.1177 104.5961 L 399.0072 96.5689 L 398.3153 94.7348 L 398.4647 94.7348 L 398.4647 94.5355 L 398.6141 94.5355 L 398.6141 94.3363 L 398.7636 94.3363 L 398.7636 94.137 L 398.911 94.137 L 398.911 93.9405 L 399.0604 93.9405 L 399.0604 93.7412 L 399.5087 93.7412 L 399.5087 93.542 L 400.1044 93.542 L 400.1044 93.3428 L 400.4033 93.3428 L 400.4033 93.1435 L 400.7001 93.1435 L 400.7001 92.947 L 402.043 92.947 L 402.043 92.7477 L 402.9355 92.7477 L 402.9355 92.5485 L 403.0849 92.5485 L 403.0849 91.555 L 403.5332 91.555 L 403.5332 92.15 L 404.4278 92.15 L 404.4278 91.9508 L 405.7686 91.9508 L 405.7686 91.7542 L 406.0675 91.7542 L 406.0675 91.555 L 406.3643 91.555 L 406.3643 91.3557 L 406.5137 91.3557 L 406.5137 90.9572 L 406.6632 90.9572 L 406.6632 88.771 L 406.8126 88.771 L 406.8126 88.3752 L 406.9621 88.3752 L 406.9621 87.9767 L 407.1094 87.9767 L 407.1094 87.5782 L 407.2589 87.5782 L 407.2589 87.3817 L 407.8546 87.3817 L 407.8546 87.1825 L 408.004 87.1825 L 408.004 86.9832 L 408.4523 86.9832 L 408.4523 86.784 L 408.7491 86.784 L 408.7491 86.5847 L 409.3469 86.5847 L 409.3469 85.7905 L 409.7931 85.7905 L 409.7931 85.5912 L 410.092 85.5912 L 410.092 85.392 L 410.3888 85.392 L 410.3888 85.1955 L 410.5383 85.1955 L 410.5383 84.9962 L 410.8371 84.9962 L 410.8371 84.797 L 411.134 84.797 L 411.134 84.5977 L 411.2834 84.5977 L 411.2834 84.3985 L 411.5823 84.3985 L 411.5823 84.2019 L 411.8811 84.2019 L 411.8811 84.0027 L 412.178 84.0027 L 412.178 83.8035 L 412.6263 83.8035 L 412.6263 83.6042 L 412.9231 83.6042 L 412.9231 83.405 L 413.222 83.405 L 413.222 83.2057 L 413.5208 83.2057 L 413.5208 83.0092 L 413.6682 83.0092 L 413.6682 82.8099 L 413.8177 82.8099 L 413.8177 82.6107 L 414.1165 82.6107 L 414.1165 82.4115 L 414.266 82.4115 L 414.266 82.0157 L 414.4134 82.0157 L 414.4134 81.8164 L 414.5628 81.8164 L 414.5628 81.6172 L 414.7122 81.6172 L 414.7122 81.4179 L 414.8617 81.4179 L 414.8617 81.0194 L 414.7122 81.0194 L 414.7122 79.9468 L 414.7122 79.8294 L 414.5628 79.8294 L 414.5628 79.4309 L 414.266 79.4309 L 414.266 79.2317 L 414.1165 79.2317 L 414.1165 78.8332 L 413.9671 78.8332 L 413.9671 78.4374 L 413.8177 78.4374 L 413.8177 78.0389 L 413.6682 78.0389 L 413.6682 77.6432 L 413.5208 77.6432 L 413.5208 77.0454 L 413.6682 77.0454 L 413.6682 76.8462 L 414.266 76.8462 L 414.266 77.0454 L 414.5628 77.0454 L 414.5628 76.8462 L 414.7122 76.8462 L 414.7122 76.6469 L 415.0111 76.6469 L 415.0111 76.8462 L 415.3079 76.8462 L 415.3079 77.0454 L 415.4574 77.0454 L 415.4574 77.4439 L 415.6068 77.4439 L 415.6068 77.8397 L 415.7255 77.8397 L 415.7562 77.8397 L 415.7562 78.2382 L 415.9057 78.2382 L 415.9057 78.6367 L 416.0531 78.6367 L 416.0531 78.8332 L 416.6508 78.8332 L 416.6508 78.2382 L 416.5014 78.2382 L 416.5014 77.8397 L 416.3519 77.8397 L 416.3519 77.2447 L 416.5014 77.2447 L 416.5014 76.8462 L 417.5454 76.8462 L 417.5454 76.6469 L 417.8422 76.6469 L 417.8422 76.4504 L 417.9916 76.4504 L 417.9916 76.2512 L 418.5873 76.2512 L 418.5873 76.0519 L 419.0356 76.0519 L 419.0356 75.8527 L 419.3324 75.8527 L 419.3324 75.6534 L 419.4819 75.6534 L 419.4819 75.2577 L 419.3324 75.2577 L 419.3324 74.8592 L 419.1851 74.8592 L 419.1851 74.6599 L 419.4819 74.6599 L 419.4819 74.4607 L 419.7807 74.4607 L 419.7807 74.2641 L 420.0776 74.2641 L 420.0776 74.0649 L 420.3764 74.0649 L 420.3764 73.8657 L 420.6753 73.8657 L 420.6753 73.6664 L 421.1216 73.6664 L 421.1216 73.4672 L 423.357 73.4672 L 423.357 73.2706 L 424.5504 73.2706 L 424.5504 73.0714 L 424.8493 73.0714 L 424.8493 72.8721 L 425.7438 72.8721 L 425.7438 73.0714 L 426.6364 73.0714 L 426.6364 73.2706 L 427.3835 73.2706 L 427.3835 72.4737 L 427.6804 72.4737 L 427.6804 72.8721 L 428.3456 72.8721 L 429.32 72.8721 L 429.32 72.4737 L 429.6189 72.4737 L 429.6189 72.2771 L 430.2146 72.2744 L 430.2146 72.0779 L 430.6629 72.0779 L 430.6629 71.8786 L 431.2586 71.8786 L 431.2586 71.4801 L 431.7049 71.4801 L 431.7049 71.2809 L 432.3026 71.2809 L 432.3026 71.0844 L 433.6434 71.0844 L 433.6434 70.8851 L 434.2391 70.8851 L 434.2391 70.6859 L 434.8348 70.6859 L 434.8348 70.4866 L 434.9843 70.4866 L 434.9843 71.0844 L 435.7294 71.0844 L 435.7294 71.2809 L 436.0283 71.2809 L 436.0283 71.4801 L 436.4745 71.4801 L 436.4745 71.6794 L 436.624 71.6794 L 436.624 71.8786 L 436.7734 71.8786 L 436.7734 72.4737 L 436.9228 72.4737 L 436.9228 72.8721 L 437.0723 72.8721 L 437.0723 73.2706 L 437.2217 73.2706 L 437.2217 73.4672 L 437.5185 73.4672 L 437.5185 73.6664 L 438.712 73.6664 L 438.712 73.4672 L 438.8614 73.4672 L 438.8614 72.2771 L 439.1582 72.2744 L 439.1582 72.0779 L 439.3077 72.0779 L 439.3077 71.0844 L 439.4571 71.0844 L 439.4571 70.8851 L 439.6065 70.8851 L 439.6065 70.6859 L 440.0528 70.6859 L 440.0528 70.4866 L 440.6485 70.4866 L 440.6485 70.2874 L 441.0968 70.2874 L 441.0968 70.0909 L 442.8859 70.0881 L 442.8859 69.6924 L 443.1827 69.6924 L 443.1827 69.8916 L 445.2707 69.8916 L 445.2707 70.0881 L 446.0159 70.0909 L 446.0159 70.2874 L 446.6116 70.2874 L 446.6116 70.4866 L 447.2073 70.4866 L 447.2073 70.2874 L 447.6556 70.2874 L 447.6556 70.0909 L 447.805 70.0881 L 447.805 69.8916 L 448.2513 69.8916 L 448.2513 70.0881 L 450.7855 70.0881 L 450.7855 69.8916 L 452.1264 69.8916 L 452.1264 69.4931 L 452.4252 69.4931 L 452.4252 69.6924 L 452.5747 69.6924 L 452.5747 69.8916 L 452.7241 69.8916 L 452.7241 70.0881 L 453.4692 70.0881 L 453.4692 69.8916 L 453.6166 69.8916 L 453.6166 69.6924 L 453.766 69.6924 L 453.766 69.2939 L 453.9155 69.2939 L 453.9155 69.0946 L 454.2144 69.0946 L 454.2144 68.8981 L 454.3638 68.8981 L 454.3638 68.6989 L 454.5112 68.6989 L 454.5112 68.4996 L 454.6606 68.4996 L 454.6606 68.3004 L 454.81 68.3004 L 454.81 68.1011 L 454.9595 68.1011 L 454.9595 67.7054 L 455.2563 67.7054 L 455.2563 67.5061 L 455.7046 67.5061 L 455.7046 67.3069 L 455.854 67.3069 L 455.854 66.3134 L 455.7046 66.3134 L 455.7046 65.1206 L 455.5552 65.1206 L 455.5552 64.9214 L 455.7046 64.9214 L 455.7046 64.5256 L 455.854 64.5256 L 455.854 63.7286 L 455.7046 63.7286 L 455.7046 63.6385 L 455.7046 63.5321 L 455.5552 63.5321 L 455.5552 62.9344 L 455.7046 62.9344 L 455.7046 62.3393 L 455.854 62.3393 L 455.854 62.1401 L 456.0035 62.1401 L 456.0035 61.9408 L 456.4497 61.9408 L 456.4497 61.3458 L 456.3003 61.3458 L 456.3003 60.5488 L 456.1509 60.5488 L 456.1509 59.5553 L 456.0035 59.5553 L 456.0035 59.3561 L 456.1509 59.3561 L 456.1509 59.1596 L 456.896 59.1596 L 456.896 58.7611 L 457.0454 58.7611 L 457.0454 58.5618 L 457.3443 58.5618 L 457.3443 58.3626 L 458.5357 58.3626 L 458.5357 58.1633 L 458.7691 58.1633 L 458.984 58.1633 L 458.984 58.3626 L 459.7291 58.3626 L 459.7291 58.1633 L 459.5797 58.1633 L 459.5797 57.9668 L 459.8786 57.9668 L 459.8786 58.1633 L 460.9226 58.1633 L 460.9226 58.3626 L 462.2634 58.3626 L 462.2634 58.1633 L 462.7097 58.1633 L 462.7097 57.9668 L 464.202 57.9668 L 464.202 57.7676 L 465.0945 57.7676 L 465.0945 57.5683 L 465.3934 57.5683 L 465.3934 57.3691 L 465.5428 57.3691 L 465.5428 57.1698 L 465.989 57.1698 L 465.989 56.9733 L 466.5868 56.9733 L 466.5868 56.7741 L 466.8836 56.7741 L 466.8836 56.5748 L 467.033 56.5748 L 467.033 56.3756 L 467.7782 56.3756 L 467.7782 56.1763 L 468.3739 56.1763 L 468.3739 56.3756 L 470.3124 56.3756 L 470.3124 56.5748 L 473.1456 56.5748 L 473.1456 56.3756 L 473.4424 56.3756 L 473.4424 56.1763 L 473.7413 56.1763 L 473.7413 55.9771 L 475.381 55.9771 L 475.381 55.7806 L 475.6798 55.7806 L 475.6798 55.5813 L 475.9767 55.5813 L 475.9767 55.3821 L 476.1261 55.3821 L 476.1261 55.7806 L 476.7218 55.7806 L 476.7218 55.3821 L 477.0207 55.3821 L 477.0207 55.5813 L 477.6163 55.5813 L 477.6163 55.7806 L 477.7658 55.7806 L 477.7658 55.9771 L 477.9152 55.9771 L 477.9152 56.1763 L 478.212 56.1763 L 478.212 56.3756 L 478.3615 56.3756 L 478.3615 56.5748 L 478.212 56.5748 L 478.212 56.7741 L 478.3615 56.7741 L 478.3615 57.3691 L 478.6603 57.3691 L 478.6603 57.5683 L 479.5549 57.5683 L 479.5549 57.3691 L 479.7044 57.3691 L 479.7044 57.1698 L 479.8517 57.1698 L 479.8517 56.7741 L 480.0012 56.7741 L 480.0012 56.5748 L 479.8517 56.5748 L 479.8517 56.3756 L 479.7044 56.3756 L 479.7044 55.7806 L 479.8517 55.7806 L 479.8517 55.5813 L 480.4495 55.5813 L 480.4495 55.3821 L 480.8957 55.3821 L 480.8957 54.9836 L 481.9397 54.9836 L 481.9397 55.1828 L 482.2366 55.1828 L 482.2366 55.3821 L 482.6849 55.3821 L 482.6849 55.5813 L 483.1311 55.5813 L 483.1311 55.7806 L 485.2191 55.7806 L 485.2191 55.5813 L 486.4105 55.5813 L 486.4105 55.3821 L 487.0083 55.3821 L 487.0083 55.1828 L 487.4545 55.1828 L 487.4545 55.3821 L 487.9028 55.3821 L 487.9028 55.5813 L 489.8393 55.5813 L 489.8393 55.3821 L 489.9888 55.3821 L 489.9888 55.1828 L 490.2877 55.1828 L 490.2877 54.9836 L 491.9273 54.9836 L 491.9273 55.1828 L 493.2682 55.1828 L 493.2682 55.3821 L 493.7144 55.3821 L 493.7144 55.5813 L 494.0133 55.5813 L 494.0133 55.7806 L 494.3122 55.7806 L 494.3122 55.9771 L 494.7584 55.9771 L 494.7584 56.1763 L 495.8024 56.1763 L 495.8024 56.3756 L 497.741 56.3756 L 497.741 56.1763 L 499.0818 56.1763 L 499.0818 56.3756 L 500.5721 56.3756 L 500.5721 56.5748 L 501.0204 56.5748 L 501.0204 56.7741 L 501.6161 56.7741 L 501.6161 56.9733 L 502.3612 56.9733 L 502.3612 57.1698 L 503.1063 57.1698 L 503.1063 56.9733 L 503.4052 56.9733 L 503.4052 56.7741 L 503.8515 56.7741 L 503.8515 56.5748 L 503.702 56.5748 L 503.702 56.1763 L 503.5526 56.1763 L 503.5526 55.5813 L 503.702 55.5813 L 503.702 55.1828 L 505.7839 55.1828 L 506.2363 55.1828 L 506.2363 54.9836 L 506.3857 54.9836 L 506.3857 54.787 L 507.1309 54.787 L 507.1309 54.9836 L 507.4297 54.9836 L 507.4297 55.1828 L 507.5792 55.1828 L 507.5792 55.5813 L 507.876 55.5813 L 507.876 55.7806 L 507.5792 55.7806 L 507.5792 55.9771 L 507.4297 55.9771 L 507.4297 56.1763 L 507.7266 56.1763 L 507.7266 56.3756 L 508.4717 56.3756 L 508.4717 56.1763 L 509.0694 56.1763 L 509.0694 56.3756 L 509.2189 56.3756 L 509.2189 56.1763 L 509.6651 56.1763 L 509.6651 55.9771 L 509.964 55.9771 L 509.964 55.7806 L 510.2608 55.7806 L 510.2608 55.5813 L 510.5597 55.5813 L 510.5597 55.7806 L 510.7091 55.7806 L 510.7091 55.3821 L 511.3048 55.3821 L 511.3048 54.9836 L 511.4543 54.9836 L 511.4543 53.3841 L 513.1636 53.2995 L 523.3559 69.7442 L 527.104 78.4483 L 532.2115 88.0177 L 534.3588 93.3264 L 535.9985 96.6972 L 542.2154 106.0154 L 546.1642 111.4879 Z" fill="#000000" fill-opacity="1" stroke="#000000" stroke-width="0" paint-order="fill" stroke-opacity="1" stroke-dasharray="" stroke-linecap="butt" stroke-linejoin="miter" stroke-miterlimit="10" clip-path="none"/>
<path data-code="202" d="M 555.638 141.5933 L 548.5879 147.6308 L 538.8603 156.515 L 535.9739 158.8378 L 532.9382 160.8139 L 527.5175 163.3304 L 524.6414 164.9298 L 521.6916 167.0724 L 513.1902 174.2562 L 510.2404 176.3934 L 507.3663 177.9846 L 501.9457 180.4875 L 497.2988 183.7246 L 490.1341 190.4116 L 473.5243 207.7462 L 467.8764 213.2787 L 464.9532 215.8252 L 461.899 218.0743 L 458.9615 219.6955 L 453.5409 222.1575 L 450.3966 224.1827 L 447.412 226.5982 L 440.2902 233.4026 L 422.1901 252.0637 L 418.2434 256.4662 L 414.7777 261.1226 L 413.1626 264.1823 L 410.8597 269.8212 L 406.7512 277.8348 L 405.5946 281.2902 L 404.9805 284.8876 L 404.1821 295.9554 L 403.6765 299.6019 L 402.6878 303.1392 L 400.9887 306.4636 L 398.8536 309.5178 L 391.865 318.0882 L 389.8732 320.9322 L 387.7524 324.4887 L 386.1168 326.5794 L 384.0391 328.1952 L 380.512 330.2641 L 377.6666 332.2511 L 372.0351 337.0658 L 366.5121 342.3636 L 362.5634 346.5096 L 360.156 349.4191 L 358.1069 352.5716 L 356.7374 355.9997 L 356.1008 359.5016 L 356.0721 364.8185 L 356.633 368.3121 L 357.8244 371.7266 L 362.0823 379.5983 L 365.1938 386.4354 L 367.2941 389.375 L 369.8345 391.9134 L 371.2388 393.0133 L 374.031 394.6592 L 378.0453 396.4278 L 380.9234 397.97 L 385.3451 401.2698 L 392.2908 407.7658 L 398.7185 414.8159 L 401.9734 419.404 L 403.4759 422.4801 L 407.9897 434.7133 L 409.9692 441.1766 L 399.7748 449.2338 L 396.8004 451.2836 L 386.8128 455.9891 L 377.3616 462.0293 L 376.3708 462.9273 L 375.6564 464.0272 L 375.3411 465.2664 L 375.3882 466.3964 L 375.9921 468.3943 L 362.0741 470.7689 L 358.3218 471.645 L 354.8603 472.9279 L 346.9095 476.8091 L 343.3128 477.9554 L 336.013 479.6995 L 330.7766 470.8344 L 325.8411 463.0119 L 324.3918 459.9768 L 322.1687 454.2805 L 317.0572 444.7248 L 314.134 437.6666 L 312.1422 434.3694 L 309.7656 431.2579 L 305.827 426.7816 L 293.2253 413.776 L 286.0299 406.8979 L 278.2019 400.6066 L 271.1416 390.4122 L 269.4917 387.7456 L 268.1591 384.9698 L 266.505 380.7119 L 264.9984 377.7259 L 262.9247 374.7017 L 259.3301 370.4111 L 193.1445 301.8373 L 174.4876 282.7341 L 168.1315 275.7877 L 164.8992 271.2951 L 163.4192 268.2436 L 159.6956 257.5552 L 157.7979 250.2158 L 157.8409 250.1885 L 157.2821 247.5738 L 157.4315 247.5738 L 157.4315 247.3745 L 157.7283 247.3745 L 157.7283 247.1753 L 157.8778 247.1753 L 157.8778 246.976 L 158.1766 246.976 L 158.1766 246.7795 L 158.324 246.7795 L 158.324 246.5803 L 158.6229 246.5803 L 158.6229 246.381 L 158.7723 246.381 L 158.7723 246.1818 L 158.324 246.1818 L 158.324 245.9825 L 158.1766 245.9825 L 158.1766 245.7833 L 158.0272 245.7833 L 158.0272 245.5868 L 157.5789 245.5868 L 157.5789 245.3875 L 157.4315 245.3875 L 157.4315 245.1883 L 157.2821 245.1883 L 157.2821 244.7898 L 158.1766 244.7898 L 158.1766 244.989 L 158.4735 244.989 L 158.4735 245.1883 L 158.6229 245.1883 L 158.6229 245.3875 L 158.9218 245.3875 L 158.9218 245.5868 L 159.0712 245.5868 L 159.0712 245.7833 L 159.6669 245.7833 L 159.6669 245.5868 L 159.8163 245.5868 L 159.8163 245.1883 L 159.9637 245.1883 L 159.9637 244.989 L 160.1132 244.989 L 160.1132 244.5932 L 160.5615 244.5905 L 160.5615 244.394 L 160.7109 244.394 L 160.7109 243.9955 L 160.8583 243.9955 L 160.8583 243.7963 L 161.0077 243.7963 L 161.0077 243.597 L 161.1572 243.597 L 161.1572 243.2012 L 161.3066 243.2012 L 161.3066 243.002 L 161.456 243.002 L 161.456 242.6035 L 161.6034 242.6035 L 161.6034 242.407 L 161.7529 242.407 L 161.7529 241.2142 L 161.6034 241.2142 L 161.6034 240.8157 L 161.456 240.8157 L 161.456 240.2207 L 161.3066 240.2207 L 161.3066 239.4237 L 161.456 239.4237 L 161.456 239.2245 L 162.498 239.2245 L 162.498 239.028 L 163.2431 239.028 L 163.2431 238.8287 L 163.8409 238.8287 L 163.8409 238.6295 L 164.586 238.6295 L 164.586 238.4302 L 165.1817 238.4302 L 165.1817 238.231 L 165.63 238.231 L 165.63 238.0345 L 166.0763 238.0345 L 166.0763 237.8352 L 166.5225 237.8352 L 166.5225 237.636 L 167.4171 237.636 L 167.4171 237.4367 L 168.0148 237.4367 L 168.0148 237.636 L 168.1622 237.636 L 168.1622 237.8352 L 168.4611 237.8352 L 168.4611 238.0345 L 168.6105 238.0345 L 168.6105 238.231 L 168.76 238.231 L 168.76 239.4237 L 168.9094 239.4237 L 168.9094 239.623 L 169.3556 239.623 L 169.3556 239.028 L 169.5051 239.028 L 169.5051 238.6295 L 169.6545 238.6295 L 169.6545 238.0345 L 169.5051 238.0345 L 169.5051 237.636 L 169.6545 237.636 L 169.6545 237.4367 L 169.9513 237.4367 L 169.9513 237.2375 L 170.3996 237.2375 L 170.3996 237.0382 L 170.8459 237.0382 L 170.8459 236.8417 L 171.2942 236.8417 L 171.2942 236.6425 L 171.591 236.6425 L 171.591 236.4432 L 172.0393 236.4432 L 172.0393 236.244 L 172.3362 236.244 L 172.3362 236.0447 L 172.635 236.0447 L 172.635 235.8482 L 172.7845 235.8482 L 172.7845 236.244 L 172.9339 236.244 L 172.9339 236.4432 L 173.2307 236.4432 L 173.2307 236.6425 L 173.3802 236.6425 L 173.3802 236.8417 L 173.5296 236.8417 L 173.5296 237.636 L 173.679 237.636 L 173.679 238.6295 L 173.8285 238.6295 L 173.8285 238.8287 L 173.9759 238.8287 L 173.9759 239.2245 L 174.1253 239.2245 L 174.1253 240.0215 L 174.2747 240.0215 L 174.2747 240.2207 L 174.4242 240.2207 L 174.4242 240.4172 L 174.721 240.4172 L 174.721 240.6165 L 174.8704 240.6165 L 174.8704 240.8157 L 175.1693 240.8157 L 175.1693 240.9358 L 175.1693 241.015 L 175.4682 241.015 L 175.4682 241.2142 L 175.6156 241.2142 L 175.6156 241.4107 L 176.2133 241.4107 L 176.2133 241.61 L 176.6596 241.61 L 176.6596 241.8092 L 176.9584 241.8092 L 176.9584 242.0085 L 178.1498 242.0085 L 178.1498 242.2077 L 178.5981 242.2077 L 178.5981 242.407 L 179.3433 242.407 L 179.3433 242.0085 L 178.8949 242.0085 L 178.8949 241.8092 L 177.853 241.8092 L 177.853 241.61 L 177.4047 241.61 L 177.4047 241.4107 L 177.2553 241.4107 L 177.2553 241.2142 L 176.9584 241.2142 L 176.9584 241.015 L 176.6596 241.015 L 176.6596 240.8157 L 176.0639 240.8157 L 176.0639 240.6165 L 175.9144 240.6165 L 175.9144 240.5019 L 175.9144 240.4172 L 175.765 240.4172 L 175.765 240.2207 L 175.6156 240.2207 L 175.6156 240.0215 L 175.4682 240.0215 L 175.4682 239.8222 L 175.1693 239.8222 L 175.1693 239.623 L 175.0199 239.623 L 175.0199 239.2245 L 174.8704 239.2245 L 174.8704 239.028 L 174.721 239.028 L 174.721 238.6295 L 174.5736 238.6295 L 174.5736 238.231 L 174.721 238.231 L 174.721 237.2375 L 174.5736 237.2375 L 174.5736 236.6425 L 174.4242 236.6425 L 174.4242 236.0447 L 174.2747 236.0447 L 174.2747 235.8482 L 174.1253 235.8482 L 174.1253 235.649 L 173.9759 235.649 L 173.9759 234.6554 L 174.1253 234.6554 L 174.1253 234.4562 L 173.9759 234.4562 L 173.9759 234.257 L 174.4242 234.257 L 174.4242 234.4562 L 174.721 234.4562 L 174.721 235.0512 L 174.8704 235.0512 L 174.8704 235.4497 L 175.0199 235.4497 L 175.0199 235.649 L 175.9144 235.649 L 175.9144 235.4497 L 177.4047 235.4497 L 177.4047 235.649 L 178.5981 235.649 L 178.5981 235.4497 L 179.1938 235.4497 L 179.1938 235.2505 L 179.4927 235.2505 L 179.4927 235.0512 L 179.6401 235.0512 L 179.6401 234.0577 L 179.4927 234.0577 L 179.4927 233.6619 L 179.9389 233.6619 L 179.9389 233.8585 L 180.6841 233.8585 L 180.6841 233.2634 L 180.8335 233.2634 L 180.8335 232.865 L 181.2798 232.865 L 181.2798 232.6657 L 182.0249 232.6657 L 182.027 232.4692 L 182.4732 232.4692 L 182.4732 232.2699 L 182.6226 232.2699 L 182.6226 232.4692 L 182.7721 232.4692 L 182.7721 232.2699 L 183.6646 232.2699 L 183.6646 232.0707 L 186.0515 232.0707 L 186.0515 231.8714 L 186.1989 231.8714 L 186.1989 232.0707 L 187.5417 232.0707 L 187.5417 231.8714 L 187.8386 231.8714 L 187.8386 231.6722 L 188.1374 231.6722 L 188.1374 231.4757 L 188.7331 231.4757 L 188.7331 231.2764 L 189.3309 231.2764 L 189.3309 231.0772 L 189.9266 231.0772 L 189.9266 230.8779 L 190.5223 230.8779 L 190.5223 230.6787 L 190.8211 230.6787 L 190.8211 230.4794 L 191.1179 230.4794 L 191.1179 230.2829 L 191.2674 230.2829 L 191.2674 229.6852 L 192.7576 229.6852 L 192.7576 229.4859 L 193.0565 229.4859 L 193.0565 229.2894 L 193.5028 229.2894 L 193.5028 229.0902 L 193.9511 229.0902 L 193.9511 228.8909 L 194.2499 228.8909 L 194.2499 228.6917 L 194.5468 228.6917 L 194.5468 228.4924 L 196.3359 228.4924 L 196.3359 228.2932 L 196.4853 228.2932 L 196.4853 227.8974 L 198.125 227.8974 L 198.125 227.6982 L 198.5713 227.6982 L 198.5713 227.4989 L 199.169 227.4989 L 199.169 227.2997 L 199.6153 227.2997 L 199.6153 227.1032 L 200.0616 227.1032 L 200.0616 226.9039 L 200.3604 226.9039 L 200.3604 226.7047 L 200.8087 226.7047 L 200.8087 226.5054 L 202.1496 226.5054 L 202.1496 226.1069 L 202.4484 226.1069 L 202.4484 225.7112 L 202.7452 225.7112 L 202.7452 225.5119 L 202.8947 225.5119 L 202.8947 225.3127 L 203.7893 225.3127 L 203.7893 225.1134 L 204.3849 225.1134 L 204.3849 224.9169 L 204.5344 224.9169 L 204.5344 224.7177 L 204.8333 224.7177 L 204.8333 224.5184 L 205.2795 224.5184 L 205.2795 224.7177 L 206.7698 224.7177 L 206.7698 224.5184 L 207.2242 224.5184 L 207.3675 224.5184 L 207.3675 224.4365 L 207.3675 224.3192 L 207.5149 224.3192 L 207.5149 223.9207 L 207.9632 223.9207 L 207.9632 224.0981 L 207.9632 224.1199 L 208.26 224.1199 L 208.26 223.9207 L 208.4095 223.9207 L 208.4095 223.8442 L 208.4095 223.7241 L 208.6224 223.7241 L 208.8578 223.7241 L 208.8578 223.9207 L 210.348 223.9207 L 210.348 224.1199 L 210.9437 224.1199 L 210.9437 224.3192 L 211.392 224.3192 L 211.392 224.1199 L 211.5394 224.1199 L 211.5394 223.7241 L 211.9877 223.7241 L 211.9877 223.5249 L 212.434 223.5249 L 212.434 223.3257 L 212.8823 223.3257 L 212.8823 223.1264 L 213.3286 223.1264 L 213.3286 222.9272 L 213.7769 222.9272 L 213.7769 222.7306 L 214.2231 222.7306 L 214.2231 222.5314 L 214.6714 222.5314 L 214.6714 222.3321 L 215.1177 222.3321 L 215.1177 222.1329 L 215.4166 222.1329 L 215.4166 221.9336 L 215.7134 221.9336 L 215.7134 221.7344 L 215.8628 221.7344 L 215.8628 221.5379 L 216.1617 221.5379 L 216.1617 221.3386 L 216.7574 221.3386 L 216.7574 221.1394 L 217.2036 221.1394 L 217.2036 220.9401 L 217.8014 220.9401 L 217.8014 220.7409 L 218.2476 220.7409 L 218.2476 220.5444 L 218.5465 220.5444 L 218.5465 220.3451 L 218.8433 220.3451 L 218.8433 220.1459 L 219.1422 220.1459 L 219.1422 219.9466 L 219.4411 219.9466 L 219.4411 219.7474 L 219.5905 219.7474 L 219.5905 219.5481 L 219.8873 219.5481 L 219.8873 219.3516 L 220.1862 219.3516 L 220.1862 219.1524 L 220.483 219.1524 L 220.483 218.9531 L 220.9313 218.9531 L 220.9313 218.7539 L 221.527 218.7539 L 221.527 218.5546 L 221.9753 218.5546 L 221.9753 218.3581 L 222.4216 218.3581 L 222.4216 218.1589 L 222.7205 218.1589 L 222.7205 217.9596 L 222.8699 217.9596 L 222.8699 217.7604 L 223.1667 217.7604 L 223.1667 217.5611 L 223.3162 217.5611 L 223.3162 217.1654 L 223.4656 217.1654 L 223.4656 216.3684 L 223.615 216.3684 L 223.615 216.0354 L 223.615 215.9726 L 223.7153 215.9726 L 223.7624 215.9726 L 223.7624 215.9453 L 223.7624 215.7734 L 223.9119 215.7734 L 223.9119 215.5741 L 224.3602 215.5741 L 224.3602 215.7734 L 224.657 215.7734 L 224.657 215.9726 L 225.2547 215.9726 L 225.2547 216.1719 L 225.701 216.1719 L 225.701 216.3684 L 225.8504 216.3684 L 225.8504 216.1719 L 226.1493 216.1719 L 226.1493 215.9726 L 226.2967 215.9726 L 226.2967 215.7734 L 226.4461 215.7734 L 226.4461 215.5741 L 226.745 215.5741 L 226.745 215.3749 L 226.8944 215.3749 L 226.8944 215.1756 L 227.0418 215.1756 L 227.0418 214.9791 L 227.3407 214.9791 L 227.3407 214.7799 L 227.4901 214.7799 L 227.4901 214.5806 L 227.789 214.5806 L 227.789 214.3814 L 227.9364 214.3814 L 227.9364 214.1821 L 228.0858 214.1821 L 228.0858 213.7863 L 228.2352 213.7863 L 228.2352 213.3879 L 228.3847 213.3879 L 228.3847 213.1886 L 228.8309 213.1886 L 228.8309 212.9894 L 229.2792 212.9894 L 229.2792 212.5991 L 229.2792 212.3943 L 229.4287 212.3943 L 229.4287 211.9959 L 228.5341 211.9959 L 228.5341 211.4008 L 228.6815 211.4008 L 228.6815 211.2016 L 229.4287 211.2016 L 229.4287 211.0023 L 230.0244 211.0023 L 230.0244 210.8031 L 230.1738 210.8031 L 230.1738 210.4073 L 230.3212 210.4073 L 230.3212 210.0088 L 230.4706 210.0088 L 230.4706 209.8096 L 230.7695 209.8096 L 230.7695 209.6131 L 230.9189 209.6131 L 230.9189 209.4138 L 231.0684 209.4138 L 231.0684 209.0153 L 231.2158 209.0153 L 231.2158 208.8161 L 231.8135 208.8161 L 231.8135 208.6168 L 232.1103 208.6168 L 232.1103 208.1501 L 232.1103 207.8226 L 232.2598 207.8226 L 232.2598 206.8291 L 232.4092 206.8291 L 232.4092 206.2341 L 232.7081 206.2341 L 232.7081 206.0348 L 233.0049 206.0348 L 233.0049 205.8356 L 233.3038 205.8356 L 233.3038 205.6363 L 233.6006 205.6363 L 233.6006 205.4371 L 233.8995 205.4371 L 233.8995 205.2406 L 234.1983 205.2406 L 234.1983 205.0413 L 234.4952 205.0413 L 234.4952 204.8421 L 234.794 204.8421 L 234.794 205.0413 L 235.0929 205.0413 L 235.0929 204.8421 L 235.2751 204.8421 L 236.1349 204.8421 L 236.1349 204.6428 L 236.4337 204.6428 L 236.4337 204.4436 L 236.6671 204.4436 L 237.0294 204.4436 L 237.0294 204.247 L 237.1789 204.2443 L 237.1789 204.0478 L 237.4777 204.0478 L 237.4777 203.8486 L 237.6272 203.8486 L 237.6272 203.4501 L 237.7745 203.4501 L 237.7745 202.593 L 237.7745 202.2573 L 237.924 202.2573 L 237.924 201.8615 L 238.3354 201.8615 L 239.1174 201.8615 L 239.1174 201.6623 L 239.5637 201.6623 L 239.5637 201.463 L 239.8626 201.463 L 239.8626 201.2638 L 240.3088 201.2638 L 240.3088 201.0645 L 240.4582 201.0645 L 240.4582 200.868 L 240.6077 200.868 L 240.6077 199.8745 L 240.7571 199.8745 L 240.7571 199.476 L 241.0539 199.476 L 241.0539 199.2768 L 241.5022 199.2768 L 241.5022 199.0775 L 241.6517 199.0775 L 241.6517 198.8783 L 241.9485 198.8783 L 241.9485 198.6818 L 242.0979 198.6818 L 242.0979 198.4825 L 242.2474 198.4825 L 242.2474 198.2833 L 242.3968 198.2833 L 242.3968 198.084 L 242.5462 198.084 L 242.5462 197.2898 L 242.6936 197.2898 L 242.6936 197.0905 L 242.8431 197.0905 L 242.8431 196.8913 L 242.9925 196.8913 L 242.9925 196.692 L 243.1419 196.692 L 243.1419 196.4955 L 243.2914 196.4955 L 243.2914 195.6985 L 243.4388 195.6985 L 243.4388 195.502 L 243.5882 195.502 L 243.5882 195.3191 L 243.5882 194.705 L 243.2914 194.705 L 243.2914 194.5058 L 242.9925 194.5058 L 242.9925 194.3092 L 242.6936 194.3092 L 242.6936 194.11 L 242.5462 194.11 L 242.5462 193.7115 L 242.3968 193.7115 L 242.3968 193.5123 L 242.2474 193.5123 L 242.2474 193.1165 L 242.0979 193.1165 L 242.0979 192.9172 L 241.7991 192.9172 L 241.7991 192.718 L 241.6517 192.718 L 241.6517 192.5188 L 241.2034 192.5188 L 241.2034 192.3195 L 240.9475 192.3195 L 240.6077 192.3195 L 240.6077 192.5188 L 240.3088 192.5188 L 240.3088 192.718 L 239.5637 192.718 L 239.5637 192.9172 L 239.4142 192.9172 L 239.4142 192.718 L 239.2669 192.718 L 239.2669 192.5188 L 239.1174 192.5188 L 239.1174 191.9237 L 239.4142 191.9237 L 239.4142 191.7245 L 239.7131 191.7245 L 239.7131 191.5252 L 240.012 191.5252 L 240.012 191.326 L 240.4582 191.326 L 240.4582 191.1295 L 241.0539 191.1295 L 241.0539 190.9302 L 241.5022 190.9302 L 241.5022 190.731 L 241.7991 190.731 L 241.7991 190.5317 L 241.9485 190.5317 L 241.9485 190.3325 L 242.2474 190.3325 L 242.2474 190.1332 L 242.9925 190.1332 L 242.9925 189.9367 L 243.5882 189.9367 L 243.5882 189.7375 L 244.3333 189.7375 L 244.3333 189.5382 L 245.2279 189.5382 L 245.2279 188.5447 L 246.5708 188.5447 L 246.5708 188.3455 L 246.8676 188.3455 L 246.8676 188.1462 L 247.017 188.1462 L 247.017 187.947 L 248.2105 187.947 L 248.2105 187.7505 L 248.5073 187.7505 L 248.5073 187.5512 L 248.6567 187.5512 L 248.6567 187.352 L 248.9556 187.352 L 248.9556 187.1527 L 249.103 187.1527 L 249.105 186.9535 L 249.2524 186.9535 L 249.2524 186.5577 L 249.4019 186.5577 L 249.4019 186.3585 L 249.7007 186.3585 L 249.7007 186.1592 L 249.9975 186.1592 L 249.9975 185.7607 L 250.147 185.7607 L 250.147 185.365 L 250.2964 185.365 L 250.2964 184.9665 L 250.147 184.9665 L 250.147 184.7672 L 249.9975 184.7672 L 249.9975 184.5707 L 249.8502 184.5707 L 249.8502 184.3715 L 249.7007 184.3715 L 249.7007 184.1722 L 249.5513 184.1722 L 249.5513 183.3752 L 249.5513 183.1787 L 249.8952 183.1787 L 250.147 183.1787 L 250.147 183.034 L 250.147 182.9794 L 250.2432 182.9794 L 250.2964 182.9794 L 250.2964 182.9494 L 250.2964 182.581 L 250.4459 182.581 L 250.4459 182.3844 L 250.7427 182.3844 L 250.7427 182.1852 L 251.191 182.1852 L 251.191 182.3844 L 251.2831 182.3844 L 254.3209 182.3844 L 254.3209 182.1852 L 254.6198 182.1852 L 254.6198 181.9859 L 255.0661 181.9859 L 255.0661 181.7867 L 255.6618 181.7867 L 255.6618 181.5874 L 256.1101 181.5874 L 256.1101 181.3882 L 256.2595 181.3882 L 256.2595 181.1917 L 256.4089 181.1917 L 256.4089 180.9924 L 256.5563 180.9924 L 256.5563 180.7932 L 256.7058 180.7932 L 256.7058 180.5939 L 256.8552 180.5939 L 256.8552 180.3947 L 257.0046 180.3947 L 257.0046 180.1982 L 257.1541 180.1982 L 257.1541 179.9989 L 257.3015 179.9989 L 257.3015 179.7997 L 257.4509 179.7997 L 257.4509 179.6004 L 257.6003 179.6004 L 257.6003 179.4012 L 257.7498 179.4012 L 257.7498 179.2019 L 259.6883 179.2019 L 259.6883 179.0054 L 260.5809 179.0054 L 260.5809 178.6069 L 260.7303 178.6069 L 260.7303 178.2084 L 261.6249 178.2084 L 261.6249 178.0119 L 261.9237 178.0119 L 261.9237 177.8127 L 262.0732 177.8127 L 262.0732 177.6134 L 262.2205 177.6134 L 262.2205 177.4142 L 262.37 177.4142 L 262.37 177.2149 L 262.6689 177.2149 L 262.6689 177.0157 L 262.8183 177.0157 L 262.8183 176.8192 L 262.6689 176.8192 L 262.6689 176.6199 L 262.9677 176.6199 L 262.9677 176.4207 L 263.2645 176.4207 L 263.2645 176.2214 L 263.5634 176.2214 L 263.5634 176.0222 L 263.8602 176.0222 L 263.8602 175.8257 L 264.0097 175.8257 L 264.0097 175.2279 L 264.6074 175.2279 L 264.6074 175.0287 L 265.0537 175.0287 L 265.0537 174.8294 L 265.3525 174.8294 L 265.3525 174.6329 L 265.4999 174.6329 L 265.4999 174.4337 L 265.7988 174.4337 L 265.7988 174.2344 L 265.9482 174.2344 L 265.9482 174.0352 L 266.0977 174.0352 L 266.0977 173.8359 L 266.2471 173.8359 L 266.2471 173.6394 L 266.3945 173.6394 L 266.3945 173.4401 L 266.5439 173.4401 L 266.5439 173.2409 L 266.6934 173.2409 L 266.6934 173.0417 L 266.8428 173.0417 L 266.8428 172.8424 L 266.9922 172.8424 L 266.9922 172.6432 L 267.1396 172.6432 L 267.1396 172.2474 L 267.2891 172.2474 L 267.2891 172.0481 L 267.4385 172.0481 L 267.4385 171.8489 L 267.5879 171.8489 L 267.5879 171.4531 L 267.7374 171.4531 L 267.7374 171.2539 L 268.0342 171.2539 L 268.0342 171.0546 L 268.1836 171.0546 L 268.1836 170.8554 L 268.4825 170.8554 L 268.4825 170.6561 L 268.6319 170.6561 L 268.6319 170.4569 L 268.7793 170.4569 L 268.7793 170.0611 L 268.9288 170.0611 L 268.9288 169.6626 L 269.0782 169.6626 L 269.0782 169.2669 L 269.2276 169.2669 L 269.2276 168.0987 L 280.5622 171.8052 L 290.7443 176.5217 L 294.3225 177.6598 L 300.4371 178.5332 L 319.2844 178.9481 L 327.4604 179.7424 L 332.9649 181.4346 L 340.8604 185.2531 L 346.8706 186.6614 L 355.3352 187.2974 L 368.332 187.513 L 383.472 187.5376 L 389.8097 187.0954 L 393.9141 186.2493 L 397.6991 184.6116 L 400.9908 182.2834 L 403.9652 179.5295 L 407.9324 174.9195 L 410.18 171.6142 L 413.4226 164.8425 L 415.2383 161.7228 L 418.8493 157.8443 L 421.791 155.89 L 423.4921 155.1422 L 432.4152 152.8576 L 435.9484 151.6703 L 439.0927 149.9672 L 444.9575 145.611 L 454.6975 145.0133 L 458.4579 144.1999 L 460.2675 143.5476 L 462.0341 142.666 L 465.3094 140.4606 L 474.5437 132.9438 L 477.9828 130.9923 L 479.8906 130.2936 L 483.866 129.4447 L 487.9642 129.0599 L 508.8545 128.7706 L 512.9261 128.2929 L 516.8442 127.2939 L 520.1072 125.8201 L 526.3036 122.4192 L 534.7007 118.5926 L 546.1642 111.4879 L 548.938 115.4865 L 554.4876 126.3796 L 555.7608 129.6876 L 556.1764 131.5409 L 556.4691 135.302 L 556.1641 138.9949 L 555.638 141.5933 Z" fill="#000000" fill-opacity="1" stroke="#000000" stroke-width="0" paint-order="fill" stroke-opacity="1" stroke-dasharray="" stroke-linecap="butt" stroke-linejoin="miter" stroke-miterlimit="10" clip-path="none"/>
<path data-code="203" d="M 587.7584 283.2226 L 583.9038 278.0477 L 582.3296 275.523 L 581.4187 274.3248 L 580.2253 273.2576 L 578.7309 272.5042 L 577.0912 272.1221 L 575.3717 272.103 L 573.6296 272.436 L 571.9142 273.1456 L 570.3257 274.1228 L 567.3963 276.6011 L 564.6819 279.5079 L 562.164 282.6822 L 559.0034 287.8244 L 555.9881 294.749 L 553.9881 297.7295 L 551.5193 300.3361 L 548.6637 302.4596 L 540.4263 306.349 L 532.7171 310.6751 L 525.9966 313.6938 L 523.0918 315.7709 L 520.5555 318.3366 L 518.4818 321.3007 L 515.4481 328.1925 L 511.3683 336.217 L 510.6825 337.9201 L 509.6631 341.6949 L 507.8576 351.3024 L 506.6437 354.8425 L 502.9098 363.028 L 501.917 366.7427 L 500.4677 374.3796 L 499.3029 378.1189 L 498.4206 379.9504 L 496.2139 383.3758 L 492.2733 388.1577 L 485.0656 395.7782 L 477.6184 403.1831 L 473.0043 407.3045 L 469.7679 409.7064 L 466.3718 411.5652 L 461.2521 413.8087 L 451.9892 419.0874 L 445.109 421.9943 L 435.8543 427.3139 L 428.9946 430.3244 L 419.7419 436.0835 L 409.9692 441.1766 L 407.9897 434.7133 L 403.4759 422.4801 L 401.9734 419.404 L 398.7185 414.8159 L 392.2908 407.7658 L 385.3451 401.2698 L 380.9234 397.97 L 378.0453 396.4278 L 374.031 394.6592 L 371.2388 393.0133 L 369.8345 391.9134 L 367.2941 389.375 L 365.1938 386.4354 L 362.0823 379.5983 L 357.8244 371.7266 L 356.633 368.3121 L 356.0721 364.8185 L 356.1008 359.5016 L 356.7374 355.9997 L 358.1069 352.5716 L 360.156 349.4191 L 362.5634 346.5096 L 366.5121 342.3636 L 372.0351 337.0658 L 377.6666 332.2511 L 380.512 330.2641 L 384.0391 328.1952 L 386.1168 326.5794 L 387.7524 324.4887 L 389.8732 320.9322 L 391.865 318.0882 L 398.8536 309.5178 L 400.9887 306.4636 L 402.6878 303.1392 L 403.6765 299.6019 L 404.1821 295.9554 L 404.9805 284.8876 L 405.5946 281.2902 L 406.7512 277.8348 L 410.8597 269.8212 L 413.1626 264.1823 L 414.7777 261.1226 L 418.2434 256.4662 L 422.1901 252.0637 L 440.2902 233.4026 L 447.412 226.5982 L 450.3966 224.1827 L 453.5409 222.1575 L 458.9615 219.6955 L 461.899 218.0743 L 464.9532 215.8252 L 467.8764 213.2787 L 473.5243 207.7462 L 490.1341 190.4116 L 497.2988 183.7246 L 501.9457 180.4875 L 507.3663 177.9846 L 510.2404 176.3934 L 513.1902 174.2562 L 521.6916 167.0724 L 524.6414 164.9298 L 527.5175 163.3304 L 532.9382 160.8139 L 535.9739 158.8378 L 538.8603 156.515 L 548.5879 147.6308 L 555.638 141.5933 L 558.2112 151.5939 L 561.5786 160.7074 L 566.7331 170.1567 L 570.4935 176.5162 L 572.0493 179.8406 L 573.124 183.5854 L 574.5651 191.255 L 575.5866 195.0025 L 580.2826 204.7957 L 583.0563 211.9194 L 589.9734 224.1527 L 591.9631 226.8985 L 594.6202 228.951 L 604.8862 235.2559 L 613.3201 238.9898 L 622.6506 244.2357 L 629.6413 247.1261 L 642.7138 253.9852 L 631.1438 260.2819 L 622.6485 263.9093 L 613.3835 269.2235 L 606.53 272.2231 L 597.308 278.0313 L 587.7584 283.2226 Z" fill="#000000" fill-opacity="1" stroke="#000000" stroke-width="0" paint-order="fill" stroke-opacity="1" stroke-dasharray="" stroke-linecap="butt" stroke-linejoin="miter" stroke-miterlimit="10" clip-path="none"/>




</svg>