<?xml version="1.0" standalone="no"?>
<!-- Generator: Paintmaps.com , Online SVG vector map maker -->
<svg xmlns="http://www.w3.org/2000/svg" version="1.1" baseProfile="full"   style="background-color:#e0f2f1" width="800" height="500" viewBox="0 0 800 533">

<path data-code="200" d="M 279.2297 300.3206 L 281.3857 295.8113 L 283.5087 292.2171 L 284.9142 289.2031 L 285.7517 287.7945 L 286.7898 286.5899 L 287.9847 285.5735 L 292.096 283.2376 L 293.2587 282.1491 L 294.2217 280.8296 L 294.6011 280.0832 L 295.1224 278.3594 L 295.7492 273.9564 L 296.1606 272.312 L 296.4849 271.5704 L 296.9211 270.9192 L 297.4067 270.4452 L 299.0789 269.474 L 304.9348 269.4471 L 306.8452 269.2871 L 308.7016 268.9389 L 310.3353 268.3476 L 313.8116 266.4613 L 316.8546 265.1027 L 321.0777 262.9171 L 323.7944 262.266 L 328.4701 261.7199 L 330.2935 261.3668 L 331.9062 260.8109 L 335.4787 259.1616 L 337.3085 258.6913 L 340.1865 258.3688 L 344.1265 258.2588 L 351.103 258.3211 L 357.5508 258.5447 L 365.7487 258.3578 L 401.06 258.3675 L 404.1111 258.574 L 406.093 258.8953 L 407.7753 259.3889 L 411.2077 260.7352 L 410.9978 264.9048 L 410.6762 267.5608 L 410.1851 269.2736 L 409.4035 270.758 L 408.4167 272.1153 L 406.7363 274.0236 L 398.2131 282.5987 L 396.4456 284.474 L 394.8046 286.4116 L 393.454 288.4982 L 391.79 292.3698 L 389.853 295.5095 L 387.6265 297.8149 L 386.2777 299.6951 L 384.841 302.7798 L 383.3347 305.6191 L 382.686 307.1303 L 382.2498 308.9494 L 382.0437 310.8369 L 381.9172 319.5623 L 381.6103 323.3654 L 381.1769 325.1735 L 379.512 328.8484 L 378.9567 330.4146 L 377.8755 335.536 L 377.3038 337.1303 L 375.4621 340.716 L 374.445 343.0176 L 374.0473 343.7665 L 373.1082 345.0664 L 371.3663 346.6815 L 367.2239 349.0137 L 366.0291 350.0424 L 364.9918 351.2543 L 364.1516 352.6678 L 362.7479 355.6781 L 360.7312 359.276 L 358.9774 363.6948 L 353.4001 361.8818 L 350.0035 360.2032 L 348.2002 359.5582 L 345.3231 359.089 L 341.3456 358.8936 L 332.2635 358.9033 L 327.3202 359.2259 L 324.5192 359.8685 L 320.2264 361.8159 L 318.3444 362.3082 L 316.3772 362.5721 L 311.302 362.7627 L 298.924 362.6845 L 299.2649 360.9729 L 299.7469 359.3065 L 301.9303 354.9731 L 303.2397 351.8212 L 305.1025 348.2453 L 305.4112 347.4817 L 305.8694 345.7127 L 306.1076 343.8704 L 306.246 341.0397 L 306.3477 324.6946 L 306.2478 321.8676 L 305.8107 319.1213 L 305.1263 317.4035 L 304.1312 315.8728 L 302.3161 313.8301 L 300.2655 312.0525 L 298.7793 311.0813 L 295.0207 309.184 L 293.5868 308.1394 L 290.1205 305.244 L 287.9086 303.7487 L 282.6987 301.5435 L 279.2297 300.3206 Z" fill="#000000" fill-opacity="1" stroke="#000000" stroke-width="0" paint-order="fill" stroke-opacity="1" stroke-dasharray="" stroke-linecap="butt" stroke-linejoin="miter" stroke-miterlimit="10" transform="matrix(1.100000023841858,0,0,1.100000023841858,-40.00010299682617,-26.649967193603516)" clip-path="none" style="filter: url(#f1)"/>
<path data-code="201" d="M 485.0555 179.6732 L 477.6246 170.177 L 476.6927 168.6657 L 474.797 164.7978 L 470.0058 158.2324 L 468.1072 154.3694 L 467.0966 152.7788 L 464.6144 149.8198 L 459.1113 144.2123 L 457.155 142.0682 L 456.0106 140.5411 L 455.1301 138.8441 L 454.8662 137.9902 L 454.606 136.2358 L 454.7462 133.5982 L 454.9276 132.743 L 455.4938 131.167 L 457.3026 127.6143 L 457.8441 125.794 L 458.1382 123.9138 L 458.1776 121.1393 L 457.8313 119.4045 L 457.4684 118.6031 L 456.9223 117.8859 L 456.2406 117.3643 L 455.492 117.0246 L 453.8821 116.6972 L 451.2836 116.6459 L 445.8913 116.8621 L 443.367 116.6545 L 441.8414 116.0949 L 441.1716 115.5794 L 440.6411 114.8903 L 440.281 114.1182 L 439.8989 112.4359 L 439.7578 109.692 L 440.2489 80.7769 L 439.9676 77.9291 L 439.4124 76.1259 L 439.0184 75.3929 L 438.5465 74.7234 L 437.4066 73.5738 L 436.0414 72.7174 L 435.1737 72.3912 L 433.3796 72.0345 L 427.838 71.5384 L 426.9263 71.3491 L 425.2908 70.759 L 423.1934 69.5288 L 418.2098 66.1728 L 419.4642 64.025 L 420.5582 62.5565 L 422.399 60.5004 L 423.7304 59.247 L 425.9056 57.6685 L 428.9339 56.2489 L 432.4203 54.3822 L 433.9926 53.8239 L 436.5673 53.4182 L 440.1151 53.2997 L 445.2957 53.4085 L 450.4333 56.2025 L 454.2102 57.8664 L 457.6837 59.7637 L 458.4241 60.0777 L 460.1366 60.5395 L 462.824 60.8437 L 465.5774 60.9243 L 481.3886 60.8156 L 484.1072 61.0221 L 485.8619 61.3593 L 487.4479 61.9445 L 490.9123 63.8552 L 493.9608 65.2149 L 498.0831 67.6266 L 501.1489 68.9619 L 505.2941 71.3259 L 508.3453 72.7198 L 510.6241 74.3044 L 512.7425 76.2127 L 516.0521 79.6933 L 517.8168 81.929 L 518.7771 83.5392 L 519.1326 84.3382 L 521.9584 91.3531 L 523.9174 96.6883 L 520.4539 95.2442 L 518.6094 94.7385 L 516.688 94.433 L 513.7917 94.2107 L 510.9512 94.1924 L 509.1342 94.3353 L 507.4208 94.7116 L 505.8906 95.5118 L 504.8507 96.6663 L 502.5206 100.6136 L 501.8691 102.1224 L 501.6025 103.0594 L 501.2983 104.9934 L 501.2067 106.9676 L 501.378 109.929 L 501.7372 111.8544 L 502.3337 113.5513 L 504.191 117.1382 L 505.5296 120.2829 L 507.7049 124.6199 L 509.4192 131.3307 L 511.3223 135.774 L 511.7749 137.7092 L 511.9994 139.7237 L 512.125 146.6459 L 512.1085 159.3527 L 512.3256 173.4841 L 512.0315 176.4101 L 511.3938 178.1681 L 510.8211 178.9365 L 510.0716 179.5339 L 509.2405 179.9359 L 508.3572 180.1961 L 506.4826 180.4478 L 503.4735 180.493 L 499.2577 180.3219 L 491.77 179.6524 L 489.0248 179.7746 L 485.0555 179.6732 Z" fill="#000000" fill-opacity="1" stroke="#000000" stroke-width="0" paint-order="fill" stroke-opacity="1" stroke-dasharray="" stroke-linecap="butt" stroke-linejoin="miter" stroke-miterlimit="10" transform="matrix(1.100000023841858,0,0,1.100000023841858,-40.00010299682617,-26.649967193603516)" clip-path="none" style="filter: url(#f1)"/>
<path data-code="202" d="M 443.5658 230.6961 L 440.084 228.2246 L 438.8589 227.13 L 437.775 225.8973 L 436.8789 224.5339 L 436.5023 223.7654 L 435.5338 221.421 L 433.3283 217.1072 L 432.0629 213.9149 L 431.1503 212.3462 L 430.0508 210.8839 L 428.8248 209.5241 L 427.4871 208.2939 L 426.0073 207.2652 L 425.1937 206.8694 L 423.5132 206.421 L 421.8007 206.3111 L 420.1019 206.4723 L 418.4645 206.9134 L 415.001 208.7349 L 414.2818 209.0623 L 412.6499 209.5559 L 409.1754 209.9933 L 405.6184 210.0348 L 402.9731 209.8247 L 400.4186 209.226 L 399.0121 208.5956 L 395.1711 206.5004 L 396.8085 200.7499 L 397.3985 199.0921 L 398.7995 196.7696 L 401.6262 193.2206 L 403.1307 190.9898 L 404.5592 187.8854 L 406.444 184.3095 L 407.0295 182.6297 L 407.3694 180.7459 L 407.5298 178.8131 L 407.5692 175.8811 L 407.4125 172.9624 L 407.1523 171.0627 L 406.6795 169.2448 L 404.7058 164.8345 L 404.1258 162.1125 L 403.9242 159.2538 L 403.7831 151.5009 L 403.5027 148.6678 L 403.0748 146.867 L 401.4576 143.1836 L 400.9353 141.5942 L 400.6147 139.8667 L 400.0621 134.5401 L 399.4794 131.966 L 398.8307 130.4706 L 397.3454 127.6106 L 396.0425 124.4587 L 394.2127 120.8656 L 393.6528 119.198 L 393.2423 116.3698 L 392.962 109.576 L 392.5725 106.7453 L 392.0457 105.0752 L 390.4184 101.3967 L 389.9621 99.734 L 389.0925 95.4556 L 388.5263 93.8601 L 386.7075 90.2707 L 385.6968 87.9727 L 385.3001 87.2238 L 384.3673 85.919 L 382.6337 84.2881 L 381.2786 83.4475 L 379.1207 82.3358 L 377.2241 80.8905 L 375.5647 79.0836 L 373.1182 75.6409 L 395.9637 75.7851 L 398.9415 75.713 L 401.8525 75.4088 L 403.7126 74.9262 L 404.6041 74.5536 L 407.9485 72.7626 L 410.9814 71.3442 L 412.6251 70.307 L 418.2098 66.1728 L 423.1934 69.5288 L 425.2908 70.759 L 426.9263 71.3491 L 427.838 71.5384 L 433.3796 72.0345 L 435.1737 72.3912 L 436.0414 72.7174 L 437.4066 73.5738 L 438.5465 74.7234 L 439.0184 75.3929 L 439.4124 76.1259 L 439.9676 77.9291 L 440.2489 80.7769 L 439.7578 109.692 L 439.8989 112.4359 L 440.281 114.1182 L 440.6411 114.8903 L 441.1716 115.5794 L 441.8414 116.0949 L 443.367 116.6545 L 445.8913 116.8621 L 451.2836 116.6459 L 453.8821 116.6972 L 455.492 117.0246 L 456.2406 117.3643 L 456.9223 117.8859 L 457.4684 118.6031 L 457.8313 119.4045 L 458.1776 121.1393 L 458.1382 123.9138 L 457.8441 125.794 L 457.3026 127.6143 L 455.4938 131.167 L 454.9276 132.743 L 454.7462 133.5982 L 454.606 136.2358 L 454.8662 137.9902 L 455.1301 138.8441 L 456.0106 140.5411 L 457.155 142.0682 L 459.1113 144.2123 L 464.6144 149.8198 L 467.0966 152.7788 L 468.1072 154.3694 L 470.0058 158.2324 L 474.797 164.7978 L 476.6927 168.6657 L 477.6246 170.177 L 485.0555 179.6732 L 479.1822 180.1301 L 477.6924 180.3928 L 476.2492 180.8558 L 474.8079 181.6695 L 473.505 182.6993 L 472.3038 183.8624 L 471.1933 185.1183 L 469.7465 187.1475 L 468.9933 188.649 L 467.9909 191.0008 L 467.0902 192.4876 L 465.4381 194.584 L 461.1839 199.2655 L 459.5071 201.3449 L 458.578 202.8219 L 456.7482 206.6373 L 455.8127 207.9946 L 452.6836 211.9125 L 451.7472 213.2772 L 450.9766 214.7713 L 449.9907 217.1353 L 447.6753 221.4161 L 446.4475 224.6524 L 443.5658 230.6961 Z" fill="#000000" fill-opacity="1" stroke="#000000" stroke-width="0" paint-order="fill" stroke-opacity="1" stroke-dasharray="" stroke-linecap="butt" stroke-linejoin="miter" stroke-miterlimit="10" transform="matrix(1.100000023841858,0,0,1.100000023841858,-40.00010299682617,-26.649967193603516)" clip-path="none" style="filter: url(#f1)"/>
<path data-code="203" d="M 524.4891 286.4751 L 523.5664 288.7157 L 522.6767 292.0656 L 519.1738 292.294 L 516.633 292.7277 L 515.0882 293.2653 L 511.5239 294.9219 L 508.7164 295.5474 L 504.7682 295.793 L 492.6835 295.7759 L 488.7793 296.1473 L 486.9339 296.6323 L 482.654 298.6102 L 480.8443 299.0903 L 478.9522 299.3493 L 475.0553 299.5301 L 462.1387 299.5033 L 451.2478 299.6706 L 448.4523 299.5643 L 446.7169 299.287 L 445.1601 298.6603 L 444.4977 298.1374 L 444.0249 297.5424 L 443.4137 296.19 L 442.3188 292.4235 L 440.8976 289.9789 L 438.3376 286.9442 L 431.4298 279.9183 L 430.41 278.5732 L 429.753 277.1645 L 429.6055 276.3582 L 429.6147 275.558 L 429.7869 274.7871 L 430.1342 274.0749 L 430.6281 273.5031 L 431.1952 273.0731 L 438.1232 269.1417 L 439.5434 268.6615 L 443.6758 266.6909 L 446.5126 266.0606 L 449.4978 265.8455 L 453.5623 265.8187 L 458.6797 265.9665 L 463.393 266.2976 L 465.8083 266.3709 L 467.4649 266.6323 L 468.9988 267.1369 L 472.5503 268.7703 L 474.3095 269.2137 L 477.0776 269.5118 L 483.6417 269.8722 L 486.3292 270.4697 L 487.7879 271.1318 L 490.555 272.6577 L 493.5952 274.0333 L 497.6946 276.4877 L 500.7559 277.8621 L 503.5578 279.3697 L 505.0019 280.005 L 507.67 280.5804 L 516.0411 281.0886 L 517.8434 281.4784 L 518.7139 281.796 L 519.5376 282.2114 L 521.0604 283.2596 L 524.4891 286.4751 Z" fill="#000000" fill-opacity="1" stroke="#000000" stroke-width="0" paint-order="fill" stroke-opacity="1" stroke-dasharray="" stroke-linecap="butt" stroke-linejoin="miter" stroke-miterlimit="10" transform="matrix(1.100000023841858,0,0,1.100000023841858,-40.00010299682617,-26.649967193603516)" clip-path="none" style="filter: url(#f1)"/>
<path data-code="204" d="M 279.2297 300.3206 L 275.5389 297.5461 L 273.514 296.2377 L 270.4628 294.8559 L 266.313 292.4541 L 263.2389 291.1346 L 259.1019 288.7389 L 256.0315 287.4085 L 251.8964 285.0066 L 248.8278 283.675 L 244.6945 281.2682 L 240.913 279.5371 L 237.4999 277.4846 L 234.4606 276.1322 L 230.9788 274.2447 L 229.3598 273.6681 L 226.6174 273.2478 L 220.9786 272.9986 L 218.2133 272.6956 L 216.4596 272.2374 L 212.9246 270.5259 L 211.344 269.9553 L 209.5747 269.6096 L 206.824 269.3787 L 184.1326 269.3261 L 178.4682 269.4679 L 175.7386 269.7427 L 174.0389 270.0934 L 170.7651 271.4299 L 169.42 271.6193 L 168.708 271.4714 L 167.4418 270.7592 L 166.4311 269.6303 L 166.0472 268.9315 L 165.7586 268.1252 L 165.4983 266.4368 L 165.5322 264.6984 L 165.8245 262.9538 L 166.082 262.0998 L 166.7665 260.5922 L 168.3296 257.7921 L 169.8103 254.7574 L 171.324 252.865 L 173.2014 251.3941 L 176.9261 249.4834 L 179.1462 247.7999 L 181.2683 245.8623 L 183.3079 243.8013 L 185.7736 240.879 L 186.7632 239.2871 L 187.1306 238.4979 L 188.9824 234.0765 L 189.4644 232.6789 L 189.61 231.2801 L 189.2188 227.5845 L 190.3357 226.3738 L 191.4756 225.5833 L 192.7987 225.0751 L 197.0914 224.1209 L 198.5254 223.4942 L 199.8888 222.5767 L 202.4094 220.3288 L 210.7814 211.5668 L 212.6066 209.7562 L 214.4923 208.0776 L 216.5081 206.6971 L 219.5382 205.2983 L 220.8952 204.4162 L 222.8066 202.8024 L 227.6912 198.0463 L 229.6035 196.4337 L 230.9623 195.5528 L 233.3987 194.4606 L 234.6998 193.7569 L 236.678 192.2579 L 238.5481 190.5316 L 240.3504 188.6979 L 242.0684 186.7932 L 243.1277 185.475 L 244.4544 183.3749 L 245.7812 180.2108 L 246.6214 178.7838 L 248.1653 176.7717 L 249.8769 174.8573 L 252.8878 171.9191 L 254.7808 170.5166 L 256.0975 169.9338 L 256.7966 169.8043 L 257.7944 169.7872 L 263.4231 171.7358 L 268.4195 172.7889 L 270.0404 173.346 L 270.7661 173.726 L 272.124 174.6704 L 273.4599 175.831 L 277.2808 179.6708 L 279.2663 181.4764 L 280.7122 182.4892 L 282.3459 183.2088 L 284.1052 183.5924 L 286.8283 183.8025 L 298.016 183.6193 L 301.7068 183.6718 L 304.4024 183.9968 L 306.1232 184.5246 L 306.9249 184.9277 L 308.4056 185.9356 L 313.1684 190.1676 L 317.1615 193.2902 L 316.095 195.3854 L 313.9335 198.2259 L 311.4476 200.9234 L 303.6667 208.8632 L 301.8433 210.9095 L 300.7419 212.3328 L 299.8092 213.8404 L 298.4412 216.9777 L 296.1083 221.2353 L 294.8146 224.3946 L 292.9628 227.9754 L 292.3892 229.6247 L 291.9595 232.4016 L 291.7835 237.2078 L 291.8541 244.968 L 292.2014 248.7393 L 292.3892 249.6471 L 292.9426 251.2915 L 294.6496 254.9272 L 295.1243 256.5851 L 296.013 260.8537 L 296.5775 262.4297 L 298.2863 266.085 L 298.7509 267.755 L 299.0789 269.474 L 297.4067 270.4452 L 296.9211 270.9192 L 296.4849 271.5704 L 296.1606 272.312 L 295.7492 273.9564 L 295.1224 278.3594 L 294.6011 280.0832 L 294.2217 280.8296 L 293.2587 282.1491 L 292.096 283.2376 L 287.9847 285.5735 L 286.7898 286.5899 L 285.7517 287.7945 L 284.9142 289.2031 L 283.5087 292.2171 L 281.3857 295.8113 L 279.2297 300.3206 Z" fill="#000000" fill-opacity="1" stroke="#000000" stroke-width="0" paint-order="fill" stroke-opacity="1" stroke-dasharray="" stroke-linecap="butt" stroke-linejoin="miter" stroke-miterlimit="10" transform="matrix(1.100000023841858,0,0,1.100000023841858,-40.00010299682617,-26.649967193603516)" clip-path="none" style="filter: url(#f1)"/>
<path data-code="205" d="M 297.0338 471.5523 L 292.4286 470.9695 L 289.3536 470.7802 L 285.2762 470.7227 L 281.2611 470.8987 L 279.3112 471.165 L 277.4439 471.6573 L 273.1218 473.6169 L 271.4395 474.0592 L 267.6269 474.4428 L 262.6681 474.5027 L 260.1135 476.6761 L 258.7363 477.607 L 257.1915 478.3889 L 254.0056 479.6998 L 255.2884 476.4183 L 256.0517 474.8252 L 256.9569 473.4044 L 259.068 470.7704 L 261.1342 468.1462 L 261.9937 466.7425 L 263.3534 463.5978 L 265.6881 459.3292 L 266.9672 456.1528 L 269.3065 451.8842 L 270.5883 448.6919 L 272.4401 445.0854 L 273.0082 443.5168 L 273.8814 439.2506 L 274.3579 437.5793 L 276.5258 433.2289 L 277.8086 430.0525 L 279.9755 425.7045 L 280.4538 424.0356 L 281.1264 420.6088 L 281.6047 418.9387 L 283.7716 414.5919 L 285.0535 411.4167 L 286.908 407.8225 L 287.4862 406.2441 L 288.0351 403.6871 L 288.8725 400.3176 L 290.5337 396.6464 L 291.0826 394.9678 L 291.4244 393.0705 L 291.9338 388.2204 L 292.2737 386.3255 L 292.8153 384.6518 L 294.427 380.9598 L 294.8787 379.1065 L 295.5347 373.301 L 295.8765 371.4037 L 296.4254 369.7251 L 298.0866 366.0539 L 298.924 362.6845 L 311.302 362.7627 L 316.3772 362.5721 L 318.3444 362.3082 L 320.2264 361.8159 L 324.5192 359.8685 L 327.3202 359.2259 L 332.2635 358.9033 L 341.3456 358.8936 L 345.3231 359.089 L 348.2002 359.5582 L 350.0035 360.2032 L 353.4001 361.8818 L 358.9774 363.6948 L 362.5307 369.719 L 363.9977 372.8343 L 364.9277 374.3725 L 366.2334 375.7799 L 367.8414 376.8586 L 369.6602 377.4646 L 372.5474 377.7908 L 376.5424 377.7749 L 384.5781 377.445 L 387.4203 377.4756 L 389.1887 377.7114 L 390.8041 378.3381 L 391.5087 378.9037 L 392.0512 379.6429 L 392.6403 381.3325 L 392.8566 384.1485 L 392.5176 389.7878 L 392.7457 395.338 L 393.2341 398.8858 L 393.7518 400.4935 L 395.0675 403.4219 L 395.61 405.0883 L 395.96 406.9746 L 396.4978 411.8077 L 396.8405 413.6989 L 397.3756 415.375 L 398.959 419.078 L 399.4079 420.9288 L 400.0933 426.716 L 400.4433 428.6023 L 400.9857 430.2687 L 402.5846 433.9619 L 403.0052 435.6686 L 403.3213 438.349 L 403.6237 444.3842 L 400.1281 445.5558 L 395.8354 447.6718 L 393.1067 448.2936 L 388.409 448.7847 L 386.5728 449.1256 L 384.9473 449.6864 L 381.3922 451.3918 L 378.1303 452.2458 L 375.6517 452.7968 L 374.1197 453.3832 L 370.6315 455.2829 L 367.5647 456.6268 L 363.4488 459.0873 L 360.4077 460.4788 L 356.969 462.4005 L 355.4067 462.9503 L 353.7162 463.2044 L 351.1552 463.103 L 349.5041 462.6962 L 345.2902 460.601 L 343.6995 460.0818 L 339.5928 459.08 L 338.0837 458.4789 L 334.5496 456.7013 L 332.8032 456.2249 L 329.1198 455.8425 L 324.4065 455.7826 L 320.6626 455.9549 L 317.9504 456.3947 L 316.3451 456.9628 L 312.8101 458.6793 L 311.2131 459.1447 L 307.0917 460.0695 L 306.2854 460.3762 L 304.7717 461.2338 L 303.3771 462.3101 L 302.0678 463.5184 L 300.2407 465.4865 L 299.1403 466.8891 L 297.8108 469.1626 L 297.0338 471.5523 Z" fill="#000000" fill-opacity="1" stroke="#000000" stroke-width="0" paint-order="fill" stroke-opacity="1" stroke-dasharray="" stroke-linecap="butt" stroke-linejoin="miter" stroke-miterlimit="10" transform="matrix(1.100000023841858,0,0,1.100000023841858,-40.00010299682617,-26.649967193603516)" clip-path="none" style="filter: url(#f1)"/>
<path data-code="206" d="M 627.1693 359.2808 L 624.6377 357.2394 L 623.2248 356.4428 L 622.3717 356.1289 L 620.5932 355.744 L 618.7598 355.5681 L 611.2665 355.4618 L 607.6005 355.1271 L 605.8669 354.6714 L 602.3383 352.95 L 599.891 352.1816 L 598.0942 351.9372 L 595.3261 351.7992 L 585.0025 351.8395 L 583.1626 351.7234 L 581.3676 351.4314 L 579.7477 350.8768 L 578.3485 350.1462 L 575.1709 348.2624 L 574.0356 347.2276 L 573.6178 346.5251 L 573.3365 345.7628 L 573.1679 344.9626 L 573.1065 343.3011 L 573.3814 341.6078 L 573.6609 340.7722 L 574.5533 339.1607 L 575.6932 337.7045 L 576.9613 336.3203 L 587.7834 325.3983 L 590.2985 322.5762 L 592.7935 319.4853 L 597.3126 316.1489 L 598.7484 315.4061 L 599.6317 315.0982 L 601.4587 314.7024 L 606.1226 314.1612 L 607.945 313.8179 L 609.5595 313.2742 L 613.1449 311.6506 L 614.9032 311.2022 L 617.6621 310.8834 L 626.1284 310.512 L 628.9487 310.1003 L 630.3818 313.725 L 631.6792 317.8971 L 633.4137 321.5488 L 633.9772 323.2225 L 634.3181 325.099 L 634.4858 327.0268 L 634.5032 330.9302 L 634.2613 333.8219 L 633.9067 335.685 L 633.3459 337.3355 L 631.7021 341.0092 L 631.2605 342.8283 L 630.9627 345.6821 L 630.6704 351.4791 L 630.1793 354.2853 L 629.8723 355.1759 L 629.1136 356.6408 L 627.1693 359.2808 Z" fill="#000000" fill-opacity="1" stroke="#000000" stroke-width="0" paint-order="fill" stroke-opacity="1" stroke-dasharray="" stroke-linecap="butt" stroke-linejoin="miter" stroke-miterlimit="10" transform="matrix(1.100000023841858,0,0,1.100000023841858,-40.00010299682617,-26.649967193603516)" clip-path="none" style="filter: url(#f1)"/>
<path data-code="207" d="M 395.1711 206.5004 L 392.1758 206.5078 L 389.6579 206.9744 L 382.3552 210.4636 L 380.1644 212.031 L 377.5869 214.6333 L 375.9697 216.8396 L 375.1734 218.4193 L 374.2269 220.8028 L 371.9921 225.0959 L 371.0044 227.4061 L 370.6168 228.1562 L 369.6905 229.4634 L 368.5662 230.5972 L 367.2898 231.5195 L 364.3404 232.9392 L 362.1505 234.4186 L 360.1457 236.2585 L 358.4102 238.372 L 357.5306 239.9871 L 357.2356 240.8386 L 356.8801 242.6003 L 356.7179 244.406 L 356.6666 248.0857 L 356.8242 252.7306 L 357.0688 255.5088 L 357.5508 258.5447 L 351.103 258.3211 L 344.1265 258.2588 L 340.1865 258.3688 L 337.3085 258.6913 L 335.4787 259.1616 L 331.9062 260.8109 L 330.2935 261.3668 L 328.4701 261.7199 L 323.7944 262.266 L 321.0777 262.9171 L 316.8546 265.1027 L 313.8116 266.4613 L 310.3353 268.3476 L 308.7016 268.9389 L 306.8452 269.2871 L 304.9348 269.4471 L 299.0789 269.474 L 298.7509 267.755 L 298.2863 266.085 L 296.5775 262.4297 L 296.013 260.8537 L 295.1243 256.5851 L 294.6496 254.9272 L 292.9426 251.2915 L 292.3892 249.6471 L 292.2014 248.7393 L 291.8541 244.968 L 291.7835 237.2078 L 291.9595 232.4016 L 292.3892 229.6247 L 292.9628 227.9754 L 294.8146 224.3946 L 296.1083 221.2353 L 298.4412 216.9777 L 299.8092 213.8404 L 300.7419 212.3328 L 301.8433 210.9095 L 303.6667 208.8632 L 311.4476 200.9234 L 313.9335 198.2259 L 316.095 195.3854 L 317.1615 193.2902 L 319.9076 187.9575 L 320.6424 185.4726 L 320.9531 182.7592 L 321.0264 179.0843 L 320.8843 176.3453 L 320.4473 173.6857 L 319.8755 172.0718 L 318.0063 168.4922 L 316.6924 165.339 L 314.3467 161.079 L 312.6645 157.1977 L 310.6789 153.6596 L 309.353 150.5064 L 307.4784 146.9269 L 306.9185 145.3057 L 306.5401 142.6424 L 306.5053 140.8306 L 306.6079 139.0262 L 306.8626 137.2632 L 307.3235 135.5895 L 308.6658 132.7772 L 309.2257 131.3344 L 309.3943 130.5134 L 309.4254 128.8299 L 309.0498 127.2343 L 307.3153 123.7232 L 306.2964 121.3983 L 305.4516 119.8529 L 301.5657 114.8354 L 300.5981 113.3168 L 299.9118 111.6883 L 298.9946 107.4478 L 298.5117 105.7814 L 297.8218 104.297 L 296.1615 101.4419 L 294.0623 97.5032 L 299.3776 97.9564 L 303.8655 98.0431 L 307.3867 97.8159 L 309.9065 97.2222 L 311.3606 96.5441 L 314.1186 94.9987 L 317.1688 93.6401 L 320.5966 91.5975 L 324.3579 89.8663 L 328.505 87.4791 L 331.5708 86.1316 L 335.7179 83.7444 L 338.791 82.4091 L 342.9958 80.1233 L 345.6072 79.2498 L 350.9866 79.3194 L 353.948 79.1154 L 356.7665 78.4923 L 361.0601 76.5486 L 362.8432 76.0783 L 366.6118 75.6934 L 373.1182 75.6409 L 375.5647 79.0836 L 377.2241 80.8905 L 379.1207 82.3358 L 381.2786 83.4475 L 382.6337 84.2881 L 384.3673 85.919 L 385.3001 87.2238 L 385.6968 87.9727 L 386.7075 90.2707 L 388.5263 93.8601 L 389.0925 95.4556 L 389.9621 99.734 L 390.4184 101.3967 L 392.0457 105.0752 L 392.5725 106.7453 L 392.962 109.576 L 393.2423 116.3698 L 393.6528 119.198 L 394.2127 120.8656 L 396.0425 124.4587 L 397.3454 127.6106 L 398.8307 130.4706 L 399.4794 131.966 L 400.0621 134.5401 L 400.6147 139.8667 L 400.9353 141.5942 L 401.4576 143.1836 L 403.0748 146.867 L 403.5027 148.6678 L 403.7831 151.5009 L 403.9242 159.2538 L 404.1258 162.1125 L 404.7058 164.8345 L 406.6795 169.2448 L 407.1523 171.0627 L 407.4125 172.9624 L 407.5692 175.8811 L 407.5298 178.8131 L 407.3694 180.7459 L 407.0295 182.6297 L 406.444 184.3095 L 404.5592 187.8854 L 403.1307 190.9898 L 401.6262 193.2206 L 398.7995 196.7696 L 397.3985 199.0921 L 396.8085 200.7499 L 395.1711 206.5004 Z" fill="#000000" fill-opacity="1" stroke="#000000" stroke-width="0" paint-order="fill" stroke-opacity="1" stroke-dasharray="" stroke-linecap="butt" stroke-linejoin="miter" stroke-miterlimit="10" transform="matrix(1.100000023841858,0,0,1.100000023841858,-40.00010299682617,-26.649967193603516)" clip-path="none" style="filter: url(#f1)"/>
<path data-code="208" d="M 546.1425 332.3412 L 542.5837 330.9399 L 539.9888 329.5704 L 538.7482 328.7409 L 538.224 328.207 L 537.5029 326.8986 L 536.6875 323.9237 L 536.1432 322.4064 L 535.7712 321.7235 L 534.8256 320.4761 L 533.0407 318.9661 L 530.1379 317.4903 L 527.9627 315.9937 L 526.6085 314.794 L 525.3513 313.477 L 523.7671 311.2474 L 523.3694 310.4142 L 522.8527 308.5976 L 522.5558 305.762 L 522.6767 292.0656 L 523.5664 288.7157 L 524.4891 286.4751 L 526.5168 285.7421 L 527.2856 285.6089 L 528.8588 285.6101 L 530.4962 286.006 L 532.9756 287.0945 L 534.7349 287.698 L 537.59 288.1574 L 542.5809 288.3528 L 551.6676 288.2808 L 555.6131 288.5263 L 557.5134 288.9185 L 559.3056 289.6576 L 560.9384 290.6924 L 564.1619 293.0796 L 565.6343 295.0233 L 567.8737 298.3976 L 568.538 299.7696 L 568.9732 301.2869 L 565.2293 310.4497 L 563.8934 312.5388 L 560.7561 316.4494 L 559.8233 317.8153 L 559.061 319.3155 L 558.0989 321.7015 L 556.2022 325.2859 L 554.9323 328.3243 L 554.1287 329.7598 L 553.0805 330.9668 L 552.473 331.4824 L 551.0949 332.2716 L 550.295 332.5184 L 548.6686 332.687 L 547.0734 332.5416 L 546.1425 332.3412 Z" fill="#000000" fill-opacity="1" stroke="#000000" stroke-width="0" paint-order="fill" stroke-opacity="1" stroke-dasharray="" stroke-linecap="butt" stroke-linejoin="miter" stroke-miterlimit="10" transform="matrix(1.100000023841858,0,0,1.100000023841858,-40.00010299682617,-26.649967193603516)" clip-path="none" style="filter: url(#f1)"/>
<path data-code="209" d="M 317.1615 193.2902 L 313.1684 190.1676 L 308.4056 185.9356 L 306.9249 184.9277 L 306.1232 184.5246 L 304.4024 183.9968 L 301.7068 183.6718 L 298.016 183.6193 L 286.8283 183.8025 L 284.1052 183.5924 L 282.3459 183.2088 L 280.7122 182.4892 L 279.2663 181.4764 L 277.2808 179.6708 L 273.4599 175.831 L 272.124 174.6704 L 270.7661 173.726 L 270.0404 173.346 L 268.4195 172.7889 L 263.4231 171.7358 L 257.7944 169.7872 L 258.9269 166.6841 L 260.437 161.6862 L 262.1843 158.0455 L 262.7524 156.3559 L 263.1674 153.4629 L 263.1729 150.5101 L 262.9613 148.5664 L 262.5077 146.6911 L 260.5423 142.2722 L 258.8161 135.5553 L 256.6399 131.2207 L 255.326 128.0724 L 253.4879 124.4843 L 252.7064 121.8943 L 252.4553 119.9958 L 252.3151 117.0808 L 252.503 111.1874 L 252.9244 108.2797 L 254.1532 104.22 L 254.822 103.9586 L 255.6201 103.2659 L 260.0081 95.9565 L 261.202 94.9926 L 262.6772 94.5247 L 264.2578 94.4367 L 265.8631 94.6615 L 267.3667 95.1868 L 270.1201 96.637 L 271.6796 97.238 L 273.4892 97.6278 L 275.4546 97.8526 L 279.5385 98.0199 L 285.7636 97.9967 L 290.9177 97.8098 L 294.0623 97.5032 L 296.1615 101.4419 L 297.8218 104.297 L 298.5117 105.7814 L 298.9946 107.4478 L 299.9118 111.6883 L 300.5981 113.3168 L 301.5657 114.8354 L 305.4516 119.8529 L 306.2964 121.3983 L 307.3153 123.7232 L 309.0498 127.2343 L 309.4254 128.8299 L 309.3943 130.5134 L 309.2257 131.3344 L 308.6658 132.7772 L 307.3235 135.5895 L 306.8626 137.2632 L 306.6079 139.0262 L 306.5053 140.8306 L 306.5401 142.6424 L 306.9185 145.3057 L 307.4784 146.9269 L 309.353 150.5064 L 310.6789 153.6596 L 312.6645 157.1977 L 314.3467 161.079 L 316.6924 165.339 L 318.0063 168.4922 L 319.8755 172.0718 L 320.4473 173.6857 L 320.8843 176.3453 L 321.0264 179.0843 L 320.9531 182.7592 L 320.6424 185.4726 L 319.9076 187.9575 L 317.1615 193.2902 Z" fill="#000000" fill-opacity="1" stroke="#000000" stroke-width="0" paint-order="fill" stroke-opacity="1" stroke-dasharray="" stroke-linecap="butt" stroke-linejoin="miter" stroke-miterlimit="10" transform="matrix(1.100000023841858,0,0,1.100000023841858,-40.00010299682617,-26.649967193603516)" clip-path="none" style="filter: url(#f1)"/>
<path data-code="210" d="M 455.8778 354.4955 L 453.0007 353.4717 L 450.2308 352.2573 L 447.0907 351.0283 L 445.7475 350.1792 L 444.4922 349.1542 L 441.5326 346.2539 L 407.724 311.0862 L 405.919 309.3966 L 404.0113 307.9342 L 402.7322 307.2476 L 400.2885 306.1933 L 399.0213 305.3955 L 397.82 304.4414 L 395.5358 302.2838 L 393.3477 299.9638 L 391.2898 297.5119 L 389.853 295.5095 L 391.79 292.3698 L 393.454 288.4982 L 394.8046 286.4116 L 396.4456 284.474 L 398.2131 282.5987 L 406.7363 274.0236 L 408.4167 272.1153 L 409.4035 270.758 L 410.1851 269.2736 L 410.6762 267.5608 L 410.9978 264.9048 L 411.2077 260.7352 L 414.6226 261.7052 L 418.919 262.3576 L 420.5894 262.7217 L 422.1315 263.2812 L 425.6793 264.994 L 427.2919 265.4741 L 430.629 266.1632 L 432.2792 266.6213 L 438.1232 269.1417 L 431.1952 273.0731 L 430.6281 273.5031 L 430.1342 274.0749 L 429.7869 274.7871 L 429.6147 275.558 L 429.6055 276.3582 L 429.753 277.1645 L 430.41 278.5732 L 431.4298 279.9183 L 438.3376 286.9442 L 440.8976 289.9789 L 442.3188 292.4235 L 443.4137 296.19 L 444.0249 297.5424 L 444.4977 298.1374 L 445.1601 298.6603 L 446.7169 299.287 L 448.4523 299.5643 L 451.2478 299.6706 L 462.1387 299.5033 L 475.0553 299.5301 L 478.9522 299.3493 L 480.8443 299.0903 L 482.654 298.6102 L 486.9339 296.6323 L 488.7793 296.1473 L 492.6835 295.7759 L 504.7682 295.793 L 508.7164 295.5474 L 511.5239 294.9219 L 515.0882 293.2653 L 516.633 292.7277 L 519.1738 292.294 L 522.6767 292.0656 L 522.5558 305.762 L 522.8527 308.5976 L 523.3694 310.4142 L 523.7671 311.2474 L 525.3513 313.477 L 526.6085 314.794 L 527.9627 315.9937 L 530.1379 317.4903 L 533.0407 318.9661 L 534.8256 320.4761 L 535.7712 321.7235 L 536.1432 322.4064 L 536.6875 323.9237 L 537.5029 326.8986 L 538.224 328.207 L 538.7482 328.7409 L 539.9888 329.5704 L 542.5837 330.9399 L 546.1425 332.3412 L 543.8949 338.1345 L 543.1023 339.4503 L 541.9991 340.4496 L 539.4381 342.3371 L 537.5002 344.1355 L 535.1408 346.7951 L 532.9399 350.134 L 532.4561 350.7155 L 531.2769 351.6623 L 526.668 354.4539 L 525.0352 355.0526 L 524.119 355.2492 L 521.2831 355.5119 L 518.3886 355.4777 L 515.4904 355.2175 L 512.5281 354.6445 L 507.9541 352.2903 L 504.8351 351.0014 L 500.6285 348.7254 L 495.7787 347.2398 L 492.8164 346.0902 L 492.2483 345.2692 L 491.2248 344.7695 L 489.1403 344.5692 L 487.5964 344.7659 L 486.1056 345.2497 L 483.3357 346.6375 L 481.7295 347.23 L 479.8905 347.6112 L 475.1589 348.1805 L 473.3126 348.5397 L 471.6798 349.1078 L 468.1045 350.8084 L 466.4891 351.2897 L 462.3815 352.2072 L 460.887 352.7558 L 458.1978 353.9982 L 456.8215 354.3806 L 455.8778 354.4955 Z" fill="#000000" fill-opacity="1" stroke="#000000" stroke-width="0" paint-order="fill" stroke-opacity="1" stroke-dasharray="" stroke-linecap="butt" stroke-linejoin="miter" stroke-miterlimit="10" transform="matrix(1.100000023841858,0,0,1.100000023841858,-40.00010299682617,-26.649967193603516)" clip-path="none" style="filter: url(#f1)"/>
<path data-code="211" d="M 627.1693 359.2808 L 624.7449 362.6503 L 622.9196 366.4669 L 621.9649 367.9928 L 620.2249 370.1051 L 618.2531 372.0011 L 616.0678 373.5551 L 613.0322 374.9662 L 608.8796 377.3314 L 605.8037 378.6447 L 601.5595 380.8022 L 599.0618 381.3923 L 593.9031 381.9506 L 592.2291 382.2793 L 590.6879 382.818 L 587.1182 384.482 L 585.3534 384.9279 L 582.5854 385.2284 L 576.9558 385.5192 L 574.2335 385.9529 L 572.6365 386.5125 L 569.0914 388.2143 L 566.4333 388.83 L 563.6405 389.0572 L 559.8389 389.1122 L 551.401 388.8068 L 544.7745 389.0133 L 520.4392 389.0939 L 517.5447 389.0548 L 514.6997 388.8471 L 512.8607 388.5038 L 511.2288 387.9137 L 507.7214 386.0433 L 504.617 384.7373 L 501.1407 382.818 L 498.3067 381.6012 L 497.6204 381.2482 L 496.4732 380.3771 L 495.6156 379.2495 L 495.3471 378.5665 L 495.2472 377.7932 L 495.3608 377.026 L 496.0334 375.7713 L 496.5098 375.2582 L 497.6524 374.4164 L 501.2451 372.761 L 503.4955 371.1594 L 505.6542 369.2621 L 507.7021 367.2121 L 508.9684 365.7693 L 510.0972 364.2373 L 510.9924 362.5635 L 511.5202 360.8556 L 512.5281 354.6445 L 515.4904 355.2175 L 518.3886 355.4777 L 521.2831 355.5119 L 524.119 355.2492 L 525.0352 355.0526 L 526.668 354.4539 L 531.2769 351.6623 L 532.4561 350.7155 L 532.9399 350.134 L 535.1408 346.7951 L 537.5002 344.1355 L 539.4381 342.3371 L 541.9991 340.4496 L 543.1023 339.4503 L 543.8949 338.1345 L 546.1425 332.3412 L 547.0734 332.5416 L 548.6686 332.687 L 550.295 332.5184 L 551.0949 332.2716 L 552.473 331.4824 L 553.0805 330.9668 L 554.1287 329.7598 L 554.9323 328.3243 L 556.2022 325.2859 L 558.0989 321.7015 L 559.061 319.3155 L 559.8233 317.8153 L 560.7561 316.4494 L 563.8934 312.5388 L 565.2293 310.4497 L 568.9732 301.2869 L 573.5931 304.2495 L 578.0214 308.1199 L 579.9721 309.6213 L 581.2558 310.3385 L 583.6776 311.4563 L 585.0089 312.3189 L 587.503 314.4422 L 592.7935 319.4853 L 590.2985 322.5762 L 587.7834 325.3983 L 576.9613 336.3203 L 575.6932 337.7045 L 574.5533 339.1607 L 573.6609 340.7722 L 573.3814 341.6078 L 573.1065 343.3011 L 573.1679 344.9626 L 573.3365 345.7628 L 573.6178 346.5251 L 574.0356 347.2276 L 575.1709 348.2624 L 578.3485 350.1462 L 579.7477 350.8768 L 581.3676 351.4314 L 583.1626 351.7234 L 585.0025 351.8395 L 595.3261 351.7992 L 598.0942 351.9372 L 599.891 352.1816 L 602.3383 352.95 L 605.8669 354.6714 L 607.6005 355.1271 L 611.2665 355.4618 L 618.7598 355.5681 L 620.5932 355.744 L 622.3717 356.1289 L 623.2248 356.4428 L 624.6377 357.2394 L 627.1693 359.2808 Z" fill="#000000" fill-opacity="1" stroke="#000000" stroke-width="0" paint-order="fill" stroke-opacity="1" stroke-dasharray="" stroke-linecap="butt" stroke-linejoin="miter" stroke-miterlimit="10" transform="matrix(1.100000023841858,0,0,1.100000023841858,-40.00010299682617,-26.649967193603516)" clip-path="none" style="filter: url(#f1)"/>
<path data-code="212" d="M 463.393 266.2976 L 458.6797 265.9665 L 453.5623 265.8187 L 449.4978 265.8455 L 446.5126 266.0606 L 443.6758 266.6909 L 439.5434 268.6615 L 438.1232 269.1417 L 432.2792 266.6213 L 430.629 266.1632 L 427.2919 265.4741 L 425.6793 264.994 L 422.1315 263.2812 L 420.5894 262.7217 L 418.919 262.3576 L 414.6226 261.7052 L 411.2077 260.7352 L 407.7753 259.3889 L 406.093 258.8953 L 404.1111 258.574 L 401.06 258.3675 L 365.7487 258.3578 L 357.5508 258.5447 L 357.0688 255.5088 L 356.8242 252.7306 L 356.6666 248.0857 L 356.7179 244.406 L 356.8801 242.6003 L 357.2356 240.8386 L 357.5306 239.9871 L 358.4102 238.372 L 360.1457 236.2585 L 362.1505 234.4186 L 364.3404 232.9392 L 367.2898 231.5195 L 368.5662 230.5972 L 369.6905 229.4634 L 370.6168 228.1562 L 371.0044 227.4061 L 371.9921 225.0959 L 374.2269 220.8028 L 375.1734 218.4193 L 375.9697 216.8396 L 377.5869 214.6333 L 380.1644 212.031 L 382.3552 210.4636 L 389.6579 206.9744 L 392.1758 206.5078 L 395.1711 206.5004 L 399.0121 208.5956 L 400.4186 209.226 L 402.9731 209.8247 L 405.6184 210.0348 L 409.1754 209.9933 L 412.6499 209.5559 L 414.2818 209.0623 L 415.001 208.7349 L 418.4645 206.9134 L 420.1019 206.4723 L 421.8007 206.3111 L 423.5132 206.421 L 425.1937 206.8694 L 426.0073 207.2652 L 427.4871 208.2939 L 428.8248 209.5241 L 430.0508 210.8839 L 431.1503 212.3462 L 432.0629 213.9149 L 433.3283 217.1072 L 435.5338 221.421 L 436.5023 223.7654 L 436.8789 224.5339 L 437.775 225.8973 L 438.8589 227.13 L 440.084 228.2246 L 443.5658 230.6961 L 443.7344 233.1493 L 444.0185 234.8829 L 444.5261 236.487 L 446.1552 240.1618 L 446.6042 241.8282 L 447.2474 245.2685 L 447.712 246.9544 L 451.2405 254.3579 L 452.1733 255.6639 L 453.9105 257.29 L 455.2684 258.122 L 457.4308 259.2191 L 459.3239 260.6717 L 460.953 262.5115 L 463.393 266.2976 Z" fill="#000000" fill-opacity="1" stroke="#000000" stroke-width="0" paint-order="fill" stroke-opacity="1" stroke-dasharray="" stroke-linecap="butt" stroke-linejoin="miter" stroke-miterlimit="10" transform="matrix(1.100000023841858,0,0,1.100000023841858,-40.00010299682617,-26.649967193603516)" clip-path="none" style="filter: url(#f1)"/>
<path data-code="213" d="M 392.5176 389.7878 L 392.8566 384.1485 L 392.6403 381.3325 L 392.0512 379.6429 L 391.5087 378.9037 L 390.8041 378.3381 L 389.1887 377.7114 L 387.4203 377.4756 L 384.5781 377.445 L 376.5424 377.7749 L 372.5474 377.7908 L 369.6602 377.4646 L 367.8414 376.8586 L 366.2334 375.7799 L 364.9277 374.3725 L 363.9977 372.8343 L 362.5307 369.719 L 358.9774 363.6948 L 360.7312 359.276 L 362.7479 355.6781 L 364.1516 352.6678 L 364.9918 351.2543 L 366.0291 350.0424 L 367.2239 349.0137 L 371.3663 346.6815 L 373.1082 345.0664 L 374.0473 343.7665 L 374.445 343.0176 L 375.4621 340.716 L 377.3038 337.1303 L 377.8755 335.536 L 378.9567 330.4146 L 379.512 328.8484 L 381.1769 325.1735 L 381.6103 323.3654 L 381.9172 319.5623 L 382.0437 310.8369 L 382.2498 308.9494 L 382.686 307.1303 L 383.3347 305.6191 L 384.841 302.7798 L 386.2777 299.6951 L 387.6265 297.8149 L 389.853 295.5095 L 391.2898 297.5119 L 393.3477 299.9638 L 395.5358 302.2838 L 397.82 304.4414 L 399.0213 305.3955 L 400.2885 306.1933 L 402.7322 307.2476 L 404.0113 307.9342 L 405.919 309.3966 L 407.724 311.0862 L 441.5326 346.2539 L 444.4922 349.1542 L 445.7475 350.1792 L 447.0907 351.0283 L 450.2308 352.2573 L 453.0007 353.4717 L 455.8778 354.4955 L 452.8458 357.0097 L 449.1441 360.29 L 447.2062 361.7523 L 445.7658 362.533 L 443.4733 363.5385 L 439.3336 365.9195 L 436.2521 367.2231 L 432.1033 369.6005 L 429.0209 370.9065 L 424.8821 373.3047 L 421.8355 374.7035 L 420.4758 375.588 L 416.0373 379.3423 L 414.028 380.7314 L 410.9859 382.1376 L 406.8618 384.5577 L 403.7895 385.8723 L 399.5811 388.1397 L 397.9401 388.6431 L 392.5176 389.7878 Z" fill="#000000" fill-opacity="1" stroke="#000000" stroke-width="0" paint-order="fill" stroke-opacity="1" stroke-dasharray="" stroke-linecap="butt" stroke-linejoin="miter" stroke-miterlimit="10" transform="matrix(1.100000023841858,0,0,1.100000023841858,-40.00010299682617,-26.649967193603516)" clip-path="none" style="filter: url(#f1)"/>














</svg>