<?xml version="1.0" standalone="no"?>
<!-- Generator: Paintmaps.com , Online SVG vector map maker -->
<svg xmlns="http://www.w3.org/2000/svg" version="1.1" baseProfile="full"   style="background-color:#e0f2f1" width="800" height="500" viewBox="0 0 800 533">

<path data-code="200" d="M 169.0878 232.8631 L 168.9247 223.8682 L 168.633 221.2504 L 168.0448 218.7358 L 165.5719 212.9619 L 163.3442 204.2417 L 160.5176 198.606 L 158.7781 194.5197 L 156.3646 189.8587 L 155.5895 187.6536 L 155.1228 185.1517 L 154.9001 181.3035 L 155.0192 178.7381 L 155.4145 176.2251 L 155.761 175.0074 L 156.6075 173.0468 L 159.6353 167.9176 L 160.9867 166.4173 L 162.9751 165.3775 L 165.2016 164.8886 L 167.5626 164.7028 L 171.2536 164.7266 L 175.0172 165.0156 L 177.514 165.4124 L 179.9108 166.0697 L 184.4114 167.9461 L 191.1493 161.1944 L 194.4676 158.4432 L 196.6203 157.0605 L 197.7764 156.5176 L 200.2481 155.8333 L 202.7973 155.5269 L 206.6764 155.3825 L 207.4932 158.6432 L 208.3981 160.7308 L 209.6471 162.6819 L 213.1952 167.3095 L 214.4418 169.286 L 214.9466 170.3544 L 215.6265 172.669 L 215.9801 175.082 L 216.1896 178.7969 L 216.2182 183.8325 L 216.0765 190.1381 L 215.8075 193.8609 L 215.4419 196.2691 L 214.8037 198.5567 L 212.5237 203.2018 L 211.8009 205.2529 L 211.3628 208.6216 L 211.5092 210.8902 L 211.7426 212.0062 L 212.1153 213.0969 L 213.1964 214.9479 L 214.6251 216.4894 L 216.3159 217.7134 L 223.936 220.9361 L 227.8175 222.3791 L 222.9168 225.7224 L 220.3462 227.2687 L 216.3623 229.0832 L 212.0069 231.409 L 210.8496 231.8931 L 208.4683 232.5139 L 204.7416 232.9139 L 200.9292 233.0139 L 169.0878 232.8631 Z" fill="#000000" fill-opacity="1" stroke="#000000" stroke-width="0" paint-order="fill" stroke-opacity="1" stroke-dasharray="" stroke-linecap="butt" stroke-linejoin="miter" stroke-miterlimit="10" transform="matrix(0.8999999761581421,0,0,0.8999999761581421,39.99991226196289,26.64995002746582)" clip-path="none" style="filter: url(#f1)"/>
<path data-code="201" d="M 529.0916 417.5381 L 526.3127 413.1121 L 523.4265 407.1049 L 517.8567 399.6546 L 516.7447 397.5035 L 516.3446 396.3002 L 515.8612 393.7983 L 515.6469 391.2249 L 515.5504 380.706 L 515.3266 376.7911 L 514.6301 372.989 L 512.9596 368.1804 L 520.6714 368.798 L 528.0486 369.0059 L 534.1114 368.8138 L 537.6202 368.236 L 539.7038 367.4771 L 544.2247 365.0228 L 548.186 363.2496 L 553.5498 360.1142 L 557.5194 358.3314 L 562.9047 355.223 L 566.8897 353.472 L 571.4047 350.9605 L 573.3609 350.1271 L 578.9736 348.3157 L 583.7338 352.1623 L 586.3437 354.715 L 588.5868 357.5392 L 589.7179 359.6649 L 590.1097 360.8286 L 590.5776 363.2321 L 590.8276 366.939 L 590.6419 383.473 L 586.0912 383.1682 L 582.7896 382.5967 L 580.7845 381.8934 L 576.1589 379.7138 L 573.8145 379.0803 L 571.3642 378.7184 L 565.0431 378.3533 L 556.2526 378.3152 L 552.758 378.7152 L 550.647 379.4439 L 549.7112 380.0535 L 548.3991 381.5553 L 545.0069 387.6609 L 544.2854 389.7215 L 543.1995 395.2747 L 542.6102 397.4496 L 539.9717 403.1964 L 539.0359 405.8746 L 536.8713 409.1941 L 534.9615 411.6309 L 532.8207 413.9519 L 529.0916 417.5381 Z" fill="#000000" fill-opacity="1" stroke="#000000" stroke-width="0" paint-order="fill" stroke-opacity="1" stroke-dasharray="" stroke-linecap="butt" stroke-linejoin="miter" stroke-miterlimit="10" transform="matrix(0.8999999761581421,0,0,0.8999999761581421,39.99991226196289,26.64995002746582)" clip-path="none" style="filter: url(#f1)"/>
<path data-code="202" d="M 687.0113 388.442 L 612.8807 388.3372 L 608.9135 388.0197 L 606.3607 387.5466 L 598.3191 384.3604 L 595.8164 383.8953 L 590.6419 383.473 L 590.8276 366.939 L 590.5776 363.2321 L 590.1097 360.8286 L 589.7179 359.6649 L 588.5868 357.5392 L 586.3437 354.715 L 583.7338 352.1623 L 578.9736 348.3157 L 581.6704 344.9788 L 583.1146 343.4405 L 584.7327 342.0879 L 586.5484 341.0227 L 587.6855 340.594 L 590.0442 340.0813 L 596.0962 339.4812 L 599.6348 338.7223 L 601.5327 337.8921 L 605.1629 335.9569 L 609.1373 334.1963 L 614.4833 331.0308 L 618.435 329.2401 L 622.9571 326.7889 L 625.0991 326.0174 L 626.3088 325.7539 L 628.7912 325.4364 L 632.6013 325.2649 L 649.4144 325.2316 L 654.5258 325.3379 L 658.2644 325.7586 L 660.6516 326.4397 L 662.5388 327.3938 L 670.5697 332.9771 L 672.0139 335.4092 L 674.0606 337.6396 L 675.6537 338.8509 L 680.1246 341.4402 L 682.3713 343.5579 L 684.1299 346.2075 L 688.2245 354.8436 L 688.8103 357.2932 L 689.1759 361.1191 L 689.2771 367.6549 L 689.1354 376.8594 L 688.8841 380.7599 L 688.5353 383.3143 L 687.9983 385.5543 L 687.0113 388.442 Z" fill="#000000" fill-opacity="1" stroke="#000000" stroke-width="0" paint-order="fill" stroke-opacity="1" stroke-dasharray="" stroke-linecap="butt" stroke-linejoin="miter" stroke-miterlimit="10" transform="matrix(0.8999999761581421,0,0,0.8999999761581421,39.99991226196289,26.64995002746582)" clip-path="none" style="filter: url(#f1)"/>
<path data-code="203" d="M 185.1544 414.5631 L 180.699 410.3847 L 178.7201 409.0226 L 177.6497 408.4829 L 176.5186 408.0701 L 174.1766 407.5637 L 163.2989 406.9033 L 159.8318 406.1555 L 157.9553 405.33 L 154.3144 403.371 L 150.3364 401.5851 L 145.0095 398.3957 L 141.0589 396.6082 L 137.4632 394.6254 L 135.5677 393.7649 L 132.0755 392.9886 L 123.5458 392.5203 L 119.9488 392.133 L 117.6628 391.5567 L 113.0479 389.4342 L 111.0547 388.7785 L 108.9021 388.4388 L 105.7635 388.3435 L 102.5929 383.4238 L 100.4759 381.033 L 98.016 379.1454 L 95.2061 377.7198 L 93.4416 376.6387 L 91.1841 374.5257 L 89.972 372.8287 L 85.3869 363.2083 L 84.7832 361.0175 L 83.9474 356.547 L 83.364 354.3817 L 81.247 349.6064 L 80.5874 347.522 L 80.2183 345.2693 L 79.9992 342.0815 L 83.7438 334.2281 L 85.3393 330.0227 L 88.348 324.46 L 89.6291 321.3882 L 90.6305 319.4466 L 91.8473 317.6734 L 95.9133 312.5822 L 97.129 310.8184 L 99.5067 305.8606 L 100.714 303.9413 L 102.8929 301.2393 L 108.421 295.1559 L 110.5678 292.4317 L 111.7382 290.4997 L 113.0407 287.4438 L 114.0194 285.4927 L 115.8995 282.8558 L 117.3425 281.2238 L 118.9035 279.7125 L 120.5966 278.3742 L 122.4694 277.3169 L 124.3447 276.7153 L 126.2807 276.374 L 133.9127 275.7802 L 139.0706 275.912 L 142.6377 275.7532 L 146.7395 281.9636 L 152.657 289.4853 L 153.8464 291.4745 L 155.6669 295.5179 L 157.5731 298.4612 L 159.0936 300.2678 L 160.7617 301.9378 L 162.5869 303.4126 L 164.6229 304.5699 L 165.791 304.9891 L 168.208 305.478 L 171.937 305.7241 L 194.9367 305.4701 L 198.7396 305.5352 L 202.4746 305.8146 L 206.0406 306.6179 L 210.6484 308.8626 L 212.6082 309.631 L 217.9292 310.9248 L 220.0033 311.5836 L 224.5884 313.8427 L 226.609 314.5618 L 228.8116 314.9889 L 231.0798 315.2064 L 240.1085 315.2841 L 253.2829 315.3095 L 255.5487 313.1489 L 257.2025 311.9281 L 259.1671 311.1169 L 260.2375 310.9423 L 261.3186 310.9407 L 262.3997 311.1344 L 263.3641 311.5011 L 264.2321 312.0043 L 265.6751 313.3267 L 266.2312 314.1475 L 266.636 315.0984 L 266.8241 316.1938 L 266.7431 317.286 L 266.3836 318.3258 L 265.7299 319.2339 L 264.8798 319.8467 L 263.0533 320.3261 L 261.0959 320.3658 L 257.961 320.1594 L 257.899 323.4218 L 257.6288 325.4903 L 256.9251 327.3747 L 256.3131 328.1828 L 255.5273 328.8067 L 253.7104 329.5115 L 251.7244 329.7909 L 246.4796 330.1259 L 244.421 330.6545 L 242.6767 331.6404 L 241.2693 333.0072 L 240.3347 334.7361 L 240.1287 335.76 L 240.1406 336.7665 L 240.3597 337.7222 L 240.7824 338.5795 L 241.3682 339.2589 L 244.8627 341.8069 L 246.1534 343.2484 L 247.1999 344.9851 L 247.5964 346.0154 L 248.0917 348.2014 L 248.9978 356.1343 L 249.6812 358.279 L 250.1765 359.2141 L 251.4338 360.8667 L 252.9472 362.2224 L 254.6807 363.2623 L 257.4442 364.5926 L 259.0813 365.7547 L 260.5173 367.2311 L 261.1281 368.0867 L 262.0377 370.1029 L 262.4401 372.3477 L 262.414 374.6337 L 261.9865 376.8864 L 261.5984 377.9707 L 260.4482 379.9995 L 255.4594 386.2829 L 254.4486 388.3229 L 254.1604 389.404 L 254.0175 390.5089 L 254.1223 392.7251 L 256.1702 399.7928 L 255.1808 401.3152 L 254.2938 403.0535 L 252.6078 409.0877 L 251.6827 410.807 L 250.2777 412.0881 L 246.8951 414.4646 L 240.7109 419.8463 L 236.7068 423.1452 L 232.5181 420.0432 L 230.3964 418.6986 L 228.0675 417.7381 L 225.5981 417.2285 L 220.4712 416.9094 L 208.6636 417.0031 L 202.1782 416.7491 L 198.4681 416.1522 L 196.1821 415.3679 L 192.9602 413.9535 L 190.8325 413.4391 L 188.7882 413.4375 L 187.7893 413.6106 L 185.1544 414.5631 Z" fill="#000000" fill-opacity="1" stroke="#000000" stroke-width="0" paint-order="fill" stroke-opacity="1" stroke-dasharray="" stroke-linecap="butt" stroke-linejoin="miter" stroke-miterlimit="10" transform="matrix(0.8999999761581421,0,0,0.8999999761581421,39.99991226196289,26.64995002746582)" clip-path="none" style="filter: url(#f1)"/>
<path data-code="204" d="M 547.6633 222.8316 L 549.3968 219.0755 L 552.5758 213.4969 L 554.7785 208.4486 L 557.3646 203.8575 L 559.0744 199.7633 L 561.4985 195.1134 L 561.9033 194.1196 L 562.4915 191.886 L 562.9082 188.3807 L 563.0726 182.3815 L 562.9201 176.3791 L 562.4987 172.8722 L 561.8938 170.6449 L 561.4783 169.6543 L 558.9684 165.0426 L 557.2003 161.0245 L 554.8452 156.5541 L 554.3047 154.4823 L 554.2451 153.3679 L 554.5999 151.1422 L 555.0452 150.0516 L 556.3061 148.0862 L 558.7231 145.4652 L 562.4177 142.306 L 566.2313 137.7673 L 568.8031 135.1987 L 571.6618 133.0714 L 573.8407 132.1253 L 576.1601 131.6252 L 578.5366 131.395 L 584.6077 131.3236 L 593.1803 131.6601 L 598.8764 132.4634 L 602.7031 131.3696 L 604.6581 130.56 L 606.4786 129.4439 L 609.816 126.7118 L 613.0498 126.0419 L 615.0429 125.2814 L 621.8808 121.1634 L 623.2143 119.8013 L 624.7716 117.3391 L 625.9694 115.7896 L 627.4018 114.3625 L 629.0389 113.148 L 632.8847 111.2668 L 638.2676 108.1695 L 642.2788 106.4487 L 647.6784 103.353 L 651.6754 101.6305 L 656.2117 99.1715 L 658.2049 98.4094 L 663.5985 97.2601 L 665.7214 96.6378 L 671.2829 93.7882 L 675.2942 92.0832 L 677.0634 91.056 L 682.3273 87.5349 L 682.7916 86.9777 L 683.069 86.3697 L 683.2226 85.3013 L 693.861 82.0707 L 699.2642 79.002 L 706.3235 75.7714 L 708.119 75.5412 L 709.0453 75.7396 L 709.9002 76.1222 L 711.3837 77.2843 L 712.5648 78.8337 L 716.769 88.389 L 717.4524 91.7942 L 718.2561 99.9097 L 718.7847 102.1179 L 719.9992 105.0183 L 716.7023 108.7347 L 715.2009 110.6667 L 713.9222 112.6987 L 711.4349 117.7502 L 709.2644 120.6935 L 705.0674 125.3227 L 691.7024 138.777 L 688.3591 142.4473 L 686.2731 145.4668 L 685.7468 146.5812 L 685.0765 148.9355 L 684.6705 152.6091 L 684.5871 156.3699 L 684.6883 169.1114 L 684.6062 184.423 L 684.9098 190.6683 L 685.3408 193.0703 L 686.0849 195.2182 L 688.4924 199.8601 L 690.1962 203.9432 L 693.0121 209.5805 L 693.6027 211.7126 L 694.579 218.4532 L 695.7934 224.0508 L 687.8292 223.7301 L 676.9241 223.5888 L 669.6886 223.6142 L 666.1322 223.8079 L 663.8199 224.1222 L 661.6041 224.7112 L 656.9999 226.9417 L 655.0044 227.6545 L 652.8303 228.0799 L 646.1175 228.7562 L 643.9255 229.1753 L 641.8978 229.904 L 637.3686 232.3631 L 634.4039 233.7029 L 632.4489 234.8142 L 630.5927 236.2176 L 626.1337 240.0657 L 623.2988 242.0581 L 619.3578 243.917 L 613.9856 247.0461 L 609.9874 248.7558 L 605.4606 251.2292 L 603.471 252.0086 L 598.106 253.2295 L 596.0271 253.8756 L 591.467 256.2108 L 589.4453 256.9697 L 587.2402 257.4173 L 583.8445 257.6618 L 580.4428 257.4745 L 578.2199 257.0141 L 577.1412 256.6252 L 576.1148 256.1108 L 574.2265 254.8154 L 571.6416 252.4913 L 567.6446 248.1922 L 564.793 244.5251 L 563.6357 242.5756 L 561.2866 237.5304 L 559.2839 234.7396 L 554.5487 229.5182 L 547.6633 222.8316 Z" fill="#000000" fill-opacity="1" stroke="#000000" stroke-width="0" paint-order="fill" stroke-opacity="1" stroke-dasharray="" stroke-linecap="butt" stroke-linejoin="miter" stroke-miterlimit="10" transform="matrix(0.8999999761581421,0,0,0.8999999761581421,39.99991226196289,26.64995002746582)" clip-path="none" style="filter: url(#f1)"/>
<path data-code="205" d="M 259.7933 216.3005 L 257.443 226.5845 L 256.6941 228.6514 L 254.4938 233.4203 L 253.8568 235.5746 L 252.6043 241.0754 L 251.8708 243.1026 L 249.7312 247.8827 L 249.1276 250.3799 L 248.6823 255.6425 L 248.7382 271.8844 L 248.4453 277.1947 L 247.9893 279.7522 L 247.2237 281.9747 L 244.8186 286.6214 L 243.0696 290.6807 L 240.6538 295.321 L 239.893 297.5039 L 239.3131 301.2425 L 239.1774 305.1049 L 239.4131 310.3136 L 240.1085 315.2841 L 231.0798 315.2064 L 228.8116 314.9889 L 226.609 314.5618 L 224.5884 313.8427 L 220.0033 311.5836 L 217.9292 310.9248 L 212.6082 309.631 L 210.6484 308.8626 L 206.0406 306.6179 L 202.4746 305.8146 L 198.7396 305.5352 L 194.9367 305.4701 L 171.937 305.7241 L 168.208 305.478 L 165.791 304.9891 L 164.6229 304.5699 L 162.5869 303.4126 L 160.7617 301.9378 L 159.0936 300.2678 L 157.5731 298.4612 L 155.6669 295.5179 L 153.8464 291.4745 L 152.657 289.4853 L 146.7395 281.9636 L 142.6377 275.7532 L 152.3677 276.6232 L 157.8458 276.8454 L 161.7559 276.7867 L 164.1919 276.4597 L 165.3397 276.1215 L 166.4196 275.5992 L 167.3936 274.8229 L 168.1377 273.8244 L 168.9664 271.5399 L 169.3486 267.7378 L 169.0664 249.3749 L 169.0878 232.8631 L 200.9292 233.0139 L 204.7416 232.9139 L 208.4683 232.5139 L 210.8496 231.8931 L 212.0069 231.409 L 216.3623 229.0832 L 220.3462 227.2687 L 222.9168 225.7224 L 227.8175 222.3791 L 231.4656 222.9681 L 235.178 223.1951 L 238.8904 223.1014 L 241.317 222.8014 L 243.653 222.1966 L 250.2646 219.1803 L 255.6261 217.6753 L 259.7933 216.3005 Z" fill="#000000" fill-opacity="1" stroke="#000000" stroke-width="0" paint-order="fill" stroke-opacity="1" stroke-dasharray="" stroke-linecap="butt" stroke-linejoin="miter" stroke-miterlimit="10" transform="matrix(0.8999999761581421,0,0,0.8999999761581421,39.99991226196289,26.64995002746582)" clip-path="none" style="filter: url(#f1)"/>
<path data-code="206" d="M 508.0982 313.4871 L 500.2495 311.1883 L 496.63 310.7311 L 491.6959 310.6343 L 488.0228 310.8581 L 485.6451 311.209 L 483.3924 311.8329 L 479.8145 313.5268 L 477.9869 314.2173 L 476.9605 314.4189 L 474.8698 314.438 L 472.8969 313.9665 L 469.3226 312.3504 L 467.3675 311.6757 L 465.2196 311.2534 L 457.44 310.2501 L 455.292 309.5706 L 454.2121 309.0309 L 452.2059 307.6736 L 450.3294 306.094 L 442.2962 298.5945 L 438.2301 295.5354 L 437.5705 294.8019 L 437.0145 293.8764 L 436.6132 292.8556 L 436.1406 290.6363 L 435.9131 287.0421 L 436.1644 279.4601 L 436.8264 274.2594 L 443.2082 269.5889 L 445.8717 267.8886 L 449.852 266.1186 L 455.3373 263.2578 L 457.4447 262.6403 L 462.824 261.51 L 464.8172 260.7527 L 469.3511 258.2921 L 473.3422 256.549 L 478.6894 253.2644 L 480.4265 252.3468 L 499.4768 252.6722 L 504.1262 252.5992 L 507.5446 252.3325 L 510.8129 251.5959 L 515.4242 249.3622 L 517.3828 248.6288 L 522.7086 247.4445 L 524.8077 246.7317 L 526.7842 245.5966 L 528.613 244.1758 L 531.211 241.7707 L 535.4104 237.4828 L 543.596 228.6371 L 545.7963 225.8002 L 547.6633 222.8316 L 554.5487 229.5182 L 559.2839 234.7396 L 561.2866 237.5304 L 563.6357 242.5756 L 564.793 244.5251 L 567.6446 248.1922 L 571.6416 252.4913 L 574.2265 254.8154 L 576.1148 256.1108 L 577.1412 256.6252 L 578.2199 257.0141 L 580.4428 257.4745 L 583.8445 257.6618 L 587.2402 257.4173 L 589.4453 256.9697 L 591.467 256.2108 L 596.0271 253.8756 L 598.106 253.2295 L 603.471 252.0086 L 605.4606 251.2292 L 609.9874 248.7558 L 613.9856 247.0461 L 619.3578 243.917 L 623.2988 242.0581 L 626.1337 240.0657 L 630.5927 236.2176 L 632.4489 234.8142 L 634.4039 233.7029 L 637.3686 232.3631 L 641.8978 229.904 L 643.9255 229.1753 L 646.1175 228.7562 L 652.8303 228.0799 L 655.0044 227.6545 L 656.9999 226.9417 L 661.6041 224.7112 L 663.8199 224.1222 L 666.1322 223.8079 L 669.6886 223.6142 L 676.9241 223.5888 L 687.8292 223.7301 L 695.7934 224.0508 L 693.8932 227.5481 L 692.5847 229.3325 L 690.8582 231.0232 L 688.8318 232.3107 L 687.7102 232.7425 L 685.3789 233.2362 L 682.9833 233.4378 L 675.6799 233.6331 L 672.1104 234.103 L 669.9934 234.784 L 665.3535 236.9192 L 658.0382 238.7814 L 656.1308 239.7387 L 653.784 241.7977 L 652.541 243.471 L 649.9978 248.3065 L 645.7912 253.8232 L 644.5041 255.7219 L 643.5659 257.8206 L 643.3254 258.9239 L 643.3052 261.1591 L 643.8493 263.2372 L 646.2413 267.7251 L 648.088 271.6225 L 650.0573 274.9023 L 650.7657 276.6105 L 650.9217 277.5948 L 650.8836 278.5901 L 650.6193 279.5728 L 650.0835 280.4856 L 649.2667 281.2222 L 648.344 281.6763 L 646.3258 282.097 L 644.1196 282.197 L 629.2854 281.8192 L 604.2497 281.635 L 599.3621 281.9049 L 595.8581 282.6796 L 586.4437 287.385 L 584.4339 288.7535 L 580.7238 292.1142 L 571.8 301.2489 L 568.9769 303.7 L 566.96 305.0494 L 563.0202 306.9036 L 557.6373 309.985 L 553.6403 311.6948 L 548.1586 314.5634 L 546.0583 315.2159 L 540.7099 316.4414 L 538.7453 317.1987 L 534.1292 319.4752 L 531.8241 320.1055 L 528.2046 320.5468 L 523.2884 320.6389 L 519.6379 320.3563 L 517.2769 319.853 L 515.1825 318.9735 L 513.4025 317.8305 L 508.0982 313.4871 Z" fill="#000000" fill-opacity="1" stroke="#000000" stroke-width="0" paint-order="fill" stroke-opacity="1" stroke-dasharray="" stroke-linecap="butt" stroke-linejoin="miter" stroke-miterlimit="10" transform="matrix(0.8999999761581421,0,0,0.8999999761581421,39.99991226196289,26.64995002746582)" clip-path="none" style="filter: url(#f1)"/>
<path data-code="207" d="M 445.2883 438.0838 L 441.6604 437.1948 L 439.1005 436.8725 L 436.5347 436.8154 L 434.0045 437.0424 L 431.5673 437.6536 L 430.416 438.141 L 426.1094 440.5127 L 422.1839 442.3225 L 417.8678 444.7117 L 415.5591 445.588 L 411.9158 446.2167 L 408.1486 446.4405 L 400.4987 446.4913 L 395.4349 446.3405 L 391.7332 445.9182 L 389.3698 445.2912 L 381.0281 441.0255 L 377.761 438.7649 L 372.084 433.299 L 377.1681 428.5047 L 380.4626 424.4327 L 381.2186 423.7628 L 382.0985 423.2373 L 384.0595 422.5674 L 389.2435 421.5688 L 391.126 420.7814 L 391.9356 420.1527 L 393.106 418.3715 L 394.9634 413.0152 L 395.5599 411.9691 L 397.097 410.0736 L 398.0031 409.2449 L 399.9093 407.9748 L 403.6206 406.1238 L 407.1996 404.0489 L 411.0633 402.2693 L 412.8135 401.1834 L 414.2542 399.8245 L 415.3662 398.2576 L 415.7627 397.421 L 416.2378 395.5271 L 418.6369 392.2092 L 420.6086 389.739 L 423.6114 386.4433 L 431.3161 378.4406 L 434.0641 375.0734 L 435.1642 373.251 L 437.3122 368.1995 L 439.8196 363.5829 L 441.1198 360.2777 L 442.008 358.514 L 443.9083 355.8549 L 447.6315 351.7289 L 451.6308 347.8887 L 454.205 345.9233 L 455.9112 344.9994 L 459.1009 343.6294 L 463.5432 340.9639 L 468.4308 338.7207 L 472.854 336.1172 L 474.7555 335.379 L 476.7069 335.0186 L 478.6941 334.9472 L 480.6765 335.1599 L 481.6517 335.3917 L 483.571 336.2093 L 486.1642 338.1302 L 488.5467 340.413 L 491.64 343.6532 L 496.2073 348.6031 L 498.3564 351.1399 L 499.6494 352.8957 L 500.7305 354.7373 L 502.0819 358.0123 L 502.9546 359.7237 L 504.1346 361.4382 L 505.4859 363.0448 L 507.7267 365.2356 L 509.3412 366.4913 L 511.0558 367.4803 L 512.9596 368.1804 L 514.6301 372.989 L 515.3266 376.7911 L 515.5504 380.706 L 515.6469 391.2249 L 515.8612 393.7983 L 516.3446 396.3002 L 516.7447 397.5035 L 517.8567 399.6546 L 523.4265 407.1049 L 526.3127 413.1121 L 529.0916 417.5381 L 523.698 423.677 L 519.2248 428.1015 L 516.2517 430.27 L 515.1563 430.8145 L 512.7941 431.5258 L 510.3485 431.8623 L 506.6004 432.0195 L 472.0884 431.7036 L 464.5195 431.921 L 462.0739 432.2449 L 459.7248 432.8609 L 454.1538 435.5152 L 445.2883 438.0838 Z" fill="#000000" fill-opacity="1" stroke="#000000" stroke-width="0" paint-order="fill" stroke-opacity="1" stroke-dasharray="" stroke-linecap="butt" stroke-linejoin="miter" stroke-miterlimit="10" transform="matrix(0.8999999761581421,0,0,0.8999999761581421,39.99991226196289,26.64995002746582)" clip-path="none" style="filter: url(#f1)"/>
<path data-code="208" d="M 416.2378 395.5271 L 414.5911 390.7328 L 412.9635 387.2323 L 411.9324 385.5384 L 411.2299 384.8081 L 410.3382 384.208 L 408.32 383.5079 L 406.1221 383.2222 L 395.3908 383.1746 L 393.0048 382.9682 L 390.683 382.484 L 389.5686 382.0839 L 387.5564 380.96 L 382.1592 376.6133 L 379.2374 374.8051 L 376.0334 373.8876 L 369.367 373.0351 L 367.2083 372.5842 L 365.2307 371.8698 L 360.6479 369.7044 L 358.5107 369.1996 L 356.3068 369.0377 L 354.1017 369.1837 L 351.9574 369.6822 L 346.4531 372.3175 L 344.3861 372.9874 L 339.0556 374.3019 L 337.0887 375.0734 L 333.4274 376.9213 L 330.3068 377.8675 L 326.9206 378.2421 L 317.0442 378.4342 L 313.3651 378.7025 L 309.8599 379.482 L 305.2449 381.668 L 302.035 382.6348 L 297.2736 383.0666 L 287.546 383.1936 L 285.1612 383.4111 L 282.8394 383.8921 L 281.7202 384.2906 L 279.6926 385.4098 L 273.3774 390.5359 L 271.4843 391.8155 L 267.5742 393.7443 L 262.1711 397.0273 L 256.1702 399.7928 L 254.1223 392.7251 L 254.0175 390.5089 L 254.1604 389.404 L 254.4486 388.3229 L 255.4594 386.2829 L 260.4482 379.9995 L 261.5984 377.9707 L 261.9865 376.8864 L 262.414 374.6337 L 262.4401 372.3477 L 262.0377 370.1029 L 261.1281 368.0867 L 260.5173 367.2311 L 259.0813 365.7547 L 257.4442 364.5926 L 254.6807 363.2623 L 252.9472 362.2224 L 251.4338 360.8667 L 250.1765 359.2141 L 249.6812 358.279 L 248.9978 356.1343 L 248.0917 348.2014 L 247.5964 346.0154 L 247.1999 344.9851 L 246.1534 343.2484 L 244.8627 341.8069 L 241.3682 339.2589 L 240.7824 338.5795 L 240.3597 337.7222 L 240.1406 336.7665 L 240.1287 335.76 L 240.3347 334.7361 L 241.2693 333.0072 L 242.6767 331.6404 L 244.421 330.6545 L 246.4796 330.1259 L 251.7244 329.7909 L 253.7104 329.5115 L 255.5273 328.8067 L 256.3131 328.1828 L 256.9251 327.3747 L 257.6288 325.4903 L 257.899 323.4218 L 257.961 320.1594 L 261.0959 320.3658 L 263.0533 320.3261 L 264.8798 319.8467 L 265.7299 319.2339 L 266.3836 318.3258 L 266.7431 317.286 L 266.8241 316.1938 L 266.636 315.0984 L 266.2312 314.1475 L 265.6751 313.3267 L 264.2321 312.0043 L 263.3641 311.5011 L 262.3997 311.1344 L 261.3186 310.9407 L 260.2375 310.9423 L 259.1671 311.1169 L 257.2025 311.9281 L 255.5487 313.1489 L 253.2829 315.3095 L 240.1085 315.2841 L 239.4131 310.3136 L 239.1774 305.1049 L 239.3131 301.2425 L 239.893 297.5039 L 240.6538 295.321 L 243.0696 290.6807 L 244.8186 286.6214 L 247.2237 281.9747 L 247.9893 279.7522 L 248.4453 277.1947 L 248.7382 271.8844 L 248.6823 255.6425 L 249.1276 250.3799 L 249.7312 247.8827 L 251.8708 243.1026 L 252.6043 241.0754 L 253.8568 235.5746 L 254.4938 233.4203 L 256.6941 228.6514 L 257.443 226.5845 L 259.7933 216.3005 L 263.2284 214.7066 L 265.6108 214.0811 L 268.0897 213.7478 L 271.8998 213.5414 L 284.829 213.5065 L 292.2729 213.2636 L 296.6723 213.8906 L 298.8417 214.3637 L 300.8479 215.094 L 305.4628 217.3308 L 313.9497 219.5581 L 319.5112 222.1981 L 321.5984 222.8189 L 325.8466 223.7206 L 327.985 224.3826 L 333.4667 227.3258 L 337.4542 229.0435 L 342.9085 231.9566 L 345.0076 232.5948 L 349.3165 233.4838 L 351.4168 234.122 L 356.8771 237.0335 L 360.8729 238.737 L 366.3356 241.6262 L 368.4252 242.2597 L 372.7115 243.182 L 374.8011 243.8901 L 375.8202 244.4171 L 377.73 245.7189 L 382.208 249.4908 L 385.0299 251.4784 L 388.9637 253.3438 L 394.3288 256.4807 L 398.315 258.2175 L 403.6884 261.3385 L 407.6771 263.0673 L 412.1932 265.555 L 414.1815 266.3265 L 419.5537 267.4918 L 421.6516 268.1141 L 427.1869 270.8795 L 432.5139 272.5306 L 436.8264 274.2594 L 436.1644 279.4601 L 435.9131 287.0421 L 436.1406 290.6363 L 436.6132 292.8556 L 437.0145 293.8764 L 437.5705 294.8019 L 438.2301 295.5354 L 442.2962 298.5945 L 450.3294 306.094 L 452.2059 307.6736 L 454.2121 309.0309 L 455.292 309.5706 L 457.44 310.2501 L 465.2196 311.2534 L 467.3675 311.6757 L 469.3226 312.3504 L 472.8969 313.9665 L 474.8698 314.438 L 476.9605 314.4189 L 477.9869 314.2173 L 479.8145 313.5268 L 483.3924 311.8329 L 485.6451 311.209 L 488.0228 310.8581 L 491.6959 310.6343 L 496.63 310.7311 L 500.2495 311.1883 L 508.0982 313.4871 L 506.7397 319.2625 L 506.2706 324.052 L 506.2361 327.6382 L 506.373 330.0005 L 506.9945 333.447 L 507.3814 334.5456 L 508.509 336.6268 L 513.6287 343.0642 L 514.8873 345.0073 L 517.8186 351.5892 L 518.3604 353.3847 L 518.4461 354.3324 L 518.3568 355.2786 L 517.8115 357.0725 L 514.7932 364.5402 L 512.9596 368.1804 L 511.0558 367.4803 L 509.3412 366.4913 L 507.7267 365.2356 L 505.4859 363.0448 L 504.1346 361.4382 L 502.9546 359.7237 L 502.0819 358.0123 L 500.7305 354.7373 L 499.6494 352.8957 L 498.3564 351.1399 L 496.2073 348.6031 L 491.64 343.6532 L 488.5467 340.413 L 486.1642 338.1302 L 483.571 336.2093 L 481.6517 335.3917 L 480.6765 335.1599 L 478.6941 334.9472 L 476.7069 335.0186 L 474.7555 335.379 L 472.854 336.1172 L 468.4308 338.7207 L 463.5432 340.9639 L 459.1009 343.6294 L 455.9112 344.9994 L 454.205 345.9233 L 451.6308 347.8887 L 447.6315 351.7289 L 443.9083 355.8549 L 442.008 358.514 L 441.1198 360.2777 L 439.8196 363.5829 L 437.3122 368.1995 L 435.1642 373.251 L 434.0641 375.0734 L 431.3161 378.4406 L 423.6114 386.4433 L 420.6086 389.739 L 418.6369 392.2092 L 416.2378 395.5271 Z" fill="#000000" fill-opacity="1" stroke="#000000" stroke-width="0" paint-order="fill" stroke-opacity="1" stroke-dasharray="" stroke-linecap="butt" stroke-linejoin="miter" stroke-miterlimit="10" transform="matrix(0.8999999761581421,0,0,0.8999999761581421,39.99991226196289,26.64995002746582)" clip-path="none" style="filter: url(#f1)"/>
<path data-code="209" d="M 578.9736 348.3157 L 573.3609 350.1271 L 571.4047 350.9605 L 566.8897 353.472 L 562.9047 355.223 L 557.5194 358.3314 L 553.5498 360.1142 L 548.186 363.2496 L 544.2247 365.0228 L 539.7038 367.4771 L 537.6202 368.236 L 534.1114 368.8138 L 528.0486 369.0059 L 520.6714 368.798 L 512.9596 368.1804 L 514.7932 364.5402 L 517.8115 357.0725 L 518.3568 355.2786 L 518.4461 354.3324 L 518.3604 353.3847 L 517.8186 351.5892 L 514.8873 345.0073 L 513.6287 343.0642 L 508.509 336.6268 L 507.3814 334.5456 L 506.9945 333.447 L 506.373 330.0005 L 506.2361 327.6382 L 506.2706 324.052 L 506.7397 319.2625 L 508.0982 313.4871 L 513.4025 317.8305 L 515.1825 318.9735 L 517.2769 319.853 L 519.6379 320.3563 L 523.2884 320.6389 L 528.2046 320.5468 L 531.8241 320.1055 L 534.1292 319.4752 L 538.7453 317.1987 L 540.7099 316.4414 L 546.0583 315.2159 L 548.1586 314.5634 L 553.6403 311.6948 L 557.6373 309.985 L 563.0202 306.9036 L 566.96 305.0494 L 568.9769 303.7 L 571.8 301.2489 L 580.7238 292.1142 L 584.4339 288.7535 L 586.4437 287.385 L 595.8581 282.6796 L 599.3621 281.9049 L 604.2497 281.635 L 629.2854 281.8192 L 644.1196 282.197 L 646.3258 282.097 L 648.344 281.6763 L 649.2667 281.2222 L 650.0835 280.4856 L 650.6193 279.5728 L 650.8836 278.5901 L 650.9217 277.5948 L 650.7657 276.6105 L 650.0573 274.9023 L 648.088 271.6225 L 646.2413 267.7251 L 643.8493 263.2372 L 643.3052 261.1591 L 643.3254 258.9239 L 643.5659 257.8206 L 644.5041 255.7219 L 645.7912 253.8232 L 649.9978 248.3065 L 652.541 243.471 L 653.784 241.7977 L 656.1308 239.7387 L 658.0382 238.7814 L 665.3535 236.9192 L 669.9934 234.784 L 672.1104 234.103 L 675.6799 233.6331 L 682.9833 233.4378 L 685.3789 233.2362 L 687.7102 232.7425 L 688.8318 232.3107 L 690.8582 231.0232 L 692.5847 229.3325 L 693.8932 227.5481 L 695.7934 224.0508 L 698.826 224.0063 L 701.8729 224.4381 L 703.7838 225.2636 L 704.6471 225.8526 L 706.1675 227.2798 L 707.3927 228.9737 L 709.6358 233.8553 L 712.1469 238.4925 L 713.7948 242.6058 L 715.6129 246.2507 L 716.3177 248.1811 L 716.5809 250.3719 L 716.313 252.5548 L 715.62 254.4693 L 713.9198 258.154 L 713.2935 260.2796 L 712.0814 265.8058 L 711.3432 267.8363 L 709.5977 271.5034 L 708.725 274.6213 L 708.3142 280.3015 L 707.6487 283.3813 L 707.1974 284.3132 L 706.5485 285.1577 L 705.6365 285.8705 L 704.6185 286.3468 L 703.541 286.6405 L 701.2763 286.8548 L 698.9332 286.7294 L 696.5947 286.3261 L 694.3754 285.607 L 690.2367 283.4241 L 688.4424 282.9812 L 686.5683 283.1955 L 685.6956 283.6051 L 684.3704 284.9148 L 680.9021 290.7506 L 678.8482 295.8417 L 676.5384 300.5948 L 675.7907 302.6681 L 674.5786 308.2133 L 673.9606 310.3644 L 671.8151 315.1238 L 671.1257 317.2177 L 670.7126 319.4958 L 670.4435 323.0265 L 670.5697 332.9771 L 662.5388 327.3938 L 660.6516 326.4397 L 658.2644 325.7586 L 654.5258 325.3379 L 649.4144 325.2316 L 632.6013 325.2649 L 628.7912 325.4364 L 626.3088 325.7539 L 625.0991 326.0174 L 622.9571 326.7889 L 618.435 329.2401 L 614.4833 331.0308 L 609.1373 334.1963 L 605.1629 335.9569 L 601.5327 337.8921 L 599.6348 338.7223 L 596.0962 339.4812 L 590.0442 340.0813 L 587.6855 340.594 L 586.5484 341.0227 L 584.7327 342.0879 L 583.1146 343.4405 L 581.6704 344.9788 L 578.9736 348.3157 Z" fill="#000000" fill-opacity="1" stroke="#000000" stroke-width="0" paint-order="fill" stroke-opacity="1" stroke-dasharray="" stroke-linecap="butt" stroke-linejoin="miter" stroke-miterlimit="10" transform="matrix(0.8999999761581421,0,0,0.8999999761581421,39.99991226196289,26.64995002746582)" clip-path="none" style="filter: url(#f1)"/>
<path data-code="210" d="M 320.8935 445.2626 L 317.2287 445.7976 L 306.2272 446.2802 L 302.6422 446.6945 L 300.3573 447.2772 L 295.6984 449.387 L 293.6004 450.0934 L 291.2323 450.5395 L 285.1719 451.2428 L 282.7977 451.7571 L 281.65 452.1572 L 279.7842 453.1224 L 273.912 457.4579 L 267.0372 450.9046 L 263.7963 448.1455 L 262.0663 447.0247 L 258.9194 445.5722 L 257.2513 444.6403 L 254.7164 442.6892 L 248.9621 437.6599 L 242.9589 433.8102 L 242.3933 431.8385 L 241.5301 430.0557 L 238.6202 425.671 L 236.7068 423.1452 L 240.7109 419.8463 L 246.8951 414.4646 L 250.2777 412.0881 L 251.6827 410.807 L 252.6078 409.0877 L 254.2938 403.0535 L 255.1808 401.3152 L 256.1702 399.7928 L 262.1711 397.0273 L 267.5742 393.7443 L 271.4843 391.8155 L 273.3774 390.5359 L 279.6926 385.4098 L 281.7202 384.2906 L 282.8394 383.8921 L 285.1612 383.4111 L 287.546 383.1936 L 297.2736 383.0666 L 302.035 382.6348 L 305.2449 381.668 L 309.8599 379.482 L 313.3651 378.7025 L 317.0442 378.4342 L 326.9206 378.2421 L 330.3068 377.8675 L 333.4274 376.9213 L 337.0887 375.0734 L 339.0556 374.3019 L 344.3861 372.9874 L 346.4531 372.3175 L 351.9574 369.6822 L 354.1017 369.1837 L 356.3068 369.0377 L 358.5107 369.1996 L 360.6479 369.7044 L 365.2307 371.8698 L 367.2083 372.5842 L 369.367 373.0351 L 376.0334 373.8876 L 379.2374 374.8051 L 382.1592 376.6133 L 387.5564 380.96 L 389.5686 382.0839 L 390.683 382.484 L 393.0048 382.9682 L 395.3908 383.1746 L 406.1221 383.2222 L 408.32 383.5079 L 410.3382 384.208 L 411.2299 384.8081 L 411.9324 385.5384 L 412.9635 387.2323 L 414.5911 390.7328 L 416.2378 395.5271 L 415.7627 397.421 L 415.3662 398.2576 L 414.2542 399.8245 L 412.8135 401.1834 L 411.0633 402.2693 L 407.1996 404.0489 L 403.6206 406.1238 L 399.9093 407.9748 L 398.0031 409.2449 L 397.097 410.0736 L 395.5599 411.9691 L 394.9634 413.0152 L 393.106 418.3715 L 391.9356 420.1527 L 391.126 420.7814 L 389.2435 421.5688 L 384.0595 422.5674 L 382.0985 423.2373 L 381.2186 423.7628 L 380.4626 424.4327 L 377.1681 428.5047 L 372.084 433.299 L 369.2705 432.7624 L 367.0393 432.8386 L 365.9296 433.0593 L 359.287 435.6533 L 348.4474 437.3377 L 346.3388 438.0663 L 342.6359 439.8142 L 340.526 440.527 L 338.1436 440.9763 L 330.8092 441.8129 L 328.4255 442.3574 L 320.8935 445.2626 Z" fill="#000000" fill-opacity="1" stroke="#000000" stroke-width="0" paint-order="fill" stroke-opacity="1" stroke-dasharray="" stroke-linecap="butt" stroke-linejoin="miter" stroke-miterlimit="10" transform="matrix(0.8999999761581421,0,0,0.8999999761581421,39.99991226196289,26.64995002746582)" clip-path="none" style="filter: url(#f1)"/>











</svg>