<?xml version="1.0" standalone="no"?>
<!-- Generator: Paintmaps.com , Online SVG vector map maker -->
<svg xmlns="http://www.w3.org/2000/svg" version="1.1" baseProfile="full"   style="background-color:#e0f2f1" width="800" height="500" viewBox="0 0 850 567">

<path data-code="200" d="M 296.238 424.1602 L 296.7043 422.3364 L 297.6405 419.6598 L 298.015 418.8979 L 298.8282 417.7833 L 299.7808 416.7577 L 300.8847 415.7403 L 302.3057 414.5675 L 302.8658 416.3768 L 303.8515 418.9384 L 304.1431 419.3994 L 304.8717 420.2051 L 305.7763 420.8155 L 306.2894 421.0211 L 307.9107 421.3129 L 309.6012 421.3752 L 318.199 421.417 L 319.2425 421.3424 L 320.2157 421.117 L 320.6648 420.9018 L 321.0692 420.5812 L 321.3739 420.177 L 321.7186 419.2501 L 321.8563 418.2334 L 321.8944 416.5905 L 321.7798 410.633 L 321.7685 405.4516 L 323.3259 402.2501 L 323.5977 401.3157 L 323.7909 400.3572 L 324.7271 400.5271 L 325.6406 400.7847 L 326.452 401.1636 L 328.0088 402.0186 L 329.7306 402.7708 L 330.5024 403.2682 L 331.5655 404.1848 L 332.8228 405.5913 L 333.5638 406.7827 L 334.6114 409.8293 L 334.9089 410.9782 L 333.4923 414.8353 L 332.6712 416.459 L 332.3167 417.2887 L 332.0146 418.726 L 331.7551 421.713 L 331.5629 422.6886 L 331.4057 423.1627 L 330.9294 424.069 L 329.9855 425.2899 L 325.9479 429.4224 L 325.2681 430.2089 L 324.6659 431.0413 L 324.2024 431.949 L 324.0534 432.4197 L 323.8772 433.3822 L 323.5956 436.2041 L 323.331 437.0427 L 323.1085 437.4154 L 322.4955 437.9847 L 319.9665 439.5659 L 319.129 439.9454 L 317.7936 440.4154 L 315.8184 441.2382 L 314.7266 440.7155 L 314.0159 440.2366 L 313.0207 439.3878 L 311.1082 437.5647 L 310.1155 436.7351 L 309.4106 436.2815 L 307.7067 435.5129 L 306.9694 435.0402 L 306.2714 434.4749 L 304.287 432.5423 L 296.238 424.1602 Z" fill="#000000" fill-opacity="1" stroke="#000000" stroke-width="0" paint-order="fill" stroke-opacity="1" stroke-dasharray="" stroke-linecap="butt" stroke-linejoin="miter" stroke-miterlimit="10" transform="matrix(1.100000023841858,0,0,1.100000023841858,-42.49998092651367,-28.3499698638916)" clip-path="none" style="filter: url(#f1)"/>
<path data-code="201" d="M 373.3993 375.8329 L 373.35 376.5097 L 373.4599 376.7762 L 373.6634 377.0037 L 374.2512 377.3065 L 375.7957 377.7196 L 376.9837 378.2259 L 379.2034 379.5358 L 379.8842 380.0585 L 380.1658 380.3881 L 381.9827 383.4114 L 383.2415 385.9778 L 384.9777 388.303 L 385.4438 389.0874 L 385.6858 389.9684 L 385.5938 390.7953 L 385.1416 391.8853 L 384.3057 393.2672 L 383.9881 393.5761 L 383.5724 393.8372 L 382.645 394.1283 L 381.641 394.2414 L 380.0466 394.2674 L 365.637 393.979 L 364.1562 394.1366 L 363.2667 394.4818 L 362.8773 394.7915 L 362.572 395.2005 L 362.2329 396.137 L 362.0736 397.7004 L 362.1456 404.6425 L 362.29 406.9403 L 362.4914 408.0488 L 362.8295 409.0141 L 364.8257 412.8205 L 359.2635 412.9739 L 357.5613 412.9356 L 355.8929 412.7951 L 354.3047 412.4306 L 352.3896 411.5434 L 351.3702 411.1831 L 350.2712 410.9748 L 349.1366 410.8666 L 346.8188 410.7946 L 340.9499 410.8166 L 334.9089 410.9782 L 334.6114 409.8293 L 333.5638 406.7827 L 332.8228 405.5913 L 331.5655 404.1848 L 330.5024 403.2682 L 329.7306 402.7708 L 328.0088 402.0186 L 326.452 401.1636 L 325.6406 400.7847 L 324.7271 400.5271 L 323.7909 400.3572 L 324.2903 398.4828 L 325.2008 396.5166 L 325.5517 395.4965 L 325.804 393.907 L 325.878 392.271 L 325.7927 390.0904 L 325.5343 388.5099 L 325.1854 387.4994 L 324.3006 385.527 L 323.9522 383.9177 L 323.794 381.078 L 323.8325 375.2677 L 325.1828 374.0544 L 325.9433 373.5864 L 326.3816 373.4165 L 326.8276 373.3035 L 327.7185 373.2391 L 328.5699 373.4063 L 328.9625 373.5995 L 329.3114 373.8851 L 329.5914 374.2825 L 329.7656 374.7155 L 329.929 375.641 L 330.0497 377.6395 L 330.2157 378.663 L 330.5687 379.5803 L 331.0794 380.3374 L 332.0793 381.2602 L 335.2141 383.0079 L 336.0183 383.3717 L 336.4699 383.4984 L 337.3768 383.6053 L 338.2539 383.5224 L 338.6686 383.3984 L 339.0555 383.2065 L 339.3987 382.9346 L 339.8457 382.22 L 340.505 379.6954 L 340.9391 378.8158 L 341.5115 377.9848 L 342.5397 376.8482 L 343.3238 376.1932 L 344.2081 375.678 L 345.2167 375.3663 L 346.2598 375.2252 L 347.8506 375.1861 L 350.4823 375.4006 L 351.9606 375.774 L 353.5036 376.505 L 354.2908 376.7982 L 355.1807 376.9119 L 355.6298 376.8865 L 356.474 376.681 L 358.0083 375.9781 L 358.8946 375.665 L 359.9161 375.4657 L 361.5167 375.3225 L 364.8031 375.2608 L 369.2055 375.3355 L 371.3604 375.5116 L 373.3993 375.8329 Z" fill="#000000" fill-opacity="1" stroke="#000000" stroke-width="0" paint-order="fill" stroke-opacity="1" stroke-dasharray="" stroke-linecap="butt" stroke-linejoin="miter" stroke-miterlimit="10" transform="matrix(1.100000023841858,0,0,1.100000023841858,-42.49998092651367,-28.3499698638916)" clip-path="none" style="filter: url(#f1)"/>
<path data-code="202" d="M 205.724 209.3911 L 206.3496 209.3808 L 207.116 209.2041 L 208.9811 208.2902 L 210.2477 207.7496 L 211.0528 207.3084 L 211.7768 206.7699 L 212.5039 206.128 L 215.2423 203.4089 L 216.3116 202.4956 L 217.0764 201.9982 L 218.7923 201.244 L 220.7194 200.1245 L 222.4885 199.3367 L 223.2191 198.9359 L 223.9603 198.3851 L 224.6658 197.7616 L 227.3865 195.0507 L 228.4506 194.0916 L 229.4186 193.39 L 231.5232 192.1877 L 232.1031 193.8641 L 232.77 195.4837 L 233.4434 197.3122 L 234.1887 198.5015 L 235.1023 199.597 L 237.1146 201.6543 L 238.549 202.8717 L 239.3179 203.3582 L 240.687 203.9638 L 241.4127 204.3598 L 242.1534 204.9024 L 242.8599 205.5169 L 244.8759 207.5249 L 252.6772 215.6995 L 253.6666 216.6805 L 254.7086 217.5814 L 255.7635 218.2384 L 257.1796 218.8571 L 259.0959 219.8888 L 259.9982 220.2074 L 261.0065 220.3821 L 262.0427 220.4561 L 265.734 220.4506 L 267.2978 220.4999 L 268.3177 220.6308 L 269.3019 220.9233 L 270.186 221.4282 L 271.3472 222.4291 L 272.371 223.5774 L 273.5659 225.2079 L 272.1657 226.2266 L 271.0985 227.1714 L 269.7556 228.5183 L 268.5315 229.944 L 267.7887 231.1018 L 266.8333 233.2749 L 264.2652 237.2587 L 263.1207 237.7999 L 261.1969 238.9235 L 259.4692 239.6565 L 257.1472 240.9623 L 255.4267 241.7221 L 254.2842 242.5196 L 252.9393 243.8425 L 252.0704 244.9462 L 251.6026 245.732 L 250.8444 247.4481 L 250.6101 247.8277 L 250.0442 248.5217 L 249.3762 249.1102 L 249.0098 249.3547 L 247.3541 250.1481 L 246.2537 250.9031 L 244.8908 252.1732 L 243.1716 254.1497 L 241.3863 252.1445 L 240.0324 250.8743 L 239.3079 250.3385 L 238.9279 250.1131 L 237.2264 249.3397 L 236.4795 248.8581 L 235.4283 247.9736 L 233.7709 246.3623 L 222.686 234.7917 L 220.9557 233.044 L 219.8795 232.0787 L 219.1237 231.521 L 218.7283 231.2854 L 217.3664 230.6743 L 216.6419 230.2769 L 215.9013 229.7329 L 215.1927 229.1164 L 213.8239 227.7777 L 207.396 221.1809 L 206.4215 220.1313 L 205.8247 219.4003 L 205.313 218.6125 L 204.9574 217.741 L 204.7727 216.8244 L 204.6743 215.4097 L 204.7213 213.4955 L 204.8878 212.0657 L 205.1028 211.1443 L 205.724 209.3911 Z" fill="#000000" fill-opacity="1" stroke="#000000" stroke-width="0" paint-order="fill" stroke-opacity="1" stroke-dasharray="" stroke-linecap="butt" stroke-linejoin="miter" stroke-miterlimit="10" transform="matrix(1.100000023841858,0,0,1.100000023841858,-42.49998092651367,-28.3499698638916)" clip-path="none" style="filter: url(#f1)"/>
<path data-code="203" d="M 473.7357 241.6036 L 468.8894 241.5645 L 467.3114 241.6673 L 466.2894 241.8482 L 465.3748 242.1681 L 463.4136 243.206 L 461.7061 243.987 L 460.8465 244.5625 L 460.0521 245.2469 L 459.3153 246.0039 L 458.651 246.8226 L 457.945 248.0407 L 457.6459 248.9807 L 457.2657 250.8921 L 457.0155 251.8197 L 455.9529 254.3148 L 455.7242 255.3452 L 455.6184 256.4153 L 455.4606 260.7397 L 455.2618 261.7748 L 454.8713 262.6846 L 454.3271 263.4177 L 453.6633 264.0254 L 453.2949 264.2768 L 451.2468 265.2537 L 449.2958 266.3355 L 447.5463 267.0514 L 446.0921 267.8448 L 444.2845 268.46 L 441.9723 269.1088 L 441.1461 269.4602 L 440.0203 270.0693 L 439.2265 270.3879 L 438.3119 270.4995 L 437.8484 270.4564 L 436.9554 270.1563 L 436.1625 269.6363 L 435.4324 268.9985 L 432.2498 265.8018 L 431.4791 265.1921 L 430.6492 264.7098 L 429.3714 264.1295 L 427.4194 263.071 L 426.5443 262.7607 L 425.5968 262.5867 L 422.6922 262.325 L 421.289 262.0043 L 420.4751 261.6296 L 418.9223 260.7684 L 417.2041 260.0183 L 414.8909 258.6638 L 413.167 257.9225 L 411.2289 256.8065 L 409.5528 256.0392 L 408.7029 255.5672 L 407.5237 254.6129 L 406.8043 253.8812 L 406.1446 253.0961 L 405.3261 251.8231 L 404.7655 250.505 L 404.3216 249.6322 L 403.743 248.7998 L 402.7282 247.6468 L 401.9837 246.9473 L 401.1893 246.3307 L 400.3507 245.8477 L 399.0909 245.236 L 398.2749 244.6927 L 395.9576 242.7593 L 395.1298 242.1976 L 394.6818 241.9722 L 393.7528 241.6844 L 392.2961 241.5008 L 389.7989 241.4563 L 384.9803 241.5426 L 384.3303 239.6339 L 383.1567 237.1607 L 382.8187 235.5871 L 382.684 233.3852 L 382.6635 230.0138 L 382.701 226.6404 L 382.8433 224.4385 L 383.1758 222.8676 L 384.1027 220.8055 L 384.4151 219.9292 L 384.931 217.5492 L 385.2048 216.6134 L 386.4108 214.1683 L 387.3644 211.9993 L 388.9588 209.5281 L 390.972 209.9714 L 393.1804 210.1502 L 399.9433 210.2201 L 401.6219 210.1851 L 403.2713 210.0591 L 404.8477 209.7076 L 407.2575 208.5847 L 410.8661 207.5407 L 413.2369 206.3883 L 413.6993 206.2541 L 414.6494 206.1157 L 416.0834 206.1917 L 417.0068 206.4596 L 417.7991 206.8967 L 420.1349 208.8245 L 421.4148 209.6562 L 422.3074 209.9762 L 424.6067 210.5174 L 425.4617 210.8476 L 427.4194 211.8986 L 429.1448 212.6337 L 431.4606 213.984 L 433.1587 214.791 L 433.985 215.3405 L 436.31 217.3012 L 437.5319 218.161 L 439.2285 218.9701 L 441.5345 220.3355 L 443.2466 221.0905 L 445.1909 222.1565 L 446.0844 222.4846 L 447.5832 222.7292 L 449.1304 222.8053 L 456.4986 222.8114 L 459.097 222.7224 L 460.5243 222.5326 L 461.4389 222.2819 L 463.8395 221.1651 L 464.8682 220.8849 L 467.0437 220.6506 L 469.8271 220.628 L 471.4826 220.7246 L 473.0832 220.9939 L 474.0065 221.3207 L 475.5896 222.101 L 476.5042 222.4333 L 480.2417 223.1266 L 481.9836 223.6829 L 481.5335 224.7249 L 480.6605 226.3335 L 480.2803 227.1666 L 480.0136 228.1045 L 479.5383 230.5057 L 479.2197 231.395 L 478.1741 233.4071 L 477.612 234.73 L 477.1495 235.6001 L 476.5669 236.4256 L 474.9894 238.422 L 474.4468 239.2729 L 474.063 240.1848 L 473.7357 241.6036 Z" fill="#000000" fill-opacity="1" stroke="#000000" stroke-width="0" paint-order="fill" stroke-opacity="1" stroke-dasharray="" stroke-linecap="butt" stroke-linejoin="miter" stroke-miterlimit="10" transform="matrix(1.100000023841858,0,0,1.100000023841858,-42.49998092651367,-28.3499698638916)" clip-path="none" style="filter: url(#f1)"/>
<path data-code="204" d="M 303.6609 341.7946 L 303.4816 342.7585 L 303.2206 343.6985 L 302.012 346.1395 L 301.3058 347.9269 L 300.0164 350.3323 L 299.2682 352.1019 L 298.7855 352.8966 L 298.2116 353.6399 L 296.8982 354.9909 L 295.7974 355.8404 L 294.9763 356.2782 L 293.2907 357.0236 L 291.3479 358.1204 L 289.6256 358.8747 L 288.8074 359.3974 L 288.0359 360.0216 L 286.2285 361.7994 L 284.5994 363.7307 L 283.8295 364.9686 L 283.0731 366.6773 L 282.566 367.4151 L 281.9291 368.0509 L 281.1681 368.5435 L 280.7198 368.7216 L 280.2563 368.8463 L 279.3012 368.9833 L 277.325 369.0354 L 272.2618 368.9114 L 269.7546 368.9347 L 268.2912 369.0888 L 267.3566 369.3347 L 266.9396 369.5108 L 264.9984 370.5809 L 263.2979 371.3674 L 262.1256 372.1991 L 260.6803 373.546 L 256.4531 377.8751 L 254.1111 380.0414 L 253.4017 381.6171 L 252.697 383.4189 L 252.1824 384.2972 L 251.2254 385.5009 L 250.1153 386.5608 L 249.2799 387.1417 L 248.3131 387.5514 L 247.2639 387.7535 L 246.1967 387.8138 L 245.1269 387.772 L 243.5564 387.5083 L 242.6418 387.1678 L 240.6757 386.1607 L 239.7829 385.8668 L 237.4872 385.2954 L 236.6411 384.9624 L 234.6519 383.9944 L 233.1484 383.6519 L 231.5738 383.5292 L 229.9707 383.497 L 218.6374 383.5265 L 219.1309 381.6528 L 220.212 379.1665 L 220.4679 378.104 L 220.6639 375.8678 L 220.7276 371.2749 L 220.8149 369.5553 L 220.9475 368.4222 L 221.2658 366.8403 L 222.1154 364.9542 L 222.4083 364.0198 L 222.5971 362.9456 L 222.882 360.2202 L 223.0737 359.1597 L 223.3784 358.2246 L 224.1224 356.5844 L 224.4135 355.6849 L 224.6426 354.2058 L 224.7575 352.1704 L 225.223 350.2775 L 226.1623 348.2181 L 226.479 347.3343 L 227.2688 344.0143 L 228.1867 341.9494 L 228.4919 341.0074 L 228.6831 339.9435 L 228.9677 337.2243 L 229.3053 335.6473 L 230.389 333.1576 L 231.2005 329.8507 L 231.5199 328.9751 L 232.4486 326.9144 L 232.7037 325.8799 L 232.8782 324.2541 L 232.9321 322.5887 L 232.9141 312.4527 L 231.7467 310.9708 L 231.2542 310.1679 L 230.8499 309.2533 L 230.2017 307.3398 L 231.9071 308.1359 L 232.7495 308.5949 L 233.5145 309.1307 L 234.9401 310.3645 L 238.2931 313.8681 L 240.0295 315.487 L 241.1561 316.2707 L 242.5175 316.8948 L 243.2376 317.2956 L 243.9736 317.8382 L 246.0908 319.6708 L 246.8302 320.2182 L 247.5586 320.6252 L 248.9307 321.2397 L 251.2257 322.6366 L 252.9154 323.3484 L 254.369 324.0602 L 255.1459 324.2212 L 255.5472 324.1801 L 256.3102 323.9095 L 257.3823 323.3649 L 258.6255 322.8182 L 259.434 322.366 L 260.1711 321.8138 L 262.2937 319.9784 L 263.0318 319.4338 L 263.8349 318.9837 L 265.1074 318.3774 L 266.2866 317.5566 L 268.1178 315.8782 L 270.5893 313.3495 L 271.9247 311.8573 L 272.7941 310.6701 L 273.2393 309.8082 L 273.7848 308.4812 L 274.6236 306.8794 L 274.9974 306.0457 L 275.2617 305.105 L 275.7468 302.7113 L 276.0643 301.8358 L 277.0313 299.7901 L 277.2762 298.8296 L 277.4044 297.8286 L 277.4619 296.8065 L 277.4481 294.7396 L 277.3268 293.1933 L 276.952 291.0065 L 279.5838 289.8733 L 280.5279 289.6726 L 281.9717 289.6383 L 282.9179 289.7856 L 283.3755 289.9206 L 285.7434 291.0976 L 288.4906 291.9238 L 290.086 294.0072 L 291.7449 295.9919 L 292.6751 297.2148 L 293.1877 298.076 L 293.954 299.8305 L 294.7713 301.1068 L 295.7784 302.2619 L 296.9309 303.258 L 297.8098 303.7609 L 298.273 303.9274 L 299.7171 304.1767 L 302.2032 304.1952 L 304.6202 303.9911 L 305.43 305.8155 L 306.1974 308.1332 L 307.3198 310.6118 L 307.661 312.2609 L 307.7936 315.1506 L 307.7545 329.8897 L 307.6338 331.6127 L 307.2772 333.2604 L 306.0877 335.7069 L 305.3488 337.4723 L 304.3564 339.4064 L 303.9915 340.3703 L 303.6609 341.7946 Z" fill="#000000" fill-opacity="1" stroke="#000000" stroke-width="0" paint-order="fill" stroke-opacity="1" stroke-dasharray="" stroke-linecap="butt" stroke-linejoin="miter" stroke-miterlimit="10" transform="matrix(1.100000023841858,0,0,1.100000023841858,-42.49998092651367,-28.3499698638916)" clip-path="none" style="filter: url(#f1)"/>
<path data-code="205" d="M 391.4246 452.0791 L 387.0417 452.991 L 386.1754 453.3185 L 384.1859 454.2989 L 380.5429 455.2854 L 378.146 456.4384 L 377.1517 456.7056 L 376.1164 456.846 L 373.4712 456.8988 L 371.3897 456.6741 L 370.4047 456.3987 L 368.0155 455.2484 L 367.0094 454.9709 L 365.9556 454.8175 L 363.7836 454.6942 L 359.9325 454.6805 L 358.3042 454.7579 L 356.7237 455.0011 L 355.7973 455.3251 L 353.835 456.3644 L 352.1353 457.1619 L 351.3039 457.725 L 350.1669 458.7527 L 349.1572 459.9194 L 348.5843 460.762 L 348.147 461.6465 L 347.4297 463.3784 L 345.9494 465.9934 L 345.3971 466.6408 L 345.0302 466.8834 L 344.6279 467.0581 L 343.7559 467.254 L 342.347 467.2937 L 340.8754 467.1156 L 338.8957 466.6587 L 338.0633 465.5481 L 336.8491 464.167 L 333.331 460.462 L 331.3713 458.5177 L 330.6915 457.9285 L 329.9804 457.4106 L 329.2692 457.029 L 327.9009 456.4343 L 327.5335 456.2192 L 326.8317 455.7067 L 325.5106 454.5003 L 322.644 451.5455 L 321.3348 450.2671 L 320.2851 449.3847 L 319.1685 448.5742 L 318.165 446.6183 L 317.8429 445.8571 L 317.3203 444.3835 L 315.8184 441.2382 L 317.7936 440.4154 L 319.129 439.9454 L 319.9665 439.5659 L 322.4955 437.9847 L 323.1085 437.4154 L 323.331 437.0427 L 323.5956 436.2041 L 323.8772 433.3822 L 324.0534 432.4197 L 324.2024 431.949 L 324.6659 431.0413 L 325.2681 430.2089 L 325.9479 429.4224 L 329.9855 425.2899 L 330.9294 424.069 L 331.4057 423.1627 L 331.5629 422.6886 L 331.7551 421.713 L 332.0146 418.726 L 332.3167 417.2887 L 332.6712 416.459 L 333.4923 414.8353 L 334.9089 410.9782 L 340.9499 410.8166 L 346.8188 410.7946 L 349.1366 410.8666 L 350.2712 410.9748 L 351.3702 411.1831 L 352.3896 411.5434 L 354.3047 412.4306 L 355.8929 412.7951 L 357.5613 412.9356 L 359.2635 412.9739 L 364.8257 412.8205 L 364.4619 414.5764 L 364.1222 417.0728 L 363.8232 418.5479 L 363.462 419.5186 L 362.5325 421.4814 L 362.161 423.038 L 362.0685 424.6034 L 362.1728 425.5995 L 362.5047 426.523 L 362.8079 426.9286 L 363.2035 427.2438 L 363.6398 427.4534 L 364.1012 427.5877 L 365.0779 427.7158 L 374.9978 427.5569 L 376.6302 427.6685 L 378.1953 428.0138 L 381.8373 429.8204 L 382.9307 430.4891 L 384.4305 431.7805 L 387.0551 434.4715 L 387.1219 435.5978 L 387.2971 436.124 L 387.7328 436.8351 L 388.3258 437.4483 L 389.0595 437.9429 L 392.2391 439.5501 L 393.1131 439.8646 L 394.5204 440.153 L 396.5397 442.2453 L 396.0891 444.1594 L 394.896 446.6361 L 393.9675 448.8188 L 392.2704 451.5804 L 391.8013 451.9538 L 391.4246 452.0791 Z" fill="#000000" fill-opacity="1" stroke="#000000" stroke-width="0" paint-order="fill" stroke-opacity="1" stroke-dasharray="" stroke-linecap="butt" stroke-linejoin="miter" stroke-miterlimit="10" transform="matrix(1.100000023841858,0,0,1.100000023841858,-42.49998092651367,-28.3499698638916)" clip-path="none" style="filter: url(#f1)"/>
<path data-code="206" d="M 328.3351 99.284 L 328.4014 110.5305 L 328.3027 112.1734 L 328.107 113.2415 L 327.9395 113.7608 L 327.4673 114.6808 L 326.5265 115.8921 L 325.4074 116.9293 L 324.5642 117.4918 L 324.1053 117.7131 L 323.59 117.8891 L 322.5305 118.0899 L 320.9001 118.1858 L 313.0952 118.1317 L 310.8893 118.0577 L 309.8103 117.9515 L 308.7657 117.7487 L 307.8542 117.4246 L 305.8693 116.4737 L 304.3407 116.112 L 302.7317 115.964 L 299.9894 115.9017 L 297.2448 115.9469 L 295.6301 116.0777 L 294.0879 116.4258 L 292.0855 117.3705 L 291.237 117.6918 L 288.9356 118.2344 L 288.0312 118.5201 L 285.6653 119.7608 L 283.9512 120.5261 L 281.6372 121.8798 L 279.9278 122.6485 L 278.3673 123.4912 L 277.5465 123.8556 L 276.0397 124.1886 L 271.8459 124.4236 L 270.3152 124.6586 L 269.4101 124.9669 L 267.819 125.7506 L 266.9633 126.087 L 264.6364 126.7097 L 262.8124 127.2852 L 263.6936 124.9477 L 265.1323 122.023 L 266.1067 118.2591 L 267.1909 115.7756 L 267.4496 114.7254 L 267.5907 113.632 L 267.6849 111.9507 L 267.7135 109.1096 L 267.6605 106.8447 L 267.5205 105.1813 L 267.1739 103.6008 L 266.2624 101.5448 L 265.9562 100.6213 L 265.7648 99.5827 L 265.6625 98.5105 L 265.6189 94.1026 L 265.8591 89.7036 L 267.2911 90.497 L 269.49 91.3534 L 271.0351 92.196 L 271.8464 92.566 L 272.7756 92.7955 L 274.2128 92.8503 L 275.1616 92.7071 L 276.0392 92.3995 L 277.9788 91.341 L 279.7004 90.5895 L 281.6334 89.4645 L 283.6686 88.4533 L 284.3785 87.9101 L 284.9876 87.2442 L 285.4652 86.4673 L 285.6471 86.0178 L 286.4217 82.752 L 287.3237 80.6864 L 287.6099 79.7773 L 287.8244 78.2879 L 287.919 76.2456 L 289.7374 75.7346 L 290.9549 75.2029 L 292.1164 75.8606 L 293.4079 76.4066 L 294.2521 76.8574 L 295.4223 77.7618 L 296.8777 79.1669 L 298.2455 80.67 L 299.1606 81.86 L 299.6567 82.7033 L 300.4051 84.4681 L 301.1501 85.639 L 302.067 86.7111 L 303.0908 87.6751 L 304.2222 88.4581 L 305.941 89.2069 L 308.2688 90.5169 L 309.984 91.2753 L 310.783 91.7952 L 312.2566 93.0969 L 316.4597 97.4432 L 317.1888 98.1118 L 317.9554 98.7078 L 318.3603 98.962 L 320.0528 99.754 L 321.9504 100.7823 L 322.8187 101.0173 L 323.2806 101.0454 L 324.1937 100.9159 L 324.9886 100.5864 L 326.5167 99.7862 L 327.4077 99.4971 L 328.3351 99.284 Z" fill="#000000" fill-opacity="1" stroke="#000000" stroke-width="0" paint-order="fill" stroke-opacity="1" stroke-dasharray="" stroke-linecap="butt" stroke-linejoin="miter" stroke-miterlimit="10" transform="matrix(1.100000023841858,0,0,1.100000023841858,-42.49998092651367,-28.3499698638916)" clip-path="none" style="filter: url(#f1)"/>
<path data-code="207" d="M 388.9588 209.5281 L 388.4733 208.2449 L 387.2642 205.7827 L 386.9893 204.8496 L 386.5927 202.9375 L 386.3281 202.0099 L 385.2367 199.5292 L 384.9854 198.4933 L 384.8549 197.4143 L 384.7645 195.1959 L 384.7619 190.6901 L 384.8164 188.4532 L 384.9515 186.8124 L 385.3009 185.2532 L 386.2566 183.2095 L 386.5865 182.2833 L 386.8013 181.2364 L 386.9272 180.1567 L 387.013 178.5173 L 386.9842 176.8916 L 386.8527 175.8352 L 386.5392 174.8212 L 386.047 174.0286 L 385.4011 173.3805 L 384.6252 172.8988 L 384.1423 172.7207 L 382.6342 172.4939 L 379.5096 172.4638 L 377.9579 172.3227 L 376.9575 172.0445 L 376.4802 171.8171 L 375.5959 171.2313 L 374.3735 170.1701 L 372.4354 168.2183 L 370.9442 166.6014 L 369.9341 165.3333 L 369.3848 164.4208 L 369.0364 163.4582 L 368.8864 162.495 L 368.854 161.1214 L 368.6726 158.3933 L 368.669 156.3305 L 368.8391 154.8233 L 369.1217 153.86 L 369.5929 152.9831 L 370.1864 152.1864 L 373.2621 148.8616 L 373.8838 148.0847 L 374.412 147.2557 L 375.1884 145.4971 L 376.4149 143.0575 L 376.6893 142.1155 L 377.2005 139.732 L 377.516 138.8736 L 378.0853 137.6952 L 378.3921 136.8683 L 378.483 136.3997 L 378.4928 135.4433 L 378.4101 134.9692 L 378.1074 134.1293 L 377.3151 132.5693 L 376.7473 131.2916 L 376.2685 130.4921 L 375.674 129.8098 L 374.988 129.2323 L 374.208 128.7732 L 372.9615 128.1847 L 372.1394 127.6483 L 371.363 127.0043 L 370.2845 125.9123 L 369.6412 125.1183 L 369.0976 124.2687 L 368.0401 122.1059 L 367.4672 121.2831 L 365.9062 119.286 L 365.3667 118.4276 L 365.1504 117.9631 L 364.9834 117.4657 L 364.781 116.4319 L 364.6546 114.2917 L 364.7363 108.2629 L 364.9402 104.4359 L 367.3352 106.3542 L 368.4599 107.0653 L 369.335 107.3421 L 369.803 107.3853 L 370.2717 107.364 L 371.1508 107.1366 L 374.2748 105.5266 L 375.0466 105.0265 L 375.7043 104.4078 L 376.2597 103.6953 L 376.6965 102.8849 L 377.4878 101.1509 L 378.054 100.3151 L 379.0549 99.1552 L 379.803 98.4619 L 380.6298 97.8761 L 381.566 97.4712 L 382.5653 97.2671 L 384.6304 97.1465 L 388.3181 97.1664 L 390.4119 97.2397 L 391.9415 97.4267 L 392.4343 97.5432 L 393.3258 97.885 L 395.2562 98.9819 L 398.8098 100.5672 L 399.5564 100.6686 L 401.3347 100.5172 L 402.4744 101.1468 L 403.6639 102.0922 L 407.3819 105.8006 L 408.9434 107.1407 L 412.5324 109.0802 L 413.3376 109.4022 L 413.7974 109.4885 L 414.7311 109.4618 L 415.1914 109.3433 L 416.0357 108.9123 L 417.1522 107.9916 L 419.9705 105.1306 L 421.1096 104.1804 L 425.1334 101.999 L 426.0141 101.6866 L 426.9667 101.5393 L 427.9327 101.5345 L 428.8894 101.6716 L 429.3554 101.8045 L 430.1786 102.1731 L 431.7087 103.0219 L 433.3612 103.8241 L 433.7306 104.0824 L 434.3935 104.7004 L 434.9371 105.441 L 435.1498 105.8575 L 435.4422 106.8392 L 435.5706 107.8621 L 435.6148 109.9722 L 435.4201 118.6147 L 435.4802 120.1904 L 435.7499 121.7017 L 436.1507 122.5834 L 436.4107 122.9561 L 437.0222 123.6069 L 437.7246 124.1242 L 439.6838 125.1532 L 440.6672 126.0418 L 441.2006 126.7639 L 441.4277 127.1811 L 443.2014 130.9046 L 443.5117 132.4316 L 443.6032 134.0218 L 443.5867 136.7272 L 443.4239 142.16 L 443.5184 144.205 L 443.7712 145.1504 L 443.9742 145.5409 L 444.5183 146.1829 L 444.8569 146.422 L 445.2418 146.5884 L 445.6703 146.6563 L 446.1153 146.596 L 446.8644 146.2103 L 447.5257 145.6369 L 449.5049 143.524 L 450.5901 142.5046 L 451.3907 141.936 L 452.2842 141.5393 L 453.7203 141.2721 L 457.1814 141.1234 L 458.6587 140.9515 L 459.9612 140.5555 L 461.9461 139.6272 L 462.9542 139.3607 L 464.0081 139.2168 L 467.277 139.11 L 476.1106 139.197 L 477.7338 139.1195 L 478.7907 138.9791 L 479.3055 138.8633 L 480.2222 138.5304 L 482.1716 137.4739 L 483.8775 136.7073 L 486.2329 135.4433 L 487.1372 135.1467 L 490.0814 134.4239 L 490.0398 142.2908 L 490.1585 143.8111 L 490.3589 144.7935 L 490.5202 145.2662 L 490.7386 145.7287 L 491.2832 146.583 L 492.8632 148.5643 L 493.6977 149.8146 L 494.4787 151.5657 L 495.7817 153.9621 L 496.6979 156.1524 L 497.7851 158.1501 L 498.5081 159.93 L 499.8019 162.3306 L 500.5248 164.1084 L 501.8078 166.5172 L 502.4989 168.332 L 504.0203 171.704 L 503.7162 172.4885 L 503.4973 172.9016 L 502.9603 173.6983 L 502.0087 174.8431 L 499.9699 177.0978 L 499.0383 178.2693 L 498.526 179.0921 L 497.7199 180.7918 L 497.2045 181.5228 L 496.2385 182.4402 L 495.4781 182.9046 L 494.2696 183.5151 L 493.562 184.0344 L 492.6464 185.0099 L 491.9846 186.0855 L 490.42 189.5062 L 490.1616 190.4654 L 489.7921 192.4035 L 489.5332 193.3414 L 488.4197 195.8159 L 487.5133 199.6073 L 486.3855 202.0763 L 485.4663 205.8766 L 484.5357 207.9435 L 484.2305 208.8745 L 484.0363 209.9323 L 483.7326 212.6439 L 483.5333 213.7024 L 483.2255 214.6362 L 482.3201 216.7045 L 482.0072 218.1555 L 481.8752 220.6945 L 481.9836 223.6829 L 480.2417 223.1266 L 476.5042 222.4333 L 475.5896 222.101 L 474.0065 221.3207 L 473.0832 220.9939 L 471.4826 220.7246 L 469.8271 220.628 L 467.0437 220.6506 L 464.8682 220.8849 L 463.8395 221.1651 L 461.4389 222.2819 L 460.5243 222.5326 L 459.097 222.7224 L 456.4986 222.8114 L 449.1304 222.8053 L 447.5832 222.7292 L 446.0844 222.4846 L 445.1909 222.1565 L 443.2466 221.0905 L 441.5345 220.3355 L 439.2285 218.9701 L 437.5319 218.161 L 436.31 217.3012 L 433.985 215.3405 L 433.1587 214.791 L 431.4606 213.984 L 429.1448 212.6337 L 427.4194 211.8986 L 425.4617 210.8476 L 424.6067 210.5174 L 422.3074 209.9762 L 421.4148 209.6562 L 420.1349 208.8245 L 417.7991 206.8967 L 417.0068 206.4596 L 416.0834 206.1917 L 414.6494 206.1157 L 413.6993 206.2541 L 413.2369 206.3883 L 410.8661 207.5407 L 407.2575 208.5847 L 404.8477 209.7076 L 403.2713 210.0591 L 401.6219 210.1851 L 399.9433 210.2201 L 393.1804 210.1502 L 390.972 209.9714 L 388.9588 209.5281 Z" fill="#000000" fill-opacity="1" stroke="#000000" stroke-width="0" paint-order="fill" stroke-opacity="1" stroke-dasharray="" stroke-linecap="butt" stroke-linejoin="miter" stroke-miterlimit="10" transform="matrix(1.100000023841858,0,0,1.100000023841858,-42.49998092651367,-28.3499698638916)" clip-path="none" style="filter: url(#f1)"/>
<path data-code="208" d="M 373.3993 375.8329 L 370.9751 371.3893 L 370.6406 370.4446 L 370.5265 369.9178 L 370.3513 368.29 L 370.2943 366.0641 L 370.2896 360.4456 L 370.4191 358.2499 L 370.6267 357.1873 L 370.8004 356.6728 L 371.2818 355.763 L 371.8933 354.9409 L 372.5823 354.1777 L 373.7101 353.1213 L 376.0845 351.3866 L 379.3642 355.5527 L 380.0743 356.7119 L 380.6236 358.0437 L 381.0593 358.9343 L 381.9328 360.1922 L 382.9497 361.3232 L 383.7029 361.9659 L 384.1176 362.2296 L 384.5703 362.4338 L 385.0389 362.553 L 385.5152 362.59 L 385.991 362.5455 L 386.4575 362.4139 L 386.867 362.2098 L 387.5597 361.6404 L 388.0992 360.9184 L 388.3068 360.5094 L 388.5863 359.5865 L 388.9023 357.6909 L 389.1361 356.7639 L 390.2346 354.2716 L 390.5527 352.8027 L 390.675 350.7536 L 390.563 348.1852 L 390.4104 347.1938 L 390.1468 346.2587 L 389.2085 344.3021 L 388.9758 343.4238 L 388.9783 342.4687 L 389.2517 341.5363 L 389.4773 341.1081 L 390.0358 340.3107 L 391.0244 339.1919 L 392.8382 337.4244 L 393.6012 336.7708 L 394.3976 336.1871 L 395.2444 335.7233 L 396.5279 335.1574 L 398.073 334.286 L 398.891 333.8996 L 399.8282 333.6434 L 401.2941 333.4721 L 402.7883 333.431 L 404.2825 333.4748 L 405.2644 333.57 L 406.2217 333.7584 L 407.1003 334.0887 L 409.0374 335.1739 L 410.7346 335.9693 L 411.5495 336.5166 L 412.6881 337.508 L 418.4326 343.4895 L 419.5415 344.546 L 420.7155 345.4695 L 421.5567 345.9353 L 423.2286 346.7115 L 425.1575 347.8365 L 426.8788 348.5791 L 429.1884 349.939 L 430.9 350.6974 L 432.8376 351.7806 L 433.7116 352.1087 L 434.6648 352.2964 L 435.6462 352.3923 L 439.1658 352.465 L 442.6855 352.3992 L 443.6669 352.3047 L 444.6206 352.1176 L 445.4946 351.7908 L 447.4322 350.705 L 449.1412 349.9445 L 451.46 348.5962 L 454.4063 347.4466 L 456.2298 346.876 L 458.094 349.0429 L 458.8493 350.0959 L 461.0048 354.6484 L 461.2581 355.6918 L 461.4138 357.3264 L 461.3886 365.7421 L 461.4965 367.3884 L 461.6774 368.4496 L 461.9821 369.3902 L 462.9059 371.4435 L 463.169 372.3711 L 463.6818 374.7559 L 464.006 375.6424 L 465.0321 377.6621 L 465.9847 379.8427 L 467.1927 381.8151 L 468.4968 384.1862 L 465.2556 383.793 L 461.2499 383.6519 L 459.0399 383.7718 L 458.0246 383.9917 L 457.5524 384.176 L 456.7616 384.6747 L 456.4169 384.9789 L 455.826 385.6681 L 455.3671 386.4669 L 454.5676 388.1707 L 451.9471 391.8977 L 450.9313 394.0276 L 450.4134 394.7614 L 449.7696 395.3923 L 449.005 395.8822 L 448.5395 396.0665 L 447.0669 396.333 L 445.0157 396.3823 L 438.7229 396.2514 L 437.1768 396.3104 L 436.1687 396.433 L 435.1971 396.6831 L 434.7778 396.8564 L 432.8232 397.9066 L 431.1178 398.6856 L 430.2844 399.2412 L 429.1422 400.2586 L 428.1197 401.4116 L 427.535 402.2494 L 427.0864 403.1421 L 426.5695 404.5075 L 425.1072 407.8892 L 422.6552 406.2018 L 420.1853 403.993 L 419.0949 403.1339 L 418.371 402.7181 L 417.0124 402.0974 L 415.0882 400.9834 L 414.672 400.7991 L 413.8093 400.5552 L 412.9152 400.4292 L 411.552 400.3805 L 410.194 400.4771 L 409.3118 400.6525 L 408.4686 400.9738 L 406.5377 402.0768 L 405.1745 402.6872 L 404.4346 403.1072 L 403.3093 403.9992 L 402.2452 405.0145 L 395.2989 412.171 L 393.6747 414.0166 L 392.8767 415.2341 L 392.1142 416.9961 L 390.8296 419.3679 L 390.1041 421.1444 L 389.281 422.7564 L 388.9198 423.6018 L 388.595 425.0549 L 388.1994 429.0558 L 387.5638 431.6222 L 387.0551 434.4715 L 384.4305 431.7805 L 382.9307 430.4891 L 381.8373 429.8204 L 378.1953 428.0138 L 376.6302 427.6685 L 374.9978 427.5569 L 365.0779 427.7158 L 364.1012 427.5877 L 363.6398 427.4534 L 363.2035 427.2438 L 362.8079 426.9286 L 362.5047 426.523 L 362.1728 425.5995 L 362.0685 424.6034 L 362.161 423.038 L 362.5325 421.4814 L 363.462 419.5186 L 363.8232 418.5479 L 364.1222 417.0728 L 364.4619 414.5764 L 364.8257 412.8205 L 362.8295 409.0141 L 362.4914 408.0488 L 362.29 406.9403 L 362.1456 404.6425 L 362.0736 397.7004 L 362.2329 396.137 L 362.572 395.2005 L 362.8773 394.7915 L 363.2667 394.4818 L 364.1562 394.1366 L 365.637 393.979 L 380.0466 394.2674 L 381.641 394.2414 L 382.645 394.1283 L 383.5724 393.8372 L 383.9881 393.5761 L 384.3057 393.2672 L 385.1416 391.8853 L 385.5938 390.7953 L 385.6858 389.9684 L 385.4438 389.0874 L 384.9777 388.303 L 383.2415 385.9778 L 381.9827 383.4114 L 380.1658 380.3881 L 379.8842 380.0585 L 379.2034 379.5358 L 376.9837 378.2259 L 375.7957 377.7196 L 374.2512 377.3065 L 373.6634 377.0037 L 373.4599 376.7762 L 373.35 376.5097 L 373.3993 375.8329 Z" fill="#000000" fill-opacity="1" stroke="#000000" stroke-width="0" paint-order="fill" stroke-opacity="1" stroke-dasharray="" stroke-linecap="butt" stroke-linejoin="miter" stroke-miterlimit="10" transform="matrix(1.100000023841858,0,0,1.100000023841858,-42.49998092651367,-28.3499698638916)" clip-path="none" style="filter: url(#f1)"/>
<path data-code="209" d="M 328.0099 295.8206 L 326.8928 297.2765 L 325.7285 299.1111 L 325.4546 299.4386 L 324.7872 299.9655 L 322.9559 301.0698 L 321.7628 301.6618 L 320.7521 301.9262 L 317.5998 302.2722 L 316.5727 302.4626 L 315.6668 302.773 L 313.6655 303.7088 L 312.1395 304.0507 L 310.5405 304.1726 L 308.9116 304.1925 L 304.6202 303.9911 L 302.2032 304.1952 L 299.7171 304.1767 L 298.273 303.9274 L 297.8098 303.7609 L 296.9309 303.258 L 295.7784 302.2619 L 294.7713 301.1068 L 293.954 299.8305 L 293.1877 298.076 L 292.6751 297.2148 L 291.7449 295.9919 L 290.086 294.0072 L 288.4906 291.9238 L 290.6142 290.5098 L 291.7274 289.8493 L 293.4526 289.0807 L 295.4094 288.029 L 296.3125 287.7105 L 297.3185 287.5317 L 298.3513 287.4515 L 303.5998 287.3419 L 305.1148 287.1096 L 306.0109 286.8007 L 307.5942 286.0224 L 308.4569 285.7162 L 309.8756 285.4641 L 312.2993 285.2174 L 313.7076 284.9043 L 316.1098 283.8137 L 318.2483 283.2258 L 319.0329 282.8949 L 319.3838 282.6483 L 319.9285 281.9982 L 321.4129 279.3509 L 321.7305 278.4631 L 322.1965 276.0632 L 322.4508 275.1232 L 323.6229 272.6555 L 324.2934 270.8318 L 325.4238 268.0825 L 328.0705 270.7694 L 329.1177 271.6676 L 329.8678 272.1677 L 330.7146 272.537 L 333.0206 273.0385 L 333.9245 273.3118 L 334.7281 273.7126 L 336.269 274.6807 L 337.8603 275.5836 L 338.0515 277.0223 L 338.1095 278.0479 L 338.0633 279.5736 L 337.9066 280.5636 L 337.6008 281.4734 L 336.5562 283.4752 L 335.9921 284.7906 L 335.5286 285.6497 L 334.9464 286.4513 L 331.8872 289.8199 L 330.9453 290.9852 L 330.4238 291.8128 L 329.3972 293.9524 L 328.8772 294.7163 L 328.0099 295.8206 Z" fill="#000000" fill-opacity="1" stroke="#000000" stroke-width="0" paint-order="fill" stroke-opacity="1" stroke-dasharray="" stroke-linecap="butt" stroke-linejoin="miter" stroke-miterlimit="10" transform="matrix(1.100000023841858,0,0,1.100000023841858,-42.49998092651367,-28.3499698638916)" clip-path="none" style="filter: url(#f1)"/>
<path data-code="210" d="M 254.1111 380.0414 L 256.0248 380.6162 L 258.0549 381.3952 L 258.8978 381.7939 L 259.9424 382.6482 L 260.4909 383.3799 L 260.7072 383.7923 L 261.0263 384.8343 L 261.1956 386.4792 L 261.0577 395.6801 L 261.099 397.3873 L 261.2696 399.0542 L 261.5299 400.1167 L 262.6688 402.5961 L 264.0897 406.5114 L 253.1659 406.5991 L 249.777 406.5292 L 248.6782 406.4237 L 247.6138 406.2203 L 246.6933 405.8955 L 244.7061 404.9549 L 243.177 404.6075 L 241.0243 404.4678 L 236.088 404.4575 L 233.9495 404.2643 L 232.5162 403.8211 L 230.5655 402.7708 L 228.8598 402.0035 L 226.5158 400.7059 L 224.2547 399.9133 L 222.4538 399.0994 L 222.0484 397.8833 L 221.0354 395.9096 L 220.3114 394.14 L 219.8397 393.3624 L 218.9667 392.2847 L 217.9725 391.29 L 216.9412 390.4268 L 215.5383 389.3861 L 217.2603 387.0143 L 217.973 385.8305 L 218.3198 384.9494 L 218.6374 383.5265 L 229.9707 383.497 L 231.5738 383.5292 L 233.1484 383.6519 L 234.6519 383.9944 L 236.6411 384.9624 L 237.4872 385.2954 L 239.7829 385.8668 L 240.6757 386.1607 L 242.6418 387.1678 L 243.5564 387.5083 L 245.1269 387.772 L 246.1967 387.8138 L 247.2639 387.7535 L 248.3131 387.5514 L 249.2799 387.1417 L 250.1153 386.5608 L 251.2254 385.5009 L 252.1824 384.2972 L 252.697 383.4189 L 253.4017 381.6171 L 254.1111 380.0414 Z" fill="#000000" fill-opacity="1" stroke="#000000" stroke-width="0" paint-order="fill" stroke-opacity="1" stroke-dasharray="" stroke-linecap="butt" stroke-linejoin="miter" stroke-miterlimit="10" transform="matrix(1.100000023841858,0,0,1.100000023841858,-42.49998092651367,-28.3499698638916)" clip-path="none" style="filter: url(#f1)"/>
<path data-code="211" d="M 264.2652 237.2587 L 266.8618 241.1357 L 269.018 245.7601 L 269.2557 246.7822 L 269.3633 247.8427 L 269.3595 252.1561 L 269.4281 253.6941 L 269.6118 254.6471 L 269.7803 255.0876 L 270.0231 255.4884 L 270.653 256.0625 L 273.2332 257.5238 L 274.0925 257.815 L 276.8343 258.3363 L 277.6734 258.7207 L 278.3804 259.2825 L 278.9515 259.9991 L 279.3371 260.8828 L 279.4987 261.8543 L 279.4293 263.3279 L 279.1909 264.2823 L 278.2023 266.304 L 277.8658 267.17 L 277.2027 270.0289 L 276.8854 270.9161 L 275.9487 272.9727 L 275.6923 273.9024 L 275.298 275.8111 L 274.9897 276.7428 L 274.7554 277.2114 L 274.1724 278.0849 L 273.4975 278.9036 L 270.9788 281.67 L 270.0662 282.9573 L 269.8322 283.4259 L 269.5236 284.3576 L 269.1298 286.2663 L 268.8744 287.1967 L 267.779 289.6781 L 267.335 291.5792 L 264.8818 291.4559 L 263.932 291.2627 L 263.0248 290.8797 L 262.1955 290.3193 L 259.8849 288.3695 L 259.0661 287.8201 L 257.3767 287.024 L 255.0668 285.6655 L 253.6882 285.0619 L 252.9627 284.6577 L 252.2264 284.1124 L 250.1182 282.2818 L 249.3783 281.7378 L 248.6453 281.3364 L 247.2408 280.7588 L 243.9819 279.1954 L 246.9006 277.4861 L 249.4302 276.3776 L 252.0316 274.8314 L 252.7112 274.3292 L 253.2206 273.6414 L 254.5363 271.3758 L 254.9275 270.5379 L 255.0763 270.0583 L 255.2582 269.0663 L 255.3352 268.0517 L 255.336 267.0302 L 255.178 265.5141 L 254.8993 264.5378 L 254.6829 264.0795 L 253.8277 262.8443 L 252.816 261.7173 L 250.9996 259.9539 L 249.8481 259.0098 L 249.0345 258.4905 L 247.3348 257.6951 L 246.2275 256.9401 L 243.1716 254.1497 L 244.8908 252.1732 L 246.2537 250.9031 L 247.3541 250.1481 L 249.0098 249.3547 L 249.3762 249.1102 L 250.0442 248.5217 L 250.6101 247.8277 L 250.8444 247.4481 L 251.6026 245.732 L 252.0704 244.9462 L 252.9393 243.8425 L 254.2842 242.5196 L 255.4267 241.7221 L 257.1472 240.9623 L 259.4692 239.6565 L 261.1969 238.9235 L 263.1207 237.7999 L 264.2652 237.2587 Z" fill="#000000" fill-opacity="1" stroke="#000000" stroke-width="0" paint-order="fill" stroke-opacity="1" stroke-dasharray="" stroke-linecap="butt" stroke-linejoin="miter" stroke-miterlimit="10" transform="matrix(1.100000023841858,0,0,1.100000023841858,-42.49998092651367,-28.3499698638916)" clip-path="none" style="filter: url(#f1)"/>
<path data-code="212" d="M 606.2132 296.4283 L 602.9474 297.7649 L 602.0184 298.0061 L 600.1378 298.3651 L 599.2263 298.6343 L 596.8601 299.8682 L 595.1363 300.6012 L 592.8153 301.9351 L 591.1099 302.7236 L 590.2734 303.2704 L 589.4811 303.9171 L 588.3399 304.9851 L 586.4958 306.8774 L 585.0761 308.4387 L 584.0983 309.6486 L 583.5357 310.4851 L 582.7352 312.1923 L 582.284 312.9871 L 581.707 313.6722 L 581.373 313.9736 L 580.6126 314.4655 L 580.1507 314.6498 L 579.1842 314.8649 L 577.6761 314.9718 L 567.8292 314.743 L 566.4399 314.8985 L 565.6121 315.2301 L 565.2545 315.5233 L 564.9893 315.8871 L 564.6949 316.716 L 564.5855 317.6183 L 564.5557 320.5553 L 564.4904 321.5555 L 564.3152 322.5393 L 563.9571 323.4724 L 563.1257 324.7118 L 560.071 328.0585 L 559.1801 329.2492 L 558.7279 330.1172 L 556.7148 334.8395 L 554.6132 333.455 L 553.4679 332.5212 L 552.0344 331.1201 L 548.545 327.4878 L 547.8179 326.8198 L 547.0524 326.2217 L 546.2225 325.749 L 545.7729 325.5805 L 543.4582 325.0927 L 542.5533 324.8323 L 541.7492 324.4535 L 540.1934 323.5964 L 538.4618 322.875 L 536.1378 321.5412 L 534.8506 320.9862 L 534.0311 320.543 L 533.2886 319.9922 L 532.2574 319.031 L 531.331 317.9622 L 530.5762 316.7873 L 529.8455 315.0101 L 528.5759 312.5979 L 527.8832 310.8057 L 526.5889 308.4058 L 526.0396 307.0781 L 525.6085 306.2396 L 525.0829 305.475 L 523.3169 303.2868 L 522.5616 302.1242 L 521.8006 300.3566 L 520.5423 298.0732 L 520.1564 297.1607 L 519.6744 295.7391 L 523.4644 296.0214 L 527.4167 295.9981 L 528.5173 295.8933 L 529.5835 295.6898 L 530.587 295.3294 L 532.4968 294.4271 L 534.0429 294.0723 L 536.7718 293.912 L 544.5793 293.9585 L 546.2194 293.8709 L 547.2851 293.7277 L 548.3066 293.4618 L 550.2273 292.5747 L 551.2051 292.2321 L 552.7285 291.982 L 555.8741 291.7895 L 557.4197 291.6046 L 558.4042 291.3511 L 560.8238 290.2762 L 561.8545 290.0172 L 563.4756 289.8439 L 567.9058 289.7274 L 569.5289 289.5595 L 570.5633 289.304 L 572.4937 288.4285 L 573.4797 288.0845 L 574.5027 287.8865 L 577.1237 287.5762 L 578.1498 287.3679 L 579.141 286.998 L 581.0154 285.9868 L 582.7218 285.2243 L 584.5896 284.2069 L 585.0859 283.9932 L 586.0776 283.7225 L 587.1093 283.5794 L 588.696 283.4985 L 593.007 283.5382 L 594.1127 283.763 L 594.8321 284.0048 L 595.238 284.2076 L 596.0005 284.7194 L 597.0631 285.6429 L 600.4666 289.0101 L 602.9792 290.9887 L 603.6313 292.1711 L 604.906 294.1332 L 606.2132 296.4283 Z" fill="#000000" fill-opacity="1" stroke="#000000" stroke-width="0" paint-order="fill" stroke-opacity="1" stroke-dasharray="" stroke-linecap="butt" stroke-linejoin="miter" stroke-miterlimit="10" transform="matrix(1.100000023841858,0,0,1.100000023841858,-42.49998092651367,-28.3499698638916)" clip-path="none" style="filter: url(#f1)"/>
<path data-code="213" d="M 637.1252 349.2937 L 636.7054 350.744 L 635.7281 352.737 L 635.0103 354.5107 L 633.7139 356.9126 L 632.7567 359.0878 L 631.651 361.078 L 630.9152 362.851 L 629.9029 364.8789 L 629.5854 365.8229 L 629.3901 366.8876 L 629.1019 369.6026 L 628.9087 370.6604 L 628.6019 371.5928 L 627.6832 373.655 L 627.4273 374.6737 L 627.2871 375.7356 L 627.1894 377.9183 L 627.2629 380.6772 L 627.4489 382.3194 L 627.8343 384.0677 L 625.4543 385.4708 L 623.3337 386.4121 L 621.0174 387.7713 L 619.3059 388.5332 L 617.7685 389.4204 L 616.9546 389.8122 L 616.02 390.0698 L 615.0509 390.1945 L 613.5752 390.2171 L 612.5969 390.1363 L 611.1803 389.8102 L 608.789 388.651 L 607.897 388.3872 L 606.0663 387.994 L 605.1809 387.6638 L 604.7925 387.4336 L 604.0999 386.8533 L 603.5285 386.1525 L 603.2962 385.7647 L 602.414 383.6197 L 601.0729 381.0129 L 600.852 380.6785 L 600.5494 380.3819 L 600.1655 380.1688 L 599.7447 380.0579 L 599.3059 380.0421 L 598.862 380.1188 L 598.0229 380.5285 L 597.2804 381.1362 L 596.2682 382.2481 L 595.6794 383.0894 L 595.22 384.0252 L 595.0725 384.5144 L 594.9055 385.516 L 594.7755 390.1226 L 594.5757 391.6134 L 594.2777 392.5232 L 593.2531 394.5373 L 592.486 396.2953 L 591.9434 397.1523 L 591.3016 397.9566 L 586.9357 402.5132 L 585.9178 403.6929 L 585.3264 404.5247 L 584.8686 405.4016 L 584.1143 407.1301 L 583.0255 409.1244 L 582.3067 410.9036 L 581.0015 413.3007 L 580.2791 415.0895 L 579.2463 417.116 L 578.9278 417.997 L 578.6226 419.4268 L 576.6505 419.3028 L 575.2128 419.0699 L 574.251 418.7445 L 572.3139 417.8922 L 571.3222 417.649 L 568.3508 417.2332 L 567.4701 416.9249 L 567.0811 416.6734 L 566.781 416.3816 L 566.3037 415.6903 L 565.0376 413.3939 L 564.7391 412.5026 L 564.2042 409.6313 L 563.8322 408.7017 L 563.2829 407.8433 L 562.2707 406.6882 L 561.1203 405.6921 L 560.2868 405.1556 L 558.5876 404.3698 L 557.3545 403.5265 L 555.8819 402.1076 L 554.9508 400.893 L 554.4884 400.014 L 553.9463 398.6876 L 553.1345 397.0736 L 552.7815 396.224 L 552.4788 394.7689 L 552.2183 391.7668 L 552.0482 390.7919 L 551.7554 389.8924 L 550.8192 387.8378 L 550.5587 386.9033 L 550.1831 384.9796 L 549.9205 384.0431 L 548.804 381.5671 L 548.5471 380.6306 L 548.1776 378.7062 L 547.9094 377.7683 L 546.6916 375.3328 L 545.9759 373.5522 L 544.7581 371.116 L 544.4904 370.1788 L 544.0105 367.7796 L 543.7048 366.8931 L 542.7717 364.8364 L 542.5184 363.9019 L 542.1495 361.9803 L 541.872 361.0403 L 541.4733 360.2065 L 539.1893 356.3885 L 542.4362 354.9169 L 543.7521 354.3798 L 544.6091 353.9194 L 545.421 353.3289 L 547.3632 351.697 L 548.1684 351.1085 L 550.2797 350.0459 L 551.111 349.4971 L 552.2646 348.4942 L 553.3066 347.359 L 554.1621 346.097 L 554.9195 344.3349 L 555.9445 342.3187 L 556.2513 341.4096 L 556.4748 339.9195 L 556.7148 334.8395 L 558.7279 330.1172 L 559.1801 329.2492 L 560.071 328.0585 L 563.1257 324.7118 L 563.9571 323.4724 L 564.3152 322.5393 L 564.4904 321.5555 L 564.5557 320.5553 L 564.5855 317.6183 L 564.6949 316.716 L 564.9893 315.8871 L 565.2545 315.5233 L 565.6121 315.2301 L 566.4399 314.8985 L 567.8292 314.743 L 577.6761 314.9718 L 579.1842 314.8649 L 580.1507 314.6498 L 580.6126 314.4655 L 581.373 313.9736 L 581.707 313.6722 L 582.284 312.9871 L 582.7352 312.1923 L 583.5357 310.4851 L 584.0983 309.6486 L 585.0761 308.4387 L 586.4958 306.8774 L 588.3399 304.9851 L 589.4811 303.9171 L 590.2734 303.2704 L 591.1099 302.7236 L 592.8153 301.9351 L 595.1363 300.6012 L 596.8601 299.8682 L 599.2263 298.6343 L 600.1378 298.3651 L 602.0184 298.0061 L 602.9474 297.7649 L 606.2132 296.4283 L 607.0338 296.6619 L 607.4325 296.851 L 608.2048 297.3573 L 609.6753 298.6549 L 611.0709 300.1203 L 612.0333 301.2843 L 612.5902 302.103 L 613.027 302.9689 L 613.5901 304.2911 L 614.3758 305.5079 L 615.3315 306.6451 L 618.809 310.2878 L 620.1095 311.7909 L 620.9064 313.0042 L 621.6869 314.7532 L 622.1597 315.5377 L 624.1671 318.1225 L 624.6897 318.8871 L 625.9306 321.4315 L 626.4537 322.1954 L 628.2012 324.3994 L 628.7247 325.1632 L 629.9697 327.7056 L 630.4964 328.4675 L 632.2532 330.6652 L 632.7767 331.4319 L 633.2068 332.2711 L 633.7602 333.5975 L 635.0807 335.9823 L 635.799 337.7573 L 636.8477 339.7585 L 637.154 340.6272 L 637.3713 342.0063 L 637.4284 343.9102 L 637.3554 345.8586 L 637.1252 349.2937 Z" fill="#000000" fill-opacity="1" stroke="#000000" stroke-width="0" paint-order="fill" stroke-opacity="1" stroke-dasharray="" stroke-linecap="butt" stroke-linejoin="miter" stroke-miterlimit="10" transform="matrix(1.100000023841858,0,0,1.100000023841858,-42.49998092651367,-28.3499698638916)" clip-path="none" style="filter: url(#f1)"/>
<path data-code="214" d="M 396.5397 442.2453 L 394.5204 440.153 L 393.1131 439.8646 L 392.2391 439.5501 L 389.0595 437.9429 L 388.3258 437.4483 L 387.7328 436.8351 L 387.2971 436.124 L 387.1219 435.5978 L 387.0551 434.4715 L 387.5638 431.6222 L 388.1994 429.0558 L 388.595 425.0549 L 388.9198 423.6018 L 389.281 422.7564 L 390.1041 421.1444 L 390.8296 419.3679 L 392.1142 416.9961 L 392.8767 415.2341 L 393.6747 414.0166 L 395.2989 412.171 L 402.2452 405.0145 L 403.3093 403.9992 L 404.4346 403.1072 L 405.1745 402.6872 L 406.5377 402.0768 L 408.4686 400.9738 L 409.3118 400.6525 L 410.194 400.4771 L 411.552 400.3805 L 412.9152 400.4292 L 413.8093 400.5552 L 414.672 400.7991 L 415.0882 400.9834 L 417.0124 402.0974 L 418.371 402.7181 L 419.0949 403.1339 L 420.1853 403.993 L 422.6552 406.2018 L 425.1072 407.8892 L 424.5682 410.2411 L 424.2388 411.118 L 423.4527 412.7444 L 423.0385 414.1283 L 422.9054 415.1162 L 422.8551 416.111 L 422.8798 417.1414 L 422.9943 418.1505 L 423.2374 419.122 L 423.4095 419.5543 L 424.4531 421.5602 L 425.2217 423.3182 L 425.9493 424.4972 L 427.9131 427.2143 L 425.3754 427.5589 L 423.7378 427.6603 L 421.5705 427.6439 L 419.9864 427.4616 L 418.5647 427.0006 L 416.6296 425.9099 L 414.9407 425.1179 L 413.02 424.0444 L 412.1491 423.7354 L 411.2052 423.5874 L 410.2485 423.5826 L 409.3031 423.719 L 408.4265 424.0067 L 406.8485 424.7781 L 406.0023 425.0946 L 403.6921 425.6071 L 402.7827 425.8825 L 401.5988 426.4785 L 399.82 427.5788 L 399.1895 428.1632 L 398.7594 429.0147 L 398.501 430.4815 L 398.4887 433.1465 L 398.6659 435.3306 L 399.0739 437.316 L 398.5416 439.0733 L 398.1763 439.9543 L 397.6958 440.7621 L 396.5397 442.2453 Z" fill="#000000" fill-opacity="1" stroke="#000000" stroke-width="0" paint-order="fill" stroke-opacity="1" stroke-dasharray="" stroke-linecap="butt" stroke-linejoin="miter" stroke-miterlimit="10" transform="matrix(1.100000023841858,0,0,1.100000023841858,-42.49998092651367,-28.3499698638916)" clip-path="none" style="filter: url(#f1)"/>
<path data-code="215" d="M 405.0943 493.0499 L 404.4444 489.3661 L 404.1797 488.4118 L 403.8103 487.5725 L 402.5463 485.2816 L 402.0376 484.5842 L 401.3691 484.0505 L 399.169 482.7324 L 398.354 482.3569 L 396.7766 482.0144 L 395.1298 481.9143 L 384.45 481.9582 L 372.089 481.9027 L 369.8914 482.0308 L 368.3181 482.3836 L 365.9417 483.5942 L 364.2245 484.3423 L 361.8938 485.6584 L 360.191 486.4483 L 359.355 486.9964 L 358.5766 487.6479 L 357.8541 488.3727 L 357.2 489.1613 L 356.6451 490.0238 L 356.4226 490.4883 L 356.122 491.4379 L 355.6175 494.1364 L 354.4681 494.2981 L 352.9811 494.3879 L 351.0285 494.2502 L 349.6818 493.8501 L 347.7015 492.8868 L 345.8888 492.3751 L 344.8123 490.8816 L 344.39 490.0601 L 344.2153 489.5518 L 343.9912 488.4961 L 343.6927 485.794 L 343.5077 484.7369 L 343.2123 483.8004 L 342.3311 481.7232 L 342.0937 480.7004 L 341.9318 479.0966 L 341.7839 475.8355 L 341.5552 474.2522 L 341.2546 473.3171 L 340.3113 471.257 L 339.5087 468.4337 L 338.8957 466.6587 L 340.8754 467.1156 L 342.347 467.2937 L 343.7559 467.254 L 344.6279 467.0581 L 345.0302 466.8834 L 345.3971 466.6408 L 345.9494 465.9934 L 347.4297 463.3784 L 348.147 461.6465 L 348.5843 460.762 L 349.1572 459.9194 L 350.1669 458.7527 L 351.3039 457.725 L 352.1353 457.1619 L 353.835 456.3644 L 355.7973 455.3251 L 356.7237 455.0011 L 358.3042 454.7579 L 359.9325 454.6805 L 363.7836 454.6942 L 365.9556 454.8175 L 367.0094 454.9709 L 368.0155 455.2484 L 370.4047 456.3987 L 371.3897 456.6741 L 373.4712 456.8988 L 376.1164 456.846 L 377.1517 456.7056 L 378.146 456.4384 L 380.5429 455.2854 L 384.1859 454.2989 L 386.1754 453.3185 L 387.0417 452.991 L 391.4246 452.0791 L 390.4206 454.1851 L 389.5949 455.4841 L 388.2261 457.0673 L 384.8698 460.4215 L 383.8078 461.5581 L 383.1794 462.3665 L 382.6856 463.2674 L 382.5253 463.7463 L 382.3578 464.7322 L 382.3552 465.7297 L 382.4138 466.2257 L 382.6748 467.1958 L 382.8957 467.6644 L 383.78 468.9195 L 385.5517 470.837 L 388.521 473.8104 L 389.7121 474.775 L 390.5943 475.2634 L 391.0562 475.4238 L 392.0094 475.6142 L 392.9836 475.6985 L 396.4365 475.8143 L 397.87 476.0335 L 398.7384 476.3384 L 400.3122 477.1358 L 401.1734 477.4475 L 402.5931 477.6969 L 405.0126 477.9408 L 406.4092 478.2655 L 408.8016 479.4151 L 409.7085 479.6816 L 411.588 480.0454 L 412.5165 480.2907 L 415.7515 481.5971 L 414.5666 483.7264 L 413.8869 484.7171 L 412.9604 485.8139 L 410.3173 488.6214 L 409.3704 489.7011 L 408.7918 490.4527 L 407.4564 492.3833 L 405.0943 493.0499 Z" fill="#000000" fill-opacity="1" stroke="#000000" stroke-width="0" paint-order="fill" stroke-opacity="1" stroke-dasharray="" stroke-linecap="butt" stroke-linejoin="miter" stroke-miterlimit="10" transform="matrix(1.100000023841858,0,0,1.100000023841858,-42.49998092651367,-28.3499698638916)" clip-path="none" style="filter: url(#f1)"/>
<path data-code="216" d="M 645.3253 405.7743 L 644.4405 406.6909 L 643.9005 407.3466 L 642.7788 409.2436 L 642.1992 409.9122 L 641.5251 410.4953 L 640.7461 410.9652 L 639.0998 411.7483 L 637.5578 412.6554 L 635.4219 413.583 L 633.0902 414.9121 L 631.3889 415.7006 L 630.2739 416.4672 L 628.1267 418.2951 L 627.3821 418.8349 L 626.5662 419.2727 L 625.2708 419.8249 L 623.3327 420.9299 L 621.6864 421.6815 L 620.9095 422.1542 L 620.2523 422.7639 L 619.7185 423.4922 L 619.3485 424.3458 L 619.067 425.7393 L 616.6119 425.8517 L 615.6608 426.0414 L 615.202 426.2024 L 614.7894 426.4032 L 614.0238 426.9074 L 611.9089 428.7058 L 610.795 429.4909 L 609.0973 430.289 L 606.7738 431.6339 L 605.0206 432.3491 L 602.694 433.5891 L 601.503 432.5539 L 600.425 431.5188 L 594.5186 425.4337 L 593.4196 424.4842 L 592.6324 423.9615 L 590.925 423.1873 L 589.3789 422.3234 L 588.564 421.9466 L 588.1051 421.8062 L 587.1566 421.6328 L 584.2443 421.3787 L 583.2988 421.204 L 582.431 420.8929 L 580.4574 419.8927 L 579.5541 419.6193 L 578.6226 419.4268 L 578.9278 417.997 L 579.2463 417.116 L 580.2791 415.0895 L 581.0015 413.3007 L 582.3067 410.9036 L 583.0255 409.1244 L 584.1143 407.1301 L 584.8686 405.4016 L 585.3264 404.5247 L 585.9178 403.6929 L 586.9357 402.5132 L 591.3016 397.9566 L 591.9434 397.1523 L 592.486 396.2953 L 593.2531 394.5373 L 594.2777 392.5232 L 594.5757 391.6134 L 594.7755 390.1226 L 594.9055 385.516 L 595.0725 384.5144 L 595.22 384.0252 L 595.6794 383.0894 L 596.2682 382.2481 L 597.2804 381.1362 L 598.0229 380.5285 L 598.862 380.1188 L 599.3059 380.0421 L 599.7447 380.0579 L 600.1655 380.1688 L 600.5494 380.3819 L 600.852 380.6785 L 601.0729 381.0129 L 602.414 383.6197 L 603.2962 385.7647 L 603.5285 386.1525 L 604.0999 386.8533 L 604.7925 387.4336 L 605.1809 387.6638 L 606.0663 387.994 L 607.897 388.3872 L 608.789 388.651 L 611.1803 389.8102 L 612.5969 390.1363 L 613.5752 390.2171 L 615.0509 390.1945 L 616.02 390.0698 L 616.9546 389.8122 L 617.7685 389.4204 L 619.3059 388.5332 L 621.0174 387.7713 L 623.3337 386.4121 L 625.4543 385.4708 L 627.8343 384.0677 L 629.1183 384.0341 L 630.3186 384.1479 L 631.095 384.3685 L 631.9315 384.8199 L 632.6925 385.4071 L 633.7622 386.4148 L 639.2858 392.2197 L 640.2374 393.346 L 641.0225 394.5565 L 641.7573 396.3268 L 643.0398 398.7315 L 643.7021 400.5538 L 644.7549 402.8674 L 645.1095 404.3897 L 645.3253 405.7743 Z" fill="#000000" fill-opacity="1" stroke="#000000" stroke-width="0" paint-order="fill" stroke-opacity="1" stroke-dasharray="" stroke-linecap="butt" stroke-linejoin="miter" stroke-miterlimit="10" transform="matrix(1.100000023841858,0,0,1.100000023841858,-42.49998092651367,-28.3499698638916)" clip-path="none" style="filter: url(#f1)"/>
<path data-code="217" d="M 229.2069 298.3637 L 228.9641 296.2426 L 228.902 294.6902 L 228.9767 293.1611 L 229.144 292.1725 L 229.4512 291.2627 L 230.4835 289.254 L 231.2483 287.4912 L 232.063 286.2471 L 233.3817 284.7152 L 234.8112 283.2738 L 235.9483 282.2941 L 236.765 281.7495 L 237.6531 281.3644 L 239.9669 280.8657 L 240.8655 280.6081 L 242.8142 279.6373 L 243.9819 279.1954 L 247.2408 280.7588 L 248.6453 281.3364 L 249.3783 281.7378 L 250.1182 282.2818 L 252.2264 284.1124 L 252.9627 284.6577 L 253.6882 285.0619 L 255.0668 285.6655 L 257.3767 287.024 L 259.0661 287.8201 L 259.8849 288.3695 L 262.1955 290.3193 L 263.0248 290.8797 L 263.932 291.2627 L 264.8818 291.4559 L 267.335 291.5792 L 267.5454 292.1903 L 267.9426 292.7459 L 268.253 292.9446 L 268.9885 293.1035 L 269.8206 292.959 L 272.0658 292.006 L 275.2957 291.4175 L 276.952 291.0065 L 277.3268 293.1933 L 277.4481 294.7396 L 277.4619 296.8065 L 277.4044 297.8286 L 277.2762 298.8296 L 277.0313 299.7901 L 276.0643 301.8358 L 275.7468 302.7113 L 275.2617 305.105 L 274.9974 306.0457 L 274.6236 306.8794 L 273.7848 308.4812 L 273.2393 309.8082 L 272.7941 310.6701 L 271.9247 311.8573 L 270.5893 313.3495 L 268.1178 315.8782 L 266.2866 317.5566 L 265.1074 318.3774 L 263.8349 318.9837 L 263.0318 319.4338 L 262.2937 319.9784 L 260.1711 321.8138 L 259.434 322.366 L 258.6255 322.8182 L 257.3823 323.3649 L 256.3102 323.9095 L 255.5472 324.1801 L 255.1459 324.2212 L 254.369 324.0602 L 252.9154 323.3484 L 251.2257 322.6366 L 248.9307 321.2397 L 247.5586 320.6252 L 246.8302 320.2182 L 246.0908 319.6708 L 243.9736 317.8382 L 243.2376 317.2956 L 242.5175 316.8948 L 241.1561 316.2707 L 240.0295 315.487 L 238.2931 313.8681 L 234.9401 310.3645 L 233.5145 309.1307 L 232.7495 308.5949 L 231.9071 308.1359 L 230.2017 307.3398 L 230.1495 306.2279 L 229.3066 303.9034 L 229.042 302.4702 L 228.9993 300.4382 L 229.2069 298.3637 Z" fill="#000000" fill-opacity="1" stroke="#000000" stroke-width="0" paint-order="fill" stroke-opacity="1" stroke-dasharray="" stroke-linecap="butt" stroke-linejoin="miter" stroke-miterlimit="10" transform="matrix(1.100000023841858,0,0,1.100000023841858,-42.49998092651367,-28.3499698638916)" clip-path="none" style="filter: url(#f1)"/>
<path data-code="218" d="M 288.4906 291.9238 L 285.7434 291.0976 L 283.3755 289.9206 L 282.9179 289.7856 L 281.9717 289.6383 L 280.5279 289.6726 L 279.5838 289.8733 L 276.952 291.0065 L 275.2957 291.4175 L 272.0658 292.006 L 269.8206 292.959 L 268.9885 293.1035 L 268.253 292.9446 L 267.9426 292.7459 L 267.5454 292.1903 L 267.335 291.5792 L 267.779 289.6781 L 268.8744 287.1967 L 269.1298 286.2663 L 269.5236 284.3576 L 269.8322 283.4259 L 270.0662 282.9573 L 270.9788 281.67 L 273.4975 278.9036 L 274.1724 278.0849 L 274.7554 277.2114 L 274.9897 276.7428 L 275.298 275.8111 L 275.6923 273.9024 L 275.9487 272.9727 L 276.8854 270.9161 L 277.2027 270.0289 L 277.8658 267.17 L 278.2023 266.304 L 279.1909 264.2823 L 279.4293 263.3279 L 279.4987 261.8543 L 279.3371 260.8828 L 278.9515 259.9991 L 278.3804 259.2825 L 277.6734 258.7207 L 276.8343 258.3363 L 274.0925 257.815 L 273.2332 257.5238 L 270.653 256.0625 L 270.0231 255.4884 L 269.7803 255.0876 L 269.6118 254.6471 L 269.4281 253.6941 L 269.3595 252.1561 L 269.3633 247.8427 L 269.2557 246.7822 L 269.018 245.7601 L 266.8618 241.1357 L 264.2652 237.2587 L 266.8333 233.2749 L 267.7887 231.1018 L 268.5315 229.944 L 269.7556 228.5183 L 271.0985 227.1714 L 272.1657 226.2266 L 273.5659 225.2079 L 275.3766 224.3824 L 276.9556 223.4869 L 277.7661 223.1074 L 278.6717 222.8443 L 280.9847 222.3531 L 281.8862 221.9653 L 282.7222 221.4036 L 283.4891 220.7349 L 284.1876 219.9875 L 284.7983 219.1647 L 285.2707 218.2473 L 285.5448 217.2101 L 285.6638 216.1407 L 285.821 211.7978 L 286.1214 210.2406 L 287.1999 207.7476 L 287.4629 206.8131 L 287.8606 204.9133 L 288.1535 203.9809 L 288.8009 202.7594 L 290.6841 199.9128 L 291.795 199.7436 L 293.2869 199.6326 L 295.7655 199.6902 L 296.7287 199.8306 L 297.651 200.0896 L 300.0382 201.2714 L 301.5362 201.6564 L 303.0996 201.816 L 304.6531 201.8366 L 305.6499 201.7557 L 306.5853 201.542 L 307.0156 201.3549 L 307.4061 201.0925 L 307.9544 200.4376 L 309.444 197.8164 L 310.1638 196.0797 L 310.6057 195.1761 L 311.5208 193.8737 L 312.5824 192.6529 L 314.1136 191.1402 L 315.3508 190.1598 L 316.2505 189.6631 L 316.6981 189.498 L 318.0726 189.1794 L 320.0919 191.2717 L 320.0312 201.6454 L 320.1016 203.4417 L 320.2368 204.6085 L 320.5081 205.7238 L 320.8564 206.5541 L 321.6811 208.1799 L 322.4298 209.9563 L 323.757 212.3329 L 324.5025 214.0915 L 325.3339 215.6906 L 325.6971 216.5339 L 325.9535 217.5622 L 326.0835 218.631 L 326.1642 221.9372 L 326.1262 229.189 L 326.045 230.8305 L 325.9124 231.8985 L 325.6602 232.9241 L 324.7291 234.9842 L 324.4152 235.8604 L 323.8895 238.2405 L 323.6085 239.1729 L 322.3779 241.5988 L 321.638 243.3643 L 320.5959 245.3737 L 320.2676 246.302 L 320.0693 247.3406 L 319.9372 248.9499 L 319.9048 251.1333 L 319.9716 253.3112 L 320.0713 254.3792 L 320.2599 255.4178 L 320.5692 256.3468 L 321.5023 258.3987 L 322.4282 262.1763 L 323.6357 264.62 L 324.391 266.3924 L 325.4238 268.0825 L 324.2934 270.8318 L 323.6229 272.6555 L 322.4508 275.1232 L 322.1965 276.0632 L 321.7305 278.4631 L 321.4129 279.3509 L 319.9285 281.9982 L 319.3838 282.6483 L 319.0329 282.8949 L 318.2483 283.2258 L 316.1098 283.8137 L 313.7076 284.9043 L 312.2993 285.2174 L 309.8756 285.4641 L 308.4569 285.7162 L 307.5942 286.0224 L 306.0109 286.8007 L 305.1148 287.1096 L 303.5998 287.3419 L 298.3513 287.4515 L 297.3185 287.5317 L 296.3125 287.7105 L 295.4094 288.029 L 293.4526 289.0807 L 291.7274 289.8493 L 290.6142 290.5098 L 288.4906 291.9238 Z" fill="#000000" fill-opacity="1" stroke="#000000" stroke-width="0" paint-order="fill" stroke-opacity="1" stroke-dasharray="" stroke-linecap="butt" stroke-linejoin="miter" stroke-miterlimit="10" transform="matrix(1.100000023841858,0,0,1.100000023841858,-42.49998092651367,-28.3499698638916)" clip-path="none" style="filter: url(#f1)"/>
<path data-code="219" d="M 351.3301 268.151 L 349.6351 269.5719 L 347.5669 271.4203 L 346.8537 271.9896 L 346.1025 272.476 L 344.3966 273.2563 L 342.849 274.1326 L 342.0392 274.5258 L 341.121 274.8101 L 337.8603 275.5836 L 336.269 274.6807 L 334.7281 273.7126 L 333.9245 273.3118 L 333.0206 273.0385 L 330.7146 272.537 L 329.8678 272.1677 L 329.1177 271.6676 L 328.0705 270.7694 L 325.4238 268.0825 L 324.391 266.3924 L 323.6357 264.62 L 322.4282 262.1763 L 321.5023 258.3987 L 320.5692 256.3468 L 320.2599 255.4178 L 320.0713 254.3792 L 319.9716 253.3112 L 319.9048 251.1333 L 319.9372 248.9499 L 320.0693 247.3406 L 320.2676 246.302 L 320.5959 245.3737 L 321.638 243.3643 L 322.3779 241.5988 L 323.6085 239.1729 L 323.8895 238.2405 L 324.4152 235.8604 L 324.7291 234.9842 L 325.6602 232.9241 L 325.9124 231.8985 L 326.045 230.8305 L 326.1262 229.189 L 326.1642 221.9372 L 326.0835 218.631 L 325.9535 217.5622 L 325.6971 216.5339 L 325.3339 215.6906 L 324.5025 214.0915 L 323.757 212.3329 L 322.4298 209.9563 L 321.6811 208.1799 L 320.8564 206.5541 L 320.5081 205.7238 L 320.2368 204.6085 L 320.1016 203.4417 L 320.0312 201.6454 L 320.0919 191.2717 L 321.2531 189.7912 L 321.7361 188.9842 L 322.1225 188.0531 L 322.7077 186.0842 L 322.7206 185.4621 L 322.8917 184.664 L 323.7549 182.7149 L 324.4152 180.9343 L 324.8257 180.1259 L 326.3744 177.5438 L 326.6821 177.2314 L 327.0536 176.9854 L 327.8896 176.6915 L 328.795 176.5757 L 330.2131 176.61 L 331.1637 176.7525 L 332.0855 177.0197 L 334.0601 178.0329 L 334.9187 178.357 L 335.858 178.5536 L 339.2348 178.9503 L 340.1607 179.201 L 340.5754 179.375 L 342.5304 180.4294 L 344.2502 181.1741 L 346.5593 182.5368 L 348.2565 183.3417 L 349.4794 184.1995 L 351.4088 185.8492 L 352.2129 186.4473 L 353.0581 186.92 L 354.7229 187.7017 L 356.3353 188.6903 L 357.9117 190.6058 L 358.9157 191.6396 L 359.616 192.2562 L 360.7372 193.0084 L 362.1178 193.5887 L 362.8541 193.9682 L 363.6007 194.4923 L 364.2933 195.087 L 364.9197 195.7303 L 365.4443 196.4216 L 365.7963 197.1896 L 365.8641 197.6143 L 365.8333 198.037 L 365.5758 198.8043 L 365.0261 199.9073 L 364.4531 201.2796 L 364.0493 202.0263 L 363.5041 202.7813 L 361.6914 204.9592 L 361.1498 205.7286 L 360.7649 206.4315 L 360.1042 207.8791 L 359.559 208.7389 L 358.5627 209.9652 L 356.0254 212.7446 L 355.0631 214.0052 L 354.5785 214.889 L 354.0036 216.2023 L 353.1691 217.8 L 352.8069 218.6467 L 352.6599 219.1558 L 352.4791 220.2094 L 352.3732 221.8393 L 352.4272 231.3066 L 352.3527 232.9481 L 352.2175 234.0162 L 352.1065 234.5368 L 351.7823 235.4706 L 350.7449 237.4793 L 350.0065 239.2448 L 348.7744 241.6707 L 348.4939 242.6031 L 347.9672 244.9845 L 347.6486 245.8601 L 346.6986 247.9188 L 346.4381 248.9471 L 346.3009 250.0172 L 346.2279 251.6567 L 346.2654 253.3002 L 346.362 254.3813 L 346.6996 255.9371 L 347.624 257.9993 L 347.9173 258.8892 L 348.0951 259.8566 L 348.3978 262.8374 L 348.5935 263.8096 L 348.9311 264.7064 L 349.3874 265.5065 L 350.4459 267.0275 L 351.3301 268.151 Z" fill="#000000" fill-opacity="1" stroke="#000000" stroke-width="0" paint-order="fill" stroke-opacity="1" stroke-dasharray="" stroke-linecap="butt" stroke-linejoin="miter" stroke-miterlimit="10" transform="matrix(1.100000023841858,0,0,1.100000023841858,-42.49998092651367,-28.3499698638916)" clip-path="none" style="filter: url(#f1)"/>
<path data-code="220" d="M 456.2298 346.876 L 456.6537 345.1283 L 457.4424 342.8277 L 457.7343 342.107 L 458.2044 341.3109 L 458.7768 340.5628 L 459.4114 339.8414 L 463.468 335.7014 L 464.377 334.6087 L 464.881 333.8208 L 465.0804 333.3988 L 465.3347 332.5623 L 465.6965 330.4172 L 465.9148 329.5787 L 466.0834 329.1526 L 467.1085 327.1404 L 467.8473 325.401 L 468.0883 325.016 L 468.6684 324.3192 L 469.3492 323.7307 L 469.7223 323.4868 L 471.3927 322.7017 L 472.1506 322.2215 L 474.6601 320.1394 L 475.4026 319.5975 L 477.8766 318.3335 L 478.6155 317.7903 L 480.7427 315.9679 L 481.4816 315.4239 L 483.952 314.1586 L 484.6909 313.6153 L 486.8202 311.7998 L 487.5601 311.2613 L 488.2825 310.8639 L 489.6457 310.2439 L 490.7694 309.4677 L 491.8207 308.5298 L 492.8401 307.5221 L 499.2069 300.9225 L 502.5806 297.5231 L 504.1123 297.8835 L 505.792 298.0671 L 508.0579 298.1225 L 509.7417 298.041 L 510.8372 297.893 L 511.8875 297.6169 L 513.8091 296.7229 L 514.8039 296.3653 L 516.3865 296.0803 L 519.6744 295.7391 L 520.1564 297.1607 L 520.5423 298.0732 L 521.8006 300.3566 L 522.5616 302.1242 L 523.3169 303.2868 L 525.0829 305.475 L 525.6085 306.2396 L 526.0396 307.0781 L 526.5889 308.4058 L 527.8832 310.8057 L 528.5759 312.5979 L 529.8455 315.0101 L 530.5762 316.7873 L 531.331 317.9622 L 532.2574 319.031 L 533.2886 319.9922 L 534.0311 320.543 L 534.8506 320.9862 L 536.1378 321.5412 L 538.4618 322.875 L 540.1934 323.5964 L 541.7492 324.4535 L 542.5533 324.8323 L 543.4582 325.0927 L 545.7729 325.5805 L 546.2225 325.749 L 547.0524 326.2217 L 547.8179 326.8198 L 548.545 327.4878 L 552.0344 331.1201 L 553.4679 332.5212 L 554.6132 333.455 L 556.7148 334.8395 L 556.4748 339.9195 L 556.2513 341.4096 L 555.9445 342.3187 L 554.9195 344.3349 L 554.1621 346.097 L 553.3066 347.359 L 552.2646 348.4942 L 551.111 349.4971 L 550.2797 350.0459 L 548.1684 351.1085 L 547.3632 351.697 L 545.421 353.3289 L 544.6091 353.9194 L 543.7521 354.3798 L 542.4362 354.9169 L 539.1893 356.3885 L 538.2038 356.5111 L 536.6362 356.6009 L 530.832 356.655 L 529.2952 356.8181 L 528.3153 357.0777 L 527.5004 357.4586 L 525.9543 358.326 L 524.2418 359.0837 L 522.3206 360.2319 L 520.2098 361.1986 L 517.8843 362.5386 L 516.1614 363.2867 L 513.8333 364.6172 L 512.1069 365.353 L 509.7777 366.6732 L 508.0631 367.4494 L 506.8561 368.2783 L 505.0141 369.9959 L 503.9731 371.1105 L 503.0061 372.2711 L 502.1983 373.5097 L 501.1517 375.689 L 500.5757 376.518 L 498.9823 378.5143 L 498.1525 379.7824 L 497.3859 381.5452 L 496.163 383.9807 L 495.8948 384.92 L 495.5192 386.841 L 495.2587 387.7713 L 494.1565 390.2514 L 493.8534 391.7079 L 493.71 394.253 L 492.9665 394.5305 L 492.3057 394.9388 L 492.0437 395.2231 L 491.1512 396.5871 L 490.5747 397.2284 L 489.881 397.7847 L 489.0394 398.1937 L 488.5738 398.3259 L 487.6115 398.4842 L 486.6249 398.5568 L 485.1276 398.5732 L 483.1479 398.428 L 482.1896 398.2149 L 481.7272 398.043 L 481.2925 397.8189 L 480.4935 397.2585 L 479.3949 396.2617 L 478.3421 395.1813 L 470.6353 387.0753 L 469.3569 385.5503 L 468.4968 384.1862 L 467.1927 381.8151 L 465.9847 379.8427 L 465.0321 377.6621 L 464.006 375.6424 L 463.6818 374.7559 L 463.169 372.3711 L 462.9059 371.4435 L 461.9821 369.3902 L 461.6774 368.4496 L 461.4965 367.3884 L 461.3886 365.7421 L 461.4138 357.3264 L 461.2581 355.6918 L 461.0048 354.6484 L 458.8493 350.0959 L 458.094 349.0429 L 456.2298 346.876 Z" fill="#000000" fill-opacity="1" stroke="#000000" stroke-width="0" paint-order="fill" stroke-opacity="1" stroke-dasharray="" stroke-linecap="butt" stroke-linejoin="miter" stroke-miterlimit="10" transform="matrix(1.100000023841858,0,0,1.100000023841858,-42.49998092651367,-28.3499698638916)" clip-path="none" style="filter: url(#f1)"/>
<path data-code="221" d="M 456.2298 346.876 L 454.4063 347.4466 L 451.46 348.5962 L 449.1412 349.9445 L 447.4322 350.705 L 445.4946 351.7908 L 444.6206 352.1176 L 443.6669 352.3047 L 442.6855 352.3992 L 439.1658 352.465 L 435.6462 352.3923 L 434.6648 352.2964 L 433.7116 352.1087 L 432.8376 351.7806 L 430.9 350.6974 L 429.1884 349.939 L 426.8788 348.5791 L 425.1575 347.8365 L 423.2286 346.7115 L 421.5567 345.9353 L 420.7155 345.4695 L 419.5415 344.546 L 418.4326 343.4895 L 412.6881 337.508 L 411.5495 336.5166 L 410.7346 335.9693 L 409.0374 335.1739 L 407.1003 334.0887 L 406.2217 333.7584 L 405.2644 333.57 L 404.2825 333.4748 L 402.7883 333.431 L 401.2941 333.4721 L 399.8282 333.6434 L 398.891 333.8996 L 398.073 334.286 L 396.5279 335.1574 L 395.2444 335.7233 L 394.3976 336.1871 L 393.6012 336.7708 L 392.8382 337.4244 L 391.0244 339.1919 L 390.0358 340.3107 L 389.4773 341.1081 L 389.2517 341.5363 L 388.9783 342.4687 L 388.9758 343.4238 L 389.2085 344.3021 L 390.1468 346.2587 L 390.4104 347.1938 L 390.563 348.1852 L 390.675 350.7536 L 390.5527 352.8027 L 390.2346 354.2716 L 389.1361 356.7639 L 388.9023 357.6909 L 388.5863 359.5865 L 388.3068 360.5094 L 388.0992 360.9184 L 387.5597 361.6404 L 386.867 362.2098 L 386.4575 362.4139 L 385.991 362.5455 L 385.5152 362.59 L 385.0389 362.553 L 384.5703 362.4338 L 384.1176 362.2296 L 383.7029 361.9659 L 382.9497 361.3232 L 381.9328 360.1922 L 381.0593 358.9343 L 380.6236 358.0437 L 380.0743 356.7119 L 379.3642 355.5527 L 376.0845 351.3866 L 376.5983 347.8728 L 376.8193 346.7814 L 377.1456 345.8353 L 377.9106 344.2061 L 378.223 343.2641 L 378.4537 341.648 L 378.4522 339.999 L 378.3294 338.9145 L 378.0735 337.8724 L 376.995 335.3938 L 376.7335 334.3326 L 376.5577 332.6575 L 376.4437 328.0776 L 376.2782 326.4012 L 376.0275 325.3366 L 375.1406 323.2649 L 374.8513 322.3687 L 374.6176 320.8951 L 374.4942 318.8659 L 375.4263 318.6747 L 376.3332 318.4062 L 378.3222 317.4265 L 379.1793 317.1065 L 381.5012 316.6092 L 382.4102 316.3351 L 384.7763 315.093 L 386.5053 314.3627 L 388.837 313.0405 L 390.545 312.2602 L 391.7725 311.3908 L 393.2215 309.9432 L 394.1381 308.7189 L 395.4237 306.1025 L 398.1238 302.416 L 399.171 300.2395 L 400.0065 298.968 L 401.3548 297.3792 L 403.9002 294.7039 L 405.4175 293.2789 L 406.6471 292.3856 L 407.0916 292.1567 L 407.9979 291.8491 L 409.8436 291.4532 L 410.7376 291.1894 L 412.7174 290.2275 L 413.6089 289.9158 L 414.0985 289.811 L 415.1041 289.6842 L 416.6492 289.6144 L 424.4926 289.6527 L 426.0105 289.4965 L 426.9806 289.243 L 427.7991 288.8669 L 429.3431 288.0016 L 430.6148 287.4152 L 431.4441 286.9336 L 432.5894 286.0005 L 435.4802 283.1799 L 436.2442 282.5455 L 437.0617 282.0125 L 437.498 281.8077 L 438.4126 281.5508 L 441.1291 281.2665 L 441.9502 281.0616 L 442.3274 280.8773 L 442.666 280.6108 L 442.9316 280.2662 L 443.2481 279.4633 L 443.7234 275.7323 L 444.0024 274.8396 L 444.766 273.1926 L 445.0856 272.2965 L 446.0921 267.8448 L 447.5463 267.0514 L 449.2958 266.3355 L 451.2468 265.2537 L 453.2949 264.2768 L 453.6633 264.0254 L 454.3271 263.4177 L 454.8713 262.6846 L 455.2618 261.7748 L 455.4606 260.7397 L 455.6184 256.4153 L 455.7242 255.3452 L 455.9529 254.3148 L 457.0155 251.8197 L 457.2657 250.8921 L 457.6459 248.9807 L 457.945 248.0407 L 458.651 246.8226 L 459.3153 246.0039 L 460.0521 245.2469 L 460.8465 244.5625 L 461.7061 243.987 L 463.4136 243.206 L 465.3748 242.1681 L 466.2894 241.8482 L 467.3114 241.6673 L 468.8894 241.5645 L 473.7357 241.6036 L 473.6848 245.2675 L 473.7239 247.3344 L 473.8832 248.845 L 474.1278 249.8083 L 474.4982 250.6482 L 475.3424 252.2424 L 476.0772 254.0107 L 477.4029 256.3941 L 478.1248 258.1726 L 479.1596 260.1909 L 479.4772 261.0795 L 479.9473 263.4814 L 480.3789 264.8447 L 481.4117 266.8637 L 482.1269 268.6457 L 483.4326 271.0428 L 484.1576 272.822 L 485.4544 275.2233 L 486.1738 277.0052 L 487.4625 279.4092 L 488.1715 281.1945 L 489.4566 283.5965 L 490.2176 285.3599 L 490.7334 286.195 L 491.3433 286.9836 L 494.043 290.0055 L 494.9622 291.1805 L 495.4647 292.0033 L 496.256 293.703 L 496.4949 294.0825 L 497.0653 294.7765 L 497.7389 295.3698 L 498.5286 295.835 L 502.5806 297.5231 L 499.2069 300.9225 L 492.8401 307.5221 L 491.8207 308.5298 L 490.7694 309.4677 L 489.6457 310.2439 L 488.2825 310.8639 L 487.5601 311.2613 L 486.8202 311.7998 L 484.6909 313.6153 L 483.952 314.1586 L 481.4816 315.4239 L 480.7427 315.9679 L 478.6155 317.7903 L 477.8766 318.3335 L 475.4026 319.5975 L 474.6601 320.1394 L 472.1506 322.2215 L 471.3927 322.7017 L 469.7223 323.4868 L 469.3492 323.7307 L 468.6684 324.3192 L 468.0883 325.016 L 467.8473 325.401 L 467.1085 327.1404 L 466.0834 329.1526 L 465.9148 329.5787 L 465.6965 330.4172 L 465.3347 332.5623 L 465.0804 333.3988 L 464.881 333.8208 L 464.377 334.6087 L 463.468 335.7014 L 459.4114 339.8414 L 458.7768 340.5628 L 458.2044 341.3109 L 457.7343 342.107 L 457.4424 342.8277 L 456.6537 345.1283 L 456.2298 346.876 Z" fill="#000000" fill-opacity="1" stroke="#000000" stroke-width="0" paint-order="fill" stroke-opacity="1" stroke-dasharray="" stroke-linecap="butt" stroke-linejoin="miter" stroke-miterlimit="10" transform="matrix(1.100000023841858,0,0,1.100000023841858,-42.49998092651367,-28.3499698638916)" clip-path="none" style="filter: url(#f1)"/>
<path data-code="222" d="M 490.0814 134.4239 L 487.1372 135.1467 L 486.2329 135.4433 L 483.8775 136.7073 L 482.1716 137.4739 L 480.2222 138.5304 L 479.3055 138.8633 L 478.7907 138.9791 L 477.7338 139.1195 L 476.1106 139.197 L 467.277 139.11 L 464.0081 139.2168 L 462.9542 139.3607 L 461.9461 139.6272 L 459.9612 140.5555 L 458.6587 140.9515 L 457.1814 141.1234 L 453.7203 141.2721 L 452.2842 141.5393 L 451.3907 141.936 L 450.5901 142.5046 L 449.5049 143.524 L 447.5257 145.6369 L 446.8644 146.2103 L 446.1153 146.596 L 445.6703 146.6563 L 445.2418 146.5884 L 444.8569 146.422 L 444.5183 146.1829 L 443.9742 145.5409 L 443.7712 145.1504 L 443.5184 144.205 L 443.4239 142.16 L 443.5867 136.7272 L 443.6032 134.0218 L 443.5117 132.4316 L 443.2014 130.9046 L 441.4277 127.1811 L 441.2006 126.7639 L 440.6672 126.0418 L 439.6838 125.1532 L 437.7246 124.1242 L 437.0222 123.6069 L 436.4107 122.9561 L 436.1507 122.5834 L 435.7499 121.7017 L 435.4802 120.1904 L 435.4201 118.6147 L 435.6148 109.9722 L 435.5706 107.8621 L 435.4422 106.8392 L 435.1498 105.8575 L 434.9371 105.441 L 434.3935 104.7004 L 433.7306 104.0824 L 433.3612 103.8241 L 431.7087 103.0219 L 430.1786 102.1731 L 429.3554 101.8045 L 428.8894 101.6716 L 427.9327 101.5345 L 426.9667 101.5393 L 426.0141 101.6866 L 425.1334 101.999 L 421.1096 104.1804 L 419.9705 105.1306 L 417.1522 107.9916 L 416.0357 108.9123 L 415.1914 109.3433 L 414.7311 109.4618 L 413.7974 109.4885 L 413.3376 109.4022 L 412.5324 109.0802 L 408.9434 107.1407 L 407.3819 105.8006 L 403.6639 102.0922 L 402.4744 101.1468 L 401.3347 100.5172 L 401.9708 99.2237 L 402.4441 98.3941 L 404.5836 95.3927 L 404.9623 94.6541 L 405.5686 93.2476 L 406.0639 92.442 L 406.6507 91.6788 L 408.3006 89.8626 L 412.8125 85.232 L 416.9189 80.918 L 417.9733 79.9116 L 419.1227 79.0593 L 419.5471 78.8428 L 420.4283 78.5667 L 421.3409 78.4283 L 422.2698 78.3674 L 423.6777 78.3544 L 425.084 78.4133 L 426.0079 78.5126 L 426.9081 78.6996 L 427.7575 79.0333 L 429.6843 80.1705 L 431.3717 80.9933 L 432.1064 81.5113 L 433.7676 82.9856 L 434.4315 83.4912 L 435.1606 83.8262 L 435.565 83.8803 L 435.9704 83.8296 L 436.348 83.696 L 437.0437 83.2692 L 438.7142 81.8504 L 439.4304 81.3099 L 440.14 80.9036 L 441.1656 80.4405 L 441.8983 80.0301 L 442.6418 79.4738 L 443.3401 78.8442 L 444.2974 77.8022 L 445.0799 76.6382 L 445.4016 75.8414 L 445.6944 74.3109 L 445.8532 73.3374 L 446.0962 72.3858 L 446.4549 71.539 L 447.2595 69.9243 L 447.7764 68.6116 L 448.2286 67.7916 L 448.8195 67.0976 L 449.1622 66.7982 L 449.9448 66.3261 L 450.4031 66.1693 L 450.8712 66.0747 L 451.8151 66.0261 L 452.7425 66.122 L 453.188 66.22 L 453.6124 66.3536 L 455.0342 66.99 L 455.3954 67.0914 L 455.7787 67.1243 L 456.1682 67.0681 L 456.9045 66.7475 L 457.9198 65.9685 L 458.8734 65.0361 L 464.5707 59.0039 L 466.6774 56.6999 L 467.2061 58.5866 L 468.3488 61.6189 L 468.8924 62.515 L 469.544 63.3501 L 472.4311 66.5241 L 473.3807 67.7881 L 473.8513 68.6747 L 474.6128 70.4011 L 475.4899 71.9933 L 476.3875 74.1883 L 477.4578 76.1901 L 478.2111 77.918 L 478.6684 78.7949 L 479.2567 79.6286 L 479.9196 80.4227 L 483.9114 84.6086 L 484.9231 85.7918 L 485.5115 86.6248 L 485.9693 87.5011 L 486.7246 89.2289 L 487.8041 91.2273 L 488.5245 93.0058 L 489.8276 95.3988 L 490.5603 97.1678 L 491.3963 98.7661 L 491.7626 99.6087 L 492.0894 101.1283 L 492.2096 103.2528 L 492.1382 123.3548 L 492.0113 124.9374 L 491.8227 125.9541 L 491.5098 126.8646 L 490.5634 128.9055 L 490.3198 129.8577 L 490.1492 131.3615 L 490.0814 134.4239 Z" fill="#000000" fill-opacity="1" stroke="#000000" stroke-width="0" paint-order="fill" stroke-opacity="1" stroke-dasharray="" stroke-linecap="butt" stroke-linejoin="miter" stroke-miterlimit="10" transform="matrix(1.100000023841858,0,0,1.100000023841858,-42.49998092651367,-28.3499698638916)" clip-path="none" style="filter: url(#f1)"/>
<path data-code="223" d="M 323.8325 375.2677 L 322.8172 374.8052 L 322.5171 374.5579 L 322.2684 374.2421 L 321.9206 373.4871 L 321.2927 371.3263 L 320.3642 369.2902 L 320.0657 368.3544 L 319.8971 367.3158 L 319.8206 366.2504 L 319.8057 359.7345 L 319.6335 357.6203 L 319.3967 356.6146 L 318.4893 354.547 L 318.1866 353.6728 L 317.5536 350.8249 L 317.3866 350.3583 L 316.8928 349.4259 L 315.9356 348.1489 L 314.4748 346.5725 L 313.2997 345.4825 L 312.0244 344.5651 L 311.563 344.3315 L 310.6525 344.0273 L 308.8017 343.6348 L 307.902 343.3744 L 305.4986 342.2536 L 303.6609 341.7946 L 303.9915 340.3703 L 304.3564 339.4064 L 305.3488 337.4723 L 306.0877 335.7069 L 307.2772 333.2604 L 307.6338 331.6127 L 307.7545 329.8897 L 307.7936 315.1506 L 307.661 312.2609 L 307.3198 310.6118 L 306.1974 308.1332 L 305.43 305.8155 L 304.6202 303.9911 L 308.9116 304.1925 L 310.5405 304.1726 L 312.1395 304.0507 L 313.6655 303.7088 L 315.6668 302.773 L 316.5727 302.4626 L 317.5998 302.2722 L 320.7521 301.9262 L 321.7628 301.6618 L 322.9559 301.0698 L 324.7872 299.9655 L 325.4546 299.4386 L 325.7285 299.1111 L 326.8928 297.2765 L 328.0099 295.8206 L 329.8365 297.223 L 331.9072 298.2794 L 332.7355 298.8316 L 333.8833 299.8367 L 334.9156 300.9753 L 335.7578 302.2434 L 336.5018 304.0144 L 337.4806 306.0559 L 337.775 306.9486 L 338.3402 309.8144 L 338.7112 310.7482 L 339.2507 311.6141 L 340.2455 312.7795 L 340.9993 313.4632 L 341.8337 314.038 L 342.2895 314.2641 L 343.3032 314.56 L 344.3494 314.6923 L 345.4145 314.7388 L 366.0979 314.5977 L 367.7051 314.6327 L 368.7579 314.7272 L 369.784 314.9416 L 370.2799 315.1211 L 371.1559 315.6212 L 372.33 316.5996 L 374.4942 318.8659 L 374.6176 320.8951 L 374.8513 322.3687 L 375.1406 323.2649 L 376.0275 325.3366 L 376.2782 326.4012 L 376.4437 328.0776 L 376.5577 332.6575 L 376.7335 334.3326 L 376.995 335.3938 L 378.0735 337.8724 L 378.3294 338.9145 L 378.4522 339.999 L 378.4537 341.648 L 378.223 343.2641 L 377.9106 344.2061 L 377.1456 345.8353 L 376.8193 346.7814 L 376.5983 347.8728 L 376.0845 351.3866 L 373.7101 353.1213 L 372.5823 354.1777 L 371.8933 354.9409 L 371.2818 355.763 L 370.8004 356.6728 L 370.6267 357.1873 L 370.4191 358.2499 L 370.2896 360.4456 L 370.2943 366.0641 L 370.3513 368.29 L 370.5265 369.9178 L 370.6406 370.4446 L 370.9751 371.3893 L 373.3993 375.8329 L 371.3604 375.5116 L 369.2055 375.3355 L 364.8031 375.2608 L 361.5167 375.3225 L 359.9161 375.4657 L 358.8946 375.665 L 358.0083 375.9781 L 356.474 376.681 L 355.6298 376.8865 L 355.1807 376.9119 L 354.2908 376.7982 L 353.5036 376.505 L 351.9606 375.774 L 350.4823 375.4006 L 347.8506 375.1861 L 346.2598 375.2252 L 345.2167 375.3663 L 344.2081 375.678 L 343.3238 376.1932 L 342.5397 376.8482 L 341.5115 377.9848 L 340.9391 378.8158 L 340.505 379.6954 L 339.8457 382.22 L 339.3987 382.9346 L 339.0555 383.2065 L 338.6686 383.3984 L 338.2539 383.5224 L 337.3768 383.6053 L 336.4699 383.4984 L 336.0183 383.3717 L 335.2141 383.0079 L 332.0793 381.2602 L 331.0794 380.3374 L 330.5687 379.5803 L 330.2157 378.663 L 330.0497 377.6395 L 329.929 375.641 L 329.7656 374.7155 L 329.5914 374.2825 L 329.3114 373.8851 L 328.9625 373.5995 L 328.5699 373.4063 L 327.7185 373.2391 L 326.8276 373.3035 L 326.3816 373.4165 L 325.9433 373.5864 L 325.1828 374.0544 L 323.8325 375.2677 Z" fill="#000000" fill-opacity="1" stroke="#000000" stroke-width="0" paint-order="fill" stroke-opacity="1" stroke-dasharray="" stroke-linecap="butt" stroke-linejoin="miter" stroke-miterlimit="10" transform="matrix(1.100000023841858,0,0,1.100000023841858,-42.49998092651367,-28.3499698638916)" clip-path="none" style="filter: url(#f1)"/>
<path data-code="224" d="M 384.9803 241.5426 L 384.8488 243.6198 L 384.7208 247.7407 L 384.4706 249.226 L 384.0929 250.17 L 383.2271 251.4415 L 382.198 252.6124 L 379.2414 255.6158 L 377.7072 257.0169 L 376.4683 257.8787 L 374.7537 258.6467 L 372.7955 259.6867 L 371.9364 260.0025 L 369.1721 260.6232 L 368.297 261.0185 L 367.497 261.5748 L 366.7489 262.2256 L 363.8833 265.0345 L 363.11 265.6443 L 362.2591 266.1252 L 361.3265 266.4088 L 360.36 266.5465 L 356.8979 266.6609 L 355.4459 266.7993 L 354.5292 267.022 L 352.2571 268.0078 L 351.3301 268.151 L 350.4459 267.0275 L 349.3874 265.5065 L 348.9311 264.7064 L 348.5935 263.8096 L 348.3978 262.8374 L 348.0951 259.8566 L 347.9173 258.8892 L 347.624 257.9993 L 346.6996 255.9371 L 346.362 254.3813 L 346.2654 253.3002 L 346.2279 251.6567 L 346.3009 250.0172 L 346.4381 248.9471 L 346.6986 247.9188 L 347.6486 245.8601 L 347.9672 244.9845 L 348.4939 242.6031 L 348.7744 241.6707 L 350.0065 239.2448 L 350.7449 237.4793 L 351.7823 235.4706 L 352.1065 234.5368 L 352.2175 234.0162 L 352.3527 232.9481 L 352.4272 231.3066 L 352.3732 221.8393 L 352.4791 220.2094 L 352.6599 219.1558 L 352.8069 218.6467 L 353.1691 217.8 L 354.0036 216.2023 L 354.5785 214.889 L 355.0631 214.0052 L 356.0254 212.7446 L 358.5627 209.9652 L 359.559 208.7389 L 360.1042 207.8791 L 360.7649 206.4315 L 361.1498 205.7286 L 361.6914 204.9592 L 363.5041 202.7813 L 364.0493 202.0263 L 364.4531 201.2796 L 365.0261 199.9073 L 365.5758 198.8043 L 365.8333 198.037 L 365.8641 197.6143 L 365.7963 197.1896 L 365.4443 196.4216 L 364.9197 195.7303 L 364.2933 195.087 L 363.6007 194.4923 L 362.8541 193.9682 L 362.1178 193.5887 L 360.7372 193.0084 L 359.616 192.2562 L 358.9157 191.6396 L 357.9117 190.6058 L 356.3353 188.6903 L 357.8665 187.6256 L 359.0174 186.6261 L 360.4572 185.1888 L 361.7499 183.6507 L 362.2787 182.8163 L 363.0648 181.0652 L 364.1228 179.0832 L 364.4316 178.1761 L 364.5235 177.6876 L 364.5934 176.6943 L 364.5169 175.6981 L 364.2599 174.7232 L 363.7924 173.8367 L 363.1927 173.0386 L 362.1672 171.9274 L 360.6981 170.5325 L 359.2003 169.2795 L 357.4246 168.0765 L 357.1271 167.7682 L 356.8897 167.3941 L 356.7155 166.9796 L 356.5084 166.0767 L 356.4267 164.6215 L 356.5562 163.1287 L 356.8018 162.1552 L 356.9791 161.7208 L 358.4846 159.0702 L 359.0508 158.4043 L 359.428 158.1563 L 359.8385 157.9816 L 360.2712 157.8631 L 361.1806 157.7452 L 362.125 157.7411 L 363.0833 157.8322 L 364.0323 158.0419 L 364.4932 158.2077 L 365.6863 158.8962 L 368.854 161.1214 L 368.8864 162.495 L 369.0364 163.4582 L 369.3848 164.4208 L 369.9341 165.3333 L 370.9442 166.6014 L 372.4354 168.2183 L 374.3735 170.1701 L 375.5959 171.2313 L 376.4802 171.8171 L 376.9575 172.0445 L 377.9579 172.3227 L 379.5096 172.4638 L 382.6342 172.4939 L 384.1423 172.7207 L 384.6252 172.8988 L 385.4011 173.3805 L 386.047 174.0286 L 386.5392 174.8212 L 386.8527 175.8352 L 386.9842 176.8916 L 387.013 178.5173 L 386.9272 180.1567 L 386.8013 181.2364 L 386.5865 182.2833 L 386.2566 183.2095 L 385.3009 185.2532 L 384.9515 186.8124 L 384.8164 188.4532 L 384.7619 190.6901 L 384.7645 195.1959 L 384.8549 197.4143 L 384.9854 198.4933 L 385.2367 199.5292 L 386.3281 202.0099 L 386.5927 202.9375 L 386.9893 204.8496 L 387.2642 205.7827 L 388.4733 208.2449 L 388.9588 209.5281 L 387.3644 211.9993 L 386.4108 214.1683 L 385.2048 216.6134 L 384.931 217.5492 L 384.4151 219.9292 L 384.1027 220.8055 L 383.1758 222.8676 L 382.8433 224.4385 L 382.701 226.6404 L 382.6635 230.0138 L 382.684 233.3852 L 382.8187 235.5871 L 383.1567 237.1607 L 384.3303 239.6339 L 384.9803 241.5426 Z" fill="#000000" fill-opacity="1" stroke="#000000" stroke-width="0" paint-order="fill" stroke-opacity="1" stroke-dasharray="" stroke-linecap="butt" stroke-linejoin="miter" stroke-miterlimit="10" transform="matrix(1.100000023841858,0,0,1.100000023841858,-42.49998092651367,-28.3499698638916)" clip-path="none" style="filter: url(#f1)"/>
<path data-code="225" d="M 337.8603 275.5836 L 341.121 274.8101 L 342.0392 274.5258 L 342.849 274.1326 L 344.3966 273.2563 L 346.1025 272.476 L 346.8537 271.9896 L 347.5669 271.4203 L 349.6351 269.5719 L 351.3301 268.151 L 352.2571 268.0078 L 354.5292 267.022 L 355.4459 266.7993 L 356.8979 266.6609 L 360.36 266.5465 L 361.3265 266.4088 L 362.2591 266.1252 L 363.11 265.6443 L 363.8833 265.0345 L 366.7489 262.2256 L 367.497 261.5748 L 368.297 261.0185 L 369.1721 260.6232 L 371.9364 260.0025 L 372.7955 259.6867 L 374.7537 258.6467 L 376.4683 257.8787 L 377.7072 257.0169 L 379.2414 255.6158 L 382.198 252.6124 L 383.2271 251.4415 L 384.0929 250.17 L 384.4706 249.226 L 384.7208 247.7407 L 384.8488 243.6198 L 384.9803 241.5426 L 389.7989 241.4563 L 392.2961 241.5008 L 393.7528 241.6844 L 394.6818 241.9722 L 395.1298 242.1976 L 395.9576 242.7593 L 398.2749 244.6927 L 399.0909 245.236 L 400.3507 245.8477 L 401.1893 246.3307 L 401.9837 246.9473 L 402.7282 247.6468 L 403.743 248.7998 L 404.3216 249.6322 L 404.7655 250.505 L 405.3261 251.8231 L 406.1446 253.0961 L 406.8043 253.8812 L 407.5237 254.6129 L 408.7029 255.5672 L 409.5528 256.0392 L 411.2289 256.8065 L 413.167 257.9225 L 414.8909 258.6638 L 417.2041 260.0183 L 418.9223 260.7684 L 420.4751 261.6296 L 421.289 262.0043 L 422.6922 262.325 L 425.5968 262.5867 L 426.5443 262.7607 L 427.4194 263.071 L 429.3714 264.1295 L 430.6492 264.7098 L 431.4791 265.1921 L 432.2498 265.8018 L 435.4324 268.9985 L 436.1625 269.6363 L 436.9554 270.1563 L 437.8484 270.4564 L 438.3119 270.4995 L 439.2265 270.3879 L 440.0203 270.0693 L 441.1461 269.4602 L 441.9723 269.1088 L 444.2845 268.46 L 446.0921 267.8448 L 445.0856 272.2965 L 444.766 273.1926 L 444.0024 274.8396 L 443.7234 275.7323 L 443.2481 279.4633 L 442.9316 280.2662 L 442.666 280.6108 L 442.3274 280.8773 L 441.9502 281.0616 L 441.1291 281.2665 L 438.4126 281.5508 L 437.498 281.8077 L 437.0617 282.0125 L 436.2442 282.5455 L 435.4802 283.1799 L 432.5894 286.0005 L 431.4441 286.9336 L 430.6148 287.4152 L 429.3431 288.0016 L 427.7991 288.8669 L 426.9806 289.243 L 426.0105 289.4965 L 424.4926 289.6527 L 416.6492 289.6144 L 415.1041 289.6842 L 414.0985 289.811 L 413.6089 289.9158 L 412.7174 290.2275 L 410.7376 291.1894 L 409.8436 291.4532 L 407.9979 291.8491 L 407.0916 292.1567 L 406.6471 292.3856 L 405.4175 293.2789 L 403.9002 294.7039 L 401.3548 297.3792 L 400.0065 298.968 L 399.171 300.2395 L 398.1238 302.416 L 395.4237 306.1025 L 394.1381 308.7189 L 393.2215 309.9432 L 391.7725 311.3908 L 390.545 312.2602 L 388.837 313.0405 L 386.5053 314.3627 L 384.7763 315.093 L 382.4102 316.3351 L 381.5012 316.6092 L 379.1793 317.1065 L 378.3222 317.4265 L 376.3332 318.4062 L 375.4263 318.6747 L 374.4942 318.8659 L 372.33 316.5996 L 371.1559 315.6212 L 370.2799 315.1211 L 369.784 314.9416 L 368.7579 314.7272 L 367.7051 314.6327 L 366.0979 314.5977 L 345.4145 314.7388 L 344.3494 314.6923 L 343.3032 314.56 L 342.2895 314.2641 L 341.8337 314.038 L 340.9993 313.4632 L 340.2455 312.7795 L 339.2507 311.6141 L 338.7112 310.7482 L 338.3402 309.8144 L 337.775 306.9486 L 337.4806 306.0559 L 336.5018 304.0144 L 335.7578 302.2434 L 334.9156 300.9753 L 333.8833 299.8367 L 332.7355 298.8316 L 331.9072 298.2794 L 329.8365 297.223 L 328.0099 295.8206 L 328.8772 294.7163 L 329.3972 293.9524 L 330.4238 291.8128 L 330.9453 290.9852 L 331.8872 289.8199 L 334.9464 286.4513 L 335.5286 285.6497 L 335.9921 284.7906 L 336.5562 283.4752 L 337.6008 281.4734 L 337.9066 280.5636 L 338.0633 279.5736 L 338.1095 278.0479 L 338.0515 277.0223 L 337.8603 275.5836 Z" fill="#000000" fill-opacity="1" stroke="#000000" stroke-width="0" paint-order="fill" stroke-opacity="1" stroke-dasharray="" stroke-linecap="butt" stroke-linejoin="miter" stroke-miterlimit="10" transform="matrix(1.100000023841858,0,0,1.100000023841858,-42.49998092651367,-28.3499698638916)" clip-path="none" style="filter: url(#f1)"/>
<path data-code="226" d="M 321.7685 405.4516 L 318.3567 407.8665 L 317.5413 408.2776 L 317.0552 408.4372 L 316.0476 408.6243 L 315.0148 408.6996 L 309.7749 408.7174 L 308.7539 408.8428 L 307.7663 409.1278 L 307.3255 409.3436 L 306.5106 409.8924 L 305.395 410.8864 L 303.6766 412.754 L 302.3057 414.5675 L 300.8847 415.7403 L 299.7808 416.7577 L 298.8282 417.7833 L 298.015 418.8979 L 297.6405 419.6598 L 296.7043 422.3364 L 296.238 424.1602 L 288.6553 416.2644 L 286.834 414.4935 L 286.0379 413.8269 L 285.1919 413.2507 L 283.1019 412.1381 L 280.3609 409.9376 L 279.527 409.3875 L 279.0797 409.1675 L 278.1584 408.8819 L 277.2071 408.7243 L 274.8034 408.4694 L 273.8683 408.2858 L 273.0079 407.983 L 271.0163 407.0342 L 270.0264 406.7752 L 267.9403 406.5703 L 264.0897 406.5114 L 262.6688 402.5961 L 261.5299 400.1167 L 261.2696 399.0542 L 261.099 397.3873 L 261.0577 395.6801 L 261.1956 386.4792 L 261.0263 384.8343 L 260.7072 383.7923 L 260.4909 383.3799 L 259.9424 382.6482 L 258.8978 381.7939 L 258.0549 381.3952 L 256.0248 380.6162 L 254.1111 380.0414 L 256.4531 377.8751 L 260.6803 373.546 L 262.1256 372.1991 L 263.2979 371.3674 L 264.9984 370.5809 L 266.9396 369.5108 L 267.3566 369.3347 L 268.2912 369.0888 L 269.7546 368.9347 L 272.2618 368.9114 L 277.325 369.0354 L 279.3012 368.9833 L 280.2563 368.8463 L 280.7198 368.7216 L 281.1681 368.5435 L 281.9291 368.0509 L 282.566 367.4151 L 283.0731 366.6773 L 283.8295 364.9686 L 284.5994 363.7307 L 286.2285 361.7994 L 288.0359 360.0216 L 288.8074 359.3974 L 289.6256 358.8747 L 291.3479 358.1204 L 293.2907 357.0236 L 294.9763 356.2782 L 295.7974 355.8404 L 296.8982 354.9909 L 298.2116 353.6399 L 298.7855 352.8966 L 299.2682 352.1019 L 300.0164 350.3323 L 301.3058 347.9269 L 302.012 346.1395 L 303.2206 343.6985 L 303.4816 342.7585 L 303.6609 341.7946 L 305.4986 342.2536 L 307.902 343.3744 L 308.8017 343.6348 L 310.6525 344.0273 L 311.563 344.3315 L 312.0244 344.5651 L 313.2997 345.4825 L 314.4748 346.5725 L 315.9356 348.1489 L 316.8928 349.4259 L 317.3866 350.3583 L 317.5536 350.8249 L 318.1866 353.6728 L 318.4893 354.547 L 319.3967 356.6146 L 319.6335 357.6203 L 319.8057 359.7345 L 319.8206 366.2504 L 319.8971 367.3158 L 320.0657 368.3544 L 320.3642 369.2902 L 321.2927 371.3263 L 321.9206 373.4871 L 322.2684 374.2421 L 322.5171 374.5579 L 322.8172 374.8052 L 323.8325 375.2677 L 323.794 381.078 L 323.9522 383.9177 L 324.3006 385.527 L 325.1854 387.4994 L 325.5343 388.5099 L 325.7927 390.0904 L 325.878 392.271 L 325.804 393.907 L 325.5517 395.4965 L 325.2008 396.5166 L 324.2903 398.4828 L 323.7909 400.3572 L 323.5977 401.3157 L 323.3259 402.2501 L 321.7685 405.4516 Z" fill="#000000" fill-opacity="1" stroke="#000000" stroke-width="0" paint-order="fill" stroke-opacity="1" stroke-dasharray="" stroke-linecap="butt" stroke-linejoin="miter" stroke-miterlimit="10" transform="matrix(1.100000023841858,0,0,1.100000023841858,-42.49998092651367,-28.3499698638916)" clip-path="none" style="filter: url(#f1)"/>
<path data-code="227" d="M 370.0718 510.2999 L 368.4471 506.9059 L 367.7508 505.0884 L 366.4858 502.6631 L 365.5856 500.4729 L 364.075 497.7996 L 363.5796 497.1043 L 362.9137 496.5788 L 360.7074 495.2504 L 359.8961 494.8633 L 358.4872 494.5132 L 355.6175 494.1364 L 356.122 491.4379 L 356.4226 490.4883 L 356.6451 490.0238 L 357.2 489.1613 L 357.8541 488.3727 L 358.5766 487.6479 L 359.355 486.9964 L 360.191 486.4483 L 361.8938 485.6584 L 364.2245 484.3423 L 365.9417 483.5942 L 368.3181 482.3836 L 369.8914 482.0308 L 372.089 481.9027 L 384.45 481.9582 L 395.1298 481.9143 L 396.7766 482.0144 L 398.354 482.3569 L 399.169 482.7324 L 401.3691 484.0505 L 402.0376 484.5842 L 402.5463 485.2816 L 403.8103 487.5725 L 404.1797 488.4118 L 404.4444 489.3661 L 405.0943 493.0499 L 400.6123 494.8585 L 399.8308 495.2922 L 397.685 496.6802 L 397.0818 497.2235 L 396.8614 497.564 L 396.4462 498.6978 L 395.0692 499.0075 L 394.6227 499.1746 L 393.7862 499.6535 L 392.6439 500.5948 L 389.766 503.4058 L 388.5873 504.2841 L 388.1578 504.5067 L 387.2488 504.8047 L 385.378 505.1569 L 384.4547 505.398 L 381.1415 506.9258 L 376.9503 507.0286 L 375.8903 507.1279 L 374.857 507.3355 L 374.3576 507.5026 L 373.3849 508.0034 L 370.0718 510.2999 Z" fill="#000000" fill-opacity="1" stroke="#000000" stroke-width="0" paint-order="fill" stroke-opacity="1" stroke-dasharray="" stroke-linecap="butt" stroke-linejoin="miter" stroke-miterlimit="10" transform="matrix(1.100000023841858,0,0,1.100000023841858,-42.49998092651367,-28.3499698638916)" clip-path="none" style="filter: url(#f1)"/>
<path data-code="228" d="M 273.5659 225.2079 L 272.371 223.5774 L 271.3472 222.4291 L 270.186 221.4282 L 269.3019 220.9233 L 268.3177 220.6308 L 267.2978 220.4999 L 265.734 220.4506 L 262.0427 220.4561 L 261.0065 220.3821 L 259.9982 220.2074 L 259.0959 219.8888 L 257.1796 218.8571 L 255.7635 218.2384 L 254.7086 217.5814 L 253.6666 216.6805 L 252.6772 215.6995 L 244.8759 207.5249 L 242.8599 205.5169 L 242.1534 204.9024 L 241.4127 204.3598 L 240.687 203.9638 L 239.3179 203.3582 L 238.549 202.8717 L 237.1146 201.6543 L 235.1023 199.597 L 234.1887 198.5015 L 233.4434 197.3122 L 232.77 195.4837 L 232.1031 193.8641 L 231.5232 192.1877 L 233.2286 191.4786 L 234.9915 190.8264 L 237.3189 189.4939 L 238.6903 188.8876 L 239.4178 188.482 L 240.1588 187.938 L 242.6467 185.8314 L 243.4046 185.3333 L 244.7611 184.69 L 245.4812 184.281 L 246.2183 183.735 L 248.3452 181.9154 L 249.0877 181.3755 L 249.8165 180.9747 L 251.1923 180.3773 L 253.5114 179.0318 L 254.8841 178.4371 L 255.6083 178.0398 L 256.3426 177.5054 L 258.8446 175.3844 L 259.6036 174.8877 L 260.9639 174.2574 L 261.6861 173.8532 L 262.4242 173.3099 L 263.487 172.3987 L 264.8692 171.1847 L 265.6559 170.7148 L 266.1126 170.5435 L 267.0591 170.3585 L 268.0174 170.3496 L 268.9572 170.5236 L 269.4068 170.6969 L 270.1616 171.1813 L 270.7884 171.7924 L 271.2963 172.4727 L 271.9278 173.5524 L 272.4689 174.1464 L 273.9014 175.1364 L 276.9856 177.702 L 277.8118 178.2323 L 279.4735 179.0462 L 279.844 179.2928 L 280.5228 179.8813 L 281.1049 180.574 L 281.3498 180.9556 L 282.1179 182.6779 L 282.9346 184.2796 L 283.2884 185.1298 L 283.5795 186.5911 L 283.804 189.6015 L 283.9661 190.5825 L 284.2616 191.4896 L 285.27 193.5127 L 286.0199 195.2761 L 286.7772 196.4168 L 287.7021 197.4581 L 289.111 198.7317 L 290.6841 199.9128 L 288.8009 202.7594 L 288.1535 203.9809 L 287.8606 204.9133 L 287.4629 206.8131 L 287.1999 207.7476 L 286.1214 210.2406 L 285.821 211.7978 L 285.6638 216.1407 L 285.5448 217.2101 L 285.2707 218.2473 L 284.7983 219.1647 L 284.1876 219.9875 L 283.4891 220.7349 L 282.7222 221.4036 L 281.8862 221.9653 L 280.9847 222.3531 L 278.6717 222.8443 L 277.7661 223.1074 L 276.9556 223.4869 L 275.3766 224.3824 L 273.5659 225.2079 Z" fill="#000000" fill-opacity="1" stroke="#000000" stroke-width="0" paint-order="fill" stroke-opacity="1" stroke-dasharray="" stroke-linecap="butt" stroke-linejoin="miter" stroke-miterlimit="10" transform="matrix(1.100000023841858,0,0,1.100000023841858,-42.49998092651367,-28.3499698638916)" clip-path="none" style="filter: url(#f1)"/>
<path data-code="229" d="M 302.3057 414.5675 L 303.6766 412.754 L 305.395 410.8864 L 306.5106 409.8924 L 307.3255 409.3436 L 307.7663 409.1278 L 308.7539 408.8428 L 309.7749 408.7174 L 315.0148 408.6996 L 316.0476 408.6243 L 317.0552 408.4372 L 317.5413 408.2776 L 318.3567 407.8665 L 321.7685 405.4516 L 321.7798 410.633 L 321.8944 416.5905 L 321.8563 418.2334 L 321.7186 419.2501 L 321.3739 420.177 L 321.0692 420.5812 L 320.6648 420.9018 L 320.2157 421.117 L 319.2425 421.3424 L 318.199 421.417 L 309.6012 421.3752 L 307.9107 421.3129 L 306.2894 421.0211 L 305.7763 420.8155 L 304.8717 420.2051 L 304.1431 419.3994 L 303.8515 418.9384 L 302.8658 416.3768 L 302.3057 414.5675 Z" fill="#000000" fill-opacity="1" stroke="#000000" stroke-width="0" paint-order="fill" stroke-opacity="1" stroke-dasharray="" stroke-linecap="butt" stroke-linejoin="miter" stroke-miterlimit="10" transform="matrix(1.100000023841858,0,0,1.100000023841858,-42.49998092651367,-28.3499698638916)" clip-path="none" style="filter: url(#f1)"/>
<path data-code="230" d="M 356.3353 188.6903 L 354.7229 187.7017 L 353.0581 186.92 L 352.2129 186.4473 L 351.4088 185.8492 L 349.4794 184.1995 L 348.2565 183.3417 L 346.5593 182.5368 L 344.2502 181.1741 L 342.5304 180.4294 L 340.5754 179.375 L 340.1607 179.201 L 339.2348 178.9503 L 335.858 178.5536 L 334.9187 178.357 L 334.0601 178.0329 L 332.0855 177.0197 L 331.1637 176.7525 L 330.2131 176.61 L 328.795 176.5757 L 327.8896 176.6915 L 327.0536 176.9854 L 326.6821 177.2314 L 326.3744 177.5438 L 324.8257 180.1259 L 324.4152 180.9343 L 323.7549 182.7149 L 322.8917 184.664 L 322.7206 185.4621 L 322.7077 186.0842 L 322.1225 188.0531 L 321.7361 188.9842 L 321.2531 189.7912 L 320.0919 191.2717 L 318.0726 189.1794 L 316.6981 189.498 L 316.2505 189.6631 L 315.3508 190.1598 L 314.1136 191.1402 L 312.5824 192.6529 L 311.5208 193.8737 L 310.6057 195.1761 L 310.1638 196.0797 L 309.444 197.8164 L 307.9544 200.4376 L 307.4061 201.0925 L 307.0156 201.3549 L 306.5853 201.542 L 305.6499 201.7557 L 304.6531 201.8366 L 303.0996 201.816 L 301.5362 201.6564 L 300.0382 201.2714 L 297.651 200.0896 L 296.7287 199.8306 L 295.7655 199.6902 L 293.2869 199.6326 L 291.795 199.7436 L 290.6841 199.9128 L 289.111 198.7317 L 287.7021 197.4581 L 286.7772 196.4168 L 286.0199 195.2761 L 285.27 193.5127 L 284.2616 191.4896 L 283.9661 190.5825 L 283.804 189.6015 L 283.5795 186.5911 L 283.2884 185.1298 L 282.9346 184.2796 L 282.1179 182.6779 L 281.3498 180.9556 L 281.1049 180.574 L 280.5228 179.8813 L 279.844 179.2928 L 279.4735 179.0462 L 277.8118 178.2323 L 276.9856 177.702 L 273.9014 175.1364 L 272.4689 174.1464 L 271.9278 173.5524 L 271.2963 172.4727 L 270.7884 171.7924 L 270.1616 171.1813 L 269.4068 170.6969 L 268.9572 170.5236 L 268.0174 170.3496 L 267.0591 170.3585 L 266.1126 170.5435 L 265.6559 170.7148 L 264.8692 171.1847 L 263.487 172.3987 L 261.8071 170.6675 L 260.41 169.3918 L 259.2793 168.6218 L 257.9072 168.0114 L 257.1647 167.6058 L 256.0155 166.7069 L 254.9221 165.6033 L 254.2606 164.7894 L 253.6992 163.9076 L 252.9254 162.1483 L 251.8929 160.1287 L 251.5836 159.2141 L 251.4138 158.2234 L 251.3465 157.2129 L 251.3881 155.6906 L 251.5181 154.6918 L 251.7675 153.7306 L 251.9381 153.3024 L 252.741 151.6856 L 253.0708 150.8134 L 253.6103 148.4334 L 253.884 147.5044 L 254.9928 145.0271 L 255.2985 143.5713 L 255.448 141.0282 L 255.9472 139.1504 L 256.4646 137.8932 L 258.0649 136.1216 L 258.8942 134.9877 L 259.3333 134.1499 L 260.0968 132.4227 L 261.1915 130.4332 L 261.9407 128.676 L 262.8124 127.2852 L 264.6364 126.7097 L 266.9633 126.087 L 267.819 125.7506 L 269.4101 124.9669 L 270.3152 124.6586 L 271.8459 124.4236 L 276.0397 124.1886 L 277.5465 123.8556 L 278.3673 123.4912 L 279.9278 122.6485 L 281.6372 121.8798 L 283.9512 120.5261 L 285.6653 119.7608 L 288.0312 118.5201 L 288.9356 118.2344 L 291.237 117.6918 L 292.0855 117.3705 L 294.0879 116.4258 L 295.6301 116.0777 L 297.2448 115.9469 L 299.9894 115.9017 L 302.7317 115.964 L 304.3407 116.112 L 305.8693 116.4737 L 307.8542 117.4246 L 308.7657 117.7487 L 309.8103 117.9515 L 310.8893 118.0577 L 313.0952 118.1317 L 320.9001 118.1858 L 322.5305 118.0899 L 323.59 117.8891 L 324.1053 117.7131 L 324.5642 117.4918 L 325.4074 116.9293 L 326.5265 115.8921 L 327.4673 114.6808 L 327.9395 113.7608 L 328.107 113.2415 L 328.3027 112.1734 L 328.4014 110.5305 L 328.3351 99.284 L 330.1628 98.801 L 332.1605 97.8515 L 333.072 97.537 L 334.1012 97.3411 L 336.7309 97.0506 L 337.7586 96.8553 L 338.6691 96.5436 L 340.2614 95.7756 L 341.1241 95.4653 L 344.4408 94.8412 L 346.3476 94.1855 L 348.4307 95.3707 L 349.9814 96.3388 L 350.7917 96.7389 L 351.7032 97.015 L 354.0221 97.5041 L 355.266 98.0488 L 357.4636 99.3943 L 358.1136 99.9054 L 359.2759 101.6264 L 359.8452 102.2724 L 360.5157 102.841 L 360.8888 103.0801 L 361.7366 103.4631 L 363.7811 104.1708 L 364.9402 104.4359 L 364.7363 108.2629 L 364.6546 114.2917 L 364.781 116.4319 L 364.9834 117.4657 L 365.1504 117.9631 L 365.3667 118.4276 L 365.9062 119.286 L 367.4672 121.2831 L 368.0401 122.1059 L 369.0976 124.2687 L 369.6412 125.1183 L 370.2845 125.9123 L 371.363 127.0043 L 372.1394 127.6483 L 372.9615 128.1847 L 374.208 128.7732 L 374.988 129.2323 L 375.674 129.8098 L 376.2685 130.4921 L 376.7473 131.2916 L 377.3151 132.5693 L 378.1074 134.1293 L 378.4101 134.9692 L 378.4928 135.4433 L 378.483 136.3997 L 378.3921 136.8683 L 378.0853 137.6952 L 377.516 138.8736 L 377.2005 139.732 L 376.6893 142.1155 L 376.4149 143.0575 L 375.1884 145.4971 L 374.412 147.2557 L 373.8838 148.0847 L 373.2621 148.8616 L 370.1864 152.1864 L 369.5929 152.9831 L 369.1217 153.86 L 368.8391 154.8233 L 368.669 156.3305 L 368.6726 158.3933 L 368.854 161.1214 L 365.6863 158.8962 L 364.4932 158.2077 L 364.0323 158.0419 L 363.0833 157.8322 L 362.125 157.7411 L 361.1806 157.7452 L 360.2712 157.8631 L 359.8385 157.9816 L 359.428 158.1563 L 359.0508 158.4043 L 358.4846 159.0702 L 356.9791 161.7208 L 356.8018 162.1552 L 356.5562 163.1287 L 356.4267 164.6215 L 356.5084 166.0767 L 356.7155 166.9796 L 356.8897 167.3941 L 357.1271 167.7682 L 357.4246 168.0765 L 359.2003 169.2795 L 360.6981 170.5325 L 362.1672 171.9274 L 363.1927 173.0386 L 363.7924 173.8367 L 364.2599 174.7232 L 364.5169 175.6981 L 364.5934 176.6943 L 364.5235 177.6876 L 364.4316 178.1761 L 364.1228 179.0832 L 363.0648 181.0652 L 362.2787 182.8163 L 361.7499 183.6507 L 360.4572 185.1888 L 359.0174 186.6261 L 357.8665 187.6256 L 356.3353 188.6903 Z" fill="#000000" fill-opacity="1" stroke="#000000" stroke-width="0" paint-order="fill" stroke-opacity="1" stroke-dasharray="" stroke-linecap="butt" stroke-linejoin="miter" stroke-miterlimit="10" transform="matrix(1.100000023841858,0,0,1.100000023841858,-42.49998092651367,-28.3499698638916)" clip-path="none" style="filter: url(#f1)"/>































</svg>