<?xml version="1.0" standalone="no"?>
<!-- Generator: Paintmaps.com , Online SVG vector map maker -->
<svg xmlns="http://www.w3.org/2000/svg" version="1.1" baseProfile="full"   style="background-color:#e0f2f1" width="800" height="500" viewBox="0 0 800 533">

<path data-code="200" d="M 503.821 98.4265 L 504.7546 101.2827 L 504.9314 102.966 L 504.7758 104.6528 L 504.2153 106.276 L 503.3135 107.7448 L 500.0636 111.8128 L 499.1335 113.2604 L 497.7694 116.2698 L 495.5158 120.392 L 494.2896 123.4628 L 492.0564 127.5909 L 490.7302 130.6204 L 489.2989 132.7976 L 486.5387 136.2255 L 485.5362 137.6519 L 484.744 139.1513 L 483.7662 141.4228 L 481.4932 145.5309 L 480.2537 148.591 L 478.4953 152.0696 L 477.971 153.6209 L 477.5794 156.1589 L 477.2319 160.4697 L 476.7138 162.9746 L 476.1029 164.4351 L 474.6981 167.2088 L 473.4091 170.2548 L 472.4834 171.7389 L 471.3827 173.1205 L 470.1724 174.4136 L 468.8772 175.6124 L 467.4945 176.6686 L 466.0278 177.4879 L 463.8246 178.4545 L 461.1538 179.9138 L 459.741 180.5504 L 458.1311 180.963 L 456.4646 181.1681 L 449.5439 181.3696 L 446.9871 181.5512 L 445.4373 181.7846 L 443.3473 182.2985 L 440.9346 181.4168 L 439.3875 180.7119 L 437.2144 179.2207 L 435.905 178.0325 L 434.7053 176.7358 L 433.6515 175.3213 L 432.8319 173.7452 L 432.3563 171.9994 L 432.1459 170.1971 L 432.0751 167.4375 L 432.2007 158.1039 L 432.0318 155.3608 L 431.7268 153.5903 L 431.1902 151.9966 L 429.4397 148.5191 L 428.2267 145.4213 L 426.1579 141.1116 L 428.384 139.202 L 430.7605 137.6059 L 431.2989 137.1226 L 432.1591 135.9356 L 434.715 131.2935 L 435.2676 129.7681 L 436.0854 125.6412 L 436.5336 124.0262 L 438.6095 119.8191 L 439.8596 116.7637 L 441.9805 112.5672 L 442.4641 110.937 L 443.6214 105.3507 L 447.9092 105.6194 L 452.8849 105.702 L 483.5434 105.8151 L 488.3865 105.5805 L 490.2537 105.2399 L 492.013 104.6069 L 495.255 102.8941 L 498.893 101.2485 L 503.821 98.4265 Z" fill="#000000" fill-opacity="1" stroke="#000000" stroke-width="0" paint-order="fill" stroke-opacity="1" stroke-dasharray="" stroke-linecap="butt" stroke-linejoin="miter" stroke-miterlimit="10" transform="matrix(1.100000023841858,0,0,1.100000023841858,-39.999961853027344,-26.65000343322754)" clip-path="none" style="filter: url(#f1)"/>
<path data-code="201" d="M 370.1904 255.9811 L 369.8032 253.9265 L 369.2144 248.7127 L 368.8988 247.0306 L 368.3834 245.4828 L 366.7796 241.9512 L 366.3367 240.3539 L 365.6692 237.0639 L 365.1547 235.4549 L 364.7754 234.6686 L 363.84 233.1951 L 360.1401 228.3468 L 358.6442 225.4705 L 357.8742 224.2045 L 356.373 222.5436 L 355.7948 218.9094 L 355.5021 215.3093 L 355.5198 210.8594 L 355.8142 208.2625 L 356.2536 206.6099 L 356.5577 205.8743 L 358.3967 202.4464 L 359.7042 199.4299 L 361.5635 196.009 L 362.1293 194.4566 L 362.4529 192.7615 L 362.5961 191.0239 L 362.5537 188.4011 L 362.3397 186.6789 L 361.9092 185.0168 L 361.6086 184.2754 L 359.8024 180.8262 L 358.5363 177.7802 L 356.266 173.6733 L 354.9284 170.6521 L 353.4979 168.4772 L 350.7342 165.0599 L 349.7246 163.6395 L 348.921 162.1424 L 347.9414 159.8803 L 346.1237 156.4312 L 345.5703 154.8681 L 345.2467 153.1671 L 345.0787 151.4225 L 344.9929 148.7702 L 345.0628 146.1227 L 345.2361 144.3828 L 345.5932 142.6841 L 346.2537 141.0822 L 347.1873 139.6417 L 348.852 137.6613 L 355.6728 130.7831 L 358.7777 133.2585 L 362.3503 135.0821 L 366.3208 137.4232 L 369.2613 138.734 L 373.336 140.8417 L 375.9662 141.444 L 380.575 141.6857 L 398.4673 141.5525 L 404.0353 141.7576 L 405.8282 142.0193 L 407.538 142.4979 L 410.9268 144.1918 L 412.4836 144.7718 L 414.2598 145.123 L 417.0031 145.2763 L 419.7367 145.0028 L 421.4908 144.4712 L 423.4172 143.3442 L 426.1579 141.1116 L 428.2267 145.4213 L 429.4397 148.5191 L 431.1902 151.9966 L 431.7268 153.5903 L 432.0318 155.3608 L 432.2007 158.1039 L 432.0751 167.4375 L 432.1459 170.1971 L 432.3563 171.9994 L 432.8319 173.7452 L 433.6515 175.3213 L 434.7053 176.7358 L 435.905 178.0325 L 437.2144 179.2207 L 439.3875 180.7119 L 440.9346 181.4168 L 443.3473 182.2985 L 442.2829 186.4714 L 441.7727 188.0711 L 439.7871 192.3147 L 439.3654 193.9674 L 439.1541 195.6825 L 439.1152 198.2923 L 439.3989 200.8692 L 439.8348 202.5065 L 441.504 206.0016 L 442.0459 207.5341 L 442.3651 209.2138 L 442.5224 211.8119 L 442.3686 214.4088 L 442.0556 216.0909 L 441.5234 217.6304 L 439.8905 221.1503 L 439.4582 222.8843 L 439.1806 225.6214 L 439.0285 233.8871 L 438.5927 236.3708 L 437.8889 237.7841 L 437.3991 238.3146 L 433.7726 241.0329 L 431.916 242.8258 L 430.7649 244.1425 L 429.3123 246.2915 L 427.9367 249.2891 L 427.0305 250.7697 L 425.3719 252.8267 L 423.4773 254.6656 L 422.0849 255.7076 L 420.5899 256.4904 L 416.2623 258.0735 L 413.3165 258.8468 L 410.8375 257.5784 L 408.2931 256.9383 L 404.7178 256.6389 L 399.2735 256.686 L 396.6027 256.9501 L 394.8876 257.3132 L 393.3616 257.8837 L 390.6625 259.2641 L 389.1012 259.8275 L 386.4153 260.2495 L 383.6667 260.259 L 381.8552 260.0456 L 380.11 259.5882 L 376.6859 257.8967 L 375.2236 257.3025 L 370.1904 255.9811 Z" fill="#000000" fill-opacity="1" stroke="#000000" stroke-width="0" paint-order="fill" stroke-opacity="1" stroke-dasharray="" stroke-linecap="butt" stroke-linejoin="miter" stroke-miterlimit="10" transform="matrix(1.100000023841858,0,0,1.100000023841858,-39.999961853027344,-26.65000343322754)" clip-path="none" style="filter: url(#f1)"/>
<path data-code="202" d="M 376.0723 422.2011 L 373.6826 422.7409 L 372.2079 423.3127 L 368.8484 425.1551 L 365.8814 426.4258 L 361.8181 428.576 L 360.2586 429.0475 L 357.0546 429.7029 L 355.4915 430.1697 L 351.4194 432.3056 L 348.4559 433.5799 L 345.1556 435.5072 L 343.1973 436.409 L 339.9978 431.8695 L 338.7636 429.8208 L 338.1748 428.2565 L 337.7752 425.6915 L 337.7319 423.9492 L 337.8274 422.2105 L 338.2747 419.6726 L 338.8414 418.1437 L 340.576 414.6627 L 341.1958 412.1766 L 341.3744 410.4509 L 341.4035 408.7145 L 341.118 406.1566 L 340.5831 404.5416 L 340.1959 403.8449 L 339.2287 402.6308 L 337.4622 401.2386 L 334.7357 399.896 L 333.5325 399.0237 L 332.4786 397.9192 L 332.0286 397.2838 L 331.3196 395.7514 L 330.9359 393.9808 L 330.7414 391.2071 L 331.065 375.8569 L 330.9916 372.1025 L 330.5539 369.4007 L 330.2436 368.5437 L 329.4347 367.1704 L 328.3862 366.0129 L 327.1546 365.0816 L 320.2154 361.6832 L 318.6382 361.2317 L 314.6332 360.4018 L 313.1559 359.8596 L 309.7247 358.201 L 308.1661 357.7425 L 304.1779 356.8584 L 302.7015 356.2831 L 299.3428 354.4442 L 296.3838 353.1499 L 292.3939 350.8324 L 289.4392 349.524 L 285.4281 347.2407 L 282.4514 345.9735 L 278.4624 343.7031 L 276.3184 342.6905 L 274.9958 341.8571 L 273.3523 340.2398 L 272.4894 338.9691 L 271.1412 336.041 L 270.2544 334.5781 L 269.19 333.1954 L 268.0018 331.9022 L 266.017 330.1989 L 264.5326 329.3337 L 263.7626 329.0366 L 259.8009 328.1372 L 258.2467 327.668 L 256.8578 326.9961 L 254.1763 325.393 L 251.6523 324.0645 L 251.1262 320.4255 L 250.8751 315.4935 L 250.8734 309.4534 L 251.2376 305.5351 L 251.7371 303.6643 L 252.1182 302.7767 L 256.3468 295.5955 L 257.436 295.3763 L 258.4465 295.0085 L 261.6991 293.2627 L 264.6475 291.9873 L 265.971 291.1326 L 268.4129 288.9861 L 274.2072 283.0013 L 276.5854 280.7357 L 278.4783 279.2799 L 279.7248 278.5962 L 282.0624 277.5329 L 283.339 276.6936 L 284.537 275.6869 L 285.6721 274.5765 L 287.7223 272.2001 L 294.9622 270.5734 L 298.8999 270.9294 L 302.8421 271.0991 L 307.7417 271.0991 L 310.6256 270.8881 L 313.3875 270.2504 L 317.4994 268.1085 L 320.2056 266.9333 L 320.5584 273.6948 L 320.8616 276.2846 L 321.332 277.9432 L 321.706 278.7471 L 322.6528 280.2347 L 324.352 282.2905 L 326.2033 284.2603 L 329.4002 287.4748 L 332.0295 289.9161 L 333.3981 291.01 L 334.8338 291.9318 L 337.0237 292.9432 L 338.4754 293.7436 L 340.5203 295.3503 L 342.9516 297.9024 L 344.4174 300.0749 L 345.7117 303.1091 L 347.4463 306.5925 L 347.9555 308.1614 L 348.303 310.7276 L 348.5788 318.6574 L 349.0774 321.18 L 349.6804 322.6405 L 352.4396 328.3258 L 353.3441 329.5883 L 354.4306 330.6881 L 355.6586 331.5981 L 358.4762 333.0457 L 359.9182 334.0182 L 361.9666 335.7911 L 365.9106 339.654 L 367.9908 341.3915 L 369.5398 342.2874 L 370.3655 342.5927 L 372.9497 343.0725 L 376.5179 343.2304 L 383.756 343.1432 L 386.4268 342.9664 L 389.0013 342.5161 L 390.5201 341.9538 L 393.9186 340.2469 L 396.3295 339.6504 L 398.8616 339.4158 L 401.4298 339.3817 L 403.9849 339.5219 L 405.6523 339.7624 L 407.9668 340.5039 L 411.3679 342.2049 L 412.9124 342.6752 L 416.8926 343.5723 L 418.3699 344.1522 L 421.7127 346.0194 L 423.9061 347.032 L 425.3463 347.8607 L 426.7131 348.8992 L 430.0178 351.7189 L 431.4359 352.6973 L 432.198 353.0957 L 434.5798 353.8313 L 439.833 354.8486 L 438.3955 360.0022 L 437.8005 361.5217 L 435.9846 364.9885 L 434.7239 368.0439 L 432.4747 372.1662 L 431.2052 375.2192 L 428.9631 379.3485 L 427.7051 382.4075 L 425.8626 385.8543 L 425.2367 387.336 L 424.182 390.4586 L 423.4216 392.0806 L 422.168 394.0398 L 421.1416 396.0614 L 420.2354 397.4795 L 418.9738 398.7962 L 418.2444 399.3538 L 417.4522 399.8206 L 415.9475 400.3899 L 411.2663 401.5546 L 407.1411 403.6009 L 404.1688 404.8882 L 398.4116 408.2878 L 395.929 410.379 L 394.7479 410.9731 L 392.1699 411.869 L 391.0082 412.4949 L 389.2426 414.2537 L 387.2923 415.8014 L 385.5188 417.5661 L 384.3439 418.1932 L 381.1276 419.3354 L 380.0516 420.0227 L 378.5937 421.2062 L 377.3914 421.7779 L 376.0723 422.2011 Z" fill="#000000" fill-opacity="1" stroke="#000000" stroke-width="0" paint-order="fill" stroke-opacity="1" stroke-dasharray="" stroke-linecap="butt" stroke-linejoin="miter" stroke-miterlimit="10" transform="matrix(1.100000023841858,0,0,1.100000023841858,-39.999961853027344,-26.65000343322754)" clip-path="none" style="filter: url(#f1)"/>
<path data-code="203" d="M 252.9236 137.1026 L 261.4409 133.6334 L 265.4565 131.3536 L 268.4138 130.0593 L 272.4107 127.7524 L 275.3733 126.4604 L 278.6984 124.519 L 282.3444 122.8722 L 286.3785 120.596 L 289.3888 119.3594 L 292.7502 117.5158 L 295.513 116.3064 L 296.1831 115.9492 L 297.3068 115.0627 L 298.1546 113.9417 L 298.434 113.2922 L 298.5772 112.5837 L 298.5551 111.8753 L 298.167 110.5869 L 296.016 105.8092 L 294.4688 103.1004 L 293.7713 101.6611 L 293.2806 100.0002 L 292.9031 97.395 L 292.759 93.9223 L 292.912 91.4575 L 293.2789 89.9392 L 293.6139 89.2378 L 294.0993 88.606 L 294.7199 88.118 L 295.4033 87.7879 L 296.8771 87.446 L 300.1014 87.3859 L 305.4643 87.9258 L 307.4721 86.6845 L 310.7467 84.4342 L 313.0701 83.1105 L 316.6304 83.6668 L 319.5081 83.8932 L 329.8652 84.0004 L 327.9795 86.615 L 325.8143 89.9203 L 325.2078 91.3526 L 325.031 92.1695 L 325.0063 93.8245 L 325.1539 94.6402 L 325.6897 96.0724 L 327.1016 98.7341 L 328.4931 101.6988 L 329.4418 103.1428 L 332.7288 107.2214 L 333.6695 108.6902 L 334.0461 109.4859 L 334.5297 111.1362 L 334.8383 113.7272 L 334.9028 116.3818 L 334.7932 121.5437 L 330.8227 124.4942 L 325.4784 129.0974 L 324.0559 130.0286 L 321.1507 131.4314 L 319.044 132.9167 L 316.4323 135.3438 L 310.0916 141.8106 L 308.769 142.9941 L 307.381 144.0421 L 305.9187 144.8507 L 303.0375 146.1816 L 299.7115 148.1125 L 296.7454 149.3832 L 292.7643 151.716 L 289.815 153.015 L 286.4758 154.8811 L 285.7614 155.1911 L 284.1559 155.6378 L 281.6354 155.9455 L 277.3219 156.0563 L 273.0057 155.9549 L 270.4772 155.6673 L 268.8602 155.2359 L 268.1388 154.9306 L 264.8031 153.0952 L 261.9475 151.7172 L 261.3127 151.2799 L 260.1616 150.2425 L 259.183 149.0331 L 258.7736 148.3706 L 257.1124 144.7081 L 255.0763 141.2825 L 252.9236 137.1026 Z" fill="#000000" fill-opacity="1" stroke="#000000" stroke-width="0" paint-order="fill" stroke-opacity="1" stroke-dasharray="" stroke-linecap="butt" stroke-linejoin="miter" stroke-miterlimit="10" transform="matrix(1.100000023841858,0,0,1.100000023841858,-39.999961853027344,-26.65000343322754)" clip-path="none" style="filter: url(#f1)"/>
<path data-code="204" d="M 287.7223 272.2001 L 287.0708 269.3321 L 285.8268 265.6896 L 285.1664 264.1831 L 284.2903 262.8971 L 282.6353 261.3069 L 279.2872 259.4185 L 277.5261 258.0063 L 276.0992 256.2228 L 274.6166 253.4338 L 273.759 252.2161 L 272.7741 251.1233 L 270.6249 249.3328 L 269.6639 248.3402 L 269.3076 247.7119 L 268.8611 246.2891 L 268.3103 241.4844 L 267.9682 239.8659 L 267.6817 239.082 L 266.8878 237.7311 L 265.8472 236.583 L 264.6254 235.6647 L 261.1147 234.0156 L 256.7455 231.4199 L 255.6572 230.458 L 255.2461 229.8155 L 254.9482 229.1059 L 254.5989 227.5629 L 254.4442 225.0591 L 254.5954 221.5428 L 255.0852 217.8261 L 257.2486 217.3652 L 259.7921 217.12 L 262.3179 217.232 L 263.9518 217.5738 L 264.7368 217.8602 L 266.2221 218.7066 L 270.2005 221.9613 L 271.6098 222.9137 L 272.3683 223.2921 L 273.1419 223.5727 L 274.7483 223.9263 L 279.6948 224.4179 L 281.3153 224.755 L 282.8793 225.4139 L 284.3089 226.3959 L 286.2185 228.2018 L 287.8691 230.2446 L 288.7656 231.7087 L 290.1492 234.6167 L 291.5381 236.4226 L 293.2771 237.8301 L 295.3105 238.8757 L 296.6013 239.6749 L 297.7285 240.6922 L 298.6727 241.9252 L 299.3517 243.4164 L 299.8167 245.9308 L 299.921 249.4447 L 299.7902 254.1752 L 299.4993 257.4027 L 298.9583 259.8935 L 297.0504 264.1772 L 295.8215 268.2181 L 294.9622 270.5734 L 287.7223 272.2001 Z" fill="#000000" fill-opacity="1" stroke="#000000" stroke-width="0" paint-order="fill" stroke-opacity="1" stroke-dasharray="" stroke-linecap="butt" stroke-linejoin="miter" stroke-miterlimit="10" transform="matrix(1.100000023841858,0,0,1.100000023841858,-39.999961853027344,-26.65000343322754)" clip-path="none" style="filter: url(#f1)"/>
<path data-code="205" d="M 287.7223 272.2001 L 285.6721 274.5765 L 284.537 275.6869 L 283.339 276.6936 L 282.0624 277.5329 L 279.7248 278.5962 L 278.4783 279.2799 L 276.5854 280.7357 L 274.2072 283.0013 L 268.4129 288.9861 L 265.971 291.1326 L 264.6475 291.9873 L 261.6991 293.2627 L 258.4465 295.0085 L 257.436 295.3763 L 256.3468 295.5955 L 247.7897 291.8776 L 245.842 290.5444 L 242.211 287.3911 L 240.2811 286.045 L 237.345 284.6976 L 233.3622 282.3683 L 230.389 281.1094 L 226.3964 278.7978 L 223.4241 277.5388 L 219.4412 275.2095 L 216.5061 273.8586 L 214.5779 272.5089 L 210.9487 269.3521 L 208.9948 268.0248 L 203.9573 266.002 L 201.6206 265.2547 L 202.1166 261.024 L 202.3084 257.0515 L 202.5277 231.1464 L 202.449 228.2147 L 202.2315 226.298 L 201.7347 224.4403 L 201.3642 223.6245 L 200.42 222.131 L 199.2919 220.7836 L 197.3557 219.0143 L 195.9023 218.063 L 195.1163 217.6929 L 193.3632 217.2037 L 187.0578 216.573 L 184.5921 215.8728 L 179.0975 213.0331 L 177.82 212.1808 L 176.1499 210.4669 L 174.5391 208.173 L 180.421 204.0165 L 181.8231 203.3081 L 182.6179 203.0452 L 184.2615 202.7281 L 185.9474 202.5914 L 193.6762 202.5772 L 195.3701 202.4782 L 197.0295 202.233 L 198.62 201.7356 L 200.1044 200.8857 L 204.0908 197.6063 L 205.5097 196.6479 L 206.2771 196.2672 L 207.0622 195.989 L 208.6907 195.6507 L 215.3143 195.2817 L 217.5626 194.8326 L 218.8127 194.1489 L 219.2954 193.6585 L 221.2766 190.8117 L 222.3269 189.7768 L 222.9308 189.3241 L 224.3568 188.6286 L 225.1489 188.42 L 226.781 188.2491 L 228.4307 188.3775 L 230.0433 188.8455 L 230.7983 189.2298 L 232.1748 190.2082 L 234.0597 191.9587 L 237.7172 195.6731 L 239.6428 197.3517 L 241.0122 198.277 L 244.6034 200.1395 L 246.5988 201.6932 L 250.3297 205.3521 L 254.3744 209.9211 L 255.0852 217.8261 L 254.5954 221.5428 L 254.4442 225.0591 L 254.5989 227.5629 L 254.9482 229.1059 L 255.2461 229.8155 L 255.6572 230.458 L 256.7455 231.4199 L 261.1147 234.0156 L 264.6254 235.6647 L 265.8472 236.583 L 266.8878 237.7311 L 267.6817 239.082 L 267.9682 239.8659 L 268.3103 241.4844 L 268.8611 246.2891 L 269.3076 247.7119 L 269.6639 248.3402 L 270.6249 249.3328 L 272.7741 251.1233 L 273.759 252.2161 L 274.6166 253.4338 L 276.0992 256.2228 L 277.5261 258.0063 L 279.2872 259.4185 L 282.6353 261.3069 L 284.2903 262.8971 L 285.1664 264.1831 L 285.8268 265.6896 L 287.0708 269.3321 L 287.7223 272.2001 Z" fill="#000000" fill-opacity="1" stroke="#000000" stroke-width="0" paint-order="fill" stroke-opacity="1" stroke-dasharray="" stroke-linecap="butt" stroke-linejoin="miter" stroke-miterlimit="10" transform="matrix(1.100000023841858,0,0,1.100000023841858,-39.999961853027344,-26.65000343322754)" clip-path="none" style="filter: url(#f1)"/>
<path data-code="206" d="M 356.373 222.5436 L 349.0023 218.1762 L 348.2853 217.852 L 346.5931 217.3652 L 343.9409 217.0363 L 341.2294 216.9349 L 336.6851 216.9773 L 334.0037 217.1872 L 332.2691 217.516 L 330.7122 218.0819 L 323.7084 221.7467 L 322.3133 222.8182 L 320.9836 224.0206 L 316.6251 228.4764 L 314.574 225.3809 L 312.7634 223.1931 L 310.1491 220.5019 L 308.0211 218.7561 L 306.4598 217.865 L 305.6889 217.5679 L 301.7343 216.6461 L 300.1898 216.1781 L 296.1371 214.0575 L 293.1922 212.7643 L 289.8459 210.9337 L 288.2731 210.3549 L 285.5749 209.9152 L 281.8475 209.7702 L 254.3744 209.9211 L 250.3297 205.3521 L 246.5988 201.6932 L 244.6034 200.1395 L 241.0122 198.277 L 239.6428 197.3517 L 237.7172 195.6731 L 234.0597 191.9587 L 232.1748 190.2082 L 230.7983 189.2298 L 230.0433 188.8455 L 228.4307 188.3775 L 226.781 188.2491 L 225.1489 188.42 L 224.3568 188.6286 L 222.9308 189.3241 L 222.3269 189.7768 L 221.2766 190.8117 L 219.2954 193.6585 L 218.8127 194.1489 L 217.5626 194.8326 L 215.3143 195.2817 L 208.6907 195.6507 L 207.0622 195.989 L 206.2771 196.2672 L 205.5097 196.6479 L 204.0908 197.6063 L 200.1044 200.8857 L 198.62 201.7356 L 197.0295 202.233 L 195.3701 202.4782 L 193.6762 202.5772 L 185.9474 202.5914 L 184.2615 202.7281 L 182.6179 203.0452 L 181.8231 203.3081 L 180.421 204.0165 L 174.5391 208.173 L 174.5506 198.587 L 174.7035 195.7238 L 174.9449 193.8648 L 175.3896 192.0848 L 176.9615 188.5426 L 177.484 186.9489 L 177.9004 184.2376 L 178.209 178.6337 L 178.5113 175.88 L 178.9366 174.126 L 180.4846 170.5684 L 181.0009 168.9711 L 181.4129 166.2552 L 181.7126 160.6465 L 182.0044 157.8882 L 182.419 156.1282 L 183.9396 152.5541 L 184.4427 150.9439 L 184.7495 149.125 L 185.2039 144.4782 L 185.569 142.6523 L 185.8696 141.7658 L 186.713 140.1957 L 188.4061 138.1269 L 190.4289 136.3422 L 194.0431 134.0742 L 203.9307 134.1909 L 206.6281 134.4031 L 208.368 134.7414 L 209.9178 135.3179 L 213.2553 137.165 L 216.1878 138.4794 L 218.8533 139.967 L 220.2493 140.6177 L 222.8751 141.2472 L 227.399 141.7835 L 229.1565 142.1407 L 230.6957 142.6994 L 234.0907 144.3333 L 236.4936 144.813 L 238.9576 144.747 L 240.5613 144.3722 L 241.2792 144.0857 L 244.6105 142.2668 L 248.2008 140.4857 L 252.9236 137.1026 L 255.0763 141.2825 L 257.1124 144.7081 L 258.7736 148.3706 L 259.183 149.0331 L 260.1616 150.2425 L 261.3127 151.2799 L 261.9475 151.7172 L 264.8031 153.0952 L 268.1388 154.9306 L 268.8602 155.2359 L 270.4772 155.6673 L 273.0057 155.9549 L 277.3219 156.0563 L 281.6354 155.9455 L 284.1559 155.6378 L 285.7614 155.1911 L 286.4758 154.8811 L 289.815 153.015 L 292.7643 151.716 L 296.7454 149.3832 L 299.7115 148.1125 L 303.0375 146.1816 L 305.9187 144.8507 L 307.381 144.0421 L 308.769 142.9941 L 310.0916 141.8106 L 316.4323 135.3438 L 319.044 132.9167 L 321.1507 131.4314 L 324.0559 130.0286 L 325.4784 129.0974 L 330.8227 124.4942 L 334.7932 121.5437 L 340.3868 125.5115 L 342.056 126.3815 L 342.9012 126.6691 L 344.6508 127.0286 L 347.3552 127.2455 L 355.679 127.1854 L 355.6728 130.7831 L 348.852 137.6613 L 347.1873 139.6417 L 346.2537 141.0822 L 345.5932 142.6841 L 345.2361 144.3828 L 345.0628 146.1227 L 344.9929 148.7702 L 345.0787 151.4225 L 345.2467 153.1671 L 345.5703 154.8681 L 346.1237 156.4312 L 347.9414 159.8803 L 348.921 162.1424 L 349.7246 163.6395 L 350.7342 165.0599 L 353.4979 168.4772 L 354.9284 170.6521 L 356.266 173.6733 L 358.5363 177.7802 L 359.8024 180.8262 L 361.6086 184.2754 L 361.9092 185.0168 L 362.3397 186.6789 L 362.5537 188.4011 L 362.5961 191.0239 L 362.4529 192.7615 L 362.1293 194.4566 L 361.5635 196.009 L 359.7042 199.4299 L 358.3967 202.4464 L 356.5577 205.8743 L 356.2536 206.6099 L 355.8142 208.2625 L 355.5198 210.8594 L 355.5021 215.3093 L 355.7948 218.9094 L 356.373 222.5436 Z" fill="#000000" fill-opacity="1" stroke="#000000" stroke-width="0" paint-order="fill" stroke-opacity="1" stroke-dasharray="" stroke-linecap="butt" stroke-linejoin="miter" stroke-miterlimit="10" transform="matrix(1.100000023841858,0,0,1.100000023841858,-39.999961853027344,-26.65000343322754)" clip-path="none" style="filter: url(#f1)"/>
<path data-code="207" d="M 316.6251 228.4764 L 317.0592 231.4753 L 317.1573 234.1158 L 316.9186 236.7138 L 316.4589 238.3783 L 316.0929 239.1834 L 315.1743 240.6734 L 311.5318 245.5288 L 309.6779 249.1324 L 308.2289 250.943 L 307.0221 251.919 L 306.351 252.3127 L 304.8251 252.8998 L 299.7902 254.1752 L 299.921 249.4447 L 299.8167 245.9308 L 299.3517 243.4164 L 298.6727 241.9252 L 297.7285 240.6922 L 296.6013 239.6749 L 295.3105 238.8757 L 293.2771 237.8301 L 291.5381 236.4226 L 290.1492 234.6167 L 288.7656 231.7087 L 287.8691 230.2446 L 286.2185 228.2018 L 284.3089 226.3959 L 282.8793 225.4139 L 281.3153 224.755 L 279.6948 224.4179 L 274.7483 223.9263 L 273.1419 223.5727 L 272.3683 223.2921 L 271.6098 222.9137 L 270.2005 221.9613 L 266.2221 218.7066 L 264.7368 217.8602 L 263.9518 217.5738 L 262.3179 217.232 L 259.7921 217.12 L 257.2486 217.3652 L 255.0852 217.8261 L 254.3744 209.9211 L 281.8475 209.7702 L 285.5749 209.9152 L 288.2731 210.3549 L 289.8459 210.9337 L 293.1922 212.7643 L 296.1371 214.0575 L 300.1898 216.1781 L 301.7343 216.6461 L 305.6889 217.5679 L 306.4598 217.865 L 308.0211 218.7561 L 310.1491 220.5019 L 312.7634 223.1931 L 314.574 225.3809 L 316.6251 228.4764 Z" fill="#000000" fill-opacity="1" stroke="#000000" stroke-width="0" paint-order="fill" stroke-opacity="1" stroke-dasharray="" stroke-linecap="butt" stroke-linejoin="miter" stroke-miterlimit="10" transform="matrix(1.100000023841858,0,0,1.100000023841858,-39.999961853027344,-26.65000343322754)" clip-path="none" style="filter: url(#f1)"/>
<path data-code="208" d="M 390.5838 60.4412 L 388.073 65.6361 L 386.8353 68.5795 L 386.4648 69.3127 L 385.5737 70.5846 L 383.8895 72.1595 L 382.5571 72.9481 L 380.4132 73.9501 L 378.3117 75.3965 L 376.3809 77.1918 L 374.6754 79.2134 L 373.7551 80.6928 L 372.4767 83.7411 L 370.6192 87.182 L 369.332 90.1714 L 368.5575 91.6779 L 367.5665 93.1125 L 364.2909 97.2465 L 363.3661 98.7058 L 362.3211 100.9479 L 361.5122 102.4202 L 360.5008 103.8241 L 357.7672 107.2297 L 356.8256 108.6996 L 356.449 109.4953 L 355.9698 111.148 L 355.663 113.7389 L 355.5835 117.2859 L 355.679 127.1854 L 347.3552 127.2455 L 344.6508 127.0286 L 342.9012 126.6691 L 342.056 126.3815 L 340.3868 125.5115 L 334.7932 121.5437 L 334.9028 116.3818 L 334.8383 113.7272 L 334.5297 111.1362 L 334.0461 109.4859 L 333.6695 108.6902 L 332.7288 107.2214 L 329.4418 103.1428 L 328.4931 101.6988 L 327.1016 98.7341 L 325.6897 96.0724 L 325.1539 94.6402 L 325.0063 93.8245 L 325.031 92.1695 L 325.2078 91.3526 L 325.8143 89.9203 L 327.9795 86.615 L 329.8652 84.0004 L 336.9618 84.0358 L 339.3188 83.8578 L 340.8421 83.5667 L 342.2938 83.0291 L 345.6242 81.1678 L 347.9723 80.1317 L 349.2587 79.4032 L 351.2311 77.8354 L 353.0965 76.0495 L 368.3038 60.3068 L 371.1665 57.005 L 373.7136 53.3001 L 378.4328 56.9307 L 380.4689 58.0989 L 382.0417 58.5987 L 386.0785 59.3142 L 390.5838 60.4412 Z" fill="#000000" fill-opacity="1" stroke="#000000" stroke-width="0" paint-order="fill" stroke-opacity="1" stroke-dasharray="" stroke-linecap="butt" stroke-linejoin="miter" stroke-miterlimit="10" transform="matrix(1.100000023841858,0,0,1.100000023841858,-39.999961853027344,-26.65000343322754)" clip-path="none" style="filter: url(#f1)"/>
<path data-code="209" d="M 443.3473 182.2985 L 445.4373 181.7846 L 446.9871 181.5512 L 449.5439 181.3696 L 456.4646 181.1681 L 458.1311 180.963 L 459.741 180.5504 L 461.1538 179.9138 L 463.8246 178.4545 L 466.0278 177.4879 L 467.4945 176.6686 L 468.8772 175.6124 L 470.1724 174.4136 L 471.3827 173.1205 L 472.4834 171.7389 L 473.4091 170.2548 L 474.6981 167.2088 L 476.1029 164.4351 L 476.7138 162.9746 L 477.2319 160.4697 L 477.5794 156.1589 L 477.971 153.6209 L 478.4953 152.0696 L 480.2537 148.591 L 481.4932 145.5309 L 483.7662 141.4228 L 484.744 139.1513 L 485.5362 137.6519 L 486.5387 136.2255 L 489.2989 132.7976 L 490.7302 130.6204 L 492.0564 127.5909 L 494.2896 123.4628 L 495.5158 120.392 L 497.7694 116.2698 L 499.1335 113.2604 L 500.0636 111.8128 L 503.3135 107.7448 L 504.2153 106.276 L 504.7758 104.6528 L 504.9314 102.966 L 504.7546 101.2827 L 503.821 98.4265 L 506.9843 98.9121 L 508.5341 99.3707 L 509.9265 100.0355 L 512.5912 101.555 L 515.5184 102.8941 L 518.1433 104.4065 L 519.5348 105.0548 L 521.1306 105.4521 L 523.5981 105.5499 L 525.2248 105.3082 L 526.0126 105.0807 L 529.4137 103.421 L 530.8609 102.8528 L 534.8287 101.911 L 536.3892 101.4171 L 540.4551 99.2575 L 543.4088 97.9514 L 547.3837 95.6068 L 550.3225 94.2842 L 553.674 92.4524 L 555.2318 91.8865 L 556.9761 91.5577 L 559.6779 91.362 L 564.2734 91.3502 L 569.5629 91.4928 L 591.6051 91.3526 L 594.4784 91.428 L 597.2872 91.7286 L 599.081 92.1977 L 599.9404 92.5596 L 603.1611 94.3007 L 606.0768 95.6811 L 607.6505 96.6854 L 611.514 99.5534 L 614.2679 100.5176 L 616.9441 101.667 L 619.3789 102.5911 L 620.6617 103.2654 L 621.3195 103.7122 L 623.184 105.2635 L 626.0998 108.1774 L 628.2782 110.6505 L 629.6909 112.6285 L 630.3602 113.9393 L 631.3619 116.3889 L 633.6358 120.4946 L 634.7921 123.5123 L 635.6868 125.4667 L 636.1139 126.7858 L 636.1828 127.4789 L 636.113 128.1697 L 635.937 128.8322 L 634.6587 132.0656 L 634.0937 134.6566 L 633.3157 137.923 L 631.6846 141.4605 L 631.1488 142.9835 L 630.293 147.1046 L 629.8236 148.7148 L 627.7229 152.9054 L 626.4781 155.9655 L 624.3775 160.1561 L 623.9081 161.7675 L 623.0523 165.8886 L 622.5156 167.4116 L 620.8854 170.948 L 620.4327 172.5594 L 619.5796 176.6851 L 619.0385 178.2093 L 617.41 181.7457 L 616.9618 183.3559 L 616.3058 186.6624 L 615.8363 188.2738 L 613.7357 192.4644 L 612.4909 195.5245 L 610.3903 199.7151 L 609.9209 201.3265 L 609.2658 204.6331 L 608.8175 206.2433 L 606.8982 210.507 L 606.4446 212.1184 L 605.5897 216.2429 L 605.046 217.7659 L 603.4042 221.2976 L 602.6218 224.5628 L 579.5797 224.4744 L 575.0408 224.6395 L 573.2797 224.874 L 571.5911 225.3173 L 568.167 226.9617 L 566.6852 227.4874 L 565.0718 227.8045 L 559.2721 228.447 L 556.9576 229.1589 L 553.5874 230.9531 L 550.654 232.3099 L 549.1961 233.2847 L 546.5023 235.6871 L 538.7957 243.7029 L 535.4971 246.875 L 533.393 248.4982 L 529.0317 250.7862 L 527.6552 251.8247 L 526.3636 253.0082 L 524.5927 254.9709 L 523.576 256.3937 L 522.7847 257.8967 L 521.7919 260.1694 L 520.914 261.6617 L 517.2592 266.5124 L 515.5759 269.0598 L 514.6149 270.1407 L 513.2383 270.8586 L 510.8415 271.283 L 508.2512 271.3478 L 500.1414 271.2064 L 497.4776 271.3973 L 495.7625 271.7569 L 494.9394 272.0527 L 493.4444 272.8885 L 489.4978 276.0229 L 488.1832 276.8787 L 486.8482 277.3974 L 485.9809 277.5648 L 480.4889 275.4771 L 475.6547 274.375 L 474.1084 273.8928 L 470.0301 271.9243 L 469.245 271.7026 L 467.6236 271.4775 L 465.9827 271.4987 L 464.3746 271.7639 L 462.9061 272.2932 L 459.5757 273.9683 L 458.0082 274.3632 L 456.3806 274.494 L 454.7503 274.3856 L 453.1713 274.0095 L 449.7915 272.3427 L 448.3026 271.7816 L 445.714 271.316 L 442.953 271.1333 L 435.3905 271.0967 L 429.7535 271.3231 L 426.2534 271.8441 L 423.6232 272.8201 L 422.3987 273.1431 L 421.7383 273.1467 L 421.0779 272.997 L 419.8915 272.3368 L 419.3725 271.8736 L 418.4955 270.7455 L 416.9076 267.2527 L 415.0785 263.7588 L 413.3165 258.8468 L 416.2623 258.0735 L 420.5899 256.4904 L 422.0849 255.7076 L 423.4773 254.6656 L 425.3719 252.8267 L 427.0305 250.7697 L 427.9367 249.2891 L 429.3123 246.2915 L 430.7649 244.1425 L 431.916 242.8258 L 433.7726 241.0329 L 437.3991 238.3146 L 437.8889 237.7841 L 438.5927 236.3708 L 439.0285 233.8871 L 439.1806 225.6214 L 439.4582 222.8843 L 439.8905 221.1503 L 441.5234 217.6304 L 442.0556 216.0909 L 442.3686 214.4088 L 442.5224 211.8119 L 442.3651 209.2138 L 442.0459 207.5341 L 441.504 206.0016 L 439.8348 202.5065 L 439.3989 200.8692 L 439.1152 198.2923 L 439.1541 195.6825 L 439.3654 193.9674 L 439.7871 192.3147 L 441.7727 188.0711 L 442.2829 186.4714 L 443.3473 182.2985 Z" fill="#000000" fill-opacity="1" stroke="#000000" stroke-width="0" paint-order="fill" stroke-opacity="1" stroke-dasharray="" stroke-linecap="butt" stroke-linejoin="miter" stroke-miterlimit="10" transform="matrix(1.100000023841858,0,0,1.100000023841858,-39.999961853027344,-26.65000343322754)" clip-path="none" style="filter: url(#f1)"/>
<path data-code="210" d="M 426.1579 141.1116 L 423.4172 143.3442 L 421.4908 144.4712 L 419.7367 145.0028 L 417.0031 145.2763 L 414.2598 145.123 L 412.4836 144.7718 L 410.9268 144.1918 L 407.538 142.4979 L 405.8282 142.0193 L 404.0353 141.7576 L 398.4673 141.5525 L 380.575 141.6857 L 375.9662 141.444 L 373.336 140.8417 L 369.2613 138.734 L 366.3208 137.4232 L 362.3503 135.0821 L 358.7777 133.2585 L 355.6728 130.7831 L 355.679 127.1854 L 355.5835 117.2859 L 355.663 113.7389 L 355.9698 111.148 L 356.449 109.4953 L 356.8256 108.6996 L 357.7672 107.2297 L 360.5008 103.8241 L 361.5122 102.4202 L 362.3211 100.9479 L 363.3661 98.7058 L 364.2909 97.2465 L 367.5665 93.1125 L 368.5575 91.6779 L 369.332 90.1714 L 370.6192 87.182 L 372.4767 83.7411 L 373.7551 80.6928 L 374.6754 79.2134 L 376.3809 77.1918 L 378.3117 75.3965 L 380.4132 73.9501 L 382.5571 72.9481 L 383.8895 72.1595 L 385.5737 70.5846 L 386.4648 69.3127 L 386.8353 68.5795 L 388.073 65.6361 L 390.5838 60.4412 L 393.1362 65.616 L 394.4181 68.7728 L 395.1139 70.1167 L 396.6319 72.1795 L 401.3123 77.3285 L 402.9178 79.3372 L 403.7974 80.7635 L 405.1298 83.7741 L 406.4683 85.8488 L 408.0871 87.795 L 411.6102 91.5612 L 417.6149 97.7605 L 420.0842 100.0673 L 422.0875 101.4901 L 425.0139 102.8351 L 428.3381 104.7035 L 429.0533 105.0112 L 430.543 105.4191 L 432.8752 105.6914 L 436.0659 105.7585 L 440.1 105.6324 L 443.6214 105.3507 L 442.4641 110.937 L 441.9805 112.5672 L 439.8596 116.7637 L 438.6095 119.8191 L 436.5336 124.0262 L 436.0854 125.6412 L 435.2676 129.7681 L 434.715 131.2935 L 432.1591 135.9356 L 431.2989 137.1226 L 430.7605 137.6059 L 428.384 139.202 L 426.1579 141.1116 Z" fill="#000000" fill-opacity="1" stroke="#000000" stroke-width="0" paint-order="fill" stroke-opacity="1" stroke-dasharray="" stroke-linecap="butt" stroke-linejoin="miter" stroke-miterlimit="10" transform="matrix(1.100000023841858,0,0,1.100000023841858,-39.999961853027344,-26.65000343322754)" clip-path="none" style="filter: url(#f1)"/>
<path data-code="211" d="M 560.7026 318.0562 L 559.1121 320.0024 L 557.8549 321.9568 L 556.5995 324.9839 L 554.7137 328.4036 L 553.3788 331.5474 L 552.7033 332.8465 L 551.2702 334.7962 L 546.2715 340.2658 L 544.7624 342.1695 L 543.9367 343.5227 L 542.6194 346.5522 L 541.3339 348.5798 L 540.3128 349.854 L 538.6595 351.6941 L 536.9249 353.4505 L 535.1267 355.0631 L 533.2321 356.3645 L 532.2145 356.8018 L 531.0307 357.0965 L 526.8454 350.823 L 525.178 347.0815 L 522.9386 342.9628 L 521.7044 339.9039 L 519.9645 336.4205 L 519.2758 334.0347 L 518.717 328.0287 L 518.2087 325.5226 L 517.6102 324.0539 L 516.2257 321.2531 L 514.9535 318.2012 L 514.0499 316.7171 L 512.9696 315.3367 L 511.769 314.0518 L 510.4596 312.886 L 509.0212 311.8994 L 508.2379 311.5092 L 506.4741 310.9799 L 504.6494 310.7312 L 499.0168 310.6015 L 491.4808 310.829 L 489.6569 311.0742 L 487.9055 311.541 L 483.8069 313.5921 L 480.0442 315.0349 L 477.6934 316.3293 L 477.2655 311.6612 L 477.1453 307.776 L 477.2761 303.9414 L 477.6952 301.1653 L 478.2292 299.5433 L 479.8294 296.014 L 481.4808 289.5377 L 483.4435 285.2764 L 484.9465 280.2854 L 485.9809 277.5648 L 486.8482 277.3974 L 488.1832 276.8787 L 489.4978 276.0229 L 493.4444 272.8885 L 494.9394 272.0527 L 495.7625 271.7569 L 497.4776 271.3973 L 500.1414 271.2064 L 508.2512 271.3478 L 510.8415 271.283 L 513.2383 270.8586 L 514.6149 270.1407 L 515.5759 269.0598 L 517.2592 266.5124 L 520.914 261.6617 L 521.7919 260.1694 L 522.7847 257.8967 L 523.576 256.3937 L 524.5927 254.9709 L 526.3636 253.0082 L 527.6552 251.8247 L 529.0317 250.7862 L 533.393 248.4982 L 535.4971 246.875 L 538.7957 243.7029 L 546.5023 235.6871 L 549.1961 233.2847 L 550.654 232.3099 L 553.5874 230.9531 L 556.9576 229.1589 L 559.2721 228.447 L 565.0718 227.8045 L 566.6852 227.4874 L 568.167 226.9617 L 571.5911 225.3173 L 573.2797 224.874 L 575.0408 224.6395 L 579.5797 224.4744 L 602.6218 224.5628 L 602.0896 227.0289 L 601.5379 228.5542 L 599.7697 232.034 L 598.5028 235.0859 L 596.228 239.1904 L 594.9461 242.2305 L 593.521 244.9936 L 592.903 246.4483 L 592.346 249.13 L 591.9773 256.6035 L 591.5875 259.3301 L 591.0641 260.9391 L 589.409 264.4696 L 587.9706 269.2767 L 586.8602 272.1989 L 585.9611 272.2614 L 584.6358 272.648 L 582.7713 273.8256 L 581.6061 274.8559 L 580.5257 276.0205 L 579.166 278.0151 L 578.5604 279.5864 L 578.2562 281.2945 L 577.953 290.0788 L 577.6816 291.7786 L 577.1661 293.3429 L 575.39 296.805 L 574.4281 299.0741 L 573.6351 300.5547 L 572.0879 302.5987 L 567.3739 307.7323 L 565.7543 309.7363 L 564.8569 311.1603 L 563.0896 314.8416 L 562.1949 316.156 L 560.7026 318.0562 Z" fill="#000000" fill-opacity="1" stroke="#000000" stroke-width="0" paint-order="fill" stroke-opacity="1" stroke-dasharray="" stroke-linecap="butt" stroke-linejoin="miter" stroke-miterlimit="10" transform="matrix(1.100000023841858,0,0,1.100000023841858,-39.999961853027344,-26.65000343322754)" clip-path="none" style="filter: url(#f1)"/>
<path data-code="212" d="M 370.1904 255.9811 L 367.4727 258.3752 L 365.6489 259.646 L 359.3745 262.8688 L 357.7849 263.4264 L 355.9875 263.7435 L 354.1433 263.8826 L 344.7145 263.8955 L 341.0083 264.1266 L 338.3755 264.7254 L 334.2495 266.6445 L 332.5281 267.1042 L 330.729 267.3494 L 327.9591 267.479 L 325.1513 267.4272 L 320.2056 266.9333 L 317.4994 268.1085 L 313.3875 270.2504 L 310.6256 270.8881 L 307.7417 271.0991 L 302.8421 271.0991 L 298.8999 270.9294 L 294.9622 270.5734 L 295.8215 268.2181 L 297.0504 264.1772 L 298.9583 259.8935 L 299.4993 257.4027 L 299.7902 254.1752 L 304.8251 252.8998 L 306.351 252.3127 L 307.0221 251.919 L 308.2289 250.943 L 309.6779 249.1324 L 311.5318 245.5288 L 315.1743 240.6734 L 316.0929 239.1834 L 316.4589 238.3783 L 316.9186 236.7138 L 317.1573 234.1158 L 317.0592 231.4753 L 316.6251 228.4764 L 320.9836 224.0206 L 322.3133 222.8182 L 323.7084 221.7467 L 330.7122 218.0819 L 332.2691 217.516 L 334.0037 217.1872 L 336.6851 216.9773 L 341.2294 216.9349 L 343.9409 217.0363 L 346.5931 217.3652 L 348.2853 217.852 L 349.0023 218.1762 L 356.373 222.5436 L 357.8742 224.2045 L 358.6442 225.4705 L 360.1401 228.3468 L 363.84 233.1951 L 364.7754 234.6686 L 365.1547 235.4549 L 365.6692 237.0639 L 366.3367 240.3539 L 366.7796 241.9512 L 368.3834 245.4828 L 368.8988 247.0306 L 369.2144 248.7127 L 369.8032 253.9265 L 370.1904 255.9811 Z" fill="#000000" fill-opacity="1" stroke="#000000" stroke-width="0" paint-order="fill" stroke-opacity="1" stroke-dasharray="" stroke-linecap="butt" stroke-linejoin="miter" stroke-miterlimit="10" transform="matrix(1.100000023841858,0,0,1.100000023841858,-39.999961853027344,-26.65000343322754)" clip-path="none" style="filter: url(#f1)"/>
<path data-code="213" d="M 477.6934 316.3293 L 475.8872 317.5941 L 473.8971 318.6031 L 470.649 320.4656 L 469.1469 321.0444 L 465.1207 321.859 L 463.547 322.3045 L 462.1466 322.9482 L 459.459 324.4051 L 456.5017 325.7101 L 454.547 327.0657 L 452.7735 328.723 L 451.1786 330.5631 L 449.8746 332.5836 L 448.5979 335.6284 L 446.3886 339.7683 L 445.1694 342.8438 L 442.9459 346.9837 L 441.7904 350.1299 L 439.833 354.8486 L 434.5798 353.8313 L 432.198 353.0957 L 431.4359 352.6973 L 430.0178 351.7189 L 426.7131 348.8992 L 425.3463 347.8607 L 423.9061 347.032 L 421.7127 346.0194 L 418.3699 344.1522 L 416.8926 343.5723 L 412.9124 342.6752 L 411.3679 342.2049 L 407.9668 340.5039 L 405.6523 339.7624 L 403.9849 339.5219 L 401.4298 339.3817 L 398.8616 339.4158 L 396.3295 339.6504 L 393.9186 340.2469 L 390.5201 341.9538 L 389.0013 342.5161 L 386.4268 342.9664 L 383.756 343.1432 L 376.5179 343.2304 L 372.9497 343.0725 L 370.3655 342.5927 L 369.5398 342.2874 L 367.9908 341.3915 L 365.9106 339.654 L 361.9666 335.7911 L 359.9182 334.0182 L 358.4762 333.0457 L 355.6586 331.5981 L 354.4306 330.6881 L 353.3441 329.5883 L 352.4396 328.3258 L 349.6804 322.6405 L 349.0774 321.18 L 348.5788 318.6574 L 348.303 310.7276 L 347.9555 308.1614 L 347.4463 306.5925 L 345.7117 303.1091 L 344.4174 300.0749 L 342.9516 297.9024 L 340.5203 295.3503 L 338.4754 293.7436 L 337.0237 292.9432 L 334.8338 291.9318 L 333.3981 291.01 L 332.0295 289.9161 L 329.4002 287.4748 L 326.2033 284.2603 L 324.352 282.2905 L 322.6528 280.2347 L 321.706 278.7471 L 321.332 277.9432 L 320.8616 276.2846 L 320.5584 273.6948 L 320.2056 266.9333 L 325.1513 267.4272 L 327.9591 267.479 L 330.729 267.3494 L 332.5281 267.1042 L 334.2495 266.6445 L 338.3755 264.7254 L 341.0083 264.1266 L 344.7145 263.8955 L 354.1433 263.8826 L 355.9875 263.7435 L 357.7849 263.4264 L 359.3745 262.8688 L 365.6489 259.646 L 367.4727 258.3752 L 370.1904 255.9811 L 375.2236 257.3025 L 376.6859 257.8967 L 380.11 259.5882 L 381.8552 260.0456 L 383.6667 260.259 L 386.4153 260.2495 L 389.1012 259.8275 L 390.6625 259.2641 L 393.3616 257.8837 L 394.8876 257.3132 L 396.6027 256.9501 L 399.2735 256.686 L 404.7178 256.6389 L 408.2931 256.9383 L 410.8375 257.5784 L 413.3165 258.8468 L 415.0785 263.7588 L 416.9076 267.2527 L 418.4955 270.7455 L 419.3725 271.8736 L 419.8915 272.3368 L 421.0779 272.997 L 421.7383 273.1467 L 422.3987 273.1431 L 423.6232 272.8201 L 426.2534 271.8441 L 429.7535 271.3231 L 435.3905 271.0967 L 442.953 271.1333 L 445.714 271.316 L 448.3026 271.7816 L 449.7915 272.3427 L 453.1713 274.0095 L 454.7503 274.3856 L 456.3806 274.494 L 458.0082 274.3632 L 459.5757 273.9683 L 462.9061 272.2932 L 464.3746 271.7639 L 465.9827 271.4987 L 467.6236 271.4775 L 469.245 271.7026 L 470.0301 271.9243 L 474.1084 273.8928 L 475.6547 274.375 L 480.4889 275.4771 L 485.9809 277.5648 L 484.9465 280.2854 L 483.4435 285.2764 L 481.4808 289.5377 L 479.8294 296.014 L 478.2292 299.5433 L 477.6952 301.1653 L 477.2761 303.9414 L 477.1453 307.776 L 477.2655 311.6612 L 477.6934 316.3293 Z" fill="#000000" fill-opacity="1" stroke="#000000" stroke-width="0" paint-order="fill" stroke-opacity="1" stroke-dasharray="" stroke-linecap="butt" stroke-linejoin="miter" stroke-miterlimit="10" transform="matrix(1.100000023841858,0,0,1.100000023841858,-39.999961853027344,-26.65000343322754)" clip-path="none" style="filter: url(#f1)"/>
<path data-code="214" d="M 322.0401 471.577 L 314.444 473.0552 L 312.9543 473.6069 L 310.2189 474.9507 L 308.6568 475.4977 L 306.8921 475.8431 L 302.3806 476.377 L 300.6204 476.7295 L 299.0679 477.2812 L 296.344 478.6321 L 294.7898 479.1861 L 293.0419 479.5256 L 291.2446 479.7001 L 286.6915 479.6953 L 284.0127 479.3723 L 282.3073 478.9103 L 278.8761 477.26 L 277.3254 476.7036 L 275.5661 476.3452 L 271.051 475.8018 L 269.2855 475.4576 L 267.7224 474.9201 L 264.9826 473.614 L 263.4213 473.0835 L 261.6566 472.7534 L 257.1398 472.2501 L 255.3681 471.8918 L 253.1039 470.9405 L 250.4251 469.3243 L 246.9719 467.4524 L 247.8065 465.5322 L 250.0812 461.3805 L 251.3773 458.3357 L 253.6335 454.2217 L 254.9154 451.1863 L 256.673 447.716 L 257.4218 445.1403 L 257.7189 442.2605 L 257.7958 439.3135 L 257.8383 407.465 L 257.7198 404.5345 L 257.4943 402.6249 L 256.757 400.0457 L 255.026 396.5671 L 253.7723 393.5223 L 251.5373 389.4083 L 250.1696 386.4 L 248.6658 384.158 L 245.6281 380.7006 L 249.9857 376.2212 L 252.585 373.8848 L 254.6732 372.4679 L 258.3263 370.6726 L 259.724 369.6577 L 261.0387 368.4989 L 262.8219 366.548 L 263.8068 365.0781 L 264.484 363.4443 L 264.8279 361.7386 L 264.964 359.9987 L 264.9552 358.2494 L 264.8111 356.5095 L 264.4937 354.8061 L 263.9411 353.2348 L 262.1279 349.775 L 260.7566 346.7644 L 259.7983 345.3074 L 258.0725 343.3259 L 255.544 341.0284 L 252.5204 338.8866 L 252.0236 338.3597 L 251.3305 337.0241 L 250.8778 334.6736 L 250.8106 331.2457 L 251.0714 327.6857 L 251.6523 324.0645 L 254.1763 325.393 L 256.8578 326.9961 L 258.2467 327.668 L 259.8009 328.1372 L 263.7626 329.0366 L 264.5326 329.3337 L 266.017 330.1989 L 268.0018 331.9022 L 269.19 333.1954 L 270.2544 334.5781 L 271.1412 336.041 L 272.4894 338.9691 L 273.3523 340.2398 L 274.9958 341.8571 L 276.3184 342.6905 L 278.4624 343.7031 L 282.4514 345.9735 L 285.4281 347.2407 L 289.4392 349.524 L 292.3939 350.8324 L 296.3838 353.1499 L 299.3428 354.4442 L 302.7015 356.2831 L 304.1779 356.8584 L 308.1661 357.7425 L 309.7247 358.201 L 313.1559 359.8596 L 314.6332 360.4018 L 318.6382 361.2317 L 320.2154 361.6832 L 327.1546 365.0816 L 328.3862 366.0129 L 329.4347 367.1704 L 330.2436 368.5437 L 330.5539 369.4007 L 330.9916 372.1025 L 331.065 375.8569 L 330.7414 391.2071 L 330.9359 393.9808 L 331.3196 395.7514 L 332.0286 397.2838 L 332.4786 397.9192 L 333.5325 399.0237 L 334.7357 399.896 L 337.4622 401.2386 L 339.2287 402.6308 L 340.1959 403.8449 L 340.5831 404.5416 L 341.118 406.1566 L 341.4035 408.7145 L 341.3744 410.4509 L 341.1958 412.1766 L 340.576 414.6627 L 338.8414 418.1437 L 338.2747 419.6726 L 337.8274 422.2105 L 337.7319 423.9492 L 337.7752 425.6915 L 338.1748 428.2565 L 338.7636 429.8208 L 339.9978 431.8695 L 343.1973 436.409 L 339.6194 441.9717 L 338.5161 444.0853 L 338.0254 445.699 L 337.3668 448.9997 L 336.9265 450.6075 L 335.3395 454.1663 L 334.8241 455.6987 L 334.0231 459.8374 L 333.5722 461.4618 L 332.9304 462.8964 L 330.7387 466.8477 L 329.8608 468.0359 L 329.3012 468.5157 L 325.5853 470.6328 L 323.6775 471.4143 L 322.0401 471.577 Z" fill="#000000" fill-opacity="1" stroke="#000000" stroke-width="0" paint-order="fill" stroke-opacity="1" stroke-dasharray="" stroke-linecap="butt" stroke-linejoin="miter" stroke-miterlimit="10" transform="matrix(1.100000023841858,0,0,1.100000023841858,-39.999961853027344,-26.65000343322754)" clip-path="none" style="filter: url(#f1)"/>
<path data-code="215" d="M 245.6281 380.7006 L 243.0341 378.1438 L 241.6399 377.0145 L 240.0998 376.1163 L 238.3361 375.5611 L 236.5016 375.2947 L 233.6831 375.1697 L 218.3459 375.3288 L 215.5344 375.1332 L 213.715 374.8019 L 212.1157 374.2349 L 208.7375 372.4491 L 205.7935 371.163 L 200.1212 367.6219 L 199.573 367.1315 L 198.7013 365.9386 L 196.5114 362.0073 L 195.8758 360.5787 L 195.424 358.9625 L 194.8016 355.6537 L 194.371 354.0399 L 192.5153 349.7397 L 190.9602 343.208 L 189.375 339.6504 L 188.8543 338.1227 L 188.0427 333.9887 L 187.606 332.3596 L 184.7062 325.9152 L 183.9087 324.5325 L 182.8938 323.3525 L 181.6728 322.38 L 180.9841 321.9969 L 179.3052 321.4452 L 177.5503 321.1965 L 175.7521 321.1081 L 167.4186 321.2648 L 166.6194 318.0833 L 164.9529 314.5175 L 164.6638 313.7772 L 164.2412 312.1198 L 163.8884 308.6353 L 163.8168 303.2789 L 164.0555 298.8584 L 164.5966 296.3205 L 167.9765 289.1723 L 168.4061 288.5204 L 169.4335 287.3499 L 170.6509 286.3856 L 171.3272 286.0061 L 172.8576 285.465 L 176.0155 284.8414 L 177.5662 284.4241 L 181.7285 282.5534 L 187.2815 281.2803 L 188.0569 280.9856 L 189.5501 280.1204 L 191.5428 278.417 L 192.739 277.1239 L 193.8158 275.74 L 194.7158 274.2641 L 196.0597 271.2677 L 197.5273 269.0963 L 199.3476 267.1443 L 201.6206 265.2547 L 203.9573 266.002 L 208.9948 268.0248 L 210.9487 269.3521 L 214.5779 272.5089 L 216.5061 273.8586 L 219.4412 275.2095 L 223.4241 277.5388 L 226.3964 278.7978 L 230.389 281.1094 L 233.3622 282.3683 L 237.345 284.6976 L 240.2811 286.045 L 242.211 287.3911 L 245.842 290.5444 L 247.7897 291.8776 L 256.3468 295.5955 L 252.1182 302.7767 L 251.7371 303.6643 L 251.2376 305.5351 L 250.8734 309.4534 L 250.8751 315.4935 L 251.1262 320.4255 L 251.6523 324.0645 L 251.0714 327.6857 L 250.8106 331.2457 L 250.8778 334.6736 L 251.3305 337.0241 L 252.0236 338.3597 L 252.5204 338.8866 L 255.544 341.0284 L 258.0725 343.3259 L 259.7983 345.3074 L 260.7566 346.7644 L 262.1279 349.775 L 263.9411 353.2348 L 264.4937 354.8061 L 264.8111 356.5095 L 264.9552 358.2494 L 264.964 359.9987 L 264.8279 361.7386 L 264.484 363.4443 L 263.8068 365.0781 L 262.8219 366.548 L 261.0387 368.4989 L 259.724 369.6577 L 258.3263 370.6726 L 254.6732 372.4679 L 252.585 373.8848 L 249.9857 376.2212 L 245.6281 380.7006 Z" fill="#000000" fill-opacity="1" stroke="#000000" stroke-width="0" paint-order="fill" stroke-opacity="1" stroke-dasharray="" stroke-linecap="butt" stroke-linejoin="miter" stroke-miterlimit="10" transform="matrix(1.100000023841858,0,0,1.100000023841858,-39.999961853027344,-26.65000343322754)" clip-path="none" style="filter: url(#f1)"/>
















</svg>