<?xml version="1.0" standalone="no"?>
<!-- Generator: Paintmaps.com , Online SVG vector map maker -->
<svg xmlns="http://www.w3.org/2000/svg" version="1.1" baseProfile="full"   style="background-color:#e0f2f1" width="800" height="500" viewBox="0 0 800 533">

<path data-code="200" d="M 209.5655 265.8291 L 201.7121 263.1215 L 199.0938 262.4055 L 194.5981 261.856 L 183.8899 261.4276 L 180.8968 261.0547 L 178.0151 260.3029 L 175.6498 259.2199 L 171.1585 256.7385 L 166.2254 254.5387 L 159.5399 250.5914 L 154.5473 248.3937 L 148.9715 245.095 L 142.8483 242.328 L 136.1077 238.468 L 131.0749 236.3793 L 125.4248 233.2215 L 119.4072 230.4921 L 118.3137 229.784 L 116.3411 228.0603 L 114.7255 225.9518 L 113.638 223.3751 L 113.2185 220.5644 L 113.339 217.7577 L 113.5889 216.3911 L 114.5261 213.8303 L 115.8665 211.9519 L 117.8154 210.2163 L 124.5084 206.3483 L 128.9743 203.5099 L 131.3085 202.3237 L 132.6117 201.8556 L 139.3195 200.3659 L 141.9304 199.6023 L 147.6951 196.8432 L 150.2152 195.9823 L 152.9436 195.4884 L 159.9326 194.8457 L 162.6967 194.4193 L 165.3685 193.608 L 166.6658 192.9713 L 169.0788 191.3705 L 176.9857 184.9557 L 183.0405 181.7523 L 185.4282 180.1555 L 194.4925 172.5427 L 198.8409 169.7895 L 205.653 170.4897 L 212.6732 170.7971 L 251.3495 170.8943 L 256.5593 170.5155 L 259.9809 169.9264 L 263.0292 169.0338 L 268.9426 166.6952 L 275.2325 170.4242 L 283.5039 175.9048 L 288.4533 178.168 L 292.9535 180.6336 L 295.3174 181.7027 L 299.7536 182.7123 L 307.4106 183.4443 L 310.4276 183.9084 L 313.0593 184.6384 L 317.3467 186.1955 L 313.9102 194.3419 L 312.8391 198.555 L 312.366 204.7714 L 312.2187 217.3689 L 311.9688 220.4553 L 311.4362 223.4565 L 310.5124 226.1402 L 307.4969 231.9401 L 305.3249 237.018 L 301.7634 244.0497 L 301.0032 246.8405 L 300.4364 251.246 L 300.188 257.5438 L 300.2535 263.9844 L 300.6388 268.7449 L 301.2576 271.8194 L 302.3049 274.5389 L 303.6498 276.8517 L 306.7635 281.2175 L 309.1527 284.1849 L 303.3299 285.2024 L 291.9791 286.6445 L 288.1379 287.8762 L 282.3673 290.6334 L 277.8388 291.6866 L 273.0843 292.0853 L 266.6382 292.1687 L 261.8212 291.9782 L 257.1187 291.399 L 254.1374 290.5937 L 248.3534 287.8703 L 245.7529 286.9876 L 241.3316 286.3251 L 229.2845 285.6626 L 226.4118 285.016 L 225.0402 284.4665 L 222.8429 283.0681 L 220.9804 281.275 L 219.4674 279.2022 L 217.0901 274.4357 L 215.7051 272.2736 L 213.1761 269.2705 L 209.5655 265.8291 Z" fill="#000000" fill-opacity="1" stroke="#000000" stroke-width="0" paint-order="fill" stroke-opacity="1" stroke-dasharray="" stroke-linecap="butt" stroke-linejoin="miter" stroke-miterlimit="10" transform="matrix(1.100000023841858,0,0,1.100000023841858,-39.999961853027344,-26.64995765686035)" clip-path="none" style="filter: url(#f1)"/>
<path data-code="201" d="M 452.7598 273.3686 L 452.8178 304.8773 L 452.608 313.5652 L 452.3031 316.9611 L 451.7199 320.2498 L 450.7098 323.3045 L 448.2269 329.0369 L 447.2093 333.7895 L 446.7526 340.4741 L 446.5622 358.9528 L 424.8586 358.7128 L 420.6292 358.2368 L 417.9276 357.5108 L 404.9835 350.7905 L 394.7796 342.531 L 387.554 338.5699 L 384.2469 335.8822 L 374.9104 326.7499 L 371.4679 324.2804 L 368.8481 323.2489 L 366.0796 322.8403 L 361.9275 323.0664 L 357.9361 323.8559 L 358.4895 319.4107 L 358.5937 316.4731 L 358.3244 313.6069 L 358.0045 312.2085 L 356.9572 309.727 L 355.5068 307.6939 L 353.6888 305.8393 L 350.7016 303.3321 L 353.7602 298.4109 L 355.3922 296.1972 L 357.1893 294.1046 L 360.0903 291.1729 L 362.1358 289.3937 L 364.2736 287.8267 L 370.1498 284.7978 L 371.2061 284.0857 L 373.1371 282.3897 L 374.7928 280.4121 L 375.4891 279.3351 L 377.8544 274.523 L 379.3034 272.3807 L 382.0006 269.5344 L 385.1232 267.17 L 402.2149 267.9138 L 408.3173 268.5882 L 411.2064 269.3578 L 418.1761 272.5077 L 421.1276 273.2932 L 424.2115 273.7296 L 430.5623 274.0608 L 438.6299 274.0648 L 446.7258 273.8228 L 452.7598 273.3686 Z" fill="#000000" fill-opacity="1" stroke="#000000" stroke-width="0" paint-order="fill" stroke-opacity="1" stroke-dasharray="" stroke-linecap="butt" stroke-linejoin="miter" stroke-miterlimit="10" transform="matrix(1.100000023841858,0,0,1.100000023841858,-39.999961853027344,-26.64995765686035)" clip-path="none" style="filter: url(#f1)"/>
<path data-code="202" d="M 480.5047 192.1917 L 478.8817 194.0761 L 477.5591 196.0517 L 475.225 200.9848 L 473.7105 203.4742 L 467.504 211.6008 L 464.8143 215.7583 L 464.1106 216.6469 L 463.2225 217.4066 L 462.1514 217.9323 L 461.0014 218.1981 L 458.6271 218.0493 L 456.5117 217.2222 L 453.3965 215.554 L 451.0118 214.6277 L 446.9133 213.866 L 441.1456 213.4336 L 438.6002 210.2539 L 437.0917 208.0403 L 435.9849 205.8782 L 434.2711 201.7901 L 432.117 198.4518 L 428.5852 194.3141 L 417.1704 182.0915 L 427.4338 173.7725 L 430.0045 172.3483 L 432.8043 171.4993 L 437.1839 170.9618 L 441.6678 170.8209 L 459.8649 170.7456 L 465.7426 171.0828 L 468.5602 171.7016 L 471.0714 172.8838 L 473.1155 174.5381 L 474.7995 176.5594 L 475.4868 177.688 L 476.5773 180.2289 L 479.2536 187.7684 L 480.5047 192.1917 Z" fill="#000000" fill-opacity="1" stroke="#000000" stroke-width="0" paint-order="fill" stroke-opacity="1" stroke-dasharray="" stroke-linecap="butt" stroke-linejoin="miter" stroke-miterlimit="10" transform="matrix(1.100000023841858,0,0,1.100000023841858,-39.999961853027344,-26.64995765686035)" clip-path="none" style="filter: url(#f1)"/>
<path data-code="203" d="M 198.8409 169.7895 L 200.2572 165.9176 L 201.4116 161.887 L 202.3697 159.2707 L 204.4598 155.8253 L 209.5239 149.474 L 211.0353 147.2603 L 212.2597 144.8146 L 213.7473 140.905 L 215.8554 136.1743 L 225.906 134.3633 L 229.9495 133.2565 L 236.7853 129.5968 L 241.7556 127.4288 L 248.5825 123.8108 L 251.2037 123.0134 L 257.9146 121.5456 L 260.4019 120.5915 L 266.0684 117.5209 L 271.0477 115.347 L 277.7496 111.4275 L 282.7139 109.2317 L 289.5572 105.5621 L 292.2067 104.7132 L 297.6828 103.4377 L 303.1098 101.9283 L 300.3516 113.175 L 299.5067 115.9024 L 295.9229 122.9638 L 293.8178 128.1191 L 291.448 132.8002 L 290.4319 135.2321 L 289.5467 139.3539 L 288.7761 146.209 L 288.1826 148.7381 L 287.708 149.9064 L 286.2605 151.88 L 280.1834 156.5136 L 268.9426 166.6952 L 263.0292 169.0338 L 259.9809 169.9264 L 256.5593 170.5155 L 251.3495 170.8943 L 212.6732 170.7971 L 205.653 170.4897 L 198.8409 169.7895 Z" fill="#000000" fill-opacity="1" stroke="#000000" stroke-width="0" paint-order="fill" stroke-opacity="1" stroke-dasharray="" stroke-linecap="butt" stroke-linejoin="miter" stroke-miterlimit="10" transform="matrix(1.100000023841858,0,0,1.100000023841858,-39.999961853027344,-26.64995765686035)" clip-path="none" style="filter: url(#f1)"/>
<path data-code="204" d="M 406.0486 189.1847 L 400.1917 189.1787 L 397.6627 185.9832 L 396.1601 183.7656 L 395.0533 181.6035 L 393.3172 177.5333 L 391.9337 175.3196 L 390.2764 173.2528 L 388.4466 171.3129 L 386.4933 169.5019 L 384.415 167.8298 L 385.864 163.2061 L 389.5728 153.2804 L 393.341 146.3281 L 396.0203 140.0005 L 399.2247 134.2443 L 401.2717 129.0712 L 405.0147 122.1268 L 407.1674 117.0052 L 409.323 113.6848 L 411.9532 110.6162 L 415.7794 106.8276 L 420.6218 102.5253 L 420.7155 102.5967 L 422.4605 100.9365 L 422.584 100.8175 L 422.584 100.9642 L 422.4754 100.9642 L 422.4754 101.3967 L 422.584 101.3967 L 422.584 101.6863 L 422.6926 101.6863 L 422.6926 101.9739 L 422.7997 101.9739 L 422.7997 102.1187 L 422.9083 102.1187 L 422.9083 102.2635 L 423.0169 102.2635 L 423.0169 102.5531 L 423.1255 102.5531 L 423.1255 102.6959 L 423.2341 102.6959 L 423.2341 102.9855 L 423.3427 102.9855 L 423.3427 103.2751 L 423.4498 103.2751 L 423.4498 103.4179 L 423.5584 103.4179 L 423.5584 103.5627 L 423.667 103.5627 L 423.667 103.7075 L 423.7756 103.7075 L 423.7756 103.8523 L 423.8842 103.8523 L 423.8842 103.9971 L 423.9913 103.9971 L 423.9913 104.2847 L 424.0999 104.2847 L 424.0999 104.5743 L 424.3171 104.5743 L 424.3171 104.7191 L 424.4257 104.7191 L 424.4257 104.8639 L 424.64 104.8639 L 424.6414 105.0067 L 425.0758 105.0067 L 425.0758 105.1515 L 425.183 105.1515 L 425.183 105.2963 L 425.726 105.2963 L 425.726 105.4411 L 426.0503 105.4411 L 426.0503 105.5859 L 426.1589 105.5859 L 426.1589 105.7307 L 426.3746 105.7307 L 426.3746 105.8735 L 426.4832 105.8735 L 426.4832 106.0183 L 426.5918 106.0183 L 426.5918 106.1631 L 426.3746 106.1631 L 426.3746 106.4527 L 426.2675 106.4527 L 426.2675 106.5955 L 426.1589 106.5955 L 426.1589 106.7443 L 426.1589 106.8851 L 426.0503 106.8851 L 426.0503 107.0299 L 426.1589 107.0299 L 426.1589 107.6072 L 426.2675 107.6072 L 426.2675 107.752 L 426.3746 107.752 L 426.3746 107.8968 L 426.4832 107.8968 L 426.4832 108.0416 L 426.7004 108.0416 L 426.7004 108.1844 L 426.809 108.1844 L 426.809 108.474 L 426.9176 108.474 L 426.9176 108.9084 L 427.0247 108.9084 L 427.0247 109.3408 L 427.1333 109.3408 L 427.1333 109.7732 L 427.2419 109.7732 L 427.2419 109.918 L 427.3505 109.918 L 427.3505 110.0628 L 427.4591 110.0628 L 427.4591 110.2076 L 427.6748 110.2076 L 427.6748 110.3524 L 428.0006 110.3524 L 428.0006 110.64 L 428.2163 110.64 L 428.2163 110.7848 L 428.3249 110.7848 L 428.3249 110.9296 L 428.6507 110.9296 L 428.6507 111.0744 L 429.0836 111.0744 L 429.0836 111.2192 L 429.4079 111.2192 L 429.4079 111.362 L 429.7337 111.362 L 429.7337 111.5068 L 430.1666 111.5068 L 430.1666 111.6516 L 430.2752 111.6516 L 430.2752 111.9412 L 430.4909 111.9412 L 430.4924 112.086 L 430.9253 112.086 L 430.9253 112.2288 L 431.3582 112.2288 L 431.3582 112.6632 L 431.2496 112.6632 L 431.2496 113.3852 L 431.3582 113.3852 L 431.3582 113.8177 L 431.6826 113.8177 L 431.6826 113.9625 L 431.8998 113.9625 L 431.8998 114.1073 L 432.0084 114.1073 L 432.0084 114.2521 L 432.117 114.2521 L 432.117 114.3969 L 432.2256 114.3969 L 432.2256 114.5397 L 432.3327 114.5397 L 432.3327 114.8293 L 432.5499 114.8293 L 432.5499 114.9741 L 432.6585 114.9741 L 432.6585 115.1189 L 432.9828 115.1189 L 432.9828 115.2637 L 433.3086 115.2637 L 433.3086 115.4065 L 433.6329 115.4065 L 433.6329 115.5513 L 433.9587 115.5513 L 433.9587 115.6961 L 434.8245 115.6961 L 434.8245 115.8409 L 435.366 115.8409 L 435.366 115.9857 L 435.6918 115.9857 L 435.6918 116.1285 L 435.9001 116.1285 L 436.449 116.1285 L 436.449 116.2733 L 437.3163 116.2733 L 437.3163 116.4181 L 438.075 116.4181 L 438.075 116.5629 L 438.3994 116.5629 L 438.3994 116.7077 L 438.8323 116.7077 L 438.8323 116.8525 L 439.1581 116.8525 L 439.1581 116.9953 L 439.591 116.9953 L 439.591 117.1401 L 439.9168 117.1401 L 439.9168 117.2849 L 440.3497 117.2849 L 440.3497 117.4297 L 440.7826 117.4297 L 440.7826 117.5745 L 441.1084 117.5745 L 441.1084 117.7173 L 441.5413 117.7173 L 441.5413 117.8621 L 441.8656 117.8621 L 441.8656 118.0069 L 442.3 118.0069 L 442.3 118.1517 L 442.7329 118.1517 L 442.7329 118.2965 L 443.2744 118.2965 L 443.2744 118.4413 L 443.8159 118.4413 L 443.8159 118.5841 L 444.3575 118.5841 L 444.3575 118.7289 L 444.899 118.7289 L 444.899 118.8737 L 445.1162 118.8737 L 445.1162 119.1633 L 445.3334 119.1633 L 445.3334 119.4509 L 445.7663 119.4509 L 445.7663 119.1633 L 445.982 119.1633 L 445.982 119.0185 L 446.7407 119.0185 L 446.7407 118.8737 L 447.1736 118.8737 L 447.1736 118.7289 L 447.608 118.7289 L 447.608 118.5841 L 448.1495 118.5841 L 448.1495 118.4413 L 448.3652 118.4413 L 448.3652 118.2965 L 449.2325 118.2965 L 449.2325 118.1517 L 449.774 118.1517 L 449.774 118.0069 L 450.3155 118.0069 L 450.3155 117.8621 L 450.4241 117.8621 L 450.4241 117.5745 L 450.6413 117.5745 L 450.6413 117.4297 L 451.0742 117.4297 L 451.0742 117.2849 L 452.2659 117.2849 L 452.2659 117.1401 L 452.5902 117.1401 L 452.5902 116.9953 L 453.4575 116.9953 L 453.4575 116.8525 L 453.8904 116.8525 L 453.8904 116.7077 L 454.0987 116.7077 L 454.4319 116.7077 L 454.4319 116.5629 L 454.5405 116.5629 L 454.5405 116.4181 L 455.1906 116.4181 L 455.1906 116.2733 L 455.5149 116.2733 L 455.5149 116.1285 L 455.7321 116.1285 L 455.7321 115.9857 L 455.9493 115.9857 L 455.9493 115.8409 L 456.2736 115.8409 L 456.2736 115.6961 L 457.2481 115.6961 L 457.2495 115.5513 L 457.5739 115.5513 L 457.5739 115.4065 L 457.6824 115.4065 L 457.6824 115.5513 L 458.0068 115.5513 L 458.0068 115.4065 L 458.3326 115.4065 L 458.3326 115.2637 L 458.4397 115.2637 L 458.4397 115.1189 L 459.1984 115.1189 L 459.1984 114.9741 L 459.4156 114.9741 L 459.4156 114.8293 L 459.7399 114.8293 L 459.7399 114.6845 L 460.0657 114.6845 L 460.0657 114.5397 L 460.4986 114.5397 L 460.4986 114.3969 L 460.8229 114.3969 L 460.8229 114.2521 L 461.2573 114.2521 L 461.2573 114.1073 L 461.3659 114.1073 L 461.3659 113.9625 L 461.5816 113.9625 L 461.5816 113.8177 L 461.7988 113.8177 L 461.7988 113.6748 L 462.0145 113.6748 L 462.0145 113.53 L 462.1231 113.53 L 462.1231 113.3852 L 462.4489 113.3852 L 462.4489 113.2404 L 462.9904 113.2404 L 462.9904 113.0956 L 463.099 113.0956 L 463.099 112.9508 L 463.4233 112.9508 L 463.4233 112.808 L 463.6405 112.808 L 463.6405 112.6632 L 464.0735 112.6632 L 464.0735 112.5184 L 464.3978 112.5184 L 464.3978 112.3736 L 464.615 112.3736 L 464.615 112.2288 L 464.8322 112.2288 L 464.8322 112.086 L 465.1565 112.086 L 465.1565 111.9412 L 465.2651 111.9412 L 465.2651 111.7964 L 465.3737 111.7964 L 465.3737 111.362 L 465.1565 111.362 L 465.1565 110.7848 L 465.2651 110.7848 L 465.2651 110.64 L 465.4823 110.64 L 465.4823 110.4972 L 465.698 110.4972 L 465.698 110.3524 L 465.9152 110.3524 L 465.9152 110.2076 L 466.6739 110.2076 L 466.6739 110.3524 L 466.781 110.3524 L 466.781 110.4972 L 467.1068 110.4972 L 467.1068 110.7848 L 467.2154 110.7848 L 467.2154 110.9296 L 467.5397 110.9296 L 467.5397 110.7848 L 467.6483 110.7848 L 467.6483 109.918 L 467.5397 109.918 L 467.5397 109.7732 L 468.2984 109.7732 L 468.2984 109.6304 L 468.407 109.6304 L 468.407 109.4856 L 468.6227 109.4856 L 468.6227 109.3408 L 468.7313 109.3408 L 468.7313 109.196 L 469.0571 109.196 L 469.49 109.196 L 469.49 109.0512 L 469.5986 109.0512 L 469.5986 108.6188 L 469.7072 108.6188 L 469.7072 108.474 L 469.8143 108.474 L 469.8143 108.3292 L 469.8545 108.3292 L 469.9229 108.3292 L 469.9229 108.1844 L 470.0315 108.1844 L 470.0315 107.8968 L 470.1401 107.8968 L 470.1401 107.6072 L 470.2487 107.6072 L 470.2487 107.4624 L 470.3559 107.4624 L 470.3559 107.1747 L 470.5731 107.1747 L 470.5731 106.8851 L 471.006 106.8851 L 471.006 106.7403 L 471.2232 106.7403 L 471.2232 106.5955 L 471.5475 106.5955 L 471.5475 106.3079 L 471.7647 106.3079 L 471.7647 106.0183 L 471.8733 106.0183 L 471.8733 105.8735 L 471.9819 105.8735 L 471.9819 105.5859 L 472.3062 105.5859 L 472.3062 105.4411 L 472.4148 105.4411 L 472.4148 105.2963 L 473.0649 105.2963 L 473.0649 105.4411 L 473.1735 105.4411 L 473.1735 105.2963 L 473.6064 105.2924 L 473.6064 105.1515 L 473.6674 105.1515 L 473.715 105.1515 L 473.715 105.0067 L 473.8236 105.0067 L 473.8236 104.4295 L 473.9307 104.4295 L 473.9307 104.2847 L 473.8236 104.2847 L 473.8236 103.9971 L 473.6064 103.9971 L 473.6064 103.8523 L 473.4978 103.8523 L 473.4978 103.7075 L 473.3892 103.7075 L 473.3892 103.4179 L 473.4978 103.4179 L 473.4978 103.2751 L 473.6064 103.2751 L 473.6064 103.1303 L 473.8236 103.1303 L 473.8236 102.9855 L 473.9307 102.9855 L 473.9307 102.8407 L 474.1479 102.8407 L 474.1479 102.6959 L 474.3651 102.6959 L 474.3651 102.5531 L 474.6894 102.5531 L 474.6894 102.4717 L 474.7653 102.5531 L 482.8091 111.0566 L 485.9064 114.9344 L 487.2408 117.1163 L 489.4113 122.1069 L 491.7752 126.7365 L 492.8047 129.1961 L 493.5054 132.1516 L 493.8416 135.2162 L 494.0424 150.9537 L 494.4456 155.5873 L 495.5182 159.7646 L 499.3906 168.4447 L 499.7699 177.1703 L 496.564 177.7931 L 494.4738 178.4794 L 493.3164 179.0487 L 491.1459 180.4908 L 489.1183 182.2006 L 486.2709 185.0688 L 483.5812 188.2306 L 480.5047 192.1917 L 479.2536 187.7684 L 476.5773 180.2289 L 475.4868 177.688 L 474.7995 176.5594 L 473.1155 174.5381 L 471.0714 172.8838 L 468.5602 171.7016 L 465.7426 171.0828 L 459.8649 170.7456 L 441.6678 170.8209 L 437.1839 170.9618 L 432.8043 171.4993 L 430.0045 172.3483 L 427.4338 173.7725 L 417.1704 182.0915 L 413.7101 183.599 L 411.3209 184.9458 L 409.1519 186.5406 L 406.0486 189.1847 Z" fill="#000000" fill-opacity="1" stroke="#000000" stroke-width="0" paint-order="fill" stroke-opacity="1" stroke-dasharray="" stroke-linecap="butt" stroke-linejoin="miter" stroke-miterlimit="10" transform="matrix(1.100000023841858,0,0,1.100000023841858,-39.999961853027344,-26.64995765686035)" clip-path="none" style="filter: url(#f1)"/>
<path data-code="205" d="M 452.7598 273.3686 L 453.3385 262.2825 L 454.9199 254.4971 L 458.2299 253.9516 L 463.8696 251.5277 L 466.4344 250.6728 L 470.8765 249.9825 L 478.6615 249.7068 L 501.8631 249.7425 L 506.8705 249.5402 L 514.5142 248.834 L 517.9283 251.3789 L 525.0394 257.7461 L 528.2185 260.2156 L 530.569 261.5327 L 534.2688 263.1929 L 539.9056 266.2754 L 541.1106 266.7792 L 543.8003 267.4873 L 553.6263 268.4474 L 556.3874 268.8897 L 558.8822 269.6196 L 562.5582 271.0458 L 560.9977 275.8401 L 559.1143 280.4836 L 557.1818 285.7538 L 556.557 286.9043 L 555.0649 289.0783 L 553.3675 291.1352 L 550.6212 294.1125 L 531.5583 313.714 L 527.6919 317.4807 L 525.6895 319.2124 L 523.5949 320.7377 L 521.5181 321.8525 L 517.5535 323.5742 L 515.4023 324.9389 L 513.3627 326.5753 L 508.5159 331.2149 L 488.6705 351.8636 L 483.2003 357.3541 L 480.594 359.6986 L 478.7612 361.1347 L 474.624 363.751 L 471.6828 361.5057 L 469.5659 360.3135 L 468.166 359.778 L 465.2264 359.0956 L 462.1767 358.7565 L 457.4995 358.5998 L 446.5622 358.9528 L 446.7526 340.4741 L 447.2093 333.7895 L 448.2269 329.0369 L 450.7098 323.3045 L 451.7199 320.2498 L 452.3031 316.9611 L 452.608 313.5652 L 452.8178 304.8773 L 452.7598 273.3686 Z" fill="#000000" fill-opacity="1" stroke="#000000" stroke-width="0" paint-order="fill" stroke-opacity="1" stroke-dasharray="" stroke-linecap="butt" stroke-linejoin="miter" stroke-miterlimit="10" transform="matrix(1.100000023841858,0,0,1.100000023841858,-39.999961853027344,-26.64995765686035)" clip-path="none" style="filter: url(#f1)"/>
<path data-code="206" d="M 661.1665 189.381 L 648.5987 189.51 L 643.8144 188.9923 L 640.7513 188.1056 L 639.3008 187.4054 L 636.623 185.6539 L 629.3975 179.7033 L 626.3106 177.4123 L 624.5879 175.6668 L 623.8753 174.4409 L 623.0124 171.6778 L 622.6212 168.6708 L 622.4813 165.5149 L 622.7684 150.5887 L 623.6179 140.5401 L 625.9163 140.5401 L 625.9163 140.3953 L 626.0249 140.3953 L 626.0889 140.3953 L 626.132 140.3953 L 626.3492 140.3953 L 626.3492 140.6829 L 627.3237 140.6829 L 627.3237 140.8277 L 627.5409 140.8277 L 627.5409 140.9725 L 627.8652 140.9725 L 627.8652 141.1173 L 628.191 141.1173 L 628.191 141.2621 L 628.2996 141.2621 L 628.2996 141.4069 L 628.6239 141.4069 L 628.6239 141.5497 L 629.0568 141.5497 L 629.0568 141.6945 L 629.3826 141.6945 L 629.3826 141.8393 L 629.4912 141.8393 L 629.4912 141.9841 L 630.0327 141.9841 L 630.0327 142.1289 L 632.0901 142.1289 L 632.0901 142.2717 L 633.8694 142.2717 L 634.1491 142.2717 L 634.1491 142.3828 L 634.1491 142.4165 L 634.2368 142.4165 L 634.3663 142.4165 L 634.3663 142.4681 L 634.3663 142.7061 L 634.4734 142.7061 L 634.4734 142.9957 L 634.582 142.9957 L 634.582 143.1385 L 634.7992 143.1385 L 634.7992 143.2833 L 634.9078 143.2833 L 634.9078 143.4281 L 635.0149 143.4281 L 635.0149 143.5729 L 635.1235 143.5729 L 635.1235 143.7177 L 635.2321 143.7177 L 635.2321 143.8605 L 635.3407 143.8605 L 635.3407 144.0053 L 635.4493 144.0053 L 635.4493 144.1501 L 637.1824 144.1501 L 637.1824 144.2949 L 638.194 144.2949 L 638.2654 144.2949 L 638.2654 144.4397 L 638.4841 144.4397 L 638.8069 144.4397 L 638.8069 144.2949 L 639.0241 144.2949 L 639.0241 144.1501 L 639.2398 144.1501 L 639.2398 144.2949 L 639.3484 144.2949 L 639.3484 144.5845 L 639.457 144.5845 L 639.457 144.7273 L 641.7317 144.7273 L 641.7317 144.8721 L 641.8403 144.8721 L 641.8403 145.0169 L 641.9489 145.0169 L 641.9489 145.1617 L 642.0575 145.1617 L 642.0575 145.3065 L 642.1646 145.3065 L 642.1646 145.4493 L 642.2732 145.4493 L 642.2732 145.5941 L 642.8147 145.5941 L 642.8147 145.4493 L 642.9233 145.4493 L 642.9233 145.3065 L 643.0319 145.3065 L 643.0319 145.1617 L 644.1149 145.1617 L 644.1149 145.3065 L 644.3321 145.3065 L 644.3321 145.4493 L 644.5478 145.4493 L 644.5478 145.5941 L 644.6564 145.5941 L 644.6564 145.7389 L 644.0063 145.7389 L 644.0063 145.5941 L 643.2491 145.5941 L 643.2491 145.7389 L 643.0319 145.7389 L 643.0319 146.1733 L 643.2491 146.1733 L 643.2491 146.2626 L 643.2491 146.3162 L 643.4589 146.3162 L 643.682 146.3162 L 643.682 146.3737 L 643.682 146.6058 L 643.8992 146.6058 L 643.8992 146.4312 L 643.8992 146.3162 L 644.0063 146.3162 L 644.0063 146.1733 L 644.2235 146.1733 L 644.2235 146.3162 L 644.3321 146.3162 L 644.3321 146.461 L 644.4407 146.461 L 644.4407 146.5701 L 644.4407 146.6058 L 644.5776 146.6058 L 645.0908 146.6058 L 645.0908 146.7387 L 645.1384 146.7506 L 646.0652 146.7506 L 646.0652 146.8954 L 646.7154 146.8954 L 646.7154 147.1572 L 646.7154 147.183 L 646.8121 147.183 L 647.3655 147.183 L 647.3655 147.0382 L 647.4741 147.0382 L 647.4741 146.6058 L 647.6898 146.6058 L 647.6898 146.7506 L 647.7984 146.7506 L 647.7984 146.8954 L 648.2313 146.8954 L 648.2313 146.7506 L 649.2072 146.7506 L 649.2072 146.8954 L 649.9644 146.8954 L 649.9644 147.0382 L 650.1816 147.0382 L 650.1816 147.183 L 650.2902 147.183 L 650.2902 147.3278 L 650.5059 147.3278 L 650.5059 147.4726 L 650.6145 147.4726 L 650.6145 147.6174 L 650.8317 147.6174 L 650.8317 147.4726 L 650.9403 147.4726 L 650.9403 147.0382 L 651.0474 147.0382 L 651.0489 146.7506 L 651.156 146.7506 L 651.156 146.3162 L 651.2646 146.3162 L 651.2646 145.8837 L 651.4818 145.8837 L 651.4818 146.0285 L 651.5904 146.0285 L 651.5904 146.1733 L 651.4818 146.1733 L 651.4818 146.7506 L 651.3732 146.7506 L 651.3732 147.4726 L 651.2646 147.4726 L 651.2646 147.7622 L 651.5904 147.7622 L 651.5904 148.0498 L 651.9147 148.0498 L 651.9147 147.905 L 652.0233 147.905 L 652.0233 147.6174 L 652.1319 147.6174 L 652.1319 148.0498 L 652.3476 148.0498 L 652.3476 148.1946 L 653.7565 148.1946 L 653.7565 148.3394 L 654.7309 148.3394 L 654.7309 148.4842 L 654.9481 148.4842 L 654.9481 148.627 L 655.7068 148.627 L 655.7068 148.9166 L 655.8139 148.9166 L 655.8139 149.0614 L 656.1397 149.0614 L 656.1397 149.2062 L 656.3569 149.2062 L 656.3569 149.351 L 656.464 149.351 L 656.464 149.4938 L 656.5726 149.4938 L 656.5726 149.6386 L 657.0055 149.6386 L 657.0055 149.4938 L 657.3313 149.4938 L 657.3313 149.6386 L 658.7401 149.6386 L 658.7401 149.4938 L 659.0644 149.4938 L 659.0644 149.351 L 660.3647 149.351 L 660.3647 149.4938 L 661.772 149.4938 L 661.772 149.6386 L 662.9636 149.6386 L 662.9636 149.4938 L 664.1552 149.4938 L 664.1552 149.6386 L 664.3724 149.6386 L 664.3724 149.7834 L 664.481 149.7834 L 664.481 149.9282 L 664.9139 149.9282 L 664.9139 150.073 L 665.3469 150.073 L 665.3469 150.2158 L 666.4314 150.2158 L 666.4314 150.3606 L 666.7557 150.3606 L 666.7557 150.5054 L 666.9729 150.5054 L 666.9729 150.6502 L 667.0815 150.6502 L 667.0815 150.795 L 667.2972 150.795 L 667.2972 150.9398 L 667.4058 150.9398 L 667.4058 151.0826 L 667.623 151.0826 L 667.623 151.2274 L 667.9473 151.2274 L 667.9473 151.3722 L 668.0559 151.3722 L 668.0559 151.517 L 668.3802 151.517 L 668.3802 151.6618 L 668.4888 151.6618 L 668.4888 151.8046 L 669.1389 151.8046 L 669.1389 151.9494 L 669.4647 151.9494 L 669.4647 152.0942 L 670.0062 152.0942 L 670.0062 152.239 L 670.1163 152.239 L 671.8479 152.239 L 671.8479 152.3838 L 672.0636 152.3838 L 672.0636 152.5286 L 673.6882 152.5286 L 673.6882 152.6715 L 673.7968 152.6715 L 673.7968 152.8163 L 673.6882 152.8163 L 673.6882 152.9611 L 672.8224 152.9611 L 672.8224 153.1059 L 672.931 153.1059 L 672.931 153.2507 L 673.0381 153.2507 L 673.0396 153.3935 L 673.1467 153.3935 L 673.1467 153.5383 L 673.3639 153.5383 L 673.3639 153.6831 L 673.4725 153.6831 L 673.4725 153.8279 L 673.6882 153.8279 L 673.6882 153.9727 L 674.014 153.9727 L 674.014 153.8279 L 674.1226 153.8279 L 673.4546 157.194 L 672.3225 160.7604 L 668.5334 170.8289 L 665.384 176.609 L 664.4111 178.8424 L 661.8642 186.5644 L 661.1665 189.381 Z" fill="#000000" fill-opacity="1" stroke="#000000" stroke-width="0" paint-order="fill" stroke-opacity="1" stroke-dasharray="" stroke-linecap="butt" stroke-linejoin="miter" stroke-miterlimit="10" transform="matrix(1.100000023841858,0,0,1.100000023841858,-39.999961853027344,-26.64995765686035)" clip-path="none" style="filter: url(#f1)"/>
<path data-code="207" d="M 499.7595 183.2241 L 499.401 189.1073 L 498.7092 193.3739 L 497.8494 195.9625 L 495.1686 201.923 L 494.4054 204.8388 L 493.9576 207.8856 L 493.5441 214.1576 L 493.4622 220.4712 L 493.6854 225.1246 L 494.1391 228.1317 L 495.0734 230.99 L 495.7116 232.1702 L 497.3034 234.2549 L 500.2415 236.7066 L 504.8637 239.1364 L 507.9565 241.4135 L 510.737 244.2342 L 514.5142 248.834 L 506.8705 249.5402 L 501.8631 249.7425 L 478.6615 249.7068 L 470.8765 249.9825 L 466.4344 250.6728 L 463.8696 251.5277 L 458.2299 253.9516 L 454.9199 254.4971 L 446.5994 250.7779 L 442.5306 249.1871 L 440.3913 248.0406 L 438.2357 246.4478 L 436.1946 244.6368 L 429.393 237.6369 L 430.3511 233.5289 L 431.4088 231.0039 L 432.8236 228.7387 L 437.7165 222.3298 L 439.1298 220.0666 L 440.189 217.5395 L 441.1456 213.4336 L 446.9133 213.866 L 451.0118 214.6277 L 453.3965 215.554 L 456.5117 217.2222 L 458.6271 218.0493 L 461.0014 218.1981 L 462.1514 217.9323 L 463.2225 217.4066 L 464.1106 216.6469 L 464.8143 215.7583 L 467.504 211.6008 L 473.7105 203.4742 L 475.225 200.9848 L 477.5591 196.0517 L 478.8817 194.0761 L 480.5047 192.1917 L 483.5812 188.2306 L 486.2709 185.0688 L 489.1183 182.2006 L 491.1459 180.4908 L 493.3164 179.0487 L 494.4738 178.4794 L 496.564 177.7931 L 499.7699 177.1703 L 499.7595 183.2241 Z" fill="#000000" fill-opacity="1" stroke="#000000" stroke-width="0" paint-order="fill" stroke-opacity="1" stroke-dasharray="" stroke-linecap="butt" stroke-linejoin="miter" stroke-miterlimit="10" transform="matrix(1.100000023841858,0,0,1.100000023841858,-39.999961853027344,-26.64995765686035)" clip-path="none" style="filter: url(#f1)"/>
<path data-code="208" d="M 215.8554 136.1743 L 219.573 128.9422 L 221.1157 126.6731 L 224.6102 122.4164 L 227.111 119.201 L 228.6002 116.9735 L 231.4847 110.7392 L 232.8817 108.4522 L 234.5389 106.302 L 236.3658 104.2728 L 238.3206 102.3726 L 240.3988 100.6548 L 242.6229 99.2148 L 247.5932 97.009 L 254.3486 93.1907 L 260.5046 90.4891 L 266.0952 87.2182 L 271.0953 85.0879 L 277.8165 81.2081 L 282.8017 79.0222 L 285.054 77.6853 L 295.5822 70.7131 L 294.9737 78.5878 L 294.9008 83.0766 L 295.2103 87.482 L 295.7771 90.3284 L 296.7768 92.9368 L 298.1187 95.2437 L 303.1098 101.9283 L 297.6828 103.4377 L 292.2067 104.7132 L 289.5572 105.5621 L 282.7139 109.2317 L 277.7496 111.4275 L 271.0477 115.347 L 266.0684 117.5209 L 260.4019 120.5915 L 257.9146 121.5456 L 251.2037 123.0134 L 248.5825 123.8108 L 241.7556 127.4288 L 236.7853 129.5968 L 229.9495 133.2565 L 225.906 134.3633 L 215.8554 136.1743 Z" fill="#000000" fill-opacity="1" stroke="#000000" stroke-width="0" paint-order="fill" stroke-opacity="1" stroke-dasharray="" stroke-linecap="butt" stroke-linejoin="miter" stroke-miterlimit="10" transform="matrix(1.100000023841858,0,0,1.100000023841858,-39.999961853027344,-26.64995765686035)" clip-path="none" style="filter: url(#f1)"/>
<path data-code="209" d="M 671.543 332.1927 L 658.1466 336.0051 L 651.2111 339.4168 L 648.5972 340.2281 L 643.2387 341.4321 L 640.6442 342.2553 L 633.734 345.6472 L 631.0384 346.387 L 628.2401 346.7718 L 622.5468 346.8333 L 619.7306 346.5041 L 616.9963 345.8019 L 606.5425 340.6129 L 604.2932 339.2026 L 602.3785 337.4174 L 601.5425 336.3919 L 600.1857 334.0751 L 599.671 332.6628 L 598.9197 328.2137 L 598.7323 322.031 L 598.9941 309.4156 L 599.5282 303.2448 L 600.571 298.8988 L 603.3753 293.087 L 604.2545 290.5203 L 604.7633 286.2934 L 604.5758 283.4331 L 604.2991 282.0208 L 603.2369 279.2359 L 600.6454 275.4771 L 596.4442 270.9169 L 587.4751 262.0068 L 587.1865 256.7881 L 586.7893 253.4279 L 586.1169 250.5498 L 583.5313 244.4523 L 582.6685 241.7309 L 582.1285 238.6604 L 581.3296 230.8055 L 580.7806 227.727 L 579.8836 224.9957 L 577.0808 219.0649 L 574.7943 212.3902 L 572.5747 207.8578 L 583.515 207.5028 L 589.8777 206.8026 L 592.8679 205.9893 L 599.7647 202.8553 L 602.4142 202.2463 L 605.1441 202.0579 L 607.8725 202.2543 L 610.519 202.8732 L 617.3995 206.025 L 620.2945 206.8244 L 623.3338 207.2766 L 631.199 207.6595 L 651.9847 207.59 L 651.1114 211.7456 L 650.1831 214.3163 L 647.1855 220.1598 L 645.0715 225.3012 L 641.2378 232.2059 L 639.0955 237.3254 L 636.6454 241.959 L 635.5579 244.3928 L 634.5388 248.6 L 633.2029 259.1981 L 632.1601 258.4126 L 631.3835 258.2678 L 630.4894 258.5673 L 629.8244 259.2893 L 629.5046 260.1998 L 629.4466 261.2173 L 629.6132 262.3043 L 630.4641 264.3374 L 632.886 268.5406 L 635.0699 273.6502 L 639.0048 280.6422 L 641.2422 285.7777 L 643.4157 289.1656 L 648.4872 295.5407 L 650.009 297.7464 L 653.6404 305.0974 L 655.1564 307.3071 L 660.9731 314.795 L 662.3477 317.0741 L 665.2353 323.3045 L 667.4549 326.6289 L 671.543 332.1927 Z" fill="#000000" fill-opacity="1" stroke="#000000" stroke-width="0" paint-order="fill" stroke-opacity="1" stroke-dasharray="" stroke-linecap="butt" stroke-linejoin="miter" stroke-miterlimit="10" transform="matrix(1.100000023841858,0,0,1.100000023841858,-39.999961853027344,-26.64995765686035)" clip-path="none" style="filter: url(#f1)"/>
<path data-code="210" d="M 385.1232 267.17 L 389.7096 261.1578 L 392.5823 258.367 L 394.735 256.8614 L 399.6561 254.5685 L 405.3063 251.3868 L 412.5914 248.1219 L 419.9032 243.4407 L 421.6483 241.8678 L 422.2939 240.8879 L 423.5376 237.6309 L 421.1261 234.4572 L 419.7351 232.1841 L 418.661 229.4488 L 418.2995 227.8857 L 417.7967 223.032 L 417.6241 208.1434 L 417.224 204.9539 L 416.3239 201.9349 L 415.0297 199.6717 L 413.42 197.7437 L 408.1046 193.2787 L 406.9249 191.3428 L 406.0486 189.1847 L 409.1519 186.5406 L 411.3209 184.9458 L 413.7101 183.599 L 417.1704 182.0915 L 428.5852 194.3141 L 432.117 198.4518 L 434.2711 201.7901 L 435.9849 205.8782 L 437.0917 208.0403 L 438.6002 210.2539 L 441.1456 213.4336 L 440.189 217.5395 L 439.1298 220.0666 L 437.7165 222.3298 L 432.8236 228.7387 L 431.4088 231.0039 L 430.3511 233.5289 L 429.393 237.6369 L 436.1946 244.6368 L 438.2357 246.4478 L 440.3913 248.0406 L 442.5306 249.1871 L 446.5994 250.7779 L 454.9199 254.4971 L 453.3385 262.2825 L 452.7598 273.3686 L 446.7258 273.8228 L 438.6299 274.0648 L 430.5623 274.0608 L 424.2115 273.7296 L 421.1276 273.2932 L 418.1761 272.5077 L 411.2064 269.3578 L 408.3173 268.5882 L 402.2149 267.9138 L 385.1232 267.17 Z" fill="#000000" fill-opacity="1" stroke="#000000" stroke-width="0" paint-order="fill" stroke-opacity="1" stroke-dasharray="" stroke-linecap="butt" stroke-linejoin="miter" stroke-miterlimit="10" transform="matrix(1.100000023841858,0,0,1.100000023841858,-39.999961853027344,-26.64995765686035)" clip-path="none" style="filter: url(#f1)"/>
<path data-code="211" d="M 350.7016 303.3321 L 348.9313 302.9532 L 346.5778 302.1082 L 339.5397 298.0261 L 338.0699 296.7784 L 337.1936 295.0051 L 335.8294 287.3288 L 335.6167 284.4229 L 335.6063 281.4952 L 335.8309 278.5853 L 336.3948 275.7369 L 336.8634 274.3603 L 338.2454 271.746 L 345.3728 262.4194 L 346.7325 259.9498 L 348.479 256.2267 L 349.8447 254.0369 L 356.7802 245.1664 L 358.012 243.1135 L 359.754 239.0392 L 360.8296 236.9684 L 362.225 234.9293 L 368.4435 227.0824 L 369.7006 224.9798 L 371.8904 219.8861 L 374.0044 216.6152 L 376.5631 213.5566 L 379.3153 210.5951 L 400.1917 189.1787 L 406.0486 189.1847 L 406.9249 191.3428 L 408.1046 193.2787 L 413.42 197.7437 L 415.0297 199.6717 L 416.3239 201.9349 L 417.224 204.9539 L 417.6241 208.1434 L 417.7967 223.032 L 418.2995 227.8857 L 418.661 229.4488 L 419.7351 232.1841 L 421.1261 234.4572 L 423.5376 237.6309 L 422.2939 240.8879 L 421.6483 241.8678 L 419.9032 243.4407 L 412.5914 248.1219 L 405.3063 251.3868 L 399.6561 254.5685 L 394.735 256.8614 L 392.5823 258.367 L 389.7096 261.1578 L 385.1232 267.17 L 382.0006 269.5344 L 379.3034 272.3807 L 377.8544 274.523 L 375.4891 279.3351 L 374.7928 280.4121 L 373.1371 282.3897 L 371.2061 284.0857 L 370.1498 284.7978 L 364.2736 287.8267 L 362.1358 289.3937 L 360.0903 291.1729 L 357.1893 294.1046 L 355.3922 296.1972 L 353.7602 298.4109 L 350.7016 303.3321 Z" fill="#000000" fill-opacity="1" stroke="#000000" stroke-width="0" paint-order="fill" stroke-opacity="1" stroke-dasharray="" stroke-linecap="butt" stroke-linejoin="miter" stroke-miterlimit="10" transform="matrix(1.100000023841858,0,0,1.100000023841858,-39.999961853027344,-26.64995765686035)" clip-path="none" style="filter: url(#f1)"/>
<path data-code="212" d="M 337.1936 295.0051 L 332.3067 293.1644 L 324.4161 290.7187 L 317.5237 287.2058 L 309.1527 284.1849 L 306.7635 281.2175 L 303.6498 276.8517 L 302.3049 274.5389 L 301.2576 271.8194 L 300.6388 268.7449 L 300.2535 263.9844 L 300.188 257.5438 L 300.4364 251.246 L 301.0032 246.8405 L 301.7634 244.0497 L 305.3249 237.018 L 307.4969 231.9401 L 310.5124 226.1402 L 311.4362 223.4565 L 311.9688 220.4553 L 312.2187 217.3689 L 312.366 204.7714 L 312.8391 198.555 L 313.9102 194.3419 L 317.3467 186.1955 L 320.7579 184.7832 L 322.924 183.3887 L 325.7937 180.7228 L 327.3959 178.652 L 328.6336 176.3551 L 329.0948 175.03 L 330.4099 168.2463 L 331.2296 165.6042 L 332.5372 163.3271 L 334.2555 161.3574 L 336.2921 159.7507 L 337.4718 159.0843 L 341.0749 157.4201 L 346.7043 154.3357 L 349.2735 153.3974 L 352.0598 152.8599 L 354.9117 152.5842 L 362.1209 152.485 L 366.3905 152.842 L 369.159 153.453 L 370.4979 153.9508 L 371.6762 154.5519 L 373.8511 156.0494 L 376.8175 158.7431 L 380.4043 162.736 L 384.415 167.8298 L 386.4933 169.5019 L 388.4466 171.3129 L 390.2764 173.2528 L 391.9337 175.3196 L 393.3172 177.5333 L 395.0533 181.6035 L 396.1601 183.7656 L 397.6627 185.9832 L 400.1917 189.1787 L 379.3153 210.5951 L 376.5631 213.5566 L 374.0044 216.6152 L 371.8904 219.8861 L 369.7006 224.9798 L 368.4435 227.0824 L 362.225 234.9293 L 360.8296 236.9684 L 359.754 239.0392 L 358.012 243.1135 L 356.7802 245.1664 L 349.8447 254.0369 L 348.479 256.2267 L 346.7325 259.9498 L 345.3728 262.4194 L 338.2454 271.746 L 336.8634 274.3603 L 336.3948 275.7369 L 335.8309 278.5853 L 335.6063 281.4952 L 335.6167 284.4229 L 335.8294 287.3288 L 337.1936 295.0051 Z" fill="#000000" fill-opacity="1" stroke="#000000" stroke-width="0" paint-order="fill" stroke-opacity="1" stroke-dasharray="" stroke-linecap="butt" stroke-linejoin="miter" stroke-miterlimit="10" transform="matrix(1.100000023841858,0,0,1.100000023841858,-39.999961853027344,-26.64995765686035)" clip-path="none" style="filter: url(#f1)"/>
<path data-code="213" d="M 651.9847 207.59 L 631.199 207.6595 L 623.3338 207.2766 L 620.2945 206.8244 L 617.3995 206.025 L 610.519 202.8732 L 607.8725 202.2543 L 605.1441 202.0579 L 602.4142 202.2463 L 599.7647 202.8553 L 592.8679 205.9893 L 589.8777 206.8026 L 583.515 207.5028 L 572.5747 207.8578 L 570.5753 206.509 L 568.6026 204.8408 L 566.0676 201.8615 L 564.757 199.5348 L 562.5523 194.6374 L 558.2336 186.9016 L 556.8144 184.8724 L 555.9069 184.0314 L 553.8673 182.6568 L 548.5712 179.4137 L 546.2163 178.297 L 541.8842 177.2953 L 537.3617 176.96 L 529.6958 176.9561 L 523.6276 177.3191 L 520.6805 177.7594 L 517.8599 178.533 L 512.0908 181.2901 L 509.584 182.1728 L 505.4543 182.873 L 499.7595 183.2241 L 499.7699 177.1703 L 499.3906 168.4447 L 508.7688 163.8527 L 510.5183 162.2818 L 512.5609 159.356 L 514.1006 157.5014 L 515.9453 155.8233 L 518.0786 154.4586 L 520.5987 153.5164 L 525.874 152.3124 L 528.4744 151.519 L 535.334 147.9447 L 540.3326 145.8084 L 544.8461 143.3488 L 547.2041 142.2737 L 551.258 141.3176 L 559.6811 140.4964 L 562.4541 140.0204 L 564.9816 139.2488 L 573.2962 135.7537 L 577.3055 135.7914 L 577.8187 135.8668 L 577.8187 136.3508 L 577.9258 136.3508 L 577.9258 136.4956 L 578.143 136.4956 L 578.143 136.6404 L 578.3602 136.6404 L 578.3602 136.7832 L 578.5759 136.7832 L 578.5759 136.928 L 579.0103 136.928 L 579.0103 137.0728 L 579.5965 137.0728 L 579.6604 137.0728 L 579.6604 137.1264 L 579.6604 137.2176 L 579.7675 137.2176 L 579.8761 137.2176 L 579.8761 137.3089 L 579.8761 137.3624 L 579.9386 137.3624 L 579.9847 137.3624 L 579.9847 137.5052 L 580.0933 137.5052 L 580.0933 137.65 L 580.2808 137.65 L 580.4176 137.65 L 580.4176 137.7671 L 580.4176 137.7948 L 580.4519 137.7948 L 580.5262 137.7948 L 580.5262 137.8583 L 580.5262 137.9396 L 580.6229 137.9396 L 580.852 137.9396 L 580.852 137.7948 L 580.9592 137.7948 L 580.9592 137.9396 L 582.0437 137.9396 L 582.0437 138.0844 L 582.8009 138.0844 L 582.8009 138.2292 L 583.6682 138.2292 L 583.6682 138.372 L 584.4269 138.372 L 584.4269 138.5168 L 585.7926 138.5168 L 588.5433 138.5168 L 588.5433 138.6616 L 589.3005 138.6616 L 589.3005 138.5168 L 589.4091 138.5168 L 589.4091 138.372 L 589.5177 138.372 L 589.5177 138.5168 L 589.842 138.5168 L 589.842 138.6616 L 590.1678 138.6616 L 590.1678 138.8064 L 590.7093 138.8064 L 590.7093 138.5168 L 590.8179 138.5168 L 590.8179 138.372 L 591.7923 138.372 L 591.7923 138.5168 L 592.2252 138.5168 L 592.2252 138.372 L 594.3928 138.372 L 594.3928 138.2292 L 594.8257 138.2292 L 594.8257 138.0844 L 595.1515 138.0844 L 595.1515 138.2292 L 596.0173 138.2292 L 596.0173 138.0844 L 596.5588 138.0844 L 596.5588 137.9396 L 596.6674 137.9396 L 596.6674 137.7948 L 596.8846 137.7948 L 596.8846 137.65 L 597.7504 137.65 L 597.7504 137.5052 L 598.8334 137.5052 L 598.8334 137.65 L 598.942 137.65 L 598.942 137.7948 L 599.0506 137.7948 L 599.0506 137.9396 L 599.1592 137.9396 L 599.1592 138.0844 L 599.3749 138.0844 L 599.3749 138.2292 L 599.4835 138.2292 L 599.4835 138.372 L 599.8093 138.372 L 599.8093 138.5168 L 600.025 138.5168 L 600.025 138.8064 L 600.1336 138.8064 L 600.1336 138.9512 L 600.025 138.9512 L 600.025 139.2507 L 600.025 139.5284 L 600.1336 139.5284 L 600.1336 139.818 L 600.2422 139.818 L 600.2422 140.1057 L 600.3508 140.1057 L 600.3508 140.6829 L 600.4594 140.6829 L 600.4594 140.8277 L 600.5666 140.8277 L 600.5666 141.0082 L 600.5666 141.5497 L 600.6752 141.5497 L 600.6752 141.6945 L 600.8924 141.6945 L 600.8924 141.5497 L 601.001 141.5497 L 601.001 141.0221 L 601.001 140.9725 L 600.8924 140.9725 L 600.8924 140.6829 L 600.7838 140.6829 L 600.7838 140.3953 L 600.6752 140.3953 L 600.6752 140.1057 L 600.5666 140.1057 L 600.5666 139.818 L 600.4594 139.818 L 600.4594 139.3836 L 600.3508 139.3836 L 600.3508 139.2944 L 600.3508 138.9512 L 600.4594 138.9512 L 600.4594 138.8064 L 600.3508 138.8064 L 600.3508 138.5168 L 600.4594 138.5168 L 600.4594 138.372 L 600.5666 138.372 L 600.5666 138.0844 L 600.7838 138.0844 L 600.7838 138.2292 L 600.8924 138.2292 L 600.8924 138.372 L 601.001 138.372 L 601.001 138.5168 L 601.4339 138.5168 L 601.4339 138.6616 L 602.7341 138.6616 L 602.7341 138.8064 L 602.9498 138.8064 L 602.9498 138.9512 L 603.2756 138.9512 L 603.2756 139.094 L 603.7085 139.094 L 603.7085 139.2388 L 604.5758 139.2388 L 604.5758 139.094 L 605.7674 139.094 L 605.7674 138.9512 L 605.8745 138.9512 L 605.8745 139.094 L 605.9831 139.094 L 605.9831 139.2388 L 608.1507 139.2388 L 608.1507 139.3836 L 609.1251 139.3836 L 609.1251 139.5284 L 610.2081 139.5284 L 610.2081 139.6732 L 613.0242 139.6732 L 613.0242 139.818 L 615.4075 139.818 L 615.4075 139.9609 L 616.0576 139.9609 L 616.0576 140.1057 L 619.4167 140.1057 L 619.4167 140.2505 L 619.445 140.2505 L 620.4998 140.2505 L 620.4998 140.3953 L 620.9327 140.3953 L 620.9327 140.2505 L 621.4742 140.2505 L 621.4742 140.3953 L 622.2329 140.3953 L 622.2329 140.2505 L 622.4501 140.2505 L 622.4501 140.1057 L 622.6658 140.1057 L 622.6658 140.2505 L 622.9916 140.2505 L 622.9916 140.3953 L 623.4245 140.3953 L 623.4245 140.5401 L 623.6179 140.5401 L 622.7684 150.5887 L 622.4813 165.5149 L 622.6212 168.6708 L 623.0124 171.6778 L 623.8753 174.4409 L 624.5879 175.6668 L 626.3106 177.4123 L 629.3975 179.7033 L 636.623 185.6539 L 639.3008 187.4054 L 640.7513 188.1056 L 643.8144 188.9923 L 648.5987 189.51 L 661.1665 189.381 L 655.9002 197.4362 L 653.8874 200.9015 L 652.8996 203.4603 L 651.9847 207.59 Z" fill="#000000" fill-opacity="1" stroke="#000000" stroke-width="0" paint-order="fill" stroke-opacity="1" stroke-dasharray="" stroke-linecap="butt" stroke-linejoin="miter" stroke-miterlimit="10" transform="matrix(1.100000023841858,0,0,1.100000023841858,-39.999961853027344,-26.64995765686035)" clip-path="none" style="filter: url(#f1)"/>
<path data-code="214" d="M 686.7811 385.824 L 680.1193 390.6897 L 675.7575 394.633 L 655.9418 415.0377 L 641.4832 430.206 L 638.2937 433.2289 L 636.0235 435.0002 L 633.5302 436.3827 L 632.1928 436.8469 L 629.4317 437.3864 L 626.6066 437.6125 L 618.0168 437.8109 L 613.8008 438.2334 L 611.1185 438.9157 L 605.3687 441.7106 L 602.8739 442.5932 L 600.153 443.0911 L 591.776 443.8449 L 589.0387 444.4042 L 587.7102 444.8703 L 586.4695 445.4773 L 584.168 447.0205 L 580.9889 449.8094 L 565.0114 466.624 L 561.8918 469.5358 L 559.69 471.2516 L 557.3053 472.6202 L 556.0021 473.1201 L 549.3106 474.6335 L 546.725 475.417 L 541.0734 478.317 L 539.8773 478.8129 L 537.1847 479.4793 L 534.4042 479.6995 L 531.6149 479.527 L 528.8939 478.8843 L 527.6815 478.3824 L 522.1102 475.2623 L 517.2916 472.9257 L 515.2104 471.3468 L 513.4088 469.4327 L 511.942 467.2508 L 509.7923 462.2165 L 506.1178 455.2503 L 504.102 450.0534 L 500.9377 444.2753 L 498.2808 437.9378 L 494.5423 430.9736 L 492.6098 425.6954 L 490.6059 421.0142 L 488.7523 416.087 L 486.3899 407.7601 L 483.6749 401.8055 L 482.7883 399.0721 L 482.2393 395.9917 L 481.4196 388.1309 L 480.8707 385.0603 L 479.9914 382.3389 L 477.812 377.5724 L 476.9075 374.9879 L 474.624 363.751 L 478.7612 361.1347 L 480.594 359.6986 L 483.2003 357.3541 L 488.6705 351.8636 L 508.5159 331.2149 L 513.3627 326.5753 L 515.4023 324.9389 L 517.5535 323.5742 L 521.5181 321.8525 L 523.5949 320.7377 L 525.6895 319.2124 L 527.6919 317.4807 L 531.5583 313.714 L 550.6212 294.1125 L 553.3675 291.1352 L 555.0649 289.0783 L 556.557 286.9043 L 557.1818 285.7538 L 559.1143 280.4836 L 560.9977 275.8401 L 562.5582 271.0458 L 566.7594 269.9945 L 574.043 267.4437 L 576.4649 266.3666 L 582.1567 263.3536 L 584.7795 262.5602 L 587.4751 262.0068 L 596.4442 270.9169 L 600.6454 275.4771 L 603.2369 279.2359 L 604.2991 282.0208 L 604.5758 283.4331 L 604.7633 286.2934 L 604.2545 290.5203 L 603.3753 293.087 L 600.571 298.8988 L 599.5282 303.2448 L 598.9941 309.4156 L 598.7323 322.031 L 598.9197 328.2137 L 599.671 332.6628 L 600.1857 334.0751 L 601.5425 336.3919 L 602.3785 337.4174 L 604.2932 339.2026 L 606.5425 340.6129 L 616.9963 345.8019 L 619.7306 346.5041 L 622.5468 346.8333 L 628.2401 346.7718 L 631.0384 346.387 L 633.734 345.6472 L 640.6442 342.2553 L 643.2387 341.4321 L 648.5972 340.2281 L 651.2111 339.4168 L 658.1466 336.0051 L 671.543 332.1927 L 674.4781 342.5826 L 676.0446 351.0147 L 676.9432 353.5873 L 679.6983 359.5221 L 680.46 362.2277 L 681.006 365.0086 L 681.6189 367.6983 L 682.5308 370.2948 L 683.779 372.3874 L 686.6814 375.6484 L 686.7811 385.824 Z" fill="#000000" fill-opacity="1" stroke="#000000" stroke-width="0" paint-order="fill" stroke-opacity="1" stroke-dasharray="" stroke-linecap="butt" stroke-linejoin="miter" stroke-miterlimit="10" transform="matrix(1.100000023841858,0,0,1.100000023841858,-39.999961853027344,-26.64995765686035)" clip-path="none" style="filter: url(#f1)"/>
<path data-code="215" d="M 499.3906 168.4447 L 495.5182 159.7646 L 494.4456 155.5873 L 494.0424 150.9537 L 493.8416 135.2162 L 493.5054 132.1516 L 492.8047 129.1961 L 491.7752 126.7365 L 489.4113 122.1069 L 487.2408 117.1163 L 485.9064 114.9344 L 482.8091 111.0566 L 474.7653 102.5531 L 474.6894 102.4717 L 474.6894 102.4083 L 474.798 102.4083 L 474.798 102.2635 L 474.9066 102.2635 L 474.9066 102.1187 L 475.0152 102.1187 L 475.0152 101.6863 L 474.9066 101.6863 L 474.9066 101.5415 L 475.0152 101.5415 L 475.0152 100.8194 L 474.9066 100.8194 L 474.9066 100.5298 L 474.798 100.5298 L 474.798 100.385 L 474.9066 100.385 L 474.9066 100.0974 L 475.0152 100.0974 L 475.0152 99.9526 L 475.2309 99.9526 L 475.2309 99.8078 L 475.3395 99.8078 L 475.3395 99.663 L 475.5567 99.663 L 475.5567 99.5182 L 475.6653 99.5182 L 475.6653 97.9294 L 475.5567 97.9294 L 475.5567 97.497 L 475.4481 97.497 L 475.4481 97.2074 L 475.5567 97.2074 L 475.5567 96.9198 L 475.7724 96.9198 L 475.7724 96.3406 L 475.881 96.3406 L 475.881 95.6186 L 475.9896 95.6166 L 475.9896 95.4758 L 476.0982 95.4758 L 476.0982 95.331 L 476.2068 95.331 L 476.2068 95.1862 L 476.3139 95.1862 L 476.3139 95.0414 L 476.5311 95.0414 L 476.5311 94.8966 L 476.6397 94.8966 L 476.6397 94.4641 L 476.5311 94.4641 L 476.5311 94.3194 L 476.4225 94.3194 L 476.4225 94.1746 L 476.5311 94.1746 L 476.5311 94.0298 L 476.6397 94.0298 L 476.6397 93.8869 L 476.7483 93.8869 L 476.7483 93.7421 L 476.8569 93.7421 L 476.8569 93.5973 L 477.0727 93.5973 L 477.0727 93.4525 L 477.2899 93.4525 L 477.2899 93.3077 L 477.3985 93.3077 L 477.3985 93.1629 L 477.5056 93.1629 L 477.5056 93.0201 L 477.6142 93.0201 L 477.6142 92.8753 L 477.8314 92.8753 L 477.8314 92.7305 L 477.94 92.7305 L 477.94 92.5857 L 478.0486 92.5857 L 478.0486 92.2981 L 478.1557 92.2981 L 478.1557 91.8637 L 478.2643 91.8637 L 478.2643 91.4313 L 478.4815 91.4313 L 478.4815 91.2865 L 478.5901 91.2865 L 478.5901 91.1417 L 478.6972 91.1417 L 478.6972 90.8521 L 478.8058 90.8521 L 478.8058 90.7093 L 478.9144 90.7093 L 478.9144 90.5645 L 479.023 90.5645 L 479.023 90.4197 L 479.1316 90.4197 L 479.1316 90.2749 L 479.2402 90.2749 L 479.2402 90.1301 L 479.3473 90.1301 L 479.3473 89.9853 L 479.4559 89.9853 L 479.4559 89.8425 L 479.5645 89.8425 L 479.5645 89.5529 L 479.6731 89.5529 L 479.6731 89.2633 L 479.9974 89.2633 L 479.9974 89.1205 L 480.106 89.1205 L 480.106 88.9757 L 480.3232 88.9757 L 480.3232 88.8309 L 480.5389 88.8309 L 480.5389 88.6861 L 480.7561 88.6861 L 480.7561 88.5413 L 480.9733 88.5413 L 480.9733 88.3965 L 481.0804 88.3965 L 481.0804 87.6745 L 481.189 87.6745 L 481.189 87.5316 L 481.2976 87.5316 L 481.2976 87.3868 L 481.4062 87.3849 L 481.4062 87.242 L 481.6219 87.242 L 481.6234 87.0972 L 481.8391 87.0972 L 481.8391 86.9524 L 481.9477 86.9524 L 481.9477 86.8076 L 482.0563 86.8076 L 482.0563 86.6648 L 482.1649 86.6648 L 482.1649 86.52 L 482.3806 86.52 L 482.3806 86.2304 L 482.5978 86.2304 L 482.5978 86.0856 L 482.9221 86.0856 L 482.9221 85.6532 L 483.1393 85.6532 L 483.1393 85.5084 L 483.2479 85.5084 L 483.2479 85.3636 L 483.4637 85.3636 L 483.4637 85.2188 L 483.5723 85.2188 L 483.5723 84.7864 L 483.6809 84.7864 L 483.6809 84.4968 L 483.7895 84.4968 L 483.7895 84.354 L 483.8981 84.354 L 483.8981 84.2092 L 484.0052 84.2092 L 484.0052 83.9196 L 484.1138 83.9196 L 484.1138 83.63 L 484.2224 83.63 L 484.2224 83.3424 L 484.4396 83.3424 L 484.4396 83.1976 L 484.6553 83.1976 L 484.6553 83.0528 L 484.7639 83.0528 L 484.7639 82.908 L 484.8725 82.908 L 484.8725 82.6204 L 484.9811 82.6204 L 484.9811 82.3308 L 485.0897 82.3308 L 485.0897 82.0412 L 484.9811 82.0412 L 484.9811 81.8984 L 485.0897 81.8984 L 485.0897 81.3192 L 485.1968 81.3192 L 485.1968 81.1763 L 485.3054 81.1763 L 485.3054 81.0315 L 485.414 81.0315 L 485.414 80.8867 L 485.5226 80.8867 L 485.5226 80.7419 L 485.7398 80.7419 L 485.7398 80.5971 L 485.8469 80.5971 L 485.8469 80.4523 L 486.1727 80.4523 L 486.1727 80.3095 L 486.3884 80.3095 L 486.3884 79.5875 L 486.497 79.5875 L 486.497 79.1531 L 486.6056 79.1531 L 486.6056 78.8635 L 486.7142 78.8635 L 486.7142 78.7207 L 486.8228 78.7207 L 486.8228 78.5759 L 486.9314 78.5759 L 486.9314 78.4311 L 487.0385 78.4311 L 487.0385 78.2863 L 487.1471 78.2863 L 487.1471 78.1415 L 487.2557 78.1415 L 487.2557 77.9987 L 487.3643 77.9987 L 487.3643 77.8539 L 487.4729 77.8539 L 487.4729 77.7091 L 487.7972 77.7091 L 487.7972 77.5643 L 488.0144 77.5643 L 488.0144 77.2747 L 488.2301 77.2747 L 488.2301 77.1319 L 488.5559 77.1319 L 488.5559 76.9871 L 488.6645 76.9871 L 488.6645 76.4099 L 488.7716 76.4099 L 488.7716 76.2651 L 488.8802 76.2651 L 488.8802 76.1203 L 488.9888 76.1203 L 488.9888 75.9755 L 489.0974 75.9755 L 489.0974 75.6859 L 489.206 75.6859 L 489.206 75.5431 L 489.3146 75.5431 L 489.3146 75.3983 L 489.4217 75.3983 L 489.4217 75.2535 L 489.5303 75.2535 L 489.5303 74.821 L 489.6389 74.821 L 489.6389 74.5314 L 489.7475 74.5314 L 489.7475 74.2418 L 489.8561 74.2399 L 489.8561 74.097 L 489.9633 74.097 L 489.9633 73.9542 L 490.3977 73.9542 L 490.3977 73.8094 L 490.6134 73.8094 L 490.6134 73.6646 L 490.722 73.6646 L 490.722 73.5198 L 490.8306 73.5198 L 490.8306 73.375 L 490.9615 73.375 L 491.1549 73.375 L 491.1549 73.2322 L 491.2635 73.2322 L 491.2635 72.9426 L 491.1549 72.9426 L 491.1549 72.7978 L 491.0478 72.7978 L 491.0478 72.653 L 490.9392 72.653 L 490.9392 72.5082 L 490.8306 72.5082 L 490.8306 70.0546 L 490.9392 70.0546 L 490.9392 69.9098 L 491.0478 69.9098 L 491.0478 69.765 L 491.1549 69.765 L 491.1549 69.6202 L 491.2635 69.6202 L 491.2635 69.4754 L 491.3721 69.4754 L 491.3721 69.3306 L 491.4807 69.3306 L 491.4807 69.1878 L 491.5893 69.1878 L 491.5893 69.043 L 491.6979 69.043 L 491.6979 68.8982 L 492.0222 68.8982 L 492.0222 68.7534 L 492.1308 68.7534 L 492.1308 68.6086 L 492.3465 68.6086 L 492.3465 68.4657 L 492.9966 68.4657 L 492.9966 68.3209 L 493.1052 68.3209 L 493.1052 67.8865 L 493.2138 67.8865 L 493.2138 67.5989 L 493.3224 67.5989 L 493.3224 67.4541 L 493.6467 67.4541 L 493.6467 67.1645 L 493.7553 67.1645 L 493.7553 67.0197 L 493.8639 67.0197 L 493.8639 66.8769 L 493.9725 66.8769 L 493.9725 66.7321 L 494.4054 66.7321 L 494.4054 66.8769 L 494.514 66.8769 L 494.514 66.7321 L 494.8383 66.7321 L 494.8383 66.5873 L 494.9469 66.5873 L 494.9469 66.4425 L 495.0555 66.4425 L 495.0555 66.2977 L 495.1641 66.2977 L 495.1641 66.1549 L 495.4884 66.1529 L 495.4884 66.0101 L 496.3557 66.0081 L 496.3557 65.8653 L 496.5715 65.8653 L 496.5715 65.7205 L 496.7887 65.7205 L 496.7887 65.5757 L 496.8973 65.5757 L 496.8973 65.4309 L 497.0059 65.4309 L 497.0059 65.1433 L 497.2216 65.1433 L 497.2216 64.9985 L 497.4388 64.9985 L 497.4388 64.8537 L 497.656 64.8537 L 497.656 64.7089 L 497.8717 64.7089 L 497.8717 64.5661 L 498.0889 64.5661 L 498.0889 64.4213 L 498.1975 64.4213 L 498.1975 63.4097 L 498.3046 63.4097 L 498.3046 63.2649 L 498.6304 63.2649 L 498.6304 63.4097 L 498.739 63.4097 L 498.739 63.5545 L 498.9547 63.5545 L 498.9547 63.6993 L 499.3891 63.6993 L 499.3891 63.5545 L 499.4962 63.5545 L 499.4962 63.4097 L 499.7134 63.4097 L 499.7134 63.2649 L 499.822 63.2649 L 499.822 63.1201 L 499.9306 63.1201 L 499.9306 62.9773 L 500.0392 62.9773 L 500.0392 62.8325 L 500.1463 62.8325 L 500.1463 62.6877 L 500.2549 62.6877 L 500.2549 62.5429 L 500.3635 62.5429 L 500.3635 62.2533 L 500.4721 62.2513 L 500.4721 61.9656 L 500.5807 61.9656 L 500.5807 61.8208 L 500.6878 61.8208 L 500.6878 61.6761 L 501.0136 61.6761 L 501.0136 61.5313 L 501.3379 61.5313 L 501.3379 61.3884 L 501.4465 61.3884 L 501.4465 61.2436 L 501.5551 61.2436 L 501.5551 61.0988 L 501.6637 61.0988 L 501.6637 60.954 L 501.7723 60.954 L 501.7723 60.6644 L 501.8794 60.6644 L 501.8794 59.7996 L 501.988 59.7996 L 501.988 59.51 L 502.0966 59.51 L 502.0966 59.3652 L 502.3138 59.3652 L 502.3138 59.2204 L 502.4209 59.2204 L 502.4224 59.3652 L 502.5295 59.3652 L 502.5295 59.51 L 502.6381 59.51 L 502.6381 60.0872 L 502.5295 60.0872 L 502.5295 60.954 L 502.4224 60.954 L 502.4224 61.5313 L 502.5295 61.5313 L 502.5295 62.1878 L 502.5295 62.3981 L 502.6381 62.3981 L 502.6381 62.6877 L 502.8553 62.6877 L 502.8553 62.9773 L 502.9639 62.9773 L 502.9639 63.1201 L 503.1797 63.1201 L 503.1797 63.2649 L 503.5055 63.2649 L 503.5055 63.1201 L 503.6126 63.1201 L 503.6141 63.2649 L 503.8298 63.2649 L 503.8298 63.4097 L 503.9384 63.4097 L 503.9384 63.5545 L 504.047 63.5545 L 504.047 63.6993 L 504.1139 63.6993 L 504.1556 63.6993 L 504.1556 63.8421 L 504.4799 63.8421 L 504.4799 63.9869 L 504.5885 63.9869 L 504.5885 64.096 L 504.5885 64.1317 L 504.8042 64.1317 L 504.8042 64.2765 L 504.9128 64.2765 L 504.9128 64.4213 L 505.13 64.4213 L 505.13 64.5661 L 505.3472 64.5661 L 505.3472 64.7089 L 505.5629 64.7089 L 505.5629 64.8537 L 505.7801 64.8537 L 505.7801 64.7089 L 505.9958 64.7089 L 505.9973 64.5661 L 506.3216 64.5661 L 506.3216 64.8537 L 506.4302 64.8537 L 506.4302 64.9985 L 506.5388 64.9985 L 506.5388 65.2881 L 507.1874 65.2881 L 507.1874 65.4309 L 507.296 65.4309 L 507.296 65.7205 L 507.4046 65.7205 L 507.4046 66.5675 L 507.4046 67.0197 L 507.5132 67.0197 L 507.5132 67.3093 L 507.6218 67.3093 L 507.6218 68.3209 L 507.7304 68.3209 L 507.7304 68.6086 L 507.8375 68.6086 L 507.8375 68.7534 L 508.2719 68.7534 L 508.2719 68.8982 L 508.379 68.8982 L 508.379 69.043 L 508.922 69.043 L 508.922 69.1878 L 509.2463 69.1878 L 509.2463 69.4754 L 509.5454 69.4754 L 509.5707 69.4754 L 509.5707 69.765 L 509.6793 69.765 L 509.6793 69.9098 L 509.5707 69.9098 L 509.5707 70.0546 L 509.6793 70.0546 L 509.6793 70.1974 L 509.7879 70.1974 L 509.7879 70.3422 L 510.0051 70.3422 L 510.0051 70.487 L 510.2208 70.487 L 510.2208 70.7746 L 510.5466 70.7766 L 510.5466 70.9194 L 510.8709 70.9194 L 510.8709 71.0642 L 512.3362 71.0642 L 512.3883 71.0642 L 512.3883 71.209 L 512.6263 71.209 L 514.3371 71.209 L 514.3371 71.3538 L 514.5543 71.3538 L 514.5543 71.209 L 514.9872 71.209 L 514.9872 71.3538 L 515.2044 71.3538 L 515.2044 71.4986 L 515.313 71.4986 L 515.313 71.6434 L 515.6373 71.6434 L 515.6373 71.4986 L 515.9631 71.4986 L 515.9631 71.3538 L 516.1789 71.3538 L 516.1789 71.209 L 516.2875 71.209 L 516.2875 71.0642 L 516.3961 71.0642 L 516.3961 70.9194 L 516.6133 70.9194 L 516.6133 70.7766 L 516.829 70.7746 L 516.829 70.6318 L 516.9376 70.6318 L 516.9376 70.487 L 517.1548 70.487 L 517.1548 70.3422 L 518.3464 70.3422 L 518.3464 70.1974 L 518.455 70.1974 L 518.455 70.3422 L 519.1036 70.3422 L 519.1036 70.1974 L 519.3208 70.1974 L 519.3208 70.0546 L 519.4294 70.0546 L 519.4294 69.9098 L 519.538 69.9098 L 519.538 69.765 L 519.7537 69.765 L 519.7537 69.6202 L 519.9709 69.6202 L 519.9709 69.4754 L 520.0795 69.4754 L 520.0795 69.1878 L 520.1881 69.1878 L 520.1881 69.043 L 520.5124 69.043 L 520.5124 69.1878 L 520.621 69.1878 L 520.621 69.4754 L 520.5124 69.4754 L 520.5124 70.1974 L 520.621 70.1974 L 520.621 70.3422 L 520.7296 70.3422 L 520.7296 70.487 L 521.0539 70.487 L 521.0539 70.6477 L 521.0539 70.7746 L 521.1625 70.7766 L 521.1625 70.9194 L 521.704 70.9194 L 521.704 70.7766 L 521.9212 70.7746 L 521.9212 70.6318 L 522.1369 70.6318 L 522.1369 70.487 L 522.3541 70.487 L 522.3541 70.3422 L 522.7871 70.3422 L 522.7871 70.1974 L 523.1129 70.1974 L 523.1129 70.0546 L 523.3286 70.0546 L 523.3286 69.9098 L 523.5458 69.9098 L 523.5458 69.765 L 523.763 69.765 L 523.763 69.6202 L 523.8954 69.6202 L 524.1959 69.6202 L 524.1959 69.4754 L 524.3045 69.4754 L 524.3045 69.3306 L 524.4131 69.3306 L 524.4131 69.1878 L 524.7374 69.1878 L 524.7374 69.043 L 525.2789 69.043 L 525.2789 69.1878 L 525.4961 69.1878 L 525.4961 69.3306 L 526.5791 69.3306 L 526.5791 69.1878 L 526.6877 69.1878 L 526.6877 69.043 L 526.7963 69.043 L 526.7963 68.8982 L 527.1206 68.8982 L 527.1206 68.7534 L 527.5535 68.7534 L 527.5535 68.8982 L 527.9879 68.8982 L 527.9879 68.7534 L 528.2036 68.7534 L 528.2036 68.6086 L 528.3122 68.6086 L 528.3122 68.4657 L 528.5294 68.4657 L 528.5294 68.3209 L 528.7451 68.3209 L 528.7451 68.1761 L 529.0709 68.1761 L 529.0709 68.0313 L 529.7211 68.0313 L 529.7211 68.1761 L 530.0454 68.1761 L 530.0454 68.3209 L 531.3456 68.3209 L 531.3456 68.1761 L 531.7785 68.1761 L 531.7785 68.3209 L 531.8871 68.3209 L 531.8871 68.4657 L 531.9957 68.4657 L 531.9957 68.6086 L 532.7529 68.6086 L 532.7529 68.7534 L 532.9701 68.7534 L 532.9701 68.8982 L 533.1873 68.8982 L 533.1873 69.043 L 533.403 69.043 L 533.403 69.1878 L 534.5946 69.1878 L 534.5946 69.3306 L 534.7032 69.3306 L 534.7032 69.4754 L 534.8118 69.4754 L 534.8118 69.6202 L 535.029 69.6202 L 535.029 69.765 L 534.2703 69.765 L 534.2703 69.9098 L 534.431 69.9098 L 534.4875 69.9098 L 534.4875 69.9653 L 534.4875 70.0546 L 534.5768 70.0546 L 534.7032 70.0546 L 534.7032 70.1795 L 534.7032 70.1974 L 534.8118 70.1974 L 534.8118 70.2866 L 534.8118 70.3422 L 534.8699 70.3422 L 534.9204 70.3422 L 534.9204 70.487 L 535.0156 70.487 L 535.1361 70.487 L 535.1361 70.608 L 535.1361 70.6318 L 535.8949 70.6318 L 535.8949 70.9194 L 536.0035 70.9194 L 536.0035 71.0642 L 536.1121 71.0642 L 536.1121 71.209 L 537.0865 71.209 L 537.0865 71.3538 L 537.7366 71.3538 L 537.7366 71.209 L 538.3867 71.209 L 538.3867 71.3538 L 538.6039 71.3538 L 538.6039 71.4986 L 538.9282 71.4986 L 538.9282 71.3538 L 539.0368 71.3538 L 539.0368 71.209 L 539.1454 71.209 L 539.1454 71.0642 L 539.254 71.0642 L 539.254 70.7766 L 539.3611 70.7746 L 539.3611 70.6318 L 539.5783 70.6318 L 539.5783 70.487 L 540.8785 70.487 L 540.8785 70.3422 L 541.5286 70.3422 L 541.5286 70.1974 L 541.6372 70.1974 L 541.6372 70.0546 L 541.8529 70.0546 L 541.8529 69.9098 L 542.1787 69.9098 L 542.1787 69.765 L 542.3945 69.765 L 542.3945 69.6202 L 542.6117 69.6202 L 542.6117 69.4754 L 542.7203 69.4754 L 542.7203 69.6202 L 543.0446 69.6202 L 543.0446 69.765 L 543.1532 69.765 L 543.1532 69.9098 L 543.2618 69.9098 L 543.2618 70.3422 L 543.3704 70.3422 L 543.3704 70.487 L 543.4775 70.487 L 543.4775 70.6318 L 543.5861 70.6318 L 543.5861 70.9194 L 543.4775 70.9194 L 543.4775 71.4867 L 543.4775 71.6434 L 543.5593 71.6434 L 543.5861 71.6434 L 543.5861 71.697 L 543.5861 71.7862 L 543.6337 71.7862 L 543.6947 71.7862 L 543.6947 71.9072 L 543.6947 72.0758 L 543.5861 72.0758 L 543.5861 72.5082 L 543.8033 72.5082 L 543.8033 72.653 L 543.6947 72.653 L 543.6947 72.9426 L 543.5861 72.9426 L 543.5861 73.375 L 543.4775 73.375 L 543.4775 73.6646 L 543.3704 73.6646 L 543.3704 73.8094 L 543.2618 73.8094 L 543.2618 74.2399 L 543.1532 74.2418 L 543.1532 74.5314 L 543.2618 74.5314 L 543.2618 75.1087 L 543.1532 75.1087 L 543.1532 75.5431 L 543.0446 75.5431 L 543.0446 75.6859 L 542.7203 75.6859 L 542.7203 75.8307 L 542.6117 75.8307 L 542.6117 76.1203 L 542.5031 76.1203 L 542.5031 76.5527 L 542.3945 76.5527 L 542.3945 76.6122 L 542.3945 76.8423 L 542.2859 76.8423 L 542.2859 76.9871 L 542.1787 76.9871 L 542.1787 77.4195 L 542.0701 77.4195 L 542.0701 77.8539 L 541.9615 77.8539 L 541.9615 78.1415 L 542.0701 78.1415 L 542.0701 78.4311 L 541.9615 78.4311 L 541.9615 78.7207 L 541.8529 78.7207 L 541.8529 79.2979 L 541.7443 79.2979 L 541.7443 79.4427 L 541.6372 79.4427 L 541.6372 79.5875 L 541.3114 79.5875 L 541.3114 79.7303 L 541.0942 79.7303 L 541.0942 79.8751 L 540.9871 79.8751 L 540.9871 80.0199 L 540.7699 80.0199 L 540.7699 80.1647 L 540.6613 80.1647 L 540.6613 80.7419 L 540.7699 80.7419 L 540.7699 80.8867 L 540.5527 80.8867 L 540.5527 81.0315 L 540.6613 81.0315 L 540.6613 81.1763 L 540.7699 81.1763 L 540.7699 81.6088 L 540.6613 81.6088 L 540.6613 81.8984 L 540.7699 81.8984 L 540.7699 82.0412 L 540.9871 82.0412 L 540.9871 82.6204 L 541.0942 82.6204 L 541.0942 83.0528 L 540.9871 83.0528 L 540.9871 83.4872 L 540.8785 83.4872 L 540.8785 84.7864 L 540.7699 84.7864 L 540.7699 84.9312 L 540.6613 84.9312 L 540.6613 85.076 L 540.5527 85.076 L 540.5527 85.2188 L 540.4456 85.2188 L 540.4456 85.5084 L 540.337 85.5084 L 540.337 85.6532 L 540.2284 85.6532 L 540.2284 85.798 L 540.1198 85.798 L 540.1198 85.9428 L 540.0112 85.9428 L 540.0112 86.2304 L 539.9026 86.2304 L 539.9026 86.3752 L 539.7955 86.3752 L 539.7955 86.9524 L 539.6869 86.9524 L 539.6869 88.2537 L 539.1454 88.2537 L 539.1454 88.1089 L 539.0368 88.1089 L 539.0368 87.8193 L 538.9282 87.8193 L 538.9282 87.9641 L 538.8196 87.9641 L 538.8196 88.2537 L 538.711 88.2537 L 538.711 88.5413 L 538.4953 88.5413 L 538.4953 88.9757 L 538.3867 88.9757 L 538.3867 89.1205 L 538.2781 89.1205 L 538.2781 89.2633 L 538.1695 89.2633 L 538.1695 89.4081 L 538.0624 89.4081 L 538.0624 89.9853 L 538.1695 89.9853 L 538.1695 90.1301 L 538.0624 90.1301 L 538.0624 90.2749 L 537.8452 90.2749 L 537.8452 90.7093 L 537.7366 90.7093 L 537.7366 91.1417 L 537.8452 91.1417 L 537.8452 92.0085 L 537.7366 92.0085 L 537.7366 92.1513 L 537.628 92.1533 L 537.628 92.2981 L 537.5194 92.2981 L 537.5194 93.0201 L 537.4123 93.0201 L 537.4123 93.1629 L 537.3037 93.1629 L 537.3037 93.7421 L 537.4123 93.7421 L 537.4123 93.8869 L 537.5194 93.8869 L 537.5194 94.0298 L 537.7366 94.0298 L 537.7366 94.1746 L 537.8452 94.1746 L 537.8452 94.3194 L 538.0624 94.3194 L 538.0624 94.4641 L 538.1695 94.4641 L 538.1695 94.7518 L 538.2781 94.7518 L 538.2781 95.0414 L 538.3867 95.0414 L 538.3867 95.1862 L 538.2781 95.1862 L 538.2781 95.4758 L 538.4953 95.4758 L 538.4953 96.6302 L 538.6039 96.6302 L 538.6039 97.0646 L 538.711 97.0646 L 538.711 97.3522 L 538.8196 97.3522 L 538.8196 97.497 L 538.9282 97.497 L 538.9282 97.7866 L 539.0368 97.7866 L 539.0368 98.0742 L 539.254 98.0742 L 539.254 98.219 L 539.3611 98.219 L 539.3611 98.3638 L 539.4697 98.3638 L 539.4697 98.5086 L 539.5783 98.5086 L 539.5783 98.6514 L 539.6869 98.6534 L 539.6869 98.7962 L 539.7955 98.7962 L 539.7955 99.0858 L 539.9026 99.0858 L 539.9026 99.2306 L 540.0112 99.2306 L 540.0112 99.3734 L 540.4456 99.3754 L 540.4456 99.5182 L 540.5527 99.5182 L 540.5527 99.663 L 540.6613 99.663 L 540.6613 99.8078 L 540.8785 99.8078 L 540.8785 99.9526 L 540.9871 99.9526 L 540.9871 100.0974 L 541.0942 100.0974 L 541.0942 100.385 L 540.9871 100.385 L 540.9871 100.9642 L 541.0942 100.9642 L 541.0942 101.2519 L 541.2222 101.2519 L 541.3114 101.2519 L 541.3114 101.3967 L 541.5286 101.3967 L 541.5286 101.6863 L 541.42 101.6863 L 541.42 101.9937 L 541.42 102.4083 L 541.5286 102.4083 L 541.5286 102.6959 L 541.6075 102.6959 L 541.6372 102.6959 L 541.6372 102.8109 L 541.6372 102.8407 L 541.7443 102.8407 L 541.7443 102.9855 L 541.8529 102.9855 L 541.8529 103.1303 L 541.9615 103.1303 L 541.9615 103.2751 L 542.1787 103.2751 L 542.1787 103.5627 L 542.2859 103.5627 L 542.2859 103.8523 L 542.6117 103.8523 L 542.6117 103.9971 L 542.936 103.9971 L 542.936 104.1419 L 543.0446 104.1419 L 543.0446 104.2847 L 543.1532 104.2847 L 543.1532 104.4295 L 543.2618 104.4295 L 543.2618 104.5743 L 543.3704 104.5743 L 543.3704 104.7191 L 543.4775 104.7191 L 543.4775 104.8639 L 543.8033 104.8639 L 543.8033 105.0067 L 544.1276 105.0067 L 544.1276 105.1515 L 544.2362 105.1515 L 544.2362 105.4411 L 544.3448 105.4411 L 544.3448 105.5859 L 544.562 105.5859 L 544.562 105.7307 L 544.7777 105.7307 L 544.7777 105.8735 L 544.8863 105.8735 L 544.8863 106.1631 L 545.1035 106.1631 L 545.1035 106.3079 L 545.3192 106.3079 L 545.3192 106.4527 L 545.5364 106.4527 L 545.5364 106.5955 L 545.645 106.5955 L 545.645 106.7403 L 545.7536 106.7403 L 545.7536 107.028 L 545.9693 107.0299 L 545.9693 107.1747 L 546.0779 107.1747 L 546.0779 107.3195 L 546.2951 107.3195 L 546.2951 107.4624 L 546.4037 107.4624 L 546.4037 107.6072 L 546.6194 107.6072 L 546.6194 107.8968 L 546.728 107.8968 L 546.728 108.0416 L 546.8366 108.0416 L 546.8366 108.1844 L 546.9452 108.1844 L 546.9452 108.3292 L 547.2695 108.3292 L 547.2695 108.474 L 547.4867 108.474 L 547.4867 108.6188 L 547.7024 108.6188 L 547.7024 108.7616 L 547.9196 108.7636 L 547.9196 108.9084 L 548.0282 108.9084 L 548.0282 109.0512 L 548.244 109.0512 L 548.244 109.3408 L 548.1368 109.3408 L 548.1368 109.4856 L 548.0282 109.4856 L 548.0282 109.7038 L 548.0282 109.7732 L 548.1264 109.7732 L 548.1368 110.2016 L 548.3525 110.2076 L 548.3525 110.3266 L 548.3525 110.3524 L 548.4076 110.3524 L 548.4611 110.3524 L 548.4611 110.4972 L 548.6783 110.4972 L 548.6783 110.64 L 548.7869 110.64 L 548.7869 110.7848 L 548.8941 110.7848 L 548.8941 110.9296 L 549.0027 110.9296 L 549.0027 111.0744 L 549.1113 111.0744 L 549.1113 111.362 L 549.2199 111.362 L 549.2199 111.5068 L 549.3285 111.5068 L 549.3285 111.7964 L 549.4356 111.7964 L 549.4356 112.6136 L 549.4356 112.6632 L 549.3285 112.6632 L 549.3285 113.2404 L 549.2199 113.2404 L 549.2199 113.8177 L 549.1113 113.8177 L 549.1113 115.1189 L 549.3285 115.1189 L 549.3285 115.2637 L 549.4356 115.2637 L 549.4356 115.4065 L 549.5442 115.4065 L 549.5442 115.5513 L 549.7614 115.5513 L 549.7614 115.6961 L 550.1913 115.6961 L 550.1943 115.8409 L 550.2612 115.8409 L 550.3029 115.8409 L 550.3029 115.9282 L 550.3029 116.1285 L 550.3996 116.1285 L 550.4115 116.1285 L 550.4115 116.2733 L 550.4695 116.2733 L 550.6272 116.2733 L 550.6272 116.4181 L 550.953 116.4181 L 550.953 116.5629 L 551.0616 116.5629 L 551.0616 116.7077 L 551.1687 116.7077 L 551.1702 116.8525 L 551.2773 116.8525 L 551.2773 116.9933 L 551.4945 116.9953 L 551.4945 117.1401 L 551.7117 117.1401 L 551.7117 117.2849 L 551.9274 117.2849 L 551.9274 117.4297 L 552.9033 117.4297 L 552.9033 117.5745 L 553.119 117.5745 L 553.119 117.7173 L 553.2276 117.7173 L 553.2276 117.8621 L 554.202 117.8621 L 554.202 118.0069 L 554.8522 118.0069 L 554.8522 118.1517 L 555.0693 118.1517 L 555.0693 118.2965 L 555.1779 118.2965 L 555.1779 118.4413 L 555.7195 118.4413 L 555.7195 118.5841 L 556.1524 118.5841 L 556.1524 118.7289 L 556.4782 118.7289 L 556.4782 118.8737 L 557.0197 118.8737 L 557.0197 119.0185 L 557.5612 119.0185 L 557.5612 119.1633 L 559.6186 119.1633 L 559.6186 119.3061 L 559.9444 119.3061 L 559.9444 119.4509 L 560.2687 119.4509 L 560.2687 119.5957 L 560.5945 119.5957 L 560.5945 119.7405 L 561.0274 119.7405 L 561.0274 119.8853 L 561.3518 119.8853 L 561.3518 120.0301 L 561.5689 120.0301 L 561.5689 120.173 L 561.8962 120.173 L 562.0019 120.173 L 562.0019 120.284 L 562.0019 120.3178 L 562.0331 120.3178 L 563.0849 120.3178 L 563.0849 120.4626 L 563.1935 120.4626 L 563.1935 120.6074 L 564.0608 120.6074 L 564.0608 120.7502 L 564.8195 120.7522 L 564.8195 120.895 L 565.1438 120.895 L 565.1438 121.0398 L 566.2268 121.0398 L 566.2268 121.1846 L 566.7683 121.1846 L 566.7683 121.0398 L 566.8769 121.0398 L 566.8769 120.895 L 566.9855 120.895 L 566.9855 120.7522 L 567.0941 120.7502 L 567.0941 120.6074 L 567.2027 120.6074 L 567.2027 120.3178 L 567.3098 120.3178 L 567.3098 120.173 L 567.4184 120.173 L 567.4184 120.0301 L 567.527 120.0301 L 567.527 119.8853 L 567.7442 119.8853 L 567.7442 119.7405 L 568.9359 119.7405 L 568.9359 119.5957 L 569.586 119.5957 L 569.586 119.7405 L 570.5604 119.7405 L 570.5604 120.173 L 570.4518 120.173 L 570.4518 120.3178 L 570.2346 120.3178 L 570.2346 120.173 L 567.96 120.173 L 567.96 120.3178 L 567.8514 120.3178 L 567.8514 120.4626 L 567.7442 120.4626 L 567.7442 120.6074 L 567.527 120.6074 L 567.527 120.7502 L 567.3098 120.7522 L 567.3098 121.1846 L 567.4184 121.1846 L 567.4184 121.3294 L 567.8514 121.3294 L 567.8514 121.1846 L 567.96 121.1846 L 567.96 121.0398 L 568.3943 121.0398 L 568.3943 121.1846 L 568.5015 121.1846 L 568.5015 121.3294 L 568.7187 121.3294 L 568.7187 121.4742 L 569.8017 121.4742 L 569.8017 121.619 L 570.3432 121.619 L 570.3432 121.4742 L 570.4518 121.4742 L 570.4518 121.619 L 570.669 121.619 L 570.669 121.7618 L 571.2105 121.7618 L 571.2105 121.9066 L 571.3191 121.9066 L 571.3191 122.0514 L 571.6434 122.0514 L 571.6434 121.9066 L 572.1849 121.9066 L 572.1849 122.0514 L 572.4021 122.0514 L 572.4021 122.1962 L 572.5107 122.1962 L 572.5107 122.341 L 572.6178 122.341 L 572.6178 122.4838 L 573.0522 122.4838 L 573.0522 122.6286 L 573.2679 122.6286 L 573.2679 122.4838 L 573.3765 122.4838 L 573.3765 122.341 L 573.4851 122.341 L 573.4851 122.1962 L 573.7023 122.1962 L 573.7023 122.341 L 573.8094 122.341 L 573.8094 122.4838 L 573.918 122.4838 L 573.918 122.7734 L 574.0266 122.7734 L 574.0266 123.063 L 574.1352 123.063 L 574.1352 123.3506 L 574.2438 123.3506 L 574.2438 123.4954 L 574.3524 123.4954 L 574.3524 123.6402 L 574.4596 123.6402 L 574.4596 123.785 L 575.1097 123.785 L 575.1097 123.9298 L 575.2183 123.9298 L 575.2183 124.0726 L 575.3269 124.0726 L 575.3269 124.3622 L 575.4355 124.3622 L 575.4355 124.507 L 575.5426 124.507 L 575.5441 124.6518 L 575.6512 124.6518 L 575.6512 124.9394 L 575.7598 124.9394 L 575.7598 125.0842 L 575.8684 125.0842 L 575.8684 126.191 L 575.8684 126.5283 L 575.977 126.5283 L 575.977 126.6731 L 575.8684 126.6731 L 575.8684 127.8295 L 575.977 127.8295 L 575.977 128.1171 L 576.0856 128.1171 L 576.0856 128.2619 L 576.1927 128.2619 L 576.1927 128.4047 L 576.3013 128.4067 L 576.3013 128.6963 L 576.5185 128.6963 L 576.5185 128.8391 L 576.6271 128.8391 L 576.6271 128.9839 L 576.7342 128.9839 L 576.7357 129.1287 L 576.8428 129.1287 L 576.8428 129.5611 L 576.7357 129.5631 L 576.7342 129.8507 L 576.5185 129.8507 L 576.5185 129.9955 L 576.4099 129.9955 L 576.4099 130.2851 L 576.4099 130.4279 L 576.4099 130.5727 L 576.5185 130.5727 L 576.5185 130.7175 L 576.6271 130.7175 L 576.6271 131.0071 L 576.7342 131.0071 L 576.7357 131.1499 L 576.9514 131.1519 L 576.9514 131.2947 L 577.06 131.2947 L 577.06 131.4395 L 577.1686 131.4395 L 577.1686 131.5843 L 577.2772 131.5843 L 577.2772 131.7291 L 577.3843 131.7291 L 577.3843 131.8739 L 577.6015 131.8739 L 577.6015 132.0167 L 577.905 132.0167 L 577.9258 132.0167 L 577.9258 132.1596 L 578.143 132.1615 L 578.143 132.7388 L 578.0344 132.7388 L 578.0344 132.8756 L 578.0344 133.1731 L 577.9258 133.1731 L 577.9258 133.4627 L 577.8187 133.4627 L 577.8187 134.04 L 577.7101 134.04 L 577.7101 135.3392 L 577.8187 135.3392 L 577.8187 135.8668 L 577.3055 135.7914 L 573.2962 135.7537 L 564.9816 139.2488 L 562.4541 140.0204 L 559.6811 140.4964 L 551.258 141.3176 L 547.2041 142.2737 L 544.8461 143.3488 L 540.3326 145.8084 L 535.334 147.9447 L 528.4744 151.519 L 525.874 152.3124 L 520.5987 153.5164 L 518.0786 154.4586 L 515.9453 155.8233 L 514.1006 157.5014 L 512.5609 159.356 L 510.5183 162.2818 L 508.7688 163.8527 L 499.3906 168.4447 Z" fill="#000000" fill-opacity="1" stroke="#000000" stroke-width="0" paint-order="fill" stroke-opacity="1" stroke-dasharray="" stroke-linecap="butt" stroke-linejoin="miter" stroke-miterlimit="10" transform="matrix(1.100000023841858,0,0,1.100000023841858,-39.999961853027344,-26.64995765686035)" clip-path="none" style="filter: url(#f1)"/>
<path data-code="216" d="M 562.5582 271.0458 L 558.8822 269.6196 L 556.3874 268.8897 L 553.6263 268.4474 L 543.8003 267.4873 L 541.1106 266.7792 L 539.9056 266.2754 L 534.2688 263.1929 L 530.569 261.5327 L 528.2185 260.2156 L 525.0394 257.7461 L 517.9283 251.3789 L 514.5142 248.834 L 510.737 244.2342 L 507.9565 241.4135 L 504.8637 239.1364 L 500.2415 236.7066 L 497.3034 234.2549 L 495.7116 232.1702 L 495.0734 230.99 L 494.1391 228.1317 L 493.6854 225.1246 L 493.4622 220.4712 L 493.5441 214.1576 L 493.9576 207.8856 L 494.4054 204.8388 L 495.1686 201.923 L 497.8494 195.9625 L 498.7092 193.3739 L 499.401 189.1073 L 499.7595 183.2241 L 505.4543 182.873 L 509.584 182.1728 L 512.0908 181.2901 L 517.8599 178.533 L 520.6805 177.7594 L 523.6276 177.3191 L 529.6958 176.9561 L 537.3617 176.96 L 541.8842 177.2953 L 546.2163 178.297 L 548.5712 179.4137 L 553.8673 182.6568 L 555.9069 184.0314 L 556.8144 184.8724 L 558.2336 186.9016 L 562.5523 194.6374 L 564.757 199.5348 L 566.0676 201.8615 L 568.6026 204.8408 L 570.5753 206.509 L 572.5747 207.8578 L 574.7943 212.3902 L 577.0808 219.0649 L 579.8836 224.9957 L 580.7806 227.727 L 581.3296 230.8055 L 582.1285 238.6604 L 582.6685 241.7309 L 583.5313 244.4523 L 586.1169 250.5498 L 586.7893 253.4279 L 587.1865 256.7881 L 587.4751 262.0068 L 584.7795 262.5602 L 582.1567 263.3536 L 576.4649 266.3666 L 574.043 267.4437 L 566.7594 269.9945 L 562.5582 271.0458 Z" fill="#000000" fill-opacity="1" stroke="#000000" stroke-width="0" paint-order="fill" stroke-opacity="1" stroke-dasharray="" stroke-linecap="butt" stroke-linejoin="miter" stroke-miterlimit="10" transform="matrix(1.100000023841858,0,0,1.100000023841858,-39.999961853027344,-26.64995765686035)" clip-path="none" style="filter: url(#f1)"/>
<path data-code="217" d="M 384.415 167.8298 L 380.4043 162.736 L 376.8175 158.7431 L 373.8511 156.0494 L 371.6762 154.5519 L 370.4979 153.9508 L 369.159 153.453 L 366.3905 152.842 L 362.1209 152.485 L 354.9117 152.5842 L 352.0598 152.8599 L 349.2735 153.3974 L 346.7043 154.3357 L 341.0749 157.4201 L 337.4718 159.0843 L 336.2921 159.7507 L 334.2555 161.3574 L 332.5372 163.3271 L 331.2296 165.6042 L 330.4099 168.2463 L 329.0948 175.03 L 328.6336 176.3551 L 327.3959 178.652 L 325.7937 180.7228 L 322.924 183.3887 L 320.7579 184.7832 L 317.3467 186.1955 L 313.0593 184.6384 L 310.4276 183.9084 L 307.4106 183.4443 L 299.7536 182.7123 L 295.3174 181.7027 L 292.9535 180.6336 L 288.4533 178.168 L 283.5039 175.9048 L 275.2325 170.4242 L 268.9426 166.6952 L 280.1834 156.5136 L 286.2605 151.88 L 287.708 149.9064 L 288.1826 148.7381 L 288.7761 146.209 L 289.5467 139.3539 L 290.4319 135.2321 L 291.448 132.8002 L 293.8178 128.1191 L 295.9229 122.9638 L 299.5067 115.9024 L 300.3516 113.175 L 303.1098 101.9283 L 298.1187 95.2437 L 296.7768 92.9368 L 295.7771 90.3284 L 295.2103 87.482 L 294.9008 83.0766 L 294.9737 78.5878 L 295.5822 70.7131 L 295.1508 64.0246 L 294.9752 55.8266 L 294.8681 55.8206 L 294.8473 53.4443 L 295.4052 53.4443 L 295.9482 53.4443 L 295.9482 53.5871 L 296.1639 53.5871 L 296.1639 53.4443 L 296.5923 53.4443 L 297.3495 53.4443 L 298.5471 53.4443 L 298.5471 53.5871 L 299.6316 53.5871 L 299.6316 53.7319 L 301.2561 53.7319 L 301.2561 53.5871 L 301.5805 53.5871 L 301.5805 53.7319 L 301.6891 53.7319 L 301.6891 53.8767 L 301.7977 53.8767 L 301.7977 54.1663 L 301.9063 54.1663 L 301.9063 54.2417 L 301.9063 54.3091 L 302.122 54.3091 L 302.122 54.2437 L 302.122 54.1663 L 302.2306 54.1663 L 302.2306 53.8767 L 302.3392 53.8767 L 302.3392 53.7319 L 302.4478 53.7319 L 302.4478 53.5871 L 302.5564 53.5871 L 302.5564 53.4443 L 302.665 53.4443 L 302.665 53.2995 L 302.9893 53.2995 L 302.9893 53.4443 L 303.2065 53.4443 L 303.2065 53.5871 L 303.4222 53.5871 L 303.4222 53.7319 L 303.6394 53.7319 L 303.6394 53.8767 L 303.748 53.8767 L 303.748 54.1663 L 303.8566 54.1663 L 303.8566 54.3091 L 304.0723 54.3091 L 304.0723 54.4004 L 304.0723 54.4539 L 304.288 54.4539 L 304.2895 54.5987 L 304.8533 54.5987 L 305.0482 54.5987 L 305.0482 54.7435 L 305.4201 54.7435 L 306.1312 54.7435 L 306.1312 54.8883 L 306.3469 54.8883 L 306.3469 54.9796 L 306.3469 55.0331 L 306.5522 55.0331 L 306.7813 55.0331 L 306.7813 54.8883 L 307.1056 54.8883 L 307.1056 55.0331 L 307.5385 55.0331 L 307.5385 55.176 L 308.0801 55.176 L 308.0801 55.0331 L 308.1887 55.0331 L 308.1887 55.176 L 308.8388 55.176 L 308.8388 55.0331 L 309.5975 55.0331 L 309.5975 55.176 L 309.7061 55.176 L 309.7061 55.0331 L 309.9218 55.0331 L 309.9218 55.176 L 310.139 55.176 L 310.139 55.0331 L 310.3562 55.0331 L 310.3562 55.176 L 310.5719 55.176 L 310.5719 55.0331 L 310.7891 55.0331 L 310.7891 55.176 L 311.0048 55.176 L 311.0048 55.3208 L 311.1134 55.3208 L 311.1134 55.176 L 311.6549 55.176 L 311.6549 55.3208 L 312.8465 55.3208 L 312.8465 55.4656 L 314.0381 55.4656 L 314.0381 55.3208 L 314.4725 55.3208 L 314.4725 55.4656 L 315.2298 55.4656 L 315.2298 55.3208 L 315.7713 55.3208 L 315.7713 55.4656 L 315.8799 55.4656 L 315.8799 55.6104 L 316.4214 55.6104 L 316.4214 55.4656 L 317.613 55.4656 L 317.613 55.6104 L 317.7216 55.6104 L 317.7216 55.7552 L 317.9388 55.7552 L 317.9388 55.6104 L 318.2631 55.6104 L 318.2631 55.4656 L 319.3461 55.4656 L 319.3461 55.3208 L 322.4881 55.3208 L 322.4881 55.176 L 323.2468 55.176 L 323.2468 55.0331 L 323.3554 55.0331 L 323.3554 55.176 L 323.464 55.176 L 323.464 55.0331 L 323.8969 55.0331 L 323.8969 54.8883 L 324.1126 54.8883 L 324.1126 55.0331 L 324.6556 55.0331 L 324.6556 54.8883 L 324.7627 54.8883 L 324.7627 54.5987 L 324.8713 54.5987 L 324.8713 54.7435 L 324.9799 54.7435 L 324.9799 54.8883 L 325.1971 54.8883 L 325.1971 55.0331 L 325.7386 55.0331 L 325.7386 55.176 L 326.0629 55.176 L 326.0629 55.3208 L 326.2801 55.3208 L 326.2801 55.176 L 326.6044 55.176 L 326.6044 55.0331 L 327.0388 55.0331 L 327.0388 55.176 L 327.6875 55.176 L 327.6875 55.0331 L 328.5548 55.0331 L 328.5548 54.8883 L 329.0963 54.8883 L 329.0963 55.0331 L 329.2049 55.0331 L 329.2049 54.8883 L 329.4221 54.8883 L 329.4221 54.7435 L 329.7464 54.7435 L 329.7464 54.5987 L 330.0707 54.5987 L 330.0707 54.7435 L 330.2879 54.7435 L 330.2879 54.8883 L 331.6967 54.8883 L 331.6967 54.7435 L 331.9124 54.7435 L 331.9124 54.5987 L 332.4539 54.5987 L 332.4539 54.7435 L 332.9969 54.7435 L 332.9969 54.5987 L 333.5384 54.5987 L 333.5384 54.4539 L 334.1871 54.4539 L 334.1885 54.3091 L 335.3787 54.3091 L 335.3802 54.1663 L 335.7045 54.1663 L 335.7045 54.3091 L 336.8411 54.3091 L 336.8961 54.3091 L 336.8961 54.4539 L 337.1639 54.4539 L 337.5462 54.4539 L 337.5462 54.3091 L 337.9791 54.3091 L 337.9791 54.4539 L 338.0877 54.4539 L 338.0877 54.7435 L 338.3049 54.7435 L 338.3049 54.8883 L 338.6292 54.8883 L 338.6292 55.0331 L 339.0621 55.0331 L 339.0621 55.176 L 339.7122 55.176 L 339.7122 55.3208 L 340.3624 55.3208 L 340.3624 55.176 L 341.7712 55.176 L 341.7712 55.0331 L 342.9628 55.0331 L 342.9628 54.8883 L 343.5043 54.8883 L 343.5043 55.0331 L 343.6129 55.0331 L 343.6129 54.8883 L 344.3701 54.8883 L 344.3701 54.7435 L 344.4787 54.7435 L 344.4787 54.5987 L 344.6959 54.5987 L 344.6959 54.4539 L 344.8045 54.4539 L 344.8045 54.5987 L 345.0202 54.5987 L 345.0202 54.7435 L 345.346 54.7435 L 345.346 54.4539 L 345.4546 54.4539 L 345.4546 54.0215 L 345.5617 54.0215 L 345.5617 54.1663 L 345.7789 54.1663 L 345.7789 54.3091 L 346.2118 54.3091 L 346.2118 54.4539 L 346.3204 54.4539 L 346.3204 54.5987 L 346.429 54.5987 L 346.429 54.7435 L 346.862 54.7435 L 346.862 54.5987 L 347.1877 54.5987 L 347.1877 54.7435 L 347.4035 54.7435 L 347.4035 54.8883 L 347.6207 54.8883 L 347.6207 55.0331 L 348.1622 55.0331 L 348.1622 54.8883 L 348.2708 54.8883 L 348.2708 54.7435 L 348.7037 54.7435 L 348.7037 54.8883 L 349.0295 54.8883 L 349.0295 55.0331 L 349.7867 55.0331 L 349.7867 54.8883 L 350.0039 54.8883 L 350.0039 54.7435 L 350.1125 54.7435 L 350.1125 54.5987 L 350.3282 54.5987 L 350.3282 54.7435 L 350.4368 54.7435 L 350.4368 55.0331 L 350.5454 55.0331 L 350.5454 55.3208 L 350.654 55.3208 L 350.654 55.6104 L 350.7626 55.6104 L 350.7626 55.7552 L 350.8697 55.7552 L 350.8697 55.89 L 350.8697 56.0428 L 350.9783 56.0428 L 350.9783 56.3324 L 351.0869 56.3324 L 351.0869 56.4772 L 350.8697 56.4772 L 350.8697 56.622 L 351.1955 56.622 L 351.1955 57.0544 L 351.0869 57.0544 L 351.0869 57.1992 L 350.9783 57.1992 L 350.9783 57.4868 L 350.8697 57.4868 L 350.8697 57.6316 L 350.7626 57.6316 L 350.7626 57.7764 L 350.654 57.7764 L 350.654 58.066 L 350.5454 58.066 L 350.5454 58.4984 L 350.4368 58.4984 L 350.4368 58.6432 L 350.1125 58.6432 L 350.1125 58.788 L 350.0039 58.788 L 350.0039 59.0756 L 349.8953 59.0756 L 349.8953 59.2204 L 349.7867 59.2204 L 349.7867 59.3652 L 349.6781 59.3652 L 349.6781 59.6548 L 349.4624 59.6548 L 349.4624 59.9424 L 349.3538 59.9424 L 349.3538 60.0872 L 348.9209 60.0872 L 348.9209 60.232 L 348.4865 60.232 L 348.4865 60.3768 L 348.3794 60.3768 L 348.3794 60.5216 L 348.1622 60.5216 L 348.1622 60.954 L 348.0536 60.954 L 348.0536 61.2436 L 348.1622 61.2436 L 348.1622 61.6761 L 348.2708 61.6761 L 348.2708 61.8208 L 348.0536 61.8208 L 348.0536 62.1104 L 348.2708 62.1104 L 348.2708 62.2533 L 348.3794 62.2533 L 348.3794 62.291 L 348.3794 62.8325 L 348.4865 62.8325 L 348.4865 63.1201 L 348.5951 63.1201 L 348.5951 63.4097 L 348.8123 63.4097 L 348.8123 63.5545 L 348.9209 63.5545 L 348.9209 63.6993 L 349.1366 63.6993 L 349.1366 63.8421 L 349.3538 63.8421 L 349.3538 64.1317 L 349.4624 64.1317 L 349.4624 64.4213 L 349.571 64.4213 L 349.571 64.5641 L 349.4624 64.5661 L 349.4624 64.7089 L 349.571 64.7089 L 349.571 64.8537 L 349.7867 64.8537 L 349.7867 64.9985 L 349.8953 64.9985 L 349.8953 65.1433 L 350.0039 65.1433 L 350.0039 65.2881 L 350.2211 65.2881 L 350.2211 65.4309 L 350.3282 65.4309 L 350.3282 65.5757 L 350.4368 65.5757 L 350.4368 65.7205 L 350.5454 65.7205 L 350.5454 65.8653 L 350.7626 65.8653 L 350.7626 66.0101 L 351.0869 66.0101 L 351.0869 66.1529 L 351.3041 66.1549 L 351.3041 66.2977 L 351.5198 66.2977 L 351.5198 66.4425 L 351.6284 66.4425 L 351.6284 66.5873 L 352.0613 66.5873 L 352.0613 66.7321 L 352.2785 66.7321 L 352.2785 66.8769 L 352.3871 66.8769 L 352.3871 67.0197 L 352.4957 67.0197 L 352.4957 67.1645 L 352.7114 67.1645 L 352.7114 67.3093 L 353.0372 67.3093 L 353.0372 67.4541 L 353.3616 67.4541 L 353.3616 67.5989 L 353.5788 67.5989 L 353.5788 67.7417 L 353.9031 67.7437 L 353.9031 67.8865 L 354.2289 67.8865 L 354.2289 68.0313 L 354.4446 68.0313 L 354.4446 68.1761 L 354.7704 68.1761 L 354.7704 68.3209 L 354.9876 68.3209 L 354.9876 68.4657 L 355.3119 68.4657 L 355.3119 68.6086 L 355.6362 68.6086 L 355.6362 68.7534 L 356.1777 68.7534 L 356.1792 68.8982 L 356.3949 68.8982 L 356.3949 69.043 L 356.8278 69.043 L 356.8278 69.1878 L 357.2622 69.1878 L 357.2622 69.3306 L 357.4779 69.3306 L 357.4779 69.4754 L 357.8037 69.4754 L 357.8037 69.6202 L 358.0328 69.6202 L 358.4538 69.6202 L 358.4538 69.765 L 359.211 69.765 L 359.211 69.9098 L 359.4282 69.9098 L 359.4282 70.0546 L 359.9698 70.0546 L 359.9698 70.1974 L 360.2956 70.1974 L 360.2956 70.3422 L 360.6199 70.3422 L 360.6199 70.487 L 360.7285 70.487 L 360.7285 70.3422 L 361.27 70.3422 L 361.27 70.487 L 361.3786 70.487 L 361.3786 70.6318 L 361.9201 70.6318 L 361.9201 70.487 L 364.3033 70.487 L 364.3033 70.6318 L 364.519 70.6318 L 364.519 70.7766 L 364.8448 70.7766 L 364.8448 71.0642 L 365.1691 71.0642 L 365.1691 70.9194 L 365.2777 70.9194 L 365.2777 70.7766 L 365.3863 70.7766 L 365.3863 70.6318 L 366.0364 70.6318 L 366.0364 70.7766 L 366.3608 70.7766 L 366.3608 70.6318 L 366.6866 70.6318 L 366.6866 70.487 L 366.7952 70.487 L 366.7952 70.3422 L 366.9023 70.3422 L 366.9023 70.1974 L 367.0109 70.1974 L 367.0109 70.0546 L 367.1195 70.0546 L 367.1195 69.765 L 367.3367 69.765 L 367.3367 69.3306 L 367.5524 69.3306 L 367.5524 69.1878 L 367.7696 69.1878 L 367.7696 69.043 L 367.9868 69.043 L 367.9868 68.8982 L 368.4197 68.8982 L 368.4197 69.043 L 369.0698 69.043 L 369.0698 69.1878 L 370.0442 69.1878 L 370.0442 69.3306 L 370.9115 69.3306 L 370.9115 69.4754 L 371.2358 69.4754 L 371.2358 69.3306 L 371.453 69.3306 L 371.453 69.4754 L 371.8859 69.4754 L 371.8859 69.6202 L 372.3188 69.6202 L 372.3188 69.765 L 372.2117 69.765 L 372.2117 70.0546 L 371.9945 70.0546 L 371.9945 70.1974 L 371.8859 70.1974 L 371.8859 70.0546 L 371.0201 70.0546 L 371.0201 69.9098 L 370.37 69.9098 L 370.37 69.765 L 369.7199 69.765 L 369.7199 69.6202 L 369.1784 69.6202 L 369.1784 69.4754 L 367.8782 69.4754 L 367.8782 69.765 L 367.7696 69.765 L 367.7696 69.9098 L 367.661 69.9098 L 367.661 70.1974 L 367.5524 70.1974 L 367.5524 70.3422 L 367.4453 70.3422 L 367.4453 70.5386 L 367.4453 70.9194 L 367.3367 70.9194 L 367.3367 71.0642 L 367.2281 71.0642 L 367.2281 71.209 L 367.1195 71.209 L 367.1195 71.3538 L 367.8782 71.3538 L 367.8782 71.4986 L 367.9868 71.4986 L 367.9868 71.6434 L 368.3111 71.6434 L 368.3111 71.7862 L 368.9612 71.7862 L 368.9612 71.931 L 369.1784 71.931 L 369.1784 72.0758 L 370.0442 72.0758 L 370.1528 72.0758 L 370.1528 72.1413 L 370.1528 72.3654 L 370.4771 72.3654 L 370.4771 72.3317 L 370.4771 71.931 L 370.37 71.931 L 370.37 71.6434 L 370.2614 71.6434 L 370.2614 71.4986 L 370.37 71.4986 L 370.37 71.209 L 370.4771 71.209 L 370.4771 70.9194 L 370.6943 70.9194 L 370.6943 70.7766 L 371.1272 70.7766 L 371.1272 71.7862 L 371.2358 71.7862 L 371.2358 71.931 L 371.1272 71.931 L 371.1272 72.653 L 371.2358 72.653 L 371.2358 72.782 L 371.2358 72.7978 L 371.2641 72.7978 L 371.5616 72.7978 L 371.5616 72.9426 L 372.4274 72.9426 L 372.4274 73.0874 L 373.5105 73.0874 L 373.5105 72.9426 L 373.6191 72.9426 L 373.6191 73.0874 L 374.1606 73.0874 L 374.1606 73.2322 L 374.2692 73.2322 L 374.2692 73.0874 L 374.3778 73.0874 L 374.3778 73.2322 L 374.595 73.2322 L 374.595 73.375 L 374.9193 73.375 L 374.9193 73.5198 L 375.0279 73.5198 L 375.0279 73.8094 L 375.2436 73.8094 L 375.2436 73.9542 L 375.678 73.9542 L 375.678 74.097 L 375.7866 74.097 L 375.7866 74.1566 L 375.7866 74.2418 L 376.0737 74.2418 L 376.1109 74.2418 L 376.1109 74.3866 L 376.5438 74.3827 L 376.5438 74.2418 L 377.0853 74.2418 L 377.0853 74.3866 L 378.1698 74.3866 L 378.1698 74.2418 L 378.2769 74.2418 L 378.2769 74.3866 L 379.1442 74.3866 L 379.1442 74.5314 L 380.4445 74.5314 L 380.4445 74.3866 L 380.8774 74.3866 L 380.8774 74.5314 L 382.1776 74.5314 L 382.1776 74.6762 L 382.3933 74.6762 L 382.3933 74.821 L 382.8277 74.821 L 382.8277 74.6762 L 384.4522 74.6762 L 384.4522 74.5314 L 384.6694 74.5314 L 384.6694 74.3866 L 384.8851 74.3866 L 384.8851 74.5314 L 384.9937 74.5314 L 384.9937 74.3866 L 385.4266 74.3866 L 385.4266 74.5314 L 385.5352 74.5314 L 385.5352 74.3866 L 386.8355 74.3866 L 386.8355 74.5314 L 387.377 74.5314 L 387.377 74.6762 L 387.5942 74.6762 L 387.5942 74.821 L 387.8099 74.821 L 387.8099 74.9639 L 387.9185 74.9639 L 387.9185 75.0392 L 387.9185 75.1087 L 388.0271 75.1087 L 388.0271 75.2535 L 388.1357 75.2535 L 388.1357 75.3983 L 388.2443 75.3983 L 388.2443 75.5431 L 388.3514 75.5431 L 388.3514 75.8307 L 388.46 75.8307 L 388.46 76.1203 L 388.5686 76.1203 L 388.5686 76.2651 L 389.0015 76.2651 L 389.0015 76.4099 L 390.0845 76.4099 L 390.0845 76.5527 L 390.9518 76.5527 L 390.9518 76.6975 L 391.169 76.6975 L 391.169 76.8423 L 391.2761 76.8423 L 391.2761 76.9871 L 391.3847 76.9871 L 391.3847 77.1319 L 391.4933 77.1319 L 391.4933 77.2747 L 391.6019 77.2747 L 391.6019 77.5643 L 391.7105 77.5643 L 391.7105 77.7091 L 391.8191 77.7091 L 391.8191 77.8539 L 392.0348 77.8539 L 392.0348 77.9987 L 392.252 77.9987 L 392.252 78.1415 L 392.4678 78.1415 L 392.4678 78.2863 L 392.5764 78.2863 L 392.5764 78.4311 L 392.685 78.4311 L 392.685 78.5759 L 392.7936 78.5759 L 392.7936 78.8635 L 393.0108 78.8635 L 393.0108 79.4427 L 393.4437 79.4427 L 393.4437 79.7303 L 393.5523 79.7303 L 393.5523 79.8751 L 393.8766 79.8751 L 393.8766 80.0199 L 394.0938 80.0199 L 394.0938 80.1647 L 394.2024 80.1647 L 394.2024 80.3095 L 394.5267 80.3095 L 394.5267 80.4523 L 395.0265 80.4523 L 395.0682 80.4523 L 395.0682 80.5119 L 395.0682 80.5971 L 395.1307 80.5971 L 395.1768 80.5971 L 395.1768 80.6626 L 395.1768 80.7419 L 395.0682 80.7419 L 395.0682 81.464 L 395.1768 81.464 L 395.1768 81.7536 L 395.2854 81.7536 L 395.2854 82.0412 L 395.5011 82.0412 L 395.5011 82.3308 L 395.6097 82.3308 L 395.6097 82.4756 L 395.7183 82.4756 L 395.7183 82.7652 L 395.8269 82.7652 L 395.8269 83.0528 L 395.9355 83.0528 L 395.9355 83.1976 L 396.0426 83.1976 L 396.0426 83.3424 L 396.1512 83.3424 L 396.1512 83.4872 L 396.2598 83.4872 L 396.2598 83.63 L 396.3684 83.63 L 396.3684 83.7748 L 396.477 83.7748 L 396.477 83.9196 L 396.5856 83.9196 L 396.5856 84.0644 L 396.6927 84.0644 L 396.6927 84.2092 L 396.9099 84.2092 L 396.9099 84.4968 L 397.1271 84.4968 L 397.1271 84.6416 L 397.2342 84.6416 L 397.2342 84.7864 L 397.3428 84.7864 L 397.3428 84.9312 L 397.6686 84.9312 L 397.6686 85.076 L 398.1015 85.076 L 398.1015 85.2188 L 398.4437 85.2188 L 398.7516 85.2188 L 398.7516 85.3636 L 399.076 85.3636 L 399.076 85.5084 L 399.1846 85.5084 L 399.1846 85.6532 L 399.2932 85.6532 L 399.2932 85.798 L 399.4018 85.798 L 399.4018 85.9428 L 399.5104 85.9428 L 399.5104 86.2304 L 399.6175 86.2304 L 399.6175 86.3752 L 399.7261 86.3752 L 399.7261 86.6648 L 399.8347 86.6648 L 399.8347 86.9524 L 399.9433 86.9524 L 399.9433 87.0972 L 399.8347 87.0972 L 399.8347 87.5316 L 399.7261 87.5316 L 399.7261 88.1089 L 399.8347 88.1089 L 399.8347 88.3965 L 400.1605 88.3965 L 400.1605 88.5413 L 400.2676 88.5413 L 400.2676 88.6861 L 400.4848 88.6861 L 400.4848 88.8309 L 400.5934 88.8309 L 400.5934 88.9757 L 400.9177 88.9757 L 400.9177 89.1205 L 401.1349 89.1205 L 401.1349 89.2633 L 401.3521 89.2633 L 401.3521 89.4081 L 401.785 89.4081 L 401.785 89.5529 L 402.5437 89.5529 L 402.5437 89.6977 L 402.7252 89.6977 L 402.9766 89.6977 L 402.9766 89.8425 L 403.8424 89.8425 L 403.8424 89.9853 L 404.3839 89.9853 L 404.3839 90.1281 L 404.4925 90.1301 L 404.4925 90.2749 L 405.034 90.2749 L 405.034 90.1301 L 405.5756 90.1301 L 405.5756 90.2749 L 406.4429 90.2749 L 406.4429 90.1301 L 406.5515 90.1301 L 406.5515 90.2749 L 406.7672 90.2749 L 406.7672 90.4197 L 406.8758 90.4197 L 406.8758 90.2749 L 408.8261 90.2749 L 408.8261 90.4197 L 408.9347 90.4197 L 408.9347 90.5645 L 409.4762 90.5645 L 409.4762 90.7093 L 409.8005 90.7093 L 409.8005 90.8521 L 410.1263 90.8521 L 410.1263 90.9969 L 410.342 90.9969 L 410.342 91.1417 L 410.4506 91.1417 L 410.4506 91.2865 L 410.5592 91.2865 L 410.5592 91.5741 L 410.6678 91.5741 L 410.6678 91.8637 L 410.7764 91.8637 L 410.7764 92.0085 L 410.9921 92.0085 L 410.9921 92.1533 L 411.1007 92.1533 L 411.1007 92.2981 L 411.3179 92.2981 L 411.3179 92.5857 L 411.4265 92.5857 L 411.4265 92.7305 L 411.5336 92.7305 L 411.5336 92.8753 L 411.7508 92.8753 L 411.7508 93.0201 L 412.2924 93.0201 L 412.2924 93.1629 L 412.6182 93.1629 L 412.6182 93.3077 L 412.8339 93.3077 L 412.8339 93.4525 L 413.1597 93.4525 L 413.1597 93.5973 L 414.1341 93.5973 L 414.1341 93.7421 L 414.7842 93.7421 L 414.7842 93.8869 L 415.2171 93.8869 L 415.2171 94.0298 L 415.8672 94.0298 L 415.8672 94.1746 L 416.0844 94.1746 L 416.0844 94.3194 L 416.6259 94.3194 L 416.6259 94.1746 L 416.9502 94.1746 L 416.9502 94.3194 L 417.7089 94.3194 L 417.7089 94.4641 L 418.0332 94.4641 L 418.0332 94.6089 L 418.2504 94.6089 L 418.2504 94.7518 L 418.4676 94.7518 L 418.4676 95.0414 L 418.5762 95.0414 L 418.5762 95.1862 L 418.6834 95.1862 L 418.6834 95.4758 L 418.792 95.4758 L 418.792 95.7634 L 418.9006 95.7634 L 418.9006 95.9082 L 419.0092 95.9082 L 419.0092 96.053 L 419.1178 96.053 L 419.1178 96.3406 L 419.3335 96.3406 L 419.3335 96.4854 L 419.4421 96.4854 L 419.4421 96.775 L 419.5507 96.775 L 419.5507 96.9198 L 419.7679 96.9198 L 419.7679 97.0646 L 420.3094 97.0646 L 420.3094 97.2074 L 420.8509 97.2074 L 420.8509 97.3522 L 420.9595 97.3522 L 420.9595 97.497 L 421.3924 97.497 L 421.3924 97.6418 L 421.7167 97.6418 L 421.7167 97.7866 L 422.7997 97.7866 L 422.7997 97.9294 L 423.1255 97.9294 L 423.1255 98.0742 L 423.2341 98.0742 L 423.2341 99.0858 L 423.1255 99.0858 L 423.1255 99.3754 L 423.0169 99.3754 L 423.0169 99.4548 L 423.0169 99.663 L 422.9083 99.663 L 422.9083 100.0974 L 422.7997 100.0974 L 422.7997 100.2403 L 422.6926 100.2403 L 422.6926 100.385 L 422.584 100.385 L 422.584 100.8175 L 422.4605 100.9365 L 420.7155 102.5967 L 420.6218 102.5253 L 415.7794 106.8276 L 411.9532 110.6162 L 409.323 113.6848 L 407.1674 117.0052 L 405.0147 122.1268 L 401.2717 129.0712 L 399.2247 134.2443 L 396.0203 140.0005 L 393.341 146.3281 L 389.5728 153.2804 L 385.864 163.2061 L 384.415 167.8298 Z" fill="#000000" fill-opacity="1" stroke="#000000" stroke-width="0" paint-order="fill" stroke-opacity="1" stroke-dasharray="" stroke-linecap="butt" stroke-linejoin="miter" stroke-miterlimit="10" transform="matrix(1.100000023841858,0,0,1.100000023841858,-39.999961853027344,-26.64995765686035)" clip-path="none" style="filter: url(#f1)"/>


















</svg>