<?xml version="1.0" standalone="no"?>
<!-- Generator: Paintmaps.com , Online SVG vector map maker -->
<svg xmlns="http://www.w3.org/2000/svg" version="1.1" baseProfile="full"   style="background-color:false" width="800" height="500" viewBox="0 0 850 567">
<path data-code="200" d="M 208.4621 407.8383 L 208.346 408.6909 L 207.8226 409.0784 L 207.1831 409.0784 L 207.2997 408.3035 L 208.0554 408.2258 L 208.4621 407.8383 Z M 182.8828 411.3266 L 183.5223 411.6364 L 184.278 411.482 L 185.6152 411.9472 L 184.8592 412.9542 L 184.5107 413.7302 L 184.0448 413.8069 L 183.8716 414.8927 L 184.1035 416.83 L 183.2892 416.83 L 183.1734 418.1479 L 183.5806 419.0005 L 182.8245 419.6211 L 181.6621 418.2256 L 182.5922 417.3729 L 181.8361 416.4426 L 180.5572 416.2882 L 180.0921 415.8997 L 179.9177 413.2651 L 181.0805 412.7999 L 181.4294 414.1177 L 181.8944 414.1944 L 181.6621 412.9542 L 182.5339 412.7999 L 182.8828 412.257 L 182.8828 411.3266 Z M 187.9987 411.7141 L 188.3468 412.4124 L 188.9867 412.4124 L 189.5101 411.9472 L 191.1962 412.0249 L 190.8473 412.8776 L 190.8473 413.6525 L 191.3124 413.7302 L 192.7075 413.1096 L 193.2309 413.8846 L 194.1027 413.8069 L 194.2771 415.047 L 194.9749 415.047 L 195.3242 414.5052 L 196.1956 414.815 L 196.6606 414.1944 L 197.1836 414.1944 L 198.3468 413.4971 L 199.3352 413.7302 L 198.4051 414.6595 L 199.2769 415.2801 L 198.8701 415.7453 L 198.2306 415.7453 L 197.7652 417.4506 L 195.1493 417.2175 L 193.8121 417.2175 L 192.8237 416.6757 L 191.3707 416.598 L 190.2078 415.9774 L 189.4522 416.2105 L 189.9172 417.2175 L 189.8011 418.9228 L 191.4285 420.7058 L 191.3124 421.7916 L 191.8357 422.4889 L 192.5331 422.4112 L 193.8121 421.0156 L 194.8001 420.7058 L 196.3122 420.8613 L 196.3122 421.4808 L 196.8351 421.946 L 196.37 422.8763 L 195.6144 423.4192 L 195.7888 423.8067 L 196.8934 424.4262 L 197.3584 425.1246 L 197.3001 425.9772 L 197.5911 426.6744 L 198.463 427.5271 L 199.3352 427.5271 L 200.5555 427.1396 L 200.9627 426.3647 L 202.5905 426.287 L 202.765 427.0619 L 202.4161 427.295 L 202.8233 428.3798 L 203.9278 428.7672 L 203.6955 429.4655 L 202.1255 429.4655 L 201.2537 429.9297 L 200.0904 429.853 L 199.6837 430.3948 L 198.928 430.1628 L 197.8818 430.2405 L 196.4283 429.853 L 195.7305 431.1709 L 195.1493 431.4806 L 192.5914 431.4806 L 191.5447 431.635 L 191.0797 431.3252 L 189.6845 431.0932 L 189.8589 430.3182 L 188.6961 428.7672 L 188.2894 428.7672 L 187.6499 427.295 L 187.6499 426.287 L 187.8826 425.2023 L 188.2894 424.8914 L 188.2894 423.4969 L 187.4175 423.4969 L 187.2427 424.0388 L 186.6032 424.0388 L 186.6032 423.4192 L 187.0682 423.1084 L 187.0104 422.4889 L 188.1732 422.2557 L 188.8123 422.7209 L 189.8589 422.7209 L 189.9172 421.8683 L 189.2777 420.7058 L 187.8243 419.2337 L 187.766 418.8451 L 188.6386 418.1479 L 188.4638 417.2952 L 188.5796 416.0551 L 186.9525 414.8927 L 186.0803 414.6595 L 184.743 414.7372 L 184.6847 414.3498 L 185.8475 413.0319 L 187.7077 412.257 L 187.9987 411.7141 Z M 179.162 414.7372 L 179.8015 415.6676 L 179.6271 416.2105 L 178.5812 416.6757 L 178.4064 414.9704 L 179.162 414.7372 Z M 207.532 415.4356 L 207.9392 416.1328 L 207.9971 417.2175 L 207.7648 418.0702 L 206.4858 417.7604 L 206.4858 416.2105 L 207.1253 415.4356 L 207.532 415.4356 Z M 220.2061 416.2882 L 220.5546 416.598 L 220.3802 417.3729 L 219.1591 417.9158 L 218.4034 417.6827 L 218.9846 416.9854 L 220.2061 416.2882 Z M 205.2647 418.3033 L 205.6136 418.6131 L 205.4974 419.388 L 204.6256 419.3103 L 204.6256 418.5353 L 205.2647 418.3033 Z M 220.6991 419.1559 L 220.7826 419.2411 L 220.8452 419.305 L 220.9035 419.3646 L 220.9267 419.388 L 223.992 422.5176 L 226.457 424.5593 L 227.7779 425.3055 L 230.3626 426.5382 L 233.3473 428.3063 L 236.0086 429.4719 L 238.4105 430.8111 L 239.6759 431.4008 L 241.1777 431.8053 L 243.5345 432.0672 L 246.7607 432.1257 L 255.7196 432.0267 L 258.1179 432.1353 L 259.6791 432.3397 L 261.8255 433.0167 L 264.8517 434.6752 L 268.1302 436.1495 L 271.3736 438.0485 L 262.4446 447.3192 L 259.7669 449.8186 L 258.0165 451.0162 L 255.3415 452.168 L 251.7401 454.2458 L 249.0692 455.4157 L 247.882 456.1832 L 244.0099 459.4459 L 242.859 460.2794 L 239.6388 461.923 L 238.393 462.7618 L 236.637 464.2755 L 232.6587 468.0938 L 230.8667 469.5394 L 229.5878 470.2781 L 226.3121 471.266 L 225.1728 471.7769 L 224.3249 472.636 L 223.6459 474.2796 L 221.4552 474.2466 L 219.3918 473.8751 L 219.1591 472.95 L 218.7523 472.4848 L 218.0549 471.0904 L 217.5316 470.8572 L 217.1831 469.9269 L 216.0782 468.6101 L 214.9153 466.9814 L 214.0435 466.2842 L 213.2875 464.8886 L 213.4619 464.1914 L 213.5206 461.478 L 213.7529 460.3933 L 212.9386 458.7657 L 212.8811 458.0674 L 213.2875 457.4478 L 212.9386 455.1219 L 212.4735 454.1149 L 211.951 453.6497 L 211.7179 452.4862 L 210.6716 451.2461 L 210.4972 450.7809 L 208.9276 449.5408 L 207.358 449.231 L 206.4275 448.3784 L 205.0906 447.9132 L 202.533 447.9132 L 201.8353 447.6034 L 200.1495 447.8355 L 199.8581 447.6034 L 198.0566 447.6034 L 196.8355 447.3703 L 196.4862 447.6811 L 195.4982 447.5257 L 193.1147 447.9132 L 192.4169 447.6034 L 192.3008 446.7508 L 191.7778 446.2079 L 191.0222 446.2079 L 190.7312 445.7427 L 189.1037 445.5883 L 188.2315 446.441 L 186.7776 445.8981 L 186.7776 444.9677 L 187.3593 444.5803 L 187.301 443.4955 L 189.1037 442.5652 L 189.2195 441.7902 L 189.9176 439.4643 L 190.4402 438.9214 L 190.2657 437.6813 L 189.8589 437.4492 L 189.6845 436.6743 L 190.3244 435.8983 L 190.2657 435.2787 L 190.9052 434.5815 L 192.0106 434.5038 L 192.3008 434.7358 L 193.0564 434.2707 L 193.9865 433.0305 L 194.5673 432.8762 L 195.6148 431.9458 L 195.7305 432.7208 L 196.3704 433.5734 L 196.8934 433.4957 L 196.4862 435.0456 L 195.8471 435.6662 L 195.905 436.3634 L 196.4283 436.5966 L 196.8355 437.4492 L 196.4862 437.9144 L 195.2072 437.6036 L 194.2771 436.3634 L 194.1031 437.6036 L 193.6959 438.0688 L 192.6496 437.8367 L 192.1263 438.0688 L 191.3128 439.0768 L 191.603 439.7741 L 192.3008 440.6267 L 194.335 440.549 L 194.9753 440.0849 L 195.1497 439.2323 L 195.6731 438.9991 L 196.8355 439.7741 L 197.3001 440.8545 L 196.4862 441.6348 L 196.3704 442.4098 L 196.9513 442.4875 L 198.6374 444.1928 L 199.8002 444.3482 L 200.3236 443.2624 L 199.742 441.4017 L 198.5216 440.317 L 197.6486 440.6267 L 197.5911 438.9214 L 198.231 438.4562 L 198.2885 437.0618 L 200.6724 434.969 L 202.474 435.1233 L 202.6488 434.5815 L 203.5793 434.8136 L 203.9278 433.8832 L 204.3928 431.9458 L 205.2647 430.7823 L 205.2647 430.0074 L 205.614 429.1547 L 206.3113 428.6895 L 206.2526 427.1396 L 207.1831 427.1396 L 207.7065 426.7522 L 209.0441 426.9842 L 209.625 426.519 L 209.8577 425.8218 L 210.5551 425.5897 L 210.9039 424.9691 L 211.6021 424.8137 L 212.1246 424.1165 L 212.9386 424.1165 L 213.5206 423.3415 L 213.1713 422.6283 L 213.927 422.2557 L 215.7293 422.4889 L 216.3688 421.8683 L 217.0083 421.7916 L 218.3455 420.3184 L 219.3918 419.8532 L 219.6241 419.3103 L 220.264 419.4657 L 220.6991 419.1559 Z M 200.0904 423.2638 L 199.9164 423.8844 L 199.3352 424.0388 L 199.1607 423.4192 L 200.0904 423.2638 Z M 183.9291 424.4262 L 185.0336 424.8914 L 185.2659 426.1316 L 183.9291 426.0549 L 182.0689 425.7441 L 181.8361 425.1246 L 182.2433 424.6594 L 183.2317 424.8914 L 183.9291 424.4262 Z M 204.8579 424.6594 L 205.3225 424.8914 L 205.2068 426.4424 L 203.9278 426.7522 L 202.9981 426.519 L 202.4161 425.9772 L 203.0556 425.512 L 204.8579 424.6594 Z M 180.2665 425.9772 L 180.5572 426.2093 L 180.732 427.5271 L 179.9177 428.9227 L 179.2786 428.9227 L 179.7432 427.9146 L 179.5692 426.9076 L 180.2665 425.9772 Z M 186.3126 426.519 L 187.1852 427.2173 L 187.8243 428.4575 L 187.8243 428.9227 L 186.8359 429.3878 L 185.0919 429.2324 L 184.3366 428.9227 L 184.278 428.1477 L 185.3825 426.5967 L 186.3126 426.519 Z M 172.2437 429.6199 L 172.593 429.853 L 173.1742 431.4029 L 172.3607 432.0235 L 171.4881 432.0235 L 170.4422 431.635 L 170.6746 431.0932 L 170.6163 429.6976 L 171.5464 430.1628 L 172.2437 429.6199 Z M 184.6847 437.5269 L 185.1502 438.3796 L 185.0919 439.2323 L 184.3366 440.0072 L 184.1618 440.7822 L 184.743 441.325 L 184.8592 442.5652 L 185.4987 442.9527 L 184.8013 443.5722 L 183.6389 443.0304 L 182.8828 443.4178 L 182.6501 444.5803 L 181.1388 445.2009 L 180.2083 444.89 L 180.0921 444.0374 L 181.2549 442.9527 L 181.6621 442.8749 L 182.2433 441.325 L 183.2892 440.6267 L 183.2892 439.8518 L 183.6967 439.2323 L 183.1151 437.9144 L 184.6847 437.5269 Z" fill="#000000" fill-opacity="1" stroke="#000000" stroke-width="0" paint-order="fill" stroke-opacity="1" stroke-dasharray="" stroke-linecap="butt" stroke-linejoin="miter" stroke-miterlimit="10" clip-path="none"/>
<path data-code="201" d="M 342.4799 339.581 L 340.5905 338.1631 L 338.8517 336.5908 L 337.2023 334.9057 L 335.6881 333.1206 L 334.4459 331.1853 L 333.2938 328.423 L 331.6129 325.3178 L 330.4241 322.68 L 329.7219 321.4548 L 328.4038 319.9305 L 325.9273 318.0069 L 325.1505 316.9776 L 324.7098 315.6789 L 324.4878 314.2418 L 324.2375 309.5868 L 323.9721 307.114 L 326.3572 306.1187 L 329.8317 305.0712 L 331.1562 304.5113 L 334.1784 302.8017 L 337.4669 301.3221 L 340.4588 299.5518 L 343.1377 298.3937 L 346.7587 296.3211 L 350.0743 294.8787 L 352.4659 293.4672 L 355.0226 292.2686 L 356.2362 291.5383 L 357.2836 290.6165 L 358.1774 289.5371 L 358.8891 288.2927 L 360.1326 285.6794 L 360.933 284.4925 L 364.0538 280.4612 L 364.7999 279.2488 L 366.0501 276.5982 L 367.565 274.5214 L 371.4602 272.567 L 375.0749 270.3337 L 377.7486 269.1563 L 381.4159 267.2136 L 382.827 266.7879 L 386.4344 266.0257 L 387.7697 265.5371 L 390.867 264.0457 L 392.2685 263.6359 L 395.1454 263.0153 L 396.547 262.532 L 398.5098 261.2983 L 402.114 258.2687 L 403.3898 257.4022 L 406.0132 256.1195 L 409.0207 254.4099 L 410.3891 253.9011 L 411.8753 253.6212 L 413.3938 253.5094 L 415.6827 253.5722 L 417.184 253.7787 L 419.2713 254.4536 L 422.3231 256.0312 L 425.1509 256.8168 L 429.7591 256.8029 L 431.1842 256.9637 L 432.4815 257.3267 L 433.545 258.0196 L 433.9202 258.5029 L 435.2247 261.6825 L 435.61 262.1424 L 436.6802 262.7566 L 437.938 262.9919 L 439.2569 262.9504 L 440.5423 262.6747 L 443.2811 261.674 L 444.5325 261.7368 L 446.378 262.7183 L 447.5236 263.6987 L 450.2776 266.5877 L 448.4789 268.8753 L 447.7352 270.0995 L 446.572 272.8469 L 444.869 275.9393 L 443.7126 278.6324 L 443.018 279.9758 L 441.1259 282.4231 L 436.8566 287.0558 L 435.8998 288.2746 L 435.093 289.5701 L 433.9166 292.3133 L 431.8991 296.0369 L 430.791 298.8088 L 428.7492 302.5281 L 427.6362 305.298 L 426.0072 308.4254 L 425.5082 309.805 L 424.7873 313.5446 L 424.3833 315.0061 L 423.7993 316.2995 L 422.4828 318.7904 L 421.3691 321.5613 L 419.3236 325.2785 L 418.2043 328.0483 L 416.1645 331.7697 L 415.0049 334.5214 L 414.3027 335.7275 L 411.9323 339.1924 L 411.0541 341.0681 L 405.2284 341.2352 L 393.2709 341.1926 L 389.9241 341.4098 L 387.539 341.9825 L 383.2478 344.2349 L 379.0316 346.0499 L 377.8564 346.2681 L 376.6872 346.0882 L 373.6621 345.0418 L 372.1484 344.7831 L 369.7521 344.6 L 363.1915 344.4361 L 361.5832 344.2892 L 360.0208 343.9869 L 358.6257 343.4674 L 355.6146 341.7802 L 352.988 340.5784 L 350.628 339.2755 L 349.3786 338.7634 L 347.9611 338.5282 L 346.534 338.6038 L 342.4799 339.581 Z" fill="#000000" fill-opacity="1" stroke="#000000" stroke-width="0" paint-order="fill" stroke-opacity="1" stroke-dasharray="" stroke-linecap="butt" stroke-linejoin="miter" stroke-miterlimit="10" clip-path="none"/>
<path data-code="202" d="M 498.6156 112.2003 L 499.4882 112.3557 L 499.4299 113.0529 L 498.4998 113.1307 L 498.6156 112.2003 Z M 491.9305 113.9833 L 492.7444 114.9914 L 493.035 114.3708 L 493.7328 114.6816 L 493.9072 115.5343 L 493.6166 116.0761 L 492.3955 116.0761 L 491.1165 115.4566 L 491.582 114.2931 L 491.9305 113.9833 Z M 497.163 116.3092 L 497.163 117.1619 L 496.7562 117.3939 L 495.9997 117.1619 L 496.872 116.0761 L 497.163 116.3092 Z M 453.5445 191.8711 L 451.8603 189.5473 L 451.2181 188.2635 L 450.6971 186.0313 L 450.3287 181.4433 L 450.0321 179.9647 L 449.4437 178.6203 L 448.585 177.5079 L 447.5188 176.619 L 446.2478 176.0016 L 442.0516 175.0606 L 440.0146 174.0728 L 437.5751 172.0375 L 431.3215 165.6005 L 430.106 164.5669 L 428.0949 163.3683 L 426.6578 162.9648 L 421.5942 162.4315 L 420.2669 162.0462 L 419.2099 161.3606 L 418.5125 160.4686 L 418.0606 159.2114 L 417.8459 157.9117 L 419.2809 157.026 L 420.0378 156.7716 L 420.9471 156.7716 L 421.9938 157.3134 L 422.3423 157.0037 L 425.4823 157.0814 L 426.5281 157.7786 L 428.3308 157.5466 L 429.3188 156.6939 L 431.5862 155.9956 L 432.2836 155.9956 L 432.6324 155.2983 L 433.7949 154.1359 L 434.1442 152.9735 L 434.7836 152.9735 L 435.6555 152.0431 L 436.1205 151.8877 L 436.4107 151.1128 L 437.3416 150.5699 L 438.1552 149.4075 L 438.9691 149.0977 L 440.1902 147.7798 L 441.1786 146.3843 L 442.4572 146.3066 L 443.4455 145.9191 L 443.7944 145.2996 L 445.1321 144.3692 L 446.7013 143.7486 L 447.3991 142.8183 L 448.7942 142.8183 L 449.4337 141.6558 L 449.3758 140.8032 L 451.3522 140.8032 L 451.5266 139.9505 L 451.9334 139.4076 L 452.5146 139.2533 L 452.8056 138.555 L 452.6312 137.548 L 452.0244 136.8497 L 452.2555 136.4962 L 454.2403 135.964 L 456.2354 135.1177 L 456.6426 136.4622 L 457.5148 137.3925 L 458.7934 136.9274 L 460.0724 137.2382 L 460.5374 138.555 L 461.5258 139.4076 L 461.7581 140.338 L 462.5725 141.5004 L 463.2698 141.7335 L 463.5604 142.2764 L 465.1296 142.121 L 466.3511 142.8183 L 466.9906 142.896 L 466.9906 143.5166 L 467.6305 143.6709 L 468.0373 144.3692 L 468.6181 144.679 L 469.0253 144.1361 L 469.6648 144.6013 L 469.9554 144.2138 L 471.3505 144.2138 L 471.4671 143.5166 L 472.1062 142.8183 L 473.4434 142.2764 L 474.4901 142.121 L 475.1871 140.9586 L 476.6413 140.6478 L 477.5131 140.8809 L 478.2105 140.1059 L 479.4316 140.1836 L 479.5482 139.7185 L 481.0591 139.7185 L 481.8726 139.331 L 484.0242 139.4076 L 484.7803 139.2533 L 485.4777 138.7881 L 486.2916 138.7881 L 487.454 138.3229 L 488.5586 138.7104 L 488.733 137.9354 L 489.4891 138.0131 L 490.0116 137.0051 L 490.6515 136.4622 L 492.1049 136.6176 L 492.57 137.2382 L 493.3843 137.2382 L 493.5583 136.773 L 494.6046 136.8497 L 494.8956 136.4622 L 496.4069 135.6872 L 499.1976 135.3775 L 500.186 134.7569 L 501.5233 134.8346 L 502.2785 134.4471 L 503.4413 135.222 L 503.7902 134.3694 L 505.5925 134.4471 L 507.8016 133.5944 L 508.4411 132.7418 L 510.4758 132.8972 L 511.057 132.5864 L 512.7427 132.6641 L 512.9751 132.8972 L 514.08 132.7418 L 515.1263 132.1989 L 517.1613 132.0445 L 517.9752 132.1222 L 521.2889 132.1222 L 523.0856 132.0445 L 521.4298 134.3875 L 517.9565 138.8956 L 517.127 140.2369 L 515.8304 142.9204 L 514.9554 144.2723 L 513.9347 145.5519 L 510.0195 149.8375 L 508.982 151.1128 L 508.0918 152.487 L 507.4631 154.038 L 507.135 155.7092 L 506.9933 157.4252 L 506.9981 166.2126 L 506.7989 169.6732 L 506.274 172.1312 L 504.8385 175.3161 L 504.3487 176.7777 L 504.0457 178.451 L 503.8888 180.1787 L 503.7834 184.5985 L 503.7982 211.413 L 501.6382 210.951 L 500.2994 210.4486 L 497.2648 208.8039 L 494.6214 207.5627 L 493.9471 207.138 L 492.0586 205.5945 L 488.5095 202.0838 L 486.6788 200.4275 L 485.3631 199.4939 L 483.9651 198.8403 L 479.6935 197.796 L 478.381 197.3021 L 475.2817 195.8203 L 473.7564 195.4371 L 470.5494 195.1657 L 464.0023 195.0677 L 462.3968 194.9368 L 460.8368 194.6558 L 459.4429 194.1651 L 456.3739 192.6333 L 453.5445 191.8711 Z" fill="#000000" fill-opacity="1" stroke="#000000" stroke-width="0" paint-order="fill" stroke-opacity="1" stroke-dasharray="" stroke-linecap="butt" stroke-linejoin="miter" stroke-miterlimit="10" clip-path="none"/>
<path data-code="203" d="M 528.7871 376.1622 L 531.5735 377.5705 L 535.1613 379.8336 L 537.8215 381.0184 L 540.8269 382.711 L 542.1862 383.2134 L 543.6695 383.4838 L 545.1952 383.6009 L 552.1901 383.5913 L 554.4802 383.735 L 555.964 384.0309 L 557.3683 384.626 L 558.6318 385.4978 L 559.8034 386.5197 L 561.4823 388.192 L 578.6704 406.2128 L 580.1753 408.0299 L 581.0448 409.2945 L 582.2938 411.9493 L 582.99 413.1895 L 584.3692 414.7521 L 585.4701 415.5814 L 588.0285 416.8588 L 589.1985 417.6114 L 593.1113 420.8059 L 594.2725 421.6288 L 598.1239 423.5715 L 599.2755 424.4231 L 600.8782 425.9059 L 602.3105 427.5665 L 603.4382 429.4325 L 603.9372 430.8781 L 604.5224 433.0891 L 605.3227 435.3266 L 601.6379 435.5661 L 597.3634 435.663 L 571.6851 435.5789 L 567.4533 435.6832 L 565.7995 435.845 L 564.1976 436.158 L 562.7917 436.6636 L 559.7064 438.1624 L 558.1743 438.5861 L 556.5744 438.8192 L 554.1178 438.9534 L 551.6492 438.9044 L 550.0238 438.7511 L 547.6797 438.2061 L 544.5761 436.7083 L 543.2596 436.2038 L 539.6833 435.365 L 537.6411 434.639 L 534.6184 432.9603 L 531.9982 431.6776 L 530.73 430.8164 L 526.5126 427.3632 L 524.3849 426.3136 L 521.9475 425.8527 L 519.4263 425.7036 L 514.3023 425.7058 L 510.9089 425.8537 L 509.2487 426.0336 L 507.6424 426.3626 L 506.2376 426.8778 L 503.1595 428.3798 L 501.5931 428.7981 L 499.9617 429.0025 L 498.3054 429.0493 L 495.8389 428.8311 L 494.2589 428.4245 L 491.1624 426.9257 L 489.8495 426.4115 L 486.2764 425.5397 L 484.8749 425.0862 L 481.2096 423.1425 L 478.5382 421.9822 L 474.8661 420.0714 L 473.467 419.636 L 470.5961 418.9931 L 469.1905 418.5396 L 467.9367 417.9105 L 462.3541 414.4913 L 462.9193 411.3064 L 463.3497 409.8342 L 465.2753 406.068 L 467.1659 401.6355 L 467.5447 400.4422 L 467.5631 399.1712 L 466.9711 397.3754 L 465.6146 394.1979 L 464.8634 392.8321 L 463.3389 390.9001 L 458.7211 386.0769 L 457.7008 384.7899 L 456.8881 383.356 L 456.4442 381.8583 L 456.3025 379.5537 L 456.8166 377.2948 L 457.5783 376.0526 L 458.5902 375.0445 L 459.8085 374.2951 L 462.1581 373.7213 L 465.4462 373.6277 L 474.7552 373.8448 L 478.0864 373.7139 L 479.7023 373.4967 L 481.2463 373.0826 L 484.9579 371.3177 L 487.1299 370.7982 L 489.4132 370.5949 L 491.7436 370.5428 L 497.8727 370.7067 L 500.075 373.4297 L 501.8111 375.103 L 503.809 376.3879 L 505.4229 376.8914 L 507.0979 377.1277 L 509.6686 377.2395 L 521.918 377.1043 L 525.3881 376.8563 L 528.7871 376.1622 Z" fill="#000000" fill-opacity="1" stroke="#000000" stroke-width="0" paint-order="fill" stroke-opacity="1" stroke-dasharray="" stroke-linecap="butt" stroke-linejoin="miter" stroke-miterlimit="10" clip-path="none"/>
<path data-code="204" d="M 305.6543 404.6001 L 304.3378 406.728 L 302.7004 408.873 L 300.6497 410.8721 L 298.9352 412.0547 L 296.8208 412.9851 L 295.7055 413.5833 L 293.492 415.3238 L 290.9348 417.8253 L 279.172 430.0095 L 278.5605 427.9816 L 276.5981 422.59 L 274.6169 418.8419 L 273.5156 416.0689 L 271.5412 412.3219 L 270.4024 409.5617 L 269.1102 407.5764 L 267.5127 405.7976 L 265.702 404.2648 L 263.6486 403.2226 L 259.335 402.2891 L 258.0045 401.8122 L 254.9084 400.3283 L 253.5017 399.9291 L 250.6116 399.3479 L 249.2005 398.8944 L 247.367 397.8384 L 243.0475 394.5332 L 241.3944 394.001 L 239.3155 393.8828 L 237.8205 394.563 L 238.0533 393.9637 L 237.995 391.7932 L 238.8672 390.8628 L 238.8672 389.3129 L 239.0416 389.0032 L 240.4951 388.8477 L 241.7741 389.7781 L 242.8786 389.8558 L 243.3437 389.545 L 244.4482 389.7781 L 244.855 389.4683 L 248.1107 389.1575 L 249.5059 388.6923 L 250.2615 388.2272 L 251.192 388.2272 L 251.8894 387.6076 L 252.4127 387.6076 L 253.3428 386.9104 L 254.1564 386.8327 L 254.3895 385.8246 L 253.9244 384.8165 L 254.738 383.422 L 254.3895 382.4917 L 254.8545 379.5462 L 255.6681 377.1437 L 256.2497 375.9802 L 256.3658 374.508 L 255.8425 372.4918 L 256.017 371.95 L 258.5749 369.4697 L 258.8655 367.9167 L 260.8271 367.5313 L 262.6813 367.3184 L 271.9859 366.9043 L 273.7815 366.6648 L 275.9291 366.1081 L 280.1756 367.0001 L 282.1032 367.6942 L 282.6645 368.0785 L 283.5379 369.0919 L 285.529 372.5802 L 286.0795 373.8874 L 286.4619 375.5171 L 286.9362 380.5937 L 287.204 382.2532 L 287.6515 383.7244 L 288.7576 386.3068 L 289.1968 387.7715 L 289.4566 389.4183 L 289.9728 394.4161 L 290.4542 396.0001 L 291.1719 397.2306 L 292.102 398.2781 L 293.1934 399.1286 L 298.784 402.0166 L 300.1196 402.5648 L 302.9778 403.443 L 305.6543 404.6001 Z" fill="#000000" fill-opacity="1" stroke="#000000" stroke-width="0" paint-order="fill" stroke-opacity="1" stroke-dasharray="" stroke-linecap="butt" stroke-linejoin="miter" stroke-miterlimit="10" clip-path="none"/>
<path data-code="205" d="M 528.7871 376.1622 L 528.877 373.1571 L 529.3109 370.8855 L 529.8626 369.5677 L 531.1419 367.0736 L 532.3068 364.3283 L 533.0712 363.0998 L 533.9785 361.9576 L 535.5002 360.3747 L 537.1624 358.9781 L 538.3532 358.2149 L 540.995 356.979 L 542.759 355.7804 L 544.4192 354.3348 L 549.2497 349.7703 L 550.3359 348.9059 L 552.5462 347.4699 L 553.7785 345.9732 L 556.1424 341.8281 L 557.2801 339.1381 L 557.9468 337.8011 L 559.7619 335.3752 L 561.856 333.0929 L 567.8389 326.9252 L 569.492 325.2912 L 571.2017 323.7722 L 573.0355 322.5299 L 576.3108 321.0492 L 580.3366 318.636 L 581.3773 317.86 L 582.1481 316.7987 L 583.1365 315.0349 L 585.0542 312.0468 L 587.0321 308.386 L 589.5685 308.7182 L 596.5698 309.0343 L 599.129 309.3377 L 600.7513 309.7667 L 604.4889 311.4795 L 605.9283 311.8733 L 607.4364 312.099 L 609.8719 312.2342 L 612.5524 312.1682 L 615.1231 311.8797 L 618.2116 311.2548 L 618.6308 313.1401 L 620.1772 317.7823 L 620.8466 319.1534 L 622.2118 321.0226 L 626.4468 325.6627 L 627.8998 327.4745 L 628.6998 328.7615 L 629.9309 331.4706 L 630.7288 332.7597 L 632.1731 334.581 L 635.3358 338.096 L 636.83 339.8961 L 638.0618 341.8004 L 638.9448 343.8081 L 639.6362 345.0652 L 640.5104 346.1659 L 641.5431 347.1176 L 642.7511 347.8765 L 644.6803 348.776 L 647.0203 350.0609 L 648.9875 350.6836 L 650.4158 350.657 L 652.3335 349.9906 L 654.7058 348.7739 L 656.1177 348.3673 L 657.6107 348.1416 L 659.922 347.999 L 664.6292 348.0671 L 668.2905 348.3641 L 669.4465 348.9613 L 670.6552 349.9757 L 671.6556 350.6165 L 674.2068 351.5852 L 675.3836 352.2825 L 676.1592 353.1628 L 677.736 355.5026 L 679.5571 357.7784 L 677.7416 360.0479 L 676.9703 361.2604 L 675.7217 363.9695 L 674.0918 367.0746 L 673.62 368.4894 L 673.3449 370.8036 L 673.4791 373.1465 L 673.804 374.673 L 674.8008 377.1554 L 671.3506 382.7163 L 670.7339 384.0235 L 670.2229 386.2994 L 670.0952 387.8727 L 670.0177 395.0963 L 669.7395 398.2355 L 669.3727 399.7237 L 667.914 402.9107 L 667.4466 404.2935 L 667.1688 405.8008 L 666.6171 411.2234 L 665.9888 413.3821 L 664.3952 416.5171 L 663.5286 418.5705 L 662.8129 419.9085 L 661.4193 421.7576 L 657.18 426.4009 L 655.7309 428.2158 L 654.9298 429.5007 L 653.6907 432.2077 L 652.8708 433.5394 L 650.8529 436.0398 L 646.9138 440.2095 L 643.9849 443.0293 L 642.116 444.4845 L 640.7931 445.2136 L 638.8015 446.1004 L 635.1945 448.1729 L 632.5088 449.3023 L 628.8323 451.2131 L 627.424 451.6261 L 623.8209 452.3979 L 622.4845 452.9429 L 621.2714 453.6646 L 616.3666 456.9944 L 613.9116 451.7432 L 612.8438 448.9085 L 610.8455 445.1551 L 609.4048 441.7178 L 607.9841 439.3355 L 606.7223 436.9958 L 605.3227 435.3266 L 604.5224 433.0891 L 603.9372 430.8781 L 603.4382 429.4325 L 602.3105 427.5665 L 600.8782 425.9059 L 599.2755 424.4231 L 598.1239 423.5715 L 594.2725 421.6288 L 593.1113 420.8059 L 589.1985 417.6114 L 588.0285 416.8588 L 585.4701 415.5814 L 584.3692 414.7521 L 582.99 413.1895 L 582.2938 411.9493 L 581.0448 409.2945 L 580.1753 408.0299 L 578.6704 406.2128 L 561.4823 388.192 L 559.8034 386.5197 L 558.6318 385.4978 L 557.3683 384.626 L 555.964 384.0309 L 554.4802 383.735 L 552.1901 383.5913 L 545.1952 383.6009 L 543.6695 383.4838 L 542.1862 383.2134 L 540.8269 382.711 L 537.8215 381.0184 L 535.1613 379.8336 L 531.5735 377.5705 L 528.7871 376.1622 Z" fill="#000000" fill-opacity="1" stroke="#000000" stroke-width="0" paint-order="fill" stroke-opacity="1" stroke-dasharray="" stroke-linecap="butt" stroke-linejoin="miter" stroke-miterlimit="10" clip-path="none"/>
<path data-code="206" d="M 312.7646 301.7383 L 311.7223 306.9415 L 311.2952 308.4158 L 310.6984 309.7135 L 309.3759 312.2001 L 308.2646 314.9657 L 306.2327 318.6775 L 305.044 321.4144 L 304.2356 322.7088 L 302.7682 324.5184 L 298.5057 329.15 L 297.5505 330.3689 L 296.7409 331.6622 L 295.5466 334.4086 L 293.5255 338.1322 L 292.4285 340.8999 L 290.851 344.0508 L 290.3652 345.4282 L 289.4287 349.8544 L 288.8786 351.2041 L 288.1437 352.3911 L 286.7134 354.1656 L 279.4052 361.7415 L 277.9457 363.4362 L 275.9291 366.1081 L 273.7815 366.6648 L 271.9859 366.9043 L 262.6813 367.3184 L 260.8271 367.5313 L 258.8655 367.9167 L 258.4584 366.3689 L 257.8193 364.9733 L 257.1215 363.8886 L 255.494 362.4154 L 255.0869 361.7958 L 253.168 359.7797 L 252.471 359.3145 L 250.1454 359.703 L 248.9825 359.703 L 247.3551 359.1602 L 246.1339 359.1602 L 245.5531 359.703 L 243.8087 358.927 L 242.8786 359.0047 L 242.1804 359.703 L 241.5996 361.4084 L 240.7861 363.3457 L 240.7861 364.2761 L 239.9717 364.5082 L 238.751 364.1207 L 237.6465 364.1207 L 236.8326 364.7413 L 236.1927 364.819 L 235.3791 365.4385 L 234.8558 366.5232 L 234.2163 366.5232 L 232.4723 364.7413 L 231.1929 363.8886 L 230.6699 363.7332 L 228.3451 364.2761 L 226.8913 363.8109 L 226.6007 363.5011 L 225.4965 363.5011 L 225.089 363.268 L 223.2288 363.3457 L 222.2987 362.9583 L 221.0197 362.8028 L 220.3219 363.268 L 219.217 364.3538 L 218.1128 364.9733 L 216.2526 364.6636 L 215.8454 364.2761 L 213.5781 363.8886 L 211.6021 363.8886 L 211.078 364.3538 L 210.09 364.7413 L 209.8577 365.2757 L 208.7535 365.5162 L 207.2997 365.5162 L 206.3113 365.7483 L 205.3225 366.9118 L 203.9857 367.2993 L 203.0556 366.8341 L 201.486 366.5232 L 199.4513 366.5477 L 198.1201 366.3678 L 198.4713 363.614 L 198.6618 359.9085 L 198.6562 345.1089 L 198.8825 340.638 L 199.4198 338.0885 L 201.1571 334.2287 L 202.3135 330.5754 L 203.5566 327.4607 L 204.5186 326.2855 L 206.0455 325.123 L 207.9176 324.1756 L 210.8948 322.4778 L 212.2923 321.9626 L 213.8475 321.673 L 216.2558 321.5006 L 220.3494 321.4665 L 224.4487 321.5559 L 226.8629 321.7369 L 228.4186 321.9828 L 229.8824 322.4118 L 232.2328 323.6104 L 233.4475 324.1043 L 234.8542 324.2917 L 236.2825 324.0692 L 237.6373 323.4028 L 238.8564 322.465 L 240.5685 320.8108 L 245.6234 315.4479 L 247.397 313.8075 L 248.6508 312.858 L 249.9725 312.1235 L 252.5856 310.9163 L 255.6106 309.1844 L 258.8995 307.7186 L 261.184 306.2688 L 263.3931 305.0169 L 264.5312 303.9482 L 266.5937 302.9337 L 270.7828 301.4402 L 273.8733 299.9074 L 275.2928 299.4113 L 276.8915 299.1015 L 280.97 298.6353 L 282.5611 298.3245 L 283.9658 297.8337 L 286.4336 296.6341 L 287.8695 296.1316 L 289.5133 295.8165 L 292.0553 295.6004 L 297.7692 295.5887 L 300.0713 295.7931 L 301.5531 296.0944 L 302.9115 296.6043 L 305.9373 298.2681 L 308.6406 299.4358 L 312.7646 301.7383 Z" fill="#000000" fill-opacity="1" stroke="#000000" stroke-width="0" paint-order="fill" stroke-opacity="1" stroke-dasharray="" stroke-linecap="butt" stroke-linejoin="miter" stroke-miterlimit="10" clip-path="none"/>
<path data-code="207" d="M 456.2354 135.1177 L 454.2403 135.964 L 452.2555 136.4962 L 452.0244 136.8497 L 450.8871 136.3078 L 449.4337 136.3078 L 448.3292 135.8426 L 447.2242 134.9123 L 446.7013 134.99 L 445.8291 134.4471 L 444.4922 134.0596 L 443.6783 132.8972 L 442.1662 132.0445 L 441.1786 131.6571 L 439.9575 131.5794 L 439.3176 132.1989 L 439.3176 132.7418 L 438.7946 133.5944 L 437.9228 134.2917 L 436.5856 134.8346 L 436.3532 136.0747 L 435.5976 136.2301 L 434.7254 135.3775 L 435.4231 134.6802 L 435.0164 133.5167 L 433.5621 132.3543 L 433.6791 131.0365 L 433.2719 130.0284 L 431.9929 128.4008 L 429.4933 127.3161 L 429.3188 126.6955 L 427.7492 124.9902 L 426.3537 123.9831 L 425.3074 123.6723 L 424.7258 122.8197 L 425.4232 120.96 L 426.5864 119.9519 L 426.5864 119.0215 L 426.0631 117.8591 L 424.3773 116.2315 L 423.6795 115.844 L 422.3423 116.3092 L 422.0517 116.619 L 421.0054 116.0761 L 418.9704 115.9984 L 418.5057 115.7663 L 418.3313 114.9914 L 417.5173 114.6816 L 417.6335 113.829 L 416.9357 112.8986 L 415.8895 112.278 L 415.3661 112.2003 L 414.4356 111.271 L 412.7503 111.271 L 412.5175 110.8824 L 412.692 109.0228 L 411.8202 108.0147 L 412.6337 106.93 L 412.4597 106.2317 L 411.5878 105.7665 L 411.413 105.0693 L 411.8781 104.7595 L 411.8202 103.0542 L 412.1687 102.6667 L 413.2732 102.8988 L 413.7965 102.589 L 413.6221 101.6586 L 414.5522 101.3489 L 415.25 100.4185 L 415.4244 99.4104 L 416.1218 99.5658 L 417.1102 98.6355 L 417.6918 98.9463 L 417.8662 98.0936 L 419.0286 97.3176 L 419.7268 97.241 L 420.4821 98.1703 L 421.4122 98.7132 L 422.0517 98.6355 L 422.4588 97.3176 L 423.0396 97.1633 L 423.5051 98.4811 L 423.9123 98.8686 L 425.1908 98.7132 L 425.4232 98.0159 L 424.9581 96.5427 L 426.3537 96.6981 L 426.4124 97.3953 L 427.2842 97.6285 L 427.6327 97.0856 L 428.6793 97.4731 L 430.5395 97.5508 L 431.1211 96.2329 L 431.7606 97.0079 L 431.8768 97.9382 L 431.1786 99.1007 L 431.5279 101.0391 L 431.9351 101.5809 L 432.923 101.9684 L 433.9114 102.0461 L 434.6092 100.4185 L 434.3186 99.2561 L 435.0164 98.248 L 435.8299 99.3338 L 437.3416 99.9533 L 437.5157 99.3338 L 438.504 98.5578 L 439.4924 98.4811 L 439.8417 98.1703 L 440.5391 99.1007 L 441.2365 99.2561 L 441.5271 99.799 L 442.3989 98.7909 L 442.5154 100.5739 L 443.1553 100.8837 L 444.6666 100.7283 L 444.6666 99.7213 L 445.1896 99.1007 L 446.4107 99.8756 L 447.2242 99.1007 L 447.8058 99.2561 L 449.4337 98.9463 L 450.2476 99.2561 L 450.8871 98.8686 L 451.8751 100.3408 L 452.5146 99.7213 L 453.5613 99.7213 L 454.0846 100.3408 L 455.4215 99.9533 L 455.5376 101.1157 L 457.2238 101.814 L 457.9798 101.6586 L 457.9798 101.1934 L 461.2352 101.2712 L 461.4096 101.6586 L 462.8052 101.8918 L 463.0954 102.6667 L 463.851 102.8988 L 464.5488 102.589 L 464.8394 103.0542 L 466.1188 103.3639 L 466.409 103.9845 L 467.0481 103.9845 L 467.688 104.372 L 468.9091 103.5194 L 469.4903 104.9916 L 471.0599 105.379 L 473.0363 105.5344 L 475.304 106.5425 L 475.4785 106.2317 L 476.5247 106.3871 L 477.8037 107.0077 L 479.6639 107.0077 L 480.129 107.2398 L 481.3501 106.8523 L 482.2219 107.3952 L 482.687 107.3952 L 483.5592 108.0924 L 483.8498 108.7897 L 484.6054 108.8674 L 485.2449 110.1075 L 484.7803 110.8824 L 483.9659 111.6585 L 483.6753 112.9763 L 483.8498 113.7513 L 482.9776 114.4485 L 483.0358 116.7744 L 482.1057 117.4716 L 481.4662 118.3243 L 480.2451 118.8672 L 479.4316 119.6421 L 479.1989 120.4171 L 478.2688 120.185 L 477.6293 120.4171 L 477.3387 121.0377 L 475.6521 122.2778 L 475.1296 122.8974 L 474.7224 122.6653 L 473.9668 122.8974 L 473.2686 123.8277 L 472.1645 124.6804 L 471.1182 124.9124 L 470.6527 124.6804 L 469.432 124.6027 L 468.7347 125.3776 L 467.8624 125.2233 L 466.8158 127.7812 L 465.944 128.0133 L 465.3045 127.7812 L 464.4905 128.7116 L 463.9672 128.091 L 462.5142 128.3231 L 461.8751 129.0214 L 461.8164 129.5643 L 461.0607 129.5643 L 460.828 130.2615 L 459.7235 131.1919 L 458.9091 130.9588 L 458.2118 132.0445 L 458.1539 133.207 L 457.6306 133.207 L 456.9907 134.0596 L 456.3516 134.215 L 456.2354 135.1177 Z M 434.0272 137.6257 L 434.0863 138.1675 L 433.5621 138.8658 L 432.458 139.2533 L 432.1678 138.3229 L 432.923 137.8577 L 434.0272 137.6257 Z" fill="#000000" fill-opacity="1" stroke="#000000" stroke-width="0" paint-order="fill" stroke-opacity="1" stroke-dasharray="" stroke-linecap="butt" stroke-linejoin="miter" stroke-miterlimit="10" clip-path="none"/>
<path data-code="208" d="M 220.9267 419.388 L 221.7753 419.2337 L 222.1821 418.6131 L 224.2171 416.9077 L 224.5077 416.1328 L 224.6822 414.815 L 225.089 414.1944 L 226.0773 414.04 L 226.8913 413.3417 L 227.4725 412.4124 L 227.9958 412.7999 L 228.5191 411.4043 L 228.5774 410.2419 L 228.2281 409.3115 L 227.1819 409.7767 L 226.9496 408.3812 L 227.1819 408.0714 L 227.298 406.0563 L 227.5886 405.7455 L 227.3559 404.8928 L 226.7168 404.9705 L 226.7751 403.9625 L 226.0191 403.1098 L 226.1939 401.5599 L 226.6007 401.4822 L 227.124 400.7072 L 228.2281 401.3278 L 229.3331 399.8546 L 230.0305 400.3198 L 230.0887 401.1724 L 230.4955 401.7153 L 231.1929 401.3278 L 232.0072 401.8697 L 233.1114 401.6376 L 233.5185 402.3349 L 234.2746 401.9474 L 234.5656 401.017 L 235.9021 401.017 L 236.425 400.3975 L 237.0066 400.5518 L 237.6465 399.6225 L 238.4021 399.3117 L 238.751 398.227 L 238.6928 396.444 L 238.46 395.669 L 237.8205 394.563 L 239.3155 393.8828 L 241.3944 394.001 L 243.0475 394.5332 L 247.367 397.8384 L 249.2005 398.8944 L 250.6116 399.3479 L 253.5017 399.9291 L 254.9084 400.3283 L 258.0045 401.8122 L 259.335 402.2891 L 263.6486 403.2226 L 265.702 404.2648 L 267.5127 405.7976 L 269.1102 407.5764 L 270.4024 409.5617 L 271.5412 412.3219 L 273.5156 416.0689 L 274.6169 418.8419 L 276.5981 422.59 L 278.5605 427.9816 L 279.172 430.0095 L 271.3736 438.0485 L 268.1302 436.1495 L 264.8517 434.6752 L 261.8255 433.0167 L 259.6791 432.3397 L 258.1179 432.1353 L 255.7196 432.0267 L 246.7607 432.1257 L 243.5345 432.0672 L 241.1777 431.8053 L 239.6759 431.4008 L 238.4105 430.8111 L 236.0086 429.4719 L 233.3473 428.3063 L 230.3626 426.5382 L 227.7779 425.3055 L 226.457 424.5593 L 223.992 422.5176 L 220.9267 419.388 Z" fill="#000000" fill-opacity="1" stroke="#000000" stroke-width="0" paint-order="fill" stroke-opacity="1" stroke-dasharray="" stroke-linecap="butt" stroke-linejoin="miter" stroke-miterlimit="10" clip-path="none"/>
<path data-code="209" d="M 453.5445 191.8711 L 450.6816 194.0128 L 448.1635 195.2753 L 446.9695 196.0162 L 445.4993 197.5022 L 444.7732 198.7264 L 444.1892 200.9267 L 443.7745 205.536 L 443.5226 207.0465 L 443.0835 208.441 L 441.931 210.9979 L 441.482 212.3923 L 441.2145 213.9039 L 440.7203 218.5494 L 440.1267 220.7805 L 439.3803 222.1591 L 436.5644 225.855 L 435.7932 227.1515 L 435.3525 228.5566 L 435.3026 229.9682 L 435.5696 231.2445 L 436.1712 232.9168 L 436.3772 234.076 L 435.9944 235.8772 L 434.4276 239.6316 L 433.2608 241.4157 L 431.7191 242.7974 L 428.6442 244.3835 L 427.5436 245.1829 L 426.5864 246.1921 L 425.8371 247.4035 L 425.3661 248.8608 L 425.1449 250.3936 L 425.0563 252.7674 L 425.1509 256.8168 L 422.3231 256.0312 L 419.2713 254.4536 L 417.184 253.7787 L 415.6827 253.5722 L 413.3938 253.5094 L 411.8753 253.6212 L 410.3891 253.9011 L 409.0207 254.4099 L 406.0132 256.1195 L 403.3898 257.4022 L 402.114 258.2687 L 398.5098 261.2983 L 396.547 262.532 L 395.1454 263.0153 L 392.2685 263.6359 L 390.867 264.0457 L 387.7697 265.5371 L 386.4344 266.0257 L 382.827 266.7879 L 381.4159 267.2136 L 377.7486 269.1563 L 375.0749 270.3337 L 371.4602 272.567 L 367.565 274.5214 L 369.0607 267.5383 L 369.5833 266.1683 L 371.1333 262.9961 L 371.5417 261.5058 L 371.8451 258.3879 L 371.7081 256.0503 L 371.366 254.5462 L 370.7245 253.2017 L 369.84 252.1096 L 368.2296 250.8716 L 366.3738 250.02 L 365.2114 249.3536 L 363.7748 247.9591 L 363.1089 246.7573 L 362.9109 246.042 L 362.8498 244.5783 L 363.1764 243.2072 L 364.3328 240.7887 L 364.8426 239.4709 L 365.6996 235.776 L 366.1347 234.3187 L 367.9163 230.4738 L 368.3302 229.0186 L 369.1063 225.2918 L 369.5992 223.9176 L 371.0966 220.7316 L 371.5209 219.2785 L 372.154 216.299 L 372.5863 214.8641 L 374.3428 211.0628 L 374.6857 209.5736 L 374.7946 208.0396 L 374.5587 205.7467 L 374.0969 204.3416 L 372.485 201.245 L 371.3221 198.505 L 369.2787 194.7803 L 368.1782 191.9775 L 366.6605 188.833 L 367.6101 187.0553 L 368.9562 185.1701 L 371.5457 182.2523 L 374.8405 178.9301 L 376.5606 177.4121 L 377.7662 176.535 L 378.9214 175.9069 L 381.0491 174.9606 L 382.825 173.7779 L 384.4968 172.344 L 387.6556 169.191 L 389.0683 167.4932 L 389.8527 166.2552 L 390.4023 164.8479 L 390.675 163.3299 L 390.7648 161.7768 L 390.5967 158.6291 L 390.1357 155.4538 L 390.6586 155.2206 L 391.5312 154.368 L 392.1703 154.2136 L 393.5655 153.2833 L 394.4956 153.2056 L 395.0772 152.7404 L 397.1693 152.1208 L 400.5412 152.1208 L 401.1232 151.9654 L 401.9946 152.5083 L 404.088 154.2136 L 403.9135 155.2983 L 405.1925 155.1429 L 406.5877 155.8412 L 405.8324 156.5385 L 406.4715 157.0814 L 407.2854 156.4608 L 409.0878 156.6939 L 410.0757 157.1591 L 411.2964 157.2357 L 412.6337 156.6939 L 413.6221 156.7716 L 414.9011 155.7635 L 415.4244 155.7635 L 416.1801 155.2206 L 417.5173 155.0663 L 418.6219 155.2983 L 420.0378 156.7716 L 419.2809 157.026 L 417.8459 157.9117 L 418.0606 159.2114 L 418.5125 160.4686 L 419.2099 161.3606 L 420.2669 162.0462 L 421.5942 162.4315 L 426.6578 162.9648 L 428.0949 163.3683 L 430.106 164.5669 L 431.3215 165.6005 L 437.5751 172.0375 L 440.0146 174.0728 L 442.0516 175.0606 L 446.2478 176.0016 L 447.5188 176.619 L 448.585 177.5079 L 449.4437 178.6203 L 450.0321 179.9647 L 450.3287 181.4433 L 450.6971 186.0313 L 451.2181 188.2635 L 451.8603 189.5473 L 453.5445 191.8711 Z" fill="#000000" fill-opacity="1" stroke="#000000" stroke-width="0" paint-order="fill" stroke-opacity="1" stroke-dasharray="" stroke-linecap="butt" stroke-linejoin="miter" stroke-miterlimit="10" clip-path="none"/>
<path data-code="210" d="M 342.4799 339.581 L 343.117 343.8134 L 343.3325 347.257 L 343.3437 352.4123 L 343.0327 355.6878 L 342.3685 357.8774 L 340.7578 361.0007 L 339.6345 363.7502 L 337.623 367.4706 L 336.447 370.2117 L 335.1437 372.1906 L 333.5505 373.9811 L 331.7713 375.564 L 330.4736 376.4262 L 327.811 377.6238 L 325.3792 378.916 L 324.1006 379.4717 L 321.9171 379.9316 L 317.4207 380.3052 L 315.2292 380.8406 L 313.8851 381.5549 L 312.6484 382.4683 L 310.9088 384.032 L 308.7288 386.2972 L 307.2531 388.1143 L 306.1066 390.1432 L 305.6843 391.6516 L 305.426 393.9978 L 305.3757 396.3961 L 305.6543 404.6001 L 302.9778 403.443 L 300.1196 402.5648 L 298.784 402.0166 L 293.1934 399.1286 L 292.102 398.2781 L 291.1719 397.2306 L 290.4542 396.0001 L 289.9728 394.4161 L 289.4566 389.4183 L 289.1968 387.7715 L 288.7576 386.3068 L 287.6515 383.7244 L 287.204 382.2532 L 286.9362 380.5937 L 286.4619 375.5171 L 286.0795 373.8874 L 285.529 372.5802 L 283.5379 369.0919 L 282.6645 368.0785 L 282.1032 367.6942 L 280.1756 367.0001 L 275.9291 366.1081 L 277.9457 363.4362 L 279.4052 361.7415 L 286.7134 354.1656 L 288.1437 352.3911 L 288.8786 351.2041 L 289.4287 349.8544 L 290.3652 345.4282 L 290.851 344.0508 L 292.4285 340.8999 L 293.5255 338.1322 L 295.5466 334.4086 L 296.7409 331.6622 L 297.5505 330.3689 L 298.5057 329.15 L 302.7682 324.5184 L 304.2356 322.7088 L 305.044 321.4144 L 306.2327 318.6775 L 308.2646 314.9657 L 309.3759 312.2001 L 310.6984 309.7135 L 311.2952 308.4158 L 311.7223 306.9415 L 312.7646 301.7383 L 316.4898 302.4536 L 318.5544 303.2211 L 320.3455 304.3644 L 323.9721 307.114 L 324.2375 309.5868 L 324.4878 314.2418 L 324.7098 315.6789 L 325.1505 316.9776 L 325.9273 318.0069 L 328.4038 319.9305 L 329.7219 321.4548 L 330.4241 322.68 L 331.6129 325.3178 L 333.2938 328.423 L 334.4459 331.1853 L 335.6881 333.1206 L 337.2023 334.9057 L 338.8517 336.5908 L 340.5905 338.1631 L 342.4799 339.581 Z" fill="#000000" fill-opacity="1" stroke="#000000" stroke-width="0" paint-order="fill" stroke-opacity="1" stroke-dasharray="" stroke-linecap="butt" stroke-linejoin="miter" stroke-miterlimit="10" clip-path="none"/>
<path data-code="211" d="M 399.4335 370.2702 L 397.6519 370.8493 L 396.2807 371.5242 L 394.4042 372.9666 L 392.7683 374.7017 L 391.845 375.9706 L 391.1332 377.3246 L 389.9932 381.2505 L 389.291 382.3224 L 387.5841 383.2049 L 382.7113 383.8095 L 381.2834 384.2023 L 379.2639 385.3786 L 378.054 386.4069 L 376.9387 387.5512 L 375.9339 388.7913 L 374.7631 390.8192 L 373.9076 392.8747 L 372.3388 396.0192 L 371.871 397.4393 L 371.6155 398.9785 L 371.5046 401.3534 L 371.6095 403.7634 L 371.9449 406.6769 L 368.7214 408.6015 L 365.423 410.0365 L 361.8044 412.1111 L 359.0748 413.2065 L 353.9852 415.7485 L 351.9238 415.5739 L 350.4759 415.3067 L 349.1363 414.8565 L 346.0206 413.4524 L 344.4858 413.0681 L 342.0775 412.802 L 337.1771 412.5401 L 334.7992 412.1484 L 333.3952 411.6428 L 330.3658 410.0035 L 327.7244 408.8059 L 324.7042 407.1538 L 323.2719 406.6354 L 321.6345 406.3299 L 319.9503 406.1883 L 313.0684 406.0946 L 310.5068 405.9445 L 308.0187 405.4953 L 305.6543 404.6001 L 305.3757 396.3961 L 305.426 393.9978 L 305.6843 391.6516 L 306.1066 390.1432 L 307.2531 388.1143 L 308.7288 386.2972 L 310.9088 384.032 L 312.6484 382.4683 L 313.8851 381.5549 L 315.2292 380.8406 L 317.4207 380.3052 L 321.9171 379.9316 L 324.1006 379.4717 L 325.3792 378.916 L 327.811 377.6238 L 330.4736 376.4262 L 331.7713 375.564 L 333.5505 373.9811 L 335.1437 372.1906 L 336.447 370.2117 L 337.623 367.4706 L 339.6345 363.7502 L 340.7578 361.0007 L 342.3685 357.8774 L 343.0327 355.6878 L 343.3437 352.4123 L 343.3325 347.257 L 343.117 343.8134 L 342.4799 339.581 L 346.534 338.6038 L 347.9611 338.5282 L 349.3786 338.7634 L 350.628 339.2755 L 352.988 340.5784 L 355.6146 341.7802 L 358.6257 343.4674 L 360.0208 343.9869 L 361.5832 344.2892 L 363.1915 344.4361 L 369.7521 344.6 L 372.1484 344.7831 L 373.6621 345.0418 L 376.6872 346.0882 L 377.8564 346.2681 L 379.0316 346.0499 L 383.2478 344.2349 L 387.539 341.9825 L 389.9241 341.4098 L 393.2709 341.1926 L 405.2284 341.2352 L 411.0541 341.0681 L 408.6383 346.2234 L 407.8231 347.1963 L 405.8264 348.7505 L 404.9023 349.6904 L 404.0936 350.7901 L 403.4708 352.0866 L 402.1667 357.1238 L 400.7568 360.3375 L 400.2798 361.8448 L 399.8925 364.4539 L 399.4335 370.2702 Z" fill="#000000" fill-opacity="1" stroke="#000000" stroke-width="0" paint-order="fill" stroke-opacity="1" stroke-dasharray="" stroke-linecap="butt" stroke-linejoin="miter" stroke-miterlimit="10" clip-path="none"/>
<path data-code="212" d="M 528.7871 376.1622 L 525.3881 376.8563 L 521.918 377.1043 L 509.6686 377.2395 L 507.0979 377.1277 L 505.4229 376.8914 L 503.809 376.3879 L 501.8111 375.103 L 500.075 373.4297 L 497.8727 370.7067 L 497.1534 366.652 L 496.5075 364.4273 L 495.3088 362.4068 L 492.4618 358.6811 L 491.7277 357.2898 L 491.1684 355.0289 L 491.0243 353.4481 L 490.9481 345.7731 L 490.8263 344.0752 L 490.5473 342.4242 L 490.0551 340.9616 L 488.4508 337.8384 L 487.2872 335.1101 L 485.9619 332.6373 L 485.3759 331.3312 L 484.9503 329.7323 L 484.7216 328.0664 L 484.5871 323.7967 L 484.7447 321.2536 L 485.2669 318.8117 L 486.1866 316.8956 L 488.3039 313.5392 L 489.9349 312.4141 L 493.9547 311.3624 L 499.0236 309.458 L 503.3671 308.204 L 507.0787 306.3678 L 508.487 305.9526 L 512.0953 305.1745 L 513.4305 304.6582 L 516.4671 303.0029 L 519.15 301.8618 L 522.7539 299.7637 L 525.4085 298.5342 L 527.3313 297.2195 L 530.3735 294.6999 L 531.6206 293.794 L 534.1761 292.4698 L 535.3629 291.7214 L 536.8231 290.2375 L 537.5496 289.0347 L 538.0275 287.6285 L 538.6278 284.7149 L 539.0685 283.2843 L 539.72 282.0175 L 541.3998 279.6725 L 544.1266 279.7129 L 546.1313 279.9492 L 547.4171 280.3399 L 548.6673 281.0414 L 550.3471 282.422 L 554.5321 286.6097 L 556.1788 288.0394 L 557.3532 288.826 L 560.5778 290.4472 L 561.725 291.285 L 565.0319 294.0931 L 566.1787 294.9309 L 569.4057 296.5478 L 570.5829 297.3313 L 572.2384 298.7513 L 576.4565 302.9252 L 578.1171 304.3431 L 579.848 305.3778 L 587.0321 308.386 L 585.0542 312.0468 L 583.1365 315.0349 L 582.1481 316.7987 L 581.3773 317.86 L 580.3366 318.636 L 576.3108 321.0492 L 573.0355 322.5299 L 571.2017 323.7722 L 569.492 325.2912 L 567.8389 326.9252 L 561.856 333.0929 L 559.7619 335.3752 L 557.9468 337.8011 L 557.2801 339.1381 L 556.1424 341.8281 L 553.7785 345.9732 L 552.5462 347.4699 L 550.3359 348.9059 L 549.2497 349.7703 L 544.4192 354.3348 L 542.759 355.7804 L 540.995 356.979 L 538.3532 358.2149 L 537.1624 358.9781 L 535.5002 360.3747 L 533.9785 361.9576 L 533.0712 363.0998 L 532.3068 364.3283 L 531.1419 367.0736 L 529.8626 369.5677 L 529.3109 370.8855 L 528.877 373.1571 L 528.7871 376.1622 Z" fill="#000000" fill-opacity="1" stroke="#000000" stroke-width="0" paint-order="fill" stroke-opacity="1" stroke-dasharray="" stroke-linecap="butt" stroke-linejoin="miter" stroke-miterlimit="10" clip-path="none"/>
<path data-code="213" d="M 506.925 221.1627 L 496.179 232.2249 L 488.7621 239.7125 L 487.1558 241.486 L 485.797 243.4265 L 485.0298 245.6641 L 484.8501 247.231 L 484.8717 249.607 L 485.0485 251.1643 L 485.385 252.6514 L 485.9191 253.9511 L 486.8648 255.6032 L 487.3414 256.7241 L 487.436 258.0186 L 486.9219 259.2619 L 485.8413 260.0049 L 484.5775 260.2742 L 482.4682 260.3285 L 476.3004 260.1901 L 473.2403 260.5191 L 471.8746 260.9491 L 467.407 263.0015 L 460.858 263.3825 L 458.4046 263.6678 L 456.841 264.0745 L 453.1018 265.8128 L 450.2776 266.5877 L 447.5236 263.6987 L 446.378 262.7183 L 444.5325 261.7368 L 443.2811 261.674 L 440.5423 262.6747 L 439.2569 262.9504 L 437.938 262.9919 L 436.6802 262.7566 L 435.61 262.1424 L 435.2247 261.6825 L 433.9202 258.5029 L 433.545 258.0196 L 432.4815 257.3267 L 431.1842 256.9637 L 429.7591 256.8029 L 425.1509 256.8168 L 425.0563 252.7674 L 425.1449 250.3936 L 425.3661 248.8608 L 425.8371 247.4035 L 426.5864 246.1921 L 427.5436 245.1829 L 428.6442 244.3835 L 431.7191 242.7974 L 433.2608 241.4157 L 434.4276 239.6316 L 435.9944 235.8772 L 436.3772 234.076 L 436.1712 232.9168 L 435.5696 231.2445 L 435.3026 229.9682 L 435.3525 228.5566 L 435.7932 227.1515 L 436.5644 225.855 L 439.3803 222.1591 L 440.1267 220.7805 L 440.7203 218.5494 L 441.2145 213.9039 L 441.482 212.3923 L 441.931 210.9979 L 443.0835 208.441 L 443.5226 207.0465 L 443.7745 205.536 L 444.1892 200.9267 L 444.7732 198.7264 L 445.4993 197.5022 L 446.9695 196.0162 L 448.1635 195.2753 L 450.6816 194.0128 L 453.5445 191.8711 L 456.3739 192.6333 L 459.4429 194.1651 L 460.8368 194.6558 L 462.3968 194.9368 L 464.0023 195.0677 L 470.5494 195.1657 L 473.7564 195.4371 L 475.2817 195.8203 L 478.381 197.3021 L 479.6935 197.796 L 483.9651 198.8403 L 485.3631 199.4939 L 486.6788 200.4275 L 488.5095 202.0838 L 492.0586 205.5945 L 493.9471 207.138 L 494.6214 207.5627 L 497.2648 208.8039 L 500.2994 210.4486 L 501.6382 210.951 L 503.7982 211.413 L 504.7906 211.8856 L 505.7039 212.6052 L 506.4388 213.9518 L 506.8815 216.4693 L 506.925 221.1627 Z" fill="#000000" fill-opacity="1" stroke="#000000" stroke-width="0" paint-order="fill" stroke-opacity="1" stroke-dasharray="" stroke-linecap="butt" stroke-linejoin="miter" stroke-miterlimit="10" clip-path="none"/>
<path data-code="214" d="M 416.4707 61.3517 L 417.5173 61.8946 L 417.5173 62.4364 L 418.0407 63.057 L 419.6677 63.5222 L 420.017 64.1417 L 421.1216 63.9873 L 421.4704 64.5292 L 422.4005 64.0651 L 422.5754 65.0721 L 423.0396 65.3818 L 422.5171 66.3122 L 422.6912 66.8551 L 424.3773 66.623 L 423.331 67.63 L 423.0987 68.4827 L 421.9938 68.7925 L 421.9355 69.3354 L 421.0054 69.4131 L 420.831 70.3434 L 419.9587 70.2657 L 417.9824 71.8156 L 416.5289 71.6613 L 415.7733 71.8156 L 415.3082 73.0557 L 414.4356 72.9791 L 414.2616 73.4432 L 412.8082 73.8318 L 412.6337 74.2192 L 411.2964 74.7611 L 410.8314 74.1415 L 408.855 74.3736 L 407.6922 74.7611 L 407.0527 75.8468 L 407.1693 76.6218 L 407.6922 77.1647 L 407.5178 78.0951 L 406.9948 78.0951 L 406.1809 78.6369 L 405.5414 78.6369 L 404.4369 79.4118 L 401.8789 80.0324 L 401.4138 80.5753 L 401.4138 81.1948 L 400.9488 81.5823 L 400.251 81.5057 L 400.0187 81.0405 L 398.8559 81.0405 L 398.2743 82.2806 L 397.402 81.66 L 396.5302 81.8154 L 396.0652 82.9002 L 395.484 81.9698 L 394.67 82.2029 L 393.8557 81.3503 L 392.9843 81.1948 L 392.1703 81.428 L 391.5312 81.1171 L 390.8331 81.3503 L 388.798 82.5904 L 387.9845 82.2806 L 387.345 81.1948 L 386.4732 80.3422 L 385.8333 80.3422 L 385.3682 79.8004 L 384.2058 80.1101 L 383.8573 78.87 L 383.2174 78.0173 L 382.6358 78.0173 L 381.2989 77.0093 L 380.4263 77.087 L 379.3805 76.1566 L 379.7289 75.1485 L 379.206 74.6067 L 379.206 74.0638 L 379.9613 74.0638 L 380.2523 73.6763 L 380.1361 72.3585 L 380.5437 71.971 L 380.6012 70.1103 L 379.5549 69.3354 L 379.7289 68.3283 L 378.4504 67.3203 L 379.0316 66.5453 L 378.5082 65.9247 L 379.1477 65.4595 L 379.2643 64.7623 L 378.7992 64.0651 L 380.02 63.2124 L 380.1361 62.6695 L 381.9384 62.5918 L 382.9847 60.9642 L 384.5543 60.8088 L 384.2058 61.8168 L 384.7287 62.0489 L 383.6825 63.3667 L 384.787 63.6765 L 386.3566 63.6765 L 386.9382 63.289 L 387.8683 63.2124 L 388.2751 62.5918 L 388.333 60.8088 L 389.9612 60.3436 L 391.9372 60.2659 L 392.112 59.9561 L 393.9722 59.7241 L 394.0305 59.1035 L 394.8449 58.6383 L 395.7746 60.0338 L 396.7043 60.2659 L 397.9258 58.9491 L 398.9137 59.1812 L 399.3209 58.4062 L 399.4371 57.5536 L 400.8905 57.2438 L 401.2977 56.7009 L 402.4597 57.3204 L 403.3898 58.3285 L 403.3898 58.9491 L 404.7857 59.4909 L 405.7733 58.9491 L 406.1809 58.2508 L 406.8204 58.716 L 406.7621 60.1892 L 407.576 59.9561 L 409.0878 60.1115 L 409.1452 59.4909 L 408.7393 58.7937 L 409.6107 58.6383 L 410.0179 60.0338 L 409.4945 60.2659 L 410.7152 61.3517 L 411.8781 62.0489 L 412.8082 62.0489 L 412.692 61.3517 L 413.6804 60.7311 L 415.1917 61.3517 L 416.4707 61.3517 Z M 410.7735 57.8633 L 411.0637 58.0965 L 410.8314 59.0258 L 410.2502 58.6383 L 410.7735 57.8633 Z M 370.2531 62.5918 L 371.067 62.6695 L 371.1832 63.3667 L 370.3693 63.9873 L 370.8343 65.5372 L 370.0208 65.3052 L 369.0328 64.1417 L 369.2651 63.5222 L 369.7881 63.5222 L 370.2531 62.5918 Z M 373.6833 88.6367 L 374.4968 89.0242 L 374.7882 90.0312 L 374.4968 90.342 L 373.6833 89.7214 L 372.5788 90.2643 L 371.9971 90.8072 L 370.8347 90.4964 L 369.8463 90.8838 L 369.4979 91.349 L 366.765 93.2098 L 366.0094 92.4348 L 366.1259 91.4267 L 366.7068 90.4197 L 367.3463 90.1089 L 368.7414 89.9545 L 369.5557 89.2562 L 370.4858 89.2562 L 372.6366 88.9465 L 373.6833 88.6367 Z M 376.9969 93.0543 L 377.2293 93.907 L 378.3921 94.7597 L 378.9733 95.7677 L 380.3688 95.3026 L 380.7177 96.7758 L 381.5313 97.5508 L 382.8103 97.5508 L 383.1009 97.9382 L 383.9731 97.7051 L 383.9148 98.4811 L 383.2174 98.7132 L 382.6941 99.4104 L 382.1708 99.3338 L 381.4151 99.7213 L 381.1828 100.5739 L 380.5437 100.6516 L 379.1477 101.7363 L 378.6827 102.589 L 378.4504 104.0612 L 379.2643 105.147 L 380.4854 106.2317 L 381.1828 106.3871 L 380.8339 107.0843 L 380.1361 106.93 L 379.3805 107.7049 L 378.0428 108.0924 L 377.3454 108.0147 L 376.9969 108.4799 L 375.2533 109.488 L 374.0901 109.3325 L 373.5089 110.0298 L 372.9855 111.6585 L 372.1137 112.3557 L 371.1249 112.5878 L 370.5437 111.9682 L 370.8922 111.503 L 371.3573 109.7977 L 371.3573 109.0228 L 370.7182 108.4799 L 370.0787 107.5495 L 369.2651 107.3175 L 369.3813 106.3871 L 368.7414 105.3024 L 369.3813 104.7595 L 369.5557 103.9068 L 370.4858 103.6737 L 370.7764 102.9765 L 371.6483 102.6667 L 372.1137 102.0461 L 372.2874 100.5739 L 372.5788 100.1087 L 372.6949 97.7051 L 373.3344 97.4731 L 373.9739 96.6204 L 373.9739 96.1552 L 374.8457 95.1471 L 375.7183 94.5276 L 375.7183 93.9847 L 376.2413 93.2875 L 376.9969 93.0543 Z M 390.7748 95.7677 L 391.647 96.3106 L 391.1819 97.0079 L 390.8913 98.0936 L 391.4143 99.023 L 390.4842 100.5739 L 390.3097 101.5809 L 391.2981 102.4336 L 390.6586 103.3639 L 390.7169 104.0612 L 390.4263 105.147 L 388.4495 104.1389 L 388.7401 103.2862 L 389.4954 102.2015 L 389.0303 100.1864 L 389.4379 99.799 L 389.3796 98.7132 L 390.4842 98.248 L 390.7169 96.9302 L 390.3097 96.3106 L 390.7748 95.7677 Z M 398.6814 100.4962 L 398.4487 101.0391 L 398.3325 102.589 L 398.7976 103.2862 L 398.972 104.0612 L 399.8438 104.7595 L 401.2977 104.9916 L 402.1112 103.9068 L 402.5767 103.8291 L 403.0996 104.9916 L 403.6229 105.5344 L 404.7857 105.2247 L 405.0181 105.9219 L 404.7275 107.0077 L 403.7974 107.7049 L 403.3323 108.7897 L 402.809 108.9451 L 401.9946 109.8754 L 401.0067 111.4253 L 401.1811 112.4334 L 401.9946 113.1307 L 402.2274 114.7583 L 402.9247 114.836 L 403.2162 115.5343 L 404.2624 115.2234 L 403.8552 117.0065 L 403.0417 116.619 L 402.5184 115.9984 L 401.9946 116.3869 L 401.3556 115.6109 L 400.0762 115.4566 L 400.251 114.7583 L 399.5532 114.3708 L 398.507 115.1457 L 397.3442 115.2234 L 396.9374 115.5343 L 395.7163 114.6816 L 394.4956 114.7583 L 393.391 115.3012 L 391.5887 114.1387 L 389.9612 113.5181 L 389.9612 112.5111 L 390.3097 112.1236 L 390.1353 110.8824 L 390.7169 110.2629 L 390.4842 108.6353 L 391.5887 108.8674 L 392.7515 109.5657 L 394.4956 109.6423 L 395.7746 109.0228 L 396.0652 107.6272 L 395.6584 107.0843 L 395.3678 106.0773 L 394.9027 105.6122 L 394.9606 104.6818 L 394.4956 103.9845 L 394.4956 102.0461 L 394.0884 101.4266 L 396.2396 101.2712 L 397.1118 101.5809 L 398.0419 100.4962 L 398.6814 100.4962 Z M 387.1123 112.1236 L 386.9382 113.2084 L 386.2408 112.4334 L 387.1123 112.1236 Z M 407.4599 112.8986 L 408.3317 115.2234 L 408.0994 116.0761 L 407.6343 116.3869 L 407.4016 117.2396 L 408.2742 118.6341 L 406.9948 119.177 L 405.8907 118.8672 L 405.8907 117.9368 L 404.8436 117.0065 L 405.0764 116.3869 L 405.5993 116.2315 L 406.123 115.5343 L 406.2392 114.5262 L 406.9365 113.9833 L 407.4599 112.8986 Z" fill="#000000" fill-opacity="1" stroke="#000000" stroke-width="0" paint-order="fill" stroke-opacity="1" stroke-dasharray="" stroke-linecap="butt" stroke-linejoin="miter" stroke-miterlimit="10" clip-path="none"/>
<path data-code="215" d="M 434.305 422.5091 L 433.7985 420.3035 L 433.2348 418.9473 L 432.4804 417.7306 L 431.173 416.0082 L 430.6916 413.7845 L 430.1894 412.4103 L 428.5755 409.2839 L 427.4442 406.5343 L 425.8463 403.4057 L 425.3593 401.9602 L 425.0875 400.3464 L 424.9705 398.6879 L 424.9689 391.9369 L 424.8236 389.4481 L 424.5238 387.8333 L 423.9318 386.3238 L 423.0776 384.9783 L 421.5379 383.125 L 415.3941 376.5901 L 413.9147 374.7879 L 411.9954 371.9894 L 410.9691 371.1655 L 409.7009 370.7035 L 407.5824 370.4161 L 399.4335 370.2702 L 399.8925 364.4539 L 400.2798 361.8448 L 400.7568 360.3375 L 402.1667 357.1238 L 403.4708 352.0866 L 404.0936 350.7901 L 404.9023 349.6904 L 405.8264 348.7505 L 407.8231 347.1963 L 408.6383 346.2234 L 411.0541 341.0681 L 411.9323 339.1924 L 414.3027 335.7275 L 415.0049 334.5214 L 416.1645 331.7697 L 418.2043 328.0483 L 419.3236 325.2785 L 421.3691 321.5613 L 422.4828 318.7904 L 423.7993 316.2995 L 424.3833 315.0061 L 424.7873 313.5446 L 425.5082 309.805 L 426.0072 308.4254 L 427.6362 305.298 L 428.7492 302.5281 L 430.791 298.8088 L 431.8991 296.0369 L 433.9166 292.3133 L 435.093 289.5701 L 435.8998 288.2746 L 436.8566 287.0558 L 441.1259 282.4231 L 443.018 279.9758 L 443.7126 278.6324 L 444.869 275.9393 L 446.572 272.8469 L 447.7352 270.0995 L 448.4789 268.8753 L 450.2776 266.5877 L 453.1018 265.8128 L 456.841 264.0745 L 458.4046 263.6678 L 460.858 263.3825 L 467.407 263.0015 L 470.6963 265.2007 L 471.9409 266.262 L 473.0794 267.4212 L 474.0793 268.6901 L 474.8586 270.1144 L 475.2905 271.6238 L 475.4785 273.1801 L 475.4102 276.3225 L 475.1747 277.8649 L 474.4693 279.9939 L 472.8778 283.1289 L 472.4459 284.6064 L 472.1996 286.1509 L 472.0826 288.5013 L 472.178 290.0534 L 472.4838 291.5671 L 473.1049 292.9371 L 474.5212 294.5264 L 475.706 295.2811 L 477.0884 295.7516 L 480.6339 296.452 L 481.9636 296.9257 L 485.033 298.5108 L 487.7342 299.6232 L 491.3429 301.6776 L 493.944 302.9305 L 495.0812 303.7576 L 496.5638 305.3086 L 497.4005 306.5392 L 499.0236 309.458 L 493.9547 311.3624 L 489.9349 312.4141 L 488.3039 313.5392 L 486.1866 316.8956 L 485.2669 318.8117 L 484.7447 321.2536 L 484.5871 323.7967 L 484.7216 328.0664 L 484.9503 329.7323 L 485.3759 331.3312 L 485.9619 332.6373 L 487.2872 335.1101 L 488.4508 337.8384 L 490.0551 340.9616 L 490.5473 342.4242 L 490.8263 344.0752 L 490.9481 345.7731 L 491.0243 353.4481 L 491.1684 355.0289 L 491.7277 357.2898 L 492.4618 358.6811 L 495.3088 362.4068 L 496.5075 364.4273 L 497.1534 366.652 L 497.8727 370.7067 L 491.7436 370.5428 L 489.4132 370.5949 L 487.1299 370.7982 L 484.9579 371.3177 L 481.2463 373.0826 L 479.7023 373.4967 L 478.0864 373.7139 L 474.7552 373.8448 L 465.4462 373.6277 L 462.1581 373.7213 L 459.8085 374.2951 L 458.5902 375.0445 L 457.5783 376.0526 L 456.8166 377.2948 L 456.3025 379.5537 L 456.4442 381.8583 L 456.8881 383.356 L 457.7008 384.7899 L 458.7211 386.0769 L 463.3389 390.9001 L 464.8634 392.8321 L 465.6146 394.1979 L 466.9711 397.3754 L 467.5631 399.1712 L 467.5447 400.4422 L 467.1659 401.6355 L 465.2753 406.068 L 463.3497 409.8342 L 462.9193 411.3064 L 462.3541 414.4913 L 459.1878 416.846 L 457.7795 418.4427 L 456.8102 420.3705 L 456.3053 422.5304 L 453.1569 425.776 L 448.9012 425.7334 L 445.588 425.4141 L 444.0188 425.0075 L 441.0373 423.6257 L 439.5667 423.1031 L 437.354 422.7188 L 434.305 422.5091 Z" fill="#000000" fill-opacity="1" stroke="#000000" stroke-width="0" paint-order="fill" stroke-opacity="1" stroke-dasharray="" stroke-linecap="butt" stroke-linejoin="miter" stroke-miterlimit="10" clip-path="none"/>
<path data-code="216" d="M 434.305 422.5091 L 431.1622 422.5059 L 428.0139 425.7515 L 424.8763 422.4995 L 421.8066 422.6858 L 419.5875 423.0722 L 418.2542 423.5629 L 415.2021 425.0628 L 413.7734 425.4088 L 412.298 425.5173 L 410.8214 425.4152 L 409.3891 425.0756 L 406.329 423.5906 L 405.0029 423.1063 L 403.5515 422.8114 L 399.063 422.3047 L 396.8935 421.7246 L 395.5386 420.9741 L 390.6666 417.0834 L 387.4308 415.3419 L 386.1985 414.4882 L 384.4657 412.9595 L 380.5832 409.1093 L 379.416 408.114 L 378.1558 407.2794 L 376.7554 406.7269 L 375.2792 406.496 L 373.7827 406.4896 L 371.9449 406.6769 L 371.6095 403.7634 L 371.5046 401.3534 L 371.6155 398.9785 L 371.871 397.4393 L 372.3388 396.0192 L 373.9076 392.8747 L 374.7631 390.8192 L 375.9339 388.7913 L 376.9387 387.5512 L 378.054 386.4069 L 379.2639 385.3786 L 381.2834 384.2023 L 382.7113 383.8095 L 387.5841 383.2049 L 389.291 382.3224 L 389.9932 381.2505 L 391.1332 377.3246 L 391.845 375.9706 L 392.7683 374.7017 L 394.4042 372.9666 L 396.2807 371.5242 L 397.6519 370.8493 L 399.4335 370.2702 L 407.5824 370.4161 L 409.7009 370.7035 L 410.9691 371.1655 L 411.9954 371.9894 L 413.9147 374.7879 L 415.3941 376.5901 L 421.5379 383.125 L 423.0776 384.9783 L 423.9318 386.3238 L 424.5238 387.8333 L 424.8236 389.4481 L 424.9689 391.9369 L 424.9705 398.6879 L 425.0875 400.3464 L 425.3593 401.9602 L 425.8463 403.4057 L 427.4442 406.5343 L 428.5755 409.2839 L 430.1894 412.4103 L 430.6916 413.7845 L 431.173 416.0082 L 432.4804 417.7306 L 433.2348 418.9473 L 433.7985 420.3035 L 434.305 422.5091 Z" fill="#000000" fill-opacity="1" stroke="#000000" stroke-width="0" paint-order="fill" stroke-opacity="1" stroke-dasharray="" stroke-linecap="butt" stroke-linejoin="miter" stroke-miterlimit="10" clip-path="none"/>
<path data-code="217" d="M 456.3053 422.5304 L 456.8102 420.3705 L 457.7795 418.4427 L 459.1878 416.846 L 462.3541 414.4913 L 467.9367 417.9105 L 469.1905 418.5396 L 470.5961 418.9931 L 473.467 419.636 L 474.8661 420.0714 L 478.5382 421.9822 L 481.2096 423.1425 L 484.8749 425.0862 L 486.2764 425.5397 L 489.8495 426.4115 L 491.1624 426.9257 L 494.2589 428.4245 L 495.8389 428.8311 L 498.3054 429.0493 L 499.9617 429.0025 L 501.5931 428.7981 L 503.1595 428.3798 L 506.2376 426.8778 L 507.6424 426.3626 L 509.2487 426.0336 L 510.9089 425.8537 L 514.3023 425.7058 L 519.4263 425.7036 L 521.9475 425.8527 L 524.3849 426.3136 L 526.5126 427.3632 L 530.73 430.8164 L 531.9982 431.6776 L 534.6184 432.9603 L 537.6411 434.639 L 539.6833 435.365 L 543.2596 436.2038 L 544.5761 436.7083 L 547.6797 438.2061 L 550.0238 438.7511 L 551.6492 438.9044 L 554.1178 438.9534 L 556.5744 438.8192 L 558.1743 438.5861 L 559.7064 438.1624 L 562.7917 436.6636 L 564.1976 436.158 L 565.7995 435.845 L 567.4533 435.6832 L 571.6851 435.5789 L 597.3634 435.663 L 601.6379 435.5661 L 605.3227 435.3266 L 606.7223 436.9958 L 607.9841 439.3355 L 609.4048 441.7178 L 610.8455 445.1551 L 612.8438 448.9085 L 613.9116 451.7432 L 616.3666 456.9944 L 616.5087 462.4882 L 616.5366 476.4948 L 611.8586 473.0426 L 610.0192 472.0101 L 607.828 471.5268 L 605.5782 471.6045 L 603.4837 472.2485 L 600.5026 473.957 L 597.8508 475.1599 L 594.259 477.2921 L 591.5844 478.4609 L 587.979 480.5558 L 585.3244 481.7576 L 583.2143 483.1361 L 580.4105 484.2539 L 579.0564 484.9266 L 577.8537 485.7324 L 575.627 487.6219 L 572.5589 487.7709 L 570.3263 488.1211 L 568.9674 488.5906 L 565.875 490.0787 L 564.4758 490.4982 L 561.5941 491.1241 L 560.1882 491.5648 L 556.5249 493.5202 L 553.8491 494.6774 L 550.1826 496.6264 L 548.7743 497.0607 L 545.1729 497.8517 L 543.8412 498.3488 L 540.7463 499.8604 L 539.338 500.2798 L 535.7326 501.0696 L 534.4013 501.5731 L 531.3104 503.0943 L 529.9025 503.5148 L 526.295 504.2961 L 524.9598 504.7921 L 521.8645 506.292 L 516.8883 507.5662 L 514.9746 508.537 L 512.7316 510.3009 L 509.8419 509.6515 L 508.5721 509.0746 L 506.1594 507.7674 L 504.207 506.9062 L 502.9947 506.1664 L 501.5193 504.6697 L 500.5317 502.7419 L 499.6419 498.3371 L 499.1669 496.9649 L 497.5813 493.8172 L 496.4919 491.0368 L 495.1846 488.5406 L 494.6046 487.2483 L 494.2022 485.7888 L 493.6665 482.7912 L 493.2745 481.3265 L 492.7065 480.0268 L 491.4179 477.5316 L 490.58 475.4686 L 489.8819 474.1124 L 488.4911 472.2251 L 486.9043 470.441 L 480.2084 463.4388 L 477.3511 460.6743 L 476.1323 459.7141 L 474.8154 458.9434 L 473.4167 458.4527 L 470.5031 457.7267 L 466.4278 458.2451 L 463.0603 458.4389 L 460.6264 458.4016 L 458.3619 458.0205 L 457.0346 457.3393 L 456.1312 456.3344 L 454.4427 453.5167 L 453.5701 451.5953 L 453.2523 450.0837 L 453.1812 448.5359 L 453.3198 446.9935 L 453.6894 445.4936 L 454.2642 444.1853 L 455.5903 441.7232 L 456.7771 438.9896 L 458.775 435.2532 L 460.0101 431.7414 L 460.6069 430.4002 L 459.5474 427.4813 L 458.9028 426.0751 L 458.1279 424.8318 L 456.3053 422.5304 Z" fill="#000000" fill-opacity="1" stroke="#000000" stroke-width="0" paint-order="fill" stroke-opacity="1" stroke-dasharray="" stroke-linecap="butt" stroke-linejoin="miter" stroke-miterlimit="10" clip-path="none"/>
<path data-code="218" d="M 499.0236 309.458 L 497.4005 306.5392 L 496.5638 305.3086 L 495.0812 303.7576 L 493.944 302.9305 L 491.3429 301.6776 L 487.7342 299.6232 L 485.033 298.5108 L 481.9636 296.9257 L 480.6339 296.452 L 477.0884 295.7516 L 475.706 295.2811 L 474.5212 294.5264 L 473.1049 292.9371 L 472.4838 291.5671 L 472.178 290.0534 L 472.0826 288.5013 L 472.1996 286.1509 L 472.4459 284.6064 L 472.8778 283.1289 L 474.4693 279.9939 L 475.1747 277.8649 L 475.4102 276.3225 L 475.4785 273.1801 L 475.2905 271.6238 L 474.8586 270.1144 L 474.0793 268.6901 L 473.0794 267.4212 L 471.9409 266.262 L 470.6963 265.2007 L 467.407 263.0015 L 471.8746 260.9491 L 473.2403 260.5191 L 476.3004 260.1901 L 482.4682 260.3285 L 484.5775 260.2742 L 485.8413 260.0049 L 486.9219 259.2619 L 487.436 258.0186 L 487.3414 256.7241 L 486.8648 255.6032 L 485.9191 253.9511 L 485.385 252.6514 L 485.0485 251.1643 L 484.8717 249.607 L 484.8501 247.231 L 485.0298 245.6641 L 485.797 243.4265 L 487.1558 241.486 L 488.7621 239.7125 L 496.179 232.2249 L 506.925 221.1627 L 508.6216 221.8738 L 509.5644 222.6828 L 511.4198 225.4292 L 513.1998 227.6657 L 516.0364 229.8521 L 518.5676 231.1306 L 519.774 231.863 L 521.2929 233.3043 L 522.0964 234.4571 L 523.2792 237.1386 L 524.5554 239.6284 L 525.1182 240.9367 L 525.5059 242.4078 L 526.0368 245.4129 L 526.4383 246.8723 L 527.0164 248.1656 L 528.3221 250.6608 L 529.4258 253.4317 L 530.7324 255.9258 L 531.3116 257.2181 L 531.716 258.6754 L 532.4349 262.4107 L 532.9255 263.7956 L 534.5442 266.9241 L 535.4092 268.9807 L 536.123 270.3347 L 537.0255 271.6185 L 539.4721 274.7236 L 540.3116 276.0468 L 540.9032 277.4647 L 541.3998 279.6725 L 539.72 282.0175 L 539.0685 283.2843 L 538.6278 284.7149 L 538.0275 287.6285 L 537.5496 289.0347 L 536.8231 290.2375 L 535.3629 291.7214 L 534.1761 292.4698 L 531.6206 293.794 L 530.3735 294.6999 L 527.3313 297.2195 L 525.4085 298.5342 L 522.7539 299.7637 L 519.15 301.8618 L 516.4671 303.0029 L 513.4305 304.6582 L 512.0953 305.1745 L 508.487 305.9526 L 507.0787 306.3678 L 503.3671 308.204 L 499.0236 309.458 Z" fill="#000000" fill-opacity="1" stroke="#000000" stroke-width="0" paint-order="fill" stroke-opacity="1" stroke-dasharray="" stroke-linecap="butt" stroke-linejoin="miter" stroke-miterlimit="10" clip-path="none"/>



















</svg>