<?xml version="1.0" standalone="no"?>
<!-- Generator: Paintmaps.com , Online SVG vector map maker -->
<svg xmlns="http://www.w3.org/2000/svg" version="1.1" baseProfile="full"   style="background-color:#e0f2f1" width="800" height="500" viewBox="0 0 800 533">

<path data-code="200" d="M 365.3455 246.4984 L 358.3508 252.7033 L 355.2088 256.0947 L 353.3551 258.5002 L 351.8209 261.0558 L 349.6913 266.2089 L 348.5035 268.5325 L 344.7662 275.0073 L 343.1719 276.899 L 342.1116 277.6109 L 339.7106 278.4887 L 335.7138 278.9866 L 328.542 278.9126 L 319.8016 278.1848 L 320.8439 272.4398 L 321.2623 265.9069 L 321.1138 261.0518 L 320.322 256.3506 L 319.8106 254.8569 L 318.4293 252.2353 L 313.1457 245.1866 L 311.5755 242.729 L 310.4297 240.1035 L 309.3799 236.0042 L 327.4172 235.9422 L 332.2434 236.1822 L 335.3838 236.5921 L 338.3938 237.376 L 344.2113 240.1535 L 346.6948 241.0973 L 356.1956 243.2949 L 365.3455 246.4984 Z" fill="#000000" fill-opacity="1" stroke="#000000" stroke-width="0" paint-order="fill" stroke-opacity="1" stroke-dasharray="" stroke-linecap="butt" stroke-linejoin="miter" stroke-miterlimit="10" transform="matrix(1.100000023841858,0,0,1.100000023841858,-40.000003814697266,-26.650188446044922)" clip-path="none" style="filter: url(#f1)"/>
<path data-code="201" d="M 223.3056 229.8173 L 192.621 229.8933 L 184.5839 229.4514 L 180.0068 228.4335 L 174.4067 225.784 L 171.6952 224.7302 L 162.2634 222.3766 L 156.8673 219.987 L 160.8926 211.1026 L 162.9428 205.8175 L 166.7566 198.8188 L 168.8877 193.6437 L 171.3158 188.9585 L 172.3791 186.5049 L 173.3194 182.2797 L 174.1863 173.5372 L 174.7022 170.6997 L 175.563 168.0902 L 177.7706 163.315 L 178.6315 160.7035 L 179.1534 157.862 L 180.0143 149.0876 L 180.5062 146.2061 L 181.2905 143.5945 L 183.6706 137.8395 L 194.9126 138.2455 L 198.1356 138.5414 L 201.2685 139.1253 L 204.2305 140.1971 L 209.7315 143.0426 L 216.0529 145.5502 L 219.0734 147.1939 L 222.5947 148.0217 L 228.6072 149.7934 L 236.7987 151.4711 L 239.2913 152.417 L 243.8955 154.7366 L 246.526 155.6544 L 250.9982 156.3503 L 261.7498 156.9382 L 266.207 157.674 L 268.8136 158.6179 L 274.5965 161.4694 L 278.6983 162.4112 L 282.9696 162.6372 L 287.2213 162.3152 L 291.2346 161.3094 L 295.6603 159.0878 L 297.9429 158.1759 L 300.575 157.834 L 303.2415 158.2499 L 304.5463 158.7778 L 306.9398 160.2776 L 314.671 167.0884 L 321.6972 172.2955 L 323.0995 173.1693 L 323.6949 173.7832 L 324.1703 174.5451 L 324.4672 175.4409 L 324.5197 176.4667 L 324.0158 178.4984 L 322.4276 182.8356 L 321.2728 188.9825 L 320.6429 191.4841 L 320.1915 192.7058 L 318.8312 195.1874 L 317.138 197.463 L 314.29 200.6804 L 297.0386 218.2953 L 285.3407 230.9011 L 278.5963 230.1712 L 271.6106 229.8913 L 223.3056 229.8173 Z" fill="#000000" fill-opacity="1" stroke="#000000" stroke-width="0" paint-order="fill" stroke-opacity="1" stroke-dasharray="" stroke-linecap="butt" stroke-linejoin="miter" stroke-miterlimit="10" transform="matrix(1.100000023841858,0,0,1.100000023841858,-40.000003814697266,-26.650188446044922)" clip-path="none" style="filter: url(#f1)"/>
<path data-code="202" d="M 261.9163 376.3194 L 261.4919 370.3405 L 260.55 367.627 L 259.6952 366.4452 L 257.636 365.0174 L 255.244 364.2936 L 248.1892 363.7536 L 249.1985 359.2904 L 250.3773 351.1319 L 251.1272 348.0244 L 251.7016 346.5547 L 252.447 345.1789 L 254.2811 342.7714 L 259.0698 338.6201 L 260.5635 336.5984 L 261.5534 333.9329 L 263.365 326.4422 L 265.2772 321.877 L 268.7026 319.7454 L 270.9762 317.9457 L 275.2984 313.9224 L 279.3927 309.6212 L 282.2152 306.2398 L 283.8454 303.8622 L 285.1232 301.3427 L 286.7609 297.4773 L 289.063 293.838 L 291.8495 290.4206 L 294.852 287.1412 L 297.9954 284.0317 L 300.2045 282.1421 L 302.5846 280.5303 L 303.8729 279.8965 L 306.6084 279.0886 L 310.8661 278.5967 L 319.8016 278.1848 L 328.542 278.9126 L 335.7138 278.9866 L 339.7106 278.4887 L 342.1116 277.6109 L 343.1719 276.899 L 344.7662 275.0073 L 348.5035 268.5325 L 349.6913 266.2089 L 351.8209 261.0558 L 353.3551 258.5002 L 355.2088 256.0947 L 358.3508 252.7033 L 365.3455 246.4984 L 367.1482 249.2319 L 369.5568 253.8531 L 371.0595 255.9467 L 373.834 258.6962 L 376.88 260.7978 L 384.2167 264.3712 L 386.5353 265.323 L 390.685 266.2389 L 397.7578 266.9587 L 401.8881 267.6886 L 404.3971 268.5885 L 410.1936 271.38 L 412.9936 272.1258 L 417.4073 272.6397 L 421.9395 272.7857 L 440.3068 272.4098 L 444.785 272.4998 L 449.1042 273.2016 L 450.4825 273.7255 L 452.7456 275.1693 L 454.5963 277.1009 L 455.949 279.4625 L 456.3929 280.8503 L 456.7649 283.6918 L 456.6344 286.5393 L 456.087 289.3088 L 455.1287 291.7944 L 452.8626 296.1936 L 452.1817 298.6931 L 452.2147 301.4047 L 453.0605 303.9402 L 454.5198 306.0258 L 456.3734 307.7255 L 463.0653 311.4129 L 465.0269 313.0626 L 466.7396 315.0282 L 468.1299 317.3298 L 469.8201 321.0912 L 472.9695 326.9042 L 475.5896 333.337 L 479.3269 340.3738 L 481.5795 345.5109 L 482.9788 347.8105 L 486.3052 352.1297 L 482.3024 357.6027 L 479.2819 363.8376 L 476.8388 367.543 L 472.8975 372.1702 L 465.4259 379.9308 L 462.1189 383.1002 L 458.6875 385.9957 L 456.27 387.6154 L 450.181 390.8549 L 442.2294 397.2857 L 439.7999 398.9034 L 438.4891 399.5533 L 437.0524 400.0692 L 434.0694 400.6931 L 427.8935 401.0791 L 388.227 400.5791 L 382.1816 400.7891 L 379.407 401.247 L 376.9685 402.2249 L 375.9696 403.0147 L 375.2618 403.9206 L 374.041 406.944 L 368.9614 406.6021 L 364.2732 405.8282 L 361.6727 404.9024 L 357.019 402.5808 L 354.4784 401.6709 L 351.7174 401.135 L 347.4627 400.8731 L 343.2094 401.155 L 340.4574 401.7149 L 337.9424 402.6608 L 332.2014 405.5683 L 329.5139 406.3301 L 325.2846 406.832 L 319.5826 406.6341 L 315.4688 405.6882 L 308.4996 402.2908 L 305.884 401.457 L 299.1472 399.8613 L 296.6517 398.8974 L 290.8537 396.0339 L 285.5026 394.6502 L 279.6087 388.5413 L 276.4847 385.9937 L 274.2786 384.524 L 271.816 383.4222 L 267.8102 382.4263 L 261.9163 376.3194 Z" fill="#000000" fill-opacity="1" stroke="#000000" stroke-width="0" paint-order="fill" stroke-opacity="1" stroke-dasharray="" stroke-linecap="butt" stroke-linejoin="miter" stroke-miterlimit="10" transform="matrix(1.100000023841858,0,0,1.100000023841858,-40.000003814697266,-26.650188446044922)" clip-path="none" style="filter: url(#f1)"/>
<path data-code="203" d="M 107.562 229.0194 L 114.6798 229.6193 L 124.0801 229.8733 L 130.2785 229.7293 L 134.8062 229.2074 L 137.6932 228.4275 L 144.6295 224.8962 L 156.8673 219.987 L 162.2634 222.3766 L 171.6952 224.7302 L 174.4067 225.784 L 180.0068 228.4335 L 184.5839 229.4514 L 192.621 229.8933 L 223.3056 229.8173 L 228.3162 236.7341 L 234.9825 244.8606 L 236.5573 247.3782 L 237.1797 248.732 L 237.6386 250.1097 L 238.2115 252.9512 L 239.0003 261.6677 L 239.4802 264.5092 L 240.3156 267.1327 L 243.0001 273.1476 L 243.744 275.8752 L 244.8328 281.4882 L 245.6157 284.2257 L 249.1385 291.3504 L 251.2262 296.5475 L 255.013 303.5463 L 257.1861 308.7194 L 258.4939 311.0629 L 265.2772 321.877 L 263.365 326.4422 L 261.5534 333.9329 L 260.5635 336.5984 L 259.0698 338.6201 L 254.2811 342.7714 L 252.447 345.1789 L 251.7016 346.5547 L 251.1272 348.0244 L 250.3773 351.1319 L 249.1985 359.2904 L 248.1892 363.7536 L 244.7038 365.1714 L 237.7945 368.9427 L 235.137 369.7806 L 228.3957 371.3223 L 225.9856 372.2961 L 222.7042 374.0698 L 220.3916 375.0137 L 217.7191 375.3536 L 216.3618 375.2316 L 215.0226 374.9017 L 213.7493 374.3578 L 211.4337 372.834 L 208.2588 369.9625 L 199.8707 361.564 L 193.9138 356.6929 L 196.5968 353.2215 L 201.309 346.5007 L 204.2935 340.1958 L 207.4489 334.3588 L 208.4627 331.5913 L 209.0671 328.4899 L 209.3101 325.3884 L 208.9966 320.9332 L 208.0308 318.2217 L 207.143 317.0359 L 205.9912 316.1361 L 203.3831 315.1742 L 199.0684 314.7743 L 178.321 315.1622 L 133.194 315.3102 L 126.8531 315.0742 L 122.2594 314.3444 L 119.5794 313.3765 L 113.8879 310.3031 L 108.8923 308.1035 L 102.127 304.1982 L 98.3822 302.5105 L 95.8371 301.1127 L 92.1658 298.3252 L 88.6984 295.1618 L 85.414 291.8243 L 82.473 288.305 L 80.9222 285.7254 L 80.3733 284.3057 L 80.0569 282.9019 L 79.9999 280.0664 L 80.2444 278.6727 L 81.1337 276.2231 L 85.8084 266.6428 L 88.4014 263.0054 L 92.6322 258.7702 L 96.1281 256.1366 L 100.9437 253.7311 L 103.1843 252.3813 L 105.9828 249.6558 L 107.3836 247.3682 L 108.2579 244.6207 L 108.7078 240.2695 L 108.5579 235.7942 L 107.562 229.0194 Z" fill="#000000" fill-opacity="1" stroke="#000000" stroke-width="0" paint-order="fill" stroke-opacity="1" stroke-dasharray="" stroke-linecap="butt" stroke-linejoin="miter" stroke-miterlimit="10" transform="matrix(1.100000023841858,0,0,1.100000023841858,-40.000003814697266,-26.650188446044922)" clip-path="none" style="filter: url(#f1)"/>
<path data-code="204" d="M 265.2772 321.877 L 258.4939 311.0629 L 257.1861 308.7194 L 255.013 303.5463 L 251.2262 296.5475 L 249.1385 291.3504 L 245.6157 284.2257 L 244.8328 281.4882 L 243.744 275.8752 L 243.0001 273.1476 L 240.3156 267.1327 L 239.4802 264.5092 L 239.0003 261.6677 L 238.2115 252.9512 L 237.6386 250.1097 L 237.1797 248.732 L 236.5573 247.3782 L 234.9825 244.8606 L 228.3162 236.7341 L 223.3056 229.8173 L 271.6106 229.8913 L 278.5963 230.1712 L 285.3407 230.9011 L 293.6402 230.2192 L 296.9186 230.2412 L 299.9796 230.6132 L 302.907 231.493 L 304.3273 232.2069 L 306.9338 233.9926 L 309.3799 236.0042 L 310.4297 240.1035 L 311.5755 242.729 L 313.1457 245.1866 L 318.4293 252.2353 L 319.8106 254.8569 L 320.322 256.3506 L 321.1138 261.0518 L 321.2623 265.9069 L 320.8439 272.4398 L 319.8016 278.1848 L 310.8661 278.5967 L 306.6084 279.0886 L 303.8729 279.8965 L 302.5846 280.5303 L 300.2045 282.1421 L 297.9954 284.0317 L 294.852 287.1412 L 291.8495 290.4206 L 289.063 293.838 L 286.7609 297.4773 L 285.1232 301.3427 L 283.8454 303.8622 L 282.2152 306.2398 L 279.3927 309.6212 L 275.2984 313.9224 L 270.9762 317.9457 L 268.7026 319.7454 L 265.2772 321.877 Z" fill="#000000" fill-opacity="1" stroke="#000000" stroke-width="0" paint-order="fill" stroke-opacity="1" stroke-dasharray="" stroke-linecap="butt" stroke-linejoin="miter" stroke-miterlimit="10" transform="matrix(1.100000023841858,0,0,1.100000023841858,-40.000003814697266,-26.650188446044922)" clip-path="none" style="filter: url(#f1)"/>
<path data-code="205" d="M 698.8656 340.1358 L 690.3186 339.4719 L 680.7218 335.2567 L 676.5661 334.3688 L 669.4858 333.667 L 665.351 332.9371 L 662.842 332.0332 L 657.0545 329.2237 L 652.8253 328.2439 L 648.386 327.876 L 643.8583 327.778 L 619.5101 327.986 L 615.0754 327.624 L 612.2109 327.0061 L 610.8312 326.5042 L 608.2861 325.0745 L 599.2082 317.6798 L 591.9675 313.5645 L 584.0714 307.0277 L 581.6538 305.392 L 580.3461 304.7341 L 578.9498 304.2242 L 576.0523 303.5943 L 571.5591 303.2003 L 562.3657 303.0964 L 553.1844 303.3163 L 548.7241 303.8362 L 545.8821 304.6081 L 544.6689 305.124 L 538.9879 308.2454 L 533.9907 310.4611 L 527.2299 314.3964 L 522.2058 316.574 L 515.4075 320.4293 L 510.4074 322.7049 L 507.8804 324.3506 L 505.4988 326.3023 L 502.0929 329.5397 L 498.8429 332.9751 L 495.818 336.5604 L 493.2969 340.3918 L 490.311 346.6547 L 486.3052 352.1297 L 482.9788 347.8105 L 481.5795 345.5109 L 479.3269 340.3738 L 475.5896 333.337 L 472.9695 326.9042 L 469.8201 321.0912 L 468.1299 317.3298 L 466.7396 315.0282 L 465.0269 313.0626 L 463.0653 311.4129 L 456.3734 307.7255 L 454.5198 306.0258 L 453.0605 303.9402 L 452.2147 301.4047 L 452.1817 298.6931 L 452.8626 296.1936 L 455.1287 291.7944 L 456.087 289.3088 L 456.6344 286.5393 L 456.7649 283.6918 L 456.3929 280.8503 L 455.949 279.4625 L 454.5963 277.1009 L 452.7456 275.1693 L 450.4825 273.7255 L 449.1042 273.2016 L 444.785 272.4998 L 440.3068 272.4098 L 421.9395 272.7857 L 417.4073 272.6397 L 412.9936 272.1258 L 410.1936 271.38 L 404.3971 268.5885 L 401.8881 267.6886 L 397.7578 266.9587 L 390.685 266.2389 L 386.5353 265.323 L 384.2167 264.3712 L 376.88 260.7978 L 383.1669 257.2904 L 386.5623 255.6567 L 389.2483 254.8469 L 396.0166 253.3331 L 398.4927 252.3953 L 404.3026 249.5898 L 407.1746 248.8439 L 410.1681 248.458 L 414.7663 248.234 L 442.9103 248.46 L 447.558 248.384 L 452.1232 248.0461 L 456.4844 247.0683 L 462.2989 244.2507 L 464.7765 243.3089 L 471.5163 241.7852 L 475.3571 240.4414 L 481.0651 237.346 L 486.0997 235.1983 L 492.8815 231.317 L 497.8561 229.0034 L 501.4705 226.4939 L 505.9622 222.4326 L 514.5617 213.6382 L 517.5536 210.1928 L 519.3263 207.7632 L 520.7586 205.1357 L 521.27 203.7739 L 523.9215 192.9038 L 527.4279 194.4875 L 534.2052 198.5708 L 539.2413 200.7364 L 544.9148 203.9039 L 546.1086 204.4298 L 548.4647 205.1377 L 554.5251 206.2895 L 556.8857 206.9893 L 559.2418 208.1151 L 563.756 210.6807 L 568.7471 212.9483 L 572.0345 215.2359 L 578.2074 220.6209 L 580.3521 222.2466 L 587.4683 226.1299 L 589.5454 227.7357 L 593.4567 231.1451 L 595.4289 232.6168 L 597.56 233.6306 L 598.7253 233.8406 L 599.8966 233.7786 L 602.0772 233.0907 L 609.1215 229.8513 L 611.2391 228.6235 L 614.408 226.042 L 622.3566 218.1414 L 626.4884 214.522 L 628.705 213.0543 L 632.6673 211.1866 L 634.7714 210.0108 L 636.9311 208.4431 L 640.049 205.8195 L 645.796 206.1615 L 649.9623 206.8653 L 652.4863 207.7632 L 658.2903 210.5387 L 662.6065 211.5005 L 667.1357 211.8125 L 679.4096 211.8685 L 683.9043 212.3224 L 686.7943 213.1582 L 688.126 213.8101 L 690.5691 215.4778 L 692.7887 217.4595 L 694.8283 219.6471 L 696.6595 222.0047 L 698.1907 224.5462 L 700.3249 229.7353 L 703.7038 236.93 L 704.4386 239.6816 L 705.8004 246.6843 L 706.7122 249.2799 L 709.6757 255.1868 L 712.4607 261.5557 L 719.9999 273.2796 L 714.7103 281.0982 L 712.6587 284.5856 L 711.6434 287.1692 L 710.1181 294.1219 L 709.3308 296.8355 L 705.8139 303.9402 L 703.6768 309.0993 L 700.1644 316.222 L 699.398 319.2155 L 698.8911 323.9187 L 698.7531 330.3575 L 698.8656 340.1358 Z" fill="#000000" fill-opacity="1" stroke="#000000" stroke-width="0" paint-order="fill" stroke-opacity="1" stroke-dasharray="" stroke-linecap="butt" stroke-linejoin="miter" stroke-miterlimit="10" transform="matrix(1.100000023841858,0,0,1.100000023841858,-40.000003814697266,-26.650188446044922)" clip-path="none" style="filter: url(#f1)"/>
<path data-code="206" d="M 309.3799 236.0042 L 306.9338 233.9926 L 304.3273 232.2069 L 302.907 231.493 L 299.9796 230.6132 L 296.9186 230.2412 L 293.6402 230.2192 L 285.3407 230.9011 L 297.0386 218.2953 L 314.29 200.6804 L 317.138 197.463 L 318.8312 195.1874 L 320.1915 192.7058 L 320.6429 191.4841 L 321.2728 188.9825 L 322.4276 182.8356 L 324.0158 178.4984 L 324.5197 176.4667 L 324.4672 175.4409 L 324.1703 174.5451 L 323.6949 173.7832 L 323.0995 173.1693 L 321.6972 172.2955 L 326.1679 162.4432 L 328.2691 157.1481 L 330.5712 153.5568 L 336.3391 146.9839 L 345.6075 137.5896 L 348.9369 134.9161 L 351.392 133.5603 L 352.6068 133.1284 L 355.1083 132.5825 L 362.856 131.8526 L 366.7613 131.1687 L 369.2118 130.2949 L 374.9858 127.5034 L 377.8788 126.7195 L 380.8978 126.2956 L 385.5275 126.0596 L 390.1766 126.1556 L 393.2346 126.4396 L 397.6423 127.4594 L 403.4613 130.2989 L 405.9284 131.2527 L 412.6412 132.8404 L 415.2777 133.7083 L 417.6188 134.9061 L 428.7153 141.7209 L 429.5867 143.3546 L 432.2412 146.0181 L 434.7578 149.2735 L 437.9477 152.045 L 440.8902 155.3265 L 446.1827 158.9178 L 454.9052 165.9846 L 457.6257 167.5983 L 465.9808 170.3418 L 467.1236 170.9177 L 470.5849 173.4093 L 471.7967 173.9552 L 476.0395 174.841 L 485.3648 175.5209 L 488.2788 176.0128 L 490.8134 176.9566 L 494.2868 179.3902 L 495.3996 179.9041 L 497.9251 180.606 L 504.7759 181.7338 L 507.318 182.4977 L 509.3546 183.7174 L 512.771 186.5029 L 523.9215 192.9038 L 521.27 203.7739 L 520.7586 205.1357 L 519.3263 207.7632 L 517.5536 210.1928 L 514.5617 213.6382 L 505.9622 222.4326 L 501.4705 226.4939 L 497.8561 229.0034 L 492.8815 231.317 L 486.0997 235.1983 L 481.0651 237.346 L 475.3571 240.4414 L 471.5163 241.7852 L 464.7765 243.3089 L 462.2989 244.2507 L 456.4844 247.0683 L 452.1232 248.0461 L 447.558 248.384 L 442.9103 248.46 L 414.7663 248.234 L 410.1681 248.458 L 407.1746 248.8439 L 404.3026 249.5898 L 398.4927 252.3953 L 396.0166 253.3331 L 389.2483 254.8469 L 386.5623 255.6567 L 383.1669 257.2904 L 376.88 260.7978 L 373.834 258.6962 L 371.0595 255.9467 L 369.5568 253.8531 L 367.1482 249.2319 L 365.3455 246.4984 L 356.1956 243.2949 L 346.6948 241.0973 L 344.2113 240.1535 L 338.3938 237.376 L 335.3838 236.5921 L 332.2434 236.1822 L 327.4172 235.9422 L 309.3799 236.0042 Z" fill="#000000" fill-opacity="1" stroke="#000000" stroke-width="0" paint-order="fill" stroke-opacity="1" stroke-dasharray="" stroke-linecap="butt" stroke-linejoin="miter" stroke-miterlimit="10" transform="matrix(1.100000023841858,0,0,1.100000023841858,-40.000003814697266,-26.650188446044922)" clip-path="none" style="filter: url(#f1)"/>







</svg>