<?xml version="1.0" standalone="no"?>
<!-- Generator: Paintmaps.com , Online SVG vector map maker -->
<svg xmlns="http://www.w3.org/2000/svg" version="1.1" baseProfile="full"   style="background-color:#e0f2f1" width="800" height="500" viewBox="0 0 800 533">

<path data-code="200" d="M 147.19 319.481 L 142.9241 314.6796 L 140.5219 311.3286 L 139.2454 308.8599 L 137.5263 304.9733 L 135.9989 302.5209 L 133.2133 299.0806 L 126.0933 291.4231 L 123.3807 287.9362 L 121.9993 285.3316 L 121.5292 283.9198 L 120.9907 280.9967 L 120.7898 276.4915 L 121.1169 270.0917 L 120.8674 259.1866 L 120.8568 239.3278 L 125.5989 241.6139 L 132.1513 243.7925 L 136.5724 245.5572 L 138.8179 245.9264 L 141.0467 245.5532 L 146.8355 243.4618 L 149.7352 242.8938 L 154.319 242.4009 L 162.0643 242.048 L 166.5097 242.1616 L 169.274 242.5896 L 171.7842 243.6281 L 172.8674 244.5247 L 173.7027 245.6871 L 174.614 248.322 L 174.9487 251.1903 L 175.2316 262.0832 L 176.079 266.7122 L 177.0907 269.2458 L 179.4549 274.0736 L 181.559 279.376 L 184.7432 285.3133 L 187.62 291.6219 L 190.0207 294.8614 L 193.0908 297.4132 L 201.1829 301.1801 L 203.43 301.8698 L 204.606 301.9793 L 206.9002 301.5959 L 212.5749 299.4762 L 219.3282 297.9325 L 222.0119 297.0582 L 228.9797 293.2386 L 234.0458 290.9606 L 239.8117 287.7779 L 242.4741 286.7799 L 246.9728 285.999 L 251.619 285.7353 L 257.8824 285.7312 L 262.553 285.932 L 267.114 286.4959 L 270.0122 287.2871 L 275.8968 290.1898 L 278.401 291.1756 L 285.203 292.8289 L 287.8532 293.6727 L 294.9336 297.1008 L 299.3318 298.1455 L 303.94 298.5613 L 314.8725 298.6364 L 319.4822 298.2388 L 322.458 297.612 L 323.8926 297.115 L 326.2979 295.8858 L 334.0979 290.7152 L 336.1669 295.2509 L 337.5057 297.5309 L 338.2725 298.5248 L 340.0433 300.2612 L 343.0176 302.2288 L 344.081 302.8211 L 345.8047 303.6569 L 340.5545 305.6184 L 337.6563 306.7016 L 334.4828 309.7098 L 333.5745 313.5944 L 333.0588 315.7973 L 326.7604 325.7815 L 326.7695 326.3738 L 323.1867 328.7937 L 318.9102 331.6803 L 304.8133 337.4533 L 294.8864 338.8793 L 284.9611 340.3053 L 266.9041 340.0822 L 266.5405 339.9281 L 252.6626 338.3296 L 248.3359 339.853 L 245.4347 339.8185 L 241.1414 337.715 L 238.8533 337.715 L 234.6574 339.6846 L 233.206 339.6664 L 230.3093 337.0192 L 228.5796 337.2931 L 225.3512 339.569 L 213.223 339.4189 L 197.4511 336.4736 L 188.0171 333.5769 L 183.6995 332.2503 L 182.0291 328.7349 L 181.4449 327.5077 L 177.4163 324.9356 L 169.1021 327.7653 L 162.8478 325.8423 L 155.1512 323.4791 L 147.19 319.481 Z" fill="#000000" fill-opacity="1" stroke="#000000" stroke-width="0" paint-order="fill" stroke-opacity="1" stroke-dasharray="" stroke-linecap="butt" stroke-linejoin="miter" stroke-miterlimit="10" transform="matrix(0.8999999761581421,0,0,0.8999999761581421,40.00000762939453,26.6500186920166)" clip-path="none" style="filter: url(#f1)"/>
<path data-code="201" d="M 303.4182 89.7256 L 298.3201 96.2999 L 296.9402 98.4805 L 295.892 100.6956 L 295.1587 103.572 L 294.932 106.5194 L 295.1344 109.4566 L 295.8038 112.3066 L 296.8885 114.7895 L 299.3942 119.4631 L 301.6062 124.6823 L 305.5389 131.7455 L 307.8575 136.9404 L 310.3114 140.687 L 315.8979 147.8252 L 317.4603 150.3608 L 319.7499 155.5679 L 323.5777 162.6777 L 325.7076 167.9518 L 329.511 175.0758 L 331.6743 180.3356 L 335.5173 187.4414 L 337.6594 192.7093 L 341.2361 199.9388 L 342.0424 202.7117 L 343.5653 209.779 L 344.5085 212.3693 L 346.8301 217.1788 L 348.0274 221.2987 L 348.3743 224.2562 L 348.464 227.2523 L 348.3317 230.2463 L 347.9483 233.1896 L 347.215 236.0173 L 344.4005 242.0703 L 343.4694 244.8026 L 342.7422 249.4762 L 342.1535 260.7465 L 341.4704 265.4363 L 340.5712 268.195 L 338.3029 273.0289 L 337.387 275.6537 L 335.6131 285.788 L 334.0979 290.7152 L 326.2979 295.8858 L 323.8926 297.115 L 322.458 297.612 L 319.4822 298.2388 L 314.8725 298.6364 L 303.94 298.5613 L 299.3318 298.1455 L 294.9336 297.1008 L 287.8532 293.6727 L 285.203 292.8289 L 278.401 291.1756 L 275.8968 290.1898 L 270.0122 287.2871 L 267.114 286.4959 L 262.553 285.932 L 257.8824 285.7312 L 251.619 285.7353 L 246.9728 285.999 L 242.4741 286.7799 L 239.8117 287.7779 L 234.0458 290.9606 L 228.9797 293.2386 L 222.0119 297.0582 L 219.3282 297.9325 L 212.5749 299.4762 L 206.9002 301.5959 L 204.606 301.9793 L 203.43 301.8698 L 201.1829 301.1801 L 193.0908 297.4132 L 190.0207 294.8614 L 187.62 291.6219 L 184.7432 285.3133 L 181.559 279.376 L 179.4549 274.0736 L 177.0907 269.2458 L 176.079 266.7122 L 175.2316 262.0832 L 174.9487 251.1903 L 174.614 248.322 L 173.7027 245.6871 L 172.8674 244.5247 L 171.7842 243.6281 L 169.274 242.5896 L 166.5097 242.1616 L 162.0643 242.048 L 154.319 242.4009 L 149.7352 242.8938 L 146.8355 243.4618 L 141.0467 245.5532 L 138.8179 245.9264 L 136.5724 245.5572 L 132.1513 243.7925 L 125.5989 241.6139 L 120.8568 239.3278 L 120.8233 194.4721 L 120.98 189.3339 L 121.5018 184.3175 L 122.2793 181.1247 L 125.5045 173.7755 L 127.9752 164.0287 L 131.6371 155.3184 L 132.3872 152.2108 L 132.9455 145.6669 L 133.0809 127.2321 L 133.3532 123.9561 L 133.9237 120.7755 L 134.9917 117.7247 L 137.9264 112.0226 L 140.1537 106.8338 L 143.0929 101.1358 L 143.7091 99.6205 L 144.4956 96.5879 L 144.914 93.4316 L 145.162 88.5795 L 145.0844 75.3843 L 151.074 75.3904 L 154.8378 78.6643 L 156.9464 79.711 L 158.1422 79.9362 L 159.3152 79.8997 L 160.4151 79.5934 L 161.3781 79.0031 L 162.0825 78.1876 L 162.5344 77.2849 L 163.0516 75.4025 L 179.6938 75.3315 L 187.8254 75.8326 L 192.4321 76.8955 L 199.5414 80.1654 L 202.2677 80.9139 L 208.6665 81.6259 L 216.9275 81.8044 L 233.5894 81.7496 L 241.7332 81.1898 L 246.3216 80.0924 L 251.9126 77.4188 L 254.7028 76.4573 L 257.4732 76.0334 L 260.2877 76.0212 L 263.0718 76.433 L 265.8878 77.429 L 271.354 80.4331 L 276.3654 82.7537 L 281.8879 85.8187 L 284.7557 86.9304 L 287.6721 87.5673 L 296.8748 88.6728 L 303.4182 89.7256 Z" fill="#000000" fill-opacity="1" stroke="#000000" stroke-width="0" paint-order="fill" stroke-opacity="1" stroke-dasharray="" stroke-linecap="butt" stroke-linejoin="miter" stroke-miterlimit="10" transform="matrix(0.8999999761581421,0,0,0.8999999761581421,40.00000762939453,26.6500186920166)" clip-path="none" style="filter: url(#f1)"/>
<path data-code="202" d="M 478.5736 466.7383 L 478.2267 466.7342 L 475.3483 471.2679 L 475.2114 471.4849 L 474.3762 476.408 L 473.8178 479.7002 L 470.9151 477.8827 L 467.1786 475.5398 L 458.7381 475.3776 L 458.6392 475.337 L 456.7239 474.5337 L 455.6361 473.4546 L 453.4012 471.2374 L 450.0405 460.4338 L 443.3313 447.9809 L 443.0058 444.0579 L 444.8573 438.6926 L 445.1965 437.7087 L 444.6732 435.5444 L 442.8552 432.9438 L 442.5691 432.7248 L 441.9013 432.2095 L 435.5815 427.3574 L 431.8953 423.1889 L 428.1847 415.9087 L 427.0346 410.7868 L 426.8657 410.0403 L 427.0361 406.4499 L 429.3546 401.0217 L 432.8735 395.5996 L 437.0055 390.6177 L 439.3104 387.8366 L 440.9474 383.6701 L 442.8308 378.8768 L 445.0368 379.4549 L 445.4567 379.5645 L 448.4248 380.3434 L 449.2586 380.2237 L 453.3206 379.6355 L 458.5343 375.9579 L 461.8995 369.1259 L 461.971 364.1257 L 457.9592 354.8232 L 457.4967 353.7501 L 458.7168 341.6137 L 457.4176 336.5385 L 452.9996 328.4225 L 452.7622 328.1365 L 440.8744 313.785 L 432.1798 311.0527 L 431.6108 310.7951 L 433.4669 305.304 L 436.3848 299.2733 L 437.2672 296.5937 L 437.8894 292.1939 L 438.1724 281.6195 L 438.4037 278.6336 L 438.9468 275.7105 L 439.4078 274.2906 L 440.8196 271.5826 L 443.6569 268.0145 L 445.834 265.8927 L 448.1799 264.0042 L 450.6947 262.4484 L 456.9536 259.6937 L 465.4306 254.3121 L 466.2856 253.4277 L 467.4753 251.2349 L 469.6447 243.5166 L 470.27 242.192 L 471.8568 239.6604 L 474.7291 236.07 L 478.9631 231.4796 L 484.4825 225.9337 L 489.0527 221.8383 L 492.7009 219.3169 L 497.6971 216.8908 L 501.3194 214.343 L 505.8074 210.1705 L 516.6182 199.0199 L 520.1127 196.1334 L 522.7173 194.6688 L 525.6353 193.8128 L 528.6552 193.4254 L 542.6288 193.2814 L 548.7188 192.7438 L 550.1808 192.4253 L 552.8113 191.4821 L 558.6594 188.5814 L 561.3872 187.8268 L 564.2412 187.417 L 568.6349 187.1838 L 573.0925 187.2324 L 577.5638 187.5408 L 583.0057 188.2994 L 582.9889 188.0905 L 590.1469 190.2102 L 594.5908 200.9855 L 595.245 206.0263 L 594.107 208.0345 L 589.6068 210.5762 L 586.5367 225.9358 L 588.4765 227.8385 L 594.6319 230.8832 L 607.0188 233.3194 L 610.3825 234.8611 L 612.8547 238.058 L 615.2037 243.5653 L 618.6146 248.5269 L 619.1044 250.2714 L 621.1248 257.4624 L 623.7172 258.3488 L 626.8923 258.4117 L 632.8879 258.5293 L 634.1005 259.1095 L 638.7071 261.3185 L 641.4486 263.6796 L 647.9631 277.0067 L 666.2985 290.0742 L 674.5488 298.6323 L 677.3101 305.1316 L 677.9034 306.5251 L 679.2102 309.9005 L 679.1189 313.6796 L 678.7523 316.2192 L 677.1092 319.0489 L 672.0903 324.968 L 671.8423 325.1567 L 664.2051 330.9561 L 659.463 336.0395 L 656.9117 340.8895 L 656.5663 343.0661 L 660.0989 363.1886 L 660.3347 364.5314 L 660.5295 365.0446 L 661.2369 366.9048 L 667.2584 374.1059 L 667.9263 376.5887 L 668.0845 380.0148 L 667.619 381.8769 L 667.2371 383.4064 L 659.2531 377.1689 L 658.3402 376.5015 L 656.7687 375.3513 L 653.7168 373.118 L 650.6285 373.1646 L 647.6329 375.0998 L 647.1887 375.3858 L 644.327 373.9862 L 638.841 371.3066 L 632.7708 369.4505 L 629.1378 368.9738 L 620.8677 369.6675 L 620.3398 369.5864 L 616.7859 369.0428 L 613.3354 367.209 L 612.981 367.0204 L 606.3433 363.4929 L 603.4284 362.4543 L 600.5454 362.8823 L 598.1097 364.3834 L 596.0483 365.6532 L 593.001 368.4342 L 586.9049 373.9963 L 580.004 376.8626 L 576.3482 381.0331 L 571.098 389.0618 L 567.1592 396.7092 L 562.2422 397.5408 L 562.195 397.549 L 560.8182 397.7802 L 556.6755 400.4558 L 554.4437 403.7378 L 554.3631 404.1841 L 553.8245 407.1295 L 553.4731 409.0545 L 550.1519 412.438 L 536.3593 419.8176 L 535.2822 420.3937 L 528.3022 424.976 L 517.5782 428.0877 L 516.1298 428.5076 L 508.0408 432.5361 L 498.0698 432.1953 L 494.1401 432.0635 L 488.9067 433.9459 L 486.0617 435.9744 L 485.0576 437.7473 L 485.2158 439.1003 L 491.6923 445.8226 L 491.8185 448.1696 L 490.282 451.3766 L 482.9095 459.3627 L 480.5042 463.1519 L 478.5888 466.1662 L 478.5736 466.7383 Z" fill="#000000" fill-opacity="1" stroke="#000000" stroke-width="0" paint-order="fill" stroke-opacity="1" stroke-dasharray="" stroke-linecap="butt" stroke-linejoin="miter" stroke-miterlimit="10" transform="matrix(0.8999999761581421,0,0,0.8999999761581421,40.00000762939453,26.6500186920166)" clip-path="none" style="filter: url(#f1)"/>
<path data-code="203" d="M 334.0979 290.7152 L 335.6131 285.788 L 337.387 275.6537 L 338.3029 273.0289 L 340.5712 268.195 L 341.4704 265.4363 L 342.1535 260.7465 L 342.7422 249.4762 L 343.4694 244.8026 L 344.4005 242.0703 L 347.215 236.0173 L 347.9483 233.1896 L 348.3317 230.2463 L 348.464 227.2523 L 348.3743 224.2562 L 348.0274 221.2987 L 346.8301 217.1788 L 344.5085 212.3693 L 343.5653 209.779 L 342.0424 202.7117 L 341.2361 199.9388 L 337.6594 192.7093 L 335.5173 187.4414 L 331.6743 180.3356 L 329.511 175.0758 L 325.7076 167.9518 L 323.5777 162.6777 L 319.7499 155.5679 L 317.4603 150.3608 L 315.8979 147.8252 L 310.3114 140.687 L 307.8575 136.9404 L 305.5389 131.7455 L 301.6062 124.6823 L 299.3942 119.4631 L 296.8885 114.7895 L 295.8038 112.3066 L 295.1344 109.4566 L 294.932 106.5194 L 295.1587 103.572 L 295.892 100.6956 L 296.9402 98.4805 L 298.3201 96.2999 L 303.4182 89.7256 L 309.0655 88.1312 L 312.2299 86.8959 L 319.2449 82.9647 L 324.4205 80.7699 L 334.11 75.7068 L 338.0275 76.1023 L 340.7995 76.65 L 343.3401 77.577 L 349.1958 80.5143 L 353.3598 81.5326 L 357.7276 81.9362 L 362.1563 82.0194 L 366.5621 81.8044 L 369.4375 81.3987 L 372.2048 80.6218 L 373.4356 80.0822 L 379.1833 76.8549 L 384.254 74.6053 L 391.1016 70.5707 L 396.1951 68.3373 L 403.0808 64.3291 L 408.1743 62.043 L 414.9748 57.911 L 423.0866 54.1218 L 425.3002 53.3854 L 426.5143 53.3002 L 427.847 53.5254 L 429.093 54.0203 L 431.3674 55.5376 L 434.3949 58.6108 L 436.146 61.0186 L 437.5319 63.7023 L 438.355 66.5158 L 439.7075 73.6276 L 440.6127 76.2301 L 443.4302 82.3277 L 444.1437 85.1859 L 444.5013 88.1515 L 444.6093 91.1618 L 444.4967 94.1761 L 443.7862 98.5982 L 442.7897 101.2778 L 439.4808 107.1624 L 437.147 112.2741 L 434.0754 117.7247 L 433.4456 120.1872 L 433.4486 121.4875 L 433.7072 122.7634 L 434.2641 123.9663 L 435.0871 124.9541 L 437.0086 126.2889 L 440.9854 128.36 L 443.2066 129.074 L 444.4085 129.1774 L 446.7285 128.6825 L 456.024 124.3253 L 462.8199 120.1426 L 467.883 117.8058 L 473.6246 114.5318 L 474.8569 113.9943 L 477.6258 113.2336 L 480.4935 112.8725 L 483.4024 112.7894 L 486.3051 112.9435 L 489.1546 113.3695 L 491.8794 114.1687 L 493.0843 114.7144 L 498.8579 117.8078 L 501.5826 118.6212 L 504.4306 119.0553 L 508.7817 119.1973 L 511.6707 118.9661 L 514.4974 118.3677 L 517.1917 117.1932 L 519.6426 115.5055 L 525.3203 110.6412 L 527.6632 108.8622 L 530.1141 107.4464 L 533.8597 105.6167 L 537.4942 103.0466 L 542.034 98.9065 L 549.6712 91.0806 L 552.7885 87.62 L 555.6273 84.0276 L 557.1943 81.488 L 558.9317 77.6075 L 560.2811 75.0475 L 562.9253 71.3963 L 568.7368 64.2824 L 573.6706 56.7385 L 573.5124 56.6614 L 575.3715 54.2516 L 578.9665 57.4444 L 584.3429 56.0488 L 585.9267 56.6269 L 588.4354 59.5926 L 589.727 61.118 L 591.2088 68.0371 L 597.5179 73.0414 L 599.3222 75.9543 L 600.769 81.2851 L 598.5463 88.474 L 590.3401 99.9511 L 587.2776 103.434 L 582.5219 107.0082 L 582.0031 107.3977 L 578.5922 113.1768 L 578.0065 115.5826 L 577.8604 118.3819 L 579.578 121.2339 L 580.2976 122.4267 L 584.1102 124.3557 L 590.7478 133.8936 L 597.3901 136.7234 L 599.5885 138.6829 L 600.8375 141.1962 L 600.9729 156.0892 L 598.8323 159.6249 L 593.5548 165.5135 L 592.6009 166.5805 L 592.1612 168.3859 L 594.0979 173.1345 L 590.2625 184.8693 L 590.1043 190.1068 L 590.1469 190.2102 L 582.9889 188.0905 L 583.0057 188.2994 L 577.5638 187.5408 L 573.0925 187.2324 L 568.6349 187.1838 L 564.2412 187.417 L 561.3872 187.8268 L 558.6594 188.5814 L 552.8113 191.4821 L 550.1808 192.4253 L 548.7188 192.7438 L 542.6288 193.2814 L 528.6552 193.4254 L 525.6353 193.8128 L 522.7173 194.6688 L 520.1127 196.1334 L 516.6182 199.0199 L 505.8074 210.1705 L 501.3194 214.343 L 497.6971 216.8908 L 492.7009 219.3169 L 489.0527 221.8383 L 484.4825 225.9337 L 478.9631 231.4796 L 474.7291 236.07 L 471.8568 239.6604 L 470.27 242.192 L 469.6447 243.5166 L 467.4753 251.2349 L 466.2856 253.4277 L 465.4306 254.3121 L 456.9536 259.6937 L 450.6947 262.4484 L 448.1799 264.0042 L 445.834 265.8927 L 443.6569 268.0145 L 440.8196 271.5826 L 439.4078 274.2906 L 438.9468 275.7105 L 438.4037 278.6336 L 438.1724 281.6195 L 437.8894 292.1939 L 437.2672 296.5937 L 436.3848 299.2733 L 433.4669 305.304 L 431.6108 310.7951 L 423.7667 307.2391 L 417.9566 302.8982 L 413.3423 302.2836 L 408.547 299.462 L 402.772 294.332 L 400.7698 294.6159 L 398.2809 294.9689 L 390.8825 296.0156 L 383.7322 295.6971 L 379.0768 294.5896 L 376.1345 293.8897 L 374.1735 292.8147 L 370.7124 290.9201 L 362.138 291.628 L 360.8342 291.3156 L 359.3767 289.348 L 358.1079 289.5245 L 355.4532 293.2122 L 351.1705 299.1618 L 349.348 301.6953 L 347.9772 302.8455 L 345.8701 303.6325 L 345.8047 303.6569 L 344.081 302.8211 L 343.0176 302.2288 L 340.0433 300.2612 L 338.2725 298.5248 L 337.5057 297.5309 L 336.1669 295.2509 L 334.0979 290.7152 Z" fill="#000000" fill-opacity="1" stroke="#000000" stroke-width="0" paint-order="fill" stroke-opacity="1" stroke-dasharray="" stroke-linecap="butt" stroke-linejoin="miter" stroke-miterlimit="10" transform="matrix(0.8999999761581421,0,0,0.8999999761581421,40.00000762939453,26.6500186920166)" clip-path="none" style="filter: url(#f1)"/>




</svg>