<?xml version="1.0" standalone="no"?>
<!-- Generator: Paintmaps.com , Online SVG vector map maker -->
<svg xmlns="http://www.w3.org/2000/svg" version="1.1" baseProfile="full"   style="background-color:#e0f2f1" width="800" height="500" viewBox="0 0 800 533">

<path data-code="200" d="M 508.952 451.884 L 505.8568 455.4762 L 504.0404 456.9581 L 497.0073 460.9951 L 493.5515 462.3869 L 490.8384 462.9001 L 483.9201 463.6113 L 481.2151 464.1011 L 478.8194 464.9006 L 474.6182 466.8794 L 472.2265 467.6951 L 469.5283 468.2155 L 462.6329 469.0329 L 459.9442 469.5677 L 457.5687 470.3978 L 452.3074 472.8466 L 449.8766 473.4948 L 444.7584 474.0782 L 433.8697 474.5428 L 428.8123 474.1268 L 423.5171 473.9774 L 418.2531 474.0548 L 414.3881 474.3969 L 410.7122 475.2882 L 405.5292 477.9045 L 403.259 478.7616 L 400.7688 479.282 L 398.2003 479.5611 L 394.2853 479.7015 L 390.365 479.5845 L 386.5243 479.1109 L 384.0786 478.4339 L 377.8004 475.3621 L 375.4398 474.6382 L 369.3614 473.2517 L 367.1102 472.3623 L 361.988 469.5353 L 357.468 467.5637 L 351.3775 464.0129 L 346.8629 462.0214 L 340.7562 458.5084 L 335.1937 456.002 L 331.1612 453.573 L 326.7736 451.4825 L 324.5589 450.2329 L 322.4495 448.6592 L 317.3758 444.3269 L 314.1577 442.0834 L 309.681 440.0019 L 304.6249 437.0147 L 300.2305 434.9404 L 298.0158 433.7016 L 295.9077 432.1297 L 289.8132 426.9565 L 287.6376 425.5107 L 283.1527 423.4202 L 279.0568 421.146 L 276.9393 420.1557 L 274.5558 419.4516 L 272.1142 418.9655 L 272.1236 413.47 L 274.9731 409.5267 L 276.0791 407.3804 L 276.8232 404.9442 L 278.098 398.6817 L 278.5126 397.4501 L 279.6186 395.2498 L 281.0217 393.2169 L 282.6234 391.3281 L 284.3803 389.5995 L 286.306 388.0888 L 288.4654 386.931 L 289.7038 386.5385 L 292.2359 386.1874 L 294.7693 386.2792 L 297.2339 386.7707 L 298.4074 387.1831 L 303.3622 389.9812 L 305.5365 390.8545 L 307.8943 391.2849 L 310.2414 391.2524 L 312.467 390.6474 L 313.4757 390.0442 L 314.3171 389.2466 L 315.55 387.4028 L 318.3158 382.5141 L 319.2503 380.285 L 319.5757 379.012 L 319.8755 376.4083 L 319.8026 373.7866 L 319.3745 371.2208 L 319.0058 369.9856 L 315.9363 363.5808 L 314.995 359.7888 L 314.5926 355.7896 L 314.4859 351.7329 L 314.6601 347.7031 L 315.0342 345.0689 L 315.7837 342.5264 L 316.3617 341.32 L 318.6345 338.0555 L 322.2604 334.0924 L 334.8277 321.5404 L 337.5651 318.5496 L 339.2194 316.4681 L 340.6103 314.2516 L 341.1519 313.0992 L 343.8028 306.7035 L 344.4037 304.6796 L 344.397 302.5837 L 343.8055 300.5995 L 342.6347 297.569 L 341.873 293.8832 L 341.5448 289.9039 L 341.2937 280.8361 L 347.9446 281.857 L 351.6219 282.8293 L 357.8272 286.1424 L 362.3391 288.1051 L 368.5241 291.3858 L 370.8901 292.1096 L 375.745 293.1738 L 378.111 293.9841 L 379.2656 294.58 L 381.4304 296.0565 L 388.5932 301.9175 L 390.7957 303.1815 L 394.1435 304.7318 L 399.2509 307.6182 L 401.517 308.5365 L 407.7344 310.112 L 411.567 311.259 L 410.6663 316.1548 L 410.3003 322.9035 L 410.5677 326.8702 L 411.1268 329.4108 L 411.594 330.6227 L 412.8594 332.6735 L 414.4705 334.3841 L 416.3165 335.7472 L 421.4402 338.4877 L 423.9966 340.8411 L 425.3808 342.7425 L 427.4888 347.2206 L 430.8582 353.5497 L 432.6691 358.2925 L 435.2715 363.633 L 436.0642 365.8964 L 437.4943 371.6547 L 438.5571 373.6552 L 439.3269 374.4709 L 441.1149 375.7439 L 445.8914 378.6284 L 448.0278 379.5954 L 451.7199 380.3876 L 459.3392 381.0683 L 461.8159 381.5976 L 463.0124 382.0226 L 464.1859 382.6006 L 466.3683 384.0518 L 472.4777 389.1025 L 474.6546 390.5286 L 486.3117 395.6009 L 483.0247 399.2597 L 480.9072 402.083 L 475.6121 412.8002 L 475.0071 415.168 L 474.9315 416.4302 L 475.0125 417.6924 L 475.6256 420.0584 L 478.2239 425.2406 L 480.6668 430.9503 L 484.7668 437.9384 L 486.0754 439.7516 L 487.8323 441.0984 L 494.6278 445.2308 L 501.3071 448.0812 L 508.952 451.884 Z" fill="#000000" fill-opacity="1" stroke="#000000" stroke-width="0" paint-order="fill" stroke-opacity="1" stroke-dasharray="" stroke-linecap="butt" stroke-linejoin="miter" stroke-miterlimit="10" clip-path="none" style="filter: url(#f1)"/>
<path data-code="201" d="M 486.3117 395.6009 L 474.6546 390.5286 L 472.4777 389.1025 L 466.3683 384.0518 L 464.1859 382.6006 L 463.0124 382.0226 L 461.8159 381.5976 L 459.3392 381.0683 L 451.7199 380.3876 L 448.0278 379.5954 L 445.8914 378.6284 L 441.1149 375.7439 L 439.3269 374.4709 L 438.5571 373.6552 L 437.4943 371.6547 L 436.0642 365.8964 L 435.2715 363.633 L 432.6691 358.2925 L 430.8582 353.5497 L 427.4888 347.2206 L 425.3808 342.7425 L 423.9966 340.8411 L 421.4402 338.4877 L 416.3165 335.7472 L 414.4705 334.3841 L 412.8594 332.6735 L 411.594 330.6227 L 411.1268 329.4108 L 410.5677 326.8702 L 410.3003 322.9035 L 410.6663 316.1548 L 411.567 311.259 L 415.5522 308.6319 L 417.6805 306.9736 L 420.6569 304.1718 L 423.3389 301.1018 L 425.5131 297.7401 L 427.9642 292.0232 L 431.8427 284.9216 L 433.1202 283.0544 L 434.8528 281.6247 L 439.5051 278.7096 L 441.5078 277.676 L 442.603 277.3015 L 443.8212 277.0764 L 446.2911 277.1755 L 447.5038 277.505 L 448.7179 278.0595 L 449.8428 278.7726 L 451.9117 280.4994 L 458.6207 287.5127 L 460.6262 289.3367 L 462.8152 290.8168 L 464.0212 291.339 L 466.425 291.7549 L 468.8058 291.4722 L 470.8734 290.6673 L 474.8747 288.7011 L 478.6952 287.7846 L 482.7695 287.4353 L 493.8526 287.1688 L 497.8891 286.724 L 499.1882 286.4395 L 501.5245 285.6041 L 506.7238 283.0526 L 510.3997 282.1757 L 516.8886 281.758 L 527.5207 281.8372 L 527.5112 287.3326 L 526.2499 292.2753 L 523.3086 298.7646 L 522.6442 301.4367 L 522.2971 304.2223 L 522.0541 311.394 L 522.208 336.1487 L 522.0824 340.4575 L 521.6543 344.6691 L 520.5915 348.4918 L 518.1837 353.8936 L 516.0959 362.4428 L 515.0317 364.6594 L 514.3484 365.6317 L 512.7481 367.3567 L 510.898 368.7576 L 506.5955 370.9129 L 503.2734 373.178 L 499.091 376.9107 L 495.1639 381.0088 L 493.3638 383.1696 L 491.7675 385.4365 L 488.4886 392.2194 L 486.3117 395.6009 Z" fill="#000000" fill-opacity="1" stroke="#000000" stroke-width="0" paint-order="fill" stroke-opacity="1" stroke-dasharray="" stroke-linecap="butt" stroke-linejoin="miter" stroke-miterlimit="10" clip-path="none" style="filter: url(#f1)"/>
<path data-code="202" d="M 203.5235 96.8706 L 205.9935 92.9399 L 207.4209 90.9844 L 210.7119 87.1816 L 214.2136 83.62 L 216.9672 81.1802 L 218.9051 79.7793 L 220.8119 78.7656 L 224.4176 77.2135 L 225.4278 76.6265 L 227.3589 75.2202 L 230.1071 72.7768 L 232.7621 70.1389 L 240.5299 61.7751 L 261.8535 61.9156 L 266.4085 61.7247 L 269.3647 61.3484 L 272.1898 60.5741 L 274.283 59.5622 L 284.1021 53.3015 L 293.3095 60.4733 L 300.1765 64.7551 L 302.1185 66.5089 L 303.3568 68.1528 L 305.4608 72.4599 L 307.4433 75.4651 L 309.8673 78.2542 L 312.5817 80.7678 L 315.627 82.7629 L 317.9889 83.6632 L 322.756 85.1271 L 326.1592 86.5442 L 322.6872 91.964 L 321.1233 93.8816 L 318.548 96.4871 L 315.7296 98.6766 L 313.8404 99.7012 L 310.2536 101.2893 L 308.2374 102.5623 L 305.4257 104.9247 L 303.685 106.6875 L 302.0807 108.5745 L 300.0914 111.6589 L 298.2116 116.3549 L 294.9003 122.6858 L 292.9557 127.2467 L 291.6133 129.2058 L 289.9658 130.9091 L 288.0792 132.2992 L 283.7159 134.4113 L 281.7334 135.6789 L 275.1419 141.16 L 273.1837 142.5806 L 271.2634 143.6358 L 267.6496 145.2131 L 261.5469 148.7423 L 256.9851 150.6167 L 250.854 154.0865 L 246.3314 156.0617 L 243.3509 158.1216 L 240.6514 160.6569 L 238.2273 163.4694 L 236.8404 165.4843 L 235.8222 167.4595 L 234.2503 171.1597 L 232.9984 173.2304 L 230.7067 176.1528 L 224.7579 182.6548 L 222.3474 185.5105 L 220.3447 188.5607 L 218.296 193.1595 L 217.0415 195.2266 L 214.7795 198.1507 L 209.9557 203.8676 L 206.9307 208.0414 L 204.3337 209.0156 L 200.6281 209.7286 L 196.8117 209.7898 L 194.2945 209.4351 L 191.9501 208.6788 L 183.5746 204.496 L 181.5409 203.1942 L 179.8082 201.5611 L 178.3822 199.6128 L 177.819 198.5181 L 177.0006 195.8118 L 176.6482 192.9884 L 176.5699 188.6382 L 176.8089 184.2195 L 177.8514 177.1503 L 176.9453 170.0038 L 176.6954 161.2745 L 177.0493 154.1171 L 177.946 150.0351 L 178.9183 147.8204 L 181.1276 143.6232 L 183.079 138.9812 L 186.0014 133.7667 L 188.4889 128.0444 L 191.9056 121.7351 L 193.8381 117.0661 L 197.2479 110.7532 L 199.1669 106.0789 L 202.4836 99.7282 L 203.5235 96.8706 Z" fill="#000000" fill-opacity="1" stroke="#000000" stroke-width="0" paint-order="fill" stroke-opacity="1" stroke-dasharray="" stroke-linecap="butt" stroke-linejoin="miter" stroke-miterlimit="10" clip-path="none" style="filter: url(#f1)"/>
<path data-code="203" d="M 341.2937 280.8361 L 335.9405 281.1152 L 332.8588 280.9423 L 329.8554 280.4165 L 326.5832 279.3524 L 322.1848 272.4669 L 321.1585 270.29 L 320.5926 267.8087 L 320.5264 265.3365 L 320.6709 264.1463 L 321.357 261.9604 L 321.9377 261.0313 L 322.6602 260.2894 L 325.0572 258.6293 L 326.4833 257.3527 L 327.6217 255.7771 L 328.0093 254.8912 L 328.2186 253.9513 L 328.2159 253.006 L 326.8425 248.3767 L 326.6642 247.2495 L 326.7331 244.8673 L 327.4597 242.4959 L 328.7466 240.3316 L 330.3496 238.3167 L 336.69 231.6095 L 338.3753 229.5982 L 339.823 227.4213 L 340.8521 224.9455 L 341.399 222.2626 L 341.6974 218.1086 L 341.4003 199.6362 L 341.5165 194.0292 L 342.1404 189.9472 L 342.5698 188.6364 L 343.8393 186.2344 L 345.4665 184.0899 L 347.3194 182.1452 L 349.345 180.404 L 351.5476 178.9491 L 353.9123 177.9588 L 361.152 176.3545 L 362.3229 175.9169 L 364.5268 174.6745 L 367.5491 172.2365 L 375.1791 164.9513 L 378.2879 162.6771 L 380.5782 161.6382 L 387.7775 159.8502 L 390.0881 158.8202 L 392.2502 157.3708 L 397.3805 153.2204 L 399.5507 151.7619 L 400.7067 151.1731 L 403.074 150.379 L 409.1457 149.043 L 411.3969 148.1769 L 420.5191 143.0398 L 422.1775 141.5579 L 424.4057 139.1901 L 429.1607 139.5376 L 431.5888 140.1354 L 432.6786 140.573 L 437.8144 143.3117 L 442.3141 145.3139 L 448.3573 148.9512 L 452.8327 151.0146 L 457.9226 153.892 L 459.0151 154.3692 L 461.4688 155.0624 L 464.0144 155.4171 L 467.8943 155.5269 L 470.4736 155.3415 L 473.0017 154.8823 L 475.3407 154.0487 L 480.4521 151.2667 L 483.7148 149.729 L 485.7472 148.4344 L 487.4758 146.8102 L 488.9019 144.8908 L 489.4677 143.8248 L 490.2834 141.4174 L 491.253 136.4478 L 491.8945 134.0098 L 494.3037 128.5846 L 495.1099 126.2402 L 496.3901 119.9219 L 497.0788 117.4587 L 499.561 112.0497 L 500.378 109.7251 L 501.6933 103.4338 L 502.4158 100.976 L 506.5658 92.5762 L 508.5158 89.2379 L 510.713 86.2435 L 512.3214 84.6139 L 516.4537 81.1208 L 521.0048 84.0035 L 523.7907 86.2633 L 526.2823 89.1784 L 528.5889 92.4988 L 528.15 96.6653 L 527.6787 108.2684 L 527.2573 112.5124 L 526.2864 116.4161 L 523.946 121.1877 L 523.4882 123.2548 L 523.545 124.3514 L 523.8488 125.4317 L 524.4484 126.4329 L 525.3505 127.2287 L 526.3728 127.7293 L 528.6226 128.1812 L 531.0818 128.2605 L 541.7099 128.0102 L 544.2325 128.3019 L 546.5418 129.0635 L 547.5546 129.7207 L 549.0023 131.4151 L 552.897 138.3024 L 555.2967 143.9203 L 557.3562 146.8481 L 559.0861 148.4974 L 561.1131 149.8461 L 568.2354 153.6957 L 570.3637 154.5564 L 572.8202 154.8517 L 574.0599 154.7257 L 576.3732 153.8902 L 578.276 152.4893 L 579.8371 150.7103 L 580.4799 149.7056 L 583.4658 142.2799 L 583.9371 140.1912 L 583.9384 139.0911 L 583.6926 137.9189 L 582.6528 135.8086 L 578.0586 129.9422 L 576.7689 127.6771 L 576.018 125.1976 L 575.8276 123.912 L 575.7722 121.3083 L 576.1855 118.7281 L 576.6149 117.4767 L 577.17 116.3639 L 578.6055 114.3886 L 581.2983 111.9542 L 586.8783 108.5169 L 596.1654 115.7931 L 599.4267 118.1609 L 601.8022 121.3372 L 605.944 127.4448 L 608.549 133.1491 L 609.9143 135.4268 L 615.6659 142.7733 L 618.9326 147.5539 L 620.5383 148.9025 L 623.431 150.0495 L 623.0961 155.3865 L 622.7422 157.9938 L 622.1264 160.4984 L 619.7861 165.9452 L 619.0245 168.304 L 618.4032 172.1807 L 618.0683 177.5195 L 617.5997 180.0583 L 616.9164 182.5251 L 614.3532 187.8945 L 613.5281 190.2227 L 612.3046 196.5482 L 611.6105 199.0204 L 610.6139 201.2064 L 608.3856 205.418 L 606.5314 210.1103 L 603.0986 216.398 L 601.1215 221.0382 L 599.7913 223.1989 L 597.3632 226.2185 L 588.2518 235.7779 L 585.6008 238.7399 L 583.193 241.8837 L 581.0566 245.195 L 576.0734 247.3917 L 573.7952 248.1156 L 571.2834 248.5585 L 563.6223 249.2878 L 561.1361 249.7469 L 558.843 250.532 L 553.6019 253.0096 L 551.2346 253.6758 L 545.1549 255.0083 L 543.9692 255.4602 L 541.6788 256.7729 L 539.5869 258.433 L 537.6518 260.3074 L 535.8759 262.3403 L 534.3202 264.5298 L 533.6639 265.6912 L 531.726 270.3602 L 528.6348 276.8225 L 527.9717 279.302 L 527.5207 281.8372 L 516.8886 281.758 L 510.3997 282.1757 L 506.7238 283.0526 L 501.5245 285.6041 L 499.1882 286.4395 L 497.8891 286.724 L 493.8526 287.1688 L 482.7695 287.4353 L 478.6952 287.7846 L 474.8747 288.7011 L 470.8734 290.6673 L 468.8058 291.4722 L 466.425 291.7549 L 464.0212 291.339 L 462.8152 290.8168 L 460.6262 289.3367 L 458.6207 287.5127 L 451.9117 280.4994 L 449.8428 278.7726 L 448.7179 278.0595 L 447.5038 277.505 L 446.2911 277.1755 L 443.8212 277.0764 L 442.603 277.3015 L 441.5078 277.676 L 439.5051 278.7096 L 434.8528 281.6247 L 433.1202 283.0544 L 431.8427 284.9216 L 427.9642 292.0232 L 425.5131 297.7401 L 423.3389 301.1018 L 420.6569 304.1718 L 417.6805 306.9736 L 415.5522 308.6319 L 411.567 311.259 L 407.7344 310.112 L 401.517 308.5365 L 399.2509 307.6182 L 394.1435 304.7318 L 390.7957 303.1815 L 388.5932 301.9175 L 381.4304 296.0565 L 379.2656 294.58 L 378.111 293.9841 L 375.745 293.1738 L 370.8901 292.1096 L 368.5241 291.3858 L 362.3391 288.1051 L 357.8272 286.1424 L 351.6219 282.8293 L 347.9446 281.857 L 341.2937 280.8361 Z" fill="#000000" fill-opacity="1" stroke="#000000" stroke-width="0" paint-order="fill" stroke-opacity="1" stroke-dasharray="" stroke-linecap="butt" stroke-linejoin="miter" stroke-miterlimit="10" clip-path="none" style="filter: url(#f1)"/>
<path data-code="204" d="M 198.3148 332.6735 L 197.9191 325.4639 L 197.7652 318.5874 L 197.6679 308.9938 L 197.8597 303.6101 L 198.2135 300.983 L 198.9374 298.4459 L 199.514 297.2179 L 200.9738 294.951 L 203.5883 291.8233 L 209.3507 285.8561 L 214.3001 281.0395 L 217.398 278.4359 L 219.5992 277.0044 L 224.0976 274.9679 L 229.1739 272.0365 L 234.7634 269.6111 L 240.881 266.145 L 244.253 264.6595 L 246.3746 263.4945 L 248.2882 262.0774 L 250.9958 259.6268 L 256.4341 253.8253 L 261.7711 259.598 L 275.2026 273.6625 L 277.7847 276.2427 L 280.5342 278.697 L 283.4026 280.6668 L 287.8483 282.6817 L 293.9172 286.2757 L 298.4155 288.296 L 302.4088 290.6673 L 304.5277 291.7099 L 306.9747 292.3581 L 308.2333 292.5112 L 310.7694 292.522 L 313.2826 292.0988 L 315.5784 291.1445 L 316.5858 290.5071 L 318.4549 289.0144 L 321.0248 286.4431 L 323.4448 283.5658 L 326.5832 279.3524 L 329.8554 280.4165 L 332.8588 280.9423 L 335.9405 281.1152 L 341.2937 280.8361 L 341.5448 289.9039 L 341.873 293.8832 L 342.6347 297.569 L 343.8055 300.5995 L 344.397 302.5837 L 344.4037 304.6796 L 343.8028 306.7035 L 341.1519 313.0992 L 340.6103 314.2516 L 339.2194 316.4681 L 337.5651 318.5496 L 334.8277 321.5404 L 322.2604 334.0924 L 318.6345 338.0555 L 316.3617 341.32 L 315.7837 342.5264 L 315.0342 345.0689 L 314.6601 347.7031 L 314.4859 351.7329 L 314.5926 355.7896 L 314.995 359.7888 L 315.9363 363.5808 L 319.0058 369.9856 L 319.3745 371.2208 L 319.8026 373.7866 L 319.8755 376.4083 L 319.5757 379.012 L 319.2503 380.285 L 318.3158 382.5141 L 315.55 387.4028 L 314.3171 389.2466 L 313.4757 390.0442 L 312.467 390.6474 L 310.2414 391.2524 L 307.8943 391.2849 L 305.5365 390.8545 L 303.3622 389.9812 L 298.4074 387.1831 L 297.2339 386.7707 L 294.7693 386.2792 L 292.2359 386.1874 L 289.7038 386.5385 L 288.4654 386.931 L 286.306 388.0888 L 284.3803 389.5995 L 282.6234 391.3281 L 281.0217 393.2169 L 279.6186 395.2498 L 278.5126 397.4501 L 278.098 398.6817 L 276.8232 404.9442 L 276.0791 407.3804 L 274.9731 409.5267 L 272.1236 413.47 L 265.6604 413.0973 L 261.9561 412.2456 L 259.8143 411.2607 L 255.74 409.001 L 251.2389 407.0185 L 245.0566 403.7072 L 242.6825 402.9743 L 236.6054 401.6023 L 234.3583 400.7218 L 229.2414 397.9039 L 224.7363 395.9268 L 218.5364 392.5957 L 214.8781 391.5675 L 205.8408 389.7705 L 208.0326 387.1957 L 210.9874 383.2974 L 212.7592 380.1085 L 213.163 378.8571 L 213.587 376.2733 L 213.5803 373.6552 L 213.4182 372.3533 L 212.7133 369.8181 L 211.3723 367.3927 L 208.7349 364.1912 L 201.9678 357.1095 L 200.277 354.9145 L 198.9401 352.4819 L 198.5039 351.2359 L 197.9677 348.6503 L 197.6774 344.6529 L 197.7598 339.2169 L 198.3148 332.6735 Z" fill="#000000" fill-opacity="1" stroke="#000000" stroke-width="0" paint-order="fill" stroke-opacity="1" stroke-dasharray="" stroke-linecap="butt" stroke-linejoin="miter" stroke-miterlimit="10" clip-path="none" style="filter: url(#f1)"/>
<path data-code="205" d="M 326.5832 279.3524 L 323.4448 283.5658 L 321.0248 286.4431 L 318.4549 289.0144 L 316.5858 290.5071 L 315.5784 291.1445 L 313.2826 292.0988 L 310.7694 292.522 L 308.2333 292.5112 L 306.9747 292.3581 L 304.5277 291.7099 L 302.4088 290.6673 L 298.4155 288.296 L 293.9172 286.2757 L 287.8483 282.6817 L 283.4026 280.6668 L 280.5342 278.697 L 277.7847 276.2427 L 275.2026 273.6625 L 261.7711 259.598 L 256.4341 253.8253 L 256.2693 247.4079 L 255.8264 244.8097 L 255.4294 243.5475 L 254.9189 242.4131 L 253.609 240.3208 L 252.0451 238.4121 L 250.3206 236.6494 L 248.4745 235.036 L 246.5164 233.6225 L 244.3746 232.4792 L 241.0187 230.9595 L 238.8999 229.5892 L 235.9154 227.0702 L 228.3042 219.6715 L 225.2765 217.2515 L 223.0874 216.0199 L 218.6931 213.9456 L 213.587 210.845 L 206.9307 208.0414 L 209.9557 203.8676 L 214.7795 198.1507 L 217.0415 195.2266 L 218.296 193.1595 L 220.3447 188.5607 L 222.3474 185.5105 L 224.7579 182.6548 L 230.7067 176.1528 L 232.9984 173.2304 L 234.2503 171.1597 L 235.8222 167.4595 L 236.8404 165.4843 L 238.2273 163.4694 L 240.6514 160.6569 L 243.3509 158.1216 L 246.3314 156.0617 L 250.854 154.0865 L 256.9851 150.6167 L 261.5469 148.7423 L 267.6496 145.2131 L 271.2634 143.6358 L 273.1837 142.5806 L 275.1419 141.16 L 281.7334 135.6789 L 283.7159 134.4113 L 288.0792 132.2992 L 289.9658 130.9091 L 291.6133 129.2058 L 292.9557 127.2467 L 294.9003 122.6858 L 298.2116 116.3549 L 300.0914 111.6589 L 302.0807 108.5745 L 303.685 106.6875 L 305.4257 104.9247 L 308.2374 102.5623 L 310.2536 101.2893 L 313.8404 99.7012 L 315.7296 98.6766 L 318.548 96.4871 L 321.1233 93.8816 L 322.6872 91.964 L 326.1592 86.5442 L 329.0977 91.9064 L 332.382 96.1558 L 335.1045 99.1088 L 337.9662 101.8691 L 339.9756 103.5274 L 342.1147 104.9211 L 346.6225 106.9342 L 350.7049 109.1867 L 352.8319 110.1842 L 355.2276 110.8739 L 360.1311 111.8246 L 362.516 112.534 L 364.6267 113.555 L 368.6997 115.8579 L 373.2277 117.8026 L 379.4034 121.1517 L 381.7882 121.8827 L 386.6904 122.8677 L 389.0739 123.5645 L 394.284 126.161 L 396.5338 127.0072 L 402.6405 128.2875 L 405.0281 129.0041 L 411.2267 132.3046 L 416.8108 134.7426 L 424.4057 139.1901 L 422.1775 141.5579 L 420.5191 143.0398 L 411.3969 148.1769 L 409.1457 149.043 L 403.074 150.379 L 400.7067 151.1731 L 399.5507 151.7619 L 397.3805 153.2204 L 392.2502 157.3708 L 390.0881 158.8202 L 387.7775 159.8502 L 380.5782 161.6382 L 378.2879 162.6771 L 375.1791 164.9513 L 367.5491 172.2365 L 364.5268 174.6745 L 362.3229 175.9169 L 361.152 176.3545 L 353.9123 177.9588 L 351.5476 178.9491 L 349.345 180.404 L 347.3194 182.1452 L 345.4665 184.0899 L 343.8393 186.2344 L 342.5698 188.6364 L 342.1404 189.9472 L 341.5165 194.0292 L 341.4003 199.6362 L 341.6974 218.1086 L 341.399 222.2626 L 340.8521 224.9455 L 339.823 227.4213 L 338.3753 229.5982 L 336.69 231.6095 L 330.3496 238.3167 L 328.7466 240.3316 L 327.4597 242.4959 L 326.7331 244.8673 L 326.6642 247.2495 L 326.8425 248.3767 L 328.2159 253.006 L 328.2186 253.9513 L 328.0093 254.8912 L 327.6217 255.7771 L 326.4833 257.3527 L 325.0572 258.6293 L 322.6602 260.2894 L 321.9377 261.0313 L 321.357 261.9604 L 320.6709 264.1463 L 320.5264 265.3365 L 320.5926 267.8087 L 321.1585 270.29 L 322.1848 272.4669 L 326.5832 279.3524 Z" fill="#000000" fill-opacity="1" stroke="#000000" stroke-width="0" paint-order="fill" stroke-opacity="1" stroke-dasharray="" stroke-linecap="butt" stroke-linejoin="miter" stroke-miterlimit="10" clip-path="none" style="filter: url(#f1)"/>






</svg>