<?xml version="1.0" standalone="no"?>
<!-- Generator: Paintmaps.com , Online SVG vector map maker -->
<svg xmlns="http://www.w3.org/2000/svg" version="1.1" baseProfile="full"   style="background-color:#e0f2f1" width="800" height="500" viewBox="0 0 800 533">

<path data-code="200" d="M 289.7057 417.4703 L 294.5898 417.4269 L 296.4752 417.2714 L 298.3068 416.9411 L 299.9201 416.3854 L 303.4174 414.6979 L 304.995 414.2013 L 309.0465 413.2213 L 310.5512 412.6511 L 313.3714 411.3035 L 314.9761 410.7815 L 317.6751 410.397 L 323.057 410.0788 L 325.4495 409.5412 L 326.7238 408.7384 L 327.1491 408.2092 L 328.3574 405.2512 L 329.1177 404.1591 L 329.6881 403.7408 L 331.0447 403.2611 L 332.5468 403.1574 L 334.0918 403.3683 L 335.541 403.8782 L 338.1867 405.2813 L 339.6761 405.8382 L 341.3196 406.1323 L 343.0039 406.1709 L 344.6777 405.9419 L 346.2313 405.4079 L 352.1709 402.0569 L 357.7006 402.7066 L 365.1115 402.8645 L 405.4221 402.8777 L 410.7149 402.6837 L 415.2862 402.2003 L 413.8786 405.7273 L 412.5691 409.8642 L 410.6019 414.235 L 409.9934 417.1219 L 409.7371 422.1846 L 409.7435 438.9433 L 409.5279 443.1393 L 409.1301 446.2576 L 409.8474 446.6976 L 408.5962 447.6631 L 407.9385 448.3647 L 407.4775 448.3647 L 406.7538 447.7511 L 405.5686 447.5751 L 405.1071 447.3123 L 402.4749 447.3123 L 401.7503 447.3991 L 400.7631 447.8391 L 398.9202 449.1554 L 398.7222 449.5942 L 397.9981 450.1209 L 397.0109 450.3825 L 395.101 450.6477 L 394.5744 450.2957 L 393.4557 450.3825 L 392.2049 450.8225 L 391.0857 452.2268 L 388.7817 452.14 L 387.3335 452.7535 L 386.5433 453.1923 L 385.0295 453.3683 L 384.832 453.6322 L 384.0418 453.5443 L 383.5152 454.071 L 382.1985 454.9485 L 381.4088 454.9485 L 381.0797 454.6846 L 379.2363 454.2458 L 377.9856 454.4218 L 377.1295 454.4218 L 376.6684 454.6846 L 375.2206 454.6846 L 372.8501 456.2648 L 371.3363 456.5288 L 370.6782 456.0888 L 370.02 455.9141 L 367.519 456.0021 L 366.3989 456.5288 L 365.4116 456.6156 L 364.6219 456.9676 L 363.9638 457.8451 L 360.9348 458.0199 L 360.0796 458.8106 L 359.6845 458.9854 L 358.1047 458.9854 L 356.4588 459.5122 L 356.0638 460.3909 L 355.4712 460.5657 L 354.7475 461.3564 L 353.8253 461.4432 L 352.575 462.234 L 351.4558 463.2875 L 351.0608 464.4278 L 350.0731 463.989 L 347.8351 464.165 L 347.045 464.4278 L 345.2676 465.5693 L 343.5558 465.3933 L 342.1075 465.8321 L 341.1858 465.8321 L 340.7252 466.2708 L 340.0671 467.2364 L 339.8036 468.4659 L 339.3429 469.5194 L 339.7376 470.7477 L 338.8159 470.7477 L 338.0917 469.9582 L 337.368 469.9582 L 336.3804 468.8166 L 335.2616 468.7287 L 333.5498 468.7287 L 332.8912 469.5194 L 331.838 469.4314 L 329.7971 470.7477 L 328.6779 470.7477 L 327.8222 470.5717 L 327.4276 470.3089 L 326.6374 470.3969 L 326.3084 469.8702 L 325.3207 469.8702 L 323.8729 469.5194 L 321.5684 469.7822 L 320.7128 469.3434 L 319.8566 469.3434 L 319.462 469.6062 L 318.8034 469.6062 L 318.2113 470.1329 L 316.763 470.3089 L 316.2355 469.9582 L 314.7881 470.0449 L 313.8668 471.0985 L 312.9447 471.0985 L 312.2861 471.7132 L 312.2861 472.24 L 311.0354 473.0295 L 311.1014 474.171 L 310.3772 474.5218 L 309.6531 476.1021 L 308.7974 476.1021 L 307.7442 475.7513 L 307.5466 475.0486 L 307.9413 474.5218 L 306.6905 472.8547 L 305.6373 473.1175 L 304.6505 473.1175 L 304.0575 473.3815 L 303.6624 473.907 L 302.2801 474.171 L 301.885 474.5218 L 301.6875 475.3125 L 301.3584 475.5753 L 301.424 476.1021 L 300.5027 477.0676 L 299.252 476.8916 L 298.5934 477.3304 L 298.0668 477.3304 L 297.7377 476.9796 L 295.5653 477.0676 L 294.3801 477.7691 L 293.7215 477.5944 L 291.418 477.5944 L 290.7598 477.5064 L 289.5746 478.3839 L 288.8505 478.3839 L 288.4554 477.9451 L 287.0736 477.8571 L 286.0199 479.2614 L 285.4273 479.1746 L 284.7031 479.7002 L 283.1233 479.6134 L 282.8598 479.2614 L 282.0041 478.8227 L 279.5026 478.9986 L 278.3838 477.5944 L 277.8572 477.5944 L 277.4617 477.0676 L 276.8036 476.7168 L 276.145 476.7168 L 275.6184 476.1901 L 273.907 475.5753 L 273.1168 475.5753 L 272.3272 475.1365 L 271.2079 475.1365 L 270.9444 474.6978 L 270.2203 474.4338 L 270.0227 474.083 L 268.838 473.6443 L 268.3109 472.6787 L 267.8503 472.5028 L 267.5872 471.8012 L 267.0606 471.7132 L 266.8631 471.0985 L 267.3237 470.4849 L 267.3237 469.3434 L 267.6528 468.6407 L 267.5212 467.9391 L 267.7843 467.2364 L 268.3109 466.4468 L 268.5089 465.3933 L 268.5089 463.813 L 269.0355 463.0235 L 269.7597 462.8475 L 270.0227 462.4087 L 270.7464 461.7952 L 271.6686 461.7072 L 272.0636 460.2149 L 271.7996 458.8106 L 271.2079 458.5467 L 271.01 457.9331 L 271.8665 457.2304 L 272.5902 456.1768 L 272.9853 456.0021 L 273.0513 454.3338 L 273.3144 453.983 L 273.4455 452.4027 L 273.7754 451.876 L 273.7754 450.9985 L 273.5119 449.7701 L 273.841 449.5942 L 273.907 448.1019 L 274.1701 447.8391 L 274.2356 447.0484 L 274.8942 445.9081 L 275.4208 444.3278 L 275.8819 443.889 L 276.145 442.8355 L 276.54 440.2897 L 277.0006 439.6749 L 276.9351 438.0959 L 277.9228 436.6036 L 278.7785 435.814 L 279.1075 435.814 L 280.0952 434.6725 L 280.8849 434.0578 L 281.5435 434.0578 L 282.4647 433.2682 L 282.9918 433.0043 L 283.913 432.0387 L 284.7691 430.8104 L 285.0982 429.7569 L 285.7564 429.1422 L 286.0199 427.9139 L 286.612 427.3871 L 287.6657 424.4905 L 287.6002 423.613 L 288.3898 422.1207 L 288.6534 420.7164 L 288.916 420.3657 L 289.7721 417.8199 L 289.7057 417.4703 Z" fill="#000000" fill-opacity="1" stroke="#000000" stroke-width="0" paint-order="fill" stroke-opacity="1" stroke-dasharray="" stroke-linecap="butt" stroke-linejoin="miter" stroke-miterlimit="10" transform="matrix(1.100000023841858,0,0,1.100000023841858,-40.000022888183594,-26.65001106262207)" clip-path="none" style="filter: url(#f1)"/>
<path data-code="201" d="M 352.1709 402.0569 L 352.5081 399.9944 L 352.7798 396.9038 L 352.8924 383.3623 L 353.2436 379.3122 L 353.7309 377.3896 L 354.097 376.4892 L 355.8486 373.1032 L 357.1825 370.021 L 359.3333 365.7382 L 359.8138 363.9313 L 360.1406 361.0974 L 360.1654 357.2474 L 359.7731 353.4649 L 359.3093 351.6724 L 357.4004 347.3077 L 356.7979 344.5485 L 356.5298 339.6775 L 356.6455 333.3624 L 359.0598 332.6283 L 360.579 331.9798 L 364.0194 330.0765 L 366.2162 329.0592 L 366.9295 328.6554 L 368.1636 327.685 L 369.2064 326.4965 L 370.0028 325.1259 L 370.5105 323.5384 L 371.3445 319.4787 L 371.994 317.9815 L 372.4257 317.3138 L 373.4626 316.1168 L 374.6921 315.1332 L 375.4036 314.7209 L 377.5869 313.6939 L 381.0214 311.8629 L 382.6243 311.3121 L 383.5039 311.1361 L 387.1418 310.8793 L 398.0424 311.1264 L 399.6136 310.9312 L 401.0004 310.3538 L 401.5691 309.8089 L 401.9334 309.1375 L 402.1034 307.7188 L 401.7431 306.4145 L 400.1845 303.4312 L 399.8975 301.8774 L 400.0869 300.2309 L 400.769 298.7904 L 401.8154 297.5959 L 403.1615 296.7039 L 403.9698 296.4025 L 405.64 296.1349 L 407.331 296.1904 L 408.9981 296.5243 L 410.5259 297.1499 L 413.8533 299.1894 L 419.3205 301.7979 L 420.6847 302.0823 L 422.0648 301.863 L 426.7947 299.7439 L 427.5085 299.3377 L 428.7502 298.3709 L 430.2907 296.5713 L 431.0772 295.1682 L 432.1146 292.943 L 433.4996 291.0023 L 435.2593 289.3377 L 438.9158 286.8473 L 441.0923 292.0896 L 441.5569 293.6747 L 441.8313 295.4201 L 442.2788 300.7347 L 442.5989 302.456 L 442.8506 303.2853 L 443.5101 304.7547 L 445.0041 307.5536 L 447.0748 312.6223 L 447.4762 313.9603 L 447.4604 315.3309 L 446.0202 319.4039 L 445.7233 321.9232 L 445.8164 323.6578 L 446.2191 325.3731 L 446.569 326.1855 L 447.4825 327.6838 L 449.1537 329.7462 L 452.2663 332.943 L 454.2656 334.6679 L 455.713 335.625 L 456.495 335.9998 L 458.1517 336.476 L 459.8603 336.6905 L 462.4712 336.7653 L 468.6237 336.6821 L 471.2152 336.8388 L 472.8972 337.1703 L 474.4874 337.8345 L 475.9176 338.8036 L 477.242 339.9439 L 480.3366 343.1491 L 482.6387 345.9311 L 485.2361 349.7595 L 483.8194 354.7667 L 481.7921 359.0965 L 481.3256 360.9431 L 481.0521 363.8349 L 481.1461 366.7604 L 481.6958 369.6136 L 484.332 375.5755 L 483.0433 376.7857 L 480.5418 378.2032 L 477.9549 379.845 L 474.2306 381.5048 L 470.8052 383.466 L 467.8462 384.8329 L 466.3496 385.6647 L 464.9298 386.7399 L 462.9214 388.5974 L 457.1974 394.6702 L 455.2587 396.5434 L 453.8782 397.6053 L 452.3441 398.3599 L 450.7267 398.6118 L 449.1338 398.3997 L 447.7583 397.8404 L 445.0968 396.4831 L 443.4392 395.9973 L 441.6776 395.7189 L 438.9438 395.514 L 434.302 395.4127 L 429.6664 395.4513 L 426.9394 395.6466 L 425.1783 395.9744 L 423.5958 396.5578 L 420.2246 398.4805 L 418.1046 399.5533 L 417.4347 399.9703 L 416.3756 400.8696 L 415.2862 402.2003 L 410.7149 402.6837 L 405.4221 402.8777 L 365.1115 402.8645 L 357.7006 402.7066 L 352.1709 402.0569 Z" fill="#000000" fill-opacity="1" stroke="#000000" stroke-width="0" paint-order="fill" stroke-opacity="1" stroke-dasharray="" stroke-linecap="butt" stroke-linejoin="miter" stroke-miterlimit="10" transform="matrix(1.100000023841858,0,0,1.100000023841858,-40.000022888183594,-26.65001106262207)" clip-path="none" style="filter: url(#f1)"/>
<path data-code="202" d="M 599.9802 245.2225 L 595.6141 247.6261 L 591.8596 249.2256 L 587.766 251.5834 L 584.7302 252.8804 L 580.6476 255.2514 L 577.6104 256.5533 L 573.5246 258.9231 L 570.4865 260.2237 L 566.3984 262.5863 L 563.3581 263.876 L 559.2763 266.2422 L 556.259 267.5959 L 554.2932 268.8965 L 551.1308 271.3712 L 548.7242 272.849 L 545.1239 271.1639 L 541.995 269.9452 L 537.9046 267.5814 L 534.905 266.2037 L 532.9323 264.8259 L 529.2339 261.5882 L 527.9429 260.6227 L 526.6704 259.9018 L 524.2648 258.8351 L 520.8086 256.8968 L 518.9471 256.1928 L 515.2505 255.3623 L 513.6951 254.8946 L 510.3334 253.3312 L 508.5207 252.702 L 506.5793 252.35 L 504.5827 252.1752 L 499.4888 252.0692 L 473.8143 252.1306 L 469.7854 252.2548 L 465.0943 252.6393 L 469.1354 245.9036 L 469.8193 244.4221 L 470.0743 243.588 L 470.392 241.8679 L 470.8391 236.5955 L 471.3657 234.0424 L 471.9922 232.555 L 473.4423 229.7319 L 474.4087 227.4019 L 475.2224 225.8554 L 476.267 224.3896 L 478.0575 222.3043 L 483.9243 216.3388 L 487.2797 213.3518 L 490.5243 211.1833 L 491.0767 210.6963 L 491.9527 209.4897 L 494.6043 204.7718 L 495.1933 203.2096 L 496.0661 198.9858 L 496.5195 197.3634 L 497.7951 194.5536 L 498.3199 193.0987 L 498.5193 191.4449 L 498.3167 189.7923 L 497.7852 188.3422 L 496.472 185.5457 L 495.9016 183.5495 L 496.8757 183.6375 L 497.6658 183.2867 L 497.9944 182.848 L 498.456 182.848 L 498.785 181.7945 L 499.0481 181.5305 L 498.9826 180.8289 L 499.4432 180.0394 L 500.4309 179.4246 L 500.8264 178.7219 L 501.4181 178.7219 L 502.0767 177.7564 L 502.0767 177.1428 L 502.8664 176.8788 L 504.3151 175.3866 L 504.3151 174.597 L 504.7757 173.5435 L 504.5786 172.578 L 503.393 171.7004 L 503.5254 171.2617 L 504.6437 171.3497 L 504.9073 171.6125 L 506.1576 171.8752 L 506.6842 171.2617 L 507.6723 170.9097 L 507.4748 169.4186 L 508.7911 169.2426 L 509.3181 168.6279 L 510.1078 168.1891 L 510.1738 167.1356 L 511.4245 167.0488 L 511.5561 166.7848 L 512.8728 166.8728 L 513.0704 167.1356 L 514.1236 167.1356 L 515.9005 166.3461 L 516.494 165.8193 L 517.0862 165.7313 L 517.8103 165.0298 L 518.3369 164.8538 L 519.1266 165.3805 L 519.5877 165.3805 L 519.7856 164.7658 L 521.1675 164.8538 L 521.4966 165.0298 L 522.4178 165.0298 L 523.1424 164.7658 L 523.9325 165.2046 L 524.3931 165.2046 L 524.7882 164.503 L 525.3808 164.327 L 526.3029 164.591 L 526.8946 165.2925 L 528.672 166.7848 L 529.2646 166.9608 L 530.0552 166.8728 L 530.4498 167.4876 L 531.5686 168.3651 L 531.8321 168.3651 L 532.9513 169.3306 L 534.0705 170.0322 L 535.1893 169.7694 L 535.7159 169.5054 L 537.9543 169.3306 L 538.6125 168.3651 L 538.2178 167.7504 L 538.3494 167.3116 L 538.876 167.2236 L 540.3247 166.2581 L 540.9169 166.2581 L 541.7726 165.3805 L 542.5627 165.2925 L 542.7602 164.8538 L 543.5499 165.2046 L 544.3401 164.415 L 544.7347 164.415 L 545.6559 163.5375 L 546.71 162.8347 L 547.3022 162.9227 L 547.8943 162.484 L 548.8824 162.0452 L 549.7381 161.8692 L 550.7913 162.0452 L 551.12 160.9037 L 551.779 160.9037 L 552.9638 160.1142 L 552.8978 159.4994 L 553.1613 158.4459 L 555.0702 157.1296 L 556.387 156.6908 L 557.0451 156.7788 L 557.1111 158.7979 L 557.3742 159.2366 L 557.9668 159.5874 L 557.7692 160.6409 L 558.2959 160.6409 L 558.8885 161.2557 L 559.086 161.8692 L 559.5471 161.7812 L 559.6786 162.9227 L 560.4027 163.4495 L 561.2584 163.4495 L 561.5875 163.9763 L 561.6535 164.591 L 562.5092 164.591 L 562.5092 165.2925 L 563.4309 165.3805 L 563.9575 166.2581 L 564.089 167.8384 L 564.4181 167.9263 L 564.3525 168.6279 L 564.6812 168.8919 L 564.8131 169.6814 L 564.8131 170.9977 L 564.6156 171.1737 L 564.9451 172.0512 L 564.9451 172.754 L 565.6033 173.8943 L 566.2614 174.333 L 566.0639 174.685 L 566.1959 175.5625 L 566.5905 176.0893 L 567.0516 176.0893 L 567.4471 177.0548 L 566.788 177.0548 L 566.3934 177.3176 L 565.4717 177.4936 L 563.3649 177.4056 L 562.9702 177.7564 L 563.0358 178.5471 L 562.6407 178.8099 L 562.2461 179.5126 L 561.9161 179.5126 L 561.2584 180.0394 L 561.3895 180.9169 L 561.2584 181.3557 L 561.785 183.4615 L 562.0486 183.7255 L 562.2461 185.3926 L 562.9702 185.4806 L 563.5624 186.7981 L 563.6944 187.6756 L 563.2993 188.2023 L 564.0235 188.2891 L 564.6812 187.7636 L 565.4057 188.7279 L 566.9856 189.8694 L 567.4471 190.3962 L 567.9068 190.4842 L 568.2368 190.9229 L 571.2653 192.854 L 572.1866 193.3807 L 572.5812 193.9955 L 573.0422 193.9955 L 573.6344 194.4343 L 574.293 194.609 L 575.4778 195.3118 L 575.8728 195.9265 L 576.663 196.1013 L 577.8477 196.8921 L 579.6911 197.8576 L 579.8886 197.8576 L 583.0483 199.6126 L 583.1803 199.7886 L 584.8261 200.6662 L 586.2744 201.6317 L 587.3276 201.8945 L 587.3927 202.2452 L 588.3148 202.5972 L 589.5651 203.4747 L 590.4217 203.6507 L 590.9483 204.1763 L 592.133 204.3523 L 592.5281 204.791 L 593.4502 205.055 L 596.5439 206.3713 L 599.0454 207.3368 L 602.1395 208.3024 L 604.5095 209.2679 L 607.2085 210.0574 L 608.9859 210.4082 L 610.5657 210.8482 L 612.2775 211.0229 L 615.1081 211.6377 L 616.8195 211.6377 L 617.9387 211.2869 L 618.9268 211.2869 L 619.6505 210.935 L 620.3086 210.935 L 622.679 210.0574 L 623.1392 209.7067 L 623.8633 209.5307 L 624.258 209.0039 L 625.1141 208.3904 L 625.7067 208.1891 L 626.6365 208.1891 L 627.0849 211.0205 L 627.2382 212.8057 L 627.2752 214.5849 L 627.1735 216.3436 L 626.8648 218.0625 L 626.2424 219.656 L 625.3541 221.0579 L 623.7544 222.9805 L 622.0028 224.8019 L 620.1775 226.5509 L 618.2845 228.1746 L 616.2734 229.5138 L 613.8641 230.5854 L 612.556 231.2965 L 611.1908 232.2898 L 609.2431 234.0087 L 605.5121 237.7707 L 602.5798 241.0747 L 601.0556 243.2095 L 599.9802 245.2225 Z" fill="#000000" fill-opacity="1" stroke="#000000" stroke-width="0" paint-order="fill" stroke-opacity="1" stroke-dasharray="" stroke-linecap="butt" stroke-linejoin="miter" stroke-miterlimit="10" transform="matrix(1.100000023841858,0,0,1.100000023841858,-40.000022888183594,-26.65001106262207)" clip-path="none" style="filter: url(#f1)"/>
<path data-code="203" d="M 266.468 325.4815 L 268.3109 326.0083 L 268.7064 326.5338 L 269.6937 326.793 L 270.6153 326.1831 L 270.9444 326.5338 L 270.1547 327.1486 L 269.3646 328.1141 L 268.6409 328.4649 L 268.0483 328.4649 L 267.5212 328.0261 L 266.468 327.6754 L 265.8099 327.6754 L 265.5463 326.7978 L 265.6123 326.1831 L 266.468 325.4815 Z M 264.6247 328.3781 L 264.4927 329.0797 L 263.9005 328.9037 L 264.1641 328.3781 L 264.6247 328.3781 Z M 272.5242 331.8882 L 272.8538 332.591 L 272.3932 332.9417 L 271.4055 332.7658 L 271.471 332.327 L 272.5242 331.8882 Z M 264.6907 354.9728 L 265.4803 355.1488 L 265.8099 355.9383 L 266.5996 356.9039 L 268.6409 356.9039 L 268.9695 357.2558 L 268.838 357.9574 L 269.5621 358.1334 L 269.6281 358.9229 L 270.1547 359.5377 L 269.7597 360.2392 L 270.5493 361.0299 L 270.3523 361.8195 L 270.8129 361.9955 L 271.076 362.6102 L 270.0227 362.873 L 269.5621 363.5757 L 269.9567 365.0668 L 269.4961 365.8576 L 270.4178 366.9111 L 270.4178 367.2618 L 271.076 367.7886 L 270.4834 368.5781 L 270.6813 369.2773 L 271.7346 369.4557 L 271.471 370.4212 L 270.9444 370.86 L 270.4834 371.5627 L 268.1798 372.5282 L 267.9823 373.055 L 267.5872 373.2298 L 267.0606 372.967 L 266.534 373.143 L 264.9537 374.0205 L 264.2291 374.1953 L 263.7025 373.4033 L 263.7025 372.5282 L 263.3739 372.2642 L 262.7813 372.3522 L 262.8473 370.948 L 261.267 370.5092 L 260.6089 370.5092 L 259.8192 369.8076 L 259.7532 369.3677 L 259.0951 369.3677 L 258.4365 368.9289 L 258.0414 368.9289 L 257.4492 368.4022 L 257.4492 367.8766 L 256.9882 367.4366 L 255.8034 367.4366 L 255.2108 366.8231 L 253.9605 366.0323 L 252.8404 366.1203 L 252.9073 365.4188 L 253.2359 365.1548 L 252.7093 364.2773 L 252.1827 364.2773 L 251.261 363.9265 L 250.5369 363.1358 L 249.7472 363.1358 L 249.089 364.0145 L 248.1669 364.1893 L 247.8378 363.6625 L 247.2452 363.5757 L 246.9162 363.2238 L 245.8634 363.049 L 245.2699 362.4342 L 244.9413 361.8195 L 244.6782 360.6792 L 244.3487 360.4152 L 244.1516 359.5377 L 243.2954 358.9229 L 243.0324 358.2214 L 243.0324 357.6066 L 243.559 357.4306 L 245.8634 357.4306 L 246.6531 357.3426 L 247.9694 356.7291 L 249.023 356.9919 L 250.7344 356.7291 L 250.8659 356.2903 L 251.4586 356.2903 L 251.8536 355.8515 L 253.697 356.0263 L 255.2763 356.0263 L 255.4743 355.6756 L 257.6468 355.8515 L 258.766 356.2023 L 259.6881 356.2903 L 260.2798 356.7291 L 261.0699 356.8171 L 261.5301 355.9383 L 262.7158 355.8515 L 264.0325 354.9728 L 264.6907 354.9728 Z" fill="#000000" fill-opacity="1" stroke="#000000" stroke-width="0" paint-order="fill" stroke-opacity="1" stroke-dasharray="" stroke-linecap="butt" stroke-linejoin="miter" stroke-miterlimit="10" transform="matrix(1.100000023841858,0,0,1.100000023841858,-40.000022888183594,-26.65001106262207)" clip-path="none" style="filter: url(#f1)"/>
<path data-code="204" d="M 548.7242 272.849 L 546.2557 277.4802 L 544.6492 281.3374 L 543.2769 283.4601 L 541.6112 285.4274 L 539.8221 287.3283 L 528.1318 299.2268 L 526.3983 301.159 L 524.8818 303.2058 L 524.1789 304.557 L 523.1736 307.0534 L 521.6819 309.8596 L 521.0188 311.3241 L 520.6079 312.7971 L 519.7689 317.3343 L 519.25 318.8217 L 517.5893 322.4234 L 517.1598 324.0556 L 516.3222 328.2696 L 515.6428 329.9041 L 515.1791 330.6768 L 514.0951 332.1197 L 512.2201 334.0784 L 510.1223 335.7383 L 508.6134 336.5519 L 505.6477 337.8718 L 502.2245 339.8149 L 499.1751 341.0854 L 495.0775 343.4179 L 492.0576 344.7595 L 490.0465 346.0529 L 485.2361 349.7595 L 482.6387 345.9311 L 480.3366 343.1491 L 477.242 339.9439 L 475.9176 338.8036 L 474.4874 337.8345 L 472.8972 337.1703 L 471.2152 336.8388 L 468.6237 336.6821 L 462.4712 336.7653 L 459.8603 336.6905 L 458.1517 336.476 L 456.495 335.9998 L 455.713 335.625 L 454.2656 334.6679 L 452.2663 332.943 L 449.1537 329.7462 L 447.4825 327.6838 L 446.569 326.1855 L 446.2191 325.3731 L 445.8164 323.6578 L 445.7233 321.9232 L 446.0202 319.4039 L 447.4604 315.3309 L 447.4762 313.9603 L 447.0748 312.6223 L 445.0041 307.5536 L 443.5101 304.7547 L 442.8506 303.2853 L 442.5989 302.456 L 442.2788 300.7347 L 441.8313 295.4201 L 441.5569 293.6747 L 441.0923 292.0896 L 438.9158 286.8473 L 439.4772 285.4575 L 440.3252 284.0207 L 443.5214 279.8608 L 444.4711 278.3577 L 444.8558 277.5428 L 445.3883 275.7082 L 445.7061 272.8261 L 445.6555 268.8989 L 445.3015 265.959 L 444.4874 262.6429 L 448.755 260.3563 L 452.5326 258.7796 L 456.7034 256.6039 L 458.2782 256.1326 L 461.4284 255.4141 L 462.8776 254.8211 L 463.9661 254.0111 L 465.0943 252.6393 L 469.7854 252.2548 L 473.8143 252.1306 L 499.4888 252.0692 L 504.5827 252.1752 L 506.5793 252.35 L 508.5207 252.702 L 510.3334 253.3312 L 513.6951 254.8946 L 515.2505 255.3623 L 518.9471 256.1928 L 520.8086 256.8968 L 524.2648 258.8351 L 526.6704 259.9018 L 527.9429 260.6227 L 529.2339 261.5882 L 532.9323 264.8259 L 534.905 266.2037 L 537.9046 267.5814 L 541.995 269.9452 L 545.1239 271.1639 L 548.7242 272.849 Z" fill="#000000" fill-opacity="1" stroke="#000000" stroke-width="0" paint-order="fill" stroke-opacity="1" stroke-dasharray="" stroke-linecap="butt" stroke-linejoin="miter" stroke-miterlimit="10" transform="matrix(1.100000023841858,0,0,1.100000023841858,-40.000022888183594,-26.65001106262207)" clip-path="none" style="filter: url(#f1)"/>
<path data-code="205" d="M 353.5623 172.7672 L 353.6391 172.7335 L 353.169 178.3555 L 352.6144 180.9495 L 352.3047 181.7655 L 351.4346 183.306 L 347.77 187.9408 L 347.0974 189.3776 L 346.9605 190.9012 L 347.436 192.3284 L 348.4318 193.3193 L 352.7617 195.812 L 356.3648 197.4285 L 357.6364 198.3397 L 358.7321 199.4957 L 359.1949 200.1575 L 359.9245 201.7643 L 360.4136 204.5753 L 360.5135 207.4984 L 360.1492 227.9516 L 360.1564 230.9482 L 359.487 231.4749 L 359.0919 232.0885 L 358.3026 232.2645 L 357.6431 232.9672 L 356.9195 233.318 L 355.8662 233.406 L 355.2741 234.4595 L 354.813 234.3715 L 354.6155 233.9327 L 353.9578 234.0195 L 353.0357 234.9851 L 353.1672 236.0386 L 352.5091 237.0921 L 351.5218 237.4429 L 350.8632 237.3561 L 350.5342 237.7068 L 349.9416 237.6189 L 349.2834 237.7948 L 348.4273 238.3216 L 346.6499 238.3216 L 345.2016 239.2871 L 344.6746 239.3739 L 343.5558 240.7782 L 342.2395 240.8662 L 341.712 241.8317 L 341.2518 242.2705 L 339.8036 242.8852 L 339.0794 242.8852 L 338.9479 242.4465 L 338.3553 242.4465 L 338.0917 242.0077 L 337.302 242.1837 L 336.841 242.7972 L 336.973 243.7628 L 337.4336 243.9388 L 337.8287 244.7283 L 337.6976 245.343 L 337.1705 246.0446 L 336.973 246.8353 L 337.4996 248.0636 L 337.4336 248.6784 L 337.8947 249.6439 L 337.8287 249.9947 L 338.2893 250.8722 L 338.9479 251.7509 L 339.0794 252.3645 L 339.7376 253.1552 L 340.1986 253.2432 L 340.4617 254.1208 L 340.3302 254.4715 L 340.7252 255.1743 L 340.9223 256.0518 L 341.4489 256.9293 L 341.5158 258.5964 L 341.8444 258.9484 L 342.3055 260.0019 L 342.5026 261.2302 L 341.3178 262.2837 L 340.6592 262.7225 L 339.8695 262.9853 L 339.672 263.3372 L 337.302 264.8295 L 336.2488 265.1803 L 336.1168 265.5311 L 335.0636 266.7594 L 334.6681 266.7606 L 334.0764 267.2861 L 334.0104 268.3396 L 332.8261 269.2172 L 332.5626 270.0959 L 330.5212 272.3777 L 330.0606 273.0793 L 329.468 273.606 L 328.2833 273.958 L 328.0197 274.3088 L 327.4931 274.3088 L 325.9793 275.4491 L 325.7822 276.5026 L 325.9133 276.7666 L 325.0576 277.8201 L 324.5965 277.9949 L 322.8852 279.2244 L 322.4897 279.9259 L 321.3709 280.2767 L 320.9758 280.7167 L 319.5935 280.8035 L 319.198 281.1554 L 318.0793 281.6822 L 317.2896 282.2077 L 316.829 282.2077 L 315.4458 283.1733 L 315.3147 283.4372 L 314.5245 283.5252 L 313.4713 284.052 L 312.9447 284.5788 L 311.8255 285.1043 L 311.3644 285.1043 L 311.1014 285.8071 L 310.5748 286.5966 L 309.3245 287.1234 L 308.8629 287.6501 L 307.5466 287.6501 L 306.625 288.0009 L 306.4925 289.3184 L 306.0324 290.3707 L 305.1762 291.0734 L 304.1239 291.3362 L 303.9259 291.7762 L 303.4644 291.7762 L 302.6752 290.3707 L 302.0826 290.1079 L 300.8318 290.0199 L 300.5027 290.4587 L 299.9101 290.3707 L 299.0545 291.0734 L 298.922 291.6002 L 298.3303 291.951 L 298.2643 292.5657 L 297.6066 293.0925 L 297.2111 293.7072 L 296.4865 293.882 L 295.3018 293.0045 L 294.3145 293.0925 L 293.5248 293.3553 L 292.9978 293.0925 L 292.8002 292.4777 L 292.2736 292.215 L 291.9446 291.1614 L 291.418 290.5467 L 291.2864 289.7571 L 291.747 288.9664 L 292.8002 288.2649 L 293.2609 287.1234 L 293.9855 286.6846 L 293.9855 286.1578 L 294.4461 285.7191 L 295.1042 284.1388 L 295.7628 282.8225 L 296.2894 280.8914 L 296.6845 280.8035 L 297.2111 279.5752 L 297.8697 278.7856 L 298.4619 278.3456 L 299.4486 276.9414 L 300.8318 275.4491 L 300.9634 274.7475 L 301.49 274.3088 L 302.0166 273.0793 L 302.2801 271.3242 L 302.2801 270.1827 L 302.8067 268.8664 L 303.5309 267.9889 L 303.9915 267.7249 L 304.0575 267.1993 L 304.5181 266.5846 L 304.9131 264.8295 L 305.1762 264.5655 L 306.3614 262.1957 L 306.625 260.7914 L 307.4146 259.6499 L 307.7437 258.5964 L 307.7442 257.8069 L 309.4551 256.0518 L 310.4432 255.613 L 310.7723 254.9103 L 311.1674 254.7343 L 311.7595 252.9792 L 311.694 252.0137 L 312.1546 251.487 L 313.0767 250.8722 L 313.0767 250.6094 L 313.9319 249.5559 L 313.8668 248.7664 L 314.9192 247.2741 L 315.1171 246.1326 L 315.7088 245.9578 L 316.1044 245.431 L 316.2355 243.6748 L 315.7757 242.3585 L 315.3147 241.6569 L 315.4458 241.0422 L 316.2355 240.9542 L 316.8945 240.2526 L 317.6842 238.8472 L 318.0137 238.5844 L 317.9477 235.9506 L 317.4211 234.2835 L 317.3556 232.4405 L 317.5527 232.2645 L 317.4211 231.299 L 317.7502 230.9482 L 318.3428 230.8602 L 318.8694 229.9827 L 318.5403 227.8756 L 317.8813 226.2086 L 316.4994 224.4523 L 316.1044 224.2775 L 314.7881 222.5212 L 314.5245 222.4345 L 312.6812 220.7662 L 312.5501 220.2394 L 311.562 219.5379 L 311.2329 219.5379 L 310.1797 217.9576 L 309.5871 217.9576 L 309.1265 217.2549 L 308.4023 217.1669 L 307.2171 216.3773 L 306.8229 215.7626 L 306.3614 215.4998 L 306.3614 214.973 L 307.2171 214.885 L 308.1392 214.973 L 308.4679 214.797 L 308.5999 214.1835 L 309.1916 213.9195 L 309.258 212.5152 L 310.1797 212.3392 L 310.4432 212.0765 L 310.5748 210.2334 L 310.1797 209.0039 L 309.7191 208.5651 L 309.1916 207.2488 L 308.1392 207.0729 L 307.3491 206.7221 L 306.625 206.8981 L 305.0447 206.9861 L 304.9791 206.5473 L 304.3865 206.5473 L 304.1239 206.8981 L 303.6624 206.4593 L 303.7935 205.7566 L 304.255 205.5818 L 304.7156 205.055 L 305.4398 204.967 L 306.0984 204.1763 L 307.4806 203.3868 L 308.0732 202.2452 L 308.7974 201.9825 L 310.1137 201.1049 L 310.5748 201.1049 L 311.0354 200.6662 L 311.0354 200.0514 L 311.7595 199.6126 L 312.023 199.1739 L 312.7467 199.1739 L 312.8787 198.2964 L 313.4713 198.1204 L 314.261 197.3308 L 315.3147 196.8921 L 316.3024 197.0668 L 318.0137 196.5401 L 319.198 196.5401 L 320.9103 196.1013 L 322.095 195.4866 L 322.5557 194.697 L 322.6876 193.9955 L 323.2143 193.5555 L 323.2803 192.942 L 323.9384 192.678 L 324.3335 192.2392 L 324.531 191.5377 L 325.1232 191.0989 L 325.5842 191.0989 L 326.2424 190.659 L 326.7034 190.659 L 327.4931 190.1334 L 328.6779 190.3082 L 328.3488 191.5377 L 328.8759 192.1512 L 329.6655 191.8005 L 330.6532 191.8005 L 331.1794 191.0109 L 331.1794 190.3082 L 331.772 189.6066 L 331.9691 188.8159 L 332.8261 188.4651 L 333.2203 187.6756 L 333.8129 187.0608 L 334.537 187.0608 L 335.1296 186.7101 L 335.3927 186.1833 L 336.6439 185.5686 L 337.6311 185.3926 L 338.2233 184.867 L 338.2233 183.2867 L 339.0794 182.584 L 340.7912 182.1452 L 341.91 181.0049 L 342.7001 181.0049 L 343.6213 180.5649 L 343.8193 180.2142 L 344.9385 179.5126 L 345.8598 178.6339 L 345.8598 177.4056 L 346.8474 176.8788 L 348.8223 176.8788 L 349.81 176.7908 L 350.4022 175.2986 L 351.1919 175.2986 L 351.9824 174.597 L 352.3771 174.597 L 352.9037 173.9823 L 352.9041 173.4555 L 353.5623 172.7672 Z" fill="#000000" fill-opacity="1" stroke="#000000" stroke-width="0" paint-order="fill" stroke-opacity="1" stroke-dasharray="" stroke-linecap="butt" stroke-linejoin="miter" stroke-miterlimit="10" transform="matrix(1.100000023841858,0,0,1.100000023841858,-40.000022888183594,-26.65001106262207)" clip-path="none" style="filter: url(#f1)"/>
<path data-code="206" d="M 352.1709 402.0569 L 346.2313 405.4079 L 344.6777 405.9419 L 343.0039 406.1709 L 341.3196 406.1323 L 339.6761 405.8382 L 338.1867 405.2813 L 335.541 403.8782 L 334.0918 403.3683 L 332.5468 403.1574 L 331.0447 403.2611 L 329.6881 403.7408 L 329.1177 404.1591 L 328.3574 405.2512 L 327.1491 408.2092 L 326.7238 408.7384 L 325.4495 409.5412 L 323.057 410.0788 L 317.6751 410.397 L 314.9761 410.7815 L 313.3714 411.3035 L 310.5512 412.6511 L 309.0465 413.2213 L 304.995 414.2013 L 303.4174 414.6979 L 299.9201 416.3854 L 298.3068 416.9411 L 296.4752 417.2714 L 294.5898 417.4269 L 289.7057 417.4703 L 290.1012 416.3276 L 289.9692 415.3621 L 290.7598 414.3965 L 290.7598 412.9922 L 290.5627 412.2027 L 290.5627 409.1301 L 291.0229 407.6379 L 290.9569 406.7603 L 290.3647 405.5308 L 290.2992 403.5998 L 289.6406 401.494 L 289.7721 400.9672 L 289.18 397.5439 L 289.18 396.8411 L 289.6406 396.0516 L 289.048 393.8578 L 288.1268 392.1895 L 287.8637 390.0824 L 287.3362 389.4689 L 287.0736 388.6782 L 286.612 388.3274 L 285.6908 386.6603 L 285.8865 385.256 L 285.4933 384.7293 L 285.1642 383.7637 L 285.3613 382.973 L 286.612 381.6567 L 287.2046 381.3939 L 287.8637 380.5152 L 287.9948 379.9884 L 288.5214 379.2869 L 288.916 379.1109 L 289.5746 377.3559 L 289.5746 376.3903 L 288.916 374.1953 L 289.114 373.5817 L 288.916 372.4402 L 288.4554 371.7387 L 289.18 369.2809 L 289.048 368.4022 L 289.7057 367.9634 L 290.2992 367.2618 L 290.6278 366.2083 L 290.7598 364.2773 L 290.6938 363.3118 L 289.9037 361.6447 L 288.5874 360.4152 L 287.7972 359.8884 L 285.4273 357.6946 L 284.5716 357.1678 L 285.4933 356.3771 L 286.0854 355.3248 L 286.0854 354.4461 L 285.8883 353.9205 L 286.415 353.0418 L 286.8096 351.4627 L 285.9539 350.2332 L 286.283 349.7064 L 286.217 349.0049 L 286.5465 348.2141 L 287.2046 347.9514 L 287.8637 347.9514 L 287.7972 347.3366 L 288.1923 347.0738 L 288.1268 346.5471 L 288.7845 345.9323 L 288.5214 345.3176 L 288.8505 344.44 L 289.7057 343.8265 L 289.5086 341.8075 L 289.7721 340.9299 L 290.1012 340.5779 L 290.2323 339.7884 L 289.7721 338.6469 L 288.5214 336.8918 L 287.6657 335.8383 L 287.6002 334.61 L 287.9948 333.3805 L 288.4554 333.0297 L 289.18 331.9762 L 289.3771 330.6599 L 289.7057 330.1332 L 289.9037 328.8916 L 292.162 329.8692 L 296.3767 332.0353 L 298.2829 332.5464 L 301.2707 332.8803 L 305.3548 332.9755 L 347.704 332.9261 L 352.8589 333.0623 L 356.6455 333.3624 L 356.5298 339.6775 L 356.7979 344.5485 L 357.4004 347.3077 L 359.3093 351.6724 L 359.7731 353.4649 L 360.1654 357.2474 L 360.1406 361.0974 L 359.8138 363.9313 L 359.3333 365.7382 L 357.1825 370.021 L 355.8486 373.1032 L 354.097 376.4892 L 353.7309 377.3896 L 353.2436 379.3122 L 352.8924 383.3623 L 352.7798 396.9038 L 352.5081 399.9944 L 352.1709 402.0569 Z" fill="#000000" fill-opacity="1" stroke="#000000" stroke-width="0" paint-order="fill" stroke-opacity="1" stroke-dasharray="" stroke-linecap="butt" stroke-linejoin="miter" stroke-miterlimit="10" transform="matrix(1.100000023841858,0,0,1.100000023841858,-40.000022888183594,-26.65001106262207)" clip-path="none" style="filter: url(#f1)"/>
<path data-code="207" d="M 353.5623 172.7672 L 354.7475 172.1392 L 354.813 171.1737 L 355.4056 170.2962 L 356.2613 169.9442 L 356.3273 169.6814 L 357.6431 169.0667 L 357.8411 168.7159 L 359.0919 167.8384 L 359.9476 167.7504 L 360.0136 167.2236 L 362.3835 166.7848 L 362.7786 166.5221 L 364.4904 166.6088 L 366.9255 165.9073 L 367.519 165.9073 L 367.9131 165.5565 L 368.4397 165.5565 L 369.0323 165.2046 L 369.0979 164.7658 L 369.954 164.327 L 370.6782 164.1522 L 370.9417 163.2735 L 371.4683 162.8347 L 372.258 162.9227 L 372.7191 162.484 L 372.8501 161.7812 L 373.9038 161.6064 L 374.694 161.1677 L 374.957 160.8157 L 376.5373 160.1142 L 378.1171 158.4459 L 378.7097 158.4459 L 379.9609 157.0416 L 380.6846 156.7788 L 381.0797 156.2521 L 381.5403 156.2521 L 381.8694 155.2865 L 382.7251 154.7598 L 384.1734 154.6718 L 385.0295 154.8478 L 386.0167 154.233 L 386.6093 153.5315 L 387.1359 153.1795 L 387.8601 153.0047 L 388.5838 151.7752 L 389.967 151.2485 L 390.0985 150.8977 L 390.8226 150.8097 L 391.2173 150.0202 L 392.468 149.3174 L 392.9955 149.3174 L 394.3114 148.7039 L 395.5621 147.8251 L 396.4182 147.6503 L 397.2079 147.7383 L 398.5902 147.2116 L 399.0513 147.2116 L 399.5119 146.5968 L 400.236 146.0701 L 401.0262 145.8941 L 401.8163 146.0701 L 402.1449 145.5433 L 402.7385 145.4553 L 404.2518 146.5088 L 405.6346 146.5088 L 406.1612 146.1581 L 407.6095 146.4208 L 408.3996 146.7728 L 408.7282 146.2461 L 411.4273 146.334 L 412.3489 145.9821 L 416.1672 145.8941 L 416.3647 146.5088 L 416.8258 146.4208 L 417.6155 145.5433 L 418.8007 145.4553 L 419.2613 144.9286 L 419.8539 144.7538 L 420.512 143.4375 L 420.512 142.5587 L 420.7756 141.2424 L 421.0387 140.8917 L 421.0387 140.0141 L 421.3022 139.6622 L 421.6313 138.1699 L 422.0919 137.3803 L 422.3554 136.5908 L 423.5402 135.3613 L 424.4618 134.7478 L 425.4495 134.8345 L 426.3052 134.045 L 426.3712 132.7287 L 426.7663 132.5527 L 427.7535 131.5872 L 428.2801 131.4992 L 429.1358 130.2709 L 429.2678 131.5872 L 428.7412 132.114 L 428.4776 132.7287 L 429.2678 133.957 L 430.1234 134.3958 L 431.3082 134.5718 L 432.0323 134.221 L 432.7565 134.6598 L 434.4028 134.4838 L 435.324 134.045 L 435.9166 133.3423 L 437.2984 132.8167 L 438.9447 131.938 L 439.3398 131.938 L 440.3274 131.4112 L 440.5245 131.0604 L 441.3807 130.7977 L 441.5122 130.3589 L 442.3023 129.9201 L 442.4339 129.4814 L 443.026 128.7786 L 444.1457 128.0759 L 444.9354 127.3743 L 445.528 126.3208 L 447.766 124.8285 L 447.9635 124.3018 L 449.0827 123.775 L 449.6093 123.0735 L 449.8733 123.0735 L 450.531 122.108 L 450.7945 120.9664 L 450.7945 118.6846 L 450.3999 117.1043 L 450.2675 115.6121 L 449.7408 115.1733 L 449.6093 112.7155 L 449.4118 112.2767 L 448.9512 110.0829 L 448.3586 108.5906 L 447.0414 106.4836 L 447.3053 105.782 L 447.0414 104.6405 L 445.9886 103.499 L 445.9231 102.7975 L 445.5935 102.3587 L 444.5403 102.2707 L 444.0137 102.0079 L 443.2891 100.8664 L 442.697 100.5157 L 442.7625 99.9889 L 441.6437 99.8129 L 440.657 99.1114 L 440.0635 99.2861 L 439.2168 98.4279 L 435.6644 95.5494 L 433.091 91.433 L 432.3917 89.9672 L 431.9691 88.2736 L 431.8701 85.6567 L 432.1246 83.9342 L 432.6661 82.3479 L 434.5131 78.8462 L 435.7493 75.6724 L 437.7785 70.9509 L 442.5112 71.709 L 447.2073 71.9706 L 451.8776 71.9381 L 453.7078 71.7645 L 455.4906 71.38 L 457.1292 70.6652 L 458.5657 69.6731 L 460.5429 67.9024 L 464.9922 63.5111 L 466.2953 62.4227 L 467.6374 61.521 L 470.6275 60.0938 L 474.6949 57.7071 L 477.7085 56.3679 L 480.4179 54.8045 L 481.8509 54.1018 L 483.4962 53.6208 L 486.0597 53.3002 L 488.6389 53.3207 L 491.1476 53.7848 L 492.652 54.5104 L 493.891 55.535 L 494.9071 56.7766 L 495.6837 58.2339 L 498.8519 66.5295 L 499.1078 70.3662 L 498.899 73.3195 L 498.475 75.2083 L 496.9982 78.6955 L 496.3834 80.5591 L 496.0254 82.5781 L 495.7831 85.7206 L 495.7407 112.6383 L 495.9857 120.0889 L 495.3623 120.8784 L 494.8357 121.0544 L 494.7688 121.4932 L 494.0451 122.2827 L 493.0579 123.0735 L 492.7284 123.6882 L 492.3337 123.6882 L 492.0702 124.2138 L 491.0834 125.3553 L 490.6879 125.4433 L 490.4244 126.5848 L 490.1613 126.8476 L 489.5027 126.7596 L 489.1081 127.1104 L 488.9106 127.9891 L 488.7786 130.0069 L 488.3835 130.7977 L 487.5938 131.4112 L 486.7381 131.1484 L 485.7505 131.0604 L 484.8292 131.2364 L 482.9199 131.4112 L 482.5248 131.7632 L 481.6036 131.7632 L 480.6815 132.7287 L 480.2864 132.9035 L 478.6406 132.9915 L 477.9164 133.1675 L 477.1923 133.6942 L 476.2051 133.869 L 475.3498 134.221 L 473.111 134.5718 L 472.8479 134.8345 L 471.8602 135.0985 L 470.5435 135.7133 L 469.4242 135.7133 L 468.7657 136.0641 L 467.7124 136.2388 L 466.7912 136.9416 L 466.5937 137.2924 L 465.3429 137.2924 L 463.8286 138.5219 L 463.2365 138.6099 L 462.1833 139.3994 L 461.5247 140.2769 L 460.4059 140.8917 L 459.6813 141.7692 L 458.6941 142.5587 L 458.1015 142.6467 L 457.5089 143.2615 L 455.666 144.315 L 455.2709 144.8418 L 454.4808 145.4553 L 453.362 145.4553 L 451.4527 146.5088 L 451.1236 146.5088 L 449.9384 147.3864 L 449.2142 147.2996 L 448.8852 147.6503 L 447.9635 147.8251 L 446.5807 149.1426 L 445.528 149.4054 L 444.5403 149.4054 L 444.0137 149.7562 L 442.697 149.9322 L 441.3147 150.4589 L 440.9856 150.8097 L 440.459 150.8097 L 439.3398 151.2485 L 437.9579 152.126 L 437.2984 152.8287 L 435.5875 153.6183 L 434.4028 153.6183 L 433.086 153.8822 L 432.8885 154.233 L 430.9791 154.6718 L 430.6505 154.9358 L 429.8599 155.0226 L 429.3333 155.3745 L 428.7412 155.3745 L 428.6092 155.7253 L 427.4249 155.9881 L 426.7003 156.8668 L 425.9761 157.1296 L 425.4495 157.5684 L 425.0544 158.8847 L 424.1988 159.5874 L 424.1328 160.2901 L 423.4086 160.5529 L 422.5529 161.3425 L 422.2894 161.7812 L 421.5648 162.1332 L 421.1711 162.66 L 419.2613 162.66 L 417.7475 163.1867 L 417.0233 163.8003 L 416.2992 165.1178 L 416.2992 166.8728 L 416.6938 170.1202 L 416.8913 170.4709 L 416.8913 171.3497 L 417.1549 171.6125 L 417.3524 172.9287 L 417.8795 173.4555 L 417.747 174.2462 L 415.7066 174.2462 L 414.7189 174.509 L 414.5869 175.1238 L 413.5337 174.9478 L 413.0731 175.3866 L 413.0731 176.5281 L 413.7317 176.7028 L 413.8632 177.3176 L 413.4682 177.6684 L 413.008 178.6339 L 412.151 179.3366 L 410.506 178.7219 L 410.1765 178.3711 L 409.5184 178.3711 L 409.1893 178.1083 L 407.3459 178.1951 L 406.8193 178.8979 L 406.0292 179.0739 L 404.844 178.9859 L 403.9888 179.3366 L 403.7252 179.8634 L 403.3961 181.3557 L 403.3961 182.4092 L 403.5937 182.76 L 403.4621 183.5495 L 402.9355 183.3747 L 401.9483 183.4615 L 401.4213 184.691 L 400.6971 184.779 L 400.4336 185.4806 L 400.4336 186.4461 L 401.0262 188.0264 L 400.9602 188.9919 L 401.4872 190.2202 L 401.7503 191.8885 L 401.2897 192.942 L 400.1705 194.961 L 399.8414 194.961 L 399.3804 195.9265 L 398.8533 196.6281 L 397.9321 197.3308 L 397.7345 197.7696 L 396.6153 198.5591 L 395.299 200.2274 L 394.904 201.1049 L 394.2458 201.5437 L 393.3241 202.5092 L 392.7975 202.772 L 392.666 203.7375 L 392.7975 204.3523 L 392.534 204.703 L 391.0857 205.9326 L 390.164 205.9326 L 388.9793 205.5818 L 388.3207 205.5818 L 387.9261 206.1073 L 387.7945 206.8981 L 386.8069 208.3904 L 386.8724 209.0039 L 386.4782 209.7067 L 385.3581 209.7946 L 385.2926 210.2334 L 384.5029 210.5842 L 383.5812 210.4082 L 382.8566 210.8482 L 382.396 211.9885 L 382.0009 212.1645 L 381.0797 212.1645 L 380.224 212.5152 L 378.6437 213.3928 L 377.459 213.3928 L 376.1418 214.3583 L 374.8915 214.2703 L 374.7595 214.5343 L 373.3117 215.3238 L 372.7191 216.1146 L 372.0605 216.6413 L 371.9289 217.1669 L 370.02 218.4844 L 369.6914 218.4844 L 368.9008 219.1859 L 368.7693 219.8007 L 369.0979 220.7662 L 369.1639 221.4689 L 368.6373 222.2585 L 368.0456 223.5748 L 367.3861 224.2775 L 366.1358 225.067 L 365.8727 226.1206 L 364.2269 226.9981 L 364.0953 227.6128 L 363.6338 228.0516 L 363.3707 228.6664 L 362.5151 228.7532 L 362.0544 229.7187 L 361.7254 229.7187 L 361.3959 230.3334 L 360.8037 230.4214 L 360.1564 230.9482 L 360.1492 227.9516 L 360.5135 207.4984 L 360.4136 204.5753 L 359.9245 201.7643 L 359.1949 200.1575 L 358.7321 199.4957 L 357.6364 198.3397 L 356.3648 197.4285 L 352.7617 195.812 L 348.4318 193.3193 L 347.436 192.3284 L 346.9605 190.9012 L 347.0974 189.3776 L 347.77 187.9408 L 351.4346 183.306 L 352.3047 181.7655 L 352.6144 180.9495 L 353.169 178.3555 L 353.6391 172.7335 L 353.5623 172.7672 Z" fill="#000000" fill-opacity="1" stroke="#000000" stroke-width="0" paint-order="fill" stroke-opacity="1" stroke-dasharray="" stroke-linecap="butt" stroke-linejoin="miter" stroke-miterlimit="10" transform="matrix(1.100000023841858,0,0,1.100000023841858,-40.000022888183594,-26.65001106262207)" clip-path="none" style="filter: url(#f1)"/>
<path data-code="208" d="M 252.1167 258.1576 L 252.5118 257.8949 L 253.3679 257.9829 L 253.631 257.7189 L 253.697 256.7533 L 253.9605 255.613 L 254.8166 254.9983 L 255.1457 255.4371 L 255.1457 256.8413 L 255.5394 257.4561 L 255.6063 258.1576 L 255.2763 258.9484 L 255.2108 260.0887 L 254.4211 260.7914 L 253.8285 261.581 L 252.8404 261.8449 L 252.1167 262.7225 L 251.4586 262.8105 L 250.9319 263.3372 L 250.9319 264.1268 L 251.1955 264.4775 L 250.5369 265.1803 L 249.9443 264.9163 L 247.9038 265.1803 L 246.7186 265.795 L 246.5871 266.2338 L 245.4679 267.2861 L 245.2048 267.0233 L 243.8221 267.1993 L 243.493 267.6381 L 240.7939 267.7249 L 239.6087 266.7606 L 239.0821 266.6726 L 238.49 265.9698 L 238.0949 266.0578 L 237.1737 266.6726 L 236.6471 266.5846 L 236.384 266.9353 L 235.0668 267.0233 L 234.3426 267.7249 L 233.4214 267.7249 L 232.4993 267.9009 L 231.8411 268.4276 L 231.5121 268.9544 L 229.3401 268.8664 L 228.0229 269.2172 L 227.8254 269.8319 L 226.6411 270.3587 L 224.9943 270.3587 L 224.6653 270.7094 L 223.5465 270.7094 L 223.217 271.2362 L 222.0982 271.939 L 221.3081 272.1137 L 221.1765 271.851 L 219.7282 272.1137 L 219.3332 272.4657 L 218.609 272.3777 L 218.0164 272.7285 L 217.4247 273.518 L 217.3578 274.1328 L 216.2391 273.87 L 216.1731 274.3088 L 215.5809 274.6595 L 214.1986 274.9235 L 213.54 275.2743 L 212.6844 274.6595 L 211.6967 275.0983 L 211.1045 274.7475 L 209.9853 275.0103 L 209.1292 275.0103 L 208.9981 274.4835 L 208.6026 274.2208 L 207.6149 274.2208 L 207.2203 273.958 L 206.2986 273.782 L 204.6523 273.694 L 204.2577 273.782 L 203.7311 274.3968 L 203.336 276.0638 L 202.7439 276.5026 L 201.8222 276.0638 L 201.4276 276.3278 L 200.8341 276.1518 L 200.637 275.4491 L 199.9129 275.4491 L 199.7809 275.889 L 198.399 276.0638 L 198.135 275.5371 L 196.8847 275.1863 L 195.436 275.1863 L 194.7783 275.3623 L 194.3172 276.2398 L 193.5931 276.1518 L 191.6178 276.9414 L 191.1576 277.7321 L 190.3015 277.8201 L 190.0388 278.0829 L 189.3802 277.2933 L 188.327 277.4681 L 187.866 276.6786 L 187.932 276.1518 L 187.4709 274.8355 L 187.0103 274.0448 L 186.9443 273.1673 L 186.4177 272.6405 L 184.5739 271.939 L 183.6526 271.939 L 183.192 271.1482 L 182.5994 271.1482 L 182.5994 270.1827 L 181.8097 269.7439 L 181.2831 269.7439 L 180.1639 269.2172 L 179.5713 269.2172 L 179.1758 268.7784 L 177.7939 268.6036 L 175.5555 267.5501 L 174.6338 267.6381 L 174.3708 267.2861 L 173.5806 267.8129 L 173.12 267.8129 L 172.7254 267.0233 L 172.9885 266.5846 L 173.252 265.1803 L 173.252 264.3895 L 173.5151 263.688 L 173.6466 262.7225 L 173.6466 261.3182 L 173.3831 260.9674 L 173.252 260.0019 L 173.7786 259.4751 L 173.9757 258.1576 L 174.8974 257.8949 L 175.4904 257.5429 L 175.8191 256.8413 L 176.4117 257.1053 L 177.1358 256.9293 L 177.6624 256.3146 L 178.4521 256.2266 L 179.1758 255.6998 L 180.8221 253.7688 L 180.7565 253.0672 L 181.5462 252.7165 L 182.0728 252.1017 L 182.9285 251.575 L 183.5211 251.575 L 183.7186 251.1362 L 184.7718 250.6974 L 184.8378 250.3467 L 185.4964 249.4679 L 186.4837 249.1171 L 187.0103 248.5024 L 188.261 248.5024 L 188.7876 247.6249 L 189.4458 247.6249 L 190.2359 247.3621 L 190.631 246.7473 L 192.6059 246.2206 L 192.7374 245.6058 L 193.7251 245.431 L 193.7906 244.8163 L 194.2517 244.4655 L 195.1069 244.3775 L 196.8188 243.412 L 197.0823 242.6225 L 197.7404 242.2705 L 198.5306 242.1837 L 199.4522 241.305 L 200.0444 241.2182 L 200.2424 240.8662 L 201.6247 239.9887 L 202.6779 239.8127 L 205.772 239.7259 L 205.9695 239.3739 L 206.6937 239.3739 L 207.1543 239.6379 L 208.142 239.6379 L 208.9321 239.3739 L 209.5902 238.9351 L 210.5119 238.9351 L 211.6311 239.5499 L 212.7499 239.5499 L 213.9356 239.8127 L 214.3953 239.6379 L 214.8568 239.9007 L 215.3834 239.5499 L 215.3834 239.1111 L 216.1075 238.6724 L 216.3046 237.7948 L 217.4898 237.4429 L 217.8189 237.0921 L 218.28 237.1801 L 220.2549 236.3026 L 220.6499 235.7758 L 221.3741 235.337 L 221.4396 234.8103 L 222.2957 234.3715 L 224.4686 233.5808 L 225.5869 233.5808 L 226.2455 234.0195 L 226.7721 233.8448 L 226.7061 232.7912 L 227.4307 232.2645 L 228.286 231.9137 L 230.1958 231.8257 L 230.4584 232.0885 L 231.7752 231.9137 L 232.8279 231.0362 L 234.2111 231.0362 L 234.6717 230.7722 L 235.9225 230.9482 L 236.3171 231.299 L 236.7782 231.211 L 237.7658 232.0885 L 237.8974 231.211 L 238.2264 230.7722 L 238.885 230.5094 L 239.8067 231.299 L 240.0038 231.8257 L 239.8067 232.6152 L 239.2141 232.8792 L 239.0821 233.494 L 239.2801 234.2835 L 239.7407 235.249 L 240.2673 235.8638 L 241.2546 236.3026 L 242.1107 236.0386 L 243.1644 236.6533 L 244.0196 236.2146 L 245.4023 236.4773 L 245.4023 237.2681 L 246.06 237.8816 L 246.5211 238.6724 L 245.7965 240.2526 L 245.9945 241.6569 L 245.7965 243.5 L 246.4555 244.2895 L 246.258 245.0803 L 246.192 247.4501 L 245.6654 248.5904 L 244.9413 248.9412 L 244.6782 249.3811 L 244.6782 250.0827 L 245.0068 250.6974 L 245.5334 250.9602 L 245.8634 251.575 L 245.8634 252.2777 L 245.6003 252.8913 L 245.1388 252.8913 L 244.8757 253.594 L 244.1516 253.8568 L 243.691 254.8223 L 243.8221 255.525 L 244.1516 255.7878 L 243.8221 256.6654 L 244.1516 257.3681 L 244.9413 257.7189 L 244.8097 258.5096 L 243.954 258.7724 L 244.1516 259.3871 L 244.8097 260.2647 L 245.2699 260.2647 L 245.9289 260.9674 L 248.0354 261.2302 L 249.2857 261.1422 L 249.5497 259.3871 L 250.0103 259.0364 L 249.8787 258.2456 L 250.4053 257.8949 L 250.8004 258.1576 L 252.1167 258.1576 Z" fill="#000000" fill-opacity="1" stroke="#000000" stroke-width="0" paint-order="fill" stroke-opacity="1" stroke-dasharray="" stroke-linecap="butt" stroke-linejoin="miter" stroke-miterlimit="10" transform="matrix(1.100000023841858,0,0,1.100000023841858,-40.000022888183594,-26.65001106262207)" clip-path="none" style="filter: url(#f1)"/>
<path data-code="209" d="M 379.8167 233.142 L 380.2896 232.7912 L 380.4871 232.0885 L 380.4211 230.4214 L 380.8162 230.3334 L 381.2112 229.7187 L 381.2112 229.0171 L 381.6719 228.4904 L 381.6719 227.7876 L 382.2645 226.9981 L 382.528 226.3833 L 383.5152 226.2965 L 384.2394 225.7698 L 384.3709 224.8911 L 383.9103 223.8387 L 383.9758 223.4 L 384.5029 223.048 L 385.4241 222.96 L 385.6876 222.4345 L 385.2926 222.0825 L 385.9516 221.029 L 386.1478 220.2394 L 386.6753 219.4499 L 387.2019 219.0111 L 387.7285 218.2204 L 389.1104 218.0456 L 390.3616 217.5188 L 390.8226 216.9921 L 391.7439 216.9921 L 392.0734 217.1669 L 393.2581 217.2549 L 393.3897 217.5188 L 394.4434 217.6068 L 394.7064 217.7816 L 395.7596 217.8696 L 396.4842 216.9921 L 396.4842 216.4653 L 397.7345 214.5343 L 398.1956 213.3928 L 399.4464 213.218 L 400.236 212.7792 L 400.4996 211.5497 L 401.2237 210.2334 L 402.0139 210.1454 L 402.4089 209.7067 L 402.8035 208.7411 L 402.8035 208.1264 L 403.2651 206.8101 L 403.9228 206.1073 L 404.6469 205.9326 L 405.305 205.055 L 405.9641 203.6507 L 406.9509 202.5972 L 407.9385 202.5092 L 408.7282 201.5437 L 408.9918 200.7542 L 409.6499 200.0514 L 411.0326 199.7006 L 412.2834 197.8576 L 414.4558 196.5401 L 414.9169 196.5401 L 415.509 196.1013 L 416.2992 195.2238 L 416.1016 193.9955 L 415.6406 192.766 L 415.3115 192.5032 L 415.3115 191.5377 L 416.8913 190.5722 L 417.0889 190.3082 L 418.2741 190.0454 L 419.1298 189.1679 L 420.7096 187.9384 L 421.3682 186.4461 L 422.5529 186.1833 L 422.7509 185.6565 L 423.2111 185.5686 L 423.8032 184.9538 L 424.2643 184.867 L 424.9884 184.1643 L 426.1077 183.9015 L 426.4367 183.1987 L 426.9633 183.0228 L 427.4249 182.1452 L 427.4249 181.5305 L 427.8195 181.0049 L 428.4121 180.8289 L 428.5436 180.4782 L 430.3205 179.4246 L 431.8353 179.1607 L 432.8225 179.5994 L 434.3368 179.3366 L 434.7974 178.8979 L 435.324 178.9859 L 436.0481 178.4591 L 437.1678 178.4591 L 437.9579 178.7219 L 438.9447 178.8099 L 440.3274 179.4246 L 441.0511 179.9514 L 441.9733 180.0394 L 442.2359 180.4782 L 442.8289 180.7409 L 443.8157 180.7409 L 444.1457 181.0049 L 444.8038 181.0049 L 445.7911 181.7065 L 446.7787 181.6185 L 447.7009 181.0049 L 447.8319 180.6529 L 449.8733 180.7409 L 450.0044 180.4782 L 451.1236 180.0394 L 451.7817 180.0394 L 452.0453 180.3902 L 452.6374 180.3902 L 453.8226 180.6529 L 454.9418 180.3902 L 455.4025 180.8289 L 456.1926 180.8289 L 456.3237 181.0917 L 457.1803 181.0917 L 457.904 181.3557 L 459.1547 180.9169 L 459.4838 181.1797 L 460.4059 181.0917 L 460.8665 181.4437 L 461.5907 181.4437 L 462.973 180.8289 L 463.6971 180.9169 L 463.8286 180.3902 L 464.8163 179.8634 L 465.0794 179.3366 L 465.672 179.3366 L 466.8572 178.4591 L 467.4494 178.4591 L 468.1735 178.7219 L 468.437 178.2831 L 468.9636 179.1607 L 469.8193 179.8634 L 470.0169 180.3902 L 470.6095 181.0049 L 471.9913 182.1452 L 472.7159 183.0228 L 473.3085 183.1987 L 474.2957 183.9015 L 475.1519 183.9015 L 475.5469 184.3403 L 476.0075 184.2523 L 476.4031 184.691 L 477.9164 185.4806 L 478.9041 185.3058 L 479.9573 185.3926 L 480.5499 184.9538 L 481.2076 184.9538 L 481.4056 185.3926 L 481.9982 185.3058 L 482.0642 184.867 L 482.7879 184.867 L 484.6313 184.515 L 484.9603 184.9538 L 486.3431 184.9538 L 487.0672 185.2178 L 487.2647 184.515 L 488.1864 184.1643 L 488.713 184.427 L 490.2929 183.8135 L 491.3465 183.9883 L 492.1367 183.5495 L 492.8604 183.9883 L 493.4525 182.936 L 493.9136 183.0228 L 494.1111 183.4615 L 495.3623 183.3747 L 495.9016 183.5495 L 496.472 185.5457 L 497.7852 188.3422 L 498.3167 189.7923 L 498.5193 191.4449 L 498.3199 193.0987 L 497.7951 194.5536 L 496.5195 197.3634 L 496.0661 198.9858 L 495.1933 203.2096 L 494.6043 204.7718 L 491.9527 209.4897 L 491.0767 210.6963 L 490.5243 211.1833 L 487.2797 213.3518 L 483.9243 216.3388 L 478.0575 222.3043 L 476.267 224.3896 L 475.2224 225.8554 L 474.4087 227.4019 L 473.4423 229.7319 L 471.9922 232.555 L 471.3657 234.0424 L 470.8391 236.5955 L 470.392 241.8679 L 470.0743 243.588 L 469.8193 244.4221 L 469.1354 245.9036 L 465.0943 252.6393 L 463.9661 254.0111 L 462.8776 254.8211 L 461.4284 255.4141 L 458.2782 256.1326 L 456.7034 256.6039 L 452.5326 258.7796 L 448.755 260.3563 L 444.4874 262.6429 L 442.0605 262.8828 L 435.9179 263.1938 L 433.3676 263.5241 L 431.7494 263.9677 L 428.2656 265.6745 L 426.7003 266.2471 L 424.9428 266.6014 L 423.1288 266.7943 L 418.4942 266.939 L 414.7867 266.8377 L 412.0728 266.511 L 411.1958 266.3085 L 409.611 265.7203 L 406.1838 263.8483 L 403.1647 262.5296 L 399.0739 260.1972 L 396.0661 258.829 L 393.8964 257.3114 L 391.9604 255.4383 L 390.3182 253.2975 L 389.5086 251.6907 L 389.2455 250.8529 L 388.9354 249.1401 L 388.4102 243.054 L 387.9545 241.3713 L 387.5785 240.5419 L 386.603 239.0111 L 384.7836 236.9535 L 382.697 235.1526 L 379.8167 233.142 Z M 421.2362 183.9015 L 420.9071 184.9538 L 421.6313 186.0073 L 420.3145 185.8325 L 420.183 185.5686 L 419.1953 185.6565 L 419.3928 185.0418 L 420.3145 184.3403 L 420.9071 184.2523 L 421.2362 183.9015 Z" fill="#000000" fill-opacity="1" stroke="#000000" stroke-width="0" paint-order="fill" stroke-opacity="1" stroke-dasharray="" stroke-linecap="butt" stroke-linejoin="miter" stroke-miterlimit="10" transform="matrix(1.100000023841858,0,0,1.100000023841858,-40.000022888183594,-26.65001106262207)" clip-path="none" style="filter: url(#f1)"/>
<path data-code="210" d="M 379.8167 233.142 L 382.697 235.1526 L 384.7836 236.9535 L 386.603 239.0111 L 387.5785 240.5419 L 387.9545 241.3713 L 388.4102 243.054 L 388.9354 249.1401 L 389.2455 250.8529 L 389.5086 251.6907 L 390.3182 253.2975 L 391.9604 255.4383 L 393.8964 257.3114 L 396.0661 258.829 L 399.0739 260.1972 L 403.1647 262.5296 L 406.1838 263.8483 L 409.611 265.7203 L 411.1958 266.3085 L 412.0728 266.511 L 414.7867 266.8377 L 418.4942 266.939 L 423.1288 266.7943 L 424.9428 266.6014 L 426.7003 266.2471 L 428.2656 265.6745 L 431.7494 263.9677 L 433.3676 263.5241 L 435.9179 263.1938 L 442.0605 262.8828 L 444.4874 262.6429 L 445.3015 265.959 L 445.6555 268.8989 L 445.7061 272.8261 L 445.3883 275.7082 L 444.8558 277.5428 L 444.4711 278.3577 L 443.5214 279.8608 L 440.3252 284.0207 L 439.4772 285.4575 L 438.9158 286.8473 L 435.2593 289.3377 L 433.4996 291.0023 L 432.1146 292.943 L 431.0772 295.1682 L 430.2907 296.5713 L 428.7502 298.3709 L 427.5085 299.3377 L 426.7947 299.7439 L 422.0648 301.863 L 420.6847 302.0823 L 419.3205 301.7979 L 413.8533 299.1894 L 410.5259 297.1499 L 408.9981 296.5243 L 407.331 296.1904 L 405.64 296.1349 L 403.9698 296.4025 L 403.1615 296.7039 L 401.8154 297.5959 L 400.769 298.7904 L 400.0869 300.2309 L 399.8975 301.8774 L 400.1845 303.4312 L 401.7431 306.4145 L 402.1034 307.7188 L 401.9334 309.1375 L 401.5691 309.8089 L 401.0004 310.3538 L 399.6136 310.9312 L 398.0424 311.1264 L 387.1418 310.8793 L 383.5039 311.1361 L 382.6243 311.3121 L 381.0214 311.8629 L 377.5869 313.6939 L 375.4036 314.7209 L 374.6921 315.1332 L 373.4626 316.1168 L 372.4257 317.3138 L 371.994 317.9815 L 371.3445 319.4787 L 370.5105 323.5384 L 370.0028 325.1259 L 369.2064 326.4965 L 368.1636 327.685 L 366.9295 328.6554 L 366.2162 329.0592 L 364.0194 330.0765 L 360.579 331.9798 L 359.0598 332.6283 L 356.6455 333.3624 L 352.8589 333.0623 L 347.704 332.9261 L 305.3548 332.9755 L 301.2707 332.8803 L 298.2829 332.5464 L 296.3767 332.0353 L 292.162 329.8692 L 289.9037 328.8916 L 290.3647 327.4994 L 290.3647 326.8858 L 290.8258 326.0083 L 290.4958 325.5683 L 290.9569 323.5505 L 290.9569 322.8477 L 291.484 321.3555 L 291.418 318.8977 L 291.6155 318.3709 L 292.2736 317.4922 L 292.8002 315.9131 L 292.8002 315.4743 L 293.1953 314.246 L 293.1953 313.8073 L 293.7215 312.227 L 293.9855 311.0855 L 293.9855 310.4719 L 294.5121 309.3304 L 295.3018 308.8036 L 296.0259 307.5753 L 296.2894 306.4338 L 296.8165 306.2591 L 297.2762 305.5551 L 297.8037 305.3803 L 298.6589 304.6788 L 298.9885 303.6253 L 300.1732 303.888 L 300.5687 304.24 L 301.424 304.328 L 302.4116 304.9416 L 303.0698 304.9416 L 303.4644 305.2055 L 304.4525 305.2055 L 305.5057 305.3803 L 308.1392 307.0486 L 308.5999 307.0486 L 308.7314 306.5218 L 309.5871 306.4338 L 310.4432 306.8726 L 311.8915 307.0486 L 313.4713 306.1711 L 313.8668 306.6098 L 314.9852 306.6098 L 316.3679 306.4338 L 317.4211 305.4683 L 318.1453 305.0295 L 318.8694 305.0295 L 319.9226 305.2935 L 321.0418 304.4148 L 322.293 302.5717 L 323.6098 302.045 L 324.399 302.045 L 325.9793 301.2554 L 327.5591 301.4314 L 328.2833 301.0795 L 328.3488 300.3779 L 329.2709 300.0259 L 329.8631 298.4469 L 330.3237 298.4469 L 330.9823 297.9201 L 331.4429 297.3054 L 331.4429 296.5158 L 331.904 295.9891 L 332.1015 293.1805 L 332.3646 292.7417 L 332.8912 292.4777 L 334.2739 292.3017 L 334.7345 291.6882 L 334.6681 290.5467 L 335.1296 290.2839 L 335.3927 289.7571 L 336.3804 288.6144 L 336.3804 285.6311 L 336.6439 285.1923 L 336.907 284.052 L 336.907 282.8225 L 337.4996 282.033 L 338.1573 281.4182 L 338.6839 280.6287 L 338.6188 280.0139 L 338.2233 279.4872 L 338.2233 279.0484 L 337.8287 278.1697 L 337.6976 277.3801 L 338.4213 275.6239 L 339.0794 275.0103 L 339.54 274.1328 L 340.1326 273.694 L 340.3957 274.0448 L 341.2518 274.1328 L 341.7789 273.694 L 342.8977 274.3968 L 344.0169 274.3968 L 344.8726 273.87 L 345.7942 273.87 L 346.7159 272.9045 L 346.5839 272.1137 L 347.1765 271.763 L 347.7031 270.8842 L 348.1642 270.7094 L 348.8883 269.8307 L 349.1514 269.0424 L 348.9539 267.7249 L 348.6908 267.4621 L 348.7563 266.8474 L 348.2302 265.0043 L 347.8351 264.2148 L 347.4396 264.1268 L 347.045 263.6 L 346.9134 262.4585 L 346.3208 261.8449 L 346.4524 261.3182 L 346.1893 260.4407 L 346.7159 258.8604 L 347.6376 258.5964 L 347.7696 258.1576 L 348.5597 258.2444 L 348.8883 257.8069 L 348.8883 257.1053 L 348.6248 256.4026 L 348.2302 256.2266 L 347.5716 255.3491 L 347.9002 253.9448 L 347.6376 253.506 L 347.5056 251.8377 L 347.9002 250.8722 L 348.3617 250.2587 L 348.4273 248.4156 L 348.1642 248.0636 L 348.1642 247.1861 L 348.6908 247.1861 L 348.6908 245.431 L 347.8351 245.1671 L 347.5056 244.6403 L 348.2302 244.2015 L 349.2834 244.0268 L 349.4149 243.7628 L 350.5997 243.324 L 351.2588 243.9388 L 351.9164 244.2015 L 352.3115 244.6403 L 353.1672 244.7283 L 353.3643 245.0803 L 354.0889 245.1671 L 355.0761 244.9031 L 355.4056 245.1671 L 356.1298 245.1671 L 356.5904 245.431 L 357.1825 245.343 L 358.4337 245.431 L 359.5529 243.7628 L 360.0136 243.7628 L 360.8037 244.2015 L 362.5151 244.4655 L 364.1604 242.7972 L 364.4244 242.7972 L 365.7407 243.5 L 366.5308 243.412 L 367.3861 242.2705 L 368.0456 242.0077 L 369.1639 240.9542 L 369.6245 240.9542 L 370.9417 239.8127 L 373.7723 238.8472 L 374.2333 238.2336 L 374.8255 238.0576 L 376.3398 237.9684 L 376.5373 236.9149 L 376.9984 236.5653 L 377.393 235.8638 L 377.393 235.249 L 378.1831 234.5463 L 378.7097 234.4595 L 379.2363 233.494 L 379.8167 233.142 Z" fill="#000000" fill-opacity="1" stroke="#000000" stroke-width="0" paint-order="fill" stroke-opacity="1" stroke-dasharray="" stroke-linecap="butt" stroke-linejoin="miter" stroke-miterlimit="10" transform="matrix(1.100000023841858,0,0,1.100000023841858,-40.000022888183594,-26.65001106262207)" clip-path="none" style="filter: url(#f1)"/>
<path data-code="211" d="M 485.2361 349.7595 L 490.0465 346.0529 L 492.0576 344.7595 L 495.0775 343.4179 L 499.1751 341.0854 L 502.2245 339.8149 L 505.6477 337.8718 L 508.6134 336.5519 L 510.1223 335.7383 L 512.2201 334.0784 L 514.0951 332.1197 L 515.1791 330.6768 L 515.6428 329.9041 L 516.3222 328.2696 L 517.1598 324.0556 L 517.5893 322.4234 L 519.25 318.8217 L 519.7689 317.3343 L 520.6079 312.7971 L 521.0188 311.3241 L 521.6819 309.8596 L 523.1736 307.0534 L 524.1789 304.557 L 524.8818 303.2058 L 526.3983 301.159 L 528.1318 299.2268 L 539.8221 287.3283 L 541.6112 285.4274 L 543.2769 283.4601 L 544.6492 281.3374 L 546.2557 277.4802 L 548.7242 272.849 L 551.1308 271.3712 L 554.2932 268.8965 L 556.259 267.5959 L 559.2763 266.2422 L 563.3581 263.876 L 566.3984 262.5863 L 570.4865 260.2237 L 573.5246 258.9231 L 577.6104 256.5533 L 580.6476 255.2514 L 584.7302 252.8804 L 587.766 251.5834 L 591.8596 249.2256 L 595.6141 247.6261 L 599.9802 245.2225 L 601.6988 248.7833 L 602.945 251.9571 L 605.2589 256.1748 L 606.5757 259.2775 L 608.4009 262.784 L 608.9239 264.3751 L 609.1911 266.9715 L 609.0677 268.7085 L 608.6794 270.3948 L 606.6905 274.6993 L 606.2009 276.3242 L 605.484 279.6981 L 605.0035 281.3435 L 603.308 284.9512 L 602.7497 286.5074 L 601.871 290.7275 L 601.4023 292.3753 L 599.3849 296.7292 L 598.8922 298.3794 L 597.9217 302.5633 L 597.3444 304.0556 L 596.0349 306.7942 L 595.6652 308.3468 L 595.7343 310.0042 L 595.9585 310.8143 L 596.7125 312.1751 L 597.2039 312.761 L 598.3393 313.7542 L 599.6556 314.5088 L 601.7571 315.4731 L 602.3972 315.8757 L 603.5806 316.875 L 604.5822 318.1117 L 605.3087 319.6342 L 605.696 321.3374 L 605.8511 323.9844 L 605.758 325.7612 L 605.5075 327.515 L 605.0451 329.2026 L 603.2899 332.7947 L 602.6982 334.346 L 601.0045 342.2534 L 600.0846 343.3853 L 599.289 344.6052 L 597.8733 347.6066 L 597.0285 348.9796 L 593.4945 353.5444 L 592.5882 354.8884 L 591.1802 357.8477 L 590.3742 359.2568 L 589.3621 360.4791 L 588.176 361.5229 L 586.8019 362.3498 L 583.9067 363.7071 L 581.1986 365.3055 L 577.4441 366.9388 L 573.3437 369.2857 L 570.3102 370.5972 L 566.9223 372.6018 L 563.1985 374.2773 L 559.7762 376.2131 L 558.2764 376.8472 L 554.342 378.0333 L 551.6412 379.1603 L 547.5345 376.0468 L 545.5063 374.7522 L 543.1684 373.8831 L 538.9501 373.0731 L 534.2803 370.4658 L 531.2191 369.1435 L 527.7928 367.2594 L 526.2546 366.682 L 524.5766 366.3409 L 521.9698 366.1095 L 515.4995 366.1227 L 512.6211 366.3674 L 510.7596 366.7242 L 509.1337 367.2932 L 506.3393 368.6517 L 504.7486 369.2074 L 502.9468 369.5593 L 498.3285 370.0873 L 496.5181 370.4381 L 494.9107 370.9998 L 491.4112 372.7356 L 486.6676 374.4267 L 484.332 375.5755 L 481.6958 369.6136 L 481.1461 366.7604 L 481.0521 363.8349 L 481.3256 360.9431 L 481.7921 359.0965 L 483.8194 354.7667 L 485.2361 349.7595 Z" fill="#000000" fill-opacity="1" stroke="#000000" stroke-width="0" paint-order="fill" stroke-opacity="1" stroke-dasharray="" stroke-linecap="butt" stroke-linejoin="miter" stroke-miterlimit="10" transform="matrix(1.100000023841858,0,0,1.100000023841858,-40.000022888183594,-26.65001106262207)" clip-path="none" style="filter: url(#f1)"/>












</svg>