<?xml version="1.0" standalone="no"?>
<!-- Generator: Paintmaps.com , Online SVG vector map maker -->
<svg xmlns="http://www.w3.org/2000/svg" version="1.1" baseProfile="full"   style="background-color:false" width="800" height="500" viewBox="0 0 800 533">
<path data-code="200" d="M 612.5347 443.8251 L 613.3331 450.4785 L 611.896 454.4173 L 610.0995 454.2576 L 611.896 456.5996 L 609.5806 458.4625 L 610.0197 461.1771 L 608.862 465.4884 L 604.6704 464.5304 L 605.3491 463.04 L 601.2772 461.3367 L 599.1614 461.2303 L 596.3271 459.1012 L 594.2912 458.4625 L 594.3311 455.1092 L 596.5666 454.364 L 598.0038 452.3414 L 593.6525 451.9156 L 593.4129 450.6382 L 590.6185 451.4366 L 590.7782 448.1897 L 593.1335 447.072 L 593.4529 443.7719 L 591.4569 442.4945 L 587.4249 444.2509 L 586.2672 441.3235 L 588.4628 440.738 L 589.2213 438.6089 L 591.0177 437.704 L 589.4209 434.9895 L 585.7084 434.1911 L 585.8281 432.3814 L 584.1914 429.6136 L 588.4628 427.5377 L 584.1515 425.0361 L 583.7922 423.3328 L 586.7862 421.4699 L 587.0257 417.6908 L 588.383 415.2955 L 590.1395 415.2955 L 591.2972 413.4326 L 594.1315 411.7294 L 597.6046 410.6648 L 600.1195 407.1518 L 604.2313 406.9389 L 606.1475 408.8551 L 607.4648 405.5018 L 605.9479 401.6695 L 607.3051 397.6242 L 606.5067 395.0161 L 608.9419 393.6322 L 610.0995 395.8678 L 611.5766 401.5098 L 610.9778 406.8857 L 611.5766 411.3035 L 614.2113 413.8052 L 614.89 421.2037 L 616.0876 424.557 L 616.5666 432.4346 L 612.4149 439.7799 L 612.5347 443.8251 Z" fill="#000000" fill-opacity="1" stroke="#000000" stroke-width="0" paint-order="fill" stroke-opacity="1" stroke-dasharray="" stroke-linecap="butt" stroke-linejoin="miter" stroke-miterlimit="10" transform="matrix(1.2000000476837158,0,0,1.2000000476837158,-79.99999237060547,-53.29999542236328)" clip-path="none"/>
<path data-code="201" d="M 227.6649 210.9578 L 228.9423 212.3417 L 225.9084 212.182 L 223.9523 211.2239 L 223.9124 207.9239 L 227.6649 210.9578 Z M 246.9463 206.9658 L 245.9882 203.719 L 240.7188 204.3577 L 236.7667 204.3045 L 234.2517 201.5899 L 239.122 202.1754 L 240.7986 199.9931 L 238.3236 198.7156 L 233.4932 199.6205 L 233.3735 201.4302 L 231.8964 199.7802 L 229.5811 200.4189 L 228.5431 199.4076 L 227.9443 202.8141 L 228.9823 204.677 L 227.5851 204.6238 L 227.6649 199.4076 L 226.1878 197.7043 L 226.627 195.6817 L 228.8625 194.8301 L 228.1839 192.701 L 225.4693 196.693 L 222.9543 194.2446 L 221.7567 194.0317 L 224.1918 190.8913 L 219.2018 194.1381 L 217.0861 190.6784 L 214.5312 190.5187 L 211.5771 188.7622 L 210.0202 189.5606 L 207.8246 189.0284 L 205.7488 185.0896 L 202.7148 186.2606 L 200.7987 185.0364 L 197.0861 188.1235 L 192.8945 187.538 L 193.8126 185.196 L 191.6969 180.0863 L 189.0621 177.6378 L 183.5532 176.5201 L 184.9105 175.4555 L 194.2917 174.2313 L 196.3276 174.7104 L 196.2877 170.878 L 192.0562 168.2167 L 189.7009 170.878 L 189.3815 167.3651 L 187.3057 167.0457 L 189.8206 165.6086 L 193.8126 166.6199 L 199.9603 166.6731 L 198.6829 165.6086 L 196.128 165.3957 L 197.8446 163.7456 L 193.8526 164.5973 L 192.5352 164.2247 L 195.4893 161.4569 L 193.5332 161.6166 L 187.8645 163.4795 L 185.8685 162.6811 L 183.9524 163.4263 L 183.4334 160.1262 L 183.9524 156.9326 L 185.7488 153.739 L 188.0641 153.3664 L 190.4593 151.5035 L 194.9703 151.2906 L 196.8865 149.9067 L 197.8046 151.6099 L 202.9543 149.5341 L 207.5052 148.4695 L 207.8246 151.7164 L 209.102 150.8115 L 210.619 153.2067 L 212.136 148.7889 L 216.8465 151.1309 L 218.7627 151.2906 L 218.6429 149.3212 L 220.1599 149.1615 L 218.8026 146.8195 L 220.8386 144.7437 L 224.8306 145.8614 L 228.0641 145.0098 L 228.9823 143.9985 L 229.4214 146.5001 L 231.3375 144.6372 L 232.8944 144.3178 L 233.1739 146.234 L 234.8106 146.3937 L 234.0521 147.7776 L 237.0461 149.1615 L 236.5671 150.5986 L 239.7607 154.1116 L 239.9603 156.6665 L 242.6749 158.5294 L 242.0361 159.6472 L 243.4333 160.8182 L 246.6269 157.7842 L 254.4114 153.739 L 255.2497 154.218 L 253.7327 156.2406 L 256.0481 155.4422 L 256.9263 158.4762 L 259.0421 156.2406 L 261.6768 155.7616 L 263.5531 160.8714 L 264.6309 160.9778 L 262.3155 156.081 L 263.9124 154.1116 L 267.7447 153.4196 L 267.7048 157.252 L 270.9383 157.7842 L 274.7706 156.8261 L 276.2876 161.7762 L 278.4433 164.7037 L 280.3195 164.544 L 283.7526 161.8827 L 289.0221 163.7456 L 288.9423 171.57 L 287.9443 173.7523 L 288.6628 177.8507 L 288.5031 181.4702 L 289.1818 185.3557 L 285.4692 186.9525 L 282.7147 194.6704 L 279.8405 194.0317 L 276.7267 192.4881 L 272.8545 194.4043 L 270.06 196.7463 L 266.5072 197.7043 L 264.7906 197.1721 L 258.4433 199.0882 L 257.3655 203.719 L 254.9702 206.2206 L 254.3714 205.0496 L 251.6968 205.1561 L 250.6589 206.6997 L 246.9463 206.9658 Z" fill="#000000" fill-opacity="1" stroke="#000000" stroke-width="0" paint-order="fill" stroke-opacity="1" stroke-dasharray="" stroke-linecap="butt" stroke-linejoin="miter" stroke-miterlimit="10" transform="matrix(1.2000000476837158,0,0,1.2000000476837158,-79.99999237060547,-53.29999542236328)" clip-path="none"/>
<path data-code="202" d="M 253.6529 228.0436 L 254.9303 229.0017 L 254.4114 230.7582 L 253.4533 228.7356 L 251.9363 228.5227 L 250.6988 225.4355 L 253.4932 226.021 L 253.6529 228.0436 Z M 283.7526 258.5426 L 282.0361 257.7974 L 280.8784 259.82 L 276.4073 256.3603 L 274.0521 256.7329 L 272.5351 253.3264 L 268.9822 252.6344 L 263.8724 249.2279 L 262.595 243.3729 L 261.1978 240.8713 L 259.601 240.0197 L 257.2856 236.2938 L 255.3694 234.9631 L 255.1299 232.7276 L 256.1279 230.2259 L 257.7247 229.1614 L 259.601 225.1161 L 256.8864 222.2419 L 252.575 220.8048 L 254.8505 219.8467 L 255.5291 215.003 L 258.9223 214.6305 L 261.4373 215.3756 L 266.1479 218.5692 L 262.7147 214.7901 L 259.7207 213.5127 L 255.6888 213.5659 L 251.7367 216.2805 L 249.1419 214.3643 L 246.8265 215.0563 L 247.3056 213.353 L 244.0321 209.84 L 246.4273 208.5626 L 248.9024 208.3497 L 246.9463 206.9658 L 250.6589 206.6997 L 251.6968 205.1561 L 254.3714 205.0496 L 254.9702 206.2206 L 257.3655 203.719 L 258.4433 199.0882 L 264.7906 197.1721 L 266.5072 197.7043 L 270.06 196.7463 L 272.8545 194.4043 L 276.7267 192.4881 L 279.8405 194.0317 L 282.7147 194.6704 L 285.4692 186.9525 L 289.1818 185.3557 L 288.5031 181.4702 L 288.6628 177.8507 L 287.9443 173.7523 L 288.9423 171.57 L 289.0221 163.7456 L 295.1698 163.8521 L 296.6069 166.1408 L 298.1638 166.6199 L 300.7586 165.3424 L 303.8724 165.6618 L 305.4692 164.2779 L 309.6608 164.8634 L 312.6548 163.4263 L 313.1738 161.9891 L 314.8903 162.6811 L 315.2895 165.1295 L 318.0041 167.7376 L 318.044 169.9732 L 320.9183 170.1328 L 325.1498 166.7263 L 327.6648 166.1941 L 330.2197 167.3651 L 330.6588 172.3684 L 333.3334 173.5926 L 333.7326 175.1362 L 338.4831 176.2539 L 340.1198 178.5959 L 342.1957 179.0217 L 345.4292 181.0443 L 343.0739 182.6411 L 342.036 184.717 L 343.2336 185.9412 L 343.1937 189.0816 L 341.3973 191.1574 L 340.3194 196.2672 L 337.1258 198.3431 L 336.3674 201.0576 L 331.6568 203.2932 L 329.7406 203.1335 L 329.3015 205.0496 L 325.5889 203.9319 L 324.8704 208.2965 L 323.4332 213.6724 L 321.0779 217.5579 L 319.9602 223.3064 L 317.8843 223.0935 L 316.3674 225.7016 L 314.4113 227.2984 L 312.6149 225.3823 L 306.9063 225.7016 L 301.6369 226.7129 L 301.7566 228.2565 L 299.2816 229.5872 L 293.2536 229.4807 L 290.4592 228.2033 L 293.2536 232.5679 L 294.052 235.3889 L 296.6468 237.7841 L 296.4073 239.9664 L 297.8844 243.0004 L 299.042 248.9085 L 298.2836 250.2924 L 298.3235 254.2844 L 300.559 256.7329 L 297.9243 258.3829 L 294.4912 259.3942 L 292.4951 258.0635 L 289.0221 258.3829 L 288.2636 256.52 L 284.9502 257.2119 L 283.7526 258.5426 Z" fill="#000000" fill-opacity="1" stroke="#000000" stroke-width="0" paint-order="fill" stroke-opacity="1" stroke-dasharray="" stroke-linecap="butt" stroke-linejoin="miter" stroke-miterlimit="10" transform="matrix(1.2000000476837158,0,0,1.2000000476837158,-79.99999237060547,-53.29999542236328)" clip-path="none"/>
<path data-code="203" d="M 467.5848 346.2071 L 464.9899 346.2604 L 464.6706 344.3974 L 466.1077 341.6829 L 467.7844 341.3635 L 469.4211 343.7055 L 467.5848 346.2071 Z M 516.3272 308.7887 L 515.5687 309.6403 L 517.5647 312.7807 L 519.441 313.3662 L 519.8003 317.0389 L 521.437 318.7421 L 524.1515 319.9663 L 526.1875 319.5937 L 528.5428 321.1373 L 528.3432 322.4148 L 530.3392 326.9923 L 528.1436 326.8326 L 527.1456 329.8133 L 524.3112 333.3795 L 524.1915 335.2956 L 526.7863 338.0634 L 525.3492 340.9377 L 529.7004 346.5265 L 530.8182 346.2071 L 537.7643 349.4008 L 541.8362 350.7314 L 550.1395 347.9104 L 549.8202 349.2943 L 551.5367 351.796 L 549.9 355.8412 L 547.7843 358.13 L 545.5487 361.6961 L 546.5068 364.8365 L 544.6306 367.0721 L 542.6346 367.1253 L 541.4769 369.7866 L 539.2014 369.6802 L 537.6445 371.8092 L 536.0078 371.4899 L 535.3292 373.6722 L 535.8881 375.8545 L 534.2513 375.3222 L 532.7344 376.8658 L 530.8182 376.4932 L 529.3412 380.8578 L 527.5448 382.4014 L 523.5128 382.9336 L 523.2334 385.4885 L 519.6406 388.5757 L 522.8342 389.2144 L 522.435 392.0354 L 520.2793 393.3661 L 518.0837 393.0467 L 517.0857 394.4839 L 513.1336 395.3355 L 513.1336 397.3049 L 510.0997 396.2936 L 506.4669 397.6242 L 506.2274 399.5404 L 504.7903 397.9968 L 502.1955 398.4226 L 499.4011 396.0807 L 497.4849 396.7726 L 499.5208 398.8485 L 496.926 400.1259 L 494.5308 398.742 L 495.6087 397.7839 L 491.6965 395.921 L 489.7005 394.271 L 489.0618 395.4419 L 486.6266 393.4726 L 480.6386 393.3661 L 481.2374 390.9709 L 480.1995 388.2031 L 478.7624 387.3515 L 477.0458 388.6289 L 471.6167 388.8418 L 469.7005 386.5531 L 471.2574 384.7434 L 474.8901 384.3175 L 476.2873 381.0175 L 474.5309 381.9756 L 472.5748 379.8997 L 470.1796 378.8352 L 469.6207 380.6449 L 471.3772 383.4659 L 470.3392 384.9563 L 467.1856 384.1046 L 464.3113 386.7127 L 463.952 388.3096 L 459.1217 388.3628 L 455.968 387.4579 L 456.3273 384.8498 L 454.2115 383.7853 L 450.978 384.2643 L 445.2295 383.945 L 445.8682 382.082 L 452.0558 378.1432 L 451.4171 376.5464 L 453.493 372.9802 L 456.7664 373.2996 L 457.964 368.9882 L 457.6846 365.6882 L 462.7145 361.9623 L 463.952 359.3542 L 461.6367 356.3202 L 460.1596 356.267 L 459.7604 351.7427 L 457.6846 347.8572 L 457.6047 345.8878 L 460.2794 345.8346 L 462.3951 349.0814 L 469.7804 346.7926 L 473.5728 346.633 L 473.2933 348.8153 L 479.9999 350.5185 L 480.4789 351.9556 L 484.0718 353.8186 L 486.5468 351.2637 L 489.2215 352.1153 L 489.3013 347.6443 L 487.3452 345.8346 L 482.1955 343.12 L 481.1576 340.8312 L 483.1137 340.778 L 482.3951 337.957 L 485.948 338.5957 L 488.0238 336.6263 L 486.427 334.9231 L 487.7843 331.0907 L 491.8961 330.3456 L 493.2933 326.1406 L 497.1256 324.81 L 497.0857 323.4793 L 501.7564 321.1905 L 508.6625 320.7115 L 508.942 318.3695 L 507.425 314.6436 L 504.3911 314.484 L 504.6705 310.1726 L 508.1436 309.9065 L 511.3372 312.0888 L 513.0937 309.8 L 516.3272 308.7887 Z" fill="#000000" fill-opacity="1" stroke="#000000" stroke-width="0" paint-order="fill" stroke-opacity="1" stroke-dasharray="" stroke-linecap="butt" stroke-linejoin="miter" stroke-miterlimit="10" transform="matrix(1.2000000476837158,0,0,1.2000000476837158,-79.99999237060547,-53.29999542236328)" clip-path="none"/>
<path data-code="204" d="M 310.4193 389.1612 L 309.581 388.2031 L 310.0999 386.6595 L 311.1778 387.4579 L 310.4193 389.1612 Z M 309.6608 392.5677 L 308.8225 392.0887 L 309.541 390.066 L 310.539 391.5564 L 309.6608 392.5677 Z M 377.8044 318.7953 L 378.8423 323.5325 L 380.7984 327.5245 L 380 330.7714 L 381.517 333.7521 L 385.1497 332.102 L 386.5469 332.8472 L 389.8603 332.3682 L 392.3753 329.4407 L 394.0918 324.8632 L 398.1238 320.4986 L 399.8403 323.6922 L 400.998 323.4793 L 403.6727 328.2165 L 404.2715 331.0375 L 405.9481 333.0601 L 407.1457 330.3456 L 407.8643 326.6729 L 409.501 322.7873 L 411.1377 323.2664 L 413.8523 320.9244 L 417.9641 319.3808 L 420.479 324.5971 L 421.5169 325.4487 L 424.1118 324.6503 L 424.4311 323.2664 L 426.3872 323.0535 L 426.6267 324.7035 L 428.982 325.289 L 433.1337 328.0568 L 433.0139 329.3342 L 434.7704 335.4021 L 436.1676 337.3715 L 437.0858 340.7248 L 438.8423 343.0135 L 438.7624 346.2071 L 441.3972 346.1007 L 445.1896 348.1765 L 447.6646 345.9942 L 449.5808 346.0475 L 449.98 347.5378 L 451.6965 345.6749 L 453.4131 345.5684 L 457.6846 347.8572 L 459.7604 351.7427 L 460.1596 356.267 L 461.6367 356.3202 L 463.952 359.3542 L 462.7145 361.9623 L 457.6846 365.6882 L 457.964 368.9882 L 456.7664 373.2996 L 453.493 372.9802 L 451.4171 376.5464 L 452.0558 378.1432 L 445.8682 382.082 L 445.2295 383.945 L 442.3153 382.774 L 441.3972 379.9529 L 437.8044 380.1126 L 436.2475 380.911 L 430.0998 386.2337 L 426.467 387.937 L 423.1138 392.0354 L 419.0818 392.0354 L 414.7305 394.8565 L 410.6587 399.8065 L 408.3832 406.9389 L 408.9421 408.4825 L 408.4231 418.223 L 408.9421 423.8118 L 411.6567 425.0893 L 413.0938 429.1345 L 409.4212 429.1345 L 408.2635 427.6974 L 405.2295 427.5377 L 399.9601 430.1991 L 397.485 430.3587 L 395.9282 431.8491 L 396.6068 433.2862 L 392.9741 432.7007 L 390.3393 433.233 L 388.9821 431.37 L 384.3513 429.4007 L 379.9202 429.9329 L 377.1657 432.7007 L 374.3713 432.062 L 373.2535 429.0281 L 366.2675 426.1006 L 368.1438 423.4925 L 366.7865 421.4699 L 363.1937 421.044 L 361.1178 419.7134 L 358.6827 420.0327 L 357.4851 422.0021 L 354.052 416.8391 L 348.2236 416.6262 L 346.1877 413.9649 L 341.517 413.5391 L 338.1638 411.4632 L 333.2137 411.0374 L 332.4153 415.0826 L 332.6548 417.6908 L 324.6308 417.4778 L 323.553 416.0407 L 320.9981 418.1166 L 319.8803 416.2536 L 317.7247 415.5085 L 311.058 417.1053 L 308.583 415.6681 L 307.3454 412.2084 L 305.0301 412.5278 L 302.8744 410.5051 L 302.6349 407.418 L 303.553 403.6921 L 306.9462 401.2969 L 306.8265 399.3275 L 310.4193 395.921 L 312.2157 392.408 L 312.2556 389.9596 L 313.8524 388.7354 L 313.533 385.1692 L 311.7366 385.1692 L 312.7746 383.5191 L 311.8963 380.7513 L 310.0201 378.4094 L 306.1079 377.7174 L 305.1897 376.1206 L 307.585 371.1705 L 308.064 366.7527 L 306.9063 364.5704 L 308.7027 362.9204 L 310.7786 363.08 L 313.2137 361.2703 L 313.6129 363.3462 L 315.569 364.1446 L 317.565 361.0042 L 318.8025 361.5365 L 320.8783 359.4606 L 323.7127 360.3655 L 328.4632 358.0235 L 332.3753 357.3315 L 334.4113 358.9284 L 336.9662 357.7041 L 339.4412 354.1912 L 341.7566 354.2444 L 343.3933 348.6024 L 341.6368 347.1652 L 342.7146 344.291 L 346.7466 344.8765 L 345.7087 336.9989 L 349.3813 334.1247 L 350.7386 331.6762 L 354.2116 329.7601 L 356.2875 325.9277 L 358.8823 322.6277 L 358.6827 317.5711 L 361.7565 315.655 L 364.1917 316.4001 L 367.3454 319.3808 L 369.9002 320.605 L 373.2136 319.0615 L 377.8044 318.7953 Z" fill="#000000" fill-opacity="1" stroke="#000000" stroke-width="0" paint-order="fill" stroke-opacity="1" stroke-dasharray="" stroke-linecap="butt" stroke-linejoin="miter" stroke-miterlimit="10" transform="matrix(1.2000000476837158,0,0,1.2000000476837158,-79.99999237060547,-53.29999542236328)" clip-path="none"/>
<path data-code="205" d="M 278.2038 271.6896 L 279.7207 272.2219 L 279.8804 274.7235 L 281.2776 276.3203 L 280.1199 279.993 L 278.7227 276.9591 L 275.3694 272.7009 L 274.7307 269.3476 L 278.2038 271.6896 Z M 273.2936 260.7249 L 272.5351 261.7894 L 277.9243 262.8007 L 279.4413 264.8233 L 277.0061 264.4508 L 274.2517 262.4281 L 272.096 262.4814 L 270.6588 260.512 L 273.2936 260.7249 Z M 377.8044 318.7953 L 373.2136 319.0615 L 369.9002 320.605 L 367.3454 319.3808 L 364.1917 316.4001 L 361.7565 315.655 L 358.6827 317.5711 L 358.8823 322.6277 L 356.2875 325.9277 L 354.2116 329.7601 L 350.7386 331.6762 L 349.3813 334.1247 L 345.7087 336.9989 L 346.7466 344.8765 L 342.7146 344.291 L 341.6368 347.1652 L 343.3933 348.6024 L 341.7566 354.2444 L 339.4412 354.1912 L 336.9662 357.7041 L 334.4113 358.9284 L 332.3753 357.3315 L 328.4632 358.0235 L 323.7127 360.3655 L 320.8783 359.4606 L 318.8025 361.5365 L 317.565 361.0042 L 315.569 364.1446 L 313.6129 363.3462 L 313.2137 361.2703 L 310.7786 363.08 L 308.7027 362.9204 L 306.9063 364.5704 L 308.064 366.7527 L 307.585 371.1705 L 305.1897 376.1206 L 306.1079 377.7174 L 310.0201 378.4094 L 311.8963 380.7513 L 312.7746 383.5191 L 311.7366 385.1692 L 313.533 385.1692 L 313.8524 388.7354 L 312.2556 389.9596 L 312.2157 392.408 L 310.4193 395.921 L 306.8265 399.3275 L 306.9462 401.2969 L 303.553 403.6921 L 302.6349 407.418 L 302.8744 410.5051 L 302.3155 409.9729 L 299.042 412.1019 L 295.6089 411.2503 L 294.052 411.7294 L 292.056 409.2809 L 289.5411 408.0035 L 288.7027 404.9695 L 281.7566 404.1711 L 280.3195 402.8405 L 276.567 401.8292 L 272.6948 399.913 L 270.4992 397.7839 L 269.2616 400.4985 L 266.068 398.0501 L 268.1439 395.8145 L 269.062 391.1838 L 264.2716 389.1612 L 261.7167 390.2789 L 260.7187 388.0966 L 258.4034 388.5225 L 256.9663 386.3402 L 257.1659 384.3708 L 261.3575 383.945 L 263.4333 382.2417 L 267.4652 376.44 L 272.4153 357.5977 L 274.9702 345.4087 L 276.4073 336.6795 L 276.2077 334.444 L 278.603 329.8133 L 282.9143 329.8133 L 282.3954 327.6842 L 279.4413 324.9164 L 277.2457 327.9503 L 276.2477 331.3569 L 279.082 310.0129 L 280.6389 303.2531 L 281.557 294.1513 L 283.3534 290.7448 L 284.072 292.6077 L 288.2636 296.1207 L 292.5351 301.7095 L 293.6528 309.5871 L 294.6508 312.621 L 297.2057 314.963 L 299.561 314.8566 L 296.0081 312.8339 L 295.1698 310.279 L 294.3315 301.9224 L 293.094 297.5046 L 290.579 293.4594 L 286.4672 290.1061 L 286.2676 289.0948 L 280.3594 284.5173 L 278.7626 284.4108 L 279.4413 280.8978 L 282.0361 280.4188 L 284.5111 283.3463 L 286.587 284.464 L 282.595 280.3656 L 281.9163 277.7042 L 284.3514 276.2671 L 284.591 273.659 L 283.4333 271.2106 L 284.9502 271.4235 L 283.9922 267.6444 L 282.5151 265.3556 L 281.0381 265.0363 L 281.7966 262.0023 L 283.9123 260.7781 L 283.7526 258.5426 L 284.9502 257.2119 L 288.2636 256.52 L 289.0221 258.3829 L 292.4951 258.0635 L 294.4912 259.3942 L 297.9243 258.3829 L 300.559 256.7329 L 298.3235 254.2844 L 298.2836 250.2924 L 299.042 248.9085 L 297.8844 243.0004 L 296.4073 239.9664 L 296.6468 237.7841 L 294.052 235.3889 L 293.2536 232.5679 L 290.4592 228.2033 L 293.2536 229.4807 L 299.2816 229.5872 L 301.7566 228.2565 L 301.6369 226.7129 L 306.9063 225.7016 L 312.6149 225.3823 L 314.4113 227.2984 L 316.3674 225.7016 L 317.8843 223.0935 L 319.9602 223.3064 L 320.6388 224.6903 L 323.553 225.6484 L 323.7127 227.671 L 326.8264 228.3098 L 326.7865 232.2485 L 330.4592 233.1534 L 334.2516 232.355 L 334.9302 230.2791 L 337.4452 231.8759 L 338.6029 234.8034 L 341.9961 240.0729 L 343.7925 241.8826 L 344.3514 247.2585 L 347.9043 250.8247 L 349.7406 250.8247 L 351.1378 252.315 L 350.8983 253.9118 L 352.4552 255.5087 L 351.8963 257.2651 L 353.1737 258.0635 L 356.5669 256.8926 L 358.9222 258.9152 L 361.7965 256.3603 L 364.0719 256.4135 L 364.7905 257.5313 L 368.7426 256.7861 L 369.2615 254.7103 L 371.2974 256.0409 L 372.7745 255.2957 L 379.3214 256.2538 L 383.7924 256.0941 L 386.1078 260.0862 L 390.3393 262.5346 L 393.0938 268.4428 L 393.014 271.2638 L 393.9721 275.5752 L 391.1777 279.993 L 388.1837 281.7495 L 389.4611 284.8366 L 391.8962 287.4447 L 391.8164 289.5738 L 390.0998 292.3416 L 391.7365 296.9191 L 390.8583 300.4853 L 387.9042 299.7934 L 386.5868 302.987 L 381.9561 307.9903 L 382.3154 310.8113 L 381.1577 313.6323 L 379.4811 315.1759 L 380.04 318.0502 L 377.8044 318.7953 Z M 310.4193 389.1612 L 311.1778 387.4579 L 310.0999 386.6595 L 309.581 388.2031 L 310.4193 389.1612 Z M 309.6608 392.5677 L 310.539 391.5564 L 309.541 390.066 L 308.8225 392.0887 L 309.6608 392.5677 Z" fill="#000000" fill-opacity="1" stroke="#000000" stroke-width="0" paint-order="fill" stroke-opacity="1" stroke-dasharray="" stroke-linecap="butt" stroke-linejoin="miter" stroke-miterlimit="10" transform="matrix(1.2000000476837158,0,0,1.2000000476837158,-79.99999237060547,-53.29999542236328)" clip-path="none"/>
<path data-code="206" d="M 525.6685 205.4754 L 521.7963 205.1561 L 521.3971 207.2852 L 519.5607 208.5626 L 518.0039 211.703 L 521.9959 210.8514 L 523.2334 212.0223 L 520.8382 214.3111 L 520.918 216.2805 L 513.1735 224.6903 L 512.9739 226.5 L 511.0977 228.0968 L 506.6266 230.1727 L 506.6266 238.1567 L 502.0358 241.8826 L 498.2434 245.7681 L 498.7224 247.6311 L 496.4869 251.2505 L 496.447 253.5925 L 491.457 259.9797 L 486.9859 260.3523 L 484.431 257.3184 L 480.4789 261.0975 L 479.1616 258.5426 L 476.3273 256.8926 L 474.6107 254.9232 L 474.2514 252.8473 L 470.2594 250.8247 L 466.9061 251.5166 L 463.1536 251.3037 L 461.4371 258.4361 L 459.96 261.9491 L 459.4411 265.7282 L 457.1257 265.0363 L 456.5668 262.5346 L 454.5309 260.3523 L 453.6127 261.9491 L 447.7445 260.9378 L 447.1057 263.812 L 444.3113 266.1008 L 437.6048 265.4088 L 435.1297 266.1008 L 432.6547 264.6104 L 432.2555 261.8959 L 435.5688 259.6071 L 434.8503 253.7522 L 427.7445 250.1327 L 427.7445 247.4714 L 423.3533 241.7761 L 422.3153 244.4907 L 419.4012 245.8214 L 418.5629 243.4794 L 416.6467 244.3843 L 413.3333 243.7455 L 412.1756 244.3843 L 407.3054 241.6697 L 406.6267 239.9132 L 407.9042 236.5067 L 407.3054 234.6437 L 407.9042 231.9292 L 407.6647 228.8952 L 404.7904 219.3144 L 401.9162 216.2805 L 403.513 211.2239 L 401.3972 207.2852 L 404.5908 206.2206 L 402.9541 201.4834 L 400.7186 199.8334 L 400.6387 198.3963 L 405.3892 196.0543 L 405.1497 191.7962 L 407.7844 189.6139 L 408.5429 186.3138 L 406.5868 184.1315 L 405.509 181.3105 L 403.1537 180.6718 L 403.7525 178.5427 L 406.0679 175.8281 L 405.6687 173.5394 L 406.3872 171.7296 L 415.3293 171.0909 L 416.4471 169.4409 L 417.2056 171.2506 L 420.1197 172.5813 L 422.5948 176.041 L 421.9161 179.3943 L 424.7505 181.0443 L 425.8283 180.1395 L 431.1776 187.6445 L 431.497 189.7203 L 435.2095 190.359 L 436.0878 189.6671 L 439.96 189.5074 L 440.3592 188.0703 L 442.4351 190.1461 L 443.5129 189.1348 L 449.7005 188.1235 L 451.5768 185.9412 L 454.1317 185.5686 L 456.8862 186.5799 L 459.9201 190.1994 L 462.7943 194.8301 L 461.1576 196.1075 L 462.4351 199.5673 L 464.2315 199.035 L 465.6287 200.8979 L 468.1436 200.0995 L 471.3772 203.6657 L 474.1317 203.1335 L 475.449 200.0463 L 477.7644 199.4608 L 480.2793 200.4189 L 483.5129 198.7156 L 483.7125 193.4994 L 486.6666 191.2107 L 490.2993 185.9944 L 490.8183 187.6445 L 493.5727 184.717 L 495.7684 184.7702 L 498.6825 187.6445 L 502.3552 186.5799 L 506.0677 188.4429 L 508.3033 188.1767 L 509.3013 186.6864 L 517.4051 192.7542 L 522.435 195.7349 L 522.3551 200.9512 L 523.5927 201.1109 L 525.7484 203.5061 L 525.6685 205.4754 Z" fill="#000000" fill-opacity="1" stroke="#000000" stroke-width="0" paint-order="fill" stroke-opacity="1" stroke-dasharray="" stroke-linecap="butt" stroke-linejoin="miter" stroke-miterlimit="10" transform="matrix(1.2000000476837158,0,0,1.2000000476837158,-79.99999237060547,-53.29999542236328)" clip-path="none"/>
<path data-code="207" d="M 319.9602 223.3064 L 321.0779 217.5579 L 323.4332 213.6724 L 324.8704 208.2965 L 325.5889 203.9319 L 329.3015 205.0496 L 329.7406 203.1335 L 331.6568 203.2932 L 336.3674 201.0576 L 337.1258 198.3431 L 340.3194 196.2672 L 341.3973 191.1574 L 343.1937 189.0816 L 343.2336 185.9412 L 342.036 184.717 L 343.0739 182.6411 L 345.4292 181.0443 L 342.1957 179.0217 L 343.034 178.0104 L 342.1957 176.0942 L 342.036 172.5813 L 345.0699 171.57 L 347.545 168.3764 L 346.6667 164.4908 L 343.9921 161.8295 L 343.1138 158.2633 L 344.7107 156.7729 L 348.6228 155.9213 L 351.3773 153.6325 L 355.6887 154.6971 L 358.1238 153.1535 L 358.9621 151.2906 L 361.2376 149.5873 L 361.2775 147.2985 L 362.4352 146.6066 L 364.5909 150.7051 L 364.4312 153.2067 L 365.549 154.8567 L 364.6707 156.8794 L 366.3074 159.5407 L 369.501 163.0537 L 370.9781 167.2054 L 374.3713 168.2167 L 374.4511 169.5474 L 376.6068 173.5926 L 376.2875 175.4555 L 380.4392 174.5507 L 382.5549 172.7942 L 383.9521 174.2845 L 385.6687 173.2732 L 388.0639 173.8587 L 389.1417 176.6797 L 391.3373 178.5427 L 390.8583 180.8847 L 389.501 181.6831 L 396.2475 182.2153 L 399.2016 180.5121 L 400.2794 181.7895 L 403.1537 180.6718 L 405.509 181.3105 L 406.5868 184.1315 L 408.5429 186.3138 L 407.7844 189.6139 L 405.1497 191.7962 L 405.3892 196.0543 L 400.6387 198.3963 L 400.7186 199.8334 L 402.9541 201.4834 L 404.5908 206.2206 L 401.3972 207.2852 L 403.513 211.2239 L 401.9162 216.2805 L 404.7904 219.3144 L 407.6647 228.8952 L 407.9042 231.9292 L 407.3054 234.6437 L 407.9042 236.5067 L 406.6267 239.9132 L 403.7525 240.2858 L 401.0379 242.7874 L 399.0818 243.3729 L 397.6048 242.4149 L 394.6108 245.6085 L 393.3333 245.8746 L 394.4511 250.4521 L 388.1038 251.6763 L 384.9102 254.0183 L 383.7924 256.0941 L 379.3214 256.2538 L 372.7745 255.2957 L 371.2974 256.0409 L 369.2615 254.7103 L 368.7426 256.7861 L 364.7905 257.5313 L 364.0719 256.4135 L 361.7965 256.3603 L 358.9222 258.9152 L 356.5669 256.8926 L 353.1737 258.0635 L 351.8963 257.2651 L 352.4552 255.5087 L 350.8983 253.9118 L 351.1378 252.315 L 349.7406 250.8247 L 347.9043 250.8247 L 344.3514 247.2585 L 343.7925 241.8826 L 341.9961 240.0729 L 338.6029 234.8034 L 337.4452 231.8759 L 334.9302 230.2791 L 334.2516 232.355 L 330.4592 233.1534 L 326.7865 232.2485 L 326.8264 228.3098 L 323.7127 227.671 L 323.553 225.6484 L 320.6388 224.6903 L 319.9602 223.3064 Z" fill="#000000" fill-opacity="1" stroke="#000000" stroke-width="0" paint-order="fill" stroke-opacity="1" stroke-dasharray="" stroke-linecap="butt" stroke-linejoin="miter" stroke-miterlimit="10" transform="matrix(1.2000000476837158,0,0,1.2000000476837158,-79.99999237060547,-53.29999542236328)" clip-path="none"/>
<path data-code="208" d="M 416.4471 169.4409 L 415.3293 171.0909 L 406.3872 171.7296 L 405.6687 173.5394 L 406.0679 175.8281 L 403.7525 178.5427 L 403.1537 180.6718 L 400.2794 181.7895 L 399.2016 180.5121 L 396.2475 182.2153 L 389.501 181.6831 L 390.8583 180.8847 L 391.3373 178.5427 L 389.1417 176.6797 L 388.0639 173.8587 L 385.6687 173.2732 L 383.9521 174.2845 L 382.5549 172.7942 L 380.4392 174.5507 L 376.2875 175.4555 L 376.6068 173.5926 L 374.4511 169.5474 L 374.3713 168.2167 L 370.9781 167.2054 L 369.501 163.0537 L 366.3074 159.5407 L 364.6707 156.8794 L 365.549 154.8567 L 364.4312 153.2067 L 364.5909 150.7051 L 362.4352 146.6066 L 361.4372 144.7969 L 361.3973 141.8694 L 366.0679 140.4323 L 368.3034 133.9918 L 369.4212 135.8016 L 373.5729 136.7596 L 376.8463 136.1741 L 379.0819 134.9499 L 383.4731 137.0258 L 386.1876 136.4403 L 393.2136 140.4323 L 394.4112 139.8468 L 397.7645 141.1242 L 398.8822 140.3791 L 404.3513 140.6452 L 407.1856 139.421 L 408.9022 139.9532 L 409.9401 143.7856 L 414.0519 147.405 L 415.0499 147.1921 L 416.8463 150.2792 L 418.5229 150.3857 L 416.6068 152.0357 L 416.3673 154.7503 L 417.8443 155.8681 L 418.3633 159.5939 L 420.3992 160.6585 L 417.9641 164.1714 L 416.8463 164.4376 L 416.4471 169.4409 Z" fill="#000000" fill-opacity="1" stroke="#000000" stroke-width="0" paint-order="fill" stroke-opacity="1" stroke-dasharray="" stroke-linecap="butt" stroke-linejoin="miter" stroke-miterlimit="10" transform="matrix(1.2000000476837158,0,0,1.2000000476837158,-79.99999237060547,-53.29999542236328)" clip-path="none"/>
<path data-code="209" d="M 418.5229 150.3857 L 416.8463 150.2792 L 415.0499 147.1921 L 414.0519 147.405 L 409.9401 143.7856 L 408.9022 139.9532 L 407.1856 139.421 L 404.3513 140.6452 L 398.8822 140.3791 L 397.7645 141.1242 L 394.4112 139.8468 L 393.2136 140.4323 L 386.1876 136.4403 L 383.4731 137.0258 L 379.0819 134.9499 L 376.8463 136.1741 L 373.5729 136.7596 L 369.4212 135.8016 L 368.3034 133.9918 L 369.1018 132.2886 L 370.7386 133.1402 L 369.022 127.4449 L 368.9022 125.6352 L 370.1797 121.9626 L 368.8224 121.8561 L 367.9841 116.0012 L 369.0619 115.1495 L 368.1438 113.1802 L 370.0599 110.7849 L 368.0639 105.409 L 363.5529 100.4589 L 359.6408 97.5847 L 362.1957 94.7637 L 362.8344 92.4749 L 364.7505 91.0378 L 367.4651 92.4217 L 367.7446 91.0378 L 364.3913 88.4829 L 364.6707 85.3425 L 366.3074 84.1715 L 364.8304 82.9473 L 365.3494 81.1908 L 365.6687 75.5488 L 365.1498 71.0245 L 366.3474 66.1809 L 365.7086 62.7211 L 367.7046 61.8695 L 369.7805 59.5275 L 376.4072 56.813 L 380.7585 56.2807 L 385.9082 54.5242 L 387.5449 54.7371 L 391.2575 53.3 L 392.2156 57.0791 L 393.6128 58.8356 L 392.7745 60.9647 L 393.1337 63.9986 L 395.9282 65.4357 L 398.523 69.1084 L 401.6367 70.0132 L 403.5529 67.618 L 407.1457 66.3938 L 408.3034 67.0857 L 410.6587 71.9826 L 411.8164 77.5714 L 413.8523 79.0618 L 417.0858 77.8376 L 418.0838 79.2214 L 421.0778 79.6473 L 422.1157 80.9779 L 422.6746 86.4603 L 423.6726 87.3119 L 424.8303 85.3958 L 427.5449 85.2361 L 429.1018 86.0877 L 432.5748 85.449 L 435.489 88.9087 L 437.6447 89.0684 L 436.4071 90.8249 L 435.6087 94.4975 L 437.1257 94.4975 L 438.004 97.425 L 435.8882 99.288 L 436.1676 101.1509 L 438.2834 102.0025 L 439.2814 106.3139 L 438.2834 109.6672 L 438.9221 111.8495 L 435.8483 115.3625 L 433.8922 116.3738 L 434.6906 118.9287 L 433.9321 122.3884 L 434.7704 124.0917 L 433.7325 125.0497 L 434.1317 127.6046 L 429.4211 127.1256 L 428.6626 128.6692 L 424.5509 129.6805 L 423.0738 130.6385 L 423.992 134.8435 L 425.7485 135.9612 L 424.6706 137.3984 L 422.7944 137.3984 L 421.5169 142.242 L 423.7525 143.413 L 419.481 148.5228 L 418.5229 150.3857 Z" fill="#000000" fill-opacity="1" stroke="#000000" stroke-width="0" paint-order="fill" stroke-opacity="1" stroke-dasharray="" stroke-linecap="butt" stroke-linejoin="miter" stroke-miterlimit="10" transform="matrix(1.2000000476837158,0,0,1.2000000476837158,-79.99999237060547,-53.29999542236328)" clip-path="none"/>
<path data-code="210" d="M 496.447 253.5925 L 498.8422 255.9877 L 497.7244 260.9378 L 493.8921 262.5878 L 494.0518 266.154 L 496.0877 265.3024 L 498.4829 265.5685 L 503.3931 260.9378 L 501.5967 258.649 L 503.5129 255.1361 L 505.9879 255.9877 L 509.5009 253.2731 L 515.3292 252.315 L 518.0039 252.6876 L 517.0857 255.6151 L 519.5607 258.7555 L 518.6027 260.9378 L 518.2833 264.7169 L 520.6785 265.0895 L 520.7583 268.2831 L 522.6745 268.1766 L 524.8302 270.3589 L 526.1875 273.3396 L 524.7504 275.8413 L 519.8402 278.0236 L 519.9599 282.7076 L 521.437 284.1979 L 525.1496 285.7947 L 525.0298 288.1367 L 526.0677 291.3303 L 531.6565 295.3755 L 529.8601 299.2611 L 530.4988 302.0289 L 528.8621 304.0515 L 526.1076 304.4241 L 522.8342 308.0967 L 519.5208 307.0854 L 516.3272 308.7887 L 513.0937 309.8 L 511.3372 312.0888 L 508.1436 309.9065 L 504.6705 310.1726 L 504.3911 314.484 L 507.425 314.6436 L 508.942 318.3695 L 508.6625 320.7115 L 501.7564 321.1905 L 497.0857 323.4793 L 497.1256 324.81 L 493.2933 326.1406 L 491.8961 330.3456 L 487.7843 331.0907 L 486.427 334.9231 L 488.0238 336.6263 L 485.948 338.5957 L 482.3951 337.957 L 483.1137 340.778 L 481.1576 340.8312 L 482.1955 343.12 L 487.3452 345.8346 L 489.3013 347.6443 L 489.2215 352.1153 L 486.5468 351.2637 L 484.0718 353.8186 L 480.4789 351.9556 L 479.9999 350.5185 L 473.2933 348.8153 L 473.5728 346.633 L 469.7804 346.7926 L 462.3951 349.0814 L 460.2794 345.8346 L 457.6047 345.8878 L 457.6846 347.8572 L 453.4131 345.5684 L 451.6965 345.6749 L 449.98 347.5378 L 449.5808 346.0475 L 447.6646 345.9942 L 445.1896 348.1765 L 441.3972 346.1007 L 438.7624 346.2071 L 438.8423 343.0135 L 437.0858 340.7248 L 436.1676 337.3715 L 434.7704 335.4021 L 433.0139 329.3342 L 433.1337 328.0568 L 428.982 325.289 L 426.6267 324.7035 L 426.3872 323.0535 L 424.4311 323.2664 L 424.1118 324.6503 L 421.5169 325.4487 L 420.479 324.5971 L 417.9641 319.3808 L 413.8523 320.9244 L 411.1377 323.2664 L 409.501 322.7873 L 407.8643 326.6729 L 407.1457 330.3456 L 405.9481 333.0601 L 404.2715 331.0375 L 403.6727 328.2165 L 400.998 323.4793 L 399.8403 323.6922 L 398.1238 320.4986 L 394.0918 324.8632 L 392.3753 329.4407 L 389.8603 332.3682 L 386.5469 332.8472 L 385.1497 332.102 L 381.517 333.7521 L 380 330.7714 L 380.7984 327.5245 L 378.8423 323.5325 L 377.8044 318.7953 L 380.04 318.0502 L 379.4811 315.1759 L 381.1577 313.6323 L 382.3154 310.8113 L 381.9561 307.9903 L 386.5868 302.987 L 387.9042 299.7934 L 390.8583 300.4853 L 391.7365 296.9191 L 390.0998 292.3416 L 391.8164 289.5738 L 391.8962 287.4447 L 389.4611 284.8366 L 388.1837 281.7495 L 391.1777 279.993 L 393.9721 275.5752 L 393.014 271.2638 L 393.0938 268.4428 L 390.3393 262.5346 L 386.1078 260.0862 L 383.7924 256.0941 L 384.9102 254.0183 L 388.1038 251.6763 L 394.4511 250.4521 L 393.3333 245.8746 L 394.6108 245.6085 L 397.6048 242.4149 L 399.0818 243.3729 L 401.0379 242.7874 L 403.7525 240.2858 L 406.6267 239.9132 L 407.3054 241.6697 L 412.1756 244.3843 L 413.3333 243.7455 L 416.6467 244.3843 L 418.5629 243.4794 L 419.4012 245.8214 L 422.3153 244.4907 L 423.3533 241.7761 L 427.7445 247.4714 L 427.7445 250.1327 L 434.8503 253.7522 L 435.5688 259.6071 L 432.2555 261.8959 L 432.6547 264.6104 L 435.1297 266.1008 L 437.6048 265.4088 L 444.3113 266.1008 L 447.1057 263.812 L 447.7445 260.9378 L 453.6127 261.9491 L 454.5309 260.3523 L 456.5668 262.5346 L 457.1257 265.0363 L 459.4411 265.7282 L 459.96 261.9491 L 461.4371 258.4361 L 463.1536 251.3037 L 466.9061 251.5166 L 470.2594 250.8247 L 474.2514 252.8473 L 474.6107 254.9232 L 476.3273 256.8926 L 479.1616 258.5426 L 480.4789 261.0975 L 484.431 257.3184 L 486.9859 260.3523 L 491.457 259.9797 L 496.447 253.5925 Z M 467.5848 346.2071 L 469.4211 343.7055 L 467.7844 341.3635 L 466.1077 341.6829 L 464.6706 344.3974 L 464.9899 346.2604 L 467.5848 346.2071 Z" fill="#000000" fill-opacity="1" stroke="#000000" stroke-width="0" paint-order="fill" stroke-opacity="1" stroke-dasharray="" stroke-linecap="butt" stroke-linejoin="miter" stroke-miterlimit="10" transform="matrix(1.2000000476837158,0,0,1.2000000476837158,-79.99999237060547,-53.29999542236328)" clip-path="none"/>
<path data-code="211" d="M 525.6685 205.4754 L 525.7484 203.5061 L 523.5927 201.1109 L 522.3551 200.9512 L 522.435 195.7349 L 517.4051 192.7542 L 509.3013 186.6864 L 508.3033 188.1767 L 506.0677 188.4429 L 502.3552 186.5799 L 498.6825 187.6445 L 495.7684 184.7702 L 493.5727 184.717 L 490.8183 187.6445 L 490.2993 185.9944 L 486.6666 191.2107 L 483.7125 193.4994 L 483.5129 198.7156 L 480.2793 200.4189 L 477.7644 199.4608 L 475.449 200.0463 L 474.1317 203.1335 L 471.3772 203.6657 L 468.1436 200.0995 L 465.6287 200.8979 L 464.2315 199.035 L 462.4351 199.5673 L 461.1576 196.1075 L 462.7943 194.8301 L 459.9201 190.1994 L 456.8862 186.5799 L 454.1317 185.5686 L 451.5768 185.9412 L 449.7005 188.1235 L 443.5129 189.1348 L 442.4351 190.1461 L 440.3592 188.0703 L 439.96 189.5074 L 436.0878 189.6671 L 435.2095 190.359 L 431.497 189.7203 L 431.1776 187.6445 L 425.8283 180.1395 L 424.7505 181.0443 L 421.9161 179.3943 L 422.5948 176.041 L 420.1197 172.5813 L 417.2056 171.2506 L 416.4471 169.4409 L 416.8463 164.4376 L 417.9641 164.1714 L 420.3992 160.6585 L 418.3633 159.5939 L 417.8443 155.8681 L 416.3673 154.7503 L 416.6068 152.0357 L 418.5229 150.3857 L 419.481 148.5228 L 423.7525 143.413 L 421.5169 142.242 L 422.7944 137.3984 L 424.6706 137.3984 L 425.7485 135.9612 L 423.992 134.8435 L 423.0738 130.6385 L 424.5509 129.6805 L 428.6626 128.6692 L 429.4211 127.1256 L 434.1317 127.6046 L 433.7325 125.0497 L 434.7704 124.0917 L 433.9321 122.3884 L 434.6906 118.9287 L 433.8922 116.3738 L 435.8483 115.3625 L 438.9221 111.8495 L 438.2834 109.6672 L 439.2814 106.3139 L 438.2834 102.0025 L 440 101.6832 L 444.3912 102.8009 L 450.4191 100.1396 L 451.0179 96.0411 L 453.8522 92.9007 L 456.1676 93.433 L 454.0918 100.6719 L 455.7285 102.4816 L 455.6087 106.1542 L 456.2874 108.7623 L 458.8023 108.2833 L 462.5548 110.0398 L 465.7085 112.9672 L 467.5848 112.5414 L 468.7424 113.7656 L 468.7824 115.8947 L 471.6965 116.2673 L 473.972 120.8448 L 475.8881 119.5141 L 477.445 119.8335 L 478.5628 118.5028 L 481.6766 118.1835 L 484.7903 120.4722 L 486.5867 120.8448 L 487.5847 122.5481 L 490.4191 122.1223 L 492.3751 119.9932 L 495.5288 120.0464 L 497.7244 121.3771 L 499.8801 120.898 L 502.4749 122.069 L 504.9101 125.1562 L 504.2713 126.2207 L 506.946 128.9885 L 508.9021 133.1402 L 511.9759 134.1515 L 512.4949 131.3305 L 517.5248 132.2886 L 518.0039 134.9499 L 519.7603 133.8322 L 521.7963 134.9499 L 524.9899 135.1096 L 528.2633 132.1289 L 530.6984 132.7144 L 532.1356 135.5886 L 535.8881 137.3984 L 539.3611 136.6532 L 543.8322 136.9193 L 548.4629 138.9952 L 551.6166 139.6339 L 549.3012 145.8082 L 545.7483 148.8421 L 545.3092 150.8647 L 541.6765 155.3358 L 542.0358 159.4343 L 541.0777 160.4456 L 540.2394 164.4908 L 540.7982 166.7263 L 539.5208 168.7489 L 538.9619 171.9426 L 537.3252 174.6039 L 536.407 178.3298 L 538.0038 182.2153 L 535.9679 191.9558 L 536.1675 196.8527 L 538.2433 200.4189 L 535.409 202.4415 L 535.1296 205.1029 L 532.6945 207.4981 L 528.8222 208.2965 L 526.5468 207.3384 L 525.6685 205.4754 Z" fill="#000000" fill-opacity="1" stroke="#000000" stroke-width="0" paint-order="fill" stroke-opacity="1" stroke-dasharray="" stroke-linecap="butt" stroke-linejoin="miter" stroke-miterlimit="10" transform="matrix(1.2000000476837158,0,0,1.2000000476837158,-79.99999237060547,-53.29999542236328)" clip-path="none"/>
<path data-code="212" d="M 359.6408 97.5847 L 363.5529 100.4589 L 368.0639 105.409 L 370.0599 110.7849 L 368.1438 113.1802 L 369.0619 115.1495 L 367.9841 116.0012 L 368.8224 121.8561 L 370.1797 121.9626 L 368.9022 125.6352 L 369.022 127.4449 L 370.7386 133.1402 L 369.1018 132.2886 L 368.3034 133.9918 L 366.0679 140.4323 L 361.3973 141.8694 L 361.4372 144.7969 L 362.4352 146.6066 L 361.2775 147.2985 L 361.2376 149.5873 L 358.9621 151.2906 L 358.1238 153.1535 L 355.6887 154.6971 L 351.3773 153.6325 L 348.6228 155.9213 L 344.7107 156.7729 L 343.1138 158.2633 L 343.9921 161.8295 L 346.6667 164.4908 L 347.545 168.3764 L 345.0699 171.57 L 342.036 172.5813 L 342.1957 176.0942 L 343.034 178.0104 L 342.1957 179.0217 L 340.1198 178.5959 L 338.4831 176.2539 L 333.7326 175.1362 L 333.3334 173.5926 L 330.6588 172.3684 L 330.2197 167.3651 L 327.6648 166.1941 L 325.1498 166.7263 L 320.9183 170.1328 L 318.044 169.9732 L 318.0041 167.7376 L 315.2895 165.1295 L 314.8903 162.6811 L 313.1738 161.9891 L 312.6548 163.4263 L 309.6608 164.8634 L 305.4692 164.2779 L 303.8724 165.6618 L 300.7586 165.3424 L 298.1638 166.6199 L 296.6069 166.1408 L 295.1698 163.8521 L 289.0221 163.7456 L 283.7526 161.8827 L 280.3195 164.544 L 278.4433 164.7037 L 276.2876 161.7762 L 274.7706 156.8261 L 277.2856 157.1987 L 280.9982 156.3471 L 277.2057 154.3777 L 276.0481 152.3551 L 275.7686 146.8195 L 276.8465 140.0597 L 275.8485 140.7516 L 275.2497 136.8129 L 275.8485 135.0564 L 275.6489 131.4902 L 274.6109 131.1708 L 274.2517 128.7224 L 272.7746 126.4336 L 269.9802 123.7191 L 270.1798 121.6432 L 268.4632 117.8109 L 269.7008 116.1609 L 269.1818 112.1688 L 267.106 111.3704 L 267.5052 109.4011 L 270.1399 109.8801 L 270.8584 110.9979 L 276.7267 112.9672 L 279.1618 112.6479 L 280.7586 110.9979 L 282.595 110.6253 L 285.9083 111.4237 L 286.9463 114.7237 L 284.6309 117.4915 L 285.7487 120.3658 L 287.7846 123.1868 L 287.7047 126.4336 L 289.9003 126.8062 L 290.8584 124.7304 L 294.5311 125.103 L 297.8045 126.5401 L 305.5091 127.0191 L 309.2616 127.8708 L 314.571 130.745 L 319.8005 129.2014 L 322.8344 127.6046 L 325.4292 125.2094 L 332.4153 123.7723 L 328.1039 123.1868 L 323.9123 121.7497 L 323.2736 119.6206 L 324.7506 117.0125 L 325.9881 113.2334 L 327.8244 111.5834 L 332.0959 109.7204 L 335.9282 107.3252 L 340.1598 105.5155 L 342.555 105.6219 L 354.012 102.109 L 359.6408 97.5847 Z" fill="#000000" fill-opacity="1" stroke="#000000" stroke-width="0" paint-order="fill" stroke-opacity="1" stroke-dasharray="" stroke-linecap="butt" stroke-linejoin="miter" stroke-miterlimit="10" transform="matrix(1.2000000476837158,0,0,1.2000000476837158,-79.99999237060547,-53.29999542236328)" clip-path="none"/>
<path data-code="213" d="M 289.7207 448.9349 L 290.3435 449.0413 L 290.9862 448.7752 L 291.7447 448.9881 L 293.5091 448.9881 L 294.1957 449.2543 L 294.8624 449.6801 L 297.07 450.1591 L 297.7207 450.5849 L 298.2157 450.9575 L 299.2816 452.1285 L 299.6568 452.8737 L 299.8524 454.6302 L 300.1319 455.2157 L 301.3414 456.4931 L 301.5131 456.8657 L 301.5929 457.9302 L 301.8644 458.8883 L 302.1758 459.1012 L 303.0301 459.4738 L 303.8963 461.0174 L 304.579 461.4432 L 306.3434 462.1884 L 306.9502 462.8271 L 307.1858 463.8384 L 306.9303 464.7433 L 306.5151 465.5949 L 305.7406 469.5337 L 305.6369 470.6514 L 305.6728 471.6095 L 305.5969 472.7273 L 305.1738 473.6854 L 304.1598 474.058 L 302.4193 474.058 L 301.549 474.1644 L 300.0161 475.016 L 298.8704 475.2289 L 297.7327 475.1757 L 296.9422 474.8564 L 296.1119 475.1757 L 294.8744 475.2289 L 293.577 475.1225 L 292.563 474.9096 L 291.7127 474.4305 L 290.1558 473.3128 L 288.6748 472.9934 L 286.6508 472.195 L 285.8365 471.716 L 285.4413 471.2369 L 284.8425 470.4385 L 284.3155 470.2788 L 282.7187 470.2788 L 282.4792 470.1192 L 282.1119 469.374 L 280.3914 467.4046 L 279.7886 466.3401 L 279.553 465.1158 L 279.5291 464.1578 L 279.4053 463.3594 L 277.3095 460.5916 L 276.6548 459.4738 L 276.2596 458.356 L 276.2477 457.3447 L 276.5191 456.2802 L 277.0341 455.4286 L 278.6748 454.7366 L 279.2776 453.885 L 279.4852 452.9269 L 279.2377 452.1817 L 279.6249 451.5962 L 279.2257 451.064 L 279.9882 450.7446 L 281.6089 450.6914 L 282.9782 449.6801 L 285.1259 448.4559 L 287.4772 448.3494 L 288.2995 448.4026 L 289.7207 448.9349 Z" fill="#000000" fill-opacity="1" stroke="#000000" stroke-width="0" paint-order="fill" stroke-opacity="1" stroke-dasharray="" stroke-linecap="butt" stroke-linejoin="miter" stroke-miterlimit="10" transform="matrix(1.2000000476837158,0,0,1.2000000476837158,-79.99999237060547,-53.29999542236328)" clip-path="none"/>
<path data-code="214" d="M 353.2496 462.7739 L 352.6428 462.7739 L 351.4452 458.9948 L 352.7705 457.5576 L 353.2536 457.1851 L 353.8524 458.6754 L 353.9881 459.9528 L 353.7685 461.2835 L 353.2496 462.7739 Z M 336.1717 449.7865 L 335.6248 450.2123 L 336.1997 450.1591 L 336.4672 450.3188 L 336.5989 450.5849 L 336.7945 450.8511 L 337.9881 451.8624 L 339.6129 453.8318 L 340.4791 454.5237 L 341.7127 454.8431 L 344.4831 454.8431 L 345.9841 455.2689 L 347.4891 456.2802 L 348.1238 457.3447 L 348.1358 458.6222 L 347.7446 460.2722 L 345.6488 463.4126 L 344.8663 463.8916 L 344.9142 464.9562 L 345.4851 466.0739 L 347.0819 467.0852 L 346.8863 468.3095 L 346.2995 469.5337 L 345.9761 470.0127 L 345.1697 471.9821 L 343.7166 473.6854 L 343.0899 475.5483 L 344.6987 477.8371 L 344.3354 478.4758 L 343.9602 478.9548 L 343.5131 479.2742 L 342.8783 479.7 L 342.3514 478.6887 L 341.7446 478.7951 L 340.9622 479.3806 L 339.8604 479.7 L 338.8624 479.4339 L 338.2117 478.9548 L 337.6288 478.6355 L 336.7825 479.0613 L 336.8983 477.7306 L 336.547 476.8257 L 335.7007 476.3999 L 334.4033 476.5596 L 334.4033 475.9741 L 336.0041 475.2289 L 336.1638 473.6854 L 335.3693 472.2482 L 333.7087 471.3434 L 333.9562 470.8643 L 334.6348 470.4385 L 335.6169 470.3321 L 336.1598 470.7047 L 337.7406 472.5676 L 339.2336 473.4725 L 340.064 473.0466 L 340.2755 471.8757 L 339.8644 470.3321 L 339.1578 469.2143 L 338.2196 468.1498 L 335.6169 465.9142 L 336.8624 465.382 L 337.4372 465.3288 L 337.4372 464.69 L 336.9182 463.9449 L 336.531 462.6142 L 336.2276 459.9528 L 335.9043 458.6222 L 335.1218 458.0899 L 334.1238 457.7705 L 333.1937 457.1318 L 332.559 456.3334 L 332.1757 455.4818 L 331.9801 454.4705 L 331.9362 453.0334 L 336.2316 448.3494 L 336.5789 448.9349 L 336.6867 449.201 L 336.7945 449.5736 L 336.4033 449.6801 L 336.1717 449.7865 Z" fill="#000000" fill-opacity="1" stroke="#000000" stroke-width="0" paint-order="fill" stroke-opacity="1" stroke-dasharray="" stroke-linecap="butt" stroke-linejoin="miter" stroke-miterlimit="10" transform="matrix(1.2000000476837158,0,0,1.2000000476837158,-79.99999237060547,-53.29999542236328)" clip-path="none"/>
<path data-code="215" d="M 400.3593 463.0932 L 399.7206 463.4126 L 399.505 463.5723 L 399.3054 464.1578 L 399.0579 464.5836 L 398.507 465.1691 L 398.2395 465.3288 L 398.0878 465.8078 L 397.7485 465.9675 L 397.5409 466.7127 L 396.8543 467.8836 L 395.6966 469.7998 L 395.0898 470.1192 L 394.9142 470.4918 L 394.5509 470.9176 L 394.6228 471.5563 L 394.032 472.6741 L 394.1437 472.9402 L 393.7485 473.2063 L 393.0779 474.6967 L 393.026 474.9628 L 392.7505 475.1757 L 392.9062 475.708 L 392.3433 476.6661 L 392.028 476.9322 L 391.5848 477.5709 L 390.1078 478.4225 L 389.8803 478.9016 L 389.4252 479.1677 L 388.5549 479.0613 L 388.2914 478.8484 L 387.9481 478.7419 L 386.9182 478.9548 L 386.6866 478.9016 L 387.0779 478.4758 L 386.1358 477.6241 L 385.8403 477.9967 L 385.03 478.4758 L 384.531 478.529 L 384.1238 478.3161 L 383.5529 478.2629 L 382.9781 477.9967 L 382.7306 477.9967 L 382.7705 477.6241 L 382.535 477.4645 L 382.2276 477.5709 L 381.9681 477.9435 L 381.6607 477.9967 L 381.3653 478.3693 L 381.0938 478.3161 L 380.9821 478.7419 L 380.2795 479.1145 L 379.9242 479.008 L 379.6727 479.5403 L 379.3613 479.7 L 378.9022 479.221 L 378.2595 479.3274 L 377.6487 479.221 L 377.3134 478.9548 L 376.4352 478.7951 L 375.8443 478.3161 L 376.012 478.2096 L 375.6847 477.8903 L 375.2495 477.8371 L 375.3893 477.6241 L 375.8004 477.7306 L 376.0639 477.6241 L 376.2954 477.0387 L 376.8942 476.879 L 377.4451 476.2403 L 377.7805 475.3886 L 378.0839 474.8031 L 378.7106 473.9515 L 378.9142 473.4192 L 379.0739 473.2595 L 378.9102 473.0999 L 379.1338 472.2482 L 378.9501 472.0353 L 379.0859 471.9289 L 379.022 471.024 L 378.7306 470.9176 L 378.9102 470.4918 L 379.5649 469.5337 L 379.8563 469.3208 L 380.0679 468.7353 L 380.3793 468.4159 L 380.519 468.0965 L 380.495 467.4046 L 380.6467 466.7659 L 380.3992 466.4997 L 380.1238 466.553 L 379.9202 466.1804 L 379.7485 465.5417 L 379.4811 465.2223 L 378.9541 464.9562 L 378.6587 464.5304 L 378.495 464.4239 L 378.0519 463.7852 L 377.9082 463.4126 L 377.6168 463.1465 L 377.529 462.7739 L 377.6807 462.3481 L 377.6727 462.0819 L 377.2974 461.9222 L 377.0579 461.5496 L 377.2096 461.2835 L 377.1258 460.6448 L 376.8703 460.1125 L 376.7266 459.2077 L 376.9621 458.5157 L 376.9501 458.0367 L 376.8424 457.7705 L 376.8663 457.2383 L 376.499 456.8657 L 376.4751 455.4818 L 376.7426 455.2689 L 376.6867 454.7898 L 376.9262 454.2576 L 377.6687 453.4059 L 377.7685 453.0334 L 378.3114 452.3946 L 378.9861 451.9156 L 379.1537 451.7559 L 379.7006 451.4366 L 380.0918 450.9575 L 380.5589 449.9462 L 380.6946 449.0413 L 381.1018 448.3494 L 381.8324 448.4026 L 382.1996 448.5623 L 382.2435 448.4559 L 383.2216 449.0413 L 384.1837 449.4139 L 384.7385 449.7865 L 385.3254 449.9462 L 385.6727 449.9462 L 386.5669 450.1591 L 386.7825 450.1591 L 387.1857 450.5317 L 387.3733 450.4252 L 386.7505 449.9462 L 388.0359 450.4252 L 388.4431 450.6914 L 389.0938 450.9043 L 389.1936 450.8511 L 390.028 451.2769 L 390.5988 451.8624 L 390.99 452.0753 L 391.2455 452.5011 L 391.8563 452.9801 L 393.0499 454.0979 L 393.2136 454.364 L 393.5729 454.4705 L 394.2316 455.0028 L 394.4232 455.3221 L 394.3433 455.6947 L 394.7186 455.2689 L 395.1058 455.2689 L 395.4571 455.7479 L 394.7345 456.8657 L 394.7545 457.1851 L 394.982 456.8657 L 395.1018 456.3866 L 395.5928 456.0141 L 395.6846 455.8544 L 396.016 456.1205 L 396.2994 456.5463 L 396.8583 456.8657 L 397.4491 457.4512 L 397.6926 457.8238 L 398.0759 459.527 L 397.984 459.8996 L 397.485 460.2722 L 397.2615 460.5383 L 398.0719 460.219 L 398.3154 459.5803 L 398.2435 458.356 L 398.2954 458.0367 L 398.5429 457.7173 L 398.9541 457.7705 L 399.4252 458.2496 L 399.3573 458.356 L 399.5928 458.6754 L 399.7246 459.3141 L 399.9521 459.4738 L 399.8363 459.6867 L 399.9521 460.0061 L 400.2395 460.0593 L 400.2675 460.219 L 400.0719 460.5383 L 400.1437 460.8577 L 400.479 461.3367 L 400.6387 461.7626 L 400.6228 462.4013 L 400.3593 463.0932 Z" fill="#000000" fill-opacity="1" stroke="#000000" stroke-width="0" paint-order="fill" stroke-opacity="1" stroke-dasharray="" stroke-linecap="butt" stroke-linejoin="miter" stroke-miterlimit="10" transform="matrix(1.2000000476837158,0,0,1.2000000476837158,-79.99999237060547,-53.29999542236328)" clip-path="none"/>
<path data-code="216" d="M 440.8902 454.4173 L 442.0519 456.7592 L 442.978 455.9608 L 444.2794 455.3221 L 445.7884 454.8963 L 447.3293 454.8963 L 446.8782 455.2689 L 446.487 455.535 L 446.2994 455.8012 L 446.459 456.227 L 445.1057 457.6641 L 444.3153 456.3866 L 443.8243 456.706 L 443.6526 457.9835 L 443.8043 459.4738 L 444.3433 459.2609 L 444.8103 459.2609 L 445.2175 459.527 L 445.5688 459.8996 L 443.8163 460.8577 L 444.2994 461.39 L 443.5209 461.7626 L 443.6407 462.3481 L 444.1996 462.561 L 444.7465 461.7626 L 446.9181 462.7206 L 446.4271 462.7739 L 446.1756 462.8803 L 445.96 463.04 L 445.5968 463.1997 L 446.0119 464.211 L 446.5109 464.7433 L 447.8243 465.4884 L 448.0159 465.8078 L 448.1157 466.2868 L 448.3552 466.6594 L 448.978 466.8191 L 449.4371 467.032 L 449.6646 467.5111 L 449.7125 468.1498 L 449.6566 468.682 L 450.4989 468.203 L 450.2674 469.0546 L 450.2395 469.9063 L 450.467 470.7047 L 451.0059 471.4498 L 450.6107 471.6627 L 450.451 471.8224 L 450.3433 472.0353 L 450.1357 472.3547 L 450.986 472.7805 L 451.3453 473.6854 L 451.5608 474.7499 L 451.972 475.5483 L 451.976 476.0273 L 451.1856 476.3999 L 450.4191 478.3693 L 449.7564 479.2742 L 449.0339 479.5935 L 448.1197 479.7 L 447.3492 479.3274 L 447.0618 478.3693 L 447.4451 477.6774 L 448.1716 477.4645 L 448.7904 477.0919 L 448.8423 476.0273 L 448.2115 475.1225 L 447.3293 475.4951 L 446.3073 476.1338 L 445.2734 476.0806 L 445.3133 475.3886 L 444.8862 475.3354 L 443.1057 475.6548 L 439.3293 475.1757 L 438.3193 475.3354 L 436.7265 476.0273 L 435.7684 476.187 L 435.2255 475.8677 L 433.7844 473.845 L 433.8123 473.366 L 433.7285 473.0999 L 433.4411 472.887 L 432.8543 472.5144 L 434.6028 470.6514 L 436.2874 469.7998 L 436.8343 469.2143 L 437.5249 470.2256 L 438.5309 470.545 L 439.457 470.1724 L 439.9201 469.2143 L 439.7006 468.7885 L 439.2016 468.0965 L 438.7225 467.1385 L 438.5708 466.0207 L 437.6127 466.3401 L 436.8263 466.4997 L 436.1357 466.553 L 435.4451 466.4997 L 434.0918 466.6062 L 433.7245 466.4997 L 433.4411 466.2336 L 433.0299 465.4352 L 432.7904 465.1158 L 430.471 463.5723 L 429.3014 462.4545 L 428.7904 461.2835 L 428.7385 460.8577 L 428.5988 460.4851 L 428.3792 460.1658 L 428.0998 459.8464 L 427.8523 459.3674 L 427.9521 458.9415 L 428.1676 458.4625 L 428.2834 458.0367 L 428.1277 457.2383 L 427.7445 456.4399 L 427.2495 455.8012 L 425.3932 453.8318 L 424.9301 453.0334 L 424.7505 452.0753 L 424.9141 451.1704 L 425.3413 450.4252 L 425.9082 449.893 L 428.4551 448.4026 L 430.7145 448.3494 L 432.9101 449.0413 L 435.7724 450.8511 L 438.3113 451.9688 L 439.3732 452.6608 L 439.6407 453.1398 L 439.8083 453.7253 L 440.1357 454.2043 L 440.8902 454.4173 Z" fill="#000000" fill-opacity="1" stroke="#000000" stroke-width="0" paint-order="fill" stroke-opacity="1" stroke-dasharray="" stroke-linecap="butt" stroke-linejoin="miter" stroke-miterlimit="10" transform="matrix(1.2000000476837158,0,0,1.2000000476837158,-79.99999237060547,-53.29999542236328)" clip-path="none"/>
<path data-code="217" d="M 481.7484 475.3886 L 481.8083 475.4418 L 481.7125 475.4418 L 481.6486 475.3886 L 481.7484 475.3886 Z M 482.463 475.3886 L 482.4829 475.5483 L 482.3033 475.3886 L 482.2873 475.2289 L 482.463 475.3886 Z M 481.2175 474.9096 L 480.8821 475.1225 L 480.467 474.9096 L 480.6067 474.3773 L 480.9859 474.1644 L 481.1257 474.3241 L 481.3213 474.5902 L 481.2175 474.9096 Z M 482.2913 473.7918 L 482.3632 473.8983 L 482.1556 473.8983 L 482.0837 473.7386 L 482.2913 473.7918 Z M 482.6187 474.537 L 482.2195 474.6434 L 482.0997 474.4838 L 482.5069 474.1644 L 482.7025 473.7918 L 482.934 473.6854 L 483.1616 473.7386 L 483.2773 474.0047 L 483.0658 474.2176 L 482.6187 474.537 Z M 495.7165 473.6321 L 494.4111 473.9515 L 493.2494 473.7918 L 492.7384 472.7273 L 492.5987 472.1418 L 492.467 471.8757 L 492.1995 471.6627 L 492.3592 471.3434 L 492.7224 470.8111 L 492.8302 470.2256 L 493.0937 469.7998 L 493.7803 469.0014 L 494.6187 468.5224 L 495.5568 468.7353 L 496.3232 469.374 L 496.7783 470.545 L 497.0697 470.7579 L 497.3612 471.0772 L 497.4929 471.6095 L 497.4729 472.0886 L 497.3572 472.4611 L 497.1097 472.7805 L 496.6745 473.1531 L 495.7165 473.6321 Z M 500.5628 461.7093 L 500.7703 461.7626 L 500.6466 461.9222 L 500.2634 461.9755 L 499.964 461.7093 L 500.5628 461.7093 Z M 500.8582 461.5496 L 500.7863 461.6561 L 500.7863 461.5496 L 500.8582 461.5496 Z M 503.2614 456.1737 L 502.1675 456.6528 L 501.2853 456.5463 L 501.7843 456.2802 L 503.2813 454.9495 L 504.2035 454.5769 L 505.1895 454.8431 L 503.2614 456.1737 Z M 482.3273 454.8963 L 482.1476 455.1092 L 482.0558 454.9495 L 482.2354 454.6834 L 482.4071 454.6302 L 482.6985 454.7898 L 482.3273 454.8963 Z M 481.6446 457.6641 L 481.8722 457.5044 L 482.3991 458.0899 L 482.5827 457.6641 L 482.95 457.3447 L 483.429 457.2383 L 483.6726 457.5044 L 483.7684 457.7173 L 483.5368 458.6222 L 483.8282 459.3674 L 482.8861 459.6335 L 482.6267 460.0593 L 482.7225 461.9222 L 483.2215 463.3061 L 483.4969 465.4884 L 483.1935 467.6175 L 481.9959 469.1079 L 480.2434 470.1724 L 478.2714 471.024 L 478.2115 470.8111 L 477.9799 470.2256 L 478.2634 469.9595 L 477.9919 469.4272 L 477.6526 469.1079 L 477.2574 468.8417 L 476.8063 468.4691 L 476.5229 467.9901 L 476.3831 467.5111 L 476.2195 467.1385 L 475.8881 466.9256 L 475.4131 465.4884 L 475.3612 462.3481 L 474.7863 460.9109 L 474.966 460.3254 L 474.7903 459.7932 L 474.4869 459.3674 L 474.2754 458.9415 L 474.2514 458.2496 L 474.3951 457.0254 L 474.2594 456.4931 L 474.6307 456.1737 L 475.2654 455.0028 L 475.8163 454.5237 L 476.5229 454.364 L 476.8821 454.5769 L 477.1336 454.8963 L 477.5169 455.1092 L 478.479 455.2689 L 479.8921 455.7479 L 481.2095 456.4399 L 481.8682 457.2383 L 481.3253 457.5044 L 481.6446 457.6641 Z M 491.2574 455.2157 L 491.8163 455.535 L 492.0757 455.2157 L 492.471 455.4286 L 492.8422 455.4818 L 493.2334 455.4286 L 493.6725 455.535 L 494.0398 455.7479 L 494.8781 456.4399 L 495.5049 456.8125 L 497.5927 458.2496 L 498.3312 458.4625 L 498.5468 458.6754 L 498.1196 459.048 L 497.8003 459.048 L 496.7224 458.7819 L 496.431 458.6754 L 495.8322 458.5157 L 489.0937 460.1125 L 487.8043 460.698 L 487.1256 460.8045 L 486.2993 460.698 L 485.5408 460.3787 L 484.8901 460.0061 L 484.3712 459.5803 L 483.976 459.1012 L 483.8083 458.6222 L 483.8203 458.0899 L 483.964 457.5044 L 484.5787 455.3753 L 484.938 454.9495 L 485.6446 454.7898 L 485.7444 454.6302 L 485.8003 454.3108 L 485.8083 453.885 L 485.7684 453.6189 L 485.6087 453.4592 L 485.3412 453.2995 L 485.0219 453.193 L 484.7185 453.0866 L 484.4949 451.6495 L 484.3113 451.3301 L 484.2913 450.9043 L 484.6187 450.372 L 485.2175 449.6801 L 485.3692 449.4139 L 485.7364 449.0946 L 486.9141 448.4559 L 487.0179 448.3494 L 487.1416 448.4026 L 488.3911 449.2543 L 489.0618 449.9462 L 489.5209 450.7446 L 489.6965 451.8091 L 489.6127 452.8737 L 489.6726 453.2995 L 489.972 453.885 L 490.3552 454.4705 L 490.7743 454.8963 L 491.2574 455.2157 Z" fill="#000000" fill-opacity="1" stroke="#000000" stroke-width="0" paint-order="fill" stroke-opacity="1" stroke-dasharray="" stroke-linecap="butt" stroke-linejoin="miter" stroke-miterlimit="10" transform="matrix(1.2000000476837158,0,0,1.2000000476837158,-79.99999237060547,-53.29999542236328)" clip-path="none"/>




















</svg>