<?xml version="1.0" standalone="no"?>
<!-- Generator: Paintmaps.com , Online SVG vector map maker -->
<svg xmlns="http://www.w3.org/2000/svg" version="1.1" baseProfile="full"   style="background-color:#e0f2f1" width="800" height="500" viewBox="0 0 800 533">

<path data-code="200" d="M 583.8463 183.0376 L 579.8551 181.1839 L 577.692 180.3169 L 574.835 178.6671 L 572.2353 177.4951 L 569.8687 176.0948 L 567.2607 174.9337 L 564.8979 173.5283 L 563.3194 172.8247 L 562.3228 172.2737 L 561.4154 171.6022 L 560.1136 170.4773 L 559.7642 168.5731 L 559.416 167.5848 L 558.1553 165.1076 L 557.4431 163.3955 L 556.9262 162.5058 L 556.202 161.6582 L 555.3527 160.9495 L 554.48 160.4541 L 553.2224 159.9326 L 552.3207 159.4717 L 551.3987 158.8389 L 550.5437 158.1219 L 549.7765 157.3492 L 549.1452 156.5176 L 548.9089 156.0677 L 548.7515 155.5824 L 548.7073 155.0591 L 548.8015 154.5477 L 548.9993 154.0961 L 549.5806 153.3453 L 550.2998 152.7589 L 551.5516 151.9644 L 552.0742 151.3485 L 552.4332 150.5042 L 553.2029 147.5729 L 553.6629 146.5593 L 554.6974 144.5818 L 555.6004 142.3877 L 556.2171 141.3749 L 557.347 139.9653 L 558.5907 138.618 L 567.6449 129.3422 L 569.3966 130.8099 L 570.3332 131.4183 L 572.435 132.3754 L 575.2805 134.0353 L 576.861 134.7321 L 577.8582 135.2789 L 578.7669 135.9471 L 581.3723 138.1942 L 582.7556 139.1573 L 584.8511 140.1389 L 587.6859 141.8485 L 589.7877 142.7778 L 592.1265 144.0526 L 593.19 144.3484 L 593.755 144.3863 L 594.869 144.2355 L 595.8302 143.8437 L 597.6154 142.9303 L 598.6202 142.6388 L 599.7968 144.1192 L 600.9431 145.9054 L 601.2793 146.85 L 601.3223 147.3614 L 601.2408 147.9133 L 601.0531 148.4256 L 600.4825 149.3676 L 598.6966 151.6863 L 598.1077 152.7564 L 597.9036 153.326 L 597.6451 154.5224 L 597.5175 155.761 L 597.2938 160.7852 L 597.0928 161.9986 L 596.7238 163.1166 L 595.4643 165.5989 L 594.7856 167.2259 L 594.258 168.2597 L 593.2987 169.6702 L 591.2045 172.4203 L 589.5861 173.6446 L 588.2869 174.8023 L 587.0679 176.0602 L 585.9841 177.4193 L 585.6758 177.9038 L 585.2163 178.8508 L 583.8463 183.0376 Z" fill="#000000" fill-opacity="1" stroke="#000000" stroke-width="0" paint-order="fill" stroke-opacity="1" stroke-dasharray="" stroke-linecap="butt" stroke-linejoin="miter" stroke-miterlimit="10" transform="matrix(1.100000023841858,0,0,1.100000023841858,-40.000022888183594,-26.6500186920166)" clip-path="none" style="filter: url(#f1)"/>
<path data-code="201" d="M 349.6265 329.0012 L 346.671 329.9061 L 343.1726 331.6418 L 342.0598 331.9586 L 339.7766 332.406 L 338.6575 332.7709 L 337.6748 333.3261 L 336.349 334.4156 L 335.1616 335.6786 L 334.4596 336.5911 L 333.8675 337.5643 L 332.644 340.2133 L 332.0102 341.1578 L 329.8724 343.8743 L 329.2291 344.8154 L 328.6958 345.8442 L 327.9994 347.4729 L 326.2565 350.4093 L 324.7146 353.4535 L 321.9531 351.4035 L 320.8282 350.6856 L 318.7441 349.699 L 316.442 348.4545 L 315.8278 348.1958 L 314.5456 347.8605 L 312.538 347.6456 L 310.4842 347.5917 L 294.729 347.692 L 295.7394 345.5881 L 296.7297 342.7596 L 298.1553 339.7533 L 298.4251 338.5728 L 298.4864 336.7495 L 298.3114 335.548 L 297.9404 334.44 L 296.6507 332.0016 L 295.711 329.8505 L 294.3947 327.3919 L 293.9795 326.2426 L 293.7286 324.9476 L 293.601 323.6163 L 293.5498 321.5933 L 293.6421 319.5787 L 293.9776 317.6198 L 294.4263 316.4671 L 295.3287 315.0154 L 297.4678 312.1911 L 298.7695 311.908 L 301.72 311.5153 L 302.8764 311.2752 L 303.9425 310.8876 L 306.3843 309.687 L 307.4946 309.3592 L 310.3496 308.7466 L 311.4087 308.3372 L 313.8063 307.0143 L 315.3842 306.3091 L 316.4262 305.7286 L 317.4171 304.993 L 320.2785 302.5782 L 321.2908 301.9024 L 323.835 300.5838 L 326.06 298.8161 L 327.2101 299.0293 L 328.3324 299.3478 L 329.3308 299.8103 L 331.2481 300.8577 L 333.3594 301.7954 L 334.3048 302.4114 L 335.1876 303.1444 L 336.411 304.3804 L 337.1516 305.2719 L 338.0793 306.7177 L 338.9842 308.9 L 340.5482 311.8667 L 341.4139 314.0658 L 342.9957 317.0241 L 343.8684 319.2198 L 345.4532 322.1747 L 346.3607 324.3553 L 347.2435 325.8062 L 349.6265 329.0012 Z" fill="#000000" fill-opacity="1" stroke="#000000" stroke-width="0" paint-order="fill" stroke-opacity="1" stroke-dasharray="" stroke-linecap="butt" stroke-linejoin="miter" stroke-miterlimit="10" transform="matrix(1.100000023841858,0,0,1.100000023841858,-40.000022888183594,-26.6500186920166)" clip-path="none" style="filter: url(#f1)"/>
<path data-code="202" d="M 526.0426 370.995 L 521.5552 371.0312 L 518.9561 371.2966 L 517.7264 371.621 L 514.7652 372.9615 L 512.8214 373.3912 L 510.779 373.5319 L 507.0689 373.4839 L 507.4013 370.9301 L 507.5138 368.8936 L 507.6269 356.5752 L 507.5309 353.2015 L 507.3716 351.8897 L 507.0582 350.6266 L 506.6146 349.5878 L 505.606 347.6136 L 504.7188 345.4314 L 503.1421 342.4756 L 502.1999 340.3111 L 501.168 338.7489 L 499.9079 337.3385 L 498.4981 336.0974 L 497.4725 335.4199 L 495.3726 334.4543 L 492.4872 332.8652 L 490.3475 331.9881 L 487.9525 330.667 L 485.4437 329.457 L 484.1754 328.4013 L 483.5024 327.5023 L 483.0076 326.3716 L 482.6834 324.3999 L 482.6266 321.6574 L 482.909 307.6378 L 482.7353 305.6283 L 482.3612 304.3501 L 482.0926 303.8387 L 481.3968 302.9447 L 480.5241 302.2412 L 480.0249 301.9783 L 478.8931 301.664 L 477.7437 301.5991 L 476.064 301.8241 L 473.3094 302.8267 L 472.8494 302.8781 L 471.9255 302.7307 L 468.0385 301.1071 L 465.1329 299.5871 L 463.2422 299.1514 L 459.9719 298.865 L 458.6948 298.6628 L 458.078 298.49 L 457.0846 298.0637 L 454.4236 296.5976 L 454.028 296.301 L 453.6798 295.8983 L 453.4378 295.3961 L 453.3221 294.8552 L 453.3221 294.2991 L 453.4321 293.7413 L 453.8877 292.8001 L 454.9222 291.5633 L 456.1974 290.4207 L 457.2243 289.659 L 459.2894 288.3472 L 460.2904 288.4162 L 461.2686 288.3918 L 462.233 288.2444 L 463.2118 287.9065 L 465.5974 286.6005 L 467.7194 285.7057 L 470.0815 284.2893 L 472.6699 283.0954 L 473.6304 282.4744 L 474.9739 281.3361 L 476.2593 280.079 L 493.5317 262.1617 L 495.6607 260.041 L 496.5454 259.2616 L 497.4731 258.5732 L 498.3786 258.0744 L 500.0608 257.3473 L 502.8931 255.6773 L 505.0423 254.7665 L 507.0045 253.6947 L 507.9656 253.2574 L 508.5849 253.0645 L 509.8873 252.8244 L 511.239 252.7098 L 513.313 252.6584 L 525.2438 252.7679 L 527.326 252.6769 L 528.6859 252.5109 L 529.9921 252.1798 L 532.9224 250.8216 L 535.6359 249.9824 L 536.0441 249.7692 L 536.3569 249.4945 L 536.525 249.2207 L 536.6463 248.6595 L 539.5203 247.9273 L 542.8929 247.4521 L 544.1979 247.1884 L 545.3347 246.7924 L 547.2943 245.8571 L 548.4103 245.4729 L 549.671 245.2252 L 552.8926 244.8359 L 554.1495 244.5823 L 555.2604 244.1922 L 557.2124 243.2435 L 558.3486 242.8458 L 559.6517 242.5955 L 561.6726 242.4228 L 564.4107 242.3773 L 566.4575 242.4464 L 567.8004 242.5762 L 569.1053 242.8298 L 570.2453 243.2393 L 572.6808 244.4728 L 575.4581 245.4232 L 577.7887 246.4554 L 577.5612 248.4826 L 577.2825 252.5665 L 577.0999 253.8691 L 576.5899 255.6099 L 575.4474 258.1604 L 575.0246 260.0393 L 574.8489 262.0101 L 574.7914 264.0162 L 574.9146 268.021 L 575.0859 269.3185 L 575.3993 270.5647 L 576.758 273.6131 L 577.9226 278.2473 L 579.2503 281.3092 L 579.6573 283.2496 L 579.9972 286.5921 L 580.2304 287.8998 L 580.6045 289.0583 L 581.5385 291.0813 L 581.9322 292.1741 L 582.7569 295.7154 L 582.3935 299.1809 L 582.2785 302.8967 L 582.2874 339.4011 L 582.1212 343.0536 L 581.687 345.1407 L 579.2914 350.3225 L 578.6026 351.4953 L 575.8215 355.6619 L 572.2485 355.5869 L 569.8017 355.6686 L 568.026 355.9483 L 566.9416 356.3334 L 564.5371 357.6208 L 562.4486 358.5999 L 560.9484 359.6885 L 560.0302 360.553 L 558.7607 361.971 L 558.0061 362.9838 L 557.141 364.465 L 553.2894 367.3163 L 552.1557 368.0316 L 550.0641 369.0099 L 547.7575 370.2451 L 547.1427 370.5021 L 545.8598 370.8349 L 543.8522 371.0447 L 541.7984 371.0944 L 526.0426 370.995 Z" fill="#000000" fill-opacity="1" stroke="#000000" stroke-width="0" paint-order="fill" stroke-opacity="1" stroke-dasharray="" stroke-linecap="butt" stroke-linejoin="miter" stroke-miterlimit="10" transform="matrix(1.100000023841858,0,0,1.100000023841858,-40.000022888183594,-26.6500186920166)" clip-path="none" style="filter: url(#f1)"/>
<path data-code="203" d="M 458.1918 126.662 L 457.4758 126.9055 L 456.775 127.4118 L 456.5279 127.8171 L 456.3396 128.7751 L 456.5102 129.7508 L 457.5984 132.003 L 457.951 132.9492 L 456.1601 133.9266 L 453.4517 134.9815 L 451.0472 136.2201 L 449.9717 136.5782 L 448.2256 136.756 L 447.0604 136.6607 L 445.933 136.3844 L 443.0129 135.0169 L 441.7572 134.6799 L 439.7648 134.4465 L 434.3093 134.2839 L 432.3143 134.069 L 431.0479 133.7463 L 428.5904 132.6021 L 427.5256 132.2305 L 425.772 131.9297 L 423.3561 131.7705 L 423.9312 129.4467 L 425.0712 126.9139 L 425.4434 125.7562 L 425.6696 124.4494 L 426.0007 121.1069 L 426.4355 119.1605 L 426.9 118.1217 L 428.0191 116.1399 L 429.5711 113.0477 L 430.3301 112.3206 L 431.132 111.7333 L 433.1434 110.7163 L 434.0616 110.0995 L 437.1037 107.4867 L 438.0225 106.8219 L 438.9369 106.3425 L 442.1332 105.152 L 444.2059 104.6102 L 446.5972 106.9306 L 452.5765 113.0536 L 454.0805 114.7202 L 455.0593 116.0523 L 455.532 116.9631 L 456.2328 118.7401 L 457.261 120.7766 L 457.673 121.7734 L 457.8329 122.3446 L 458.0332 123.5385 L 458.1918 126.662 Z" fill="#000000" fill-opacity="1" stroke="#000000" stroke-width="0" paint-order="fill" stroke-opacity="1" stroke-dasharray="" stroke-linecap="butt" stroke-linejoin="miter" stroke-miterlimit="10" transform="matrix(1.100000023841858,0,0,1.100000023841858,-40.000022888183594,-26.6500186920166)" clip-path="none" style="filter: url(#f1)"/>
<path data-code="204" d="M 196.7396 275.5451 L 199.7767 275.6808 L 201.5309 276.0431 L 202.5534 276.4795 L 204.4725 277.4805 L 206.5206 278.4343 L 207.4028 279.1008 L 208.1504 279.9299 L 208.7166 280.919 L 208.9112 281.4996 L 209.0325 282.0936 L 209.1039 283.3002 L 208.9877 284.5033 L 208.6818 285.6669 L 207.229 288.6395 L 207.023 289.2613 L 206.7506 290.569 L 206.6002 292.5996 L 206.6584 293.9545 L 206.8884 295.2807 L 207.339 296.4451 L 207.938 297.3997 L 208.6926 298.3198 L 210.3887 299.9123 L 211.7928 300.8501 L 213.3663 301.5511 L 214.3894 302.0988 L 215.3575 302.8015 L 216.737 304.0215 L 225.5252 313.069 L 226.7821 314.4576 L 227.9259 315.9009 L 228.5572 316.9246 L 229.8015 319.5602 L 230.441 320.498 L 232.5845 323.2085 L 233.5046 324.6443 L 234.4411 326.8114 L 236.062 329.7469 L 236.9461 331.9308 L 237.9786 333.8974 L 238.4298 334.9354 L 238.718 336.1277 L 238.8526 337.3663 L 238.888 344.2636 L 239.0308 345.4128 L 239.3702 346.4627 L 239.6558 346.9219 L 240.4299 347.6027 L 243.5093 349.5296 L 245.8961 350.8289 L 246.6809 351.5231 L 247.7381 352.648 L 244.2158 354.6651 L 241.6154 355.8413 L 239.2981 357.0656 L 238.0406 357.518 L 236.7059 357.7615 L 233.2442 357.9292 L 211.3302 357.8483 L 207.7737 357.7893 L 204.7089 357.5972 L 202.1919 357.7986 L 199.3084 357.8888 L 197.0278 357.8407 L 195.3608 357.6461 L 194.296 357.3546 L 193.7847 357.1347 L 191.4087 355.7992 L 189.317 354.8378 L 187.8851 353.8208 L 186.1201 352.1719 L 181.828 347.7408 L 179.3098 345.0488 L 178.1527 343.6577 L 177.196 342.1748 L 176.2437 340.0229 L 175.6149 339.0034 L 174.4673 337.5676 L 171.1219 333.8873 L 170.0369 332.4128 L 169.5395 331.4523 L 168.6232 329.1959 L 166.7989 325.497 L 163.5786 324.6915 L 160.6932 324.18 L 159.569 323.8228 L 158.1136 322.9878 L 154.7404 320.3927 L 154.9022 319.6032 L 155.1663 318.8533 L 156.3841 316.4402 L 157.2561 314.2529 L 157.8482 313.2729 L 158.9491 311.9265 L 160.1939 310.7073 L 161.5494 309.6684 L 162.448 309.1856 L 164.134 308.4517 L 165.0781 307.8569 L 165.9736 307.1416 L 168.0975 305.1093 L 173.4682 299.5062 L 175.6117 297.5236 L 177.0013 296.574 L 178.6804 295.8275 L 179.5746 295.3422 L 180.9319 294.3067 L 182.2242 293.117 L 185.5589 289.7163 L 187.5217 287.5139 L 188.5271 286.1135 L 188.9991 285.1909 L 189.7265 283.4577 L 190.3123 282.4879 L 191.7803 280.6857 L 194.2479 278.1141 L 196.7396 275.5451 Z" fill="#000000" fill-opacity="1" stroke="#000000" stroke-width="0" paint-order="fill" stroke-opacity="1" stroke-dasharray="" stroke-linecap="butt" stroke-linejoin="miter" stroke-miterlimit="10" transform="matrix(1.100000023841858,0,0,1.100000023841858,-40.000022888183594,-26.6500186920166)" clip-path="none" style="filter: url(#f1)"/>
<path data-code="205" d="M 598.6202 142.6388 L 601.2465 140.9402 L 602.6576 140.2046 L 603.7837 139.8406 L 606.0763 139.3039 L 609.8742 139.6847 L 611.6366 140.0226 L 612.7071 140.4321 L 615.0952 141.7659 L 617.2001 142.6944 L 619.5844 144.0366 L 620.6353 144.4571 L 623.4828 145.0974 L 624.5931 145.426 L 627.0418 146.6031 L 628.111 146.9713 L 629.2687 147.1861 L 632.8233 147.5527 L 633.9791 147.8088 L 634.5377 148.0102 L 635.0862 148.2832 L 636.1062 148.9657 L 639.4592 151.6931 L 640.4924 152.2803 L 642.5417 153.2501 L 645.2603 154.8797 L 644.5683 160.6117 L 644.3238 161.9741 L 643.908 163.2658 L 643.1161 165.1001 L 642.7281 166.3479 L 642.2163 170.1487 L 641.9509 171.3317 L 641.7341 171.8844 L 641.4308 172.395 L 640.6807 173.1306 L 638.2452 174.6894 L 637.0541 175.2497 L 635.0768 175.6659 L 633.0141 175.7763 L 611.2031 175.7165 L 608.4258 175.6305 L 607.0672 175.4999 L 605.7496 175.2505 L 604.511 174.8124 L 602.1558 173.7212 L 600.9299 173.396 L 598.9981 173.1508 L 594.3458 172.8576 L 591.2045 172.4203 L 593.2987 169.6702 L 594.258 168.2597 L 594.7856 167.2259 L 595.4643 165.5989 L 596.7238 163.1166 L 597.0928 161.9986 L 597.2938 160.7852 L 597.5175 155.761 L 597.6451 154.5224 L 597.9036 153.326 L 598.1077 152.7564 L 598.6966 151.6863 L 600.4825 149.3676 L 601.0531 148.4256 L 601.2408 147.9133 L 601.3223 147.3614 L 601.2793 146.85 L 600.9431 145.9054 L 599.7968 144.1192 L 598.6202 142.6388 Z" fill="#000000" fill-opacity="1" stroke="#000000" stroke-width="0" paint-order="fill" stroke-opacity="1" stroke-dasharray="" stroke-linecap="butt" stroke-linejoin="miter" stroke-miterlimit="10" transform="matrix(1.100000023841858,0,0,1.100000023841858,-40.000022888183594,-26.6500186920166)" clip-path="none" style="filter: url(#f1)"/>
<path data-code="206" d="M 318.3587 442.8073 L 318.9179 440.4734 L 320.0914 437.949 L 320.4801 436.8604 L 321.0911 433.9123 L 321.4153 432.7605 L 322.7872 429.7129 L 323.1076 428.562 L 323.5759 426.1985 L 323.9114 425.0468 L 325.4129 422.0514 L 326.3026 419.8641 L 327.8041 416.8688 L 328.1397 415.717 L 328.6086 413.3535 L 328.9289 412.2026 L 330.093 409.6749 L 330.4797 408.5854 L 331.0895 405.6364 L 331.413 404.4846 L 332.5783 401.9569 L 332.9619 400.8683 L 333.5736 397.9227 L 333.9092 396.7709 L 335.4106 393.7756 L 336.3004 391.5882 L 337.8018 388.5929 L 338.1374 387.442 L 338.7491 384.4963 L 339.1321 383.4077 L 340.298 380.8792 L 340.8541 378.5444 L 342.559 378.9354 L 343.6143 379.3415 L 346.0194 380.6466 L 348.1307 381.5777 L 350.9776 383.2434 L 353.0882 384.177 L 355.9887 385.7197 L 357.1016 386.0686 L 359.379 386.5707 L 360.4824 386.9078 L 362.9178 388.0992 L 364.0243 388.4901 L 365.8993 388.7918 L 367.8374 388.8912 L 381.0017 388.9796 L 382.9386 388.9156 L 384.8243 388.6089 L 385.9921 388.1211 L 387.4967 387.0072 L 388.3833 386.1157 L 389.1757 385.135 L 389.8374 384.0641 L 390.2867 382.9106 L 390.9458 379.3769 L 391.3072 378.2815 L 393.0558 375.0039 L 393.7383 374.1892 L 394.2242 373.8656 L 394.7582 373.6364 L 395.9133 373.3761 L 397.7737 373.2623 L 400.347 373.3862 L 402.244 373.7308 L 403.3644 374.1588 L 405.762 375.496 L 407.8688 376.4329 L 410.7087 378.1004 L 412.7884 379.1098 L 413.8304 379.8251 L 414.8105 380.666 L 418.5566 384.3346 L 419.5626 385.1375 L 420.6717 385.7695 L 421.8793 386.1368 L 423.1311 386.3095 L 429.5743 386.4165 L 431.4656 386.6103 L 432.6682 386.9179 L 435.1163 388.0983 L 436.1634 388.4977 L 440.1736 389.4001 L 443.9955 390.7052 L 443.1481 393.5051 L 442.8574 395.5104 L 442.7279 399.575 L 442.8246 401.5854 L 442.9977 402.8947 L 443.5367 404.681 L 444.8044 407.1556 L 445.7106 409.3269 L 447.2114 412.3163 L 448.402 416.9488 L 449.7574 419.9964 L 450.0702 421.2897 L 450.2162 422.6303 L 450.2124 424.6668 L 449.9262 426.662 L 449.5344 427.8272 L 448.3293 430.3381 L 447.2879 433.7851 L 446.5068 435.9252 L 445.8186 435.937 L 445.3365 436.0263 L 444.4284 436.4282 L 443.1228 437.3955 L 441.0463 439.4219 L 439.8659 440.7422 L 438.8011 442.1299 L 438.2216 443.114 L 437.3066 445.2963 L 436.3915 446.7446 L 435.661 447.6538 L 434.4761 448.9673 L 433.2331 450.232 L 431.9434 451.4226 L 430.579 452.4564 L 429.6817 452.9418 L 428.0014 453.695 L 427.0643 454.3025 L 425.7454 455.4147 L 422.3766 458.6948 L 421.0584 459.8079 L 420.1225 460.4162 L 418.0327 461.3809 L 416.6425 462.3331 L 415.342 463.4907 L 414.0832 464.7394 L 408.3093 470.7824 L 406.5708 472.3327 L 405.6305 472.9655 L 404.6415 473.3977 L 401.681 474.0557 L 400.7685 474.4063 L 399.9823 474.9514 L 399.212 475.7864 L 396.0322 476.1622 L 393.1265 476.2961 L 377.0926 476.2439 L 373.5007 476.3636 L 372.1048 476.5405 L 370.7658 476.88 L 368.3948 477.9661 L 367.1701 478.4127 L 363.2496 479.1584 L 361.3532 479.7001 L 357.9098 476.0889 L 356.4671 474.8351 L 355.4333 474.1459 L 353.3384 473.1719 L 350.4354 471.646 L 349.3187 471.3039 L 347.0387 470.8093 L 345.9367 470.4672 L 343.5088 469.2539 L 342.4339 468.8664 L 341.2642 468.6448 L 340.0654 468.5512 L 338.26 468.5959 L 336.5007 468.8908 L 335.434 469.2809 L 332.9992 470.4757 L 331.7897 470.7992 L 329.8825 471.0191 L 325.9949 471.207 L 324.1067 471.4918 L 322.9939 471.8743 L 320.5502 473.0607 L 316.061 474.2504 L 313.6198 475.4645 L 312.5531 475.8639 L 311.3936 476.1302 L 307.0927 476.8565 L 307.8864 474.7677 L 308.9145 471.3317 L 310.0975 468.8082 L 310.4716 467.6581 L 310.7503 465.7092 L 311.0138 460.3673 L 311.4119 458.4505 L 311.8536 457.4108 L 312.8723 455.4358 L 313.7886 453.2628 L 315.4145 450.3289 L 316.3201 448.1475 L 317.5839 445.6603 L 317.9783 444.57 L 318.3587 442.8073 Z" fill="#000000" fill-opacity="1" stroke="#000000" stroke-width="0" paint-order="fill" stroke-opacity="1" stroke-dasharray="" stroke-linecap="butt" stroke-linejoin="miter" stroke-miterlimit="10" transform="matrix(1.100000023841858,0,0,1.100000023841858,-40.000022888183594,-26.6500186920166)" clip-path="none" style="filter: url(#f1)"/>
<path data-code="207" d="M 457.951 132.9492 L 458.207 136.381 L 458.1893 138.3729 L 458.0325 139.6477 L 457.8828 140.2509 L 457.3671 141.3336 L 456.6657 142.0448 L 454.883 143.3575 L 452.0103 145.6788 L 450.4892 146.6806 L 448.4569 147.6976 L 447.5779 148.3497 L 446.8038 149.1401 L 446.1611 150.0433 L 444.9289 152.6266 L 443.8344 154.5696 L 442.6956 157.2591 L 441.6827 159.2358 L 441.2353 160.2746 L 440.8207 162.2058 L 440.6634 164.9029 L 440.6419 182.1571 L 440.7619 185.5535 L 440.9294 186.8687 L 441.2454 188.1267 L 442.5895 191.165 L 443.0021 193.0835 L 443.1708 196.4732 L 443.0817 205.4348 L 443.2814 207.4376 L 443.6334 208.7242 L 444.2356 209.8852 L 445.4218 211.4448 L 447.236 213.3651 L 449.19 215.1227 L 450.7786 216.1944 L 452.8994 217.1322 L 455.2849 218.4609 L 457.8404 219.6473 L 459.1656 220.6718 L 459.8961 221.5237 L 460.2013 221.9947 L 461.6826 225.4686 L 461.9189 226.4317 L 461.9221 226.9389 L 461.8039 227.4798 L 461.3047 228.4496 L 459.4999 230.6513 L 458.8559 231.6194 L 458.6177 232.1637 L 458.4231 233.3146 L 458.4641 233.901 L 458.6044 234.4774 L 459.1176 235.4463 L 459.843 236.2367 L 460.7024 236.8559 L 463.1322 238.0659 L 464.3588 239.1486 L 465.0261 240.0375 L 466.0422 242.1355 L 467.3743 244.5933 L 467.7781 245.7181 L 468.065 247.5381 L 468.1017 248.7446 L 468.0164 249.9099 L 467.7516 250.9985 L 467.5153 251.4948 L 467.181 251.9363 L 466.7607 252.275 L 465.8154 252.6786 L 463.22 253.313 L 460.3214 254.78 L 458.188 255.7253 L 456.7763 256.696 L 454.3566 258.7914 L 452.8122 259.8952 L 450.7173 260.8785 L 448.3034 262.1761 L 447.2202 262.5552 L 446.0468 262.7667 L 442.4467 263.0759 L 440.7177 263.4702 L 439.7325 263.9387 L 437.2143 265.4882 L 436.6196 266.0392 L 436.4534 266.3577 L 436.3302 266.8532 L 430.8223 268.6099 L 429.8428 269.1542 L 428.9215 269.7971 L 426.2908 271.8943 L 425.4813 266.8801 L 425.116 265.7098 L 424.8462 265.1588 L 423.7966 263.6565 L 420.4473 259.9955 L 419.2865 258.5698 L 418.6457 257.5537 L 417.3901 254.9232 L 416.7493 253.9871 L 414.5963 251.2766 L 413.9543 250.3337 L 413.4266 249.2999 L 412.753 247.6661 L 411.1542 244.7171 L 410.2866 242.5197 L 408.7004 239.564 L 407.8366 237.3657 L 406.2586 234.41 L 405.3531 232.2252 L 404.3692 230.69 L 403.1755 229.2635 L 401.8895 227.8944 L 400.5523 226.585 L 399.1476 225.4003 L 398.1441 224.7533 L 396.0322 223.8129 L 393.1746 222.1817 L 391.0431 221.3004 L 388.1729 219.6877 L 386.5817 219.0229 L 385.5655 218.4896 L 384.6423 217.8248 L 383.3588 216.6612 L 382.2157 215.3493 L 381.5837 214.3728 L 381.1338 213.2463 L 380.9954 212.6396 L 380.8469 211.4019 L 380.8368 209.5221 L 381.0504 207.6659 L 381.3796 206.4813 L 381.6071 205.9572 L 382.967 203.5238 L 383.9029 201.3652 L 385.2546 198.9276 L 385.6628 197.8188 L 385.9548 195.9845 L 385.994 194.1064 L 385.8107 192.2477 L 385.5017 191.0588 L 385.0303 190.0275 L 383.9712 188.0753 L 383.082 185.8922 L 381.7228 183.4479 L 380.5569 180.771 L 379.9249 179.7347 L 378.7641 178.2888 L 376.5789 176.0451 L 374.2951 174.0549 L 372.1282 172.5956 L 371.7762 172.2156 L 371.5083 171.7513 L 371.3307 171.2399 L 371.1873 170.1412 L 371.2681 169.0054 L 371.3863 168.4425 L 371.7731 167.4095 L 372.7557 165.5643 L 373.0672 164.4993 L 373.0786 163.3307 L 372.956 162.7459 L 372.4631 161.6666 L 371.3762 160.2342 L 368.4061 157.0821 L 367.2396 155.6582 L 366.602 154.6421 L 365.6358 152.4952 L 365.347 151.9837 L 364.2929 150.5337 L 362.667 148.7061 L 358.4002 144.2102 L 357.245 142.8461 L 355.6058 140.668 L 355.5546 140.0159 L 355.3056 139.0292 L 354.1688 136.6447 L 353.5261 135.0211 L 352.9801 133.9536 L 352.2762 132.9568 L 351.4812 132.0089 L 347.701 127.85 L 346.9635 126.8709 L 346.1155 125.42 L 350.9384 122.1534 L 353.5242 120.9123 L 356.3692 119.2364 L 358.4665 118.2834 L 360.8426 116.9715 L 361.3544 116.7609 L 362.5001 116.4803 L 364.2676 116.4171 L 365.4335 116.5974 L 366.5097 116.98 L 368.8795 118.3045 L 370.9667 119.2785 L 373.7902 120.9915 L 375.8863 121.9469 L 378.2844 123.2521 L 379.3935 123.6498 L 380.6295 123.8764 L 381.8997 123.9826 L 387.0739 124.0677 L 389.601 124.3095 L 391.3022 124.8294 L 393.7452 125.9989 L 395.5607 126.4109 L 397.4679 126.5592 L 402.639 126.6763 L 404.5284 126.8827 L 405.7297 127.1911 L 408.1841 128.3513 L 409.2426 128.7313 L 410.3934 128.9714 L 413.9397 129.4028 L 415.0917 129.6404 L 416.1528 130.0179 L 418.1029 130.9675 L 419.1734 131.3382 L 420.9339 131.6272 L 423.3561 131.7705 L 425.772 131.9297 L 427.5256 132.2305 L 428.5904 132.6021 L 431.0479 133.7463 L 432.3143 134.069 L 434.3093 134.2839 L 439.7648 134.4465 L 441.7572 134.6799 L 443.0129 135.0169 L 445.933 136.3844 L 447.0604 136.6607 L 448.2256 136.756 L 449.9717 136.5782 L 451.0472 136.2201 L 453.4517 134.9815 L 456.1601 133.9266 L 457.951 132.9492 Z" fill="#000000" fill-opacity="1" stroke="#000000" stroke-width="0" paint-order="fill" stroke-opacity="1" stroke-dasharray="" stroke-linecap="butt" stroke-linejoin="miter" stroke-miterlimit="10" transform="matrix(1.100000023841858,0,0,1.100000023841858,-40.000022888183594,-26.6500186920166)" clip-path="none" style="filter: url(#f1)"/>
<path data-code="208" d="M 577.7887 246.4554 L 575.4581 245.4232 L 572.6808 244.4728 L 570.2453 243.2393 L 569.1053 242.8298 L 567.8004 242.5762 L 566.4575 242.4464 L 564.4107 242.3773 L 561.6726 242.4228 L 559.6517 242.5955 L 558.3486 242.8458 L 557.2124 243.2435 L 555.2604 244.1922 L 554.1495 244.5823 L 552.8926 244.8359 L 549.671 245.2252 L 548.4103 245.4729 L 547.2943 245.8571 L 545.3347 246.7924 L 544.1979 247.1884 L 542.8929 247.4521 L 539.5203 247.9273 L 536.6463 248.6595 L 535.4659 244.2369 L 534.9572 238.6776 L 534.6753 237.4912 L 534.2336 236.4557 L 532.6336 233.73 L 531.9309 232.9641 L 531.4803 232.6894 L 530.4812 232.3693 L 527.1712 232.0524 L 526.0571 231.8258 L 525.5143 231.6236 L 524.5797 231.0388 L 523.7992 230.2493 L 523.4769 229.7893 L 523.209 229.288 L 522.8513 228.1412 L 522.6845 226.9498 L 522.4678 223.9065 L 522.1183 222.1253 L 521.6955 221.0813 L 520.7015 219.0878 L 519.8029 216.9055 L 518.1751 213.9751 L 517.2607 211.8063 L 515.9962 209.33 L 515.605 208.1773 L 515.3788 206.8832 L 515.2461 204.8795 L 515.3301 194.5968 L 515.1962 191.2164 L 515.0148 189.9104 L 514.6843 188.6701 L 513.5089 186.198 L 513.1405 185.1069 L 512.9288 183.3105 L 513.0116 182.0964 L 513.3136 180.9058 L 513.5879 180.3034 L 514.7102 178.6874 L 516.0613 177.2145 L 517.5109 175.7973 L 520.5966 173.1036 L 522.936 170.3392 L 530.5008 162.2724 L 531.7773 161.1678 L 532.2367 160.8855 L 532.7309 160.6774 L 533.1581 160.5822 L 534.0042 160.6083 L 534.4068 160.7355 L 534.779 160.947 L 535.325 161.5461 L 537.1405 164.9214 L 537.5437 165.8761 L 538.1642 167.6758 L 539.6865 170.6745 L 540.5845 172.8163 L 541.2171 173.7347 L 542.0076 174.52 L 542.9397 175.1309 L 543.4206 175.3356 L 544.414 175.6145 L 546.9101 176.1546 L 547.8637 176.5312 L 549.2514 177.2744 L 550.2296 177.6763 L 550.6764 177.774 L 551.5902 177.8128 L 552.502 177.6333 L 553.4897 177.1421 L 554.8035 176.0855 L 556.4446 174.4256 L 560.1136 170.4773 L 561.4154 171.6022 L 562.3228 172.2737 L 563.3194 172.8247 L 564.8979 173.5283 L 567.2607 174.9337 L 569.8687 176.0948 L 572.2353 177.4951 L 574.835 178.6671 L 577.692 180.3169 L 579.8551 181.1839 L 583.8463 183.0376 L 581.0184 187.7121 L 580.5186 188.735 L 580.1565 189.8877 L 579.637 192.2376 L 579.2901 193.3666 L 578.0806 195.8387 L 577.697 196.9417 L 577.4619 198.7431 L 577.5315 199.9539 L 577.6515 200.5521 L 578.1078 201.6601 L 578.4275 202.137 L 579.213 202.9551 L 580.1723 203.5693 L 580.7372 203.7859 L 581.9025 204.0201 L 583.694 204.0757 L 585.4893 203.8996 L 587.2151 203.448 L 589.6506 202.2162 L 590.7495 201.8134 L 592.6308 201.4941 L 596.5228 201.248 L 598.4236 201.0029 L 599.6123 200.6692 L 601.4961 199.7373 L 602.4718 199.343 L 603.6004 199.1795 L 604.7543 199.3329 L 605.323 199.5494 L 606.3506 200.1755 L 607.2548 200.9582 L 608.0346 201.8446 L 608.6381 202.8338 L 608.8359 203.3823 L 608.9257 203.9738 L 608.7633 205.0143 L 608.3702 205.9226 L 607.1329 208.1184 L 606.379 208.8792 L 603.6529 210.4607 L 602.1558 211.1651 L 600.9153 211.4524 L 598.988 211.5872 L 595.1123 211.6117 L 593.8611 211.7532 L 592.6579 212.1214 L 591.7113 212.7239 L 590.9328 213.5319 L 590.6143 214.0012 L 590.1523 215.0873 L 589.8901 216.8862 L 589.885 219.3633 L 588.2426 219.7459 L 587.2354 220.2194 L 586.3715 220.8926 L 585.641 221.7183 L 585.0647 222.6932 L 584.137 224.7676 L 583.0577 226.7215 L 582.1218 228.8566 L 581.56 229.9233 L 580.8491 230.936 L 578.9084 233.377 L 578.2361 234.4277 L 577.965 234.9964 L 577.7627 235.5778 L 577.5087 236.786 L 577.3394 239.2884 L 577.4089 242.4835 L 577.7887 246.4554 Z" fill="#000000" fill-opacity="1" stroke="#000000" stroke-width="0" paint-order="fill" stroke-opacity="1" stroke-dasharray="" stroke-linecap="butt" stroke-linejoin="miter" stroke-miterlimit="10" transform="matrix(1.100000023841858,0,0,1.100000023841858,-40.000022888183594,-26.6500186920166)" clip-path="none" style="filter: url(#f1)"/>
<path data-code="209" d="M 324.7146 353.4535 L 326.2565 350.4093 L 327.9994 347.4729 L 328.6958 345.8442 L 329.2291 344.8154 L 329.8724 343.8743 L 332.0102 341.1578 L 332.644 340.2133 L 333.8675 337.5643 L 334.4596 336.5911 L 335.1616 335.6786 L 336.349 334.4156 L 337.6748 333.3261 L 338.6575 332.7709 L 339.7766 332.406 L 342.0598 331.9586 L 343.1726 331.6418 L 346.671 329.9061 L 349.6265 329.0012 L 350.333 328.9675 L 351.2853 328.7375 L 353.6095 327.6304 L 355.7284 326.7937 L 356.6877 326.2721 L 359.3335 324.6072 L 360.1077 323.9037 L 360.4066 323.4167 L 360.6157 322.8808 L 360.8508 321.7189 L 360.9488 319.8391 L 360.8521 314.525 L 360.9058 311.8717 L 361.1743 309.949 L 361.5586 308.8039 L 362.8262 306.3318 L 363.776 304.1749 L 364.8427 302.5891 L 366.5653 300.6318 L 369.7837 297.2894 L 373.0306 293.9882 L 374.4638 292.6738 L 376.0032 291.5784 L 378.1012 290.6137 L 380.014 289.5706 L 381.0213 289.1181 L 382.7496 288.7288 L 386.3207 288.3935 L 387.4822 288.1778 L 388.5526 287.8062 L 391.002 286.6249 L 392.1136 286.298 L 394.4018 285.822 L 395.5184 285.4799 L 398.4215 283.9355 L 400.5372 283.012 L 403.3865 281.3429 L 405.5035 280.4219 L 407.908 279.1117 L 408.9652 278.7073 L 410.6746 278.3281 L 412.3877 277.9574 L 413.4443 277.5504 L 415.8399 276.2217 L 417.9569 275.305 L 420.3266 273.9105 L 421.3548 273.437 L 424.4506 272.3476 L 426.2908 271.8943 L 428.9215 269.7971 L 429.8428 269.1542 L 430.8223 268.6099 L 436.3302 266.8532 L 437.3622 270.2319 L 437.5353 271.3196 L 437.5366 271.9044 L 437.4753 272.4832 L 437.1732 273.5533 L 436.2468 275.4659 L 435.8683 276.5352 L 435.6654 277.7122 L 435.6389 278.9154 L 435.8158 280.1102 L 436.0073 280.6907 L 436.5685 281.6833 L 437.3129 282.5166 L 438.1938 283.1864 L 438.7 283.4636 L 440.2393 284.1469 L 442.6533 285.3948 L 443.7788 285.7739 L 445.0249 285.9812 L 446.3002 286.0688 L 451.487 286.1009 L 454.0406 286.298 L 455.7664 286.764 L 459.2894 288.3472 L 457.2243 289.659 L 456.1974 290.4207 L 454.9222 291.5633 L 453.8877 292.8001 L 453.4321 293.7413 L 453.3221 294.2991 L 453.3221 294.8552 L 453.4378 295.3961 L 453.6798 295.8983 L 454.028 296.301 L 454.4236 296.5976 L 457.0846 298.0637 L 458.078 298.49 L 458.6948 298.6628 L 459.9719 298.865 L 463.2422 299.1514 L 465.1329 299.5871 L 468.0385 301.1071 L 471.9255 302.7307 L 472.8494 302.8781 L 473.3094 302.8267 L 476.064 301.8241 L 477.7437 301.5991 L 478.8931 301.664 L 480.0249 301.9783 L 480.5241 302.2412 L 481.3968 302.9447 L 482.0926 303.8387 L 482.3612 304.3501 L 482.7353 305.6283 L 482.909 307.6378 L 482.6266 321.6574 L 482.6834 324.3999 L 483.0076 326.3716 L 483.5024 327.5023 L 484.1754 328.4013 L 485.4437 329.457 L 487.9525 330.667 L 490.3475 331.9881 L 492.4872 332.8652 L 495.3726 334.4543 L 497.4725 335.4199 L 498.4981 336.0974 L 499.9079 337.3385 L 501.168 338.7489 L 502.1999 340.3111 L 503.1421 342.4756 L 504.7188 345.4314 L 505.606 347.6136 L 506.6146 349.5878 L 507.0582 350.6266 L 507.3716 351.8897 L 507.5309 353.2015 L 507.6269 356.5752 L 507.5138 368.8936 L 507.4013 370.9301 L 507.0689 373.4839 L 505.2679 374.0864 L 502.368 375.6628 L 500.2485 376.5837 L 497.3884 378.2301 L 495.274 379.1595 L 492.4139 380.8059 L 489.8198 381.9998 L 487.4558 383.4086 L 485.3521 384.3455 L 483.45 385.4114 L 482.4471 385.879 L 480.7093 386.2885 L 478.2808 386.4452 L 475.1856 386.3854 L 471.5198 386.0728 L 469.351 386.2843 L 465.7964 386.4132 L 461.5031 386.4292 L 458.6866 386.3138 L 457.3311 386.1587 L 456.083 385.8899 L 455.0075 385.4754 L 453.1086 384.4753 L 452.0716 384.113 L 450.9644 383.9579 L 449.8743 384.0186 L 448.8569 384.3413 L 448.0335 385.0061 L 445.0072 390.0472 L 444.4568 390.5249 L 443.9955 390.7052 L 440.1736 389.4001 L 436.1634 388.4977 L 435.1163 388.0983 L 432.6682 386.9179 L 431.4656 386.6103 L 429.5743 386.4165 L 423.1311 386.3095 L 421.8793 386.1368 L 420.6717 385.7695 L 419.5626 385.1375 L 418.5566 384.3346 L 414.8105 380.666 L 413.8304 379.8251 L 412.7884 379.1098 L 410.7087 378.1004 L 407.8688 376.4329 L 405.762 375.496 L 403.3644 374.1588 L 402.244 373.7308 L 400.347 373.3862 L 397.7737 373.2623 L 395.9133 373.3761 L 394.7582 373.6364 L 394.2242 373.8656 L 393.7383 374.1892 L 393.0558 375.0039 L 391.3072 378.2815 L 390.9458 379.3769 L 390.2867 382.9106 L 389.8374 384.0641 L 389.1757 385.135 L 388.3833 386.1157 L 387.4967 387.0072 L 385.9921 388.1211 L 384.8243 388.6089 L 382.9386 388.9156 L 381.0017 388.9796 L 367.8374 388.8912 L 365.8993 388.7918 L 364.0243 388.4901 L 362.9178 388.0992 L 360.4824 386.9078 L 359.379 386.5707 L 357.1016 386.0686 L 355.9887 385.7197 L 353.0882 384.177 L 350.9776 383.2434 L 348.1307 381.5777 L 346.0194 380.6466 L 343.6143 379.3415 L 342.559 378.9354 L 340.8541 378.5444 L 341.2579 376.6924 L 342.1716 374.3813 L 342.2974 373.9077 L 342.3473 373.414 L 342.298 372.9186 L 341.9928 371.9757 L 341.3533 370.5787 L 340.5267 368.4218 L 338.9014 365.4871 L 338.1854 363.7362 L 337.7071 362.7993 L 336.6972 361.3854 L 335.1402 359.6177 L 333.0561 357.5349 L 331.7233 356.4261 L 331.2532 356.1067 L 330.3362 355.6248 L 328.5959 354.9642 L 326.6831 354.1427 L 324.7146 353.4535 Z" fill="#000000" fill-opacity="1" stroke="#000000" stroke-width="0" paint-order="fill" stroke-opacity="1" stroke-dasharray="" stroke-linecap="butt" stroke-linejoin="miter" stroke-miterlimit="10" transform="matrix(1.100000023841858,0,0,1.100000023841858,-40.000022888183594,-26.6500186920166)" clip-path="none" style="filter: url(#f1)"/>
<path data-code="210" d="M 444.2059 104.6102 L 443.6094 102.1558 L 443.3244 100.1521 L 443.2334 97.3944 L 443.387 95.3781 L 443.6777 94.0983 L 443.9146 93.495 L 444.4865 92.5597 L 445.5539 91.4324 L 447.0995 90.2587 L 447.7296 89.4153 L 447.9476 88.8752 L 448.2098 87.6762 L 448.323 86.3828 L 448.273 80.1722 L 448.3268 78.1037 L 448.486 76.7531 L 448.843 75.4488 L 449.4459 74.2877 L 450.2118 73.232 L 451.5193 71.7533 L 453.4062 69.8887 L 454.902 68.5869 L 455.9567 67.8134 L 458.7555 66.1552 L 459.5428 68.2482 L 460.3941 70.2366 L 461.2149 72.4787 L 462.803 75.437 L 463.9316 78.129 L 465.2757 80.5834 L 466.132 82.791 L 467.6928 85.7501 L 468.606 87.8885 L 469.229 88.8153 L 469.9943 89.6284 L 470.8784 90.2991 L 472.9252 91.2917 L 475.2918 92.617 L 475.8068 92.8302 L 476.9626 93.1032 L 478.1475 93.1765 L 479.3285 93.083 L 480.4723 92.7999 L 480.9804 92.5892 L 483.3811 91.3574 L 484.4794 91.0246 L 487.3218 90.3817 L 487.8754 90.1694 L 488.8883 89.588 L 489.8236 88.8592 L 491.1487 87.6223 L 497.9357 80.4798 L 499.2861 79.2951 L 500.2637 78.6396 L 500.7907 78.3818 L 501.355 78.1838 L 502.5178 77.9462 L 506.0762 77.626 L 507.232 77.4145 L 508.2917 77.0396 L 510.7341 75.8524 L 511.8735 75.5625 L 513.6644 75.3831 L 517.3131 75.2988 L 518.5131 75.2028 L 519.686 74.9736 L 520.2541 74.7764 L 521.3132 74.1891 L 522.2775 73.4367 L 523.6324 72.1527 L 529.7741 65.7095 L 538.1914 57.042 L 540.0442 55.367 L 542.874 53.3001 L 544.7704 56.9712 L 545.8737 59.6691 L 546.8861 61.6483 L 547.3259 62.6872 L 547.6969 64.481 L 547.846 67.6087 L 546.7092 67.8269 L 545.5938 68.174 L 544.5499 68.7461 L 543.5805 69.475 L 541.7668 71.1643 L 540.0689 72.9978 L 538.9289 74.4579 L 538.3039 75.4985 L 537.3882 77.6816 L 535.8052 80.6365 L 534.9294 82.8314 L 533.3293 85.7829 L 532.1767 88.4674 L 530.7871 90.9041 L 529.8664 93.0804 L 528.8155 95.0352 L 528.3712 96.0741 L 528.2151 96.6631 L 528.0654 97.8738 L 528.1722 99.6837 L 528.4685 100.8161 L 529.3886 102.6461 L 529.7457 103.5595 L 529.8278 104.076 L 529.8196 104.5942 L 529.7134 105.098 L 529.498 105.5657 L 529.1826 105.9507 L 527.1396 107.3502 L 525.3885 108.7287 L 524.1866 107.4909 L 523.858 107.2508 L 523.4953 107.0696 L 523.0801 106.9795 L 522.646 107.0174 L 522.2497 107.1649 L 521.9047 107.3949 L 521.6159 107.6932 L 521.3916 108.0487 L 521.2488 108.4582 L 521.2108 108.9073 L 521.2962 109.3362 L 521.4712 109.7111 L 521.7019 110.0515 L 522.8968 111.2977 L 523.2027 112.7115 L 523.4902 113.6181 L 524.7389 116.0767 L 524.9519 116.5983 L 525.2166 117.6422 L 525.3241 118.7216 L 525.2931 119.8093 L 525.1042 120.8844 L 524.9329 121.4077 L 524.373 122.466 L 523.2608 123.8747 L 516.321 130.8664 L 515.0773 132.212 L 513.95 133.6191 L 513.3339 134.6251 L 512.4195 136.7981 L 510.8352 139.7513 L 510.0112 141.9917 L 508.1963 146.1279 L 503.2217 142.9168 L 500.6586 141.6488 L 499.6393 140.9697 L 497.748 139.2955 L 492.7829 134.2106 L 491.8426 133.3612 L 490.8543 132.6063 L 485.3369 129.7828 L 484.2203 129.4433 L 481.381 128.8105 L 480.3383 128.4137 L 477.8922 127.2231 L 476.0419 126.806 L 474.1037 126.6611 L 472.1309 126.6257 L 458.1918 126.662 L 458.0332 123.5385 L 457.8329 122.3446 L 457.673 121.7734 L 457.261 120.7766 L 456.2328 118.7401 L 455.532 116.9631 L 455.0593 116.0523 L 454.0805 114.7202 L 452.5765 113.0536 L 446.5972 106.9306 L 444.2059 104.6102 Z" fill="#000000" fill-opacity="1" stroke="#000000" stroke-width="0" paint-order="fill" stroke-opacity="1" stroke-dasharray="" stroke-linecap="butt" stroke-linejoin="miter" stroke-miterlimit="10" transform="matrix(1.100000023841858,0,0,1.100000023841858,-40.000022888183594,-26.6500186920166)" clip-path="none" style="filter: url(#f1)"/>
<path data-code="211" d="M 410.6746 278.3281 L 410.346 276.5672 L 410.1608 275.9917 L 409.5997 274.8744 L 408.8704 273.8524 L 408.0325 272.9138 L 406.6043 271.698 L 405.5142 271.0955 L 404.9417 270.9009 L 403.7638 270.6776 L 402.5612 270.5883 L 398.3077 270.4998 L 396.5358 270.2462 L 395.4539 269.8687 L 393.0558 268.5729 L 390.966 267.5963 L 389.9473 266.9071 L 388.5261 265.6567 L 383.58 260.5322 L 381.7038 258.8167 L 380.6851 258.1174 L 378.6093 257.1324 L 376.2673 255.9065 L 375.2032 255.6352 L 374.079 255.6503 L 373.0356 255.9402 L 371.1696 256.8805 L 370.1149 257.2773 L 368.9224 257.5217 L 367.6832 257.6523 L 364.4996 257.745 L 354.8538 257.643 L 352.9713 257.7585 L 351.7542 257.9742 L 351.1671 258.1553 L 350.1649 258.6246 L 347.4482 260.244 L 346.6242 260.8911 L 346.2912 261.3048 L 344.4693 264.5824 L 344.015 265.607 L 343.7015 266.7664 L 343.1416 269.7272 L 342.7562 270.8242 L 341.4974 273.3182 L 340.624 275.514 L 339.0284 278.4604 L 338.0843 280.625 L 337.4258 281.6816 L 336.6454 282.6775 L 335.355 284.1073 L 330.8538 288.7651 L 330.0291 289.7366 L 329.298 290.7586 L 328.7311 291.8379 L 328.0556 293.4683 L 326.7949 295.9505 L 326.4101 297.0459 L 326.06 298.8161 L 323.835 300.5838 L 321.2908 301.9024 L 320.2785 302.5782 L 317.4171 304.993 L 316.4262 305.7286 L 315.3842 306.3091 L 313.8063 307.0143 L 311.4087 308.3372 L 310.3496 308.7466 L 307.4946 309.3592 L 306.3843 309.687 L 303.9425 310.8876 L 302.8764 311.2752 L 301.72 311.5153 L 298.7695 311.908 L 297.4678 312.1911 L 294.9192 310.238 L 293.5144 308.9 L 292.3112 307.4095 L 291.7084 306.2821 L 291.5049 305.6696 L 291.2698 304.4007 L 291.1643 302.4425 L 291.3229 295.7685 L 291.2742 293.8062 L 291.1118 292.5364 L 290.7365 291.3273 L 290.1456 290.3643 L 289.7829 289.943 L 288.9563 289.2217 L 287.9983 288.6707 L 285.9325 287.7076 L 284.9265 287.0142 L 283.5287 285.7891 L 282.3508 284.3744 L 281.8124 283.2622 L 281.6803 282.6649 L 281.6942 281.4583 L 281.8389 280.8677 L 282.3704 279.8001 L 283.4958 278.4124 L 286.093 275.8004 L 287.3165 274.4203 L 288.0053 273.4067 L 288.4944 272.2692 L 288.8381 270.4358 L 288.9392 267.2803 L 288.7768 264.7636 L 288.3775 262.9521 L 287.9193 261.9073 L 286.8823 259.955 L 286.1828 258.3727 L 285.9085 257.8562 L 285.2595 256.9572 L 284.0538 255.8391 L 283.1103 255.2687 L 281.6064 254.5188 L 280.2831 253.5169 L 279.1538 252.2893 L 277.4767 249.9562 L 279.5854 248.8129 L 282.7678 246.9306 L 283.4794 246.2144 L 284.3078 244.9109 L 284.9423 244.0869 L 286.1208 242.9823 L 287.0687 242.3967 L 288.61 241.6797 L 291.0126 240.3779 L 291.5276 240.1656 L 292.6752 239.8665 L 296.8402 239.4317 L 297.9992 239.2135 L 299.0659 238.8427 L 301.0179 237.8847 L 302.0871 237.5165 L 303.8433 237.2376 L 306.8336 236.9967 L 308.5707 236.6251 L 309.5749 236.1735 L 311.8113 234.8473 L 312.6524 234.2558 L 313.0176 233.8623 L 313.3014 233.3913 L 313.5004 232.8773 L 313.7222 231.7677 L 313.8151 229.9764 L 313.7905 224.9327 L 313.8745 223.6815 L 314.0729 222.4615 L 314.4432 221.3383 L 315.7071 218.8595 L 316.6556 216.7008 L 317.7242 215.1168 L 319.0064 213.6448 L 326.441 206.1501 L 327.5842 204.652 L 328.1043 203.5238 L 328.2755 202.3552 L 328.1321 201.2042 L 327.7523 200.21 L 326.8284 198.2847 L 326.3987 196.533 L 326.2192 194.6659 L 326.2015 192.1306 L 326.3557 190.255 L 326.5902 189.0485 L 326.9769 187.9464 L 328.1504 185.4338 L 328.4461 184.2627 L 328.6496 182.4174 L 328.8796 177.4008 L 329.0825 176.1866 L 329.4496 175.0651 L 330.6958 172.5745 L 331.6323 170.4083 L 332.3022 169.3559 L 333.5281 167.9176 L 334.9139 166.6369 L 335.9099 165.9072 L 338.5197 164.6274 L 339.5453 163.9676 L 340.9684 162.7468 L 342.2437 161.3489 L 343.2775 159.791 L 344.1944 157.6155 L 345.519 155.1552 L 346.4416 153.0184 L 346.9945 151.9399 L 347.6985 150.9112 L 349.6442 148.4416 L 350.3507 147.4238 L 351.6619 144.7831 L 352.2825 143.8487 L 353.4117 142.5874 L 355.6058 140.668 L 357.245 142.8461 L 358.4002 144.2102 L 362.667 148.7061 L 364.2929 150.5337 L 365.347 151.9837 L 365.6358 152.4952 L 366.602 154.6421 L 367.2396 155.6582 L 368.4061 157.0821 L 371.3762 160.2342 L 372.4631 161.6666 L 372.956 162.7459 L 373.0786 163.3307 L 373.0672 164.4993 L 372.7557 165.5643 L 371.7731 167.4095 L 371.3863 168.4425 L 371.2681 169.0054 L 371.1873 170.1412 L 371.3307 171.2399 L 371.5083 171.7513 L 371.7762 172.2156 L 372.1282 172.5956 L 374.2951 174.0549 L 376.5789 176.0451 L 378.7641 178.2888 L 379.9249 179.7347 L 380.5569 180.771 L 381.7228 183.4479 L 383.082 185.8922 L 383.9712 188.0753 L 385.0303 190.0275 L 385.5017 191.0588 L 385.8107 192.2477 L 385.994 194.1064 L 385.9548 195.9845 L 385.6628 197.8188 L 385.2546 198.9276 L 383.9029 201.3652 L 382.967 203.5238 L 381.6071 205.9572 L 381.3796 206.4813 L 381.0504 207.6659 L 380.8368 209.5221 L 380.8469 211.4019 L 380.9954 212.6396 L 381.1338 213.2463 L 381.5837 214.3728 L 382.2157 215.3493 L 383.3588 216.6612 L 384.6423 217.8248 L 385.5655 218.4896 L 386.5817 219.0229 L 388.1729 219.6877 L 391.0431 221.3004 L 393.1746 222.1817 L 396.0322 223.8129 L 398.1441 224.7533 L 399.1476 225.4003 L 400.5523 226.585 L 401.8895 227.8944 L 403.1755 229.2635 L 404.3692 230.69 L 405.3531 232.2252 L 406.2586 234.41 L 407.8366 237.3657 L 408.7004 239.564 L 410.2866 242.5197 L 411.1542 244.7171 L 412.753 247.6661 L 413.4266 249.2999 L 413.9543 250.3337 L 414.5963 251.2766 L 416.7493 253.9871 L 417.3901 254.9232 L 418.6457 257.5537 L 419.2865 258.5698 L 420.4473 259.9955 L 423.7966 263.6565 L 424.8462 265.1588 L 425.116 265.7098 L 425.4813 266.8801 L 426.2908 271.8943 L 424.4506 272.3476 L 421.3548 273.437 L 420.3266 273.9105 L 417.9569 275.305 L 415.8399 276.2217 L 413.4443 277.5504 L 412.3877 277.9574 L 410.6746 278.3281 Z" fill="#000000" fill-opacity="1" stroke="#000000" stroke-width="0" paint-order="fill" stroke-opacity="1" stroke-dasharray="" stroke-linecap="butt" stroke-linejoin="miter" stroke-miterlimit="10" transform="matrix(1.100000023841858,0,0,1.100000023841858,-40.000022888183594,-26.6500186920166)" clip-path="none" style="filter: url(#f1)"/>
<path data-code="212" d="M 294.729 347.692 L 290.9481 347.59 L 287.6634 347.5984 L 285.7322 347.7383 L 284.4854 347.9734 L 283.372 348.3778 L 280.9763 349.6872 L 278.8758 350.6325 L 276.0346 352.3084 L 273.9234 353.242 L 271.0171 354.7856 L 269.9018 355.1386 L 267.0657 355.8118 L 266.0312 356.218 L 263.6002 357.4043 L 263.0371 357.5669 L 261.8744 357.7396 L 260.1107 357.6697 L 258.97 357.3858 L 257.9754 356.9223 L 256.0992 355.8413 L 254.0069 354.8842 L 252.1022 353.7981 L 251.107 353.3229 L 249.9992 352.9951 L 247.7381 352.648 L 246.6809 351.5231 L 245.8961 350.8289 L 243.5093 349.5296 L 240.4299 347.6027 L 239.6558 346.9219 L 239.3702 346.4627 L 239.0308 345.4128 L 238.888 344.2636 L 238.8526 337.3663 L 238.718 336.1277 L 238.4298 334.9354 L 237.9786 333.8974 L 236.9461 331.9308 L 236.062 329.7469 L 234.4411 326.8114 L 233.5046 324.6443 L 232.5845 323.2085 L 230.441 320.498 L 229.8015 319.5602 L 228.5572 316.9246 L 227.9259 315.9009 L 226.7821 314.4576 L 225.5252 313.069 L 216.737 304.0215 L 215.3575 302.8015 L 214.3894 302.0988 L 213.3663 301.5511 L 211.7928 300.8501 L 210.3887 299.9123 L 208.6926 298.3198 L 207.938 297.3997 L 207.339 296.4451 L 206.8884 295.2807 L 206.6584 293.9545 L 206.6002 292.5996 L 206.7506 290.569 L 207.023 289.2613 L 207.229 288.6395 L 208.6818 285.6669 L 208.9877 284.5033 L 209.1039 283.3002 L 209.0325 282.0936 L 208.9112 281.4996 L 208.7166 280.919 L 208.1504 279.9299 L 207.4028 279.1008 L 206.5206 278.4343 L 204.4725 277.4805 L 202.5534 276.4795 L 201.5309 276.0431 L 199.7767 275.6808 L 196.7396 275.5451 L 196.7175 272.3417 L 196.7921 270.4484 L 196.9412 269.2157 L 197.2389 268.0277 L 197.6926 266.9897 L 198.7359 265.0315 L 199.7002 262.8804 L 200.741 261.3377 L 202.7373 258.9128 L 203.4621 257.8983 L 204.0371 256.8266 L 204.731 255.1903 L 205.9879 252.6946 L 206.3715 251.5403 L 206.5042 250.8923 L 206.9232 246.8876 L 207.1494 245.5808 L 207.521 244.4273 L 208.6648 241.8903 L 209.2379 239.5581 L 211.7296 236.9891 L 222.5754 236.9554 L 224.559 237.0893 L 225.8418 237.321 L 226.4611 237.5115 L 227.4684 237.9698 L 229.3693 239.0289 L 230.9263 239.7653 L 231.9709 240.3872 L 233.454 241.6182 L 237.1906 245.2926 L 238.1986 246.0914 L 239.3095 246.7208 L 240.5184 247.0848 L 242.4091 247.2887 L 248.8358 247.2676 L 250.0725 247.4277 L 251.2555 247.8178 L 251.7439 248.1009 L 252.5926 248.828 L 253.258 249.7279 L 253.5077 250.2343 L 253.6991 250.7988 L 253.9064 251.9515 L 254.1478 255.4119 L 254.436 256.4651 L 254.7001 256.9369 L 255.0527 257.333 L 255.8698 257.9253 L 257.5394 258.8782 L 258.4557 259.2018 L 258.9536 259.2532 L 259.9179 259.0585 L 263.7563 257.2133 L 265.1345 256.2241 L 267.3033 254.2887 L 268.6404 253.2414 L 273.6055 250.6792 L 275.2599 250.1804 L 277.4767 249.9562 L 279.1538 252.2893 L 280.2831 253.5169 L 281.6064 254.5188 L 283.1103 255.2687 L 284.0538 255.8391 L 285.2595 256.9572 L 285.9085 257.8562 L 286.1828 258.3727 L 286.8823 259.955 L 287.9193 261.9073 L 288.3775 262.9521 L 288.7768 264.7636 L 288.9392 267.2803 L 288.8381 270.4358 L 288.4944 272.2692 L 288.0053 273.4067 L 287.3165 274.4203 L 286.093 275.8004 L 283.4958 278.4124 L 282.3704 279.8001 L 281.8389 280.8677 L 281.6942 281.4583 L 281.6803 282.6649 L 281.8124 283.2622 L 282.3508 284.3744 L 283.5287 285.7891 L 284.9265 287.0142 L 285.9325 287.7076 L 287.9983 288.6707 L 288.9563 289.2217 L 289.7829 289.943 L 290.1456 290.3643 L 290.7365 291.3273 L 291.1118 292.5364 L 291.2742 293.8062 L 291.3229 295.7685 L 291.1643 302.4425 L 291.2698 304.4007 L 291.5049 305.6696 L 291.7084 306.2821 L 292.3112 307.4095 L 293.5144 308.9 L 294.9192 310.238 L 297.4678 312.1911 L 295.3287 315.0154 L 294.4263 316.4671 L 293.9776 317.6198 L 293.6421 319.5787 L 293.5498 321.5933 L 293.601 323.6163 L 293.7286 324.9476 L 293.9795 326.2426 L 294.3947 327.3919 L 295.711 329.8505 L 296.6507 332.0016 L 297.9404 334.44 L 298.3114 335.548 L 298.4864 336.7495 L 298.4251 338.5728 L 298.1553 339.7533 L 296.7297 342.7596 L 295.7394 345.5881 L 294.729 347.692 Z" fill="#000000" fill-opacity="1" stroke="#000000" stroke-width="0" paint-order="fill" stroke-opacity="1" stroke-dasharray="" stroke-linecap="butt" stroke-linejoin="miter" stroke-miterlimit="10" transform="matrix(1.100000023841858,0,0,1.100000023841858,-40.000022888183594,-26.6500186920166)" clip-path="none" style="filter: url(#f1)"/>
<path data-code="213" d="M 520.5966 173.1036 L 517.7991 170.3813 L 516.3456 168.6254 L 515.7605 167.6707 L 514.8391 165.4977 L 513.5847 163.0147 L 513.2012 161.9177 L 512.6324 158.9619 L 512.3101 157.8084 L 511.8488 156.7872 L 510.8049 154.8165 L 509.9233 152.6325 L 508.9116 150.6668 L 508.4844 149.6363 L 508.3334 149.0583 L 508.1792 147.8686 L 508.1963 146.1279 L 510.0112 141.9917 L 510.8352 139.7513 L 512.4195 136.7981 L 513.3339 134.6251 L 513.95 133.6191 L 515.0773 132.212 L 516.321 130.8664 L 523.2608 123.8747 L 524.373 122.466 L 524.9329 121.4077 L 525.1042 120.8844 L 525.2931 119.8093 L 525.3241 118.7216 L 525.2166 117.6422 L 524.9519 116.5983 L 524.7389 116.0767 L 523.4902 113.6181 L 523.2027 112.7115 L 522.8968 111.2977 L 521.7019 110.0515 L 521.4712 109.7111 L 521.2962 109.3362 L 521.2108 108.9073 L 521.2488 108.4582 L 521.3916 108.0487 L 521.6159 107.6932 L 521.9047 107.3949 L 522.2497 107.1649 L 522.646 107.0174 L 523.0801 106.9795 L 523.4953 107.0696 L 523.858 107.2508 L 524.1866 107.4909 L 525.3885 108.7287 L 527.1396 107.3502 L 529.1826 105.9507 L 529.498 105.5657 L 529.7134 105.098 L 529.8196 104.5942 L 529.8278 104.076 L 529.7457 103.5595 L 529.3886 102.6461 L 528.4685 100.8161 L 528.1722 99.6837 L 528.0654 97.8738 L 528.2151 96.6631 L 528.3712 96.0741 L 528.8155 95.0352 L 529.8664 93.0804 L 530.7871 90.9041 L 532.1767 88.4674 L 533.3293 85.7829 L 534.9294 82.8314 L 535.8052 80.6365 L 537.3882 77.6816 L 538.3039 75.4985 L 538.9289 74.4579 L 540.0689 72.9978 L 541.7668 71.1643 L 543.5805 69.475 L 544.5499 68.7461 L 545.5938 68.174 L 546.7092 67.8269 L 547.846 67.6087 L 548.4154 69.9333 L 549.5535 72.4669 L 549.9288 73.6255 L 550.1595 74.9348 L 550.4982 78.2807 L 550.7289 79.5883 L 551.0992 80.7435 L 552.0104 82.7657 L 552.382 83.9208 L 552.6152 85.2268 L 552.9728 88.5659 L 553.2117 89.8677 L 553.589 91.0161 L 554.7024 93.5573 L 554.9975 94.8001 L 555.2206 97.4172 L 555.323 102.7616 L 555.5252 104.7104 L 556.0238 106.4714 L 557.1436 109.0033 L 557.5303 110.8831 L 557.6516 112.8573 L 557.6655 118.1874 L 557.7679 119.4807 L 558.0226 120.7319 L 558.5073 121.834 L 558.8207 122.2991 L 559.5638 123.1147 L 560.4264 123.7736 L 562.4221 124.7889 L 563.9159 125.8177 L 565.3416 127.0689 L 567.6449 129.3422 L 558.5907 138.618 L 557.347 139.9653 L 556.2171 141.3749 L 555.6004 142.3877 L 554.6974 144.5818 L 553.6629 146.5593 L 553.2029 147.5729 L 552.4332 150.5042 L 552.0742 151.3485 L 551.5516 151.9644 L 550.2998 152.7589 L 549.5806 153.3453 L 548.9993 154.0961 L 548.8015 154.5477 L 548.7073 155.0591 L 548.7515 155.5824 L 548.9089 156.0677 L 549.1452 156.5176 L 549.7765 157.3492 L 550.5437 158.1219 L 551.3987 158.8389 L 552.3207 159.4717 L 553.2224 159.9326 L 554.48 160.4541 L 555.3527 160.9495 L 556.202 161.6582 L 556.9262 162.5058 L 557.4431 163.3955 L 558.1553 165.1076 L 559.416 167.5848 L 559.7642 168.5731 L 560.1136 170.4773 L 556.4446 174.4256 L 554.8035 176.0855 L 553.4897 177.1421 L 552.502 177.6333 L 551.5902 177.8128 L 550.6764 177.774 L 550.2296 177.6763 L 549.2514 177.2744 L 547.8637 176.5312 L 546.9101 176.1546 L 544.414 175.6145 L 543.4206 175.3356 L 542.9397 175.1309 L 542.0076 174.52 L 541.2171 173.7347 L 540.5845 172.8163 L 539.6865 170.6745 L 538.1642 167.6758 L 537.5437 165.8761 L 537.1405 164.9214 L 535.325 161.5461 L 534.779 160.947 L 534.4068 160.7355 L 534.0042 160.6083 L 533.1581 160.5822 L 532.7309 160.6774 L 532.2367 160.8855 L 531.7773 161.1678 L 530.5008 162.2724 L 522.936 170.3392 L 520.5966 173.1036 Z" fill="#000000" fill-opacity="1" stroke="#000000" stroke-width="0" paint-order="fill" stroke-opacity="1" stroke-dasharray="" stroke-linecap="butt" stroke-linejoin="miter" stroke-miterlimit="10" transform="matrix(1.100000023841858,0,0,1.100000023841858,-40.000022888183594,-26.6500186920166)" clip-path="none" style="filter: url(#f1)"/>
<path data-code="214" d="M 326.06 298.8161 L 326.4101 297.0459 L 326.7949 295.9505 L 328.0556 293.4683 L 328.7311 291.8379 L 329.298 290.7586 L 330.0291 289.7366 L 330.8538 288.7651 L 335.355 284.1073 L 336.6454 282.6775 L 337.4258 281.6816 L 338.0843 280.625 L 339.0284 278.4604 L 340.624 275.514 L 341.4974 273.3182 L 342.7562 270.8242 L 343.1416 269.7272 L 343.7015 266.7664 L 344.015 265.607 L 344.4693 264.5824 L 346.2912 261.3048 L 346.6242 260.8911 L 347.4482 260.244 L 350.1649 258.6246 L 351.1671 258.1553 L 351.7542 257.9742 L 352.9713 257.7585 L 354.8538 257.643 L 364.4996 257.745 L 367.6832 257.6523 L 368.9224 257.5217 L 370.1149 257.2773 L 371.1696 256.8805 L 373.0356 255.9402 L 374.079 255.6503 L 375.2032 255.6352 L 376.2673 255.9065 L 378.6093 257.1324 L 380.6851 258.1174 L 381.7038 258.8167 L 383.58 260.5322 L 388.5261 265.6567 L 389.9473 266.9071 L 390.966 267.5963 L 393.0558 268.5729 L 395.4539 269.8687 L 396.5358 270.2462 L 398.3077 270.4998 L 402.5612 270.5883 L 403.7638 270.6776 L 404.9417 270.9009 L 405.5142 271.0955 L 406.6043 271.698 L 408.0325 272.9138 L 408.8704 273.8524 L 409.5997 274.8744 L 410.1608 275.9917 L 410.346 276.5672 L 410.6746 278.3281 L 408.9652 278.7073 L 407.908 279.1117 L 405.5035 280.4219 L 403.3865 281.3429 L 400.5372 283.012 L 398.4215 283.9355 L 395.5184 285.4799 L 394.4018 285.822 L 392.1136 286.298 L 391.002 286.6249 L 388.5526 287.8062 L 387.4822 288.1778 L 386.3207 288.3935 L 382.7496 288.7288 L 381.0213 289.1181 L 380.014 289.5706 L 378.1012 290.6137 L 376.0032 291.5784 L 374.4638 292.6738 L 373.0306 293.9882 L 369.7837 297.2894 L 366.5653 300.6318 L 364.8427 302.5891 L 363.776 304.1749 L 362.8262 306.3318 L 361.5586 308.8039 L 361.1743 309.949 L 360.9058 311.8717 L 360.8521 314.525 L 360.9488 319.8391 L 360.8508 321.7189 L 360.6157 322.8808 L 360.4066 323.4167 L 360.1077 323.9037 L 359.3335 324.6072 L 356.6877 326.2721 L 355.7284 326.7937 L 353.6095 327.6304 L 351.2853 328.7375 L 350.333 328.9675 L 349.6265 329.0012 L 347.2435 325.8062 L 346.3607 324.3553 L 345.4532 322.1747 L 343.8684 319.2198 L 342.9957 317.0241 L 341.4139 314.0658 L 340.5482 311.8667 L 338.9842 308.9 L 338.0793 306.7177 L 337.1516 305.2719 L 336.411 304.3804 L 335.1876 303.1444 L 334.3048 302.4114 L 333.3594 301.7954 L 331.2481 300.8577 L 329.3308 299.8103 L 328.3324 299.3478 L 327.2101 299.0293 L 326.06 298.8161 Z" fill="#000000" fill-opacity="1" stroke="#000000" stroke-width="0" paint-order="fill" stroke-opacity="1" stroke-dasharray="" stroke-linecap="butt" stroke-linejoin="miter" stroke-miterlimit="10" transform="matrix(1.100000023841858,0,0,1.100000023841858,-40.000022888183594,-26.6500186920166)" clip-path="none" style="filter: url(#f1)"/>
<path data-code="215" d="M 211.7296 236.9891 L 209.9697 235.4649 L 209.0123 234.8093 L 207.9014 234.2389 L 206.0467 233.4376 L 206.3671 232.3414 L 206.6141 231.0481 L 206.8088 229.047 L 206.8884 227.0206 L 206.8726 225.0001 L 206.769 223.6739 L 206.52 222.378 L 206.3064 221.752 L 206.029 221.1765 L 205.3275 220.1275 L 204.0542 218.7381 L 203.1171 217.9166 L 202.1262 217.203 L 200.0901 216.191 L 199.1473 215.6223 L 197.9725 214.4764 L 197.3804 213.5336 L 196.9842 212.4197 L 196.2151 208.9618 L 195.1288 206.4063 L 194.7939 205.2907 L 194.6062 204.0892 L 194.2991 200.4366 L 194.0482 199.2621 L 193.5806 198.1929 L 192.9184 197.2964 L 192.1133 196.5465 L 191.173 195.955 L 189.1457 194.9178 L 188.1473 194.2168 L 185.2133 191.9073 L 184.2015 191.2602 L 182.199 190.2205 L 181.3465 189.5422 L 180.6204 188.7173 L 180.0624 187.7652 L 179.7016 186.6615 L 179.4753 185.529 L 180.9092 183.7285 L 181.495 182.7528 L 182.9307 179.0446 L 183.4192 177.6131 L 188.4563 177.8094 L 199.7881 177.8861 L 203.2915 177.8043 L 205.3313 177.5777 L 206.6249 177.2508 L 209.0938 176.142 L 210.2123 175.7636 L 211.4699 175.521 L 214.6839 175.1368 L 216.5626 174.6658 L 217.7658 174.0625 L 223.3893 170.6088 L 225.5682 171.7496 L 226.6975 172.2063 L 230.8941 173.2056 L 234.4411 174.7205 L 236.4551 175.157 L 240.706 175.3541 L 255.5216 175.3103 L 257.6999 176.4031 L 258.6004 176.7334 L 259.0787 176.7941 L 260.0241 176.634 L 263.9022 174.9388 L 266.78 173.3471 L 267.8948 172.9941 L 270.1925 172.5155 L 271.3097 172.1869 L 273.7534 170.9728 L 274.8081 170.5742 L 277.6675 169.9651 L 278.7835 169.6348 L 281.2266 168.4223 L 282.2812 168.0288 L 285.1433 167.4281 L 286.2656 167.0944 L 289.1889 165.5719 L 291.8006 164.426 L 294.9729 162.4721 L 295.7931 161.8376 L 296.4061 160.9891 L 298.2912 157.7073 L 299.4198 155.017 L 301.04 152.0621 L 301.9589 149.8832 L 303.2486 147.4322 L 303.6145 146.3191 L 303.7188 145.7201 L 303.7864 144.5034 L 303.6834 143.2943 L 303.5646 142.7037 L 303.1854 141.6201 L 301.9816 139.1708 L 301.6897 138.0097 L 301.5905 136.1906 L 301.7421 134.9823 L 301.8988 134.3951 L 302.3399 133.3579 L 303.3801 131.4132 L 304.3431 129.2588 L 304.994 128.235 L 306.5795 126.3409 L 310.4261 122.3842 L 311.3152 120.127 L 311.8422 119.0299 L 312.4678 118.0509 L 313.9244 116.2335 L 316.4079 118.8075 L 326.5807 118.794 L 328.5751 118.9052 L 330.5031 119.2162 L 331.7259 119.6442 L 333.4814 120.4859 L 334.6902 120.908 L 335.9446 121.1499 L 339.1599 121.5282 L 341.0348 122.0068 L 342.7878 122.9934 L 346.1155 125.42 L 346.9635 126.8709 L 347.701 127.85 L 351.4812 132.0089 L 352.2762 132.9568 L 352.9801 133.9536 L 353.5261 135.0211 L 354.1688 136.6447 L 355.3056 139.0292 L 355.5546 140.0159 L 355.6058 140.668 L 353.4117 142.5874 L 352.2825 143.8487 L 351.6619 144.7831 L 350.3507 147.4238 L 349.6442 148.4416 L 347.6985 150.9112 L 346.9945 151.9399 L 346.4416 153.0184 L 345.519 155.1552 L 344.1944 157.6155 L 343.2775 159.791 L 342.2437 161.3489 L 340.9684 162.7468 L 339.5453 163.9676 L 338.5197 164.6274 L 335.9099 165.9072 L 334.9139 166.6369 L 333.5281 167.9176 L 332.3022 169.3559 L 331.6323 170.4083 L 330.6958 172.5745 L 329.4496 175.0651 L 329.0825 176.1866 L 328.8796 177.4008 L 328.6496 182.4174 L 328.4461 184.2627 L 328.1504 185.4338 L 326.9769 187.9464 L 326.5902 189.0485 L 326.3557 190.255 L 326.2015 192.1306 L 326.2192 194.6659 L 326.3987 196.533 L 326.8284 198.2847 L 327.7523 200.21 L 328.1321 201.2042 L 328.2755 202.3552 L 328.1043 203.5238 L 327.5842 204.652 L 326.441 206.1501 L 319.0064 213.6448 L 317.7242 215.1168 L 316.6556 216.7008 L 315.7071 218.8595 L 314.4432 221.3383 L 314.0729 222.4615 L 313.8745 223.6815 L 313.7905 224.9327 L 313.8151 229.9764 L 313.7222 231.7677 L 313.5004 232.8773 L 313.3014 233.3913 L 313.0176 233.8623 L 312.6524 234.2558 L 311.8113 234.8473 L 309.5749 236.1735 L 308.5707 236.6251 L 306.8336 236.9967 L 303.8433 237.2376 L 302.0871 237.5165 L 301.0179 237.8847 L 299.0659 238.8427 L 297.9992 239.2135 L 296.8402 239.4317 L 292.6752 239.8665 L 291.5276 240.1656 L 291.0126 240.3779 L 288.61 241.6797 L 287.0687 242.3967 L 286.1208 242.9823 L 284.9423 244.0869 L 284.3078 244.9109 L 283.4794 246.2144 L 282.7678 246.9306 L 279.5854 248.8129 L 277.4767 249.9562 L 275.2599 250.1804 L 273.6055 250.6792 L 268.6404 253.2414 L 267.3033 254.2887 L 265.1345 256.2241 L 263.7563 257.2133 L 259.9179 259.0585 L 258.9536 259.2532 L 258.4557 259.2018 L 257.5394 258.8782 L 255.8698 257.9253 L 255.0527 257.333 L 254.7001 256.9369 L 254.436 256.4651 L 254.1478 255.4119 L 253.9064 251.9515 L 253.6991 250.7988 L 253.5077 250.2343 L 253.258 249.7279 L 252.5926 248.828 L 251.7439 248.1009 L 251.2555 247.8178 L 250.0725 247.4277 L 248.8358 247.2676 L 242.4091 247.2887 L 240.5184 247.0848 L 239.3095 246.7208 L 238.1986 246.0914 L 237.1906 245.2926 L 233.454 241.6182 L 231.9709 240.3872 L 230.9263 239.7653 L 229.3693 239.0289 L 227.4684 237.9698 L 226.4611 237.5115 L 225.8418 237.321 L 224.559 237.0893 L 222.5754 236.9554 L 211.7296 236.9891 Z" fill="#000000" fill-opacity="1" stroke="#000000" stroke-width="0" paint-order="fill" stroke-opacity="1" stroke-dasharray="" stroke-linecap="butt" stroke-linejoin="miter" stroke-miterlimit="10" transform="matrix(1.100000023841858,0,0,1.100000023841858,-40.000022888183594,-26.6500186920166)" clip-path="none" style="filter: url(#f1)"/>
<path data-code="216" d="M 457.951 132.9492 L 457.5984 132.003 L 456.5102 129.7508 L 456.3396 128.7751 L 456.5279 127.8171 L 456.775 127.4118 L 457.4758 126.9055 L 458.1918 126.662 L 472.1309 126.6257 L 474.1037 126.6611 L 476.0419 126.806 L 477.8922 127.2231 L 480.3383 128.4137 L 481.381 128.8105 L 484.2203 129.4433 L 485.3369 129.7828 L 490.8543 132.6063 L 491.8426 133.3612 L 492.7829 134.2106 L 497.748 139.2955 L 499.6393 140.9697 L 500.6586 141.6488 L 503.2217 142.9168 L 508.1963 146.1279 L 508.1792 147.8686 L 508.3334 149.0583 L 508.4844 149.6363 L 508.9116 150.6668 L 509.9233 152.6325 L 510.8049 154.8165 L 511.8488 156.7872 L 512.3101 157.8084 L 512.6324 158.9619 L 513.2012 161.9177 L 513.5847 163.0147 L 514.8391 165.4977 L 515.7605 167.6707 L 516.3456 168.6254 L 517.7991 170.3813 L 520.5966 173.1036 L 517.5109 175.7973 L 516.0613 177.2145 L 514.7102 178.6874 L 513.5879 180.3034 L 513.3136 180.9058 L 513.0116 182.0964 L 512.9288 183.3105 L 513.1405 185.1069 L 513.5089 186.198 L 514.6843 188.6701 L 515.0148 189.9104 L 515.1962 191.2164 L 515.3301 194.5968 L 515.2461 204.8795 L 515.3788 206.8832 L 515.605 208.1773 L 515.9962 209.33 L 517.2607 211.8063 L 518.1751 213.9751 L 519.8029 216.9055 L 520.7015 219.0878 L 521.6955 221.0813 L 522.1183 222.1253 L 522.4678 223.9065 L 522.6845 226.9498 L 522.8513 228.1412 L 523.209 229.288 L 523.4769 229.7893 L 523.7992 230.2493 L 524.5797 231.0388 L 525.5143 231.6236 L 526.0571 231.8258 L 527.1712 232.0524 L 530.4812 232.3693 L 531.4803 232.6894 L 531.9309 232.9641 L 532.6336 233.73 L 534.2336 236.4557 L 534.6753 237.4912 L 534.9572 238.6776 L 535.4659 244.2369 L 536.6463 248.6595 L 536.525 249.2207 L 536.3569 249.4945 L 536.0441 249.7692 L 535.6359 249.9824 L 532.9224 250.8216 L 529.9921 252.1798 L 528.6859 252.5109 L 527.326 252.6769 L 525.2438 252.7679 L 513.313 252.6584 L 511.239 252.7098 L 509.8873 252.8244 L 508.5849 253.0645 L 507.9656 253.2574 L 507.0045 253.6947 L 505.0423 254.7665 L 502.8931 255.6773 L 500.0608 257.3473 L 498.3786 258.0744 L 497.4731 258.5732 L 496.5454 259.2616 L 495.6607 260.041 L 493.5317 262.1617 L 476.2593 280.079 L 474.9739 281.3361 L 473.6304 282.4744 L 472.6699 283.0954 L 470.0815 284.2893 L 467.7194 285.7057 L 465.5974 286.6005 L 463.2118 287.9065 L 462.233 288.2444 L 461.2686 288.3918 L 460.2904 288.4162 L 459.2894 288.3472 L 455.7664 286.764 L 454.0406 286.298 L 451.487 286.1009 L 446.3002 286.0688 L 445.0249 285.9812 L 443.7788 285.7739 L 442.6533 285.3948 L 440.2393 284.1469 L 438.7 283.4636 L 438.1938 283.1864 L 437.3129 282.5166 L 436.5685 281.6833 L 436.0073 280.6907 L 435.8158 280.1102 L 435.6389 278.9154 L 435.6654 277.7122 L 435.8683 276.5352 L 436.2468 275.4659 L 437.1732 273.5533 L 437.4753 272.4832 L 437.5366 271.9044 L 437.5353 271.3196 L 437.3622 270.2319 L 436.3302 266.8532 L 436.4534 266.3577 L 436.6196 266.0392 L 437.2143 265.4882 L 439.7325 263.9387 L 440.7177 263.4702 L 442.4467 263.0759 L 446.0468 262.7667 L 447.2202 262.5552 L 448.3034 262.1761 L 450.7173 260.8785 L 452.8122 259.8952 L 454.3566 258.7914 L 456.7763 256.696 L 458.188 255.7253 L 460.3214 254.78 L 463.22 253.313 L 465.8154 252.6786 L 466.7607 252.275 L 467.181 251.9363 L 467.5153 251.4948 L 467.7516 250.9985 L 468.0164 249.9099 L 468.1017 248.7446 L 468.065 247.5381 L 467.7781 245.7181 L 467.3743 244.5933 L 466.0422 242.1355 L 465.0261 240.0375 L 464.3588 239.1486 L 463.1322 238.0659 L 460.7024 236.8559 L 459.843 236.2367 L 459.1176 235.4463 L 458.6044 234.4774 L 458.4641 233.901 L 458.4231 233.3146 L 458.6177 232.1637 L 458.8559 231.6194 L 459.4999 230.6513 L 461.3047 228.4496 L 461.8039 227.4798 L 461.9221 226.9389 L 461.9189 226.4317 L 461.6826 225.4686 L 460.2013 221.9947 L 459.8961 221.5237 L 459.1656 220.6718 L 457.8404 219.6473 L 455.2849 218.4609 L 452.8994 217.1322 L 450.7786 216.1944 L 449.19 215.1227 L 447.236 213.3651 L 445.4218 211.4448 L 444.2356 209.8852 L 443.6334 208.7242 L 443.2814 207.4376 L 443.0817 205.4348 L 443.1708 196.4732 L 443.0021 193.0835 L 442.5895 191.165 L 441.2454 188.1267 L 440.9294 186.8687 L 440.7619 185.5535 L 440.6419 182.1571 L 440.6634 164.9029 L 440.8207 162.2058 L 441.2353 160.2746 L 441.6827 159.2358 L 442.6956 157.2591 L 443.8344 154.5696 L 444.9289 152.6266 L 446.1611 150.0433 L 446.8038 149.1401 L 447.5779 148.3497 L 448.4569 147.6976 L 450.4892 146.6806 L 452.0103 145.6788 L 454.883 143.3575 L 456.6657 142.0448 L 457.3671 141.3336 L 457.8828 140.2509 L 458.0325 139.6477 L 458.1893 138.3729 L 458.207 136.381 L 457.951 132.9492 Z" fill="#000000" fill-opacity="1" stroke="#000000" stroke-width="0" paint-order="fill" stroke-opacity="1" stroke-dasharray="" stroke-linecap="butt" stroke-linejoin="miter" stroke-miterlimit="10" transform="matrix(1.100000023841858,0,0,1.100000023841858,-40.000022888183594,-26.6500186920166)" clip-path="none" style="filter: url(#f1)"/>

















</svg>