<?xml version="1.0" standalone="no"?>
<!-- Generator: Paintmaps.com , Online SVG vector map maker -->
<svg xmlns="http://www.w3.org/2000/svg" version="1.1" baseProfile="full"   style="background-color:#e0f2f1" width="800" height="500" viewBox="0 0 800 533">

<path data-code="200" d="M 366.3066 399.5921 L 366.1119 432.874 L 366.2521 434.7356 L 366.5898 436.5544 L 366.8792 437.437 L 367.71 439.0259 L 368.7712 440.4563 L 370.6168 442.3823 L 371.9737 443.5138 L 373.4361 444.4595 L 376.4232 445.7816 L 380.5637 447.8707 L 382.1493 448.3245 L 385.3857 448.9581 L 386.9668 449.4167 L 391.0823 451.544 L 393.3075 452.5373 L 394.8055 453.3806 L 396.2482 454.4775 L 398.293 456.3594 L 404.8453 463.1997 L 406.3809 464.0966 L 407.1572 465.128 L 407.3885 465.77 L 407.5744 467.1743 L 407.3028 469.3301 L 404.3058 468.9502 L 394.7269 467.7365 L 389.7575 467.8568 L 385.5367 468.6381 L 382.8889 469.1288 L 373.5388 469.4361 L 370.8491 469.5255 L 354.1739 469.8065 L 346.5665 469.3397 L 343.3328 469.5695 L 337.8595 468.9883 L 336.9296 468.7667 L 327.1069 466.4335 L 325.2685 465.5128 L 319.0342 459.8945 L 313.4877 453.8487 L 305.44 445.7363 L 304.5082 444.4595 L 303.5471 443.1434 L 301.6711 440.5719 L 296.465 435.6694 L 294.2049 432.107 L 291.7091 430.237 L 291.7385 430.1369 L 292.0771 428.3122 L 292.3004 425.4894 L 292.5005 419.7723 L 292.8382 416.9769 L 293.2714 415.3439 L 294.9473 410.4201 L 298.4302 412.2924 L 300.5509 413.792 L 302.4796 415.5774 L 306.0947 419.2792 L 307.9358 420.8109 L 309.2865 421.4696 L 310.0253 421.603 L 310.7238 421.566 L 312.02 421.1647 L 316.7902 418.9838 L 320.7743 416.5481 L 323.7651 415.2117 L 327.8698 413.0047 L 329.4491 412.5223 L 332.6873 411.8553 L 334.2596 411.3955 L 337.7166 409.7126 L 339.2299 409.1837 L 340.8726 408.8788 L 345.9233 408.3952 L 348.3612 407.8259 L 349.7744 407.1708 L 352.473 405.6713 L 355.4602 404.373 L 359.531 402.0957 L 363.4802 400.8034 L 366.3066 399.5921 Z" fill="#000000" fill-opacity="1" stroke="#000000" stroke-width="0" paint-order="fill" stroke-opacity="1" stroke-dasharray="" stroke-linecap="butt" stroke-linejoin="miter" stroke-miterlimit="10" transform="matrix(0.8999999761581421,0,0,0.8999999761581421,40.00008010864258,26.649959564208984)" clip-path="none" style="filter: url(#f1)"/>
<path data-code="201" d="M 163.1169 428.9602 L 161.5626 429.1912 L 158.3056 429.676 L 158.3682 428.5933 L 158.3378 428.6076 L 158.7308 420.6978 L 158.6826 406.3883 L 158.8747 401.1655 L 158.7719 397.5959 L 158.3423 395.0101 L 157.7196 393.445 L 156.8647 392.0729 L 153.8516 388.2746 L 152.9387 386.9656 L 152.1812 385.5363 L 151.1566 383.2614 L 150.2409 381.794 L 149.1627 380.4016 L 145.5261 376.4223 L 131.5683 362.1414 L 129.8049 360.1297 L 128.7634 358.7124 L 127.9353 357.1747 L 127.6467 356.3672 L 126.7936 352.2175 L 126.3568 350.606 L 124.7212 347.0518 L 124.2057 345.4808 L 123.8279 342.8938 L 123.634 338.737 L 126.3854 339.0896 L 130.1096 339.3063 L 147.8933 339.4433 L 152.4858 339.2194 L 155.1139 338.6286 L 156.5414 337.9759 L 159.249 336.4942 L 162.221 335.1781 L 167.3092 331.9241 L 168.4231 331.0332 L 170.0257 328.6666 L 170.9369 327.5255 L 172.049 326.5036 L 173.3604 325.6889 L 174.1831 325.3697 L 175.9152 325.0005 L 177.7099 324.848 L 183.2001 324.7051 L 185.8835 324.3478 L 187.4736 323.8106 L 190.8816 322.0037 L 193.1014 321.0021 L 194.5923 320.154 L 196.7121 318.4591 L 200.0334 315.2016 L 207.8426 307.0094 L 211.6901 302.6358 L 215.3669 306.6795 L 216.9024 308.5471 L 217.7493 309.9013 L 218.3067 311.3783 L 218.4595 312.1334 L 218.5845 313.6603 L 218.4094 315.915 L 218.053 317.3217 L 216.9266 319.9075 L 216.7309 320.553 L 216.6416 321.2319 L 216.6925 321.9204 L 216.8569 322.5933 L 219.1929 328.2723 L 220.0406 329.6504 L 221.5976 331.5692 L 229.221 339.4362 L 230.5637 339.9805 L 231.8116 340.7023 L 233.8608 342.8795 L 232.2181 344.0635 L 231.1193 344.7316 L 230.5199 345.0115 L 229.8964 345.1997 L 229.2425 345.2533 L 228.6511 345.1557 L 227.5809 344.6518 L 226.6162 343.911 L 225.6988 343.0677 L 223.8202 343.8645 L 223.2538 344.2683 L 222.3382 345.3534 L 219.6404 349.9247 L 217.7949 354.4603 L 215.65 358.3276 L 214.8559 359.4687 L 214.3038 359.9392 L 213.6392 360.2655 L 212.1983 360.4465 L 210.8084 360.1011 L 207.7301 358.2848 L 204.9456 356.8352 L 202.5605 355.325 L 201.3135 354.7949 L 199.8824 354.7235 L 199.1821 354.9331 L 198.5362 355.3381 L 198.0047 355.9658 L 197.4643 357.4332 L 196.7809 363.4957 L 196.3074 365.1179 L 194.804 368.7745 L 194.3913 370.5718 L 194.1037 373.3744 L 193.7982 379.0486 L 193.3756 381.7892 L 192.8468 383.3972 L 191.2505 386.9751 L 190.6573 389.6538 L 190.3885 393.4176 L 190.4528 399.1812 L 190.6966 402.06 L 191.4283 406.2216 L 191.6185 406.1596 L 192.2206 409.5899 L 185.4244 412.2257 L 184.6008 412.6676 L 173.5864 418.586 L 172.3295 419.2613 L 169.4567 422.3402 L 168.8394 423.3586 L 168.4723 423.9637 L 167.9291 426.1909 L 165.3841 428.6219 L 163.1169 428.9602 Z" fill="#000000" fill-opacity="1" stroke="#000000" stroke-width="0" paint-order="fill" stroke-opacity="1" stroke-dasharray="" stroke-linecap="butt" stroke-linejoin="miter" stroke-miterlimit="10" transform="matrix(0.8999999761581421,0,0,0.8999999761581421,40.00008010864258,26.649959564208984)" clip-path="none" style="filter: url(#f1)"/>
<path data-code="202" d="M 211.6901 302.6358 L 209.254 300.8874 L 207.9525 300.112 L 204.926 298.7947 L 200.9035 296.4447 L 198.5184 295.4096 L 197.249 294.7176 L 195.9492 293.7815 L 191.5265 290.1428 L 190.2634 289.3221 L 188.1525 288.2549 L 186.826 287.4176 L 185.1421 285.8013 L 184.2372 284.5209 L 182.4962 280.8644 L 180.6086 277.3996 L 179.358 274.3075 L 177.6089 270.7844 L 177.0578 269.1336 L 176.8693 268.2081 L 176.5816 265.3495 L 176.5102 261.4393 L 176.6442 249.5977 L 176.855 243.9235 L 179.3526 244.4583 L 184.1505 245.1539 L 185.9961 245.5552 L 187.722 246.2056 L 190.1499 247.4014 L 190.9843 247.7182 L 192.51 248.047 L 194.0099 248.1125 L 195.3927 247.9362 L 196.5361 247.5014 L 197.3017 246.8928 L 201.0562 244.5583 L 204.3659 242.3513 L 208.0043 240.5849 L 209.4032 239.6559 L 211.3676 237.9717 L 216.404 233.0717 L 217.727 231.9711 L 219.1303 231.0397 L 222.0934 229.6664 L 226.1159 227.3236 L 229.1085 226.0396 L 231.8071 224.5329 L 233.2212 223.8636 L 235.6662 223.2549 L 239.8942 222.7213 L 242.6134 222.9607 L 246.3813 223.1156 L 261.4852 223.2335 L 265.179 223.031 L 267.8267 222.4486 L 269.2515 221.8006 L 271.9421 220.3118 L 274.1548 219.2982 L 275.6252 218.4538 L 277.0205 217.377 L 278.3507 216.1693 L 284.0982 210.2854 L 286.6869 207.8664 L 288.7138 206.4419 L 289.4142 206.1107 L 290.8819 205.701 L 293.7404 206.8206 L 299.4897 209.3421 L 301.4594 210.6892 L 305.1353 213.8646 L 306.4199 214.8091 L 307.8322 215.5761 L 310.078 216.5445 L 314.1103 218.8409 L 317.0296 220.1737 L 317.6781 220.6012 L 318.8555 221.6315 L 319.8533 222.8476 L 320.2687 223.517 L 321.5694 226.5316 L 323.7928 230.705 L 325.0112 233.8197 L 327.2364 238.0134 L 329.0713 243.3256 L 329.8234 246.3187 L 328.4531 248.9045 L 327.1927 252.0192 L 324.938 256.1998 L 323.6695 259.2918 L 321.4059 263.4629 L 320.1249 266.5478 L 317.83 270.6974 L 316.5454 273.7704 L 315.0804 276.5444 L 314.4364 278.0058 L 313.8763 280.5416 L 313.6806 283.1941 L 313.7619 296.3137 L 313.6637 299.2044 L 313.4564 301.091 L 313.276 302.0129 L 312.7337 303.6685 L 310.9748 307.1714 L 309.9949 309.4142 L 309.1784 310.8149 L 307.5919 312.5634 L 306.3332 313.4888 L 303.4291 314.8645 L 300.0275 316.6713 L 298.5187 317.2335 L 294.4702 318.0828 L 292.8927 318.5401 L 288.7138 320.5316 L 287.138 321.0199 L 283.1262 321.9942 L 281.6675 322.5921 L 278.9662 324.0297 L 277.4493 324.5657 L 276.6329 324.7265 L 274.1432 324.7849 L 272.5192 324.443 L 271.7465 324.1215 L 270.4566 323.2353 L 269.4141 322.1109 L 268.6271 320.8401 L 267.5418 318.0768 L 266.8227 316.925 L 266.3769 316.4331 L 265.2487 315.7054 L 264.5233 315.5613 L 263.7738 315.6446 L 263.1083 315.9162 L 262.5295 316.3212 L 262.031 316.8262 L 261.2619 318.0899 L 260.9948 318.8951 L 260.7348 320.5971 L 260.675 323.3091 L 260.8617 333.7405 L 260.6857 336.5216 L 260.1444 339.1801 L 258.272 343.5013 L 257.1232 348.3882 L 256.5658 349.9854 L 256.1915 350.6953 L 255.2678 351.9995 L 254.1753 353.1608 L 250.5932 356.0182 L 250.4083 350.4904 L 249.9563 347.9618 L 249.1943 346.3015 L 248.6262 345.5297 L 247.2246 344.2504 L 245.555 343.4286 L 242.8956 342.9534 L 233.8608 342.8795 L 231.8116 340.7023 L 230.5637 339.9805 L 229.221 339.4362 L 221.5976 331.5692 L 220.0406 329.6504 L 219.1929 328.2723 L 216.8569 322.5933 L 216.6925 321.9204 L 216.6416 321.2319 L 216.7309 320.553 L 216.9266 319.9075 L 218.053 317.3217 L 218.4094 315.915 L 218.5845 313.6603 L 218.4595 312.1334 L 218.3067 311.3783 L 217.7493 309.9013 L 216.9024 308.5471 L 215.3669 306.6795 L 211.6901 302.6358 Z" fill="#000000" fill-opacity="1" stroke="#000000" stroke-width="0" paint-order="fill" stroke-opacity="1" stroke-dasharray="" stroke-linecap="butt" stroke-linejoin="miter" stroke-miterlimit="10" transform="matrix(0.8999999761581421,0,0,0.8999999761581421,40.00008010864258,26.649959564208984)" clip-path="none" style="filter: url(#f1)"/>
<path data-code="203" d="M 514.6612 466.8992 L 513.8537 466.942 L 513.6839 462.5029 L 513.1846 459.9445 L 512.5718 458.4617 L 511.155 455.6781 L 509.8142 452.685 L 508.9057 451.3951 L 507.8042 450.2743 L 506.5474 449.3536 L 503.6459 447.9779 L 500.3014 446.04 L 496.5925 444.4333 L 493.1809 442.6193 L 491.6927 442.0583 L 486.8903 440.953 L 485.3664 440.2669 L 483.9692 439.3046 L 482.6588 438.1838 L 478.8917 434.5177 L 476.9577 432.7775 L 474.8924 431.3375 L 471.9472 429.9428 L 470.4956 429.009 L 468.4839 427.2915 L 466.6955 425.3131 L 465.7093 423.8267 L 465.0376 422.1759 L 464.7035 420.4524 L 464.5677 418.6896 L 464.5873 416.0097 L 464.8232 413.3286 L 465.369 410.7464 L 466.1899 408.344 L 465.2225 405.8773 L 463.9335 401.8313 L 461.9896 397.5173 L 461.3929 394.673 L 461.1794 391.6977 L 461.1035 379.4881 L 461.2035 376.4759 L 461.4063 374.513 L 461.8476 372.6216 L 462.1978 371.7236 L 464.6945 367.2845 L 465.7013 366.1553 L 466.3999 365.7027 L 467.9587 365.1596 L 469.6434 364.9202 L 471.4041 364.8535 L 475.0184 365.05 L 476.8104 365.3347 L 478.5398 365.8302 L 482.7204 367.899 L 487.4567 369.4034 L 490.4305 370.5182 L 491.3443 371.6664 L 492.1036 372.8551 L 493.1256 375.0109 L 493.9197 376.383 L 495.4669 378.1362 L 496.7023 379.0831 L 497.4116 379.4869 L 499.577 380.5172 L 502.9545 382.3788 L 504.5491 382.9577 L 505.4343 383.1506 L 508.1633 383.4365 L 511.8589 383.4401 L 515.4902 383.0589 L 517.2142 382.5884 L 520.674 380.8983 L 522.1694 380.3552 L 523.7988 380.0205 L 528.8289 379.4595 L 530.4672 379.1379 L 531.9805 378.6079 L 535.4483 376.9488 L 537.0187 376.4842 L 540.2453 375.7887 L 541.8175 375.2932 L 545.9052 373.0885 L 548.8844 371.7783 L 552.2798 369.9381 L 553.8547 369.3736 L 556.5247 368.9615 L 562.0221 368.7268 L 564.7234 368.4457 L 566.4439 368.0146 L 569.9224 366.3876 L 571.425 365.8611 L 573.0561 365.5419 L 578.0872 365.0012 L 580.5223 364.4259 L 581.9409 363.7791 L 584.6503 362.2963 L 587.6339 360.979 L 591.6555 358.6147 L 594.6418 357.2986 L 598.7492 355.1249 L 600.3259 354.6389 L 603.556 353.9517 L 605.1264 353.4872 L 608.5951 351.8304 L 610.1084 351.3027 L 611.7485 350.9859 L 616.7893 350.4595 L 618.4294 350.1415 L 619.9427 349.6138 L 623.4114 347.957 L 624.9818 347.4937 L 628.212 346.8065 L 629.7877 346.3193 L 633.8951 344.1433 L 636.8814 342.8247 L 640.9084 340.47 L 643.9019 339.1813 L 646.9909 337.6138 L 648.5801 337.079 L 651.7933 336.6443 L 652.3569 339.7339 L 653.9934 343.7836 L 654.5223 346.4075 L 654.7394 351.0288 L 654.6527 363.2634 L 654.8385 366.0172 L 655.1521 367.7954 L 655.6988 369.401 L 657.4862 372.9003 L 658.761 375.9768 L 661.0139 380.1503 L 662.2547 383.2554 L 664.4531 387.4361 L 665.4178 389.6896 L 665.7948 390.4257 L 666.6908 391.7144 L 667.7779 392.8423 L 669.0223 393.7725 L 672.5803 395.5186 L 675.9579 397.4279 L 679.6794 399.0001 L 683.9145 401.2882 L 682.1681 403.07 L 679.9607 405.3223 L 678.6771 406.1953 L 672.859 410.1485 L 666.5139 412.9808 L 665.4107 413.2488 L 661.2756 414.2553 L 655.2289 415.1224 L 644.5361 418.5991 L 642.921 419.9081 L 641.1978 422.2187 L 636.3195 426.2898 L 628.4621 429.7832 L 627.8716 430.0464 L 624.1617 432.4524 L 615.5548 438.0325 L 607.5491 441.6212 L 598.5134 444.7037 L 595.4824 446.6427 L 591.7779 449.0141 L 590.4361 449.8729 L 587.122 451.4975 L 584.7574 452.0097 L 579.0341 453.3067 L 572.7828 453.8689 L 559.2332 455.0886 L 556.7275 455.7913 L 548.9746 459.237 L 548.2358 459.5658 L 545.6604 460.7116 L 536.7802 461.4834 L 536.6489 461.4941 L 529.7052 462.6471 L 517.7833 466.3263 L 514.6612 466.8992 Z" fill="#000000" fill-opacity="1" stroke="#000000" stroke-width="0" paint-order="fill" stroke-opacity="1" stroke-dasharray="" stroke-linecap="butt" stroke-linejoin="miter" stroke-miterlimit="10" transform="matrix(0.8999999761581421,0,0,0.8999999761581421,40.00008010864258,26.649959564208984)" clip-path="none" style="filter: url(#f1)"/>
<path data-code="204" d="M 211.6901 302.6358 L 207.8426 307.0094 L 200.0334 315.2016 L 196.7121 318.4591 L 194.5923 320.154 L 193.1014 321.0021 L 190.8816 322.0037 L 187.4736 323.8106 L 185.8835 324.3478 L 183.2001 324.7051 L 177.7099 324.848 L 175.9152 325.0005 L 174.1831 325.3697 L 173.3604 325.6889 L 172.049 326.5036 L 170.9369 327.5255 L 170.0257 328.6666 L 168.4231 331.0332 L 167.3092 331.9241 L 162.221 335.1781 L 159.249 336.4942 L 156.5414 337.9759 L 155.1139 338.6286 L 152.4858 339.2194 L 147.8933 339.4433 L 130.1096 339.3063 L 126.3854 339.0896 L 123.634 338.737 L 122.9096 336.0357 L 121.3177 332.4589 L 120.7898 330.8224 L 119.6062 322.4206 L 119.0809 320.796 L 117.5337 317.1942 L 117.1094 315.4243 L 116.7637 311.6986 L 116.5278 303.0682 L 116.0874 298.9352 L 117.3238 296.1017 L 119.2328 292.5058 L 119.9938 289.9605 L 120.3387 285.9812 L 120.3092 277.5341 L 122.2217 276.7838 L 122.7899 276.3907 L 123.2776 275.894 L 124.924 273.4202 L 125.9387 272.116 L 130.6473 266.8979 L 132.3419 264.8791 L 133.7497 262.7221 L 135.0522 259.6432 L 137.2747 255.472 L 138.5619 252.3931 L 139.4311 250.952 L 141.0176 248.9236 L 143.9619 245.6898 L 147.6128 241.9058 L 150.1552 239.6023 L 151.5478 238.6542 L 153.1048 237.9884 L 154.7655 237.6406 L 156.4672 237.4894 L 159.0623 237.4584 L 162.5568 237.6418 L 164.9187 237.9431 L 167.8773 238.4732 L 168.9448 239.6237 L 170.0471 240.4706 L 173.5828 242.15 L 176.855 243.9235 L 176.6442 249.5977 L 176.5102 261.4393 L 176.5816 265.3495 L 176.8693 268.2081 L 177.0578 269.1336 L 177.6089 270.7844 L 179.358 274.3075 L 180.6086 277.3996 L 182.4962 280.8644 L 184.2372 284.5209 L 185.1421 285.8013 L 186.826 287.4176 L 188.1525 288.2549 L 190.2634 289.3221 L 191.5265 290.1428 L 195.9492 293.7815 L 197.249 294.7176 L 198.5184 295.4096 L 200.9035 296.4447 L 204.926 298.7947 L 207.9525 300.112 L 209.254 300.8874 L 211.6901 302.6358 Z" fill="#000000" fill-opacity="1" stroke="#000000" stroke-width="0" paint-order="fill" stroke-opacity="1" stroke-dasharray="" stroke-linecap="butt" stroke-linejoin="miter" stroke-miterlimit="10" transform="matrix(0.8999999761581421,0,0,0.8999999761581421,40.00008010864258,26.649959564208984)" clip-path="none" style="filter: url(#f1)"/>
<path data-code="205" d="M 495.4526 469.0848 L 492.8272 470.2484 L 490.7887 470.4759 L 483.184 470.5331 L 470.7413 472.0184 L 460.0583 475.2997 L 454.5976 476.9803 L 443.2277 479.6995 L 440.4602 479.3779 L 425.1866 473.9467 L 424.7355 473.8204 L 410.0068 469.6731 L 407.3028 469.3301 L 407.5744 467.1743 L 407.3885 465.77 L 407.1572 465.128 L 406.3809 464.0966 L 404.8453 463.1997 L 398.293 456.3594 L 396.2482 454.4775 L 394.8055 453.3806 L 393.3075 452.5373 L 391.0823 451.544 L 386.9668 449.4167 L 385.3857 448.9581 L 382.1493 448.3245 L 380.5637 447.8707 L 376.4232 445.7816 L 373.4361 444.4595 L 371.9737 443.5138 L 370.6168 442.3823 L 368.7712 440.4563 L 367.71 439.0259 L 366.8792 437.437 L 366.5898 436.5544 L 366.2521 434.7356 L 366.1119 432.874 L 366.3066 399.5921 L 370.9134 398.1759 L 374.6483 397.7686 L 399.7785 397.6733 L 404.5452 397.8281 L 407.3019 398.2712 L 408.9045 398.8489 L 412.2928 400.6843 L 415.2478 402.0421 L 419.2596 404.4409 L 422.2155 405.7999 L 425.4591 407.5353 L 426.3247 407.8998 L 428.172 408.3881 L 431.069 408.7085 L 435.0317 408.7978 L 459.0685 408.7002 L 466.1899 408.344 L 465.369 410.7464 L 464.8232 413.3286 L 464.5873 416.0097 L 464.5677 418.6896 L 464.7035 420.4524 L 465.0376 422.1759 L 465.7093 423.8267 L 466.6955 425.3131 L 468.4839 427.2915 L 470.4956 429.009 L 471.9472 429.9428 L 474.8924 431.3375 L 476.9577 432.7775 L 478.8917 434.5177 L 482.6588 438.1838 L 483.9692 439.3046 L 485.3664 440.2669 L 486.8903 440.953 L 491.6927 442.0583 L 493.1809 442.6193 L 496.5925 444.4333 L 500.3014 446.04 L 503.6459 447.9779 L 506.5474 449.3536 L 507.8042 450.2743 L 508.9057 451.3951 L 509.8142 452.685 L 511.155 455.6781 L 512.5718 458.4617 L 513.1846 459.9445 L 513.6839 462.5029 L 513.8537 466.942 L 514.6612 466.8992 L 513.2194 467.1636 L 506.6698 468.3677 L 505.5245 468.5333 L 499.3626 469.4218 L 495.9752 468.8537 L 495.4526 469.0848 Z" fill="#000000" fill-opacity="1" stroke="#000000" stroke-width="0" paint-order="fill" stroke-opacity="1" stroke-dasharray="" stroke-linecap="butt" stroke-linejoin="miter" stroke-miterlimit="10" transform="matrix(0.8999999761581421,0,0,0.8999999761581421,40.00008010864258,26.649959564208984)" clip-path="none" style="filter: url(#f1)"/>
<path data-code="206" d="M 290.8819 205.701 L 292.681 202.3303 L 294.0674 200.215 L 296.2533 197.7245 L 297.4449 196.5906 L 298.7009 195.5639 L 300.04 194.7039 L 303.0236 193.3926 L 307.0792 191.1069 L 310.7953 189.5478 L 315.8478 186.7559 L 317.8193 185.8114 L 321.1593 183.8474 L 324.1501 182.5479 L 328.2602 180.3766 L 329.8377 179.8918 L 333.0724 179.2106 L 334.6463 178.752 L 338.1347 177.1262 L 339.6533 176.6307 L 341.2943 176.3591 L 345.4713 176.0697 L 347.1123 175.8482 L 348.7024 175.3539 L 350.0486 174.5106 L 351.1617 173.3731 L 351.9808 171.9748 L 352.2524 171.1506 L 352.4873 169.4593 L 352.4203 167.7656 L 352.1005 166.1267 L 351.5351 164.6712 L 350.5229 162.7989 L 350.0164 161.5232 L 349.903 160.0713 L 350.0468 159.3579 L 350.3461 158.6885 L 351.3073 157.6868 L 355.5799 155.0427 L 359.9785 153.0834 L 363.3891 151.0014 L 367.6868 148.7931 L 368.4908 151.4385 L 370.4605 156.7804 L 370.8008 157.5641 L 371.7245 159.1471 L 373.4289 161.3482 L 375.9846 164.0947 L 378.0356 165.9909 L 380.2689 167.5738 L 381.0818 167.9681 L 382.6897 168.4505 L 387.5109 169.0698 L 388.9714 169.3664 L 390.2292 169.8797 L 392.2043 171.3817 L 392.8653 171.7045 L 394.3964 172.1201 L 396.099 172.331 L 398.8218 172.437 L 411.0886 172.3393 L 412.9243 172.4977 L 414.7127 172.8681 L 416.3832 173.5887 L 418.5628 175.2157 L 420.5415 177.1441 L 426.7213 183.6973 L 428.725 185.3707 L 430.2213 186.2223 L 431.9141 186.7333 L 434.5627 187.0239 L 446.3891 186.8905 L 448.1721 187.0132 L 449.9167 187.3384 L 451.5622 188.0125 L 453.0236 188.9999 L 454.9701 190.8139 L 456.6272 192.9161 L 457.4633 194.5169 L 457.7402 195.3578 L 458.0707 197.0896 L 458.2485 199.7481 L 458.2021 203.3308 L 457.9707 205.9857 L 457.6366 207.7044 L 457.072 209.2837 L 455.2247 212.7652 L 454.2322 215.0521 L 453.422 216.5659 L 452.4063 218.0071 L 449.6353 221.4814 L 448.6375 222.9262 L 446.8125 226.7055 L 445.3243 228.8839 L 444.1406 230.2131 L 442.1941 232.02 L 440.0815 233.4719 L 437.9304 234.4795 L 436.5914 235.2835 L 435.4328 236.3162 L 434.4671 237.5644 L 434.0821 238.2683 L 433.5336 239.8846 L 432.6492 245.448 L 429.2949 249.3035 L 423.3009 255.6459 L 420.8586 257.7815 L 418.9058 258.9107 L 417.2354 259.3871 L 415.48 259.6086 L 407.2706 259.7313 L 403.6921 260.0648 L 402.0002 260.5103 L 398.5458 262.1873 L 396.9861 262.7637 L 394.3249 263.2461 L 390.6553 263.4236 L 387.0026 263.1794 L 385.2356 262.7816 L 384.3852 262.4612 L 383.6072 262.061 L 382.1707 261.0748 L 378.8503 258.227 L 376.7582 256.7096 L 373.8282 255.2755 L 370.4337 253.4282 L 368.8418 252.8577 L 367.0499 252.5146 L 362.4824 252.0192 L 360.703 251.6773 L 359.1334 251.1306 L 355.6621 249.5001 L 353.9023 249.0463 L 350.1897 248.7008 L 341.5962 248.6723 L 337.822 248.5031 L 335.1001 248.0279 L 329.8234 246.3187 L 329.0713 243.3256 L 327.2364 238.0134 L 325.0112 233.8197 L 323.7928 230.705 L 321.5694 226.5316 L 320.2687 223.517 L 319.8533 222.8476 L 318.8555 221.6315 L 317.6781 220.6012 L 317.0296 220.1737 L 314.1103 218.8409 L 310.078 216.5445 L 307.8322 215.5761 L 306.4199 214.8091 L 305.1353 213.8646 L 301.4594 210.6892 L 299.4897 209.3421 L 293.7404 206.8206 L 290.8819 205.701 Z" fill="#000000" fill-opacity="1" stroke="#000000" stroke-width="0" paint-order="fill" stroke-opacity="1" stroke-dasharray="" stroke-linecap="butt" stroke-linejoin="miter" stroke-miterlimit="10" transform="matrix(0.8999999761581421,0,0,0.8999999761581421,40.00008010864258,26.649959564208984)" clip-path="none" style="filter: url(#f1)"/>
<path data-code="207" d="M 366.3066 399.5921 L 363.4802 400.8034 L 359.531 402.0957 L 355.4602 404.373 L 352.473 405.6713 L 349.7744 407.1708 L 348.3612 407.8259 L 345.9233 408.3952 L 340.8726 408.8788 L 339.2299 409.1837 L 337.7166 409.7126 L 334.2596 411.3955 L 332.6873 411.8553 L 329.4491 412.5223 L 327.8698 413.0047 L 323.7651 415.2117 L 320.7743 416.5481 L 316.7902 418.9838 L 312.02 421.1647 L 310.7238 421.566 L 310.0253 421.603 L 309.2865 421.4696 L 307.9358 420.8109 L 306.0947 419.2792 L 302.4796 415.5774 L 300.5509 413.792 L 298.4302 412.2924 L 294.9473 410.4201 L 292.1977 408.2833 L 289.658 405.8559 L 287.9152 403.899 L 286.4716 401.7455 L 286.1143 400.9547 L 285.6668 399.2776 L 285.4586 397.5506 L 285.1924 393.1925 L 284.9253 391.4905 L 284.6958 390.6662 L 284.0669 389.2096 L 281.4611 384.6121 L 280.4463 383.5675 L 277.9344 381.9631 L 276.0343 380.4064 L 273.5465 378.0136 L 268.0161 372.3655 L 265.4398 370.1108 L 264.0454 369.2116 L 261.0484 367.9062 L 257.6717 366.0183 L 254.0914 364.3652 L 252.8541 363.4325 L 251.8152 362.2582 L 251.3909 361.5912 L 250.7942 360.0606 L 250.5584 358.3979 L 250.5932 356.0182 L 254.1753 353.1608 L 255.2678 351.9995 L 256.1915 350.6953 L 256.5658 349.9854 L 257.1232 348.3882 L 258.272 343.5013 L 260.1444 339.1801 L 260.6857 336.5216 L 260.8617 333.7405 L 260.675 323.3091 L 260.7348 320.5971 L 260.9948 318.8951 L 261.2619 318.0899 L 262.031 316.8262 L 262.5295 316.3212 L 263.1083 315.9162 L 263.7738 315.6446 L 264.5233 315.5613 L 265.2487 315.7054 L 266.3769 316.4331 L 266.8227 316.925 L 267.5418 318.0768 L 268.6271 320.8401 L 269.4141 322.1109 L 270.4566 323.2353 L 271.7465 324.1215 L 272.5192 324.443 L 274.1432 324.7849 L 276.6329 324.7265 L 277.4493 324.5657 L 278.9662 324.0297 L 281.6675 322.5921 L 283.1262 321.9942 L 287.138 321.0199 L 288.7138 320.5316 L 292.8927 318.5401 L 294.4702 318.0828 L 298.5187 317.2335 L 300.0275 316.6713 L 303.4291 314.8645 L 306.3332 313.4888 L 307.5919 312.5634 L 309.1784 310.8149 L 309.9949 309.4142 L 310.9748 307.1714 L 312.7337 303.6685 L 313.276 302.0129 L 313.4564 301.091 L 313.6637 299.2044 L 313.7619 296.3137 L 313.6806 283.1941 L 313.8763 280.5416 L 314.4364 278.0058 L 315.0804 276.5444 L 316.5454 273.7704 L 317.83 270.6974 L 320.1249 266.5478 L 321.4059 263.4629 L 323.6695 259.2918 L 324.938 256.1998 L 327.1927 252.0192 L 328.4531 248.9045 L 329.8234 246.3187 L 335.1001 248.0279 L 337.822 248.5031 L 341.5962 248.6723 L 350.1897 248.7008 L 353.9023 249.0463 L 355.6621 249.5001 L 359.1334 251.1306 L 360.703 251.6773 L 362.4824 252.0192 L 367.0499 252.5146 L 368.8418 252.8577 L 370.4337 253.4282 L 373.8282 255.2755 L 376.7582 256.7096 L 378.8503 258.227 L 382.1707 261.0748 L 383.6072 262.061 L 384.3852 262.4612 L 385.2356 262.7816 L 387.0026 263.1794 L 390.6553 263.4236 L 394.3249 263.2461 L 396.9861 262.7637 L 398.5458 262.1873 L 402.0002 260.5103 L 403.6921 260.0648 L 407.2706 259.7313 L 415.48 259.6086 L 417.2354 259.3871 L 418.9058 258.9107 L 420.8586 257.7815 L 423.3009 255.6459 L 429.2949 249.3035 L 432.6492 245.448 L 435.0397 247.2025 L 437.0604 249.0534 L 438.7674 251.1568 L 439.6063 252.7552 L 439.8885 253.6426 L 440.1985 255.4732 L 440.3003 257.342 L 440.3173 262.9722 L 440.5031 264.7957 L 441.0061 266.5478 L 441.8341 267.9211 L 442.9418 269.0442 L 443.5814 269.5004 L 445.0536 270.1579 L 446.6562 270.4711 L 451.5836 270.7975 L 453.1924 271.1131 L 453.9723 271.3954 L 454.6691 271.7587 L 455.9161 272.7079 L 456.9577 273.8835 L 457.3891 274.5422 L 460.7372 281.7815 L 462.238 288.4217 L 464.0889 292.7643 L 464.5096 294.5723 L 465.0501 300.2501 L 465.5923 303.0277 L 468.4857 309.5631 L 468.8671 310.2991 L 469.7863 311.5795 L 470.9235 312.6694 L 472.2661 313.5114 L 473.1237 313.8426 L 474.9103 314.213 L 477.6894 314.3678 L 487.2128 314.2201 L 489.087 314.3249 L 490.9182 314.5929 L 491.8079 314.824 L 493.3757 315.5017 L 494.687 316.3771 L 496.5174 317.891 L 496.5621 353.3954 L 496.2896 358.3515 L 495.9153 360.2584 L 495.2507 361.9937 L 491.9268 367.2392 L 490.4305 370.5182 L 487.4567 369.4034 L 482.7204 367.899 L 478.5398 365.8302 L 476.8104 365.3347 L 475.0184 365.05 L 471.4041 364.8535 L 469.6434 364.9202 L 467.9587 365.1596 L 466.3999 365.7027 L 465.7013 366.1553 L 464.6945 367.2845 L 462.1978 371.7236 L 461.8476 372.6216 L 461.4063 374.513 L 461.2035 376.4759 L 461.1035 379.4881 L 461.1794 391.6977 L 461.3929 394.673 L 461.9896 397.5173 L 463.9335 401.8313 L 465.2225 405.8773 L 466.1899 408.344 L 459.0685 408.7002 L 435.0317 408.7978 L 431.069 408.7085 L 428.172 408.3881 L 426.3247 407.8998 L 425.4591 407.5353 L 422.2155 405.7999 L 419.2596 404.4409 L 415.2478 402.0421 L 412.2928 400.6843 L 408.9045 398.8489 L 407.3019 398.2712 L 404.5452 397.8281 L 399.7785 397.6733 L 374.6483 397.7686 L 370.9134 398.1759 L 366.3066 399.5921 Z" fill="#000000" fill-opacity="1" stroke="#000000" stroke-width="0" paint-order="fill" stroke-opacity="1" stroke-dasharray="" stroke-linecap="butt" stroke-linejoin="miter" stroke-miterlimit="10" transform="matrix(0.8999999761581421,0,0,0.8999999761581421,40.00008010864258,26.649959564208984)" clip-path="none" style="filter: url(#f1)"/>
<path data-code="208" d="M 596.9001 209.9162 L 591.4215 211.9327 L 588.8336 212.421 L 584.343 212.6068 L 572.5103 212.5008 L 569.8429 212.6747 L 568.1171 212.9844 L 566.5547 213.5394 L 563.1584 215.3689 L 560.198 216.7339 L 558.0755 218.2691 L 556.1692 220.1391 L 555.0169 221.4993 L 554.003 222.9429 L 553.2097 224.4567 L 552.1949 226.734 L 551.3079 228.1776 L 549.6964 230.2191 L 544.9655 235.4276 L 543.8917 236.7878 L 542.9761 238.2338 L 541.6335 241.2912 L 539.8629 244.8073 L 539.3448 246.3854 L 539.0572 248.091 L 538.6454 253.3222 L 538.3542 255.023 L 538.1156 255.846 L 537.4787 257.3015 L 535.2419 261.2606 L 534.3638 262.4469 L 533.8126 262.9234 L 531.2748 264.5277 L 529.9661 265.5258 L 526.1079 269.0478 L 524.2847 270.963 L 523.1734 272.3137 L 522.2239 273.7787 L 521.8487 274.5767 L 521.3699 276.2764 L 521.1644 278.0272 L 521.1376 279.7948 L 521.2546 281.5552 L 521.5262 283.2739 L 522.0032 284.8961 L 523.6755 288.2502 L 524.0935 289.7318 L 524.1525 290.5251 L 524.0453 291.6459 L 523.5817 292.9227 L 522.683 294.184 L 521.5414 295.2012 L 520.3363 295.9027 L 518.5989 296.6305 L 517.3259 297.2891 L 515.9806 298.2337 L 514.0466 299.8964 L 509.1094 304.8333 L 503.1466 311.2139 L 501.0831 313.7866 L 499.4054 316.3831 L 499.0124 316.7773 L 498.0771 317.3526 L 496.5174 317.891 L 494.687 316.3771 L 493.3757 315.5017 L 491.8079 314.824 L 490.9182 314.5929 L 489.087 314.3249 L 487.2128 314.2201 L 477.6894 314.3678 L 474.9103 314.213 L 473.1237 313.8426 L 472.2661 313.5114 L 470.9235 312.6694 L 469.7863 311.5795 L 468.8671 310.2991 L 468.4857 309.5631 L 465.5923 303.0277 L 465.0501 300.2501 L 464.5096 294.5723 L 464.0889 292.7643 L 462.238 288.4217 L 460.7372 281.7815 L 457.3891 274.5422 L 456.9577 273.8835 L 455.9161 272.7079 L 454.6691 271.7587 L 453.9723 271.3954 L 453.1924 271.1131 L 451.5836 270.7975 L 446.6562 270.4711 L 445.0536 270.1579 L 443.5814 269.5004 L 442.9418 269.0442 L 441.8341 267.9211 L 441.0061 266.5478 L 440.5031 264.7957 L 440.3173 262.9722 L 440.3003 257.342 L 440.1985 255.4732 L 439.8885 253.6426 L 439.6063 252.7552 L 438.7674 251.1568 L 437.0604 249.0534 L 435.0397 247.2025 L 432.6492 245.448 L 433.5336 239.8846 L 434.0821 238.2683 L 434.4671 237.5644 L 435.4328 236.3162 L 436.5914 235.2835 L 437.9304 234.4795 L 440.0815 233.4719 L 442.1941 232.02 L 444.1406 230.2131 L 445.3243 228.8839 L 446.8125 226.7055 L 448.6375 222.9262 L 449.6353 221.4814 L 452.4063 218.0071 L 453.422 216.5659 L 454.2322 215.0521 L 455.2247 212.7652 L 457.072 209.2837 L 457.6366 207.7044 L 457.9707 205.9857 L 458.2021 203.3308 L 458.2485 199.7481 L 458.0707 197.0896 L 457.7402 195.3578 L 457.4633 194.5169 L 456.6272 192.9161 L 454.9701 190.8139 L 453.0236 188.9999 L 451.5622 188.0125 L 449.9167 187.3384 L 448.1721 187.0132 L 446.3891 186.8905 L 434.5627 187.0239 L 431.9141 186.7333 L 430.2213 186.2223 L 428.725 185.3707 L 426.7213 183.6973 L 420.5415 177.1441 L 418.5628 175.2157 L 416.3832 173.5887 L 414.7127 172.8681 L 412.9243 172.4977 L 411.0886 172.3393 L 398.8218 172.437 L 396.099 172.331 L 394.3964 172.1201 L 392.8653 171.7045 L 392.2043 171.3817 L 390.2292 169.8797 L 388.9714 169.3664 L 387.5109 169.0698 L 382.6897 168.4505 L 381.0818 167.9681 L 380.2689 167.5738 L 378.0356 165.9909 L 375.9846 164.0947 L 373.4289 161.3482 L 371.7245 159.1471 L 370.8008 157.5641 L 370.4605 156.7804 L 368.4908 151.4385 L 367.6868 148.7931 L 372.7697 144.8936 L 374.0614 144.0908 L 376.2196 143.0736 L 377.5586 142.2542 L 378.7047 141.2061 L 379.2068 140.6046 L 380.0223 139.2551 L 380.3243 138.4738 L 381.1711 134.3836 L 381.6222 132.765 L 382.2913 131.3214 L 384.8721 126.7525 L 384.4647 122.3896 L 384.328 118.633 L 384.2557 103.5708 L 384.471 98.959 L 384.7792 97.1807 L 385.325 95.5728 L 387.1285 92.0842 L 388.1147 89.7985 L 388.9214 88.3061 L 390.482 86.2396 L 395.2182 81.0418 L 396.8369 79.0086 L 397.7311 77.5687 L 399.5329 73.7954 L 401.0434 71.6943 L 403.9851 68.4165 L 407.1858 65.4293 L 409.2841 63.9869 L 412.2651 62.6375 L 416.3171 60.3339 L 419.3203 59.0404 L 423.3688 56.7167 L 426.3506 55.4637 L 429.6165 53.7974 L 430.9618 53.4055 L 431.8471 53.2995 L 434.6538 54.3465 L 440.3781 56.8679 L 441.8136 57.8172 L 446.5016 61.7382 L 448.0059 62.6029 L 449.655 63.1187 L 452.2455 63.4414 L 454.9022 63.5177 L 480.9785 63.3712 L 484.4632 63.6856 L 486.1257 64.1251 L 486.8492 64.4312 L 490.2206 66.2928 L 493.1711 67.6697 L 495.299 69.1967 L 497.9208 71.6681 L 508.0722 82.3305 L 511.9661 86.1407 L 514.0386 87.763 L 515.4982 88.58 L 517.7011 89.6246 L 518.9973 90.4619 L 520.8401 91.9722 L 525.7917 96.6162 L 528.2304 99.352 L 530.201 101.222 L 532.3315 102.7632 L 535.2446 104.2199 L 536.6274 105.1525 L 538.5766 106.8379 L 543.5675 111.7141 L 544.9101 112.7753 L 546.3849 113.6186 L 548.0027 114.1236 L 550.5334 114.4393 L 562.7796 114.4821 L 568.327 114.8835 L 569.775 116.8261 L 571.3964 118.7271 L 574.2371 121.7881 L 577.1474 124.7634 L 578.9412 126.4571 L 580.1811 127.4921 L 581.4835 128.389 L 582.7699 129.0786 L 585.7731 133.1235 L 588.9086 136.8968 L 590.0476 138.4749 L 590.9569 140.2044 L 591.4876 142.0779 L 591.7448 144.0241 L 591.869 147.0101 L 591.6171 180.5969 L 591.7689 186.6261 L 592.0048 188.5747 L 592.4586 190.4482 L 594.3765 194.7718 L 596.3828 201.3977 L 596.0872 203.4035 L 596.0041 205.2758 L 596.2051 207.0922 L 596.9001 209.9162 Z" fill="#000000" fill-opacity="1" stroke="#000000" stroke-width="0" paint-order="fill" stroke-opacity="1" stroke-dasharray="" stroke-linecap="butt" stroke-linejoin="miter" stroke-miterlimit="10" transform="matrix(0.8999999761581421,0,0,0.8999999761581421,40.00008010864258,26.649959564208984)" clip-path="none" style="filter: url(#f1)"/>
<path data-code="209" d="M 291.7091 430.237 L 291.5536 430.1215 L 288.8568 426.3124 L 288.1225 425.7252 L 287.7491 425.4251 L 277.9594 420.6692 L 271.2561 417.9678 L 261.0502 412.0054 L 254.7944 409.2766 L 251.3203 407.7628 L 249.1425 407.2101 L 245.1628 407.2113 L 236.0253 406.1906 L 229.8919 404.641 L 225.0377 404.1539 L 218.8141 402.3708 L 217.9288 402.1171 L 215.0194 402.1136 L 213.2846 402.5971 L 209.7909 404.4969 L 202.7606 403.8239 L 201.326 404.1634 L 199.9048 404.8435 L 199.7949 404.8959 L 196.2815 408.0153 L 192.2206 409.5899 L 191.6185 406.1596 L 191.4283 406.2216 L 190.6966 402.06 L 190.4528 399.1812 L 190.3885 393.4176 L 190.6573 389.6538 L 191.2505 386.9751 L 192.8468 383.3972 L 193.3756 381.7892 L 193.7982 379.0486 L 194.1037 373.3744 L 194.3913 370.5718 L 194.804 368.7745 L 196.3074 365.1179 L 196.7809 363.4957 L 197.4643 357.4332 L 198.0047 355.9658 L 198.5362 355.3381 L 199.1821 354.9331 L 199.8824 354.7235 L 201.3135 354.7949 L 202.5605 355.325 L 204.9456 356.8352 L 207.7301 358.2848 L 210.8084 360.1011 L 212.1983 360.4465 L 213.6392 360.2655 L 214.3038 359.9392 L 214.8559 359.4687 L 215.65 358.3276 L 217.7949 354.4603 L 219.6404 349.9247 L 222.3382 345.3534 L 223.2538 344.2683 L 223.8202 343.8645 L 225.6988 343.0677 L 226.6162 343.911 L 227.5809 344.6518 L 228.6511 345.1557 L 229.2425 345.2533 L 229.8964 345.1997 L 230.5199 345.0115 L 231.1193 344.7316 L 232.2181 344.0635 L 233.8608 342.8795 L 242.8956 342.9534 L 245.555 343.4286 L 247.2246 344.2504 L 248.6262 345.5297 L 249.1943 346.3015 L 249.9563 347.9618 L 250.4083 350.4904 L 250.5932 356.0182 L 250.5584 358.3979 L 250.7942 360.0606 L 251.3909 361.5912 L 251.8152 362.2582 L 252.8541 363.4325 L 254.0914 364.3652 L 257.6717 366.0183 L 261.0484 367.9062 L 264.0454 369.2116 L 265.4398 370.1108 L 268.0161 372.3655 L 273.5465 378.0136 L 276.0343 380.4064 L 277.9344 381.9631 L 280.4463 383.5675 L 281.4611 384.6121 L 284.0669 389.2096 L 284.6958 390.6662 L 284.9253 391.4905 L 285.1924 393.1925 L 285.4586 397.5506 L 285.6668 399.2776 L 286.1143 400.9547 L 286.4716 401.7455 L 287.9152 403.899 L 289.658 405.8559 L 292.1977 408.2833 L 294.9473 410.4201 L 293.2714 415.3439 L 292.8382 416.9769 L 292.5005 419.7723 L 292.3004 425.4894 L 292.0771 428.3122 L 291.7385 430.1369 L 291.7091 430.237 Z" fill="#000000" fill-opacity="1" stroke="#000000" stroke-width="0" paint-order="fill" stroke-opacity="1" stroke-dasharray="" stroke-linecap="butt" stroke-linejoin="miter" stroke-miterlimit="10" transform="matrix(0.8999999761581421,0,0,0.8999999761581421,40.00008010864258,26.649959564208984)" clip-path="none" style="filter: url(#f1)"/>
<path data-code="210" d="M 496.5174 317.891 L 498.0771 317.3526 L 499.0124 316.7773 L 499.4054 316.3831 L 501.0831 313.7866 L 503.1466 311.2139 L 509.1094 304.8333 L 514.0466 299.8964 L 515.9806 298.2337 L 517.3259 297.2891 L 518.5989 296.6305 L 520.3363 295.9027 L 521.5414 295.2012 L 522.683 294.184 L 523.5817 292.9227 L 524.0453 291.6459 L 524.1525 290.5251 L 524.0935 289.7318 L 523.6755 288.2502 L 522.0032 284.8961 L 521.5262 283.2739 L 521.2546 281.5552 L 521.1376 279.7948 L 521.1644 278.0272 L 521.3699 276.2764 L 521.8487 274.5767 L 522.2239 273.7787 L 523.1734 272.3137 L 524.2847 270.963 L 526.1079 269.0478 L 529.9661 265.5258 L 531.2748 264.5277 L 533.8126 262.9234 L 534.3638 262.4469 L 535.2419 261.2606 L 537.4787 257.3015 L 538.1156 255.846 L 538.3542 255.023 L 538.6454 253.3222 L 539.0572 248.091 L 539.3448 246.3854 L 539.8629 244.8073 L 541.6335 241.2912 L 542.9761 238.2338 L 543.8917 236.7878 L 544.9655 235.4276 L 549.6964 230.2191 L 551.3079 228.1776 L 552.1949 226.734 L 553.2097 224.4567 L 554.003 222.9429 L 555.0169 221.4993 L 556.1692 220.1391 L 558.0755 218.2691 L 560.198 216.7339 L 563.1584 215.3689 L 566.5547 213.5394 L 568.1171 212.9844 L 569.8429 212.6747 L 572.5103 212.5008 L 584.343 212.6068 L 588.8336 212.421 L 591.4215 211.9327 L 596.9001 209.9162 L 597.5111 210.1437 L 598.3249 210.819 L 600.7975 215.0378 L 601.4612 216.4587 L 601.9266 218.0917 L 602.5448 221.4648 L 602.9798 223.1096 L 604.9067 227.4487 L 605.3569 229.0828 L 606.1966 233.2587 L 606.7388 234.7999 L 608.3807 238.3731 L 608.8265 240.0013 L 609.6671 244.1736 L 610.2272 245.7172 L 612.0245 249.2261 L 613.276 252.3217 L 615.5387 256.4916 L 616.8063 259.5812 L 619.0556 263.7595 L 620.3143 266.8539 L 622.561 271.0321 L 623.8187 274.1265 L 626.0654 278.306 L 627.324 281.4015 L 629.5698 285.5798 L 630.8275 288.673 L 633.0786 292.85 L 634.3436 295.9421 L 636.6081 300.112 L 637.8551 303.2087 L 639.6444 306.7212 L 640.3957 309.0902 L 641.222 313.2625 L 641.774 314.8073 L 643.5642 318.3174 L 644.8148 321.4106 L 647.0891 325.571 L 648.3567 328.6689 L 650.4631 332.6709 L 651.0634 334.2253 L 651.7933 336.6443 L 648.5801 337.079 L 646.9909 337.6138 L 643.9019 339.1813 L 640.9084 340.47 L 636.8814 342.8247 L 633.8951 344.1433 L 629.7877 346.3193 L 628.212 346.8065 L 624.9818 347.4937 L 623.4114 347.957 L 619.9427 349.6138 L 618.4294 350.1415 L 616.7893 350.4595 L 611.7485 350.9859 L 610.1084 351.3027 L 608.5951 351.8304 L 605.1264 353.4872 L 603.556 353.9517 L 600.3259 354.6389 L 598.7492 355.1249 L 594.6418 357.2986 L 591.6555 358.6147 L 587.6339 360.979 L 584.6503 362.2963 L 581.9409 363.7791 L 580.5223 364.4259 L 578.0872 365.0012 L 573.0561 365.5419 L 571.425 365.8611 L 569.9224 366.3876 L 566.4439 368.0146 L 564.7234 368.4457 L 562.0221 368.7268 L 556.5247 368.9615 L 553.8547 369.3736 L 552.2798 369.9381 L 548.8844 371.7783 L 545.9052 373.0885 L 541.8175 375.2932 L 540.2453 375.7887 L 537.0187 376.4842 L 535.4483 376.9488 L 531.9805 378.6079 L 530.4672 379.1379 L 528.8289 379.4595 L 523.7988 380.0205 L 522.1694 380.3552 L 520.674 380.8983 L 517.2142 382.5884 L 515.4902 383.0589 L 511.8589 383.4401 L 508.1633 383.4365 L 505.4343 383.1506 L 504.5491 382.9577 L 502.9545 382.3788 L 499.577 380.5172 L 497.4116 379.4869 L 496.7023 379.0831 L 495.4669 378.1362 L 493.9197 376.383 L 493.1256 375.0109 L 492.1036 372.8551 L 491.3443 371.6664 L 490.4305 370.5182 L 491.9268 367.2392 L 495.2507 361.9937 L 495.9153 360.2584 L 496.2896 358.3515 L 496.5621 353.3954 L 496.5174 317.891 Z" fill="#000000" fill-opacity="1" stroke="#000000" stroke-width="0" paint-order="fill" stroke-opacity="1" stroke-dasharray="" stroke-linecap="butt" stroke-linejoin="miter" stroke-miterlimit="10" transform="matrix(0.8999999761581421,0,0,0.8999999761581421,40.00008010864258,26.649959564208984)" clip-path="none" style="filter: url(#f1)"/>











</svg>