<?xml version="1.0" standalone="no"?>
<!-- Generator: Paintmaps.com , Online SVG vector map maker -->
<svg xmlns="http://www.w3.org/2000/svg" version="1.1" baseProfile="full"   style="background-color:#e0f2f1" width="800" height="500" viewBox="0 0 800 533">

<path data-code="200" d="M 316.1184 451.924 L 311.2425 449.2813 L 305.974 446.7788 L 304.3314 445.5169 L 302.7407 443.8024 L 299.4209 437.4681 L 297.9074 435.2424 L 295.3291 432.0957 L 289.7597 426.0737 L 284.9703 421.248 L 281.9647 418.6141 L 279.8096 417.1375 L 278.6595 416.5465 L 276.3114 415.7531 L 271.5208 414.745 L 269.19 414.0706 L 264.0439 411.5699 L 261.8222 410.7357 L 255.8163 409.4082 L 253.4762 408.7053 L 248.3287 406.194 L 246.0778 405.4024 L 243.6339 404.9356 L 236.1211 404.1671 L 232.4991 403.2957 L 230.4013 402.3089 L 226.3973 400.0389 L 221.9846 398.0351 L 216.9943 395.1599 L 215.9227 394.6807 L 213.5094 393.9903 L 211.0029 393.6424 L 207.184 393.5555 L 203.4049 393.9672 L 200.9836 394.6399 L 198.8725 395.6497 L 194.8831 397.9446 L 190.4638 399.9608 L 184.5058 403.5441 L 180.0838 405.5373 L 175.0509 408.3255 L 172.7813 409.1668 L 169.0475 409.788 L 163.8948 409.9566 L 158.6742 409.7436 L 153.2033 409.1189 L 149.9234 406.0875 L 145.9514 402.1243 L 140.5204 396.4324 L 135.8136 391.2606 L 140.0252 390.1531 L 146.9377 387.6577 L 148.8958 386.6656 L 150.8685 385.2866 L 157.3071 379.8255 L 161.5347 376.6539 L 162.2628 375.8428 L 163.2665 373.8319 L 163.799 371.553 L 164.4658 365.3766 L 165.198 361.6566 L 167.8389 355.1235 L 169.7943 346.6328 L 170.2815 345.4756 L 171.5727 343.4984 L 173.2379 341.8638 L 174.1883 341.1983 L 176.3487 340.2274 L 178.6808 339.7429 L 184.4326 339.1643 L 186.5384 338.6248 L 187.4981 338.158 L 188.354 337.5067 L 189.544 335.7389 L 191.1068 330.3524 L 192.0545 328.0788 L 193.4362 325.8958 L 195.9933 322.8733 L 197.9128 321.0541 L 199.9826 319.4567 L 202.1737 318.2144 L 206.4985 316.1236 L 216.4153 309.3687 L 220.6482 311.5215 L 226.4159 313.6282 L 231.5221 316.2532 L 233.8995 317.0944 L 235.2346 317.3837 L 240.7787 317.8612 L 256.3993 317.8754 L 260.543 318.2854 L 263.188 318.974 L 272.5923 323.7536 L 274.7567 325.0208 L 281.8129 330.812 L 283.9241 332.2976 L 286.1657 333.4157 L 292.4179 335.5952 L 295.8908 338.2787 L 299.968 340.4688 L 302.0565 341.9047 L 304.0425 343.6014 L 306.8206 346.4535 L 308.4831 348.523 L 309.8861 350.7486 L 311.8549 355.317 L 314.4599 360.574 L 315.2226 362.9398 L 315.6379 365.4973 L 316.1996 378.6896 L 316.6189 381.2435 L 317.387 383.6023 L 320.0212 388.8327 L 322.0299 393.378 L 323.393 395.5273 L 325.8449 398.5356 L 332.9344 406.2543 L 335.2372 409.3478 L 340.9757 421.3314 L 341.6599 423.7664 L 342.9271 429.9552 L 343.7351 432.2252 L 346.1697 437.5461 L 346.7807 440.0362 L 347.0908 442.631 L 347.2159 446.6172 L 347.0655 450.7135 L 346.5863 456.3486 L 345.4455 457.2555 L 343.7417 457.9033 L 341.6811 458.166 L 339.4462 458.0684 L 337.1727 457.5785 L 335.9294 457.1064 L 332.3114 455.3245 L 329.7397 454.3555 L 326.9896 453.7573 L 319.8402 452.7209 L 316.1184 451.924 Z" fill="#000000" fill-opacity="1" stroke="#000000" stroke-width="0" paint-order="fill" stroke-opacity="1" stroke-dasharray="" stroke-linecap="butt" stroke-linejoin="miter" stroke-miterlimit="10" transform="matrix(0.8999999761581421,0,0,0.8999999761581421,40.0000114440918,26.649959564208984)" clip-path="none" style="filter: url(#f1)"/>
<path data-code="201" d="M 477.5201 77.043 L 476.0772 81.3096 L 474.3973 85.4876 L 472.7294 90.2494 L 469.9447 95.4443 L 468.0013 99.8388 L 466.8139 101.9224 L 465.3124 103.7079 L 463.558 105.2218 L 461.5414 106.4091 L 458.2895 107.9035 L 455.1853 109.9978 L 451.3078 113.4694 L 446.7806 118.249 L 445.1367 120.2669 L 443.6845 122.3754 L 442.545 124.6099 L 441.0715 128.0247 L 439.0242 131.1697 L 435.6592 135.0636 L 426.5703 144.4471 L 423.2572 148.3677 L 421.9048 150.4921 L 419.8762 155.0286 L 417.6159 159.0876 L 416.6256 161.2564 L 416.0133 163.7607 L 415.8682 165.0474 L 415.8602 167.6386 L 416.2635 170.2086 L 416.6682 171.4581 L 417.8236 173.6233 L 420.1264 176.4489 L 421.8728 178.142 L 423.7311 179.6843 L 426.6955 181.5763 L 431.0349 183.5002 L 432.0053 184.1108 L 433.7717 185.6193 L 435.2439 187.474 L 435.8242 188.5389 L 436.2848 189.7476 L 436.8173 192.2731 L 437.0116 194.8733 L 436.8945 198.8151 L 436.5404 201.4135 L 435.8562 203.9195 L 434.8392 206.0937 L 432.567 210.1917 L 431.1307 213.6242 L 430.0405 215.8144 L 423.4742 226.032 L 420.354 224.4364 L 415.3863 221.4334 L 410.9683 219.4279 L 405.9114 216.7 L 403.5314 215.8445 L 399.4569 215.1861 L 393.8342 214.9607 L 372.366 214.966 L 363.8908 215.2216 L 359.8256 215.8552 L 357.4642 216.6556 L 352.342 218.97 L 347.9454 219.8396 L 347.5061 211.072 L 347.0469 207.1781 L 346.4359 204.6987 L 344.1131 199.3334 L 343.3251 196.9125 L 342.8166 194.1722 L 341.8209 185.7649 L 341.1687 183.076 L 338.8685 177.6966 L 338.0911 175.2615 L 337.5933 172.5141 L 336.8119 165.4929 L 336.3034 162.7526 L 335.5154 160.3317 L 333.6039 156.0775 L 332.8519 153.7418 L 332.1424 148.5877 L 331.8109 140.5247 L 339.6885 138.8617 L 342.0725 138.1305 L 348.1863 134.8364 L 352.6495 132.9267 L 358.6409 129.4108 L 363.0602 127.368 L 365.9793 125.35 L 372.4272 119.896 L 374.4026 118.611 L 378.8286 116.5789 L 384.8412 113.0949 L 389.3191 111.1976 L 395.3464 107.7438 L 399.8229 105.8501 L 405.8369 102.3909 L 409.1673 100.9303 L 411.2599 99.7962 L 414.0752 97.6717 L 419.4529 92.9063 L 423.8575 89.2537 L 425.2286 89.0869 L 427.2279 88.5314 L 431.1347 86.7264 L 433.3058 85.9295 L 439.2732 84.5966 L 441.6199 83.8973 L 446.8139 81.4268 L 449.186 80.6015 L 451.8682 80.0797 L 458.742 79.2526 L 461.4136 78.6989 L 463.747 77.8381 L 467.771 75.8219 L 469.9367 75.1191 L 472.1797 74.8333 L 475.2079 75.1244 L 476.6948 75.8503 L 477.5201 77.043 Z" fill="#000000" fill-opacity="1" stroke="#000000" stroke-width="0" paint-order="fill" stroke-opacity="1" stroke-dasharray="" stroke-linecap="butt" stroke-linejoin="miter" stroke-miterlimit="10" transform="matrix(0.8999999761581421,0,0,0.8999999761581421,40.0000114440918,26.649959564208984)" clip-path="none" style="filter: url(#f1)"/>
<path data-code="202" d="M 718.5677 120.6751 L 718.4252 122.0879 L 717.8875 124.1414 L 716.1118 128.1613 L 715.381 130.4402 L 714.955 132.9498 L 714.2828 140.743 L 713.8382 143.2899 L 713.0529 145.6433 L 710.4133 150.8843 L 708.9903 154.3098 L 708.4459 155.4492 L 707.0202 157.6908 L 704.3993 160.7807 L 701.4362 163.624 L 696.0851 167.8729 L 694.766 168.0309 L 692.7613 168.6148 L 687.8948 171.0978 L 683.4515 172.9649 L 677.4189 176.4276 L 672.9437 178.355 L 666.9058 181.7875 L 662.4638 183.7984 L 659.3371 185.9477 L 654.5677 190.3989 L 650.1843 195.2832 L 647.9334 198.414 L 645.2485 204.0367 L 643.9161 206.1824 L 641.5041 209.212 L 634.4465 216.9573 L 632.1211 220.0367 L 630.9191 222.2605 L 629.4495 225.6664 L 626.762 230.8648 L 625.9487 233.2608 L 625.4895 235.9106 L 625.1687 242.7827 L 625.2765 265.2271 L 625.4801 270.8249 L 626.0871 277.3261 L 620.3141 274.3213 L 614.2935 270.6723 L 610.0126 268.5318 L 607.3104 266.3488 L 605.158 263.5801 L 601.0116 254.9971 L 599.7643 251.3693 L 599.3637 248.4888 L 599.2359 245.5444 L 599.4302 235.3267 L 599.3184 232.6219 L 598.8392 230.1052 L 598.3361 228.9409 L 597.548 227.8902 L 596.6123 227.1661 L 594.5011 226.4171 L 593.3923 226.3035 L 591.1294 226.458 L 588.8825 227.0738 L 583.9853 229.7023 L 581.6825 230.6394 L 577.6332 231.4292 L 574.8472 231.6032 L 572.0625 231.518 L 569.3337 231.0973 L 568.0133 230.7086 L 565.8901 229.7396 L 560.3514 226.2396 L 558.7447 224.6796 L 558.0831 223.5508 L 557.3191 221.027 L 556.9317 216.8704 L 557.0009 204.8921 L 557.2925 195.8281 L 557.5707 192.8872 L 558.0871 190.0404 L 558.9058 187.5752 L 561.2765 182.2525 L 562.163 178.1935 L 562.5158 173.9268 L 562.9896 158.5356 L 562.6502 151.0015 L 562.6289 139.0995 L 574.8871 139.5433 L 580.4099 139.4634 L 584.4672 139.1333 L 588.3287 138.2388 L 593.4788 135.7664 L 595.7989 134.9536 L 599.7537 134.3235 L 607.9321 133.9011 L 611.9534 133.4645 L 614.5171 132.8167 L 619.7031 130.3994 L 621.942 129.6167 L 624.374 129.1393 L 631.8682 128.3282 L 635.4968 127.4709 L 641.6625 124.3366 L 646.1311 122.4287 L 652.1637 118.9926 L 656.5737 116.9427 L 659.7484 114.6851 L 662.6129 111.9306 L 665.1407 108.8619 L 666.5277 106.6452 L 669.1793 101.1007 L 672.7014 96.2057 L 676.3128 99.3542 L 678.388 100.5931 L 680.0212 101.1823 L 682.0818 101.5994 L 685.8262 101.8141 L 689.6066 101.4893 L 692.0519 100.8877 L 693.2192 100.4191 L 695.4009 99.088 L 701.0702 94.406 L 703.0895 93.3589 L 704.2063 93.1175 L 705.2512 93.1317 L 707.2239 93.6429 L 713.2179 96.2075 L 715.2505 97.4516 L 716.9743 99.0632 L 717.7237 99.9932 L 718.9337 102.0999 L 719.6592 104.5953 L 719.9999 108.4963 L 719.8575 112.4826 L 719.5447 115.1945 L 718.5677 120.6751 Z" fill="#000000" fill-opacity="1" stroke="#000000" stroke-width="0" paint-order="fill" stroke-opacity="1" stroke-dasharray="" stroke-linecap="butt" stroke-linejoin="miter" stroke-miterlimit="10" transform="matrix(0.8999999761581421,0,0,0.8999999761581421,40.0000114440918,26.649959564208984)" clip-path="none" style="filter: url(#f1)"/>
<path data-code="203" d="M 81.1833 347.4101 L 80.2049 339.34 L 80 331.2841 L 80.1384 328.6432 L 80.4871 326.0466 L 81.2046 323.5335 L 81.7557 322.3497 L 83.144 320.1667 L 84.7733 318.1451 L 87.4555 315.2806 L 91.2652 311.6866 L 95.3051 308.5753 L 100.6855 305.835 L 103.4582 303.6981 L 105.797 300.9862 L 109.2672 295.1985 L 111.393 294.6359 L 113.3257 293.6171 L 115.1667 292.2292 L 117.7424 289.7392 L 119.3064 287.8969 L 120.6788 285.9215 L 121.6798 283.9745 L 123.2146 280.3131 L 124.4179 278.3022 L 126.6276 275.4696 L 130.5876 271.1444 L 135.2159 269.24 L 137.4602 268.1041 L 139.4609 266.7517 L 143.172 263.5943 L 150.376 263.5073 L 155.9148 262.95 L 158.3587 262.3075 L 164.6376 259.4607 L 167.3504 258.7455 L 170.183 258.3586 L 176.0159 258.103 L 181.9394 258.1864 L 186.4066 258.4615 L 193.0968 259.3081 L 193.2139 263.5055 L 192.7068 265.3797 L 191.586 268.1982 L 191.1001 270.383 L 191.196 272.7754 L 192.0039 275.033 L 193.3817 276.8788 L 195.1667 278.3235 L 196.185 278.8684 L 198.4945 279.5552 L 205.552 280.1693 L 207.759 280.6113 L 209.7477 281.5821 L 211.2439 283.1865 L 214.6555 288.905 L 215.6019 291.088 L 215.98 292.4351 L 216.4113 295.2251 L 216.579 298.0897 L 216.4153 309.3687 L 206.4985 316.1236 L 202.1737 318.2144 L 199.9826 319.4567 L 197.9128 321.0541 L 195.9933 322.8733 L 193.4362 325.8958 L 192.0545 328.0788 L 191.1068 330.3524 L 189.544 335.7389 L 188.354 337.5067 L 187.4981 338.158 L 186.5384 338.6248 L 184.4326 339.1643 L 178.6808 339.7429 L 176.3487 340.2274 L 174.1883 341.1983 L 173.2379 341.8638 L 171.5727 343.4984 L 170.2815 345.4756 L 169.7943 346.6328 L 167.8389 355.1235 L 165.198 361.6566 L 164.4658 365.3766 L 163.799 371.553 L 163.2665 373.8319 L 162.2628 375.8428 L 161.5347 376.6539 L 157.3071 379.8255 L 150.8685 385.2866 L 148.8958 386.6656 L 146.9377 387.6577 L 140.0252 390.1531 L 135.8136 391.2606 L 132.1504 389.0705 L 127.6858 387.1129 L 123.6565 384.889 L 121.5467 383.92 L 117.9141 383.0876 L 110.392 382.4043 L 106.7514 381.5949 L 104.6309 380.6401 L 100.6016 378.4446 L 96.1597 376.4391 L 93.0302 374.2774 L 89.1647 370.7792 L 84.6509 366.0245 L 82.3134 362.9221 L 81.1421 360.6095 L 80.4925 358.0857 L 80.2515 354.1917 L 80.579 350.3084 L 81.1833 347.4101 Z" fill="#000000" fill-opacity="1" stroke="#000000" stroke-width="0" paint-order="fill" stroke-opacity="1" stroke-dasharray="" stroke-linecap="butt" stroke-linejoin="miter" stroke-miterlimit="10" transform="matrix(0.8999999761581421,0,0,0.8999999761581421,40.0000114440918,26.649959564208984)" clip-path="none" style="filter: url(#f1)"/>
<path data-code="204" d="M 444.6149 354.7348 L 446.0259 351.5739 L 447.6499 346.8245 L 448.7574 344.5172 L 450.2069 342.3448 L 454.2362 337.1517 L 456.2316 333.7813 L 457.0396 331.3782 L 458.1364 326.4495 L 458.8445 324.0624 L 461.3138 318.7734 L 462.1004 316.4289 L 462.6768 312.5758 L 462.75 308.6357 L 462.5557 306.0249 L 462.1044 303.4745 L 461.3164 301.1335 L 458.8472 295.8428 L 458.147 293.4397 L 457.1101 288.4808 L 456.39 286.0617 L 453.2139 279.77 L 451.3277 275.1821 L 448.6881 269.9499 L 447.8868 267.5237 L 447.3224 263.4115 L 446.943 253.5683 L 446.2655 249.4827 L 445.8276 248.1835 L 444.7281 246.0555 L 441.8941 242.2237 L 442.9324 239.2668 L 443.4981 238.3741 L 444.2276 237.6003 L 445.966 236.3614 L 451.6951 232.9183 L 452.772 232.4604 L 455.1866 231.825 L 464.0199 231.0139 L 466.4918 230.588 L 468.772 229.8248 L 473.9114 227.3933 L 479.4635 225.874 L 481.4895 225.0221 L 482.388 224.3867 L 483.767 222.706 L 487.7457 215.9208 L 490.8099 209.1481 L 492.2688 206.9527 L 496.3274 201.6886 L 497.7996 199.5375 L 499.964 195.1129 L 501.166 193.0487 L 503.5021 190.4522 L 505.359 189.0731 L 510.6715 186.4748 L 514.6635 184.1427 L 520.193 181.7485 L 526.2256 178.2911 L 530.6329 176.2164 L 532.772 174.8036 L 538.8246 169.8164 L 540.9637 168.3716 L 543.2545 167.3458 L 549.2166 165.9739 L 551.5593 165.2462 L 553.6452 164.2026 L 562.9896 158.5356 L 562.5158 173.9268 L 562.163 178.1935 L 561.2765 182.2525 L 558.9058 187.5752 L 558.0871 190.0404 L 557.5707 192.8872 L 557.2925 195.8281 L 557.0009 204.8921 L 556.9317 216.8704 L 557.3191 221.027 L 558.0831 223.5508 L 558.7447 224.6796 L 560.3514 226.2396 L 565.8901 229.7396 L 568.0133 230.7086 L 569.3337 231.0973 L 572.0625 231.518 L 574.8472 231.6032 L 577.6332 231.4292 L 581.6825 230.6394 L 583.9853 229.7023 L 588.8825 227.0738 L 591.1294 226.458 L 593.3923 226.3035 L 594.5011 226.4171 L 596.6123 227.1661 L 597.548 227.8902 L 598.3361 228.9409 L 598.8392 230.1052 L 599.3184 232.6219 L 599.4302 235.3267 L 599.2359 245.5444 L 599.3637 248.4888 L 599.7643 251.3693 L 601.0116 254.9971 L 605.158 263.5801 L 607.3104 266.3488 L 610.0126 268.5318 L 614.2935 270.6723 L 620.3141 274.3213 L 626.0871 277.3261 L 622.2415 284.1343 L 621.2445 286.2854 L 620.5723 288.6973 L 619.3104 294.7921 L 618.8605 295.9563 L 617.6452 297.9672 L 616.8971 298.8635 L 615.1893 300.4253 L 613.194 301.6464 L 609.978 303.1621 L 608.0532 304.3583 L 600.4791 310.1691 L 594.0752 313.4596 L 588.993 316.562 L 582.4386 319.4816 L 576.0718 323.4217 L 574.6395 324.9143 L 574.1936 325.9118 L 573.9793 326.9749 L 574.1484 329.1384 L 574.9031 331.0392 L 576.4113 333.8292 L 577.2539 335.9981 L 577.7304 338.4402 L 577.8302 340.964 L 577.4801 343.4842 L 577.0755 344.7124 L 575.8549 346.7961 L 574.1963 348.491 L 572.1903 349.7476 L 569.8209 350.4841 L 567.3757 350.8142 L 561.1514 351.2455 L 558.7061 351.6502 L 556.4432 352.3885 L 551.2452 354.8111 L 548.8998 355.4944 L 544.0798 356.5096 L 541.7291 357.232 L 535.6046 360.4675 L 531.148 362.4038 L 526.171 365.3305 L 523.2332 366.7379 L 519.3371 362.8404 L 510.5371 357.4272 L 505.1048 354.8697 L 500.0319 352.1294 L 497.6692 351.2651 L 495.0229 350.7468 L 492.3101 350.4948 L 488.1916 350.4273 L 484.0958 350.6723 L 481.4296 351.0734 L 478.8765 351.7851 L 473.7317 354.2876 L 471.4196 355.1288 L 468.8146 355.6542 L 466.1271 355.9346 L 460.6322 356.1068 L 453.6918 355.9115 L 449.6519 355.5264 L 444.6149 354.7348 Z" fill="#000000" fill-opacity="1" stroke="#000000" stroke-width="0" paint-order="fill" stroke-opacity="1" stroke-dasharray="" stroke-linecap="butt" stroke-linejoin="miter" stroke-miterlimit="10" transform="matrix(0.8999999761581421,0,0,0.8999999761581421,40.0000114440918,26.649959564208984)" clip-path="none" style="filter: url(#f1)"/>
<path data-code="205" d="M 444.6149 354.7348 L 437.0396 359.7629 L 431.5514 362.2867 L 426.5237 365.1246 L 421.2059 367.707 L 419.3344 369.0754 L 417.6878 370.7348 L 415.7324 373.7307 L 411.6379 382.2783 L 410.8272 384.7577 L 410.3667 387.5512 L 410.0778 393.3212 L 410.0539 420.3304 L 403.7537 421.1255 L 400.1104 422.0324 L 398.0033 423.0299 L 393.982 425.275 L 389.5227 427.1883 L 383.5287 430.6794 L 379.1134 432.7257 L 377.0222 434.1136 L 375.0509 435.7536 L 367.546 443.0552 L 364.6189 445.5648 L 362.5344 446.9491 L 357.1128 449.5812 L 352.181 452.8699 L 346.5863 456.3486 L 347.0655 450.7135 L 347.2159 446.6172 L 347.0908 442.631 L 346.7807 440.0362 L 346.1697 437.5461 L 343.7351 432.2252 L 342.9271 429.9552 L 341.6599 423.7664 L 340.9757 421.3314 L 335.2372 409.3478 L 332.9344 406.2543 L 325.8449 398.5356 L 323.393 395.5273 L 322.0299 393.378 L 320.0212 388.8327 L 317.387 383.6023 L 316.6189 381.2435 L 316.1996 378.6896 L 315.6379 365.4973 L 315.2226 362.9398 L 314.4599 360.574 L 311.8549 355.317 L 309.8861 350.7486 L 308.4831 348.523 L 306.8206 346.4535 L 304.0425 343.6014 L 302.0565 341.9047 L 299.968 340.4688 L 295.8908 338.2787 L 292.4179 335.5952 L 294.0645 331.1191 L 296.2116 323.8547 L 298.6808 318.5285 L 299.4662 316.1041 L 300.0559 312.0007 L 300.6069 300.7572 L 301.4389 296.716 L 302.368 294.5187 L 304.5457 290.3692 L 306.6502 285.8683 L 308.0732 283.6977 L 313.7211 276.5096 L 314.9257 274.1829 L 315.5793 271.6999 L 315.779 269.1512 L 315.3717 265.3691 L 314.6209 263.0654 L 312.1876 257.8385 L 311.5021 255.2615 L 311.1161 252.5514 L 310.8073 245.5337 L 310.9098 231.2606 L 315.6485 230.02 L 320.8133 227.5424 L 323.1747 226.7277 L 325.8422 226.2325 L 332.6668 225.5191 L 336.6309 224.6157 L 342.8672 221.5417 L 347.9454 219.8396 L 352.342 218.97 L 357.4642 216.6556 L 359.8256 215.8552 L 363.8908 215.2216 L 372.366 214.966 L 393.8342 214.9607 L 399.4569 215.1861 L 403.5314 215.8445 L 405.9114 216.7 L 410.9683 219.4279 L 415.3863 221.4334 L 420.354 224.4364 L 423.4742 226.032 L 426.5291 233.3283 L 427.7071 235.2327 L 428.4938 236.0154 L 433.0915 238.9971 L 436.0692 240.6512 L 438.2988 241.4765 L 441.8941 242.2237 L 444.7281 246.0555 L 445.8276 248.1835 L 446.2655 249.4827 L 446.943 253.5683 L 447.3224 263.4115 L 447.8868 267.5237 L 448.6881 269.9499 L 451.3277 275.1821 L 453.2139 279.77 L 456.39 286.0617 L 457.1101 288.4808 L 458.147 293.4397 L 458.8472 295.8428 L 461.3164 301.1335 L 462.1044 303.4745 L 462.5557 306.0249 L 462.75 308.6357 L 462.6768 312.5758 L 462.1004 316.4289 L 461.3138 318.7734 L 458.8445 324.0624 L 458.1364 326.4495 L 457.0396 331.3782 L 456.2316 333.7813 L 454.2362 337.1517 L 450.2069 342.3448 L 448.7574 344.5172 L 447.6499 346.8245 L 446.0259 351.5739 L 444.6149 354.7348 Z" fill="#000000" fill-opacity="1" stroke="#000000" stroke-width="0" paint-order="fill" stroke-opacity="1" stroke-dasharray="" stroke-linecap="butt" stroke-linejoin="miter" stroke-miterlimit="10" transform="matrix(0.8999999761581421,0,0,0.8999999761581421,40.0000114440918,26.649959564208984)" clip-path="none" style="filter: url(#f1)"/>
<path data-code="206" d="M 444.6149 354.7348 L 449.6519 355.5264 L 453.6918 355.9115 L 460.6322 356.1068 L 466.1271 355.9346 L 468.8146 355.6542 L 471.4196 355.1288 L 473.7317 354.2876 L 478.8765 351.7851 L 481.4296 351.0734 L 484.0958 350.6723 L 488.1916 350.4273 L 492.3101 350.4948 L 495.0229 350.7468 L 497.6692 351.2651 L 500.0319 352.1294 L 505.1048 354.8697 L 510.5371 357.4272 L 519.3371 362.8404 L 523.2332 366.7379 L 515.7044 370.8981 L 510.167 373.2213 L 504.1237 376.6272 L 499.6778 378.5813 L 497.6825 379.8627 L 495.8109 381.3926 L 494.0352 383.0822 L 490.778 386.7934 L 488.7121 389.9455 L 486.0312 394.9682 L 483.8442 395.5788 L 482.8006 396.0722 L 479.7803 398.1948 L 475.9227 401.7995 L 467.3584 410.5671 L 465.3763 412.3668 L 463.2971 413.9712 L 461.1061 415.2296 L 457.8089 416.7399 L 453.7996 418.9585 L 451.6765 419.924 L 447.7311 420.7918 L 442.2269 421.0936 L 419.7204 420.9179 L 414.1058 420.6871 L 410.0539 420.3304 L 410.0778 393.3212 L 410.3667 387.5512 L 410.8272 384.7577 L 411.6379 382.2783 L 415.7324 373.7307 L 417.6878 370.7348 L 419.3344 369.0754 L 421.2059 367.707 L 426.5237 365.1246 L 431.5514 362.2867 L 437.0396 359.7629 L 444.6149 354.7348 Z" fill="#000000" fill-opacity="1" stroke="#000000" stroke-width="0" paint-order="fill" stroke-opacity="1" stroke-dasharray="" stroke-linecap="butt" stroke-linejoin="miter" stroke-miterlimit="10" transform="matrix(0.8999999761581421,0,0,0.8999999761581421,40.0000114440918,26.649959564208984)" clip-path="none" style="filter: url(#f1)"/>
<path data-code="207" d="M 477.5201 77.043 L 481.8236 78.7131 L 488.8692 80.8713 L 494.9803 84.1777 L 499.5114 86.0502 L 506.1564 89.4703 L 504.6921 98.4934 L 503.9254 100.9746 L 502.6249 103.4061 L 500.985 105.6318 L 499.1454 107.7278 L 496.1703 110.706 L 493.0342 113.4623 L 489.765 115.7891 L 484.5457 118.1939 L 482.8858 119.4168 L 482.1936 120.1622 L 481.2166 121.985 L 481.0515 123.0995 L 481.1966 124.223 L 481.5866 125.2151 L 482.8326 126.8533 L 484.4991 128.1187 L 485.4961 128.6317 L 489.6133 130.3994 L 494.6635 133.1876 L 499.1733 135.0849 L 504.2688 137.8022 L 506.6396 138.6594 L 509.3111 139.1581 L 513.4442 139.4598 L 517.6492 139.5166 L 553.0023 139.3995 L 562.6289 139.0995 L 562.6502 151.0015 L 562.9896 158.5356 L 553.6452 164.2026 L 551.5593 165.2462 L 549.2166 165.9739 L 543.2545 167.3458 L 540.9637 168.3716 L 538.8246 169.8164 L 532.772 174.8036 L 530.6329 176.2164 L 526.2256 178.2911 L 520.193 181.7485 L 514.6635 184.1427 L 510.6715 186.4748 L 505.359 189.0731 L 503.5021 190.4522 L 501.166 193.0487 L 499.964 195.1129 L 497.7996 199.5375 L 496.3274 201.6886 L 492.2688 206.9527 L 490.8099 209.1481 L 487.7457 215.9208 L 483.767 222.706 L 482.388 224.3867 L 481.4895 225.0221 L 479.4635 225.874 L 473.9114 227.3933 L 468.772 229.8248 L 466.4918 230.588 L 464.0199 231.0139 L 455.1866 231.825 L 452.772 232.4604 L 451.6951 232.9183 L 445.966 236.3614 L 444.2276 237.6003 L 443.4981 238.3741 L 442.9324 239.2668 L 441.8941 242.2237 L 438.2988 241.4765 L 436.0692 240.6512 L 433.0915 238.9971 L 428.4938 236.0154 L 427.7071 235.2327 L 426.5291 233.3283 L 423.4742 226.032 L 430.0405 215.8144 L 431.1307 213.6242 L 432.567 210.1917 L 434.8392 206.0937 L 435.8562 203.9195 L 436.5404 201.4135 L 436.8945 198.8151 L 437.0116 194.8733 L 436.8173 192.2731 L 436.2848 189.7476 L 435.8242 188.5389 L 435.2439 187.474 L 433.7717 185.6193 L 432.0053 184.1108 L 431.0349 183.5002 L 426.6955 181.5763 L 423.7311 179.6843 L 421.8728 178.142 L 420.1264 176.4489 L 417.8236 173.6233 L 416.6682 171.4581 L 416.2635 170.2086 L 415.8602 167.6386 L 415.8682 165.0474 L 416.0133 163.7607 L 416.6256 161.2564 L 417.6159 159.0876 L 419.8762 155.0286 L 421.9048 150.4921 L 423.2572 148.3677 L 426.5703 144.4471 L 435.6592 135.0636 L 439.0242 131.1697 L 441.0715 128.0247 L 442.545 124.6099 L 443.6845 122.3754 L 445.1367 120.2669 L 446.7806 118.249 L 451.3078 113.4694 L 455.1853 109.9978 L 458.2895 107.9035 L 461.5414 106.4091 L 463.558 105.2218 L 465.3124 103.7079 L 466.8139 101.9224 L 468.0013 99.8388 L 469.9447 95.4443 L 472.7294 90.2494 L 474.3973 85.4876 L 476.0772 81.3096 L 477.5201 77.043 Z" fill="#000000" fill-opacity="1" stroke="#000000" stroke-width="0" paint-order="fill" stroke-opacity="1" stroke-dasharray="" stroke-linecap="butt" stroke-linejoin="miter" stroke-miterlimit="10" transform="matrix(0.8999999761581421,0,0,0.8999999761581421,40.0000114440918,26.649959564208984)" clip-path="none" style="filter: url(#f1)"/>
<path data-code="208" d="M 292.4179 335.5952 L 286.1657 333.4157 L 283.9241 332.2976 L 281.8129 330.812 L 274.7567 325.0208 L 272.5923 323.7536 L 263.188 318.974 L 260.543 318.2854 L 256.3993 317.8754 L 240.7787 317.8612 L 235.2346 317.3837 L 233.8995 317.0944 L 231.5221 316.2532 L 226.4159 313.6282 L 220.6482 311.5215 L 216.4153 309.3687 L 216.579 298.0897 L 216.4113 295.2251 L 215.98 292.4351 L 215.6019 291.088 L 214.6555 288.905 L 211.2439 283.1865 L 209.7477 281.5821 L 207.759 280.6113 L 205.552 280.1693 L 198.4945 279.5552 L 196.185 278.8684 L 195.1667 278.3235 L 193.3817 276.8788 L 192.0039 275.033 L 191.196 272.7754 L 191.1001 270.383 L 191.586 268.1982 L 192.7068 265.3797 L 193.2139 263.5055 L 193.0968 259.3081 L 194.2256 255.8365 L 196.157 252.5336 L 197.7557 250.4961 L 200.4099 247.6369 L 202.3121 245.8816 L 204.3381 244.318 L 206.5371 243.072 L 207.7084 242.6266 L 213.6958 241.283 L 216.0159 240.6068 L 221.1514 238.1132 L 223.4835 237.2879 L 227.4236 236.649 L 232.8625 236.3987 L 239.7098 236.4857 L 245.0609 237.0412 L 247.598 237.7334 L 252.7321 240.3157 L 254.9244 241.189 L 260.8905 242.6443 L 263.2013 243.3986 L 269.3231 246.4424 L 271.7217 247.0334 L 275.4422 247.1807 L 277.8981 246.8116 L 280.1677 246.0129 L 285.1633 243.2211 L 289.5813 241.1996 L 295.5607 237.6251 L 300.0159 235.6728 L 305.0835 232.913 L 307.3091 232.0611 L 310.9098 231.2606 L 310.8073 245.5337 L 311.1161 252.5514 L 311.5021 255.2615 L 312.1876 257.8385 L 314.6209 263.0654 L 315.3717 265.3691 L 315.779 269.1512 L 315.5793 271.6999 L 314.9257 274.1829 L 313.7211 276.5096 L 308.0732 283.6977 L 306.6502 285.8683 L 304.5457 290.3692 L 302.368 294.5187 L 301.4389 296.716 L 300.6069 300.7572 L 300.0559 312.0007 L 299.4662 316.1041 L 298.6808 318.5285 L 296.2116 323.8547 L 294.0645 331.1191 L 292.4179 335.5952 Z" fill="#000000" fill-opacity="1" stroke="#000000" stroke-width="0" paint-order="fill" stroke-opacity="1" stroke-dasharray="" stroke-linecap="butt" stroke-linejoin="miter" stroke-miterlimit="10" transform="matrix(0.8999999761581421,0,0,0.8999999761581421,40.0000114440918,26.649959564208984)" clip-path="none" style="filter: url(#f1)"/>









</svg>