<?xml version="1.0" standalone="no"?>
<!-- Generator: Paintmaps.com , Online SVG vector map maker -->
<svg xmlns="http://www.w3.org/2000/svg" version="1.1" baseProfile="full"   style="background-color:#e0f2f1" width="800" height="500" viewBox="0 0 800 533">
<rect width="100%" height="100%" fill="#e0f2f1"/>
<path data-code="200" d="M 307.9791 138.9153 L 307.3713 150.2769 L 306.7094 155.7958 L 305.8361 159.3004 L 302.2715 167.7697 L 301.3668 171.4583 L 300.8726 175.3099 L 300.4639 189.2725 L 300.8115 220.8328 L 298.5585 224.8963 L 296.5064 227.707 L 294.222 230.364 L 291.7611 232.8533 L 289.1327 235.1074 L 286.3034 236.9936 L 284.8538 237.7225 L 280.4875 239.632 L 272.4292 243.8119 L 269.3327 244.7294 L 263.0122 246.0195 L 259.9471 246.9254 L 251.7892 250.8189 L 247.0073 251.9646 L 236.4498 253.073 L 237.8906 246.7973 L 239.5847 234.8653 L 240.3794 231.7681 L 242.3616 226.5776 L 242.8018 223.895 L 242.6673 222.5141 L 241.8569 219.913 L 238.7097 213.8794 L 236.8707 211.6858 L 235.6726 210.8661 L 232.9952 209.8113 L 225.6757 207.925 L 217.6348 203.8522 L 211.7596 201.2791 L 207.8283 198.8014 L 197.7458 191.4335 L 199.4556 187.4259 L 203.1267 180.6798 L 205.605 174.6439 L 209.4001 167.8861 L 211.2846 163.8995 L 211.3614 109.8002 L 211.6426 91.9534 L 211.5727 91.986 L 212.1456 84.823 L 212.1456 84.653 L 212.2731 84.653 L 212.2731 84.483 L 212.3988 84.483 L 212.3988 84.3154 L 212.5263 84.3154 L 212.5263 84.1454 L 212.7813 84.1454 L 212.7813 83.9754 L 213.0346 83.9754 L 213.0346 83.6354 L 213.1621 83.6354 L 213.1621 83.2977 L 213.9253 83.2977 L 213.9253 83.4677 L 214.3077 83.4677 L 214.3077 83.2977 L 214.816 83.2977 L 214.816 83.1278 L 215.071 83.1278 L 215.071 82.9578 L 215.3242 82.9578 L 215.3242 82.7878 L 215.4517 82.7878 L 215.4517 82.6178 L 215.7067 82.6178 L 215.7067 82.4501 L 215.9599 82.4501 L 215.9599 82.2801 L 216.2149 82.2801 L 216.2149 82.1101 L 216.3424 82.1101 L 216.3424 81.9401 L 216.5957 81.9401 L 216.5957 81.7701 L 217.2314 81.7701 L 217.2314 81.6025 L 217.4864 81.6025 L 217.4864 81.4325 L 217.8688 81.4325 L 217.8688 81.2625 L 218.1221 81.2625 L 218.1221 81.0925 L 218.7578 81.0925 L 218.7578 81.2625 L 219.0128 81.2625 L 219.0128 81.4325 L 219.3935 81.4325 L 219.3935 81.6025 L 219.9035 81.6025 L 219.9035 81.7701 L 220.5392 81.7701 L 220.5392 81.9401 L 221.175 81.9401 L 221.175 82.1101 L 222.4464 82.1101 L 222.4464 82.2801 L 222.5739 82.2801 L 222.5739 82.4501 L 222.7014 82.4501 L 222.7014 82.9578 L 222.5739 82.9578 L 222.5739 82.7878 L 222.3189 82.7878 L 222.3189 83.2605 L 222.3189 83.4677 L 222.4464 83.4677 L 222.4464 83.6354 L 222.6315 83.6354 L 222.7014 83.6354 L 222.7014 83.7192 L 222.7014 83.8054 L 222.773 83.8054 L 222.8271 83.8054 L 222.8271 83.8729 L 222.8271 83.9754 L 222.9127 83.9754 L 222.9546 83.9754 L 222.9546 84.0266 L 222.9546 84.1454 L 223.0542 84.1454 L 223.0821 84.1454 L 223.0821 84.3154 L 223.1956 84.3154 L 223.3371 84.3154 L 223.3371 84.483 L 223.4646 84.483 L 223.4646 84.6367 L 223.7178 84.653 L 223.7178 84.823 L 223.8453 84.823 L 223.8453 84.993 L 223.9728 84.993 L 223.9728 85.163 L 224.736 85.163 L 224.736 84.993 L 225.625 84.993 L 225.625 85.163 L 225.88 85.163 L 225.88 85.333 L 226.135 85.333 L 226.135 85.5007 L 227.024 85.5007 L 227.024 85.333 L 227.7872 85.333 L 227.7872 85.163 L 228.2971 85.163 L 228.2971 84.993 L 228.8054 84.993 L 228.8054 84.823 L 229.0586 84.823 L 229.0604 84.653 L 229.9493 84.653 L 229.9493 84.823 L 230.585 84.823 L 230.585 84.993 L 231.095 84.993 L 231.095 85.163 L 231.3483 85.163 L 231.3483 85.333 L 231.7307 85.333 L 231.7307 85.5007 L 232.3665 85.5007 L 232.3665 85.6706 L 233.0022 85.6706 L 233.0022 85.8406 L 234.9094 85.8406 L 234.9094 86.0106 L 236.6908 86.0106 L 236.6908 86.1806 L 236.8165 86.1806 L 236.8165 86.3483 L 236.944 86.3483 L 236.944 86.5183 L 237.0715 86.5183 L 237.0715 86.6883 L 237.199 86.6883 L 237.199 86.8583 L 237.9622 86.8583 L 237.9622 87.0282 L 238.343 87.0282 L 238.343 87.1982 L 238.598 87.1982 L 238.598 87.3659 L 238.9787 87.3659 L 238.9787 87.5359 L 239.3612 87.5359 L 239.3612 87.7059 L 239.8694 87.7059 L 239.8694 87.8759 L 240.3776 87.8759 L 240.3776 88.0459 L 241.0133 88.0459 L 241.0133 88.2135 L 241.5233 88.2135 L 241.5233 88.3835 L 241.9041 88.3835 L 241.9041 88.5535 L 242.4123 88.5535 L 242.4123 88.6443 L 242.4123 88.7235 L 242.9223 88.7235 L 242.9223 88.8935 L 243.558 88.8935 L 243.558 89.0635 L 244.1937 89.0635 L 244.1937 89.2312 L 244.5744 89.2312 L 244.5744 89.4011 L 244.8294 89.4011 L 244.8294 89.5711 L 245.2102 89.5711 L 245.2102 89.7411 L 245.3377 89.7411 L 245.3377 89.9111 L 245.5926 89.9111 L 245.5926 90.0788 L 246.1009 90.0788 L 246.1009 90.2488 L 247.8823 90.2488 L 247.8823 90.4188 L 248.518 90.4188 L 248.518 90.5888 L 249.2812 90.5888 L 249.2812 90.7588 L 249.5345 90.7588 L 249.5345 90.9287 L 249.7895 90.9287 L 249.7895 91.0964 L 250.0427 91.0964 L 250.0427 91.2664 L 250.1702 91.2664 L 250.1702 91.4364 L 250.2977 91.4364 L 250.2977 91.6064 L 250.4252 91.6064 L 250.4252 91.7764 L 250.5527 91.7764 L 250.5527 91.944 L 250.6802 91.944 L 250.6802 92.284 L 250.8059 92.284 L 250.8059 92.454 L 250.9334 92.454 L 250.9334 92.624 L 251.1884 92.624 L 251.1884 92.794 L 251.3159 92.794 L 251.3159 92.9617 L 251.5691 92.9617 L 251.5691 93.1317 L 251.8241 93.1317 L 251.8241 93.3016 L 251.9516 93.3016 L 251.9516 93.6416 L 252.0791 93.6416 L 252.0791 93.8093 L 252.2049 93.8093 L 252.2049 94.1493 L 252.3324 94.1493 L 252.3324 94.3193 L 252.5873 94.3193 L 252.5873 94.4893 L 252.7148 94.4893 L 252.7148 94.8269 L 252.9681 94.8269 L 252.9681 94.9969 L 253.2231 94.9969 L 253.2231 95.3369 L 253.6038 95.3369 L 253.6038 95.5069 L 254.2395 95.5069 L 254.2395 95.6745 L 254.8752 95.6745 L 254.877 95.8445 L 255.0674 95.8445 L 255.1302 95.8445 L 255.1302 95.9121 L 255.1302 96.0145 L 255.2298 96.0145 L 255.3852 96.0145 L 255.3852 96.1752 L 255.8935 96.1845 L 255.8935 96.3545 L 256.4017 96.3545 L 256.4017 96.5245 L 256.9117 96.5245 L 256.9117 96.6922 L 257.4199 96.6922 L 257.4199 97.0322 L 257.5474 97.0322 L 257.5474 97.5654 L 257.5474 98.0498 L 257.4199 98.0498 L 257.4199 98.5574 L 257.5474 98.5574 L 257.5474 98.8974 L 257.6731 98.8974 L 257.6731 99.2374 L 257.8006 99.2374 L 257.8006 99.4051 L 257.9281 99.4051 L 257.9281 99.745 L 258.0556 99.745 L 258.0556 99.915 L 258.1831 99.915 L 258.1831 100.255 L 258.3106 100.255 L 258.3106 100.5927 L 258.4363 100.5927 L 258.4363 100.7627 L 258.6913 100.7627 L 258.6913 100.9326 L 258.8188 100.9326 L 258.8188 101.2703 L 258.9463 101.2703 L 258.9463 101.4403 L 259.0721 101.4403 L 259.0721 101.6103 L 259.3271 101.6103 L 259.3271 101.7803 L 259.4545 101.7803 L 259.4545 101.9503 L 259.7095 101.9503 L 259.7095 102.1203 L 259.9628 102.1203 L 259.9628 102.2879 L 260.0903 102.2879 L 260.0903 102.4579 L 260.3453 102.4579 L 260.3453 102.6279 L 260.471 102.6279 L 260.471 102.7979 L 261.1085 102.7979 L 261.1085 102.9679 L 261.2342 102.9679 L 261.2342 103.3055 L 261.3617 103.3055 L 261.3617 103.6455 L 261.4892 103.6455 L 261.4892 103.8155 L 261.6167 103.8155 L 261.6167 103.9855 L 261.8699 103.9855 L 261.8699 104.1532 L 261.9974 104.1532 L 261.9974 104.3232 L 262.1249 104.3232 L 262.1249 104.4932 L 262.3799 104.4932 L 262.3799 104.6632 L 262.5074 104.6632 L 262.5074 104.8331 L 262.7607 104.8331 L 262.7607 105.0008 L 262.972 105.0008 L 263.0156 105.0008 L 263.0156 105.0567 L 263.0156 105.1708 L 263.1047 105.1708 L 263.2689 105.1708 L 263.2689 105.3408 L 263.5239 105.3408 L 263.5239 105.5108 L 263.6514 105.5108 L 263.6514 105.6808 L 263.7789 105.6808 L 263.7789 105.8508 L 263.9064 105.8508 L 263.9064 106.0184 L 264.0321 106.0184 L 264.0321 106.1884 L 264.1596 106.1884 L 264.1596 106.3584 L 264.2871 106.3584 L 264.2871 106.5284 L 264.4146 106.5284 L 264.4146 106.6984 L 264.5421 106.6984 L 264.5421 106.8661 L 264.6678 106.8661 L 264.6678 107.0361 L 264.7953 107.0361 L 264.7953 107.206 L 264.9228 107.206 L 264.9228 107.376 L 265.0503 107.376 L 265.0503 107.546 L 265.1778 107.546 L 265.1778 107.716 L 265.431 107.716 L 265.431 107.8837 L 265.5585 107.8837 L 265.5585 108.0537 L 265.8135 108.0537 L 265.8135 108.2237 L 265.941 108.2237 L 265.941 108.3937 L 266.1943 108.3937 L 266.1943 108.5637 L 266.4492 108.5637 L 266.4492 108.7313 L 266.5767 108.7313 L 266.5767 108.9013 L 266.83 108.9013 L 266.83 109.0713 L 267.085 109.0713 L 267.085 109.2413 L 267.34 109.2413 L 267.34 109.4113 L 267.5932 109.4113 L 267.5932 109.5789 L 267.8482 109.5813 L 267.8482 109.7489 L 267.9757 109.7489 L 267.9757 109.9189 L 268.1032 109.9189 L 268.1032 110.0889 L 268.2289 110.0889 L 268.2289 110.2589 L 268.3564 110.2589 L 268.3564 110.4289 L 268.4839 110.4289 L 268.4839 110.5966 L 268.6114 110.5966 L 268.6114 110.7666 L 268.7389 110.7666 L 268.7389 110.9366 L 268.8646 110.9366 L 268.8646 111.2765 L 268.9921 111.2765 L 268.9921 111.4442 L 269.1196 111.4465 L 269.1196 111.6142 L 269.2471 111.6142 L 269.2471 111.7842 L 269.7554 111.7842 L 269.7554 111.9542 L 269.8828 111.9542 L 269.8828 112.1242 L 270.1378 112.1242 L 270.1378 112.2942 L 270.2636 112.2942 L 270.2636 112.4618 L 270.5186 112.4618 L 270.5186 112.6318 L 270.6461 112.6318 L 270.6461 112.8018 L 270.7736 112.8018 L 270.7736 112.9718 L 270.9011 112.9718 L 270.9011 113.1418 L 271.1543 113.1418 L 271.1543 113.3095 L 271.2818 113.3095 L 271.2818 113.4794 L 271.4093 113.4794 L 271.4093 113.6494 L 271.6625 113.6494 L 271.6625 113.8194 L 271.79 113.8194 L 271.79 113.9894 L 272.045 113.9894 L 272.045 114.1594 L 272.1725 114.1594 L 272.1725 114.4971 L 272.3 114.4971 L 272.3 114.6671 L 272.8082 114.6671 L 272.8082 114.837 L 272.9357 114.837 L 272.9357 115.3447 L 273.0615 115.3447 L 273.0615 115.5147 L 273.4439 115.5147 L 273.4439 115.6847 L 273.8247 115.6847 L 273.8247 115.8547 L 273.9522 115.8547 L 273.9522 116.0247 L 274.0797 116.0247 L 274.0797 116.1923 L 274.3347 116.1923 L 274.3347 116.3623 L 274.5879 116.3623 L 274.5879 116.5323 L 274.8429 116.5323 L 274.8429 116.7023 L 275.0979 116.7023 L 275.0979 116.8723 L 275.3511 116.8723 L 275.3511 117.04 L 275.6061 117.04 L 275.6061 117.2099 L 275.8593 117.2099 L 275.8593 117.3799 L 276.1143 117.3799 L 276.1143 117.5499 L 276.3693 117.5499 L 276.3693 117.7199 L 276.6226 117.7199 L 276.6226 117.8899 L 276.7501 117.8899 L 276.7501 118.2276 L 276.8775 118.2276 L 276.8775 118.3976 L 277.2583 118.3976 L 277.2583 118.5676 L 277.5133 118.5676 L 277.5133 118.7375 L 277.6408 118.7375 L 277.6408 118.9052 L 277.7683 118.9052 L 277.7683 119.2452 L 277.8958 119.2452 L 277.8958 119.3523 L 277.8958 119.4152 L 277.9796 119.4152 L 278.0215 119.4152 L 278.0215 119.5852 L 278.149 119.5852 L 278.149 119.7552 L 278.404 119.7552 L 278.404 119.9228 L 278.5315 119.9228 L 278.5315 120.0928 L 278.6572 120.0928 L 278.6572 120.2628 L 278.7847 120.2628 L 278.7847 120.4328 L 279.0397 120.4328 L 279.0397 120.6028 L 279.1672 120.6028 L 279.1672 120.7705 L 279.2947 120.7705 L 279.2947 120.9405 L 279.5479 120.9405 L 279.5479 121.1104 L 279.6754 121.1104 L 279.6754 121.2804 L 279.9304 121.2804 L 279.9304 121.4504 L 280.1837 121.4504 L 280.1837 121.6204 L 280.3111 121.6204 L 280.3111 121.7881 L 280.5661 121.7881 L 280.5661 121.9581 L 280.8194 121.9581 L 280.8194 122.1281 L 280.9469 122.1281 L 280.9469 122.2981 L 281.2019 122.2981 L 281.2019 122.4681 L 281.3294 122.4681 L 281.3294 122.6357 L 281.4551 122.6357 L 281.4551 122.8057 L 281.5826 122.8057 L 281.5826 124.3333 L 281.7101 124.3333 L 281.7101 124.501 L 281.8376 124.501 L 281.8376 124.671 L 281.9651 124.671 L 281.9651 124.841 L 282.0908 124.841 L 282.0926 125.0109 L 282.3458 125.0109 L 282.3458 125.1809 L 282.4733 125.1809 L 282.4733 125.3509 L 282.7283 125.3509 L 282.7283 125.5186 L 282.9815 125.5186 L 282.9815 125.6886 L 283.109 125.6886 L 283.109 125.8586 L 283.2365 125.8586 L 283.2365 126.1986 L 283.364 126.1986 L 283.364 126.3662 L 283.4898 126.3662 L 283.4915 126.5362 L 283.6173 126.5362 L 283.6173 126.7062 L 283.7448 126.7062 L 283.7448 126.8762 L 283.8722 126.8762 L 283.8722 127.5538 L 283.9997 127.5538 L 283.9997 127.7238 L 284.1272 127.7238 L 284.1272 127.8938 L 284.253 127.8938 L 284.253 128.0638 L 284.3805 128.0638 L 284.3805 128.2315 L 284.508 128.2315 L 284.508 128.5715 L 284.6355 128.5715 L 284.6355 128.9114 L 284.763 128.9114 L 284.763 129.2491 L 285.0162 129.2491 L 285.0162 129.4191 L 285.3987 129.4191 L 285.3987 129.7591 L 285.5262 129.7591 L 285.5262 130.6067 L 285.6519 130.6067 L 285.6519 130.7767 L 285.7794 130.7767 L 285.7794 130.9467 L 286.0344 130.9467 L 286.0344 131.1143 L 286.2876 131.1143 L 286.2876 131.2843 L 286.5426 131.2843 L 286.5426 131.4543 L 286.7976 131.4543 L 286.7976 131.6243 L 287.0509 131.6243 L 287.0509 131.7943 L 287.4333 131.7943 L 287.4333 131.962 L 287.6866 131.962 L 287.6866 132.132 L 287.9416 132.132 L 287.9416 132.302 L 288.3241 132.302 L 288.3241 132.472 L 288.5773 132.472 L 288.5773 132.6419 L 288.9598 132.6419 L 288.9598 132.8119 L 289.213 132.8119 L 289.213 132.9796 L 289.5955 132.9796 L 289.5955 133.1496 L 290.612 133.1496 L 290.612 133.3196 L 291.2477 133.3196 L 291.2477 133.4896 L 291.3752 133.4896 L 291.3752 133.6596 L 291.5027 133.6596 L 291.5027 133.8272 L 291.7577 133.8272 L 291.7577 133.9972 L 291.8834 133.9972 L 291.8834 134.1672 L 292.0109 134.1672 L 292.0109 134.3372 L 292.2659 134.3372 L 292.2659 134.5072 L 292.5209 134.5072 L 292.5209 134.6772 L 292.9016 134.6772 L 292.9016 134.8449 L 293.1566 134.8449 L 293.1566 135.0148 L 293.5373 135.0148 L 293.5373 135.1848 L 293.9198 135.1848 L 293.9198 135.3548 L 294.173 135.3548 L 294.173 135.5248 L 294.5555 135.5248 L 294.5555 135.6925 L 296.2269 135.6925 L 297.3534 135.6925 L 297.3534 135.5248 L 297.8616 135.5248 L 297.8616 135.3548 L 298.3699 135.3548 L 298.3699 135.1848 L 299.2606 135.1848 L 299.2606 135.3548 L 300.0238 135.3548 L 300.0238 135.5248 L 300.277 135.5248 L 300.277 135.6925 L 300.4045 135.6925 L 300.4045 135.8625 L 300.6595 135.8625 L 300.6595 136.0325 L 300.9145 136.0325 L 300.9145 136.2025 L 301.1677 136.2025 L 301.1677 136.3725 L 301.4227 136.3725 L 301.4227 136.5424 L 302.4392 136.5424 L 302.4392 136.7101 L 302.6942 136.7101 L 302.6942 136.8801 L 302.9492 136.8801 L 302.9492 137.3901 L 303.3299 137.3901 L 303.3299 137.5577 L 303.7124 137.5577 L 303.7124 137.7277 L 303.9656 137.7277 L 303.9656 137.8977 L 304.2206 137.8977 L 304.2206 138.0677 L 304.7288 138.0677 L 304.7288 137.8977 L 304.9838 137.8977 L 304.9838 138.0677 L 305.1113 138.0677 L 305.1113 138.2377 L 306.0003 138.2377 L 306.0003 138.0677 L 306.3828 138.0677 L 306.3828 138.2377 L 306.636 138.2377 L 306.636 138.4077 L 306.7635 138.4077 L 306.7635 138.5754 L 306.891 138.5754 L 306.891 138.7454 L 307.9092 138.7454 L 307.9092 138.9153 L 307.9791 138.9153 Z" fill="#000000" fill-opacity="1" stroke="#000000" stroke-width="0" paint-order="fill" stroke-opacity="1" stroke-dasharray="" stroke-linecap="butt" stroke-linejoin="miter" stroke-miterlimit="10" transform="matrix(1.0499999523162842,0,0,1.0499999523162842,-19.999954223632812,-13.324951171875)" clip-path="none" style="filter: url(#f1)"/>
<path data-code="201" d="M 505.3308 173.6775 L 506.1202 184.4382 L 506.0609 193.7715 L 506.1482 193.8204 L 506.9201 208.6399 L 506.8905 218.0337 L 506.5743 223.5759 L 506.0923 227.176 L 505.2243 230.6248 L 502.1313 237.6294 L 500.748 242.5289 L 500.1612 247.9639 L 499.6233 259.0437 L 498.8217 264.4322 L 497.765 267.6224 L 494.3227 274.506 L 491.7711 280.4999 L 487.2477 288.585 L 484.6768 294.5627 L 481.1716 301.4112 L 480.0469 304.676 L 479.3623 308.4112 L 478.9221 314.1956 L 478.847 322.0268 L 479.0531 327.8787 L 479.6871 333.5956 L 480.5935 337.2329 L 483.7739 344.2492 L 484.8707 347.2368 L 486.7255 355.2451 L 479.509 359.6905 L 476.0265 362.8388 L 474.1699 365.3934 L 473.4521 366.8325 L 472.8967 368.4509 L 472.3623 371.7879 L 472.4339 375.1551 L 472.6802 376.8177 L 473.6512 380.0243 L 475.3191 382.9538 L 481.2607 390.5405 L 482.6055 393.2697 L 482.9234 394.7857 L 482.9216 396.2085 L 482.3121 398.9097 L 478.4506 408.5131 L 477.6193 409.8125 L 475.6003 412.1132 L 473.1395 413.9249 L 470.1478 415.0054 L 468.5445 415.1684 L 465.3676 414.7865 L 462.6151 413.6734 L 453.4042 408.6947 L 450.7827 406.9505 L 448.5454 404.8175 L 445.882 401.0311 L 442.7785 393.7657 L 437.7416 384.8586 L 435.8694 382.6673 L 434.5595 381.8174 L 431.573 380.8323 L 428.3106 380.4551 L 414.5657 380.7788 L 411.3853 380.6763 L 408.4757 380.0918 L 407.1536 379.4445 L 405.9869 378.4152 L 405.2115 377.1205 L 404.8185 375.7233 L 404.7452 374.3051 L 405.3372 371.6318 L 408.3639 365.4609 L 409.6196 360.4124 L 410.1645 354.9237 L 410.774 339.9179 L 411.3417 334.5294 L 416.0869 323.1842 L 417.9015 318.1845 L 419.1694 315.644 L 420.8862 313.143 L 423.8675 309.6291 L 436.9976 296.1485 L 441.1525 291.2956 L 443.629 287.4672 L 446.2016 281.5478 L 450.6412 273.4231 L 453.1195 267.3896 L 456.616 260.534 L 457.6813 257.3647 L 458.0324 255.6136 L 458.5319 250.1948 L 458.5476 237.2568 L 458.7344 231.7681 L 459.1903 228.189 L 460.1753 224.7403 L 460.9542 223.1149 L 462.9295 220.1295 L 465.2366 217.3701 L 473.8957 208.0904 L 477.0394 203.7335 L 477.8498 202.1383 L 478.9204 198.9504 L 481.4511 187.1302 L 483.3181 175.6243 L 484.0463 170.7224 L 484.0463 170.9646 L 484.1738 170.9646 L 484.1738 171.1323 L 484.4288 171.1323 L 484.5546 171.1323 L 484.6821 171.1323 L 484.6821 171.3023 L 484.8096 171.3023 L 484.8096 171.4723 L 485.1903 171.4723 L 485.192 171.3023 L 485.4453 171.3023 L 485.4453 171.4723 L 486.336 171.4723 L 486.336 171.6423 L 486.4635 171.6423 L 486.4635 171.8123 L 486.5892 171.8123 L 486.5892 171.9799 L 486.7167 171.9799 L 486.7167 172.1499 L 486.8442 172.1499 L 486.8442 172.3199 L 487.2267 172.3199 L 487.2267 172.4899 L 487.6074 172.4899 L 487.6074 172.8299 L 487.8624 172.8299 L 487.8624 172.9975 L 488.1157 172.9975 L 488.1157 172.8299 L 489.0064 172.8299 L 489.0064 172.9975 L 489.3871 172.9975 L 489.3871 172.8299 L 489.5146 172.8299 L 489.5146 172.9975 L 490.0246 172.9975 L 490.0246 172.8299 L 490.5328 172.8299 L 490.5328 172.6599 L 492.8225 172.6599 L 492.8225 172.4899 L 493.2032 172.4899 L 493.2032 172.3199 L 493.9664 172.3199 L 493.9664 172.1499 L 494.6021 172.1499 L 494.6021 171.9799 L 494.9829 171.9799 L 494.9829 171.8123 L 495.6203 171.8123 L 495.6203 171.9799 L 495.7461 171.9799 L 495.7461 172.3199 L 495.8736 172.3199 L 495.8736 172.4899 L 496.1286 172.4899 L 496.1286 172.3199 L 496.2561 172.3199 L 496.2561 172.1499 L 496.7643 172.1499 L 496.7643 171.9799 L 497.655 171.9799 L 497.655 172.1499 L 497.7808 172.1499 L 497.7808 172.3199 L 498.0357 172.3199 L 498.0357 171.9799 L 498.2907 171.9799 L 498.2907 171.4723 L 498.6715 171.4723 L 498.6715 171.6423 L 498.799 171.6423 L 498.799 171.9799 L 499.9429 171.9799 L 499.9429 171.8123 L 500.0704 171.8123 L 500.0704 171.6423 L 500.1979 171.6423 L 500.1979 171.4723 L 500.5786 171.4723 L 500.5786 171.6423 L 501.0886 171.6423 L 501.0886 171.9799 L 501.2161 171.9799 L 501.2161 172.1499 L 501.5968 172.1499 L 501.5968 172.3199 L 501.8518 172.3199 L 501.8518 172.4899 L 502.4875 172.4899 L 502.4875 172.6599 L 502.9958 172.6599 L 502.9958 172.8299 L 503.759 172.8299 L 503.759 172.6599 L 503.8865 172.6599 L 503.8865 172.4899 L 504.014 172.4899 L 504.014 172.6599 L 504.2672 172.6599 L 504.2672 173.3375 L 505.0304 173.3375 L 505.0304 173.5075 L 505.1579 173.5075 L 505.1579 173.6775 L 505.3308 173.6775 Z" fill="#000000" fill-opacity="1" stroke="#000000" stroke-width="0" paint-order="fill" stroke-opacity="1" stroke-dasharray="" stroke-linecap="butt" stroke-linejoin="miter" stroke-miterlimit="10" transform="matrix(1.0499999523162842,0,0,1.0499999523162842,-19.999954223632812,-13.324951171875)" clip-path="none" style="filter: url(#f1)"/>
<path data-code="202" d="M 411.3417 334.5294 L 408.3587 330.2353 L 405.1364 326.4652 L 401.5334 323.5428 L 395.6477 319.8146 L 402.2826 308.8187 L 404.836 302.8014 L 409.3524 294.6116 L 411.8202 288.5687 L 415.1717 281.7271 L 416.6038 276.7228 L 417.8316 265.6617 L 419.0105 260.3012 L 420.2313 257.4416 L 423.0397 251.9785 L 425.5581 245.9869 L 429.0581 239.1523 L 430.1688 235.9248 L 431.0368 230.3593 L 431.3093 224.6099 L 431.2447 189.4378 L 431.718 174.8628 L 431.9048 174.8628 L 431.9048 174.6951 L 432.7956 174.6951 L 432.7956 174.5251 L 433.4313 174.5251 L 433.4313 174.3551 L 434.3202 174.3551 L 434.3202 174.1852 L 434.956 174.1852 L 434.956 174.0152 L 437.1181 174.0152 L 437.1181 174.1852 L 437.2456 174.1852 L 437.2456 174.3551 L 437.7538 174.3551 L 437.7538 174.5251 L 438.1363 174.5251 L 438.1363 174.6951 L 439.6628 174.6951 L 439.6628 174.8628 L 441.5699 174.8628 L 441.5699 174.6951 L 443.0964 174.6951 L 443.0964 174.5251 L 444.4848 174.5251 L 444.876 174.5251 L 444.876 174.3551 L 445.0035 174.3551 L 445.0035 174.5251 L 446.0217 174.5251 L 446.0217 174.3551 L 450.8543 174.3551 L 450.8543 174.5251 L 453.3972 174.5251 L 453.3972 174.3551 L 454.0329 174.3551 L 454.0329 174.0152 L 454.4154 174.0152 L 454.4154 174.1852 L 454.9236 174.1852 L 454.9236 174.0152 L 455.6868 174.0152 L 455.6868 173.8452 L 456.195 173.8452 L 456.195 173.5075 L 456.3225 173.5075 L 456.3225 173.1675 L 456.45 173.1675 L 456.45 172.9975 L 456.5758 172.9975 L 456.5775 172.6599 L 456.7033 172.6599 L 456.7033 172.4899 L 457.339 172.4899 L 457.339 172.6599 L 457.4665 172.6599 L 457.4665 172.8299 L 457.7215 172.8299 L 457.7215 172.9975 L 457.849 172.9975 L 457.849 173.1675 L 457.9747 173.1675 L 457.9747 173.3375 L 458.6122 173.3375 L 458.6122 173.1675 L 458.8654 173.1675 L 458.8654 172.8299 L 459.2479 172.8299 L 459.2479 172.6599 L 459.7561 172.6599 L 459.7561 172.4899 L 460.0111 172.4899 L 460.0111 172.3199 L 460.3919 172.3199 L 460.3919 172.1499 L 461.2826 172.1499 L 461.2826 171.9799 L 461.5358 171.9799 L 461.5358 171.8123 L 462.1715 171.8123 L 462.1715 171.6423 L 462.299 171.6423 L 462.299 171.3023 L 462.4265 171.3023 L 462.4265 171.1323 L 462.554 171.1323 L 462.554 170.9646 L 462.6815 170.9646 L 462.6815 171.1323 L 462.9348 171.1323 L 462.9348 171.3023 L 463.0623 171.3023 L 463.0623 171.4723 L 463.1897 171.4723 L 463.1897 171.6423 L 463.698 171.6423 L 463.698 171.4723 L 464.0805 171.4723 L 464.0805 171.3023 L 464.3337 171.3023 L 464.3337 170.9646 L 466.4959 170.9646 L 466.4959 170.7946 L 466.8783 170.7946 L 466.8783 170.6246 L 469.5487 170.6246 L 469.5487 170.4547 L 470.9477 170.4547 L 470.9477 170.2847 L 471.2026 170.2847 L 471.2026 170.1147 L 471.8384 170.1147 L 471.8384 169.777 L 472.0916 169.777 L 472.0916 169.437 L 472.3466 169.437 L 472.3466 169.267 L 472.7273 169.267 L 472.7273 169.0994 L 473.618 169.0994 L 473.618 169.267 L 473.7455 169.267 L 473.7455 169.437 L 474.0005 169.437 L 474.0005 169.607 L 474.2538 169.607 L 474.2538 169.777 L 474.5088 169.777 L 474.5088 169.947 L 474.6362 169.947 L 474.6362 170.1147 L 475.3995 170.1147 L 475.3995 170.2847 L 476.3775 170.2847 L 476.9242 170.2847 L 476.9242 170.1147 L 477.4341 170.1147 L 477.4341 169.947 L 477.5599 169.947 L 477.5599 169.777 L 477.8149 169.777 L 477.8149 169.607 L 478.1973 169.607 L 478.1973 169.437 L 478.4506 169.437 L 478.4506 169.267 L 478.8331 169.267 L 478.8331 169.1995 L 478.8331 169.0994 L 479.0863 169.0994 L 479.0863 168.9294 L 479.8495 168.9294 L 479.8495 168.7594 L 480.4852 168.7594 L 480.4852 168.5894 L 480.6127 168.5894 L 480.6127 168.2494 L 480.9952 168.2494 L 480.9952 168.5894 L 481.121 168.5894 L 481.121 168.7594 L 481.5035 168.7594 L 481.5035 168.9294 L 482.0117 168.9294 L 482.0117 169.0994 L 482.2667 169.0994 L 482.2667 169.267 L 482.3924 169.267 L 482.3942 169.437 L 482.6474 169.437 L 482.6474 169.607 L 482.9024 169.607 L 482.9024 169.777 L 483.1556 169.777 L 483.1556 169.947 L 483.2831 169.947 L 483.2831 170.1147 L 483.5381 170.1147 L 483.5381 170.2847 L 483.9189 170.2847 L 483.9189 170.6246 L 484.0463 170.6246 L 484.0463 170.7224 L 483.3181 175.6243 L 481.4511 187.1302 L 478.9204 198.9504 L 477.8498 202.1383 L 477.0394 203.7335 L 473.8957 208.0904 L 465.2366 217.3701 L 462.9295 220.1295 L 460.9542 223.1149 L 460.1753 224.7403 L 459.1903 228.189 L 458.7344 231.7681 L 458.5476 237.2568 L 458.5319 250.1948 L 458.0324 255.6136 L 457.6813 257.3647 L 456.616 260.534 L 453.1195 267.3896 L 450.6412 273.4231 L 446.2016 281.5478 L 443.629 287.4672 L 441.1525 291.2956 L 436.9976 296.1485 L 423.8675 309.6291 L 420.8862 313.143 L 419.1694 315.644 L 417.9015 318.1845 L 416.0869 323.1842 L 411.3417 334.5294 Z" fill="#000000" fill-opacity="1" stroke="#000000" stroke-width="0" paint-order="fill" stroke-opacity="1" stroke-dasharray="" stroke-linecap="butt" stroke-linejoin="miter" stroke-miterlimit="10" transform="matrix(1.0499999523162842,0,0,1.0499999523162842,-19.999954223632812,-13.324951171875)" clip-path="none" style="filter: url(#f1)"/>
<path data-code="203" d="M 129.8562 179.8415 L 119.4261 180.8451 L 107.2985 180.8707 L 108.2032 171.6772 L 108.5822 161.7362 L 108.4005 156.0426 L 107.3666 150.8101 L 105.6568 147.8434 L 103.3444 146.0527 L 92.8393 141.924 L 94.0094 134.0648 L 94.4495 124.2518 L 98.47 119.2289 L 100.192 116.5183 L 101.6398 113.4771 L 104.0657 107.1991 L 104.2683 105.6784 L 104.7329 104.8657 L 105.5782 104.1066 L 106.1371 103.8155 L 107.3701 102.5208 L 108.4739 101.6103 L 109.768 101.6103 L 109.768 101.7803 L 110.1505 101.7803 L 110.1505 101.9503 L 110.9137 101.9503 L 110.9137 101.7803 L 111.3521 101.7803 L 112.0577 101.7803 L 112.0577 101.6103 L 112.5659 101.6103 L 112.5659 101.4403 L 113.4566 101.4403 L 113.4566 101.6103 L 113.7116 101.6103 L 113.7116 101.7803 L 113.9648 101.7803 L 113.9648 101.9503 L 114.2198 101.9503 L 114.2198 102.0248 L 114.2198 102.1203 L 115.8738 102.1203 L 115.8738 102.097 L 115.8738 101.9503 L 116.382 101.9503 L 116.382 101.7803 L 117.0177 101.7803 L 117.0177 101.6103 L 117.6534 101.6103 L 117.6534 101.7803 L 117.9084 101.7803 L 117.9084 101.9503 L 118.5441 101.9503 L 118.5441 101.7803 L 119.0524 101.7803 L 119.0524 101.6103 L 119.1799 101.6103 L 119.1799 101.4403 L 119.3074 101.4403 L 119.3074 101.2703 L 119.4348 101.2703 L 119.4348 101.1026 L 120.1963 101.1026 L 120.1963 101.2703 L 120.7063 101.2703 L 120.7063 101.4403 L 120.8338 101.4403 L 120.8338 101.7803 L 120.9595 101.7803 L 120.9595 101.9503 L 121.087 101.9503 L 121.087 102.1203 L 121.342 102.1203 L 121.342 102.2879 L 121.5953 102.2879 L 121.5953 102.4579 L 121.7228 102.4579 L 121.7228 102.6279 L 122.3585 102.6279 L 122.3585 102.7979 L 122.6135 102.7979 L 122.6135 102.9679 L 123.1217 102.9679 L 123.1217 103.1356 L 123.5042 103.1356 L 123.5042 103.3055 L 123.6317 103.3055 L 123.6317 103.4639 L 123.6788 103.4755 L 124.0124 103.4755 L 124.0124 103.5594 L 124.0124 103.6455 L 124.1958 103.6455 L 124.3931 103.6455 L 124.3931 103.7527 L 124.3931 103.8155 L 124.5084 103.8155 L 124.9031 103.8155 L 124.9031 103.9855 L 125.0306 103.9855 L 125.0306 104.0996 L 125.0306 104.1532 L 125.1302 104.1532 L 125.2838 104.1532 L 125.2838 104.237 L 125.2838 104.3232 L 125.4113 104.3232 L 125.4113 104.6632 L 125.5388 104.6632 L 125.5388 104.8331 L 125.6663 104.8331 L 125.6663 105.1708 L 125.7921 105.1708 L 125.7921 105.3408 L 126.4295 105.3408 L 126.4295 105.8484 L 126.0471 105.8508 L 126.0471 106.0184 L 125.9196 106.0184 L 125.9196 106.1884 L 125.8462 106.1884 L 125.6663 106.1884 L 125.6663 107.0361 L 125.7921 107.0361 L 125.7921 107.206 L 126.0471 107.206 L 126.0471 107.716 L 126.5553 107.716 L 126.5553 107.8837 L 126.6828 107.8837 L 126.6828 108.9013 L 126.9378 108.9013 L 126.9378 109.2413 L 127.0653 109.2413 L 127.0653 109.5789 L 127.191 109.5813 L 127.191 109.7489 L 127.3185 109.7489 L 127.3185 110.0889 L 127.446 110.0889 L 127.446 110.2589 L 127.5735 110.2589 L 127.5735 110.4289 L 127.701 110.4289 L 127.701 110.5966 L 127.8285 110.5966 L 127.8285 110.7666 L 127.9542 110.7666 L 127.9542 110.9366 L 128.0817 110.9366 L 128.0817 111.1065 L 128.2092 111.1065 L 128.2092 111.2765 L 128.3367 111.2765 L 128.3367 111.4442 L 128.4642 111.4465 L 128.4642 111.6142 L 128.7175 111.6142 L 128.7175 111.7842 L 128.9724 111.7842 L 128.9724 111.9542 L 129.2274 111.9542 L 129.2274 112.1242 L 129.3532 112.1242 L 129.3532 112.2942 L 129.4807 112.2942 L 129.4807 112.4618 L 129.6082 112.4618 L 129.6082 112.6318 L 129.7357 112.6318 L 129.7357 112.8018 L 130.2439 112.8018 L 130.2439 112.9718 L 130.7521 112.9718 L 130.7521 113.1418 L 131.3878 113.1418 L 131.3878 113.3095 L 132.0253 113.3095 L 132.0253 113.4794 L 132.3117 113.4794 L 133.1081 113.4794 L 133.4242 113.4794 L 133.4242 113.6494 L 133.6775 113.6494 L 133.6775 114.2898 L 133.6775 114.3271 L 133.7037 114.3271 L 133.805 114.3271 L 133.805 114.4715 L 133.805 114.4971 L 134.06 114.4971 L 134.06 114.6019 L 134.06 114.6671 L 134.2975 114.6671 L 134.3132 114.6671 L 134.3132 114.837 L 134.6957 114.837 L 134.6957 115.007 L 134.9489 115.007 L 134.9489 115.1747 L 135.3314 115.1747 L 135.3314 115.3447 L 135.7121 115.3447 L 135.7121 115.5147 L 135.679 117.1354 L 135.7139 117.1867 L 135.5951 126.8017 L 134.8913 134.2813 L 134.0163 137.8209 L 130.4028 146.2739 L 129.4842 149.9508 L 128.9847 153.7955 L 128.6808 159.7126 L 128.7332 167.7162 L 129.0807 173.7241 L 129.8562 179.8415 Z" fill="#000000" fill-opacity="1" stroke="#000000" stroke-width="0" paint-order="fill" stroke-opacity="1" stroke-dasharray="" stroke-linecap="butt" stroke-linejoin="miter" stroke-miterlimit="10" transform="matrix(1.0499999523162842,0,0,1.0499999523162842,-19.999954223632812,-13.324951171875)" clip-path="none" style="filter: url(#f1)"/>
<path data-code="204" d="M 211.2846 163.8995 L 203.4812 158.2548 L 199.8573 155.0506 L 195.2081 150.4492 L 174.7497 129.0302 L 171.627 125.309 L 166.5657 118.3044 L 163.1076 114.3271 L 163.1827 114.3271 L 163.1827 114.1594 L 163.6909 114.1594 L 163.6909 113.8194 L 164.0734 113.8194 L 164.0734 113.6494 L 164.3267 113.6494 L 164.3267 113.4794 L 164.5816 113.4794 L 164.5816 113.3095 L 165.0899 113.3095 L 165.0899 113.1418 L 165.3449 113.1418 L 165.3449 112.9718 L 165.5981 112.9718 L 165.5981 112.8018 L 165.8531 112.8018 L 165.8531 112.6318 L 166.2356 112.6318 L 166.2356 112.4618 L 166.4888 112.4618 L 166.4888 112.2942 L 166.997 112.2942 L 166.997 111.9542 L 167.252 111.9542 L 167.252 111.7842 L 167.7603 111.7842 L 167.7603 111.6142 L 168.2702 111.6142 L 168.2702 111.4465 L 168.5235 111.4442 L 168.5235 111.2765 L 168.906 111.2765 L 168.906 111.1065 L 169.1592 111.1065 L 169.1592 110.9366 L 169.4142 110.9366 L 169.4142 110.7666 L 169.7949 110.7666 L 169.7949 110.5966 L 170.0499 110.5966 L 170.0499 110.4289 L 170.3049 110.4289 L 170.3049 110.2589 L 170.5581 110.2589 L 170.5581 110.0889 L 170.6856 110.0889 L 170.6856 109.9189 L 170.9406 109.9189 L 170.9406 109.7489 L 171.1939 109.7489 L 171.1939 109.5813 L 171.4489 109.5789 L 171.4489 109.4113 L 171.8296 109.4113 L 171.8313 109.2413 L 172.0846 109.2413 L 172.0846 109.0713 L 172.3396 109.0713 L 172.3396 108.9013 L 173.4835 108.9013 L 173.4835 108.7313 L 173.611 108.7313 L 173.611 108.9013 L 174.6275 108.9013 L 174.6275 109.0713 L 175.7732 109.0713 L 175.7732 108.9013 L 176.6639 108.9013 L 176.6639 108.7313 L 177.0446 108.7313 L 177.0446 108.5637 L 177.2996 108.5637 L 177.2996 108.3937 L 177.6803 108.3937 L 177.6803 108.2237 L 178.0628 108.2237 L 178.0628 108.0537 L 178.3161 108.0537 L 178.3161 107.8837 L 178.6985 107.8837 L 178.6985 107.716 L 178.9518 107.716 L 178.9518 107.546 L 179.2068 107.546 L 179.2068 107.376 L 179.4618 107.376 L 179.4618 107.206 L 179.8425 107.206 L 179.8425 107.0361 L 180.0975 107.0361 L 180.0975 106.8661 L 180.3507 106.8661 L 180.3507 106.6984 L 180.6057 106.6984 L 180.6057 106.5284 L 180.8607 106.5284 L 180.8607 106.3584 L 180.9864 106.3584 L 180.9864 106.1884 L 181.2414 106.1884 L 181.2414 106.0184 L 181.4964 106.0184 L 181.4964 105.8508 L 181.6222 105.8508 L 181.6222 105.6808 L 181.8772 105.6808 L 181.8772 105.5108 L 182.1321 105.5108 L 182.1321 105.3408 L 182.3854 105.3408 L 182.3854 105.1708 L 182.6404 105.1708 L 182.6404 105.0008 L 183.1486 105.0008 L 183.1486 104.8331 L 183.6289 104.8331 L 183.6586 104.8331 L 183.6586 104.8122 L 183.6586 104.6632 L 183.8804 104.6632 L 184.0393 104.6632 L 184.0393 104.556 L 184.0393 104.4932 L 184.1319 104.4932 L 184.2943 104.4932 L 184.2943 104.3814 L 184.2943 104.3232 L 184.3816 104.3232 L 184.5475 104.3232 L 184.5475 104.244 L 184.5475 104.1532 L 184.7449 104.1532 L 184.8025 104.1532 L 184.8025 104.1276 L 184.8025 103.9855 L 184.93 103.9855 L 184.93 103.8155 L 185.1833 103.8155 L 185.1833 103.6455 L 185.4382 103.6455 L 185.4382 103.4755 L 185.5657 103.4755 L 185.5657 103.3055 L 186.4565 103.3055 L 186.4565 103.1356 L 186.8372 103.1356 L 186.8372 102.9679 L 187.3454 102.9679 L 187.3454 102.7979 L 187.4729 102.7979 L 187.4729 102.6279 L 187.7279 102.6279 L 187.7279 102.4579 L 187.9811 102.4579 L 187.9811 102.2879 L 188.2361 102.2879 L 188.2361 102.1203 L 188.4911 102.1203 L 188.4911 101.9503 L 188.7444 101.9503 L 188.7444 101.7803 L 188.9993 101.7803 L 188.9993 101.6103 L 189.2543 101.6103 L 189.2543 101.4403 L 189.5076 101.4403 L 189.5076 101.2703 L 189.7626 101.2703 L 189.7626 101.1026 L 190.0158 101.1026 L 190.0158 100.9326 L 190.1433 100.9326 L 190.1433 100.7627 L 190.3983 100.7627 L 190.3983 100.5927 L 190.5258 100.5927 L 190.5258 100.4227 L 190.779 100.4227 L 190.779 100.255 L 191.034 100.255 L 191.034 100.085 L 191.1615 100.085 L 191.1615 99.915 L 191.4147 99.915 L 191.4147 99.745 L 191.5422 99.745 L 191.5422 99.575 L 191.7972 99.575 L 191.7972 99.4051 L 192.0522 99.4051 L 192.0522 99.2374 L 192.178 99.2374 L 192.178 99.0674 L 192.4329 99.0674 L 192.4329 98.8974 L 192.6879 98.8974 L 192.6879 98.7274 L 193.4512 98.7274 L 193.4512 98.5574 L 193.7044 98.5574 L 193.7044 98.3898 L 193.8319 98.3898 L 193.8319 98.2198 L 193.9594 98.2198 L 193.9594 98.0498 L 194.2126 98.0498 L 194.2126 97.8798 L 194.3401 97.8798 L 194.3401 97.7098 L 194.4676 97.7098 L 194.4676 97.5398 L 194.5951 97.5398 L 194.5951 97.3721 L 194.7226 97.3721 L 194.7226 97.2021 L 194.8501 97.2021 L 194.8501 97.0322 L 194.9758 97.0322 L 194.9758 96.8622 L 195.1033 96.8622 L 195.1033 96.6922 L 195.3583 96.6922 L 195.3583 97.3721 L 195.2308 97.3721 L 195.2308 97.5398 L 195.1033 97.5398 L 195.1033 97.8798 L 194.9758 97.8798 L 194.9758 98.2198 L 195.994 98.2198 L 195.994 98.0498 L 196.3748 98.0498 L 196.3748 97.8798 L 196.5023 97.8798 L 196.5023 97.7098 L 196.6298 97.7098 L 196.6298 97.5398 L 196.7573 97.5398 L 196.7573 97.0322 L 197.393 97.0322 L 197.393 96.8622 L 197.7737 96.8622 L 197.7737 96.6922 L 198.0287 96.6922 L 198.0287 96.5245 L 198.4094 96.5245 L 198.4094 96.3545 L 198.6644 96.3545 L 198.6644 96.1845 L 198.7919 96.1845 L 198.7919 96.0145 L 199.0452 96.0145 L 199.0469 95.6745 L 199.1727 95.6745 L 199.1727 95.5069 L 199.4276 95.5069 L 199.4276 95.3369 L 199.6826 95.3369 L 199.6826 95.1669 L 199.8084 95.1669 L 199.8084 94.9969 L 199.9359 94.9969 L 199.9359 94.6593 L 200.0634 94.6593 L 200.0634 94.4893 L 200.5716 94.4893 L 200.5716 94.3193 L 201.4623 94.3193 L 201.4623 94.1493 L 201.843 94.1493 L 201.843 93.9793 L 202.098 93.9793 L 202.098 93.8093 L 202.2255 93.8093 L 202.2255 93.6416 L 202.4805 93.6416 L 202.4805 93.4716 L 202.6063 93.4716 L 202.6063 93.3016 L 202.8612 93.3016 L 202.8612 93.1317 L 203.1162 93.1317 L 203.1162 92.9617 L 203.242 92.9617 L 203.242 92.794 L 203.3695 92.794 L 203.3695 92.624 L 203.497 92.624 L 203.497 92.454 L 203.6245 92.454 L 203.6245 92.284 L 203.8794 92.284 L 203.8794 92.114 L 204.0052 92.114 L 204.0052 91.944 L 204.2602 91.944 L 204.2602 91.7764 L 204.3877 91.7764 L 204.3877 91.6064 L 204.6409 91.6064 L 204.6409 91.4364 L 204.7684 91.4364 L 204.7684 91.2664 L 205.0234 91.2664 L 205.0234 91.0964 L 205.1509 91.0964 L 205.1509 90.9287 L 205.2784 90.9287 L 205.2784 90.7588 L 205.5316 90.7588 L 205.5316 90.5888 L 205.6591 90.5888 L 205.6591 90.4188 L 205.7866 90.4188 L 205.7866 90.2488 L 205.9141 90.2488 L 205.9141 90.0788 L 206.1674 90.0788 L 206.1674 89.9111 L 206.2948 89.9111 L 206.2948 89.7411 L 206.5498 89.7411 L 206.5498 89.5711 L 206.6773 89.5711 L 206.6773 89.4011 L 206.9306 89.4011 L 206.9306 89.2312 L 207.0581 89.2312 L 207.0581 89.0635 L 207.3131 89.0635 L 207.3131 88.8935 L 207.4388 88.8935 L 207.4388 88.7235 L 207.8213 88.7235 L 207.8213 88.5535 L 207.9488 88.5535 L 207.9488 88.3835 L 208.0763 88.3835 L 208.0763 88.2135 L 208.202 88.2135 L 208.202 88.0459 L 208.457 88.0459 L 208.457 87.8759 L 208.5845 87.8759 L 208.5845 87.7059 L 208.9652 87.7059 L 208.9652 87.3659 L 209.3477 87.3659 L 209.3477 87.1982 L 209.7284 87.1982 L 209.7284 87.0282 L 209.8559 87.0282 L 209.8559 86.8583 L 210.1109 86.8583 L 210.1109 86.6883 L 210.2367 86.6883 L 210.2367 86.5183 L 210.4917 86.5183 L 210.4917 86.3483 L 210.6192 86.3483 L 210.6192 86.1806 L 210.8741 86.1806 L 210.8741 86.0106 L 210.9999 86.0106 L 210.9999 85.8406 L 211.2549 85.8406 L 211.2549 85.6706 L 211.3824 85.6706 L 211.3824 85.5007 L 211.5099 85.5007 L 211.5099 85.333 L 211.6356 85.333 L 211.6356 85.163 L 211.7631 85.163 L 211.7631 84.993 L 212.0181 84.993 L 212.0181 84.823 L 212.1456 84.823 L 211.5727 91.986 L 211.6426 91.9534 L 211.3614 109.8002 L 211.2846 163.8995 Z" fill="#000000" fill-opacity="1" stroke="#000000" stroke-width="0" paint-order="fill" stroke-opacity="1" stroke-dasharray="" stroke-linecap="butt" stroke-linejoin="miter" stroke-miterlimit="10" transform="matrix(1.0499999523162842,0,0,1.0499999523162842,-19.999954223632812,-13.324951171875)" clip-path="none" style="filter: url(#f1)"/>
<path data-code="205" d="M 533.9977 408.9578 L 541.3871 401.1918 L 545.6573 395.6682 L 547.2414 392.7015 L 549.8786 386.8636 L 553.6143 380.1081 L 556.0961 374.0932 L 559.5716 367.2423 L 560.6597 364.0381 L 561.2937 360.4263 L 561.6657 354.8283 L 561.5626 331.9096 L 562.0691 322.5484 L 563.2305 317.2531 L 566.9837 308.8722 L 567.8273 305.6354 L 568.3006 302.2449 L 568.5992 296.9891 L 568.608 291.582 L 567.7923 278.8442 L 573.8876 280.1855 L 577.8923 280.6932 L 594.1486 281.1799 L 628.827 281.0588 L 636.8678 280.4254 L 643.4154 279.0305 L 643.9568 288.3591 L 644.1612 307.7498 L 644.6607 312.8868 L 645.4641 316.1656 L 646.0404 317.628 L 649.5543 324.4346 L 651.4178 328.9173 L 652.9652 331.87 L 656.0268 335.9801 L 660.7092 341.1544 L 675.4338 356.4048 L 681.7369 362.3591 L 685.8517 365.242 L 691.6657 367.8664 L 698.2675 371.555 L 701.1422 372.7519 L 703.7515 373.5274 L 705.2709 381.1164 L 705.8507 389.2528 L 705.8438 430.4467 L 699.6751 432.1582 L 691.4963 435.9563 L 688.0418 436.8365 L 680.7729 437.4839 L 663.9996 437.5537 L 656.6835 438.0288 L 651.4842 439.2117 L 643.3159 442.9609 L 638.1515 444.1508 L 632.7304 444.5676 L 627.2045 444.549 L 621.6559 444.1462 L 615.3842 443.2054 L 604.9262 445.718 L 601.7424 446.9755 L 596.8924 449.4019 L 593.4675 450.6361 L 588.022 451.5513 L 580.5086 451.9052 L 571.074 451.6491 L 565.5656 450.9482 L 562.0761 449.9911 L 553.9182 446.2 L 548.8447 445.0054 L 541.7085 444.4652 L 527.0624 444.4838 L 527.4956 437.5793 L 528.2989 432.5658 L 529.284 429.5152 L 532.3106 422.471 L 533.107 419.2319 L 533.5646 415.86 L 533.9977 408.9578 Z" fill="#000000" fill-opacity="1" stroke="#000000" stroke-width="0" paint-order="fill" stroke-opacity="1" stroke-dasharray="" stroke-linecap="butt" stroke-linejoin="miter" stroke-miterlimit="10" transform="matrix(1.0499999523162842,0,0,1.0499999523162842,-19.999954223632812,-13.324951171875)" clip-path="none" style="filter: url(#f1)"/>
<path data-code="206" d="M 642.7221 247.6216 L 649.0042 258.7084 L 649.8338 261.7659 L 649.9403 263.3983 L 649.8373 265.0283 L 649.0234 268.0789 L 645.4344 274.7342 L 643.4154 279.0305 L 636.8678 280.4254 L 628.827 281.0588 L 594.1486 281.1799 L 577.8923 280.6932 L 573.8876 280.1855 L 567.7923 278.8442 L 569.7152 274.5735 L 573.3322 267.6853 L 574.3906 264.6092 L 575.1835 259.5676 L 575.5083 252.6492 L 581.67 250.9237 L 589.854 247.1443 L 593.3819 246.2337 L 597.0566 245.7517 L 608.4227 245.3815 L 629.4924 245.6702 L 637.0198 246.3455 L 642.7221 247.6216 Z" fill="#000000" fill-opacity="1" stroke="#000000" stroke-width="0" paint-order="fill" stroke-opacity="1" stroke-dasharray="" stroke-linecap="butt" stroke-linejoin="miter" stroke-miterlimit="10" transform="matrix(1.0499999523162842,0,0,1.0499999523162842,-19.999954223632812,-13.324951171875)" clip-path="none" style="filter: url(#f1)"/>
<path data-code="207" d="M 194.5829 258.9598 L 189.7556 247.2979 L 188.2326 244.3126 L 186.2766 241.4996 L 180.9183 234.7418 L 179.0705 231.8427 L 178.33 230.2778 L 177.7764 228.685 L 177.0673 225.3853 L 175.616 213.416 L 183.2848 208.8844 L 185.7858 206.9936 L 188.1313 204.8698 L 191.3955 201.3675 L 193.3638 198.8293 L 194.9269 196.4285 L 197.7458 191.4335 L 207.8283 198.8014 L 211.7596 201.2791 L 217.6348 203.8522 L 225.6757 207.925 L 232.9952 209.8113 L 235.6726 210.8661 L 236.8707 211.6858 L 238.7097 213.8794 L 241.8569 219.913 L 242.6673 222.5141 L 242.8018 223.895 L 242.3616 226.5776 L 240.3794 231.7681 L 239.5847 234.8653 L 237.8906 246.7973 L 236.4498 253.073 L 232.3385 254.1931 L 224.2855 257.8794 L 219.1036 259.0297 L 209.9782 259.4954 L 194.5829 258.9598 Z" fill="#000000" fill-opacity="1" stroke="#000000" stroke-width="0" paint-order="fill" stroke-opacity="1" stroke-dasharray="" stroke-linecap="butt" stroke-linejoin="miter" stroke-miterlimit="10" transform="matrix(1.0499999523162842,0,0,1.0499999523162842,-19.999954223632812,-13.324951171875)" clip-path="none" style="filter: url(#f1)"/>
<path data-code="208" d="M 642.7221 247.6216 L 643.5464 242.0771 L 644.0302 236.507 L 644.4336 210.5518 L 644.8545 206.975 L 645.6963 203.5262 L 651.6711 190.7489 L 653.2779 187.7845 L 657.5934 182.2935 L 665.016 174.5647 L 671.892 174.5717 L 675.8041 179.5853 L 677.4353 182.2609 L 680.0184 188.2595 L 684.437 196.4098 L 686.8646 202.469 L 691.2902 210.6193 L 693.7144 216.6808 L 696.5612 222.1438 L 697.8221 224.9778 L 698.7006 228.1727 L 699.2979 231.4514 L 699.6804 238.3676 L 700.1118 241.7464 L 700.889 244.9996 L 703.9139 252.0531 L 704.9391 255.2363 L 705.5905 258.8364 L 706.5668 268.0719 L 707.2113 271.686 L 708.2469 274.8879 L 711.3766 281.8971 L 714.5919 294.6954 L 717.7967 301.6674 L 718.8534 304.8227 L 719.6987 310.1577 L 719.9991 315.6673 L 719.8139 328.6332 L 719.4664 332.2636 L 718.8184 335.7915 L 717.7618 338.9492 L 714.5814 345.9165 L 713.6698 349.0602 L 712.2813 355.5501 L 711.3068 358.7311 L 709.976 361.5651 L 706.8794 367.0421 L 703.7515 373.5274 L 701.1422 372.7519 L 698.2675 371.555 L 691.6657 367.8664 L 685.8517 365.242 L 681.7369 362.3591 L 675.4338 356.4048 L 660.7092 341.1544 L 656.0268 335.9801 L 652.9652 331.87 L 651.4178 328.9173 L 649.5543 324.4346 L 646.0404 317.628 L 645.4641 316.1656 L 644.6607 312.8868 L 644.1612 307.7498 L 643.9568 288.3591 L 643.4154 279.0305 L 645.4344 274.7342 L 649.0234 268.0789 L 649.8373 265.0283 L 649.9403 263.3983 L 649.8338 261.7659 L 649.0042 258.7084 L 642.7221 247.6216 Z" fill="#000000" fill-opacity="1" stroke="#000000" stroke-width="0" paint-order="fill" stroke-opacity="1" stroke-dasharray="" stroke-linecap="butt" stroke-linejoin="miter" stroke-miterlimit="10" transform="matrix(1.0499999523162842,0,0,1.0499999523162842,-19.999954223632812,-13.324951171875)" clip-path="none" style="filter: url(#f1)"/>
<path data-code="209" d="M 533.9977 408.9578 L 530.2568 407.4745 L 528.1802 405.7303 L 523.9554 399.5478 L 516.5171 390.0468 L 514.7514 387.1011 L 511.3824 379.7239 L 506.0259 371.8251 L 502.9539 367.7174 L 511.1851 353.2192 L 512.488 349.633 L 513.1883 345.8327 L 513.6878 335.9755 L 513.4363 293.7663 L 513.728 288.2893 L 514.5436 283.1918 L 515.5967 280.0994 L 519.0146 273.2042 L 521.4457 267.1567 L 525.0679 260.364 L 528.3758 253.2407 L 531.2156 249.6313 L 533.6222 247.7148 L 536.6454 246.2943 L 540.1262 245.5421 L 547.3881 245.1626 L 575.5206 245.5421 L 575.5083 252.6492 L 575.1835 259.5676 L 574.3906 264.6092 L 573.3322 267.6853 L 569.7152 274.5735 L 567.7923 278.8442 L 568.608 291.582 L 568.5992 296.9891 L 568.3006 302.2449 L 567.8273 305.6354 L 566.9837 308.8722 L 563.2305 317.2531 L 562.0691 322.5484 L 561.5626 331.9096 L 561.6657 354.8283 L 561.2937 360.4263 L 560.6597 364.0381 L 559.5716 367.2423 L 556.0961 374.0932 L 553.6143 380.1081 L 549.8786 386.8636 L 547.2414 392.7015 L 545.6573 395.6682 L 541.3871 401.1918 L 533.9977 408.9578 Z" fill="#000000" fill-opacity="1" stroke="#000000" stroke-width="0" paint-order="fill" stroke-opacity="1" stroke-dasharray="" stroke-linecap="butt" stroke-linejoin="miter" stroke-miterlimit="10" transform="matrix(1.0499999523162842,0,0,1.0499999523162842,-19.999954223632812,-13.324951171875)" clip-path="none" style="filter: url(#f1)"/>
<path data-code="210" d="M 377.2135 227.8746 L 376.4852 235.3752 L 376.1341 252.8937 L 375.6084 260.548 L 374.4348 265.9947 L 370.8056 274.4687 L 369.8852 278.0735 L 369.3612 281.8296 L 368.9927 287.5604 L 369.0801 300.3238 L 369.6756 305.4747 L 371.1112 310.2042 L 374.6077 317.0505 L 377.699 324.5488 L 382.8599 334.6295 L 377.4929 345.4927 L 376.5585 348.6713 L 374.8575 356.8076 L 373.8008 359.8139 L 370.5908 366.8092 L 369.7001 369.9948 L 368.0444 378.166 L 367.0017 381.1979 L 363.886 388.2142 L 363.0564 391.3672 L 361.8024 397.7943 L 360.7476 400.9077 L 360.0158 402.2862 L 358.1715 404.7686 L 355.936 406.869 L 353.3075 408.5433 L 349.088 410.532 L 342.4775 414.1298 L 339.4526 415.208 L 336.1832 415.8018 L 332.8474 416.0416 L 327.8297 415.8996 L 324.5375 415.4408 L 321.3642 414.5443 L 319.9513 413.9272 L 313.3687 410.206 L 307.5809 407.5374 L 299.7653 402.8335 L 293.946 400.244 L 287.3041 396.7021 L 285.8947 396.1363 L 282.7545 395.3632 L 276.6051 394.9137 L 266.7828 389.1619 L 259.5611 386.0089 L 251.5447 381.7405 L 248.4569 380.8137 L 240.5593 379.158 L 237.6496 378.0636 L 230.9116 374.7057 L 227.8291 373.8045 L 221.4893 372.5307 L 218.405 371.5853 L 210.4183 367.254 L 204.5623 364.739 L 199.2949 361.7607 L 196.5651 360.4403 L 193.4808 359.5228 L 187.1393 358.2933 L 184.0411 357.4014 L 181.2903 356.1113 L 176.0107 353.1982 L 170.1809 350.5948 L 167.4145 348.7924 L 164.8157 346.6477 L 161.1149 343.0779 L 157.5939 339.2589 L 153.3465 333.7632 L 149.5461 326.8285 L 148.9837 316.0841 L 149.1549 309.2122 L 149.9967 304.1544 L 150.5399 302.529 L 152.2182 299.3364 L 154.3367 296.4535 L 157.8716 292.4902 L 162.3793 288.0308 L 165.7011 285.1013 L 167.9803 283.3688 L 170.3608 281.925 L 175.0396 279.9503 L 177.5057 278.6463 L 180.0119 276.8439 L 183.5625 273.6909 L 188.0196 269.0383 L 191.0742 265.2612 L 192.8364 262.5367 L 194.5829 258.9598 L 209.9782 259.4954 L 219.1036 259.0297 L 224.2855 257.8794 L 232.3385 254.1931 L 236.4498 253.073 L 247.0073 251.9646 L 251.7892 250.8189 L 259.9471 246.9254 L 263.0122 246.0195 L 269.3327 244.7294 L 272.4292 243.8119 L 280.4875 239.632 L 284.8538 237.7225 L 286.3034 236.9936 L 289.1327 235.1074 L 291.7611 232.8533 L 294.222 230.364 L 296.5064 227.707 L 298.5585 224.8963 L 300.8115 220.8328 L 306.0963 217.9965 L 313.6028 215.1788 L 320.1608 211.9932 L 323.0862 211.2597 L 326.1827 211.2643 L 329.0854 211.9932 L 334.3127 214.429 L 337.3131 215.4978 L 340.7642 216.1918 L 349.6992 217.2676 L 354.8986 218.4948 L 363.0634 222.4675 L 370.7794 225.029 L 377.2135 227.8746 Z" fill="#000000" fill-opacity="1" stroke="#000000" stroke-width="0" paint-order="fill" stroke-opacity="1" stroke-dasharray="" stroke-linecap="butt" stroke-linejoin="miter" stroke-miterlimit="10" transform="matrix(1.0499999523162842,0,0,1.0499999523162842,-19.999954223632812,-13.324951171875)" clip-path="none" style="filter: url(#f1)"/>
<path data-code="211" d="M 403.0703 155.5326 L 400.613 159.8989 L 395.0137 168.1982 L 391.4683 172.3711 L 381.5343 183.0643 L 379.3826 185.9379 L 377.6763 189.1049 L 377.086 190.8211 L 376.3734 194.3769 L 375.935 201.7308 L 376.2564 216.7786 L 377.2135 227.8746 L 370.7794 225.029 L 363.0634 222.4675 L 354.8986 218.4948 L 349.6992 217.2676 L 340.7642 216.1918 L 337.3131 215.4978 L 334.3127 214.429 L 329.0854 211.9932 L 326.1827 211.2643 L 323.0862 211.2597 L 320.1608 211.9932 L 313.6028 215.1788 L 306.0963 217.9965 L 300.8115 220.8328 L 300.4639 189.2725 L 300.8726 175.3099 L 301.3668 171.4583 L 302.2715 167.7697 L 305.8361 159.3004 L 306.7094 155.7958 L 307.3713 150.2769 L 307.9791 138.9153 L 308.1624 138.9153 L 308.1624 139.0853 L 308.4174 139.0853 L 308.4174 139.2553 L 308.5449 139.2553 L 308.5449 139.593 L 308.6707 139.593 L 308.6707 139.763 L 308.9257 139.763 L 308.9257 139.933 L 309.3081 139.933 L 309.3081 140.103 L 309.5614 140.103 L 309.5614 140.273 L 310.0696 140.273 L 310.0696 140.4406 L 310.5796 140.4406 L 310.5796 140.6106 L 311.596 140.6106 L 311.596 140.7806 L 311.9785 140.7806 L 311.9785 140.9506 L 312.2318 140.9506 L 312.2318 141.1206 L 312.4868 141.1206 L 312.4868 141.2882 L 312.6143 141.2882 L 312.6143 141.4582 L 312.7417 141.4582 L 312.7417 141.6282 L 313.3775 141.6282 L 313.3775 141.7982 L 313.6307 141.7982 L 313.6307 141.9682 L 314.6489 141.9682 L 314.6489 142.1382 L 316.0479 142.1382 L 316.0479 142.3059 L 316.1753 142.3059 L 316.1753 142.6458 L 316.4286 142.6458 L 316.4286 142.8158 L 316.5561 142.8158 L 316.5561 142.9858 L 316.6836 142.9858 L 316.6836 143.1535 L 316.8111 143.1535 L 316.8111 143.4935 L 316.9386 143.4935 L 316.9386 143.8335 L 317.0643 143.8335 L 317.0643 144.0035 L 317.1918 144.0035 L 317.1918 144.1711 L 317.7 144.1711 L 317.7 144.3411 L 317.8275 144.3411 L 317.8275 144.8255 L 317.8275 144.8511 L 317.8764 144.8511 L 317.955 144.8511 L 317.955 145.1887 L 318.0825 145.1887 L 318.0825 145.3587 L 318.21 145.3587 L 318.21 145.5287 L 318.4633 145.5287 L 318.4633 145.6987 L 318.5907 145.6987 L 318.5907 145.8687 L 318.7182 145.8687 L 318.7182 146.0364 L 318.8457 146.0364 L 318.8457 146.2064 L 318.9732 146.2064 L 318.9732 146.3764 L 319.099 146.3764 L 319.099 146.5463 L 319.6089 146.5463 L 319.6089 146.7163 L 319.8622 146.7163 L 319.8622 146.884 L 319.9897 146.884 L 319.9897 147.054 L 320.1172 147.054 L 320.1172 147.394 L 320.2447 147.394 L 320.2447 147.564 L 320.3722 147.564 L 320.3722 147.7316 L 320.7529 147.734 L 320.7529 147.9016 L 321.1354 147.9016 L 321.1354 148.0716 L 321.5161 148.0716 L 321.5161 148.2416 L 321.8969 148.2416 L 321.8969 148.4116 L 322.2793 148.4116 L 322.2793 148.5816 L 322.6601 148.5816 L 322.6601 148.7493 L 323.2958 148.7493 L 323.2958 148.9192 L 324.059 148.9192 L 324.059 149.0892 L 324.6947 149.0892 L 324.6947 149.2592 L 325.3322 149.2592 L 325.3322 149.4292 L 328.7658 149.4292 L 328.7658 149.5969 L 329.7823 149.5992 L 329.7823 149.7669 L 330.1647 149.7669 L 330.1647 149.9369 L 331.0537 149.9369 L 331.0537 149.7669 L 331.3087 149.7669 L 331.3087 149.5992 L 331.6894 149.5969 L 331.6894 149.4292 L 331.9444 149.4292 L 331.9444 149.2592 L 332.4526 149.2592 L 332.4526 149.0892 L 332.7076 149.0892 L 332.7076 148.9192 L 332.9626 148.9192 L 332.9626 148.7493 L 333.2159 148.7493 L 333.2159 148.5816 L 333.5983 148.5816 L 333.5983 148.4116 L 333.8516 148.4116 L 333.8516 148.2416 L 334.2341 148.2416 L 334.2341 148.0716 L 334.6148 148.0716 L 334.6148 147.9016 L 335.378 147.9016 L 335.378 147.734 L 336.0137 147.7316 L 336.0137 147.564 L 336.5237 147.564 L 336.5237 147.394 L 336.6495 147.394 L 336.6495 147.564 L 337.1594 147.564 L 337.1594 147.394 L 337.5402 147.394 L 337.5402 147.564 L 338.8116 147.564 L 338.8116 147.394 L 339.1941 147.394 L 339.1941 147.224 L 339.4473 147.224 L 339.4473 147.054 L 339.7023 147.054 L 339.7023 146.884 L 339.9573 146.884 L 339.9573 146.7163 L 340.0429 146.7163 L 340.0831 146.7163 L 340.0831 146.5463 L 340.3381 146.5463 L 340.3381 146.3764 L 340.593 146.3764 L 340.593 146.2064 L 340.8463 146.2064 L 340.8463 146.0364 L 341.1013 146.0364 L 341.1013 145.8687 L 341.6095 145.8687 L 341.6095 145.6987 L 342.5002 145.6987 L 342.5002 145.5287 L 342.6277 145.5287 L 342.6277 145.3587 L 342.8809 145.3587 L 342.8809 145.1887 L 343.0084 145.1887 L 343.0084 145.0187 L 343.6442 145.0187 L 343.6442 144.8511 L 343.8991 144.8511 L 343.8991 144.6811 L 344.0266 144.6811 L 344.0266 144.5111 L 344.2799 144.5111 L 344.2799 144.3411 L 344.4074 144.3411 L 344.4074 144.1711 L 344.6624 144.1711 L 344.6624 144.0035 L 344.7899 144.0035 L 344.7899 143.8335 L 344.9156 143.8335 L 344.9156 143.6635 L 345.2981 143.6635 L 345.2981 143.4935 L 345.4256 143.4935 L 345.4256 143.3235 L 345.9338 143.3235 L 345.9338 142.9858 L 346.3145 142.9858 L 346.3145 142.8158 L 346.697 142.8158 L 346.697 142.6458 L 347.0778 142.6458 L 347.0778 142.4759 L 347.5877 142.4759 L 347.5877 142.3059 L 347.841 142.3059 L 347.841 142.1382 L 348.2235 142.1382 L 348.2235 141.9682 L 348.6042 141.9682 L 348.6042 141.7982 L 348.9867 141.7982 L 348.9867 141.6282 L 349.3674 141.6282 L 349.3674 141.4582 L 349.6224 141.4582 L 349.6224 141.2882 L 350.0031 141.2882 L 350.0031 141.1206 L 350.8938 141.1206 L 350.8938 141.4582 L 351.5296 141.4582 L 351.5296 141.2882 L 351.6571 141.2882 L 351.6571 141.1206 L 352.0378 141.1206 L 352.0378 140.9506 L 352.5478 140.9506 L 352.5478 140.7806 L 353.1835 140.7806 L 353.1835 140.6106 L 353.9467 140.6106 L 353.9467 140.4406 L 354.3274 140.4406 L 354.3274 140.273 L 355.0907 140.273 L 355.0907 140.103 L 355.2182 140.103 L 355.2182 139.933 L 355.3457 139.933 L 355.3457 139.763 L 355.4714 139.763 L 355.4714 139.593 L 355.8539 139.593 L 355.8539 139.423 L 356.6171 139.423 L 356.6171 139.763 L 357.5061 139.763 L 357.5061 140.103 L 357.6336 140.103 L 357.6336 140.4406 L 357.7611 140.4406 L 357.7611 140.7806 L 358.016 140.7806 L 358.016 140.9506 L 358.5243 140.9506 L 358.5243 141.1206 L 359.9232 141.1206 L 359.9232 141.2882 L 360.4314 141.2882 L 360.4314 141.1206 L 360.6864 141.1206 L 360.6864 140.9506 L 361.1947 140.9506 L 361.1947 141.1206 L 361.3221 141.1206 L 361.3221 141.2882 L 361.9579 141.2882 L 361.9579 141.4582 L 363.7393 141.4582 L 363.7393 141.6282 L 364.7557 141.6282 L 364.7557 141.4582 L 364.8832 141.4582 L 364.8832 142.3059 L 364.7557 142.3059 L 364.7557 142.4759 L 364.6283 142.4759 L 364.6283 142.6458 L 364.5008 142.6458 L 364.5008 142.9858 L 364.4379 142.9858 L 364.375 142.9858 L 364.375 143.1535 L 364.2475 143.1535 L 364.2475 144.0035 L 364.5008 144.0035 L 364.5008 144.1711 L 364.7557 144.1711 L 364.7557 144.3411 L 365.1382 144.3411 L 365.1382 144.5111 L 365.519 144.5111 L 365.519 144.6811 L 365.774 144.6811 L 365.774 144.8511 L 366.7799 144.8511 L 366.9179 144.8511 L 366.9179 144.5111 L 367.1729 144.5111 L 367.1729 144.3411 L 368.1894 144.3411 L 368.1894 144.5111 L 368.0619 144.5111 L 368.0619 144.8511 L 367.6811 144.8511 L 367.6811 145.0187 L 367.2986 145.0187 L 367.2986 145.2633 L 367.2986 145.5287 L 367.4261 145.5287 L 367.4261 145.6987 L 367.5536 145.6987 L 367.5536 145.8687 L 367.6811 145.8687 L 367.6811 146.0364 L 367.8086 146.0364 L 367.8086 146.2064 L 367.9344 146.2064 L 367.9361 146.5463 L 368.8251 146.5463 L 368.8251 146.3764 L 368.9526 146.3764 L 368.9526 146.2064 L 369.0801 146.2064 L 369.0801 145.7453 L 369.0801 145.6987 L 368.9526 145.6987 L 368.9526 145.5287 L 369.0801 145.5287 L 369.0801 145.1887 L 369.2076 145.1887 L 369.2076 145.3587 L 369.3333 145.3587 L 369.335 145.5287 L 369.4608 145.5287 L 369.4608 145.729 L 369.4608 145.8687 L 370.0965 145.8687 L 370.0965 146.0364 L 370.8597 146.0364 L 370.8597 145.9269 L 370.8597 145.8687 L 371.1357 145.8687 L 371.623 145.8687 L 371.623 145.6987 L 372.2587 145.6987 L 372.2587 145.5287 L 372.6412 145.5287 L 372.6412 145.3587 L 372.8944 145.3587 L 372.8944 145.5287 L 373.1494 145.5287 L 373.1494 145.3587 L 373.6576 145.3587 L 373.6576 145.5287 L 374.0401 145.5287 L 374.0401 145.6987 L 374.4208 145.6987 L 374.4208 145.8687 L 374.9291 145.8687 L 374.9291 146.0364 L 375.439 146.0364 L 375.439 146.2064 L 377.0912 146.2064 L 377.0912 146.0364 L 377.4737 146.0364 L 377.4737 145.8687 L 378.1094 145.8687 L 378.1094 145.6987 L 378.8726 145.6987 L 378.8726 145.5287 L 379.4455 145.5287 L 379.5084 145.5287 L 379.5084 145.3587 L 380.1441 145.3587 L 380.1441 145.1887 L 380.6523 145.1887 L 380.6523 145.0187 L 382.1787 145.0187 L 382.1787 145.1887 L 382.687 145.1887 L 382.687 145.3587 L 383.3227 145.3587 L 383.3227 145.1887 L 383.8327 145.1887 L 383.8327 145.3587 L 384.0859 145.3587 L 384.0859 145.5287 L 384.2134 145.5287 L 384.2134 145.6987 L 384.3409 145.6987 L 384.3409 145.8687 L 384.4684 145.8687 L 384.4684 146.0364 L 384.5959 146.0364 L 384.5959 146.2064 L 385.7398 146.2064 L 385.7398 146.3764 L 385.9948 146.3764 L 385.9948 146.7163 L 385.9948 146.884 L 385.9948 147.054 L 386.2481 147.054 L 386.2481 147.224 L 386.3756 147.224 L 386.3756 147.394 L 386.5031 147.394 L 386.5031 147.7316 L 386.6306 147.734 L 386.6306 147.9016 L 386.8838 147.9016 L 386.8838 148.0716 L 387.1388 148.0716 L 387.1388 148.2416 L 387.5195 148.2416 L 387.5195 148.4116 L 387.7745 148.4116 L 387.7745 148.5816 L 388.4102 148.5816 L 388.4102 148.7493 L 390.4449 148.7493 L 390.4449 148.9192 L 390.6999 148.9192 L 390.6999 149.0892 L 390.9549 149.0892 L 390.9549 149.2592 L 391.2081 149.2592 L 391.2081 149.4292 L 391.5906 149.4292 L 391.5906 149.5969 L 391.9713 149.5992 L 391.9713 149.7669 L 392.3538 149.7669 L 392.3538 149.9369 L 392.862 149.9369 L 392.862 150.1069 L 393.1153 150.1069 L 393.1153 150.2769 L 393.2428 150.2769 L 393.2428 150.4468 L 393.3703 150.4468 L 393.3703 150.6145 L 393.4978 150.6145 L 393.4978 150.7845 L 393.6253 150.7845 L 393.6253 150.9545 L 394.006 150.9545 L 394.006 151.1245 L 394.261 151.1245 L 394.261 151.2945 L 394.5142 151.2945 L 394.5142 151.4621 L 394.8967 151.4621 L 394.8967 151.6321 L 395.4049 151.6321 L 395.4049 151.8021 L 395.6599 151.8021 L 395.6599 151.9721 L 396.0406 151.9721 L 396.0406 152.1421 L 396.1681 152.1421 L 396.1681 152.3121 L 396.4231 152.3121 L 396.4231 152.6498 L 396.5489 152.6498 L 396.5506 152.8197 L 396.9314 152.8197 L 396.9314 152.9897 L 397.0589 152.9897 L 397.0589 153.1597 L 397.3121 153.1597 L 397.3121 153.3274 L 397.4396 153.3274 L 397.4396 153.4974 L 397.5671 153.4974 L 397.5671 153.6674 L 397.9478 153.6674 L 397.9496 153.8374 L 398.3303 153.8374 L 398.3303 154.0074 L 398.5853 154.0074 L 398.5853 154.1774 L 398.711 154.1774 L 398.711 154.345 L 399.221 154.345 L 399.221 154.515 L 401.0007 154.515 L 401.0007 154.685 L 401.5089 154.685 L 401.5089 155.1926 L 401.7639 155.1926 L 401.7639 155.3626 L 402.0189 155.3626 L 402.0189 155.5326 L 403.0703 155.5326 Z" fill="#000000" fill-opacity="1" stroke="#000000" stroke-width="0" paint-order="fill" stroke-opacity="1" stroke-dasharray="" stroke-linecap="butt" stroke-linejoin="miter" stroke-miterlimit="10" transform="matrix(1.0499999523162842,0,0,1.0499999523162842,-19.999954223632812,-13.324951171875)" clip-path="none" style="filter: url(#f1)"/>
<path data-code="212" d="M 642.7221 247.6216 L 637.0198 246.3455 L 629.4924 245.6702 L 608.4227 245.3815 L 597.0566 245.7517 L 593.3819 246.2337 L 589.854 247.1443 L 581.67 250.9237 L 575.5083 252.6492 L 575.5206 245.5421 L 576.0969 237.6853 L 576.7571 233.8872 L 577.9203 230.329 L 580.8474 223.5852 L 581.7573 219.8967 L 582.255 216.0497 L 582.5974 208.1323 L 582.4803 200.1077 L 582.0804 194.0858 L 581.9057 192.8377 L 582.0996 192.8377 L 582.0996 192.6677 L 582.3528 192.6677 L 582.3528 192.4977 L 582.4803 192.4977 L 582.4803 192.6677 L 582.8628 192.6677 L 582.8628 192.4977 L 583.7518 192.4977 L 583.7518 192.33 L 583.8793 192.33 L 583.8793 192.16 L 584.0068 192.16 L 584.0068 191.9901 L 584.2618 191.9901 L 584.2618 192.16 L 584.515 192.16 L 584.515 191.9901 L 585.1507 191.9901 L 585.1507 191.8201 L 585.4057 191.8201 L 585.4057 191.6501 L 586.0414 191.6501 L 586.0414 191.4801 L 586.1689 191.4801 L 586.1689 191.3124 L 586.5497 191.3101 L 586.5497 191.1424 L 586.6772 191.1424 L 586.6772 191.3101 L 587.4404 191.3101 L 587.4404 191.1424 L 588.0761 191.1424 L 588.0761 190.9724 L 588.5843 190.9724 L 588.5843 190.8024 L 588.7118 190.8024 L 588.7118 190.6324 L 588.8393 190.6324 L 588.8393 190.2948 L 589.0943 190.2948 L 589.0943 190.1248 L 589.22 190.1248 L 589.22 190.2948 L 589.3475 190.2948 L 589.3475 190.4648 L 590.1108 190.4648 L 590.1108 190.2948 L 590.3657 190.2948 L 590.3657 190.1248 L 590.4932 190.1248 L 590.4932 189.9548 L 590.619 189.9548 L 590.619 189.4472 L 590.874 189.4472 L 590.874 189.2772 L 591.129 189.2772 L 591.129 189.4472 L 591.2565 189.4472 L 591.2565 189.6148 L 591.3822 189.6148 L 591.3822 189.4472 L 591.6372 189.4472 L 591.6372 189.2772 L 591.8922 189.2772 L 591.8922 189.1072 L 592.0179 189.1072 L 592.0179 188.9372 L 591.8922 188.9372 L 591.8922 188.5995 L 592.5279 188.5995 L 592.5279 188.4295 L 592.6554 188.4295 L 592.6554 188.2595 L 592.5279 188.2595 L 592.5279 187.9196 L 592.7811 187.9196 L 592.7811 188.0896 L 593.4169 188.0896 L 593.4169 187.9196 L 593.5444 187.9196 L 593.5444 187.5819 L 593.7993 187.5819 L 593.7993 187.7496 L 593.9268 187.7519 L 593.9268 187.9196 L 594.3076 187.9196 L 594.3076 187.7519 L 594.4351 187.7496 L 594.4351 187.5819 L 594.5626 187.5819 L 594.5626 187.4119 L 594.6901 187.4119 L 594.6901 187.2419 L 594.5626 187.2419 L 594.5626 187.0719 L 595.0708 187.0719 L 595.0708 186.9019 L 595.3258 186.9019 L 595.3258 186.7343 L 595.4533 186.7343 L 595.4533 186.3943 L 595.7065 186.3943 L 595.7065 186.2243 L 596.2147 186.2243 L 596.2147 186.0543 L 596.5972 186.0543 L 596.5972 185.8866 L 597.1055 185.8843 L 597.1055 185.7167 L 597.4879 185.7167 L 597.4879 185.5467 L 597.8687 185.5467 L 597.8687 185.3767 L 598.2512 185.3767 L 598.2512 185.2067 L 598.5044 185.2067 L 598.5044 185.0367 L 598.7594 185.0367 L 598.7594 184.869 L 599.0126 184.869 L 599.0126 184.3591 L 599.1401 184.3591 L 599.1401 184.0214 L 599.2676 184.0214 L 599.2676 184.1891 L 599.3951 184.1891 L 599.3951 184.529 L 599.5226 184.529 L 599.5226 184.699 L 599.6483 184.699 L 599.6501 184.529 L 599.9033 184.529 L 599.9033 184.3591 L 600.0308 184.3591 L 600.0308 184.1891 L 600.1583 184.1891 L 600.1583 184.3591 L 600.4116 184.3591 L 600.4116 184.1891 L 600.5391 184.1891 L 600.5391 184.0214 L 600.6666 184.0214 L 600.6666 183.8514 L 600.794 183.8514 L 600.794 183.6814 L 600.9215 183.6814 L 600.9215 183.5114 L 601.0473 183.5114 L 601.049 183.3414 L 601.1748 183.3414 L 601.1748 183.0038 L 601.5573 183.0038 L 601.5573 182.8338 L 601.938 182.8338 L 601.938 182.6638 L 602.0655 182.6638 L 602.0655 182.4938 L 602.193 182.4938 L 602.193 182.3238 L 602.3205 182.3238 L 602.3205 182.1561 L 602.4462 182.1561 L 602.4462 181.9862 L 602.5737 181.9862 L 602.5737 182.1561 L 602.7012 182.1561 L 602.7012 181.9862 L 602.8287 181.9862 L 602.8287 181.6462 L 602.9562 181.6462 L 602.9562 181.4762 L 603.0837 181.4762 L 603.0837 180.9685 L 603.2094 180.9685 L 603.2094 180.7985 L 603.3369 180.7985 L 603.3369 180.6285 L 603.4644 180.6285 L 603.4644 180.4586 L 603.7194 180.4586 L 603.7194 180.2909 L 604.8634 180.2909 L 604.8634 180.1209 L 605.3716 180.1209 L 605.3716 179.2733 L 605.4991 179.2733 L 605.4991 178.9333 L 605.6266 178.9333 L 605.6266 178.5933 L 605.8816 178.5933 L 605.8816 178.4256 L 606.2623 178.4256 L 606.2623 178.2556 L 606.3898 178.2556 L 606.3898 178.0857 L 606.643 178.0857 L 606.643 177.9157 L 606.7705 177.9157 L 606.7705 177.5757 L 607.4063 177.5757 L 607.4063 177.408 L 607.6613 177.408 L 607.6613 177.238 L 607.9162 177.238 L 607.9162 177.068 L 608.1695 177.068 L 608.1695 176.898 L 608.4245 176.898 L 608.4245 176.728 L 608.6795 176.728 L 608.6795 176.5604 L 609.0602 176.5604 L 609.0602 176.3904 L 609.3152 176.3904 L 609.3152 176.2204 L 609.6959 176.2204 L 609.6959 176.0504 L 609.9509 176.0504 L 609.9509 175.7104 L 610.5866 175.7104 L 610.5866 175.5428 L 610.8399 175.5428 L 610.8399 174.5251 L 610.9674 174.5251 L 610.9674 174.0152 L 611.0949 174.0152 L 611.0949 173.8452 L 611.2223 173.8452 L 611.2223 173.5075 L 611.7306 173.5075 L 611.7306 173.3375 L 611.8581 173.3375 L 611.8581 173.1675 L 611.9856 173.1675 L 611.9856 172.9975 L 612.2388 172.9975 L 612.2388 172.8299 L 612.4938 172.8299 L 612.4938 172.6599 L 612.6213 172.6599 L 612.6213 172.4899 L 612.4938 172.4899 L 612.4938 172.1499 L 612.7488 172.1499 L 612.7488 172.8299 L 612.8763 172.8299 L 612.8763 173.1675 L 612.7488 173.1675 L 612.7488 173.3375 L 612.2388 173.3375 L 612.2388 173.6775 L 611.9856 173.6775 L 611.9856 173.8452 L 611.7306 173.8452 L 611.7306 174.0152 L 611.6031 174.0152 L 611.6031 174.1852 L 611.4773 174.1852 L 611.4773 174.248 L 611.4773 174.6951 L 611.3498 174.6951 L 611.3498 174.8628 L 611.2223 174.8628 L 611.2223 175.3728 L 611.6031 175.3728 L 611.6031 175.5428 L 611.7306 175.5428 L 611.7306 175.7104 L 611.9856 175.7104 L 611.9856 175.3728 L 612.6213 175.3728 L 612.6213 175.2028 L 613.002 175.2028 L 613.002 174.8628 L 612.7488 174.8628 L 612.7488 174.6951 L 612.6213 174.6951 L 612.6213 174.1852 L 612.3663 174.1852 L 612.3663 174.0711 L 612.3663 173.8452 L 612.6213 173.8452 L 612.6213 174.0152 L 612.8763 174.0152 L 612.8763 174.1852 L 613.1295 174.1852 L 613.1295 174.5251 L 613.257 174.5251 L 613.257 174.6951 L 613.6377 174.6951 L 613.6377 174.3551 L 613.7652 174.3551 L 613.7652 174.1852 L 613.8927 174.1852 L 613.8927 173.8452 L 614.5285 173.8452 L 614.5285 173.6775 L 614.7834 173.6775 L 614.7834 173.433 L 614.7834 173.3375 L 615.0996 173.3375 L 615.2917 173.3375 L 615.2917 173.2816 L 615.2917 173.1675 L 615.5467 173.1675 L 615.5467 172.9975 L 615.6742 172.9975 L 615.6742 172.6599 L 615.9274 172.6599 L 615.9274 172.4899 L 616.0549 172.4899 L 616.0549 172.3199 L 616.1824 172.3199 L 616.1824 172.1499 L 616.4356 172.1499 L 616.4356 171.9799 L 616.5631 171.9799 L 616.5631 171.8123 L 616.6906 171.8123 L 616.6906 171.6423 L 616.9456 171.6423 L 616.9456 171.1323 L 617.0731 171.1323 L 617.0731 170.9646 L 617.1988 170.9646 L 617.1988 170.7946 L 617.3263 170.7946 L 617.3263 170.9646 L 617.8346 170.9646 L 617.8346 170.7946 L 617.9621 170.7946 L 617.9621 170.6246 L 618.0896 170.6246 L 618.0896 169.947 L 618.472 169.947 L 618.472 169.777 L 618.5978 169.777 L 618.5978 169.607 L 618.7253 169.607 L 618.7253 169.437 L 618.8528 169.437 L 618.8528 169.267 L 619.361 169.267 L 619.361 169.0994 L 619.9967 169.0994 L 619.9967 168.9294 L 620.1242 168.9294 L 620.1242 168.7594 L 620.5067 168.7594 L 620.5067 168.4194 L 620.6324 168.4194 L 620.6324 168.2494 L 620.8874 168.2494 L 620.8874 168.0818 L 621.0149 168.0818 L 621.0149 167.9118 L 621.1424 167.9118 L 621.1424 167.7418 L 621.2699 167.7418 L 621.2699 167.5718 L 621.3957 167.5718 L 621.3957 167.7418 L 621.6506 167.7418 L 621.6506 167.5718 L 621.9056 167.5718 L 621.9056 167.4018 L 622.0314 167.4018 L 622.0314 167.2341 L 622.1589 167.2341 L 622.1589 167.0641 L 622.2864 167.0641 L 622.2864 166.8941 L 622.5414 166.8941 L 622.5414 166.7241 L 622.6689 166.7241 L 622.6689 166.5542 L 623.1771 166.5542 L 623.1771 166.3842 L 623.3046 166.3842 L 623.3046 166.2165 L 623.4303 166.2165 L 623.4303 166.0465 L 623.5578 166.0465 L 623.5578 165.8765 L 623.8128 165.8765 L 623.8128 165.7065 L 624.0678 165.7065 L 624.0678 165.5365 L 624.1935 165.5365 L 624.1935 165.0289 L 623.9403 165.0289 L 623.9403 164.8589 L 624.576 164.8589 L 624.576 165.0289 L 624.9568 165.0289 L 624.9568 165.0079 L 624.9568 164.8589 L 625.0842 164.8519 L 625.0842 164.6889 L 625.217 164.6889 L 625.3392 164.6889 L 625.3392 164.5189 L 625.4667 164.5189 L 625.4667 164.3512 L 625.5925 164.3512 L 625.5925 164.2278 L 625.5925 164.1813 L 625.6309 164.1813 L 625.72 164.1813 L 625.72 164.3512 L 625.8475 164.3512 L 625.8475 164.5189 L 625.975 164.5189 L 625.975 164.6889 L 626.1025 164.6889 L 626.1025 164.5189 L 626.2282 164.5189 L 626.2282 164.3512 L 626.3557 164.3512 L 626.3557 164.1813 L 626.4832 164.1813 L 626.4832 164.0113 L 626.6107 164.0113 L 626.6107 163.8413 L 626.7382 163.8413 L 626.7382 163.6713 L 626.9914 163.6713 L 626.9914 163.5036 L 627.2464 163.5036 L 627.2464 163.3336 L 627.3739 163.3336 L 627.3739 163.1636 L 627.5014 163.1636 L 627.5014 162.9936 L 627.6271 162.9936 L 627.6271 162.8236 L 627.7546 162.8236 L 627.7546 162.486 L 627.8821 162.486 L 627.8821 162.316 L 628.1371 162.316 L 628.1371 162.146 L 628.3904 162.146 L 628.3904 161.976 L 628.6453 161.976 L 628.6453 161.806 L 628.7728 161.806 L 628.7728 161.4684 L 628.9003 161.4684 L 628.9003 161.1284 L 629.0261 161.1284 L 629.0261 160.7884 L 629.1536 160.7884 L 629.1536 160.6207 L 629.2811 160.6207 L 629.2811 160.4507 L 629.4086 160.4507 L 629.4086 160.6207 L 629.5361 160.6207 L 629.5361 160.4507 L 629.6618 160.4507 L 629.6618 160.1108 L 629.5361 160.1108 L 629.5361 159.9408 L 629.6618 159.9408 L 629.6635 159.7731 L 629.7893 159.7731 L 629.7893 159.9408 L 630.0443 159.9408 L 630.0443 159.7731 L 630.5525 159.7731 L 630.5525 159.6031 L 630.68 159.6031 L 630.68 159.4331 L 630.8075 159.4331 L 630.8075 159.0931 L 631.1882 159.0931 L 631.1882 158.9231 L 631.3157 158.9231 L 631.3157 158.5855 L 631.4432 158.5855 L 631.4432 158.4155 L 631.5707 158.4155 L 631.5707 158.2455 L 631.6982 158.2455 L 631.6982 158.0755 L 631.824 158.0755 L 631.824 157.9079 L 631.9515 157.9079 L 631.9515 157.5679 L 632.0789 157.5679 L 632.0789 157.3979 L 632.3339 157.3979 L 632.3339 157.2279 L 632.7147 157.2279 L 632.7147 157.0579 L 632.8422 157.0579 L 632.8422 156.3803 L 633.0972 156.3803 L 633.0972 156.2103 L 633.2229 156.2103 L 633.2229 156.0426 L 633.3504 156.0426 L 633.3504 155.8726 L 633.4779 155.8726 L 633.4779 155.7026 L 633.6054 155.7003 L 633.6054 155.5326 L 633.7329 155.5326 L 633.7329 155.3626 L 633.8586 155.3626 L 633.8586 155.1926 L 633.9861 155.1926 L 633.9861 155.025 L 634.1136 155.025 L 634.1136 155.1926 L 634.2411 155.1926 L 634.2411 155.025 L 634.3686 155.025 L 634.3686 154.855 L 634.4961 154.855 L 634.4961 154.515 L 634.6218 154.515 L 634.6218 154.345 L 634.7493 154.345 L 634.7493 154.1774 L 634.8768 154.1774 L 634.8768 154.0074 L 635.1318 154.0074 L 635.1318 153.8374 L 635.2576 153.8374 L 635.2576 152.7965 L 635.2576 152.6498 L 635.3851 152.6498 L 635.3851 152.4798 L 635.5125 152.4798 L 635.5125 152.1421 L 635.7675 152.1421 L 635.7675 151.9721 L 636.0208 151.9721 L 636.0208 151.8021 L 636.1483 151.8021 L 636.1483 151.6321 L 636.4033 151.6321 L 636.4033 151.4621 L 636.6565 151.4621 L 636.6565 151.2945 L 636.784 151.2945 L 636.784 150.9545 L 636.9115 150.9545 L 636.9115 150.6145 L 637.039 150.6145 L 637.039 150.2769 L 637.5472 150.2769 L 637.5472 150.1069 L 637.6747 150.1069 L 637.6747 149.7669 L 637.8022 149.7529 L 644.741 152.4099 L 649.4356 154.4591 L 652.1706 155.8167 L 652.1514 155.854 L 655.7771 158.5319 L 658.1052 160.637 L 660.2394 162.9284 L 662.1046 165.4154 L 662.8923 166.7451 L 663.9908 169.3998 L 665.016 174.5647 L 657.5934 182.2935 L 653.2779 187.7845 L 651.6711 190.7489 L 645.6963 203.5262 L 644.8545 206.975 L 644.4336 210.5518 L 644.0302 236.507 L 643.5464 242.0771 L 642.7221 247.6216 Z" fill="#000000" fill-opacity="1" stroke="#000000" stroke-width="0" paint-order="fill" stroke-opacity="1" stroke-dasharray="" stroke-linecap="butt" stroke-linejoin="miter" stroke-miterlimit="10" transform="matrix(1.0499999523162842,0,0,1.0499999523162842,-19.999954223632812,-13.324951171875)" clip-path="none" style="filter: url(#f1)"/>
<path data-code="213" d="M 79.9991 225.5413 L 80.9247 213.4975 L 80.4462 184.5244 L 80.6453 176.7513 L 81.2391 171.0648 L 82.1123 167.439 L 85.773 159 L 88.7822 148.4791 L 90.2667 145.573 L 92.8393 141.924 L 103.3444 146.0527 L 105.6568 147.8434 L 107.3666 150.8101 L 108.4005 156.0426 L 108.5822 161.7362 L 108.2032 171.6772 L 107.2985 180.8707 L 107.9883 192.4046 L 107.8609 222.1578 L 108.0495 228.0307 L 108.4302 231.8636 L 109.2091 235.5615 L 110.5592 238.8496 L 116.8972 248.1339 L 118.0761 250.8608 L 118.3363 252.3139 L 118.097 254.9452 L 116.4361 260.1242 L 115.7078 263.4099 L 114.9953 270.5961 L 114.7839 278.0944 L 114.8748 285.6695 L 115.9436 298.6494 L 107.0627 293.1119 L 95.1551 283.8369 L 90.2597 275.5864 L 88.4172 271.0363 L 87.7151 267.4431 L 86.7353 258.2473 L 86.1013 254.6518 L 85.0901 251.4686 L 82.0704 244.4151 L 81.274 241.1619 L 80.6592 236.0575 L 79.9991 225.5413 Z" fill="#000000" fill-opacity="1" stroke="#000000" stroke-width="0" paint-order="fill" stroke-opacity="1" stroke-dasharray="" stroke-linecap="butt" stroke-linejoin="miter" stroke-miterlimit="10" transform="matrix(1.0499999523162842,0,0,1.0499999523162842,-19.999954223632812,-13.324951171875)" clip-path="none" style="filter: url(#f1)"/>
<path data-code="214" d="M 505.3308 173.6775 L 505.5387 173.6775 L 505.5387 173.8452 L 505.9211 173.8452 L 505.9211 174.0152 L 506.1744 174.0152 L 506.1744 174.1852 L 506.3019 174.1852 L 506.3019 174.3551 L 506.5569 174.3551 L 506.5569 174.5251 L 506.6844 174.5251 L 506.6844 174.6951 L 506.8119 174.6951 L 506.8119 175.0328 L 506.9376 175.0328 L 506.9376 175.2028 L 507.0651 175.2028 L 507.0651 175.3728 L 507.1926 175.3728 L 507.1926 175.7104 L 507.4476 175.7104 L 507.4476 176.0504 L 507.5733 176.0504 L 507.5733 176.2204 L 507.7008 176.2204 L 507.7008 176.3904 L 507.8283 176.3904 L 507.8283 176.728 L 507.9558 176.728 L 507.9558 177.408 L 508.0833 177.408 L 508.0833 177.7457 L 508.2108 177.7457 L 508.2108 178.0857 L 508.3365 178.0857 L 508.3365 178.5933 L 508.8465 178.5933 L 508.8465 178.7633 L 509.0998 178.7633 L 509.0998 178.9333 L 509.3547 178.9333 L 509.3547 179.1033 L 509.6097 179.1033 L 509.6097 179.2733 L 509.7355 179.2733 L 509.7355 179.6109 L 509.863 179.6109 L 509.863 179.7809 L 509.9905 179.7809 L 509.9905 179.9509 L 510.118 179.9509 L 510.118 180.1209 L 509.7355 180.1209 L 509.7355 179.9509 L 509.4822 179.9509 L 509.4822 179.7809 L 509.3547 179.7809 L 509.3547 179.6109 L 508.2108 179.6109 L 508.2108 180.4586 L 508.5915 180.4586 L 508.5915 180.2909 L 508.719 180.2909 L 508.719 180.1209 L 508.9723 180.1209 L 508.9723 180.4586 L 509.0998 180.4586 L 509.0998 180.9685 L 508.8465 180.9685 L 508.8465 181.1385 L 508.719 181.1385 L 508.719 181.4762 L 508.8465 181.4762 L 508.8465 181.6462 L 508.9723 181.6462 L 508.9723 181.8162 L 509.0998 181.8162 L 509.0998 181.9862 L 509.2273 181.9862 L 509.2273 182.1561 L 509.3547 182.1561 L 509.3547 182.3238 L 509.4822 182.3238 L 509.4822 182.4938 L 509.863 182.4938 L 509.863 182.6638 L 510.2455 182.6638 L 510.2455 182.8338 L 510.6262 182.8338 L 510.6262 183.0038 L 511.1344 183.0038 L 511.1344 183.1714 L 511.5169 183.1714 L 511.5169 183.3414 L 512.9158 183.3414 L 512.9158 183.5114 L 513.2966 183.5114 L 513.2966 183.6814 L 513.4241 183.6814 L 513.4241 183.8514 L 513.6791 183.8514 L 513.6791 184.0214 L 514.0598 184.0214 L 514.0598 184.1891 L 514.1873 184.1891 L 514.1873 184.3591 L 514.4423 184.3591 L 514.4423 184.529 L 514.6955 184.529 L 514.6955 184.699 L 514.823 184.699 L 514.823 185.0367 L 514.9505 185.0367 L 514.9505 185.2067 L 515.078 185.2067 L 515.078 185.5467 L 515.2037 185.5467 L 515.2037 185.8843 L 515.3312 185.8866 L 515.3312 186.0543 L 515.4587 186.0543 L 515.4587 186.3943 L 515.5862 186.3943 L 515.5862 186.5643 L 515.7137 186.5643 L 515.7137 187.7496 L 515.967 187.7519 L 515.967 187.9196 L 516.0945 187.9196 L 516.0945 188.0896 L 516.3494 188.0896 L 516.3494 188.2595 L 516.4769 188.2595 L 516.4769 188.4295 L 516.7302 188.4295 L 516.7302 188.5995 L 516.8577 188.5995 L 516.8577 188.9372 L 517.1127 188.9372 L 517.1127 189.2772 L 517.3659 189.2772 L 517.3659 189.4472 L 517.4934 189.4472 L 517.4934 189.6148 L 517.6209 189.6148 L 517.6209 189.7848 L 517.7484 189.7848 L 517.7484 189.9548 L 517.8759 189.9548 L 517.8759 190.1248 L 518.0016 190.1248 L 518.0016 190.2948 L 518.1291 190.2948 L 518.1291 190.4648 L 518.2566 190.4648 L 518.2566 190.6324 L 518.3841 190.6324 L 518.3841 190.9724 L 518.5116 190.9724 L 518.5116 191.1424 L 518.6391 191.1424 L 518.6391 191.3124 L 518.7648 191.3124 L 518.7648 191.4801 L 519.0198 191.4801 L 519.0198 191.6501 L 519.2748 191.6501 L 519.2748 191.9901 L 519.4006 191.9901 L 519.4006 192.16 L 519.6556 192.16 L 519.6556 192.33 L 519.9105 192.33 L 519.9105 192.6677 L 520.1638 192.6677 L 520.1638 192.8377 L 520.4188 192.8377 L 520.4188 192.6677 L 520.7995 192.6677 L 520.7995 193.0077 L 520.927 193.0077 L 520.927 193.1777 L 521.0545 193.1777 L 521.0545 193.3453 L 521.182 193.3453 L 521.182 193.5153 L 521.9452 193.5153 L 521.9452 193.6853 L 522.0727 193.6853 L 522.0727 193.8553 L 522.3259 193.8553 L 522.3259 194.0253 L 522.4534 194.0253 L 522.4534 194.1953 L 522.7084 194.1953 L 522.7084 194.363 L 522.9617 194.363 L 522.9617 194.5329 L 523.3441 194.5329 L 523.3441 194.7029 L 523.5974 194.7029 L 523.5974 194.8729 L 523.7249 194.8729 L 523.7249 195.0429 L 523.8524 195.0429 L 523.8524 195.2106 L 524.2349 195.2106 L 524.2349 195.3806 L 524.4881 195.3806 L 524.4881 195.5506 L 524.7431 195.5506 L 524.7431 195.7206 L 524.8706 195.7206 L 524.8706 195.8906 L 525.5063 195.8906 L 525.5063 196.0605 L 525.7595 196.0605 L 525.7595 196.2282 L 526.0145 196.2282 L 526.0145 196.3982 L 526.2695 196.3982 L 526.2695 196.5682 L 526.6503 196.5682 L 526.6503 196.7382 L 526.9052 196.7382 L 526.9052 196.9082 L 527.1585 196.9082 L 527.1585 197.0758 L 527.541 197.0758 L 527.541 197.2458 L 530.4663 197.2458 L 530.4663 197.4158 L 533.2642 197.4158 L 533.2642 197.5858 L 533.39 197.5858 L 533.39 197.7558 L 533.5175 197.7558 L 533.5175 197.9258 L 533.645 197.9258 L 533.645 198.0935 L 533.8999 198.0935 L 533.8999 198.2635 L 534.4082 198.2635 L 534.4082 198.4334 L 534.6632 198.4334 L 534.6632 198.6034 L 534.9164 198.6034 L 534.9164 198.7734 L 535.5521 198.7734 L 535.5521 198.4334 L 536.4428 198.4334 L 536.4428 198.6034 L 536.6978 198.6034 L 536.6978 198.7734 L 536.8253 198.7734 L 536.8253 199.1111 L 538.0968 199.1111 L 538.0968 199.2811 L 538.2243 199.2811 L 538.2243 199.4511 L 538.35 199.4511 L 538.35 199.6211 L 538.4775 199.6211 L 538.4775 199.791 L 538.86 199.791 L 538.86 199.4511 L 538.9857 199.4511 L 538.9857 199.6211 L 539.1132 199.6211 L 539.1132 200.1287 L 539.2407 200.1287 L 539.2407 200.2987 L 539.4957 200.2987 L 539.4957 200.4687 L 542.2936 200.4687 L 542.2936 200.2987 L 543.31 200.2987 L 543.31 200.1287 L 543.9458 200.1287 L 543.9458 199.9587 L 544.709 199.9587 L 544.709 199.791 L 545.4722 199.791 L 545.4722 199.9587 L 545.5997 199.9587 L 545.5997 200.1287 L 546.1079 200.1287 L 546.1079 200.2987 L 548.5251 200.2987 L 548.5251 200.1287 L 552.5944 200.1287 L 552.5944 199.9587 L 553.8658 199.9587 L 553.8658 199.791 L 554.1208 199.791 L 554.1208 199.6211 L 554.3741 199.6211 L 554.3741 199.4511 L 554.5015 199.4511 L 554.5015 199.2811 L 554.629 199.2811 L 554.629 199.1111 L 554.884 199.1111 L 554.884 198.9411 L 555.6472 198.9411 L 555.6472 199.2811 L 555.1373 199.2811 L 555.1373 199.4511 L 554.884 199.4511 L 554.884 199.791 L 554.7565 199.791 L 554.7565 199.9587 L 554.884 199.9587 L 554.884 200.1287 L 555.3923 200.1287 L 555.3923 199.9587 L 555.5198 199.9587 L 555.5198 199.791 L 556.028 199.791 L 556.028 199.9587 L 556.283 199.9587 L 556.283 199.791 L 556.6637 199.791 L 556.6637 199.6211 L 557.1719 199.6211 L 557.1719 199.4511 L 557.5544 199.4511 L 557.5544 199.2811 L 558.3176 199.2811 L 558.3176 199.1111 L 558.5709 199.1111 L 558.5709 198.9411 L 559.5524 198.9411 L 559.8441 198.9411 L 559.8441 198.7734 L 560.2248 198.7734 L 560.2248 198.6034 L 560.6055 198.6034 L 560.6055 198.7734 L 561.3688 198.7734 L 561.3688 198.9411 L 562.132 198.9411 L 562.132 199.1111 L 563.1502 199.1111 L 563.1502 199.2811 L 563.2777 199.2811 L 563.2777 199.4511 L 563.4034 199.4511 L 563.4034 199.2811 L 564.2941 199.2811 L 564.2941 199.1111 L 564.6766 199.1111 L 564.6766 198.9411 L 566.0755 198.9411 L 566.0755 198.7734 L 569.3817 198.7734 L 569.3817 198.6034 L 569.5091 198.6034 L 569.5091 198.0935 L 569.6366 198.0935 L 569.6366 197.9258 L 569.7624 197.9258 L 569.7624 197.5858 L 569.8899 197.5858 L 569.8899 197.4158 L 570.1449 197.4158 L 570.1449 197.2458 L 570.3981 197.2458 L 570.3981 197.0758 L 570.5256 197.0758 L 570.5256 196.9082 L 570.7806 196.9082 L 570.7806 196.7382 L 570.9081 196.7382 L 570.9081 196.5682 L 571.1613 196.5682 L 571.1613 196.3982 L 571.5438 196.3982 L 571.5438 196.7382 L 571.4163 196.7382 L 571.4163 196.9082 L 571.1613 196.9082 L 571.1613 197.0758 L 571.0338 197.0758 L 571.0338 197.2458 L 570.6531 197.2458 L 570.6531 197.9258 L 570.5256 197.9258 L 570.5256 198.0935 L 571.1613 198.0935 L 571.1613 197.9258 L 571.2888 197.9258 L 571.2888 197.4158 L 571.5438 197.4158 L 571.5438 197.5858 L 571.9245 197.5858 L 571.9245 197.4158 L 572.1795 197.4158 L 572.1795 197.2458 L 572.5603 197.2458 L 572.5603 197.0758 L 572.8153 197.0758 L 572.8153 196.9082 L 573.0702 196.9082 L 573.0702 196.7382 L 573.3235 196.7382 L 573.3235 196.5682 L 573.706 196.5682 L 573.706 196.3982 L 573.9592 196.3982 L 573.9592 196.2282 L 574.2142 196.2282 L 574.2142 196.0605 L 574.3417 196.0605 L 574.3417 195.8906 L 574.4692 195.8906 L 574.4692 195.7206 L 574.5949 195.7206 L 574.5949 195.5506 L 575.2307 195.5506 L 575.2307 195.3806 L 575.4856 195.3806 L 575.4856 195.2106 L 575.6131 195.2106 L 575.6131 194.5329 L 575.7406 194.5329 L 575.7406 194.363 L 576.1214 194.363 L 576.1214 194.1953 L 576.2489 194.1953 L 576.2489 194.0253 L 576.3764 194.0253 L 576.3764 193.8553 L 576.6296 193.8553 L 576.6296 193.6853 L 576.7571 193.6853 L 576.7571 193.5153 L 577.1396 193.5153 L 577.1396 193.3453 L 577.2671 193.3453 L 577.2671 193.1777 L 577.3928 193.1777 L 577.3928 193.0077 L 577.5203 193.0077 L 577.5203 192.8377 L 577.6478 192.8377 L 577.6478 192.6677 L 577.7753 192.6677 L 577.7753 192.4977 L 577.9028 192.4977 L 577.9028 192.33 L 578.156 192.33 L 578.156 192.4977 L 578.2835 192.4977 L 578.2835 192.8377 L 578.156 192.8377 L 578.156 193.1777 L 578.0285 193.1777 L 578.0285 193.3453 L 578.156 193.3453 L 578.156 193.6853 L 578.0285 193.6853 L 578.0285 193.8553 L 577.2671 193.8553 L 577.2671 194.0253 L 577.1396 194.0253 L 577.1396 194.363 L 577.6478 194.363 L 577.6478 194.1953 L 577.9028 194.1953 L 577.9028 194.0253 L 578.411 194.0253 L 578.411 193.8553 L 578.5385 193.8553 L 578.5385 194.1953 L 578.666 194.1953 L 578.666 194.363 L 579.1742 194.363 L 579.1742 194.1953 L 579.6825 194.1953 L 579.6825 194.0253 L 579.9374 194.0253 L 579.9374 193.8553 L 580.0649 193.8553 L 580.0649 193.6853 L 580.3182 193.6853 L 580.3182 193.5153 L 580.5732 193.5153 L 580.5732 193.3453 L 580.7007 193.3453 L 580.7007 193.1777 L 581.0814 193.1777 L 581.0814 193.0077 L 581.2089 193.0077 L 581.2089 192.8377 L 581.3364 192.8377 L 581.3364 192.6677 L 581.8446 192.6677 L 581.8446 192.8377 L 581.9057 192.8377 L 582.0804 194.0858 L 582.4803 200.1077 L 582.5974 208.1323 L 582.255 216.0497 L 581.7573 219.8967 L 580.8474 223.5852 L 577.9203 230.329 L 576.7571 233.8872 L 576.0969 237.6853 L 575.5206 245.5421 L 547.3881 245.1626 L 540.1262 245.5421 L 536.6454 246.2943 L 533.6222 247.7148 L 531.2156 249.6313 L 528.3758 253.2407 L 525.0679 260.364 L 521.4457 267.1567 L 519.0146 273.2042 L 515.5967 280.0994 L 514.5436 283.1918 L 513.728 288.2893 L 513.4363 293.7663 L 513.6878 335.9755 L 513.1883 345.8327 L 512.488 349.633 L 511.1851 353.2192 L 502.9539 367.7174 L 498.7361 364.6552 L 486.7255 355.2451 L 484.8707 347.2368 L 483.7739 344.2492 L 480.5935 337.2329 L 479.6871 333.5956 L 479.0531 327.8787 L 478.847 322.0268 L 478.9221 314.1956 L 479.3623 308.4112 L 480.0469 304.676 L 481.1716 301.4112 L 484.6768 294.5627 L 487.2477 288.585 L 491.7711 280.4999 L 494.3227 274.506 L 497.765 267.6224 L 498.8217 264.4322 L 499.6233 259.0437 L 500.1612 247.9639 L 500.748 242.5289 L 502.1313 237.6294 L 505.2243 230.6248 L 506.0923 227.176 L 506.5743 223.5759 L 506.8905 218.0337 L 506.9201 208.6399 L 506.1482 193.8204 L 506.0609 193.7715 L 506.1202 184.4382 L 505.3308 173.6775 Z" fill="#000000" fill-opacity="1" stroke="#000000" stroke-width="0" paint-order="fill" stroke-opacity="1" stroke-dasharray="" stroke-linecap="butt" stroke-linejoin="miter" stroke-miterlimit="10" transform="matrix(1.0499999523162842,0,0,1.0499999523162842,-19.999954223632812,-13.324951171875)" clip-path="none" style="filter: url(#f1)"/>
<path data-code="215" d="M 107.2985 180.8707 L 119.4261 180.8451 L 129.8562 179.8415 L 140.3543 182.1003 L 143.3111 183.1994 L 150.098 186.4409 L 153.1404 187.2978 L 159.3387 188.6019 L 162.3374 189.6963 L 163.6612 190.4601 L 164.8943 191.366 L 167.0791 193.5153 L 168.8396 196.0466 L 173.5411 207.5362 L 175.616 213.416 L 177.0673 225.3853 L 177.7764 228.685 L 178.33 230.2778 L 179.0705 231.8427 L 180.9183 234.7418 L 186.2766 241.4996 L 188.2326 244.3126 L 189.7556 247.2979 L 194.5829 258.9598 L 192.8364 262.5367 L 191.0742 265.2612 L 188.0196 269.0383 L 183.5625 273.6909 L 180.0119 276.8439 L 177.5057 278.6463 L 175.0396 279.9503 L 170.3608 281.925 L 167.9803 283.3688 L 165.7011 285.1013 L 162.3793 288.0308 L 157.8716 292.4902 L 154.3367 296.4535 L 152.2182 299.3364 L 150.5399 302.529 L 149.9967 304.1544 L 149.1549 309.2122 L 148.9837 316.0841 L 149.5461 326.8285 L 145.1449 324.9959 L 138.9798 323.1027 L 135.9252 321.9383 L 131.9869 319.3582 L 128.4764 316.1074 L 125.3415 312.5003 L 122.7776 308.6138 L 120.0566 303.0436 L 118.4551 300.9176 L 115.9436 298.6494 L 114.8748 285.6695 L 114.7839 278.0944 L 114.9953 270.5961 L 115.7078 263.4099 L 116.4361 260.1242 L 118.097 254.9452 L 118.3363 252.3139 L 118.0761 250.8608 L 116.8972 248.1339 L 110.5592 238.8496 L 109.2091 235.5615 L 108.4302 231.8636 L 108.0495 228.0307 L 107.8609 222.1578 L 107.9883 192.4046 L 107.2985 180.8707 Z" fill="#000000" fill-opacity="1" stroke="#000000" stroke-width="0" paint-order="fill" stroke-opacity="1" stroke-dasharray="" stroke-linecap="butt" stroke-linejoin="miter" stroke-miterlimit="10" transform="matrix(1.0499999523162842,0,0,1.0499999523162842,-19.999954223632812,-13.324951171875)" clip-path="none" style="filter: url(#f1)"/>
<path data-code="216" d="M 197.7458 191.4335 L 194.9269 196.4285 L 193.3638 198.8293 L 191.3955 201.3675 L 188.1313 204.8698 L 185.7858 206.9936 L 183.2848 208.8844 L 175.616 213.416 L 173.5411 207.5362 L 168.8396 196.0466 L 167.0791 193.5153 L 164.8943 191.366 L 163.6612 190.4601 L 162.3374 189.6963 L 159.3387 188.6019 L 153.1404 187.2978 L 150.098 186.4409 L 143.3111 183.1994 L 140.3543 182.1003 L 129.8562 179.8415 L 129.0807 173.7241 L 128.7332 167.7162 L 128.6808 159.7126 L 128.9847 153.7955 L 129.4842 149.9508 L 130.4028 146.2739 L 134.0163 137.8209 L 134.8913 134.2813 L 135.5951 126.8017 L 135.7139 117.1867 L 135.679 117.1354 L 135.7121 115.5147 L 136.2221 115.5147 L 136.2221 115.6847 L 136.4754 115.6847 L 136.4754 115.8547 L 136.9836 115.8547 L 136.9836 116.0247 L 137.4936 116.0247 L 137.4936 116.1923 L 137.8743 116.1923 L 137.8743 116.3623 L 138.8925 116.3623 L 138.8925 116.5323 L 140.164 116.5323 L 140.164 116.7023 L 140.4172 116.7023 L 140.4189 116.8723 L 140.5447 116.8723 L 140.5447 117.04 L 140.6722 117.04 L 140.6722 117.2099 L 140.9272 117.2099 L 140.9272 117.3799 L 141.0547 117.3799 L 141.0547 117.5499 L 141.5629 117.5499 L 141.5629 117.7199 L 141.9436 117.7199 L 141.9436 117.8899 L 143.4701 117.8899 L 143.4701 117.7199 L 143.5976 117.7199 L 143.5976 117.8899 L 145.124 117.8899 L 145.124 117.7199 L 145.2864 117.7199 L 146.9037 117.7199 L 146.9037 117.5499 L 147.5394 117.5499 L 147.5394 117.3799 L 147.7944 117.3799 L 147.7944 117.2099 L 148.3026 117.2099 L 148.3026 117.04 L 148.8108 117.04 L 148.8108 116.8723 L 149.3208 116.8723 L 149.3208 116.7023 L 149.829 116.7023 L 149.829 116.5323 L 150.3373 116.5323 L 150.3373 116.3623 L 150.973 116.3623 L 150.973 116.5323 L 151.1005 116.5323 L 151.1005 116.7023 L 152.3719 116.7023 L 152.3719 116.5323 L 152.4994 116.5323 L 152.4994 116.3623 L 153.2626 116.3623 L 153.2626 116.1923 L 153.6451 116.1923 L 153.6451 116.3623 L 156.8237 116.3623 L 156.8237 116.1923 L 157.587 116.1923 L 157.587 116.0247 L 157.9677 116.0247 L 157.9677 115.8547 L 159.4941 115.8547 L 159.4941 115.6847 L 159.6216 115.6847 L 159.6216 115.5147 L 160.1298 115.5147 L 160.1298 115.3447 L 160.8931 115.3447 L 160.8931 115.1747 L 161.5288 115.1747 L 161.5288 115.007 L 161.7838 115.007 L 161.7838 114.837 L 162.1645 114.837 L 162.1645 114.6671 L 162.4195 114.6671 L 162.4195 114.4971 L 162.9277 114.4971 L 162.9277 114.3271 L 163.1076 114.3271 L 166.5657 118.3044 L 171.627 125.309 L 174.7497 129.0302 L 195.2081 150.4492 L 199.8573 155.0506 L 203.4812 158.2548 L 211.2846 163.8995 L 209.4001 167.8861 L 205.605 174.6439 L 203.1267 180.6798 L 199.4556 187.4259 L 197.7458 191.4335 Z" fill="#000000" fill-opacity="1" stroke="#000000" stroke-width="0" paint-order="fill" stroke-opacity="1" stroke-dasharray="" stroke-linecap="butt" stroke-linejoin="miter" stroke-miterlimit="10" transform="matrix(1.0499999523162842,0,0,1.0499999523162842,-19.999954223632812,-13.324951171875)" clip-path="none" style="filter: url(#f1)"/>
<path data-code="217" d="M 382.8599 334.6295 L 377.699 324.5488 L 374.6077 317.0505 L 371.1112 310.2042 L 369.6756 305.4747 L 369.0801 300.3238 L 368.9927 287.5604 L 369.3612 281.8296 L 369.8852 278.0735 L 370.8056 274.4687 L 374.4348 265.9947 L 375.6084 260.548 L 376.1341 252.8937 L 376.4852 235.3752 L 377.2135 227.8746 L 376.2564 216.7786 L 375.935 201.7308 L 376.3734 194.3769 L 377.086 190.8211 L 377.6763 189.1049 L 379.3826 185.9379 L 381.5343 183.0643 L 391.4683 172.3711 L 395.0137 168.1982 L 400.613 159.8989 L 403.0703 155.5326 L 405.07 155.5326 L 405.07 155.3626 L 405.8332 155.3626 L 405.8332 155.5326 L 406.2157 155.5326 L 406.2157 155.7026 L 406.7239 155.7026 L 406.7239 155.8726 L 406.8514 155.8726 L 406.8514 156.0426 L 406.9789 156.0426 L 406.9789 156.2103 L 407.2322 156.2103 L 407.2322 156.3803 L 407.3597 156.3803 L 407.3597 156.5503 L 407.6146 156.5503 L 407.6146 156.8902 L 407.7404 156.8902 L 407.7404 157.2279 L 407.8679 157.2279 L 407.8679 157.3979 L 407.9954 157.3979 L 407.9954 157.5679 L 408.1229 157.5679 L 408.1229 157.7379 L 408.2504 157.7379 L 408.2504 157.9079 L 408.3779 157.9079 L 408.3779 158.2455 L 408.5036 158.2455 L 408.5036 159.2631 L 408.3779 159.2631 L 408.3779 161.1936 L 408.3779 161.4684 L 408.5036 161.4684 L 408.5036 161.806 L 408.6311 161.806 L 408.6311 162.146 L 408.7586 162.146 L 408.7586 162.316 L 408.8861 162.316 L 408.8861 162.486 L 409.0136 162.486 L 409.0136 162.6537 L 409.1393 162.6537 L 409.1393 163.3336 L 409.2668 163.3336 L 409.2668 163.5036 L 409.3943 163.5036 L 409.3943 163.8413 L 409.5218 163.8413 L 409.5218 164.0113 L 409.9025 164.0113 L 409.9025 164.1813 L 410.285 164.1813 L 410.285 164.3512 L 410.6658 164.3512 L 410.6658 164.5189 L 410.7933 164.5189 L 410.7933 164.6889 L 411.0482 164.6889 L 411.0482 164.8589 L 411.1757 164.8589 L 411.1757 165.0289 L 411.3015 165.0289 L 411.3015 165.1989 L 411.429 165.1989 L 411.429 165.3689 L 411.684 165.3689 L 411.684 165.5365 L 412.4472 165.5365 L 412.4472 166.2165 L 412.5747 166.2165 L 412.5747 166.5542 L 412.7004 166.5542 L 412.7004 166.7241 L 413.2104 166.7241 L 413.2104 166.8941 L 413.3362 166.8941 L 413.3362 167.2341 L 413.4636 167.2341 L 413.4636 167.4018 L 413.5911 167.4018 L 413.5911 167.5718 L 413.7186 167.5718 L 413.7186 167.7418 L 414.0994 167.7418 L 414.0994 167.9118 L 414.2269 167.9118 L 414.2269 168.0818 L 414.3544 168.0818 L 414.3544 168.2494 L 414.4818 168.2494 L 414.4818 168.5894 L 414.7351 168.5894 L 414.7351 168.7594 L 414.9901 168.7594 L 414.9901 168.9294 L 415.1176 168.9294 L 415.1176 169.0994 L 415.2451 169.0994 L 415.2451 169.267 L 415.7533 169.267 L 415.7533 169.437 L 415.8808 169.437 L 415.8808 169.607 L 416.2615 169.607 L 416.2615 169.437 L 417.533 169.437 L 417.533 169.607 L 417.6605 169.607 L 417.6605 169.777 L 418.1704 169.777 L 418.1704 169.947 L 418.5512 169.947 L 418.5512 170.1147 L 418.9319 170.1147 L 418.9319 170.2847 L 419.1869 170.2847 L 419.1869 170.4547 L 419.3144 170.4547 L 419.3144 170.7946 L 418.5512 170.7946 L 418.5512 170.6246 L 418.4237 170.6246 L 418.4237 170.4547 L 418.2962 170.4547 L 418.2962 170.2847 L 418.0429 170.2847 L 418.0429 170.1147 L 417.4072 170.1147 L 417.4072 170.2847 L 416.644 170.2847 L 416.644 170.6246 L 416.7715 170.6246 L 416.7715 170.7946 L 417.0247 170.7946 L 417.0247 170.9646 L 417.1522 170.9646 L 417.1522 171.3023 L 417.533 171.3023 L 417.533 171.4723 L 417.788 171.4723 L 417.788 171.6423 L 418.2962 171.6423 L 418.2962 171.4723 L 418.4237 171.4723 L 418.4237 171.3023 L 418.8062 171.3023 L 418.8062 171.9799 L 418.6787 171.9799 L 418.6787 172.4899 L 419.0594 172.4899 L 419.0594 172.6599 L 420.9683 172.6599 L 420.9683 172.8299 L 421.8573 172.8299 L 421.8573 172.9975 L 422.8755 172.9975 L 422.8755 173.3375 L 423.6387 173.3375 L 423.6387 173.5075 L 424.0194 173.5075 L 424.0194 173.6775 L 424.1469 173.6775 L 424.1469 173.8452 L 424.6552 173.8452 L 424.6552 174.0152 L 424.9101 174.0152 L 424.9101 174.3551 L 425.5459 174.3551 L 425.5459 174.5251 L 426.4366 174.5251 L 426.4366 174.6951 L 426.5623 174.6951 L 426.5641 174.8628 L 427.708 174.8628 L 427.708 174.6951 L 428.4712 174.6951 L 428.4712 174.8628 L 429.9977 174.8628 L 429.9977 175.0328 L 431.2691 175.0328 L 431.2691 174.8628 L 431.718 174.8628 L 431.2447 189.4378 L 431.3093 224.6099 L 431.0368 230.3593 L 430.1688 235.9248 L 429.0581 239.1523 L 425.5581 245.9869 L 423.0397 251.9785 L 420.2313 257.4416 L 419.0105 260.3012 L 417.8316 265.6617 L 416.6038 276.7228 L 415.1717 281.7271 L 411.8202 288.5687 L 409.3524 294.6116 L 404.836 302.8014 L 402.2826 308.8187 L 395.6477 319.8146 L 390.3034 324.3322 L 388.2234 326.4396 L 385.3818 330.3122 L 382.8599 334.6295 Z" fill="#000000" fill-opacity="1" stroke="#000000" stroke-width="0" paint-order="fill" stroke-opacity="1" stroke-dasharray="" stroke-linecap="butt" stroke-linejoin="miter" stroke-miterlimit="10" transform="matrix(1.0499999523162842,0,0,1.0499999523162842,-19.999954223632812,-13.324951171875)" clip-path="none" style="filter: url(#f1)"/>


















</svg>