<?xml version="1.0" standalone="no"?>
<!-- Generator: Paintmaps.com , Online SVG vector map maker -->
<svg xmlns="http://www.w3.org/2000/svg" version="1.1" baseProfile="full"   style="background-color:#e0f2f1" width="800" height="500" viewBox="0 0 800 533">

<path data-code="200" d="M 553.1821 337.4792 L 473.7726 337.5257 L 469.1223 341.1762 L 466.6061 342.6838 L 463.5315 343.9239 L 458.7363 345.2338 L 460.3417 340.6876 L 461.6731 337.7723 L 463.2505 335.2038 L 466.9149 330.4179 L 471.7467 326.3278 L 474.338 324.6433 L 480.1574 322.0282 L 488.0359 317.4564 L 493.9286 315.0367 L 501.8158 310.5115 L 507.6457 307.9406 L 508.9736 307.1518 L 511.5021 305.2882 L 515.0914 302.0635 L 518.5639 298.5969 L 553.0146 262.9416 L 559.5023 255.9664 L 565.0443 249.3775 L 571.0225 254.0098 L 573.4044 256.1153 L 578.0146 260.6359 L 591.6863 274.6282 L 595.1221 277.783 L 600.542 282.2734 L 596.8584 287.592 L 594.8848 290.142 L 591.6514 293.8064 L 583.8096 302.1473 L 580.6948 305.8396 L 578.8993 308.4361 L 578.1437 309.7972 L 576.1632 314.5947 L 574.8806 317.1353 L 573.1235 319.7179 L 571.1272 322.1864 L 566.7491 326.9094 L 562.0378 331.3579 L 558.2879 334.2708 L 553.1821 337.4792 Z" fill="#000000" fill-opacity="1" stroke="#000000" stroke-width="0" paint-order="fill" stroke-opacity="1" stroke-dasharray="" stroke-linecap="butt" stroke-linejoin="miter" stroke-miterlimit="10" clip-path="none" style="filter: url(#f1)"/>
<path data-code="201" d="M 458.7363 345.2338 L 443.6285 344.1054 L 440.0984 343.5516 L 435.4446 342.2464 L 425.2558 338.7751 L 419.9232 337.7979 L 410.7029 337.3536 L 384.4727 337.4373 L 379.5973 341.5252 L 376.9519 343.2445 L 374.0012 344.6219 L 367.9549 346.7763 L 370.3874 340.9645 L 371.8375 338.0422 L 373.5807 335.3457 L 377.615 330.3295 L 379.2884 323.9616 L 382.9895 315.5276 L 384.1499 309.9461 L 384.5879 302.1217 L 384.5198 277.1386 L 384.9054 271.9433 L 385.5144 268.5976 L 386.5701 265.5265 L 390.0618 258.7025 L 392.6391 252.7185 L 402.081 236.9092 L 407.5689 237.663 L 417.2151 238.1469 L 432.7923 238.2609 L 440.43 237.7793 L 444.1101 237.0767 L 447.5634 235.7831 L 453.8888 232.2955 L 459.6454 229.6525 L 465.9604 226.1695 L 469.405 224.9015 L 473.0589 224.2594 L 478.7143 224.0593 L 484.2109 224.52 L 490.8994 225.6693 L 498.0868 220.7416 L 502.1334 218.5359 L 505.2464 217.5844 L 511.3345 216.5839 L 515.6149 210.095 L 518.7192 206.5725 L 521.1901 204.674 L 522.5756 203.9295 L 525.7374 202.9872 L 527.3585 202.7894 L 530.6198 202.8453 L 533.8218 203.5014 L 535.3626 204.0947 L 538.0167 205.6907 L 542.6775 209.7856 L 547.7675 216.0581 L 552.5312 223.943 L 561.1286 237.4234 L 562.3798 240.3968 L 565.0443 249.3775 L 559.5023 255.9664 L 553.0146 262.9416 L 518.5639 298.5969 L 515.0914 302.0635 L 511.5021 305.2882 L 508.9736 307.1518 L 507.6457 307.9406 L 501.8158 310.5115 L 493.9286 315.0367 L 488.0359 317.4564 L 480.1574 322.0282 L 474.338 324.6433 L 471.7467 326.3278 L 466.9149 330.4179 L 463.2505 335.2038 L 461.6731 337.7723 L 460.3417 340.6876 L 458.7363 345.2338 Z" fill="#000000" fill-opacity="1" stroke="#000000" stroke-width="0" paint-order="fill" stroke-opacity="1" stroke-dasharray="" stroke-linecap="butt" stroke-linejoin="miter" stroke-miterlimit="10" clip-path="none" style="filter: url(#f1)"/>
<path data-code="202" d="M 497.2929 417.6704 L 485.818 416.0023 L 482.6789 415.2717 L 481.1625 414.6831 L 478.5677 413.0428 L 476.4494 410.8465 L 474.9679 408.0941 L 474.5666 406.4469 L 474.605 403.1175 L 475.0237 401.4912 L 475.7165 399.9277 L 477.6202 397.173 L 479.9253 394.7301 L 483.7433 391.4495 L 486.366 389.572 L 491.2257 386.5846 L 492.2569 385.5702 L 493.0875 384.3138 L 494.0856 381.4288 L 494.3439 378.2972 L 493.8797 375.0935 L 493.3196 373.5184 L 492.5693 372.1294 L 490.5922 369.7516 L 488.1371 367.9066 L 486.7533 367.2156 L 485.2143 366.6921 L 482.0524 366.1407 L 473.9995 365.7428 L 470.8201 365.3566 L 467.7455 364.4237 L 465.1351 362.8113 L 462.9539 360.6336 L 462.0465 359.3656 L 460.7011 356.5364 L 459.6576 351.9693 L 458.7363 345.2338 L 463.5315 343.9239 L 466.6061 342.6838 L 469.1223 341.1762 L 473.7726 337.5257 L 553.1821 337.4792 L 548.6696 344.3357 L 544.6371 349.3914 L 537.9015 356.5597 L 517.133 377.7388 L 513.8229 381.3381 L 510.8215 385.0956 L 509.1778 387.7851 L 506.6685 393.7948 L 502.28 401.9449 L 498.6993 412.3169 L 497.2929 417.6704 Z" fill="#000000" fill-opacity="1" stroke="#000000" stroke-width="0" paint-order="fill" stroke-opacity="1" stroke-dasharray="" stroke-linecap="butt" stroke-linejoin="miter" stroke-miterlimit="10" clip-path="none" style="filter: url(#f1)"/>
<path data-code="203" d="M 367.9549 346.7763 L 365.1316 345.6549 L 357.5183 343.191 L 349.5195 338.8356 L 345.1623 336.851 L 342.2988 335.1758 L 338.3587 331.8418 L 334.8566 328.0564 L 331.8989 324.1663 L 328.9168 319.548 L 327.9169 318.6592 L 326.7024 318.0287 L 325.3867 317.6891 L 323.9925 317.6123 L 321.307 318.18 L 316.4002 320.6252 L 313.6117 321.6792 L 310.4778 322.3283 L 300.6275 323.459 L 297.4098 324.1756 L 295.8551 324.7364 L 294.33 325.4925 L 291.4996 327.3864 L 282.2304 334.9571 L 273.8145 339.5103 L 267.6845 344.4218 L 263.0062 345.5223 L 260.1236 346.7856 L 257.541 348.498 L 250.2925 354.5588 L 247.7885 356.4015 L 245.0419 357.9278 L 240.6882 359.8937 L 232.8045 364.5144 L 226.9362 367.0946 L 219.1136 371.8804 L 213.4809 374.4606 L 209.9805 376.415 L 207.5515 377.3363 L 206.166 377.4364 L 204.7596 377.1595 L 203.4805 376.5732 L 202.3428 375.7473 L 201.3569 374.7212 L 200.535 373.516 L 199.9173 372.1387 L 199.5491 370.5659 L 199.4601 368.9722 L 199.9819 365.8103 L 201.2016 363.0765 L 204.189 357.9185 L 206.7977 351.9414 L 211.3922 343.8285 L 213.2645 339.3033 L 214.6797 336.4252 L 223.462 323.6126 L 215.6062 311.1396 L 213.7793 306.6446 L 213.1581 303.2943 L 212.8422 298.1176 L 213.3343 287.478 L 223.7342 287.5315 L 227.4615 287.2686 L 231.0927 286.6428 L 234.2389 285.5469 L 248.1654 278.3461 L 250.9084 276.3126 L 258.8358 269.726 L 261.5963 267.8926 L 267.1278 264.982 L 269.5114 263.1417 L 272.5163 259.7262 L 276.9205 251.262 L 278.915 248.4841 L 281.1887 245.8666 L 284.9473 242.286 L 287.6468 240.2432 L 294.6475 236.6044 L 297.087 234.8455 L 300.2105 231.5021 L 301.8315 228.8009 L 303.7806 224.4432 L 307.2549 217.6262 L 308.3053 214.4504 L 308.6473 212.7078 L 309.197 205.4976 L 309.1673 187.0523 L 309.614 179.8212 L 310.736 174.6887 L 313.9276 167.7437 L 315.334 162.8928 L 315.9814 155.6733 L 316.2414 140.897 L 316.5241 137.2721 L 317.1208 133.752 L 318.1591 130.6041 L 321.3942 123.6778 L 322.3313 120.5322 L 324.16 112.4239 L 325.2698 109.4063 L 328.4508 102.4312 L 329.3251 98.9296 L 329.9759 91.517 L 329.8067 83.9718 L 329.1366 78.4717 L 327.6185 71.5245 L 333.1186 65.3497 L 336.0152 63.0766 L 337.6084 62.1622 L 340.6045 61.0059 L 349.8074 58.5722 L 356.3108 55.5523 L 359.7658 54.375 L 365.2625 53.5537 L 370.9318 53.3001 L 405.5518 53.4374 L 404.018 59.8868 L 400.802 66.8689 L 399.7515 69.8749 L 398.12 78.018 L 396.6385 82.655 L 393.1312 89.5022 L 390.505 95.4792 L 388.6047 98.4759 L 385.1602 102.6545 L 376.4668 112.0284 L 374.2071 114.832 L 372.2754 117.8147 L 369.569 123.7499 L 366.6724 129.1499 L 365.4125 132.0233 L 364.5854 135.3108 L 364.1178 140.4293 L 364.2696 145.5874 L 365.088 150.6059 L 366.1506 153.6398 L 369.398 160.5592 L 370.2618 163.9676 L 370.8289 169.3561 L 371.0749 184.137 L 371.6682 191.3728 L 372.4796 194.8092 L 375.5525 201.8355 L 376.5139 204.8648 L 377.0688 208.1546 L 377.9413 218.2125 L 378.6201 221.4628 L 379.189 223.031 L 379.9061 224.4292 L 381.7471 226.9164 L 384.005 228.9824 L 385.2701 229.834 L 396.3698 234.7082 L 402.081 236.9092 L 392.6391 252.7185 L 390.0618 258.7025 L 386.5701 265.5265 L 385.5144 268.5976 L 384.9054 271.9433 L 384.5198 277.1386 L 384.5879 302.1217 L 384.1499 309.9461 L 382.9895 315.5276 L 379.2884 323.9616 L 377.615 330.3295 L 373.5807 335.3457 L 371.8375 338.0422 L 370.3874 340.9645 L 367.9549 346.7763 Z" fill="#000000" fill-opacity="1" stroke="#000000" stroke-width="0" paint-order="fill" stroke-opacity="1" stroke-dasharray="" stroke-linecap="butt" stroke-linejoin="miter" stroke-miterlimit="10" clip-path="none" style="filter: url(#f1)"/>
<path data-code="204" d="M 307.5375 436.7672 L 308.7136 430.2574 L 309.5948 427.5585 L 310.2736 426.2998 L 311.1932 425.1598 L 312.4758 424.1547 L 313.9136 423.4451 L 317.0545 422.6377 L 320.3891 422.3167 L 329.9916 422.0049 L 334.2685 421.386 L 337.05 420.4461 L 343.8187 417.1725 L 346.5303 416.3675 L 353.5172 414.9087 L 356.241 413.9641 L 360.1846 411.5072 L 367.4 405.3743 L 369.9075 403.5316 L 372.3749 402.1682 L 377.0566 400.1394 L 383.6124 396.3284 L 389.5069 393.6273 L 391.8818 392.1894 L 394.1659 390.1769 L 396.0976 387.8131 L 397.4813 385.3771 L 400.289 379.3116 L 402.1125 376.6407 L 405.2778 372.8088 L 411.0257 366.6432 L 424.0867 353.3048 L 435.4446 342.2464 L 440.0984 343.5516 L 443.6285 344.1054 L 458.7363 345.2338 L 459.6576 351.9693 L 460.7011 356.5364 L 462.0465 359.3656 L 462.9539 360.6336 L 465.1351 362.8113 L 467.7455 364.4237 L 470.8201 365.3566 L 473.9995 365.7428 L 482.0524 366.1407 L 485.2143 366.6921 L 486.7533 367.2156 L 488.1371 367.9066 L 490.5922 369.7516 L 492.5693 372.1294 L 493.3196 373.5184 L 493.8797 375.0935 L 494.3439 378.2972 L 494.0856 381.4288 L 493.0875 384.3138 L 492.2569 385.5702 L 491.2257 386.5846 L 486.366 389.572 L 483.7433 391.4495 L 479.9253 394.7301 L 477.6202 397.173 L 475.7165 399.9277 L 475.0237 401.4912 L 474.605 403.1175 L 474.5666 406.4469 L 474.9679 408.0941 L 476.4494 410.8465 L 478.5677 413.0428 L 481.1625 414.6831 L 482.6789 415.2717 L 485.818 416.0023 L 497.2929 417.6704 L 491.114 426.3836 L 488.8787 430.518 L 487.8911 433.6915 L 486.5893 440.1967 L 485.7273 443.3678 L 482.6073 450.3733 L 481.5795 453.3792 L 479.9009 461.4921 L 478.9237 464.6726 L 476.7198 468.8326 L 469.6946 479.1301 L 444.9477 479.7002 L 437.207 479.6024 L 431.508 479.1674 L 426.0445 477.8924 L 416.4543 472.8413 L 409.8391 469.8609 L 407.1083 465.8173 L 403.7004 458.8165 L 401.9624 456.3038 L 399.8562 454.0819 L 396.0557 451.4435 L 383.759 445.3548 L 378.6061 444.2729 L 366.0983 443.661 L 360.839 443.077 L 356.1067 441.6485 L 349.3676 438.4191 L 345.9946 437.5164 L 342.4663 437.0325 L 333.3175 436.6672 L 307.5375 436.7672 Z" fill="#000000" fill-opacity="1" stroke="#000000" stroke-width="0" paint-order="fill" stroke-opacity="1" stroke-dasharray="" stroke-linecap="butt" stroke-linejoin="miter" stroke-miterlimit="10" clip-path="none" style="filter: url(#f1)"/>
<path data-code="205" d="M 213.3343 287.478 L 212.8719 274.8818 L 212.7585 243.6307 L 213.179 236.4439 L 213.7985 232.9749 L 214.2975 231.3044 L 215.5574 228.4496 L 218.4139 223.031 L 220.89 217.0143 L 225.3867 208.9177 L 228.0286 202.9523 L 230.8589 198.6597 L 237.3327 190.5026 L 239.1335 187.599 L 241.7527 181.6196 L 246.1814 173.4788 L 248.6243 167.425 L 253.0251 159.2679 L 255.4942 153.2234 L 259.9142 145.0733 L 262.3815 139.0287 L 266.7753 130.867 L 269.1991 124.8015 L 273.5353 116.6165 L 276.0882 110.6138 L 277.9029 107.6939 L 280.0719 104.9811 L 282.4677 102.4474 L 285.0346 100.1162 L 289.198 97.1986 L 294.9389 94.4416 L 297.6698 92.6547 L 301.5314 89.4068 L 310.1637 81.0612 L 314.034 77.8226 L 316.819 76.087 L 324.2263 73.2345 L 327.6185 71.5245 L 329.1366 78.4717 L 329.8067 83.9718 L 329.9759 91.517 L 329.3251 98.9296 L 328.4508 102.4312 L 325.2698 109.4063 L 324.16 112.4239 L 322.3313 120.5322 L 321.3942 123.6778 L 318.1591 130.6041 L 317.1208 133.752 L 316.5241 137.2721 L 316.2414 140.897 L 315.9814 155.6733 L 315.334 162.8928 L 313.9276 167.7437 L 310.736 174.6887 L 309.614 179.8212 L 309.1673 187.0523 L 309.197 205.4976 L 308.6473 212.7078 L 308.3053 214.4504 L 307.2549 217.6262 L 303.7806 224.4432 L 301.8315 228.8009 L 300.2105 231.5021 L 297.087 234.8455 L 294.6475 236.6044 L 287.6468 240.2432 L 284.9473 242.286 L 281.1887 245.8666 L 278.915 248.4841 L 276.9205 251.262 L 272.5163 259.7262 L 269.5114 263.1417 L 267.1278 264.982 L 261.5963 267.8926 L 258.8358 269.726 L 250.9084 276.3126 L 248.1654 278.3461 L 234.2389 285.5469 L 231.0927 286.6428 L 227.4615 287.2686 L 223.7342 287.5315 L 213.3343 287.478 Z" fill="#000000" fill-opacity="1" stroke="#000000" stroke-width="0" paint-order="fill" stroke-opacity="1" stroke-dasharray="" stroke-linecap="butt" stroke-linejoin="miter" stroke-miterlimit="10" clip-path="none" style="filter: url(#f1)"/>
<path data-code="206" d="M 307.5375 436.7672 L 295.4031 436.3136 L 286.2717 435.0525 L 287.4077 429.2988 L 288.4512 416.1791 L 288.9485 412.5263 L 290.4021 407.5916 L 293.6075 400.6257 L 294.8011 395.3606 L 295.274 389.8419 L 295.3473 384.2464 L 295.0175 378.6951 L 294.405 375.0888 L 293.3266 371.8665 L 289.8472 365.0402 L 287.8963 360.6825 L 285.3417 356.7621 L 282.0175 353.6259 L 279.3984 352.0019 L 273.8983 349.1471 L 267.6845 344.4218 L 273.8145 339.5103 L 282.2304 334.9571 L 291.4996 327.3864 L 294.33 325.4925 L 295.8551 324.7364 L 297.4098 324.1756 L 300.6275 323.459 L 310.4778 322.3283 L 313.6117 321.6792 L 316.4002 320.6252 L 321.307 318.18 L 323.9925 317.6123 L 325.3867 317.6891 L 326.7024 318.0287 L 327.9169 318.6592 L 328.9168 319.548 L 331.8989 324.1663 L 334.8566 328.0564 L 338.3587 331.8418 L 342.2988 335.1758 L 345.1623 336.851 L 349.5195 338.8356 L 357.5183 343.191 L 365.1316 345.6549 L 367.9549 346.7763 L 374.0012 344.6219 L 376.9519 343.2445 L 379.5973 341.5252 L 384.4727 337.4373 L 410.7029 337.3536 L 419.9232 337.7979 L 425.2558 338.7751 L 435.4446 342.2464 L 424.0867 353.3048 L 411.0257 366.6432 L 405.2778 372.8088 L 402.1125 376.6407 L 400.289 379.3116 L 397.4813 385.3771 L 396.0976 387.8131 L 394.1659 390.1769 L 391.8818 392.1894 L 389.5069 393.6273 L 383.6124 396.3284 L 377.0566 400.1394 L 372.3749 402.1682 L 369.9075 403.5316 L 367.4 405.3743 L 360.1846 411.5072 L 356.241 413.9641 L 353.5172 414.9087 L 346.5303 416.3675 L 343.8187 417.1725 L 337.05 420.4461 L 334.2685 421.386 L 329.9916 422.0049 L 320.3891 422.3167 L 317.0545 422.6377 L 313.9136 423.4451 L 312.4758 424.1547 L 311.1932 425.1598 L 310.2736 426.2998 L 309.5948 427.5585 L 308.7136 430.2574 L 307.5375 436.7672 Z" fill="#000000" fill-opacity="1" stroke="#000000" stroke-width="0" paint-order="fill" stroke-opacity="1" stroke-dasharray="" stroke-linecap="butt" stroke-linejoin="miter" stroke-miterlimit="10" clip-path="none" style="filter: url(#f1)"/>







</svg>