<?xml version="1.0" standalone="no"?>
<!-- Generator: Paintmaps.com , Online SVG vector map maker -->
<svg xmlns="http://www.w3.org/2000/svg" version="1.1" baseProfile="full"   style="background-color:#e0f2f1" width="800" height="500" viewBox="0 0 800 533">

<path data-code="200" d="M 317.9849 433.6318 L 317.8979 432.3731 L 317.5037 430.669 L 315.8391 426.5808 L 314.4773 421.5617 L 313.7652 420.4491 L 313.3109 420.1369 L 312.4861 419.9006 L 309.7743 409.9699 L 307.3493 404.8019 L 305.7899 399.9805 L 304.9318 397.8369 L 312.659 396.1729 L 314.5815 395.5801 L 319.526 392.9495 L 323.1217 391.3959 L 327.9632 388.572 L 330.6428 387.3606 L 332.4191 386.3811 L 339.081 381.1516 L 340.8133 380.0704 L 344.293 378.4165 L 345.8062 377.3225 L 347.1036 375.9592 L 348.0874 374.3211 L 348.6158 372.3693 L 348.6963 371.3855 L 348.5449 369.4696 L 347.952 367.7326 L 347.4602 366.9951 L 346.8523 366.4137 L 344.7774 365.1508 L 343.4532 364.1699 L 342.2557 362.9226 L 341.3406 361.3618 L 341.0593 360.4081 L 340.9454 359.4172 L 340.9959 358.4133 L 341.2225 357.4167 L 342.0935 355.7341 L 343.3415 354.3566 L 344.8461 353.2669 L 348.3645 351.7447 L 352.5057 349.6497 L 354.3368 348.9967 L 359.2245 348.0187 L 361.1233 347.4574 L 366.0432 344.8512 L 367.6058 344.1681 L 368.8366 346.6082 L 370.3595 350.3571 L 371.1564 351.6072 L 372.1981 352.5222 L 375.4974 354.7418 L 378.4809 357.3938 L 393.1181 372.3135 L 396.6719 376.1955 L 397.8984 377.7836 L 398.8993 379.3874 L 402.1051 386.2751 L 402.7098 388.0236 L 402.8741 389.0045 L 402.8483 390.9763 L 402.3887 392.8121 L 400.8894 396.107 L 400.2268 398.0187 L 399.7972 400.234 L 399.5544 402.5394 L 399.287 410.8449 L 399.4675 417.9245 L 400.0012 421.3297 L 400.7186 423.3144 L 401.638 425.0042 L 405.9768 432.0723 L 402.4402 433.5874 L 399.1882 435.1325 L 396.1338 436.3353 L 394.7484 437.0871 L 393.2814 438.1625 L 391.8938 439.3782 L 386.5486 444.6622 L 384.4425 446.5309 L 382.1163 448.1147 L 379.2746 449.3791 L 377.7484 450.2025 L 376.1901 451.3323 L 374.7187 452.624 L 373.3322 454.0273 L 372.0542 455.5266 L 370.9405 457.1375 L 370.4755 457.9967 L 368.1417 464.3417 L 366.9893 468.3985 L 363.2465 467.1813 L 359.3469 466.2148 L 357.4385 465.6033 L 352.5229 462.9341 L 348.9637 461.2931 L 347.283 460.169 L 345.701 458.8387 L 339.6835 452.8774 L 337.3498 450.7381 L 335.6991 449.4665 L 331.0466 446.5825 L 330.6159 444.8025 L 329.8373 443.1901 L 328.773 441.6465 L 326.8538 439.4599 L 324.6693 437.4637 L 323.0659 436.3067 L 317.9849 433.6318 Z" fill="#000000" fill-opacity="1" stroke="#000000" stroke-width="0" paint-order="fill" stroke-opacity="1" stroke-dasharray="" stroke-linecap="butt" stroke-linejoin="miter" stroke-miterlimit="10" transform="matrix(1.100000023841858,0,0,1.100000023841858,-40.00004959106445,-26.64995765686035)" clip-path="none" style="filter: url(#f1)"/>
<path data-code="201" d="M 432.6963 328.6928 L 433.0679 326.4375 L 433.345 322.9922 L 433.3439 319.5225 L 433.1656 317.24 L 432.475 313.9579 L 430.2583 308.7641 L 429.7224 306.5876 L 429.3014 301.9838 L 429.2381 291.3285 L 428.9642 286.6746 L 428.279 283.361 L 426.5027 279.2055 L 425.8293 277.1577 L 425.3363 274.0804 L 425.0678 269.8433 L 427.3973 266.7416 L 428.3134 265.0433 L 428.9449 263.0987 L 429.9856 258.1083 L 430.6246 256.261 L 432.5685 251.9623 L 433.0883 250.0105 L 433.8658 246.0067 L 434.4973 244.0535 L 434.9548 243.1299 L 436.0965 241.4072 L 437.4228 239.7977 L 443.1235 233.6102 L 444.3629 231.9419 L 445.3445 230.1119 L 445.686 229.1252 L 446.1178 227.0861 L 446.7707 220.8413 L 447.1531 218.8394 L 447.7803 217.0323 L 448.9552 214.5922 L 449.5856 212.8853 L 449.8122 210.9221 L 449.7306 209.9254 L 449.5094 208.9388 L 448.6427 207.0672 L 447.4452 205.3761 L 443.3157 200.4916 L 439.7394 195.2878 L 446.6558 192.0903 L 448.5922 191.549 L 453.4713 190.518 L 455.2659 189.8535 L 459.4318 187.8459 L 461.3231 187.2889 L 465.2055 186.4669 L 467.0957 185.8769 L 472.0113 183.2321 L 475.5855 181.6469 L 479.6473 179.4073 L 481.4741 178.7286 L 483.4653 178.3391 L 486.5497 178.1114 L 489.6933 178.1228 L 495.2275 178.4135 L 497.4055 179.6422 L 499.387 181.5366 L 500.4502 183.0918 L 500.8948 183.9968 L 502.0945 187.3862 L 501.5607 191.2669 L 501.4511 194.4788 L 501.7025 197.6334 L 502.1675 199.6482 L 504.4024 204.8391 L 504.9534 206.7679 L 505.8061 210.7502 L 506.4215 212.7034 L 507.7736 215.2638 L 512.076 221.679 L 507.6856 224.4341 L 505.2283 226.6021 L 503.1717 229.1152 L 502.1471 231.0226 L 501.7819 232.0994 L 501.3384 234.3176 L 500.7864 239.9624 L 500.4137 242.1719 L 499.8026 244.128 L 497.9554 248.4697 L 497.4517 250.6076 L 497.0972 253.9584 L 496.7332 260.7717 L 496.2327 264.071 L 495.6055 266.0113 L 493.725 270.333 L 493.2084 272.4638 L 492.8411 275.8088 L 492.4663 282.6164 L 491.9604 285.9099 L 491.3257 287.846 L 489.4162 292.149 L 488.876 294.3113 L 488.5828 296.5695 L 488.397 300.0478 L 488.383 311.6925 L 486.3392 314.8772 L 485.1342 316.4882 L 479.484 322.8146 L 478.1888 324.4456 L 477.0891 326.1941 L 476.6606 327.1363 L 476.116 329.1339 L 475.8604 331.1931 L 475.5275 336.4011 L 475.1817 338.4531 L 474.4847 340.3663 L 472.8866 342.8421 L 471.5957 344.3228 L 470.1759 345.6688 L 468.6208 346.8359 L 466.8949 347.7151 L 465.9326 348.0029 L 463.9629 348.265 L 461.9739 348.2335 L 459.2718 347.8955 L 455.0275 345.3051 L 450.6113 343.4135 L 446.5731 341.0651 L 442.173 339.0617 L 440.605 338.0407 L 438.4367 336.1477 L 436.4412 333.9883 L 434.7336 331.7458 L 432.6963 328.6928 Z" fill="#000000" fill-opacity="1" stroke="#000000" stroke-width="0" paint-order="fill" stroke-opacity="1" stroke-dasharray="" stroke-linecap="butt" stroke-linejoin="miter" stroke-miterlimit="10" transform="matrix(1.100000023841858,0,0,1.100000023841858,-40.00004959106445,-26.64995765686035)" clip-path="none" style="filter: url(#f1)"/>
<path data-code="202" d="M 386.6914 466.4625 L 382.519 466.7861 L 379.5098 467.3417 L 377.5369 468.0835 L 373.6362 469.9307 L 371.8405 470.3317 L 370.1168 470.4076 L 368.5992 470.1627 L 367.4834 469.5398 L 367.1794 469.1131 L 366.9893 468.3985 L 368.1417 464.3417 L 370.4755 457.9967 L 370.9405 457.1375 L 372.0542 455.5266 L 373.3322 454.0273 L 374.7187 452.624 L 376.1901 451.3323 L 377.7484 450.2025 L 379.2746 449.3791 L 382.1163 448.1147 L 384.4425 446.5309 L 386.5486 444.6622 L 391.8938 439.3782 L 393.2814 438.1625 L 394.7484 437.0871 L 396.1338 436.3353 L 399.1882 435.1325 L 402.4402 433.5874 L 405.9768 432.0723 L 410.48 431.6628 L 415.2624 431.5454 L 434.3717 431.8232 L 437.5829 431.4595 L 439.4892 430.7034 L 440.3075 430.0404 L 440.909 429.2256 L 441.3224 428.3263 L 441.7864 426.386 L 442.3674 421.0949 L 442.8443 418.9541 L 446.6623 410.0243 L 449.3697 404.991 L 451.4243 400.5562 L 452.9504 398.2049 L 455.5687 394.6693 L 461.1513 403.854 L 461.8536 405.5967 L 462.1211 407.5742 L 462.0663 408.5637 L 461.6131 410.411 L 460.0966 413.7016 L 459.4544 415.5145 L 459.0355 417.5221 L 458.2322 423.7712 L 457.8069 425.776 L 457.1572 427.5803 L 455.9715 430.0189 L 455.34 431.7258 L 455.1048 433.6919 L 455.181 434.6929 L 455.7599 436.6461 L 456.2346 437.5496 L 457.4063 439.2351 L 460.2051 442.3968 L 466.9003 449.1314 L 469.9504 451.6015 L 471.6526 452.5151 L 473.6072 453.0779 L 475.622 453.3342 L 479.7257 453.4445 L 479.5291 458.7943 L 478.9148 461.863 L 478.1577 463.6286 L 475.505 468.4128 L 474.4374 469.8606 L 473.0187 470.936 L 468.3705 473.6538 L 466.6887 474.46 L 464.7845 475.03 L 459.9366 476.071 L 458.1602 476.7498 L 453.9997 478.8204 L 451.0452 479.512 L 446.9479 479.6996 L 444.9052 479.5478 L 442.9066 479.1726 L 441.0668 478.4925 L 437.019 476.2156 L 434.3663 474.9712 L 432.6329 473.9603 L 431.0134 472.703 L 423.4708 465.3513 L 421.0748 463.3952 L 412.672 458.8587 L 410.8344 458.2129 L 408.8465 457.9179 L 406.836 457.9308 L 404.8545 458.2502 L 403.8955 458.5466 L 402.205 459.3499 L 399.0142 461.2014 L 395.4454 462.811 L 391.3815 465.0978 L 389.5922 465.8009 L 386.6914 466.4625 Z" fill="#000000" fill-opacity="1" stroke="#000000" stroke-width="0" paint-order="fill" stroke-opacity="1" stroke-dasharray="" stroke-linecap="butt" stroke-linejoin="miter" stroke-miterlimit="10" transform="matrix(1.100000023841858,0,0,1.100000023841858,-40.00004959106445,-26.64995765686035)" clip-path="none" style="filter: url(#f1)"/>
<path data-code="203" d="M 432.6963 328.6928 L 423.038 337.1701 L 420.3423 338.7997 L 418.2889 339.4083 L 415.0831 339.7648 L 406.3216 339.855 L 402.0192 340.2445 L 399.0916 341.1209 L 394.9331 343.0655 L 392.6982 343.6483 L 390.3483 343.9562 L 385.4972 344.1624 L 367.6058 344.1681 L 366.0432 344.8512 L 361.1233 347.4574 L 359.2245 348.0187 L 354.3368 348.9967 L 352.5057 349.6497 L 348.3645 351.7447 L 344.8461 353.2669 L 343.3415 354.3566 L 342.0935 355.7341 L 341.2225 357.4167 L 340.9959 358.4133 L 340.9454 359.4172 L 341.0593 360.4081 L 341.3406 361.3618 L 342.2557 362.9226 L 343.4532 364.1699 L 344.7774 365.1508 L 346.8523 366.4137 L 347.4602 366.9951 L 347.952 367.7326 L 348.5449 369.4696 L 348.6963 371.3855 L 348.6158 372.3693 L 348.0874 374.3211 L 347.1036 375.9592 L 345.8062 377.3225 L 344.293 378.4165 L 340.8133 380.0704 L 339.081 381.1516 L 332.4191 386.3811 L 330.6428 387.3606 L 327.9632 388.572 L 323.1217 391.3959 L 319.526 392.9495 L 314.5815 395.5801 L 312.659 396.1729 L 304.9318 397.8369 L 304.1424 395.2407 L 301.5541 388.0179 L 298.9175 382.9601 L 297.7866 380.1836 L 296.877 378.4222 L 295.7493 376.8299 L 294.4659 375.3392 L 291.6091 372.6629 L 289.2571 371.0691 L 286.6355 369.8634 L 284.9977 368.9154 L 282.9099 367.0209 L 281.7908 365.4873 L 280.1401 361.9274 L 278.4497 358.6783 L 277.7978 356.9241 L 277.6184 355.9289 L 277.6453 353.917 L 278.1533 352.0425 L 280.2754 347.9528 L 281.8456 344.2855 L 284.6809 339.3152 L 286.2135 335.5978 L 287.9909 332.247 L 288.7813 330.5086 L 289.3398 328.5454 L 290.3343 323.522 L 290.9884 321.6719 L 293.0053 317.3918 L 293.5509 315.4314 L 293.9321 313.4152 L 297.7834 310.5326 L 301.1782 308.8558 L 302.7935 307.8706 L 304.1768 306.6062 L 305.312 305.0797 L 306.1024 303.2482 L 306.4966 301.2277 L 306.6469 299.1456 L 306.7511 291.718 L 306.9906 289.6302 L 307.5405 287.6097 L 308.5586 285.6923 L 310.6142 283.1677 L 313.021 280.9238 L 315.5899 278.9277 L 319.4638 278.5826 L 322.8876 278.478 L 326.2792 278.5768 L 328.4937 278.8031 L 331.6534 279.5649 L 336.6055 281.9004 L 338.5193 282.3672 L 340.4976 282.5262 L 342.4823 282.403 L 344.4133 281.9634 L 349.389 279.6093 L 353.1802 278.5124 L 355.8565 280.6245 L 357.8262 281.7558 L 360.0407 282.4603 L 362.3584 282.8183 L 368.3426 283.0417 L 379.3197 282.9873 L 390.2925 283.1248 L 395.0158 282.9601 L 398.2431 282.3114 L 399.185 281.9162 L 400.767 280.8694 L 402.6346 278.8217 L 404.7396 274.6804 L 405.7717 273.1883 L 407.0701 271.8752 L 408.6274 270.8342 L 410.6347 270.1282 L 413.8415 269.7115 L 418.2803 269.6557 L 425.0678 269.8433 L 425.3363 274.0804 L 425.8293 277.1577 L 426.5027 279.2055 L 428.279 283.361 L 428.9642 286.6746 L 429.2381 291.3285 L 429.3014 301.9838 L 429.7224 306.5876 L 430.2583 308.7641 L 432.475 313.9579 L 433.1656 317.24 L 433.3439 319.5225 L 433.345 322.9922 L 433.0679 326.4375 L 432.6963 328.6928 Z" fill="#000000" fill-opacity="1" stroke="#000000" stroke-width="0" paint-order="fill" stroke-opacity="1" stroke-dasharray="" stroke-linecap="butt" stroke-linejoin="miter" stroke-miterlimit="10" transform="matrix(1.100000023841858,0,0,1.100000023841858,-40.00004959106445,-26.64995765686035)" clip-path="none" style="filter: url(#f1)"/>
<path data-code="204" d="M 407.5255 161.5478 L 410.3232 163.2891 L 412.6301 165.1406 L 416.1635 168.6146 L 418.7067 171.6031 L 420.2575 174.0245 L 421.5162 176.9744 L 422.3174 178.5395 L 423.3903 180.1519 L 427.5208 185.6135 L 428.4734 187.2502 L 430.0672 190.823 L 430.5709 191.6148 L 431.7963 193.0368 L 433.2784 194.1852 L 434.8926 194.8998 L 437.3154 195.2864 L 439.7394 195.2878 L 443.3157 200.4916 L 447.4452 205.3761 L 448.6427 207.0672 L 449.5094 208.9388 L 449.7306 209.9254 L 449.8122 210.9221 L 449.5856 212.8853 L 448.9552 214.5922 L 447.7803 217.0323 L 447.1531 218.8394 L 446.7707 220.8413 L 446.1178 227.0861 L 445.686 229.1252 L 445.3445 230.1119 L 444.3629 231.9419 L 443.1235 233.6102 L 437.4228 239.7977 L 436.0965 241.4072 L 434.9548 243.1299 L 434.4973 244.0535 L 433.8658 246.0067 L 433.0883 250.0105 L 432.5685 251.9623 L 430.6246 256.261 L 429.9856 258.1083 L 428.9449 263.0987 L 428.3134 265.0433 L 427.3973 266.7416 L 425.0678 269.8433 L 418.2803 269.6557 L 413.8415 269.7115 L 410.6347 270.1282 L 408.6274 270.8342 L 407.0701 271.8752 L 405.7717 273.1883 L 404.7396 274.6804 L 402.6346 278.8217 L 400.767 280.8694 L 399.185 281.9162 L 398.2431 282.3114 L 395.0158 282.9601 L 390.2925 283.1248 L 379.3197 282.9873 L 368.3426 283.0417 L 362.3584 282.8183 L 360.0407 282.4603 L 357.8262 281.7558 L 355.8565 280.6245 L 353.1802 278.5124 L 353.207 270.9358 L 353.4154 268.828 L 353.846 266.7803 L 354.1875 265.7951 L 355.1799 263.9235 L 359 258.893 L 360.596 256.1937 L 361.2318 254.2634 L 362.0598 250.2797 L 362.6032 248.3222 L 365.053 243.1857 L 366.636 239.4927 L 367.7744 237.7027 L 369.1319 236.0502 L 372.2303 233.1219 L 373.9154 231.9076 L 378.2285 229.7481 L 379.7267 228.657 L 381.0273 227.2852 L 381.5793 226.4976 L 382.4127 224.6575 L 382.6683 223.648 L 382.9282 221.5702 L 382.9497 219.458 L 382.7875 217.3545 L 382.4374 215.3096 L 381.8457 213.4051 L 380.2454 210.3665 L 379.6494 208.8586 L 379.5656 207.1331 L 379.804 206.2839 L 380.2766 205.4978 L 380.9972 204.8706 L 381.8156 204.4839 L 382.6941 204.2634 L 384.5854 204.1102 L 391.9539 204.1875 L 394.0643 203.8596 L 395.0899 203.5145 L 395.948 203.0763 L 397.4602 201.9035 L 398.6641 200.3971 L 399.1195 199.5222 L 399.4632 198.5341 L 399.7768 196.5007 L 399.592 193.4291 L 399.3751 192.4239 L 398.706 190.5595 L 396.6268 186.3624 L 396.0178 184.2545 L 395.657 182.0292 L 395.4572 179.7524 L 395.3767 176.3171 L 395.4798 174.056 L 395.7848 171.8565 L 396.0533 170.794 L 396.877 168.9239 L 397.9682 167.4432 L 398.6706 166.7301 L 400.2192 165.5659 L 404.5323 163.5139 L 407.5255 161.5478 Z" fill="#000000" fill-opacity="1" stroke="#000000" stroke-width="0" paint-order="fill" stroke-opacity="1" stroke-dasharray="" stroke-linecap="butt" stroke-linejoin="miter" stroke-miterlimit="10" transform="matrix(1.100000023841858,0,0,1.100000023841858,-40.00004959106445,-26.64995765686035)" clip-path="none" style="filter: url(#f1)"/>
<path data-code="205" d="M 461.0321 99.23 L 467.1548 102.6266 L 471.6408 104.4653 L 473.2818 105.3431 L 477.7861 108.0667 L 479.0931 109.2466 L 479.5646 110.0499 L 480.064 111.8514 L 480.1424 112.8036 L 480.0253 114.7511 L 479.5538 116.6771 L 477.5004 120.8284 L 477.1342 121.6976 L 476.5961 123.6751 L 476.203 126.8197 L 475.8744 133.2564 L 475.4931 136.3924 L 474.9669 138.37 L 474.6082 139.2435 L 472.5741 143.4492 L 472.0843 145.431 L 471.9394 148.5226 L 472.2476 150.5775 L 472.9972 152.5422 L 474.7779 155.1297 L 476.9151 157.4968 L 486.0997 166.7201 L 489.7878 170.668 L 492.4308 174.0188 L 495.2275 178.4135 L 489.6933 178.1228 L 486.5497 178.1114 L 483.4653 178.3391 L 481.4741 178.7286 L 479.6473 179.4073 L 475.5855 181.6469 L 472.0113 183.2321 L 467.0957 185.8769 L 465.2055 186.4669 L 461.3231 187.2889 L 459.4318 187.8459 L 455.2659 189.8535 L 453.4713 190.518 L 448.5922 191.549 L 446.6558 192.0903 L 439.7394 195.2878 L 437.3154 195.2864 L 434.8926 194.8998 L 433.2784 194.1852 L 431.7963 193.0368 L 430.5709 191.6148 L 430.0672 190.823 L 428.4734 187.2502 L 427.5208 185.6135 L 423.3903 180.1519 L 422.3174 178.5395 L 421.5162 176.9744 L 420.2575 174.0245 L 418.7067 171.6031 L 416.1635 168.6146 L 412.6301 165.1406 L 410.3232 163.2891 L 407.5255 161.5478 L 412.0942 156.9784 L 414.0016 154.819 L 415.0755 153.2811 L 415.5094 152.4548 L 416.0249 150.7851 L 416.1066 149.1899 L 415.8413 147.6391 L 415.1507 145.9723 L 413.5237 142.7489 L 413.2541 141.9026 L 412.919 140.1241 L 412.817 138.2912 L 412.9448 136.4511 L 413.3486 134.6569 L 413.6966 133.7547 L 415.9068 129.5949 L 417.536 125.9247 L 418.5821 124.2837 L 420.4658 121.9897 L 426.6777 115.4055 L 428.497 113.0657 L 429.3734 111.5005 L 430.6246 108.6638 L 432.141 105.6882 L 432.3773 104.8863 L 432.4471 103.9941 L 432.2882 103.0863 L 431.9413 102.26 L 431.4515 101.5269 L 430.8415 100.8882 L 430.1209 100.3541 L 429.2918 99.9488 L 428.5314 99.7398 L 426.9827 99.6839 L 425.448 100.0519 L 424.562 100.4815 L 422.9725 101.6414 L 421.5011 103.0304 L 414.3828 110.8375 L 411.4369 113.796 L 409.0022 115.6446 L 408.0979 116.1115 L 406.3183 116.6842 L 404.4808 116.9678 L 402.6174 117.0652 L 399.8219 116.9434 L 397.9907 116.6613 L 396.6644 116.2976 L 395.2048 115.6518 L 393.6691 114.6852 L 391.5351 113.1287 L 391.447 98.7617 L 391.6199 95.3479 L 391.911 93.1255 L 392.8174 90.0912 L 394.9589 85.8812 L 396.4979 82.2096 L 399.0432 77.1304 L 400.027 73.161 L 401.029 69.2288 L 402.9987 64.9358 L 403.6388 63.0542 L 404.1929 59.9626 L 404.8663 53.2996 L 410.6626 57.7401 L 413.0554 59.2824 L 416.636 60.8919 L 421.4893 63.6842 L 425.0936 65.2336 L 429.9705 68.0074 L 433.6113 69.5167 L 437.701 71.7892 L 441.142 73.33 L 442.7616 74.3094 L 444.1094 75.5796 L 444.6743 76.3156 L 445.5013 77.9896 L 445.7161 78.959 L 445.773 79.9314 L 445.4798 81.7986 L 443.4146 86.2478 L 443.2556 87.959 L 443.4156 88.8081 L 443.7636 89.6086 L 444.2898 90.2802 L 444.9149 90.81 L 450.0796 94.0234 L 454.5452 95.9178 L 458.6145 98.1818 L 461.0321 99.23 Z" fill="#000000" fill-opacity="1" stroke="#000000" stroke-width="0" paint-order="fill" stroke-opacity="1" stroke-dasharray="" stroke-linecap="butt" stroke-linejoin="miter" stroke-miterlimit="10" transform="matrix(1.100000023841858,0,0,1.100000023841858,-40.00004959106445,-26.64995765686035)" clip-path="none" style="filter: url(#f1)"/>
<path data-code="206" d="M 405.9768 432.0723 L 401.638 425.0042 L 400.7186 423.3144 L 400.0012 421.3297 L 399.4675 417.9245 L 399.287 410.8449 L 399.5544 402.5394 L 399.7972 400.234 L 400.2268 398.0187 L 400.8894 396.107 L 402.3887 392.8121 L 402.8483 390.9763 L 402.8741 389.0045 L 402.7098 388.0236 L 402.1051 386.2751 L 398.8993 379.3874 L 397.8984 377.7836 L 396.6719 376.1955 L 393.1181 372.3135 L 378.4809 357.3938 L 375.4974 354.7418 L 372.1981 352.5222 L 371.1564 351.6072 L 370.3595 350.3571 L 368.8366 346.6082 L 367.6058 344.1681 L 385.4972 344.1624 L 390.3483 343.9562 L 392.6982 343.6483 L 394.9331 343.0655 L 399.0916 341.1209 L 402.0192 340.2445 L 406.3216 339.855 L 415.0831 339.7648 L 418.2889 339.4083 L 420.3423 338.7997 L 423.038 337.1701 L 432.6963 328.6928 L 434.7336 331.7458 L 436.4412 333.9883 L 438.4367 336.1477 L 440.605 338.0407 L 442.173 339.0617 L 446.5731 341.0651 L 450.6113 343.4135 L 455.0275 345.3051 L 459.2718 347.8955 L 458.7778 357.1174 L 458.7982 377.8681 L 458.5598 384.299 L 458.2386 386.8322 L 457.6759 389.215 L 455.5687 394.6693 L 452.9504 398.2049 L 451.4243 400.5562 L 449.3697 404.991 L 446.6623 410.0243 L 442.8443 418.9541 L 442.3674 421.0949 L 441.7864 426.386 L 441.3224 428.3263 L 440.909 429.2256 L 440.3075 430.0404 L 439.4892 430.7034 L 437.5829 431.4595 L 434.3717 431.8232 L 415.2624 431.5454 L 410.48 431.6628 L 405.9768 432.0723 Z" fill="#000000" fill-opacity="1" stroke="#000000" stroke-width="0" paint-order="fill" stroke-opacity="1" stroke-dasharray="" stroke-linecap="butt" stroke-linejoin="miter" stroke-miterlimit="10" transform="matrix(1.100000023841858,0,0,1.100000023841858,-40.00004959106445,-26.64995765686035)" clip-path="none" style="filter: url(#f1)"/>
<path data-code="207" d="M 479.7332 449.0741 L 479.7257 453.4445 L 475.622 453.3342 L 473.6072 453.0779 L 471.6526 452.5151 L 469.9504 451.6015 L 466.9003 449.1314 L 460.2051 442.3968 L 457.4063 439.2351 L 456.2346 437.5496 L 455.7599 436.6461 L 455.181 434.6929 L 455.1048 433.6919 L 455.34 431.7258 L 455.9715 430.0189 L 457.1572 427.5803 L 457.8069 425.776 L 458.2322 423.7712 L 459.0355 417.5221 L 459.4544 415.5145 L 460.0966 413.7016 L 461.6131 410.411 L 462.0663 408.5637 L 462.1211 407.5742 L 461.8536 405.5967 L 461.1513 403.854 L 455.5687 394.6693 L 457.6759 389.215 L 458.2386 386.8322 L 458.5598 384.299 L 458.7982 377.8681 L 458.7778 357.1174 L 459.2718 347.8955 L 461.9739 348.2335 L 463.9629 348.265 L 465.9326 348.0029 L 466.8949 347.7151 L 468.6208 346.8359 L 470.1759 345.6688 L 471.5957 344.3228 L 472.8866 342.8421 L 474.4847 340.3663 L 475.1817 338.4531 L 475.5275 336.4011 L 475.8604 331.1931 L 476.116 329.1339 L 476.6606 327.1363 L 477.0891 326.1941 L 478.1888 324.4456 L 479.484 322.8146 L 485.1342 316.4882 L 486.3392 314.8772 L 488.383 311.6925 L 490.3398 314.4791 L 492.3685 316.5612 L 493.9204 317.5965 L 500.5952 321.0461 L 503.5905 321.8967 L 511.2501 322.6628 L 513.3798 323.2571 L 514.3346 323.7067 L 516.1002 324.8623 L 518.4522 327.0117 L 519.8226 328.6485 L 520.9696 330.4628 L 521.4196 331.4537 L 522.0232 333.7105 L 522.2874 336.0388 L 522.3829 339.6001 L 522.1166 371.0691 L 521.8835 375.8948 L 521.281 381.0341 L 518.5198 383.3296 L 516.3085 385.7009 L 514.5257 388.3386 L 512.8933 391.9787 L 511.8 393.7715 L 510.4919 395.4526 L 509.0388 397.0235 L 506.618 399.0927 L 504.8041 400.1438 L 503.8622 400.5017 L 497.1166 402.0483 L 492.0603 404.3208 L 490.1765 404.8277 L 486.3403 405.5852 L 484.4812 406.2425 L 483.6597 406.7036 L 482.1808 407.875 L 480.9328 409.2969 L 480.4109 410.0888 L 476.3051 418.7722 L 475.6478 421.8553 L 475.3578 427.2251 L 475.4448 433.732 L 475.8733 437.9649 L 476.3867 439.9782 L 476.7379 440.8775 L 478.7623 445.2092 L 479.7332 449.0741 Z" fill="#000000" fill-opacity="1" stroke="#000000" stroke-width="0" paint-order="fill" stroke-opacity="1" stroke-dasharray="" stroke-linecap="butt" stroke-linejoin="miter" stroke-miterlimit="10" transform="matrix(1.100000023841858,0,0,1.100000023841858,-40.00004959106445,-26.64995765686035)" clip-path="none" style="filter: url(#f1)"/>








</svg>