<?xml version="1.0" standalone="no"?>
<!-- Generator: Paintmaps.com , Online SVG vector map maker -->
<svg xmlns="http://www.w3.org/2000/svg" version="1.1" baseProfile="full"   style="background-color:false" width="800" height="500" viewBox="0 0 800 533">
<path data-code="200" d="M 281.5003 131.0717 L 279.949 131.4337 L 278.9018 129.7789 L 282.974 128.8482 L 281.5003 131.0717 Z M 301.2793 124.0391 L 295.6559 125.0216 L 294.376 124.608 L 297.6338 123.5738 L 301.2793 124.0391 Z M 310.3156 122.9015 L 306.6701 123.0567 L 305.8556 122.1776 L 309.6951 122.2293 L 310.3156 122.9015 Z M 315.8615 121.7122 L 314.2326 122.5396 L 312.5262 122.0225 L 313.6509 121.0917 L 315.8615 121.7122 Z M 287.2013 204.8618 L 286.8522 202.2763 L 288.2484 197.9843 L 285.999 193.1236 L 283.5557 194.1061 L 278.3589 192.6065 L 276.8852 191.3655 L 276.3034 187.6941 L 278.7467 186.8667 L 277.5057 183.5056 L 279.8326 182.4714 L 286.3093 182.9885 L 288.5975 182.5231 L 289.4894 174.7149 L 290.5366 171.2503 L 294.1821 165.252 L 294.7251 161.6323 L 294.2209 156.5647 L 295.2293 150.0492 L 297.8277 145.809 L 300.9303 147.1018 L 298.9524 145.3953 L 291.5837 144.8265 L 290.0324 142.603 L 290.1875 138.5179 L 291.5449 134.6914 L 294.2597 133.9675 L 292.592 131.1751 L 297.2847 126.9866 L 299.8444 126.1075 L 304.8085 125.7456 L 306.2047 126.7281 L 310.9749 125.9007 L 320.6705 124.9182 L 323.1914 125.7456 L 323.7731 129.7272 L 327.3023 134.3811 L 326.8757 135.829 L 323.6956 137.07 L 324.9366 140.1209 L 326.643 140.0692 L 328.2719 142.241 L 329.6681 142.3962 L 331.1418 140.6897 L 332.1501 136.9666 L 329.319 135.9841 L 330.2886 131.6922 L 333.236 131.2785 L 334.4383 133.2952 L 338.4329 134.6397 L 339.6739 135.6739 L 338.1614 137.1735 L 337.347 139.9141 L 337.8512 145.3953 L 337.8124 138.9833 L 339.7903 136.6047 L 341.2252 138.2594 L 342.4275 136.8115 L 342.1172 131.9508 L 338.5105 131.2268 L 337.7736 128.4345 L 338.0063 125.7973 L 340.7986 118.0925 L 341.9233 116.7998 L 344.4054 116.4895 L 346.2669 118.4028 L 349.9513 119.7472 L 358.1344 118.0925 L 363.2537 118.1442 L 367.2482 124.9699 L 369.8467 127.8657 L 372.4063 132.8298 L 376.556 135.2602 L 378.7278 135.7773 L 378.8442 137.9491 L 381.6753 142.0859 L 385.825 143.1201 L 388.9664 141.1551 L 392.3017 143.7406 L 396.878 142.1893 L 398.7784 142.6547 L 403.3547 145.4988 L 405.7204 145.5505 L 408.1249 145.4471 L 409.9477 146.5847 L 410.2192 149.015 L 416.4244 153.3587 L 421.6212 157.9091 L 423.3664 156.3578 L 425.0341 158.0643 L 426.0036 157.392 L 427.6325 159.357 L 429.4165 161.7874 L 432.2864 161.322 L 437.6772 163.287 L 437.0954 165.0968 L 435.3114 165.6139 L 435.1951 168.7165 L 432.2864 170.8366 L 426.9344 172.4913 L 425.7709 171.4054 L 419.2555 170.6815 L 417.5103 173.267 L 415.067 174.2495 L 411.0336 174.7666 L 410.8785 177.6106 L 412.3134 181.1269 L 413.5157 181.7991 L 416.2692 186.7116 L 418.1696 187.0735 L 417.3939 190.7967 L 418.984 193.3304 L 417.3164 193.6924 L 416.9285 195.3471 L 419.3331 198.5014 L 421.3885 200.2596 L 418.984 201.8626 L 419.527 204.9135 L 421.8151 208.2746 L 419.6821 210.3947 L 420.8844 211.4289 L 420.3414 213.3939 L 417.3552 215.3589 L 418.0532 217.117 L 414.1362 217.8927 L 407.5432 218.358 L 406.4961 220.1162 L 404.7896 220.323 L 407.2717 222.9602 L 406.2246 224.8218 L 407.1166 227.0453 L 405.1387 229.1654 L 405.2938 232.8885 L 407.9698 236.7151 L 409.0945 240.5416 L 406.147 244.1096 L 402.9281 245.0404 L 399.8255 243.0754 L 398.2354 243.3856 L 397.8864 245.7643 L 393.6591 249.5908 L 392.1466 249.1772 L 390.5953 251.7626 L 387.1049 251.7109 L 383.8083 254.5033 L 382.2958 252.5383 L 375.8579 255.3823 L 377.448 258.4332 L 375.7416 259.364 L 374.772 258.0713 L 370.9326 256.52 L 371.398 253.4174 L 373.1044 253.3657 L 373.3759 249.6425 L 371.9797 247.2639 L 373.6086 244.0062 L 375.0435 244.0062 L 372.9493 240.8001 L 368.6444 240.5933 L 366.8216 239.6625 L 364.5723 239.7142 L 365.1928 235.2155 L 366.7829 233.0437 L 367.4809 227.6658 L 363.021 228.2346 L 363.4863 225.5457 L 360.8491 224.5632 L 361.935 221.8743 L 358.0956 221.047 L 359.0264 219.2371 L 358.7937 216.1862 L 357.0485 213.0836 L 352.4333 212.8251 L 352.2007 209.8259 L 354.2173 209.4639 L 354.993 207.2404 L 352.1619 205.6891 L 353.3641 201.5006 L 355.2257 201.1386 L 357.0872 197.8809 L 356.5055 195.554 L 357.2812 194.1578 L 355.6523 192.9685 L 352.8987 194.83 L 351.5801 197.7258 L 347.1202 198.76 L 343.1643 197.6741 L 343.1643 193.6407 L 340.8374 191.2103 L 336.3774 192.0377 L 334.671 194.83 L 331.995 195.5023 L 329.8232 194.8817 L 330.8315 197.8292 L 333.8953 199.6391 L 334.8649 203.1036 L 334.8261 208.5332 L 335.912 209.4122 L 332.344 213.6007 L 328.1555 212.2563 L 325.2469 214.8935 L 319.9337 215.6691 L 318.1109 217.117 L 316.2493 216.0828 L 315.6288 214.2212 L 318.9641 212.5148 L 319.9724 209.7742 L 317.6455 209.3605 L 316.133 207.7575 L 318.7702 202.1211 L 316.6372 198.5014 L 314.0775 199.1737 L 310.0054 196.2779 L 309.3461 193.589 L 307.0191 192.7616 L 306.6701 196.0711 L 305.2351 198.3463 L 303.645 198.398 L 300.3097 201.2938 L 296.3927 203.4656 L 290.4202 203.7241 L 287.2013 204.8618 Z M 339.48 153.4104 L 337.3858 152.7382 L 337.9287 154.0826 L 341.0701 155.2719 L 341.8845 158.0126 L 343.9012 160.8049 L 343.8624 162.3562 L 349.1756 162.7182 L 350.7657 163.9592 L 352.666 162.5113 L 352.86 158.0126 L 351.5026 156.4096 L 350.8045 157.7023 L 345.4525 154.7031 L 343.6685 154.8583 L 339.48 153.4104 Z" fill="#000" fill-opacity="1" stroke="#000" stroke-width="0" paint-order="fill" stroke-opacity="1" stroke-dasharray="" stroke-linecap="butt" stroke-linejoin="miter" stroke-miterlimit="10" transform="matrix(1.100000023841858,0,0,1.100000023841858,-39.9999885559082,-26.649986267089844)" clip-path="none"/>
<path data-code="201" d="M 351.5801 84.843 L 350.2228 84.8947 L 349.2532 82.9298 L 350.3003 81.9473 L 354.0234 81.8439 L 351.5801 84.843 Z M 426.2751 84.6879 L 428.1755 88.2559 L 424.1809 87.6354 L 421.8151 88.2042 L 421.3497 86.2392 L 419.2555 86.4977 L 418.4023 85.3601 L 419.2555 83.0849 L 422.009 81.5853 L 424.7238 82.7229 L 426.2751 84.6879 Z M 344.7544 82.8263 L 343.1256 83.2917 L 342.6602 81.275 L 345.7628 79.7237 L 344.7544 82.8263 Z M 342.0009 72.1741 L 338.2002 72.1224 L 336.4162 70.9331 L 338.6656 68.7612 L 341.4579 68.8647 L 342.699 70.3125 L 342.0009 72.1741 Z M 336.4938 61.0565 L 338.0063 61.4701 L 344.7932 61.315 L 344.0176 61.9355 L 340.1005 61.6253 L 338.2778 62.6078 L 334.9037 61.9355 L 333.7402 62.7112 L 333.1973 69.1749 L 332.8482 67.0548 L 333.3912 61.1082 L 336.2611 53.3 L 338.0063 53.6102 L 335.4854 57.0231 L 335.4854 59.9706 L 336.4938 61.0565 Z M 405.7204 145.5505 L 403.3547 145.4988 L 398.7784 142.6547 L 396.878 142.1893 L 396.4126 140.9483 L 392.3405 137.1218 L 391.9139 134.4328 L 393.1161 133.864 L 393.5427 131.1751 L 391.6812 128.3828 L 392.6507 126.3144 L 389.393 126.4178 L 388.4622 128.5379 L 386.1741 130.1409 L 384.041 130.4512 L 380.8221 133.0884 L 378.9218 131.3302 L 377.991 134.3811 L 375.2762 133.7089 L 371.9021 130.9166 L 371.3592 126.7281 L 368.2954 124.608 L 367.0931 120.0575 L 361.5472 116.6963 L 354.7603 116.4895 L 351.8516 113.9557 L 349.3308 108.4745 L 351.9292 108.1125 L 354.5664 108.9399 L 355.3032 105.2167 L 354.0622 102.5795 L 350.3391 103.6137 L 348.8654 100.5628 L 349.7961 96.4778 L 352.4333 95.4953 L 353.7907 93.1683 L 346.6548 94.3059 L 343.9012 95.2367 L 342.3111 91.7722 L 345.3749 90.6862 L 343.3195 89.0315 L 347.1977 87.6871 L 350.6881 87.8422 L 355.2645 85.0499 L 355.5359 82.8263 L 350.6881 76.5177 L 349.2532 72.7429 L 345.6852 70.0023 L 345.8791 68.6578 L 344.5217 65.4518 L 345.0259 61.1599 L 347.2365 61.6253 L 350.1452 60.7979 L 361.6248 64.0556 L 362.5943 66.5377 L 365.8909 66.6928 L 367.5585 65.8655 L 369.614 66.3826 L 373.6861 63.3834 L 373.7637 65.3484 L 377.2153 66.0206 L 380.5894 67.9856 L 381.2487 69.4852 L 384.1186 67.5719 L 385.8638 69.1749 L 387.3375 72.5878 L 384.5452 74.0357 L 387.8029 74.0874 L 387.3375 81.1199 L 384.3125 83.964 L 381.6365 84.5328 L 382.9939 85.6704 L 390.5953 83.8605 L 393.1161 85.7738 L 392.6895 89.2901 L 391.1382 90.6345 L 392.3405 92.341 L 393.504 88.8247 L 396.3351 86.8597 L 398.0415 86.8597 L 400.6399 88.8247 L 405.6429 91.0482 L 408.474 93.7371 L 411.2275 93.7888 L 416.1917 90.2209 L 418.8289 89.8589 L 419.3331 90.8414 L 422.5132 89.8072 L 420.7292 92.2375 L 421.311 98.6496 L 420.419 100.9248 L 416.7734 103.3552 L 415.4936 105.0616 L 412.042 105.9924 L 410.4907 108.6296 L 411.3827 110.5429 L 414.0974 111.1634 L 415.416 113.1801 L 415.3385 114.8348 L 410.8785 118.4545 L 410.8009 124.9699 L 412.2747 125.2802 L 414.175 127.5037 L 416.5019 128.3311 L 417.0837 134.7948 L 413.0115 134.7948 L 412.7788 137.6906 L 406.8063 141.5171 L 405.7204 145.5505 Z M 334.4771 72.0707 L 335.912 75.0699 L 334.9813 76.1558 L 333.1197 73.4151 L 334.4771 72.0707 L 334.4771 72.0707 L 334.4771 72.0707 Z M 334.4771 72.0707 L 334.4383 72.019 L 335.3303 71.1399 L 334.4771 72.0707 L 334.4771 72.0707 L 334.4771 72.0707 Z" fill="#000" fill-opacity="1" stroke="#000" stroke-width="0" paint-order="fill" stroke-opacity="1" stroke-dasharray="" stroke-linecap="butt" stroke-linejoin="miter" stroke-miterlimit="10" transform="matrix(1.100000023841858,0,0,1.100000023841858,-39.9999885559082,-26.649986267089844)" clip-path="none"/>
<path data-code="202" d="M 501.1252 183.4021 L 501.2804 185.2637 L 503.5297 187.6941 L 506.1669 188.8834 L 505.5852 191.7791 L 506.865 191.624 L 509.7737 193.589 L 508.4551 197.8809 L 506.516 199.6908 L 506.2057 197.8809 L 500.1944 195.9159 L 499.2249 197.8809 L 494.8037 196.1745 L 492.1277 196.1745 L 490.2661 197.3638 L 488.1719 196.2262 L 489.5293 190.383 L 489.9171 186.2462 L 491.5847 186.8667 L 491.9338 184.7466 L 494.571 182.9367 L 495.4242 184.6432 L 497.1694 184.488 L 500.0005 182.3679 L 501.1252 183.4021 Z" fill="#000" fill-opacity="1" stroke="#000" stroke-width="0" paint-order="fill" stroke-opacity="1" stroke-dasharray="" stroke-linecap="butt" stroke-linejoin="miter" stroke-miterlimit="10" transform="matrix(1.100000023841858,0,0,1.100000023841858,-39.9999885559082,-26.649986267089844)" clip-path="none"/>
<path data-code="203" d="M 427.6325 159.357 L 426.0036 157.392 L 425.0341 158.0643 L 423.3664 156.3578 L 421.6212 157.9091 L 416.4244 153.3587 L 410.2192 149.015 L 409.9477 146.5847 L 408.1249 145.4471 L 405.7204 145.5505 L 406.8063 141.5171 L 412.7788 137.6906 L 413.0115 134.7948 L 417.0837 134.7948 L 416.5019 128.3311 L 414.175 127.5037 L 412.2747 125.2802 L 410.8009 124.9699 L 410.8785 118.4545 L 415.3385 114.8348 L 415.416 113.1801 L 420.1087 110.5946 L 423.9482 109.974 L 426.2363 112.1459 L 426.1588 113.9557 L 429.0675 113.0249 L 433.062 116.0241 L 434.0704 110.7497 L 438.065 106.5612 L 439.2672 102.9932 L 441.4778 102.0624 L 444.1538 102.4761 L 451.6776 100.718 L 453.3065 100.9765 L 455.9437 97.15 L 460.7915 93.6854 L 463.7002 88.5661 L 465.6005 84.2225 L 468.4316 85.3601 L 477.5455 85.205 L 478.8641 86.0324 L 477.3128 87.0148 L 471.7281 86.2392 L 469.5175 86.9114 L 466.5313 89.8072 L 464.2043 88.773 L 463.3123 91.3585 L 461.412 93.3235 L 461.6835 95.547 L 463.0797 96.4778 L 463.4675 94.3577 L 465.0576 92.0307 L 471.224 88.5144 L 472.465 87.3251 L 472.7365 89.0832 L 474.7144 88.4627 L 475.8779 90.376 L 477.5843 89.8072 L 478.3987 87.8939 L 480.3766 86.1875 L 482.4321 85.8772 L 482.7036 88.1525 L 484.4876 89.1867 L 483.9446 90.2726 L 485.2632 94.2025 L 490.8867 96.5295 L 492.0114 98.6496 L 494.028 99.4769 L 496.7816 103.7689 L 497.1694 102.2693 L 501.0477 101.3385 L 504.4217 99.2701 L 504.0339 100.4077 L 507.6019 102.8898 L 507.5631 102.2693 L 505.7791 100.356 L 507.7182 99.1667 L 510.0064 102.9415 L 514.3888 105.0616 L 520.8655 111.4219 L 519.8571 113.2318 L 520.7491 114.7314 L 515.8626 114.9382 L 514.2725 116.4378 L 510.433 117.11 L 509.4247 116.4895 L 510.0452 117.3169 L 514.1173 120.7814 L 518.0732 122.281 L 520.6716 122.3844 L 521.9126 121.2468 L 523.0373 122.8498 L 521.6024 124.0391 L 523.27 124.4011 L 523.27 126.7798 L 524.5886 129.9341 L 525.0928 134.7948 L 527.0707 138.2594 L 528.3893 144.206 L 526.2562 145.7056 L 524.0069 148.5496 L 519.2366 148.0843 L 519.1978 146.9984 L 521.835 144.9817 L 523.3476 141.8791 L 523.3088 139.397 L 520.0123 138.8799 L 518.6161 140.0692 L 512.9539 139.9141 L 511.0923 135.5187 L 508.6878 133.7606 L 509.192 136.9149 L 505.973 137.5871 L 502.8317 141.2068 L 500.6986 142.1376 L 499.38 146.4295 L 496.6265 148.9633 L 492.6319 148.3945 L 491.0418 151.4971 L 488.5209 150.1527 L 483.7119 155.3236 L 482.0055 153.8241 L 479.3295 154.4963 L 475.2961 153.8758 L 475.141 152.4796 L 471.7669 151.0317 L 467.6948 150.0492 L 465.0188 150.3595 L 462.0325 147.8257 L 458.3482 146.4295 L 457.0296 145.0334 L 453.035 145.8607 L 451.4449 148.9633 L 449.7385 150.2044 L 445.1234 151.8591 L 445.899 153.1001 L 442.8352 153.7724 L 441.4003 152.0142 L 438.1425 152.6347 L 436.0871 154.4446 L 436.7464 157.6506 L 435.0399 159.1502 L 431.7047 158.4262 L 431.5495 159.8224 L 427.6325 159.357 L 427.6325 159.357 Z M 507.6407 103.0449 L 505.8567 106.768 L 508.9205 109.4052 L 509.3083 111.06 L 511.1699 111.6805 L 510.7433 113.3352 L 508.5327 115.3519 L 508.9593 115.869 L 512.1007 114.0074 L 512.2558 112.4044 L 510.976 108.7847 L 513.1866 109.0433 L 513.7295 110.5429 L 515.7074 111.5771 L 515.1645 107.13 L 514.4276 107.492 L 512.1394 104.8548 L 510.7045 107.8539 L 509.4247 108.4745 L 509.8125 105.9407 L 506.7875 107.492 L 507.757 104.5445 L 507.6407 103.0449 Z M 434.2643 109.6121 L 433.3335 112.5078 L 430.3861 111.8873 L 430.8514 110.6463 L 433.2947 109.1984 L 434.2643 109.6121 Z M 486.0001 76.6729 L 484.8366 77.4485 L 484.41 80.5511 L 483.2465 81.9473 L 484.4876 76.5177 L 486.0001 76.6729 Z M 493.2136 73.5703 L 493.4463 76.1041 L 495.7732 77.5002 L 499.8066 76.5694 L 501.2028 76.828 L 502.4826 79.2584 L 499.4188 83.1366 L 500.6211 86.2909 L 503.491 87.3251 L 505.7403 89.8072 L 504.1115 92.1858 L 502.2111 92.2375 L 504.0727 90.6345 L 502.056 89.6003 L 497.3245 90.2209 L 493.1748 94.8748 L 494.8813 94.6162 L 495.1527 96.4778 L 491.5847 95.5987 L 492.244 93.7888 L 490.1886 95.3401 L 485.1856 91.0482 L 486.1552 88.8764 L 489.3741 88.2042 L 488.9475 86.3943 L 486.3103 86.1358 L 487.0472 84.6879 L 489.4905 83.7054 L 488.5209 81.1199 L 487.0472 81.637 L 486.3879 79.4135 L 488.7924 78.9481 L 490.2274 79.7755 L 492.7094 77.19 L 492.1665 80.6028 L 493.4075 79.4652 L 494.8037 82.2058 L 497.247 82.3092 L 496.8592 78.5861 L 495.0364 78.6378 L 492.6319 75.6904 L 489.7232 78.6378 L 488.9475 77.8105 L 490.0722 73.8805 L 488.0555 74.6562 L 488.9088 72.9497 L 493.136 71.5019 L 494.8813 72.2258 L 493.2136 73.5703 Z" fill="#000" fill-opacity="1" stroke="#000" stroke-width="0" paint-order="fill" stroke-opacity="1" stroke-dasharray="" stroke-linecap="butt" stroke-linejoin="miter" stroke-miterlimit="10" transform="matrix(1.100000023841858,0,0,1.100000023841858,-39.9999885559082,-26.649986267089844)" clip-path="none"/>
<path data-code="204" d="M 339.48 153.4104 L 343.6685 154.8583 L 345.4525 154.7031 L 350.8045 157.7023 L 351.5026 156.4096 L 352.86 158.0126 L 352.666 162.5113 L 350.7657 163.9592 L 349.1756 162.7182 L 343.8624 162.3562 L 343.9012 160.8049 L 341.8845 158.0126 L 341.0701 155.2719 L 337.9287 154.0826 L 337.3858 152.7382 L 339.48 153.4104 Z M 339.7903 136.6047 L 340.1393 135.1568 L 338.5105 131.2268 L 342.1172 131.9508 L 342.4275 136.8115 L 341.2252 138.2594 L 339.7903 136.6047 Z" fill="#000" fill-opacity="1" stroke="#000" stroke-width="0" paint-order="fill" stroke-opacity="1" stroke-dasharray="" stroke-linecap="butt" stroke-linejoin="miter" stroke-miterlimit="10" transform="matrix(1.100000023841858,0,0,1.100000023841858,-39.9999885559082,-26.649986267089844)" clip-path="none"/>
<path data-code="205" d="M 291.5837 373.4878 L 287.783 376.6421 L 283.7884 376.0216 L 281.3839 374.3669 L 279.057 375.5045 L 278.8243 372.0916 L 275.9156 370.592 L 272.6579 370.2301 L 272.7354 372.7639 L 271.6107 373.6946 L 267.8488 371.9882 L 265.9873 366.507 L 263.001 362.6804 L 263.9318 361.4394 L 261.3334 357.1992 L 258.192 355.3893 L 256.1366 355.8547 L 256.4856 352.0282 L 261.4497 351.8731 L 265.4831 352.2867 L 269.3226 351.356 L 274.597 349.1841 L 277.3893 347.5294 L 279.5999 347.5294 L 282.082 349.0807 L 284.215 349.2876 L 287.1625 351.5111 L 288.8689 350.7871 L 290.11 355.9064 L 287.8218 357.9748 L 289.6058 361.4394 L 292.5533 362.3702 L 292.5533 364.18 L 289.8385 368.7305 L 288.9465 371.2643 L 291.5837 373.4878 Z" fill="#000" fill-opacity="1" stroke="#000" stroke-width="0" paint-order="fill" stroke-opacity="1" stroke-dasharray="" stroke-linecap="butt" stroke-linejoin="miter" stroke-miterlimit="10" transform="matrix(1.100000023841858,0,0,1.100000023841858,-39.9999885559082,-26.649986267089844)" clip-path="none"/>
<path data-code="206" d="M 457.844 312.4184 L 458.1931 315.159 L 457.1847 316.3483 L 460.8303 320.1749 L 460.7915 323.0706 L 463.2348 327.0523 L 471.0301 330.9305 L 470.9137 333.0506 L 473.0855 334.4468 L 470.7586 341.3759 L 468.3928 343.4443 L 469.7114 345.7196 L 472.465 347.3226 L 472.7365 350.0632 L 474.598 351.9248 L 476.1106 355.6996 L 477.1577 355.9581 L 478.0109 360.3535 L 481.0747 362.3702 L 483.5956 365.7313 L 488.0168 365.3693 L 490.8091 367.3343 L 497.4409 376.7455 L 501.7845 377.9349 L 504.4993 380.8823 L 505.0035 383.3127 L 508.6102 386.2084 L 509.2695 384.6571 L 513.109 385.5362 L 514.893 389.0008 L 517.4138 389.7247 L 520.9043 395.0508 L 519.9347 397.4295 L 521.137 398.9291 L 520.7879 403.5313 L 517.9568 408.5988 L 514.5439 406.3753 L 510.7821 405.4962 L 507.9509 406.8924 L 508.649 409.8399 L 507.0977 417.0276 L 502.5214 421.0609 L 497.5572 422.0951 L 493.8729 423.7498 L 490.3825 426.8524 L 488.4046 427.2661 L 483.7507 431.92 L 484.3712 434.9709 L 487.0084 437.6081 L 487.9392 440.0385 L 490.8091 442.4171 L 493.136 446.6056 L 489.762 453.483 L 492.3992 454.4138 L 494.4546 453.9484 L 496.1223 455.9651 L 496.5101 458.8092 L 495.3466 460.981 L 495.5018 465.9451 L 494.4934 467.2379 L 492.0501 467.2896 L 485.9225 462.8943 L 487.0472 459.6882 L 485.1081 456.7408 L 481.1135 456.4305 L 477.5455 458.7058 L 475.4512 459.1194 L 472.7365 455.7583 L 465.9883 456.5856 L 466.0271 453.6899 L 463.6614 455.1895 L 464.7085 459.378 L 463.3899 460.8259 L 454.9741 460.619 L 451.9103 461.2912 L 450.7856 462.6357 L 443.4557 461.9635 L 440.9737 466.152 L 435.8932 466.6691 L 434.1867 468.6858 L 434.8848 470.0302 L 432.0149 470.5473 L 430.3085 472.4606 L 427.012 471.2196 L 423.9094 473.1328 L 420.0699 473.1328 L 419.3331 470.8059 L 415.3385 467.5481 L 415.5712 465.4797 L 413.0891 466.2554 L 406.3797 463.7733 L 403.3547 465.6349 L 399.3213 463.1528 L 399.5152 467.5481 L 400.6787 470.5473 L 399.205 473.7016 L 397.4985 474.7875 L 395.2879 478.0453 L 392.8447 479.338 L 389.8972 479.7 L 391.72 475.1495 L 391.0994 473.7533 L 386.7558 474.529 L 386.717 470.4956 L 384.933 467.8067 L 383.8859 468.3755 L 382.257 465.79 L 377.2929 464.7558 L 377.099 462.8943 L 375.0823 462.5323 L 373.8025 464.4456 L 369.8079 462.4289 L 373.7249 461.2912 L 379.232 457.5164 L 382.451 458.3955 L 386.2904 457.3613 L 386.9497 458.9126 L 388.9664 456.8442 L 388.3847 452.5006 L 387.1436 451.4147 L 388.9664 449.8116 L 387.8417 446.4505 L 388.2683 443.1411 L 387.4539 441.9 L 389.044 437.8149 L 389.2767 433.8333 L 388.3071 431.6098 L 386.368 423.0259 L 383.7308 418.7857 L 386.9109 413.8215 L 389.2767 413.0459 L 389.9748 414.2352 L 395.7921 410.6672 L 395.7533 406.4787 L 394.2408 402.4454 L 395.2104 401.256 L 397.8476 403.3761 L 399.7479 401.3077 L 400.0194 402.9107 L 402.2688 401.4629 L 400.0194 397.7915 L 400.989 394.1201 L 400.989 388.2768 L 397.2659 383.1576 L 394.4347 382.2268 L 394.0857 378.0383 L 389.936 373.7464 L 389.4706 370.0232 L 390.4014 369.8681 L 389.0828 364.6971 L 390.828 363.9215 L 388.8501 360.8189 L 389.3542 356.9406 L 387.8417 355.1308 L 385.5148 358.6471 L 382.6061 358.4919 L 381.8304 353.2175 L 379.1932 354.7171 L 380.7445 351.5111 L 379.0769 349.1324 L 377.6419 345.3059 L 375.3538 347.2192 L 374.772 345.4093 L 373.6086 347.0123 L 371.9797 346.5469 L 372.5614 341.893 L 371.0101 342.5653 L 367.1319 341.1691 L 362.2841 341.6345 L 360.8879 344.582 L 364.8437 345.9264 L 363.9905 349.6495 L 363.021 349.029 L 359.8408 350.3218 L 358.6385 352.959 L 353.6356 353.0107 L 352.317 351.0457 L 353.7132 349.4944 L 353.3253 346.9089 L 354.5276 346.3918 L 354.9154 341.4277 L 352.4721 338.9973 L 351.0372 334.7571 L 351.1923 327.3626 L 349.4471 326.742 L 350.6494 324.4151 L 354.101 322.9155 L 355.6135 323.6394 L 358.2895 321.9847 L 361.7799 322.295 L 364.4559 324.8805 L 367.9075 324.0531 L 368.722 320.7437 L 367.7136 320.33 L 368.179 317.0723 L 371.6694 317.7445 L 373.3759 317.2274 L 374.074 314.797 L 376.4397 313.3492 L 377.1378 308.0748 L 380.3179 308.2816 L 385.2433 305.5927 L 387.1049 301.8696 L 389.5869 299.3875 L 391.72 300.1114 L 393.4264 302.2832 L 396.1799 303.2657 L 402.4239 310.8671 L 404.2467 310.5568 L 405.6041 312.3667 L 406.4961 317.8996 L 410.2967 318.727 L 410.4519 316.9171 L 414.2526 316.9171 L 414.1362 315.3141 L 409.8701 312.5735 L 410.258 310.4534 L 412.4298 309.0572 L 417.7818 308.9538 L 419.3331 311.0222 L 423.5991 310.1431 L 424.4136 313.194 L 426.4302 315.2624 L 428.6021 315.0556 L 429.4165 310.4534 L 428.253 304.1965 L 431.6271 301.6627 L 434.3806 301.9213 L 434.2255 305.7478 L 436.1646 306.5752 L 438.1038 309.2124 L 447.2176 307.1957 L 448.3423 308.385 L 450.9795 307.0406 L 453.6167 308.5919 L 453.8106 310.4534 L 457.844 312.4184 Z" fill="#000" fill-opacity="1" stroke="#000" stroke-width="0" paint-order="fill" stroke-opacity="1" stroke-dasharray="" stroke-linecap="butt" stroke-linejoin="miter" stroke-miterlimit="10" transform="matrix(1.100000023841858,0,0,1.100000023841858,-39.9999885559082,-26.649986267089844)" clip-path="none"/>
<path data-code="207" d="M 450.9795 307.0406 L 448.3423 308.385 L 447.2176 307.1957 L 438.1038 309.2124 L 436.1646 306.5752 L 434.2255 305.7478 L 434.3806 301.9213 L 431.6271 301.6627 L 428.253 304.1965 L 429.4165 310.4534 L 428.6021 315.0556 L 426.4302 315.2624 L 424.4136 313.194 L 423.5991 310.1431 L 419.3331 311.0222 L 417.7818 308.9538 L 412.4298 309.0572 L 410.258 310.4534 L 409.8701 312.5735 L 414.1362 315.3141 L 414.2526 316.9171 L 410.4519 316.9171 L 410.2967 318.727 L 406.4961 317.8996 L 405.6041 312.3667 L 404.2467 310.5568 L 402.4239 310.8671 L 396.1799 303.2657 L 393.4264 302.2832 L 391.72 300.1114 L 389.5869 299.3875 L 387.1049 301.8696 L 386.8334 297.0088 L 387.8805 296.1298 L 387.0661 293.4926 L 383.5756 293.8545 L 383.3042 295.7678 L 381.0548 294.8887 L 382.2958 292.1998 L 383.6144 285.4775 L 385.9802 284.6502 L 387.26 281.8578 L 385.5923 279.7377 L 384.4676 280.5651 L 383.8859 278.6001 L 386.7946 278.6518 L 386.2129 276.3766 L 387.1436 275.0321 L 391.7975 275.6526 L 391.9914 273.0154 L 390.285 272.3949 L 391.177 269.0855 L 389.7421 267.9479 L 391.3709 267.4825 L 392.1078 269.0855 L 393.2713 265.3106 L 388.2295 263.1905 L 387.1824 260.2431 L 383.7308 258.7435 L 382.9551 255.6409 L 383.8083 254.5033 L 387.1049 251.7109 L 390.5953 251.7626 L 392.1466 249.1772 L 393.6591 249.5908 L 397.8864 245.7643 L 398.2354 243.3856 L 399.8255 243.0754 L 402.9281 245.0404 L 406.147 244.1096 L 409.0945 240.5416 L 412.6625 240.8001 L 417.4327 242.8685 L 416.308 244.1613 L 418.3247 249.6943 L 418.1308 251.9695 L 419.3331 253.0554 L 425.9649 253.5725 L 429.9982 254.3481 L 431.7822 255.6926 L 434.7297 260.3982 L 433.7213 261.8978 L 430.7351 263.4491 L 433.7213 266.5 L 433.9928 269.8611 L 442.9128 270.068 L 444.4641 274.153 L 448.8077 273.7911 L 451.251 275.0838 L 453.8106 277.721 L 459.0851 277.4625 L 460.52 278.7552 L 462.9633 274.153 L 461.955 272.9637 L 462.4979 270.1197 L 464.6697 269.8611 L 469.9829 271.3607 L 472.2323 276.0663 L 474.1714 277.0488 L 475.8003 279.8928 L 474.598 281.5476 L 471.7669 281.2373 L 468.3153 284.1848 L 466.6864 284.0813 L 462.653 286.098 L 463.6226 287.3391 L 462.1489 289.9763 L 463.5063 292.2515 L 464.98 292.5101 L 462.6918 295.199 L 460.4424 295.2507 L 459.0851 298.767 L 456.8745 298.8704 L 455.7886 300.5251 L 453.7331 299.8012 L 451.6 303.0072 L 452.3757 304.4033 L 450.9795 307.0406 Z" fill="#000" fill-opacity="1" stroke="#000" stroke-width="0" paint-order="fill" stroke-opacity="1" stroke-dasharray="" stroke-linecap="butt" stroke-linejoin="miter" stroke-miterlimit="10" transform="matrix(1.100000023841858,0,0,1.100000023841858,-39.9999885559082,-26.649986267089844)" clip-path="none"/>
<path data-code="208" d="M 462.4979 270.1197 L 461.955 272.9637 L 462.9633 274.153 L 460.52 278.7552 L 459.0851 277.4625 L 453.8106 277.721 L 451.251 275.0838 L 448.8077 273.7911 L 444.4641 274.153 L 442.9128 270.068 L 433.9928 269.8611 L 433.7213 266.5 L 430.7351 263.4491 L 433.7213 261.8978 L 434.7297 260.3982 L 431.7822 255.6926 L 429.9982 254.3481 L 425.9649 253.5725 L 419.3331 253.0554 L 418.1308 251.9695 L 418.3247 249.6943 L 416.308 244.1613 L 417.4327 242.8685 L 412.6625 240.8001 L 409.0945 240.5416 L 407.9698 236.7151 L 405.2938 232.8885 L 405.1387 229.1654 L 407.1166 227.0453 L 406.2246 224.8218 L 407.2717 222.9602 L 404.7896 220.323 L 406.4961 220.1162 L 407.5432 218.358 L 414.1362 217.8927 L 418.0532 217.117 L 417.3552 215.3589 L 420.3414 213.3939 L 420.8844 211.4289 L 419.6821 210.3947 L 421.8151 208.2746 L 419.527 204.9135 L 418.984 201.8626 L 421.3885 200.2596 L 419.3331 198.5014 L 416.9285 195.3471 L 417.3164 193.6924 L 418.984 193.3304 L 417.3939 190.7967 L 418.1696 187.0735 L 416.2692 186.7116 L 413.5157 181.7991 L 412.3134 181.1269 L 410.8785 177.6106 L 411.0336 174.7666 L 415.067 174.2495 L 417.5103 173.267 L 419.2555 170.6815 L 425.7709 171.4054 L 426.9344 172.4913 L 432.2864 170.8366 L 435.1951 168.7165 L 435.3114 165.6139 L 437.0954 165.0968 L 437.6772 163.287 L 440.9349 164.9417 L 441.439 166.4413 L 443.6496 165.8208 L 445.9766 169.4405 L 450.3978 171.7157 L 454.5475 171.302 L 455.168 172.6465 L 458.1931 172.6465 L 459.2402 175.2837 L 458.0767 177.1969 L 457.9216 179.5756 L 459.2014 182.2128 L 458.5033 184.9017 L 457.1072 185.2637 L 455.9825 189.659 L 456.8357 191.624 L 458.7748 190.383 L 461.412 193.4339 L 460.171 195.7608 L 459.8607 201.0352 L 459.1238 204.7583 L 460.4424 206.2062 L 458.8911 209.4122 L 461.0242 212.9285 L 466.4925 219.2371 L 468.005 218.6683 L 471.2627 221.2538 L 472.814 221.5641 L 474.7144 219.961 L 481.734 224.2013 L 484.3712 224.4081 L 488.327 227.2521 L 494.028 226.8902 L 491.7011 230.6133 L 492.4767 235.0086 L 491.5072 236.9736 L 488.5985 240.283 L 485.7674 239.6625 L 481.8116 237.5941 L 479.1744 239.9211 L 476.925 239.404 L 475.2186 241.4207 L 467.8499 241.6275 L 467.4621 243.2305 L 463.2736 244.4716 L 460.9078 244.0062 L 459.5892 245.816 L 459.5117 249.0737 L 458.387 250.2631 L 459.3953 256.9854 L 457.7665 258.8469 L 459.0851 264.0179 L 458.6197 265.5175 L 461.063 269.9128 L 462.4979 270.1197 Z" fill="#000" fill-opacity="1" stroke="#000" stroke-width="0" paint-order="fill" stroke-opacity="1" stroke-dasharray="" stroke-linecap="butt" stroke-linejoin="miter" stroke-miterlimit="10" transform="matrix(1.100000023841858,0,0,1.100000023841858,-39.9999885559082,-26.649986267089844)" clip-path="none"/>
<path data-code="209" d="M 457.844 312.4184 L 453.8106 310.4534 L 453.6167 308.5919 L 450.9795 307.0406 L 452.3757 304.4033 L 451.6 303.0072 L 453.7331 299.8012 L 455.7886 300.5251 L 456.8745 298.8704 L 459.0851 298.767 L 460.4424 295.2507 L 462.6918 295.199 L 464.98 292.5101 L 463.5063 292.2515 L 462.1489 289.9763 L 463.6226 287.3391 L 462.653 286.098 L 466.6864 284.0813 L 468.3153 284.1848 L 471.7669 281.2373 L 474.598 281.5476 L 475.8003 279.8928 L 474.1714 277.0488 L 472.2323 276.0663 L 469.9829 271.3607 L 464.6697 269.8611 L 462.4979 270.1197 L 461.063 269.9128 L 458.6197 265.5175 L 459.0851 264.0179 L 457.7665 258.8469 L 459.3953 256.9854 L 458.387 250.2631 L 459.5117 249.0737 L 459.5892 245.816 L 460.9078 244.0062 L 463.2736 244.4716 L 467.4621 243.2305 L 467.8499 241.6275 L 475.2186 241.4207 L 476.925 239.404 L 479.1744 239.9211 L 481.8116 237.5941 L 485.7674 239.6625 L 488.5985 240.283 L 492.3992 242.8168 L 493.8729 246.8502 L 493.1748 247.6776 L 493.2912 252.6934 L 495.5018 252.59 L 500.7762 250.4182 L 504.6156 253.2105 L 512.9539 253.9345 L 519.8184 253.0037 L 522.1065 249.1254 L 522.7658 246.5399 L 525.7133 243.4891 L 529.4364 243.0237 L 531.8409 244.1096 L 537.4256 241.2655 L 540.3343 240.7484 L 544.135 241.7309 L 545.0657 243.0754 L 551.2321 245.2472 L 552.4344 246.2814 L 553.4815 252.8486 L 555.537 255.8477 L 555.7697 257.7093 L 554.102 265.0521 L 554.0633 267.2756 L 551.3097 275.5492 L 549.7196 277.8244 L 548.7113 281.3924 L 546.1516 281.3924 L 543.0878 279.8928 L 543.6308 276.4283 L 540.7609 276.4283 L 541.3814 272.912 L 538.5115 270.7919 L 535.2538 271.2056 L 531.4143 270.068 L 529.9018 273.1706 L 532.1512 273.6877 L 532.7717 275.4975 L 534.9823 276.2732 L 533.8964 278.5484 L 529.9794 278.7552 L 528.6608 280.5651 L 523.4251 283.3574 L 520.8655 283.5125 L 518.6161 284.8053 L 518.3834 286.822 L 516.7933 287.9596 L 508.8429 288.9421 L 505.9342 290.2348 L 506.2445 291.7861 L 503.8012 295.4575 L 501.4355 294.0097 L 498.2553 297.2674 L 496.4325 296.5952 L 494.1056 301.3525 L 488.9475 301.7661 L 488.5985 304.9722 L 485.9613 306.6269 L 482.7036 304.7653 L 480.2215 305.179 L 477.7006 307.5577 L 471.8833 307.9713 L 470.5259 310.35 L 468.1214 312.1081 L 466.0659 315.2624 L 464.3595 320.5886 L 462.4591 315.3141 L 460.5588 314.797 L 460.171 312.9872 L 457.844 312.4184 Z" fill="#000" fill-opacity="1" stroke="#000" stroke-width="0" paint-order="fill" stroke-opacity="1" stroke-dasharray="" stroke-linecap="butt" stroke-linejoin="miter" stroke-miterlimit="10" transform="matrix(1.100000023841858,0,0,1.100000023841858,-39.9999885559082,-26.649986267089844)" clip-path="none"/>
<path data-code="210" d="M 488.5985 240.283 L 491.5072 236.9736 L 492.4767 235.0086 L 491.7011 230.6133 L 494.028 226.8902 L 488.327 227.2521 L 484.3712 224.4081 L 481.734 224.2013 L 474.7144 219.961 L 472.814 221.5641 L 471.2627 221.2538 L 468.005 218.6683 L 466.4925 219.2371 L 461.0242 212.9285 L 458.8911 209.4122 L 460.4424 206.2062 L 459.1238 204.7583 L 459.8607 201.0352 L 460.171 195.7608 L 461.412 193.4339 L 458.7748 190.383 L 456.8357 191.624 L 455.9825 189.659 L 457.1072 185.2637 L 458.5033 184.9017 L 459.2014 182.2128 L 457.9216 179.5756 L 458.0767 177.1969 L 459.2402 175.2837 L 458.1931 172.6465 L 455.168 172.6465 L 454.5475 171.302 L 450.3978 171.7157 L 445.9766 169.4405 L 443.6496 165.8208 L 441.439 166.4413 L 440.9349 164.9417 L 437.6772 163.287 L 432.2864 161.322 L 429.4165 161.7874 L 427.6325 159.357 L 431.5495 159.8224 L 431.7047 158.4262 L 435.0399 159.1502 L 436.7464 157.6506 L 436.0871 154.4446 L 438.1425 152.6347 L 441.4003 152.0142 L 442.8352 153.7724 L 445.899 153.1001 L 445.1234 151.8591 L 449.7385 150.2044 L 451.4449 148.9633 L 453.035 145.8607 L 457.0296 145.0334 L 458.3482 146.4295 L 462.0325 147.8257 L 465.0188 150.3595 L 467.6948 150.0492 L 475.141 152.4796 L 475.2961 153.8758 L 479.3295 154.4963 L 482.0055 153.8241 L 483.7119 155.3236 L 488.5209 150.1527 L 491.0418 151.4971 L 492.6319 148.3945 L 496.6265 148.9633 L 499.38 146.4295 L 500.6986 142.1376 L 502.8317 141.2068 L 505.973 137.5871 L 509.192 136.9149 L 508.6878 133.7606 L 511.0923 135.5187 L 512.9539 139.9141 L 518.6161 140.0692 L 520.0123 138.8799 L 523.3088 139.397 L 523.3476 141.8791 L 521.835 144.9817 L 519.1978 146.9984 L 519.2366 148.0843 L 524.0069 148.5496 L 526.2562 145.7056 L 528.3893 144.206 L 529.1649 147.5672 L 530.2508 148.6531 L 528.3893 152.8416 L 528.9322 155.2719 L 527.6524 159.9258 L 524.8601 162.6665 L 521.4084 165.0968 L 522.1841 169.6473 L 521.0206 171.1469 L 524.1232 172.8016 L 529.7854 176.8867 L 533.5861 181.4889 L 535.6028 182.1611 L 538.8993 185.212 L 537.891 188.5214 L 538.7442 189.6073 L 535.9131 193.8992 L 536.2233 196.0711 L 538.5503 201.7592 L 541.6141 202.7934 L 542.2346 204.8618 L 541.6529 210.0327 L 544.2901 212.308 L 542.4673 217.0653 L 542.5449 220.4264 L 541.3038 223.3739 L 539.4811 225.4423 L 539.2871 227.6141 L 540.9936 229.424 L 541.6529 232.2163 L 544.135 234.3364 L 545.1821 238.0595 L 544.135 241.7309 L 540.3343 240.7484 L 537.4256 241.2655 L 531.8409 244.1096 L 529.4364 243.0237 L 525.7133 243.4891 L 522.7658 246.5399 L 522.1065 249.1254 L 519.8184 253.0037 L 512.9539 253.9345 L 504.6156 253.2105 L 500.7762 250.4182 L 495.5018 252.59 L 493.2912 252.6934 L 493.1748 247.6776 L 493.8729 246.8502 L 492.3992 242.8168 L 488.5985 240.283 Z M 501.1252 183.4021 L 500.0005 182.3679 L 497.1694 184.488 L 495.4242 184.6432 L 494.571 182.9367 L 491.9338 184.7466 L 491.5847 186.8667 L 489.9171 186.2462 L 489.5293 190.383 L 488.1719 196.2262 L 490.2661 197.3638 L 492.1277 196.1745 L 494.8037 196.1745 L 499.2249 197.8809 L 500.1944 195.9159 L 506.2057 197.8809 L 506.516 199.6908 L 508.4551 197.8809 L 509.7737 193.589 L 506.865 191.624 L 505.5852 191.7791 L 506.1669 188.8834 L 503.5297 187.6941 L 501.2804 185.2637 L 501.1252 183.4021 Z" fill="#000" fill-opacity="1" stroke="#000" stroke-width="0" paint-order="fill" stroke-opacity="1" stroke-dasharray="" stroke-linecap="butt" stroke-linejoin="miter" stroke-miterlimit="10" transform="matrix(1.100000023841858,0,0,1.100000023841858,-39.9999885559082,-26.649986267089844)" clip-path="none"/>
<path data-code="211" d="M 259.7433 308.4884 L 258.6574 305.9546 L 259.3167 302.3867 L 258.9677 299.7495 L 254.275 298.9738 L 253.1115 295.9746 L 256.3692 292.3032 L 254.0035 292.0964 L 250.9397 286.5117 L 248.5352 286.6668 L 247.4493 282.5818 L 248.574 279.9963 L 250.1641 279.324 L 250.9785 275.9112 L 248.8842 274.5667 L 249.1557 272.1364 L 244.7345 272.3432 L 244.2303 268.0513 L 246.4797 268.9303 L 248.7679 266.6034 L 254.5853 262.7252 L 254.275 260.9153 L 252.491 262.0012 L 251.5602 260.4499 L 252.0644 258.1747 L 255.167 253.6242 L 256.408 252.6934 L 257.4164 249.9528 L 257.3 243.2305 L 253.9647 238.3181 L 254.5465 235.6809 L 251.6378 233.509 L 252.1807 231.9578 L 249.5048 230.6133 L 250.4743 228.1829 L 249.3496 226.4765 L 254.7404 224.2013 L 257.1061 225.0286 L 255.1282 222.4948 L 256.2917 221.926 L 259.4718 224.0461 L 264.6299 226.2179 L 264.5911 224.4598 L 266.6854 225.1838 L 273.0457 222.8568 L 276.9239 222.4431 L 279.2897 219.7542 L 278.3201 217.4273 L 274.9848 215.4106 L 278.2038 211.584 L 280.3756 211.4289 L 282.3147 208.9468 L 284.4477 207.8092 L 287.2013 204.8618 L 290.4202 203.7241 L 296.3927 203.4656 L 300.3097 201.2938 L 303.645 198.398 L 305.2351 198.3463 L 306.6701 196.0711 L 307.0191 192.7616 L 309.3461 193.589 L 310.0054 196.2779 L 314.0775 199.1737 L 316.6372 198.5014 L 318.7702 202.1211 L 316.133 207.7575 L 317.6455 209.3605 L 319.9724 209.7742 L 318.9641 212.5148 L 315.6288 214.2212 L 316.2493 216.0828 L 318.1109 217.117 L 319.9337 215.6691 L 325.2469 214.8935 L 328.1555 212.2563 L 332.344 213.6007 L 335.912 209.4122 L 334.8261 208.5332 L 334.8649 203.1036 L 333.8953 199.6391 L 330.8315 197.8292 L 329.8232 194.8817 L 331.995 195.5023 L 334.671 194.83 L 336.3774 192.0377 L 340.8374 191.2103 L 343.1643 193.6407 L 343.1643 197.6741 L 347.1202 198.76 L 351.5801 197.7258 L 352.8987 194.83 L 355.6523 192.9685 L 357.2812 194.1578 L 356.5055 195.554 L 357.0872 197.8809 L 355.2257 201.1386 L 353.3641 201.5006 L 352.1619 205.6891 L 354.993 207.2404 L 354.2173 209.4639 L 352.2007 209.8259 L 352.4333 212.8251 L 357.0485 213.0836 L 358.7937 216.1862 L 359.0264 219.2371 L 358.0956 221.047 L 361.935 221.8743 L 360.8491 224.5632 L 363.4863 225.5457 L 363.021 228.2346 L 367.4809 227.6658 L 366.7829 233.0437 L 365.1928 235.2155 L 364.5723 239.7142 L 366.8216 239.6625 L 363.1761 241.8861 L 363.913 242.7134 L 361.8575 246.7985 L 359.4142 248.4015 L 359.0651 249.9528 L 355.4584 250.7285 L 354.6827 248.5566 L 352.3946 247.057 L 348.6715 248.5566 L 349.5247 253.4691 L 341.0701 254.8135 L 337.3082 259.4674 L 338.1226 261.329 L 342.0009 259.8811 L 343.0092 265.3106 L 339.7903 269.8094 L 335.2527 269.3957 L 335.8345 273.4291 L 332.2277 279.0655 L 329.3966 281.9612 L 327.2248 280.8753 L 321.6013 285.9429 L 322.7648 288.3216 L 321.2523 291.4242 L 318.5763 290.9588 L 316.1718 286.3566 L 315.9003 282.8403 L 314.9307 283.1506 L 311.7118 280.2548 L 312.2935 278.083 L 310.3156 277.4625 L 308.7643 278.5484 L 308.9582 282.6852 L 305.7781 283.9779 L 306.5149 285.5809 L 302.9857 288.063 L 295.6559 289.4075 L 294.9966 292.7169 L 291.894 293.8545 L 288.9853 292.8203 L 287.434 294.6302 L 283.866 295.0956 L 279.9102 296.8537 L 277.9711 298.5601 L 277.9323 301.0422 L 275.6441 300.37 L 273.5111 301.1456 L 274.4031 307.4542 L 271.7271 308.0748 L 269.9043 306.8854 L 268.353 307.4025 L 267.2671 305.9029 L 262.7296 307.6611 L 260.7904 305.2307 L 261.6049 308.0748 L 259.7433 308.4884 Z" fill="#000" fill-opacity="1" stroke="#000" stroke-width="0" paint-order="fill" stroke-opacity="1" stroke-dasharray="" stroke-linecap="butt" stroke-linejoin="miter" stroke-miterlimit="10" transform="matrix(1.100000023841858,0,0,1.100000023841858,-39.9999885559082,-26.649986267089844)" clip-path="none"/>
<path data-code="212" d="M 369.8079 462.4289 L 367.7912 461.8083 L 366.1623 459.1711 L 362.3617 457.2579 L 359.4142 456.8959 L 355.9626 454.4655 L 354.1398 452.1386 L 350.4167 449.3463 L 350.4167 450.8976 L 353.5968 453.2245 L 355.1869 457.3096 L 348.2448 456.8442 L 344.1727 458.2404 L 341.7294 456.5856 L 340.2944 454.4138 L 337.3082 455.7583 L 337.5021 452.8108 L 335.2527 450.5356 L 333.43 451.9318 L 333.236 450.1219 L 328.1943 451.6732 L 325.8286 454.7241 L 325.402 456.9993 L 327.8065 458.4472 L 331.8399 457.3096 L 331.452 461.343 L 330.0947 459.5331 L 327.3799 461.4981 L 323.8895 461.6015 L 321.5625 459.5848 L 317.5292 459.4814 L 314.1163 462.0152 L 307.6784 462.1703 L 307.213 460.6707 L 304.3819 460.1536 L 302.3652 462.222 L 299.2626 462.7908 L 297.595 461.6015 L 298.5258 459.8434 L 295.811 460.4122 L 296.0049 459.1194 L 293.6392 455.6032 L 294.3373 452.2937 L 294.027 449.4497 L 295.4619 446.4505 L 295.4232 444.2787 L 297.9052 437.5564 L 296.4315 434.7123 L 296.3927 432.4371 L 298.0604 427.8866 L 300.4649 424.7323 L 301.5508 420.7507 L 303.4123 418.4237 L 303.0245 415.6314 L 304.5758 410.6155 L 305.972 409.5296 L 306.0496 404.3069 L 307.6396 401.9283 L 311.1688 399.1359 L 312.022 396.7056 L 316.8699 393.3961 L 318.6538 388.8974 L 320.593 386.0016 L 323.6568 383.2093 L 326.4103 377.8314 L 327.6902 371.2126 L 331.0642 367.6963 L 330.3661 366.7138 L 331.8011 363.4044 L 331.7623 359.7847 L 330.7152 358.4919 L 328.9312 353.5278 L 329.2415 352.1833 L 332.1114 352.597 L 334.4383 355.2342 L 336.2611 354.1483 L 335.7957 350.632 L 338.239 350.0632 L 339.7903 354.562 L 345.8016 356.6304 L 344.3278 357.8197 L 342.9317 362.1633 L 344.0951 362.577 L 347.7019 359.4744 L 348.1673 356.8372 L 354.0622 356.2684 L 352.5497 353.0624 L 353.6356 353.0107 L 358.6385 352.959 L 359.8408 350.3218 L 363.021 349.029 L 363.9905 349.6495 L 364.8437 345.9264 L 360.8879 344.582 L 362.2841 341.6345 L 367.1319 341.1691 L 371.0101 342.5653 L 372.5614 341.893 L 371.9797 346.5469 L 373.6086 347.0123 L 374.772 345.4093 L 375.3538 347.2192 L 377.6419 345.3059 L 379.0769 349.1324 L 380.7445 351.5111 L 379.1932 354.7171 L 381.8304 353.2175 L 382.6061 358.4919 L 385.5148 358.6471 L 387.8417 355.1308 L 389.3542 356.9406 L 388.8501 360.8189 L 390.828 363.9215 L 389.0828 364.6971 L 390.4014 369.8681 L 389.4706 370.0232 L 389.936 373.7464 L 394.0857 378.0383 L 394.4347 382.2268 L 397.2659 383.1576 L 400.989 388.2768 L 400.989 394.1201 L 400.0194 397.7915 L 402.2688 401.4629 L 400.0194 402.9107 L 399.7479 401.3077 L 397.8476 403.3761 L 395.2104 401.256 L 394.2408 402.4454 L 395.7533 406.4787 L 395.7921 410.6672 L 389.9748 414.2352 L 389.2767 413.0459 L 386.9109 413.8215 L 383.7308 418.7857 L 386.368 423.0259 L 388.3071 431.6098 L 389.2767 433.8333 L 389.044 437.8149 L 387.4539 441.9 L 388.2683 443.1411 L 387.8417 446.4505 L 388.9664 449.8116 L 387.1436 451.4147 L 388.3847 452.5006 L 388.9664 456.8442 L 386.9497 458.9126 L 386.2904 457.3613 L 382.451 458.3955 L 379.232 457.5164 L 373.7249 461.2912 L 369.8079 462.4289 Z" fill="#000" fill-opacity="1" stroke="#000" stroke-width="0" paint-order="fill" stroke-opacity="1" stroke-dasharray="" stroke-linecap="butt" stroke-linejoin="miter" stroke-miterlimit="10" transform="matrix(1.100000023841858,0,0,1.100000023841858,-39.9999885559082,-26.649986267089844)" clip-path="none"/>
<path data-code="213" d="M 353.6356 353.0107 L 352.5497 353.0624 L 354.0622 356.2684 L 348.1673 356.8372 L 347.7019 359.4744 L 344.0951 362.577 L 342.9317 362.1633 L 344.3278 357.8197 L 345.8016 356.6304 L 339.7903 354.562 L 338.239 350.0632 L 335.7957 350.632 L 336.2611 354.1483 L 334.4383 355.2342 L 332.1114 352.597 L 329.2415 352.1833 L 327.4187 347.4777 L 328.1168 344.9956 L 331.5296 342.5136 L 329.7844 341.9448 L 327.0309 335.0673 L 326.9921 331.2925 L 323.3853 326.8972 L 321.5237 326.3801 L 317.1025 327.7762 L 312.4874 330.0515 L 311.0913 330.0515 L 310.1605 327.9314 L 307.5233 325.501 L 310.0829 323.6911 L 310.5483 322.1916 L 312.8753 322.657 L 312.0996 320.1232 L 313.0692 317.6928 L 315.5512 316.2449 L 316.5596 316.9171 L 317.4516 314.3834 L 320.1276 313.6594 L 317.7618 308.4367 L 315.4349 307.0406 L 316.8699 303.8345 L 316.482 300.2148 L 317.8006 298.9738 L 320.05 300.0597 L 322.1055 296.8537 L 320.7481 293.4926 L 321.2523 291.4242 L 322.7648 288.3216 L 321.6013 285.9429 L 327.2248 280.8753 L 329.3966 281.9612 L 332.2277 279.0655 L 335.8345 273.4291 L 335.2527 269.3957 L 339.7903 269.8094 L 343.0092 265.3106 L 342.0009 259.8811 L 338.1226 261.329 L 337.3082 259.4674 L 341.0701 254.8135 L 349.5247 253.4691 L 348.6715 248.5566 L 352.3946 247.057 L 354.6827 248.5566 L 355.4584 250.7285 L 359.0651 249.9528 L 359.4142 248.4015 L 361.8575 246.7985 L 363.913 242.7134 L 363.1761 241.8861 L 366.8216 239.6625 L 368.6444 240.5933 L 372.9493 240.8001 L 375.0435 244.0062 L 373.6086 244.0062 L 371.9797 247.2639 L 373.3759 249.6425 L 373.1044 253.3657 L 371.398 253.4174 L 370.9326 256.52 L 374.772 258.0713 L 375.7416 259.364 L 377.448 258.4332 L 375.8579 255.3823 L 382.2958 252.5383 L 383.8083 254.5033 L 382.9551 255.6409 L 383.7308 258.7435 L 387.1824 260.2431 L 388.2295 263.1905 L 393.2713 265.3106 L 392.1078 269.0855 L 391.3709 267.4825 L 389.7421 267.9479 L 391.177 269.0855 L 390.285 272.3949 L 391.9914 273.0154 L 391.7975 275.6526 L 387.1436 275.0321 L 386.2129 276.3766 L 386.7946 278.6518 L 383.8859 278.6001 L 384.4676 280.5651 L 385.5923 279.7377 L 387.26 281.8578 L 385.9802 284.6502 L 383.6144 285.4775 L 382.2958 292.1998 L 381.0548 294.8887 L 383.3042 295.7678 L 383.5756 293.8545 L 387.0661 293.4926 L 387.8805 296.1298 L 386.8334 297.0088 L 387.1049 301.8696 L 385.2433 305.5927 L 380.3179 308.2816 L 377.1378 308.0748 L 376.4397 313.3492 L 374.074 314.797 L 373.3759 317.2274 L 371.6694 317.7445 L 368.179 317.0723 L 367.7136 320.33 L 368.722 320.7437 L 367.9075 324.0531 L 364.4559 324.8805 L 361.7799 322.295 L 358.2895 321.9847 L 355.6135 323.6394 L 354.101 322.9155 L 350.6494 324.4151 L 349.4471 326.742 L 351.1923 327.3626 L 351.0372 334.7571 L 352.4721 338.9973 L 354.9154 341.4277 L 354.5276 346.3918 L 353.3253 346.9089 L 353.7132 349.4944 L 352.317 351.0457 L 353.6356 353.0107 Z" fill="#000" fill-opacity="1" stroke="#000" stroke-width="0" paint-order="fill" stroke-opacity="1" stroke-dasharray="" stroke-linecap="butt" stroke-linejoin="miter" stroke-miterlimit="10" transform="matrix(1.100000023841858,0,0,1.100000023841858,-39.9999885559082,-26.649986267089844)" clip-path="none"/>
<path data-code="214" d="M 396.878 142.1893 L 392.3017 143.7406 L 388.9664 141.1551 L 385.825 143.1201 L 381.6753 142.0859 L 378.8442 137.9491 L 378.7278 135.7773 L 380.5118 135.3119 L 377.991 134.3811 L 378.9218 131.3302 L 380.8221 133.0884 L 384.041 130.4512 L 386.1741 130.1409 L 388.4622 128.5379 L 389.393 126.4178 L 392.6507 126.3144 L 391.6812 128.3828 L 393.5427 131.1751 L 393.1161 133.864 L 391.9139 134.4328 L 392.3405 137.1218 L 396.4126 140.9483 L 396.878 142.1893 Z" fill="#000" fill-opacity="1" stroke="#000" stroke-width="0" paint-order="fill" stroke-opacity="1" stroke-dasharray="" stroke-linecap="butt" stroke-linejoin="miter" stroke-miterlimit="10" transform="matrix(1.100000023841858,0,0,1.100000023841858,-39.9999885559082,-26.649986267089844)" clip-path="none"/>
<path data-code="215" d="M 329.2415 352.1833 L 328.9312 353.5278 L 330.7152 358.4919 L 331.7623 359.7847 L 331.8011 363.4044 L 330.3661 366.7138 L 331.0642 367.6963 L 327.6902 371.2126 L 326.4103 377.8314 L 323.6568 383.2093 L 320.593 385.9499 L 316.7147 384.7089 L 311.2076 381.4511 L 308.5316 381.5028 L 305.5842 380.5204 L 301.1242 381.0375 L 299.7668 379.5379 L 296.703 378.2451 L 295.0353 375.7113 L 295.268 374.4703 L 291.5837 373.4878 L 288.9465 371.2643 L 289.8385 368.7305 L 292.5533 364.18 L 292.5533 362.3702 L 289.6058 361.4394 L 287.8218 357.9748 L 290.11 355.9064 L 288.8689 350.7871 L 287.1625 351.5111 L 284.215 349.2876 L 282.082 349.0807 L 279.5999 347.5294 L 277.3893 347.5294 L 274.597 349.1841 L 269.3226 351.356 L 265.4831 352.2867 L 261.4497 351.8731 L 256.4856 352.0282 L 256.6795 349.8047 L 259.2391 345.9264 L 259.3555 344.2717 L 262.0315 342.7204 L 262.5744 337.6011 L 259.627 336.8772 L 253.1891 331.9647 L 251.6766 328.1382 L 251.25 328.8621 L 249.3108 322.9155 L 250.6294 316.6069 L 252.1032 315.7795 L 251.599 313.9697 L 255.3997 311.8496 L 257.1837 309.109 L 259.7433 308.4884 L 261.6049 308.0748 L 260.7904 305.2307 L 262.7296 307.6611 L 267.2671 305.9029 L 268.353 307.4025 L 269.9043 306.8854 L 271.7271 308.0748 L 274.4031 307.4542 L 273.5111 301.1456 L 275.6441 300.37 L 277.9323 301.0422 L 277.9711 298.5601 L 279.9102 296.8537 L 283.866 295.0956 L 287.434 294.6302 L 288.9853 292.8203 L 291.894 293.8545 L 294.9966 292.7169 L 295.6559 289.4075 L 302.9857 288.063 L 306.5149 285.5809 L 305.7781 283.9779 L 308.9582 282.6852 L 308.7643 278.5484 L 310.3156 277.4625 L 312.2935 278.083 L 311.7118 280.2548 L 314.9307 283.1506 L 315.9003 282.8403 L 316.1718 286.3566 L 318.5763 290.9588 L 321.2523 291.4242 L 320.7481 293.4926 L 322.1055 296.8537 L 320.05 300.0597 L 317.8006 298.9738 L 316.482 300.2148 L 316.8699 303.8345 L 315.4349 307.0406 L 317.7618 308.4367 L 320.1276 313.6594 L 317.4516 314.3834 L 316.5596 316.9171 L 315.5512 316.2449 L 313.0692 317.6928 L 312.0996 320.1232 L 312.8753 322.657 L 310.5483 322.1916 L 310.0829 323.6911 L 307.5233 325.501 L 310.1605 327.9314 L 311.0913 330.0515 L 312.4874 330.0515 L 317.1025 327.7762 L 321.5237 326.3801 L 323.3853 326.8972 L 326.9921 331.2925 L 327.0309 335.0673 L 329.7844 341.9448 L 331.5296 342.5136 L 328.1168 344.9956 L 327.4187 347.4777 L 329.2415 352.1833 Z" fill="#000" fill-opacity="1" stroke="#000" stroke-width="0" paint-order="fill" stroke-opacity="1" stroke-dasharray="" stroke-linecap="butt" stroke-linejoin="miter" stroke-miterlimit="10" transform="matrix(1.100000023841858,0,0,1.100000023841858,-39.9999885559082,-26.649986267089844)" clip-path="none"/>
















<path fill="rgba(255,255,255,0)" fill-opacity="0" stroke="#ccc" stroke-width="0" paint-order="fill" stroke-opacity="1" stroke-dasharray="" stroke-linecap="butt" stroke-linejoin="miter" stroke-miterlimit="10" transform="matrix(1,0,0,1,15,10)" clip-path="none"/><defs/>
</svg>