<?xml version="1.0" standalone="no"?>
<!-- Generator: Paintmaps.com , Online SVG vector map maker -->
<svg xmlns="http://www.w3.org/2000/svg" version="1.1" baseProfile="full"   style="background-color:false" width="800" height="500" viewBox="0 0 800 533">
<path data-code="200" d="M 497.2353 324.6395 L 494.6951 326.3345 L 491.4752 329.1144 L 487.6692 332.9429 L 484.8708 336.1802 L 483.1638 338.8105 L 481.1203 343.4161 L 478.5583 347.5961 L 477.0148 350.4442 L 469.9409 352.7927 L 465.8103 354.9945 L 463.9661 355.6583 L 461.9596 355.9778 L 459.9226 355.9923 L 457.9085 355.6961 L 456.9303 355.4056 L 455.2082 354.5995 L 451.9762 352.7157 L 449.2857 351.4551 L 447.4992 350.4224 L 445.8043 349.1312 L 441.726 345.6121 L 440.0288 344.3485 L 438.2566 343.3522 L 435.5573 342.0697 L 433.8416 340.9455 L 432.2153 339.6195 L 428.3788 335.8825 L 424.9018 331.8144 L 423.2483 329.1666 L 422.0827 326.3548 L 421.1557 324.487 L 419.2745 321.8596 L 417.048 319.4893 L 415.389 318.1154 L 414.4892 317.5272 L 412.5448 316.6761 L 410.5144 316.2491 L 408.4338 316.0704 L 405.2662 316.069 L 402.0854 316.3115 L 399.9809 316.6572 L 395.1303 318.1372 L 397.2348 308.7431 L 397.6008 307.7555 L 398.543 306.0155 L 399.6912 304.4062 L 402.7848 300.5487 L 403.8969 298.9452 L 404.8207 297.198 L 406.0712 294.4225 L 407.7781 291.859 L 410.5493 288.6826 L 418.0022 281.0082 L 420.7276 277.7998 L 421.8376 276.0584 L 423.4672 272.349 L 425.5478 268.1821 L 426.0085 266.2838 L 425.9726 264.2781 L 425.4573 262.4234 L 423.7962 259.1322 L 423.099 257.2848 L 422.6688 255.2267 L 422.4444 253.0946 L 422.4139 249.8558 L 422.6426 247.7164 L 423.209 245.6351 L 424.1513 243.8429 L 425.3506 242.2365 L 427.4322 240.0754 L 428.9638 238.8045 L 430.6141 237.7414 L 432.4659 236.989 L 437.4113 236.0697 L 439.3393 235.5454 L 441.0408 234.748 L 445.7498 231.9856 L 447.167 230.9122 L 447.7378 230.2282 L 449.6724 227.0663 L 450.8913 225.4498 L 457.3443 218.3055 L 458.7037 216.6628 L 459.9009 214.9257 L 460.8082 213.0478 L 462.3431 208.4277 L 462.8452 206.5876 L 463.2199 204.6123 L 469.2013 208.6892 L 473.7382 210.7733 L 478.6422 213.652 L 482.2554 215.2264 L 486.3958 217.4602 L 489.2388 218.3592 L 496.4107 219.1377 L 498.4205 219.5037 L 500.2832 220.1282 L 504.5467 222.0701 L 511.2644 223.5762 L 512.1848 223.9553 L 513.7556 224.9966 L 515.0268 226.3779 L 515.5235 227.1839 L 516.1313 229.0561 L 516.127 231.0342 L 515.6118 232.8439 L 513.9658 236.0406 L 513.2948 237.8794 L 512.9539 239.9055 L 513.0345 242.9932 L 513.5497 245.0266 L 514.5726 247.0004 L 516.6368 249.6249 L 521.2804 254.5427 L 522.714 256.2638 L 523.9427 258.1257 L 524.4329 259.1366 L 525.0984 261.411 L 525.4165 263.7755 L 525.5646 267.4065 L 525.2575 300.8058 L 525.2988 304.4861 L 525.5352 308.1026 L 525.9328 310.438 L 526.6027 312.4757 L 528.6582 316.7966 L 530.3314 321.6185 L 532.01 325.0578 L 509.0095 325.206 L 502.8093 325.0404 L 497.2353 324.6395 Z" fill="#000000" fill-opacity="1" stroke="#000000" stroke-width="0" paint-order="fill" stroke-opacity="1" stroke-dasharray="" stroke-linecap="butt" stroke-linejoin="miter" stroke-miterlimit="10" clip-path="none"/>
<path data-code="201" d="M 463.2199 204.6123 L 461.8943 203.0626 L 460.5991 202.0096 L 456.389 199.8252 L 452.3411 197.3954 L 449.6092 196.1913 L 447.8761 195.2589 L 446.2879 194.1246 L 440.9537 189.7572 L 439.3611 188.7376 L 435.8765 187.0049 L 434.371 185.8677 L 433.0693 184.4647 L 432.0389 182.8264 L 431.3297 180.8947 L 430.3483 177.0313 L 429.2666 173.6705 L 431.8068 171.0431 L 433.7621 169.3961 L 434.8765 168.0701 L 438.4613 161.6069 L 440.4929 157.1757 L 441.592 155.6158 L 442.958 154.2753 L 444.5767 153.2266 L 445.642 152.7953 L 447.8718 152.2985 L 451.351 152.0516 L 456.1156 152.0415 L 465.7318 152.1693 L 470.4322 152.4888 L 472.6924 152.926 L 474.6532 153.6493 L 478.7685 155.9179 L 482.3686 157.5635 L 486.4764 159.8394 L 488.3881 160.5496 L 490.5394 160.9722 L 493.876 161.2366 L 504.1458 161.1988 L 505.0445 163.5865 L 506.1066 164.9271 L 512.1184 168.911 L 516.603 170.9328 L 521.58 173.7097 L 525.2466 175.2856 L 530.1702 178.1279 L 533.7736 179.833 L 535.5273 180.9935 L 540.4618 185.1386 L 543.0554 186.9556 L 546.6577 188.6621 L 551.5759 191.5088 L 555.224 193.0963 L 560.153 195.9299 L 563.7902 197.5638 L 568.6833 200.4875 L 572.2823 202.1113 L 576.3225 204.2143 L 578.1471 204.6849 L 580.0773 204.6748 L 581.8779 204.1998 L 585.1077 202.6254 L 586.9475 201.9472 L 589.0422 201.5216 L 592.3264 201.2239 L 618.2941 201.0975 L 623.8561 201.2834 L 627.0684 201.8164 L 628.967 202.5281 L 633.0661 204.8258 L 636.6727 206.4539 L 639.946 208.3072 L 641.6671 209.1176 L 644.6442 209.8467 L 649.7998 210.3391 L 663.9966 210.1662 L 667.5455 209.9048 L 669.8352 209.472 L 671.9877 208.6717 L 683.4961 202.7155 L 684.5483 202.2638 L 686.7912 201.6654 L 691.5122 201.2384 L 702.4378 201.2544 L 707.2852 201.1106 L 710.8679 200.6923 L 713.992 199.9661 L 716.1357 198.887 L 719.9994 200.6051 L 719.5942 201.0046 L 717.3089 204.1911 L 716.7087 207.5578 L 716.8524 208.4597 L 718.6171 219.5197 L 718.0387 225.6778 L 716.8688 228.3197 L 714.0072 234.7829 L 710.2481 240.5924 L 702.9835 251.8194 L 702.7853 252.1259 L 702.5663 257.9543 L 704.7558 266.1836 L 705.758 268.5641 L 707.3865 272.4333 L 707.6937 274.6293 L 707.5989 276.4549 L 706.941 277.7272 L 705.3157 280.2646 L 701.9781 285.4757 L 701.781 287.6442 L 702.4531 290.0668 L 703.7711 294.8175 L 703.9399 296.7332 L 704.1948 299.6366 L 701.562 306.4686 L 699.208 309.5637 L 691.3836 310.7939 L 684.6311 314.175 L 679.1563 317.973 L 679.0354 318.0573 L 678.9286 318.0921 L 676.9538 318.7428 L 672.4321 320.2301 L 671.4234 320.8793 L 667.8124 323.2075 L 664.392 324.1573 L 662.0064 322.9823 L 659.2266 319.6084 L 656.3127 317.1844 L 652.6821 315.5969 L 651.4076 314.6819 L 648.9469 312.9187 L 645.1932 310.2289 L 642.2837 309.3778 L 633.2763 310.7343 L 629.5041 311.9456 L 628.1348 312.3842 L 626.7993 313.796 L 623.3201 315.9687 L 622.3855 321.2395 L 621.5903 321.9831 L 618.8203 321.7507 L 617.6765 320.994 L 619.5163 316.3115 L 619.8921 315.3544 L 619.2386 313.2281 L 616.1003 313.5883 L 610.6495 311.9659 L 609.3674 311.584 L 604.093 310.7895 L 599.8709 310.9217 L 598.1672 311.2702 L 597.7468 312.9928 L 598.03 315.3064 L 598.2304 316.9404 L 597.5747 318.3027 L 592.297 321.0841 L 591.7349 322.2765 L 591.7273 325.938 L 592.4354 328.2386 L 591.1827 327.0287 L 587.6022 323.9482 L 581.4738 326.2619 L 577.4652 328.2981 L 575.3465 329.0664 L 572.01 329.6227 L 567.4012 329.8536 L 559.2456 329.7839 L 554.6815 329.4092 L 551.4397 328.6423 L 546.3462 326.3025 L 544.2297 325.7361 L 539.7527 325.2612 L 532.01 325.0578 L 530.3314 321.6185 L 528.6582 316.7966 L 526.6027 312.4757 L 525.9328 310.438 L 525.5352 308.1026 L 525.2988 304.4861 L 525.2575 300.8058 L 525.5646 267.4065 L 525.4165 263.7755 L 525.0984 261.411 L 524.4329 259.1366 L 523.9427 258.1257 L 522.714 256.2638 L 521.2804 254.5427 L 516.6368 249.6249 L 514.5726 247.0004 L 513.5497 245.0266 L 513.0345 242.9932 L 512.9539 239.9055 L 513.2948 237.8794 L 513.9658 236.0406 L 515.6118 232.8439 L 516.127 231.0342 L 516.1313 229.0561 L 515.5235 227.1839 L 515.0268 226.3779 L 513.7556 224.9966 L 512.1848 223.9553 L 511.2644 223.5762 L 504.5467 222.0701 L 500.2832 220.1282 L 498.4205 219.5037 L 496.4107 219.1377 L 489.2388 218.3592 L 486.3958 217.4602 L 482.2554 215.2264 L 478.6422 213.652 L 473.7382 210.7733 L 469.2013 208.6892 L 463.2199 204.6123 Z" fill="#000000" fill-opacity="1" stroke="#000000" stroke-width="0" paint-order="fill" stroke-opacity="1" stroke-dasharray="" stroke-linecap="butt" stroke-linejoin="miter" stroke-miterlimit="10" clip-path="none"/>
<path data-code="202" d="M 152.1718 200.0285 L 152.4016 196.3206 L 152.4288 193.0367 L 152.1609 189.8168 L 151.6783 187.7529 L 147.551 178.9151 L 146.4475 177.3364 L 144.3724 175.3495 L 142.7134 174.3328 L 140.0577 173.1157 L 136.7724 171.3365 L 135.0208 170.5653 L 134.0372 170.2763 L 130.9719 169.8289 L 122.5887 169.505 L 120.5419 169.2364 L 118.5703 168.7106 L 116.8438 167.9132 L 113.5595 166.0832 L 109.9278 164.4856 L 104.9389 161.819 L 103.0184 161.2409 L 99.0632 160.4537 L 97.1253 159.8975 L 95.3988 159.1088 L 92.107 157.3282 L 89.448 156.1227 L 88.5776 155.6449 L 87.057 154.5047 L 85.1616 152.3378 L 84.2139 150.5963 L 80.5855 141.8486 L 80.1574 139.7557 L 79.9994 137.7122 L 80.2042 135.6686 L 80.4951 134.6665 L 80.9068 133.7704 L 82.0419 132.1989 L 83.5102 130.9426 L 84.3588 130.4575 L 86.411 129.7937 L 89.6452 129.4582 L 94.1004 129.4597 L 99.6993 129.7313 L 101.8899 129.9883 L 104.0064 130.44 L 105.8822 131.1619 L 110.0466 133.3071 L 111.9997 133.8648 L 114.0388 134.164 L 117.1542 134.2685 L 119.225 134.1247 L 121.2521 133.7486 L 123.1192 133.0587 L 127.228 130.7392 L 130.8183 129.0065 L 132.5677 127.8243 L 137.4837 123.6414 L 139.1885 122.3763 L 140.9782 121.38 L 144.5282 119.7141 L 148.613 117.3118 L 152.2284 115.6401 L 154.8318 113.8406 L 158.9363 110.3578 L 160.6487 109.0971 L 162.4482 108.1037 L 165.9906 106.4828 L 168.8532 104.8227 L 172.547 106.9156 L 176.8585 110.1632 L 178.6395 111.3135 L 182.2287 113.0331 L 186.3615 115.2785 L 189.4061 116.2313 L 192.7927 116.6234 L 203.2619 116.728 L 206.7335 116.5929 L 210.1234 116.2022 L 212.2823 115.6416 L 216.5262 113.6271 L 218.3138 112.9343 L 224.0424 111.3803 L 225.5543 110.6802 L 227.6741 109.2351 L 233.3188 108.291 L 241.0604 107.6244 L 244.0494 107.1189 L 245.7422 106.4552 L 248.2356 104.6891 L 249.9414 104.021 L 257.2408 102.862 L 259.3551 102.2781 L 273.0781 95.5013 L 276.4516 94.7489 L 283.1497 94.4294 L 285.0516 96.4845 L 286.4165 97.7147 L 290.5111 100.1692 L 292.9697 102.1648 L 295.2289 104.4887 L 297.121 107.1436 L 297.6003 108.1371 L 298.2386 110.336 L 298.6122 113.7666 L 298.548 119.5848 L 298.3236 121.8811 L 297.8922 124.1178 L 297.182 126.1061 L 294.9457 130.3601 L 293.3662 134.1044 L 291.0002 138.3076 L 288.9807 142.9161 L 286.1888 147.9835 L 284.6377 151.7452 L 282.8806 155.1554 L 282.1127 156.9418 L 281.4275 160.0108 L 280.7816 166.3534 L 280.4003 168.4099 L 279.774 170.3039 L 277.8481 174.6872 L 277.3503 176.86 L 277.0507 180.2673 L 276.749 188.2816 L 276.3263 190.4762 L 275.4996 192.4049 L 274.3471 193.9604 L 272.943 195.2516 L 272.1609 195.7861 L 267.8255 197.8558 L 263.6818 200.136 L 259.927 201.5986 L 252.9773 204.8912 L 248.558 205.2107 L 242.6464 205.3501 L 236.7675 205.2644 L 233.3188 204.9667 L 230.0357 204.2042 L 224.9378 201.8789 L 222.6982 201.2979 L 217.9597 200.8579 L 208.2214 200.778 L 203.434 200.4773 L 200.0321 199.7061 L 195.9821 197.7802 L 193.834 196.9974 L 191.5324 196.5486 L 189.1631 196.3264 L 184.3659 196.322 L 180.8322 196.7287 L 178.5904 197.3329 L 173.4947 199.7032 L 171.2758 200.3001 L 168.9545 200.6226 L 165.3827 200.8143 L 160.5485 200.7896 L 156.9124 200.6008 L 152.1718 200.0285 Z" fill="#000000" fill-opacity="1" stroke="#000000" stroke-width="0" paint-order="fill" stroke-opacity="1" stroke-dasharray="" stroke-linecap="butt" stroke-linejoin="miter" stroke-miterlimit="10" clip-path="none"/>
<path data-code="203" d="M 330.3957 342.2643 L 327.6975 338.4765 L 325.813 336.1265 L 323.7444 333.9218 L 321.5386 331.9 L 319.1596 330.2196 L 316.4767 328.9197 L 314.7926 327.9612 L 313.2502 326.805 L 309.5455 323.5851 L 307.9943 322.3927 L 306.295 321.4239 L 304.3169 320.7994 L 302.2646 320.4988 L 299.1416 320.4261 L 296.0491 320.7631 L 294.0677 321.3208 L 292.3455 322.1617 L 289.0852 324.0528 L 284.6246 326.1108 L 279.1335 329.6358 L 277.4069 324.6599 L 275.8906 317.5373 L 275.2294 315.671 L 273.2752 311.2993 L 272.7436 309.0757 L 272.406 305.5754 L 272.3068 293.5365 L 271.9724 288.809 L 271.2143 285.5164 L 269.6816 282.2093 L 269.0564 280.5042 L 268.8374 278.5406 L 268.9322 277.5442 L 269.1827 276.561 L 270.0574 274.8805 L 270.6413 274.15 L 272.0171 272.8966 L 273.6565 271.9365 L 276.3154 270.8342 L 280.4569 268.6745 L 284.8435 266.6774 L 285.6322 266.1575 L 287.057 264.8881 L 288.2334 263.3485 L 288.7007 262.4771 L 289.3696 260.3798 L 289.7726 257.0611 L 289.8826 245.516 L 289.5907 239.9142 L 289.1506 237.8038 L 288.7792 236.7973 L 287.7661 235.098 L 286.4655 233.6776 L 284.9557 232.5447 L 281.4733 230.8483 L 279.7358 229.7503 L 273.0203 224.4651 L 267.7362 221.6663 L 265.4192 219.8479 L 261.7734 216.3636 L 264.9781 213.2177 L 267.6229 211.2294 L 269.6707 210.3275 L 271.8896 209.8525 L 274.1695 209.6419 L 277.652 209.5664 L 304.7907 209.687 L 309.4583 209.8482 L 311.7393 210.0893 L 313.9419 210.541 L 315.8503 211.2555 L 320.0201 213.2802 L 321.9743 213.7348 L 323.9917 213.8466 L 326.0015 213.6317 L 327.9219 213.0304 L 329.6735 211.9803 L 333.3477 208.7705 L 334.8117 207.7306 L 335.6374 207.3835 L 336.5752 207.2455 L 337.4652 207.3675 L 338.2833 207.6957 L 339.0131 208.1823 L 340.1928 209.5243 L 340.9324 211.3078 L 341.1633 213.2903 L 341.0381 215.3193 L 340.6133 217.3324 L 339.8878 219.1783 L 337.6983 223.3685 L 337.3759 224.3489 L 336.9924 226.3895 L 336.9325 228.4693 L 337.2462 230.5274 L 337.5894 231.5251 L 338.5948 233.2128 L 339.939 234.5868 L 341.5435 235.6223 L 343.4171 236.2803 L 347.2558 237.0326 L 349.1272 237.5439 L 354.1968 240.0463 L 358.8557 241.933 L 364.8904 244.9598 L 360.7761 251.3779 L 359.1411 254.5194 L 358.3187 258.0705 L 358.0354 261.7756 L 358.0147 270.5916 L 358.4047 276.7962 L 359.1629 280.3125 L 360.9961 284.507 L 361.7238 286.6958 L 362.1366 289.0109 L 362.3512 291.3986 L 362.4863 296.2801 L 362.47 323.1189 L 361.6258 324.7339 L 360.4548 326.548 L 355.8209 332.4941 L 353.2523 336.507 L 352.6739 337.1998 L 351.2633 338.3153 L 347.4115 340.6827 L 344.8844 341.9651 L 343.8245 342.2948 L 341.623 342.6768 L 339.3627 342.8249 L 335.9217 342.793 L 330.3957 342.2643 Z" fill="#000000" fill-opacity="1" stroke="#000000" stroke-width="0" paint-order="fill" stroke-opacity="1" stroke-dasharray="" stroke-linecap="butt" stroke-linejoin="miter" stroke-miterlimit="10" clip-path="none"/>
<path data-code="204" d="M 261.7734 216.3636 L 258.6819 212.9781 L 256.5197 210.3347 L 252.9773 204.8912 L 259.927 201.5986 L 263.6818 200.136 L 267.8255 197.8558 L 272.1609 195.7861 L 272.943 195.2516 L 274.3471 193.9604 L 275.4996 192.4049 L 276.3263 190.4762 L 276.749 188.2816 L 277.0507 180.2673 L 277.3503 176.86 L 277.8481 174.6872 L 279.774 170.3039 L 280.4003 168.4099 L 280.7816 166.3534 L 281.4275 160.0108 L 282.1127 156.9418 L 282.8806 155.1554 L 284.6377 151.7452 L 286.1888 147.9835 L 288.9807 142.9161 L 291.0002 138.3076 L 293.3662 134.1044 L 294.9457 130.3601 L 297.182 126.1061 L 297.8922 124.1178 L 298.3236 121.8811 L 298.548 119.5848 L 298.6122 113.7666 L 298.2386 110.336 L 297.6003 108.1371 L 297.121 107.1436 L 295.2289 104.4887 L 292.9697 102.1648 L 290.5111 100.1692 L 286.4165 97.7147 L 285.0516 96.4845 L 283.1497 94.4294 L 288.5123 91.7207 L 290.1952 91.0206 L 293.486 90.3119 L 299.0882 89.7512 L 301.2723 89.3533 L 303.2058 88.691 L 307.4301 86.6562 L 315.1553 84.5342 L 320.1933 82.1349 L 322.1541 81.6832 L 324.1703 81.5539 L 326.1812 81.7122 L 328.1288 82.1828 L 333.1679 84.54 L 335.2419 85.1021 L 338.524 85.5102 L 345.2188 85.9024 L 348.4638 86.4151 L 350.3755 87.0687 L 353.7393 88.7026 L 355.6575 89.3751 L 357.8296 89.8035 L 363.398 90.4542 L 365.5744 90.8754 L 367.4992 91.542 L 371.742 93.5245 L 373.8727 94.0779 L 380.5501 94.8767 L 382.7319 95.2936 L 384.6622 95.9675 L 388.8832 98.0066 L 392.7567 99.0335 L 397.1237 99.3254 L 399.1356 99.9223 L 400.0452 100.4583 L 401.3044 101.7654 L 403.3893 105.1045 L 404.435 107.1175 L 405.1921 109.3978 L 405.6605 113.1057 L 405.7509 116.9299 L 405.5178 154.4495 L 405.252 163.055 L 402.7314 168.5407 L 401.8022 171.3147 L 401.4003 174.5071 L 401.1824 183.1445 L 400.9079 185.2287 L 400.2946 187.2213 L 399.2903 188.8858 L 398.6694 189.6163 L 397.2566 190.8712 L 395.6172 191.8385 L 392.0955 193.5538 L 389.5662 195.4855 L 387.2536 197.7817 L 385.2743 200.3553 L 384.2983 202.2158 L 382.7167 205.8919 L 380.427 210.1416 L 378.9161 213.9279 L 376.1689 219.0215 L 374.6254 222.7963 L 372.278 227.0169 L 370.2955 231.6486 L 367.5918 236.7247 L 365.3675 243.2067 L 364.8904 244.9598 L 358.8557 241.933 L 354.1968 240.0463 L 349.1272 237.5439 L 347.2558 237.0326 L 343.4171 236.2803 L 341.5435 235.6223 L 339.939 234.5868 L 338.5948 233.2128 L 337.5894 231.5251 L 337.2462 230.5274 L 336.9325 228.4693 L 336.9924 226.3895 L 337.3759 224.3489 L 337.6983 223.3685 L 339.8878 219.1783 L 340.6133 217.3324 L 341.0381 215.3193 L 341.1633 213.2903 L 340.9324 211.3078 L 340.1928 209.5243 L 339.0131 208.1823 L 338.2833 207.6957 L 337.4652 207.3675 L 336.5752 207.2455 L 335.6374 207.3835 L 334.8117 207.7306 L 333.3477 208.7705 L 329.6735 211.9803 L 327.9219 213.0304 L 326.0015 213.6317 L 323.9917 213.8466 L 321.9743 213.7348 L 320.0201 213.2802 L 315.8503 211.2555 L 313.9419 210.541 L 311.7393 210.0893 L 309.4583 209.8482 L 304.7907 209.687 L 277.652 209.5664 L 274.1695 209.6419 L 271.8896 209.8525 L 269.6707 210.3275 L 267.6229 211.2294 L 264.9781 213.2177 L 261.7734 216.3636 Z" fill="#000000" fill-opacity="1" stroke="#000000" stroke-width="0" paint-order="fill" stroke-opacity="1" stroke-dasharray="" stroke-linecap="butt" stroke-linejoin="miter" stroke-miterlimit="10" clip-path="none"/>
<path data-code="205" d="M 299.0991 429.2322 L 295.4859 430.5844 L 289.6942 432.3461 L 284.581 434.7643 L 281.348 435.508 L 275.7882 436.1485 L 273.6194 436.5726 L 271.7045 437.2392 L 267.4617 439.2116 L 265.3125 439.7591 L 260.7821 440.1643 L 248.0058 440.2195 L 245.7335 440.404 L 243.5233 440.8077 L 241.5746 441.5049 L 237.4309 443.73 L 233.8068 445.3479 L 228.8549 448.1191 L 224.1807 449.8997 L 221.2461 451.4465 L 220.5991 441.3292 L 220.2015 438.1528 L 219.3333 435.2407 L 217.3606 430.8995 L 216.6744 427.6926 L 216.4108 423.1786 L 216.4064 410.5341 L 216.0763 407.1863 L 215.548 405.0513 L 214.7768 403.2634 L 213.0133 399.8691 L 211.4545 396.1205 L 209.1125 391.9086 L 207.1256 387.2856 L 204.4187 382.1688 L 202.5059 377.5023 L 200.6704 374.1226 L 199.0779 370.5322 L 198.103 368.8257 L 196.1858 366.6936 L 194.6477 365.5723 L 186.344 361.7772 L 188.9834 358.1724 L 192.6739 353.9096 L 198.1302 348.238 L 200.5506 345.965 L 202.2325 344.5881 L 204.0113 343.4204 L 207.6191 341.7298 L 212.5242 338.857 L 216.1504 337.2405 L 219.4074 335.4163 L 221.1329 334.6378 L 222.1078 334.356 L 224.1132 334.0714 L 227.1414 334.2137 L 229.0858 334.7061 L 233.2284 336.783 L 235.0911 337.4859 L 237.1967 337.9217 L 239.3775 338.154 L 243.8392 338.3138 L 256.2898 338.3138 L 266.4497 338.4925 L 270.7644 338.3995 L 272.7818 338.1076 L 273.7305 337.8345 L 274.6205 337.4366 L 275.4233 336.873 L 276.0464 336.1948 L 276.9527 334.6422 L 279.1335 329.6358 L 284.6246 326.1108 L 289.0852 324.0528 L 292.3455 322.1617 L 294.0677 321.3208 L 296.0491 320.7631 L 299.1416 320.4261 L 302.2646 320.4988 L 304.3169 320.7994 L 306.295 321.4239 L 307.9943 322.3927 L 309.5455 323.5851 L 313.2502 326.805 L 314.7926 327.9612 L 316.4767 328.9197 L 319.1596 330.2196 L 321.5386 331.9 L 323.7444 333.9218 L 325.813 336.1265 L 327.6975 338.4765 L 330.3957 342.2643 L 324.8621 342.4691 L 321.799 342.8177 L 319.835 343.4219 L 318.1662 344.4415 L 316.7719 345.8096 L 316.1934 346.6142 L 315.346 348.5082 L 314.9865 350.5793 L 315.0159 352.6693 L 315.1684 353.7063 L 315.8067 355.7193 L 316.286 356.5922 L 316.8557 357.3881 L 318.1912 358.7722 L 319.7293 359.8833 L 323.2499 361.5623 L 325.0113 362.6414 L 331.8216 367.7814 L 335.3204 369.5504 L 336.95 370.5598 L 338.3508 371.8394 L 338.9652 372.5787 L 339.9684 374.2518 L 340.3486 375.27 L 340.7941 377.3992 L 340.9858 379.5981 L 341.0522 382.9807 L 340.8736 399.0631 L 340.5468 402.3978 L 340.0229 404.527 L 338.7876 407.1471 L 336.0273 411.9037 L 335.4358 412.6037 L 333.9969 413.6988 L 329.2824 416.4482 L 327.5744 417.2586 L 325.642 417.8236 L 320.7086 418.8214 L 318.8786 419.4721 L 314.6314 421.4778 L 312.7164 422.0312 L 308.7895 422.8721 L 306.8723 423.5243 L 304.1448 425.1989 L 299.0991 429.2322 Z" fill="#000000" fill-opacity="1" stroke="#000000" stroke-width="0" paint-order="fill" stroke-opacity="1" stroke-dasharray="" stroke-linecap="butt" stroke-linejoin="miter" stroke-miterlimit="10" clip-path="none"/>
<path data-code="206" d="M 395.1303 318.1372 L 390.2916 314.0981 L 387.7961 312.5992 L 385.8201 311.9761 L 383.7711 311.6682 L 380.6536 311.597 L 378.5872 311.7888 L 376.5633 312.2434 L 375.5862 312.6108 L 373.7311 313.6856 L 372.0449 315.0203 L 367.2193 319.4124 L 362.47 323.1189 L 362.4863 296.2801 L 362.3512 291.3986 L 362.1366 289.0109 L 361.7238 286.6958 L 360.9961 284.507 L 359.1629 280.3125 L 358.4047 276.7962 L 358.0147 270.5916 L 358.0354 261.7756 L 358.3187 258.0705 L 359.1411 254.5194 L 360.7761 251.3779 L 364.8904 244.9598 L 365.3675 243.2067 L 367.5918 236.7247 L 370.2955 231.6486 L 372.278 227.0169 L 374.6254 222.7963 L 376.1689 219.0215 L 378.9161 213.9279 L 380.427 210.1416 L 382.7167 205.8919 L 384.2983 202.2158 L 385.2743 200.3553 L 387.2536 197.7817 L 389.5662 195.4855 L 392.0955 193.5538 L 395.6172 191.8385 L 397.2566 190.8712 L 398.6694 189.6163 L 399.2903 188.8858 L 400.2946 187.2213 L 400.9079 185.2287 L 401.1824 183.1445 L 401.4003 174.5071 L 401.8022 171.3147 L 402.7314 168.5407 L 405.252 163.055 L 413.5448 168.7716 L 418 170.8935 L 422.1296 173.0532 L 423.0097 173.3844 L 424.9639 173.7925 L 426.9551 173.8753 L 429.2666 173.6705 L 430.3483 177.0313 L 431.3297 180.8947 L 432.0389 182.8264 L 433.0693 184.4647 L 434.371 185.8677 L 435.8765 187.0049 L 439.3611 188.7376 L 440.9537 189.7572 L 446.2879 194.1246 L 447.8761 195.2589 L 449.6092 196.1913 L 452.3411 197.3954 L 456.389 199.8252 L 460.5991 202.0096 L 461.8943 203.0626 L 463.2199 204.6123 L 462.8452 206.5876 L 462.3431 208.4277 L 460.8082 213.0478 L 459.9009 214.9257 L 458.7037 216.6628 L 457.3443 218.3055 L 450.8913 225.4498 L 449.6724 227.0663 L 447.7378 230.2282 L 447.167 230.9122 L 445.7498 231.9856 L 441.0408 234.748 L 439.3393 235.5454 L 437.4113 236.0697 L 432.4659 236.989 L 430.6141 237.7414 L 428.9638 238.8045 L 427.4322 240.0754 L 425.3506 242.2365 L 424.1513 243.8429 L 423.209 245.6351 L 422.6426 247.7164 L 422.4139 249.8558 L 422.4444 253.0946 L 422.6688 255.2267 L 423.099 257.2848 L 423.7962 259.1322 L 425.4573 262.4234 L 425.9726 264.2781 L 426.0085 266.2838 L 425.5478 268.1821 L 423.4672 272.349 L 421.8376 276.0584 L 420.7276 277.7998 L 418.0022 281.0082 L 410.5493 288.6826 L 407.7781 291.859 L 406.0712 294.4225 L 404.8207 297.198 L 403.8969 298.9452 L 402.7848 300.5487 L 399.6912 304.4062 L 398.543 306.0155 L 397.6008 307.7555 L 397.2348 308.7431 L 395.1303 318.1372 Z" fill="#000000" fill-opacity="1" stroke="#000000" stroke-width="0" paint-order="fill" stroke-opacity="1" stroke-dasharray="" stroke-linecap="butt" stroke-linejoin="miter" stroke-miterlimit="10" clip-path="none"/>
<path data-code="207" d="M 279.1335 329.6358 L 276.9527 334.6422 L 276.0464 336.1948 L 275.4233 336.873 L 274.6205 337.4366 L 273.7305 337.8345 L 272.7818 338.1076 L 270.7644 338.3995 L 266.4497 338.4925 L 256.2898 338.3138 L 243.8392 338.3138 L 239.3775 338.154 L 237.1967 337.9217 L 235.0911 337.4859 L 233.2284 336.783 L 229.0858 334.7061 L 227.1414 334.2137 L 224.1132 334.0714 L 222.1078 334.356 L 221.1329 334.6378 L 219.4074 335.4163 L 216.1504 337.2405 L 212.5242 338.857 L 207.6191 341.7298 L 204.0113 343.4204 L 202.2325 344.5881 L 200.5506 345.965 L 198.1302 348.238 L 192.6739 353.9096 L 188.9834 358.1724 L 186.344 361.7772 L 184.5685 359.0874 L 182.6034 356.5501 L 174.5786 347.9882 L 171.8477 344.806 L 170.1844 342.2396 L 168.9088 339.2622 L 168.0657 337.6414 L 166.24 335.1374 L 163.4035 331.9959 L 156.7174 325.0985 L 154.7055 322.6802 L 153.5889 320.9388 L 152.8395 319.1291 L 152.4158 317.334 L 151.7894 313.7117 L 151.3091 311.9514 L 150.9485 311.0553 L 148.7579 306.7824 L 147.2547 303.0018 L 144.4291 297.9518 L 142.8921 294.1916 L 141.0915 290.8118 L 140.3072 289.0298 L 139.8508 287.2172 L 139.6122 285.3363 L 139.4553 280.5144 L 141.7559 279.5674 L 143.0511 278.4665 L 146.4519 273.097 L 147.3636 271.4122 L 148.9159 267.6505 L 151.6587 262.5352 L 153.2251 258.7749 L 155.4157 254.5035 L 156.3525 251.3895 L 156.6531 249.0962 L 156.8329 245.5741 L 156.8143 240.803 L 156.6346 237.3463 L 155.9898 233.1896 L 155.2795 231.1228 L 153.4386 226.9283 L 152.7121 223.5312 L 152.3983 218.7543 L 152.358 206.5512 L 152.1718 200.0285 L 156.9124 200.6008 L 160.5485 200.7896 L 165.3827 200.8143 L 168.9545 200.6226 L 171.2758 200.3001 L 173.4947 199.7032 L 178.5904 197.3329 L 180.8322 196.7287 L 184.3659 196.322 L 189.1631 196.3264 L 191.5324 196.5486 L 193.834 196.9974 L 195.9821 197.7802 L 200.0321 199.7061 L 203.434 200.4773 L 208.2214 200.778 L 217.9597 200.8579 L 222.6982 201.2979 L 224.9378 201.8789 L 230.0357 204.2042 L 233.3188 204.9667 L 236.7675 205.2644 L 242.6464 205.3501 L 248.558 205.2107 L 252.9773 204.8912 L 256.5197 210.3347 L 258.6819 212.9781 L 261.7734 216.3636 L 265.4192 219.8479 L 267.7362 221.6663 L 273.0203 224.4651 L 279.7358 229.7503 L 281.4733 230.8483 L 284.9557 232.5447 L 286.4655 233.6776 L 287.7661 235.098 L 288.7792 236.7973 L 289.1506 237.8038 L 289.5907 239.9142 L 289.8826 245.516 L 289.7726 257.0611 L 289.3696 260.3798 L 288.7007 262.4771 L 288.2334 263.3485 L 287.057 264.8881 L 285.6322 266.1575 L 284.8435 266.6774 L 280.4569 268.6745 L 276.3154 270.8342 L 273.6565 271.9365 L 272.0171 272.8966 L 270.6413 274.15 L 270.0574 274.8805 L 269.1827 276.561 L 268.9322 277.5442 L 268.8374 278.5406 L 269.0564 280.5042 L 269.6816 282.2093 L 271.2143 285.5164 L 271.9724 288.809 L 272.3068 293.5365 L 272.406 305.5754 L 272.7436 309.0757 L 273.2752 311.2993 L 275.2294 315.671 L 275.8906 317.5373 L 277.4069 324.6599 L 279.1335 329.6358 Z" fill="#000000" fill-opacity="1" stroke="#000000" stroke-width="0" paint-order="fill" stroke-opacity="1" stroke-dasharray="" stroke-linecap="butt" stroke-linejoin="miter" stroke-miterlimit="10" clip-path="none"/>








</svg>