<?xml version="1.0" standalone="no"?>
<!-- Generator: Paintmaps.com , Online SVG vector map maker -->
<svg xmlns="http://www.w3.org/2000/svg" version="1.1" baseProfile="full"   style="background-color:#e0f2f1" width="800" height="500" viewBox="0 0 800 533">

<path data-code="200" d="M 302.5009 470.5855 L 302.5009 470.4179 L 302.4389 470.4179 L 302.4389 470.334 L 302.3756 470.334 L 302.3756 470.2514 L 302.2503 470.2514 L 302.2503 470.1675 L 302.1878 470.1675 L 302.1878 470.0837 L 302.1245 470.0837 L 302.1245 469.9999 L 302.0621 469.9999 L 302.0621 469.916 L 301.9992 469.916 L 301.9992 469.8334 L 301.8739 469.8334 L 301.8739 469.7495 L 301.811 469.7495 L 301.811 469.6657 L 301.6224 469.6657 L 301.6224 469.4981 L 301.5604 469.4981 L 301.5604 469.3316 L 301.4975 469.3316 L 301.4975 469.2477 L 301.4351 469.2477 L 301.4351 469.0801 L 301.3718 469.0801 L 301.3718 468.9136 L 301.3094 468.9136 L 301.3094 468.7459 L 301.2469 468.7459 L 301.2469 468.6621 L 301.1845 468.6621 L 301.1845 468.5783 L 301.1216 468.5783 L 301.1216 468.4956 L 301.0587 468.4944 L 301.0587 468.4117 L 300.9959 468.4117 L 300.9959 468.3279 L 300.933 468.3279 L 300.933 468.2441 L 300.8701 468.2441 L 300.8701 468.1603 L 300.8077 468.1603 L 300.8077 468.0764 L 300.7448 468.0764 L 300.7448 467.9099 L 300.6824 467.9099 L 300.6824 467.5758 L 300.7448 467.5758 L 300.7448 467.0739 L 300.6824 467.0739 L 300.6824 466.8225 L 300.6195 466.8225 L 300.6195 466.7386 L 300.5571 466.7386 L 300.5571 466.656 L 300.4942 466.656 L 300.4942 466.4883 L 300.4313 466.4883 L 300.4313 466.4045 L 300.3685 466.4045 L 300.3685 466.3206 L 300.306 466.3206 L 300.306 466.2368 L 300.2431 466.2368 L 300.2431 466.1541 L 300.1807 466.1541 L 300.1807 466.0703 L 300.1178 466.0703 L 300.1178 465.9865 L 300.055 465.9865 L 300.055 465.8188 L 299.9925 465.8188 L 299.9925 465.7362 L 299.9297 465.7362 L 299.9297 465.6523 L 299.8672 465.6523 L 299.8672 465.5685 L 299.8043 465.5685 L 299.8043 465.4008 L 299.7415 465.4008 L 299.7415 465.317 L 299.679 465.317 L 299.679 465.1505 L 299.6162 465.1505 L 299.6162 464.899 L 299.5533 464.899 L 299.5533 464.7325 L 299.4909 464.7325 L 299.4909 464.6487 L 299.5533 464.6487 L 299.5533 464.481 L 299.6162 464.481 L 299.6162 464.3972 L 299.7415 464.3972 L 299.7415 464.3145 L 299.8043 464.3145 L 299.8043 464.2307 L 299.8672 464.2307 L 299.8672 464.1469 L 299.9297 464.1469 L 299.9297 464.063 L 299.9925 464.063 L 299.9925 463.8965 L 300.055 463.8965 L 300.055 463.7289 L 300.1178 463.7289 L 300.1178 463.6451 L 300.1807 463.6451 L 300.1807 463.4774 L 300.2431 463.4774 L 300.2431 463.3109 L 300.306 463.3109 L 300.306 462.9767 L 300.2431 462.9767 L 300.2431 462.8929 L 300.306 462.8929 L 300.306 462.7252 L 300.3685 462.7252 L 300.3685 462.6414 L 300.4313 462.6414 L 300.4313 462.4749 L 300.4942 462.4749 L 300.4942 462.3911 L 300.5571 462.3911 L 300.5571 461.9731 L 300.6195 461.9731 L 300.6195 461.5551 L 300.6824 461.5551 L 300.6824 461.3875 L 300.7448 461.3875 L 300.7448 461.2198 L 300.6824 461.2198 L 300.6824 460.8856 L 300.6195 460.8856 L 300.6195 460.5515 L 300.5571 460.5515 L 300.5571 460.3 L 300.4942 460.3 L 300.4942 459.9658 L 300.4313 459.9658 L 300.4313 459.7155 L 300.3685 459.7155 L 300.3685 459.464 L 300.4313 459.464 L 300.4313 459.2137 L 300.3685 459.2137 L 300.3685 459.1298 L 300.306 459.1298 L 300.306 458.9622 L 300.2431 458.9622 L 300.2431 458.3777 L 300.306 458.3777 L 300.306 457.7921 L 300.2431 457.7921 L 300.2431 457.6244 L 300.1807 457.6244 L 300.1807 457.2902 L 300.2431 457.2902 L 300.2431 456.9561 L 300.306 456.9561 L 300.306 456.7884 L 300.3685 456.7884 L 300.3685 456.6208 L 300.4313 456.6208 L 300.4313 456.4543 L 300.4942 456.4543 L 300.4942 455.7848 L 300.5571 455.7848 L 300.5571 455.1165 L 300.4942 455.1165 L 300.4942 454.9488 L 300.4313 454.9488 L 300.4313 454.447 L 300.3685 454.447 L 300.3685 454.2793 L 300.306 454.2793 L 300.306 454.1967 L 300.2431 454.1967 L 300.2431 454.029 L 300.1807 454.029 L 300.1807 453.9452 L 300.1178 453.9452 L 300.1178 453.193 L 300.055 453.193 L 300.055 453.1092 L 299.9925 453.1092 L 299.9925 452.8589 L 299.9297 452.8589 L 299.9297 452.6074 L 299.8672 452.6074 L 299.8672 452.1056 L 299.8043 452.1056 L 299.8043 451.939 L 299.7415 451.939 L 299.7415 451.6876 L 299.8043 451.6876 L 299.8043 451.6037 L 299.8672 451.6037 L 299.8672 451.5211 L 299.9297 451.5199 L 299.9297 451.4372 L 299.8672 451.4372 L 299.8672 451.2696 L 299.8043 451.2696 L 299.8043 451.1019 L 299.7415 451.1019 L 299.7415 450.9354 L 299.679 450.9354 L 299.679 450.7678 L 299.4909 450.7678 L 299.4909 450.6839 L 299.3027 450.6839 L 299.3027 450.5174 L 299.3651 450.5174 L 299.3651 450.2659 L 299.3027 450.2659 L 299.3027 450.0994 L 299.2398 450.0994 L 299.2398 449.9318 L 299.1774 449.9318 L 299.1774 449.7641 L 299.1145 449.7641 L 299.1145 449.6814 L 299.0516 449.6803 L 299.0516 449.5976 L 298.9263 449.5976 L 298.9263 449.5138 L 298.8634 449.5138 L 298.8634 449.43 L 298.801 449.43 L 298.801 449.2623 L 298.8634 449.2623 L 298.8634 449.0958 L 298.801 449.0958 L 298.801 448.9281 L 298.7381 448.9281 L 298.7381 448.7616 L 298.6753 448.7605 L 298.6753 448.6778 L 298.6128 448.6778 L 298.6128 448.5102 L 298.5504 448.5102 L 298.5504 448.4263 L 298.4875 448.4263 L 298.4875 448.3425 L 298.3618 448.3425 L 298.3618 448.2598 L 298.1736 448.2598 L 298.1736 448.176 L 298.0487 448.176 L 298.0487 448.0922 L 297.923 448.0922 L 297.923 448.0083 L 297.4833 448.0083 L 297.4833 448.0922 L 297.1702 448.0922 L 297.1702 448.0083 L 297.1078 448.0083 L 297.1078 447.9245 L 297.0449 447.9245 L 297.0449 447.8418 L 296.9816 447.8418 L 296.9816 447.6742 L 296.9196 447.6742 L 296.9196 447.4227 L 296.8567 447.4227 L 296.8567 447.2562 L 296.7939 447.2562 L 296.7939 447.0885 L 296.7314 447.0885 L 296.7314 446.8382 L 296.6686 446.8382 L 296.6686 446.6705 L 296.6061 446.6705 L 296.6061 446.5867 L 296.7314 446.5867 L 296.7314 446.5029 L 297.0449 446.5029 L 297.0449 446.5867 L 297.1078 446.5867 L 297.1078 447.0885 L 297.1702 447.0885 L 297.1702 447.4227 L 297.2331 447.4227 L 297.2331 447.5903 L 297.2955 447.5903 L 297.2955 447.6742 L 297.4833 447.6742 L 297.4833 447.5903 L 297.6719 447.5903 L 297.6719 447.34 L 297.7343 447.34 L 297.7343 447.2562 L 297.7981 447.2562 L 297.7981 447.34 L 297.923 447.34 L 297.923 447.4227 L 298.0487 447.4227 L 298.0487 446.5029 L 298.1116 446.5029 L 298.1116 445.9391 L 298.1116 445.6669 L 298.0487 445.6623 L 298.0487 445.5831 L 298.0306 445.5831 L 297.985 445.5831 L 297.985 445.5004 L 297.923 445.5004 L 297.923 445.3327 L 297.8601 445.3327 L 297.8601 445.1651 L 297.7981 445.1651 L 297.7981 444.9148 L 297.7343 444.9148 L 297.7343 444.5806 L 297.6719 444.5806 L 297.6719 444.4129 L 297.5466 444.4129 L 297.5466 444.3291 L 297.4833 444.3291 L 297.4833 444.0788 L 297.5466 444.0788 L 297.5466 443.9949 L 297.7128 443.9949 L 297.7343 443.9949 L 297.7343 443.9111 L 297.8601 443.9111 L 297.8601 443.6608 L 297.7343 443.6608 L 297.7343 443.4931 L 297.6891 443.4931 L 297.6719 443.4931 L 297.6719 443.159 L 297.6095 443.159 L 297.6095 442.9913 L 297.4833 442.9913 L 297.4833 442.9075 L 297.296 442.9075 L 297.2955 442.8237 L 297.2331 442.8237 L 297.2331 442.741 L 297.1702 442.741 L 297.1702 442.4895 L 297.1078 442.4895 L 297.1078 442.4057 L 297.0449 442.4057 L 297.0449 442.323 L 296.9196 442.323 L 296.9196 442.2392 L 296.8567 442.2392 L 296.8567 441.9877 L 296.9196 441.9877 L 296.9196 441.8212 L 296.7939 441.8212 L 296.7939 441.7373 L 296.6686 441.7373 L 296.6686 441.5697 L 296.6061 441.5697 L 296.6057 441.4859 L 296.5433 441.4859 L 296.5433 441.4032 L 296.4808 441.4032 L 296.4808 441.2355 L 296.4179 441.2355 L 296.4179 441.1517 L 296.3551 441.1517 L 296.3551 441.0679 L 296.2922 441.0679 L 296.2922 440.9014 L 296.2298 440.9014 L 296.2298 440.7337 L 296.1669 440.7337 L 296.1669 440.5661 L 296.104 440.5661 L 296.104 440.4834 L 296.0416 440.4834 L 296.0416 440.3157 L 295.9791 440.3157 L 295.9791 440.2319 L 295.9163 440.2319 L 295.9163 440.1481 L 295.8534 440.1481 L 295.8534 439.9816 L 295.7905 439.9816 L 295.7905 439.8977 L 295.7285 439.8977 L 295.7285 439.8139 L 295.4137 439.8139 L 295.4137 439.7301 L 295.3517 439.7301 L 295.3517 439.5636 L 295.2889 439.5636 L 295.2889 439.3959 L 295.2268 439.3959 L 295.2268 439.1444 L 295.2889 439.1444 L 295.2889 438.5599 L 295.1631 438.5599 L 295.1631 438.4761 L 295.1007 438.4761 L 295.1007 438.3923 L 294.9121 438.3923 L 294.9121 438.3085 L 294.85 438.3085 L 294.85 438.2246 L 294.7872 438.2246 L 294.7872 438.1419 L 294.7243 438.1419 L 294.7243 438.0581 L 294.6614 438.0581 L 294.6614 437.9743 L 294.599 437.9743 L 294.599 437.8905 L 294.5366 437.8905 L 294.5366 437.8066 L 294.4108 437.8066 L 294.4108 437.724 L 294.3484 437.724 L 294.3484 437.3886 L 294.2855 437.3886 L 294.2855 437.1383 L 294.1598 437.1383 L 294.1598 437.0545 L 293.9091 437.0545 L 293.9091 436.9707 L 293.8467 436.9707 L 293.8467 436.8868 L 293.721 436.8868 L 293.721 436.8041 L 293.6581 436.8041 L 293.6581 436.7203 L 293.5328 436.7203 L 293.5328 436.6365 L 293.3446 436.6365 L 293.3446 436.5527 L 293.2822 436.5527 L 293.2822 436.4688 L 293.1573 436.4688 L 293.1573 436.385 L 293.094 436.385 L 293.094 436.3023 L 293.0311 436.3023 L 293.0311 436.2185 L 292.9687 436.2185 L 292.9687 436.1726 L 294.9047 436.4493 L 294.4969 435.3664 L 295.1411 432.6725 L 295.8616 433.4671 L 298.6563 434.6866 L 300.3245 435.0886 L 302.8368 434.7153 L 304.859 434.4145 L 306.2581 434.0022 L 308.5085 433.3385 L 310.3404 432.2338 L 312.1701 431.1303 L 314.098 429.9682 L 314.2254 429.8051 L 315.438 428.2537 L 315.8359 427.745 L 315.6676 426.398 L 315.612 425.9571 L 316.1624 423.2264 L 316.4466 421.8151 L 316.6627 421.3982 L 317.3806 420.0134 L 317.412 419.9525 L 317.5205 419.7435 L 319.5432 419.6183 L 319.5871 419.4599 L 325.8965 419.1544 L 333.3928 419.0614 L 337.0983 419.1521 L 339.8052 419.4633 L 342.224 420.2258 L 345.4834 422.0023 L 348.3336 423.293 L 352.288 425.4105 L 353.8232 425.9031 L 358.8477 427.0101 L 358.4196 431.2968 L 357.9981 432.9079 L 357.2225 434.581 L 354.6939 438.6748 L 353.713 439.5992 L 351.391 441.1012 L 350.2637 442.1921 L 349.4744 443.5701 L 349.3254 444.2809 L 349.3322 445.002 L 349.5079 445.7082 L 349.8692 446.357 L 350.3791 446.852 L 350.9531 447.1781 L 354.9738 448.1703 L 358.9717 449.8158 L 362.4942 450.754 L 363.7619 451.3626 L 364.32 451.8368 L 364.8075 452.4994 L 365.1481 453.2458 L 365.5279 454.8811 L 365.6959 457.5532 L 365.5103 466.1863 L 365.1916 472.1978 L 365.1679 472.2207 L 365.1128 475.2684 L 364.9638 475.2684 L 364.9638 475.3522 L 364.8381 475.3522 L 364.8381 475.4349 L 364.7132 475.4349 L 364.7132 475.5187 L 364.6503 475.5187 L 364.6503 475.6025 L 364.525 475.6025 L 364.525 475.6864 L 364.4001 475.6864 L 364.4001 475.7702 L 364.2739 475.7702 L 364.2739 475.8529 L 364.1486 475.8529 L 364.1486 475.9367 L 364.0858 475.9367 L 364.0858 476.0205 L 363.9604 476.0205 L 363.9604 476.1044 L 363.8347 476.1044 L 363.8347 476.1882 L 363.7723 476.1882 L 363.7723 476.272 L 363.7098 476.272 L 363.7098 476.3547 L 363.647 476.3547 L 363.647 476.4385 L 363.5845 476.4385 L 363.5845 476.5224 L 363.5216 476.5224 L 363.5216 476.69 L 363.4588 476.69 L 363.4588 476.7727 L 363.3959 476.7727 L 363.3959 476.8565 L 363.2706 476.8565 L 363.2706 476.9403 L 363.2077 476.9403 L 363.2077 477.0242 L 363.1453 477.0242 L 363.1453 477.108 L 362.7689 477.108 L 362.7689 477.2745 L 362.8322 477.2745 L 362.8322 477.3583 L 362.4554 477.3583 L 362.4554 477.526 L 362.5174 477.526 L 362.5174 477.6098 L 362.3305 477.6098 L 362.3305 477.526 L 361.9538 477.526 L 361.9538 477.6098 L 361.7027 477.6098 L 361.7027 477.6925 L 361.5145 477.6925 L 361.5145 477.7763 L 361.2635 477.7763 L 361.2635 477.8601 L 361.0757 477.8601 L 361.0757 477.944 L 360.8247 477.944 L 360.8247 478.0278 L 360.6365 478.0278 L 360.6365 478.1116 L 360.3859 478.1116 L 360.3859 478.1943 L 360.1977 478.1943 L 360.1977 478.2781 L 360.1348 478.2781 L 360.1348 478.362 L 359.7589 478.362 L 359.7584 478.4458 L 359.2568 478.4458 L 359.2568 478.5296 L 359.131 478.5296 L 359.131 478.6123 L 358.6922 478.6123 L 358.6922 478.6961 L 358.2534 478.6961 L 358.2534 478.78 L 357.6264 478.78 L 357.6264 478.8638 L 357.1248 478.8638 L 357.1248 478.9476 L 356.4349 478.9476 L 356.4349 479.0314 L 355.3687 479.0314 L 355.3687 479.1141 L 355.0548 479.1141 L 355.0548 479.1979 L 354.9299 479.1979 L 354.9299 479.2818 L 354.4907 479.2818 L 354.4907 479.3656 L 354.0523 479.3656 L 354.0523 479.2818 L 353.7384 479.2818 L 353.7379 479.1979 L 351.9819 479.1979 L 351.9819 479.1141 L 351.6059 479.1141 L 351.6059 479.0314 L 351.2924 479.0314 L 351.2924 478.9476 L 349.9752 478.9476 L 349.9752 478.8638 L 349.4735 478.8638 L 349.4735 478.9476 L 348.9094 478.9476 L 348.9094 478.8638 L 348.7212 478.8477 L 348.7212 478.78 L 348.4701 478.78 L 348.4701 478.6961 L 348.282 478.6961 L 348.282 478.6123 L 348.0942 478.6123 L 348.0942 478.5296 L 347.9056 478.5296 L 347.9056 478.4458 L 347.7174 478.4458 L 347.7174 478.362 L 347.4668 478.362 L 347.4668 478.2781 L 347.2786 478.2781 L 347.2786 478.1943 L 346.6516 478.1943 L 346.6516 478.1116 L 346.4634 478.1116 L 346.4634 478.0278 L 346.2124 478.0278 L 346.2124 477.944 L 346.0242 477.944 L 346.0242 477.8601 L 345.7107 477.8601 L 345.7107 477.944 L 345.6483 477.944 L 345.6479 478.1116 L 344.8327 478.1116 L 344.8327 478.0278 L 344.5196 478.0278 L 344.5196 477.944 L 344.2057 477.944 L 344.2057 477.8601 L 343.8293 477.8601 L 343.8293 477.7763 L 343.5163 477.7763 L 343.5163 477.6925 L 343.2019 477.6925 L 343.2019 477.6098 L 342.8889 477.6098 L 342.8889 477.526 L 342.5749 477.526 L 342.5749 477.4422 L 342.199 477.4422 L 342.199 477.3583 L 341.8851 477.3583 L 341.8851 477.2745 L 341.4463 477.2745 L 341.4463 477.3583 L 341.1952 477.3583 L 341.1952 477.2745 L 340.8822 477.2745 L 340.8822 477.1918 L 340.5054 477.1918 L 340.5054 477.108 L 340.1919 477.108 L 340.1919 477.0242 L 338.7497 477.0242 L 338.7497 476.9403 L 333.6697 476.9403 L 333.6697 477.0242 L 332.8545 477.0242 L 332.8545 477.108 L 332.2271 477.108 L 332.2271 477.1918 L 331.7254 477.1918 L 331.7254 477.3583 L 330.8478 477.3583 L 330.8474 477.4422 L 330.5335 477.4422 L 330.5335 477.526 L 330.2204 477.526 L 330.2204 477.6098 L 329.9069 477.6098 L 329.9069 477.6925 L 329.7187 477.6925 L 329.7187 477.7763 L 329.5934 477.7763 L 329.5934 477.8601 L 329.4052 477.8601 L 329.4052 477.944 L 327.8374 477.944 L 327.8374 478.0278 L 327.3986 478.0278 L 327.3986 478.1116 L 326.8964 478.1116 L 326.8964 478.1943 L 326.4576 478.1943 L 326.4576 478.2781 L 325.9564 478.2781 L 325.9564 478.362 L 325.5167 478.362 L 325.5167 478.4458 L 325.0151 478.4458 L 325.0151 478.6123 L 324.7644 478.6123 L 324.7644 478.6961 L 324.451 478.6961 L 324.451 478.78 L 324.1375 478.78 L 324.1375 478.8064 L 324.137 478.8638 L 323.7611 478.8638 L 323.7611 478.9476 L 323.4476 478.9476 L 323.4476 479.0314 L 323.0712 479.0314 L 323.0712 479.1141 L 322.9455 479.1141 L 322.9455 479.1979 L 322.8831 479.1979 L 322.8831 479.2818 L 322.7577 479.2818 L 322.7577 479.3656 L 322.5063 479.3656 L 322.5063 479.4494 L 322.2552 479.4494 L 322.2552 479.5321 L 321.9422 479.5321 L 321.9422 479.6159 L 321.6915 479.6159 L 321.6915 479.6998 L 319.8726 479.6998 L 319.8726 479.6159 L 319.5591 479.6159 L 319.5591 479.5321 L 319.246 479.5321 L 319.246 479.4494 L 318.6811 479.4494 L 318.6811 479.3656 L 318.43 479.3656 L 318.43 479.2818 L 318.1794 479.2818 L 318.1794 479.1979 L 317.9288 479.1979 L 317.9288 479.1141 L 317.6777 479.1141 L 317.6777 479.0314 L 317.4271 479.0314 L 317.4271 478.9476 L 317.176 478.9476 L 317.176 478.8638 L 316.8625 478.8638 L 316.8625 478.78 L 316.6119 478.78 L 316.6119 478.6961 L 316.2976 478.6961 L 316.2976 478.6123 L 316.0474 478.6123 L 316.0474 478.5296 L 315.3575 478.5296 L 315.3575 478.4458 L 314.6677 478.4458 L 314.6677 478.362 L 314.2284 478.362 L 314.2284 478.2781 L 313.7896 478.2781 L 313.7896 478.1943 L 313.7268 478.1943 L 313.7268 478.2781 L 313.6639 478.2781 L 313.6639 478.5296 L 313.6014 478.5296 L 313.6014 478.6961 L 313.7896 478.6961 L 313.7896 478.78 L 313.9149 478.78 L 313.9149 478.8638 L 314.1031 478.8638 L 314.1031 478.9476 L 314.2284 478.9476 L 314.2284 479.0314 L 314.4166 479.0314 L 314.4166 479.1979 L 313.9778 479.1979 L 313.9778 479.1141 L 313.6639 479.1141 L 313.6639 479.0314 L 313.3504 479.0314 L 313.3504 478.78 L 313.4133 478.78 L 313.4133 478.4458 L 313.4753 478.4458 L 313.4753 478.1116 L 313.2247 478.1116 L 313.2247 478.0278 L 312.9736 478.0278 L 312.9736 477.944 L 312.6605 477.944 L 312.6605 477.8601 L 312.4099 477.8601 L 312.4099 477.7763 L 312.2213 477.7763 L 312.2213 477.6925 L 311.9711 477.6925 L 311.9711 477.6098 L 311.7825 477.6098 L 311.7825 477.526 L 311.5943 477.526 L 311.5943 477.4422 L 311.3437 477.4422 L 311.3437 477.3583 L 311.1555 477.3583 L 311.1555 477.2745 L 310.9678 477.2745 L 310.9678 477.1918 L 310.7792 477.1918 L 310.7792 477.108 L 310.5285 477.108 L 310.5285 477.0242 L 310.3404 477.0242 L 310.3404 476.9403 L 310.2146 476.9403 L 310.2146 476.8565 L 310.0269 476.8565 L 310.0269 476.7727 L 309.9011 476.7727 L 309.9011 476.69 L 309.7758 476.69 L 309.7758 476.6062 L 309.5876 476.6062 L 309.5876 476.5224 L 309.4623 476.5224 L 309.4623 476.4385 L 309.337 476.4385 L 309.337 476.3547 L 309.2113 476.3547 L 309.2113 476.272 L 309.0231 476.272 L 309.0231 476.1882 L 308.8978 476.1882 L 308.8978 476.1044 L 308.7725 476.1044 L 308.7725 476.0205 L 308.6472 476.0205 L 308.6472 475.9367 L 308.5214 475.9367 L 308.5214 475.8529 L 308.3961 475.8529 L 308.3961 475.7702 L 308.2708 475.7702 L 308.2708 475.6864 L 308.145 475.6864 L 308.145 475.6025 L 308.0197 475.6025 L 308.0197 475.5187 L 307.832 475.5187 L 307.832 475.4349 L 307.7062 475.4349 L 307.7062 475.3522 L 307.5809 475.3522 L 307.5809 475.2684 L 307.4552 475.2684 L 307.4552 475.1846 L 307.3303 475.1846 L 307.3303 475.1007 L 307.2046 475.1007 L 307.2046 475.0169 L 307.0788 475.0169 L 307.0788 474.9331 L 306.9535 474.9331 L 306.9535 474.8504 L 306.8282 474.8504 L 306.8282 474.7666 L 306.7649 474.7666 L 306.7649 474.6827 L 306.64 474.6827 L 306.64 474.5989 L 306.5776 474.5989 L 306.5776 474.5151 L 306.4518 474.5151 L 306.4518 474.4324 L 306.3265 474.4324 L 306.3265 474.3486 L 306.2632 474.3486 L 306.2632 474.2647 L 306.1384 474.2647 L 306.1384 474.1809 L 306.0755 474.1809 L 306.0755 474.0971 L 305.9502 474.0971 L 305.9502 474.0133 L 305.8249 474.0133 L 305.8249 473.9306 L 305.762 473.9306 L 305.762 473.8468 L 305.6367 473.8468 L 305.6367 473.7629 L 305.5738 473.7629 L 305.5738 473.6791 L 305.4485 473.6791 L 305.4485 473.5953 L 305.3856 473.5953 L 305.3856 473.5126 L 305.3232 473.5126 L 305.3232 473.4288 L 305.1979 473.4288 L 305.1979 473.3449 L 305.135 473.3449 L 305.135 473.2611 L 305.0721 473.2611 L 305.0721 473.1773 L 304.9468 473.1773 L 304.9468 473.0935 L 304.884 473.0935 L 304.884 473.0108 L 304.8215 473.0108 L 304.8215 472.927 L 304.6953 472.927 L 304.6953 472.8431 L 304.6333 472.8431 L 304.6333 472.7593 L 304.5705 472.7593 L 304.5705 472.6755 L 304.4447 472.6755 L 304.4447 472.5928 L 304.3823 472.5928 L 304.3823 472.509 L 304.3198 472.509 L 304.3198 472.4251 L 304.1937 472.4251 L 304.1937 472.3413 L 304.1317 472.3413 L 304.1317 472.2575 L 304.0068 472.2575 L 304.0059 472.1737 L 303.943 472.1737 L 303.943 472.091 L 303.8182 472.091 L 303.8182 472.0071 L 303.7553 472.0071 L 303.7553 471.9233 L 303.63 471.9233 L 303.63 471.8395 L 303.5042 471.8395 L 303.5042 471.7557 L 303.4414 471.7557 L 303.4414 471.673 L 303.3165 471.673 L 303.3165 471.5892 L 303.2536 471.5892 L 303.2536 471.5053 L 303.1283 471.5053 L 303.1283 471.4215 L 303.0654 471.4215 L 303.0654 471.3377 L 302.9397 471.3377 L 302.9397 471.2538 L 302.8773 471.2538 L 302.8773 471.1712 L 302.8144 471.1712 L 302.8144 471.0035 L 302.7519 471.0035 L 302.7519 470.9197 L 302.6891 470.9197 L 302.6891 470.8359 L 302.6266 470.8359 L 302.6266 470.6693 L 302.5638 470.6693 L 302.5638 470.5855 L 302.5009 470.5855 Z M 288.327 419.4093 L 288.327 419.4932 L 288.4536 419.4932 L 288.4536 419.5781 L 288.5165 419.5781 L 288.5165 419.662 L 288.5785 419.662 L 288.5776 419.7458 L 288.6409 419.7458 L 288.6409 419.8308 L 288.7034 419.8296 L 288.7034 420.08 L 288.7667 420.08 L 288.7667 420.1638 L 288.83 420.1638 L 288.83 420.2476 L 288.892 420.2476 L 288.892 420.3303 L 289.0181 420.3303 L 289.0173 420.4141 L 289.0802 420.4141 L 289.0802 420.498 L 289.143 420.498 L 289.143 420.6656 L 289.205 420.6645 L 289.205 420.8333 L 289.2688 420.8321 L 289.2688 420.9998 L 289.3321 420.9986 L 289.3321 421.0825 L 289.3928 421.0825 L 289.3928 421.1674 L 289.4557 421.1674 L 289.4557 421.2513 L 289.5194 421.2501 L 289.5194 421.3339 L 289.5823 421.3328 L 289.5823 421.4166 L 289.6456 421.4166 L 289.6456 421.5854 L 289.7076 421.5854 L 289.7063 421.6692 L 289.7704 421.6692 L 289.7704 421.7519 L 289.8329 421.7508 L 289.8329 421.8358 L 289.9582 421.8358 L 289.9573 421.9196 L 290.0211 421.9196 L 290.0211 422.0884 L 290.0835 422.0872 L 290.0835 422.1699 L 290.2717 422.1699 L 290.2717 422.2537 L 290.3974 422.2537 L 290.3974 422.3376 L 290.4599 422.3376 L 290.4599 422.4214 L 290.5227 422.4214 L 290.5227 422.5052 L 290.7734 422.5052 L 290.7734 422.8394 L 290.8362 422.8394 L 290.8362 423.0897 L 290.9615 423.0897 L 290.9615 423.1735 L 291.0244 423.1735 L 291.0244 423.5915 L 291.0881 423.5904 L 291.0881 423.843 L 291.1497 423.843 L 291.1493 423.928 L 291.2126 423.9268 L 291.2126 424.0095 L 291.2759 424.0084 L 291.2759 424.0934 L 291.3379 424.0934 L 291.3379 424.1772 L 291.4632 424.1772 L 291.4632 424.261 L 291.5261 424.261 L 291.5261 424.3448 L 291.6514 424.3448 L 291.6514 424.4287 L 291.7143 424.4287 L 291.7143 424.5113 L 291.8396 424.5113 L 291.8396 424.5952 L 291.9029 424.5952 L 291.9029 424.7628 L 291.9649 424.7628 L 291.9649 425.2646 L 292.0278 425.2635 L 292.0278 425.5977 L 291.9645 425.5977 L 291.9645 425.5138 L 291.9029 425.515 L 291.9029 425.4312 L 291.8396 425.4312 L 291.8396 425.3485 L 291.7138 425.3485 L 291.7138 425.2635 L 291.5894 425.2635 L 291.5894 425.1797 L 291.7143 425.1808 L 291.7143 425.097 L 291.7771 425.0981 L 291.7771 424.8455 L 291.5265 424.8455 L 291.5265 425.0143 L 291.4632 425.0132 L 291.4632 424.9293 L 291.4008 424.9293 L 291.4008 424.7628 L 291.3379 424.7628 L 291.3379 424.679 L 291.275 424.679 L 291.275 424.5952 L 291.2126 424.5952 L 291.2126 424.5113 L 291.1497 424.5113 L 291.1497 424.3448 L 291.0873 424.3448 L 291.0873 424.261 L 291.0244 424.261 L 291.0244 424.0934 L 290.9615 424.0934 L 290.9615 423.9268 L 290.8987 423.928 L 290.8987 423.6742 L 290.8354 423.6742 L 290.8354 423.2562 L 290.7734 423.2574 L 290.7734 423.0897 L 290.648 423.0909 L 290.648 423.0059 L 290.4607 423.0059 L 290.4607 422.9221 L 290.3346 422.9232 L 290.3346 422.8394 L 290.2092 422.8394 L 290.2092 422.7556 L 290.1468 422.7567 L 290.1468 422.5879 L 290.0835 422.5891 L 290.0835 422.5052 L 290.0211 422.5064 L 290.0211 422.3376 L 289.9573 422.3376 L 289.9582 422.1699 L 289.8953 422.1699 L 289.8953 422.0872 L 289.7704 422.0872 L 289.7704 422.0034 L 289.7063 422.0034 L 289.7076 421.9196 L 289.5818 421.9196 L 289.5818 421.8358 L 289.5194 421.8358 L 289.5194 421.7508 L 289.4557 421.7508 L 289.4557 421.6692 L 289.3928 421.6692 L 289.3936 421.5854 L 289.3312 421.5854 L 289.3312 421.5016 L 289.2688 421.5016 L 289.2688 421.4166 L 289.205 421.4166 L 289.205 421.3328 L 289.1422 421.3328 L 289.143 421.1674 L 289.0814 421.1674 L 289.0814 420.9986 L 289.0173 420.9998 L 289.0173 420.8321 L 288.9544 420.8333 L 288.9544 420.7483 L 288.8308 420.7483 L 288.8308 420.6645 L 288.7667 420.6656 L 288.7667 420.4141 L 288.7034 420.4141 L 288.7034 420.2476 L 288.5785 420.2476 L 288.5785 420.1638 L 288.5169 420.1649 L 288.5156 419.9961 L 288.4527 419.9961 L 288.4527 419.8296 L 288.327 419.8308 L 288.3279 419.7458 L 288.2017 419.7458 L 288.2017 419.5781 L 288.2641 419.5781 L 288.2641 419.4093 L 288.327 419.4093 Z M 292.7805 430.1978 L 292.7792 430.6158 L 292.8429 430.6158 L 292.8429 430.7846 L 292.9062 430.7835 L 292.9062 431.0338 L 292.9687 431.0338 L 292.9687 431.1177 L 293.0311 431.1177 L 293.0311 431.4518 L 292.8429 431.4518 L 292.8429 431.368 L 292.7805 431.368 L 292.7805 431.0338 L 292.7185 431.035 L 292.7185 430.8662 L 292.6552 430.8673 L 292.6552 430.1978 L 292.7805 430.1978 Z" fill="#000000" fill-opacity="1" stroke="#000000" stroke-width="0" paint-order="fill" stroke-opacity="1" stroke-dasharray="" stroke-linecap="butt" stroke-linejoin="miter" stroke-miterlimit="10" transform="matrix(1.100000023841858,0,0,1.100000023841858,-39.999969482421875,-26.64995574951172)" clip-path="none" style="filter: url(#f1)"/>
<path data-code="201" d="M 493.4013 214.63 L 492.7834 216.9473 L 491.7925 219.7446 L 489.8069 226.2855 L 481.5188 226.6151 L 477.6944 226.5944 L 474.87 226.4359 L 473.0364 226.181 L 471.2837 225.7079 L 468.089 224.168 L 466.4513 223.5605 L 463.89 223.1081 L 460.3576 222.9611 L 457.7101 223.0977 L 455.1432 223.5387 L 453.4969 224.1347 L 450.2815 225.6413 L 448.739 226.0547 L 447.1332 226.2924 L 443.8437 226.5197 L 443.6547 223.1092 L 443.2632 220.6357 L 442.7624 219.1383 L 441.1937 215.6956 L 440.6128 213.097 L 440.4396 211.2872 L 440.3626 208.5324 L 440.4784 205.7833 L 440.7144 203.9885 L 440.9073 203.1146 L 441.4654 201.5449 L 443.2296 198.1814 L 444.4728 195.2222 L 446.5325 191.1514 L 446.9946 189.5851 L 447.6461 186.3686 L 448.0862 184.8023 L 449.9512 180.6477 L 451.5221 174.317 L 453.1051 170.8869 L 453.6179 169.339 L 453.9189 167.6165 L 454.1015 164.9443 L 454.0938 155.8462 L 454.192 153.1522 L 454.3948 151.3964 L 454.8069 149.7027 L 457.7661 143.4052 L 458.5727 141.9434 L 460.1651 139.8914 L 463.0895 136.9138 L 467.9378 138.3297 L 469.6198 138.6466 L 472.2294 138.8361 L 481.0197 138.89 L 482.7055 139.1163 L 484.3195 139.6376 L 484.9887 140.0097 L 486.172 140.9616 L 487.15 142.1226 L 487.5522 142.7691 L 491.2099 151.424 L 491.6775 154.5003 L 492.1659 156.0506 L 492.9375 157.3735 L 493.943 158.5057 L 495.1281 159.4232 L 495.8111 159.8033 L 497.9112 160.7564 L 501.8501 162.8911 L 505.4221 164.4379 L 509.6525 167.148 L 510.6598 168.0597 L 511.0314 168.627 L 511.7441 170.5137 L 511.7979 186.0333 L 511.5964 188.6963 L 511.2519 190.4165 L 510.9707 191.2444 L 510.6059 192.0207 L 509.6986 193.4584 L 506.0969 198.1607 L 504.2896 201.7722 L 502.912 203.8231 L 501.2787 205.7523 L 496.0802 211.3779 L 493.4013 214.63 Z" fill="#000000" fill-opacity="1" stroke="#000000" stroke-width="0" paint-order="fill" stroke-opacity="1" stroke-dasharray="" stroke-linecap="butt" stroke-linejoin="miter" stroke-miterlimit="10" transform="matrix(1.100000023841858,0,0,1.100000023841858,-39.999969482421875,-26.64995574951172)" clip-path="none" style="filter: url(#f1)"/>
<path data-code="202" d="M 359.4312 359.22 L 363.4726 359.9561 L 363.538 359.9388 L 363.6009 359.9182 L 363.6603 359.8906 L 363.715 359.8539 L 363.7654 359.8091 L 363.8136 359.7585 L 363.8614 359.7092 L 363.9096 359.6644 L 363.9579 359.6162 L 364.0057 359.5691 L 364.0526 359.5185 L 364.0987 359.4715 L 364.1439 359.4209 L 364.1878 359.3704 L 364.2317 359.3176 L 364.2748 359.2671 L 364.317 359.2142 L 364.3579 359.158 L 364.3984 359.1051 L 364.4363 359.0489 L 364.4729 358.9926 L 364.5078 358.934 L 364.5422 358.8755 L 364.5767 358.8169 L 364.612 358.7607 L 364.6482 358.7055 L 364.6843 358.647 L 364.7222 358.5907 L 364.7631 358.5379 L 364.8079 358.4873 L 364.8561 358.4368 L 364.9044 358.3897 L 364.9513 358.3415 L 364.9944 358.2887 L 365.031 358.2324 L 365.0594 358.1739 L 365.0822 358.1096 L 365.1037 358.0418 L 365.127 357.9775 L 365.1554 357.9189 L 365.1925 357.8627 L 365.2368 357.8133 L 365.285 357.7651 L 365.3337 357.7157 L 365.3798 357.6674 L 365.4203 357.6146 L 365.4551 357.5561 L 365.4866 357.4975 L 365.5171 357.4355 L 365.5482 357.3735 L 365.5822 357.3149 L 365.6201 357.2598 L 365.6605 357.2058 L 365.7023 357.153 L 365.7368 357.1105 L 365.7454 357.1002 L 365.7884 357.0496 L 365.8306 356.9968 L 365.8733 356.944 L 365.9172 356.8935 L 365.9615 356.8407 L 366.0055 356.7901 L 366.0472 356.7373 L 366.0856 356.681 L 366.1204 356.6248 L 366.1497 356.5628 L 366.1751 356.5019 L 366.1988 356.4376 L 366.2225 356.3733 L 366.2458 356.3078 L 366.2673 356.247 L 366.2888 356.1815 L 366.3095 356.1172 L 366.331 356.0529 L 366.3706 355.9943 L 366.4029 355.9335 L 366.4249 355.8715 L 366.4447 355.8072 L 366.4632 355.7394 L 366.4804 355.6751 L 366.4977 355.6108 L 366.5149 355.5453 L 366.5308 355.4787 L 366.5468 355.4133 L 366.5627 355.3467 L 366.5791 355.2812 L 366.5967 355.2146 L 366.6157 355.1503 L 366.6359 355.0849 L 366.6557 355.0206 L 366.6751 354.9563 L 366.6932 354.8919 L 366.71 354.8242 L 366.7259 354.7599 L 366.7414 354.6921 L 366.7573 354.6278 L 366.7754 354.5635 L 366.7952 354.4981 L 366.8185 354.4338 L 366.846 354.3729 L 366.877 354.3109 L 366.9085 354.2523 L 366.9391 354.1903 L 366.9666 354.1295 L 366.9903 354.0675 L 367.0131 354.0031 L 367.0351 353.9388 L 367.0558 353.8734 L 367.0764 353.8091 L 367.0967 353.7448 L 367.1169 353.6805 L 367.1384 353.6162 L 367.1604 353.5519 L 367.1824 353.4864 L 367.2043 353.4255 L 367.2263 353.3612 L 367.2487 353.2958 L 367.2711 353.2315 L 367.293 353.1672 L 367.3146 353.1052 L 367.3357 353.0409 L 367.3568 352.9765 L 367.3766 352.9122 L 367.3955 352.8445 L 367.4132 352.7802 L 367.4304 352.7159 L 367.4481 352.6481 L 367.4661 352.5838 L 367.4851 352.5195 L 367.5066 352.4552 L 367.5316 352.3898 L 367.5583 352.3289 L 367.582 352.2669 L 367.6018 352.2026 L 367.6194 352.1348 L 367.6358 352.0705 L 367.6513 352.0028 L 367.6664 351.9385 L 367.681 351.8707 L 367.6961 351.8064 L 367.7112 351.7387 L 367.7245 351.6743 L 367.7366 351.6066 L 367.7452 351.5388 L 367.7491 351.4711 L 367.7486 351.4033 L 367.7465 351.3356 L 367.7452 351.2678 L 367.7495 351.1576 L 367.7503 351.0899 L 367.7503 351.0187 L 367.7512 350.9509 L 367.7516 350.8832 L 367.7508 350.8154 L 367.7465 350.7477 L 367.7383 350.6822 L 367.7288 350.6144 L 367.7189 350.5467 L 367.7064 350.4778 L 367.6909 350.41 L 367.6711 350.3469 L 367.6457 350.2837 L 367.613 350.2286 L 367.5747 350.1735 L 367.5307 350.123 L 367.4838 350.0736 L 367.4347 350.0265 L 367.3856 349.9783 L 367.3378 349.9289 L 367.2917 349.8784 L 367.2461 349.8278 L 367.2 349.7808 L 367.1539 349.7314 L 367.1074 349.6832 L 367.0605 349.6338 L 367.014 349.5833 L 366.9955 349.5637 L 366.9274 347.7758 L 366.8654 347.7115 L 368.4269 344.4675 L 369.8268 342.3419 L 369.866 342.3775 L 371.5803 339.7605 L 373.1004 337.8979 L 375.2879 335.5726 L 377.6318 333.4906 L 378.9039 332.6443 L 380.2474 332.0621 L 384.2828 331.1618 L 385.5273 330.6853 L 386.6038 329.9492 L 387.6606 328.8353 L 392.015 328.2336 L 396.8104 327.9638 L 401.4486 328.0694 L 403.9785 328.5609 L 404.7295 328.8801 L 405.9008 329.7885 L 407.5936 332.0725 L 409.4082 333.8799 L 410.7815 334.7894 L 415.2005 337.1113 L 416.8623 337.8508 L 418.5451 338.2608 L 425.3924 338.7408 L 427.6657 339.2415 L 428.8882 339.9925 L 429.3055 340.4874 L 430.0905 342.1547 L 420.9962 351.4608 L 419.3668 353.2395 L 417.8919 355.0986 L 417.0862 356.4284 L 415.5131 360.0755 L 413.6804 363.416 L 412.5207 366.42 L 410.3465 370.4368 L 409.3751 372.8138 L 408.7136 374.077 L 407.3141 375.9729 L 402.4313 381.2942 L 400.9452 383.1419 L 400.1232 384.4532 L 399.0763 386.7993 L 398.4119 388.036 L 397.5244 389.3003 L 395.0634 392.3411 L 394.1659 393.6169 L 393.4559 395.0052 L 393.0459 396.4819 L 392.8426 398.008 L 392.5231 402.6427 L 392.2428 404.1573 L 392.0077 404.8945 L 391.298 406.3024 L 389.8808 408.2086 L 387.6984 410.5592 L 384.7754 413.2899 L 382.9086 414.6874 L 381.6861 415.35 L 379.406 416.3847 L 378.1378 417.2149 L 376.3576 418.7387 L 371.7431 423.2528 L 369.8617 424.7203 L 368.5651 425.4254 L 366.8603 425.9479 L 365.0844 426.2246 L 361.5132 426.5841 L 358.8477 427.0101 L 353.8232 425.9031 L 352.288 425.4105 L 348.3336 423.293 L 345.4834 422.0023 L 342.224 420.2258 L 339.8052 419.4633 L 337.0983 419.1521 L 333.3928 419.0614 L 325.8965 419.1544 L 319.5871 419.4599 L 319.5432 419.6183 L 317.5205 419.7435 L 318.1165 418.5952 L 318.4968 417.8626 L 318.8546 417.1724 L 318.9679 416.9542 L 319.032 416.8302 L 319.2292 416.4501 L 320.8307 413.3634 L 321.4534 411.858 L 323.9006 411.3481 L 324.6017 410.96 L 332.5303 406.5619 L 333.3454 406.1095 L 334.0288 405.7305 L 334.9125 405.2402 L 334.7785 402.9378 L 334.7032 401.6563 L 331.5592 400.6308 L 331.3159 400.5516 L 332.2495 399.2184 L 332.6091 398.7051 L 332.5544 398.3778 L 332.5333 398.2526 L 333.8419 397.226 L 334.7066 396.5474 L 333.5663 395.4151 L 335.114 394.7376 L 335.0834 393.5284 L 335.6798 393.3148 L 336.9114 392.8739 L 337.373 391.5614 L 337.3601 391.5338 L 337.0966 390.9677 L 337.063 390.8953 L 336.6819 390.0777 L 336.4192 389.5139 L 336.191 389.0236 L 337.3911 386.7384 L 338.5538 387.4159 L 339.1773 388.5803 L 340.1333 388.9845 L 340.8352 388.9087 L 340.9437 388.8972 L 342.2378 388.7572 L 342.7226 388.3231 L 343.2484 387.8523 L 343.2592 387.7248 L 343.5938 383.8159 L 343.614 383.5782 L 344.3685 382.09 L 345.6143 379.6326 L 345.8761 380.4249 L 346.3007 381.6869 L 347.6201 384.2362 L 348.4254 385.0515 L 349.6479 386.2906 L 349.812 386.4571 L 350.597 386.5409 L 351.3764 386.2446 L 352.0525 385.2525 L 352.5206 385.1193 L 352.9426 384.73 L 353.0782 384.6048 L 353.9046 383.1028 L 353.7655 382.0888 L 353.731 381.8374 L 353.4154 381.6203 L 353.0076 381.6261 L 352.8776 381.2781 L 352.6028 379.4753 L 351.7398 378.219 L 351.4208 377.8113 L 351.3122 377.3371 L 351.0879 376.3576 L 351.0948 375.6674 L 356.0151 375.4722 L 358.0962 372.8977 L 365.0753 371.1844 L 365.304 370.4988 L 365.3638 370.3185 L 365.5645 369.7168 L 363.0695 365.1178 L 359.0639 361.1802 L 358.8795 360.9987 L 359.4312 359.22 Z" fill="#000000" fill-opacity="1" stroke="#000000" stroke-width="0" paint-order="fill" stroke-opacity="1" stroke-dasharray="" stroke-linecap="butt" stroke-linejoin="miter" stroke-miterlimit="10" transform="matrix(1.100000023841858,0,0,1.100000023841858,-39.999969482421875,-26.64995574951172)" clip-path="none" style="filter: url(#f1)"/>
<path data-code="203" d="M 464.8081 459.2906 L 464.8042 459.3802 L 464.5536 459.3802 L 464.5536 459.2975 L 464.4278 459.2975 L 464.4278 459.2137 L 464.1772 459.2137 L 464.1772 459.2975 L 463.9262 459.2975 L 463.9262 459.2137 L 463.2363 459.2137 L 463.2363 459.1298 L 462.8599 459.1298 L 462.8599 459.2137 L 462.7346 459.2137 L 462.7346 459.2975 L 462.0168 459.2975 L 461.9199 459.2975 L 461.9199 459.3802 L 461.8562 459.3802 L 461.8562 459.464 L 461.4178 459.464 L 461.4178 459.5478 L 460.1009 459.5478 L 460.1009 459.6317 L 459.787 459.6317 L 459.787 459.7155 L 459.7246 459.7155 L 459.7246 459.7982 L 459.5993 459.7982 L 459.5993 459.882 L 459.5364 459.882 L 459.5364 459.9658 L 458.909 459.9658 L 458.909 460.0497 L 458.5955 460.0497 L 458.5955 460.2173 L 458.5326 460.2173 L 458.5322 460.3 L 458.0938 460.3 L 458.0938 460.3838 L 458.031 460.3838 L 458.031 460.4676 L 457.5297 460.4676 L 457.5297 460.5515 L 457.2791 460.5515 L 457.2791 460.6353 L 457.028 460.6353 L 457.028 460.718 L 456.7774 460.718 L 456.7774 460.8018 L 456.5264 460.8018 L 456.5264 460.8856 L 456.3377 460.8856 L 456.3377 460.9695 L 456.212 460.9695 L 456.212 461.0533 L 456.0247 461.0533 L 456.0247 461.1371 L 455.8361 461.1371 L 455.8361 461.2198 L 455.7741 461.2198 L 455.7741 461.3036 L 455.5855 461.3036 L 455.5855 461.3875 L 455.5226 461.3875 L 455.5226 461.4713 L 455.2715 461.4713 L 455.2715 461.7216 L 454.958 461.7216 L 454.958 461.8054 L 454.8956 461.8054 L 454.8956 461.8893 L 454.7699 461.8893 L 454.7699 461.9731 L 454.7074 461.9731 L 454.7074 462.2234 L 454.6445 462.2234 L 454.6445 462.3073 L 454.4564 462.3073 L 454.4564 462.5576 L 454.3311 462.5576 L 454.3311 462.6414 L 454.2682 462.6414 L 454.2682 462.7252 L 454.2057 462.7252 L 454.2057 462.8091 L 454.1429 462.8091 L 454.1429 462.8929 L 454.08 462.8929 L 454.08 462.9767 L 453.8922 462.9767 L 453.8922 463.1432 L 453.8294 463.1432 L 453.8294 463.3109 L 453.6412 463.3109 L 453.6412 463.3947 L 453.3277 463.3947 L 453.3277 463.4774 L 452.9518 463.4774 L 452.9518 463.3947 L 452.8256 463.3947 L 452.8256 463.4774 L 452.7003 463.4774 L 452.7003 463.3947 L 452.5125 463.3947 L 452.5121 463.3109 L 452.4497 463.3109 L 452.4497 463.2271 L 452.2615 463.2271 L 452.2615 463.1432 L 452.1362 463.1432 L 452.1362 463.0594 L 451.321 463.0594 L 451.321 462.9767 L 451.1953 462.9767 L 451.1953 463.0594 L 450.8193 463.0594 L 450.8193 463.1432 L 450.7565 463.1432 L 450.7565 463.2271 L 450.5687 463.2271 L 450.5687 463.3109 L 450.443 463.3109 L 450.443 463.2271 L 450.1919 463.2271 L 450.1919 463.3109 L 450.0033 463.3109 L 450.0033 463.3947 L 449.8156 463.3947 L 449.8156 463.4774 L 449.7527 463.4774 L 449.7527 463.6451 L 449.6902 463.6451 L 449.6902 463.7289 L 448.8751 463.7289 L 448.8751 463.8127 L 448.5612 463.8127 L 448.5612 463.7289 L 448.4991 463.7289 L 448.4991 463.6451 L 448.3105 463.6451 L 448.3105 463.5612 L 448.0595 463.5612 L 448.0595 463.6451 L 447.9975 463.6451 L 447.9975 463.5612 L 447.8713 463.5612 L 447.8713 463.4774 L 447.6836 463.4774 L 447.6836 463.5612 L 447.4958 463.5612 L 447.4958 463.4774 L 446.868 463.4774 L 446.868 463.5612 L 446.6798 463.5612 L 446.6798 463.6451 L 446.5545 463.6451 L 446.5545 463.7289 L 446.3663 463.7289 L 446.3663 463.8127 L 446.241 463.8127 L 446.241 463.8965 L 446.1781 463.8965 L 446.1781 463.9792 L 445.9275 463.9792 L 445.9275 464.063 L 445.8017 464.063 L 445.8017 464.1469 L 445.6764 464.1469 L 445.6764 464.2307 L 445.5511 464.2307 L 445.5511 464.3145 L 445.4258 464.3145 L 445.4258 464.388 L 445.3905 464.3972 L 445.3629 464.3972 L 445.3629 464.481 L 445.2376 464.481 L 445.2376 464.5649 L 444.8613 464.5649 L 444.8613 464.6487 L 444.736 464.6487 L 444.736 464.8163 L 444.6731 464.8163 L 444.6731 464.899 L 444.5478 464.899 L 444.5478 464.9829 L 444.4225 464.9829 L 444.422 465.0667 L 443.8583 465.0667 L 443.8583 465.1505 L 443.4187 465.1505 L 443.4187 465.2343 L 443.2305 465.2343 L 443.2305 465.317 L 442.29 465.317 L 442.29 465.2343 L 442.1647 465.2343 L 442.1647 465.1505 L 442.0394 465.1505 L 442.0394 465.0667 L 441.9765 465.0667 L 441.9765 464.9829 L 441.8508 464.9829 L 441.8508 464.899 L 441.7255 464.899 L 441.7255 464.8163 L 441.663 464.8163 L 441.663 464.7325 L 441.4749 464.7325 L 441.4749 464.6487 L 441.1609 464.6487 L 441.1609 464.7325 L 440.9103 464.7325 L 440.9103 464.6487 L 440.5968 464.6487 L 440.5968 464.7325 L 440.5339 464.7325 L 440.5339 464.8163 L 440.4086 464.8163 L 440.4086 464.8898 L 440.3458 464.899 L 440.3458 464.9829 L 440.22 464.9829 L 440.22 465.0667 L 439.907 465.0667 L 439.907 465.1505 L 439.5306 465.1505 L 439.5306 465.2343 L 439.1542 465.2343 L 439.1542 465.317 L 438.7779 465.317 L 438.7779 465.4008 L 437.5863 465.4008 L 437.5863 465.317 L 437.461 465.317 L 437.461 465.2343 L 437.3357 465.2343 L 437.3357 465.1505 L 437.1475 465.1505 L 437.1475 465.0667 L 437.0222 465.0667 L 437.0222 464.9829 L 436.8965 464.9829 L 436.8965 464.899 L 436.5201 464.899 L 436.5201 465.0667 L 436.4577 465.0667 L 436.4577 465.1505 L 435.956 465.1505 L 435.956 465.2343 L 435.7678 465.2343 L 435.7678 465.317 L 435.705 465.317 L 435.705 465.4008 L 435.6425 465.4008 L 435.6425 465.4847 L 435.5797 465.4847 L 435.5797 465.5685 L 435.5168 465.5685 L 435.5168 465.6523 L 435.4543 465.6523 L 435.4543 465.7362 L 435.2033 465.7362 L 435.2033 465.4847 L 433.6354 465.4847 L 433.6354 465.4008 L 432.9455 465.4008 L 432.9455 465.317 L 432.7578 465.317 L 432.7578 465.2343 L 432.1932 465.2343 L 432.1932 465.1505 L 431.9418 465.1505 L 431.9418 465.2343 L 431.6907 465.2343 L 431.6907 465.1505 L 431.5658 465.1505 L 431.5658 465.0667 L 431.127 465.0667 L 431.127 465.1505 L 431.1895 465.1505 L 431.1895 465.317 L 431.127 465.317 L 431.127 465.4847 L 431.0642 465.4847 L 431.0642 465.5685 L 430.9384 465.5685 L 430.9384 465.4847 L 430.876 465.4847 L 430.876 465.4008 L 430.8135 465.4008 L 430.8135 465.317 L 430.4996 465.317 L 430.4996 465.2343 L 430.3743 465.2343 L 430.3743 465.1505 L 429.9359 465.1505 L 429.9359 465.2343 L 429.371 465.2343 L 429.371 465.317 L 429.3081 465.317 L 429.3081 465.4008 L 429.0575 465.4008 L 429.0575 465.4847 L 428.9326 465.4847 L 428.9326 465.5685 L 428.9946 465.5685 L 428.9946 465.6523 L 428.9326 465.6523 L 428.9326 465.8188 L 428.806 465.8188 L 428.806 465.9027 L 428.4929 465.9027 L 428.4929 465.8188 L 428.3047 465.8188 L 428.3047 465.7362 L 428.2423 465.7362 L 428.2423 465.6523 L 427.9912 465.6523 L 427.9912 465.7362 L 427.8031 465.7362 L 427.8031 465.8188 L 427.6778 465.8188 L 427.6778 465.9027 L 427.4896 465.9027 L 427.4896 465.9865 L 426.925 465.9865 L 426.925 466.0703 L 426.3605 466.0703 L 426.3605 466.1541 L 425.9217 466.1541 L 425.9217 466.0703 L 425.7968 466.0703 L 425.7968 465.9865 L 425.5453 465.9865 L 425.5453 465.9027 L 425.42 465.9027 L 425.42 465.8188 L 425.1065 465.8188 L 425.1065 465.7362 L 425.0436 465.7362 L 425.0436 465.6523 L 424.9803 465.6523 L 424.9803 465.5685 L 424.9183 465.5685 L 424.9183 465.4847 L 424.8555 465.4847 L 424.8555 465.4008 L 424.7297 465.4008 L 424.7297 465.317 L 423.9779 465.317 L 423.9779 465.4008 L 423.5386 465.4008 L 423.5386 465.4847 L 423.4762 465.4847 L 423.4762 465.5685 L 423.3504 465.5685 L 423.3504 465.6523 L 423.2876 465.6523 L 423.2876 465.7362 L 423.1623 465.7362 L 423.1623 465.8188 L 423.0994 465.8188 L 423.0994 465.9027 L 423.0369 465.9027 L 423.0369 466.0703 L 422.7859 466.0703 L 422.7859 466.1541 L 422.5353 466.1541 L 422.5353 466.2368 L 422.2842 466.2368 L 422.2842 466.3206 L 421.9707 466.3206 L 421.9707 466.2368 L 421.7825 466.2368 L 421.7825 466.3206 L 421.7197 466.3206 L 421.7197 466.4883 L 421.5944 466.4883 L 421.5944 466.5721 L 421.5319 466.5721 L 421.5319 466.656 L 421.4691 466.656 L 421.4691 466.8225 L 421.3437 466.8225 L 421.3437 467.0739 L 421.2809 467.0739 L 421.2809 467.4919 L 420.9674 467.4919 L 420.9674 467.4081 L 420.9045 467.4081 L 420.9045 467.4919 L 420.7792 467.4919 L 420.7792 467.5746 L 420.6543 467.5758 L 420.6543 467.8261 L 420.591 467.8261 L 420.591 467.9099 L 420.5281 467.9099 L 420.5281 467.8261 L 420.4657 467.8261 L 420.4657 467.7423 L 420.3395 467.7423 L 420.3395 467.6584 L 420.1526 467.6584 L 420.1526 467.5758 L 420.026 467.5746 L 420.026 467.4919 L 419.964 467.4919 L 419.964 467.4081 L 419.713 467.4081 L 419.713 467.3243 L 419.6501 467.3243 L 419.6501 467.2405 L 419.3366 467.2405 L 419.3366 467.1566 L 419.2113 467.1566 L 419.2113 467.2405 L 419.1484 467.2405 L 419.1484 467.3243 L 419.086 467.3243 L 419.086 467.4081 L 419.0231 467.4081 L 419.0231 467.4919 L 418.9603 467.4919 L 418.9603 467.6584 L 418.8978 467.6584 L 418.8978 467.7423 L 418.7725 467.7423 L 418.7725 467.8261 L 418.7096 467.8261 L 418.7096 467.9099 L 418.4586 467.9099 L 418.4586 468.0764 L 418.3961 468.0764 L 418.3961 468.2441 L 418.3333 468.2441 L 418.3333 468.3279 L 418.0826 468.3279 L 418.0826 468.4944 L 418.0198 468.4956 L 418.0198 468.5783 L 417.8316 468.5783 L 417.8316 468.4956 L 417.6434 468.4956 L 417.6434 468.5783 L 417.5181 468.5783 L 417.5181 468.7459 L 417.4552 468.7459 L 417.4552 468.9136 L 417.2046 468.9136 L 417.2046 468.9962 L 417.1417 468.9962 L 417.1417 469.0801 L 417.0789 469.0801 L 417.0789 469.1639 L 416.9531 469.1639 L 416.9531 469.2477 L 416.8282 469.2477 L 416.8282 469.3316 L 416.7658 469.3316 L 416.7658 469.4981 L 416.7029 469.4981 L 416.7029 469.5819 L 416.6401 469.5819 L 416.6401 469.7495 L 416.5772 469.7495 L 416.5772 469.9999 L 416.6401 469.9999 L 416.6401 470.1675 L 416.389 470.1675 L 416.389 470.5855 L 416.3266 470.5855 L 416.3266 470.7532 L 416.2637 470.7532 L 416.2637 470.8359 L 416.2008 470.8359 L 416.2004 470.9197 L 416.0131 470.9197 L 416.0131 471.0035 L 415.762 471.0035 L 415.762 471.0873 L 415.6992 471.0873 L 415.6992 471.1712 L 415.6367 471.1712 L 415.6367 471.2538 L 415.5114 471.2538 L 415.511 471.3377 L 415.4481 471.3377 L 415.4481 471.5053 L 415.3857 471.5053 L 415.3857 471.673 L 415.3232 471.673 L 415.3232 471.7557 L 415.0722 471.7557 L 415.0722 471.8395 L 414.8216 471.8395 L 414.8216 471.9233 L 414.7587 471.9233 L 414.7587 472.091 L 414.6962 472.091 L 414.6962 472.1737 L 414.6334 472.1737 L 414.6334 472.2575 L 414.5076 472.2575 L 414.5076 472.3413 L 414.4456 472.3413 L 414.4456 472.4251 L 414.3195 472.4251 L 414.3195 472.509 L 414.257 472.509 L 414.257 472.5928 L 414.1946 472.5928 L 414.1946 472.6755 L 414.1317 472.6755 L 414.1317 472.7593 L 414.0688 472.7593 L 414.0688 472.927 L 413.8178 472.927 L 413.8178 473.2611 L 413.5672 473.2611 L 413.5672 473.3449 L 413.5043 473.3449 L 413.5043 473.4288 L 413.4423 473.4288 L 413.4423 473.5126 L 413.2537 473.5126 L 413.2537 473.4288 L 413.1279 473.4288 L 413.1279 473.3449 L 413.0026 473.3449 L 413.0026 473.2611 L 412.8769 473.2611 L 412.8769 473.1773 L 412.752 473.1773 L 412.752 473.0935 L 411.9364 473.0935 L 411.9364 473.1773 L 411.874 473.1773 L 411.874 473.2611 L 411.7482 473.2611 L 411.7482 473.3449 L 411.6229 473.3449 L 411.6229 473.4288 L 411.4347 473.4288 L 411.4347 473.5126 L 411.3094 473.5126 L 411.3094 473.5953 L 411.1841 473.5953 L 411.1841 473.6791 L 410.9959 473.6791 L 410.9959 473.7629 L 410.8702 473.7629 L 410.8702 473.8468 L 410.7444 473.8468 L 410.7444 473.9306 L 410.62 473.9306 L 410.62 474.0133 L 410.4314 474.0133 L 410.4314 474.0971 L 410.3685 474.0971 L 410.3685 474.1809 L 410.3065 474.1809 L 410.3065 474.2647 L 410.2428 474.2647 L 410.2428 474.3486 L 410.1803 474.3486 L 410.1803 474.4324 L 410.055 474.4324 L 410.055 474.5151 L 409.9926 474.5151 L 409.9926 474.5989 L 409.9297 474.5989 L 409.9297 474.6827 L 409.8668 474.6827 L 409.8668 474.7666 L 409.7415 474.7666 L 409.7415 474.8504 L 409.6162 474.8504 L 409.6162 474.9331 L 409.4905 474.9331 L 409.4905 475.1007 L 409.428 475.1007 L 409.428 475.2684 L 409.3652 475.2684 L 409.3652 475.5187 L 409.3027 475.5187 L 409.3027 475.6864 L 409.177 475.6864 L 409.177 475.7702 L 409.1145 475.7702 L 409.1145 475.8529 L 408.9892 475.8529 L 408.9892 476.1044 L 408.6753 476.1044 L 408.6753 476.1882 L 408.4875 476.1882 L 408.4875 476.1044 L 408.2365 476.1044 L 408.2365 476.272 L 408.1736 476.272 L 408.1736 476.3547 L 408.0483 476.3547 L 408.0483 476.8565 L 407.9859 476.8565 L 407.9859 477.0242 L 407.923 477.0242 L 407.923 477.108 L 407.7973 477.108 L 407.7973 477.1918 L 407.7353 477.1918 L 407.7353 477.2745 L 407.6091 477.2745 L 407.6091 477.526 L 407.5466 477.526 L 407.5466 477.944 L 407.3585 477.944 L 407.3585 478.1116 L 407.2956 478.1116 L 407.2956 478.1943 L 407.2336 478.1943 L 407.2336 478.2781 L 407.1698 478.2781 L 407.1698 478.362 L 407.1074 478.362 L 407.1074 478.4458 L 407.045 478.4458 L 407.045 478.6123 L 406.9821 478.6123 L 406.9821 478.78 L 406.9188 478.78 L 406.9188 478.8638 L 406.7315 478.8638 L 406.7315 478.9476 L 406.4176 478.9476 L 406.4176 479.0314 L 406.3551 479.0314 L 406.3551 479.1141 L 405.9787 479.1141 L 405.9787 479.0314 L 405.9163 479.0314 L 405.9163 478.8638 L 405.6024 478.8638 L 405.6024 478.6961 L 405.5395 478.6961 L 405.5395 478.6123 L 405.3518 478.6123 L 405.3518 478.5296 L 405.226 478.5296 L 405.226 478.4458 L 405.164 478.4458 L 405.164 478.362 L 405.1007 478.362 L 405.1007 478.1943 L 405.0378 478.1943 L 405.0378 478.0278 L 404.5986 478.0278 L 404.5986 477.8601 L 404.5362 477.8601 L 404.5362 477.7763 L 404.2227 477.7763 L 404.2227 477.6925 L 404.1598 477.6925 L 404.1598 477.6098 L 403.9721 477.6098 L 403.9721 477.526 L 403.9092 477.526 L 403.9092 477.4422 L 403.6581 477.4422 L 403.6581 477.3583 L 403.5953 477.3583 L 403.5953 477.1918 L 403.5328 477.1918 L 403.5328 477.108 L 403.3446 477.108 L 403.3446 477.2745 L 403.2822 477.2745 L 403.2822 477.3583 L 403.1565 477.3583 L 403.1565 477.526 L 403.094 477.526 L 403.094 477.6098 L 402.5923 477.6098 L 402.5923 477.6925 L 402.3413 477.6925 L 402.3413 477.7763 L 402.0278 477.7763 L 402.0278 477.944 L 401.9649 477.944 L 401.9649 478.1116 L 401.9025 478.1116 L 401.9025 478.0278 L 401.7772 478.0278 L 401.7772 477.944 L 401.3384 477.944 L 401.3384 477.8601 L 401.2122 477.8601 L 401.2122 477.7763 L 401.1498 477.7763 L 401.1498 477.6925 L 401.0249 477.6925 L 401.0249 477.6098 L 400.9611 477.6098 L 400.9611 477.526 L 400.7734 477.526 L 400.7734 477.6925 L 400.711 477.6925 L 400.711 477.7763 L 400.397 477.7763 L 400.397 477.6925 L 400.2717 477.6925 L 400.2717 477.6098 L 400.2089 477.6098 L 400.2089 477.526 L 400.0835 477.526 L 400.0835 477.4422 L 400.0211 477.4422 L 400.0211 477.3583 L 399.9582 477.3583 L 399.9582 477.2745 L 399.8954 477.2745 L 399.8954 477.1918 L 399.8329 477.1918 L 399.8329 477.108 L 399.7076 477.108 L 399.7076 477.0242 L 399.6447 477.0242 L 399.6447 476.9403 L 399.519 476.9403 L 399.519 476.8565 L 399.3937 476.8565 L 399.3937 476.7727 L 399.2059 476.7727 L 399.2059 476.69 L 399.1431 476.69 L 399.1431 476.6062 L 399.0802 476.6062 L 399.0802 476.5224 L 399.0173 476.5224 L 399.0173 476.4385 L 398.9553 476.4385 L 398.9553 476.3547 L 398.7043 476.3547 L 398.7043 476.272 L 398.5157 476.272 L 398.5157 476.1882 L 398.3899 476.1882 L 398.3899 476.1044 L 398.3275 476.1044 L 398.3275 476.0205 L 398.2022 476.0205 L 398.2022 475.9367 L 398.1389 475.9367 L 398.1389 475.8529 L 398.014 475.8529 L 398.014 475.7702 L 397.952 475.7702 L 397.952 475.6864 L 397.8258 475.6864 L 397.8258 475.6025 L 397.7634 475.6025 L 397.7634 475.5187 L 397.6376 475.5187 L 397.6376 475.4349 L 397.5752 475.4349 L 397.5752 475.3522 L 397.4494 475.3522 L 397.4494 475.2684 L 397.3866 475.2684 L 397.3866 475.1846 L 397.2617 475.1846 L 397.2617 475.1007 L 397.1988 475.1007 L 397.1988 475.0169 L 397.0735 475.0169 L 397.0735 474.8504 L 396.9478 474.8504 L 396.9478 474.7666 L 396.8224 474.7666 L 396.8224 474.6827 L 396.6971 474.6827 L 396.6971 474.5989 L 396.5718 474.5989 L 396.5718 474.5151 L 396.4461 474.5151 L 396.4461 474.4324 L 396.3208 474.4324 L 396.3208 474.3486 L 396.1955 474.3486 L 396.1955 474.2647 L 396.0702 474.2647 L 396.0693 474.1809 L 395.9444 474.1809 L 395.9444 474.0971 L 395.7558 474.0971 L 395.7558 474.0133 L 395.6313 474.0133 L 395.6313 473.9306 L 395.5056 473.9306 L 395.5056 473.8468 L 395.3807 473.8468 L 395.3799 473.7629 L 395.1921 473.7629 L 395.1921 473.6791 L 395.0664 473.6791 L 395.0664 473.5953 L 394.9411 473.5953 L 394.9411 473.5126 L 394.8153 473.5126 L 394.8153 473.4288 L 394.6904 473.4288 L 394.6904 473.3449 L 394.5023 473.3449 L 394.5023 473.2611 L 394.3765 473.2611 L 394.3765 473.1773 L 394.2512 473.1773 L 394.2512 473.0935 L 394.1259 473.0935 L 394.1259 473.0108 L 393.9377 473.0108 L 393.9377 472.927 L 393.8124 472.927 L 393.8124 472.8431 L 393.5614 472.8431 L 393.5614 472.927 L 393.4985 472.927 L 393.4985 473.0108 L 393.436 473.0108 L 393.436 472.927 L 393.3732 472.927 L 393.3732 472.8431 L 393.3107 472.8431 L 393.3107 472.6755 L 393.2479 472.6755 L 393.2479 472.5928 L 393.1226 472.5928 L 393.1226 472.509 L 392.9972 472.509 L 392.9972 472.4251 L 392.8086 472.4251 L 392.8086 472.3413 L 392.7462 472.3413 L 392.7462 472.2575 L 392.1812 472.2575 L 392.1812 472.1737 L 392.2449 472.1737 L 392.2449 472.091 L 391.9306 472.091 L 391.9306 472.0071 L 391.7428 472.0071 L 391.7428 471.9233 L 391.4285 471.9233 L 391.4285 471.8395 L 391.3036 471.8395 L 391.3036 471.7557 L 391.1154 471.7557 L 391.1154 471.673 L 390.3631 471.673 L 390.3631 471.5892 L 390.1121 471.5892 L 390.1121 471.5053 L 389.9868 471.4938 L 389.9868 471.4215 L 389.5475 471.4215 L 389.5475 471.5742 L 389.2836 471.5892 L 388.8572 471.5892 L 388.8572 471.6121 L 388.8572 471.673 L 388.4189 471.673 L 388.4189 471.7557 L 387.9172 471.7557 L 387.9172 471.9233 L 387.729 471.9233 L 387.729 472.0071 L 387.6041 472.0071 L 387.6041 472.091 L 387.4155 472.091 L 387.4155 472.1737 L 387.1025 472.1737 L 387.1025 472.2575 L 386.7877 472.2575 L 386.7877 472.3413 L 386.4742 472.3413 L 386.4742 472.4251 L 386.0983 472.4251 L 386.0983 472.509 L 385.5966 472.509 L 385.5966 472.5928 L 385.4713 472.5928 L 385.4713 472.6755 L 385.346 472.6755 L 385.346 473.0108 L 385.2207 473.0108 L 385.2207 473.0935 L 385.0949 473.0935 L 385.0949 473.1773 L 384.9696 473.1773 L 384.9696 473.2611 L 384.8443 473.2611 L 384.8443 473.3449 L 384.7185 473.3449 L 384.7185 473.4288 L 384.5932 473.4288 L 384.5932 473.5126 L 384.5308 473.5126 L 384.5308 473.5953 L 384.4051 473.5953 L 384.4051 473.6791 L 384.3426 473.6791 L 384.3426 473.8468 L 384.2797 473.8468 L 384.2797 473.9306 L 384.2173 473.9306 L 384.2173 474.0133 L 384.0916 474.0133 L 384.0916 474.1809 L 384.0287 474.1809 L 384.0287 474.3486 L 383.9663 474.3486 L 383.9663 474.5151 L 383.9034 474.5151 L 383.9034 474.6827 L 383.8409 474.6827 L 383.8409 474.8504 L 383.7781 474.8504 L 383.7781 474.9331 L 383.6528 474.9331 L 383.6528 475.0169 L 383.527 475.0169 L 383.527 475.1007 L 383.4013 475.1007 L 383.4013 475.1846 L 383.3388 475.1846 L 383.3388 475.3522 L 383.2764 475.3522 L 383.2764 475.4349 L 383.214 475.4349 L 383.214 475.6025 L 383.1507 475.6025 L 383.1507 475.6864 L 383.0882 475.6864 L 383.0882 475.7702 L 382.9633 475.7702 L 382.9633 475.8529 L 382.8372 475.8529 L 382.8372 475.9367 L 382.7119 475.9367 L 382.7119 476.0205 L 382.4612 476.0205 L 382.4612 476.1044 L 382.1469 476.1044 L 382.1469 476.1882 L 380.9558 476.1882 L 380.9558 476.272 L 380.7052 476.272 L 380.7052 476.3547 L 380.6427 476.3547 L 380.6427 476.4385 L 380.517 476.4385 L 380.517 476.5224 L 380.3921 476.5224 L 380.3921 476.6062 L 380.2035 476.6062 L 380.2035 476.5224 L 379.7642 476.5224 L 379.7642 476.6062 L 379.7018 476.6062 L 379.7018 476.69 L 379.5761 476.69 L 379.5761 476.7727 L 379.4508 476.7727 L 379.4508 476.8565 L 379.325 476.8565 L 379.325 476.9403 L 379.2001 476.9403 L 379.2001 476.7727 L 379.1373 476.7727 L 379.1373 476.6062 L 379.0744 476.6062 L 379.0744 476.5224 L 378.8862 476.5224 L 378.8862 476.4385 L 378.7609 476.4385 L 378.7609 476.3547 L 378.6356 476.3547 L 378.6356 476.272 L 378.5103 476.272 L 378.5103 476.1882 L 378.1339 476.1882 L 378.1339 476.1044 L 378.071 476.1044 L 378.071 475.9367 L 377.8209 475.9367 L 377.8209 475.8529 L 377.5069 475.8529 L 377.5069 475.9367 L 377.3812 475.9367 L 377.3812 476.0205 L 376.8166 476.0205 L 376.8166 475.9367 L 376.5032 475.9367 L 376.5032 475.8529 L 376.3778 475.8529 L 376.3778 475.6864 L 376.315 475.6864 L 376.315 475.5187 L 375.8762 475.5187 L 375.8762 475.6025 L 375.5627 475.6025 L 375.5627 475.5187 L 375.4998 475.5187 L 375.4998 475.3522 L 375.4369 475.3522 L 375.4369 475.2684 L 374.6218 475.2684 L 374.6218 475.1846 L 374.434 475.1846 L 374.434 475.1007 L 374.2454 475.1007 L 374.2454 475.0169 L 374.0572 475.0169 L 374.0572 474.9331 L 373.8066 474.9331 L 373.8066 474.8504 L 373.618 474.8504 L 373.618 474.7666 L 373.4302 474.7666 L 373.4302 474.6827 L 373.2421 474.6827 L 373.2421 474.5989 L 373.0539 474.5989 L 373.0539 474.5151 L 372.7404 474.5151 L 372.7404 474.4324 L 372.4269 474.4324 L 372.4269 474.3486 L 372.1138 474.3486 L 372.1138 474.2647 L 371.7999 474.2647 L 371.7999 474.1809 L 371.486 474.1809 L 371.486 474.0971 L 371.1725 474.0971 L 371.1725 474.0133 L 370.3573 474.0133 L 370.3573 474.0971 L 370.1691 474.0971 L 370.1691 474.1809 L 370.1063 474.1809 L 370.1063 474.2647 L 370.0434 474.2647 L 370.0434 474.3486 L 369.981 474.3486 L 369.981 474.4324 L 369.9181 474.4324 L 369.9181 474.5151 L 369.8557 474.5151 L 369.8557 474.6827 L 369.7928 474.6827 L 369.7928 474.7666 L 369.4793 474.7666 L 369.4793 474.6827 L 369.4164 474.6827 L 369.4164 474.5989 L 368.9776 474.5989 L 368.9776 474.6827 L 367.9738 474.6827 L 367.9738 474.7666 L 367.1591 474.7666 L 367.1587 474.6827 L 367.0334 474.6827 L 367.0334 474.5989 L 366.8452 474.5989 L 366.8452 474.6827 L 366.7199 474.6827 L 366.7199 474.8504 L 366.4064 474.8504 L 366.4064 474.9331 L 366.0929 474.9331 L 366.0929 475.0169 L 365.9671 475.0169 L 365.9671 475.1007 L 365.9047 475.1007 L 365.9047 475.1846 L 365.7794 475.1846 L 365.7794 475.2684 L 365.6541 475.2684 L 365.6541 475.3522 L 365.5283 475.3522 L 365.5283 475.4349 L 365.403 475.4349 L 365.403 475.3522 L 365.3397 475.3522 L 365.3397 475.2684 L 365.1128 475.2684 L 365.1679 472.2207 L 365.1916 472.1978 L 365.5103 466.1863 L 365.6959 457.5532 L 365.5279 454.8811 L 365.1481 453.2458 L 364.8075 452.4994 L 364.32 451.8368 L 363.7619 451.3626 L 362.4942 450.754 L 358.9717 449.8158 L 354.9738 448.1703 L 350.9531 447.1781 L 350.3791 446.852 L 349.8692 446.357 L 349.5079 445.7082 L 349.3322 445.002 L 349.3254 444.2809 L 349.4744 443.5701 L 350.2637 442.1921 L 351.391 441.1012 L 353.713 439.5992 L 354.6939 438.6748 L 357.2225 434.581 L 357.9981 432.9079 L 358.4196 431.2968 L 358.8477 427.0101 L 361.5132 426.5841 L 365.0844 426.2246 L 366.8603 425.9479 L 368.5651 425.4254 L 369.8617 424.7203 L 371.7431 423.2528 L 376.3576 418.7387 L 378.1378 417.2149 L 379.406 416.3847 L 381.6861 415.35 L 382.9086 414.6874 L 384.7754 413.2899 L 387.6984 410.5592 L 389.8808 408.2086 L 391.298 406.3024 L 392.0077 404.8945 L 392.2428 404.1573 L 392.5231 402.6427 L 392.8426 398.008 L 393.0459 396.4819 L 393.4559 395.0052 L 394.1659 393.6169 L 395.0634 392.3411 L 397.5244 389.3003 L 398.4119 388.036 L 399.0763 386.7993 L 400.1232 384.4532 L 400.9452 383.1419 L 402.4313 381.2942 L 407.3141 375.9729 L 408.7136 374.077 L 409.3751 372.8138 L 410.3465 370.4368 L 412.5207 366.42 L 413.6804 363.416 L 415.5131 360.0755 L 417.0862 356.4284 L 417.8919 355.0986 L 419.3668 353.2395 L 420.9962 351.4608 L 430.0905 342.1547 L 439.5134 342.1031 L 444.1275 342.3591 L 446.7547 342.9482 L 450.7793 344.8303 L 453.8173 345.6824 L 455.3327 345.9787 L 456.8144 346.4667 L 458.0977 347.2407 L 459.2139 348.2569 L 460.1272 349.4673 L 460.8227 350.8809 L 462.2101 354.1788 L 462.5818 355.4994 L 462.6321 356.1976 L 462.3807 357.5526 L 460.0699 362.9865 L 457.8182 366.9643 L 456.5578 369.9373 L 454.5011 374.0288 L 454.0395 375.5974 L 453.3785 378.8081 L 452.9333 380.3641 L 451.3542 383.7941 L 450.8357 385.3524 L 450.4378 387.9947 L 450.3065 390.7254 L 450.2117 408.3521 L 450.3409 411.9969 L 450.7827 414.6392 L 451.0665 415.4821 L 451.858 416.9967 L 455.889 422.3812 L 457.6387 425.9996 L 458.4594 427.3178 L 459.9179 429.1666 L 462.8152 432.4704 L 460.8821 436.9684 L 459.7043 439.9919 L 457.9448 443.3278 L 457.4289 444.839 L 457.1865 446.4799 L 457.2808 448.9729 L 457.6834 450.5863 L 458.3496 451.9827 L 460.8011 455.9042 L 464.1854 458.6464 L 464.8081 459.2906 Z M 456.6512 469.8334 L 456.6512 469.916 L 456.7774 469.916 L 456.7774 469.9999 L 457.028 469.9999 L 457.028 470.0837 L 457.0905 470.0837 L 457.0905 470.2514 L 457.1533 470.2514 L 457.1533 470.334 L 457.0905 470.3352 L 457.0905 470.5017 L 457.028 470.5017 L 457.028 470.5855 L 456.9652 470.5855 L 456.9652 470.6693 L 456.8394 470.6693 L 456.8394 470.7532 L 456.7774 470.7532 L 456.7774 470.8359 L 456.6512 470.8359 L 456.6512 470.9197 L 456.2757 470.9197 L 456.2757 470.8359 L 456.1496 470.8359 L 456.1496 470.7532 L 456.0871 470.7532 L 456.0871 470.5017 L 456.1496 470.5017 L 456.1496 470.1675 L 456.212 470.1675 L 456.212 469.9999 L 456.2757 469.9999 L 456.2757 469.916 L 456.4006 469.916 L 456.4006 469.8334 L 456.6512 469.8334 Z M 452.6383 470.7532 L 452.6383 470.8359 L 452.7632 470.8359 L 452.7632 470.9197 L 452.8256 470.9197 L 452.8256 471.0035 L 452.9518 471.0035 L 452.9518 471.0873 L 453.0762 471.0873 L 453.0762 471.1712 L 453.1391 471.1712 L 453.1391 471.3377 L 453.202 471.3377 L 453.202 471.5053 L 453.1391 471.5053 L 453.1391 471.673 L 453.0762 471.673 L 453.0762 472.1737 L 453.1391 472.1737 L 453.1391 472.509 L 453.0762 472.509 L 453.0762 472.5928 L 453.0142 472.5928 L 453.0142 472.6755 L 452.8256 472.6755 L 452.8256 472.7593 L 452.7003 472.7593 L 452.7003 472.8431 L 452.5125 472.8431 L 452.5121 472.927 L 452.4497 472.927 L 452.4497 473.0108 L 452.3868 473.0108 L 452.3868 473.0935 L 452.1986 473.0935 L 452.1986 473.0108 L 452.1362 473.0108 L 452.1362 472.8431 L 452.1986 472.8431 L 452.1986 472.7593 L 452.2615 472.7593 L 452.2615 472.4251 L 452.1986 472.4251 L 452.1986 472.3413 L 451.8851 472.3413 L 451.8851 472.4251 L 451.6345 472.4251 L 451.6345 472.5928 L 451.3835 472.5928 L 451.3835 472.4251 L 451.321 472.4251 L 451.321 472.3413 L 451.2581 472.3413 L 451.2581 472.2575 L 451.1328 472.2575 L 451.1324 472.1737 L 450.9446 472.1737 L 450.9446 472.091 L 450.8818 472.091 L 450.8818 471.9233 L 450.8193 471.9233 L 450.8193 471.7557 L 450.8818 471.7557 L 450.8818 471.673 L 450.9446 471.673 L 450.9446 471.5892 L 451.07 471.5892 L 451.07 471.5053 L 451.1324 471.5053 L 451.1328 471.4215 L 451.321 471.4215 L 451.321 471.3377 L 451.3835 471.3377 L 451.3835 471.2538 L 452.0104 471.2538 L 452.0104 471.1712 L 452.1362 471.1712 L 452.1362 471.0035 L 452.1986 471.0035 L 452.1986 470.8359 L 452.3868 470.8359 L 452.3868 470.7532 L 452.6383 470.7532 Z" fill="#000000" fill-opacity="1" stroke="#000000" stroke-width="0" paint-order="fill" stroke-opacity="1" stroke-dasharray="" stroke-linecap="butt" stroke-linejoin="miter" stroke-miterlimit="10" transform="matrix(1.100000023841858,0,0,1.100000023841858,-39.999969482421875,-26.64995574951172)" clip-path="none" style="filter: url(#f1)"/>
<path data-code="204" d="M 417.1344 85.9742 L 417.7179 85.0245 L 418.1145 83.5799 L 417.5349 82.3144 L 416.876 81.3211 L 416.6164 80.9296 L 415.3482 79.5562 L 414.7634 78.8718 L 414.3952 77.9784 L 414.3569 76.8588 L 414.9766 75.4188 L 415.6053 74.1981 L 416.5574 72.6525 L 417.8626 71.6741 L 419.6859 69.707 L 420.9575 68.8331 L 421.0888 68.7436 L 423.3608 67.7158 L 425.0777 66.5572 L 425.7163 65.9118 L 425.7744 63.993 L 425.9751 63.3901 L 426.1844 62.7631 L 426.5943 62.0075 L 426.6042 61.9891 L 427.0116 61.965 L 427.6958 61.9271 L 428.3215 62.2774 L 428.5821 62.4232 L 429.5785 63.0398 L 431.3514 64.1503 L 433.7693 64.7233 L 435.8621 65.3916 L 437.7198 65.3732 L 439.249 65.3422 L 441.3349 65.6729 L 442.7745 66.4217 L 444.2046 66.8339 L 445.62 66.5686 L 446.936 66.7478 L 447.7171 67.4655 L 449.1528 68.1039 L 451.1423 68.2969 L 452.2611 67.926 L 452.6826 67.7836 L 453.5124 67.9753 L 454.477 68.5828 L 455.4296 68.7367 L 455.9127 68.1453 L 456.5156 67.1084 L 457.2395 66.1323 L 457.4574 65.8383 L 458.1778 65.2182 L 459.12 64.4086 L 461.3485 62.3072 L 461.3687 62.2865 L 462.2149 61.671 L 463.0537 61.7089 L 464.2026 62.2039 L 465.5044 62.7654 L 468.216 63.2557 L 472.0098 63.9229 L 473.607 64.2398 L 475.1624 64.2548 L 475.3273 64.1732 L 476.3573 63.6565 L 477.3792 62.615 L 478.0006 61.121 L 479.0233 60.262 L 480.0749 59.379 L 481.1415 58.8221 L 484.8014 58.2525 L 488.9943 58.0354 L 493.1317 57.1788 L 496.8859 55.6653 L 498.6743 54.7317 L 500.1108 54.6892 L 502.4422 54.6238 L 504.4089 54.3987 L 505.0871 53.7086 L 505.4897 53.2998 L 506.7178 53.7269 L 505.5414 57.5577 L 505.3002 59.2504 L 505.2895 61.7606 L 505.5349 63.3614 L 506.0573 64.8312 L 506.7833 65.9233 L 507.9137 67.0119 L 509.1069 79.7502 L 506.7855 79.5458 L 504.641 79.5424 L 503.2914 79.7135 L 501.9879 80.097 L 501.295 80.4346 L 500.0182 81.2936 L 496.4975 84.3481 L 495.2767 85.2668 L 494.0774 85.9454 L 491.799 86.9985 L 490.5209 87.8321 L 488.7205 89.3525 L 486.9915 91.0256 L 476.8487 101.5971 L 473.3916 104.9456 L 472.1773 105.9251 L 470.8958 106.7439 L 468.6079 107.759 L 467.3957 108.4158 L 466.1606 109.3161 L 464.399 110.8744 L 461.5681 113.7016 L 457.6809 117.7988 L 455.576 120.1735 L 453.2028 123.0822 L 451.3555 122.0912 L 447.6711 120.7465 L 443.7602 118.5682 L 441.6101 117.6196 L 440.2174 116.848 L 438.9247 115.873 L 437.0959 114.1908 L 430.0578 106.9402 L 428.8129 105.8689 L 427.4835 104.9548 L 426.7726 104.5896 L 425.2538 104.0844 L 422.1473 103.4562 L 420.6332 103.0164 L 416.6353 100.9644 L 413.711 99.9504 L 413.6201 95.0941 L 414.2617 94.2065 L 415.7534 92.9284 L 417.1417 91.7537 L 416.9083 91.292 L 415.8912 90.0048 L 415.21 89.0746 L 415.5136 88.0698 L 416.7779 86.5552 L 417.1344 85.9742 Z" fill="#000000" fill-opacity="1" stroke="#000000" stroke-width="0" paint-order="fill" stroke-opacity="1" stroke-dasharray="" stroke-linecap="butt" stroke-linejoin="miter" stroke-miterlimit="10" transform="matrix(1.100000023841858,0,0,1.100000023841858,-39.999969482421875,-26.64995574951172)" clip-path="none" style="filter: url(#f1)"/>
<path data-code="205" d="M 366.8654 347.7115 L 362.5136 343.1825 L 360.6081 343.465 L 360.1085 342.2638 L 359.386 340.5264 L 357.8951 336.9414 L 356.9258 330.4729 L 356.7949 329.5978 L 358.9674 324.3753 L 359.5121 323.0662 L 359.7438 322.5092 L 359.5668 321.4792 L 358.8563 321.6813 L 357.3302 322.1177 L 355.8342 320.6581 L 356.0616 320.2424 L 356.1447 320.0909 L 357.567 317.4865 L 357.952 317.2178 L 358.8783 316.569 L 359.1108 316.4059 L 359.6486 315.5056 L 359.6267 315.4287 L 359.6844 315.4137 L 359.7507 315.4046 L 359.8187 315.4011 L 359.8863 315.3977 L 359.9531 315.3908 L 360.0177 315.3736 L 360.0818 315.354 L 360.146 315.3311 L 360.2093 315.3058 L 360.2709 315.2805 L 360.3307 315.2495 L 360.3884 315.2162 L 360.4427 315.1772 L 360.4935 315.1324 L 360.5426 315.0842 L 360.5904 315.0348 L 360.6373 314.9866 L 360.6839 314.936 L 360.7282 314.8867 L 360.7713 314.8327 L 360.813 314.7799 L 360.8539 314.727 L 360.8957 314.6742 L 360.9366 314.6203 L 360.9758 314.5651 L 361.0116 314.5089 L 361.0439 314.4469 L 361.0714 314.386 L 361.0955 314.324 L 361.1171 314.2597 L 361.1382 314.1954 L 361.1597 314.1311 L 361.1817 314.0656 L 361.204 314.0013 L 361.2256 313.937 L 361.2445 313.8727 L 361.26 313.8084 L 361.2725 313.7406 L 361.2837 313.6729 L 361.2936 313.6051 L 361.3018 313.5374 L 361.3087 313.4708 L 361.3139 313.403 L 361.3173 313.3353 L 361.319 313.2675 L 361.3169 313.1998 L 361.3108 313.1309 L 361.3014 313.0631 L 361.2889 312.9977 L 361.2742 312.9322 L 361.257 312.8668 L 361.2359 312.8013 L 361.2105 312.7381 L 361.1791 312.6807 L 361.1455 312.6199 L 361.1102 312.5625 L 361.0736 312.5073 L 361.0361 312.4488 L 360.9982 312.3937 L 360.9599 312.3385 L 360.9211 312.2834 L 360.8828 312.2248 L 360.8449 312.1697 L 360.8079 312.1123 L 360.7704 312.0572 L 360.7329 311.9986 L 360.6938 311.9435 L 360.6537 311.8907 L 360.6115 311.8379 L 360.5672 311.7885 L 360.5215 311.738 L 360.4741 311.6909 L 360.4263 311.6438 L 360.3777 311.5956 L 360.3295 311.5485 L 360.2821 311.5014 L 360.2369 311.4532 L 358.9192 309.4011 L 355.0367 303.3575 L 355.463 302.1851 L 355.5142 302.1414 L 355.5655 302.0989 L 355.6167 302.0541 L 355.6675 302.0094 L 355.7192 301.9646 L 355.7696 301.9198 L 355.82 301.875 L 355.8682 301.8279 L 355.9152 301.7774 L 355.963 301.7303 L 356.0151 301.6913 L 356.0749 301.6626 L 356.1408 301.6431 L 356.2067 301.6258 L 356.2678 301.5971 L 356.3268 301.5638 L 356.3858 301.5305 L 356.4461 301.5018 L 356.5098 301.4823 L 356.5753 301.4731 L 356.6433 301.4662 L 356.7109 301.4628 L 356.779 301.4616 L 356.8457 301.4582 L 356.9133 301.4547 L 356.9801 301.4536 L 357.0477 301.4524 L 357.1149 301.4467 L 357.182 301.4375 L 357.2484 301.4283 L 357.3155 301.4226 L 357.3823 301.418 L 357.449 301.4226 L 357.5162 301.4306 L 357.5834 301.4375 L 357.6506 301.4444 L 357.7173 301.4467 L 357.7849 301.4455 L 357.8525 301.4421 L 357.9197 301.4352 L 357.986 301.4237 L 358.051 301.4065 L 358.1156 301.387 L 358.1789 301.3617 L 358.2388 301.3273 L 358.2926 301.2882 L 358.3421 301.2434 L 358.3882 301.1929 L 358.433 301.1424 L 358.4769 301.0896 L 358.5221 301.039 L 358.5669 300.9897 L 358.6083 300.9334 L 358.641 300.8748 L 358.6647 300.8128 L 358.6823 300.7485 L 358.6974 300.6808 L 358.7116 300.6142 L 358.7267 300.5487 L 358.7176 300.4488 L 358.7125 300.3799 L 358.706 300.3121 L 358.697 300.2467 L 358.684 300.1789 L 358.6664 300.1135 L 358.6449 300.0503 L 358.6207 299.9872 L 358.5962 299.9217 L 358.5712 299.8586 L 358.5462 299.7954 L 358.5208 299.7357 L 358.495 299.6725 L 358.4687 299.6094 L 358.4429 299.5462 L 358.4179 299.4831 L 358.3947 299.4199 L 358.3727 299.3544 L 358.3525 299.2913 L 358.3322 299.2258 L 358.3129 299.1604 L 358.2926 299.0972 L 358.2719 299.0318 L 358.25 298.9686 L 358.2263 298.9054 L 358.2013 298.8434 L 358.1759 298.7803 L 358.1518 298.7171 L 358.129 298.654 L 358.1074 298.5885 L 358.0872 298.5254 L 358.067 298.4599 L 358.0463 298.3944 L 358.0252 298.3313 L 358.0028 298.2658 L 357.9796 298.2027 L 357.9529 298.1418 L 357.9236 298.0787 L 357.8921 298.0189 L 357.8594 297.9581 L 357.8267 297.8972 L 357.7952 297.8375 L 357.766 297.7766 L 357.7401 297.7158 L 357.7182 297.6538 L 357.7014 297.5872 L 357.6893 297.5229 L 357.6803 297.454 L 357.6742 297.3862 L 357.6708 297.3185 L 357.6695 297.2507 L 357.6695 297.183 L 357.6708 297.1129 L 357.6725 297.0452 L 357.6747 296.9774 L 357.6777 296.9097 L 357.682 296.8419 L 357.6876 296.7742 L 357.6945 296.7064 L 357.7018 296.6387 L 357.7096 296.5709 L 357.7173 296.5032 L 357.7251 296.4366 L 357.7328 296.3688 L 357.7397 296.3033 L 357.7462 296.2356 L 357.7522 296.1678 L 357.7574 296.1012 L 357.7629 296.0335 L 357.7673 295.9657 L 357.7724 295.898 L 357.775 295.8279 L 357.7789 295.8176 L 358.8128 292.9744 L 358.9317 292.6471 L 359.1465 292.0557 L 359.4441 291.2381 L 359.4002 290.788 L 359.2934 289.6844 L 359.1495 288.1973 L 358.8778 285.3908 L 359.4734 283.4869 L 360.6804 279.6274 L 360.8006 279.6297 L 361.2036 279.6251 L 361.5085 279.5493 L 361.7966 279.454 L 362.002 279.307 L 362.2276 279.0257 L 362.4162 278.8798 L 362.6061 278.6812 L 362.7112 278.5319 L 362.8813 278.4343 L 363.1337 278.4412 L 363.3838 278.5158 L 363.749 278.6605 L 364.0272 278.9396 L 364.3876 279.2691 L 364.6128 279.6492 L 364.9371 280.0971 L 365.1787 280.4588 L 365.4693 280.9066 L 365.7307 281.1684 L 366.0429 281.413 L 366.4094 281.5554 L 366.5756 281.6117 L 366.8775 281.6197 L 367.1643 281.5761 L 367.4679 281.5198 L 367.9222 281.4808 L 368.4286 281.3935 L 368.6994 281.3177 L 369.1382 281.2431 L 369.5103 281.1363 L 369.8746 281.0594 L 369.9762 281.041 L 370.0425 281.0284 L 370.1089 281.0146 L 370.1752 281.0031 L 370.2415 280.9882 L 370.3078 280.9744 L 370.3741 280.9617 L 370.4404 280.9503 L 370.5072 280.9388 L 370.5735 280.9296 L 370.6398 280.9204 L 370.707 280.9147 L 370.7733 280.9112 L 370.8405 280.9066 L 370.9072 280.9066 L 370.9744 280.9078 L 371.0416 280.9101 L 371.1088 280.9147 L 371.1759 280.9193 L 371.2435 280.9261 L 371.3107 280.9342 L 371.3779 280.9411 L 371.4455 280.948 L 371.5127 280.956 L 371.5794 280.9629 L 371.6462 280.9698 L 371.7134 280.9801 L 371.7801 280.987 L 371.8468 280.9973 L 371.9132 281.0077 L 371.9799 281.0203 L 372.0462 281.0295 L 372.113 281.0398 L 372.1797 281.0467 L 372.2469 281.0548 L 372.3136 281.0594 L 372.3812 281.0639 L 372.4484 281.0685 L 372.5156 281.0731 L 372.5832 281.0743 L 372.6504 281.0789 L 372.7176 281.0812 L 372.7847 281.0858 L 372.8523 281.0869 L 372.9195 281.0915 L 372.9867 281.0961 L 373.0539 281.1007 L 373.1206 281.1087 L 373.1874 281.1156 L 373.2541 281.126 L 373.32 281.1409 L 373.3863 281.1593 L 373.4518 281.1776 L 373.5177 281.1949 L 373.5835 281.2109 L 373.6494 281.2236 L 373.7153 281.2328 L 373.7812 281.235 L 373.8475 281.2316 L 373.9138 281.2282 L 373.9806 281.219 L 374.0473 281.2075 L 374.1136 281.196 L 374.18 281.1811 L 374.2467 281.1639 L 374.3126 281.1489 L 374.3793 281.1351 L 374.4452 281.1202 L 374.5115 281.1087 L 374.577 281.095 L 374.6429 281.0777 L 374.7083 281.0628 L 374.7738 281.0456 L 374.8388 281.0318 L 374.9043 281.0146 L 374.9697 280.9973 L 375.0352 280.9824 L 375.1006 280.9652 L 375.1661 280.948 L 375.2315 280.9342 L 375.297 280.917 L 375.3624 280.902 L 375.4275 280.8848 L 375.4929 280.8676 L 375.5584 280.8538 L 375.6243 280.8366 L 375.6893 280.8194 L 375.7543 280.8044 L 375.8202 280.7895 L 375.8865 280.7757 L 375.9528 280.7608 L 376.0187 280.747 L 376.0837 280.7298 L 376.1475 280.7091 L 376.2099 280.6839 L 376.2719 280.6563 L 376.3331 280.6276 L 376.3933 280.5977 L 376.4523 280.5633 L 376.51 280.53 L 376.566 280.4932 L 376.6194 280.4519 L 376.6707 280.4071 L 376.7202 280.3623 L 376.7706 280.3152 L 376.8214 280.2705 L 376.8748 280.228 L 376.9303 280.1924 L 376.9872 280.1556 L 377.0449 280.1189 L 377.1026 280.0856 L 377.1603 280.0488 L 377.2167 280.0132 L 377.2731 279.9765 L 377.3295 279.9374 L 377.3851 279.8984 L 377.4393 279.8594 L 377.4932 279.8203 L 377.5474 279.7778 L 377.6008 279.7365 L 377.6525 279.6917 L 377.7011 279.6469 L 377.7464 279.5964 L 377.7886 279.5436 L 377.8282 279.4907 L 377.8665 279.4345 L 377.9048 279.3782 L 377.9444 279.3231 L 377.9858 279.2691 L 378.0306 279.2163 L 378.0775 279.1669 L 378.1249 279.1187 L 378.171 279.0693 L 378.2132 279.0153 L 378.2506 278.9602 L 378.2803 278.9005 L 378.3027 278.8396 L 378.3204 278.7719 L 378.3354 278.7041 L 378.351 278.6375 L 378.3677 278.5698 L 378.3897 278.5078 L 378.419 278.4469 L 378.4547 278.3907 L 378.4952 278.3378 L 378.54 278.2873 L 378.5865 278.2368 L 378.633 278.1874 L 378.6791 278.1346 L 378.7226 278.084 L 378.7622 278.0278 L 378.7958 277.9692 L 378.8238 277.9072 L 378.847 277.8429 L 378.869 277.7786 L 378.878 277.751 L 379.7642 276.7922 L 379.8198 276.7566 L 379.8753 276.7164 L 379.9309 276.6774 L 379.9864 276.6418 L 380.0424 276.6027 L 380.0988 276.566 L 380.1553 276.5292 L 380.2121 276.4936 L 380.2698 276.4569 L 380.3288 276.4236 L 380.3895 276.3926 L 380.4498 276.3616 L 380.5084 276.3306 L 380.5656 276.2938 L 380.6195 276.2548 L 380.6707 276.2111 L 380.7211 276.1663 L 380.7697 276.1181 L 380.8175 276.071 L 380.8653 276.024 L 380.9131 275.9757 L 380.9609 275.9286 L 381.01 275.8816 L 381.0587 275.8333 L 381.1078 275.7863 L 381.1569 275.7415 L 381.2055 275.6944 L 381.2546 275.6462 L 381.3033 275.6025 L 381.4045 275.5853 L 381.4596 275.5141 L 381.5009 275.4613 L 381.5427 275.4085 L 381.5853 275.3556 L 381.628 275.3051 L 381.6719 275.2523 L 381.7163 275.2018 L 381.7602 275.1489 L 381.8045 275.0984 L 381.8493 275.0479 L 381.8941 274.9974 L 381.9389 274.948 L 381.9841 274.8975 L 382.0293 274.8469 L 382.0737 274.7964 L 382.1193 274.747 L 382.1641 274.6965 L 382.2097 274.646 L 382.2558 274.5954 L 382.3015 274.5461 L 382.3475 274.4978 L 382.3949 274.4473 L 382.4423 274.4002 L 382.4905 274.3531 L 382.5379 274.3049 L 382.5857 274.2578 L 382.633 274.2108 L 382.6817 274.1637 L 382.7295 274.1154 L 382.7773 274.0649 L 382.8247 274.0178 L 382.8716 273.9708 L 382.9177 273.9202 L 382.962 273.8697 L 383.0055 273.8169 L 383.049 273.7641 L 383.0925 273.7135 L 383.1364 273.663 L 383.1817 273.6136 L 383.2264 273.5631 L 383.2721 273.5126 L 383.3177 273.462 L 383.363 273.4127 L 383.4073 273.3621 L 383.4521 273.3093 L 383.4947 273.2588 L 383.5365 273.206 L 383.5783 273.1531 L 383.6209 273.0992 L 383.6644 273.0464 L 383.71 272.997 L 383.7574 272.9487 L 383.8065 272.9017 L 383.8457 272.8661 L 384.4658 272.5319 L 389.2702 269.9424 L 390.2589 268.8102 L 390.6689 268.3405 L 391.5676 267.7824 L 391.7515 267.1015 L 392.2518 265.2481 L 392.2635 265.2435 L 392.3289 265.232 L 392.3952 265.2228 L 392.462 265.2171 L 392.5292 265.2136 L 392.5968 265.2125 L 392.6648 265.2125 L 392.7324 265.2136 L 392.8004 265.2159 L 392.8681 265.2182 L 392.9352 265.2194 L 393.0028 265.224 L 393.0696 265.2343 L 393.1368 265.2446 L 393.2039 265.2515 L 393.2711 265.2596 L 393.3379 265.2642 L 393.4046 265.2607 L 393.4709 265.2538 L 393.5377 265.2401 L 393.6036 265.2251 L 393.6699 265.2113 L 393.7362 265.1999 L 393.8029 265.1884 L 393.8701 265.1815 L 393.9373 265.1803 L 394.0049 265.1803 L 394.0725 265.1792 L 394.1397 265.1757 L 394.2069 265.17 L 394.2736 265.1631 L 394.3403 265.1516 L 394.4071 265.1424 L 394.4734 265.131 L 394.5397 265.1172 L 394.6056 265.1023 L 394.6711 265.0885 L 394.7361 265.0712 L 394.8011 265.0517 L 394.8653 265.0311 L 394.9294 265.0092 L 394.9932 264.9863 L 395.0573 264.9633 L 395.1211 264.9415 L 395.1844 264.9162 L 395.2442 264.8852 L 395.3006 264.8519 L 395.3549 264.8094 L 395.4066 264.7681 L 395.4565 264.7199 L 395.5047 264.6705 L 395.5495 264.62 L 395.5917 264.5671 L 395.6296 264.5143 L 395.6645 264.4546 L 395.6972 264.3937 L 395.7295 264.3352 L 395.7631 264.2766 L 395.7989 264.218 L 395.8389 264.1652 L 395.885 264.1147 L 395.9349 264.0676 L 395.9845 264.0194 L 396.0297 263.9723 L 396.068 263.916 L 396.1012 263.8575 L 396.1309 263.7966 L 396.1589 263.7346 L 396.186 263.6726 L 396.2144 263.6117 L 396.2463 263.5497 L 396.2876 263.4946 L 396.3307 263.4383 L 396.3669 263.3798 L 396.3854 263.3178 L 396.3862 263.2535 L 396.378 263.188 L 396.3647 263.1202 L 396.3483 263.0513 L 396.332 262.9836 L 396.3191 262.9147 L 396.313 262.8504 L 396.3156 262.7826 L 396.3281 262.7172 L 396.3462 262.6529 L 396.3694 262.5886 L 396.3957 262.5243 L 396.4215 262.46 L 396.4465 262.3957 L 396.4672 262.3314 L 396.4848 262.2659 L 396.5008 262.2016 L 396.5167 262.135 L 396.5318 262.0695 L 396.5469 262.0029 L 396.5606 261.9375 L 396.5753 261.8709 L 396.5895 261.8031 L 396.6037 261.7388 L 396.6183 261.6711 L 396.633 261.6068 L 396.6252 261.5252 L 396.6209 261.4575 L 396.63 261.3897 L 396.6412 261.3461 L 397.0124 261.0785 L 397.809 260.5044 L 398.0243 259.9199 L 398.8494 257.6829 L 398.8713 257.6852 L 398.9372 257.699 L 399.004 257.7116 L 399.0699 257.7243 L 399.1353 257.7392 L 399.1986 257.7633 L 399.2593 257.792 L 399.3252 257.807 L 399.3915 257.8173 L 399.4587 257.8276 L 399.525 257.8403 L 399.5913 257.8529 L 399.6564 257.8713 L 399.7227 257.8816 L 399.7899 257.8827 L 399.8575 257.885 L 399.9251 257.8873 L 399.9927 257.8862 L 400.0599 257.8885 L 400.1279 257.8873 L 400.1955 257.8873 L 400.2614 257.9 L 400.326 257.9172 L 400.3897 257.939 L 400.4543 257.9597 L 400.5107 257.9987 L 400.5654 258.0389 L 400.6197 258.0837 L 400.6735 258.1285 L 400.7312 258.1549 L 400.7962 258.1457 L 400.8634 258.1262 L 400.9297 258.1055 L 400.9999 258.094 L 401.0714 258.0803 L 401.1356 258.0607 L 401.1859 258.024 L 401.2238 257.9735 L 401.2557 257.9172 L 401.2841 257.8563 L 401.3095 257.792 L 401.3345 257.7243 L 401.3603 257.66 L 401.3888 257.5957 L 401.4206 257.5371 L 401.4585 257.482 L 401.4994 257.4292 L 401.5429 257.3752 L 401.5881 257.3258 L 401.6333 257.2753 L 401.6786 257.2248 L 401.7221 257.1719 L 401.763 257.1191 L 401.8022 257.0628 L 401.84 257.0077 L 401.8758 256.9492 L 401.9098 256.8906 L 401.9404 256.8286 L 401.9684 256.77 L 401.9951 256.7057 L 402.0205 256.6437 L 402.045 256.5794 L 402.0683 256.5174 L 402.0907 256.4531 L 402.1118 256.3888 L 402.1316 256.3245 L 402.1505 256.2579 L 402.1656 256.1924 L 402.1764 256.1247 L 402.185 256.0581 L 402.1932 255.9903 L 402.2013 255.9226 L 402.2121 255.8548 L 402.2229 255.7905 L 402.2336 255.7227 L 402.2453 255.655 L 402.256 255.5884 L 402.2672 255.5229 L 402.278 255.4563 L 402.2892 255.3886 L 402.3 255.3208 L 402.3103 255.2531 L 402.3198 255.1888 L 402.3254 255.1187 L 402.3288 255.0475 L 402.3322 254.9775 L 402.3374 254.9097 L 402.3473 254.842 L 402.3641 254.78 L 402.3925 254.7249 L 402.439 254.6766 L 402.498 254.641 L 402.5605 254.6043 L 402.619 254.5652 L 402.6746 254.5262 L 402.7297 254.4849 L 402.7728 254.4573 L 403.1974 254.3643 L 403.2443 254.3643 L 403.3128 254.3608 L 403.3834 254.3551 L 403.4549 254.3482 L 403.5233 254.3505 L 403.5871 254.3608 L 403.6422 254.3872 L 403.6883 254.432 L 403.7283 254.4872 L 403.7658 254.548 L 403.8041 254.6089 L 403.8476 254.6617 L 403.8954 254.7088 L 403.9458 254.7536 L 403.9975 254.7983 L 404.0487 254.8431 L 404.0999 254.8879 L 404.1499 254.9361 L 404.1968 254.9832 L 404.2408 255.0338 L 404.2752 255.0912 L 404.2985 255.1566 L 404.32 255.2255 L 404.348 255.2864 L 404.3915 255.3335 L 404.4436 255.376 L 404.5009 255.415 L 404.562 255.4517 L 404.6257 255.4816 L 404.6899 255.5023 L 404.7541 255.5115 L 404.8187 255.5138 L 404.885 255.5103 L 404.9521 255.5011 L 405.0193 255.4896 L 405.0874 255.4759 L 405.155 255.4609 L 405.2226 255.4472 L 405.2893 255.4322 L 405.3556 255.4207 L 405.422 255.4093 L 405.4887 255.3955 L 405.5546 255.384 L 405.6209 255.3691 L 405.6864 255.3518 L 405.7518 255.3381 L 405.8168 255.3185 L 405.8814 255.2979 L 405.9456 255.2783 L 406.0093 255.2554 L 406.0735 255.2336 L 406.1368 255.2106 L 406.1997 255.1853 L 406.2621 255.1601 L 406.3232 255.1325 L 406.384 255.1015 L 406.443 255.0705 L 406.5011 255.0372 L 406.5584 255.0005 L 406.6143 254.9614 L 406.6699 254.9224 L 406.7254 254.8833 L 406.7806 254.8443 L 406.8357 254.8052 L 406.8912 254.7662 L 406.9481 254.7306 L 407.0049 254.6916 L 407.0618 254.6548 L 407.1177 254.6158 L 407.1716 254.5744 L 407.2237 254.5319 L 407.2723 254.4883 L 407.3154 254.4343 L 407.3516 254.3758 L 407.383 254.3149 L 407.4149 254.2506 L 407.4497 254.192 L 407.4907 254.1415 L 407.5406 254.1002 L 407.5962 254.0634 L 407.6552 254.0301 L 407.7167 254.0026 L 407.7809 253.9739 L 407.8464 253.952 L 407.9122 253.9314 L 407.9786 253.9153 L 408.0436 253.9004 L 408.1095 253.8946 L 408.1762 253.8912 L 408.2434 253.8958 L 408.311 253.9004 L 408.3799 253.905 L 408.4479 253.9118 L 408.5155 253.9176 L 408.5831 253.9222 L 408.6503 253.9233 L 408.7184 253.9233 L 408.7855 253.9256 L 408.8531 253.9268 L 408.9203 253.9268 L 408.9879 253.9279 L 409.0551 253.9325 L 409.1223 253.9383 L 409.1895 253.9428 L 409.2566 253.9474 L 409.3242 253.9543 L 409.3914 253.9647 L 409.4582 253.975 L 409.5245 253.9853 L 409.5904 253.998 L 409.655 254.0186 L 409.7019 254.0336 L 409.7178 254.0393 L 409.7811 254.0657 L 410.0731 263.3947 L 409.8905 263.5015 L 409.9465 293.5853 L 409.8263 296.3022 L 409.3772 298.9365 L 408.7033 300.5797 L 407.7353 302.0576 L 406.6087 303.4298 L 402.9584 307.3778 L 401.2712 309.4333 L 400.3324 310.8916 L 398.9463 313.7877 L 397.4847 315.9592 L 392.0787 322.0028 L 390.389 324.11 L 389.4528 325.5753 L 387.6606 328.8353 L 386.6038 329.9492 L 385.5273 330.6853 L 384.2828 331.1618 L 380.2474 332.0621 L 378.9039 332.6443 L 377.6318 333.4906 L 375.2879 335.5726 L 373.1004 337.8979 L 371.5803 339.7605 L 369.866 342.3775 L 369.8268 342.3419 L 368.4269 344.4675 L 366.8654 347.7115 Z" fill="#000000" fill-opacity="1" stroke="#000000" stroke-width="0" paint-order="fill" stroke-opacity="1" stroke-dasharray="" stroke-linecap="butt" stroke-linejoin="miter" stroke-miterlimit="10" transform="matrix(1.100000023841858,0,0,1.100000023841858,-39.999969482421875,-26.64995574951172)" clip-path="none" style="filter: url(#f1)"/>
<path data-code="206" d="M 369.1115 141.0684 L 368.2628 139.2437 L 364.7007 133.5928 L 362.9239 130.8759 L 362.8649 130.3867 L 362.5282 127.6124 L 363.6861 123.6162 L 364.5065 120.3182 L 365.8427 117.3716 L 367.0278 114.9877 L 368.8669 110.0752 L 369.9569 107.6786 L 371.048 105.3935 L 372.5178 104.3519 L 375.17 104.306 L 380.2457 104.2084 L 386.5978 104.4208 L 391.5615 104.4392 L 395.4621 104.0304 L 400.7704 104.2646 L 405.1511 104.2957 L 407.0058 104.0694 L 407.3249 104.0304 L 409.161 102.742 L 410.2251 101.6625 L 410.5102 100.4465 L 410.9132 99.2258 L 411.6384 97.7961 L 412.6219 96.4629 L 413.0017 95.9485 L 413.6201 95.0941 L 413.711 99.9504 L 416.6353 100.9644 L 420.6332 103.0164 L 422.1473 103.4562 L 425.2538 104.0844 L 426.7726 104.5896 L 427.4835 104.9548 L 428.8129 105.8689 L 430.0578 106.9402 L 437.0959 114.1908 L 438.9247 115.873 L 440.2174 116.848 L 441.6101 117.6196 L 443.7602 118.5682 L 447.6711 120.7465 L 451.3555 122.0912 L 453.2028 123.0822 L 461.3842 124.8897 L 462.6674 125.496 L 463.2329 125.9829 L 463.7268 126.6788 L 464.0575 127.455 L 464.262 128.2818 L 464.4063 130.0365 L 464.1557 132.8189 L 463.0895 136.9138 L 460.1651 139.8914 L 458.5727 141.9434 L 457.7661 143.4052 L 454.8069 149.7027 L 454.3948 151.3964 L 454.192 153.1522 L 454.0938 155.8462 L 454.1015 164.9443 L 453.9189 167.6165 L 453.6179 169.339 L 453.1051 170.8869 L 451.5221 174.317 L 449.9512 180.6477 L 448.0862 184.8023 L 447.6461 186.3686 L 446.9946 189.5851 L 446.5325 191.1514 L 444.4728 195.2222 L 443.2296 198.1814 L 441.4654 201.5449 L 440.9073 203.1146 L 440.7144 203.9885 L 440.4784 205.7833 L 440.3626 208.5324 L 440.4396 211.2872 L 440.6128 213.097 L 441.1937 215.6956 L 442.7624 219.1383 L 443.2632 220.6357 L 443.6547 223.1092 L 443.8437 226.5197 L 440.7824 225.7044 L 437.4442 224.0646 L 435.9999 223.5065 L 430.9746 222.3088 L 430.9668 222.3617 L 429.929 222.0677 L 427.5249 221.4797 L 425.4415 220.9986 L 425.2594 220.9148 L 425.2301 220.653 L 425.8097 213.9663 L 424.9028 211.4905 L 424.43 210.8773 L 422.4138 208.2648 L 422.8862 206.5527 L 423.3995 204.6913 L 423.5567 204.124 L 423.3332 201.1625 L 422.7678 198.9462 L 422.7011 198.6844 L 421.1758 196.212 L 420.8322 194.0268 L 420.9316 193.9453 L 421.0621 193.8373 L 421.1026 193.7902 L 421.2779 193.6685 L 421.3498 193.6053 L 421.4217 193.5525 L 421.4729 193.4894 L 421.5306 193.3665 L 421.5504 193.2643 L 421.5569 193.2023 L 421.553 193.1093 L 421.5543 192.8543 L 421.5466 192.7407 L 421.5797 192.5742 L 421.5892 192.4467 L 421.5918 192.3169 L 421.587 192.2101 L 421.5746 192.0586 L 422.5112 189.7275 L 421.4075 185.6429 L 421.2236 184.9619 L 420.9928 184.1087 L 420.8046 183.4128 L 420.5609 182.5102 L 420.0545 180.6373 L 419.9821 180.3698 L 420.1109 180.0919 L 421.544 177.0017 L 421.8708 176.2967 L 421.5001 173.5441 L 420.4399 170.7974 L 418.1899 169.6146 L 415.1772 169.2529 L 410.2587 168.6626 L 406.9722 167.3191 L 402.9726 163.7432 L 401.4658 161.5912 L 400.698 160.4946 L 398.5906 156.8992 L 398.0497 154.6657 L 395.0987 152.8031 L 392.8504 152.1394 L 390.2456 150.4468 L 387.9753 147.8883 L 386.0668 146.8766 L 384.1704 146.8996 L 382.1094 147.6127 L 379.0064 147.6506 L 377.302 146.825 L 372.7619 144.6259 L 369.9887 141.9239 L 369.1115 141.0684 Z" fill="#000000" fill-opacity="1" stroke="#000000" stroke-width="0" paint-order="fill" stroke-opacity="1" stroke-dasharray="" stroke-linecap="butt" stroke-linejoin="miter" stroke-miterlimit="10" transform="matrix(1.100000023841858,0,0,1.100000023841858,-39.999969482421875,-26.64995574951172)" clip-path="none" style="filter: url(#f1)"/>
<path data-code="207" d="M 509.1069 79.7502 L 508.2814 86.8411 L 507.9335 88.6808 L 507.4012 90.2758 L 505.8734 93.7311 L 505.3127 96.3872 L 505.0897 100.1192 L 505.0277 108.6673 L 504.8244 111.4554 L 504.2594 114.1069 L 502.4728 118.2753 L 502.0435 120.0552 L 501.758 122.8617 L 501.5439 131.4937 L 501.1551 134.2795 L 500.6293 135.8975 L 498.9529 139.3046 L 497.7136 142.2661 L 494.3594 148.1673 L 493.4448 149.357 L 491.2099 151.424 L 487.5522 142.7691 L 487.15 142.1226 L 486.172 140.9616 L 484.9887 140.0097 L 484.3195 139.6376 L 482.7055 139.1163 L 481.0197 138.89 L 472.2294 138.8361 L 469.6198 138.6466 L 467.9378 138.3297 L 463.0895 136.9138 L 464.1557 132.8189 L 464.4063 130.0365 L 464.262 128.2818 L 464.0575 127.455 L 463.7268 126.6788 L 463.2329 125.9829 L 462.6674 125.496 L 461.3842 124.8897 L 453.2028 123.0822 L 455.576 120.1735 L 457.6809 117.7988 L 461.5681 113.7016 L 464.399 110.8744 L 466.1606 109.3161 L 467.3957 108.4158 L 468.6079 107.759 L 470.8958 106.7439 L 472.1773 105.9251 L 473.3916 104.9456 L 476.8487 101.5971 L 486.9915 91.0256 L 488.7205 89.3525 L 490.5209 87.8321 L 491.799 86.9985 L 494.0774 85.9454 L 495.2767 85.2668 L 496.4975 84.3481 L 500.0182 81.2936 L 501.295 80.4346 L 501.9879 80.097 L 503.2914 79.7135 L 504.641 79.5424 L 506.7855 79.5458 L 509.1069 79.7502 Z" fill="#000000" fill-opacity="1" stroke="#000000" stroke-width="0" paint-order="fill" stroke-opacity="1" stroke-dasharray="" stroke-linecap="butt" stroke-linejoin="miter" stroke-miterlimit="10" transform="matrix(1.100000023841858,0,0,1.100000023841858,-39.999969482421875,-26.64995574951172)" clip-path="none" style="filter: url(#f1)"/>
<path data-code="208" d="M 409.7811 254.0657 L 409.7118 251.8472 L 411.6427 251.3913 L 413.2218 252.0022 L 413.6361 252.6981 L 415.0205 255.0234 L 417.429 257.0766 L 419.5515 257.1329 L 420.504 256.5783 L 421.9389 255.7423 L 424.3206 253.3182 L 424.7319 253.1092 L 426.9044 252.001 L 427.3251 251.7863 L 427.3479 251.7656 L 428.8917 250.4003 L 429.6366 248.881 L 429.895 245.9528 L 430.2817 241.5743 L 430.7433 238.4026 L 430.3265 235.75 L 428.9692 227.1111 L 428.278 226.15 L 426.4208 225.0568 L 425.5914 223.8901 L 425.2594 220.9148 L 425.4415 220.9986 L 427.5249 221.4797 L 429.929 222.0677 L 430.9668 222.3617 L 430.9746 222.3088 L 435.9999 223.5065 L 437.4442 224.0646 L 440.7824 225.7044 L 443.8437 226.5197 L 447.1332 226.2924 L 448.739 226.0547 L 450.2815 225.6413 L 453.4969 224.1347 L 455.1432 223.5387 L 457.7101 223.0977 L 460.3576 222.9611 L 463.89 223.1081 L 466.4513 223.5605 L 468.089 224.168 L 471.2837 225.7079 L 473.0364 226.181 L 474.87 226.4359 L 477.6944 226.5944 L 481.5188 226.6151 L 489.8069 226.2855 L 486.2702 231.7733 L 485.1915 233.8541 L 484.5568 236.4769 L 484.335 239.2041 L 484.4448 243.7836 L 484.9116 246.4466 L 485.1963 247.2952 L 485.8904 248.6916 L 488.6701 252.8083 L 488.0134 257.2523 L 487.8002 260.7409 L 487.8829 265.0563 L 488.2657 267.5562 L 488.7898 269.0777 L 490.5489 272.4354 L 491.8864 275.3487 L 492.7946 276.7589 L 495.9661 280.739 L 496.8842 282.1698 L 497.2554 282.9449 L 497.7579 284.641 L 498.0167 286.4071 L 498.173 289.1206 L 498.1881 292.7803 L 498.0796 295.5087 L 497.8957 297.2966 L 497.5318 299.0352 L 496.8734 300.6509 L 495.9618 302.0897 L 492.3441 306.7875 L 490.1092 310.972 L 488.7597 312.7026 L 487.2288 314.3424 L 483.6503 314.4434 L 482.0549 314.7133 L 480.5834 315.2231 L 477.3025 316.9755 L 474.4256 318.2398 L 470.5306 320.4905 L 467.6321 321.7284 L 463.7298 323.9194 L 461.6219 324.8725 L 460.3072 325.6602 L 459.1656 326.6478 L 458.1843 327.8064 L 457.3958 329.1534 L 456.4501 331.3157 L 454.7475 334.6883 L 454.2398 336.2202 L 453.9581 337.883 L 453.8285 339.5871 L 453.8173 345.6824 L 450.7793 344.8303 L 446.7547 342.9482 L 444.1275 342.3591 L 439.5134 342.1031 L 430.0905 342.1547 L 429.3055 340.4874 L 428.8882 339.9925 L 427.6657 339.2415 L 425.3924 338.7408 L 418.5451 338.2608 L 416.8623 337.8508 L 415.2005 337.1113 L 410.7815 334.7894 L 409.4082 333.8799 L 407.5936 332.0725 L 405.9008 329.7885 L 404.7295 328.8801 L 403.9785 328.5609 L 401.4486 328.0694 L 396.8104 327.9638 L 392.015 328.2336 L 387.6606 328.8353 L 389.4528 325.5753 L 390.389 324.11 L 392.0787 322.0028 L 397.4847 315.9592 L 398.9463 313.7877 L 400.3324 310.8916 L 401.2712 309.4333 L 402.9584 307.3778 L 406.6087 303.4298 L 407.7353 302.0576 L 408.7033 300.5797 L 409.3772 298.9365 L 409.8263 296.3022 L 409.9465 293.5853 L 409.8905 263.5015 L 410.0731 263.3947 L 409.7811 254.0657 Z" fill="#000000" fill-opacity="1" stroke="#000000" stroke-width="0" paint-order="fill" stroke-opacity="1" stroke-dasharray="" stroke-linecap="butt" stroke-linejoin="miter" stroke-miterlimit="10" transform="matrix(1.100000023841858,0,0,1.100000023841858,-39.999969482421875,-26.64995574951172)" clip-path="none" style="filter: url(#f1)"/>









</svg>