<?xml version="1.0" standalone="no"?>
<!-- Generator: Paintmaps.com , Online SVG vector map maker -->
<svg xmlns="http://www.w3.org/2000/svg" version="1.1" baseProfile="full"   style="background-color:#e0f2f1" width="800" height="500" viewBox="0 0 800 533">

<path data-code="200" d="M 647.2767 138.0411 L 647.3476 152.9326 L 647.2114 156.309 L 646.9558 158.5145 L 646.4356 160.6403 L 646.0606 161.5877 L 643.7861 165.973 L 642.5667 168.803 L 641.5454 170.564 L 640.2641 172.0713 L 638.7733 173.3489 L 637.0663 174.3593 L 634.3312 175.6475 L 631.7336 177.446 L 629.2767 179.6274 L 624.4777 184.244 L 621.9882 186.3473 L 620.2249 187.5033 L 616.5035 189.2584 L 613.8721 191.0614 L 610.6112 194.0175 L 607.5351 197.2378 L 605.4159 199.7781 L 604.1864 201.5631 L 603.6639 202.4939 L 601.9558 206.3343 L 600.8332 208.1539 L 598.7884 210.7166 L 593.5559 216.4592 L 591.4999 219.0144 L 590.3627 220.8265 L 588.1186 225.5121 L 586.9667 227.1815 L 581.8029 233.6612 L 580.6893 235.4868 L 578.3889 239.9247 L 578.3664 241.2684 L 577.5816 242.2082 L 576.9601 242.4934 L 575.4726 242.7577 L 572.9921 242.6586 L 567.0919 239.4488 L 563.2827 237.8349 L 559.0254 235.4778 L 557.1101 234.7692 L 555.0225 234.3728 L 551.7853 234.1431 L 537.474 234.1777 L 534.2773 233.7888 L 532.2416 233.1583 L 531.262 232.6613 L 529.457 231.4152 L 525.274 227.8031 L 522.6279 225.9039 L 518.9133 224.1399 L 513.8373 221.1853 L 510.0518 219.5879 L 504.9646 216.6738 L 502.1575 215.4172 L 500.33 214.3918 L 497.7977 212.3831 L 491.4539 206.2157 L 488.9846 204.0913 L 487.2337 202.9128 L 482.6352 200.5272 L 480.8786 199.2166 L 474.894 194.1316 L 473.0598 192.9216 L 469.4724 190.8828 L 470.6265 185.1718 L 471.3213 183.2336 L 473.3616 178.7116 L 474.1148 175.2271 L 474.4132 171.5759 L 474.5348 165.3605 L 474.4425 159.142 L 474.17 155.4833 L 473.4359 151.9913 L 471.4237 147.4633 L 470.7436 145.5416 L 469.5974 140.3291 L 468.9894 138.2858 L 466.3455 132.9456 L 464.7523 129.0602 L 462.0814 123.702 L 459.3385 113.1748 L 464.1938 115.2691 L 470.3833 118.5225 L 473.8041 119.3242 L 478.5782 119.644 L 495.6898 119.6485 L 501.7015 119.3137 L 505.1436 118.578 L 509.5991 116.6278 L 511.5696 116.0123 L 517.9449 115.2421 L 519.822 114.7797 L 520.6732 114.3368 L 521.4231 113.6552 L 521.9152 112.8385 L 522.182 111.9542 L 522.1663 110.1361 L 521.6314 108.5222 L 520.4919 106.1487 L 519.8006 104.2465 L 519.3164 101.993 L 518.5091 96.0493 L 518.0406 93.7178 L 517.3549 91.661 L 515.7436 88.0518 L 515.1018 85.941 L 514.755 83.5164 L 514.6627 81.0407 L 515.0208 76.262 L 518.0542 74.6631 L 522.8858 72.8225 L 528.0045 69.958 L 531.7506 68.2855 L 536.0339 65.9855 L 538.0483 65.2649 L 540.3329 64.8475 L 542.6817 64.6569 L 555.8884 64.5998 L 560.5713 64.1809 L 562.7929 63.615 L 567.1786 61.5762 L 569.1581 60.8871 L 571.3999 60.4487 L 577.147 59.7866 L 580.4889 59.0179 L 585.7743 56.5182 L 591.7611 54.6972 L 595.496 53.2994 L 594.7416 57.8634 L 593.7339 66.7647 L 593.1832 68.841 L 592.8128 69.7643 L 590.6993 74.2337 L 590.1442 76.3251 L 589.8267 78.514 L 589.5024 84.1649 L 589.5204 90.9599 L 589.8988 94.2402 L 590.5462 96.3196 L 591.0236 97.2264 L 592.2352 98.8253 L 593.7035 100.1464 L 594.5175 100.6899 L 599.0204 102.8022 L 603.2788 105.1968 L 607.0847 106.7792 L 612.1944 109.6813 L 615.9754 111.2937 L 621.0626 114.2077 L 624.7998 115.9222 L 626.5969 117.1022 L 629.1123 119.2491 L 631.523 121.6152 L 647.2767 138.0411 Z" fill="#000000" fill-opacity="1" stroke="#000000" stroke-width="0" paint-order="fill" stroke-opacity="1" stroke-dasharray="" stroke-linecap="butt" stroke-linejoin="miter" stroke-miterlimit="10" transform="matrix(0.949999988079071,0,0,0.949999988079071,20.0000057220459,13.324975967407227)" clip-path="none" style="filter: url(#f1)"/>
<path data-code="201" d="M 310.2795 211.0154 L 310.9394 206.7081 L 311.7962 203.6815 L 309.64 197.6612 L 307.2169 193.1963 L 305.4997 189.419 L 304.4424 187.4898 L 302.3312 184.7454 L 295.1744 177.0227 L 293.866 175.1205 L 293.3458 174.0741 L 292.7209 171.9647 L 292.498 169.7998 L 292.6432 167.6379 L 293.249 165.5331 L 294.3232 163.7811 L 295.7487 162.3608 L 296.5718 161.7798 L 298.5299 160.9091 L 300.7301 160.4902 L 306.4602 160.3506 L 328.7558 160.9931 L 331.993 160.7724 L 334.0142 160.2049 L 334.8271 159.7591 L 335.5737 159.13 L 336.2616 158.1842 L 336.7199 157.1303 L 337.0093 156.0103 L 337.2559 153.6322 L 337.1151 149.8579 L 336.7424 147.3042 L 336.1412 144.9876 L 335.005 141.9205 L 341.6889 138.496 L 345.5251 136.8896 L 350.645 133.9965 L 354.4091 132.3406 L 359.5087 129.4265 L 363.2751 127.7646 L 368.3759 124.843 L 372.1321 123.163 L 377.207 120.204 L 380.9542 118.5285 L 385.2318 116.2135 L 387.2316 115.4913 L 390.6366 114.9419 L 394.1542 114.7662 L 404.8915 114.7557 L 410.803 114.9494 L 413.1101 115.1836 L 415.3441 115.6234 L 417.3134 116.3336 L 421.6575 118.4429 L 423.8678 119.0479 L 428.5597 119.5704 L 438.2004 119.737 L 442.7911 119.4518 L 444.8719 119.0074 L 445.811 118.6411 L 447.2837 117.5737 L 449.7924 114.7752 L 455.3481 114.3068 L 457.3669 113.8609 L 459.3385 113.1748 L 462.0814 123.702 L 464.7523 129.0602 L 466.3455 132.9456 L 468.9894 138.2858 L 469.5974 140.3291 L 470.7436 145.5416 L 471.4237 147.4633 L 473.4359 151.9913 L 474.17 155.4833 L 474.4425 159.142 L 474.5348 165.3605 L 474.4132 171.5759 L 474.1148 175.2271 L 473.3616 178.7116 L 471.3213 183.2336 L 470.6265 185.1718 L 469.4724 190.8828 L 466.3275 192.0043 L 462.8663 192.6063 L 458.109 192.83 L 446.106 192.8195 L 441.4343 193.2218 L 439.2116 193.7803 L 434.8259 195.8446 L 432.9725 196.5457 L 426.9575 198.0666 L 425.9824 198.4539 L 424.0941 199.5349 L 417.1929 205.0086 L 411.742 208.1013 L 404.887 213.5931 L 402.9695 214.6591 L 400.7445 215.3422 L 397.2517 215.7791 L 392.4697 215.9157 L 385.2363 215.8406 L 380.5038 215.4938 L 378.2248 215.0374 L 376.2228 214.2762 L 370.3959 211.0184 L 310.2795 211.0154 Z" fill="#000000" fill-opacity="1" stroke="#000000" stroke-width="0" paint-order="fill" stroke-opacity="1" stroke-dasharray="" stroke-linecap="butt" stroke-linejoin="miter" stroke-miterlimit="10" transform="matrix(0.949999988079071,0,0,0.949999988079071,20.0000057220459,13.324975967407227)" clip-path="none" style="filter: url(#f1)"/>
<path data-code="202" d="M 338.7287 289.4185 L 336.1389 290.3823 L 331.8782 292.5082 L 329.9246 293.1177 L 324.8959 294.3038 L 323.0336 295.0079 L 318.64 297.0752 L 316.3857 297.6547 L 312.8457 298.0375 L 309.2211 298.1396 L 290.9092 297.976 L 287.3387 298.2372 L 285.0282 298.6846 L 282.1175 299.9157 L 273.6648 304.9781 L 274.4642 299.15 L 274.8076 293.0772 L 274.811 287.0359 L 274.6601 284.6608 L 274.3178 282.3383 L 273.6434 280.1178 L 273.1524 279.1165 L 271.9442 277.2699 L 267.92 272.0513 L 266.9156 270.0966 L 266.5924 269.0682 L 266.2603 266.9498 L 266.356 263.7881 L 266.7737 261.8108 L 268.1733 257.7062 L 268.1463 255.9737 L 267.9121 255.121 L 267.1712 253.4635 L 263.4296 247.2301 L 270.5998 243.8341 L 274.4383 242.2682 L 276.1318 241.1903 L 277.716 239.8932 L 279.2361 238.4684 L 287.3376 230.0956 L 290.398 227.2836 L 292.0239 226.0901 L 292.8741 225.5886 L 295.8692 224.269 L 297.4523 223.4132 L 299.836 221.5891 L 303.5687 218.0115 L 310.2795 211.0154 L 370.3959 211.0184 L 365.848 217.9785 L 364.8594 219.7455 L 364.1106 221.6897 L 363.0297 226.9278 L 362.4611 228.9786 L 359.8375 234.3323 L 358.1474 238.1892 L 356.3143 240.9561 L 352.7753 245.2934 L 351.4838 247.0995 L 346.9236 256.2875 L 346.2401 258.3368 L 345.7627 261.7838 L 345.6096 273.6727 L 345.4317 276.0102 L 345.0252 278.2907 L 344.6874 279.3912 L 343.8237 281.2408 L 338.7287 289.4185 Z" fill="#000000" fill-opacity="1" stroke="#000000" stroke-width="0" paint-order="fill" stroke-opacity="1" stroke-dasharray="" stroke-linecap="butt" stroke-linejoin="miter" stroke-miterlimit="10" transform="matrix(0.949999988079071,0,0,0.949999988079071,20.0000057220459,13.324975967407227)" clip-path="none" style="filter: url(#f1)"/>
<path data-code="203" d="M 453.176 448.9645 L 444.8043 444.1588 L 442.2393 442.0675 L 440.7102 441.1517 L 438.8017 440.5782 L 433.6582 439.7315 L 431.762 439.2045 L 430.9266 438.8187 L 428.3188 436.9916 L 426.4159 436.2829 L 424.2281 435.9136 L 417.2267 435.4032 L 414.0413 434.7381 L 413.1315 434.3282 L 410.5327 432.4576 L 409.6747 432.0252 L 403.4019 429.9654 L 401.3593 428.7539 L 394.8106 423.4482 L 390.837 420.7519 L 388.6278 418.2882 L 386.2328 416.2074 L 384.3434 413.7633 L 382.3505 411.7635 L 381.6963 410.5369 L 383.0655 406.7957 L 384.5788 403.2616 L 385.7521 400.0728 L 386.601 398.4018 L 387.1629 397.5476 L 389.1041 395.1274 L 394.1136 389.7557 L 396.1291 387.3822 L 397.7956 384.8404 L 399.4834 381.0001 L 400.534 379.2781 L 403.1474 376.0713 L 408.1929 370.6846 L 410.2602 368.308 L 411.5078 366.6415 L 414.4579 362.052 L 418.4067 362.7306 L 420.4121 363.3702 L 421.3872 363.8596 L 423.2057 365.0802 L 427.4473 368.6278 L 429.1892 369.9369 L 434.693 372.9095 L 436.445 374.2562 L 438.9379 376.5652 L 447.7004 385.7367 L 449.3736 387.2606 L 451.1819 388.5727 L 452.1705 389.0952 L 454.2187 389.7557 L 456.3153 390.0635 L 458.4029 390.1266 L 461.4081 389.7768 L 463.2176 389.1057 L 464.0103 388.5667 L 465.1847 387.145 L 466.6462 384.7128 L 467.8746 383.0269 L 472.2525 377.9629 L 482.4516 367.224 L 484.9266 365.0156 L 486.7214 363.786 L 487.6942 363.2996 L 489.7413 362.6811 L 492.9346 362.3087 L 497.3011 362.2412 L 509.4944 362.4123 L 509.7534 366.8998 L 510.0169 369.0601 L 510.4718 371.0869 L 511.8905 375.3101 L 511.8916 377.0336 L 510.1554 382.2177 L 508.749 388.4241 L 508.0002 390.3262 L 506.184 393.8213 L 505.4994 395.7865 L 505.1605 397.9304 L 505.1402 400.1118 L 505.4589 402.2812 L 505.782 403.3396 L 506.2291 404.3485 L 507.3821 406.2026 L 509.4742 408.7474 L 513.3622 412.6988 L 515.0084 414.1596 L 516.7424 415.4687 L 518.6318 416.5122 L 520.68 417.1442 L 523.862 417.6216 L 529.5178 418.1666 L 527.3345 420.872 L 524.9035 424.1794 L 523.8485 425.9104 L 523.4262 426.8487 L 523.0963 427.8966 L 522.7574 430.057 L 522.7664 432.2429 L 523.129 434.3988 L 523.4735 435.4422 L 524.434 437.2513 L 525.6309 438.8937 L 528.8782 442.8212 L 530.0436 444.4636 L 531.0086 446.2637 L 532.3046 449.1327 L 533.3721 450.8532 L 535.9933 454.0645 L 540.3633 458.6615 L 538.0224 460.6312 L 536.401 461.8083 L 534.8212 462.6911 L 531.8463 464.0933 L 530.1821 465.1952 L 527.0801 467.9126 L 521.1123 473.8443 L 518.7331 475.7825 L 517.1432 476.7043 L 511.8545 479.1364 L 510.2173 479.6529 L 509.3379 479.6994 L 508.463 479.5418 L 506.863 478.7806 L 505.3823 477.6757 L 502.4458 475.1159 L 500.8863 473.9104 L 495.5435 470.9948 L 493.9333 469.7742 L 489.2988 465.7312 L 486.8306 464.0137 L 483.0833 462.3112 L 479.6941 460.385 L 477.9252 459.5398 L 476.1529 459.0143 L 471.6028 458.1496 L 469.8339 457.6181 L 468.9376 457.2233 L 464.678 454.8452 L 460.8969 453.2193 L 455.8086 450.1536 L 453.176 448.9645 Z" fill="#000000" fill-opacity="1" stroke="#000000" stroke-width="0" paint-order="fill" stroke-opacity="1" stroke-dasharray="" stroke-linecap="butt" stroke-linejoin="miter" stroke-miterlimit="10" transform="matrix(0.949999988079071,0,0,0.949999988079071,20.0000057220459,13.324975967407227)" clip-path="none" style="filter: url(#f1)"/>
<path data-code="204" d="M 224.2993 414.646 L 226.0469 409.3449 L 229.0859 402.9163 L 229.6601 400.8775 L 230.7996 395.6724 L 231.1678 394.659 L 232.26 392.6398 L 233.6304 390.7736 L 235.9533 388.1253 L 252.5604 371.0134 L 254.3125 369.5015 L 256.2019 368.2164 L 257.2265 367.712 L 259.3884 367.0859 L 261.6257 366.8112 L 263.9047 366.7331 L 274.2097 366.8742 L 276.4144 366.6265 L 277.4886 366.3698 L 278.5358 365.9779 L 280.2304 364.906 L 281.63 363.4723 L 282.685 361.7322 L 283.0791 360.6483 L 283.5137 358.3963 L 283.6995 354.8953 L 283.5532 342.7947 L 283.5813 329.4435 L 283.4383 325.8719 L 283.1636 323.5433 L 282.9327 322.4083 L 282.2425 320.359 L 279.9984 315.9572 L 278.341 312.1003 L 277.3253 310.3528 L 273.6648 304.9781 L 282.1175 299.9157 L 285.0282 298.6846 L 287.3387 298.2372 L 290.9092 297.976 L 309.2211 298.1396 L 312.8457 298.0375 L 316.3857 297.6547 L 318.64 297.0752 L 323.0336 295.0079 L 324.8959 294.3038 L 329.9246 293.1177 L 331.8782 292.5082 L 336.1389 290.3823 L 338.7287 289.4185 L 340.0686 291.777 L 342.1134 295.9297 L 343.2517 297.2673 L 345.3585 298.8933 L 346.9416 300.3991 L 348.304 302.2427 L 348.8411 303.2936 L 349.5088 305.5366 L 349.8286 307.8846 L 350.2036 312.6123 L 350.5932 314.8808 L 350.9253 315.9632 L 351.3904 317.0216 L 352.594 318.9583 L 354.8212 321.5075 L 357.375 323.6409 L 359.2531 324.7023 L 361.1684 325.3329 L 363.962 326.0115 L 365.6465 326.6676 L 366.9976 327.7725 L 369.0514 330.6971 L 370.3047 332.0843 L 372.5578 333.8619 L 376.2048 335.6124 L 381.2785 338.573 L 384.1059 339.8191 L 385.9649 340.8415 L 387.7304 342.1521 L 391.9585 345.7823 L 394.6462 347.6499 L 398.3957 349.3479 L 402.6182 351.8056 L 406.2574 353.496 L 408.0049 354.5064 L 409.5554 355.7765 L 410.9595 357.2463 L 414.4579 362.052 L 411.5078 366.6415 L 410.2602 368.308 L 408.1929 370.6846 L 403.1474 376.0713 L 400.534 379.2781 L 399.4834 381.0001 L 397.7956 384.8404 L 396.1291 387.3822 L 394.1136 389.7557 L 389.1041 395.1274 L 387.1629 397.5476 L 386.601 398.4018 L 385.7521 400.0728 L 384.5788 403.2616 L 383.0655 406.7957 L 381.6963 410.5369 L 373.3651 405.4205 L 371.6074 404.5212 L 369.6279 403.8696 L 364.588 402.6776 L 362.7358 401.9614 L 358.367 399.8296 L 355.0577 399.0639 L 352.7618 398.8507 L 349.2713 398.7786 L 345.7953 398.9558 L 343.5287 399.2741 L 341.3567 399.8626 L 337.0217 401.9584 L 335.1818 402.6145 L 332.2498 403.1279 L 326.4329 403.6759 L 324.5548 404.0858 L 323.6427 404.4101 L 321.7995 405.428 L 319.2998 407.4352 L 312.3412 414.4884 L 308.0107 419.4232 L 306.2823 422.1196 L 304.7048 426.095 L 301.3482 433.492 L 296.073 429.5826 L 290.2685 424.4691 L 288.4715 423.3431 L 287.4918 422.9468 L 285.4898 422.6345 L 283.5137 422.8912 L 281.8 423.5758 L 278.4772 425.2438 L 275.4641 425.999 L 272.2719 426.2407 L 269.0651 426.071 L 265.9855 425.3639 L 261.6437 423.223 L 259.6868 422.5144 L 256.3403 421.9619 L 248.2682 421.5205 L 244.9105 420.9981 L 242.9355 420.309 L 239.4787 418.5675 L 237.6073 417.8573 L 231.4572 416.5977 L 226.9431 415.2676 L 224.2993 414.646 Z" fill="#000000" fill-opacity="1" stroke="#000000" stroke-width="0" paint-order="fill" stroke-opacity="1" stroke-dasharray="" stroke-linecap="butt" stroke-linejoin="miter" stroke-miterlimit="10" transform="matrix(0.949999988079071,0,0,0.949999988079071,20.0000057220459,13.324975967407227)" clip-path="none" style="filter: url(#f1)"/>
<path data-code="205" d="M 194.0464 318.6986 L 193.6038 316.5307 L 191.7572 312.1949 L 191.1346 310.2522 L 190.7596 308.1293 L 190.1403 301.5536 L 189.7642 299.4112 L 189.1326 297.4295 L 187.1486 292.903 L 185.4956 285.6337 L 185.1331 284.6098 L 184.0566 282.5635 L 181.2056 278.8642 L 177.9673 275.4473 L 175.3573 273.1307 L 173.4566 271.8426 L 171.4073 270.9733 L 168.2422 270.4073 L 163.8959 270.2662 L 158.383 270.5109 L 152.6518 271.167 L 156.1986 265.1407 L 159.1678 261.4595 L 162.4253 258.0125 L 164.9971 255.6179 L 166.8155 254.2067 L 168.7804 253.0792 L 170.7666 252.3991 L 175.7941 251.2476 L 177.6464 250.56 L 182.0253 248.4927 L 185.2761 247.7766 L 190.9758 247.4718 L 210.7627 247.5799 L 225.0706 247.5213 L 231.0575 247.9012 L 234.4478 248.6984 L 238.623 250.7146 L 240.7635 251.5148 L 244.1122 252.1244 L 248.7332 252.3556 L 253.3385 252.0568 L 256.6444 251.2191 L 258.768 250.1276 L 263.4296 247.2301 L 267.1712 253.4635 L 267.9121 255.121 L 268.1463 255.9737 L 268.1733 257.7062 L 266.7737 261.8108 L 266.356 263.7881 L 266.2603 266.9498 L 266.5924 269.0682 L 266.9156 270.0966 L 267.92 272.0513 L 271.9442 277.2699 L 273.1524 279.1165 L 273.6434 280.1178 L 274.3178 282.3383 L 274.6601 284.6608 L 274.811 287.0359 L 274.8076 293.0772 L 274.4642 299.15 L 273.6648 304.9781 L 277.3253 310.3528 L 278.341 312.1003 L 279.9984 315.9572 L 282.2425 320.359 L 282.9327 322.4083 L 283.1636 323.5433 L 283.4383 325.8719 L 283.5813 329.4435 L 283.5532 342.7947 L 283.6995 354.8953 L 283.5137 358.3963 L 283.0791 360.6483 L 282.685 361.7322 L 281.63 363.4723 L 280.2304 364.906 L 278.5358 365.9779 L 277.4886 366.3698 L 276.4144 366.6265 L 274.2097 366.8742 L 263.9047 366.7331 L 261.6257 366.8112 L 259.3884 367.0859 L 257.2265 367.712 L 256.2019 368.2164 L 254.3125 369.5015 L 252.5604 371.0134 L 235.9533 388.1253 L 233.6304 390.7736 L 232.26 392.6398 L 231.1678 394.659 L 230.7996 395.6724 L 229.6601 400.8775 L 229.0859 402.9163 L 226.0469 409.3449 L 224.2993 414.646 L 222.0316 413.4119 L 217.2856 411.5293 L 213.1554 409.3929 L 210.9316 408.5882 L 208.5794 408.1498 L 206.1597 407.9276 L 197.7193 407.6229 L 198.7012 403.0544 L 199.1561 396.4846 L 199.2417 347.216 L 198.9624 343.3321 L 198.5323 340.831 L 197.7813 338.5084 L 195.9234 334.1561 L 195.3401 331.8081 L 194.0464 318.6986 Z" fill="#000000" fill-opacity="1" stroke="#000000" stroke-width="0" paint-order="fill" stroke-opacity="1" stroke-dasharray="" stroke-linecap="butt" stroke-linejoin="miter" stroke-miterlimit="10" transform="matrix(0.949999988079071,0,0,0.949999988079071,20.0000057220459,13.324975967407227)" clip-path="none" style="filter: url(#f1)"/>
<path data-code="206" d="M 338.7287 289.4185 L 343.8237 281.2408 L 344.6874 279.3912 L 345.0252 278.2907 L 345.4317 276.0102 L 345.6096 273.6727 L 345.7627 261.7838 L 346.2401 258.3368 L 346.9236 256.2875 L 351.4838 247.0995 L 352.7753 245.2934 L 356.3143 240.9561 L 358.1474 238.1892 L 359.8375 234.3323 L 362.4611 228.9786 L 363.0297 226.9278 L 364.1106 221.6897 L 364.8594 219.7455 L 365.848 217.9785 L 370.3959 211.0184 L 376.2228 214.2762 L 378.2248 215.0374 L 380.5038 215.4938 L 385.2363 215.8406 L 392.4697 215.9157 L 397.2517 215.7791 L 400.7445 215.3422 L 402.9695 214.6591 L 404.887 213.5931 L 411.742 208.1013 L 417.1929 205.0086 L 424.0941 199.5349 L 425.9824 198.4539 L 426.9575 198.0666 L 432.9725 196.5457 L 434.8259 195.8446 L 439.2116 193.7803 L 441.4343 193.2218 L 446.106 192.8195 L 458.109 192.83 L 462.8663 192.6063 L 466.3275 192.0043 L 469.4724 190.8828 L 473.0598 192.9216 L 474.894 194.1316 L 480.8786 199.2166 L 482.6352 200.5272 L 487.2337 202.9128 L 488.9846 204.0913 L 491.4539 206.2157 L 497.7977 212.3831 L 500.33 214.3918 L 502.1575 215.4172 L 504.9646 216.6738 L 510.0518 219.5879 L 513.8373 221.1853 L 518.9133 224.1399 L 522.6279 225.9039 L 525.274 227.8031 L 529.457 231.4152 L 531.262 232.6613 L 532.2416 233.1583 L 534.2773 233.7888 L 537.474 234.1777 L 551.7853 234.1431 L 555.0225 234.3728 L 557.1101 234.7692 L 559.0254 235.4778 L 563.2827 237.8349 L 567.0919 239.4488 L 572.9921 242.6586 L 571.4326 250.036 L 570.8201 252.1138 L 568.1425 257.472 L 566.5188 261.3559 L 563.5665 266.603 L 562.5936 268.7349 L 560.1626 272.9671 L 558.2394 275.4998 L 556.1462 277.8554 L 553.9562 280.0818 L 550.8642 282.7391 L 549.1921 283.8021 L 544.5655 285.8994 L 540.3329 288.3676 L 536.5383 289.9499 L 531.45 292.9015 L 527.6611 294.5094 L 522.5727 297.461 L 518.7782 299.0449 L 513.6865 301.9635 L 510.6654 303.2411 L 509.0485 304.1043 L 507.3978 305.2859 L 505.8192 306.622 L 502.0359 310.2792 L 499.195 313.453 L 497.4858 316.0142 L 496.7032 317.9855 L 496.165 321.2403 L 496.0907 323.4593 L 496.1909 325.6812 L 496.7325 328.9421 L 497.4509 330.9253 L 499.7828 335.3076 L 501.4132 339.178 L 503.2756 342.6851 L 504.1021 344.5032 L 504.6988 346.5525 L 505.7832 351.798 L 506.4588 353.7392 L 508.5137 358.2522 L 509.0846 360.3045 L 509.4944 362.4123 L 497.3011 362.2412 L 492.9346 362.3087 L 489.7413 362.6811 L 487.6942 363.2996 L 486.7214 363.786 L 484.9266 365.0156 L 482.4516 367.224 L 472.2525 377.9629 L 467.8746 383.0269 L 466.6462 384.7128 L 465.1847 387.145 L 464.0103 388.5667 L 463.2176 389.1057 L 461.4081 389.7768 L 458.4029 390.1266 L 456.3153 390.0635 L 454.2187 389.7557 L 452.1705 389.0952 L 451.1819 388.5727 L 449.3736 387.2606 L 447.7004 385.7367 L 438.9379 376.5652 L 436.445 374.2562 L 434.693 372.9095 L 429.1892 369.9369 L 427.4473 368.6278 L 423.2057 365.0802 L 421.3872 363.8596 L 420.4121 363.3702 L 418.4067 362.7306 L 414.4579 362.052 L 410.9595 357.2463 L 409.5554 355.7765 L 408.0049 354.5064 L 406.2574 353.496 L 402.6182 351.8056 L 398.3957 349.3479 L 394.6462 347.6499 L 391.9585 345.7823 L 387.7304 342.1521 L 385.9649 340.8415 L 384.1059 339.8191 L 381.2785 338.573 L 376.2048 335.6124 L 372.5578 333.8619 L 370.3047 332.0843 L 369.0514 330.6971 L 366.9976 327.7725 L 365.6465 326.6676 L 363.962 326.0115 L 361.1684 325.3329 L 359.2531 324.7023 L 357.375 323.6409 L 354.8212 321.5075 L 352.594 318.9583 L 351.3904 317.0216 L 350.9253 315.9632 L 350.5932 314.8808 L 350.2036 312.6123 L 349.8286 307.8846 L 349.5088 305.5366 L 348.8411 303.2936 L 348.304 302.2427 L 346.9416 300.3991 L 345.3585 298.8933 L 343.2517 297.2673 L 342.1134 295.9297 L 340.0686 291.777 L 338.7287 289.4185 Z" fill="#000000" fill-opacity="1" stroke="#000000" stroke-width="0" paint-order="fill" stroke-opacity="1" stroke-dasharray="" stroke-linecap="butt" stroke-linejoin="miter" stroke-miterlimit="10" transform="matrix(0.949999988079071,0,0,0.949999988079071,20.0000057220459,13.324975967407227)" clip-path="none" style="filter: url(#f1)"/>







</svg>