<?xml version="1.0" standalone="no"?>
<!-- Generator: Paintmaps.com , Online SVG vector map maker -->
<svg xmlns="http://www.w3.org/2000/svg" version="1.1" baseProfile="full"   style="background-color:#e0f2f1" width="800" height="500" viewBox="0 0 800 533">

<path data-code="200" d="M 429.4135 83.422 L 427.1268 86.5223 L 425.8992 88.8034 L 425.143 91.3282 L 424.7511 93.9699 L 424.4962 100.7924 L 424.6994 132.7519 L 424.4205 138.0371 L 423.8963 140.9129 L 423.2386 142.7308 L 420.768 147.4757 L 419.0944 151.6212 L 416.019 157.1821 L 414.6544 160.4875 L 413.7347 162.2508 L 411.0657 165.7502 L 405.6037 171.4586 L 400.862 176.3462 L 387.1501 176.2677 L 383.4628 176.4152 L 381.0534 176.6684 L 377.6209 177.5244 L 372.1097 180.3137 L 371.0445 180.6584 L 368.8335 181.0623 L 365.4395 181.0303 L 363.2069 180.4852 L 362.1225 179.9883 L 360.1712 178.6898 L 357.7053 176.2997 L 356.4249 174.4963 L 355.6362 172.4717 L 355.5473 171.3608 L 355.7312 170.282 L 356.1232 169.3073 L 357.2689 167.5648 L 360.1123 164.2161 L 361.436 162.3534 L 362.3882 160.2326 L 362.8655 157.9595 L 362.9605 155.6223 L 362.8631 154.4489 L 362.316 152.1389 L 361.2087 149.9732 L 358.9473 147.1712 L 356.277 144.7762 L 354.2873 143.4778 L 353.2113 142.9728 L 352.1232 142.6089 L 349.8954 142.1729 L 343.1134 141.591 L 340.9048 141.1967 L 338.8646 140.5026 L 334.207 138.2647 L 332.0982 137.6299 L 326.6856 136.4052 L 324.685 135.6374 L 320.0382 133.3338 L 315.7437 132.2326 L 316.1717 129.9755 L 316.7849 127.7826 L 319.056 122.9959 L 319.799 120.9264 L 320.9183 115.2998 L 321.5218 113.1037 L 324.1332 107.3183 L 324.7175 105.1382 L 325.8632 99.5437 L 326.2516 98.4568 L 327.3625 96.3969 L 329.5193 93.5836 L 331.9455 90.9194 L 343.9105 78.8165 L 346.5363 76.428 L 348.3385 75.0222 L 352.8494 72.3163 L 354.3318 70.9794 L 356.3708 68.796 L 359.0519 67.4463 L 363.5532 64.75 L 367.5579 62.9514 L 369.3132 61.8068 L 370.9592 60.4379 L 373.2771 58.1263 L 374.7319 56.4624 L 377.1833 53.3012 L 384.2839 54.3816 L 386.4408 55.0805 L 387.3978 55.5679 L 389.1783 56.7733 L 394.1197 61.0085 L 395.8305 62.2861 L 397.7145 63.3377 L 400.7117 64.6795 L 406.1195 67.8502 L 409.1276 69.1727 L 411.0284 70.2067 L 412.7621 71.4715 L 418.581 76.3864 L 420.3496 77.555 L 423.318 78.9784 L 425.1983 80.0332 L 426.9248 81.3044 L 429.4135 83.422 Z" fill="#000000" fill-opacity="1" stroke="#000000" stroke-width="0" paint-order="fill" stroke-opacity="1" stroke-dasharray="" stroke-linecap="butt" stroke-linejoin="miter" stroke-miterlimit="10" clip-path="none" style="filter: url(#f1)"/>
<path data-code="201" d="M 400.862 176.3462 L 400.8993 216.2535 L 400.6227 221.2854 L 399.8641 224.8922 L 399.0141 226.872 L 397.0652 230.607 L 395.2462 234.7044 L 393.9453 236.7562 L 390.7509 240.5474 L 381.027 250.5086 L 377.5921 254.2308 L 375.2308 257.1932 L 372.4103 261.7025 L 366.9279 258.45 L 360.9455 254.4745 L 359.415 253.2402 L 358.274 251.6195 L 354.785 245.3629 L 353.079 241.3906 L 352.0451 239.4894 L 349.9772 237.0881 L 348.3096 235.8056 L 340.7618 231.9744 L 338.8261 231.1489 L 335.5283 230.474 L 329.9113 230.0396 L 327.7159 229.7013 L 325.6096 229.0024 L 323.8362 227.8755 L 323.0523 227.1798 L 321.6938 225.5912 L 320.631 223.7397 L 318.747 219.6984 L 315.8748 215.6909 L 313.3921 212.8375 L 310.7567 210.146 L 308.892 208.5125 L 306.8746 207.1227 L 305.7793 206.5761 L 303.4457 205.8788 L 301.034 205.5533 L 298.5789 205.4235 L 288.5725 205.5566 L 279.8861 206.1513 L 285.7471 196.3231 L 286.5346 194.2424 L 287.6539 188.6254 L 288.2478 186.4212 L 292.8682 176.7005 L 294.0993 174.9917 L 296.3872 172.8757 L 298.1702 171.8081 L 300.9931 170.4006 L 302.657 169.2015 L 304.7983 166.906 L 305.9104 165.0449 L 310.0125 156.2956 L 310.7291 152.8827 L 311.3591 145.8503 L 311.7654 143.566 L 312.4567 141.4564 L 314.6533 136.6489 L 315.7437 132.2326 L 320.0382 133.3338 L 324.685 135.6374 L 326.6856 136.4052 L 332.0982 137.6299 L 334.207 138.2647 L 338.8646 140.5026 L 340.9048 141.1967 L 343.1134 141.591 L 349.8954 142.1729 L 352.1232 142.6089 L 353.2113 142.9728 L 354.2873 143.4778 L 356.277 144.7762 L 358.9473 147.1712 L 361.2087 149.9732 L 362.316 152.1389 L 362.8631 154.4489 L 362.9605 155.6223 L 362.8655 157.9595 L 362.3882 160.2326 L 361.436 162.3534 L 360.1123 164.2161 L 357.2689 167.5648 L 356.1232 169.3073 L 355.7312 170.282 L 355.5473 171.3608 L 355.6362 172.4717 L 356.4249 174.4963 L 357.7053 176.2997 L 360.1712 178.6898 L 362.1225 179.9883 L 363.2069 180.4852 L 365.4395 181.0303 L 368.8335 181.0623 L 371.0445 180.6584 L 372.1097 180.3137 L 377.6209 177.5244 L 381.0534 176.6684 L 383.4628 176.4152 L 387.1501 176.2677 L 400.862 176.3462 Z" fill="#000000" fill-opacity="1" stroke="#000000" stroke-width="0" paint-order="fill" stroke-opacity="1" stroke-dasharray="" stroke-linecap="butt" stroke-linejoin="miter" stroke-miterlimit="10" clip-path="none" style="filter: url(#f1)"/>
<path data-code="202" d="M 547.4847 255.4892 L 543.8863 255.0179 L 541.5467 254.8672 L 539.2191 254.8656 L 536.9264 255.0371 L 534.7058 255.4523 L 533.6418 255.789 L 529.0371 258.1182 L 528.0801 258.5221 L 525.9244 259.0992 L 522.522 259.4807 L 514.4115 259.7741 L 511.0379 260.2903 L 508.9869 261.0325 L 504.4315 263.538 L 500.4063 265.2644 L 494.9961 268.4224 L 491.994 269.7449 L 490.0259 270.8237 L 487.2847 272.9702 L 483.8462 276.2788 L 460.2276 300.616 L 456.1952 305.0291 L 454.7621 306.8918 L 453.5587 308.8732 L 451.4054 313.9788 L 447.7337 321.0097 L 445.0406 318.2204 L 443.8263 316.5116 L 442.3727 313.6614 L 439.2384 308.1903 L 437.5324 304.0464 L 435.5895 300.2922 L 434.7287 298.314 L 433.9388 294.6992 L 433.6226 289.6529 L 433.7056 281.9824 L 434.2009 276.9874 L 434.4582 275.7851 L 435.1952 273.6146 L 437.4182 268.8296 L 438.041 266.6575 L 439.2444 261.0677 L 440.0127 258.995 L 442.4449 254.2773 L 444.1509 250.1175 L 447.2143 244.5117 L 448.9576 240.3695 L 452.0438 234.7797 L 453.7679 230.6391 L 455.7083 226.8816 L 456.5463 224.9035 L 457.1174 222.4957 L 457.3855 219.9998 L 457.7991 209.8575 L 458.2571 207.4032 L 458.6479 206.2154 L 459.7984 204.0273 L 461.2664 202.0379 L 469.7676 192.7724 L 471.3066 190.8039 L 474.501 186.1567 L 478.8905 186.2177 L 482.3482 186.4581 L 485.6773 187.1859 L 487.6117 188.0403 L 494.1088 191.474 L 496.6684 193.3319 L 498.6918 195.6915 L 501.7011 201.2108 L 503.0368 202.7849 L 504.6286 204.1154 L 505.5183 204.6573 L 507.5454 205.4748 L 513.8452 207.1371 L 519.4923 209.6988 L 523.1809 210.4859 L 527.0293 210.7552 L 556.9911 210.7472 L 555.8898 215.1907 L 553.0404 220.8767 L 551.3176 224.9868 L 548.9202 229.6997 L 547.9055 233.0965 L 547.5797 235.5844 L 547.3862 239.406 L 547.4847 255.4892 Z" fill="#000000" fill-opacity="1" stroke="#000000" stroke-width="0" paint-order="fill" stroke-opacity="1" stroke-dasharray="" stroke-linecap="butt" stroke-linejoin="miter" stroke-miterlimit="10" clip-path="none" style="filter: url(#f1)"/>
<path data-code="203" d="M 534.3944 169.2448 L 534.5712 170.3349 L 535.2204 172.0726 L 535.7253 172.8821 L 537.007 174.3713 L 538.5771 175.6201 L 542.3631 177.5597 L 544.1136 178.7059 L 550.8331 184.2347 L 552.6461 185.3536 L 554.6827 186.192 L 559.5675 187.8768 L 562.4085 188.5132 L 561.6547 195.9721 L 561.0343 199.433 L 560.3178 201.5394 L 558.1128 206.3452 L 556.9911 210.7472 L 527.0293 210.7552 L 523.1809 210.4859 L 519.4923 209.6988 L 513.8452 207.1371 L 507.5454 205.4748 L 505.5183 204.6573 L 504.6286 204.1154 L 503.0368 202.7849 L 501.7011 201.2108 L 498.6918 195.6915 L 496.6684 193.3319 L 494.1088 191.474 L 487.6117 188.0403 L 485.6773 187.1859 L 482.3482 186.4581 L 478.8905 186.2177 L 474.501 186.1567 L 439.646 186.2866 L 435.7915 186.1792 L 432.0272 185.7656 L 428.6512 184.7236 L 424.0802 182.2742 L 419.1641 179.9915 L 415.5898 177.8114 L 409.8285 174.8185 L 405.6037 171.4586 L 411.0657 165.7502 L 413.7347 162.2508 L 414.6544 160.4875 L 416.019 157.1821 L 419.0944 151.6212 L 420.768 147.4757 L 423.2386 142.7308 L 423.8963 140.9129 L 424.4205 138.0371 L 424.6994 132.7519 L 424.4962 100.7924 L 424.7511 93.9699 L 425.143 91.3282 L 425.8992 88.8034 L 427.1268 86.5223 L 429.4135 83.422 L 436.4696 83.3852 L 441.0334 82.9171 L 444.1497 81.928 L 448.7724 79.6453 L 452.1929 78.8326 L 458.2391 78.4254 L 468.1037 78.4446 L 472.9561 78.7685 L 476.4258 79.5395 L 482.0031 82.1781 L 487.9279 83.935 L 489.6291 84.9497 L 490.8831 86.4662 L 494.4599 92.6026 L 496.5205 97.7467 L 499.4228 103.447 L 501.1697 107.5973 L 503.1342 110.5661 L 505.546 113.2319 L 508.2367 115.5691 L 510.1819 116.8371 L 515.1966 119.309 L 517.1839 120.726 L 519.098 122.3227 L 521.8548 124.8971 L 524.4432 127.5998 L 525.9858 129.4978 L 527.2337 131.5641 L 527.6689 132.7022 L 527.9106 133.8244 L 527.9899 134.9577 L 527.693 137.1763 L 526.9235 139.0743 L 524.9001 142.6618 L 523.0558 146.6886 L 520.5431 151.1675 L 519.9444 153.2562 L 519.9371 155.5213 L 520.1824 156.6498 L 521.0781 158.612 L 522.3297 160.3625 L 524.5695 162.7622 L 527.0846 164.9487 L 528.9097 166.2375 L 534.3944 169.2448 Z" fill="#000000" fill-opacity="1" stroke="#000000" stroke-width="0" paint-order="fill" stroke-opacity="1" stroke-dasharray="" stroke-linecap="butt" stroke-linejoin="miter" stroke-miterlimit="10" clip-path="none" style="filter: url(#f1)"/>
<path data-code="204" d="M 206.7172 285.9242 L 207.1969 281.5448 L 207.7463 279.3037 L 210.2891 273.512 L 212.3053 266.4218 L 213.2262 264.8749 L 214.7952 262.8407 L 215.5562 261.1046 L 217.219 254.9217 L 219.4179 250.1447 L 220.1525 248.0608 L 221.8573 240.1386 L 224.6454 232.8545 L 227.7376 231.4518 L 229.6565 230.187 L 231.4623 228.7075 L 236.5683 223.7156 L 248.9517 210.6574 L 251.5594 208.3266 L 253.4518 207.0281 L 254.4785 206.5152 L 255.5581 206.1272 L 257.7896 205.6591 L 262.3991 205.377 L 273.0007 205.5662 L 276.5161 205.7649 L 279.8861 206.1513 L 288.5725 205.5566 L 298.5789 205.4235 L 301.034 205.5533 L 303.4457 205.8788 L 305.7793 206.5761 L 306.8746 207.1227 L 308.892 208.5125 L 310.7567 210.146 L 313.3921 212.8375 L 315.8748 215.6909 L 318.747 219.6984 L 320.631 223.7397 L 321.6938 225.5912 L 323.0523 227.1798 L 323.8362 227.8755 L 325.6096 229.0024 L 327.7159 229.7013 L 329.9113 230.0396 L 335.5283 230.474 L 338.8261 231.1489 L 340.7618 231.9744 L 348.3096 235.8056 L 349.9772 237.0881 L 352.0451 239.4894 L 353.079 241.3906 L 354.785 245.3629 L 358.274 251.6195 L 359.415 253.2402 L 360.9455 254.4745 L 366.9279 258.45 L 372.4103 261.7025 L 371.4785 263.99 L 369.0115 268.6965 L 368.2817 270.7997 L 367.7491 274.2542 L 367.2934 280.1229 L 366.9027 282.4168 L 366.5865 283.5261 L 365.7401 285.501 L 363.7864 289.2473 L 361.9986 293.3687 L 360.7651 295.3132 L 359.3116 297.139 L 352.8698 304.0993 L 351.3586 305.8963 L 350.0156 307.7831 L 348.9576 309.8013 L 347.664 312.9032 L 344.6487 318.5202 L 343.0172 322.7089 L 340.032 328.3499 L 338.2959 332.4969 L 336.5129 335.2317 L 333.5469 338.4907 L 331.0582 340.6211 L 329.2717 341.7913 L 324.4157 344.2279 L 322.6892 345.4798 L 317.6806 349.6253 L 315.894 350.8067 L 314.943 351.2844 L 312.8174 351.9801 L 308.4303 352.8185 L 306.2638 353.3731 L 298.6138 356.499 L 295.7885 355.5741 L 291.3677 353.1872 L 287.3654 351.4655 L 281.859 348.4631 L 274.3304 345.9928 L 271.4666 344.898 L 267.8069 343.2853 L 263.6674 341.7111 L 258.2368 338.566 L 254.2453 336.7369 L 251.6171 334.9031 L 246.6758 330.6022 L 244.9481 329.3278 L 243.2481 328.3852 L 240.0344 326.9873 L 234.6122 323.863 L 230.5846 322.1077 L 228.7764 320.96 L 227.0692 319.5894 L 223.8278 316.5148 L 220.7428 313.2382 L 218.6112 310.6669 L 217.3789 308.8555 L 216.4772 307.0778 L 215.1511 303.7483 L 212.1586 298.1201 L 210.5752 293.8704 L 206.7172 285.9242 Z" fill="#000000" fill-opacity="1" stroke="#000000" stroke-width="0" paint-order="fill" stroke-opacity="1" stroke-dasharray="" stroke-linecap="butt" stroke-linejoin="miter" stroke-miterlimit="10" clip-path="none" style="filter: url(#f1)"/>
<path data-code="205" d="M 447.7337 321.0097 L 447.8719 338.6237 L 448.0499 342.402 L 448.3516 344.8595 L 449.3098 348.2226 L 451.1108 352.0346 L 451.8562 354.0817 L 453.1054 359.641 L 453.745 361.8067 L 455.9584 366.5965 L 456.6882 368.767 L 457.2677 372.4395 L 457.5105 378.7891 L 457.3446 385.1627 L 457.1041 387.6635 L 456.6509 390.0904 L 455.9139 392.2609 L 453.6717 397.046 L 451.3369 405.8274 L 448.7147 411.5566 L 448.0715 414.9438 L 448.1569 418.4159 L 448.6474 420.6746 L 449.0237 421.6861 L 453.8736 431.4838 L 456.8877 435.3054 L 462.4675 441.0939 L 459.5916 443.3285 L 456.8974 445.8405 L 454.5962 448.6666 L 453.4565 450.8131 L 452.8409 453.0749 L 452.5728 455.4121 L 452.4562 463.727 L 452.2879 466.0578 L 451.8466 468.3197 L 450.9618 470.37 L 449.691 472.0788 L 448.1424 473.4943 L 446.3342 474.5971 L 442.5338 476.4743 L 438.2225 479.7012 L 433.9713 478.4973 L 431.1279 477.247 L 427.372 473.1079 L 425.4304 470.4565 L 424.4156 468.488 L 423.1412 465.3798 L 420.1452 459.7483 L 418.5462 455.5388 L 415.5886 449.9057 L 413.8549 445.8389 L 412.6683 444.0787 L 411.2111 442.5398 L 409.5279 441.2783 L 408.5625 440.7541 L 405.6194 439.4348 L 401.0676 436.9629 L 398.9985 436.2448 L 395.6105 435.7799 L 387.506 435.6196 L 385.2217 435.4384 L 382.9915 435.0008 L 381.9118 434.6257 L 379.9437 433.526 L 378.1547 432.1202 L 376.468 430.5428 L 368.3442 422.0307 L 364.955 418.8792 L 362.2126 416.9652 L 359.2406 415.5834 L 357.3254 414.5302 L 355.5413 413.2125 L 353.8304 411.7233 L 349.7127 407.6596 L 332.3675 389.5887 L 336.5755 384.5119 L 337.5986 382.8079 L 337.9484 381.8765 L 338.1384 380.8394 L 338.1324 379.8054 L 337.9172 378.8019 L 337.4748 377.8722 L 336.8376 377.1188 L 336.1054 376.5513 L 330.2756 373.1048 L 325.2681 370.9968 L 319.7653 367.9286 L 314.7927 365.7132 L 310.2734 363.0747 L 305.3321 360.8384 L 298.6138 356.499 L 306.2638 353.3731 L 308.4303 352.8185 L 312.8174 351.9801 L 314.943 351.2844 L 315.894 350.8067 L 317.6806 349.6253 L 322.6892 345.4798 L 324.4157 344.2279 L 329.2717 341.7913 L 331.0582 340.6211 L 333.5469 338.4907 L 336.5129 335.2317 L 338.2959 332.4969 L 340.032 328.3499 L 343.0172 322.7089 L 344.6487 318.5202 L 347.664 312.9032 L 348.9576 309.8013 L 350.0156 307.7831 L 351.3586 305.8963 L 352.8698 304.0993 L 359.3116 297.139 L 360.7651 295.3132 L 361.9986 293.3687 L 363.7864 289.2473 L 365.7401 285.501 L 366.5865 283.5261 L 366.9027 282.4168 L 367.2934 280.1229 L 367.7491 274.2542 L 368.2817 270.7997 L 369.0115 268.6965 L 371.4785 263.99 L 372.4103 261.7025 L 375.2308 257.1932 L 377.5921 254.2308 L 381.027 250.5086 L 390.7509 240.5474 L 393.9453 236.7562 L 395.2462 234.7044 L 397.0652 230.607 L 399.0141 226.872 L 399.8641 224.8922 L 400.6227 221.2854 L 400.8993 216.2535 L 400.862 176.3462 L 405.6037 171.4586 L 409.8285 174.8185 L 415.5898 177.8114 L 419.1641 179.9915 L 424.0802 182.2742 L 428.6512 184.7236 L 432.0272 185.7656 L 435.7915 186.1792 L 439.646 186.2866 L 474.501 186.1567 L 471.3066 190.8039 L 469.7676 192.7724 L 461.2664 202.0379 L 459.7984 204.0273 L 458.6479 206.2154 L 458.2571 207.4032 L 457.7991 209.8575 L 457.3855 219.9998 L 457.1174 222.4957 L 456.5463 224.9035 L 455.7083 226.8816 L 453.7679 230.6391 L 452.0438 234.7797 L 448.9576 240.3695 L 447.2143 244.5117 L 444.1509 250.1175 L 442.4449 254.2773 L 440.0127 258.995 L 439.2444 261.0677 L 438.041 266.6575 L 437.4182 268.8296 L 435.1952 273.6146 L 434.4582 275.7851 L 434.2009 276.9874 L 433.7056 281.9824 L 433.6226 289.6529 L 433.9388 294.6992 L 434.7287 298.314 L 435.5895 300.2922 L 437.5324 304.0464 L 439.2384 308.1903 L 442.3727 313.6614 L 443.8263 316.5116 L 445.0406 318.2204 L 447.7337 321.0097 Z" fill="#000000" fill-opacity="1" stroke="#000000" stroke-width="0" paint-order="fill" stroke-opacity="1" stroke-dasharray="" stroke-linecap="butt" stroke-linejoin="miter" stroke-miterlimit="10" clip-path="none" style="filter: url(#f1)"/>
<path data-code="206" d="M 447.7337 321.0097 L 451.4054 313.9788 L 453.5587 308.8732 L 454.7621 306.8918 L 456.1952 305.0291 L 460.2276 300.616 L 483.8462 276.2788 L 487.2847 272.9702 L 490.0259 270.8237 L 491.994 269.7449 L 494.9961 268.4224 L 500.4063 265.2644 L 504.4315 263.538 L 508.9869 261.0325 L 511.0379 260.2903 L 514.4115 259.7741 L 522.522 259.4807 L 525.9244 259.0992 L 528.0801 258.5221 L 529.0371 258.1182 L 533.6418 255.789 L 534.7058 255.4523 L 536.9264 255.0371 L 539.2191 254.8656 L 541.5467 254.8672 L 543.8863 255.0179 L 547.4847 255.4892 L 549.8736 257.2317 L 551.5929 258.3137 L 553.2268 259.0367 L 554.7116 259.4439 L 556.7614 259.7597 L 559.891 259.8959 L 561.9769 259.7869 L 564.034 259.4695 L 566.0261 258.8283 L 567.0384 258.3057 L 569.764 256.2362 L 573.0618 252.9244 L 581.0305 244.1847 L 582.6776 242.6297 L 584.4569 241.3313 L 585.4488 240.8504 L 587.1668 240.4384 L 588.9005 240.5009 L 589.7517 240.735 L 590.6799 241.1886 L 591.4866 241.7865 L 592.1695 242.5015 L 592.7177 243.3222 L 593.106 244.2472 L 593.284 245.2635 L 593.2058 246.2622 L 592.9413 247.1599 L 591.2437 250.491 L 589.8431 253.6666 L 588.862 255.4187 L 586.8254 258.038 L 579.8715 265.4087 L 577.7627 267.9768 L 576.5917 269.8138 L 574.7678 273.9224 L 572.2936 278.5792 L 571.904 279.5891 L 571.452 281.5977 L 571.3089 283.6576 L 571.4231 285.7094 L 571.7982 287.7004 L 572.1 288.6478 L 573.9214 292.2562 L 574.6945 294.1221 L 574.9915 295.8582 L 574.9001 297.644 L 574.323 299.5131 L 573.8373 300.438 L 572.635 302.1597 L 570.4998 304.577 L 565.3853 309.6923 L 562.0346 311.8933 L 557.2063 314.1904 L 555.4726 315.4937 L 554.6863 316.292 L 553.4648 317.9495 L 552.5427 320.043 L 552.2421 321.2325 L 551.9007 323.6947 L 551.7853 326.2259 L 551.8754 330.0716 L 552.099 332.6204 L 552.503 335.1115 L 553.1847 337.4711 L 555.5123 342.1696 L 556.2613 344.2567 L 556.5042 345.3821 L 556.711 348.8206 L 556.3599 351.0969 L 555.9752 352.2029 L 555.4654 353.1824 L 554.1177 354.8688 L 552.4249 356.1816 L 551.4642 356.6722 L 550.3161 357.0585 L 547.9536 357.4256 L 539.7049 357.339 L 537.5877 357.5106 L 536.6042 357.7574 L 535.6881 358.1902 L 534.8813 358.8924 L 534.3523 359.7724 L 534.0854 360.723 L 534.1792 362.6547 L 534.8465 364.3427 L 536.6379 367.7443 L 537.3003 369.8763 L 537.6923 372.1654 L 537.8738 374.5203 L 537.8498 376.8847 L 537.5588 379.2107 L 537.2727 380.3408 L 536.3397 382.4007 L 535.7217 383.2824 L 534.2658 384.8181 L 532.5886 386.0396 L 527.7603 388.457 L 525.8739 389.8163 L 522.4054 393.0945 L 520.8857 394.9444 L 519.6113 396.9482 L 517.8392 401.0824 L 515.0968 406.8324 L 514.4885 409.0238 L 513.5615 413.4834 L 512.8498 415.6443 L 511.0632 418.666 L 506.7867 424.2974 L 505.6758 426.3926 L 505.2935 427.4954 L 504.8114 429.7878 L 504.5782 432.1474 L 504.5481 440.629 L 500.3041 441.857 L 494.734 444.4923 L 492.5723 444.9845 L 490.3505 445.1223 L 488.1359 444.9444 L 485.9935 444.4218 L 480.4498 441.8073 L 476.9127 440.9545 L 474.4337 440.7012 L 470.6369 440.5906 L 466.8041 440.7076 L 462.4675 441.0939 L 456.8877 435.3054 L 453.8736 431.4838 L 449.0237 421.6861 L 448.6474 420.6746 L 448.1569 418.4159 L 448.0715 414.9438 L 448.7147 411.5566 L 451.3369 405.8274 L 453.6717 397.046 L 455.9139 392.2609 L 456.6509 390.0904 L 457.1041 387.6635 L 457.3446 385.1627 L 457.5105 378.7891 L 457.2677 372.4395 L 456.6882 368.767 L 455.9584 366.5965 L 453.745 361.8067 L 453.1054 359.641 L 451.8562 354.0817 L 451.1108 352.0346 L 449.3098 348.2226 L 448.3516 344.8595 L 448.0499 342.402 L 447.8719 338.6237 L 447.7337 321.0097 Z" fill="#000000" fill-opacity="1" stroke="#000000" stroke-width="0" paint-order="fill" stroke-opacity="1" stroke-dasharray="" stroke-linecap="butt" stroke-linejoin="miter" stroke-miterlimit="10" clip-path="none" style="filter: url(#f1)"/>







</svg>