<?xml version="1.0" standalone="no"?>
<!-- Generator: Paintmaps.com , Online SVG vector map maker -->
<svg xmlns="http://www.w3.org/2000/svg" version="1.1" baseProfile="full"   style="background-color:#e0f2f1" width="800" height="500" viewBox="0 0 800 533">

<path data-code="200" d="M 689 105.0318 L 684.4611 104.2187 L 680.8377 103.7564 L 675.4766 103.475 L 671.4955 103.5225 L 668.8848 103.7546 L 666.3372 104.2881 L 663.9486 105.3096 L 661.8121 106.764 L 657.9118 110.2979 L 652.3109 116.103 L 647.794 121.064 L 645.3601 124.1758 L 644.0267 126.3867 L 642.0519 131.1101 L 638.6423 137.5091 L 636.6442 142.2325 L 634.4844 145.5416 L 631.8847 148.6388 L 624.6612 156.6439 L 623.1044 158.6447 L 620.5787 162.4399 L 619.8304 163.2019 L 618.9588 163.8049 L 616.0247 164.956 L 612.2232 161.7821 L 610.195 160.4537 L 605.6534 158.3341 L 599.47 154.7418 L 594.8736 152.7647 L 588.6806 149.1906 L 584.0952 147.177 L 577.9187 143.5646 L 573.3277 141.5711 L 568.1352 138.6822 L 565.848 137.7704 L 559.6728 136.3379 L 557.291 135.5814 L 552.1012 132.888 L 549.7824 132.0694 L 547.2609 131.693 L 544.7036 131.7259 L 542.1821 132.1937 L 540.9651 132.6304 L 539.8756 133.1822 L 537.8721 134.5709 L 532.3821 139.3985 L 529.3096 141.4066 L 528.0954 141.8963 L 525.5656 142.523 L 521.6613 142.8611 L 519.0534 142.7697 L 516.4866 142.3769 L 514.0239 141.5235 L 512.9495 140.9096 L 511.035 139.3765 L 509.3932 137.5603 L 506.2303 132.5354 L 510.8198 131.3056 L 513.1468 130.4633 L 519.4796 127.0719 L 522.8234 125.5224 L 524.9051 124.2452 L 527.5253 121.7693 L 528.9314 119.7995 L 533.2263 110.9886 L 534.5652 107.3214 L 535.0421 104.4453 L 535.2628 101.4961 L 535.345 90.953 L 535.0462 69.324 L 540.6787 69.9672 L 546.0535 70.1864 L 551.3584 70.0129 L 555.2025 69.3733 L 557.5391 68.5072 L 562.7206 65.6366 L 567.2732 63.5846 L 573.4072 59.8955 L 577.957 57.8197 L 582.0642 55.4571 L 584.2377 54.4174 L 586.7305 53.7249 L 590.6212 53.301 L 594.5529 53.3905 L 597.1334 53.7486 L 599.618 54.4594 L 600.7212 54.9528 L 605.8589 57.9129 L 610.4019 59.9759 L 614.5241 62.3129 L 616.6839 63.3288 L 620.4129 64.226 L 628.1475 65.0172 L 630.6636 65.4978 L 632.981 66.3127 L 638.2805 68.8982 L 640.6897 69.6218 L 646.873 70.9886 L 649.1603 71.8474 L 654.4584 74.422 L 656.858 75.1163 L 661.7901 76.1542 L 664.2076 76.971 L 665.3916 77.5794 L 667.6103 79.0997 L 670.7048 81.8113 L 675.6356 86.7796 L 681.3694 92.9794 L 684.0239 96.2191 L 685.5821 98.5104 L 689 105.0318 Z" fill="#000000" fill-opacity="1" stroke="#000000" stroke-width="0" paint-order="fill" stroke-opacity="1" stroke-dasharray="" stroke-linecap="butt" stroke-linejoin="miter" stroke-miterlimit="10" clip-path="none" style="filter: url(#f1)"/>
<path data-code="201" d="M 192.1724 392.8232 L 190.262 391.8438 L 185.4737 392.6825 L 182.2299 392.688 L 180.114 392.3116 L 179.0876 391.9717 L 176.9401 390.8206 L 174.9886 389.346 L 170.3511 385.2895 L 168.4174 383.8223 L 166.5207 382.7205 L 162.922 380.9736 L 160.9047 379.6196 L 158.0597 377.1821 L 150.7718 370.0687 L 147.9186 367.6549 L 145.8958 366.3247 L 141.3885 364.1758 L 138.3927 362.0891 L 135.5875 359.573 L 129.241 353.249 L 126.4371 350.6598 L 124.4733 349.0957 L 118.9916 345.3791 L 117.1607 344.2846 L 115.508 342.9123 L 113.9676 341.1399 L 110.9993 337.0122 L 116.5166 328.9248 L 118.2475 325.6577 L 119.0149 323.1599 L 120.3333 316.7883 L 121.1404 314.4275 L 123.5908 308.9257 L 124.2678 306.4352 L 125.2901 301.3263 L 126.0658 298.8339 L 127.8213 295.5869 L 132.674 288.7439 L 133.7785 284.5394 L 136.5906 276.3936 L 140.0373 269.9928 L 142.0079 265.2731 L 143.2989 263.1608 L 145.656 260.2098 L 148.2557 257.3831 L 164.5665 240.7497 L 169.8564 235.12 L 173.0234 231.1494 L 176.5673 225.7646 L 179.3137 227.8787 L 181.7818 230.2651 L 183.1098 232.0868 L 186.0795 237.7622 L 187.7144 240.0737 L 191.4776 244.5084 L 196.566 249.853 L 200.7992 253.9077 L 204.1019 256.6248 L 206.396 258.1048 L 209.6686 259.7018 L 211.6955 260.9754 L 213.4373 262.5852 L 214.8762 264.5166 L 215.9 266.8207 L 216.4591 269.3624 L 217.1813 277.2725 L 217.5993 279.8763 L 218.3229 282.2956 L 220.2045 286.7394 L 220.9075 289.1258 L 222.1176 299.0532 L 222.9439 301.2239 L 223.6538 302.1796 L 224.6131 302.9653 L 226.8387 303.8826 L 230.5868 304.3668 L 238.8025 304.3558 L 247.2073 303.9958 L 249.9413 303.6925 L 252.5863 303.1535 L 254.9489 302.2855 L 260.2401 299.6616 L 264.1924 298.6859 L 268.3448 298.2638 L 273.9485 298.0665 L 278.0625 298.1359 L 281.9367 298.6183 L 284.2623 299.4588 L 285.2846 300.1459 L 286.7441 301.8836 L 290.7595 308.8453 L 293.8361 315.7121 L 297.4705 320.7827 L 296.9867 323.3554 L 296.2988 325.8587 L 293.7621 331.3349 L 292.9371 333.6884 L 291.6242 340.0618 L 290.8362 342.5596 L 290.2497 343.7802 L 288.8025 346.0698 L 284.6392 351.4455 L 283.1194 353.6437 L 280.3004 359.3081 L 278.9122 361.2669 L 277.232 362.9827 L 275.3121 364.3896 L 269.8221 367.0172 L 264.6611 369.9846 L 261.2076 371.4756 L 258.9355 372.709 L 256.7743 374.2969 L 251.6325 378.7133 L 249.533 380.3176 L 244.2445 383.2266 L 241.4776 385.2292 L 236.555 389.6767 L 235.0448 391.5844 L 233.8649 393.7551 L 233.1495 396.3078 L 232.8905 398.9646 L 232.9577 401.7109 L 233.6333 407.3132 L 233.6031 407.2968 L 219.9701 400.1505 L 217.4938 398.8531 L 198.1954 393.788 L 194.6871 388.5932 L 192.9576 389.9728 L 192.1724 392.8232 Z" fill="#000000" fill-opacity="1" stroke="#000000" stroke-width="0" paint-order="fill" stroke-opacity="1" stroke-dasharray="" stroke-linecap="butt" stroke-linejoin="miter" stroke-miterlimit="10" clip-path="none" style="filter: url(#f1)"/>
<path data-code="202" d="M 566.873 436.8121 L 565.5506 436.5599 L 565.8836 433.7825 L 565.9274 431.1477 L 565.0463 424.6372 L 569.5618 423.413 L 577.402 420.3469 L 580.7075 418.0994 L 585.848 413.6994 L 587.9872 412.1061 L 590.2374 410.8544 L 594.7174 408.7841 L 599.8948 405.8441 L 604.4899 403.8488 L 606.7387 402.4144 L 608.8245 400.6822 L 610.7568 398.7453 L 612.4973 396.6312 L 613.9417 394.3124 L 614.494 393.0553 L 614.8846 391.7817 L 615.3245 389.1742 L 615.6753 382.5779 L 615.9631 379.9869 L 616.6634 377.4763 L 617.2143 376.3672 L 618.671 374.4011 L 620.5266 372.815 L 621.5969 372.1992 L 624.0568 371.3861 L 626.6236 371.0408 L 630.5732 370.9585 L 634.5598 371.1431 L 639.7276 371.7954 L 642.1108 372.4368 L 646.0659 374.0703 L 648.0571 374.4559 L 649.074 374.3773 L 655.1943 372.307 L 661.3064 371.0298 L 663.7403 370.2331 L 666.9101 368.4132 L 674.8942 362.6337 L 674.9682 384.5861 L 674.3652 396.7207 L 674.4118 396.6988 L 674.3158 398.3598 L 669.7729 399.0358 L 667.6501 399.7759 L 662.0656 401.7219 L 655.4478 405.4385 L 644.8846 413.1129 L 637.4568 417.2844 L 634.4392 418.3077 L 621.0337 422.8557 L 616.7196 424.6409 L 603.817 429.9856 L 595.4875 435.058 L 586.7963 436.0227 L 574.8448 434.6267 L 572.3397 434.9428 L 566.873 436.8121 Z" fill="#000000" fill-opacity="1" stroke="#000000" stroke-width="0" paint-order="fill" stroke-opacity="1" stroke-dasharray="" stroke-linecap="butt" stroke-linejoin="miter" stroke-miterlimit="10" clip-path="none" style="filter: url(#f1)"/>
<path data-code="203" d="M 621.1255 258.8485 L 621.4229 265.2256 L 622.0025 269.1943 L 622.7933 271.6044 L 625.3025 277.0569 L 625.9727 279.5292 L 627.2814 285.8952 L 627.7241 287.1341 L 628.9945 289.4931 L 630.5924 291.6675 L 633.2976 294.7537 L 654.7105 316.6622 L 660.2895 322.767 L 661.9436 324.9031 L 663.3483 327.1542 L 664.9202 330.6442 L 666.0823 332.8369 L 667.4829 334.8451 L 672.1053 340.6721 L 673.4168 342.7771 L 674.372 345.1781 L 675.0312 349.145 L 675.1888 354.6212 L 674.8942 362.6337 L 666.9101 368.4132 L 663.7403 370.2331 L 661.3064 371.0298 L 655.1943 372.307 L 649.074 374.3773 L 648.0571 374.4559 L 646.0659 374.0703 L 642.1108 372.4368 L 639.7276 371.7954 L 634.5598 371.1431 L 630.5732 370.9585 L 626.6236 371.0408 L 624.0568 371.3861 L 621.5969 372.1992 L 620.5266 372.815 L 618.671 374.4011 L 617.2143 376.3672 L 616.6634 377.4763 L 615.9631 379.9869 L 615.6753 382.5779 L 615.3245 389.1742 L 614.8846 391.7817 L 614.494 393.0553 L 613.9417 394.3124 L 612.4973 396.6312 L 610.7568 398.7453 L 608.8245 400.6822 L 606.7387 402.4144 L 604.4899 403.8488 L 599.8948 405.8441 L 594.7174 408.7841 L 590.2374 410.8544 L 587.9872 412.1061 L 585.848 413.6994 L 580.7075 418.0994 L 577.402 420.3469 L 569.5618 423.413 L 565.0463 424.6372 L 562.7426 420.9261 L 560.7774 416.1936 L 557.8789 410.8727 L 555.8452 406.3503 L 554.6118 404.2252 L 553.0674 402.4053 L 551.2831 400.8722 L 546.0645 398.0838 L 544.198 396.697 L 541.8778 393.989 L 540.8007 391.7415 L 539.1041 384.1987 L 538.2955 381.8014 L 535.9151 376.2813 L 535.0298 371.8119 L 534.6721 363.8835 L 534.8201 335.3073 L 534.7845 310.0897 L 534.9997 305.2932 L 535.3697 302.1851 L 536.085 299.2268 L 538.5573 293.7432 L 539.4289 291.3587 L 540.8966 284.9835 L 541.6531 282.5277 L 544.6817 276.0227 L 545.0325 274.7637 L 545.4108 272.1599 L 545.2902 268.2003 L 544.7078 265.633 L 544.2665 264.4874 L 541.5147 259.1628 L 539.5412 254.4613 L 535.985 248.1062 L 533.8992 243.4248 L 531.6818 240.0773 L 527.4582 234.7692 L 525.3765 231.2719 L 524.5419 228.743 L 522.2286 218.4483 L 531.1926 215.7093 L 538.7423 214.116 L 540.9843 213.2718 L 546.2892 210.7648 L 549.0438 210.0723 L 553.3812 209.6411 L 566.6867 209.3542 L 570.9638 208.7037 L 573.4346 207.8175 L 578.6272 204.9853 L 583.1633 202.9351 L 588.349 200.0938 L 590.7774 199.2039 L 593.5265 198.674 L 596.3536 198.4054 L 609.5481 197.7878 L 610.2237 204.1283 L 610.5855 217.3684 L 611.1159 223.084 L 611.7668 225.7993 L 614.1404 231.3249 L 614.9462 233.8172 L 616.762 246.7065 L 617.572 249.2172 L 620.0141 254.7043 L 621.1255 258.8485 Z" fill="#000000" fill-opacity="1" stroke="#000000" stroke-width="0" paint-order="fill" stroke-opacity="1" stroke-dasharray="" stroke-linecap="butt" stroke-linejoin="miter" stroke-miterlimit="10" clip-path="none" style="filter: url(#f1)"/>
<path data-code="204" d="M 328.9958 260.4528 L 329.781 266.6654 L 330.0606 274.0401 L 329.8564 281.3363 L 329.2068 285.5609 L 328.3585 288.0623 L 325.6273 293.4381 L 322.9851 299.2048 L 316.0343 309.6164 L 312.9919 311.1111 L 307.8665 314.1845 L 303.3153 316.2877 L 301.2816 317.6106 L 297.4705 320.7827 L 293.8361 315.7121 L 290.7595 308.8453 L 286.7441 301.8836 L 285.2846 300.1459 L 284.2623 299.4588 L 281.9367 298.6183 L 278.0625 298.1359 L 273.9485 298.0665 L 268.3448 298.2638 L 264.1924 298.6859 L 260.2401 299.6616 L 254.9489 302.2855 L 252.5863 303.1535 L 249.9413 303.6925 L 247.2073 303.9958 L 238.8025 304.3558 L 230.5868 304.3668 L 226.8387 303.8826 L 224.6131 302.9653 L 223.6538 302.1796 L 222.9439 301.2239 L 222.1176 299.0532 L 220.9075 289.1258 L 220.2045 286.7394 L 218.3229 282.2956 L 217.5993 279.8763 L 217.1813 277.2725 L 216.4591 269.3624 L 215.9 266.8207 L 214.8762 264.5166 L 213.4373 262.5852 L 211.6955 260.9754 L 209.6686 259.7018 L 206.396 258.1048 L 204.1019 256.6248 L 200.7992 253.9077 L 196.566 249.853 L 191.4776 244.5084 L 187.7144 240.0737 L 186.0795 237.7622 L 183.1098 232.0868 L 181.7818 230.2651 L 179.3137 227.8787 L 176.5673 225.7646 L 180.5772 223.2448 L 183.5223 220.9571 L 187.2224 217.4635 L 190.6608 213.7542 L 192.2286 211.8155 L 193.6086 209.7872 L 194.6159 207.7919 L 196.1713 204.0241 L 196.7647 202.9552 L 198.1749 200.916 L 200.6211 198.0162 L 206.7798 191.4655 L 209.3192 188.5877 L 210.8691 186.585 L 213.7621 182.4079 L 219.6988 180.8785 L 221.6996 180.1477 L 222.7768 179.5812 L 224.7981 178.1962 L 230.4662 173.3741 L 232.4218 171.9233 L 234.3349 170.8415 L 237.9542 169.1386 L 239.9797 167.7955 L 242.8329 165.3653 L 250.1387 158.2501 L 252.9988 155.8326 L 255.0297 154.5024 L 259.5535 152.3371 L 262.5342 150.1993 L 265.2901 147.6156 L 271.3227 141.4066 L 273.0865 139.9741 L 274.0334 139.4113 L 275.0585 139.0074 L 276.1864 138.8393 L 277.3252 138.9727 L 278.375 139.3473 L 279.3466 139.8918 L 280.2566 140.5588 L 281.9559 142.1558 L 284.2376 144.9989 L 285.4875 147.1478 L 286.2851 149.3204 L 286.9579 153.4773 L 287.2704 158.9006 L 287.613 161.5519 L 288.2228 164.1064 L 290.5718 169.6557 L 291.3762 172.1827 L 291.8901 175.0606 L 292.6521 182.4006 L 293.1303 185.1524 L 293.8937 187.5991 L 296.2412 193.1521 L 297.8364 200.6237 L 298.6737 203.0484 L 299.2616 204.121 L 300.7581 206.0268 L 302.6109 207.5799 L 303.6607 208.1921 L 304.8447 208.6909 L 307.3115 209.3341 L 315.1421 210.509 L 314.1636 215.0698 L 313.6484 221.0083 L 313.7457 225.4119 L 314.5213 229.6347 L 315.6396 232.0265 L 317.1169 233.9067 L 319.8071 236.0812 L 323.9636 238.23 L 325.8054 239.5931 L 327.4225 241.307 L 328.7025 243.3663 L 329.5248 245.8532 L 329.9784 249.8183 L 329.7564 255.2836 L 328.9958 260.4528 Z" fill="#000000" fill-opacity="1" stroke="#000000" stroke-width="0" paint-order="fill" stroke-opacity="1" stroke-dasharray="" stroke-linecap="butt" stroke-linejoin="miter" stroke-miterlimit="10" clip-path="none" style="filter: url(#f1)"/>
<path data-code="205" d="M 566.873 436.8121 L 566.429 436.9638 L 563.3771 438.6065 L 560.739 440.0244 L 559.7866 440.1121 L 553.3757 440.7005 L 546.6058 443.2897 L 540.221 447.9345 L 539.5673 448.4096 L 527.7419 454.9913 L 518.952 459.0496 L 512.7165 463.2522 L 503.2085 469.6658 L 498.4189 474.0402 L 493.9266 479.701 L 491.7147 472.5985 L 491.4078 471.546 L 491.4352 471.5387 L 490.58 467.7509 L 489.5645 465.3152 L 488.1242 463.0439 L 483.928 457.7139 L 482.3794 455.5084 L 481.1542 453.186 L 479.6687 449.6539 L 476.8963 444.2818 L 476.059 441.9046 L 474.8653 435.4855 L 474.2007 432.9676 L 471.0788 426.4097 L 469.1534 421.6552 L 467.7556 419.3309 L 466.0754 417.1748 L 463.2126 414.2384 L 461.0871 412.5556 L 458.7245 411.2546 L 457.4856 410.8343 L 454.9339 410.3592 L 448.3791 410.1546 L 448.3873 404.5778 L 448.6313 399.1254 L 448.9574 396.4631 L 449.5851 393.9104 L 452.1231 388.4525 L 452.9317 386.0771 L 453.4031 383.4842 L 454.128 375.47 L 454.5981 372.8607 L 454.9695 371.5999 L 455.9548 369.3597 L 458.1941 365.0876 L 460.0935 360.3368 L 463.5908 353.9689 L 465.5999 349.2619 L 466.9703 347.0291 L 468.5984 344.9259 L 473.1715 339.9303 L 491.3927 321.3436 L 494.3638 318.5224 L 498.6546 314.8076 L 509.0424 315.5878 L 511.5736 316.1415 L 513.9622 317.1757 L 516.1152 318.6539 L 518.1146 320.3843 L 527.6953 329.864 L 529.7386 331.5652 L 534.8201 335.3073 L 534.6721 363.8835 L 535.0298 371.8119 L 535.9151 376.2813 L 538.2955 381.8014 L 539.1041 384.1987 L 540.8007 391.7415 L 541.8778 393.989 L 544.198 396.697 L 546.0645 398.0838 L 551.2831 400.8722 L 553.0674 402.4053 L 554.6118 404.2252 L 555.8452 406.3503 L 557.8789 410.8727 L 560.7774 416.1936 L 562.7426 420.9261 L 565.0463 424.6372 L 565.9274 431.1477 L 565.8836 433.7825 L 565.5506 436.5599 L 566.873 436.8121 Z" fill="#000000" fill-opacity="1" stroke="#000000" stroke-width="0" paint-order="fill" stroke-opacity="1" stroke-dasharray="" stroke-linecap="butt" stroke-linejoin="miter" stroke-miterlimit="10" clip-path="none" style="filter: url(#f1)"/>
<path data-code="206" d="M 420.1908 390.5374 L 415.7191 388.6425 L 411.0007 386.8975 L 404.768 383.4678 L 400.3429 381.361 L 399.3617 380.6867 L 397.5952 379.0642 L 396.1384 377.1291 L 395.5601 376.051 L 394.7351 373.608 L 393.769 368.5594 L 393.1276 366.0871 L 390.7157 360.578 L 389.9523 358.1642 L 389.5124 355.5531 L 388.8135 347.5443 L 387.9871 343.6761 L 387.0292 341.4286 L 384.8338 337.1309 L 382.4068 331.2947 L 377.8775 323.3463 L 377.0361 321.3911 L 375.5396 319.1345 L 373.5894 317.1483 L 372.4698 316.3041 L 363.1907 311.334 L 360.4662 310.3583 L 356.148 309.7151 L 351.7037 309.5415 L 316.0343 309.6164 L 322.9851 299.2048 L 325.6273 293.4381 L 328.3585 288.0623 L 329.2068 285.5609 L 329.8564 281.3363 L 330.0606 274.0401 L 329.781 266.6654 L 328.9958 260.4528 L 332.7644 259.8882 L 336.7113 259.5282 L 342.0724 259.4296 L 346.0343 259.6488 L 348.6052 260.0326 L 351.0569 260.7415 L 356.2714 263.486 L 358.5709 264.3795 L 362.3985 265.0501 L 365.0202 265.1598 L 367.6404 265.0355 L 370.2141 264.6244 L 372.6617 263.793 L 374.8982 262.408 L 379.6851 258.2145 L 381.6325 256.8532 L 382.7151 256.3964 L 383.9156 256.199 L 385.1408 256.3397 L 386.2769 256.7508 L 387.3211 257.352 L 389.1835 258.9271 L 390.7554 260.8256 L 391.9216 262.9452 L 392.2697 264.0707 L 392.389 265.2183 L 392.2615 266.2214 L 390.839 269.6438 L 390.3922 271.5387 L 390.4279 272.571 L 390.691 273.598 L 391.2337 274.5554 L 392.034 275.3046 L 392.9741 275.8053 L 395.0914 276.3297 L 401.1172 276.7993 L 404.8379 277.5247 L 407.0402 278.4675 L 411.2392 280.7132 L 415.8246 282.7999 L 418.0461 284.3001 L 420.125 286.0853 L 423.092 289.0454 L 431.5612 298.2309 L 433.4469 299.9668 L 435.4683 301.308 L 436.5893 301.7264 L 437.8076 301.8744 L 439.0232 301.6826 L 440.1305 301.2276 L 442.0943 299.8224 L 443.8512 298.0299 L 445.4587 296.0291 L 446.8744 293.9387 L 449.0931 289.9974 L 449.8537 289.1605 L 450.8075 288.4936 L 453.018 287.7243 L 454.2089 287.5745 L 456.6661 287.6805 L 459.1191 288.3785 L 460.3046 289.0015 L 461.405 289.758 L 463.4291 291.5323 L 465.2874 293.5093 L 467.7953 296.643 L 470.9596 301.6186 L 471.7106 302.4171 L 472.611 303.0585 L 474.6748 303.9301 L 479.2452 305.1287 L 481.4626 305.993 L 486.6688 308.8088 L 492.3794 311.2353 L 498.6546 314.8076 L 494.3638 318.5224 L 491.3927 321.3436 L 473.1715 339.9303 L 468.5984 344.9259 L 466.9703 347.0291 L 465.5999 349.2619 L 463.5908 353.9689 L 460.0935 360.3368 L 458.1941 365.0876 L 455.9548 369.3597 L 454.9695 371.5999 L 454.5981 372.8607 L 454.128 375.47 L 453.4031 383.4842 L 452.9317 386.0771 L 452.1231 388.4525 L 449.5851 393.9104 L 448.9574 396.4631 L 448.6313 399.1254 L 448.3873 404.5778 L 445.9069 404.079 L 443.4881 403.3591 L 437.1937 400.0408 L 432.6096 398.0126 L 426.455 394.0822 L 420.1908 390.5374 Z" fill="#000000" fill-opacity="1" stroke="#000000" stroke-width="0" paint-order="fill" stroke-opacity="1" stroke-dasharray="" stroke-linecap="butt" stroke-linejoin="miter" stroke-miterlimit="10" clip-path="none" style="filter: url(#f1)"/>
<path data-code="207" d="M 328.9958 260.4528 L 329.7564 255.2836 L 329.9784 249.8183 L 329.5248 245.8532 L 328.7025 243.3663 L 327.4225 241.307 L 325.8054 239.5931 L 323.9636 238.23 L 319.8071 236.0812 L 317.1169 233.9067 L 315.6396 232.0265 L 314.5213 229.6347 L 313.7457 225.4119 L 313.6484 221.0083 L 314.1636 215.0698 L 315.1421 210.509 L 319.929 208.0039 L 326.8332 203.6057 L 328.597 202.2152 L 329.914 200.3751 L 333.9279 193.2416 L 335.8863 188.6278 L 337.0265 186.3712 L 339.3274 183.2247 L 341.2364 181.1563 L 343.2962 179.2505 L 346.6537 176.8641 L 351.1473 174.6568 L 353.4223 173.1548 L 356.6386 170.4268 L 363.8457 163.4778 L 367.1073 160.8466 L 369.3973 159.5291 L 372.8042 157.9815 L 378.031 155.1949 L 381.6188 154.0894 L 390.6129 153.0973 L 393.1221 152.6185 L 395.4354 151.82 L 400.7746 149.3222 L 403.2277 148.6699 L 412.2026 147.5699 L 414.7036 147.0637 L 417.0073 146.247 L 421.2351 144.1785 L 423.6402 143.3544 L 427.7254 142.7259 L 437.5418 142.196 L 441.6147 141.5455 L 444.0033 140.7031 L 449.2987 138.134 L 451.9189 137.4214 L 457.4568 136.8477 L 465.9877 136.908 L 471.6394 137.531 L 476.3687 138.7096 L 476.0151 142.8172 L 475.7589 149.07 L 475.4957 161.7456 L 475.5505 167.9929 L 476.0549 172.5189 L 476.9593 175.3658 L 477.6761 176.6613 L 478.5381 177.8325 L 480.5814 179.8224 L 481.7284 180.6264 L 485.9781 182.7789 L 487.883 183.9885 L 489.8153 185.5015 L 492.6274 188.193 L 494.2829 190.1152 L 495.704 192.1416 L 496.7182 194.1187 L 497.8529 196.8796 L 498.9122 198.7909 L 501.2693 201.4715 L 503.166 202.8693 L 507.587 204.9688 L 510.5485 206.9843 L 514.2582 210.3226 L 522.2286 218.4483 L 524.5419 228.743 L 525.3765 231.2719 L 527.4582 234.7692 L 531.6818 240.0773 L 533.8992 243.4248 L 535.985 248.1062 L 539.5412 254.4613 L 541.5147 259.1628 L 544.2665 264.4874 L 544.7078 265.633 L 545.2902 268.2003 L 545.4108 272.1599 L 545.0325 274.7637 L 544.6817 276.0227 L 541.6531 282.5277 L 540.8966 284.9835 L 539.4289 291.3587 L 538.5573 293.7432 L 536.085 299.2268 L 535.3697 302.1851 L 534.9997 305.2932 L 534.7845 310.0897 L 534.8201 335.3073 L 529.7386 331.5652 L 527.6953 329.864 L 518.1146 320.3843 L 516.1152 318.6539 L 513.9622 317.1757 L 511.5736 316.1415 L 509.0424 315.5878 L 498.6546 314.8076 L 492.3794 311.2353 L 486.6688 308.8088 L 481.4626 305.993 L 479.2452 305.1287 L 474.6748 303.9301 L 472.611 303.0585 L 471.7106 302.4171 L 470.9596 301.6186 L 467.7953 296.643 L 465.2874 293.5093 L 463.4291 291.5323 L 461.405 289.758 L 460.3046 289.0015 L 459.1191 288.3785 L 456.6661 287.6805 L 454.2089 287.5745 L 453.018 287.7243 L 450.8075 288.4936 L 449.8537 289.1605 L 449.0931 289.9974 L 446.8744 293.9387 L 445.4587 296.0291 L 443.8512 298.0299 L 442.0943 299.8224 L 440.1305 301.2276 L 439.0232 301.6826 L 437.8076 301.8744 L 436.5893 301.7264 L 435.4683 301.308 L 433.4469 299.9668 L 431.5612 298.2309 L 423.092 289.0454 L 420.125 286.0853 L 418.0461 284.3001 L 415.8246 282.7999 L 411.2392 280.7132 L 407.0402 278.4675 L 404.8379 277.5247 L 401.1172 276.7993 L 395.0914 276.3297 L 392.9741 275.8053 L 392.034 275.3046 L 391.2337 274.5554 L 390.691 273.598 L 390.4279 272.571 L 390.3922 271.5387 L 390.839 269.6438 L 392.2615 266.2214 L 392.389 265.2183 L 392.2697 264.0707 L 391.9216 262.9452 L 390.7554 260.8256 L 389.1835 258.9271 L 387.3211 257.352 L 386.2769 256.7508 L 385.1408 256.3397 L 383.9156 256.199 L 382.7151 256.3964 L 381.6325 256.8532 L 379.6851 258.2145 L 374.8982 262.408 L 372.6617 263.793 L 370.2141 264.6244 L 367.6404 265.0355 L 365.0202 265.1598 L 362.3985 265.0501 L 358.5709 264.3795 L 356.2714 263.486 L 351.0569 260.7415 L 348.6052 260.0326 L 346.0343 259.6488 L 342.0724 259.4296 L 336.7113 259.5282 L 332.7644 259.8882 L 328.9958 260.4528 Z" fill="#000000" fill-opacity="1" stroke="#000000" stroke-width="0" paint-order="fill" stroke-opacity="1" stroke-dasharray="" stroke-linecap="butt" stroke-linejoin="miter" stroke-miterlimit="10" clip-path="none" style="filter: url(#f1)"/>
<path data-code="208" d="M 522.2286 218.4483 L 514.2582 210.3226 L 510.5485 206.9843 L 507.587 204.9688 L 503.166 202.8693 L 501.2693 201.4715 L 498.9122 198.7909 L 497.8529 196.8796 L 496.7182 194.1187 L 495.704 192.1416 L 494.2829 190.1152 L 492.6274 188.193 L 489.8153 185.5015 L 487.883 183.9885 L 485.9781 182.7789 L 481.7284 180.6264 L 480.5814 179.8224 L 478.5381 177.8325 L 477.6761 176.6613 L 476.9593 175.3658 L 476.0549 172.5189 L 475.5505 167.9929 L 475.4957 161.7456 L 475.7589 149.07 L 476.0151 142.8172 L 476.3687 138.7096 L 484.8612 136.0692 L 491.1268 133.1384 L 493.8389 132.2193 L 496.7003 131.7862 L 499.6235 131.7003 L 502.5507 131.894 L 506.2303 132.5354 L 509.3932 137.5603 L 511.035 139.3765 L 512.9495 140.9096 L 514.0239 141.5235 L 516.4866 142.3769 L 519.0534 142.7697 L 521.6613 142.8611 L 525.5656 142.523 L 528.0954 141.8963 L 529.3096 141.4066 L 532.3821 139.3985 L 537.8721 134.5709 L 539.8756 133.1822 L 540.9651 132.6304 L 542.1821 132.1937 L 544.7036 131.7259 L 547.2609 131.693 L 549.7824 132.0694 L 552.1012 132.888 L 557.291 135.5814 L 559.6728 136.3379 L 565.848 137.7704 L 568.1352 138.6822 L 573.3277 141.5711 L 577.9187 143.5646 L 584.0952 147.177 L 588.6806 149.1906 L 594.8736 152.7647 L 599.47 154.7418 L 605.6534 158.3341 L 610.195 160.4537 L 612.2232 161.7821 L 616.0247 164.956 L 616.07 177.9148 L 615.541 184.0196 L 614.3734 187.9244 L 611.4448 193.4408 L 609.5481 197.7878 L 596.3536 198.4054 L 593.5265 198.674 L 590.7774 199.2039 L 588.349 200.0938 L 583.1633 202.9351 L 578.6272 204.9853 L 573.4346 207.8175 L 570.9638 208.7037 L 566.6867 209.3542 L 553.3812 209.6411 L 549.0438 210.0723 L 546.2892 210.7648 L 540.9843 213.2718 L 538.7423 214.116 L 531.1926 215.7093 L 522.2286 218.4483 Z" fill="#000000" fill-opacity="1" stroke="#000000" stroke-width="0" paint-order="fill" stroke-opacity="1" stroke-dasharray="" stroke-linecap="butt" stroke-linejoin="miter" stroke-miterlimit="10" clip-path="none" style="filter: url(#f1)"/>









</svg>