<?xml version="1.0" standalone="no"?>
<!-- Generator: Paintmaps.com , Online SVG vector map maker -->
<svg xmlns="http://www.w3.org/2000/svg" version="1.1" baseProfile="full"   style="background-color:false" width="800" height="500" viewBox="0 0 800 533">
<path data-code="200" d="M 296.4209 165.0781 L 299.2894 164.4585 L 301.0663 163.6405 L 302.5834 162.4387 L 303.244 161.7102 L 304.3076 160.0159 L 304.9503 157.9692 L 305.2067 155.821 L 305.2212 153.5683 L 304.8887 148.8853 L 312.6835 154.1849 L 314.3965 155.1716 L 320.8243 157.5631 L 324.303 158.4544 L 325.5592 162.7104 L 328.0582 169.3162 L 329.0995 171.0569 L 330.3467 172.6841 L 336.6917 179.578 L 338.0106 181.1634 L 339.1806 182.8294 L 340.0438 184.47 L 341.3224 187.5602 L 344.1473 192.7926 L 345.6375 196.6754 L 347.7536 200.9255 L 348.1981 202.2362 L 348.4701 203.6992 L 344.1629 207.2044 L 341.7098 209.4496 L 327.5242 224.0257 L 325.0722 226.2604 L 323.3424 227.5592 L 321.5051 228.5788 L 318.7082 229.8089 L 313.5624 232.5288 L 311.5773 233.1305 L 307.5276 233.9963 L 305.5795 234.6069 L 300.4292 237.1611 L 299.4316 237.4552 L 297.3704 237.7582 L 295.2823 237.7299 L 293.2267 237.3477 L 292.2347 236.9939 L 290.3694 235.9116 L 285.424 231.6764 L 283.6606 230.4165 L 282.701 229.9074 L 281.6699 229.5118 L 279.5157 229.0177 L 275.0282 228.6654 L 263.5789 228.6952 L 260.2178 228.958 L 258.0446 229.3909 L 256.9967 229.7432 L 255.2232 230.6464 L 247.5392 235.9146 L 242.0642 231.6033 L 234.6478 224.266 L 232.3324 222.2537 L 230.6709 221.1385 L 229.7864 220.6966 L 228.2189 220.1697 L 225.8095 219.68 L 226.395 216.5182 L 227.0679 214.5626 L 229.2859 210.1632 L 230.9161 206.3759 L 232.0357 204.7352 L 233.405 203.3021 L 234.9803 202.1198 L 238.6146 200.3687 L 241.9444 198.4713 L 243.7325 197.6502 L 244.7491 197.3562 L 246.8394 197.0665 L 248.951 197.1054 L 251.0246 197.4696 L 252.919 198.2145 L 257.0426 200.7389 L 263.6517 203.95 L 264.4579 204.1635 L 265.3222 204.2023 L 266.1843 204.0172 L 267.6913 203.1484 L 268.3374 202.5393 L 269.4144 201.0718 L 270.9931 197.4651 L 271.9661 195.7723 L 276.2867 190.0577 L 277.4153 188.3603 L 278.339 186.5092 L 279.5135 183.5877 L 281.8736 179.2361 L 283.487 175.5249 L 284.4712 173.7649 L 285.7218 172.2467 L 287.1874 170.9554 L 288.8803 169.9298 L 292.4373 168.1488 L 294.0597 167.0023 L 296.4209 165.0781 Z" fill="#000" fill-opacity="1" stroke="#000" stroke-width="0" paint-order="fill" stroke-opacity="1" stroke-dasharray="" stroke-linecap="butt" stroke-linejoin="miter" stroke-miterlimit="10" transform="matrix(1.100000023841858,0,0,1.100000023841858,-39.99996566772461,-26.650056838989258)" clip-path="none"/>
<path data-code="201" d="M 470.618 270.1632 L 470.9494 273.6535 L 470.9192 274.4641 L 470.4769 276.1719 L 468.9397 279.5308 L 467.4416 283.3793 L 464.9885 287.6996 L 462.9195 292.4617 L 459.8662 297.6896 L 458.0155 301.5635 L 447.6511 301.88 L 445.3346 302.0696 L 443.0752 302.4682 L 441.0666 303.1668 L 436.7907 305.424 L 433.0825 307.1557 L 431.2699 308.3783 L 429.5882 309.8308 L 427.284 312.2806 L 425.9292 314.0585 L 424.8029 315.9529 L 423.203 319.7985 L 422.3095 321.5317 L 419.469 326.3879 L 418.3035 327.8001 L 416.7304 328.7585 L 411.2375 330.4349 L 406.0223 332.8384 L 403.7898 333.3863 L 400.2887 333.7162 L 388.3199 333.7446 L 383.6219 334.0282 L 380.2832 334.7806 L 375.957 336.8526 L 373.0594 337.7468 L 368.5495 338.1887 L 358.1874 338.3903 L 354.8554 338.8948 L 352.8815 339.595 L 348.619 341.8745 L 344.8806 343.5047 L 339.8345 346.4157 L 336.133 348.1594 L 334.3371 349.3477 L 331.8258 351.5123 L 329.4589 353.9352 L 321.9439 362.9623 L 322.4455 355.4773 L 322.6045 351.2316 L 322.4803 347.083 L 322.0066 344.078 L 321.3394 342.185 L 319.0542 337.8245 L 317.489 333.9565 L 314.6115 328.76 L 313.4057 325.8699 L 312.4686 324.0411 L 311.3277 322.3706 L 307.4997 317.5816 L 306.352 315.9216 L 303.6392 310.3817 L 302.4983 308.7172 L 298.6904 303.9147 L 297.5507 302.2502 L 294.8468 296.7058 L 293.7081 295.0398 L 289.3337 289.4074 L 288.3037 287.6981 L 286.6029 283.8869 L 284.8664 281.243 L 282.0326 277.9678 L 274.455 270.0304 L 272.3725 267.5522 L 270.6606 264.901 L 269.4335 262.0198 L 268.4818 260.1329 L 267.2681 258.3489 L 265.1711 255.8126 L 262.1302 252.6194 L 258.9258 249.792 L 257.243 248.6888 L 256.3742 248.2768 L 254.5861 247.7677 L 251.7378 242.7667 L 248.96 238.4912 L 247.5392 235.9146 L 255.2232 230.6464 L 256.9967 229.7432 L 258.0446 229.3909 L 260.2178 228.958 L 263.5789 228.6952 L 275.0282 228.6654 L 279.5157 229.0177 L 281.6699 229.5118 L 282.701 229.9074 L 283.6606 230.4165 L 285.424 231.6764 L 290.3694 235.9116 L 292.2347 236.9939 L 293.2267 237.3477 L 295.2823 237.7299 L 297.3704 237.7582 L 299.4316 237.4552 L 300.4292 237.1611 L 305.5795 234.6069 L 307.5276 233.9963 L 311.5773 233.1305 L 313.5624 232.5288 L 318.7082 229.8089 L 321.5051 228.5788 L 323.3424 227.5592 L 325.0722 226.2604 L 327.5242 224.0257 L 341.7098 209.4496 L 344.1629 207.2044 L 348.4701 203.6992 L 351.1046 207.388 L 355.0479 212.3069 L 356.7733 214.7656 L 357.6074 216.3943 L 358.8681 219.483 L 361.6672 224.7139 L 363.1563 228.6281 L 365.9117 233.8619 L 367.5318 237.6418 L 368.6458 239.2765 L 370.0229 240.7051 L 371.6195 241.8874 L 376.0936 244.0505 L 379.4188 246.0017 L 384.0563 248.0439 L 388.3456 250.316 L 390.2199 251.0281 L 395.2683 252.1298 L 397.2478 252.7165 L 406.1029 257.1606 L 408.8303 259.158 L 416.3083 266.4326 L 419.0391 268.4689 L 420.0478 268.9854 L 422.2356 269.6646 L 424.5084 269.9945 L 426.8261 270.1304 L 454.1405 270.0169 L 470.618 270.1632 Z" fill="#000" fill-opacity="1" stroke="#000" stroke-width="0" paint-order="fill" stroke-opacity="1" stroke-dasharray="" stroke-linecap="butt" stroke-linejoin="miter" stroke-miterlimit="10" transform="matrix(1.100000023841858,0,0,1.100000023841858,-39.99996566772461,-26.650056838989258)" clip-path="none"/>
<path data-code="202" d="M 470.618 270.1632 L 464.9673 261.4779 L 464.0716 259.6283 L 462.906 256.7202 L 460.6365 252.3328 L 459.9289 250.3966 L 458.5831 244.1461 L 457.8823 242.2502 L 455.7852 237.8239 L 455.4986 236.7924 L 455.194 234.6591 L 455.3049 231.4182 L 455.7919 229.3207 L 456.1614 228.3862 L 458.4555 224.0525 L 460.0633 220.198 L 462.943 214.9985 L 464.1566 212.1173 L 465.1318 210.2483 L 466.3567 208.5091 L 468.4672 206.0445 L 477.5854 196.547 L 478.9671 194.89 L 480.1897 193.1508 L 481.1604 191.2803 L 482.3573 188.3917 L 485.1552 183.1593 L 487.1135 178.3733 L 489.4781 174.0306 L 491.1184 170.1806 L 492.2178 168.3772 L 494.213 165.8409 L 496.412 163.4076 L 501.7806 157.8737 L 504.9446 154.8895 L 506.5983 153.5489 L 508.3449 152.4173 L 512.0677 150.7185 L 517.1239 147.8045 L 520.8881 146.2146 L 526.0317 143.4827 L 528.0123 142.8826 L 532.0732 142.0601 L 534.046 141.4853 L 538.3789 139.3819 L 540.2733 138.731 L 542.3278 138.3653 L 548.6358 137.789 L 550.6914 137.3472 L 551.6857 136.9859 L 553.4334 136.0051 L 555.0311 134.7631 L 558.727 131.1683 L 562.574 135.5468 L 564.4785 138.3862 L 566.2106 142.1959 L 569.041 147.4059 L 570.6286 151.2619 L 572.8209 155.6672 L 573.7546 158.9336 L 574.0401 161.352 L 574.1902 165.0631 L 574.1364 205.3966 L 574.039 209.1287 L 573.6628 212.7757 L 572.7145 216.0375 L 570.4887 220.4324 L 568.8652 224.2765 L 566.0079 229.4864 L 564.3666 233.3424 L 561.4858 238.6002 L 560.4288 241.032 L 553.3539 243.2384 L 551.558 244.1625 L 550.0242 245.4001 L 548.1745 247.708 L 543.8852 256.7591 L 543.34 258.9938 L 542.9828 262.4856 L 542.9112 268.4405 L 543.125 273.1862 L 543.3825 275.5016 L 543.8281 277.7229 L 546.3451 284.0003 L 546.5835 286.0321 L 546.5152 287.0636 L 546.0002 289.0162 L 545.1291 290.7554 L 540.5723 297.821 L 538.0598 298.9675 L 535.5743 300.7947 L 532.4102 303.7162 L 527.0505 309.2397 L 524.8684 311.6834 L 522.89 314.2257 L 521.8017 316.0171 L 520.55 318.8819 L 519.5916 320.7375 L 518.3913 322.4826 L 517.04 324.1606 L 513.3541 328.2076 L 508.7424 332.9325 L 506.371 335.1642 L 503.8743 337.1273 L 502.0616 338.1395 L 499.2793 339.3785 L 495.0494 341.7118 L 494.1402 342.094 L 492.1048 342.6314 L 489.9909 342.9001 L 486.7496 343.0419 L 468.0205 342.93 L 467.7977 338.4918 L 467.3118 335.2613 L 466.6825 333.2922 L 465.0468 329.7169 L 464.3649 327.8016 L 463.2128 322.62 L 462.625 320.5957 L 460.6018 316.1127 L 459.948 314.1556 L 459.5315 312.0313 L 458.7556 305.4225 L 458.0155 301.5635 L 459.8662 297.6896 L 462.9195 292.4617 L 464.9885 287.6996 L 467.4416 283.3793 L 468.9397 279.5308 L 470.4769 276.1719 L 470.9192 274.4641 L 470.9494 273.6535 L 470.618 270.1632 Z" fill="#000" fill-opacity="1" stroke="#000" stroke-width="0" paint-order="fill" stroke-opacity="1" stroke-dasharray="" stroke-linecap="butt" stroke-linejoin="miter" stroke-miterlimit="10" transform="matrix(1.100000023841858,0,0,1.100000023841858,-39.99996566772461,-26.650056838989258)" clip-path="none"/>
<path data-code="203" d="M 295.5185 111.2181 L 296.0134 108.0174 L 296.3482 104.4884 L 296.5284 87.1924 L 296.7154 83.5544 L 297.0143 81.1897 L 297.5674 78.9221 L 299.4462 74.5988 L 300.184 72.3835 L 300.6117 70.0785 L 301.6373 61.7933 L 302.2229 59.7332 L 304.6748 53.3006 L 309.5251 56.3071 L 311.2459 57.6328 L 313.6789 59.8631 L 319.9521 66.0777 L 321.6013 67.4646 L 323.3536 68.6364 L 327.064 70.3472 L 332.1885 73.1299 L 334.1781 73.7673 L 338.2435 74.775 L 342.1454 76.0439 L 342.3435 76.7888 L 342.6604 77.2337 L 343.8237 77.8831 L 345.4057 78.1383 L 347.2027 78.0592 L 349.0747 77.6412 L 353.1412 75.7155 L 355.198 74.9422 L 358.3352 74.363 L 362.6849 74.0256 L 362.5696 93.0383 L 362.7308 96.5331 L 363.0197 98.8081 L 363.257 99.9158 L 363.9557 101.9237 L 366.2285 106.2858 L 367.8587 110.1104 L 370.164 114.468 L 370.8895 116.5057 L 371.3217 118.8017 L 371.6117 123.5504 L 371.4437 128.3245 L 370.8884 131.7998 L 370.173 133.8495 L 367.9192 138.2488 L 366.3371 142.1228 L 363.968 146.4669 L 361.8284 151.0783 L 360.7065 152.707 L 359.3484 154.1431 L 357.791 155.3433 L 356.8998 155.8538 L 349.9637 159.4128 L 348.0301 160.0398 L 345.9532 160.2965 L 343.8662 160.2368 L 341.8263 159.8741 L 339.9666 159.1903 L 335.7445 157.0705 L 334.7648 156.7749 L 332.7271 156.4465 L 330.6468 156.4256 L 328.5889 156.7077 L 326.7393 157.3004 L 324.303 158.4544 L 320.8243 157.5631 L 314.3965 155.1716 L 312.6835 154.1849 L 304.8887 148.8853 L 305.2906 143.1334 L 305.378 137.1188 L 305.2268 133.5598 L 304.7051 130.1099 L 304.0165 128.0692 L 301.7963 123.6728 L 300.156 119.8243 L 297.1498 114.5979 L 295.5185 111.2181 Z" fill="#000" fill-opacity="1" stroke="#000" stroke-width="0" paint-order="fill" stroke-opacity="1" stroke-dasharray="" stroke-linecap="butt" stroke-linejoin="miter" stroke-miterlimit="10" transform="matrix(1.100000023841858,0,0,1.100000023841858,-39.99996566772461,-26.650056838989258)" clip-path="none"/>
<path data-code="204" d="M 324.303 158.4544 L 326.7393 157.3004 L 328.5889 156.7077 L 330.6468 156.4256 L 332.7271 156.4465 L 334.7648 156.7749 L 335.7445 157.0705 L 339.9666 159.1903 L 341.8263 159.8741 L 343.8662 160.2368 L 345.9532 160.2965 L 348.0301 160.0398 L 349.9637 159.4128 L 356.8998 155.8538 L 357.791 155.3433 L 359.3484 154.1431 L 360.7065 152.707 L 361.8284 151.0783 L 363.968 146.4669 L 366.3371 142.1228 L 367.9192 138.2488 L 370.173 133.8495 L 370.8884 131.7998 L 371.4437 128.3245 L 371.6117 123.5504 L 371.3217 118.8017 L 370.8895 116.5057 L 370.164 114.468 L 367.8587 110.1104 L 366.2285 106.2858 L 363.9557 101.9237 L 363.257 99.9158 L 363.0197 98.8081 L 362.7308 96.5331 L 362.5696 93.0383 L 362.6849 74.0256 L 365.709 73.3359 L 367.5743 72.6029 L 371.811 70.2189 L 375.5315 68.5409 L 378.8579 66.6107 L 380.6202 65.7732 L 381.62 65.4642 L 383.6857 65.1313 L 385.7817 65.1178 L 387.8541 65.4254 L 389.7698 66.0986 L 398.5297 70.8279 L 401.0276 72.8671 L 408.8908 80.5314 L 410.5792 81.8421 L 412.3862 82.896 L 415.1517 84.1933 L 419.3716 86.5669 L 421.2895 87.276 L 423.3731 87.6671 L 425.5027 87.8254 L 429.774 87.6298 L 432.8541 86.9088 L 437.1916 84.7501 L 439.0434 84.0425 L 444.0974 82.9572 L 446.0825 82.3631 L 447.8359 81.5226 L 452.6816 78.6892 L 454.1606 77.5681 L 455.2735 76.0588 L 458.039 71.0713 L 458.8283 69.2306 L 459.4688 66.0315 L 459.6737 60.4542 L 459.6815 55.8981 L 470.2351 55.6995 L 472.5124 55.8115 L 474.7349 56.1265 L 476.861 56.8251 L 477.7332 57.3103 L 479.2794 58.5419 L 480.5648 60.0362 L 481.5747 61.7873 L 485.247 69.9487 L 485.8001 72.0117 L 486.828 77.2471 L 487.4874 79.1818 L 489.4949 83.6872 L 491.4643 91.959 L 493.8144 97.4049 L 494.3597 99.4486 L 495.1479 103.639 L 495.72 105.6856 L 496.525 107.4949 L 499.2984 112.4736 L 500.4023 113.9843 L 501.0965 114.6053 L 508.28 119.0898 L 512.0084 120.7185 L 516.2864 122.9801 L 518.3119 123.6982 L 520.616 124.1177 L 524.1765 124.3655 L 543.5997 124.1639 L 547.1691 124.3222 L 549.4923 124.6596 L 551.726 125.3627 L 553.6764 126.5002 L 555.442 127.9304 L 558.727 131.1683 L 555.0311 134.7631 L 553.4334 136.0051 L 551.6857 136.9859 L 550.6914 137.3472 L 548.6358 137.789 L 542.3278 138.3653 L 540.2733 138.731 L 538.3789 139.3819 L 534.046 141.4853 L 532.0732 142.0601 L 528.0123 142.8826 L 526.0317 143.4827 L 520.8881 146.2146 L 517.1239 147.8045 L 512.0677 150.7185 L 508.3449 152.4173 L 506.5983 153.5489 L 504.9446 154.8895 L 501.7806 157.8737 L 496.412 163.4076 L 494.213 165.8409 L 492.2178 168.3772 L 491.1184 170.1806 L 489.4781 174.0306 L 487.1135 178.3733 L 485.1552 183.1593 L 482.3573 188.3917 L 481.1604 191.2803 L 480.1897 193.1508 L 478.9671 194.89 L 477.5854 196.547 L 468.4672 206.0445 L 466.3567 208.5091 L 465.1318 210.2483 L 464.1566 212.1173 L 462.943 214.9985 L 460.0633 220.198 L 458.4555 224.0525 L 456.1614 228.3862 L 455.7919 229.3207 L 455.3049 231.4182 L 455.194 234.6591 L 455.4986 236.7924 L 455.7852 237.8239 L 457.8823 242.2502 L 458.5831 244.1461 L 459.9289 250.3966 L 460.6365 252.3328 L 462.906 256.7202 L 464.0716 259.6283 L 464.9673 261.4779 L 470.618 270.1632 L 454.1405 270.0169 L 426.8261 270.1304 L 424.5084 269.9945 L 422.2356 269.6646 L 420.0478 268.9854 L 419.0391 268.4689 L 416.3083 266.4326 L 408.8303 259.158 L 406.1029 257.1606 L 397.2478 252.7165 L 395.2683 252.1298 L 390.2199 251.0281 L 388.3456 250.316 L 384.0563 248.0439 L 379.4188 246.0017 L 376.0936 244.0505 L 371.6195 241.8874 L 370.0229 240.7051 L 368.6458 239.2765 L 367.5318 237.6418 L 365.9117 233.8619 L 363.1563 228.6281 L 361.6672 224.7139 L 358.8681 219.483 L 357.6074 216.3943 L 356.7733 214.7656 L 355.0479 212.3069 L 351.1046 207.388 L 348.4701 203.6992 L 348.1981 202.2362 L 347.7536 200.9255 L 345.6375 196.6754 L 344.1473 192.7926 L 341.3224 187.5602 L 340.0438 184.47 L 339.1806 182.8294 L 338.0106 181.1634 L 336.6917 179.578 L 330.3467 172.6841 L 329.0995 171.0569 L 328.0582 169.3162 L 325.5592 162.7104 L 324.303 158.4544 Z" fill="#000" fill-opacity="1" stroke="#000" stroke-width="0" paint-order="fill" stroke-opacity="1" stroke-dasharray="" stroke-linecap="butt" stroke-linejoin="miter" stroke-miterlimit="10" transform="matrix(1.100000023841858,0,0,1.100000023841858,-39.99996566772461,-26.650056838989258)" clip-path="none"/>
<path data-code="205" d="M 418.8263 461.4327 L 399.8565 461.2431 L 396.4786 461.4865 L 393.2384 462.2194 L 385.3204 466.2143 L 383.4943 467.2742 L 381.7566 468.5938 L 377.5782 472.2214 L 374.9056 474.1353 L 367.1623 478.1047 L 364.9611 478.9004 L 362.658 479.3214 L 359.0965 479.5677 L 338.5693 479.7005 L 336.2752 474.6592 L 334.832 470.6883 L 332.0374 465.4484 L 330.4363 461.591 L 328.7255 458.9531 L 326.652 456.4989 L 314.616 443.8501 L 312.2849 441.6541 L 310.6268 440.3748 L 308.804 439.391 L 307.1123 438.9103 L 304.4968 438.6625 L 301.6989 438.7357 L 300.8591 434.9259 L 300.4538 431.3476 L 300.2937 425.336 L 300.5065 420.5798 L 300.8121 418.2659 L 301.3697 416.0461 L 303.3716 411.5526 L 304.04 409.5209 L 304.461 407.2159 L 305.0891 401.2998 L 305.5146 398.98 L 306.2065 396.9228 L 308.4121 392.504 L 310.0155 388.6406 L 312.4249 384.3039 L 314.5108 379.5641 L 317.3356 374.3303 L 318.8997 370.4653 L 321.0292 366.1227 L 321.9439 362.9623 L 329.4589 353.9352 L 331.8258 351.5123 L 334.3371 349.3477 L 336.133 348.1594 L 339.8345 346.4157 L 344.8806 343.5047 L 348.619 341.8745 L 352.8815 339.595 L 354.8554 338.8948 L 358.1874 338.3903 L 368.5495 338.1887 L 373.0594 337.7468 L 375.957 336.8526 L 380.2832 334.7806 L 383.6219 334.0282 L 388.3199 333.7446 L 400.2887 333.7162 L 403.7898 333.3863 L 406.0223 332.8384 L 411.2375 330.4349 L 416.7304 328.7585 L 418.3035 327.8001 L 419.469 326.3879 L 422.3095 321.5317 L 423.203 319.7985 L 424.8029 315.9529 L 425.9292 314.0585 L 427.284 312.2806 L 429.5882 309.8308 L 431.2699 308.3783 L 433.0825 307.1557 L 436.7907 305.424 L 441.0666 303.1668 L 443.0752 302.4682 L 445.3346 302.0696 L 447.6511 301.88 L 458.0155 301.5635 L 458.7556 305.4225 L 459.5315 312.0313 L 459.948 314.1556 L 460.6018 316.1127 L 462.625 320.5957 L 463.2128 322.62 L 464.3649 327.8016 L 465.0468 329.7169 L 466.6825 333.2922 L 467.3118 335.2613 L 467.7977 338.4918 L 468.0205 342.93 L 464.0592 341.8357 L 459.7621 339.6532 L 456.6977 338.6635 L 453.2974 338.2305 L 449.8344 338.1036 L 446.3815 338.2275 L 444.1165 338.5366 L 441.9197 339.1919 L 440.8886 339.701 L 438.9852 340.9818 L 437.2128 342.4747 L 433.8685 345.7529 L 431.5453 348.3699 L 430.1816 350.2344 L 429.1191 352.299 L 428.576 354.4263 L 428.4227 356.5969 L 428.5884 358.754 L 429.1 360.8455 L 429.9129 362.6623 L 431.7849 366.0868 L 433.4285 369.9174 L 436.1335 375.2021 L 436.7404 377.2368 L 437.6025 381.4063 L 438.178 383.4291 L 440.2157 387.8957 L 440.8841 389.908 L 441.407 393.2967 L 441.6063 396.8019 L 441.7339 406.2934 L 441.5548 410.9391 L 441.2278 413.1798 L 440.5415 415.3146 L 440.0634 416.2043 L 438.8598 417.7718 L 436.6172 419.6035 L 433.0378 421.3426 L 431.1702 422.5041 L 427.6132 425.4196 L 425.0817 427.8603 L 422.7316 430.4549 L 421.3578 432.318 L 420.2796 434.3691 L 419.6582 436.589 L 419.291 440.0434 L 419.2518 454.3134 L 418.8263 461.4327 Z" fill="#000" fill-opacity="1" stroke="#000" stroke-width="0" paint-order="fill" stroke-opacity="1" stroke-dasharray="" stroke-linecap="butt" stroke-linejoin="miter" stroke-miterlimit="10" transform="matrix(1.100000023841858,0,0,1.100000023841858,-39.99996566772461,-26.650056838989258)" clip-path="none"/>






<path fill="rgba(255,255,255,0)" fill-opacity="0" stroke="#ccc" stroke-width="0" paint-order="fill" stroke-opacity="1" stroke-dasharray="" stroke-linecap="butt" stroke-linejoin="miter" stroke-miterlimit="10" transform="matrix(1,0,0,1,15,10)" clip-path="none"/><defs/>
</svg>