<?xml version="1.0" standalone="no"?>
<!-- Generator: Paintmaps.com , Online SVG vector map maker -->
<svg xmlns="http://www.w3.org/2000/svg" version="1.1" baseProfile="full" width="800" height="533" style="background-color:false">

<path data-code="4001" d="M 422.4311 68.0485 L 423.3618 78.0489 L 423.7474 93.6753 L 423.7111 113.7137 L 422.9439 122.3654 L 422.5078 124.4516 L 421.2379 128.1718 L 417.1779 136.0752 L 414.2262 142.996 L 408.9811 152.3288 L 406.0335 159.2523 L 402.7608 165.5513 L 401.3415 168.8758 L 400.3745 172.8732 L 399.9101 177.0295 L 399.7365 183.4039 L 399.8899 198.3116 L 399.3428 204.4706 L 398.194 208.3927 L 397.3461 210.0266 L 395.1455 212.8881 L 392.3856 215.1762 L 390.8089 216.0619 L 386.9951 217.2786 L 383.028 217.7874 L 378.9598 217.9354 L 357.9753 217.6205 L 332.7752 217.6528 L 326.6538 217.1682 L 322.6968 216.3095 L 318.9658 214.6782 L 315.6124 212.3444 L 310.9931 208.1827 L 303.5453 200.8042 L 298.8897 196.7207 L 295.5868 194.4433 L 289.0253 191.0758 L 285.6517 188.7984 L 280.8628 184.7337 L 269.8961 174.5314 L 265.0002 170.7009 L 268.1942 165.7505 L 271.7939 161.0505 L 275.757 156.6223 L 289.3786 142.3311 L 293.0086 137.8168 L 294.9973 134.5866 L 297.9529 127.6496 L 303.085 118.2495 L 305.857 111.2345 L 309.1882 104.9381 L 310.6782 101.6702 L 311.7159 97.9742 L 313.545 88.5176 L 314.7786 85.037 L 318.6105 77.0098 L 319.632 73.3219 L 320.3326 69.5264 L 337.2632 69.5049 L 345.5125 70.1294 L 351.3774 71.5103 L 360.8078 75.8927 L 364.8416 76.9991 L 371.2092 77.8093 L 382.1154 78.1054 L 390.8008 77.6963 L 397.0958 76.6383 L 401.0548 75.2116 L 406.6614 72.4067 L 410.3418 70.9531 L 422.4311 68.0485 Z" fill="#8cd5f7" fill-opacity="1" stroke="#000000" stroke-width="0.4999999925494195" paint-order="fill" stroke-opacity="1" stroke-dasharray="" stroke-linecap="butt" stroke-linejoin="miter" stroke-miterlimit="10" transform="matrix(0.800000011920929,0,0,0.800000011920929,80.00017547607422,53.29995346069336)" clip-path="none"/>
<path data-code="4002" d="M 188.4127 449.0687 L 186.305 450.4228 L 185.4671 451.3999 L 182.2631 456.7945 L 180.0605 459.7394 L 176.2387 464.1621 L 170.6847 469.9335 L 166.3258 473.9902 L 163.3055 476.4075 L 160.1399 478.3941 L 157.2044 479.6997 L 145.7753 474.0144 L 135.7897 469.7532 L 125.6306 463.5753 L 123.004 461.5618 L 121.0476 458.8511 L 114.9182 448.4038 L 111.266 439.8679 L 107.3816 432.1206 L 106.465 428.5835 L 106.3439 426.6965 L 106.4569 424.8095 L 107.3614 421.2696 L 115.2776 405.2475 L 118.4432 401.0267 L 123.3573 395.5568 L 126.6118 390.5014 L 131.5137 380.3611 L 133.9 376.972 L 136.5913 373.7417 L 142.4623 367.615 L 148.7148 362.0347 L 153.6814 358.6483 L 160.1136 355.4261 L 162.8795 353.3318 L 165.2719 350.753 L 166.2935 349.2994 L 167.8844 345.9857 L 171.0057 333.2046 L 174.6054 325.129 L 176.1943 319.4141 L 176.8343 313.1178 L 177.022 306.6761 L 176.7919 269.6681 L 177.1553 258.9463 L 177.6741 254.7819 L 178.6674 250.7872 L 183.0646 241.0856 L 184.9503 233.6964 L 188.4854 234.3828 L 191.9256 235.543 L 193.4499 236.3856 L 196.1876 238.5552 L 198.4811 241.2121 L 199.43 242.6846 L 203.3628 250.9944 L 205.4806 254.1466 L 207.8852 257.1966 L 213.1222 263.116 L 219.9825 270.3141 L 224.1859 274.4919 L 228.5286 278.379 L 233.1862 281.5823 L 239.9455 284.5569 L 249.182 289.6499 L 254.3323 291.685 L 257.6171 293.327 L 260.5788 295.3729 L 264.5601 298.8885 L 266.8031 301.435 L 268.499 304.2292 L 269.0078 305.8012 L 269.1511 307.5267 L 268.8342 309.228 L 268.1598 310.722 L 266.1369 313.1743 L 263.5163 315.0263 L 257.1285 317.6401 L 254.1042 319.3683 L 251.1949 321.5299 L 248.429 323.9795 L 244.6597 328.0927 L 242.5782 331.1857 L 241.0943 334.7767 L 240.3251 338.6853 L 240.0303 342.672 L 240.0566 346.6802 L 240.3836 350.6615 L 241.1104 354.5486 L 242.4025 358.1126 L 246.6766 365.9272 L 248.9378 371.0794 L 250.7023 374.3312 L 252.8262 377.2735 L 259.7591 385.7718 L 261.7033 388.862 L 262.4746 390.5364 L 263.5002 394.3293 L 263.9181 398.2729 L 263.9504 402.2622 L 263.4659 410.276 L 253.767 413.3851 L 250.0098 413.9719 L 238.5444 415.0299 L 234.8255 415.7244 L 231.3934 416.9061 L 223.564 420.6182 L 220.033 421.6223 L 212.7608 423.1217 L 209.1894 424.3142 L 207.437 425.2133 L 204.1764 427.4718 L 201.1602 430.134 L 195.7252 436.1908 L 192.4223 441.2704 L 188.4127 449.0687 Z" fill="#f5fc98" fill-opacity="1" stroke="#000000" stroke-width="0.4999999925494195" paint-order="fill" stroke-opacity="1" stroke-dasharray="" stroke-linecap="butt" stroke-linejoin="miter" stroke-miterlimit="10" transform="matrix(0.800000011920929,0,0,0.800000011920929,80.00017547607422,53.29995346069336)" clip-path="none"/>
<path data-code="4003" d="M 657.3782 267.9614 L 671.6963 266.672 L 677.4946 266.7177 L 681.2639 267.17 L 684.902 268.2952 L 687.9667 270.2199 L 690.4924 272.796 L 692.3781 275.959 L 693.4158 279.7384 L 693.658 283.6147 L 693.3047 287.491 L 692.3336 291.2758 L 690.8316 294.5761 L 687.4378 300.7862 L 683.6644 309.3114 L 676.6144 321.1477 L 675.5363 322.4452 L 672.8955 324.4856 L 662.6273 330.4239 L 659.2436 331.7025 L 650.1081 333.5734 L 644.9073 335.2881 L 637.1688 339.396 L 630.3732 342.2924 L 621.2477 347.5766 L 616.2388 349.8566 L 613.0872 351.601 L 610.2244 353.6629 L 600.2651 361.8867 L 597.2973 363.8033 L 590.7399 367.0255 L 587.8448 369.0848 L 585.204 371.5748 L 582.8318 374.3905 L 577.621 381.9708 L 573.1511 384.1647 L 565.5842 388.6359 L 560.5692 390.9671 L 557.2663 392.846 L 554.1087 395.1907 L 544.9711 402.8706 L 541.7287 405.0483 L 535.0845 408.2598 L 527.4227 412.4322 L 523.7786 413.7324 L 519.6297 414.4807 L 511.0493 414.9572 L 486.9172 414.9329 L 476.0151 414.7472 L 469.6212 414.2304 L 463.5362 412.844 L 455.725 409.1239 L 452.1859 407.8721 L 446.113 406.8411 L 431.4132 405.576 L 422.7057 403.5032 L 416.1482 400.5125 L 410.675 398.9943 L 402.5347 398.2998 L 385.9877 398.0279 L 381.9317 397.686 L 377.9908 396.97 L 374.4657 395.7371 L 366.6869 391.9039 L 352.401 387.9333 L 344.6666 384.0005 L 341.2364 382.738 L 335.5916 381.7905 L 329.8094 381.6478 L 324.0858 382.2508 L 318.776 383.9547 L 311.1405 388.1998 L 304.4357 391.2605 L 295.3607 396.6174 L 288.6235 399.6134 L 280.9537 403.8881 L 277.6063 405.3095 L 268.6403 408.1306 L 263.4659 410.276 L 263.9504 402.2622 L 263.9181 398.2729 L 263.5002 394.3293 L 262.4746 390.5364 L 261.7033 388.862 L 259.7591 385.7718 L 252.8262 377.2735 L 250.7023 374.3312 L 248.9378 371.0794 L 246.6766 365.9272 L 242.4025 358.1126 L 241.1104 354.5486 L 240.3836 350.6615 L 240.0566 346.6802 L 240.0303 342.672 L 240.3251 338.6853 L 241.0943 334.7767 L 242.5782 331.1857 L 244.6597 328.0927 L 248.429 323.9795 L 251.1949 321.5299 L 254.1042 319.3683 L 257.1285 317.6401 L 263.5163 315.0263 L 266.1369 313.1743 L 268.1598 310.722 L 268.8342 309.228 L 269.1511 307.5267 L 269.0078 305.8012 L 268.499 304.2292 L 266.8031 301.435 L 264.5601 298.8885 L 260.5788 295.3729 L 257.6171 293.327 L 254.3323 291.685 L 249.182 289.6499 L 239.9455 284.5569 L 233.1862 281.5823 L 228.5286 278.379 L 224.1859 274.4919 L 219.9825 270.3141 L 213.1222 263.116 L 207.8852 257.1966 L 205.4806 254.1466 L 203.3628 250.9944 L 199.43 242.6846 L 198.4811 241.2121 L 196.1876 238.5552 L 193.4499 236.3856 L 191.9256 235.543 L 188.4854 234.3828 L 184.9503 233.6964 L 184.9644 225.4808 L 185.6388 221.6906 L 186.63 217.9839 L 191.2513 208.3227 L 194.1485 201.3426 L 195.1297 199.6064 L 197.4555 196.333 L 200.1103 193.2939 L 203.0034 190.4916 L 206.1307 188.0097 L 209.5548 186.0473 L 211.3274 185.3717 L 220.4166 183.3797 L 223.9557 182.3837 L 231.7911 178.6796 L 235.2192 177.506 L 238.9361 176.8195 L 250.3894 175.7293 L 254.1445 175.0671 L 257.5504 173.985 L 265.0002 170.7009 L 269.8961 174.5314 L 280.8628 184.7337 L 285.6517 188.7984 L 289.0253 191.0758 L 295.5868 194.4433 L 298.8897 196.7207 L 303.5453 200.8042 L 310.9931 208.1827 L 315.6124 212.3444 L 318.9658 214.6782 L 322.6968 216.3095 L 326.6538 217.1682 L 332.7752 217.6528 L 357.9753 217.6205 L 378.9598 217.9354 L 383.028 217.7874 L 386.9951 217.2786 L 390.8089 216.0619 L 392.3856 215.1762 L 395.1455 212.8881 L 397.3461 210.0266 L 398.194 208.3927 L 399.3428 204.4706 L 399.8899 198.3116 L 399.7365 183.4039 L 399.9101 177.0295 L 400.3745 172.8732 L 401.3415 168.8758 L 402.7608 165.5513 L 406.0335 159.2523 L 408.9811 152.3288 L 414.2262 142.996 L 417.1779 136.0752 L 421.2379 128.1718 L 422.5078 124.4516 L 422.9439 122.3654 L 423.7111 113.7137 L 423.7474 93.6753 L 423.3618 78.0489 L 422.4311 68.0485 L 429.681 69.1361 L 436.0951 69.6018 L 442.483 69.6233 L 448.7497 69.1414 L 454.7196 67.7659 L 464.162 63.432 L 470.1724 62.0645 L 478.6296 61.5153 L 498.0192 61.4346 L 506.422 60.6862 L 510.4154 59.6687 L 519.8699 55.2782 L 527.0007 53.2997 L 534.9492 53.3078 L 536.7965 60.7293 L 541.5167 70.3124 L 544.3755 77.2736 L 548.3366 85.2308 L 549.974 90.9538 L 550.6261 97.2582 L 551.2156 110.0635 L 551.7223 114.2305 L 553.2991 119.9023 L 556.8342 128.013 L 558.1284 134.242 L 558.5725 140.7833 L 558.6331 160.8324 L 559.1277 169.5891 L 560.4178 175.8209 L 563.9287 183.9504 L 565.451 189.641 L 566.0183 195.9346 L 566.416 208.6511 L 567.4699 214.7401 L 569.0769 218.2477 L 570.1167 219.7013 L 572.5979 222.1859 L 575.5193 224.0379 L 577.193 224.7055 L 582.3493 225.8765 L 582.5976 235.7638 L 583.2982 239.5809 L 583.9301 241.4221 L 584.7397 243.0615 L 586.8373 245.9768 L 589.4215 248.4075 L 590.8671 249.4143 L 605.1448 256.4778 L 608.6799 257.6838 L 612.6188 258.3998 L 625.1159 259.8158 L 629.1295 260.8441 L 636.7045 264.3085 L 640.6696 265.6975 L 644.8488 266.5078 L 657.3782 267.9614 Z" fill="#f5fc98" fill-opacity="1" stroke="#000000" stroke-width="0.4999999925494195" paint-order="fill" stroke-opacity="1" stroke-dasharray="" stroke-linecap="butt" stroke-linejoin="miter" stroke-miterlimit="10" transform="matrix(0.800000011920929,0,0,0.800000011920929,80.00017547607422,53.29995346069336)" clip-path="none"/>
</svg>