<?xml version="1.0" standalone="no"?>
<!-- Generator: Paintmaps.com , Online SVG vector map maker -->
<svg xmlns="http://www.w3.org/2000/svg" version="1.1" baseProfile="full"   style="background-color:#e0f2f1" width="800" height="500" viewBox="0 0 800 533">

<path data-code="200" d="M 199.6854 305.0659 L 196.91 301.0307 L 196.0887 299.4232 L 195.9066 298.8011 L 195.7219 297.5221 L 195.8002 295.5942 L 196.0907 294.3527 L 197.3184 291.709 L 197.7214 290.563 L 198.0561 288.661 L 198.3908 285.4077 L 198.8112 283.5218 L 199.2817 282.4239 L 200.3568 280.3229 L 201.5463 277.4694 L 203.3939 274.1287 L 206.281 274.8159 L 211.155 275.2354 L 213.1685 275.5773 L 214.342 275.9923 L 216.9319 277.2258 L 218.9495 277.6854 L 221.0695 277.8568 L 224.6843 277.9184 L 232.6857 277.9264 L 235.5307 277.7684 L 236.9063 277.5203 L 238.1146 277.0892 L 240.655 275.7058 L 242.858 274.641 L 243.933 273.9189 L 246.9628 271.3725 L 248.0097 270.5951 L 249.1049 269.9721 L 250.7677 269.1992 L 253.2766 267.7167 L 254.7587 266.9892 L 258.0421 268.7832 L 259.6667 269.4152 L 260.9158 269.6472 L 262.187 269.7463 L 264.0928 269.7052 L 265.3319 269.5446 L 266.5683 269.2108 L 269.1642 267.9023 L 270.2674 267.4712 L 273.2777 266.7884 L 274.4559 266.418 L 277.5104 264.7454 L 279.7382 263.7475 L 281.7343 262.5747 L 282.7893 262.0508 L 284.0043 261.6947 L 285.9047 261.4626 L 287.188 261.4484 L 288.4638 261.5483 L 289.7143 261.8107 L 290.3201 262.033 L 290.9119 262.3382 L 291.9876 263.1103 L 292.9596 264.0198 L 294.2662 265.5371 L 295.3272 267.2043 L 296.3247 269.4928 L 296.98 270.579 L 298.1789 272.1142 L 301.7013 276.036 L 302.4952 277.0616 L 303.1687 278.1487 L 304.1627 280.4452 L 305.8389 283.5735 L 306.7721 285.8923 L 308.4757 289.0082 L 309.4276 291.3145 L 310.7878 293.9297 L 311.2022 295.1087 L 311.4425 296.394 L 311.6018 298.3861 L 311.6426 301.7697 L 311.5576 304.467 L 311.3287 306.4422 L 311.0027 307.7033 L 310.7778 308.2665 L 309.4396 310.9049 L 308.5192 313.2246 L 307.9636 314.2653 L 306.2044 317.1285 L 305.4741 317.9416 L 304.9995 318.2317 L 303.9351 318.5646 L 299.7875 318.894 L 298.6073 319.2055 L 297.5979 319.7883 L 296.7658 320.6023 L 296.1754 321.6421 L 296.0107 322.2687 L 295.9592 322.9068 L 296.01 323.5432 L 296.1627 324.168 L 296.7303 325.2917 L 297.9239 326.7617 L 301.1189 330.0543 L 302.3694 331.5555 L 303.0575 332.6266 L 304.3696 335.3524 L 305.2652 336.6636 L 304.5858 339.1609 L 303.3788 342.4999 L 302.8032 343.5798 L 302.4484 344.0565 L 301.629 344.9062 L 300.6858 345.5952 L 300.147 345.8799 L 298.5016 346.6011 L 295.4665 348.3076 L 293.2066 349.2644 L 290.1922 351.0629 L 287.9819 352.0706 L 286.0399 353.1898 L 284.9983 353.6254 L 284.4026 353.7459 L 283.1876 353.7182 L 282.5885 353.5638 L 281.4947 352.9926 L 280.0581 351.7698 L 277.3678 348.9217 L 275.9567 347.5695 L 274.9204 346.8064 L 274.3528 346.5011 L 273.1338 346.1013 L 271.87 345.9112 L 269.9521 345.8772 L 268.687 345.9995 L 267.4613 346.2816 L 266.8776 346.5074 L 265.8781 347.0982 L 264.0105 348.7119 L 262.2004 348.3192 L 261.0738 347.9042 L 258.512 346.5582 L 256.2896 345.5336 L 255.2072 344.8098 L 254.2017 343.9485 L 252.8174 342.5008 L 251.992 341.4565 L 251.2878 340.3435 L 249.8814 337.5365 L 247.1141 333.869 L 246.4306 332.748 L 246.1635 332.1402 L 245.8522 330.8853 L 245.8 328.9609 L 246.1769 327.1018 L 247.4133 324.5054 L 247.8082 323.362 L 248.0499 321.4654 L 247.8845 319.5473 L 247.519 318.3629 L 246.2171 315.7389 L 245.2759 313.4191 L 243.8775 310.812 L 242.6177 308.0755 L 241.5346 306.6876 L 240.6148 305.9495 L 239.4574 305.4041 L 238.7987 305.231 L 237.4418 305.0418 L 236.0501 304.9748 L 225.2988 305.0846 L 199.6854 305.0659 Z" fill="#000000" fill-opacity="1" stroke="#000000" stroke-width="0" paint-order="fill" stroke-opacity="1" stroke-dasharray="" stroke-linecap="butt" stroke-linejoin="miter" stroke-miterlimit="10" transform="matrix(1.100000023841858,0,0,1.100000023841858,-40.000030517578125,-26.64992904663086)" clip-path="none" style="filter: url(#f1)"/>
<path data-code="201" d="M 261.9822 393.654 L 261.4366 390.1856 L 261.2673 387.2839 L 261.2967 385.1043 L 261.4159 383.6727 L 261.8644 381.6074 L 262.3363 380.5104 L 263.394 378.4478 L 264.3559 376.1343 L 266.1064 373.0015 L 267.1246 370.7246 L 267.8194 369.6152 L 270.3223 366.5047 L 271.4375 364.8669 L 272.4952 362.5963 L 273.6506 360.555 L 274.1547 359.4653 L 274.474 358.2086 L 274.5811 356.9197 L 274.4833 355.6336 L 274.1165 354.3885 L 273.4692 353.3603 L 272.6164 352.5347 L 271.6042 351.9304 L 271.0212 351.7234 L 269.8283 351.4931 L 266.8689 351.1709 L 265.7804 350.8558 L 264.9597 350.3355 L 264.6451 349.9722 L 264.0105 348.7119 L 265.8781 347.0982 L 266.8776 346.5074 L 267.4613 346.2816 L 268.687 345.9995 L 269.9521 345.8772 L 271.87 345.9112 L 273.1338 346.1013 L 274.3528 346.5011 L 274.9204 346.8064 L 275.9567 347.5695 L 277.3678 348.9217 L 280.0581 351.7698 L 281.4947 352.9926 L 282.5885 353.5638 L 283.1876 353.7182 L 284.4026 353.7459 L 284.9983 353.6254 L 286.0399 353.1898 L 287.9819 352.0706 L 290.1922 351.0629 L 293.2066 349.2644 L 295.4665 348.3076 L 298.5016 346.6011 L 300.147 345.8799 L 300.6858 345.5952 L 301.629 344.9062 L 302.4484 344.0565 L 302.8032 343.5798 L 303.3788 342.4999 L 304.5858 339.1609 L 305.2652 336.6636 L 308.0466 337.9649 L 311.7062 339.9731 L 316.4503 341.278 L 319.0376 342.5168 L 320.2485 342.9354 L 321.6402 343.1898 L 323.0727 343.3183 L 326.7344 343.4156 L 331.9008 343.4076 L 334.0885 343.3344 L 336.2232 343.097 L 338.1236 342.5222 L 340.1847 341.4743 L 341.2859 341.0183 L 343.6783 340.2873 L 345.6497 339.5465 L 347.7651 340.2471 L 349.6708 340.5274 L 351.5847 340.4988 L 352.8298 340.2864 L 353.4309 340.1025 L 354.4939 339.6107 L 356.5008 338.4754 L 358.7259 337.4722 L 361.2288 335.9745 L 363.9767 334.7142 L 367.0037 332.9738 L 369.2429 331.975 L 372.2539 330.0597 L 375.06 328.4147 L 374.7441 332.4731 L 374.7641 334.4974 L 374.8806 335.8174 L 375.1263 337.0902 L 375.3177 337.6953 L 376.8453 340.8397 L 377.0281 341.4476 L 377.2329 342.7123 L 377.249 344.0047 L 377.1834 344.6509 L 376.8654 345.9183 L 376.595 346.5145 L 375.8948 347.607 L 375.0667 348.6147 L 373.7052 350.049 L 371.7846 351.8644 L 370.7872 352.7016 L 369.7516 353.4451 L 366.995 354.791 L 365.4614 355.8496 L 363.5617 357.5927 L 359.4395 361.8341 L 357.5437 363.5906 L 355.9994 364.6536 L 353.7556 365.6336 L 351.2319 367.0634 L 348.5322 368.313 L 347.585 368.994 L 346.7583 369.8339 L 346.3988 370.3034 L 345.8044 371.3601 L 345.1022 373.0622 L 344.0258 375.1561 L 343.5458 376.2611 L 343.2118 377.5142 L 342.6093 380.6158 L 342.1923 381.768 L 340.8401 384.3966 L 339.9002 386.7172 L 338.3057 389.8901 L 337.9502 391.1102 L 337.3036 394.2297 L 336.8986 395.381 L 335.6689 398.0604 L 335.3329 399.285 L 334.8717 401.8127 L 334.5617 403.056 L 332.8802 407.4419 L 329.4816 405.2775 L 325.2818 401.7279 L 324.2917 401.0915 L 322.6363 400.3239 L 321.584 399.7411 L 320.6261 399.0226 L 319.7244 398.205 L 318.4799 396.8537 L 317.4236 395.373 L 316.8848 394.277 L 316.1812 392.5454 L 315.232 391.0058 L 314.0532 389.6001 L 312.713 388.3577 L 311.7123 387.682 L 311.168 387.4178 L 309.9457 387.0715 L 308.6832 386.926 L 306.1107 386.8885 L 305.8858 386.0603 L 305.689 385.6631 L 305.3797 385.3034 L 304.9566 385.0419 L 304.4733 384.9071 L 303.9572 384.8901 L 303.4311 384.9874 L 302.5019 385.4471 L 300.8405 386.8832 L 298.4453 387.4847 L 295.8521 388.7557 L 294.7355 389.1725 L 291.7145 389.8321 L 290.533 390.1963 L 287.4597 391.8332 L 285.2159 392.8025 L 282.1447 394.451 L 280.9645 394.8259 L 277.9575 395.5328 L 276.8597 395.9639 L 274.8241 397.0117 L 273.6834 397.4018 L 273.0682 397.5187 L 271.1838 397.5892 L 269.9394 397.4044 L 269.3363 397.2286 L 266.2409 395.7024 L 262.8939 394.5903 L 262.4943 394.3207 L 261.9822 393.654 Z" fill="#000000" fill-opacity="1" stroke="#000000" stroke-width="0" paint-order="fill" stroke-opacity="1" stroke-dasharray="" stroke-linecap="butt" stroke-linejoin="miter" stroke-miterlimit="10" transform="matrix(1.100000023841858,0,0,1.100000023841858,-40.000030517578125,-26.64992904663086)" clip-path="none" style="filter: url(#f1)"/>
<path data-code="202" d="M 493.07 471.5147 L 491.2553 471.9065 L 490.136 472.3358 L 487.5963 473.7371 L 485.3518 474.701 L 482.3241 476.4513 L 480.032 477.3715 L 475.8114 479.2842 L 473.9056 479.5555 L 471.301 479.6992 L 468.0363 479.6841 L 466.1158 479.5225 L 464.285 479.0896 L 461.7098 477.8062 L 460.5905 477.4036 L 459.3689 477.1698 L 456.226 476.8708 L 454.9816 476.6798 L 453.7787 476.3138 L 452.7337 475.7417 L 448.5104 472.3822 L 445.8194 471.0095 L 444.8314 470.3508 L 443.9036 469.5743 L 442.613 468.2703 L 441.8318 467.3313 L 441.1457 466.337 L 440.59 465.2481 L 439.8577 463.5327 L 439.2051 462.4429 L 438.4272 461.4075 L 436.2262 458.9441 L 429.2095 451.761 L 426.9663 449.319 L 426.147 448.3033 L 425.424 447.2421 L 424.8577 446.1219 L 424.1247 444.4038 L 423.5068 443.3747 L 422.3722 441.9404 L 420.6237 440.2338 L 419.151 439.2119 L 416.9166 438.2229 L 413.8888 436.4923 L 412.2153 435.7497 L 411.1637 435.1687 L 410.2044 434.4627 L 407.4351 432.1278 L 406.4471 431.4637 L 405.3392 430.9719 L 402.3296 430.2999 L 401.1507 429.9437 L 400.1031 429.4323 L 398.0695 428.2524 L 396.4053 427.4973 L 395.9408 425.7408 L 395.6837 423.7656 L 395.7098 421.785 L 395.9327 420.4909 L 396.4194 419.2467 L 397.147 418.123 L 398.4812 416.6306 L 399.9933 415.3364 L 401.0938 414.6358 L 403.3323 413.6406 L 406.3781 411.935 L 408.6313 410.9826 L 411.7139 409.3662 L 412.8968 409.0039 L 415.3194 408.4951 L 416.4968 408.1515 L 419.0981 406.9198 L 420.2314 406.5351 L 421.4578 406.3129 L 425.2192 405.9407 L 426.4455 405.6693 L 427.0406 405.4534 L 428.2134 404.7893 L 429.2851 403.945 L 433.2681 400.0517 L 434.8439 398.7388 L 435.4068 398.3737 L 437.6058 397.2946 L 439.602 396.1602 L 440.6664 395.6809 L 441.2682 395.5078 L 442.5059 395.3311 L 443.7557 395.3418 L 444.9867 395.5363 L 446.1193 395.9362 L 448.6611 397.242 L 449.8225 397.6222 L 452.229 398.189 L 453.3978 398.5638 L 455.9683 399.8652 L 457.1357 400.2927 L 459.1131 400.6319 L 461.8457 400.7818 L 465.9658 400.7363 L 467.3133 400.606 L 468.6254 400.3364 L 469.8002 399.8652 L 470.817 399.2475 L 474.6788 396.4209 L 478.714 399.2199 L 479.7295 399.8286 L 480.8507 400.2847 L 484.4715 401.0835 L 485.5901 401.511 L 488.1037 402.9141 L 490.219 403.9816 L 491.0444 404.6206 L 491.851 405.4596 L 494.6565 410.4944 L 495.2724 411.8109 L 495.6251 413.1881 L 495.8052 415.3266 L 495.6921 417.4714 L 495.4411 418.862 L 494.9839 420.1954 L 493.8325 422.7624 L 493.4964 424.0824 L 493.2468 426.1629 L 492.985 430.4007 L 492.659 432.4518 L 492.2159 433.7665 L 491.3282 435.6828 L 490.8757 437.0037 L 490.6187 438.3675 L 490.448 440.4802 L 490.4794 443.3274 L 490.7211 445.4177 L 491.0611 446.7449 L 492.4736 449.9768 L 492.8177 451.3477 L 493.0031 452.7812 L 493.1403 456.4789 L 493.07 471.5147 Z" fill="#000000" fill-opacity="1" stroke="#000000" stroke-width="0" paint-order="fill" stroke-opacity="1" stroke-dasharray="" stroke-linecap="butt" stroke-linejoin="miter" stroke-miterlimit="10" transform="matrix(1.100000023841858,0,0,1.100000023841858,-40.000030517578125,-26.64992904663086)" clip-path="none" style="filter: url(#f1)"/>
<path data-code="203" d="M 529.0539 316.0816 L 524.7938 314.0359 L 522.5225 313.0755 L 520.9902 312.0223 L 518.6547 309.832 L 513.2151 304.1823 L 511.0583 301.7786 L 509.9424 300.2515 L 508.3184 296.9232 L 507.6389 295.9343 L 505.3904 293.063 L 504.7525 292.0366 L 504.4954 291.4903 L 504.1567 290.4077 L 503.6359 287.6265 L 503.3347 286.5439 L 502.854 285.4595 L 501.7716 283.3638 L 500.8666 281.0325 L 499.1717 277.913 L 498.1876 275.6139 L 497.5102 274.5312 L 496.7042 273.5146 L 492.6878 269.1795 L 491.9099 268.1442 L 491.2948 267.0026 L 490.9627 265.8745 L 490.7512 264.1108 L 490.7251 261.6974 L 490.8771 258.2334 L 491.5009 257.0571 L 492.6356 255.5692 L 492.8926 255.0265 L 493.224 253.7779 L 493.4422 251.6688 L 493.6457 245.5799 L 494.0092 242.3543 L 495.2858 240.2541 L 496.5161 237.4382 L 497.2043 236.3073 L 498.4822 234.7614 L 499.9549 233.4092 L 501.048 232.6809 L 502.2348 232.2034 L 503.4505 231.9731 L 507.0137 231.6036 L 508.0707 231.2529 L 508.5386 230.961 L 508.9342 230.5852 L 510.5515 228.2271 L 513.3389 224.5543 L 513.9996 223.4333 L 514.7447 221.7437 L 515.3338 220.6914 L 516.0755 219.7757 L 516.9464 218.9894 L 517.9598 218.3601 L 522.6785 216.0244 L 524.5327 215.6352 L 527.7512 215.5022 L 530.3867 215.5049 L 530.1022 216.742 L 529.7313 217.929 L 528.748 219.9845 L 528.3389 221.0734 L 528.1823 222.3087 L 528.3356 223.5413 L 528.7446 224.6168 L 529.8003 226.6536 L 530.7434 228.9555 L 532.4879 232.0606 L 533.4786 234.3643 L 534.4506 235.8941 L 537.0539 239.2804 L 537.6564 240.2952 L 538.6699 242.5158 L 539.3433 243.4726 L 540.178 244.2955 L 541.1567 244.9355 L 542.3108 245.3496 L 544.7019 245.8298 L 545.872 246.1574 L 549.0015 247.6318 L 550.8323 248.0406 L 553.9952 248.3334 L 555.8515 248.6458 L 556.9774 249.0501 L 559.562 250.3121 L 561.3781 250.712 L 564.5249 250.978 L 565.77 251.1574 L 566.979 251.518 L 567.5399 251.7955 L 568.5802 252.5033 L 570.0134 253.7823 L 574.5459 258.5155 L 576.4337 260.2702 L 577.9599 261.3359 L 579.6153 262.1044 L 580.6837 262.6917 L 581.6805 263.428 L 582.6357 264.259 L 584.4859 266.0601 L 588.1328 269.8141 L 590.3794 272.1776 L 591.6532 273.628 L 592.4217 274.6374 L 593.0657 275.7076 L 594.0209 278.0157 L 595.6958 281.1387 L 596.402 282.8711 L 596.9583 283.9627 L 597.6411 284.957 L 599.9344 287.8113 L 600.9078 289.3384 L 603.4803 295.5407 L 601.7211 296.5609 L 599.5442 297.5569 L 598.4383 298.1674 L 597.386 298.9422 L 594.8637 301.0825 L 593.2638 302.1883 L 591.0421 303.2156 L 588.5318 304.6919 L 586.3502 305.7156 L 585.2504 306.3279 L 584.2028 307.1053 L 581.1817 309.6758 L 580.1067 310.4024 L 577.9003 311.4672 L 575.3753 312.8925 L 574.228 313.3165 L 572.9822 313.5477 L 571.7097 313.636 L 569.7952 313.5718 L 568.542 313.3879 L 567.3418 313.0452 L 564.7827 311.7269 L 563.63 311.2833 L 562.3293 311.0057 L 560.9831 310.8477 L 557.5424 310.6808 L 554.8045 310.6799 L 552.8171 310.8861 L 551.5559 311.294 L 551.0344 311.5921 L 550.1321 312.3642 L 549.4346 313.3299 L 549.1815 313.8806 L 549.0028 314.4964 L 548.8769 315.7522 L 548.974 317.008 L 549.2371 318.2942 L 546.6512 318.7958 L 544.4274 319.0118 L 541.4546 319.0877 L 538.5159 318.9681 L 536.3885 318.6244 L 535.0651 318.1523 L 532.5749 316.9554 L 531.3968 316.5886 L 529.0539 316.0816 Z" fill="#000000" fill-opacity="1" stroke="#000000" stroke-width="0" paint-order="fill" stroke-opacity="1" stroke-dasharray="" stroke-linecap="butt" stroke-linejoin="miter" stroke-miterlimit="10" transform="matrix(1.100000023841858,0,0,1.100000023841858,-40.000030517578125,-26.64992904663086)" clip-path="none" style="filter: url(#f1)"/>
<path data-code="204" d="M 254.7587 266.9892 L 256.4864 264.4759 L 257.2729 263.5423 L 258.1485 262.7167 L 259.1084 262.0339 L 261.2827 260.9655 L 262.2667 260.33 L 265.5689 257.6033 L 266.5181 256.9196 L 267.563 256.3412 L 269.2238 255.5853 L 272.2495 253.8332 L 274.5027 252.8728 L 277.0686 251.5108 L 278.793 250.9423 L 281.822 250.322 L 282.9439 249.898 L 286.3485 247.9291 L 287.2241 247.2525 L 287.5816 246.8223 L 289.9191 242.8978 L 291.1702 240.0711 L 292.2955 238.0121 L 292.7936 236.9178 L 293.1155 235.6629 L 293.2327 234.3776 L 293.1524 233.0924 L 292.8083 231.8393 L 292.1831 230.7905 L 291.3456 229.9364 L 290.3295 229.2982 L 289.1232 228.9251 L 287.8734 228.7752 L 285.9509 228.76 L 281.2035 229.1875 L 282.5845 226.9026 L 283.3034 225.8842 L 284.1114 224.9899 L 285.0171 224.2143 L 286.0453 223.5851 L 287.682 222.821 L 289.7002 221.7179 L 290.7753 221.2421 L 291.4119 221.0547 L 293.3994 220.7718 L 299.5619 220.6763 L 302.2402 220.4281 L 304.0429 219.8774 L 306.6275 218.6288 L 308.5339 218.1897 L 311.2162 218.0174 L 317.3781 218.0486 L 319.4051 217.9772 L 321.3724 217.6836 L 322.5499 217.2712 L 325.1024 215.911 L 327.3154 214.8703 L 328.3918 214.1322 L 329.8612 212.7862 L 331.1692 211.2734 L 332.2322 209.6311 L 332.9846 207.9594 L 333.5683 206.9169 L 334.711 205.5807 L 335.6281 204.8551 L 336.1556 204.5445 L 337.7642 203.751 L 339.7469 202.6175 L 340.816 202.1338 L 342.0396 201.8428 L 343.2941 201.7642 L 344.5472 201.8758 L 345.7655 202.2105 L 347.3152 203.0834 L 351.0699 205.9565 L 351.8464 207.5068 L 353.0574 209.5641 L 354.3045 212.3917 L 354.9612 213.4663 L 356.5958 215.4549 L 362.0461 221.1341 L 363.2671 222.6309 L 363.9379 223.7038 L 364.9179 226.0012 L 365.9762 228.0736 L 366.4093 229.1679 L 366.5519 229.782 L 366.6617 231.0324 L 366.4729 232.9683 L 363.47 235.2943 L 361.9745 236.2555 L 360.2628 236.8875 L 357.8456 237.3792 L 356.6601 237.7166 L 350.7178 240.5558 L 349.1487 241.7589 L 347.7657 243.1736 L 346.9959 244.2277 L 346.6853 244.8016 L 346.3111 246.0449 L 346.3024 247.307 L 346.6103 248.4744 L 347.9351 250.9914 L 348.9479 253.245 L 350.0979 255.3014 L 350.5993 256.3912 L 351.0358 258.2932 L 351.1496 260.2702 L 351.0297 262.2463 L 350.7941 263.5289 L 350.3905 264.7052 L 349.1373 267.3641 L 348.7799 268.5708 L 348.2423 271.0655 L 347.8695 272.2811 L 346.2368 275.438 L 345.2742 277.7238 L 344.2386 279.7588 L 343.843 280.8352 L 343.7306 281.4421 L 343.7292 282.6676 L 343.837 283.2692 L 344.2119 284.3366 L 345.1243 286.4172 L 345.4503 287.7229 L 345.6839 289.8043 L 345.9162 294.0626 L 346.2261 296.1217 L 346.6224 297.3293 L 347.8213 300.007 L 348.1433 301.3056 L 348.3903 304.0528 L 348.4278 311.1325 L 348.6152 313.9065 L 349.0483 315.8522 L 349.9734 317.9238 L 350.3523 318.9868 L 350.4969 320.198 L 350.4607 320.8103 L 350.1736 321.9643 L 348.903 324.5152 L 347.9271 326.7858 L 346.5387 329.3867 L 346.117 330.5604 L 345.8693 331.8403 L 345.7073 333.8262 L 345.6497 339.5465 L 343.6783 340.2873 L 341.2859 341.0183 L 340.1847 341.4743 L 338.1236 342.5222 L 336.2232 343.097 L 334.0885 343.3344 L 331.9008 343.4076 L 326.7344 343.4156 L 323.0727 343.3183 L 321.6402 343.1898 L 320.2485 342.9354 L 319.0376 342.5168 L 316.4503 341.278 L 311.7062 339.9731 L 308.0466 337.9649 L 305.2652 336.6636 L 304.3696 335.3524 L 303.0575 332.6266 L 302.3694 331.5555 L 301.1189 330.0543 L 297.9239 326.7617 L 296.7303 325.2917 L 296.1627 324.168 L 296.01 323.5432 L 295.9592 322.9068 L 296.0107 322.2687 L 296.1754 321.6421 L 296.7658 320.6023 L 297.5979 319.7883 L 298.6073 319.2055 L 299.7875 318.894 L 303.9351 318.5646 L 304.9995 318.2317 L 305.4741 317.9416 L 306.2044 317.1285 L 307.9636 314.2653 L 308.5192 313.2246 L 309.4396 310.9049 L 310.7778 308.2665 L 311.0027 307.7033 L 311.3287 306.4422 L 311.5576 304.467 L 311.6426 301.7697 L 311.6018 298.3861 L 311.4425 296.394 L 311.2022 295.1087 L 310.7878 293.9297 L 309.4276 291.3145 L 308.4757 289.0082 L 306.7721 285.8923 L 305.8389 283.5735 L 304.1627 280.4452 L 303.1687 278.1487 L 302.4952 277.0616 L 301.7013 276.036 L 298.1789 272.1142 L 296.98 270.579 L 296.3247 269.4928 L 295.3272 267.2043 L 294.2662 265.5371 L 292.9596 264.0198 L 291.9876 263.1103 L 290.9119 262.3382 L 290.3201 262.033 L 289.7143 261.8107 L 288.4638 261.5483 L 287.188 261.4484 L 285.9047 261.4626 L 284.0043 261.6947 L 282.7893 262.0508 L 281.7343 262.5747 L 279.7382 263.7475 L 277.5104 264.7454 L 274.4559 266.418 L 273.2777 266.7884 L 270.2674 267.4712 L 269.1642 267.9023 L 266.5683 269.2108 L 265.3319 269.5446 L 264.0928 269.7052 L 262.187 269.7463 L 260.9158 269.6472 L 259.6667 269.4152 L 258.0421 268.7832 L 254.7587 266.9892 Z" fill="#000000" fill-opacity="1" stroke="#000000" stroke-width="0" paint-order="fill" stroke-opacity="1" stroke-dasharray="" stroke-linecap="butt" stroke-linejoin="miter" stroke-miterlimit="10" transform="matrix(1.100000023841858,0,0,1.100000023841858,-40.000030517578125,-26.64992904663086)" clip-path="none" style="filter: url(#f1)"/>
<path data-code="205" d="M 256.3264 215.2336 L 258.2061 213.7511 L 259.233 213.1709 L 260.4044 212.7702 L 262.8143 212.2453 L 263.9918 211.8883 L 267.0683 210.2693 L 269.3149 209.3142 L 272.3928 207.688 L 273.5736 207.3301 L 275.9969 206.8267 L 277.177 206.4679 L 280.2442 204.8257 L 282.48 203.8492 L 284.503 202.7282 L 285.568 202.2435 L 286.7836 201.9338 L 288.0455 201.7892 L 293.7943 201.6455 L 295.02 201.4099 L 295.6144 201.193 L 296.6333 200.5665 L 297.4801 199.7203 L 298.1227 198.6823 L 298.3503 198.0691 L 298.6026 196.7973 L 298.683 195.4942 L 298.5986 193.5199 L 298.4105 192.2185 L 298.0698 190.9645 L 297.8422 190.4058 L 296.5663 187.7541 L 296.2162 186.5447 L 295.5689 183.4252 L 295.1519 182.2658 L 293.8137 179.6382 L 292.8257 177.3399 L 292.1275 176.2189 L 290.3944 174.1553 L 286.0727 169.7622 L 284.7132 168.2574 L 283.5638 166.6116 L 283.0577 165.379 L 282.7947 164.0893 L 282.6534 162.1007 L 282.6829 160.0871 L 282.8502 158.0905 L 283.0704 156.8008 L 283.4286 155.5869 L 284.4273 153.5627 L 284.8317 152.5193 L 284.9756 151.3135 L 284.7647 150.1014 L 284.2245 149.0803 L 283.867 148.6367 L 283.0316 147.8763 L 282.5664 147.563 L 279.9919 146.2367 L 278.6397 145.1085 L 277.837 144.216 L 276.0497 141.7936 L 279.8339 139.6819 L 282.6119 138.493 L 285.6416 136.749 L 287.8902 135.7904 L 290.9152 134.041 L 293.1677 133.0896 L 296.1908 131.3349 L 298.4199 130.3227 L 299.8926 129.3141 L 303.1379 126.5758 L 304.1252 125.927 L 305.782 125.1424 L 306.8316 124.5578 L 307.7949 123.8518 L 309.1839 122.6728 L 310.5716 121.491 L 311.5349 120.785 L 312.474 120.2549 L 314.2433 119.4212 L 315.2313 118.7733 L 318.4753 116.0323 L 319.4419 115.328 L 320.3911 114.8068 L 322.1831 114.0303 L 325.2028 112.2765 L 326.9948 111.5008 L 327.944 110.9796 L 328.9113 110.2772 L 331.6826 107.9128 L 332.6445 107.2086 L 335.8577 105.5351 L 336.8256 104.8086 L 337.7401 104.0044 L 340.8581 100.9716 L 342.2338 99.7461 L 343.6984 98.7241 L 345.8994 97.662 L 346.8888 97.0122 L 348.2872 95.8377 L 350.0765 94.1124 L 351.59 94.9817 L 353.8145 95.9992 L 356.8288 97.7539 L 359.0499 98.7616 L 361.4932 100.0692 L 362.1432 100.3423 L 363.5489 100.7118 L 365.7526 100.9483 L 368.0078 101.0081 L 390.1036 100.8046 L 392.2905 100.8511 L 393.6708 101.0144 L 394.9447 101.416 L 395.5144 101.7704 L 396.2761 102.6004 L 397.6544 104.8702 L 398.1498 105.9332 L 398.4336 107.139 L 398.4055 108.4055 L 398.275 109.0249 L 397.8445 110.1094 L 396.7608 112.1319 L 395.7701 114.4132 L 394.0176 117.5166 L 393.0335 119.8211 L 391.3085 122.9316 L 390.3378 125.2335 L 388.9682 127.8495 L 388.5371 129.0723 L 388.2078 131.1492 L 388.1141 133.2859 L 388.1603 135.4289 L 388.2841 136.8391 L 388.5338 138.2101 L 388.9535 139.4302 L 390.2508 142.0882 L 391.2128 145.1781 L 392.247 147.7317 L 388.0003 149.4418 L 384.3433 150.2362 L 383.1585 150.5932 L 380.0832 152.2176 L 377.8407 153.1833 L 374.7641 154.8077 L 373.584 155.1665 L 371.1614 155.669 L 369.9792 156.0225 L 366.8906 157.6228 L 364.6407 158.5769 L 361.609 160.3031 L 359.3772 161.3215 L 358.2439 162.0507 L 356.6514 163.3743 L 355.1379 164.8328 L 353.708 166.3724 L 352.8411 167.4568 L 352.1055 168.6269 L 351.6048 169.9265 L 351.2908 171.9981 L 351.1389 176.243 L 350.9293 178.3297 L 350.602 179.6534 L 349.3723 182.3149 L 348.97 183.4815 L 348.7344 184.756 L 348.6299 186.0645 L 348.6654 188.0388 L 348.9646 189.9622 L 349.3676 191.1261 L 350.616 193.7769 L 351.0485 195.6575 L 351.2165 197.638 L 351.2587 199.6587 L 351.0699 205.9565 L 347.3152 203.0834 L 345.7655 202.2105 L 344.5472 201.8758 L 343.2941 201.7642 L 342.0396 201.8428 L 340.816 202.1338 L 339.7469 202.6175 L 337.7642 203.751 L 336.1556 204.5445 L 335.6281 204.8551 L 334.711 205.5807 L 333.5683 206.9169 L 332.9846 207.9594 L 332.2322 209.6311 L 331.1692 211.2734 L 329.8612 212.7862 L 328.3918 214.1322 L 327.3154 214.8703 L 325.1024 215.911 L 322.5499 217.2712 L 321.3724 217.6836 L 319.4051 217.9772 L 317.3781 218.0486 L 311.2162 218.0174 L 308.5339 218.1897 L 306.6275 218.6288 L 304.0429 219.8774 L 302.2402 220.4281 L 299.5619 220.6763 L 293.3994 220.7718 L 291.4119 221.0547 L 290.7753 221.2421 L 289.7002 221.7179 L 287.682 222.821 L 286.0453 223.5851 L 285.0171 224.2143 L 284.1114 224.9899 L 283.3034 225.8842 L 282.5845 226.9026 L 281.2035 229.1875 L 277.0492 228.7056 L 275.6635 228.4369 L 274.3488 227.9763 L 271.8372 226.8276 L 270.5064 226.4867 L 266.3628 226.0172 L 265.0568 225.7798 L 263.8846 225.3799 L 259.1506 223.0379 L 258.6713 222.7041 L 257.8145 221.8982 L 257.119 220.9315 L 256.8505 220.388 L 256.641 219.7775 L 256.4087 218.5119 L 256.3264 215.2336 Z" fill="#000000" fill-opacity="1" stroke="#000000" stroke-width="0" paint-order="fill" stroke-opacity="1" stroke-dasharray="" stroke-linecap="butt" stroke-linejoin="miter" stroke-miterlimit="10" transform="matrix(1.100000023841858,0,0,1.100000023841858,-40.000030517578125,-26.64992904663086)" clip-path="none" style="filter: url(#f1)"/>
<path data-code="206" d="M 539.0655 447.1582 L 537.6162 447.8936 L 536.6576 448.5969 L 535.2874 449.817 L 532.1679 452.8526 L 530.7655 454.0334 L 529.7654 454.6885 L 527.5618 455.7426 L 525.9786 456.8529 L 524.0059 458.6889 L 519.215 463.5871 L 518.2042 464.4636 L 517.1251 465.2151 L 516.5474 465.515 L 515.3672 465.9149 L 512.9567 466.4192 L 511.7852 466.7556 L 509.1933 467.9972 L 508.058 468.3917 L 506.827 468.6237 L 503.0482 469.0147 L 501.8238 469.2565 L 500.6999 469.66 L 498.106 470.9086 L 496.899 471.221 L 495.6425 471.3861 L 493.07 471.5147 L 493.1403 456.4789 L 493.0031 452.7812 L 492.8177 451.3477 L 492.4736 449.9768 L 491.0611 446.7449 L 490.7211 445.4177 L 490.4794 443.3274 L 490.448 440.4802 L 490.6187 438.3675 L 490.8757 437.0037 L 491.3282 435.6828 L 492.2159 433.7665 L 492.659 432.4518 L 492.985 430.4007 L 493.2468 426.1629 L 493.4964 424.0824 L 493.8325 422.7624 L 494.9839 420.1954 L 495.4411 418.862 L 495.6921 417.4714 L 495.8052 415.3266 L 495.6251 413.1881 L 495.2724 411.8109 L 494.6565 410.4944 L 491.851 405.4596 L 497.0222 406.328 L 498.7727 406.9207 L 501.3091 408.3327 L 503.5194 409.3805 L 504.5952 410.1008 L 507.6282 412.6606 L 508.6799 413.4335 L 511.9573 415.0553 L 515.7561 417.4357 L 516.1652 417.8025 L 516.8011 418.7049 L 518.7116 422.2019 L 519.628 424.4055 L 520.199 425.4587 L 520.9447 426.3647 L 521.3791 426.7618 L 522.3699 427.4098 L 522.9543 427.6481 L 524.1773 427.9302 L 526.0978 428.0792 L 537.9402 427.9766 L 539.2603 428.5871 L 539.6526 428.9111 L 540.2376 429.792 L 541.3073 433.1007 L 542.7392 436.2826 L 543.0725 438.1926 L 542.9842 440.1392 L 542.6696 441.4022 L 542.4346 441.9645 L 541.5242 443.5202 L 539.0655 447.1582 Z" fill="#000000" fill-opacity="1" stroke="#000000" stroke-width="0" paint-order="fill" stroke-opacity="1" stroke-dasharray="" stroke-linecap="butt" stroke-linejoin="miter" stroke-miterlimit="10" transform="matrix(1.100000023841858,0,0,1.100000023841858,-40.000030517578125,-26.64992904663086)" clip-path="none" style="filter: url(#f1)"/>
<path data-code="207" d="M 474.6788 396.4209 L 474.7859 392.9551 L 474.7565 390.7702 L 474.5489 388.6343 L 474.2129 387.2705 L 473.741 386.1691 L 472.6626 384.0797 L 471.7 381.777 L 470.2701 379.1984 L 469.0505 376.3646 L 467.3482 373.222 L 466.3989 370.9085 L 464.6886 367.7971 L 463.7401 365.489 L 462.4013 362.8623 L 462.005 361.6814 L 461.7218 359.7437 L 461.5484 355.0829 L 461.3429 353.1264 L 460.8288 351.3289 L 459.6272 348.6521 L 459.3287 347.4088 L 459.1352 345.4551 L 458.988 340.8112 L 458.8253 339.5125 L 458.4806 338.2558 L 458.2007 337.6427 L 457.4845 336.5118 L 456.1905 334.9552 L 447.8424 326.3404 L 451.2671 324.7562 L 453.545 323.8235 L 456.1022 322.4731 L 457.9859 321.8938 L 459.3816 321.7144 L 461.5243 321.6162 L 472.2361 321.6796 L 483.5317 321.6394 L 487.0722 321.7367 L 488.4552 321.8751 L 489.7946 322.1366 L 490.9721 322.5543 L 493.5594 323.7869 L 495.6044 324.2599 L 497.7565 324.4429 L 500.6899 324.5161 L 505.8563 324.5072 L 508.7662 324.3813 L 510.182 324.2001 L 511.5422 323.852 L 514.6784 322.4052 L 519.4285 321.136 L 522.5212 319.5357 L 525.2838 318.3013 L 529.0539 316.0816 L 531.3968 316.5886 L 532.5749 316.9554 L 535.0651 318.1523 L 536.3885 318.6244 L 538.5159 318.9681 L 541.4546 319.0877 L 544.4274 319.0118 L 546.6512 318.7958 L 549.2371 318.2942 L 551.4669 323.67 L 552.0493 324.7401 L 553.214 326.0718 L 554.1485 326.7724 L 554.6834 327.0661 L 556.3174 327.8069 L 558.3403 328.9011 L 559.4013 329.3858 L 560.5922 329.7276 L 563.0228 330.2114 L 564.203 330.5666 L 567.2688 332.2053 L 569.5006 333.1871 L 571.5189 334.3117 L 572.5799 334.8017 L 573.7915 335.1248 L 575.0493 335.2899 L 580.2011 335.489 L 582.0848 335.7639 L 582.6892 335.9415 L 583.7656 336.4154 L 585.7846 337.5088 L 587.4166 338.2567 L 588.4361 338.8815 L 589.7113 340.1025 L 590.3894 341.0727 L 592.9258 346.5038 L 593.2223 347.7721 L 593.387 349.7509 L 593.3703 351.7689 L 593.229 354.0475 L 593.3435 358.0559 L 593.3683 365.5551 L 593.561 368.4906 L 594.0075 370.5783 L 595.1388 373.1559 L 595.5753 374.426 L 595.9716 376.9805 L 596.082 379.1047 L 596.0934 382.0367 L 595.9829 384.2011 L 595.7982 385.6104 L 595.2225 387.524 L 593.8763 390.149 L 592.9137 392.4598 L 591.2282 395.6033 L 590.2743 397.915 L 589.714 398.9503 L 587.6241 402.25 L 586.8282 402.9266 L 585.4144 403.5085 L 584.2041 403.7673 L 583.0273 404.1235 L 580.4407 405.3971 L 579.3081 405.7979 L 578.0791 406.0362 L 574.3003 406.4307 L 573.0732 406.6699 L 571.9446 407.0671 L 569.3447 408.3041 L 568.1451 408.6174 L 563.7464 409.0976 L 562.5154 409.3377 L 561.3787 409.7509 L 558.8303 411.129 L 556.5898 412.1037 L 553.5695 413.8602 L 551.3243 414.8268 L 548.2906 416.5494 L 546.0541 417.5553 L 544.9857 418.2372 L 543.9756 419.0449 L 541.6025 421.3316 L 540.2831 422.8052 L 539.4845 423.837 L 538.8064 424.9348 L 538.5387 425.5176 L 538.1752 426.736 L 537.9402 427.9766 L 526.0978 428.0792 L 524.1773 427.9302 L 522.9543 427.6481 L 522.3699 427.4098 L 521.3791 426.7618 L 520.9447 426.3647 L 520.199 425.4587 L 519.628 424.4055 L 518.7116 422.2019 L 516.8011 418.7049 L 516.1652 417.8025 L 515.7561 417.4357 L 511.9573 415.0553 L 508.6799 413.4335 L 507.6282 412.6606 L 504.5952 410.1008 L 503.5194 409.3805 L 501.3091 408.3327 L 498.7727 406.9207 L 497.0222 406.328 L 491.851 405.4596 L 491.0444 404.6206 L 490.219 403.9816 L 488.1037 402.9141 L 485.5901 401.511 L 484.4715 401.0835 L 480.8507 400.2847 L 479.7295 399.8286 L 478.714 399.2199 L 474.6788 396.4209 Z" fill="#000000" fill-opacity="1" stroke="#000000" stroke-width="0" paint-order="fill" stroke-opacity="1" stroke-dasharray="" stroke-linecap="butt" stroke-linejoin="miter" stroke-miterlimit="10" transform="matrix(1.100000023841858,0,0,1.100000023841858,-40.000030517578125,-26.64992904663086)" clip-path="none" style="filter: url(#f1)"/>
<path data-code="208" d="M 472.2361 321.6796 L 472.2984 309.2635 L 472.1485 305.6166 L 471.9563 304.2055 L 471.6082 302.864 L 470.4027 300.223 L 470.0298 299.0627 L 469.845 297.8015 L 469.8979 295.8781 L 470.1751 294.6285 L 470.3852 294.068 L 471.7187 291.4654 L 472.7188 289.1787 L 474.4726 286.0842 L 475.4587 283.7922 L 476.7948 281.1646 L 477.2112 279.9266 L 477.4521 278.5217 L 477.5619 277.0785 L 477.5265 268.2343 L 477.6222 266.7911 L 477.8719 265.3791 L 478.3733 264.0778 L 479.5019 262.4239 L 480.8949 261.0003 L 482.5021 259.8489 L 483.0966 259.5606 L 484.3129 259.1929 L 488.743 258.6511 L 490.8771 258.2334 L 490.7251 261.6974 L 490.7512 264.1108 L 490.9627 265.8745 L 491.2948 267.0026 L 491.9099 268.1442 L 492.6878 269.1795 L 496.7042 273.5146 L 497.5102 274.5312 L 498.1876 275.6139 L 499.1717 277.913 L 500.8666 281.0325 L 501.7716 283.3638 L 502.854 285.4595 L 503.3347 286.5439 L 503.6359 287.6265 L 504.1567 290.4077 L 504.4954 291.4903 L 504.7525 292.0366 L 505.3904 293.063 L 507.6389 295.9343 L 508.3184 296.9232 L 509.9424 300.2515 L 511.0583 301.7786 L 513.2151 304.1823 L 518.6547 309.832 L 520.9902 312.0223 L 522.5225 313.0755 L 524.7938 314.0359 L 529.0539 316.0816 L 525.2838 318.3013 L 522.5212 319.5357 L 519.4285 321.136 L 514.6784 322.4052 L 511.5422 323.852 L 510.182 324.2001 L 508.7662 324.3813 L 505.8563 324.5072 L 500.6899 324.5161 L 497.7565 324.4429 L 495.6044 324.2599 L 493.5594 323.7869 L 490.9721 322.5543 L 489.7946 322.1366 L 488.4552 321.8751 L 487.0722 321.7367 L 483.5317 321.6394 L 472.2361 321.6796 Z" fill="#000000" fill-opacity="1" stroke="#000000" stroke-width="0" paint-order="fill" stroke-opacity="1" stroke-dasharray="" stroke-linecap="butt" stroke-linejoin="miter" stroke-miterlimit="10" transform="matrix(1.100000023841858,0,0,1.100000023841858,-40.000030517578125,-26.64992904663086)" clip-path="none" style="filter: url(#f1)"/>
<path data-code="209" d="M 366.4729 232.9683 L 366.7387 235.6781 L 367.0252 237.5399 L 367.402 238.6556 L 367.7059 239.1536 L 368.0929 239.5758 L 371.3261 241.7223 L 372.3864 242.2418 L 372.9916 242.4391 L 374.2353 242.6774 L 375.4905 242.7675 L 376.7248 242.7354 L 377.9083 242.5578 L 378.9941 242.1543 L 379.4727 241.8259 L 379.8664 241.4144 L 382.0888 237.5122 L 383.0146 235.2452 L 383.5856 234.0929 L 384.7637 232.4819 L 385.6728 231.4947 L 386.6508 230.5852 L 388.2419 229.4401 L 390.9691 228.0058 L 392.002 227.2257 L 394.4995 225.0988 L 395.5746 224.3669 L 396.1603 224.0768 L 397.3753 223.727 L 399.2523 223.6297 L 400.4907 223.8144 L 401.6347 224.2205 L 404.1336 225.6432 L 406.3286 226.7259 L 407.3715 227.448 L 408.3529 228.2878 L 412.0922 231.9946 L 413.5515 233.2745 L 414.5951 233.9867 L 416.7994 235.0426 L 418.8063 236.1752 L 419.8706 236.6688 L 421.7148 237.0936 L 424.288 237.2498 L 427.5675 237.1865 L 431.3924 236.8598 L 430.7458 238.694 L 430.0489 241.1779 L 429.6138 242.3828 L 428.5849 244.0688 L 426.1804 247.2159 L 425.5599 248.37 L 425.177 249.5829 L 424.697 252.0838 L 424.371 253.312 L 423.9058 254.4098 L 422.8569 256.5046 L 422.156 258.1959 L 421.8735 258.7484 L 421.1887 259.7088 L 420.3412 260.5273 L 419.8646 260.8709 L 418.7802 261.3957 L 414.6198 262.3525 L 411.4636 263.7609 L 410.2848 264.0751 L 407.8896 264.5419 L 406.7296 264.9498 L 406.2168 265.2372 L 405.2944 265.9664 L 404.5172 266.8536 L 404.1925 267.348 L 401.6334 272.7613 L 401.3194 274.0296 L 401.1554 275.3434 L 401.0289 279.3875 L 401.1527 283.4263 L 401.3201 284.7338 L 401.6387 285.9941 L 402.1174 287.0955 L 403.2078 289.1724 L 404.2086 291.4591 L 404.9141 292.5748 L 406.6553 294.6312 L 411.9201 300.0061 L 413.1773 301.5796 L 413.8266 302.7587 L 414.0455 303.3816 L 414.3849 305.3229 L 414.4203 307.3017 L 414.3025 308.6137 L 414.0274 309.8981 L 413.514 311.1075 L 412.793 312.1874 L 411.9576 313.1871 L 408.7699 316.5323 L 407.4666 318.0229 L 406.6881 319.0778 L 404.9228 322.0036 L 403.8685 322.341 L 400.897 323.8119 L 399.6988 324.0921 L 398.4591 324.1671 L 397.2207 324.0582 L 396.0251 323.7476 L 392.9592 322.1928 L 391.763 321.8394 L 390.5099 321.6475 L 389.2327 321.5716 L 387.9528 321.6011 L 386.6889 321.7528 L 385.4686 322.0812 L 384.9244 322.3151 L 382.398 323.7369 L 380.183 324.7812 L 379.0885 325.4934 L 376.4718 327.5239 L 375.06 328.4147 L 372.2539 330.0597 L 369.2429 331.975 L 367.0037 332.9738 L 363.9767 334.7142 L 361.2288 335.9745 L 358.7259 337.4722 L 356.5008 338.4754 L 354.4939 339.6107 L 353.4309 340.1025 L 352.8298 340.2864 L 351.5847 340.4988 L 349.6708 340.5274 L 347.7651 340.2471 L 345.6497 339.5465 L 345.7073 333.8262 L 345.8693 331.8403 L 346.117 330.5604 L 346.5387 329.3867 L 347.9271 326.7858 L 348.903 324.5152 L 350.1736 321.9643 L 350.4607 320.8103 L 350.4969 320.198 L 350.3523 318.9868 L 349.9734 317.9238 L 349.0483 315.8522 L 348.6152 313.9065 L 348.4278 311.1325 L 348.3903 304.0528 L 348.1433 301.3056 L 347.8213 300.007 L 346.6224 297.3293 L 346.2261 296.1217 L 345.9162 294.0626 L 345.6839 289.8043 L 345.4503 287.7229 L 345.1243 286.4172 L 344.2119 284.3366 L 343.837 283.2692 L 343.7292 282.6676 L 343.7306 281.4421 L 343.843 280.8352 L 344.2386 279.7588 L 345.2742 277.7238 L 346.2368 275.438 L 347.8695 272.2811 L 348.2423 271.0655 L 348.7799 268.5708 L 349.1373 267.3641 L 350.3905 264.7052 L 350.7941 263.5289 L 351.0297 262.2463 L 351.1496 260.2702 L 351.0358 258.2932 L 350.5993 256.3912 L 350.0979 255.3014 L 348.9479 253.245 L 347.9351 250.9914 L 346.6103 248.4744 L 346.3024 247.307 L 346.3111 246.0449 L 346.6853 244.8016 L 346.9959 244.2277 L 347.7657 243.1736 L 349.1487 241.7589 L 350.7178 240.5558 L 356.6601 237.7166 L 357.8456 237.3792 L 360.2628 236.8875 L 361.9745 236.2555 L 363.47 235.2943 L 366.4729 232.9683 Z" fill="#000000" fill-opacity="1" stroke="#000000" stroke-width="0" paint-order="fill" stroke-opacity="1" stroke-dasharray="" stroke-linecap="butt" stroke-linejoin="miter" stroke-miterlimit="10" transform="matrix(1.100000023841858,0,0,1.100000023841858,-40.000030517578125,-26.64992904663086)" clip-path="none" style="filter: url(#f1)"/>
<path data-code="210" d="M 494.0092 242.3543 L 488.8769 242.7568 L 486.9898 243.0219 L 485.2581 243.5779 L 482.6648 244.8284 L 480.7122 245.2916 L 477.9776 245.4764 L 475.2297 245.3639 L 473.8896 245.1667 L 472.6063 244.8105 L 469.4869 243.3298 L 467.5229 242.8675 L 464.052 242.6595 L 455.5599 242.6952 L 453.4881 242.5462 L 452.1507 242.2954 L 450.9618 241.8705 L 448.4127 240.5058 L 446.1635 239.5044 L 441.9275 236.958 L 444.0803 234.076 L 445.9132 232.0954 L 447.8698 230.38 L 449.7549 229.1286 L 450.5655 228.4048 L 451.0903 227.3703 L 451.3005 226.2038 L 451.2443 224.9872 L 450.8855 223.7814 L 450.593 223.2575 L 449.8352 222.3641 L 448.9087 221.6688 L 448.3946 221.4055 L 447.2486 221.0556 L 444.3434 220.504 L 443.7778 220.2916 L 442.7884 219.6891 L 441.9436 218.8707 L 441.2869 217.8594 L 441.0319 217.2168 L 440.7387 215.8682 L 440.6235 214.474 L 440.6262 212.3408 L 440.7761 210.2068 L 440.9823 208.8126 L 441.3378 207.4765 L 442.5735 204.7953 L 442.9705 203.6377 L 443.2181 202.3774 L 443.6452 198.4851 L 443.8842 197.2177 L 444.2731 196.0475 L 445.4908 193.3681 L 446.1013 190.9056 L 454.8684 190.9806 L 457.0018 190.8155 L 458.3788 190.5236 L 459.0415 190.2826 L 460.1768 189.6462 L 463.712 186.7491 L 464.7723 186.0207 L 469.4956 183.5413 L 470.6952 183.1102 L 471.3686 182.9647 L 473.4484 182.7451 L 475.5771 182.6934 L 487.0869 182.7228 L 489.9278 182.8094 L 492.0017 183.0477 L 493.319 183.3922 L 495.9197 184.615 L 497.0952 185.03 L 498.4266 185.2987 L 501.8432 185.711 L 503.1794 185.9734 L 504.3629 186.3813 L 506.4374 187.3738 L 507.6209 187.7808 L 508.959 188.0379 L 512.3837 188.4297 L 513.7232 188.6885 L 514.9107 189.1 L 517.512 190.3397 L 522.2782 191.5991 L 525.3976 193.0736 L 526.5664 193.4163 L 528.9367 193.8867 L 530.2267 194.2357 L 534.5042 196.1234 L 532.3694 199.4204 L 529.1924 203.3601 L 528.357 204.8846 L 527.9627 206.2885 L 527.7231 208.519 L 527.6762 210.8208 L 527.7512 215.5022 L 524.5327 215.6352 L 522.6785 216.0244 L 517.9598 218.3601 L 516.9464 218.9894 L 516.0755 219.7757 L 515.3338 220.6914 L 514.7447 221.7437 L 513.9996 223.4333 L 513.3389 224.5543 L 510.5515 228.2271 L 508.9342 230.5852 L 508.5386 230.961 L 508.0707 231.2529 L 507.0137 231.6036 L 503.4505 231.9731 L 502.2348 232.2034 L 501.048 232.6809 L 499.9549 233.4092 L 498.4822 234.7614 L 497.2043 236.3073 L 496.5161 237.4382 L 495.2858 240.2541 L 494.0092 242.3543 Z" fill="#000000" fill-opacity="1" stroke="#000000" stroke-width="0" paint-order="fill" stroke-opacity="1" stroke-dasharray="" stroke-linecap="butt" stroke-linejoin="miter" stroke-miterlimit="10" transform="matrix(1.100000023841858,0,0,1.100000023841858,-40.000030517578125,-26.64992904663086)" clip-path="none" style="filter: url(#f1)"/>
<path data-code="211" d="M 446.1013 190.9056 L 446.5611 189.1161 L 447.3577 187.1311 L 447.6235 186.1627 L 447.6308 185.6325 L 447.5137 185.1014 L 447.2928 184.6141 L 446.6214 183.7849 L 445.723 183.1735 L 444.6232 182.8076 L 441.6972 182.3078 L 440.5787 181.9347 L 437.6634 180.3174 L 436.7698 179.6855 L 436.3848 179.266 L 436.0856 178.7662 L 435.7349 177.6434 L 435.5782 175.7967 L 435.6572 173.3592 L 437.5242 169.4472 L 438.4346 167.1632 L 439.0029 166.0163 L 439.7305 164.9443 L 440.9883 163.427 L 442.3479 161.9793 L 443.7711 160.6101 L 445.2879 159.4025 L 446.3965 158.7885 L 447.586 158.4127 L 450.0092 157.9584 L 451.1941 157.6317 L 452.2524 157.1533 L 454.2961 156.0716 L 455.989 155.3799 L 457.0728 154.8167 L 458.0582 154.1134 L 459.4258 152.8861 L 460.6421 151.5062 L 461.3095 150.4763 L 461.772 149.2803 L 461.9675 147.987 L 461.942 146.6856 L 461.7024 145.4102 L 461.4855 144.7961 L 460.8971 143.7385 L 457.8895 140.0014 L 457.3071 138.9402 L 456.9369 137.6933 L 456.7421 135.7279 L 456.8291 133.7224 L 457.0219 132.455 L 457.5916 130.0933 L 461.7948 131.5241 L 464.8493 133.2279 L 467.0476 134.3141 L 468.1026 135.046 L 470.5539 137.1578 L 471.5694 137.9173 L 472.6927 138.4752 L 473.2844 138.6233 L 473.8856 138.6831 L 475.0771 138.5573 L 476.122 138.1735 L 478.1269 137.222 L 479.2816 136.8748 L 482.302 136.1983 L 483.9367 135.4798 L 487.196 133.4002 L 487.5843 133.0003 L 488.1325 132.015 L 489.071 128.5992 L 490.2525 125.935 L 490.6367 124.706 L 490.9179 122.6263 L 491.0879 118.3538 L 491.2948 116.2581 L 491.4286 115.5797 L 491.8243 114.3623 L 493.0506 111.691 L 493.6698 109.2356 L 496.8548 109.4257 L 498.6843 109.8969 L 499.268 110.1835 L 500.3505 110.9046 L 503.3548 113.443 L 504.4138 114.182 L 506.5967 115.2825 L 509.1036 116.6883 L 509.6465 116.9087 L 510.8601 117.1943 L 512.7237 117.239 L 513.9454 117.0408 L 515.0667 116.6463 L 517.6137 115.3789 L 518.8756 115.0228 L 520.2017 114.8264 L 523.633 114.6702 L 535.8242 114.7256 L 535.5511 115.9707 L 535.1843 117.1765 L 533.9037 119.8229 L 533.6815 120.3798 L 533.3561 121.6329 L 533.1895 122.9343 L 533.1332 124.2561 L 533.1754 125.578 L 533.332 126.882 L 533.6547 128.1405 L 533.8816 128.701 L 535.2552 131.3108 L 536.2346 133.6081 L 537.9811 136.7044 L 538.9597 139.0018 L 540.3307 141.616 L 540.5562 142.1783 L 540.8729 143.4404 L 541.0201 144.7479 L 541.0503 146.0734 L 540.9104 148.0494 L 540.6687 149.3222 L 540.2677 150.4754 L 539.3212 152.5353 L 539.0367 153.6537 L 539.0099 154.8265 L 539.2215 155.8966 L 539.7911 157.7969 L 539.7757 158.7974 L 539.4698 159.781 L 537.9168 163.5287 L 536.5191 166.1243 L 536.0786 167.2979 L 535.8115 168.5832 L 535.6669 169.9068 L 535.5933 171.9204 L 535.6555 173.9277 L 535.92 175.8895 L 536.3082 177.1328 L 536.6034 177.7291 L 537.3317 178.8233 L 539.7898 181.8972 L 540.4391 183.0522 L 540.666 183.6644 L 540.9559 184.9426 L 541.0924 186.2555 L 541.1125 187.5809 L 541.0141 188.9001 L 540.7524 190.1934 L 540.2336 191.4313 L 539.4798 192.5381 L 538.5962 193.5297 L 537.1256 194.8239 L 536.0739 195.5156 L 535.5297 195.7824 L 534.5042 196.1234 L 530.2267 194.2357 L 528.9367 193.8867 L 526.5664 193.4163 L 525.3976 193.0736 L 522.2782 191.5991 L 517.512 190.3397 L 514.9107 189.1 L 513.7232 188.6885 L 512.3837 188.4297 L 508.959 188.0379 L 507.6209 187.7808 L 506.4374 187.3738 L 504.3629 186.3813 L 503.1794 185.9734 L 501.8432 185.711 L 498.4266 185.2987 L 497.0952 185.03 L 495.9197 184.615 L 493.319 183.3922 L 492.0017 183.0477 L 489.9278 182.8094 L 487.0869 182.7228 L 475.5771 182.6934 L 473.4484 182.7451 L 471.3686 182.9647 L 470.6952 183.1102 L 469.4956 183.5413 L 464.7723 186.0207 L 463.712 186.7491 L 460.1768 189.6462 L 459.0415 190.2826 L 458.3788 190.5236 L 457.0018 190.8155 L 454.8684 190.9806 L 446.1013 190.9056 Z" fill="#000000" fill-opacity="1" stroke="#000000" stroke-width="0" paint-order="fill" stroke-opacity="1" stroke-dasharray="" stroke-linecap="butt" stroke-linejoin="miter" stroke-miterlimit="10" transform="matrix(1.100000023841858,0,0,1.100000023841858,-40.000030517578125,-26.64992904663086)" clip-path="none" style="filter: url(#f1)"/>
<path data-code="212" d="M 502.6833 74.9148 L 503.1359 73.1341 L 504.5329 69.0329 L 504.9553 68.0386 L 506.3196 65.5199 L 510.7698 61.8676 L 512.454 60.826 L 513.6315 60.4208 L 517.194 59.5372 L 519.7692 58.2894 L 521.5191 57.7557 L 523.4168 57.537 L 525.3675 57.4692 L 547.5468 57.5986 L 549.8041 57.5691 L 552.0218 57.4112 L 554.1452 56.9426 L 557.2673 55.4378 L 560.1203 54.3587 L 562.1459 53.2992 L 562.2443 58.5027 L 562.1479 64.5247 L 562.5147 66.9533 L 562.8474 68.1913 L 564.4004 71.3839 L 565.3389 73.7 L 566.91 76.8766 L 567.2601 78.0949 L 567.7548 80.5949 L 568.0962 81.815 L 569.591 85.0308 L 570.6052 88.0288 L 571.5932 90.054 L 566.7594 90.2066 L 558.4709 90.1915 L 555.7899 90.4208 L 555.1412 90.5592 L 553.9658 90.9796 L 551.4307 92.3612 L 549.7693 93.1101 L 548.6634 93.734 L 546.6057 95.4208 L 543.6944 98.3207 L 540.8789 101.3223 L 539.2362 103.4519 L 538.623 104.6042 L 537.8987 106.317 L 536.8404 108.4011 L 536.3818 109.5069 L 535.9902 111.4125 L 535.8242 114.7256 L 523.633 114.6702 L 520.2017 114.8264 L 518.8756 115.0228 L 517.6137 115.3789 L 515.0667 116.6463 L 513.9454 117.0408 L 512.7237 117.239 L 510.8601 117.1943 L 509.6465 116.9087 L 509.1036 116.6883 L 506.5967 115.2825 L 504.4138 114.182 L 503.3548 113.443 L 500.3505 110.9046 L 499.268 110.1835 L 498.6843 109.8969 L 496.8548 109.4257 L 493.6698 109.2356 L 493.8693 106.1179 L 494.283 104.0722 L 495.7021 100.7886 L 496.7544 96.4821 L 497.1688 95.3396 L 498.1602 93.21 L 498.5518 91.9926 L 498.849 89.9282 L 499.0846 84.9683 L 499.3872 82.9021 L 499.7868 81.6811 L 501.0627 79.0294 L 502.1164 76.0947 L 502.6833 74.9148 Z" fill="#000000" fill-opacity="1" stroke="#000000" stroke-width="0" paint-order="fill" stroke-opacity="1" stroke-dasharray="" stroke-linecap="butt" stroke-linejoin="miter" stroke-miterlimit="10" transform="matrix(1.100000023841858,0,0,1.100000023841858,-40.000030517578125,-26.64992904663086)" clip-path="none" style="filter: url(#f1)"/>
<path data-code="213" d="M 431.3924 236.8598 L 433.7487 237.0838 L 436.0368 237.1641 L 439.0933 237.1383 L 441.9275 236.958 L 446.1635 239.5044 L 448.4127 240.5058 L 450.9618 241.8705 L 452.1507 242.2954 L 453.4881 242.5462 L 455.5599 242.6952 L 464.052 242.6595 L 467.5229 242.8675 L 469.4869 243.3298 L 472.6063 244.8105 L 473.8896 245.1667 L 475.2297 245.3639 L 477.9776 245.4764 L 480.7122 245.2916 L 482.6648 244.8284 L 485.2581 243.5779 L 486.9898 243.0219 L 488.8769 242.7568 L 494.0092 242.3543 L 493.6457 245.5799 L 493.4422 251.6688 L 493.224 253.7779 L 492.8926 255.0265 L 492.6356 255.5692 L 491.5009 257.0571 L 490.8771 258.2334 L 488.743 258.6511 L 484.3129 259.1929 L 483.0966 259.5606 L 482.5021 259.8489 L 480.8949 261.0003 L 479.5019 262.4239 L 478.3733 264.0778 L 477.8719 265.3791 L 477.6222 266.7911 L 477.5265 268.2343 L 477.5619 277.0785 L 477.4521 278.5217 L 477.2112 279.9266 L 476.7948 281.1646 L 475.4587 283.7922 L 474.4726 286.0842 L 472.7188 289.1787 L 471.7187 291.4654 L 470.3852 294.068 L 470.1751 294.6285 L 469.8979 295.8781 L 469.845 297.8015 L 470.0298 299.0627 L 470.4027 300.223 L 471.6082 302.864 L 471.9563 304.2055 L 472.1485 305.6166 L 472.2984 309.2635 L 472.2361 321.6796 L 461.5243 321.6162 L 459.3816 321.7144 L 457.9859 321.8938 L 456.1022 322.4731 L 453.545 323.8235 L 451.2671 324.7562 L 447.8424 326.3404 L 443.5087 327.7489 L 440.9274 329.0466 L 439.7312 329.467 L 437.6882 329.7678 L 436.3012 329.7901 L 434.9215 329.6857 L 432.9314 329.2269 L 430.3508 327.9765 L 429.1673 327.5463 L 427.1082 327.1901 L 423.5256 327.0438 L 413.364 327.1669 L 411.9509 327.0875 L 410.5699 326.8822 L 409.2479 326.4484 L 407.7665 325.4568 L 406.5381 324.1662 L 404.9228 322.0036 L 406.6881 319.0778 L 407.4666 318.0229 L 408.7699 316.5323 L 411.9576 313.1871 L 412.793 312.1874 L 413.514 311.1075 L 414.0274 309.8981 L 414.3025 308.6137 L 414.4203 307.3017 L 414.3849 305.3229 L 414.0455 303.3816 L 413.8266 302.7587 L 413.1773 301.5796 L 411.9201 300.0061 L 406.6553 294.6312 L 404.9141 292.5748 L 404.2086 291.4591 L 403.2078 289.1724 L 402.1174 287.0955 L 401.6387 285.9941 L 401.3201 284.7338 L 401.1527 283.4263 L 401.0289 279.3875 L 401.1554 275.3434 L 401.3194 274.0296 L 401.6334 272.7613 L 404.1925 267.348 L 404.5172 266.8536 L 405.2944 265.9664 L 406.2168 265.2372 L 406.7296 264.9498 L 407.8896 264.5419 L 410.2848 264.0751 L 411.4636 263.7609 L 414.6198 262.3525 L 418.7802 261.3957 L 419.8646 260.8709 L 420.3412 260.5273 L 421.1887 259.7088 L 421.8735 258.7484 L 422.156 258.1959 L 422.8569 256.5046 L 423.9058 254.4098 L 424.371 253.312 L 424.697 252.0838 L 425.177 249.5829 L 425.5599 248.37 L 426.1804 247.2159 L 428.5849 244.0688 L 429.6138 242.3828 L 430.0489 241.1779 L 430.7458 238.694 L 431.3924 236.8598 Z" fill="#000000" fill-opacity="1" stroke="#000000" stroke-width="0" paint-order="fill" stroke-opacity="1" stroke-dasharray="" stroke-linecap="butt" stroke-linejoin="miter" stroke-miterlimit="10" transform="matrix(1.100000023841858,0,0,1.100000023841858,-40.000030517578125,-26.64992904663086)" clip-path="none" style="filter: url(#f1)"/>
<path data-code="214" d="M 240.6101 158.0155 L 242.4215 157.6166 L 243.5414 157.1873 L 246.0885 155.7985 L 248.331 154.8229 L 251.3487 153.0548 L 253.5919 152.0801 L 256.6725 150.4575 L 257.8567 150.1058 L 260.8824 149.4632 L 262.0023 149.0348 L 264.548 147.6478 L 266.7952 146.6803 L 269.8209 144.922 L 272.0614 143.9446 L 274.5663 142.48 L 276.0497 141.7936 L 277.837 144.216 L 278.6397 145.1085 L 279.9919 146.2367 L 282.5664 147.563 L 283.0316 147.8763 L 283.867 148.6367 L 284.2245 149.0803 L 284.7647 150.1014 L 284.9756 151.3135 L 284.8317 152.5193 L 284.4273 153.5627 L 283.4286 155.5869 L 283.0704 156.8008 L 282.8502 158.0905 L 282.6829 160.0871 L 282.6534 162.1007 L 282.7947 164.0893 L 283.0577 165.379 L 283.5638 166.6116 L 284.7132 168.2574 L 286.0727 169.7622 L 290.3944 174.1553 L 292.1275 176.2189 L 292.8257 177.3399 L 293.8137 179.6382 L 295.1519 182.2658 L 295.5689 183.4252 L 296.2162 186.5447 L 296.5663 187.7541 L 297.8422 190.4058 L 298.0698 190.9645 L 298.4105 192.2185 L 298.5986 193.5199 L 298.683 195.4942 L 298.6026 196.7973 L 298.3503 198.0691 L 298.1227 198.6823 L 297.4801 199.7203 L 296.6333 200.5665 L 295.6144 201.193 L 295.02 201.4099 L 293.7943 201.6455 L 288.0455 201.7892 L 286.7836 201.9338 L 285.568 202.2435 L 284.503 202.7282 L 282.48 203.8492 L 280.2442 204.8257 L 277.177 206.4679 L 275.9969 206.8267 L 273.5736 207.3301 L 272.3928 207.688 L 269.3149 209.3142 L 267.0683 210.2693 L 263.9918 211.8883 L 262.8143 212.2453 L 260.4044 212.7702 L 259.233 213.1709 L 258.2061 213.7511 L 256.3264 215.2336 L 254.6167 214.8453 L 254.0618 214.624 L 253.0932 214.0099 L 252.2705 213.1861 L 251.9257 212.7041 L 251.3929 211.5411 L 251.0435 209.5222 L 250.9116 205.3058 L 250.7235 203.2191 L 250.2188 201.3323 L 249.0547 198.6368 L 248.6269 196.5706 L 248.4629 193.6671 L 248.4428 187.0195 L 248.2956 184.8506 L 247.8665 182.7853 L 246.6943 180.0961 L 246.1715 178.2155 L 246.0035 176.8338 L 245.808 172.588 L 245.5918 170.4977 L 245.0489 168.6002 L 243.7356 165.9618 L 242.7877 163.6537 L 241.2226 160.4763 L 240.6101 158.0155 Z" fill="#000000" fill-opacity="1" stroke="#000000" stroke-width="0" paint-order="fill" stroke-opacity="1" stroke-dasharray="" stroke-linecap="butt" stroke-linejoin="miter" stroke-miterlimit="10" transform="matrix(1.100000023841858,0,0,1.100000023841858,-40.000030517578125,-26.64992904663086)" clip-path="none" style="filter: url(#f1)"/>
<path data-code="215" d="M 534.5042 196.1234 L 535.5297 195.7824 L 536.0739 195.5156 L 537.1256 194.8239 L 538.5962 193.5297 L 539.4798 192.5381 L 540.2336 191.4313 L 540.7524 190.1934 L 541.0141 188.9001 L 541.1125 187.5809 L 541.0924 186.2555 L 540.9559 184.9426 L 540.666 183.6644 L 540.4391 183.0522 L 539.7898 181.8972 L 537.3317 178.8233 L 536.6034 177.7291 L 536.3082 177.1328 L 535.92 175.8895 L 535.6555 173.9277 L 535.5933 171.9204 L 535.6669 169.9068 L 535.8115 168.5832 L 536.0786 167.2979 L 536.5191 166.1243 L 537.9168 163.5287 L 539.4698 159.781 L 539.7757 158.7974 L 539.7911 157.7969 L 539.2215 155.8966 L 539.0099 154.8265 L 539.0367 153.6537 L 539.3212 152.5353 L 540.2677 150.4754 L 540.6687 149.3222 L 540.9104 148.0494 L 541.0503 146.0734 L 541.0201 144.7479 L 540.8729 143.4404 L 540.5562 142.1783 L 540.3307 141.616 L 538.9597 139.0018 L 537.9811 136.7044 L 536.2346 133.6081 L 535.2552 131.3108 L 533.8816 128.701 L 533.6547 128.1405 L 533.332 126.882 L 533.1754 125.578 L 533.1332 124.2561 L 533.1895 122.9343 L 533.3561 121.6329 L 533.6815 120.3798 L 533.9037 119.8229 L 535.1843 117.1765 L 535.5511 115.9707 L 535.8242 114.7256 L 535.9902 111.4125 L 536.3818 109.5069 L 536.8404 108.4011 L 537.8987 106.317 L 538.623 104.6042 L 539.2362 103.4519 L 540.8789 101.3223 L 543.6944 98.3207 L 546.6057 95.4208 L 548.6634 93.734 L 549.7693 93.1101 L 551.4307 92.3612 L 553.9658 90.9796 L 555.1412 90.5592 L 555.7899 90.4208 L 558.4709 90.1915 L 566.7594 90.2066 L 571.5932 90.054 L 572.9802 91.0046 L 574.2146 92.2568 L 574.8746 93.2261 L 575.9062 95.4601 L 576.8889 96.9676 L 578.0724 98.3921 L 581.0044 101.6311 L 582.1403 103.0753 L 582.7642 104.0963 L 583.7743 106.3777 L 584.4016 107.4032 L 585.5422 108.8464 L 589.2983 113.0039 L 590.3794 114.4766 L 591.9806 117.7968 L 592.6627 118.7893 L 594.9601 121.6472 L 595.9408 123.1663 L 596.9134 125.4718 L 598.5936 128.6028 L 600.2725 133.3547 L 603.1335 138.2145 L 603.7494 139.5328 L 604.2039 141.616 L 604.2789 143.7608 L 604.1704 145.1835 L 603.9167 146.5705 L 603.4629 147.9013 L 602.3215 150.4682 L 601.853 152.6246 L 601.6582 155.6646 L 601.5999 161.8472 L 601.3409 164.8604 L 601.0008 166.2921 L 599.4311 170.1612 L 598.5555 174.6614 L 598.757 176.7267 L 598.7556 178.0423 L 598.597 179.3365 L 598.2342 180.5325 L 596.9328 183.1566 L 596.2045 184.8408 L 595.592 185.8913 L 594.3965 187.1953 L 593.4506 187.8817 L 590.7629 189.1661 L 588.2339 190.6039 L 585.974 191.5518 L 582.9336 193.2789 L 580.6871 194.2526 L 577.6567 195.9949 L 575.4121 196.9704 L 572.3818 198.7135 L 570.1372 199.6891 L 567.1068 201.4322 L 564.8623 202.4087 L 561.8333 204.1545 L 559.5934 205.1389 L 556.5758 206.9053 L 554.3353 207.8808 L 551.7862 209.258 L 551.2453 209.4847 L 550.039 209.8078 L 545.635 210.2773 L 544.4053 210.5085 L 543.272 210.9047 L 540.6814 212.1686 L 539.5039 212.5211 L 536.4823 213.1879 L 535.367 213.6136 L 532.7818 214.9033 L 531.601 215.255 L 530.3867 215.5049 L 527.7512 215.5022 L 527.6762 210.8208 L 527.7231 208.519 L 527.9627 206.2885 L 528.357 204.8846 L 529.1924 203.3601 L 532.3694 199.4204 L 534.5042 196.1234 Z" fill="#000000" fill-opacity="1" stroke="#000000" stroke-width="0" paint-order="fill" stroke-opacity="1" stroke-dasharray="" stroke-linecap="butt" stroke-linejoin="miter" stroke-miterlimit="10" transform="matrix(1.100000023841858,0,0,1.100000023841858,-40.000030517578125,-26.64992904663086)" clip-path="none" style="filter: url(#f1)"/>
<path data-code="216" d="M 396.4053 427.4973 L 389.3967 427.8373 L 387.3202 428.0168 L 385.3401 428.4648 L 382.7327 429.6635 L 380.9126 430.1981 L 378.8997 430.423 L 374.799 430.6328 L 373.4575 430.8149 L 371.6166 431.4039 L 366.9904 434.103 L 362.583 428.7049 L 361.8841 427.5776 L 360.5065 424.7492 L 359.7601 423.6683 L 357.7131 421.0478 L 356.9761 419.9544 L 356.3977 418.8093 L 355.4391 416.5342 L 354.0795 413.9316 L 353.1156 411.6931 L 352.4462 410.7283 L 351.6081 409.9009 L 350.61 409.2609 L 350.0022 409.019 L 348.0797 408.6692 L 345.398 408.604 L 337.8739 408.745 L 335.3516 408.6013 L 334.2612 408.3845 L 333.7946 408.2122 L 333.403 407.9864 L 332.8802 407.4419 L 334.5617 403.056 L 334.8717 401.8127 L 335.3329 399.285 L 335.6689 398.0604 L 336.8986 395.381 L 337.3036 394.2297 L 337.9502 391.1102 L 338.3057 389.8901 L 339.9002 386.7172 L 340.8401 384.3966 L 342.1923 381.768 L 342.6093 380.6158 L 343.2118 377.5142 L 343.5458 376.2611 L 344.0258 375.1561 L 345.1022 373.0622 L 345.8044 371.3601 L 346.3988 370.3034 L 346.7583 369.8339 L 347.585 368.994 L 348.5322 368.313 L 351.2319 367.0634 L 353.7556 365.6336 L 355.9994 364.6536 L 357.5437 363.5906 L 359.4395 361.8341 L 363.5617 357.5927 L 365.4614 355.8496 L 366.995 354.791 L 369.7516 353.4451 L 370.7872 352.7016 L 371.7846 351.8644 L 373.7052 350.049 L 375.0667 348.6147 L 375.8948 347.607 L 376.595 346.5145 L 376.8654 345.9183 L 377.1834 344.6509 L 377.249 344.0047 L 377.2329 342.7123 L 377.0281 341.4476 L 376.8453 340.8397 L 375.3177 337.6953 L 375.1263 337.0902 L 374.8806 335.8174 L 374.7641 334.4974 L 374.7441 332.4731 L 375.06 328.4147 L 376.4718 327.5239 L 379.0885 325.4934 L 380.183 324.7812 L 382.398 323.7369 L 384.9244 322.3151 L 385.4686 322.0812 L 386.6889 321.7528 L 387.9528 321.6011 L 389.2327 321.5716 L 390.5099 321.6475 L 391.763 321.8394 L 392.9592 322.1928 L 396.0251 323.7476 L 397.2207 324.0582 L 398.4591 324.1671 L 399.6988 324.0921 L 400.897 323.8119 L 403.8685 322.341 L 404.9228 322.0036 L 406.5381 324.1662 L 407.7665 325.4568 L 409.2479 326.4484 L 410.5699 326.8822 L 411.9509 327.0875 L 413.364 327.1669 L 423.5256 327.0438 L 427.1082 327.1901 L 429.1673 327.5463 L 430.3508 327.9765 L 432.9314 329.2269 L 434.9215 329.6857 L 436.3012 329.7901 L 437.6882 329.7678 L 439.7312 329.467 L 440.9274 329.0466 L 443.5087 327.7489 L 447.8424 326.3404 L 456.1905 334.9552 L 457.4845 336.5118 L 458.2007 337.6427 L 458.4806 338.2558 L 458.8253 339.5125 L 458.988 340.8112 L 459.1352 345.4551 L 459.3287 347.4088 L 459.6272 348.6521 L 460.8288 351.3289 L 461.3429 353.1264 L 461.5484 355.0829 L 461.7218 359.7437 L 462.005 361.6814 L 462.4013 362.8623 L 463.7401 365.489 L 464.6886 367.7971 L 466.3989 370.9085 L 467.3482 373.222 L 469.0505 376.3646 L 470.2701 379.1984 L 471.7 381.777 L 472.6626 384.0797 L 473.741 386.1691 L 474.2129 387.2705 L 474.5489 388.6343 L 474.7565 390.7702 L 474.7859 392.9551 L 474.6788 396.4209 L 470.817 399.2475 L 469.8002 399.8652 L 468.6254 400.3364 L 467.3133 400.606 L 465.9658 400.7363 L 461.8457 400.7818 L 459.1131 400.6319 L 457.1357 400.2927 L 455.9683 399.8652 L 453.3978 398.5638 L 452.229 398.189 L 449.8225 397.6222 L 448.6611 397.242 L 446.1193 395.9362 L 444.9867 395.5363 L 443.7557 395.3418 L 442.5059 395.3311 L 441.2682 395.5078 L 440.6664 395.6809 L 439.602 396.1602 L 437.6058 397.2946 L 435.4068 398.3737 L 434.8439 398.7388 L 433.2681 400.0517 L 429.2851 403.945 L 428.2134 404.7893 L 427.0406 405.4534 L 426.4455 405.6693 L 425.2192 405.9407 L 421.4578 406.3129 L 420.2314 406.5351 L 419.0981 406.9198 L 416.4968 408.1515 L 415.3194 408.4951 L 412.8968 409.0039 L 411.7139 409.3662 L 408.6313 410.9826 L 406.3781 411.935 L 403.3323 413.6406 L 401.0938 414.6358 L 399.9933 415.3364 L 398.4812 416.6306 L 397.147 418.123 L 396.4194 419.2467 L 395.9327 420.4909 L 395.7098 421.785 L 395.6837 423.7656 L 395.9408 425.7408 L 396.4053 427.4973 Z" fill="#000000" fill-opacity="1" stroke="#000000" stroke-width="0" paint-order="fill" stroke-opacity="1" stroke-dasharray="" stroke-linecap="butt" stroke-linejoin="miter" stroke-miterlimit="10" transform="matrix(1.100000023841858,0,0,1.100000023841858,-40.000030517578125,-26.64992904663086)" clip-path="none" style="filter: url(#f1)"/>
<path data-code="217" d="M 441.9275 236.958 L 439.0933 237.1383 L 436.0368 237.1641 L 433.7487 237.0838 L 431.3924 236.8598 L 427.5675 237.1865 L 424.288 237.2498 L 421.7148 237.0936 L 419.8706 236.6688 L 418.8063 236.1752 L 416.7994 235.0426 L 414.5951 233.9867 L 413.5515 233.2745 L 412.0922 231.9946 L 408.3529 228.2878 L 407.3715 227.448 L 406.3286 226.7259 L 404.1336 225.6432 L 401.6347 224.2205 L 400.4907 223.8144 L 399.2523 223.6297 L 397.3753 223.727 L 396.1603 224.0768 L 395.5746 224.3669 L 394.4995 225.0988 L 392.002 227.2257 L 390.9691 228.0058 L 388.2419 229.4401 L 386.6508 230.5852 L 385.6728 231.4947 L 384.7637 232.4819 L 383.5856 234.0929 L 383.0146 235.2452 L 382.0888 237.5122 L 379.8664 241.4144 L 379.4727 241.8259 L 378.9941 242.1543 L 377.9083 242.5578 L 376.7248 242.7354 L 375.4905 242.7675 L 374.2353 242.6774 L 372.9916 242.4391 L 372.3864 242.2418 L 371.3261 241.7223 L 368.0929 239.5758 L 367.7059 239.1536 L 367.402 238.6556 L 367.0252 237.5399 L 366.7387 235.6781 L 366.4729 232.9683 L 366.6617 231.0324 L 366.5519 229.782 L 366.4093 229.1679 L 365.9762 228.0736 L 364.9179 226.0012 L 363.9379 223.7038 L 363.2671 222.6309 L 362.0461 221.1341 L 356.5958 215.4549 L 354.9612 213.4663 L 354.3045 212.3917 L 353.0574 209.5641 L 351.8464 207.5068 L 351.0699 205.9565 L 351.2587 199.6587 L 351.2165 197.638 L 351.0485 195.6575 L 350.616 193.7769 L 349.3676 191.1261 L 348.9646 189.9622 L 348.6654 188.0388 L 348.6299 186.0645 L 348.7344 184.756 L 348.97 183.4815 L 349.3723 182.3149 L 350.602 179.6534 L 350.9293 178.3297 L 351.1389 176.243 L 351.2908 171.9981 L 351.6048 169.9265 L 352.1055 168.6269 L 352.8411 167.4568 L 353.708 166.3724 L 355.1379 164.8328 L 356.6514 163.3743 L 358.2439 162.0507 L 359.3772 161.3215 L 361.609 160.3031 L 364.6407 158.5769 L 366.8906 157.6228 L 369.9792 156.0225 L 371.1614 155.669 L 373.584 155.1665 L 374.7641 154.8077 L 377.8407 153.1833 L 380.0832 152.2176 L 383.1585 150.5932 L 384.3433 150.2362 L 388.0003 149.4418 L 392.247 147.7317 L 394.0865 147.6576 L 395.8772 147.9566 L 396.9362 148.385 L 398.9812 149.4043 L 401.8683 150.4789 L 403.8417 151.5286 L 404.3164 153.5493 L 404.8773 154.473 L 405.3004 154.8229 L 405.7817 155.0773 L 406.85 155.3843 L 410.4166 155.8243 L 412.1524 156.3358 L 414.7283 157.6746 L 416.9835 158.6457 L 419.5038 160.121 L 422.2664 161.3617 L 424.7827 162.8165 L 427.4342 164.1562 L 428.354 164.8586 L 429.506 166.1644 L 430.0985 167.1864 L 430.8803 168.8179 L 431.9005 170.2522 L 433.1804 171.5045 L 435.6572 173.3592 L 435.5782 175.7967 L 435.7349 177.6434 L 436.0856 178.7662 L 436.3848 179.266 L 436.7698 179.6855 L 437.6634 180.3174 L 440.5787 181.9347 L 441.6972 182.3078 L 444.6232 182.8076 L 445.723 183.1735 L 446.6214 183.7849 L 447.2928 184.6141 L 447.5137 185.1014 L 447.6308 185.6325 L 447.6235 186.1627 L 447.3577 187.1311 L 446.5611 189.1161 L 446.1013 190.9056 L 445.4908 193.3681 L 444.2731 196.0475 L 443.8842 197.2177 L 443.6452 198.4851 L 443.2181 202.3774 L 442.9705 203.6377 L 442.5735 204.7953 L 441.3378 207.4765 L 440.9823 208.8126 L 440.7761 210.2068 L 440.6262 212.3408 L 440.6235 214.474 L 440.7387 215.8682 L 441.0319 217.2168 L 441.2869 217.8594 L 441.9436 218.8707 L 442.7884 219.6891 L 443.7778 220.2916 L 444.3434 220.504 L 447.2486 221.0556 L 448.3946 221.4055 L 448.9087 221.6688 L 449.8352 222.3641 L 450.593 223.2575 L 450.8855 223.7814 L 451.2443 224.9872 L 451.3005 226.2038 L 451.0903 227.3703 L 450.5655 228.4048 L 449.7549 229.1286 L 447.8698 230.38 L 445.9132 232.0954 L 444.0803 234.076 L 441.9275 236.958 Z" fill="#000000" fill-opacity="1" stroke="#000000" stroke-width="0" paint-order="fill" stroke-opacity="1" stroke-dasharray="" stroke-linecap="butt" stroke-linejoin="miter" stroke-miterlimit="10" transform="matrix(1.100000023841858,0,0,1.100000023841858,-40.000030517578125,-26.64992904663086)" clip-path="none" style="filter: url(#f1)"/>
<path data-code="218" d="M 403.8417 151.5286 L 407.974 148.7385 L 408.9915 148.1342 L 410.1127 147.6808 L 413.1351 147.0453 L 414.3179 146.7035 L 415.3709 146.2108 L 417.3965 145.0889 L 419.6236 144.0714 L 420.1752 143.7367 L 421.2242 142.9566 L 423.7391 140.8002 L 424.7821 140.0175 L 428.0688 138.2574 L 429.1158 137.48 L 432.1582 134.9362 L 433.2313 134.2195 L 434.876 133.4055 L 435.9551 132.7754 L 436.986 131.9882 L 439.4875 129.8568 L 440.5673 129.1222 L 441.1517 128.8268 L 442.3633 128.4475 L 444.2644 128.1985 L 447.5204 128.1262 L 450.7898 128.2306 L 452.7116 128.4421 L 453.9487 128.7286 L 457.5916 130.0933 L 457.0219 132.455 L 456.8291 133.7224 L 456.7421 135.7279 L 456.9369 137.6933 L 457.3071 138.9402 L 457.8895 140.0014 L 460.8971 143.7385 L 461.4855 144.7961 L 461.7024 145.4102 L 461.942 146.6856 L 461.9675 147.987 L 461.772 149.2803 L 461.3095 150.4763 L 460.6421 151.5062 L 459.4258 152.8861 L 458.0582 154.1134 L 457.0728 154.8167 L 455.989 155.3799 L 454.2961 156.0716 L 452.2524 157.1533 L 451.1941 157.6317 L 450.0092 157.9584 L 447.586 158.4127 L 446.3965 158.7885 L 445.2879 159.4025 L 443.7711 160.6101 L 442.3479 161.9793 L 440.9883 163.427 L 439.7305 164.9443 L 439.0029 166.0163 L 438.4346 167.1632 L 437.5242 169.4472 L 435.6572 173.3592 L 433.1804 171.5045 L 431.9005 170.2522 L 430.8803 168.8179 L 430.0985 167.1864 L 429.506 166.1644 L 428.354 164.8586 L 427.4342 164.1562 L 424.7827 162.8165 L 422.2664 161.3617 L 419.5038 160.121 L 416.9835 158.6457 L 414.7283 157.6746 L 412.1524 156.3358 L 410.4166 155.8243 L 406.85 155.3843 L 405.7817 155.0773 L 405.3004 154.8229 L 404.8773 154.473 L 404.3164 153.5493 L 403.8417 151.5286 Z" fill="#000000" fill-opacity="1" stroke="#000000" stroke-width="0" paint-order="fill" stroke-opacity="1" stroke-dasharray="" stroke-linecap="butt" stroke-linejoin="miter" stroke-miterlimit="10" transform="matrix(1.100000023841858,0,0,1.100000023841858,-40.000030517578125,-26.64992904663086)" clip-path="none" style="filter: url(#f1)"/>



















</svg>