<?xml version="1.0" standalone="no"?>
<!-- Generator: Paintmaps.com , Online SVG vector map maker -->
<svg xmlns="http://www.w3.org/2000/svg" version="1.1" baseProfile="full"   style="background-color:false" width="800" height="500" viewBox="0 0 800 533">
<path data-code="200" d="M 415.6461 364.2501 L 413.7224 369.3079 L 412.1358 372.9938 L 407.6439 380.9125 L 405.7107 385.5948 L 402.2626 391.8963 L 400.259 396.5461 L 398.0929 399.9071 L 393.9192 405.2067 L 392.4165 407.3872 L 389.6642 413.0046 L 388.3037 414.9486 L 386.6507 416.6508 L 384.7594 418.0533 L 380.3718 420.1471 L 374.2595 423.6453 L 369.6837 425.5424 L 363.4386 428.8006 L 361.0397 429.4991 L 354.9071 430.7392 L 352.634 431.5894 L 347.4869 434.38 L 342.9734 436.4106 L 340.7667 437.8565 L 338.6873 439.5713 L 333.7311 444.3709 L 327.0014 451.407 L 324.329 454.5298 L 322.0966 457.8781 L 320.089 462.5153 L 317.8918 466.7265 L 316.9401 468.9557 L 316.5854 470.2138 L 316.1562 472.8131 L 315.8652 479.5279 L 278.0945 479.7012 L 273.83 479.5279 L 269.6861 478.8185 L 268.3567 478.3456 L 265.932 476.9828 L 263.7321 475.2499 L 261.6649 473.3059 L 258.7136 470.1597 L 255.9357 466.8059 L 252.0801 461.0117 L 251.8932 447.8781 L 252.3332 440.2464 L 253.266 435.9215 L 255.5512 430.7121 L 256.4745 427.9684 L 257.0092 425.0442 L 257.2935 422.0262 L 257.4573 415.8619 L 257.2908 409.6363 L 256.9009 405.1706 L 256.1062 399.7735 L 258.3143 398.0966 L 263.2136 395.2248 L 265.7154 392.7862 L 267.0679 390.853 L 269.2001 386.3638 L 270.566 384.1237 L 275.5047 377.723 L 277.0236 375.5245 L 280.4839 368.6508 L 282.0205 366.4739 L 286.2578 361.2357 L 288.4672 357.9108 L 290.5168 353.2935 L 293.2718 348.0083 L 294.0935 345.6184 L 294.5525 343.0173 L 294.7745 340.3476 L 294.964 331.3657 L 301.4784 330.8278 L 309.4644 330.6653 L 316.0276 330.9126 L 319.8169 331.5462 L 322.1115 332.3837 L 327.306 335.0065 L 329.6779 335.7321 L 334.5786 336.8061 L 336.9599 337.5823 L 343.0831 341.048 L 350.2906 344.3639 L 352.2442 344.9974 L 353.3028 345.066 L 354.4603 344.8639 L 355.5474 344.4289 L 356.5763 343.8224 L 358.519 342.27 L 361.3078 339.4505 L 368.694 331.2339 L 370.6029 329.3386 L 372.6336 327.6834 L 374.9296 326.4848 L 376.1588 326.178 L 378.6606 326.1617 L 379.8953 326.4542 L 382.1466 327.5823 L 385.0992 330.0137 L 389.6575 334.835 L 393.0243 338.9938 L 395.074 342.3386 L 397.4823 348.1021 L 401.4381 355.1346 L 402.7445 356.9469 L 404.522 358.2898 L 410.2161 361.4595 L 415.6461 364.2501 Z" fill="#000000" fill-opacity="1" stroke="#000000" stroke-width="0" paint-order="fill" stroke-opacity="1" stroke-dasharray="" stroke-linecap="butt" stroke-linejoin="miter" stroke-miterlimit="10" clip-path="none"/>
<path data-code="201" d="M 239.4777 75.5214 L 240.9668 80.3029 L 242.5832 86.626 L 243.4822 88.9726 L 246.2236 94.3011 L 248.1446 98.9762 L 251.5507 105.2957 L 253.4867 109.969 L 256.886 116.3011 L 258.8328 120.9707 L 262.2741 127.274 L 264.2181 131.9292 L 267.3562 138.375 L 268.2335 142.4852 L 268.5313 146.7794 L 268.7114 170.2504 L 268.5909 174.44 L 267.9519 178.3226 L 266.8458 180.5844 L 265.1956 182.1313 L 260.5101 185.014 L 257.3395 186.514 L 254.6969 187.1241 L 250.5828 187.4183 L 242.2407 187.5176 L 239.5129 187.8154 L 236.8608 188.532 L 234.5052 189.7811 L 231.3982 192.3118 L 228.7326 195.3389 L 227.2841 197.6313 L 226.7128 198.8858 L 225.9966 201.4778 L 225.5079 206.9868 L 225.665 238.5139 L 225.3576 254.1402 L 217.1835 253.3893 L 212.8432 252.7449 L 210.5905 248.5211 L 208.5666 243.0337 L 205.5571 236.5265 L 204.7422 232.7106 L 203.8013 223.5247 L 202.7385 219.8713 L 200.0865 214.5265 L 198.1749 209.8623 L 195.2751 204.6276 L 192.8058 198.8587 L 189.42 192.5212 L 187.5531 187.8154 L 184.2404 181.4454 L 182.3126 176.7631 L 180.9426 174.4689 L 178.4069 171.319 L 175.4827 168.5411 L 173.2896 167.0176 L 170.8704 165.9815 L 167.0662 165.3172 L 163.1511 165.1638 L 156.5053 165.3299 L 150.4783 165.745 L 151.1132 156.5248 L 151.1646 126.7577 L 151.3731 122.1404 L 151.7305 119.135 L 152.4223 116.2469 L 155.6403 108.4834 L 157.0766 102.2343 L 157.8293 99.7849 L 161.0405 93.3805 L 162.9981 88.7361 L 165.5852 83.6423 L 166.5504 80.8715 L 167.2273 76.4221 L 167.4345 71.8246 L 167.1975 53.3012 L 176.3031 56.0304 L 178.5409 56.942 L 182.7011 59.0683 L 186.374 60.182 L 191.7986 60.673 L 202.8834 60.8246 L 205.6045 61.0521 L 208.2539 61.5376 L 210.6311 62.3896 L 215.7769 65.1947 L 220.2823 67.247 L 226.3689 70.8409 L 230.8432 72.7614 L 234.7746 74.7181 L 236.7213 75.3842 L 239.4777 75.5214 Z" fill="#000000" fill-opacity="1" stroke="#000000" stroke-width="0" paint-order="fill" stroke-opacity="1" stroke-dasharray="" stroke-linecap="butt" stroke-linejoin="miter" stroke-miterlimit="10" clip-path="none"/>
<path data-code="202" d="M 212.8432 252.7449 L 206.3992 253.3839 L 200.9177 253.6492 L 195.378 253.577 L 191.322 253.1258 L 187.6262 251.9759 L 182.4615 249.2214 L 177.952 247.2503 L 170.1705 242.4778 L 168.4146 241.0897 L 167.6957 240.2124 L 163.2688 232.1222 L 162.4782 229.7576 L 161.7485 225.2937 L 160.5735 220.9597 L 158.0622 215.5536 L 157.235 213.2215 L 155.9273 206.9219 L 155.2395 204.4489 L 152.3329 197.9056 L 149.953 187.9165 L 146.934 181.4002 L 145.0469 175.1999 L 143.046 170.245 L 146.9015 167.1873 L 150.4783 165.745 L 156.5053 165.3299 L 163.1511 165.1638 L 167.0662 165.3172 L 170.8704 165.9815 L 173.2896 167.0176 L 175.4827 168.5411 L 178.4069 171.319 L 180.9426 174.4689 L 182.3126 176.7631 L 184.2404 181.4454 L 187.5531 187.8154 L 189.42 192.5212 L 192.8058 198.8587 L 195.2751 204.6276 L 198.1749 209.8623 L 200.0865 214.5265 L 202.7385 219.8713 L 203.8013 223.5247 L 204.7422 232.7106 L 205.5571 236.5265 L 208.5666 243.0337 L 210.5905 248.5211 L 212.8432 252.7449 Z" fill="#000000" fill-opacity="1" stroke="#000000" stroke-width="0" paint-order="fill" stroke-opacity="1" stroke-dasharray="" stroke-linecap="butt" stroke-linejoin="miter" stroke-miterlimit="10" clip-path="none"/>
<path data-code="203" d="M 294.964 331.3657 L 294.7867 320.6455 L 295.2443 313.3423 L 296.1702 309.261 L 298.0588 305.0679 L 298.8413 302.9109 L 299.0755 301.6889 L 299.1039 299.1871 L 298.89 297.9416 L 298.1102 295.7214 L 293.9419 287.0752 L 292.5962 285.1672 L 291.061 283.521 L 287.1716 280.5625 L 286.6355 279.9741 L 285.9288 278.2214 L 287.3679 272.9867 L 289.2862 267.3965 L 290.2366 265.077 L 290.8499 264.0535 L 292.3661 262.2521 L 294.2303 260.855 L 295.2984 260.3658 L 296.4952 260.059 L 298.9035 260.0427 L 301.121 260.6961 L 306.0556 263.3261 L 308.4302 264.0824 L 310.9563 264.5427 L 314.8688 264.8965 L 318.8137 264.9741 L 321.4211 264.8514 L 323.9838 264.4922 L 326.4599 263.7232 L 327.5348 263.1709 L 329.5046 261.7864 L 331.2862 260.1402 L 332.9094 258.3063 L 334.3593 256.3026 L 335.6413 254.0752 L 337.3295 250.6005 L 341.8416 252.8388 L 347.69 254.9308 L 353.9716 258.0499 L 357.9382 258.9597 L 363.4914 259.3243 L 386.2161 259.3785 L 390.402 259.198 L 393.1313 258.8604 L 394.4648 258.5788 L 396.8745 257.7377 L 402.0433 255.0066 L 405.4061 253.494 L 407.6439 252.2214 L 409.7585 250.6023 L 412.6773 247.7954 L 415.2522 244.6655 L 416.6601 242.3875 L 421.6908 231.1998 L 422.3379 228.707 L 423.5157 222.3749 L 424.3347 220.0301 L 427.6583 214.0392 L 428.9214 212.2071 L 429.7364 211.4201 L 430.7882 210.754 L 431.9376 210.2901 L 434.4096 209.7594 L 441.0283 209.0699 L 442.351 208.8172 L 444.7201 208.0446 L 449.9782 205.3912 L 454.5878 203.4237 L 456.6307 202.106 L 459.4249 199.6854 L 462.6849 195.9526 L 464.5179 192.7432 L 465.2476 190.2558 L 466.1059 185.1818 L 466.7394 182.7053 L 467.6885 180.5049 L 469.8653 176.2757 L 471.2733 172.7739 L 472.3983 170.5663 L 473.7819 168.5808 L 476.1821 165.7486 L 483.7349 158.0032 L 488.6925 162.0537 L 491.6072 164.1801 L 502.2507 169.5338 L 503.3432 169.9436 L 505.7624 170.4454 L 508.2155 170.5519 L 510.6861 170.3642 L 515.3946 173.6457 L 517.3332 175.2486 L 519.284 177.1494 L 521.8346 180.328 L 523.1058 182.745 L 523.5187 184.0013 L 524.1374 187.9129 L 524.4352 197.2973 L 524.8319 201.254 L 525.437 203.7775 L 525.8594 204.9092 L 528.2637 210.319 L 528.6482 211.6637 L 529.1315 214.4778 L 529.4429 220.3478 L 529.321 232.3207 L 529.4564 236.7485 L 529.8084 239.6348 L 530.1252 241.0446 L 530.58 242.4182 L 531.8689 244.8821 L 533.4853 247.1113 L 536.1685 250.1817 L 542.2944 256.4507 L 546.5805 260.5535 L 548.3445 262.0499 L 550.1843 263.3694 L 552.0362 264.355 L 555.6441 265.9145 L 557.5638 267.1185 L 560.2713 269.3387 L 564.5344 273.5301 L 567.7442 277.0824 L 569.8859 279.8893 L 571.0461 281.8784 L 572.9685 286.5409 L 574.1585 288.5553 L 575.5881 290.4632 L 579.6427 294.9975 L 597.6616 313.6112 L 601.0298 317.3585 L 604.436 321.5318 L 599.3119 324.1491 L 594.8105 326.0679 L 592.6418 327.2231 L 590.6761 328.6419 L 585.0673 333.4 L 583.126 334.8206 L 576.5953 338.2592 L 572.5827 341.5697 L 564.9649 349.0245 L 562.9735 350.7122 L 560.8548 352.1436 L 556.3792 354.2249 L 552.3327 356.5335 L 550.187 357.5516 L 547.7231 358.2212 L 543.8472 358.6635 L 534.5412 358.7339 L 528.0877 358.2429 L 524.3851 357.3602 L 519.1189 354.8729 L 516.7403 354.0534 L 514.0476 353.5516 L 507.1541 352.7935 L 504.4506 352.2014 L 503.1415 351.7249 L 500.7723 350.3783 L 498.6076 348.6761 L 490.5634 340.8296 L 487.382 338.1942 L 485.1428 336.8639 L 481.8058 335.2899 L 477.7349 333.0191 L 475.5756 332.0354 L 474.2787 331.6347 L 470.2227 331.0011 L 464.6275 330.7899 L 441.9096 330.6599 L 439.1547 330.7935 L 436.4674 331.1726 L 433.8979 332.0173 L 431.8767 333.3061 L 430.1723 334.9668 L 428.7982 336.9072 L 426.2815 342.4559 L 423.5089 347.7465 L 421.6123 352.4631 L 417.8447 359.2231 L 415.6461 364.2501 L 410.2161 361.4595 L 404.522 358.2898 L 402.7445 356.9469 L 401.4381 355.1346 L 397.4823 348.1021 L 395.074 342.3386 L 393.0243 338.9938 L 389.6575 334.835 L 385.0992 330.0137 L 382.1466 327.5823 L 379.8953 326.4542 L 378.6606 326.1617 L 376.1588 326.178 L 374.9296 326.4848 L 372.6336 327.6834 L 370.6029 329.3386 L 368.694 331.2339 L 361.3078 339.4505 L 358.519 342.27 L 356.5763 343.8224 L 355.5474 344.4289 L 354.4603 344.8639 L 353.3028 345.066 L 352.2442 344.9974 L 350.2906 344.3639 L 343.0831 341.048 L 336.9599 337.5823 L 334.5786 336.8061 L 329.6779 335.7321 L 327.306 335.0065 L 322.1115 332.3837 L 319.8169 331.5462 L 316.0276 330.9126 L 309.4644 330.6653 L 301.4784 330.8278 L 294.964 331.3657 Z" fill="#000000" fill-opacity="1" stroke="#000000" stroke-width="0" paint-order="fill" stroke-opacity="1" stroke-dasharray="" stroke-linecap="butt" stroke-linejoin="miter" stroke-miterlimit="10" clip-path="none"/>
<path data-code="204" d="M 239.4777 75.5214 L 250.8887 78.1531 L 253.1604 79.0177 L 257.345 81.0899 L 259.7371 81.9311 L 262.4379 82.4654 L 269.3449 83.2867 L 272.039 83.8228 L 274.4176 84.6567 L 278.5981 86.6766 L 280.9591 87.4798 L 284.9473 88.0935 L 297.3697 88.3824 L 302.7673 88.9726 L 304.0655 89.312 L 306.3968 90.3138 L 308.3909 91.6296 L 311.1743 93.9094 L 313.9739 96.3047 L 315.9166 97.7361 L 317.8146 98.8101 L 321.3886 100.4979 L 323.3868 101.8047 L 329.9513 107.3173 L 331.8967 108.7379 L 333.792 109.8029 L 337.3647 111.4888 L 339.3629 112.8155 L 342.1774 115.2162 L 349.3904 122.2325 L 352.2252 124.5989 L 354.2356 125.8895 L 357.8285 127.505 L 359.7509 128.5484 L 362.648 130.7686 L 364.435 132.4779 L 366.0907 134.3227 L 368.185 137.3769 L 368.7143 138.4942 L 369.3682 140.5646 L 370.3836 146.0375 L 365.8186 153.8877 L 363.7635 158.4147 L 362.5357 160.6909 L 356.1268 169.1891 L 354.88 171.5609 L 354.4386 172.8624 L 353.8985 175.5645 L 353.6548 178.3461 L 353.6914 195.4472 L 353.5275 198.2504 L 353.135 200.9923 L 352.3511 203.6168 L 351.8218 204.7269 L 350.5208 206.7901 L 345.5713 213.2738 L 344.2839 215.6908 L 343.8317 217.0085 L 343.1115 221.1583 L 342.7135 229.7341 L 342.3033 233.9615 L 341.6738 236.6583 L 339.2681 242.1095 L 338.4558 244.4507 L 337.3295 250.6005 L 335.6413 254.0752 L 334.3593 256.3026 L 332.9094 258.3063 L 331.2862 260.1402 L 329.5046 261.7864 L 327.5348 263.1709 L 326.4599 263.7232 L 323.9838 264.4922 L 321.4211 264.8514 L 318.8137 264.9741 L 314.8688 264.8965 L 310.9563 264.5427 L 308.4302 264.0824 L 306.0556 263.3261 L 301.121 260.6961 L 298.9035 260.0427 L 296.4952 260.059 L 295.2984 260.3658 L 294.2303 260.855 L 292.3661 262.2521 L 290.8499 264.0535 L 290.2366 265.077 L 289.2862 267.3965 L 287.3679 272.9867 L 285.9288 278.2214 L 274.0534 274.4741 L 267.849 271.1095 L 263.3368 269.1167 L 257.0864 265.92 L 254.4316 265.216 L 246.141 264.2756 L 242.1081 263.3748 L 235.8211 260.2304 L 230.8919 258.0481 L 228.6094 256.6258 L 225.3576 254.1402 L 225.665 238.5139 L 225.5079 206.9868 L 225.9966 201.4778 L 226.7128 198.8858 L 227.2841 197.6313 L 228.7326 195.3389 L 231.3982 192.3118 L 234.5052 189.7811 L 236.8608 188.532 L 239.5129 187.8154 L 242.2407 187.5176 L 250.5828 187.4183 L 254.6969 187.1241 L 257.3395 186.514 L 260.5101 185.014 L 265.1956 182.1313 L 266.8458 180.5844 L 267.9519 178.3226 L 268.5909 174.44 L 268.7114 170.2504 L 268.5313 146.7794 L 268.2335 142.4852 L 267.3562 138.375 L 264.2181 131.9292 L 262.2741 127.274 L 258.8328 120.9707 L 256.886 116.3011 L 253.4867 109.969 L 251.5507 105.2957 L 248.1446 98.9762 L 246.2236 94.3011 L 243.4822 88.9726 L 242.5832 86.626 L 240.9668 80.3029 L 239.4777 75.5214 Z" fill="#000000" fill-opacity="1" stroke="#000000" stroke-width="0" paint-order="fill" stroke-opacity="1" stroke-dasharray="" stroke-linecap="butt" stroke-linejoin="miter" stroke-miterlimit="10" clip-path="none"/>
<path data-code="205" d="M 370.3836 146.0375 L 373.7274 148.7469 L 378.2558 152.0375 L 380.801 153.4057 L 383.4652 154.1963 L 387.6376 154.6819 L 393.3303 154.644 L 397.6191 154.2144 L 404.009 152.8588 L 411.8149 155.8281 L 418.0938 158.9562 L 420.8244 159.6963 L 425.1159 160.2053 L 432.4426 160.3425 L 439.6948 159.8642 L 443.8063 158.8877 L 449.0454 156.3606 L 451.4606 155.4942 L 455.6641 154.7775 L 460.0192 154.5194 L 467.3663 154.5393 L 473.1591 155.0158 L 475.9506 155.5934 L 483.7349 158.0032 L 476.1821 165.7486 L 473.7819 168.5808 L 472.3983 170.5663 L 471.2733 172.7739 L 469.8653 176.2757 L 467.6885 180.5049 L 466.7394 182.7053 L 466.1059 185.1818 L 465.2476 190.2558 L 464.5179 192.7432 L 462.6849 195.9526 L 459.4249 199.6854 L 456.6307 202.106 L 454.5878 203.4237 L 449.9782 205.3912 L 444.7201 208.0446 L 442.351 208.8172 L 441.0283 209.0699 L 434.4096 209.7594 L 431.9376 210.2901 L 430.7882 210.754 L 429.7364 211.4201 L 428.9214 212.2071 L 427.6583 214.0392 L 424.3347 220.0301 L 423.5157 222.3749 L 422.3379 228.707 L 421.6908 231.1998 L 416.6601 242.3875 L 415.2522 244.6655 L 412.6773 247.7954 L 409.7585 250.6023 L 407.6439 252.2214 L 405.4061 253.494 L 402.0433 255.0066 L 396.8745 257.7377 L 394.4648 258.5788 L 393.1313 258.8604 L 390.402 259.198 L 386.2161 259.3785 L 363.4914 259.3243 L 357.9382 258.9597 L 353.9716 258.0499 L 347.69 254.9308 L 341.8416 252.8388 L 337.3295 250.6005 L 338.4558 244.4507 L 339.2681 242.1095 L 341.6738 236.6583 L 342.3033 233.9615 L 342.7135 229.7341 L 343.1115 221.1583 L 343.8317 217.0085 L 344.2839 215.6908 L 345.5713 213.2738 L 350.5208 206.7901 L 351.8218 204.7269 L 352.3511 203.6168 L 353.135 200.9923 L 353.5275 198.2504 L 353.6914 195.4472 L 353.6548 178.3461 L 353.8985 175.5645 L 354.4386 172.8624 L 354.88 171.5609 L 356.1268 169.1891 L 362.5357 160.6909 L 363.7635 158.4147 L 365.8186 153.8877 L 370.3836 146.0375 Z" fill="#000000" fill-opacity="1" stroke="#000000" stroke-width="0" paint-order="fill" stroke-opacity="1" stroke-dasharray="" stroke-linecap="butt" stroke-linejoin="miter" stroke-miterlimit="10" clip-path="none"/>
<path data-code="206" d="M 648.0171 157.7378 L 644.1074 163.1638 L 642.2703 166.1728 L 640.241 170.8281 L 637.5672 175.9562 L 636.9946 178.0699 L 636.9296 180.0952 L 637.3195 182.1006 L 638.3457 184.2558 L 639.7333 186.1963 L 644.3944 191.7901 L 645.7076 193.8208 L 647.764 198.4399 L 650.0099 202.6656 L 650.9846 204.911 L 651.449 206.6204 L 651.8023 208.7702 L 652.398 215.3099 L 653.0437 219.1619 L 653.8411 221.4922 L 655.8569 225.7449 L 656.6042 228.1078 L 656.9548 230.6709 L 656.8195 234.559 L 656.259 237.0698 L 653.8127 242.4344 L 653.0072 244.7612 L 652.3479 248.6149 L 651.7062 255.2034 L 650.8763 259.0283 L 649.93 261.2575 L 647.7491 265.4867 L 645.717 270.1203 L 644.3335 272.3135 L 642.7116 274.3802 L 635.481 282.2503 L 632.8899 285.2773 L 629.9901 289.5102 L 625.4508 292.9614 L 622.6214 295.382 L 619.9653 298.0408 L 617.5352 300.8784 L 615.5411 303.9488 L 613.5361 308.5823 L 612.3313 310.6221 L 607.1381 317.4397 L 604.436 321.5318 L 601.0298 317.3585 L 597.6616 313.6112 L 579.6427 294.9975 L 575.5881 290.4632 L 574.1585 288.5553 L 572.9685 286.5409 L 571.0461 281.8784 L 569.8859 279.8893 L 567.7442 277.0824 L 564.5344 273.5301 L 560.2713 269.3387 L 557.5638 267.1185 L 555.6441 265.9145 L 552.0362 264.355 L 550.1843 263.3694 L 548.3445 262.0499 L 546.5805 260.5535 L 542.2944 256.4507 L 536.1685 250.1817 L 533.4853 247.1113 L 531.8689 244.8821 L 530.58 242.4182 L 530.1252 241.0446 L 529.8084 239.6348 L 529.4564 236.7485 L 529.321 232.3207 L 529.4429 220.3478 L 529.1315 214.4778 L 528.6482 211.6637 L 528.2637 210.319 L 525.8594 204.9092 L 525.437 203.7775 L 524.8319 201.254 L 524.4352 197.2973 L 524.1374 187.9129 L 523.5187 184.0013 L 523.1058 182.745 L 521.8346 180.328 L 519.284 177.1494 L 517.3332 175.2486 L 515.3946 173.6457 L 510.6861 170.3642 L 515.0331 168.5717 L 519.1825 166.6259 L 522.9081 165.1458 L 524.8508 164.1024 L 526.8111 162.6837 L 532.409 157.8985 L 534.3679 156.4653 L 536.1455 155.4581 L 539.8752 153.7288 L 543.0227 151.5898 L 546.9731 148.088 L 551.5895 143.2812 L 553.2398 141.218 L 554.6436 138.9924 L 555.2 137.7884 L 555.923 135.2343 L 556.2749 132.5953 L 556.4509 128.5574 L 556.2885 116.1874 L 558.7388 114.7614 L 560.0344 113.1838 L 561.0267 110.0105 L 561.3963 105.5917 L 567.0931 105.2018 L 572.8453 105.0899 L 577.0989 105.2722 L 579.8647 105.6404 L 581.2117 105.9473 L 583.6106 106.839 L 588.7144 109.6783 L 593.1968 111.7054 L 597.2704 113.9942 L 599.408 114.9906 L 603.4409 115.9419 L 613.1841 116.9455 L 621.1769 118.8191 L 620.259 125.9003 L 620.0695 129.9743 L 620.1562 132.6422 L 620.8209 136.5104 L 621.2771 137.7343 L 622.5266 139.8191 L 623.2942 140.7361 L 625.0406 142.3245 L 627.0686 143.5772 L 631.4061 145.7938 L 633.5289 147.3101 L 640.7486 153.1097 L 645.8659 156.0519 L 648.0171 157.7378 Z" fill="#000000" fill-opacity="1" stroke="#000000" stroke-width="0" paint-order="fill" stroke-opacity="1" stroke-dasharray="" stroke-linecap="butt" stroke-linejoin="miter" stroke-miterlimit="10" clip-path="none"/>







</svg>