<?xml version="1.0" standalone="no"?>
<!-- Generator: Paintmaps.com , Online SVG vector map maker -->
<svg xmlns="http://www.w3.org/2000/svg" version="1.1" baseProfile="full"   style="background-color:false" width="800" height="500" viewBox="0 0 800 533">
<path data-code="200" d="M 526.6983 230.5686 L 526.7805 228.0175 L 527.1747 225.9737 L 527.6737 224.7905 L 528.8421 222.5543 L 529.923 220.0999 L 530.6762 218.9081 L 533.3617 215.5701 L 534.1733 214.4118 L 534.8083 213.1922 L 535.8619 210.7722 L 537.384 207.9904 L 538.434 205.5225 L 539.1764 204.3202 L 541.0309 202.1022 L 546.6679 196.3289 L 547.9993 194.6345 L 548.6774 193.37 L 548.9086 192.6874 L 549.2604 190.5556 L 549.3552 187.6177 L 549.2489 174.1144 L 549.3469 168.8791 L 549.5354 166.7147 L 549.7809 165.3563 L 550.7552 162.6291 L 550.9042 161.533 L 550.8062 160.9251 L 550.3054 159.7898 L 549.1186 158.217 L 541.0312 150.0323 L 539.6721 148.3954 L 538.6088 146.5938 L 538.1946 145.289 L 537.6672 142.6297 L 537.3122 141.3374 L 535.7517 137.8108 L 535.4057 136.3691 L 535.2276 134.8452 L 535.14 131.6268 L 535.3217 128.3884 L 535.7327 126.1148 L 536.6133 123.4019 L 541.9936 123.4842 L 544.9085 123.7705 L 546.2917 124.1323 L 549.0745 125.4581 L 550.2767 125.8813 L 551.5834 126.1378 L 554.9419 126.4939 L 556.2712 126.7141 L 557.5585 127.1133 L 559.3488 128.1892 L 563.1787 131.264 L 566.099 132.8186 L 567.2811 133.6237 L 568.3936 134.5551 L 570.9383 137.0297 L 581.5336 148.0622 L 592.7803 159.7745 L 595.5531 162.4749 L 596.5284 163.2647 L 597.5587 163.9252 L 599.9394 164.9993 L 600.9244 165.633 L 602.3115 166.7922 L 604.9838 169.3395 L 606.3744 170.5256 L 607.3674 171.1947 L 608.893 171.9251 L 610.9916 176.32 L 611.7218 178.3791 L 612.1719 179.4426 L 613.5741 182.1756 L 612.1769 183.9561 L 610.3139 186.0344 L 602.5341 194.0075 L 601.2805 195.6167 L 600.6351 196.8161 L 600.2395 198.1688 L 599.9983 200.2815 L 599.9818 203.1571 L 600.1268 205.3033 L 600.3407 206.6971 L 600.7155 208.0239 L 602.1299 210.8278 L 602.5693 212.0722 L 602.789 213.4363 L 602.8134 214.8272 L 602.6339 216.2038 L 602.2067 217.4722 L 599.7499 221.6823 L 598.9199 222.5151 L 596.8874 223.7816 L 594.8602 225.4635 L 592.3808 227.895 L 587.009 233.4586 L 584.4926 235.8001 L 582.8636 236.9364 L 581.0841 237.7683 L 579.9591 238.3848 L 578.9242 239.1314 L 575.4223 242.0215 L 574.359 242.7011 L 572.5756 243.5244 L 571.4072 244.1648 L 570.3055 244.9804 L 569.2522 245.9003 L 566.7577 248.4275 L 564.9545 250.5957 L 563.8805 252.3284 L 563.1281 254.1377 L 562.5164 255.2653 L 561.2521 256.662 L 560.1855 257.3531 L 558.9022 257.7657 L 557.5596 257.9294 L 556.1854 257.9428 L 554.7962 257.8452 L 551.8138 257.3148 L 549.5171 255.2787 L 547.006 252.808 L 544.0753 249.7706 L 542.269 247.6675 L 541.1759 245.9568 L 540.1758 243.4641 L 538.6871 240.6698 L 537.3987 237.6754 L 536.2723 236.1562 L 534.8098 234.9798 L 531.9236 233.5994 L 529.232 231.8925 L 526.6983 230.5686 Z" fill="#000000" fill-opacity="1" stroke="#000000" stroke-width="0" paint-order="fill" stroke-opacity="1" stroke-dasharray="" stroke-linecap="butt" stroke-linejoin="miter" stroke-miterlimit="10" transform="matrix(0.949999988079071,0,0,0.949999988079071,19.999996185302734,13.325008392333984)" clip-path="none"/>
<path data-code="201" d="M 536.3527 294.2541 L 536.2313 293.3275 L 538.065 290.1627 L 538.8354 289.0781 L 540.5969 287.0784 L 542.0511 285.7382 L 543.6399 284.6431 L 546.039 283.5853 L 548.7607 282.1312 L 549.9457 281.6937 L 551.135 281.4219 L 554.4035 283.3891 L 557.3543 284.734 L 560.6091 286.594 L 562.9988 287.67 L 566.2275 289.5644 L 568.6079 290.6595 L 571.3239 292.1615 L 572.6101 292.6354 L 574.0668 292.9091 L 575.5559 293.0125 L 577.0507 292.9771 L 578.526 292.7914 L 579.9476 292.3979 L 581.0834 291.8571 L 583.2308 290.6241 L 585.6001 289.5261 L 588.3136 288.027 L 589.6084 287.5522 L 591.8563 287.1885 L 595.7469 287.0736 L 616.27 287.0956 L 619.3752 287.2162 L 620.8865 287.4163 L 622.3367 287.8117 L 625.6242 289.5558 L 627.9928 290.6394 L 630.7023 292.1357 L 632.714 292.7761 L 635.7359 293.0728 L 648.1551 293.2605 L 650.2953 293.1437 L 651.607 292.8326 L 652.7514 292.1012 L 653.1671 291.5326 L 653.6209 290.2326 L 653.8147 288.072 L 653.8147 282.5782 L 654.0222 280.2291 L 654.3733 278.7377 L 655.8925 275.2561 L 656.2651 273.8297 L 656.5394 271.5859 L 656.6026 268.5264 L 656.4389 266.2529 L 655.9463 264.0751 L 654.2405 260.6739 L 653.1908 258.2223 L 651.7485 255.4185 L 651.2997 254.1137 L 651.0327 252.6481 L 650.869 250.3746 L 650.9099 243.3779 L 653.4428 244.093 L 656.2098 245.4389 L 658.0916 245.998 L 660.8198 246.1904 L 662.8976 246.065 L 664.5037 245.8391 L 668.5134 246.3656 L 670.4821 246.8547 L 671.6157 247.3956 L 674.6986 249.2517 L 675.6291 249.986 L 676.3212 250.9576 L 678.432 254.6929 L 679.6898 257.7533 L 681.4574 261.142 L 682.4303 263.6817 L 684.7004 268.424 L 684.508 270.328 L 684.2546 271.6759 L 683.8432 272.9165 L 682.5602 275.7969 L 682.0856 277.9374 L 681.8904 280.1822 L 681.8272 282.4662 L 681.8703 285.5152 L 682.049 287.7638 L 682.5171 289.911 L 683.8224 292.7933 L 684.2632 294.0177 L 684.9926 297.348 L 685.3681 298.6528 L 686.9117 302.1238 L 688.171 307.4147 L 689.4231 310.2453 L 689.9975 312.3293 L 688.1244 313.0607 L 686.2089 313.6217 L 684.9567 314.0917 L 683.2222 315.2213 L 681.1236 317.1358 L 674.5249 323.8693 L 673.0645 325.4421 L 671.7672 327.1125 L 671.106 328.357 L 670.882 329.0232 L 670.546 331.1053 L 670.4713 333.2505 L 670.5596 341.2514 L 670.4979 342.6854 L 670.3392 344.0926 L 669.772 346.0541 L 668.3217 348.8512 L 667.5413 350.6557 L 666.8865 351.7757 L 665.6007 353.1561 L 664.5884 353.8731 L 662.2651 354.9711 L 661.2054 355.6469 L 660.2017 356.4587 L 658.7988 357.8371 L 657.9487 358.8356 L 657.2021 359.8981 L 656.5997 361.0641 L 655.8056 362.904 L 654.7072 364.6051 L 652.8958 366.7111 L 648.4732 371.2543 L 646.6402 373.343 L 645.862 374.4659 L 645.2625 375.6903 L 643.9034 379.5749 L 642.7927 379.5749 L 642.3224 378.9469 L 642.4265 378.1112 L 641.6425 377.1348 L 640.4924 377.0649 L 640.1262 376.368 L 639.656 376.0895 L 639.185 375.113 L 638.192 373.9978 L 637.7218 373.9978 L 637.6694 373.1612 L 637.1467 373.0922 L 636.7805 372.3255 L 636.4144 372.0459 L 636.2579 371.349 L 635.7869 371.0006 L 635.6828 370.0941 L 635.369 369.9553 L 634.323 367.1667 L 633.9051 366.5397 L 633.1728 364.7266 L 632.4936 364.0996 L 632.6501 363.5425 L 632.7026 362.4962 L 632.2323 361.9391 L 631.8137 361.1723 L 631.5 360.0571 L 630.7684 359.2903 L 630.4546 358.4536 L 629.8796 357.5471 L 629.7223 357.0598 L 629.0431 356.5017 L 628.8342 355.3166 L 628.4681 354.8284 L 628.3108 354.1315 L 627.3703 352.2495 L 626.4815 351.343 L 625.7492 350.2278 L 625.2789 350.089 L 624.4425 348.834 L 623.1351 348.2759 L 623.031 347.8585 L 622.5083 347.3703 L 621.4098 347.1607 L 621.0961 346.6734 L 620.7307 345.4184 L 620.3645 345.2787 L 620.1556 344.6517 L 619.4233 344.0936 L 619.2668 343.7451 L 619.3716 342.2116 L 618.6917 341.1662 L 618.6917 340.6091 L 617.9077 339.1445 L 615.7639 336.9839 L 614.6661 335.659 L 612.7836 333.0801 L 612.2609 332.8715 L 612.1568 332.523 L 611.3721 331.3379 L 610.6929 330.641 L 610.1179 329.7345 L 609.1242 329.1764 L 607.2949 327.4341 L 607.1376 327.0158 L 605.8309 325.2736 L 603.3734 323.5304 L 603.3734 323.2518 L 602.1191 322.4152 L 601.7006 321.858 L 601.0731 321.858 L 599.8705 321.0214 L 599.1913 320.6729 L 598.5114 320.603 L 597.2047 320.6729 L 596.2635 321.0913 L 596.0546 321.927 L 596.2635 323.74 L 595.1133 324.2273 L 593.9632 324.0186 L 594.0156 323.1819 L 593.7542 323.0422 L 593.9632 322.1366 L 593.859 320.8816 L 592.6041 319.4878 L 592.3424 319.4179 L 591.6108 318.4415 L 590.7736 317.9543 L 590.3554 317.4661 L 589.1015 317.0477 L 588.7354 316.7692 L 588.0555 316.7692 L 587.6373 316.9778 L 587.0622 316.4906 L 586.2782 316.4207 L 586.1217 316.7692 L 584.396 316.7692 L 583.7165 316.1412 L 583.0362 316.2111 L 581.9913 315.4443 L 580.7363 315.5841 L 579.5341 314.1903 L 578.5408 314.0505 L 578.1222 313.4235 L 577.4951 313.5623 L 576.5538 313.5623 L 575.6129 312.5868 L 575.2988 312.5868 L 574.5672 312.0287 L 573.6267 311.6104 L 572.9465 311.0533 L 570.5944 309.8682 L 568.6075 309.0315 L 567.5097 308.8228 L 566.5685 308.3346 L 566.1503 308.3346 L 564.5819 307.5679 L 563.0132 307.498 L 562.2816 307.9163 L 561.3407 307.7765 L 560.2954 307.2893 L 559.824 307.2893 L 559.4062 306.7312 L 558.9356 306.4526 L 558.0471 306.243 L 557.6809 305.6859 L 556.6877 305.2675 L 556.217 304.7094 L 555.7468 304.5706 L 555.1193 305.1278 L 554.5966 305.0579 L 554.3349 305.4762 L 553.7078 305.3374 L 553.2896 304.9191 L 553.3944 304.5008 L 553.8647 304.2911 L 553.9691 303.4554 L 553.3944 302.4091 L 552.5576 301.9908 L 552.1394 301.224 L 551.355 300.9454 L 551.4075 300.2485 L 550.8327 300.597 L 550.048 299.97 L 549.7343 299.4818 L 549.9435 298.6451 L 549.4729 298.2967 L 549.3685 297.8783 L 548.741 297.3212 L 548.532 296.9029 L 547.8005 296.6932 L 547.5908 297.0417 L 547.0681 296.9728 L 546.4406 296.1361 L 545.4477 296.206 L 545.1857 296.6932 L 544.402 296.833 L 544.4541 296.4147 L 543.7745 296.4147 L 543.3563 296.0662 L 542.7288 296.1361 L 542.1537 295.7178 L 540.5333 295.7877 L 539.9582 295.6479 L 538.6512 294.5327 L 538.1285 294.7414 L 537.4483 294.1842 L 536.9259 294.0445 L 536.3527 294.2541 Z" fill="#000000" fill-opacity="1" stroke="#000000" stroke-width="0" paint-order="fill" stroke-opacity="1" stroke-dasharray="" stroke-linecap="butt" stroke-linejoin="miter" stroke-miterlimit="10" transform="matrix(0.949999988079071,0,0,0.949999988079071,19.999996185302734,13.325008392333984)" clip-path="none"/>
<path data-code="202" d="M 190.0938 318.88 L 186.5769 318.8752 L 184.4992 318.7689 L 183.1476 318.5861 L 181.8488 318.2434 L 178.4956 316.6677 L 177.2424 316.2829 L 174.0195 315.5276 L 172.8231 315.0547 L 170.0966 313.5594 L 167.703 312.4921 L 164.4783 310.5871 L 162.0921 309.5111 L 159.92 308.3203 L 158.7763 307.8053 L 156.6705 307.3391 L 150.7987 307.0366 L 148.6538 306.7111 L 147.3866 306.2708 L 144.6279 304.8616 L 141.5443 303.6976 L 139.5451 302.6178 L 139.9274 301.4853 L 141.4793 298.1358 L 141.9521 295.9245 L 142.1477 292.0198 L 142.0598 280.0463 L 142.2052 275.3259 L 142.3961 273.802 L 142.7533 272.3412 L 144.023 269.4569 L 144.4484 268.1521 L 144.7155 266.6741 L 145.1061 262.8814 L 145.3735 261.3919 L 145.8154 260.0689 L 147.2384 257.2402 L 148.3372 254.7896 L 149.5071 253.0263 L 152.1553 249.671 L 152.9012 248.4802 L 154.0162 246.0382 L 155.851 242.7002 L 156.873 240.2247 L 158.2863 237.3969 L 158.8872 235.4029 L 159.5459 230.2125 L 160.2926 226.2963 L 165.6988 229.6114 L 167.3084 230.4499 L 168.5189 230.8769 L 169.9358 231.1507 L 172.1169 231.3364 L 175.0663 231.3909 L 178.0002 231.2856 L 180.1408 230.9793 L 181.497 230.5342 L 183.2575 229.4257 L 186.4836 226.7788 L 187.6865 226.0829 L 189.0442 225.6396 L 191.1883 225.3391 L 193.3896 225.2596 L 196.3472 225.3247 L 198.5352 225.4999 L 199.9485 225.7258 L 201.286 226.1058 L 203.4417 227.132 L 205.1644 227.6729 L 206.4291 227.6844 L 207.6241 227.3972 L 209.7783 226.3949 L 210.9422 225.9508 L 214.1572 225.1888 L 215.4236 224.7886 L 218.2089 223.3929 L 219.4083 222.9229 L 223.2748 221.9369 L 224.4404 221.4535 L 227.1442 220.0731 L 229.0292 219.7122 L 230.2702 219.7802 L 230.865 219.919 L 231.9477 220.4732 L 232.7195 221.3683 L 234.798 225.0011 L 235.8426 227.4183 L 236.4626 228.6369 L 239.3979 232.644 L 240.1317 233.8636 L 240.6475 235.2286 L 240.911 236.6961 L 241.1343 241.8769 L 241.2926 243.2506 L 241.662 244.4922 L 241.9736 245.0282 L 242.7508 245.7797 L 244.6835 247.1352 L 246.5197 248.7406 L 255.1348 257.3694 L 255.2888 280.4454 L 255.1944 282.7094 L 254.8099 284.7953 L 254.2129 285.9823 L 253.8155 286.4159 L 250.8892 288.6416 L 249.3779 290.0842 L 248.4309 291.1401 L 247.2111 292.8661 L 245.6571 295.891 L 242.2755 300.5329 L 241.4387 302.3383 L 240.6946 305.6658 L 240.3158 306.9667 L 238.0798 311.5922 L 235.894 312.5974 L 232.7529 313.6982 L 229.404 315.3419 L 225.0238 316.4877 L 223.6367 317.0142 L 220.9454 318.2644 L 219.4628 318.6406 L 217.1345 318.8895 L 214.7509 318.9575 L 190.0938 318.88 Z" fill="#000000" fill-opacity="1" stroke="#000000" stroke-width="0" paint-order="fill" stroke-opacity="1" stroke-dasharray="" stroke-linecap="butt" stroke-linejoin="miter" stroke-miterlimit="10" transform="matrix(0.949999988079071,0,0,0.949999988079071,19.999996185302734,13.325008392333984)" clip-path="none"/>
<path data-code="203" d="M 239.3653 395.189 L 237.6985 392.1391 L 236.8589 390.9569 L 235.4172 389.3276 L 233.8377 387.8697 L 232.7156 387.0407 L 230.3908 385.8737 L 229.3074 385.2314 L 227.9322 383.9592 L 227.1984 382.932 L 226.119 380.5303 L 224.9897 378.2835 L 224.5093 377.0908 L 224.1281 375.0508 L 223.9116 371.5711 L 223.734 370.207 L 223.3455 368.8936 L 223.053 368.3164 L 222.2988 367.2921 L 221.3751 366.4401 L 220.2888 365.7777 L 218.5385 365.0014 L 215.2808 363.1979 L 212.8512 362.1975 L 209.5942 360.3471 L 207.2034 359.2663 L 205.6138 358.2287 L 202.6135 355.891 L 199.9991 355.0993 L 197.1431 353.9918 L 195.9548 353.4356 L 194.93 352.7042 L 194.0379 351.8092 L 193.2991 350.7801 L 191.072 346.1613 L 190.5831 344.9656 L 190.1358 342.7007 L 190.0019 340.3458 L 190.0938 318.88 L 214.7509 318.9575 L 217.1345 318.8895 L 219.4628 318.6406 L 220.9454 318.2644 L 223.6367 317.0142 L 225.0238 316.4877 L 229.404 315.3419 L 232.7529 313.6982 L 235.894 312.5974 L 238.0798 311.5922 L 240.2588 315.586 L 241.5227 318.7057 L 242.6815 320.9888 L 243.1693 322.1395 L 243.6034 324.1411 L 243.9936 328.3215 L 244.2301 329.6866 L 244.6307 330.9483 L 245.9044 333.8345 L 246.8474 337.7909 L 247.2839 339.0803 L 248.3598 340.8819 L 250.9075 344.2439 L 251.568 345.496 L 251.8107 346.2053 L 252.1064 347.6824 L 252.2421 349.2035 L 252.2827 352.3127 L 252.1283 360.9397 L 252.2802 363.2323 L 252.5731 364.7142 L 253.1396 366.0946 L 253.9491 367.3208 L 254.8925 368.4543 L 258.4273 372.2719 L 259.6995 374.0744 L 260.0233 374.7378 L 260.4387 376.0655 L 260.6939 377.9016 L 259.3722 377.9715 L 258.4309 377.8317 L 257.0718 377.8317 L 255.9737 378.1103 L 255.1373 378.1112 L 254.5094 378.5985 L 253.2555 378.5286 L 251.7913 379.2264 L 251.3206 379.1566 L 249.9095 380.2019 L 249.4392 380.6901 L 247.8705 381.387 L 247.6092 382.2237 L 247.6616 383.0603 L 248.2887 384.4541 L 248.4456 385.4296 L 248.2363 386.1274 L 248.6025 386.7544 L 248.6545 387.3815 L 248.2363 388.5666 L 247.6092 389.0548 L 246.772 390.17 L 246.1449 390.0302 L 245.8315 389.1246 L 246.0408 388.915 L 246.459 387.1728 L 245.8839 387.033 L 245.3609 387.9395 L 244.891 388.288 L 244.9427 388.9849 L 244.5245 389.6119 L 244.4724 390.5184 L 243.897 390.7281 L 243.897 391.2153 L 242.9037 391.2852 L 242.7468 392.3306 L 242.4334 392.679 L 242.4334 393.8641 L 241.8056 394.1436 L 241.8056 394.7008 L 241.3353 394.9793 L 239.9762 395.2589 L 239.3653 395.189 Z" fill="#000000" fill-opacity="1" stroke="#000000" stroke-width="0" paint-order="fill" stroke-opacity="1" stroke-dasharray="" stroke-linecap="butt" stroke-linejoin="miter" stroke-miterlimit="10" transform="matrix(0.949999988079071,0,0,0.949999988079071,19.999996185302734,13.325008392333984)" clip-path="none"/>
<path data-code="204" d="M 643.9034 379.5749 L 645.2625 375.6903 L 645.862 374.4659 L 646.6402 373.343 L 648.4732 371.2543 L 652.8958 366.7111 L 654.7072 364.6051 L 655.8056 362.904 L 656.5997 361.0641 L 657.2021 359.8981 L 657.9487 358.8356 L 658.7988 357.8371 L 660.2017 356.4587 L 661.2054 355.6469 L 662.2651 354.9711 L 664.5884 353.8731 L 665.6007 353.1561 L 666.8865 351.7757 L 667.5413 350.6557 L 668.3217 348.8512 L 669.772 346.0541 L 670.3392 344.0926 L 670.4979 342.6854 L 670.5596 341.2514 L 670.4713 333.2505 L 670.546 331.1053 L 670.882 329.0232 L 671.106 328.357 L 671.7672 327.1125 L 673.0645 325.4421 L 674.5249 323.8693 L 681.1236 317.1358 L 683.2222 315.2213 L 684.9567 314.0917 L 686.2089 313.6217 L 688.1244 313.0607 L 689.9975 312.3293 L 690.3522 314.242 L 690.9545 316.124 L 691.6129 317.243 L 692.4371 318.2376 L 693.3805 319.1116 L 695.9766 321.0175 L 696.719 322.688 L 698.2454 325.4679 L 699.3058 327.8783 L 700.4438 329.3803 L 701.8955 330.5482 L 704.2015 331.6854 L 705.8535 332.8379 L 707.4165 334.2327 L 710.4721 337.1801 L 712.056 338.5242 L 713.1731 339.2641 L 715.5064 340.4119 L 716.536 341.1279 L 717.9252 342.4461 L 720.0001 344.9733 L 719.0237 348.0146 L 718.0602 353.515 L 717.633 354.7528 L 716.3522 357.6332 L 715.9903 359.1113 L 715.7994 360.6534 L 715.663 363.8239 L 715.6364 370.2817 L 715.691 375.1188 L 715.8259 377.4909 L 716.1806 379.7625 L 716.6035 381.0529 L 717.5512 383.269 L 717.8305 384.4886 L 717.8319 385.7857 L 717.5548 387.0091 L 716.4025 389.8148 L 716.0607 391.2163 L 715.8044 393.4448 L 715.5416 398.012 L 715.2092 400.2281 L 714.7871 401.5357 L 713.7281 403.8264 L 713.2851 405.0546 L 712.5384 408.3802 L 712.1608 409.6811 L 710.6509 413.1627 L 710.1921 415.3692 L 709.7111 419.9297 L 709.1267 421.9993 L 707.7375 424.8309 L 706.6914 427.2404 L 706.0445 428.2867 L 705.3043 429.2478 L 704.0931 430.5717 L 702.6629 431.8544 L 701.66 431.7846 L 701.3986 432.2029 L 700.9277 431.9243 L 700.4574 432.0631 L 700.0388 433.0396 L 699.7251 433.388 L 698.366 433.2482 L 696.8497 433.5278 L 696.4842 433.3181 L 695.1768 433.2482 L 694.759 432.761 L 693.9743 432.761 L 693.3475 432.4815 L 692.9813 431.4361 L 692.0925 430.3209 L 690.9423 430.7392 L 690.5245 430.7392 L 689.8446 429.9026 L 689.4784 429.0659 L 688.9033 429.0659 L 688.5372 429.624 L 687.9621 429.5541 L 687.8056 429.2057 L 688.0669 428.6476 L 687.8056 428.369 L 687.0216 428.2991 L 686.7603 427.6721 L 686.0803 427.0451 L 686.0803 426.487 L 685.6618 426.487 L 684.3551 425.86 L 684.0938 425.0932 L 683.6235 424.3265 L 683.1001 424.1168 L 682.996 423.4199 L 682.0548 423.1413 L 681.5321 422.6531 L 680.7998 422.6531 L 680.3295 422.3047 L 679.702 422.1649 L 679.127 422.3746 L 679.127 421.6777 L 678.918 421.2593 L 678.1864 421.3292 L 677.5065 420.6314 L 677.2976 420.0044 L 676.6701 420.0044 L 676.1474 419.4463 L 675.6765 419.5162 L 675.4151 418.4708 L 674.5787 418.5407 L 674.056 418.1922 L 673.7947 417.5643 L 674.2126 416.6587 L 673.7947 416.2404 L 673.272 416.0307 L 672.226 416.3102 L 670.8669 415.5435 L 669.9256 416.1006 L 669.3506 416.0307 L 669.4554 415.195 L 669.3506 414.3584 L 668.619 414.2186 L 667.5212 413.5217 L 667.5212 412.8947 L 667.2075 412.7549 L 666.9978 411.7096 L 666.6848 411.4999 L 666.7365 410.7332 L 666.58 410.3148 L 666.1097 410.3148 L 665.5863 409.5481 L 665.5346 409.0608 L 665.0637 408.9211 L 665.0637 408.5027 L 664.6982 408.1543 L 664.0183 406.6207 L 662.7633 405.854 L 662.2407 405.2959 L 661.9793 404.7387 L 661.4042 404.2505 L 660.6202 403.2751 L 659.4177 403.0654 L 658.6853 402.7868 L 658.7378 402.09 L 658.1627 401.2533 L 656.8036 401.1135 L 655.7582 400.4166 L 655.3397 400.4166 L 654.7646 399.6499 L 653.9282 399.5111 L 653.3007 398.953 L 652.8828 398.953 L 652.3078 398.326 L 651.7327 398.1163 L 651.6278 397.4893 L 651.7327 396.3741 L 651.3141 395.816 L 651.1052 394.8405 L 650.4777 394.4921 L 650.2163 393.7253 L 649.0138 392.052 L 648.2822 391.4949 L 648.2822 391.1455 L 648.8049 390.8669 L 648.9614 390.3787 L 648.8573 388.915 L 648.6476 387.2426 L 648.4387 386.6846 L 647.7071 386.0575 L 648.0725 384.8724 L 647.8636 384.3842 L 647.1844 383.7572 L 646.2432 382.0839 L 645.8246 381.8752 L 645.4592 381.0386 L 644.7269 380.5504 L 643.9034 379.5749 Z" fill="#000000" fill-opacity="1" stroke="#000000" stroke-width="0" paint-order="fill" stroke-opacity="1" stroke-dasharray="" stroke-linecap="butt" stroke-linejoin="miter" stroke-miterlimit="10" transform="matrix(0.949999988079071,0,0,0.949999988079071,19.999996185302734,13.325008392333984)" clip-path="none"/>
<path data-code="205" d="M 551.135 281.4219 L 551.7029 278.1652 L 551.9201 274.7449 L 551.9621 264.3958 L 551.8138 257.3148 L 554.7962 257.8452 L 556.1854 257.9428 L 557.5596 257.9294 L 558.9022 257.7657 L 560.1855 257.3531 L 561.2521 256.662 L 562.5164 255.2653 L 563.1281 254.1377 L 563.8805 252.3284 L 564.9545 250.5957 L 566.7577 248.4275 L 569.2522 245.9003 L 570.3055 244.9804 L 571.4072 244.1648 L 572.5756 243.5244 L 574.359 242.7011 L 575.4223 242.0215 L 578.9242 239.1314 L 579.9591 238.3848 L 581.0841 237.7683 L 582.8636 236.9364 L 584.4926 235.8001 L 587.009 233.4586 L 592.3808 227.895 L 594.8602 225.4635 L 596.8874 223.7816 L 598.9199 222.5151 L 599.7499 221.6823 L 602.2067 217.4722 L 602.6339 216.2038 L 602.8134 214.8272 L 602.789 213.4363 L 602.5693 212.0722 L 602.1299 210.8278 L 600.7155 208.0239 L 600.3407 206.6971 L 600.1268 205.3033 L 599.9818 203.1571 L 599.9983 200.2815 L 600.2395 198.1688 L 600.6351 196.8161 L 601.2805 195.6167 L 602.5341 194.0075 L 610.3139 186.0344 L 612.1769 183.9561 L 613.5741 182.1756 L 615.1342 183.3081 L 616.601 184.541 L 618.4303 186.3273 L 622.4358 190.456 L 624.2817 192.1418 L 625.7757 193.1584 L 627.6876 193.9893 L 628.6813 194.5225 L 629.6749 195.2462 L 630.6248 196.0695 L 633.3631 198.7862 L 638.2789 203.9631 L 639.9754 205.893 L 641.1385 207.4448 L 641.995 209.925 L 643.1165 213.87 L 644.4347 216.7485 L 644.8547 218.0552 L 645.1742 220.2674 L 645.3809 224.824 L 645.6071 227.065 L 645.9388 228.4942 L 647.1701 231.3967 L 647.5829 232.7053 L 647.8414 234.1823 L 648.2585 237.9578 L 648.5715 239.433 L 648.8156 240.1433 L 649.4058 241.2911 L 650.9099 243.3779 L 650.869 250.3746 L 651.0327 252.6481 L 651.2997 254.1137 L 651.7485 255.4185 L 653.1908 258.2223 L 654.2405 260.6739 L 655.9463 264.0751 L 656.4389 266.2529 L 656.6026 268.5264 L 656.5394 271.5859 L 656.2651 273.8297 L 655.8925 275.2561 L 654.3733 278.7377 L 654.0222 280.2291 L 653.8147 282.5782 L 653.8147 288.072 L 653.6209 290.2326 L 653.1671 291.5326 L 652.7514 292.1012 L 651.607 292.8326 L 650.2953 293.1437 L 648.1551 293.2605 L 635.7359 293.0728 L 632.714 292.7761 L 630.7023 292.1357 L 627.9928 290.6394 L 625.6242 289.5558 L 622.3367 287.8117 L 620.8865 287.4163 L 619.3752 287.2162 L 616.27 287.0956 L 595.7469 287.0736 L 591.8563 287.1885 L 589.6084 287.5522 L 588.3136 288.027 L 585.6001 289.5261 L 583.2308 290.6241 L 581.0834 291.8571 L 579.9476 292.3979 L 578.526 292.7914 L 577.0507 292.9771 L 575.5559 293.0125 L 574.0668 292.9091 L 572.6101 292.6354 L 571.3239 292.1615 L 568.6079 290.6595 L 566.2275 289.5644 L 562.9988 287.67 L 560.6091 286.594 L 557.3543 284.734 L 554.4035 283.3891 L 551.135 281.4219 Z" fill="#000000" fill-opacity="1" stroke="#000000" stroke-width="0" paint-order="fill" stroke-opacity="1" stroke-dasharray="" stroke-linecap="butt" stroke-linejoin="miter" stroke-miterlimit="10" transform="matrix(0.949999988079071,0,0,0.949999988079071,19.999996185302734,13.325008392333984)" clip-path="none"/>
<path data-code="206" d="M 526.6983 230.5686 L 524.7659 231.1392 L 523.0253 231.434 L 520.9547 231.5001 L 519.5931 231.3699 L 517.6876 230.8013 L 514.9845 229.305 L 513.255 228.4607 L 512.1838 227.7667 L 511.267 226.9166 L 510.488 225.9441 L 509.0295 223.123 L 507.9102 221.6555 L 506.485 220.4857 L 504.2037 219.313 L 503.0579 218.5539 L 501.4475 217.1659 L 499.9872 215.5892 L 498.7878 213.8278 L 497.7288 211.3619 L 496.3324 208.5207 L 495.7785 206.5736 L 495.2817 201.7021 L 495.0344 200.3475 L 494.6226 199.1031 L 493.3411 196.2246 L 493.0051 194.8126 L 492.762 191.8374 L 492.6723 185.0034 L 492.5147 183.5263 L 492.1783 182.1009 L 491.6779 180.9158 L 490.5166 178.6806 L 489.7233 176.8455 L 489.0491 175.6116 L 487.7022 173.8607 L 483.681 169.4276 L 482.4246 167.6164 L 481.8699 166.3126 L 481.1516 162.989 L 480.7869 161.69 L 479.1123 158.2878 L 478.1028 155.8133 L 476.6483 153.0075 L 476.0355 150.9915 L 475.7856 148.7639 L 475.7074 144.953 L 475.8 141.907 L 476.0642 139.6775 L 476.2275 138.9586 L 476.7 137.6624 L 478.2026 134.8768 L 479.2512 132.4443 L 480.3773 130.2723 L 480.8059 129.1207 L 480.9273 128.4707 L 480.9294 127.1573 L 480.8128 126.5131 L 480.4064 125.371 L 479.4106 123.1482 L 478.9497 121.1571 L 478.7407 119.0406 L 478.436 113.0452 L 480.9524 114.1824 L 484.1118 115.29 L 487.3871 117.1031 L 489.7703 118.1752 L 492.496 119.6427 L 494.4988 120.2621 L 497.4869 120.532 L 504.3843 120.5464 L 507.3922 120.7417 L 509.5288 121.227 L 512.3055 122.5413 L 513.5917 122.9951 L 515.0789 123.2794 L 516.6143 123.4268 L 521.3496 123.5245 L 536.6133 123.4019 L 535.7327 126.1148 L 535.3217 128.3884 L 535.14 131.6268 L 535.2276 134.8452 L 535.4057 136.3691 L 535.7517 137.8108 L 537.3122 141.3374 L 537.6672 142.6297 L 538.1946 145.289 L 538.6088 146.5938 L 539.6721 148.3954 L 541.0312 150.0323 L 549.1186 158.217 L 550.3054 159.7898 L 550.8062 160.9251 L 550.9042 161.533 L 550.7552 162.6291 L 549.7809 165.3563 L 549.5354 166.7147 L 549.3469 168.8791 L 549.2489 174.1144 L 549.3552 187.6177 L 549.2604 190.5556 L 548.9086 192.6874 L 548.6774 193.37 L 547.9993 194.6345 L 546.6679 196.3289 L 541.0309 202.1022 L 539.1764 204.3202 L 538.434 205.5225 L 537.384 207.9904 L 535.8619 210.7722 L 534.8083 213.1922 L 534.1733 214.4118 L 533.3617 215.5701 L 530.6762 218.9081 L 529.923 220.0999 L 528.8421 222.5543 L 527.6737 224.7905 L 527.1747 225.9737 L 526.7805 228.0175 L 526.6983 230.5686 Z" fill="#000000" fill-opacity="1" stroke="#000000" stroke-width="0" paint-order="fill" stroke-opacity="1" stroke-dasharray="" stroke-linecap="butt" stroke-linejoin="miter" stroke-miterlimit="10" transform="matrix(0.949999988079071,0,0,0.949999988079071,19.999996185302734,13.325008392333984)" clip-path="none"/>
<path data-code="207" d="M 175.3266 417.4954 L 176.2175 413.2699 L 176.6663 412.0274 L 177.755 409.7453 L 178.1761 408.4951 L 178.4332 407.1386 L 178.8729 402.9611 L 179.1256 401.6037 L 179.5388 400.3535 L 180.5935 398.0646 L 181.0038 396.8135 L 181.2508 395.4541 L 181.6733 391.2718 L 181.9328 389.9096 L 182.3679 388.6537 L 183.8038 385.8326 L 184.8064 383.3475 L 186.4775 379.9367 L 186.8375 378.6349 L 187.3602 375.9631 L 187.7741 374.6545 L 188.0861 374.0131 L 188.8715 372.8252 L 189.7991 371.7377 L 190.8179 370.7402 L 192.4735 369.4498 L 194.7928 368.2772 L 195.8716 367.6348 L 197.2429 366.3674 L 197.9773 365.3498 L 199.3842 362.4081 L 200.9917 359.6043 L 202.6135 355.891 L 205.6138 358.2287 L 207.2034 359.2663 L 209.5942 360.3471 L 212.8512 362.1975 L 215.2808 363.1979 L 218.5385 365.0014 L 220.2888 365.7777 L 221.3751 366.4401 L 222.2988 367.2921 L 223.053 368.3164 L 223.3455 368.8936 L 223.734 370.207 L 223.9116 371.5711 L 224.1281 375.0508 L 224.5093 377.0908 L 224.9897 378.2835 L 226.119 380.5303 L 227.1984 382.932 L 227.9322 383.9592 L 229.3074 385.2314 L 230.3908 385.8737 L 232.7156 387.0407 L 233.8377 387.8697 L 235.4172 389.3276 L 236.8589 390.9569 L 237.6985 392.1391 L 239.3653 395.189 L 238.6692 395.1191 L 237.2053 394.6309 L 237.1008 394.2116 L 236.2641 394.3523 L 235.4801 394.1436 L 235.5845 393.5157 L 234.4868 393.0973 L 234.5392 392.6101 L 233.7548 392.4703 L 233.389 391.8433 L 232.9708 391.5638 L 232.2909 391.5638 L 231.2972 391.7734 L 230.4612 392.3306 L 229.9385 392.4703 L 227.6382 394.0039 L 227.1676 394.561 L 225.7033 395.5374 L 224.1877 396.9312 L 220.9461 399.0927 L 220.6327 399.1617 L 218.7506 400.1381 L 217.7049 400.9049 L 217.2867 401.6017 L 217.6525 402.2288 L 217.0774 402.7868 L 215.9273 403.1343 L 216.0317 402.4384 L 216.2938 402.2288 L 216.0841 401.6017 L 215.6659 401.6017 L 214.934 401.1834 L 214.5682 401.8114 L 213.7838 402.0201 L 212.9474 402.0201 L 212.4247 401.7415 L 211.4831 401.8114 L 211.1701 401.462 L 210.3333 401.3931 L 209.9151 401.8803 L 209.34 401.8803 L 208.6605 401.1135 L 209.1835 400.6952 L 209.34 399.7896 L 208.7125 399.0927 L 207.9809 399.7197 L 207.7196 399.2315 L 207.249 399.0927 L 206.5694 398.4648 L 205.471 398.3949 L 205.3669 399.0229 L 204.426 399.7197 L 203.4327 399.7197 L 202.8576 400.3468 L 202.2822 400.3468 L 201.9164 400.9049 L 201.9688 401.7415 L 202.4915 402.1598 L 202.1777 402.8558 L 201.3413 402.8558 L 200.6618 403.5536 L 199.9298 403.7623 L 199.6161 404.2505 L 199.7729 405.1571 L 200.5049 405.4356 L 200.5049 406.1325 L 199.0413 406.8285 L 198.9365 407.4574 L 198.4135 408.294 L 197.9429 408.5027 L 197.2637 408.4328 L 196.8979 408.8512 L 196.2176 408.5726 L 195.5384 408.9909 L 195.0678 408.7813 L 194.3883 409.2695 L 193.8132 409.3394 L 193.3946 409.618 L 192.2448 409.3394 L 192.2969 408.9211 L 191.9311 408.6415 L 193.7087 408.0145 L 193.1857 407.6651 L 190.7285 407.6651 L 189.6828 407.9456 L 189.1077 408.7114 L 188.1668 409.1297 L 187.7486 409.618 L 187.8007 410.245 L 189.2125 409.6878 L 189.6828 409.0608 L 190.9381 408.363 L 191.5129 408.363 L 191.408 408.9909 L 190.8857 409.618 L 189.5259 409.8276 L 188.8988 410.176 L 188.585 411.1515 L 188.2192 411.2913 L 188.2192 412.1279 L 187.4873 412.1968 L 187.2256 411.8484 L 186.546 411.6397 L 186.4416 412.5453 L 186.0758 412.7549 L 185.0301 412.8248 L 185.2914 413.2431 L 185.0821 413.5916 L 184.5595 413.7304 L 184.3505 414.0788 L 183.7755 414.0788 L 182.9911 414.7767 L 182.7298 415.195 L 182.2067 415.4037 L 182.2067 415.8919 L 183.6186 415.3338 L 184.1413 414.9155 L 184.6639 415.0553 L 185.6052 415.0553 L 185.971 414.6369 L 187.4873 414.3584 L 187.5917 414.9155 L 187.0167 415.2639 L 186.6505 415.9618 L 186.2323 416.3792 L 185.4483 416.2404 L 185.5528 416.7286 L 185.0821 416.9373 L 184.4026 417.704 L 184.2457 418.4708 L 183.0952 419.1677 L 182.7818 419.5162 L 181.6841 419.8646 L 180.9517 420.4227 L 180.7952 420.9798 L 179.7499 421.0497 L 179.2793 420.9109 L 178.9655 421.2593 L 179.0179 421.8864 L 178.3908 422.096 L 177.8678 422.6522 L 176.5083 422.2348 L 175.6719 421.8165 L 174.8879 421.8165 L 173.8946 421.3292 L 174.5741 420.2829 L 176.1425 418.6795 L 177.554 417.9127 L 178.1291 417.9826 L 178.8083 417.4954 L 177.554 416.7286 L 176.7697 416.7286 L 175.776 417.145 L 175.3266 417.4954 Z M 202.2822 403.4837 L 202.1777 404.1117 L 201.4982 404.9474 L 200.7138 404.8086 L 199.9822 404.3204 L 200.4004 403.8322 L 201.3413 403.5536 L 202.2822 403.4837 Z M 200.7662 405.0872 L 201.08 405.5754 L 201.4982 405.5754 L 201.3413 406.3412 L 200.6618 405.9238 L 200.7662 405.0872 Z M 203.694 407.3176 L 203.5368 407.8058 L 203.1186 408.0844 L 202.7528 408.6415 L 202.0208 409.0608 L 201.6023 408.8512 L 200.8707 409.5481 L 201.1324 409.8965 L 201.0276 410.5245 L 200.4525 411.0117 L 199.1454 411.0816 L 199.5636 411.5698 L 199.5636 412.2667 L 199.1454 412.7549 L 198.4659 413.1723 L 197.7336 413.2431 L 197.9429 413.7304 L 197.3157 414.4282 L 196.7931 414.3584 L 196.6362 413.7304 L 197.002 413.5217 L 197.4202 412.7549 L 196.9499 412.7549 L 196.2704 413.4509 L 195.0678 413.2431 L 194.6496 413.5916 L 194.0745 413.7304 L 193.5515 414.3584 L 192.5061 414.3584 L 192.1924 414.7068 L 191.7742 414.7068 L 191.1467 414.1487 L 190.8326 414.9854 L 190.2579 415.195 L 189.7352 414.4972 L 189.7876 414.0099 L 190.5196 413.6615 L 190.8326 413.8003 L 191.1467 413.3121 L 191.8262 412.8248 L 192.4537 412.6851 L 193.2377 412.2667 L 193.8132 411.5698 L 194.2834 411.4999 L 195.0154 410.6633 L 195.6429 410.3847 L 196.5317 410.3148 L 197.1589 410.1062 L 197.8908 409.618 L 198.9882 409.7577 L 200.2435 409.1996 L 200.4004 408.7124 L 201.0276 408.5027 L 201.8119 407.736 L 202.2301 407.736 L 202.9093 407.3176 L 203.694 407.3176 Z M 189.0032 413.94 L 189.2646 414.4282 L 188.8988 414.9854 L 188.5326 414.4282 L 189.0032 413.94 Z M 173.7377 421.468 L 174.4693 422.4445 L 174.9396 422.6531 L 175.776 423.6985 L 175.2537 424.1168 L 174.8879 424.1168 L 174.208 423.6985 L 173.1626 423.6985 L 172.5872 423.9081 L 172.7441 424.7448 L 172.4827 425.5116 L 171.9077 425.4417 L 171.2805 425.7901 L 171.2281 426.2084 L 170.6534 426.2084 L 170.5486 425.5805 L 171.385 424.3963 L 171.8032 424.1867 L 172.5872 422.723 L 173.7377 421.468 Z" fill="#000000" fill-opacity="1" stroke="#000000" stroke-width="0" paint-order="fill" stroke-opacity="1" stroke-dasharray="" stroke-linecap="butt" stroke-linejoin="miter" stroke-miterlimit="10" transform="matrix(0.949999988079071,0,0,0.949999988079071,19.999996185302734,13.325008392333984)" clip-path="none"/>
<path data-code="208" d="M 139.5451 302.6178 L 141.5443 303.6976 L 144.6279 304.8616 L 147.3866 306.2708 L 148.6538 306.7111 L 150.7987 307.0366 L 156.6705 307.3391 L 158.7763 307.8053 L 159.92 308.3203 L 162.0921 309.5111 L 164.4783 310.5871 L 167.703 312.4921 L 170.0966 313.5594 L 172.8231 315.0547 L 174.0195 315.5276 L 177.2424 316.2829 L 178.4956 316.6677 L 181.8488 318.2434 L 183.1476 318.5861 L 184.4992 318.7689 L 186.5769 318.8752 L 190.0938 318.88 L 190.0019 340.3458 L 190.1358 342.7007 L 190.5831 344.9656 L 191.072 346.1613 L 193.2991 350.7801 L 194.0379 351.8092 L 194.93 352.7042 L 195.9548 353.4356 L 197.1431 353.9918 L 199.9991 355.0993 L 202.6135 355.891 L 200.9917 359.6043 L 199.3842 362.4081 L 197.9773 365.3498 L 197.2429 366.3674 L 195.8716 367.6348 L 194.7928 368.2772 L 192.4735 369.4498 L 190.8179 370.7402 L 189.7991 371.7377 L 188.8715 372.8252 L 188.0861 374.0131 L 187.7741 374.6545 L 187.3602 375.9631 L 186.8375 378.6349 L 186.4775 379.9367 L 184.8064 383.3475 L 183.8038 385.8326 L 182.3679 388.6537 L 181.9328 389.9096 L 181.6733 391.2718 L 181.2508 395.4541 L 181.0038 396.8135 L 180.5935 398.0646 L 179.5388 400.3535 L 179.1256 401.6037 L 178.8729 402.9611 L 178.4332 407.1386 L 178.1761 408.4951 L 177.755 409.7453 L 176.6663 412.0274 L 176.2175 413.2699 L 175.3266 417.4954 L 175.0444 417.9127 L 173.9467 418.0525 L 173.0054 417.7701 L 172.692 416.8664 L 172.1169 416.5888 L 171.8036 417.077 L 170.4962 417.7739 L 169.6073 417.6342 L 169.1371 417.145 L 169.1371 416.7975 L 168.6144 415.9618 L 167.255 416.0298 L 166.8371 416.3102 L 166.4706 417.077 L 165.8435 417.5643 L 165.8435 418.8193 L 165.268 419.3773 L 165.1636 419.7258 L 164.2751 419.9345 L 163.5431 419.9345 L 163.5431 420.7013 L 162.6539 420.2829 L 162.0268 420.7013 L 162.0268 421.0497 L 161.5045 422.0261 L 160.825 422.6522 L 160.8766 423.2802 L 160.1971 424.1867 L 159.7268 422.5134 L 159.3086 422.096 L 158.9945 420.6314 L 159.3086 420.1441 L 158.6815 419.7947 L 158.7856 418.7494 L 157.5306 418.6795 L 156.8511 419.4463 L 156.9035 420.0044 L 155.6492 420.2829 L 154.3939 419.7947 L 154.3422 419.0978 L 154.76 419.0289 L 154.6556 417.8438 L 153.9757 417.145 L 153.1392 417.145 L 152.5638 416.6577 L 152.3028 415.4037 L 151.7802 415.2639 L 151.2571 414.8447 L 150.63 414.7068 L 150.1594 414.3584 L 150.107 413.8702 L 150.63 412.9636 L 150.9958 412.8947 L 151.9367 411.0127 L 152.4597 411.2913 L 152.1987 412.1968 L 152.721 413.1034 L 153.3485 412.8947 L 153.5054 413.3121 L 153.9236 413.3819 L 154.0805 412.4764 L 153.9236 411.6397 L 153.8716 408.9211 L 153.3485 408.7813 L 152.9307 408.2242 L 152.7735 407.5962 L 152.0415 407.5273 L 151.6233 407.1788 L 150.6824 407.2477 L 150.4204 407.5273 L 149.5319 407.3176 L 149.2185 407.0391 L 148.6431 407.0391 L 148.33 407.3875 L 147.7546 407.5263 L 146.9699 407.4574 L 146.2907 408.6415 L 146.2383 409.8965 L 144.7223 409.9664 L 143.729 409.8965 L 142.6837 410.8031 L 141.3763 410.245 L 141.3763 409.4782 L 141.638 408.9909 L 142.8926 408.5726 L 143.3108 407.8757 L 144.3041 407.8058 L 144.4613 407.3875 L 145.4539 407.1788 L 146.6565 405.6453 L 147.5974 405.4356 L 148.5914 405.9238 L 148.9048 406.3412 L 150.107 406.0626 L 150.7872 406.1325 L 150.1594 405.3657 L 149.3754 405.2959 L 148.5386 404.9474 L 147.3364 405.0173 L 146.8133 404.6688 L 146.1862 404.7387 L 145.5591 405.0173 L 144.7223 404.9474 L 144.513 405.5055 L 143.7811 406.1325 L 142.8926 406.0626 L 142.7361 406.2723 L 141.6904 406.481 L 141.3239 406.3412 L 140.6443 406.481 L 139.9127 406.1325 L 139.4945 406.2024 L 138.815 405.5754 L 138.815 404.8785 L 138.6057 404.5281 L 138.083 404.3903 L 134.9987 404.3204 L 133.9006 403.972 L 132.2274 404.0418 L 131.7043 404.2505 L 130.1884 404.2505 L 128.7245 404.4602 L 128.4631 404.1806 L 127.9922 404.4602 L 127.365 404.3903 L 125.3792 404.5281 L 124.6382 404.1806 L 123.1309 403.9021 L 121.144 403.9021 L 120.7257 403.5536 L 120.151 403.4139 L 119.4711 402.9266 L 119.105 402.3685 L 117.8507 401.3931 L 116.8567 401.6017 L 116.5433 402.3685 L 116.021 402.6471 L 116.021 403.0654 L 115.1314 403.4837 L 114.6091 404.1117 L 114.8181 402.6471 L 115.1314 402.2288 L 116.1251 401.6716 L 116.8567 401.5319 L 117.1708 400.9747 L 117.1708 400.2778 L 116.1251 399.58 L 114.9749 399.3713 L 114.243 399.3713 L 113.8772 399.0927 L 112.6225 399.1617 L 112.3084 398.8132 L 111.3159 398.8132 L 110.5836 399.3014 L 110.1129 400.0682 L 109.3289 400.6263 L 109.0152 400.6263 L 108.0219 398.3949 L 107.8122 397.6281 L 107.8122 396.7924 L 107.6037 395.6073 L 107.9174 395.4675 L 108.3877 395.816 L 108.9631 394.2116 L 109.3289 394.2116 L 109.6947 393.6554 L 109.8516 392.2616 L 110.0605 392.052 L 109.9044 391.3551 L 108.4922 391.2852 L 107.6037 392.1219 L 106.7669 392.1219 L 105.9829 390.8669 L 104.9896 390.6582 L 104.6759 391.3551 L 103.6302 391.4949 L 103.003 391.3551 L 101.9573 391.3551 L 101.0161 390.9368 L 100.8596 391.7734 L 101.2778 391.9122 L 101.9049 392.679 L 101.9049 393.5855 L 102.1142 393.6554 L 101.9049 394.9104 L 101.3826 395.5374 L 101.1209 396.444 L 101.0685 397.1409 L 100.441 397.698 L 99.9187 398.3949 L 99.3433 398.4648 L 98.9775 399.0927 L 98.4548 399.3014 L 97.6704 399.1617 L 97.2522 398.5346 L 97.1998 398.0464 L 96.7816 397.5592 L 95.8928 397.07 L 95.2656 396.2334 L 94.0631 395.816 L 93.6452 395.189 L 92.8088 394.9104 L 91.6583 395.0492 L 90.9267 394.9793 L 91.0308 394.4921 L 90.7694 393.7952 L 90.4036 393.6554 L 89.2531 392.052 L 88.8873 391.9821 L 87.9468 390.7281 L 86.4825 389.4032 L 85.4896 388.2181 L 84.7569 387.7299 L 83.3978 386.1274 L 82.5094 385.3607 L 82.248 384.9423 L 81.5157 384.3842 L 80.9934 383.7572 L 81.1499 383.269 L 80.5748 383.269 L 80.2611 382.9206 L 80.0001 381.5268 L 80.9406 382.7808 L 81.4116 382.4324 L 80.9406 382.014 L 80.8886 381.388 L 84.2375 380.1282 L 85.7215 379.348 L 86.6663 378.5075 L 87.4378 377.4928 L 87.7386 376.9223 L 88.117 375.7774 L 88.6443 372.8194 L 88.9487 371.6659 L 90.273 368.8017 L 90.6808 367.5917 L 90.9898 365.6839 L 91.356 361.7916 L 91.6001 360.5453 L 92.014 359.3707 L 93.0511 357.1623 L 93.3322 356.0662 L 93.3663 355.0266 L 93.1915 354.0147 L 92.7478 352.9273 L 91.9645 351.366 L 91.5879 349.775 L 91.6421 348.7134 L 91.9975 347.5713 L 93.0712 345.9172 L 94.9027 343.9107 L 104.2106 334.4653 L 106.2008 332.5795 L 107.7807 331.3628 L 108.8084 330.798 L 110.7113 329.9393 L 112.3336 328.8251 L 114.8374 326.5056 L 123.0512 317.9457 L 126.0149 315.0719 L 127.0556 314.2305 L 128.1533 313.5269 L 130.0595 312.6749 L 131.0697 312.1273 L 132.0996 311.3835 L 133.5664 310.0941 L 135.4313 308.2073 L 137.1831 306.1884 L 138.274 304.6654 L 139.5451 302.6178 Z M 101.9049 400.5564 L 102.0094 401.462 L 101.696 401.8114 L 101.173 401.8803 L 100.7027 401.5319 L 100.7027 401.0446 L 101.2254 400.5564 L 101.9049 400.5564 Z M 100.2845 402.1598 L 99.6574 402.5083 L 98.925 403.2751 L 98.0886 403.6235 L 97.6704 404.1806 L 96.8861 404.3903 L 96.6771 404.0418 L 96.8861 403.2052 L 97.2518 403.2052 L 97.7228 402.7868 L 98.141 402.7868 L 98.8726 402.1598 L 99.9707 401.9502 L 100.2845 402.1598 Z M 114.1909 405.5754 L 114.243 405.9937 L 113.8248 406.2024 L 113.7203 406.9692 L 113.3021 406.7605 L 113.459 405.7142 L 114.1909 405.5754 Z M 134.7366 409.9664 L 135.3645 410.7332 L 134.8931 411.0816 L 134.2664 410.5944 L 134.7366 409.9664 Z M 149.4798 416.1006 L 149.5319 416.5189 L 149.1137 416.7975 L 148.9568 416.2404 L 149.4798 416.1006 Z M 149.0616 418.4009 L 149.5319 419.0289 L 148.6431 419.1677 L 148.4865 418.8193 L 149.0616 418.4009 Z M 156.2239 422.6522 L 156.276 423.2112 L 155.8057 424.2566 L 155.3348 424.2566 L 154.7073 423.2802 L 156.2239 422.6522 Z" fill="#000000" fill-opacity="1" stroke="#000000" stroke-width="0" paint-order="fill" stroke-opacity="1" stroke-dasharray="" stroke-linecap="butt" stroke-linejoin="miter" stroke-miterlimit="10" transform="matrix(0.949999988079071,0,0,0.949999988079071,19.999996185302734,13.325008392333984)" clip-path="none"/>
<path data-code="209" d="M 313.1157 374.9044 L 312.9625 374.7847 L 311.5955 374.5798 L 309.6114 374.1261 L 308.3115 373.5412 L 307.082 372.6883 L 304.2827 370.0826 L 297.2938 362.7757 L 296.3375 361.5925 L 295.5208 360.3184 L 295.1988 359.6282 L 294.7864 358.1559 L 294.5925 356.6319 L 294.5053 354.2952 L 294.6952 333.5779 L 294.6097 328.8385 L 294.3516 326.5429 L 293.979 325.0917 L 292.6684 322.2371 L 292.229 320.9276 L 291.9723 319.4352 L 291.8772 317.1348 L 291.9781 315.6042 L 292.2387 314.1118 L 292.6813 312.8013 L 293.9912 309.9428 L 294.348 308.5414 L 294.6345 305.5739 L 294.814 298.7504 L 295.1335 296.5602 L 295.5556 295.2621 L 296.8663 292.397 L 297.5422 289.7712 L 299.5428 288.1898 L 300.6542 287.5762 L 301.3316 287.3311 L 303.4639 286.953 L 309.326 286.683 L 310.7483 286.4437 L 312.0205 286.0053 L 314.7573 284.5464 L 317.6923 283.143 L 322.9873 279.3886 L 324.9835 275.5509 L 325.1146 275.1804 L 325.8724 274.7219 L 325.8196 275.503 L 326.395 277.3152 L 327.3359 278.5701 L 327.8062 279.7552 L 327.8582 280.4521 L 327.179 284.5646 L 327.2314 287.5618 L 326.4999 288.677 L 325.9244 289.932 L 325.4542 290.6988 L 324.1468 293.8358 L 324.0943 294.8112 L 324.356 295.3693 L 325.2445 295.2994 L 324.8263 296.2749 L 324.4601 297.46 L 324.4601 298.2967 L 324.7742 298.715 L 324.7742 299.4119 L 324.565 300.2485 L 324.5129 301.6423 L 324.7218 302.479 L 325.1404 303.4554 L 326.0292 304.6405 L 326.4999 305.4762 L 327.0222 306.1042 L 327.3359 305.7557 L 328.3816 306.1741 L 327.963 306.8011 L 328.5905 307.3582 L 329.6883 307.3582 L 330.3161 306.6613 L 330.7864 306.6613 L 331.0477 307.3582 L 331.0477 309.0315 L 330.5254 309.9381 L 329.95 310.2166 L 330.4723 311.1921 L 330.3161 311.9589 L 329.8452 312.5868 L 329.5314 313.4235 L 328.7474 314.4688 L 328.4861 315.0959 L 327.963 315.8626 L 327.4931 316.2111 L 326.395 317.6747 L 325.7151 319.0695 L 325.3497 319.4179 L 325.1404 320.045 L 324.7218 320.5332 L 324.6174 321.4397 L 325.1925 322.2754 L 324.6694 322.3453 L 324.7218 322.8335 L 325.0873 323.0422 L 326.1333 322.9733 L 325.5586 323.6701 L 324.7742 323.6003 L 324.2512 323.74 L 324.2512 324.1584 L 323.5717 324.5068 L 324.0423 325.9006 L 323.5717 326.3189 L 323.3624 325.622 L 322.6312 325.3425 L 322.4215 325.6919 L 321.6375 325.8307 L 321.9509 327.9922 L 322.1605 328.2708 L 322.1078 328.8978 L 321.2717 329.1075 L 321.01 329.9432 L 320.6963 330.0829 L 320.5394 330.8497 L 320.0688 331.1283 L 319.5465 332.3832 L 318.919 333.15 L 318.3439 335.032 L 317.8212 335.8687 L 318.135 336.5656 L 317.7168 336.8441 L 317.5071 336.4258 L 316.9844 336.7053 L 317.2982 337.7507 L 317.9253 338.0991 L 316.6707 338.2389 L 316.9844 339.0057 L 316.4094 339.2143 L 315.2071 339.2842 L 315.0503 340.1209 L 315.3637 340.1908 L 316.0436 340.9575 L 315.7298 341.306 L 316.096 341.8631 L 316.9844 342.0728 L 316.88 342.9094 L 316.2525 342.8395 L 315.9915 343.188 L 316.1484 343.6063 L 315.9387 345.2097 L 315.6778 345.8368 L 315.5729 346.6035 L 314.4231 347.4402 L 314.109 347.0219 L 313.7432 347.0917 L 313.4295 347.6489 L 311.9656 346.6734 L 311.5994 346.6734 L 311.286 347.7188 L 310.9723 347.3004 L 310.2931 347.9973 L 310.5544 348.6253 L 311.4429 348.834 L 311.495 349.6008 L 311.7042 349.8793 L 311.8611 350.9945 L 310.7634 351.2042 L 310.6065 351.6225 L 310.6585 352.3893 L 310.1879 353.5045 L 310.0838 354.3412 L 309.6656 355.3865 L 309.8749 356.2232 L 309.6128 356.4319 L 309.456 357.1986 L 309.979 357.9654 L 310.9202 358.3139 L 311.4429 358.8021 L 311.5474 359.3602 L 311.0767 360.2657 L 311.1292 360.8238 L 311.4429 361.381 L 312.2269 362.1477 L 312.4882 362.9145 L 312.8016 363.3328 L 313.2726 364.6577 L 313.8477 365.2847 L 313.8477 364.2394 L 314.1618 363.9608 L 314.8938 364.0996 L 315.0503 365.2847 L 315.4161 365.9816 L 315.4161 366.5397 L 314.7889 366.6785 L 314.3704 367.0968 L 314.4748 368.0733 L 315.2071 367.585 L 315.6778 368.1431 L 315.6246 369.3972 L 315.8343 369.6068 L 315.887 370.4435 L 316.7231 370.5124 L 317.5595 371.2102 L 318.5008 371.0705 L 319.0234 371.349 L 319.4416 371.8373 L 319.3896 373.0224 L 318.6576 373.3708 L 318.5008 373.7891 L 317.3499 374.3463 L 316.2001 374.1376 L 315.8343 373.7193 L 315.4161 373.6494 L 315.4161 374.9044 L 315.2071 375.741 L 314.109 375.9497 L 313.7432 375.6711 L 313.4295 375.0441 L 313.1157 374.9044 Z M 323.8854 341.2361 L 324.0943 341.8631 L 323.5193 341.7932 L 322.997 342.4212 L 322.6828 342.1426 L 323.3103 341.306 L 323.8854 341.2361 Z" fill="#000000" fill-opacity="1" stroke="#000000" stroke-width="0" paint-order="fill" stroke-opacity="1" stroke-dasharray="" stroke-linecap="butt" stroke-linejoin="miter" stroke-miterlimit="10" transform="matrix(0.949999988079071,0,0,0.949999988079071,19.999996185302734,13.325008392333984)" clip-path="none"/>
<path data-code="210" d="M 303.3056 149.8552 L 303.381 153.937 L 303.3164 163.3891 L 303.5486 165.4702 L 303.9586 166.7855 L 304.6223 167.8835 L 305.9592 169.1969 L 307.0368 169.8421 L 309.3519 170.9851 L 310.4841 171.7969 L 311.5818 172.7197 L 313.7174 174.7252 L 316.3196 177.3395 L 317.8119 178.9458 L 318.728 180.0639 L 319.5142 181.2681 L 319.8257 181.9229 L 320.2174 183.2793 L 320.4001 184.6789 L 320.4482 186.0956 L 320.3893 187.5134 L 320.2088 188.9119 L 319.6021 190.8648 L 318.1059 193.6524 L 317.3003 195.4855 L 316.6445 196.6812 L 315.3741 198.3286 L 311.0699 202.9772 L 310.2461 204.0953 L 309.5974 205.3244 L 309.3752 205.9887 L 309.1092 207.3624 L 308.9922 208.7696 L 308.8561 213.7599 L 308.6985 215.1565 L 308.3726 216.5025 L 307.8664 217.6818 L 306.7026 219.9209 L 305.695 222.4012 L 303.8663 225.7373 L 302.7991 228.1965 L 302.0689 229.3787 L 300.7418 231.0348 L 298.7749 233.1399 L 292.1669 239.8705 L 290.773 241.4883 L 289.6128 243.2286 L 288.5473 245.6878 L 287.3767 247.9269 L 286.8591 249.1043 L 286.5004 250.4416 L 285.9293 254.2717 L 283.3856 254.5158 L 278.8557 254.7599 L 276.6594 255.0385 L 275.2648 255.407 L 271.8944 256.9185 L 270.4674 257.2928 L 268.9784 257.4996 L 266.686 257.6336 L 262.7997 257.6576 L 255.1348 257.3694 L 246.5197 248.7406 L 244.6835 247.1352 L 242.7508 245.7797 L 241.9736 245.0282 L 241.662 244.4922 L 241.2926 243.2506 L 241.1343 241.8769 L 240.911 236.6961 L 240.6475 235.2286 L 240.1317 233.8636 L 239.3979 232.644 L 236.4626 228.6369 L 235.8426 227.4183 L 234.798 225.0011 L 232.7195 221.3683 L 231.9477 220.4732 L 230.865 219.919 L 230.2702 219.7802 L 229.0292 219.7122 L 227.1442 220.0731 L 224.4404 221.4535 L 223.2748 221.9369 L 219.4083 222.9229 L 218.2089 223.3929 L 215.4236 224.7886 L 214.1572 225.1888 L 210.9422 225.9508 L 209.7783 226.3949 L 207.6241 227.3972 L 206.4291 227.6844 L 205.1644 227.6729 L 203.4417 227.132 L 201.286 226.1058 L 199.9485 225.7258 L 198.5352 225.4999 L 196.3472 225.3247 L 193.3896 225.2596 L 191.1883 225.3391 L 189.0442 225.6396 L 187.6865 226.0829 L 186.4836 226.7788 L 183.2575 229.4257 L 181.497 230.5342 L 180.1408 230.9793 L 178.0002 231.2856 L 175.0663 231.3909 L 172.1169 231.3364 L 169.9358 231.1507 L 168.5189 230.8769 L 167.3084 230.4499 L 165.6988 229.6114 L 160.2926 226.2963 L 167.825 225.1926 L 169.0387 224.8518 L 170.2567 224.2391 L 173.0808 222.1781 L 174.0328 221.3022 L 174.8793 220.3316 L 175.5861 219.2728 L 176.7266 216.8777 L 177.4438 215.728 L 178.7394 214.093 L 182.5366 209.903 L 183.7895 208.2402 L 186.6731 202.3932 L 187.1071 201.0865 L 187.4094 198.8867 L 187.5153 192.0508 L 187.7662 189.0747 L 188.1076 187.6637 L 189.4082 184.7918 L 189.8264 183.5483 L 190.0784 182.1938 L 190.4887 178.0124 L 190.7378 176.6493 L 191.1639 175.3876 L 192.5919 172.5617 L 193.9216 169.5339 L 194.9662 167.8807 L 196.6513 165.4702 L 197.837 164.6441 L 198.8274 163.817 L 203.148 159.8147 L 204.711 158.7358 L 207.105 157.6618 L 210.348 155.7893 L 212.7665 154.7765 L 216.0095 152.8965 L 218.4232 151.8741 L 221.6705 149.9988 L 224.6432 148.7132 L 228.6939 146.3066 L 230.5768 146.2549 L 232.5232 145.8662 L 233.6586 145.3646 L 235.8275 144.1824 L 238.228 143.1418 L 241.5252 141.3699 L 242.8003 140.9736 L 245.385 140.427 L 246.6496 140.0556 L 249.4418 138.7164 L 250.6415 138.2722 L 253.8758 137.5562 L 255.1351 137.1656 L 258.4341 135.4147 L 260.8526 134.3799 L 263.5783 132.8799 L 264.7751 132.4156 L 266.7143 131.982 L 269.2548 131.2851 L 272.6041 129.6768 L 273.9743 129.3026 L 275.403 129.092 L 279.0761 128.8881 L 282.7437 128.9216 L 284.8739 129.1915 L 286.2229 129.6472 L 286.7829 129.9631 L 287.7737 130.7605 L 288.594 131.7254 L 289.2333 132.8531 L 291.5225 138.1056 L 292.4875 142.7302 L 293.0213 143.9287 L 293.773 144.9473 L 294.6912 145.8021 L 295.7725 146.4741 L 297.5196 147.2706 L 300.8355 149.053 L 303.3056 149.8552 Z" fill="#000000" fill-opacity="1" stroke="#000000" stroke-width="0" paint-order="fill" stroke-opacity="1" stroke-dasharray="" stroke-linecap="butt" stroke-linejoin="miter" stroke-miterlimit="10" transform="matrix(0.949999988079071,0,0,0.949999988079071,19.999996185302734,13.325008392333984)" clip-path="none"/>
<path data-code="211" d="M 313.1157 374.9044 L 312.07 375.6711 L 312.2269 376.0895 L 311.8087 377.4134 L 310.5541 377.7618 L 309.7697 377.6929 L 309.5608 378.0413 L 308.8809 378.3199 L 307.6783 377.9715 L 307.208 379.2264 L 307.208 380.2718 L 307.3649 380.9687 L 307.8355 381.8752 L 308.3582 382.2935 L 309.6125 382.0839 L 310.3448 381.2472 L 311.0767 381.2472 L 311.7042 381.8053 L 311.7042 382.5022 L 311.495 383.3389 L 310.9723 384.7327 L 311.4429 385.9178 L 311.495 386.8942 L 310.3448 387.7998 L 309.8749 388.4967 L 309.456 388.7762 L 308.1496 388.9849 L 308.0445 389.3333 L 307.2601 389.9613 L 306.7898 390.5184 L 306.3716 391.425 L 306.4761 392.6101 L 305.9534 392.3306 L 305.6397 392.4703 L 304.646 392.2616 L 304.5419 392.9585 L 304.7508 394.0039 L 304.1758 393.6554 L 303.3393 394.1436 L 302.8687 395.3278 L 302.0844 395.6772 L 301.6141 396.444 L 301.5096 397.0011 L 301.8234 397.7679 L 301.5617 398.1862 L 301.6141 398.7443 L 301.1435 398.953 L 300.5163 399.6499 L 299.4706 399.8595 L 299.1048 400.0682 L 299.0524 401.0446 L 298.8432 401.6017 L 298.0591 401.5319 L 297.7454 402.9955 L 296.3863 403.7623 L 296.0722 404.3903 L 295.4454 404.2505 L 295.4454 402.09 L 295.7064 401.2533 L 295.8636 400.208 L 295.6019 398.326 L 296.0202 397.6281 L 296.2819 396.7924 L 296.1246 396.1644 L 295.4454 396.2343 L 294.8176 395.7461 L 294.7131 394.6309 L 295.0793 393.6554 L 295.7588 392.8188 L 296.5952 392.8188 L 296.6993 392.052 L 297.5889 390.4486 L 297.5889 389.8215 L 297.1176 389.0548 L 296.9086 388.3579 L 296.5428 387.7998 L 295.9677 387.7998 L 295.4975 388.288 L 294.0336 388.288 L 294.0336 387.7998 L 293.6154 386.8942 L 292.6741 387.1728 L 292.6221 388.1482 L 291.2626 387.9395 L 290.8968 388.6364 L 289.6426 388.5666 L 289.4853 389.4731 L 288.8054 389.0548 L 288.8054 388.6364 L 287.708 388.0094 L 287.0278 387.3116 L 286.7668 387.2426 L 286.2438 386.5448 L 285.1984 385.8479 L 283.7345 384.3144 L 283.3163 384.1755 L 282.4275 383.1292 L 282.0093 382.9904 L 281.2773 382.2935 L 280.8591 382.2935 L 280.5981 381.8752 L 279.6565 381.5268 L 278.245 380.4805 L 277.6699 380.2718 L 276.3105 379.2954 L 275.422 378.8081 L 274.7949 378.877 L 273.9581 378.6684 L 272.6514 377.9715 L 272.1284 377.9715 L 271.553 377.6929 L 270.6121 377.9715 L 269.6192 377.9715 L 269.3051 377.7618 L 268.2597 377.623 L 266.1683 377.6929 L 265.5412 377.5531 L 263.5542 377.623 L 261.3063 378.0413 L 260.6939 377.9016 L 260.4387 376.0655 L 260.0233 374.7378 L 259.6995 374.0744 L 258.4273 372.2719 L 254.8925 368.4543 L 253.9491 367.3208 L 253.1396 366.0946 L 252.5731 364.7142 L 252.2802 363.2323 L 252.1283 360.9397 L 252.2827 352.3127 L 252.2421 349.2035 L 252.1064 347.6824 L 251.8107 346.2053 L 251.568 345.496 L 250.9075 344.2439 L 248.3598 340.8819 L 247.2839 339.0803 L 246.8474 337.7909 L 245.9044 333.8345 L 244.6307 330.9483 L 244.2301 329.6866 L 243.9936 328.3215 L 243.6034 324.1411 L 243.1693 322.1395 L 242.6815 320.9888 L 241.5227 318.7057 L 240.2588 315.586 L 238.0798 311.5922 L 240.3158 306.9667 L 240.6946 305.6658 L 241.4387 302.3383 L 242.2755 300.5329 L 245.6571 295.891 L 247.2111 292.8661 L 248.4309 291.1401 L 249.3779 290.0842 L 250.8892 288.6416 L 253.8155 286.4159 L 254.2129 285.9823 L 254.8099 284.7953 L 255.1944 282.7094 L 255.2888 280.4454 L 255.1348 257.3694 L 262.7997 257.6576 L 266.686 257.6336 L 268.9784 257.4996 L 270.4674 257.2928 L 271.8944 256.9185 L 275.2648 255.407 L 276.6594 255.0385 L 278.8557 254.7599 L 283.3856 254.5158 L 285.9293 254.2717 L 286.1939 257.7198 L 286.2775 260.9898 L 286.1504 279.7926 L 286.3694 282.1637 L 286.7772 283.6906 L 287.511 285.0987 L 288.4615 286.3499 L 290.1502 287.9753 L 291.4396 288.8417 L 292.1439 289.1729 L 293.4567 289.5395 L 294.8039 289.7051 L 297.5422 289.7712 L 296.8663 292.397 L 295.5556 295.2621 L 295.1335 296.5602 L 294.814 298.7504 L 294.6345 305.5739 L 294.348 308.5414 L 293.9912 309.9428 L 292.6813 312.8013 L 292.2387 314.1118 L 291.9781 315.6042 L 291.8772 317.1348 L 291.9723 319.4352 L 292.229 320.9276 L 292.6684 322.2371 L 293.979 325.0917 L 294.3516 326.5429 L 294.6097 328.8385 L 294.6952 333.5779 L 294.5053 354.2952 L 294.5925 356.6319 L 294.7864 358.1559 L 295.1988 359.6282 L 295.5208 360.3184 L 296.3375 361.5925 L 297.2938 362.7757 L 304.2827 370.0826 L 307.082 372.6883 L 308.3115 373.5412 L 309.6114 374.1261 L 311.5955 374.5798 L 312.9625 374.7847 L 313.1157 374.9044 Z M 308.7244 396.5129 L 309.1946 396.9312 L 309.2994 397.6281 L 309.6125 398.1862 L 310.24 398.6744 L 309.979 399.1617 L 309.3515 398.6744 L 308.9333 397.8377 L 308.2537 397.6281 L 308.0969 396.8613 L 308.7244 396.5129 Z M 296.0202 405.9937 L 296.0202 406.7605 L 295.5495 407.5273 L 294.87 407.3176 L 294.9741 406.7605 L 295.3406 406.1325 L 296.0202 405.9937 Z M 296.4384 408.7124 L 296.4904 409.4791 L 296.2294 411.0117 L 296.6476 411.8484 L 296.4904 412.8947 L 295.8636 412.6152 L 295.4975 410.6633 L 295.8636 410.3148 L 295.8112 409.2695 L 295.6019 408.7124 L 296.4384 408.7124 Z" fill="#000000" fill-opacity="1" stroke="#000000" stroke-width="0" paint-order="fill" stroke-opacity="1" stroke-dasharray="" stroke-linecap="butt" stroke-linejoin="miter" stroke-miterlimit="10" transform="matrix(0.949999988079071,0,0,0.949999988079071,19.999996185302734,13.325008392333984)" clip-path="none"/>
<path data-code="212" d="M 441.7402 248.8056 L 441.7359 248.7348 L 441.5844 246.176 L 441.2578 244.1169 L 440.8503 242.8667 L 439.5896 239.9844 L 439.2342 238.5456 L 439.0396 237.0446 L 438.8903 233.9516 L 438.858 228.4454 L 438.9108 224.5311 L 439.0745 222.2317 L 439.3365 220.7461 L 439.7827 219.425 L 441.2226 216.6106 L 442.3397 214.1744 L 443.5189 212.4197 L 446.1879 209.0874 L 446.9432 207.9004 L 448.0604 205.4642 L 449.4999 202.6498 L 449.9497 201.3115 L 450.2871 199.0093 L 450.398 195.8349 L 450.4278 184.5362 L 450.3514 182.1555 L 450.0387 179.8475 L 449.5964 178.5064 L 447.2326 174.236 L 446.8449 173.7688 L 445.9051 173.025 L 442.2654 170.9152 L 440.9756 170.4605 L 438.7643 170.1484 L 435.7133 170.1054 L 429.5716 170.2691 L 428.0772 170.2298 L 426.6172 170.0575 L 425.2125 169.621 L 424.1277 168.9327 L 423.2292 168.0175 L 422.5489 166.9014 L 422.2879 166.1844 L 422.0155 164.6987 L 421.9555 163.1785 L 422.0395 161.6488 L 422.2617 160.1363 L 422.6649 158.6822 L 424.2695 155.2408 L 424.6687 153.7609 L 424.8913 152.2082 L 425.037 149.8179 L 424.976 145.0018 L 424.8281 143.429 L 424.5488 141.9051 L 424.1062 140.5783 L 422.8314 137.6892 L 422.5001 136.3414 L 422.2503 133.998 L 422.0844 127.5306 L 421.8507 125.1585 L 421.4993 123.6499 L 420.3218 120.8651 L 419.8512 119.3996 L 419.5877 117.8363 L 419.3644 114.6036 L 421.9178 113.9278 L 424.7103 112.6039 L 425.9847 112.1664 L 427.4231 111.8936 L 431.1019 111.4954 L 432.5425 111.2254 L 433.8226 110.7937 L 436.6345 109.5014 L 440.491 108.5805 L 441.7513 108.1774 L 443.3876 107.3063 L 446.3829 105.3765 L 447.1723 104.5628 L 448.4631 102.6511 L 449.2741 101.779 L 450.239 101.0266 L 451.4538 100.4494 L 452.8703 100.1239 L 454.3432 99.9822 L 464.2743 99.9707 L 466.5305 99.8348 L 468.773 99.473 L 470.7334 100.9271 L 472.1743 102.1332 L 473.5636 103.5232 L 474.7834 105.029 L 475.4425 106.1155 L 476.4541 108.5881 L 477.8695 111.346 L 478.436 113.0452 L 478.7407 119.0406 L 478.9497 121.1571 L 479.4106 123.1482 L 480.4064 125.371 L 480.8128 126.5131 L 480.9294 127.1573 L 480.9273 128.4707 L 480.8059 129.1207 L 480.3773 130.2723 L 479.2512 132.4443 L 478.2026 134.8768 L 476.7 137.6624 L 476.2275 138.9586 L 476.0642 139.6775 L 475.8 141.907 L 475.7074 144.953 L 475.7856 148.7639 L 476.0355 150.9915 L 476.6483 153.0075 L 478.1028 155.8133 L 479.1123 158.2878 L 480.7869 161.69 L 481.1516 162.989 L 481.8699 166.3126 L 482.4246 167.6164 L 483.681 169.4276 L 487.7022 173.8607 L 489.0491 175.6116 L 489.7233 176.8455 L 490.5166 178.6806 L 491.6779 180.9158 L 492.1783 182.1009 L 492.5147 183.5263 L 492.6723 185.0034 L 492.762 191.8374 L 493.0051 194.8126 L 493.3411 196.2246 L 494.6226 199.1031 L 495.0344 200.3475 L 495.2817 201.7021 L 495.7785 206.5736 L 496.3324 208.5207 L 497.7288 211.3619 L 498.7878 213.8278 L 499.9872 215.5892 L 501.4475 217.1659 L 503.0579 218.5539 L 504.2037 219.313 L 506.485 220.4857 L 507.9102 221.6555 L 509.0295 223.123 L 510.488 225.9441 L 511.267 226.9166 L 512.1838 227.7667 L 513.255 228.4607 L 514.9845 229.305 L 517.6876 230.8013 L 519.5931 231.3699 L 520.9547 231.5001 L 523.0253 231.434 L 524.7659 231.1392 L 526.6983 230.5686 L 529.232 231.8925 L 531.9236 233.5994 L 534.8098 234.9798 L 536.2723 236.1562 L 537.3987 237.6754 L 538.6871 240.6698 L 540.1758 243.4641 L 541.1759 245.9568 L 542.269 247.6675 L 544.0753 249.7706 L 547.006 252.808 L 549.5171 255.2787 L 551.8138 257.3148 L 551.9621 264.3958 L 551.9201 274.7449 L 551.7029 278.1652 L 551.135 281.4219 L 549.9457 281.6937 L 548.7607 282.1312 L 546.039 283.5853 L 543.6399 284.6431 L 542.0511 285.7382 L 540.5969 287.0784 L 538.8354 289.0781 L 538.065 290.1627 L 536.2313 293.3275 L 536.3527 294.2541 L 535.9327 295.0908 L 535.0959 295.3693 L 534.4163 295.2994 L 534.8342 294.4628 L 534.2074 293.8358 L 533.2141 293.8358 L 532.5342 293.2777 L 531.1227 291.6053 L 530.7045 290.9075 L 529.4499 290.1407 L 528.8748 289.4438 L 527.7243 288.3985 L 527.0968 287.9801 L 525.8429 287.423 L 524.5879 286.7251 L 523.124 285.7497 L 522.7058 285.6099 L 521.085 284.4248 L 520.4579 283.4494 L 520.0393 283.1009 L 519.046 282.6826 L 518.9415 282.2643 L 518.0007 281.149 L 517.5825 281.0093 L 517.1118 280.4521 L 516.4323 280.2425 L 516.0141 279.8242 L 514.8115 279.0574 L 513.2952 278.2906 L 512.9818 278.012 L 512.2495 277.8034 L 511.9361 277.385 L 511.1517 277.2453 L 510.054 276.4086 L 509.2176 276.1999 L 508.2246 275.4332 L 507.3351 275.3633 L 507.0741 274.8751 L 505.7147 274.1083 L 505.5057 274.1083 L 504.3556 273.4114 L 503.5192 273.3415 L 501.4278 272.0176 L 500.382 271.8778 L 499.3888 271.2508 L 498.6572 270.9723 L 496.252 269.8561 L 493.2721 268.8107 L 492.5402 268.4623 L 491.7562 268.3225 L 491.5993 268.1138 L 490.2399 267.6955 L 490.0826 267.417 L 489.0897 267.417 L 488.4626 267.0685 L 486.3191 267.417 L 485.4823 266.9986 L 485.1165 266.3716 L 484.5942 265.9533 L 482.9731 264.907 L 482.3452 264.7682 L 481.4568 264.8381 L 481.3523 265.1865 L 480.5683 265.1166 L 480.2549 264.4197 L 480.7252 264.28 L 481.2999 263.7918 L 481.5088 263.2346 L 481.5088 262.6067 L 481.2999 261.8399 L 480.7772 261.0042 L 479.7315 260.3063 L 478.0587 258.9824 L 477.4836 258.3554 L 477.0654 257.5886 L 476.229 257.0305 L 476.1245 256.752 L 475.4446 256.3336 L 474.3469 255.9852 L 472.8309 255.0088 L 471.8897 254.8001 L 471.1056 254.242 L 470.1124 254.0333 L 468.7005 253.4053 L 467.3935 252.988 L 466.7663 252.988 L 465.6682 252.6386 L 465.25 252.36 L 464.727 252.4299 L 463.5772 252.0125 L 461.2765 251.8718 L 460.388 251.4544 L 459.2903 251.5233 L 457.9308 251.9417 L 457.7219 251.3845 L 456.7282 250.9662 L 455.474 250.8265 L 454.4803 250.8265 L 453.5919 250.6178 L 452.9123 250.6178 L 450.9778 250.3392 L 449.9845 250.5479 L 449.1998 250.8963 L 448.9388 250.478 L 447.9979 250.0597 L 447.3704 249.6413 L 445.7496 249.3628 L 445.1749 249.1541 L 443.188 248.8746 L 441.7402 248.8056 Z" fill="#000000" fill-opacity="1" stroke="#000000" stroke-width="0" paint-order="fill" stroke-opacity="1" stroke-dasharray="" stroke-linecap="butt" stroke-linejoin="miter" stroke-miterlimit="10" transform="matrix(0.949999988079071,0,0,0.949999988079071,19.999996185302734,13.325008392333984)" clip-path="none"/>
<path data-code="213" d="M 325.8724 274.7219 L 325.1146 275.1804 L 324.9835 275.5509 L 322.9873 279.3886 L 317.6923 283.143 L 314.7573 284.5464 L 312.0205 286.0053 L 310.7483 286.4437 L 309.326 286.683 L 303.4639 286.953 L 301.3316 287.3311 L 300.6542 287.5762 L 299.5428 288.1898 L 297.5422 289.7712 L 294.8039 289.7051 L 293.4567 289.5395 L 292.1439 289.1729 L 291.4396 288.8417 L 290.1502 287.9753 L 288.4615 286.3499 L 287.511 285.0987 L 286.7772 283.6906 L 286.3694 282.1637 L 286.1504 279.7926 L 286.2775 260.9898 L 286.1939 257.7198 L 285.9293 254.2717 L 286.5004 250.4416 L 286.8591 249.1043 L 287.3767 247.9269 L 288.5473 245.6878 L 289.6128 243.2286 L 290.773 241.4883 L 292.1669 239.8705 L 298.7749 233.1399 L 300.7418 231.0348 L 302.0689 229.3787 L 302.7991 228.1965 L 303.8663 225.7373 L 305.695 222.4012 L 306.7026 219.9209 L 307.8664 217.6818 L 308.3726 216.5025 L 308.6985 215.1565 L 308.8561 213.7599 L 308.9922 208.7696 L 309.1092 207.3624 L 309.3752 205.9887 L 309.5974 205.3244 L 310.2461 204.0953 L 311.0699 202.9772 L 315.3741 198.3286 L 316.6445 196.6812 L 317.3003 195.4855 L 318.1059 193.6524 L 319.6021 190.8648 L 320.2088 188.9119 L 320.3893 187.5134 L 320.4482 186.0956 L 320.4001 184.6789 L 320.2174 183.2793 L 319.8257 181.9229 L 319.5142 181.2681 L 318.728 180.0639 L 317.8119 178.9458 L 316.3196 177.3395 L 313.7174 174.7252 L 311.5818 172.7197 L 310.4841 171.7969 L 309.3519 170.9851 L 307.0368 169.8421 L 305.9592 169.1969 L 304.6223 167.8835 L 303.9586 166.7855 L 303.5486 165.4702 L 303.3164 163.3891 L 303.381 153.937 L 303.3056 149.8552 L 306.3878 149.6417 L 310.5577 149.5537 L 346.4504 149.59 L 348.8853 149.4005 L 350.4523 149.1114 L 351.8936 148.6098 L 354.5766 147.3845 L 356.8844 146.8704 L 360.9523 146.6397 L 368.4374 146.6895 L 371.259 149.614 L 371.2923 154.6894 L 371.4076 156.1062 L 371.6434 157.4818 L 372.053 158.7464 L 373.3374 161.6115 L 373.6925 162.9028 L 374.2291 165.5698 L 374.6445 166.8822 L 374.9629 167.5456 L 375.7605 168.7872 L 377.1875 170.5112 L 378.7522 172.1367 L 380.4014 173.6588 L 382.1478 174.9817 L 385.1313 176.4645 L 386.2926 177.2198 L 387.3839 178.1206 L 388.8948 179.6427 L 389.7937 180.7521 L 390.5515 181.9478 L 391.6187 184.4032 L 393.032 187.2271 L 393.4657 188.5463 L 393.7101 190.0214 L 393.8487 192.3007 L 393.8551 203.9833 L 393.746 207.8267 L 393.4175 210.0524 L 392.9688 211.3638 L 391.4977 214.1639 L 390.3662 216.5905 L 389.5948 217.7594 L 386.8953 221.0294 L 386.1138 222.2078 L 385.5757 223.5193 L 385.4217 224.2018 L 385.2989 225.5927 L 385.4041 226.9856 L 385.7771 228.3411 L 386.0933 228.9911 L 386.9014 230.1608 L 387.8502 231.2091 L 389.3977 232.6143 L 392.4024 234.7366 L 393.1271 235.6757 L 393.5231 236.8608 L 393.7044 238.8481 L 393.5812 240.9493 L 393.3145 242.6714 L 389.392 242.8102 L 388.8173 242.5317 L 388.0849 242.5317 L 387.0396 242.8801 L 385.5233 242.7404 L 385.0006 242.95 L 382.2821 243.0199 L 381.9683 243.1587 L 381.0274 243.1587 L 380.6089 243.3683 L 379.5635 243.3683 L 379.2498 243.5071 L 376.4268 243.7867 L 375.9562 243.9954 L 375.2766 243.9954 L 374.6491 244.2739 L 374.3874 244.1351 L 372.9239 244.1351 L 371.2511 244.6224 L 371.1466 244.2739 L 370.2054 244.4137 L 369.4213 243.7867 L 369.2121 243.3683 L 368.6894 243.0888 L 368.0095 243.0888 L 367.0682 243.5071 L 366.3367 243.6469 L 366.1798 243.9255 L 363.8274 244.4137 L 362.9382 244.4137 L 362.9382 244.6922 L 362.2587 244.9019 L 361.9973 244.3438 L 361.3178 244.205 L 360.8475 243.6469 L 360.1673 243.4382 L 359.7491 242.5317 L 359.3316 242.8102 L 358.2859 242.3919 L 357.9197 241.9736 L 357.1878 241.8348 L 356.6127 240.7885 L 356.2989 240.7196 L 355.8279 239.6733 L 355.0443 239.3947 L 354.6781 238.8376 L 354.6261 238.2795 L 354.2075 237.7913 L 353.6849 237.5826 L 352.8481 237.5127 L 352.744 237.0944 L 352.1689 236.5372 L 351.9596 235.7006 L 351.489 234.9338 L 351.0187 234.9338 L 350.6005 235.2823 L 349.6072 235.2124 L 348.8232 235.3521 L 347.5686 235.1425 L 346.7839 235.4909 L 345.6337 236.3975 L 345.2155 236.3975 L 344.6925 236.8857 L 343.7516 237.5127 L 342.0788 238.9065 L 341.1379 239.8829 L 340.1446 240.5099 L 338.4717 241.9736 L 338.3669 242.2531 L 337.5305 243.0888 L 336.8506 243.4382 L 335.8056 244.9718 L 335.5439 245.1106 L 335.2822 245.8773 L 335.3346 247.2721 L 334.8644 247.2721 L 334.2373 246.6441 L 334.1321 247.969 L 333.819 248.6659 L 332.6689 249.3628 L 332.5116 249.851 L 331.7797 250.6178 L 331.4135 251.2448 L 331.3091 251.8718 L 330.3686 253.0569 L 329.8452 254.242 L 329.4273 254.87 L 328.6433 255.7057 L 327.911 257.4489 L 328.1727 257.8672 L 327.7545 258.9824 L 327.5448 259.9579 L 327.911 260.1675 L 327.963 261.2129 L 327.8065 262.2582 L 327.8062 263.5132 L 327.5972 264.28 L 327.6493 265.3952 L 327.127 266.4405 L 326.6567 268.2536 L 327.127 269.7173 L 327.4404 270.0657 L 326.8653 270.4142 L 326.2902 271.8778 L 325.9244 273.621 L 325.8724 274.7219 Z" fill="#000000" fill-opacity="1" stroke="#000000" stroke-width="0" paint-order="fill" stroke-opacity="1" stroke-dasharray="" stroke-linecap="butt" stroke-linejoin="miter" stroke-miterlimit="10" transform="matrix(0.949999988079071,0,0,0.949999988079071,19.999996185302734,13.325008392333984)" clip-path="none"/>
<path data-code="214" d="M 441.7359 248.7348 L 440.9921 248.9445 L 439.9992 249.0143 L 439.581 248.6659 L 438.7966 248.5261 L 437.8033 248.5261 L 436.6531 248.1777 L 435.9212 248.1777 L 435.0324 247.8292 L 433.464 247.6895 L 432.7844 247.4109 L 431.7912 247.4109 L 431.4774 247.1323 L 430.118 246.714 L 429.2819 246.6441 L 427.8176 246.3656 L 426.824 246.087 L 425.256 245.8075 L 422.9036 245.8773 L 422.2237 245.5988 L 421.7007 244.9019 L 421.1259 244.4137 L 420.3416 244.0652 L 418.1981 243.577 L 416.9963 243.0888 L 416.4208 243.0888 L 415.7933 242.7404 L 414.9569 242.5317 L 413.5975 242.5317 L 412.8659 242.322 L 411.1403 242.2531 L 410.6176 241.9736 L 409.1537 241.5553 L 408.7875 241.695 L 404.7103 241.5553 L 404.2396 241.7649 L 401.9397 241.695 L 401.0501 241.9047 L 399.7959 241.9047 L 399.0639 242.1832 L 397.9658 242.1134 L 396.0316 242.1134 L 395.6655 242.4618 L 394.5153 242.6714 L 393.3145 242.6714 L 393.5812 240.9493 L 393.7044 238.8481 L 393.5231 236.8608 L 393.1271 235.6757 L 392.4024 234.7366 L 389.3977 232.6143 L 387.8502 231.2091 L 386.9014 230.1608 L 386.0933 228.9911 L 385.7771 228.3411 L 385.4041 226.9856 L 385.2989 225.5927 L 385.4217 224.2018 L 385.5757 223.5193 L 386.1138 222.2078 L 386.8953 221.0294 L 389.5948 217.7594 L 390.3662 216.5905 L 391.4977 214.1639 L 392.9688 211.3638 L 393.4175 210.0524 L 393.746 207.8267 L 393.8551 203.9833 L 393.8487 192.3007 L 393.7101 190.0214 L 393.4657 188.5463 L 393.032 187.2271 L 391.6187 184.4032 L 390.5515 181.9478 L 389.7937 180.7521 L 388.8948 179.6427 L 387.3839 178.1206 L 386.2926 177.2198 L 385.1313 176.4645 L 382.1478 174.9817 L 380.4014 173.6588 L 378.7522 172.1367 L 377.1875 170.5112 L 375.7605 168.7872 L 374.9629 167.5456 L 374.6445 166.8822 L 374.2291 165.5698 L 373.6925 162.9028 L 373.3374 161.6115 L 372.053 158.7464 L 371.6434 157.4818 L 371.4076 156.1062 L 371.2923 154.6894 L 371.259 149.614 L 372.9092 147.5491 L 373.6138 146.433 L 374.2044 145.178 L 375.1883 142.5799 L 376.2606 140.562 L 376.6565 139.2668 L 377.1997 136.5941 L 377.5698 135.2855 L 379.1471 131.8278 L 379.5115 130.5164 L 380.1813 127.1544 L 380.6114 125.909 L 381.9023 123.0276 L 382.239 121.7305 L 382.739 119.0856 L 383.1702 117.8057 L 383.8343 116.7154 L 384.6926 115.7859 L 385.7046 115.0401 L 389.7298 113.3381 L 392.0962 112.4976 L 393.2973 112.1721 L 394.5814 112.0381 L 395.8848 112.1693 L 397.1344 112.6355 L 398.2523 113.3898 L 399.28 114.303 L 402.1737 117.3443 L 403.666 118.7496 L 404.7655 119.4972 L 405.3737 119.7643 L 406.6678 119.9912 L 407.3179 119.9577 L 408.5291 119.6197 L 411.1478 118.1503 L 413.5153 117.0724 L 415.6709 115.8117 L 416.7913 115.2565 L 418.0599 114.8688 L 419.3644 114.6036 L 419.5877 117.8363 L 419.8512 119.3996 L 420.3218 120.8651 L 421.4993 123.6499 L 421.8507 125.1585 L 422.0844 127.5306 L 422.2503 133.998 L 422.5001 136.3414 L 422.8314 137.6892 L 424.1062 140.5783 L 424.5488 141.9051 L 424.8281 143.429 L 424.976 145.0018 L 425.037 149.8179 L 424.8913 152.2082 L 424.6687 153.7609 L 424.2695 155.2408 L 422.6649 158.6822 L 422.2617 160.1363 L 422.0395 161.6488 L 421.9555 163.1785 L 422.0155 164.6987 L 422.2879 166.1844 L 422.5489 166.9014 L 423.2292 168.0175 L 424.1277 168.9327 L 425.2125 169.621 L 426.6172 170.0575 L 428.0772 170.2298 L 429.5716 170.2691 L 435.7133 170.1054 L 438.7643 170.1484 L 440.9756 170.4605 L 442.2654 170.9152 L 445.9051 173.025 L 446.8449 173.7688 L 447.2326 174.236 L 449.5964 178.5064 L 450.0387 179.8475 L 450.3514 182.1555 L 450.4278 184.5362 L 450.398 195.8349 L 450.2871 199.0093 L 449.9497 201.3115 L 449.4999 202.6498 L 448.0604 205.4642 L 446.9432 207.9004 L 446.1879 209.0874 L 443.5189 212.4197 L 442.3397 214.1744 L 441.2226 216.6106 L 439.7827 219.425 L 439.3365 220.7461 L 439.0745 222.2317 L 438.9108 224.5311 L 438.858 228.4454 L 438.8903 233.9516 L 439.0396 237.0446 L 439.2342 238.5456 L 439.5896 239.9844 L 440.8503 242.8667 L 441.2578 244.1169 L 441.5844 246.176 L 441.7359 248.7348 Z" fill="#000000" fill-opacity="1" stroke="#000000" stroke-width="0" paint-order="fill" stroke-opacity="1" stroke-dasharray="" stroke-linecap="butt" stroke-linejoin="miter" stroke-miterlimit="10" transform="matrix(0.949999988079071,0,0,0.949999988079071,19.999996185302734,13.325008392333984)" clip-path="none"/>















</svg>