<?xml version="1.0" standalone="no"?>
<!-- Generator: Paintmaps.com , Online SVG vector map maker -->
<svg xmlns="http://www.w3.org/2000/svg" version="1.1" baseProfile="full"   style="background-color:#e0f2f1" width="800" height="500" viewBox="0 0 800 533">

<path data-code="200" d="M 414.946 68.5508 L 414.2804 71.1463 L 413.3028 76.6913 L 412.7089 78.4225 L 411.5834 80.9051 L 411.0034 82.6685 L 410.6749 84.5426 L 410.5055 86.4731 L 410.3957 90.4125 L 410.3629 110.3587 L 410.477 115.2191 L 410.6507 117.1093 L 410.9827 118.9396 L 411.5687 120.6719 L 413.0452 123.997 L 413.505 125.8365 L 413.8145 128.734 L 413.8491 131.6869 L 413.6407 134.6144 L 413.2993 136.5057 L 412.7037 138.2749 L 411.242 141.6104 L 410.7942 143.4441 L 410.5522 145.3562 L 410.1805 151.2112 L 409.7543 154.0535 L 409.1803 155.8146 L 407.7402 159.1558 L 407.2968 160.9723 L 407.0556 162.8671 L 406.8628 168.7405 L 406.8793 197.5257 L 397.9152 197.4543 L 393.5084 197.6271 L 391.8012 197.8646 L 390.1683 198.3072 L 386.1531 200.2296 L 383.6938 200.814 L 379.3483 201.1136 L 371.3818 201.0998 L 368.7773 200.9073 L 366.2774 200.3518 L 360.1954 197.3217 L 359.5056 196.9368 L 358.2988 196.0251 L 357.2477 194.9221 L 356.3833 193.6635 L 355.1048 190.7556 L 353.4278 187.3486 L 352.9135 185.8399 L 352.152 181.7898 L 351.7241 180.2062 L 351.1138 178.7943 L 349.7203 176.0835 L 348.4401 173.1099 L 347.5593 171.6565 L 343.9166 166.8872 L 343.0375 165.4719 L 341.638 162.6435 L 340.7546 161.4264 L 339.6957 160.3637 L 338.4984 159.4901 L 335.7349 158.1231 L 333.6819 156.7147 L 332.4077 155.5817 L 331.2261 154.337 L 329.7349 152.2336 L 329.0728 150.5877 L 328.6527 147.908 L 328.5697 144.2187 L 328.8299 129.2377 L 328.6536 126.505 L 328.3156 124.7346 L 328.0303 123.8783 L 327.6577 123.0807 L 326.7164 121.61 L 325.0247 119.5827 L 315.147 109.4978 L 316.6061 107.6399 L 317.4809 106.3548 L 319.2089 102.7553 L 320.0863 101.363 L 321.6699 99.4037 L 326.279 94.3843 L 327.7917 92.3857 L 328.5671 90.9381 L 329.5076 88.7194 L 331.2442 85.3344 L 331.7482 83.8049 L 332.0136 82.1429 L 332.3101 73.554 L 332.6074 71.884 L 333.1995 70.3476 L 334.529 68.3975 L 335.5853 67.2588 L 336.7246 66.2514 L 338.5477 65.1 L 339.8435 64.722 L 340.7226 64.6609 L 346.6058 63.6674 L 348.192 63.3032 L 349.6512 62.7569 L 352.9904 61.096 L 359.1313 59.4686 L 362.474 57.8458 L 363.9962 57.3225 L 366.5791 56.933 L 371.897 56.676 L 374.5059 56.3751 L 376.1604 55.9326 L 379.491 54.2982 L 380.9501 53.7646 L 383.3567 53.3612 L 385.8263 53.3001 L 387.4661 53.428 L 389.0661 53.7312 L 390.5365 54.2613 L 393.8576 55.921 L 395.3652 56.389 L 398.484 57.0655 L 400.0114 57.5335 L 403.9826 59.6207 L 406.8481 60.9531 L 408.2623 61.8959 L 410.2358 63.6109 L 414.946 68.5508 Z" fill="#000000" fill-opacity="1" stroke="#000000" stroke-width="0" paint-order="fill" stroke-opacity="1" stroke-dasharray="" stroke-linecap="butt" stroke-linejoin="miter" stroke-miterlimit="10" transform="matrix(1.100000023841858,0,0,1.100000023841858,-39.999935150146484,-26.649986267089844)" clip-path="none" style="filter: url(#f1)"/>
<path data-code="201" d="M 313.1208 312.625 L 310.9874 316.7834 L 308.6077 320.8093 L 307.3456 323.791 L 305.0998 327.7996 L 303.8265 330.7582 L 302.032 334.0868 L 301.5064 335.6059 L 301.2584 337.2552 L 301.2644 338.9287 L 301.5427 340.5838 L 301.8099 341.386 L 302.6077 342.8555 L 304.1801 344.801 L 308.8843 349.6475 L 309.9069 350.9614 L 310.7099 352.4275 L 310.9788 353.2308 L 311.2562 354.8859 L 311.2485 356.5617 L 310.9615 358.2133 L 310.6909 359.0121 L 309.8706 360.5139 L 306.1242 365.1471 L 305.2053 366.5613 L 303.8724 369.505 L 302.4322 372.1939 L 301.7969 373.5954 L 301.3431 375.1756 L 300.7103 378.4073 L 300.2721 379.9725 L 298.6928 383.4233 L 298.1957 384.9424 L 297.8309 387.4411 L 297.4765 395.161 L 297.1964 396.8195 L 296.6899 398.3501 L 294.9619 401.7398 L 294.0067 403.9527 L 293.2201 405.3934 L 291.6953 407.3769 L 287.6256 411.699 L 285.9944 413.6215 L 285.0773 415.0196 L 284.4281 416.5767 L 284.0754 418.2329 L 283.8619 420.7939 L 283.8342 423.3987 L 283.9682 426.8886 L 284.1368 428.6221 L 284.4324 430.3302 L 285.57 433.9342 L 282.2567 433.3649 L 279.5337 433.1367 L 276.7322 433.2358 L 274.9221 433.5539 L 273.2157 434.182 L 270.0874 435.9074 L 267.2356 437.2167 L 264.1021 438.9444 L 262.3914 439.5852 L 260.5684 439.9333 L 256.7848 440.1719 L 249.0681 440.1154 L 244.2896 439.8757 L 241.571 439.5023 L 238.7418 438.4119 L 233.2432 435.9973 L 232.6165 435.5755 L 231.4979 434.552 L 230.586 433.3199 L 230.2307 432.6272 L 229.9489 431.8504 L 229.6126 430.2403 L 229.1804 425.2578 L 228.9055 423.628 L 228.4292 422.1274 L 226.907 418.6467 L 226.505 416.9443 L 226.2111 413.3599 L 226.0892 406.0377 L 225.8083 403.3683 L 225.3804 401.6798 L 223.7717 398.2521 L 223.2453 396.7492 L 222.8399 394.2631 L 222.7647 391.7079 L 222.9964 389.1723 L 223.4061 387.5437 L 224.0302 386.1203 L 225.4651 383.4452 L 226.8059 380.505 L 227.7628 379.0274 L 228.8822 377.6386 L 233.1887 372.9949 L 234.8951 370.9249 L 235.8364 369.4404 L 237.1374 366.4795 L 238.8749 363.0875 L 239.6088 360.7905 L 240.417 356.7565 L 240.9374 355.2674 L 242.5305 351.8086 L 243.2903 348.6137 L 243.8064 346.2014 L 244.3449 344.7088 L 246.0738 341.3064 L 247.2978 338.3144 L 249.4969 334.2827 L 251.1012 330.6245 L 252.9831 327.2844 L 254.2538 324.3096 L 255.6904 321.623 L 256.3172 320.2031 L 256.8479 317.7493 L 256.9577 316.0734 L 256.9214 314.4091 L 256.739 312.8025 L 256.3733 311.3122 L 255.4285 309.4889 L 251.1194 303.3342 L 247.4862 295.5717 L 247.0679 293.8452 L 246.8569 292.0552 L 246.6434 282.8025 L 246.1913 277.8084 L 249.3724 278.1116 L 252.0089 278.2337 L 267.8667 278.2107 L 271.3192 278.3974 L 272.9901 278.6948 L 274.5028 279.2353 L 277.7626 281.0252 L 279.8579 282.0049 L 281.1589 282.8209 L 282.7693 284.4092 L 283.6164 285.6585 L 285.3357 289.2557 L 286.297 290.6572 L 287.961 292.6707 L 298.385 303.6408 L 301.4917 306.7642 L 303.4574 308.4412 L 304.8742 309.3529 L 310.4385 311.6845 L 313.1208 312.625 Z" fill="#000000" fill-opacity="1" stroke="#000000" stroke-width="0" paint-order="fill" stroke-opacity="1" stroke-dasharray="" stroke-linecap="butt" stroke-linejoin="miter" stroke-miterlimit="10" transform="matrix(1.100000023841858,0,0,1.100000023841858,-39.999935150146484,-26.649986267089844)" clip-path="none" style="filter: url(#f1)"/>
<path data-code="202" d="M 495.771 350.5719 L 487.9826 346.1345 L 486.4638 345.6274 L 482.6059 344.6857 L 477.8162 342.5719 L 476.0692 342.1259 L 472.3945 341.7813 L 464.83 341.7294 L 456.2852 341.8493 L 451.0217 342.2734 L 446.7212 341.6764 L 444.357 341.0851 L 436.8012 337.2586 L 435.4769 336.2686 L 434.2139 335.1575 L 431.2066 332.1309 L 428.9911 329.5561 L 427.6219 327.4676 L 426.3382 324.5021 L 424.9283 321.8143 L 424.306 320.3898 L 423.7657 317.9198 L 423.5652 314.4841 L 423.7294 310.1654 L 424.1469 307.6597 L 424.6768 306.143 L 426.3209 302.7187 L 426.786 301.1593 L 427.1283 299.5515 L 429.4501 300.1139 L 430.8851 300.681 L 434.1621 302.4801 L 437.0354 303.7629 L 441.0083 305.8618 L 442.6576 306.3262 L 444.3761 306.5786 L 449.6827 306.7481 L 452.3452 306.6524 L 454.9574 306.385 L 457.4305 305.7649 L 461.425 303.8886 L 462.9646 303.5244 L 464.5534 303.4126 L 466.1413 303.5267 L 467.6808 303.8909 L 471.6701 305.7569 L 473.3315 306.2167 L 475.0777 306.4726 L 479.6003 306.6536 L 489.6596 306.521 L 491.4342 306.6271 L 493.1579 306.9014 L 494.7882 307.4788 L 495.4408 307.8661 L 496.5862 308.8261 L 497.9113 310.5803 L 499.214 313.2958 L 500.0421 314.5002 L 501.0846 315.5605 L 502.3389 316.4008 L 503.0814 316.7177 L 504.6452 317.105 L 507.0984 317.294 L 509.6138 317.2053 L 514.0086 316.6659 L 511.755 320.4244 L 510.2362 322.1855 L 508.4356 323.5731 L 504.9417 325.3527 L 502.3181 327.3731 L 499.8442 329.7071 L 498.1024 331.5673 L 497.0443 332.8801 L 496.1427 334.2977 L 495.7849 335.0665 L 495.3189 336.6985 L 495.0925 338.3847 L 495.0026 340.0997 L 495.1357 345.3312 L 495.771 350.5719 Z" fill="#000000" fill-opacity="1" stroke="#000000" stroke-width="0" paint-order="fill" stroke-opacity="1" stroke-dasharray="" stroke-linecap="butt" stroke-linejoin="miter" stroke-miterlimit="10" transform="matrix(1.100000023841858,0,0,1.100000023841858,-39.999935150146484,-26.649986267089844)" clip-path="none" style="filter: url(#f1)"/>
<path data-code="203" d="M 469.2005 216.0739 L 462.2704 218.9495 L 461.5365 219.2895 L 460.1431 220.1562 L 458.1981 221.7502 L 455.1614 224.7354 L 453.4836 226.6451 L 452.0737 228.7313 L 451.7193 229.5 L 451.2638 231.1309 L 450.9915 233.6712 L 450.9491 237.1415 L 451.0952 247.6863 L 450.9889 250.2761 L 450.7866 251.9634 L 450.3846 253.5897 L 450.0985 254.317 L 448.3662 257.7043 L 447.0912 260.6664 L 446.1784 262.1094 L 445.0927 263.4475 L 443.2696 265.2905 L 441.9566 266.3866 L 440.5562 267.3086 L 438.4107 268.3113 L 436.9991 269.0905 L 435.6428 270.0828 L 431.7132 273.3734 L 430.3137 274.2908 L 427.4369 275.6036 L 424.8237 277.0639 L 423.4614 277.7036 L 421.9279 278.1438 L 418.7858 278.7293 L 417.2506 279.165 L 415.8865 279.7978 L 413.2699 281.2362 L 411.1089 282.1778 L 409.75 282.9281 L 408.5294 283.8444 L 406.8144 285.4361 L 403.444 289.2522 L 400.875 287.0704 L 398.6716 285.4626 L 397.6619 284.4725 L 396.9263 282.9777 L 396.4639 280.3717 L 396.348 277.5572 L 396.3748 272.6726 L 396.4941 267.7443 L 396.6929 264.8295 L 396.9678 262.9404 L 397.4536 261.1436 L 399.3683 257.007 L 400.0062 254.3976 L 400.1714 252.6354 L 400.135 250.9192 L 399.8066 249.2883 L 399.4677 248.5253 L 398.9568 247.8315 L 398.2973 247.2979 L 397.5703 246.9394 L 396.0057 246.5706 L 394.34 246.4749 L 391.7121 246.6202 L 389.9219 246.8864 L 388.264 247.2956 L 385.2713 248.3628 L 386.5965 241.6042 L 387.0503 239.9987 L 389.0878 235.8691 L 390.393 232.9093 L 391.8418 230.799 L 394.2077 228.3233 L 396.1164 226.7523 L 398.5687 225.1722 L 399.1003 224.7123 L 399.9552 223.5713 L 402.4716 219.0601 L 402.7586 218.341 L 403.1631 216.7308 L 403.7354 210.847 L 404.0223 209.2023 L 404.5159 207.6867 L 406.0926 204.2255 L 406.8741 201.0433 L 409.1596 201.6692 L 410.6231 202.3549 L 411.9914 203.2931 L 415.9185 206.4431 L 417.3768 207.266 L 418.2023 207.5703 L 419.9216 207.9483 L 421.6928 208.1316 L 427.1447 208.2491 L 435.3705 208.1904 L 437.1582 208.067 L 438.9052 207.7985 L 440.5752 207.266 L 441.3195 206.8822 L 442.6939 205.9359 L 446.5682 202.7261 L 448.0144 201.8732 L 448.8304 201.5551 L 451.4064 201.0214 L 454.0679 200.8416 L 456.7425 200.8693 L 459.3763 201.1759 L 461.0706 201.6934 L 461.8399 202.0818 L 463.2446 203.0592 L 465.1092 204.8387 L 466.6911 206.8868 L 467.4984 208.4209 L 467.7794 209.2161 L 469.2005 216.0739 Z" fill="#000000" fill-opacity="1" stroke="#000000" stroke-width="0" paint-order="fill" stroke-opacity="1" stroke-dasharray="" stroke-linecap="butt" stroke-linejoin="miter" stroke-miterlimit="10" transform="matrix(1.100000023841858,0,0,1.100000023841858,-39.999935150146484,-26.649986267089844)" clip-path="none" style="filter: url(#f1)"/>
<path data-code="204" d="M 406.8741 201.0433 L 406.8793 197.5257 L 406.8628 168.7405 L 407.0556 162.8671 L 407.2968 160.9723 L 407.7402 159.1558 L 409.1803 155.8146 L 409.7543 154.0535 L 410.1805 151.2112 L 410.5522 145.3562 L 410.7942 143.4441 L 411.242 141.6104 L 412.7037 138.2749 L 413.2993 136.5057 L 413.6407 134.6144 L 413.8491 131.6869 L 413.8145 128.734 L 413.505 125.8365 L 413.0452 123.997 L 411.5687 120.6719 L 410.9827 118.9396 L 410.6507 117.1093 L 410.477 115.2191 L 410.3629 110.3587 L 410.3957 90.4125 L 410.5055 86.4731 L 410.6749 84.5426 L 411.0034 82.6685 L 411.5834 80.9051 L 412.7089 78.4225 L 413.3028 76.6913 L 414.2804 71.1463 L 414.946 68.5508 L 417.5401 67.8097 L 422.903 66.7897 L 424.5783 66.1788 L 427.8216 64.6932 L 429.6533 64.2287 L 431.5628 63.9866 L 436.4761 63.823 L 458.4091 63.8944 L 462.3837 63.7112 L 466.7334 63.1971 L 467.1025 66.6836 L 466.9651 68.0033 L 466.5104 69.3218 L 464.7634 73.493 L 464.4168 74.2375 L 463.4832 75.7393 L 461.1571 78.4962 L 459.2329 80.4406 L 457.2309 82.2686 L 455.1364 83.8568 L 451.6225 85.6594 L 449.8513 87.0471 L 448.4233 88.8324 L 447.0264 91.6953 L 445.5517 94.337 L 444.906 95.7593 L 444.6631 96.5649 L 444.3873 98.2108 L 444.3553 99.8509 L 444.6008 101.4437 L 444.8731 102.2044 L 445.2353 102.8636 L 446.1888 103.9286 L 447.3834 104.6006 L 448.055 104.74 L 449.324 104.5614 L 452.4126 103.3005 L 454.0161 102.9697 L 456.5912 102.7104 L 461.935 102.5767 L 483.3424 102.6262 L 485.9374 102.8441 L 487.6066 103.1702 L 489.0977 103.7085 L 492.4326 105.3232 L 494.0871 105.7554 L 496.696 106.0413 L 502.0156 106.2764 L 504.6028 106.6729 L 506.1302 107.2169 L 509.415 108.9976 L 512.2823 110.2735 L 515.5023 112.2098 L 519.0697 113.8429 L 522.9691 116.1135 L 525.8641 117.3698 L 529.7652 119.6357 L 532.6619 120.8908 L 536.5647 123.151 L 539.4649 124.3958 L 543.3798 126.6617 L 546.2583 127.9653 L 548.1687 129.1996 L 551.6506 131.8171 L 554.9233 132.9708 L 559.8384 135.0512 L 561.9251 136.4619 L 565.1952 139.1935 L 566.548 140.1789 L 570.0939 141.9689 L 571.496 142.8851 L 573.4305 144.5621 L 575.1429 146.4892 L 576.0817 147.9334 L 576.7274 149.5539 L 577.1398 152.1448 L 577.234 154.8118 L 577.138 170.2319 L 577.0075 172.9024 L 576.7827 174.6405 L 576.3505 176.3094 L 576.0592 177.0297 L 574.3019 180.4033 L 573.0666 183.3769 L 571.0067 187.465 L 570.552 189.0371 L 570.2304 190.6518 L 569.4404 193.8306 L 567.8732 197.294 L 567.3554 198.8777 L 567.033 200.6676 L 566.414 206.1446 L 565.9879 207.893 L 564.4674 211.376 L 563.9565 212.955 L 563.6358 214.7427 L 563.1552 219.3183 L 562.8327 221.1082 L 562.3149 222.6919 L 560.7478 226.1553 L 559.9577 229.3341 L 556.8976 228.4985 L 553.5506 226.8941 L 551.9946 226.3639 L 549.3046 225.9536 L 543.8527 225.6424 L 541.4392 225.3312 L 539.8945 224.9244 L 535.8265 223.1195 L 533.197 222.5443 L 530.4412 222.3346 L 523.9183 222.1536 L 521.1928 221.854 L 519.4605 221.416 L 516.2215 219.9419 L 514.516 219.3517 L 511.7645 218.9161 L 506.1 218.545 L 504.2493 218.3006 L 502.4755 217.8465 L 498.4162 216.0255 L 495.7269 215.4204 L 492.9037 215.1933 L 490.0252 215.1253 L 476.4728 215.191 L 472.6582 215.4204 L 469.2005 216.0739 L 467.7794 209.2161 L 467.4984 208.4209 L 466.6911 206.8868 L 465.1092 204.8387 L 463.2446 203.0592 L 461.8399 202.0818 L 461.0706 201.6934 L 459.3763 201.1759 L 456.7425 200.8693 L 454.0679 200.8416 L 451.4064 201.0214 L 448.8304 201.5551 L 448.0144 201.8732 L 446.5682 202.7261 L 442.6939 205.9359 L 441.3195 206.8822 L 440.5752 207.266 L 438.9052 207.7985 L 437.1582 208.067 L 435.3705 208.1904 L 427.1447 208.2491 L 421.6928 208.1316 L 419.9216 207.9483 L 418.2023 207.5703 L 417.3768 207.266 L 415.9185 206.4431 L 411.9914 203.2931 L 410.6231 202.3549 L 409.1596 201.6692 L 406.8741 201.0433 Z" fill="#000000" fill-opacity="1" stroke="#000000" stroke-width="0" paint-order="fill" stroke-opacity="1" stroke-dasharray="" stroke-linecap="butt" stroke-linejoin="miter" stroke-miterlimit="10" transform="matrix(1.100000023841858,0,0,1.100000023841858,-39.999935150146484,-26.649986267089844)" clip-path="none" style="filter: url(#f1)"/>
<path data-code="205" d="M 259.5224 216.6536 L 261.0334 209.0386 L 261.5711 207.5392 L 262.8807 204.7926 L 263.3881 203.2885 L 263.6976 201.6553 L 264.2275 196.6256 L 264.5326 194.9912 L 265.0314 193.486 L 266.3064 190.7325 L 266.806 189.2273 L 267.1129 187.5918 L 267.648 182.5586 L 267.9531 180.9242 L 268.4493 179.4167 L 269.7105 176.6586 L 270.1971 175.1522 L 270.4876 173.5202 L 271.0002 168.5019 L 271.3416 166.8665 L 271.6087 166.0747 L 271.9675 165.2967 L 272.863 163.8456 L 276.4331 159.0821 L 278.2337 155.4573 L 279.6971 153.3296 L 280.8606 152.0169 L 282.7935 150.1901 L 286.1353 147.6694 L 287.2928 147.3813 L 288.2877 146.9537 L 290.1402 145.6813 L 291.8984 144.1046 L 293.5944 142.3872 L 295.2109 140.5881 L 296.2093 139.3422 L 297.4661 137.3598 L 298.7541 134.3977 L 299.5615 133.0746 L 301.0371 131.2132 L 305.9245 125.8653 L 307.3257 123.959 L 307.9861 122.6888 L 309.2914 119.615 L 311.1352 116.2714 L 312.3627 113.3116 L 313.5919 111.4007 L 315.147 109.4978 L 325.0247 119.5827 L 326.7164 121.61 L 327.6577 123.0807 L 328.0303 123.8783 L 328.3156 124.7346 L 328.6536 126.505 L 328.8299 129.2377 L 328.5697 144.2187 L 328.6527 147.908 L 329.0728 150.5877 L 329.7349 152.2336 L 331.2261 154.337 L 332.4077 155.5817 L 333.6819 156.7147 L 335.7349 158.1231 L 338.4984 159.4901 L 339.6957 160.3637 L 340.7546 161.4264 L 341.638 162.6435 L 343.0375 165.4719 L 343.9166 166.8872 L 347.5593 171.6565 L 348.4401 173.1099 L 349.7203 176.0835 L 351.1138 178.7943 L 351.7241 180.2062 L 352.152 181.7898 L 352.9135 185.8399 L 353.4278 187.3486 L 355.1048 190.7556 L 356.3833 193.6635 L 357.2477 194.9221 L 358.2988 196.0251 L 359.5056 196.9368 L 360.1954 197.3217 L 366.2774 200.3518 L 368.7773 200.9073 L 371.3818 201.0998 L 379.3483 201.1136 L 383.6938 200.814 L 386.1531 200.2296 L 390.1683 198.3072 L 391.8012 197.8646 L 393.5084 197.6271 L 397.9152 197.4543 L 406.8793 197.5257 L 406.8741 201.0433 L 406.0926 204.2255 L 404.5159 207.6867 L 404.0223 209.2023 L 403.7354 210.847 L 403.1631 216.7308 L 402.7586 218.341 L 402.4716 219.0601 L 399.9552 223.5713 L 399.1003 224.7123 L 398.5687 225.1722 L 396.1164 226.7523 L 394.2077 228.3233 L 391.8418 230.799 L 390.393 232.9093 L 389.0878 235.8691 L 387.0503 239.9987 L 386.5965 241.6042 L 385.2713 248.3628 L 382.7593 249.686 L 379.8324 250.9135 L 375.9183 253.169 L 373.0208 254.4241 L 369.0505 256.5449 L 367.5231 257.022 L 364.3973 257.7055 L 362.8906 258.1746 L 358.8987 260.1143 L 357.3385 260.4866 L 355.7315 260.5996 L 354.1254 260.4832 L 352.566 260.1086 L 348.5802 258.1654 L 347.0743 257.6974 L 343.9486 257.0243 L 342.4186 256.5552 L 338.4526 254.4414 L 335.5914 253.0976 L 334.2429 252.1813 L 332.9782 251.1002 L 328.7962 246.8968 L 326.9385 245.206 L 325.5866 244.2528 L 324.8518 243.8702 L 323.282 243.3607 L 320.8254 243.0276 L 317.4783 242.9608 L 314.9732 243.0945 L 312.5287 243.499 L 311.0341 244.0396 L 307.7536 245.8007 L 305.6505 246.7377 L 304.9563 247.1146 L 303.7444 248.0263 L 302.7054 249.1581 L 301.8954 250.502 L 301.5972 251.2903 L 301.2385 252.9327 L 301.0362 255.481 L 301.0725 258.9376 L 301.3206 261.5043 L 301.688 263.164 L 301.9732 263.9627 L 302.7962 265.476 L 306.4734 270.1843 L 307.3707 271.6077 L 308.6855 274.5548 L 310.8819 278.583 L 312.0973 281.5762 L 314.2981 285.5997 L 315.5343 288.5757 L 317.3054 291.9515 L 317.8492 293.4752 L 318.1699 295.136 L 318.3817 297.7051 L 318.3868 301.1697 L 318.169 303.7341 L 317.8189 305.3938 L 317.5414 306.1925 L 316.7254 307.7266 L 313.1208 312.625 L 310.4385 311.6845 L 304.8742 309.3529 L 303.4574 308.4412 L 301.4917 306.7642 L 298.385 303.6408 L 287.961 292.6707 L 286.297 290.6572 L 285.3357 289.2557 L 283.6164 285.6585 L 282.7693 284.4092 L 281.1589 282.8209 L 279.8579 282.0049 L 277.7626 281.0252 L 274.5028 279.2353 L 272.9901 278.6948 L 271.3192 278.3974 L 267.8667 278.2107 L 252.0089 278.2337 L 249.3724 278.1116 L 246.1913 277.8084 L 247.3652 272.373 L 247.9055 270.8839 L 249.4701 267.4112 L 250.0345 264.7753 L 250.2645 261.0767 L 250.2576 248.7997 L 250.4529 246.0324 L 250.7658 244.2482 L 251.2845 242.668 L 252.8543 239.2161 L 254.4656 232.8667 L 256.3448 228.6817 L 256.7917 227.105 L 257.6259 223.1022 L 259.3677 218.3986 L 259.5224 216.6536 Z" fill="#000000" fill-opacity="1" stroke="#000000" stroke-width="0" paint-order="fill" stroke-opacity="1" stroke-dasharray="" stroke-linecap="butt" stroke-linejoin="miter" stroke-miterlimit="10" transform="matrix(1.100000023841858,0,0,1.100000023841858,-39.999935150146484,-26.649986267089844)" clip-path="none" style="filter: url(#f1)"/>
<path data-code="206" d="M 451.0217 342.2734 L 450.8523 350.5534 L 450.497 353.9373 L 449.8012 356.2494 L 448.2141 359.6829 L 447.7888 361.3448 L 447.558 363.0829 L 447.3955 367.5744 L 447.4716 377.5994 L 447.3531 380.2849 L 447.1353 382.0333 L 446.71 383.7149 L 446.423 384.4375 L 444.6916 387.8238 L 443.4658 390.802 L 441.6082 394.1432 L 440.2986 397.0339 L 439.499 398.523 L 437.9007 400.6529 L 433.6555 405.3438 L 431.9742 407.4242 L 431.0398 408.8983 L 429.6567 411.812 L 428.7231 413.2861 L 427.0479 415.3723 L 422.2901 420.7974 L 420.8569 422.9976 L 419.5387 425.9378 L 418.6604 427.3877 L 417.05 429.3955 L 415.1915 431.1762 L 413.7955 432.1558 L 413.0313 432.5431 L 411.3509 433.0502 L 409.6134 433.2807 L 406.0615 433.3556 L 402.5036 433.1701 L 399.9086 432.8059 L 397.9766 432.2653 L 392.6094 430.4235 L 388.71 429.6456 L 387.1817 429.2422 L 385.7865 428.5552 L 384.6118 427.6009 L 383.6341 426.4414 L 383.2313 425.7983 L 381.9909 422.895 L 380.2517 419.5318 L 378.6732 415.9359 L 377.8218 414.6796 L 376.7819 413.5789 L 375.5933 412.6649 L 372.165 410.7885 L 370.8381 409.7858 L 367.5957 407.0415 L 366.197 406.0872 L 365.4381 405.7023 L 363.8657 405.2078 L 362.2371 404.9669 L 360.5861 404.8943 L 358.1164 405.0557 L 356.5138 405.3853 L 355.7402 405.647 L 354.3787 406.32 L 351.8045 407.838 L 348.9372 409.145 L 346.3258 410.6122 L 344.9505 411.2403 L 344.1759 411.4743 L 341.7573 411.8304 L 335.3165 412.0921 L 333.8608 412.4136 L 333.1883 412.6949 L 332.5746 413.0925 L 332.0611 413.6019 L 329.8309 417.2694 L 328.778 419.2783 L 327.3223 422.9792 L 324.7784 427.4903 L 323.9269 428.6486 L 322.7841 429.5084 L 318.9937 431.6153 L 316.1013 433.079 L 313.7414 429.173 L 311.2199 426.0657 L 308.9111 424.0372 L 307.5963 423.2465 L 306.833 422.9526 L 305.2468 422.6276 L 303.6312 422.6 L 302.8281 422.6979 L 301.2618 423.1647 L 300.5755 423.5335 L 299.3514 424.474 L 297.8136 426.219 L 295.6932 429.4335 L 292.6773 429.9291 L 291.1351 430.4005 L 289.1305 431.4931 L 285.57 433.9342 L 284.4324 430.3302 L 284.1368 428.6221 L 283.9682 426.8886 L 283.8342 423.3987 L 283.8619 420.7939 L 284.0754 418.2329 L 284.4281 416.5767 L 285.0773 415.0196 L 285.9944 413.6215 L 287.6256 411.699 L 291.6953 407.3769 L 293.2201 405.3934 L 294.0067 403.9527 L 294.9619 401.7398 L 296.6899 398.3501 L 297.1964 396.8195 L 297.4765 395.161 L 297.8309 387.4411 L 298.1957 384.9424 L 298.6928 383.4233 L 300.2721 379.9725 L 300.7103 378.4073 L 301.3431 375.1756 L 301.7969 373.5954 L 302.4322 372.1939 L 303.8724 369.505 L 305.2053 366.5613 L 306.1242 365.1471 L 309.8706 360.5139 L 310.6909 359.0121 L 310.9615 358.2133 L 311.2485 356.5617 L 311.2562 354.8859 L 310.9788 353.2308 L 310.7099 352.4275 L 309.9069 350.9614 L 308.8843 349.6475 L 304.1801 344.801 L 302.6077 342.8555 L 301.8099 341.386 L 301.5427 340.5838 L 301.2644 338.9287 L 301.2584 337.2552 L 301.5064 335.6059 L 302.032 334.0868 L 303.8265 330.7582 L 305.0998 327.7996 L 307.3456 323.791 L 308.6077 320.8093 L 310.9874 316.7834 L 313.1208 312.625 L 316.7254 307.7266 L 317.5414 306.1925 L 317.8189 305.3938 L 318.169 303.7341 L 318.3868 301.1697 L 318.3817 297.7051 L 318.1699 295.136 L 317.8492 293.4752 L 317.3054 291.9515 L 315.5343 288.5757 L 314.2981 285.5997 L 312.0973 281.5762 L 310.8819 278.583 L 308.6855 274.5548 L 307.3707 271.6077 L 306.4734 270.1843 L 302.7962 265.476 L 301.9732 263.9627 L 301.688 263.164 L 301.3206 261.5043 L 301.0725 258.9376 L 301.0362 255.481 L 301.2385 252.9327 L 301.5972 251.2903 L 301.8954 250.502 L 302.7054 249.1581 L 303.7444 248.0263 L 304.9563 247.1146 L 305.6505 246.7377 L 307.7536 245.8007 L 311.0341 244.0396 L 312.5287 243.499 L 314.9732 243.0945 L 317.4783 242.9608 L 320.8254 243.0276 L 323.282 243.3607 L 324.8518 243.8702 L 325.5866 244.2528 L 326.9385 245.206 L 328.7962 246.8968 L 332.9782 251.1002 L 334.2429 252.1813 L 335.5914 253.0976 L 338.4526 254.4414 L 342.4186 256.5552 L 343.9486 257.0243 L 347.0743 257.6974 L 348.5802 258.1654 L 352.566 260.1086 L 354.1254 260.4832 L 355.7315 260.5996 L 357.3385 260.4866 L 358.8987 260.1143 L 362.8906 258.1746 L 364.3973 257.7055 L 367.5231 257.022 L 369.0505 256.5449 L 373.0208 254.4241 L 375.9183 253.169 L 379.8324 250.9135 L 382.7593 249.686 L 385.2713 248.3628 L 388.264 247.2956 L 389.9219 246.8864 L 391.7121 246.6202 L 394.34 246.4749 L 396.0057 246.5706 L 397.5703 246.9394 L 398.2973 247.2979 L 398.9568 247.8315 L 399.4677 248.5253 L 399.8066 249.2883 L 400.135 250.9192 L 400.1714 252.6354 L 400.0062 254.3976 L 399.3683 257.007 L 397.4536 261.1436 L 396.9678 262.9404 L 396.6929 264.8295 L 396.4941 267.7443 L 396.3748 272.6726 L 396.348 277.5572 L 396.4639 280.3717 L 396.9263 282.9777 L 397.6619 284.4725 L 398.6716 285.4626 L 400.875 287.0704 L 403.444 289.2522 L 405.7633 291.079 L 406.9769 291.8489 L 409.8546 293.1709 L 412.4634 294.6404 L 413.8205 295.2905 L 415.3506 295.7503 L 419.2569 296.5767 L 420.6961 297.1173 L 424.0354 298.7747 L 425.5602 299.2299 L 427.1283 299.5515 L 426.786 301.1593 L 426.3209 302.7187 L 424.6768 306.143 L 424.1469 307.6597 L 423.7294 310.1654 L 423.5652 314.4841 L 423.7657 317.9198 L 424.306 320.3898 L 424.9283 321.8143 L 426.3382 324.5021 L 427.6219 327.4676 L 428.9911 329.5561 L 431.2066 332.1309 L 434.2139 335.1575 L 435.4769 336.2686 L 436.8012 337.2586 L 444.357 341.0851 L 446.7212 341.6764 L 451.0217 342.2734 Z" fill="#000000" fill-opacity="1" stroke="#000000" stroke-width="0" paint-order="fill" stroke-opacity="1" stroke-dasharray="" stroke-linecap="butt" stroke-linejoin="miter" stroke-miterlimit="10" transform="matrix(1.100000023841858,0,0,1.100000023841858,-39.999935150146484,-26.649986267089844)" clip-path="none" style="filter: url(#f1)"/>
<path data-code="207" d="M 559.9577 229.3341 L 559.4399 231.7464 L 558.8944 233.2355 L 557.1449 236.6263 L 555.9355 239.6218 L 553.8912 243.7226 L 553.4399 245.2982 L 552.8055 248.5311 L 552.3542 250.1055 L 550.3099 254.2075 L 549.0997 257.2041 L 547.0545 261.3084 L 546.605 262.8851 L 545.7812 266.9098 L 545.2452 268.3897 L 543.4983 271.7921 L 542.2889 274.8037 L 540.0821 278.8308 L 538.8753 281.8274 L 536.6728 285.8545 L 535.39 288.8212 L 534.5792 290.1454 L 532.6299 292.6211 L 530.6383 295.1061 L 529.7842 296.4465 L 529.0642 297.9494 L 527.854 301.0452 L 525.2823 303.854 L 523.8474 305.6935 L 523.066 306.9993 L 522.0693 309.3771 L 521.4192 310.6414 L 520.528 311.9242 L 519.5123 313.1206 L 517.8397 314.7376 L 516.6442 315.6389 L 515.389 316.3005 L 514.0086 316.6659 L 509.6138 317.2053 L 507.0984 317.294 L 504.6452 317.105 L 503.0814 316.7177 L 502.3389 316.4008 L 501.0846 315.5605 L 500.0421 314.5002 L 499.214 313.2958 L 497.9113 310.5803 L 496.5862 308.8261 L 495.4408 307.8661 L 494.7882 307.4788 L 493.1579 306.9014 L 491.4342 306.6271 L 489.6596 306.521 L 479.6003 306.6536 L 475.0777 306.4726 L 473.3315 306.2167 L 471.6701 305.7569 L 467.6808 303.8909 L 466.1413 303.5267 L 464.5534 303.4126 L 462.9646 303.5244 L 461.425 303.8886 L 457.4305 305.7649 L 454.9574 306.385 L 452.3452 306.6524 L 449.6827 306.7481 L 444.3761 306.5786 L 442.6576 306.3262 L 441.0083 305.8618 L 437.0354 303.7629 L 434.1621 302.4801 L 430.8851 300.681 L 429.4501 300.1139 L 427.1283 299.5515 L 425.5602 299.2299 L 424.0354 298.7747 L 420.6961 297.1173 L 419.2569 296.5767 L 415.3506 295.7503 L 413.8205 295.2905 L 412.4634 294.6404 L 409.8546 293.1709 L 406.9769 291.8489 L 405.7633 291.079 L 403.444 289.2522 L 406.8144 285.4361 L 408.5294 283.8444 L 409.75 282.9281 L 411.1089 282.1778 L 413.2699 281.2362 L 415.8865 279.7978 L 417.2506 279.165 L 418.7858 278.7293 L 421.9279 278.1438 L 423.4614 277.7036 L 424.8237 277.0639 L 427.4369 275.6036 L 430.3137 274.2908 L 431.7132 273.3734 L 435.6428 270.0828 L 436.9991 269.0905 L 438.4107 268.3113 L 440.5562 267.3086 L 441.9566 266.3866 L 443.2696 265.2905 L 445.0927 263.4475 L 446.1784 262.1094 L 447.0912 260.6664 L 448.3662 257.7043 L 450.0985 254.317 L 450.3846 253.5897 L 450.7866 251.9634 L 450.9889 250.2761 L 451.0952 247.6863 L 450.9491 237.1415 L 450.9915 233.6712 L 451.2638 231.1309 L 451.7193 229.5 L 452.0737 228.7313 L 453.4836 226.6451 L 455.1614 224.7354 L 458.1981 221.7502 L 460.1431 220.1562 L 461.5365 219.2895 L 462.2704 218.9495 L 469.2005 216.0739 L 472.6582 215.4204 L 476.4728 215.191 L 490.0252 215.1253 L 492.9037 215.1933 L 495.7269 215.4204 L 498.4162 216.0255 L 502.4755 217.8465 L 504.2493 218.3006 L 506.1 218.545 L 511.7645 218.9161 L 514.516 219.3517 L 516.2215 219.9419 L 519.4605 221.416 L 521.1928 221.854 L 523.9183 222.1536 L 530.4412 222.3346 L 533.197 222.5443 L 535.8265 223.1195 L 539.8945 224.9244 L 541.4392 225.3312 L 543.8527 225.6424 L 549.3046 225.9536 L 551.9946 226.3639 L 553.5506 226.8941 L 556.8976 228.4985 L 559.9577 229.3341 Z" fill="#000000" fill-opacity="1" stroke="#000000" stroke-width="0" paint-order="fill" stroke-opacity="1" stroke-dasharray="" stroke-linecap="butt" stroke-linejoin="miter" stroke-miterlimit="10" transform="matrix(1.100000023841858,0,0,1.100000023841858,-39.999935150146484,-26.649986267089844)" clip-path="none" style="filter: url(#f1)"/>
<path data-code="208" d="M 386.0545 443.7264 L 388.3772 443.24 L 389.8242 442.6384 L 391.1191 441.7901 L 392.8973 440.2307 L 394.5103 438.458 L 395.468 437.1729 L 396.3048 435.7507 L 397.9766 432.2653 L 399.9086 432.8059 L 402.5036 433.1701 L 406.0615 433.3556 L 409.6134 433.2807 L 411.3509 433.0502 L 413.0313 432.5431 L 413.7955 432.1558 L 415.1915 431.1762 L 417.05 429.3955 L 418.6604 427.3877 L 419.5387 425.9378 L 420.8569 422.9976 L 422.2901 420.7974 L 427.0479 415.3723 L 428.7231 413.2861 L 429.6567 411.812 L 431.0398 408.8983 L 431.9742 407.4242 L 433.6555 405.3438 L 437.9007 400.6529 L 439.499 398.523 L 440.2986 397.0339 L 441.6082 394.1432 L 443.4658 390.802 L 444.6916 387.8238 L 446.423 384.4375 L 446.71 383.7149 L 447.1353 382.0333 L 447.3531 380.2849 L 447.4716 377.5994 L 447.3955 367.5744 L 447.558 363.0829 L 447.7888 361.3448 L 448.2141 359.6829 L 449.8012 356.2494 L 450.497 353.9373 L 450.8523 350.5534 L 451.0217 342.2734 L 456.2852 341.8493 L 464.83 341.7294 L 472.3945 341.7813 L 476.0692 342.1259 L 477.8162 342.5719 L 482.6059 344.6857 L 486.4638 345.6274 L 487.9826 346.1345 L 495.771 350.5719 L 495.3786 352.454 L 495.1659 354.9758 L 495.3224 357.5045 L 495.7442 359.1435 L 496.5049 360.6452 L 498.0228 362.6599 L 500.9541 365.7476 L 503.4644 368.0193 L 505.4966 369.4231 L 508.3812 370.7255 L 510.9978 372.1513 L 512.3748 372.7713 L 514.739 373.2969 L 519.6238 373.7406 L 521.9828 374.2812 L 523.3529 374.9105 L 525.9695 376.3546 L 528.8688 377.6259 L 531.2477 379.0482 L 534.3043 382.4067 L 537.8311 386.103 L 540.4105 388.6767 L 542.5405 390.6452 L 542.7289 404.2881 L 542.6771 410.9384 L 542.5379 412.7986 L 542.2371 414.6127 L 541.3925 416.9259 L 538.6834 422.4836 L 537.7965 423.726 L 536.1438 425.2877 L 534.8307 426.0934 L 532.7215 427.0707 L 528.727 429.2099 L 527.2593 429.7412 L 524.3643 430.5169 L 522.0433 430.1123 L 520.1969 429.9902 L 518.3531 430.0443 L 516.5482 430.3175 L 514.8375 430.8972 L 510.8854 432.7459 L 505.5286 434.4114 L 502.5455 433.668 L 498.9806 433.275 L 493.5996 433.2369 L 490.1065 433.5988 L 488.4537 434.0483 L 485.1136 435.6688 L 483.6069 436.2002 L 481.0379 436.6105 L 474.846 436.9447 L 472.2692 437.3412 L 470.7521 437.861 L 468.0854 439.1657 L 466.6323 439.6809 L 465.0547 440.0002 L 459.3936 440.694 L 457.8463 441.1055 L 454.4785 442.681 L 453.0194 443.1847 L 451.4366 443.4867 L 445.7635 444.1125 L 443.5004 444.8098 L 440.2035 446.5674 L 438.0546 447.5437 L 436.6101 448.3747 L 434.5528 450.0343 L 430.0068 454.4175 L 427.978 456.1383 L 426.5431 457.0857 L 423.7086 458.478 L 421.5908 459.9832 L 420.2916 461.1854 L 419.0875 462.4901 L 417.6361 464.4748 L 416.9169 465.8982 L 415.6816 468.8084 L 413.1498 473.308 L 412.319 474.4686 L 411.2065 475.3457 L 406.8516 478.1199 L 403.8322 479.7001 L 398.8929 478.959 L 397.3369 478.5533 L 396.5901 478.2386 L 395.9279 477.8525 L 394.7592 476.8729 L 393.8153 475.6707 L 393.4444 474.9942 L 392.9163 473.4647 L 391.9101 468.7519 L 390.4293 465.2493 L 389.9479 463.706 L 389.6462 461.9703 L 389.1656 457.3404 L 388.8414 455.5251 L 388.334 453.9312 L 386.8524 450.4308 L 386.4677 448.8195 L 386.2516 447.1472 L 386.0545 443.7264 Z" fill="#000000" fill-opacity="1" stroke="#000000" stroke-width="0" paint-order="fill" stroke-opacity="1" stroke-dasharray="" stroke-linecap="butt" stroke-linejoin="miter" stroke-miterlimit="10" transform="matrix(1.100000023841858,0,0,1.100000023841858,-39.999935150146484,-26.649986267089844)" clip-path="none" style="filter: url(#f1)"/>
<path data-code="209" d="M 339.885 461.9749 L 337.2001 459.7504 L 335.498 458.1876 L 328.7253 451.2561 L 326.4415 449.0166 L 325.2616 447.9736 L 322.3001 445.6788 L 320.9801 441.2299 L 320.3603 439.757 L 316.1013 433.079 L 318.9937 431.6153 L 322.7841 429.5084 L 323.9269 428.6486 L 324.7784 427.4903 L 327.3223 422.9792 L 328.778 419.2783 L 329.8309 417.2694 L 332.0611 413.6019 L 332.5746 413.0925 L 333.1883 412.6949 L 333.8608 412.4136 L 335.3165 412.0921 L 341.7573 411.8304 L 344.1759 411.4743 L 344.9505 411.2403 L 346.3258 410.6122 L 348.9372 409.145 L 351.8045 407.838 L 354.3787 406.32 L 355.7402 405.647 L 356.5138 405.3853 L 358.1164 405.0557 L 360.5861 404.8943 L 362.2371 404.9669 L 363.8657 405.2078 L 365.4381 405.7023 L 366.197 406.0872 L 367.5957 407.0415 L 370.8381 409.7858 L 372.165 410.7885 L 375.5933 412.6649 L 376.7819 413.5789 L 377.8218 414.6796 L 378.6732 415.9359 L 380.2517 419.5318 L 381.9909 422.895 L 383.2313 425.7983 L 383.6341 426.4414 L 384.6118 427.6009 L 385.7865 428.5552 L 387.1817 429.2422 L 388.71 429.6456 L 392.6094 430.4235 L 397.9766 432.2653 L 396.3048 435.7507 L 395.468 437.1729 L 394.5103 438.458 L 392.8973 440.2307 L 391.1191 441.7901 L 389.8242 442.6384 L 388.3772 443.24 L 386.0545 443.7264 L 385.6301 441.1043 L 385.127 439.7339 L 384.3386 438.3785 L 382.8994 436.5851 L 381.8275 435.5778 L 381.2535 435.1571 L 380.6406 434.8136 L 379.9785 434.5774 L 379.2602 434.4932 L 378.5487 434.5993 L 377.9022 434.854 L 377.3048 435.209 L 376.1923 436.1126 L 372.3872 440.029 L 370.6488 441.6587 L 368.7687 443.0072 L 365.9152 444.373 L 364.6342 445.212 L 362.8301 446.7369 L 358.2219 451.2249 L 356.4222 452.7578 L 355.1446 453.605 L 352.8616 454.6792 L 351.6549 455.3615 L 350.4214 456.2766 L 346.8461 459.3182 L 345.5711 460.1919 L 344.8917 460.5492 L 343.6296 461.0102 L 339.885 461.9749 Z" fill="#000000" fill-opacity="1" stroke="#000000" stroke-width="0" paint-order="fill" stroke-opacity="1" stroke-dasharray="" stroke-linecap="butt" stroke-linejoin="miter" stroke-miterlimit="10" transform="matrix(1.100000023841858,0,0,1.100000023841858,-39.999935150146484,-26.649986267089844)" clip-path="none" style="filter: url(#f1)"/>










</svg>