<?xml version="1.0" standalone="no"?>
<!-- Generator: Paintmaps.com , Online SVG vector map maker -->
<svg xmlns="http://www.w3.org/2000/svg" version="1.1" baseProfile="full"
 width="800" height="500"
 viewBox="0 0 800 533"
  style="background-color:false">
<path data-code="200" d="M 352.6085 200.8369 L 351.391 203.3495 L 350.1628 206.917 L 348.4146 210.7639 L 347.884 213.2116 L 347.4389 217.4219 L 347.1433 219.0675 L 346.6732 220.5241 L 345.5191 223.0749 L 345.051 224.4581 L 344.1263 229.7626 L 343.4988 232.0191 L 342.6765 234.6294 L 341.3156 237.551 L 340.4758 238.5868 L 339.214 239.2753 L 337.0308 239.662 L 331.474 239.884 L 329.133 240.361 L 327.8546 240.9177 L 325.4232 242.2223 L 322.7662 243.4133 L 319.1914 245.5391 L 316.5477 246.7386 L 313.5223 248.381 L 312.1629 248.8761 L 310.6861 249.1629 L 308.4013 249.3414 L 302.0851 249.2415 L 301.1871 247.2559 L 299.0848 244.5245 L 296.6852 241.9663 L 296.2789 239.9541 L 296.9753 239.5674 L 297.7294 239.8776 L 298.0199 238.8715 L 297.4976 238.4073 L 297.6713 236.3962 L 298.0776 235.6993 L 298.9477 235.6993 L 299.5859 236.6278 L 300.0505 236.5502 L 301.617 238.2522 L 302.7193 238.6389 L 303.6476 238.3297 L 304.75 236.4737 L 304.75 235.8544 L 303.0675 234.1524 L 303.009 232.2954 L 301.8488 232.1413 L 299.5859 229.3557 L 298.7155 227.1895 L 297.3812 224.3274 L 296.743 224.3274 L 295.3506 222.3939 L 294.8283 220.846 L 295.0024 219.4542 L 295.8147 219.2991 L 296.453 220.4593 L 298.8318 221.5429 L 299.5282 221.5429 L 299.8182 220.9235 L 301.8488 218.2166 L 302.7193 218.3706 L 303.9958 217.3656 L 304.2277 216.9013 L 305.6786 216.2819 L 306.2005 217.5972 L 306.2587 219.3756 L 305.6205 220.5368 L 305.3878 222.4704 L 305.5041 223.0122 L 306.7228 224.0183 L 307.187 225.0233 L 307.8256 225.4111 L 309.2176 225.5651 L 309.6235 225.1784 L 312.0605 224.6366 L 312.6406 224.0183 L 312.8729 222.9346 L 313.8015 221.2316 L 314.2075 220.0725 L 314.1493 219.3756 L 313.2211 218.2166 L 311.7123 217.8288 L 309.6235 217.7523 L 310.204 216.9778 L 311.4805 213.5739 L 312.0024 213.8841 L 313.047 212.7229 L 314.6135 213.3423 L 315.0194 212.9556 L 314.7876 211.5628 L 315.5417 210.6343 L 317.7465 210.6343 L 318.6751 210.016 L 318.907 208.0049 L 320.1253 207.7722 L 321.228 207.3079 L 322.5619 206.2254 L 323.0264 206.9212 L 321.6922 207.9262 L 321.5181 208.9323 L 322.1567 210.0935 L 323.2587 210.17 L 324.071 210.9445 L 324.7088 210.7894 L 324.8252 209.4741 L 325.5793 209.165 L 326.798 207.3079 L 328.2478 207.5406 L 329.1187 207.1539 L 329.6987 208.0813 L 330.7437 206.6121 L 330.7437 205.7611 L 330.1629 205.4519 L 330.3951 204.601 L 331.2652 204.2142 L 330.5692 203.2857 L 330.3951 202.048 L 329.5828 201.0419 L 328.1386 200.3461 L 333.0011 196.3164 L 334.7532 195.1467 L 336.8428 194.4519 L 339.069 194.3584 L 340.5276 194.5879 L 341.8614 195.0724 L 344.8514 196.769 L 348.1636 198.2702 L 352.6085 200.8369 Z M 293.0877 210.6343 L 294.0741 211.4852 L 294.1319 212.3362 L 293.7841 213.4199 L 293.0877 213.6515 L 291.5798 213.0331 L 291.9276 211.4852 L 293.0877 210.6343 Z" fill="#000" fill-opacity="1" stroke="#000" stroke-width="0" paint-order="fill" stroke-opacity="1" stroke-dasharray="" stroke-linecap="butt" stroke-linejoin="miter" stroke-miterlimit="10" transform="matrix(1.149999976158142,0,0,1.149999976158142,-59.99998474121094,-39.97494125366211)" clip-path="none"/>
<path data-code="201" d="M 330.8011 352.3295 L 330.4155 351.4159 L 328.5852 348.1034 L 327.4088 345.6641 L 325.3176 343.398 L 324.4025 341.1319 L 323.0953 338.6927 L 322.4416 336.2524 L 322.4416 333.793 L 323.375 333.7154 L 324.4188 334.1032 L 324.6511 334.6439 L 325.4638 334.7215 L 327.0881 334.1797 L 328.3649 334.1032 L 329.4669 333.5614 L 330.0469 333.6389 L 331.3238 335.4949 L 332.368 336.0367 L 332.2517 336.5785 L 332.9481 337.2744 L 335.6169 338.2029 L 336.3105 337.8162 L 336.4285 340.9577 L 336.4285 348.2786 L 335.644 350.5437 L 334.0755 351.5891 L 330.8011 352.3295 Z" fill="#000" fill-opacity="1" stroke="#000" stroke-width="0" paint-order="fill" stroke-opacity="1" stroke-dasharray="" stroke-linecap="butt" stroke-linejoin="miter" stroke-miterlimit="10" transform="matrix(1.149999976158142,0,0,1.149999976158142,-59.99998474121094,-39.97494125366211)" clip-path="none"/>
<path data-code="202" d="M 477.3779 395.6273 L 476.5274 399.7323 L 476.06 404.5163 L 475.6999 405.9665 L 474.9278 407.2434 L 474.3059 407.7428 L 472.8669 408.3069 L 469.6036 408.5895 L 457.0004 408.3568 L 427.1899 408.326 L 424.5506 408.5619 L 422.8466 408.9167 L 418.0157 410.5709 L 416.8516 408.1135 L 416.0305 406.0238 L 414.5301 403.5612 L 411.8154 400.2593 L 411.0876 399.0641 L 410.6437 397.6734 L 410.6083 396.1797 L 410.9664 394.7837 L 412.562 391.775 L 413.813 389.0925 L 415.0508 387.33 L 417.4157 384.5858 L 418.279 383.4321 L 418.9686 382.1562 L 419.3822 380.6603 L 419.5136 379.1156 L 419.4121 377.5666 L 419.0487 376.0548 L 418.4822 374.8108 L 416.246 371.1817 L 417.9193 370.6016 L 422.4482 368.7552 L 424.3673 367.4474 L 427.3457 364.8721 L 428.5831 363.9319 L 434.9005 360.6396 L 436.9873 360 L 442.235 359.4847 L 444.421 358.9982 L 448.1348 357.1379 L 451.4296 355.7058 L 455.8343 352.8193 L 456.6342 351.7548 L 457.0593 350.4512 L 457.6191 345.3008 L 458.2127 343.159 L 459.7971 340.0143 L 460.6732 337.9607 L 461.3991 336.6147 L 462.3126 335.343 L 464.7886 332.2727 L 465.9965 330.2414 L 466.6308 328.0114 L 467.5272 322.6963 L 469.3184 323.474 L 472.6103 324.7085 L 474.2187 325.9047 L 475.1684 326.9947 L 475.9031 328.2483 L 476.8066 330.2435 L 477.5313 331.4483 L 480.6225 335.4726 L 481.4245 336.6688 L 482.9288 340.0387 L 484.9359 343.7603 L 486.0574 346.5225 L 489.0414 351.4871 L 485.9721 356.679 L 484.8068 359.4401 L 483.2304 362.5774 L 482.7392 364.052 L 482.3252 367.4399 L 482.2742 377.0981 L 481.9854 380.5233 L 481.5946 382.1487 L 480.1751 385.3508 L 479.6986 386.7212 L 478.7074 392.0151 L 478.2676 393.4972 L 477.3779 395.6273 Z" fill="#000" fill-opacity="1" stroke="#000" stroke-width="0" paint-order="fill" stroke-opacity="1" stroke-dasharray="" stroke-linecap="butt" stroke-linejoin="miter" stroke-miterlimit="10" transform="matrix(1.149999976158142,0,0,1.149999976158142,-59.99998474121094,-39.97494125366211)" clip-path="none"/>
<path data-code="203" d="M 308.6909 186.5573 L 314.0358 180.3572 L 315.4569 178.4534 L 317.0764 175.0623 L 318.7086 171.9537 L 319.1962 170.5428 L 319.5695 167.4449 L 319.5002 165.0896 L 319.2934 163.5481 L 318.6393 161.4137 L 317.1433 158.2627 L 316.7425 156.7328 L 316.5246 155.1297 L 316.3843 152.6586 L 316.3381 149.3078 L 316.4377 140.0841 L 316.7126 137.6523 L 317.1246 136.1065 L 317.7202 134.8104 L 319.0867 132.3552 L 320.2918 129.6706 L 321.8958 126.7044 L 322.2691 125.3275 L 322.2479 123.8433 L 321.4161 121.862 L 320.4982 120.8325 L 319.393 120.0155 L 316.8046 118.8724 L 313.1012 117.0653 L 311.6817 116.6701 L 308.7961 116.0879 L 307.3937 115.6226 L 305.4229 114.4168 L 301.1756 110.9863 L 297.3382 108.8913 L 294.5426 106.6517 L 296.747 104.7809 L 297.9318 104.0149 L 300.5975 102.8473 L 304.1918 100.7735 L 306.8615 99.624 L 308.6084 98.4288 L 311.2809 95.9343 L 320.1922 86.682 L 327.9753 78.6588 L 339.7148 66.4987 L 342.267 64.0021 L 344.4761 62.2651 L 347.6995 60.7395 L 349.4106 59.5592 L 351.4572 57.564 L 353.0914 55.4233 L 354.4053 53.2995 L 356.765 54.193 L 359.2482 54.6413 L 361.8047 54.7911 L 368.6731 54.8846 L 371.9881 55.3308 L 373.4176 55.8482 L 376.4318 57.4971 L 379.068 58.6922 L 382.0915 60.3283 L 383.4926 60.833 L 385.8659 61.2239 L 390.7566 61.4853 L 393.1601 61.7509 L 394.6919 62.1344 L 397.8014 63.5357 L 400.5834 64.2517 L 402.6408 64.426 L 406.6339 70.7058 L 408.1299 74.0831 L 409.7119 77.2182 L 410.2127 78.594 L 411.4226 83.7264 L 412.8401 86.9178 L 413.3102 88.3892 L 413.7162 91.7772 L 413.7576 100.5621 L 413.9604 104.0149 L 414.4855 106.4658 L 416.1687 110.3042 L 416.5703 111.9084 L 416.7771 113.5849 L 416.8547 116.1601 L 416.7065 118.7524 L 416.4516 120.4618 L 415.8568 122.8086 L 413.9939 123.5947 L 410.9605 125.2574 L 408.8187 125.9394 L 405.669 126.2412 L 395.1178 126.1668 L 391.1323 126.374 L 388.8626 126.8839 L 385.7687 128.3723 L 384.4504 128.8684 L 380.8568 129.6567 L 379.4413 130.0849 L 375.7733 132.0142 L 373.8212 132.9108 L 372.0718 134.0593 L 370.6507 135.5073 L 368.7751 138.1112 L 366.2472 139.9938 L 364.4915 142.0644 L 363.8867 143.4444 L 363.5489 145.0125 L 363.3457 147.4656 L 363.337 156.7265 L 363.6557 159.9997 L 364.0999 161.5646 L 365.2875 163.6362 L 366.8134 165.4933 L 370.2001 169.0119 L 373.1375 171.8177 L 375.6147 173.7661 L 378.8856 175.4235 L 381.3732 177.2741 L 383.0361 178.975 L 384.8484 181.546 L 386.0216 184.2817 L 387.6766 187.3892 L 389.0849 190.7952 L 390.069 192.6661 L 387.4128 193.8145 L 382.5528 195.0788 L 379.5792 196.4737 L 378.0123 197.0091 L 375.5267 197.3799 L 367.8101 197.6126 L 365.2991 197.8856 L 363.7027 198.2893 L 360.7151 199.6449 L 359.1534 200.1867 L 356.6515 200.5894 L 352.6085 200.8369 L 348.1636 198.2702 L 344.8514 196.769 L 341.8614 195.0724 L 340.5276 194.5879 L 339.069 194.3584 L 336.8428 194.4519 L 334.7532 195.1467 L 333.0011 196.3164 L 328.1386 200.3461 L 327.1458 200.4226 L 326.7399 201.1195 L 325.9275 200.4226 L 326.7399 197.7156 L 326.5658 196.0137 L 328.0163 195.7045 L 329.4087 194.8535 L 329.3505 193.7699 L 328.8864 192.8414 L 328.5386 190.7527 L 328.7705 189.9017 L 327.7837 188.3549 L 325.4048 187.1948 L 324.2447 188.1222 L 323.3746 189.2834 L 323.2005 189.9793 L 321.5181 190.4435 L 320.4157 191.9128 L 320.2994 193.7699 L 321.0539 193.4607 L 321.2276 194.776 L 319.8352 194.6984 L 319.1966 194.93 L 317.2823 194.4658 L 316.5282 193.925 L 315.5999 193.7699 L 314.0912 192.9965 L 314.0912 192.5322 L 312.2346 191.0619 L 311.3064 190.9078 L 310.7259 189.9793 L 308.9275 188.3549 L 308.6949 187.7355 L 309.9717 187.2712 L 310.5522 186.4978 L 308.6909 186.5573 Z" fill="#000" fill-opacity="1" stroke="#000" stroke-width="0" paint-order="fill" stroke-opacity="1" stroke-dasharray="" stroke-linecap="butt" stroke-linejoin="miter" stroke-miterlimit="10" transform="matrix(1.149999976158142,0,0,1.149999976158142,-59.99998474121094,-39.97494125366211)" clip-path="none"/>
<path data-code="204" d="M 556.0895 441.0328 L 552.7836 436.0693 L 551.8072 434.1527 L 551.4398 432.6537 L 551.3614 430.3473 L 551.5916 428.8323 L 552.0709 427.4363 L 553.7167 424.3724 L 554.9015 421.6601 L 556.5433 418.5547 L 557.0417 417.1619 L 557.4449 414.8682 L 558.1293 408.1454 L 563.2929 408.4089 L 573.5273 408.3717 L 576.044 408.462 L 578.4798 408.8307 L 579.8981 409.3534 L 583.8948 411.7777 L 585.3219 413.1057 L 586.7585 415.4217 L 587.678 416.6222 L 589.2624 418.3486 L 590.417 419.411 L 592.2779 420.7475 L 595.373 422.4463 L 596.8865 423.8699 L 597.702 425.0034 L 598.9434 427.653 L 600.8247 431.2099 L 601.4219 432.7121 L 602.3689 435.8504 L 598.0698 437.1115 L 593.8428 437.9487 L 592.2129 438.4172 L 588.5162 440.1191 L 584.3597 441.4885 L 583.139 442.5467 L 580.0467 443.5857 L 576.6739 444.0234 L 574.1034 444.0032 L 572.3915 443.8407 L 568.5613 443.0821 L 567.5785 442.3512 L 565.7566 441.4514 L 564.2049 441.0923 L 560.9213 440.8554 L 556.0895 441.0328 Z" fill="#000" fill-opacity="1" stroke="#000" stroke-width="0" paint-order="fill" stroke-opacity="1" stroke-dasharray="" stroke-linecap="butt" stroke-linejoin="miter" stroke-miterlimit="10" transform="matrix(1.149999976158142,0,0,1.149999976158142,-59.99998474121094,-39.97494125366211)" clip-path="none"/>
<path data-code="205" d="M 391.4785 288.3141 L 389.722 290.6174 L 389.0232 291.8827 L 388.5319 293.3329 L 387.6802 297.0066 L 386.2842 300.0302 L 385.8471 301.2222 L 385.7814 302.5619 L 386.2356 303.8049 L 387.1555 304.6505 L 391.0737 306.8507 L 394.2254 308.1468 L 395.2724 308.9075 L 396.076 309.8966 L 396.4939 311.1237 L 396.3505 312.3837 L 394.5326 316.6438 L 393.839 317.9506 L 392.0123 320.239 L 389.8753 322.2533 L 388.0973 323.4708 L 385.4069 324.6479 L 382.3448 326.2627 L 381.0174 326.7536 L 378.8676 327.2093 L 379.3549 329.5466 L 380.4768 332.4767 L 380.6931 333.6899 L 380.4827 334.9042 L 379.811 336.6678 L 378.7023 337.8438 L 378.2043 338.3708 L 373.9399 341.116 L 369.4547 343.0761 L 365.999 343.1749 L 361.7342 342.9784 L 356.6276 343.2344 L 355.2101 339.5989 L 357.3614 336.6083 L 356.428 332.9409 L 356.3319 330.3816 L 356.1666 329.6294 L 356.071 325.5541 L 357.9108 325.6264 L 359.0136 324.8413 L 359.9697 322.9789 L 360.4844 320.92 L 360.337 318.8611 L 359.308 317.293 L 357.5431 315.7249 L 355.8519 314.6455 L 351.1464 314.5478 L 349.7492 313.7637 L 349.3815 311.9991 L 349.4548 307.8812 L 349.97 304.744 L 351.1464 301.8033 L 351.6607 298.9604 L 351.1747 297.3859 L 355.9049 297.3859 L 361.3952 295.992 L 363.5473 294.5036 L 366.1484 294.1222 L 369.8292 292.3077 L 373.3148 291.0753 L 375.9701 289.8334 L 378.2924 288.7508 L 381.7735 287.4589 L 384.6484 285.945 L 386.7854 285.3501 L 388.808 285.4436 L 389.9949 285.9068 L 390.8594 286.7599 L 391.4785 288.3141 Z" fill="#000" fill-opacity="1" stroke="#000" stroke-width="0" paint-order="fill" stroke-opacity="1" stroke-dasharray="" stroke-linecap="butt" stroke-linejoin="miter" stroke-miterlimit="10" transform="matrix(1.149999976158142,0,0,1.149999976158142,-59.99998474121094,-39.97494125366211)" clip-path="none"/>
<path data-code="206" d="M 366.2162 366.8896 L 365.4477 365.0102 L 364.1405 362.7442 L 362.0489 360.3038 L 359.696 358.0378 L 355.9049 355.5985 L 351.4608 352.1128 L 349.8206 350.7062 L 348.9772 348.6271 L 350.415 345.8383 L 351.1994 343.2238 L 351.3137 342.1561 L 355.2101 339.5989 L 356.6276 343.2344 L 361.7342 342.9784 L 365.999 343.1749 L 369.4547 343.0761 L 373.9399 341.116 L 378.2043 338.3708 L 378.7023 337.8438 L 380.3708 339.2441 L 384.554 342.9624 L 388.3881 346.9135 L 392.3968 353.1869 L 393.094 356.6726 L 393.2147 359.5687 L 391.3725 359.5634 L 385.1806 359.7493 L 381.3871 363.44 L 379.1274 365.159 L 377.8055 365.756 L 373.5498 366.7196 L 370.0013 367.9552 L 368.2185 367.7746 L 366.2162 366.8896 Z" fill="#000" fill-opacity="1" stroke="#000" stroke-width="0" paint-order="fill" stroke-opacity="1" stroke-dasharray="" stroke-linecap="butt" stroke-linejoin="miter" stroke-miterlimit="10" transform="matrix(1.149999976158142,0,0,1.149999976158142,-59.99998474121094,-39.97494125366211)" clip-path="none"/>
<path data-code="207" d="M 203.7377 350.5808 L 203.3425 353.0509 L 203.3425 355.3074 L 205.7959 359.6409 L 206.9357 362.4106 L 208.5237 365.5393 L 209.0089 366.9714 L 209.289 368.5565 L 209.4635 371.0106 L 209.5324 380.2396 L 209.3946 385.2084 L 209.1731 386.8147 L 208.7245 388.3648 L 207.9671 389.7841 L 207.0122 391.0749 L 204.6058 393.698 L 205.0704 392.2786 L 204.4903 391.9684 L 203.3298 393.2061 L 202.8656 392.8194 L 202.9816 391.6592 L 202.7501 390.8858 L 201.9374 390.9634 L 200.6609 390.344 L 200.3127 389.6481 L 201.3569 388.7972 L 200.8928 388.2553 L 198.9199 388.1778 L 198.3399 387.4044 L 196.4252 387.3268 L 196.3096 387.8686 L 197.2957 390.2664 L 198.2821 391.195 L 198.514 392.046 L 198.4566 393.5163 L 196.9475 392.9745 L 196.5419 392.1235 L 195.8455 391.8908 L 195.1487 390.6532 L 194.5105 391.0399 L 194.1631 389.8022 L 192.7699 388.8747 L 192.1898 388.8747 L 189.8106 386.7085 L 190.2747 385.8575 L 190.3911 384.8514 L 190.0429 384.2321 L 189.9851 383.1495 L 191.2616 381.8343 L 192.0739 381.9894 L 192.4221 381.5251 L 192.1898 378.8946 L 190.9715 377.6569 L 190.2747 376.4968 L 188.3604 376.7284 L 188.4764 377.6569 L 189.115 377.9661 L 189.4046 378.8171 L 189.1728 379.514 L 189.3465 380.5966 L 187.8963 380.9833 L 187.4318 382.221 L 186.6198 382.6077 L 186.7358 383.227 L 185.5756 384.2321 L 185.2848 385.8575 L 184.4733 385.934 L 182.7905 385.3933 L 181.0499 385.6249 L 180.1794 385.4708 L 179.3678 386.2442 L 178.0328 386.0116 L 177.4527 384.929 L 176.2344 385.0066 L 175.2476 383.7689 L 174.4357 383.4586 L 173.9134 382.6852 L 172.6947 382.2985 L 172.521 380.365 L 171.5923 379.9772 L 171.8246 378.1988 L 170.8382 376.9611 L 169.6776 376.806 L 168.8657 375.7234 L 167.4729 374.9489 L 166.1387 374.7949 L 165.5582 374.1755 L 163.122 374.3306 L 162.3093 374.0979 L 161.6129 374.6397 L 160.6846 374.4846 L 159.9305 374.8724 L 159.5245 375.955 L 158.5958 375.8774 L 156.9712 375.0265 L 156.6815 374.0979 L 156.6815 372.5511 L 157.2034 372.0093 L 157.0875 369.8431 L 157.3194 367.3677 L 159.06 366.981 L 159.8141 367.3677 L 159.4663 368.2962 L 160.3946 369.689 L 161.2647 369.9206 L 161.9615 369.0696 L 162.5993 369.3023 L 163.5854 369.1472 L 164.2817 368.5278 L 165.3841 368.3738 L 166.2546 367.9095 L 167.0088 366.981 L 167.5888 364.8923 L 167.0088 362.8812 L 166.8928 360.2507 L 167.2988 359.013 L 168.1115 359.3222 L 168.1693 360.5599 L 168.6916 360.5599 L 169.7358 359.9416 L 170.084 359.3222 L 171.2449 359.4773 L 171.5923 358.7039 L 170.1999 357.6202 L 169.3876 354.9898 L 168.1693 353.9072 L 167.6474 351.5859 L 167.8789 349.8074 L 167.8789 347.177 L 167.7629 345.3974 L 168.4012 345.9393 L 169.3876 347.7177 L 170.4904 348.6462 L 170.6641 349.8839 L 171.8246 350.2706 L 172.2306 349.4197 L 171.7091 347.7953 L 172.3469 346.9443 L 172.9851 346.9443 L 173.507 346.0158 L 173.3915 345.0883 L 173.7974 344.2373 L 174.6094 344.3914 L 174.5516 347.177 L 175.2476 348.2595 L 174.8416 349.4972 L 176.1181 349.6523 L 176.4077 351.1216 L 175.7699 351.3543 L 176.0018 352.8236 L 175.1317 352.3604 L 174.6094 352.9787 L 175.0739 354.2939 L 173.7974 354.9133 L 174.7835 355.3765 L 175.3058 357.2335 L 176.6404 358.4712 L 177.5105 358.4712 L 178.2069 358.9355 L 179.7734 358.5488 L 179.9475 356.6152 L 180.7594 356.3826 L 180.6439 358.1621 L 180.8758 359.3222 L 180.528 360.0956 L 182.3845 361.7211 L 183.951 361.7976 L 183.8346 362.9588 L 184.5888 363.422 L 185.7493 363.4995 L 187.1421 363.2679 L 188.3604 362.571 L 188.9405 361.4109 L 188.6509 359.7865 L 189.115 359.4773 L 189.1728 357.7754 L 189.521 357.3886 L 188.8823 356.6152 L 188.5345 355.5316 L 188.5345 353.6745 L 188.7086 352.4368 L 189.6369 352.2828 L 189.9851 354.7582 L 190.7974 353.6745 L 191.4357 353.7521 L 191.8416 354.9133 L 192.3639 355.454 L 192.538 356.6917 L 191.2034 357.4662 L 190.9134 359.1682 L 191.7257 358.7804 L 192.538 359.0906 L 193.234 357.8529 L 193.8145 357.9294 L 194.1045 356.6917 L 194.975 356.3826 L 195.9033 356.9244 L 197.2379 356.305 L 197.1797 354.9898 L 197.4116 354.2163 L 198.3976 354.2939 L 198.7462 353.5205 L 199.6064 352.8236 L 200.1968 353.3654 L 200.8928 353.2878 L 201.1251 352.2828 L 202.9816 352.1277 L 202.7501 351.1216 L 203.7377 350.5808 Z M 202.9816 393.1296 L 202.8656 393.9806 L 201.9374 394.5989 L 201.1251 393.3612 L 202.9816 393.1296 Z M 199.0944 393.8255 L 199.3845 395.2182 L 198.8618 395.4499 L 197.9921 395.0631 L 199.0944 393.8255 Z M 200.1386 396.6875 L 200.545 397.1518 L 200.545 398.1579 L 199.6745 397.6161 L 200.1386 396.6875 Z" fill="#000" fill-opacity="1" stroke="#000" stroke-width="0" paint-order="fill" stroke-opacity="1" stroke-dasharray="" stroke-linecap="butt" stroke-linejoin="miter" stroke-miterlimit="10" transform="matrix(1.149999976158142,0,0,1.149999976158142,-59.99998474121094,-39.97494125366211)" clip-path="none"/>
<path data-code="208" d="M 333.5819 319.0948 L 332.1939 319.1723 L 331.7875 320.4876 L 332.7158 320.5641 L 332.658 321.261 L 331.672 321.5702 L 330.5692 321.415 L 330.5111 320.5641 L 329.6987 320.6416 L 328.4223 319.559 L 328.0163 319.9458 L 326.2176 319.4815 L 325.5793 320.1009 L 324.4188 319.4039 L 323.085 318.9397 L 322.5041 320.1009 L 320.8798 319.6366 L 320.2994 320.8743 L 316.4126 321.8028 L 316.47 322.7303 L 315.8895 323.0405 L 315.3676 321.8028 L 314.4979 322.0344 L 314.0912 323.7364 L 313.1629 323.4272 L 312.0024 322.5762 L 311.4805 323.3497 L 312.1187 324.4322 L 311.7123 325.7475 L 310.7841 325.3608 L 310.7259 324.6649 L 309.8558 324.5873 L 309.7399 325.6699 L 308.6375 325.1292 L 307.9411 325.6699 L 307.7666 327.3719 L 307.0129 326.7536 L 307.4188 325.6699 L 306.136 324.8189 L 305.8519 325.2832 L 304.8081 324.9741 L 304.4599 323.4272 L 303.1835 322.6538 L 300.6887 322.9629 L 300.7465 322.112 L 301.5588 321.9569 L 301.617 321.261 L 301.2106 319.7131 L 301.2688 318.9397 L 299.4119 316.0776 L 299.2959 315.1491 L 298.5418 314.0665 L 297.2649 312.6737 L 295.1765 310.8166 L 293.204 308.8831 L 293.32 308.4507 L 293.3574 308.4188 L 293.3777 308.4018 L 293.4395 308.3487 L 294.6765 307.2927 L 295.706 305.8223 L 296.8824 305.5281 L 298.5736 305.6258 L 303.2795 307.6847 L 305.4854 307.7835 L 311.294 307.7835 L 313.794 307.1949 L 317.0289 306.9995 L 320.4707 306.6064 L 322.0352 305.3687 L 323.1941 304.7196 L 325.3204 303.7974 L 328.9832 301.8596 L 330.7876 301.4017 L 332.9114 301.1181 L 332.9847 307.2927 L 333.5732 310.1356 L 333.6465 313.9592 L 333.4994 317.3907 L 333.5819 319.0948 Z" fill="#000" fill-opacity="1" stroke="#000" stroke-width="0" paint-order="fill" stroke-opacity="1" stroke-dasharray="" stroke-linecap="butt" stroke-linejoin="miter" stroke-miterlimit="10" transform="matrix(1.149999976158142,0,0,1.149999976158142,-59.99998474121094,-39.97494125366211)" clip-path="none"/>
<path data-code="209" d="M 294.5426 106.6517 L 297.3382 108.8913 L 301.1756 110.9863 L 305.4229 114.4168 L 307.3937 115.6226 L 308.7961 116.0879 L 311.6817 116.6701 L 313.1012 117.0653 L 316.8046 118.8724 L 319.393 120.0155 L 320.4982 120.8325 L 321.4161 121.862 L 322.2479 123.8433 L 322.2691 125.3275 L 321.8958 126.7044 L 320.2918 129.6706 L 319.0867 132.3552 L 317.7202 134.8104 L 317.1246 136.1065 L 316.7126 137.6523 L 316.4377 140.0841 L 316.3381 149.3078 L 316.3843 152.6586 L 316.5246 155.1297 L 316.7425 156.7328 L 317.1433 158.2627 L 318.6393 161.4137 L 319.2934 163.5481 L 319.5002 165.0896 L 319.5695 167.4449 L 319.1962 170.5428 L 318.7086 171.9537 L 317.0764 175.0623 L 315.4569 178.4534 L 314.0358 180.3572 L 308.6909 186.5573 L 307.5348 188.664 L 307.187 188.9732 L 306.4906 187.7355 L 305.3878 187.659 L 304.2858 188.0457 L 304.0536 189.2834 L 304.8081 190.366 L 304.8659 191.3721 L 303.6476 190.8303 L 303.4735 189.515 L 302.4867 188.1222 L 301.2106 187.5039 L 300.5724 187.5039 L 299.6437 188.5089 L 298.1936 189.2834 L 296.2211 190.0568 L 295.1765 190.2884 L 294.5383 190.9078 L 294.3064 191.9128 L 293.4355 191.9128 L 292.4495 192.5322 L 292.2758 194.0025 L 291.5208 194.1566 L 290.5925 193.3832 L 289.6651 193.925 L 289.3747 194.5433 L 287.8659 194.6984 L 286.6476 194.1566 L 286.7636 193.2281 L 287.6918 192.3771 L 286.9958 191.7588 L 286.8217 190.0568 L 286.0094 189.0507 L 284.907 188.7416 L 282.4119 189.2834 L 281.8318 189.2834 L 280.9613 188.5865 L 280.3816 188.5865 L 279.453 187.9682 L 278.8729 186.6529 L 278.8148 184.7959 L 277.7128 183.5582 L 276.2037 184.5643 L 275.2176 182.9399 L 275.2754 181.9338 L 274.9272 181.3144 L 275.6818 180.4634 L 275.6236 178.2207 L 274.9272 175.8219 L 274.9272 174.7393 L 275.3913 173.9659 L 275.1017 172.8822 L 275.2176 171.567 L 275.9136 170.9487 L 275.6818 169.7885 L 276.0877 168.9376 L 276.1459 167.8539 L 277.306 166.6162 L 278.0606 166.5387 L 278.9307 165.0694 L 278.9889 163.9082 L 278.0606 164.296 L 278.0024 165.2235 L 276.32 165.9204 L 275.9136 166.4611 L 275.3913 165.147 L 275.5077 164.5276 L 274.6953 163.8317 L 275.6236 162.7481 L 275.5077 161.6655 L 276.4937 161.0461 L 276.7256 159.9636 L 277.306 160.2727 L 278.3506 160.0411 L 278.5825 159.035 L 279.453 160.4278 L 280.5553 160.1176 L 281.8318 159.3442 L 281.8318 158.8024 L 282.876 158.1065 L 283.6887 158.1065 L 283.8624 157.3331 L 285.4289 156.4045 L 286.1253 155.3985 L 286.3576 154.5486 L 287.2859 155.0118 L 288.9105 154.3159 L 289.9547 152.769 L 291.3475 153.0782 L 292.2758 152.8466 L 293.6678 151.6854 L 294.016 150.2161 L 293.8996 148.9009 L 292.9718 146.2704 L 292.9718 145.8061 L 291.8116 143.4859 L 291.9276 142.789 L 291.2889 142.4798 L 290.0129 140.8554 L 289.6651 139.9269 L 288.5623 138.4565 L 287.9819 138.4565 L 286.9377 137.2964 L 286.7054 136.0587 L 286.2409 134.9761 L 284.3266 132.8875 L 283.1664 131.108 L 280.9035 129.5601 L 279.6849 128.0908 L 278.3506 127.0847 L 275.0435 125.6154 L 270.9237 124.6869 L 269.2995 124.6093 L 268.313 122.4378 L 270.3723 122.8086 L 272.5587 122.8415 L 273.2364 121.2012 L 274.0826 120.3438 L 275.2196 119.8339 L 278.4889 118.848 L 279.7653 118.1107 L 281.5537 116.668 L 285.5241 112.8572 L 287.2767 111.3464 L 288.5201 110.5093 L 291.734 108.8689 L 294.5426 106.6517 Z M 273.0707 167.2356 L 273.3607 168.0866 L 272.9547 170.0977 L 272.2583 170.4069 L 272.1424 169.0141 L 271.6779 168.4733 L 271.9679 167.5448 L 273.0707 167.2356 Z M 275.4495 167.5448 L 274.9854 169.4783 L 275.0435 171.2578 L 274.6376 171.7221 L 273.8826 171.4905 L 273.8826 170.4069 L 274.3467 169.2467 L 274.5212 167.8539 L 275.4495 167.5448 Z M 277.9447 190.8303 L 278.7566 191.4496 L 279.1048 192.3006 L 280.7876 191.9128 L 281.2517 192.6873 L 281.2517 193.925 L 280.1498 195.6269 L 279.3371 195.3167 L 278.8729 194.4658 L 277.4805 194.1566 L 277.2487 193.3832 L 278.0024 192.9965 L 278.0606 191.9904 L 277.1319 191.9904 L 277.1897 190.9854 L 277.9447 190.8303 Z M 282.8182 196.0912 L 283.0501 196.7095 L 283.921 197.4064 L 283.4569 198.2574 L 282.3541 196.8646 L 282.8182 196.0912 Z" fill="#000" fill-opacity="1" stroke="#000" stroke-width="0" paint-order="fill" stroke-opacity="1" stroke-dasharray="" stroke-linecap="butt" stroke-linejoin="miter" stroke-miterlimit="10" transform="matrix(1.149999976158142,0,0,1.149999976158142,-59.99998474121094,-39.97494125366211)" clip-path="none"/>
<path data-code="210" d="M 296.6852 241.9663 L 299.0848 244.5245 L 301.1871 247.2559 L 302.0851 249.2415 L 305.2862 254.1126 L 305.9977 255.3545 L 306.5101 256.7633 L 306.781 259.0665 L 306.685 260.6123 L 306.342 262.1188 L 305.7703 263.4287 L 304.454 265.8711 L 303.5819 267.8812 L 302.8576 269.1465 L 301.4401 270.7326 L 300.3106 271.5719 L 297.7167 272.7937 L 295.3498 274.0367 L 294.0861 274.4978 L 292.6718 274.6263 L 290.7041 274.1472 L 288.4818 272.97 L 287.2122 272.5897 L 285.8186 272.5971 L 284.5047 273.0561 L 283.4174 273.8646 L 282.5254 274.8993 L 281.8366 276.1296 L 280.9948 278.1226 L 280.3095 279.321 L 277.5383 282.9438 L 277.1897 281.8846 L 275.9718 281.5743 L 275.9718 279.4081 L 275.6818 279.0214 L 274.6376 278.8674 L 273.9412 279.099 L 273.1288 278.0929 L 270.9819 277.2419 L 270.75 278.248 L 269.9377 277.7837 L 268.719 277.4746 L 268.3708 277.9388 L 266.7469 277.7837 L 267.0366 276.546 L 266.2238 274.1482 L 266.9206 273.7615 L 267.3266 272.9881 L 268.2549 272.833 L 268.1385 270.7443 L 266.5724 271.5953 L 266.1083 272.2912 L 265.18 272.5238 L 263.9036 271.5953 L 263.9036 269.8158 L 263.6135 269.4291 L 262.2789 269.6607 L 261.5247 268.3454 L 262.0466 267.7271 L 261.7566 267.0313 L 260.7124 266.7986 L 260.0156 268.1914 L 259.4937 267.7271 L 259.4937 266.8762 L 261.2925 266.3343 L 262.0466 265.2518 L 261.8725 264.5548 L 262.6849 264.0906 L 263.5554 264.4783 L 263.7295 263.0856 L 264.3095 263.008 L 264.1936 264.1681 L 265.0637 264.3232 L 265.7597 263.4723 L 265.4119 262.6213 L 266.1661 262.3886 L 265.876 261.4612 L 264.3095 260.3 L 262.9749 260.3775 L 262.6849 260.0684 L 263.3227 259.1398 L 262.453 259.0623 L 261.8725 258.2889 L 262.3948 257.9022 L 262.0466 257.0512 L 260.7706 255.5819 L 261.3506 254.885 L 261.5247 252.5647 L 261.0028 251.9453 L 260.7706 250.1658 L 261.4084 249.7791 L 261.5247 248.6965 L 260.4798 248.6965 L 260.8283 247.768 L 260.7706 246.6844 L 261.5247 246.6079 L 261.9307 245.7569 L 262.6271 245.3702 L 263.7295 245.6018 L 263.4972 244.2866 L 262.9749 244.055 L 263.2653 242.7397 L 264.1354 242.6622 L 265.5278 243.1264 L 265.992 243.5907 L 267.2111 244.1314 L 267.0947 243.2805 L 268.1385 242.9713 L 268.7772 243.204 L 269.4736 244.4417 L 269.9377 243.358 L 272.491 243.2805 L 272.3165 242.4295 L 272.8966 242.0428 L 272.8966 241.3469 L 273.7089 240.7286 L 274.5794 241.3469 L 275.2176 240.6511 L 276.6678 240.1868 L 277.306 239.645 L 277.9447 239.7225 L 278.8148 239.2583 L 278.8148 238.5624 L 279.453 238.1757 L 280.4394 236.8604 L 282.1218 237.092 L 282.8182 239.8001 L 282.4119 240.7275 L 282.5286 241.7336 L 283.2246 242.507 L 284.0947 242.507 L 285.7767 240.8827 L 286.4154 240.5735 L 286.5317 239.8001 L 287.8659 239.4134 L 288.9105 240.6511 L 289.3747 241.8112 L 290.4188 242.353 L 291.0567 243.0489 L 291.6953 244.3641 L 293.4355 245.2151 L 294.3638 245.2151 L 295.8729 244.5957 L 296.453 243.2805 L 296.6852 241.9663 Z M 256.7667 253.4157 L 256.8249 253.8799 L 258.9137 256.2002 L 259.8419 255.9686 L 260.1901 256.4329 L 259.6101 257.9022 L 258.9718 257.6705 L 257.2308 256.4329 L 256.6508 256.5094 L 256.3607 255.7359 L 256.3607 254.5758 L 256.7667 253.4157 Z M 258.624 260.3 L 257.6368 261.6928 L 257.1727 261.0744 L 258.624 260.3 Z M 260.1901 260.6102 L 261.0028 261.4612 L 260.5387 262.4662 L 259.6678 261.306 L 260.1901 260.6102 Z" fill="#000" fill-opacity="1" stroke="#000" stroke-width="0" paint-order="fill" stroke-opacity="1" stroke-dasharray="" stroke-linecap="butt" stroke-linejoin="miter" stroke-miterlimit="10" transform="matrix(1.149999976158142,0,0,1.149999976158142,-59.99998474121094,-39.97494125366211)" clip-path="none"/>
<path data-code="211" d="M 366.2162 366.8896 L 362.7079 365.6445 L 360.2048 364.6065 L 357.3004 365.4745 L 354.7427 365.925 L 351.0532 366.1608 L 346.427 366.1959 L 342.8032 366.0535 L 340.1754 365.6923 L 338.5882 365.1908 L 336.995 364.3388 L 331.0895 358.842 L 331.5919 358.0378 L 340.7419 358.0378 L 343.4868 355.4243 L 349.8206 350.7062 L 351.4608 352.1128 L 355.9049 355.5985 L 359.696 358.0378 L 362.0489 360.3038 L 364.1405 362.7442 L 365.4477 365.0102 L 366.2162 366.8896 Z" fill="#000" fill-opacity="1" stroke="#000" stroke-width="0" paint-order="fill" stroke-opacity="1" stroke-dasharray="" stroke-linecap="butt" stroke-linejoin="miter" stroke-miterlimit="10" transform="matrix(1.149999976158142,0,0,1.149999976158142,-59.99998474121094,-39.97494125366211)" clip-path="none"/>
<path data-code="212" d="M 317.1843 356.6471 L 315.6087 357.2962 L 313.1721 359.2893 L 311.6064 361.0454 L 310.7012 362.2671 L 309.306 364.6108 L 308.4367 365.5436 L 305.7308 367.4155 L 301.9552 370.6653 L 298.7314 373.1864 L 297.933 371.953 L 296.3227 368.9602 L 294.9426 367.4251 L 293.8359 366.59 L 288.7934 364.0806 L 287.5086 363.5569 L 285.9492 363.2148 L 282.1151 362.878 L 280.7199 362.5699 L 279.4892 361.7997 L 278.6343 359.9405 L 278.6291 357.8508 L 278.9646 356.4484 L 280.4358 353.3845 L 280.9322 352.0257 L 281.3525 349.7426 L 281.5812 346.7902 L 282.2959 346.2484 L 283.5724 345.7842 L 285.3716 345.629 L 287.1118 345.0107 L 288.7368 345.0883 L 292.6236 344.2373 L 293.3777 343.6179 L 296.5689 343.6179 L 302.0225 341.916 L 303.0675 342.3803 L 303.6102 342.3027 L 305.8408 350.7179 L 307.9324 353.6809 L 309.8929 355.2501 L 312.8996 355.5985 L 315.9059 355.5985 L 317.1843 356.6471 Z" fill="#000" fill-opacity="1" stroke="#000" stroke-width="0" paint-order="fill" stroke-opacity="1" stroke-dasharray="" stroke-linecap="butt" stroke-linejoin="miter" stroke-miterlimit="10" transform="matrix(1.149999976158142,0,0,1.149999976158142,-59.99998474121094,-39.97494125366211)" clip-path="none"/>
<path data-code="213" d="M 234.1991 321.0432 L 233.0836 321.4469 L 232.2 322.2437 L 231.4494 323.8214 L 228.6315 323.0405 L 225.5687 321.5053 L 224.1679 320.9965 L 222.5911 320.6894 L 220.1485 320.4918 L 216.8502 320.5099 L 213.61 320.9019 L 212.1981 321.3184 L 209.0623 322.4881 L 207.4488 321.2599 L 206.7528 321.8028 L 205.5345 320.1009 L 204.7803 320.1774 L 203.2716 318.553 L 202.4015 318.3989 L 201.5896 317.3153 L 200.6028 316.5419 L 198.3976 316.1551 L 197.818 316.5419 L 196.2515 316.6194 L 195.961 317.702 L 195.0328 318.6305 L 195.0905 320.7967 L 194.8587 321.9569 L 194.1045 322.4211 L 193.1758 322.112 L 192.1898 325.1281 L 191.3775 324.7424 L 190.6815 324.8189 L 190.4492 322.266 L 190.1592 321.7253 L 190.4492 319.6366 L 191.2616 319.1723 L 192.654 316.1551 L 193.0603 316 L 192.8862 314.4532 L 193.2922 313.2155 L 193.8722 312.9828 L 194.6846 311.5136 L 194.1045 311.3585 L 193.1177 310.0432 L 192.3058 308.4188 L 191.3775 308.8831 L 190.217 308.728 L 189.9851 308.1872 L 190.6233 307.3362 L 190.7974 306.021 L 189.9851 305.4016 L 190.4492 304.5507 L 190.0429 303.8548 L 188.9987 303.6221 L 188.3604 304.6282 L 187.2581 303.0814 L 187.2581 302.3844 L 186.5035 300.6825 L 186.5617 298.9805 L 187.3162 298.7489 L 187.4318 300.4509 L 188.0122 300.4509 L 188.1867 298.7489 L 188.0122 297.5113 L 187.2581 296.8143 L 186.9099 295.8869 L 185.9234 294.5716 L 186.0398 293.488 L 184.9374 292.483 L 184.3569 292.3279 L 183.8928 290.4708 L 183.6609 287.2996 L 184.0669 286.9904 L 184.1255 283.8181 L 183.7187 282.7355 L 183.8346 280.8009 L 183.7187 280.0275 L 183.0227 279.4081 L 182.9646 278.4807 L 182.5004 277.3184 L 183.0805 276.9328 L 183.3705 276.0042 L 183.0227 274.7665 L 183.0227 273.2186 L 182.3263 271.6729 L 182.7905 268.6557 L 183.4868 267.7271 L 183.6028 266.2568 L 184.4733 264.9416 L 185.5175 264.7099 L 185.8657 264.0906 L 187.6063 264.013 L 188.6509 263.3947 L 190.3337 263.6274 L 190.8552 263.1631 L 191.8998 263.008 L 193.0603 262.2346 L 193.4085 261.5377 L 194.7427 260.4551 L 195.2069 259.7592 L 196.3096 259.6817 L 197.7598 259.9908 L 197.8757 260.5326 L 199.0363 262.0009 L 200.0227 262.157 L 200.7187 261.6152 L 202.1115 262.0795 L 203.1557 261.7703 L 205.8827 262.6988 L 207.6815 261.1509 L 208.8416 262.157 L 210.0021 263.9365 L 210.6985 264.4008 L 211.3364 264.3232 L 211.4527 265.1742 L 212.4965 265.5609 L 213.0773 266.1803 L 213.0773 266.9537 L 215.1076 268.1128 L 215.688 268.8873 L 216.2103 268.8873 L 216.8486 267.7271 L 218.125 268.3454 L 218.2995 269.274 L 218.9374 269.7382 L 218.7637 270.6668 L 217.6027 270.8984 L 218.3573 272.833 L 217.8932 273.5289 L 219.7497 274.5349 L 220.2138 275.6175 L 221.0839 276.392 L 221.6644 278.248 L 222.4767 278.9439 L 222.6508 280.0275 L 223.6368 281.6519 L 225.0874 280.8009 L 226.2479 282.2713 L 226.1316 283.8957 L 226.422 284.3599 L 227.2344 287.3771 L 227.0021 288.2281 L 227.1762 290.0065 L 227.0021 290.6259 L 227.5244 293.3339 L 229.7295 294.8032 L 230.4833 295.9634 L 232.5725 297.2786 L 232.9784 298.4398 L 233.7326 298.3612 L 233.9067 299.2132 L 235.4736 301.0692 L 236.6915 301.6886 L 237.6206 301.6886 L 238.4903 301.1468 L 239.0707 301.5335 L 239.1285 304.3191 L 240.1731 305.0925 L 240.6372 307.1036 L 240.8113 308.8831 L 240.6372 310.1208 L 241.0432 310.8942 L 240.9858 311.5911 L 241.4499 312.5961 L 241.6814 314.6848 L 242.3778 316.4643 L 242.2619 317.5479 L 242.5519 318.4754 L 242.0296 319.4815 L 241.5655 319.4039 L 240.1149 320.0233 L 239.8827 318.8621 L 238.2584 317.6244 L 237.3879 317.6244 L 235.8214 318.0887 L 234.3127 318.3214 L 233.327 318.7856 L 233.4426 319.3264 L 232.6306 319.7906 L 231.8761 320.7967 L 233.3844 320.7192 L 234.1991 321.0432 Z M 216.9645 264.4008 L 216.8486 266.2568 L 215.4566 266.3343 L 215.3398 265.5609 L 216.1526 264.6324 L 216.9645 264.4008 Z M 183.7769 322.112 L 184.1255 323.0405 L 183.835 323.8915 L 184.4729 324.7424 L 184.5306 325.4383 L 184.0669 326.7536 L 183.4287 326.4444 L 183.2546 327.4494 L 183.5446 328.1463 L 182.9068 328.4555 L 183.3127 329.7707 L 182.6164 330.6993 L 181.7467 330.5442 L 181.514 330.0799 L 180.5857 330.1575 L 179.8893 329.2289 L 178.7292 331.3951 L 177.8587 331.4727 L 176.9886 330.1575 L 177.3364 328.0688 L 176.6986 327.527 L 176.5241 326.2893 L 177.2205 325.5159 L 178.091 325.1292 L 178.9611 325.1292 L 179.9475 324.5873 L 181.7467 322.4211 L 183.1386 322.4211 L 183.7769 322.112 Z M 185.8075 327.2178 L 186.7358 328.2228 L 186.2716 329.384 L 185.6916 330.1575 L 185.2274 329.6932 L 185.4593 328.3779 L 185.3434 327.3719 L 185.8075 327.2178 Z M 189.2309 327.6821 L 189.5783 330.235 L 190.0429 330.9309 L 189.9851 331.6267 L 189.115 331.6267 L 187.1999 330.8533 L 186.5035 330.235 L 186.5617 328.9973 L 188.0704 328.6871 L 188.3023 327.9912 L 189.2309 327.6821 Z M 173.0429 331.24 L 173.2752 332.7104 L 174.4357 332.7879 L 174.0875 333.793 L 173.3915 333.6389 L 173.0429 332.942 L 173.0429 331.24 Z" fill="#000" fill-opacity="1" stroke="#000" stroke-width="0" paint-order="fill" stroke-opacity="1" stroke-dasharray="" stroke-linecap="butt" stroke-linejoin="miter" stroke-miterlimit="10" transform="matrix(1.149999976158142,0,0,1.149999976158142,-59.99998474121094,-39.97494125366211)" clip-path="none"/>
<path data-code="214" d="M 356.071 325.5541 L 355.4109 325.5286 L 353.1978 324.2984 L 352.9069 323.117 L 351.9209 321.7253 L 351.6886 320.5641 L 350.7018 319.1723 L 349.8899 319.1723 L 348.9038 319.7906 L 345.6545 319.7131 L 345.8868 320.3325 L 345.1322 321.261 L 344.204 320.9518 L 343.798 321.8028 L 342.4056 322.5762 L 341.8829 323.4272 L 340.6646 324.0455 L 339.3308 323.8139 L 338.8077 323.2721 L 337.7639 323.4272 L 337.5898 322.8854 L 336.7775 322.4211 L 335.0946 320.7192 L 334.9205 320.1009 L 334.0504 319.0948 L 333.5819 319.0948 L 333.4994 317.3907 L 333.6465 313.9592 L 333.5732 310.1356 L 332.9847 307.2927 L 332.9114 301.1181 L 333.2389 301.0735 L 335.736 297.6685 L 336.7388 296.6582 L 338.4782 295.4587 L 339.8563 294.9424 L 341.8682 294.4271 L 343.4259 294.8425 L 345.2641 295.9209 L 348.2051 297.0969 L 350.4847 297.0969 L 351.1747 297.3859 L 351.6607 298.9604 L 351.1464 301.8033 L 349.97 304.744 L 349.4548 307.8812 L 349.3815 311.9991 L 349.7492 313.7637 L 351.1464 314.5478 L 355.8519 314.6455 L 357.5431 315.7249 L 359.308 317.293 L 360.337 318.8611 L 360.4844 320.92 L 359.9697 322.9789 L 359.0136 324.8413 L 357.9108 325.6264 L 356.071 325.5541 Z" fill="#000" fill-opacity="1" stroke="#000" stroke-width="0" paint-order="fill" stroke-opacity="1" stroke-dasharray="" stroke-linecap="butt" stroke-linejoin="miter" stroke-miterlimit="10" transform="matrix(1.149999976158142,0,0,1.149999976158142,-59.99998474121094,-39.97494125366211)" clip-path="none"/>
<path data-code="215" d="M 378.7023 337.8438 L 379.811 336.6678 L 380.4827 334.9042 L 380.6931 333.6899 L 380.4768 332.4767 L 379.3549 329.5466 L 378.8676 327.2093 L 381.0174 326.7536 L 382.3448 326.2627 L 385.4069 324.6479 L 388.0973 323.4708 L 389.8753 322.2533 L 392.0123 320.239 L 393.839 317.9506 L 394.5326 316.6438 L 396.3505 312.3837 L 396.4939 311.1237 L 396.076 309.8966 L 395.2724 308.9075 L 394.2254 308.1468 L 391.0737 306.8507 L 387.1555 304.6505 L 386.2356 303.8049 L 385.7814 302.5619 L 385.8471 301.2222 L 386.2842 300.0302 L 387.6802 297.0066 L 388.5319 293.3329 L 389.0232 291.8827 L 389.722 290.6174 L 391.4785 288.3141 L 398.5329 288.2812 L 402.3412 288.5989 L 404.4236 289.2448 L 407.4793 290.7651 L 408.8669 291.1741 L 411.7326 291.7743 L 413.8158 292.6009 L 415.6839 293.9788 L 417.4153 295.6085 L 430.8213 309.6778 L 432.5285 311.3648 L 434.3101 312.901 L 435.5846 313.7467 L 438.2315 314.9557 L 441.8677 316.9381 L 446.2676 318.2682 L 450.6045 319.9659 L 452.012 320.3792 L 454.4239 320.6979 L 459.3553 320.8807 L 461.7899 321.0825 L 463.3612 321.3906 L 467.5272 322.6963 L 466.6308 328.0114 L 465.9965 330.2414 L 464.7886 332.2727 L 462.3126 335.343 L 461.3991 336.6147 L 460.6732 337.9607 L 459.7971 340.0143 L 458.2127 343.159 L 457.6191 345.3008 L 457.0593 350.4512 L 456.6342 351.7548 L 455.8343 352.8193 L 451.4296 355.7058 L 448.1348 357.1379 L 444.421 358.9982 L 442.235 359.4847 L 436.9873 360 L 434.9005 360.6396 L 428.5831 363.9319 L 427.3457 364.8721 L 424.3673 367.4474 L 422.4482 368.7552 L 417.9193 370.6016 L 416.246 371.1817 L 414.3528 370.0152 L 410.5772 367.1669 L 406.6789 365.0474 L 402.4822 361.5798 L 401.1998 360.7086 L 399.7958 360.0977 L 398.3229 359.7737 L 396.0425 359.5761 L 393.2147 359.5687 L 393.094 356.6726 L 392.3968 353.1869 L 388.3881 346.9135 L 384.554 342.9624 L 380.3708 339.2441 L 378.7023 337.8438 Z" fill="#000" fill-opacity="1" stroke="#000" stroke-width="0" paint-order="fill" stroke-opacity="1" stroke-dasharray="" stroke-linecap="butt" stroke-linejoin="miter" stroke-miterlimit="10" transform="matrix(1.149999976158142,0,0,1.149999976158142,-59.99998474121094,-39.97494125366211)" clip-path="none"/>
<path data-code="216" d="M 390.069 192.6661 L 389.0849 190.7952 L 387.6766 187.3892 L 386.0216 184.2817 L 384.8484 181.546 L 383.0361 178.975 L 381.3732 177.2741 L 378.8856 175.4235 L 375.6147 173.7661 L 373.1375 171.8177 L 370.2001 169.0119 L 366.8134 165.4933 L 365.2875 163.6362 L 364.0999 161.5646 L 363.6557 159.9997 L 363.337 156.7265 L 363.3457 147.4656 L 363.5489 145.0125 L 363.8867 143.4444 L 364.4915 142.0644 L 366.2472 139.9938 L 368.7751 138.1112 L 370.6507 135.5073 L 372.0718 134.0593 L 373.8212 132.9108 L 375.7733 132.0142 L 379.4413 130.0849 L 380.8568 129.6567 L 384.4504 128.8684 L 385.7687 128.3723 L 388.8626 126.8839 L 391.1323 126.374 L 395.1178 126.1668 L 405.669 126.2412 L 408.8187 125.9394 L 410.9605 125.2574 L 413.9939 123.5947 L 415.8568 122.8086 L 417.3129 125.9543 L 419.436 129.6886 L 420.6052 132.4253 L 422.1132 135.4287 L 422.8407 137.9105 L 423.1024 140.5484 L 423.1637 143.2479 L 423.0498 165.1395 L 419.9077 168.3788 L 417.0659 169.0863 L 415.8273 169.7747 L 414.158 171.1463 L 412.6768 172.7494 L 411.0927 175.1186 L 409.9051 177.7575 L 409.1123 178.8879 L 408.1235 179.8547 L 406.2913 180.8672 L 402.7698 181.596 L 401.3651 182.0177 L 400.1181 182.687 L 398.4281 184.0341 L 396.9393 185.6309 L 395.7365 187.4423 L 395.1995 188.8266 L 394.7764 191.0502 L 391.9566 191.8416 L 390.069 192.6661 Z" fill="#000" fill-opacity="1" stroke="#000" stroke-width="0" paint-order="fill" stroke-opacity="1" stroke-dasharray="" stroke-linecap="butt" stroke-linejoin="miter" stroke-miterlimit="10" transform="matrix(1.149999976158142,0,0,1.149999976158142,-59.99998474121094,-39.97494125366211)" clip-path="none"/>
<path data-code="217" d="M 602.3689 435.8504 L 601.4219 432.7121 L 600.8247 431.2099 L 598.9434 427.653 L 597.702 425.0034 L 596.8865 423.8699 L 595.373 422.4463 L 592.2779 420.7475 L 590.417 419.411 L 589.2624 418.3486 L 587.678 416.6222 L 586.7585 415.4217 L 585.3219 413.1057 L 583.8948 411.7777 L 579.8981 409.3534 L 578.4798 408.8307 L 576.044 408.462 L 573.5273 408.3717 L 563.2929 408.4089 L 558.1293 408.1454 L 557.068 402.9854 L 556.578 401.6032 L 555.386 399.063 L 554.9258 397.6724 L 554.5541 395.3967 L 554.1856 391.5243 L 553.7039 389.2837 L 552.0115 385.4294 L 551.606 383.9813 L 550.8291 380.2683 L 550.3391 378.8978 L 548.8598 375.7159 L 548.4443 374.2668 L 547.8272 371.2932 L 547.3993 369.8547 L 545.8766 366.6994 L 545.3798 365.2981 L 544.9938 362.9949 L 544.9201 360.647 L 545.1671 358.3352 L 545.6336 356.8638 L 546.381 355.6336 L 547.3391 354.6009 L 548.4507 353.7701 L 551.6625 352.1521 L 554.8712 349.9158 L 556.2234 349.0818 L 559.0723 347.8824 L 561.0874 349.4218 L 563.6642 350.6754 L 567.2335 352.7853 L 569.9015 353.9444 L 572.9234 355.6368 L 574.2492 356.1924 L 577.7786 357.2197 L 580.3566 358.2184 L 580.8929 358.9578 L 581.7913 359.4231 L 582.9713 359.6908 L 586.4493 360.1158 L 589.2214 360.8775 L 592.3412 362.3638 L 593.8707 362.7558 L 597.0801 363.0469 L 603.6154 363.1585 L 606.7771 363.559 L 608.1755 364.035 L 611.2587 365.5021 L 612.6471 365.9058 L 615.51 366.5178 L 616.9175 366.9969 L 618.2653 367.7746 L 620.0776 369.2938 L 621.6827 371.0563 L 622.991 373.0281 L 624.1444 375.7765 L 625.9288 379.6085 L 626.287 381.1001 L 626.8149 386.5151 L 627.2822 388.7579 L 628.9527 392.6207 L 629.3506 394.0687 L 629.9387 397.0466 L 630.3558 398.501 L 632.2115 402.2927 L 633.3115 405.0581 L 635.2995 408.7818 L 636.4907 411.5079 L 638.2711 414.0502 L 639.891 415.7946 L 643.3184 418.9149 L 638.8887 420.9844 L 636.1604 422.0967 L 632.533 424.1376 L 629.2674 425.6525 L 626.273 427.3981 L 623.609 428.5709 L 619.9345 430.4822 L 614.2586 431.9653 L 611.1575 433.4388 L 609.7412 433.9519 L 604.8688 434.9803 L 602.3689 435.8504 Z" fill="#000" fill-opacity="1" stroke="#000" stroke-width="0" paint-order="fill" stroke-opacity="1" stroke-dasharray="" stroke-linecap="butt" stroke-linejoin="miter" stroke-miterlimit="10" transform="matrix(1.149999976158142,0,0,1.149999976158142,-59.99998474121094,-39.97494125366211)" clip-path="none"/>
<path data-code="218" d="M 330.7015 358.5169 L 331.0688 357.8646 L 330.5461 354.0294 L 330.8011 352.3295 L 334.0755 351.5891 L 335.644 350.5437 L 336.4285 348.2786 L 336.4285 340.9577 L 336.3105 337.8162 L 336.7775 337.1969 L 337.5316 336.8877 L 338.1698 335.9592 L 340.3746 335.1082 L 342.2893 334.8766 L 343.2757 333.5614 L 343.5657 332.4777 L 344.3781 331.7808 L 344.204 331.24 L 345.0749 330.8533 L 345.0749 329.7707 L 346.9306 327.6821 L 347.2792 325.9801 L 349.0779 325.9801 L 349.658 324.7424 L 351.1086 325.2067 L 351.4568 326.4444 L 352.2691 326.676 L 353.1388 326.2893 L 353.1978 324.2984 L 355.4109 325.5286 L 356.071 325.5541 L 356.1666 329.6294 L 356.3319 330.3816 L 356.428 332.9409 L 357.3614 336.6083 L 355.2101 339.5989 L 351.3137 342.1561 L 351.1994 343.2238 L 350.415 345.8383 L 348.9772 348.6271 L 349.8206 350.7062 L 343.4868 355.4243 L 340.7419 358.0378 L 331.5919 358.0378 L 331.0895 358.842 L 330.7015 358.5169 Z" fill="#000" fill-opacity="1" stroke="#000" stroke-width="0" paint-order="fill" stroke-opacity="1" stroke-dasharray="" stroke-linecap="butt" stroke-linejoin="miter" stroke-miterlimit="10" transform="matrix(1.149999976158142,0,0,1.149999976158142,-59.99998474121094,-39.97494125366211)" clip-path="none"/>
<path data-code="219" d="M 360.2048 364.6065 L 359.9924 371.2592 L 359.8283 388.4126 L 359.9331 391.774 L 360.335 394.2154 L 360.9557 395.7548 L 362.3796 397.803 L 364.072 399.6792 L 369.4193 405.1813 L 371.4702 407.814 L 372.2061 409.2014 L 373.3885 411.8765 L 375.059 414.9766 L 376.1836 417.7314 L 378.2003 421.4444 L 379.3509 424.1833 L 380.9564 427.3024 L 381.4576 428.7707 L 381.7437 430.4322 L 381.8616 433.8616 L 381.5337 437.2932 L 380.7158 440.254 L 378.9294 441.1889 L 377.688 442.0399 L 375.939 443.5358 L 373.7231 445.7296 L 370.6081 449.2876 L 367.7026 453.3671 L 366.7162 453.0835 L 365.9616 453.7028 L 363.6991 452.3876 L 363.0609 452.3101 L 362.8286 451.304 L 361.8422 451.8458 L 360.682 451.5366 L 360.0438 452.3101 L 359.1155 451.7682 L 358.4191 451.8458 L 357.8968 452.4652 L 357.4327 451.8458 L 356.6204 451.7682 L 355.1698 453.0059 L 354.126 453.0059 L 353.7193 453.8569 L 353.1388 453.6253 L 352.501 454.4763 L 351.0504 454.1671 L 350.064 453.7028 L 349.7162 452.8519 L 348.4397 453.0835 L 348.0915 453.9344 L 347.221 453.6253 L 346.641 452.3101 L 345.3067 452.6192 L 343.9139 450.9948 L 342.6375 450.8408 L 342.1737 449.9898 L 341.7096 449.9898 L 341.4769 448.9062 L 340.6646 448.9062 L 340.6646 447.6685 L 338.9822 445.9665 L 338.8077 445.3482 L 337.0675 444.4197 L 335.6169 444.4972 L 335.4428 445.3482 L 334.1086 445.038 L 333.4704 445.6574 L 332.5417 443.4911 L 332.658 442.0984 L 332.2517 440.9382 L 331.3816 439.3914 L 330.3951 439.0036 L 328.7123 436.4507 L 327.5522 435.213 L 325.8694 434.4396 L 324.8833 434.208 L 322.4463 434.208 L 321.0539 433.9753 L 319.1392 432.7376 L 318.1528 431.3459 L 317.2246 431.1132 L 316.2381 429.798 L 314.0338 428.4828 L 312.6406 428.2512 L 311.2482 428.3287 L 310.9586 429.2562 L 309.7399 428.096 L 308.5794 428.0185 L 306.6603 428.1736 L 308.2901 426.001 L 310.4012 423.7063 L 315.9206 418.1659 L 317.8692 415.8159 L 318.5911 414.473 L 318.9624 413.1387 L 319.0576 410.3945 L 318.8265 409.0453 L 318.352 407.73 L 316.6748 404.6693 L 315.5409 401.923 L 313.4964 398.2227 L 312.5988 396.0257 L 311.1108 393.5885 L 309.614 391.8324 L 304.1811 386.2049 L 302.0911 383.8964 L 300.7015 382.0563 L 299.0318 379.3185 L 299.3748 377.3032 L 299.4047 375.9093 L 298.7314 373.1864 L 301.9552 370.6653 L 305.7308 367.4155 L 308.4367 365.5436 L 309.306 364.6108 L 310.7012 362.2671 L 311.6064 361.0454 L 313.1721 359.2893 L 315.6087 357.2962 L 317.1843 356.6471 L 320.0388 356.1605 L 323.8993 356.1372 L 326.1865 356.3528 L 328.3816 356.9616 L 330.7015 358.5169 L 331.0895 358.842 L 336.995 364.3388 L 338.5882 365.1908 L 340.1754 365.6923 L 342.8032 366.0535 L 346.427 366.1959 L 351.0532 366.1608 L 354.7427 365.925 L 357.3004 365.4745 L 360.2048 364.6065 Z" fill="#000" fill-opacity="1" stroke="#000" stroke-width="0" paint-order="fill" stroke-opacity="1" stroke-dasharray="" stroke-linecap="butt" stroke-linejoin="miter" stroke-miterlimit="10" transform="matrix(1.149999976158142,0,0,1.149999976158142,-59.99998474121094,-39.97494125366211)" clip-path="none"/>
<path data-code="220" d="M 293.4395 308.3487 L 293.4355 307.877 L 292.4495 307.1811 L 290.1866 306.0986 L 286.1253 304.7058 L 286.5895 304.2415 L 289.6651 305.5567 L 292.5076 307.026 L 294.0741 306.9495 L 294.0741 306.1751 L 292.6236 305.3241 L 292.3917 302.2304 L 292.9718 300.9152 L 292.1013 300.4509 L 290.9411 300.2182 L 290.883 299.8315 L 289.6065 299.3673 L 288.446 299.2132 L 285.9512 298.1296 L 285.2548 297.3561 L 285.4289 296.4276 L 285.8931 295.8869 L 285.5449 293.3339 L 284.8485 293.3339 L 284.617 294.4941 L 283.1664 295.0359 L 281.8318 294.2614 L 284.0947 294.2614 L 283.7465 292.8697 L 284.7329 292.4054 L 284.5588 290.7035 L 285.4871 289.6198 L 285.7194 289.0015 L 285.3126 287.5312 L 284.0365 287.5312 L 283.9784 285.8292 L 283.1083 285.5201 L 282.2959 287.2996 L 281.4836 287.3771 L 281.4836 286.2159 L 280.6139 285.3649 L 279.2789 285.6752 L 278.6988 284.5915 L 279.1048 283.663 L 277.8865 283.5089 L 277.5383 282.9438 L 280.3095 279.321 L 280.9948 278.1226 L 281.8366 276.1296 L 282.5254 274.8993 L 283.4174 273.8646 L 284.5047 273.0561 L 285.8186 272.5971 L 287.2122 272.5897 L 288.4818 272.97 L 290.7041 274.1472 L 292.6718 274.6263 L 294.0861 274.4978 L 295.3498 274.0367 L 297.7167 272.7937 L 300.3106 271.5719 L 301.4401 270.7326 L 302.8576 269.1465 L 303.5819 267.8812 L 304.454 265.8711 L 305.7703 263.4287 L 306.342 262.1188 L 306.685 260.6123 L 306.781 259.0665 L 306.5101 256.7633 L 305.9977 255.3545 L 305.2862 254.1126 L 302.0851 249.2415 L 308.4013 249.3414 L 310.6861 249.1629 L 312.1629 248.8761 L 313.5223 248.381 L 316.5477 246.7386 L 319.1914 245.5391 L 322.7662 243.4133 L 325.4232 242.2223 L 327.8546 240.9177 L 329.133 240.361 L 331.474 239.884 L 337.0308 239.662 L 339.214 239.2753 L 340.4758 238.5868 L 341.3156 237.551 L 342.6765 234.6294 L 343.4988 232.0191 L 349.1018 233.3747 L 351.1639 234.1089 L 354.2093 235.7513 L 356.8917 236.8859 L 359.8952 238.5868 L 363.0417 240.1496 L 364.6242 241.4967 L 365.7875 243.2698 L 366.2668 244.8517 L 366.7707 249.845 L 367.0293 251.4896 L 367.4723 252.9493 L 368.5974 255.5128 L 369.0603 256.9736 L 369.35 258.6235 L 369.7882 262.8412 L 370.0806 264.4879 L 370.5495 265.9455 L 371.7009 268.4942 L 372.1698 269.9507 L 372.463 271.5974 L 372.91 275.8077 L 373.2096 277.4501 L 373.6857 278.9003 L 374.8494 281.4405 L 375.3076 282.8365 L 375.6793 285.1344 L 375.9701 289.8334 L 373.3148 291.0753 L 369.8292 292.3077 L 366.1484 294.1222 L 363.5473 294.5036 L 361.3952 295.992 L 355.9049 297.3859 L 351.1747 297.3859 L 350.4847 297.0969 L 348.2051 297.0969 L 345.2641 295.9209 L 343.4259 294.8425 L 341.8682 294.4271 L 339.8563 294.9424 L 338.4782 295.4587 L 336.7388 296.6582 L 335.736 297.6685 L 333.2389 301.0735 L 332.9114 301.1181 L 330.7876 301.4017 L 328.9832 301.8596 L 325.3204 303.7974 L 323.1941 304.7196 L 322.0352 305.3687 L 320.4707 306.6064 L 317.0289 306.9995 L 313.794 307.1949 L 311.294 307.7835 L 305.4854 307.7835 L 303.2795 307.6847 L 298.5736 305.6258 L 296.8824 305.5281 L 295.706 305.8223 L 294.6765 307.2927 L 293.4395 308.3487 Z M 279.5689 297.201 L 280.7876 298.7489 L 280.8454 299.9091 L 280.4394 300.6049 L 279.1048 298.7489 L 278.6407 297.5113 L 279.5689 297.201 Z" fill="#000" fill-opacity="1" stroke="#000" stroke-width="0" paint-order="fill" stroke-opacity="1" stroke-dasharray="" stroke-linecap="butt" stroke-linejoin="miter" stroke-miterlimit="10" transform="matrix(1.149999976158142,0,0,1.149999976158142,-59.99998474121094,-39.97494125366211)" clip-path="none"/>
<path data-code="221" d="M 330.7015 358.5169 L 328.3816 356.9616 L 326.1865 356.3528 L 323.8993 356.1372 L 320.0388 356.1605 L 317.1843 356.6471 L 315.9059 355.5985 L 312.8996 355.5985 L 309.8929 355.2501 L 307.9324 353.6809 L 305.8408 350.7179 L 303.6102 342.3027 L 304.4018 342.1487 L 307.9989 340.1365 L 312.2928 338.9764 L 314.3812 338.0478 L 315.1358 337.5071 L 315.8318 336.501 L 317.1086 335.4173 L 319.4289 335.3409 L 320.7635 333.9481 L 321.0539 332.7104 L 322.04 333.793 L 322.4416 333.793 L 322.4416 336.2524 L 323.0953 338.6927 L 324.4025 341.1319 L 325.3176 343.398 L 327.4088 345.6641 L 328.5852 348.1034 L 330.4155 351.4159 L 330.8011 352.3295 L 330.5461 354.0294 L 331.0688 357.8646 L 330.7015 358.5169 Z" fill="#000" fill-opacity="1" stroke="#000" stroke-width="0" paint-order="fill" stroke-opacity="1" stroke-dasharray="" stroke-linecap="butt" stroke-linejoin="miter" stroke-miterlimit="10" transform="matrix(1.149999976158142,0,0,1.149999976158142,-59.99998474121094,-39.97494125366211)" clip-path="none"/>
<path data-code="222" d="M 513.5511 444.0638 L 513.5607 435.9779 L 513.375 433.6184 L 513.0998 432.0991 L 512.6356 430.7063 L 511.4552 428.18 L 510.997 426.7989 L 510.6321 424.5285 L 510.2823 420.6561 L 509.8046 418.4049 L 507.9943 414.592 L 506.833 411.8425 L 505.4972 409.7879 L 503.8928 407.8777 L 501.5741 405.4735 L 499.7172 403.8459 L 497.646 402.5955 L 496.203 402.1705 L 490.9899 401.6255 L 488.8251 401.1432 L 485.1367 399.2776 L 481.8276 397.8742 L 477.3779 395.6273 L 478.2676 393.4972 L 478.7074 392.0151 L 479.6986 386.7212 L 480.1751 385.3508 L 481.5946 382.1487 L 481.9854 380.5233 L 482.2742 377.0981 L 482.3252 367.4399 L 482.7392 364.052 L 483.2304 362.5774 L 484.8068 359.4401 L 485.9721 356.679 L 489.0414 351.4871 L 493.2353 354.891 L 494.4185 355.6623 L 495.7759 356.2168 L 497.2535 356.4718 L 499.4945 356.3773 L 500.9475 355.9565 L 502.863 354.7305 L 504.008 353.7043 L 508.4748 349.2539 L 511.4663 346.8072 L 513.4535 346.1592 L 517.0917 344.1629 L 519.7418 342.9476 L 520.9243 342.1763 L 525.1186 338.7458 L 526.5815 337.9033 L 528.1886 337.3945 L 529.8695 337.1363 L 533.3311 336.9833 L 548.3315 336.9164 L 550.9012 336.9982 L 552.5625 337.2255 L 554.1517 337.7535 L 555.5469 338.7129 L 556.6525 339.9941 L 557.6042 342.1433 L 559.0723 347.8824 L 556.2234 349.0818 L 554.8712 349.9158 L 551.6625 352.1521 L 548.4507 353.7701 L 547.3391 354.6009 L 546.381 355.6336 L 545.6336 356.8638 L 545.1671 358.3352 L 544.9201 360.647 L 544.9938 362.9949 L 545.3798 365.2981 L 545.8766 366.6994 L 547.3993 369.8547 L 547.8272 371.2932 L 548.4443 374.2668 L 548.8598 375.7159 L 550.3391 378.8978 L 550.8291 380.2683 L 551.606 383.9813 L 552.0115 385.4294 L 553.7039 389.2837 L 554.1856 391.5243 L 554.5541 395.3967 L 554.9258 397.6724 L 555.386 399.063 L 556.578 401.6032 L 557.068 402.9854 L 558.1293 408.1454 L 557.4449 414.8682 L 557.0417 417.1619 L 556.5433 418.5547 L 554.9015 421.6601 L 553.7167 424.3724 L 552.0709 427.4363 L 551.5916 428.8323 L 551.3614 430.3473 L 551.4398 432.6537 L 551.8072 434.1527 L 552.7836 436.0693 L 556.0895 441.0328 L 546.6431 440.7959 L 541.3779 440.9818 L 538.8457 441.4344 L 534.0622 443.0418 L 529.534 444.7947 L 526.6034 446.2852 L 525.052 446.8398 L 521.7756 447.2722 L 516.6825 447.3094 L 513.5511 444.0638 Z" fill="#000" fill-opacity="1" stroke="#000" stroke-width="0" paint-order="fill" stroke-opacity="1" stroke-dasharray="" stroke-linecap="butt" stroke-linejoin="miter" stroke-miterlimit="10" transform="matrix(1.149999976158142,0,0,1.149999976158142,-59.99998474121094,-39.97494125366211)" clip-path="none"/>
<path data-code="223" d="M 258.2069 390.4991 L 258.0021 389.5281 L 261.6275 382.4982 L 262.1084 381.1299 L 263.0402 376.789 L 263.6434 375.462 L 264.498 374.3391 L 265.5713 373.4212 L 266.9525 372.7508 L 269.358 372.3439 L 272.6488 372.4863 L 274.2611 372.8177 L 275.6818 373.3543 L 278.7347 374.9287 L 280.1195 375.3866 L 283.6816 376.2737 L 284.9955 376.7879 L 288.0842 378.2816 L 289.6444 378.6906 L 292.0961 378.9722 L 299.0318 379.3185 L 300.7015 382.0563 L 302.0911 383.8964 L 304.1811 386.2049 L 309.614 391.8324 L 311.1108 393.5885 L 312.5988 396.0257 L 313.4964 398.2227 L 315.5409 401.923 L 316.6748 404.6693 L 318.352 407.73 L 318.8265 409.0453 L 319.0576 410.3945 L 318.9624 413.1387 L 318.5911 414.473 L 317.8692 415.8159 L 315.9206 418.1659 L 310.4012 423.7063 L 308.2901 426.001 L 306.6603 428.1736 L 305.6205 428.5603 L 303.8795 428.793 L 302.0811 429.798 L 300.8046 430.0307 L 300.4564 430.4174 L 298.89 430.8041 L 297.4394 431.5775 L 296.1629 432.0418 L 295.4088 432.6601 L 293.8996 434.4396 L 293.2618 434.8263 L 293.32 435.5997 L 292.8558 435.9875 L 292.8558 437.3792 L 292.2758 438.3077 L 291.6953 438.6945 L 291.8694 439.5454 L 290.4188 440.8607 L 289.6651 439.1587 L 289.7806 437.9986 L 288.8524 437.921 L 287.75 436.3742 L 287.9819 435.3681 L 287.1695 433.8213 L 287.2277 432.6601 L 286.8217 432.1958 L 286.1253 430.4174 L 285.4289 430.0307 L 285.0807 428.947 L 285.2548 426.8584 L 286.1253 426.0074 L 286.1835 422.2943 L 286.4154 420.7464 L 284.6748 417.8844 L 284.4429 416.7242 L 283.1083 414.6356 L 282.0055 414.7131 L 281.89 413.8621 L 283.1664 413.4754 L 283.3401 412.3918 L 282.4696 412.3918 L 282.4119 411.3868 L 281.8318 411.0766 L 281.4836 410.2256 L 280.3816 410.0715 L 279.6849 408.9103 L 279.8012 408.292 L 280.5553 407.7502 L 280.3235 406.9768 L 280.8454 406.1258 L 280.7876 405.1197 L 279.859 404.1912 L 278.5247 403.6504 L 278.4666 403.0311 L 277.306 402.877 L 276.32 401.4842 L 274.5212 400.8649 L 273.1866 401.7934 L 272.8384 403.4178 L 271.156 403.1086 L 270.3436 404.0372 L 270.2859 402.4892 L 269.9955 400.7108 L 269.4154 400.9424 L 269.5895 398.3895 L 269.4154 397.2294 L 269.6473 395.8366 L 270.2277 395.3723 L 269.8795 394.3673 L 270.9237 393.5928 L 271.6201 394.5213 L 273.0125 394.5989 L 273.593 393.8255 L 273.3607 393.3612 L 272.1424 393.1296 L 271.9679 392.5878 L 271.0978 392.7418 L 269.8795 391.7368 L 269.9377 390.8083 L 269.2995 389.8022 L 268.0808 389.4155 L 266.8625 388.4105 L 266.8043 387.3268 L 265.876 387.0952 L 265.1219 388.4105 L 264.7155 389.6481 L 263.0908 389.9573 L 262.3948 389.1063 L 261.8148 390.4991 L 261.6988 391.5817 L 260.1901 391.0399 L 259.3778 391.2725 L 258.2069 390.4991 Z" fill="#000" fill-opacity="1" stroke="#000" stroke-width="0" paint-order="fill" stroke-opacity="1" stroke-dasharray="" stroke-linecap="butt" stroke-linejoin="miter" stroke-miterlimit="10" transform="matrix(1.149999976158142,0,0,1.149999976158142,-59.99998474121094,-39.97494125366211)" clip-path="none"/>
<path data-code="224" d="M 367.7026 453.3671 L 370.6081 449.2876 L 373.7231 445.7296 L 375.939 443.5358 L 377.688 442.0399 L 378.9294 441.1889 L 380.7158 440.254 L 390.0773 440.7534 L 392.5223 441.0445 L 394.0784 441.4471 L 397.0608 442.8261 L 398.6046 443.3913 L 404.4124 444.5185 L 407.4586 445.5894 L 407.9502 447.6663 L 409.3872 450.7282 L 410.4836 453.4819 L 411.7616 455.476 L 413.3508 457.2608 L 415.1699 458.7832 L 417.2671 459.7829 L 419.5045 460.1303 L 422.5606 460.1856 L 422.1164 462.3422 L 421.5403 463.6628 L 420.7132 464.7878 L 419.7005 465.7355 L 418.5105 466.4781 L 416.0014 467.753 L 414.8608 468.5784 L 411.5373 471.363 L 409.7557 472.539 L 405.1841 474.2548 L 402.7627 474.8423 L 401.1029 475.7464 L 397.7433 477.0861 L 394.0394 478.9027 L 391.5458 479.4626 L 387.1754 479.6995 L 379.1617 479.6124 L 375.6171 479.3819 L 373.4467 478.9962 L 373.5044 477.9944 L 374.3749 477.5301 L 374.3749 476.4465 L 374.0845 475.6731 L 372.6917 475.518 L 372.0539 474.4354 L 371.9379 473.3528 L 372.4598 472.965 L 373.0985 470.8764 L 375.0132 470.7999 L 375.4191 469.6387 L 375.245 468.9428 L 375.1769 466.7766 L 374.8968 464.6104 L 374.3168 462.7544 L 372.924 461.5157 L 372.112 460.3555 L 371.7057 459.0403 L 371.7057 458.1118 L 371.0097 456.9516 L 370.3718 455.4048 L 369.3846 454.3987 L 368.3408 454.4763 L 367.7026 453.3671 Z" fill="#000" fill-opacity="1" stroke="#000" stroke-width="0" paint-order="fill" stroke-opacity="1" stroke-dasharray="" stroke-linecap="butt" stroke-linejoin="miter" stroke-miterlimit="10" transform="matrix(1.149999976158142,0,0,1.149999976158142,-59.99998474121094,-39.97494125366211)" clip-path="none"/>
<path data-code="225" d="M 422.5606 460.1856 L 419.5045 460.1303 L 417.2671 459.7829 L 415.1699 458.7832 L 413.3508 457.2608 L 411.7616 455.476 L 410.4836 453.4819 L 409.3872 450.7282 L 407.9502 447.6663 L 407.4586 445.5894 L 410.3537 438.2791 L 410.97 437.0679 L 412.3222 435.2311 L 413.8859 433.5132 L 419.932 427.4512 L 421.3036 425.6834 L 421.9383 424.3479 L 422.157 423.1623 L 421.9857 421.3945 L 421.4857 420.1271 L 420.0403 417.1301 L 418.9977 413.3437 L 418.0157 410.5709 L 422.8466 408.9167 L 424.5506 408.5619 L 427.1899 408.326 L 457.0004 408.3568 L 469.6036 408.5895 L 472.8669 408.3069 L 474.3059 407.7428 L 474.9278 407.2434 L 475.6999 405.9665 L 476.06 404.5163 L 476.5274 399.7323 L 477.3779 395.6273 L 481.8276 397.8742 L 485.1367 399.2776 L 488.8251 401.1432 L 490.9899 401.6255 L 496.203 402.1705 L 497.646 402.5955 L 499.7172 403.8459 L 501.5741 405.4735 L 503.8928 407.8777 L 505.4972 409.7879 L 506.833 411.8425 L 507.9943 414.592 L 509.8046 418.4049 L 510.2823 420.6561 L 510.6321 424.5285 L 510.997 426.7989 L 511.4552 428.18 L 512.6356 430.7063 L 513.0998 432.0991 L 513.375 433.6184 L 513.5607 435.9779 L 513.5511 444.0638 L 511.4835 446.9928 L 510.9165 448.3463 L 510.4038 450.5454 L 507.3517 450.7345 L 505.1334 451.0989 L 503.7821 451.5558 L 501.312 452.7148 L 499.9726 453.1674 L 496.4743 453.6338 L 490.8075 453.7549 L 487.759 454.0216 L 485.5961 454.557 L 482.53 456.0624 L 481.1229 456.5745 L 479.5209 456.8836 L 477.0485 457.0175 L 474.5852 456.7827 L 473.0051 456.3323 L 471.7458 455.6959 L 467.8981 453.211 L 464.1225 453.5796 L 459.5569 453.7358 L 443.084 453.7028 L 432.1022 453.5222 L 428.5684 453.7113 L 426.0892 454.4412 L 424.7342 455.4239 L 423.688 456.7083 L 422.8446 458.7981 L 422.5606 460.1856 Z" fill="#000" fill-opacity="1" stroke="#000" stroke-width="0" paint-order="fill" stroke-opacity="1" stroke-dasharray="" stroke-linecap="butt" stroke-linejoin="miter" stroke-miterlimit="10" transform="matrix(1.149999976158142,0,0,1.149999976158142,-59.99998474121094,-39.97494125366211)" clip-path="none"/>
<path data-code="226" d="M 360.2048 364.6065 L 362.7079 365.6445 L 366.2162 366.8896 L 368.2185 367.7746 L 370.0013 367.9552 L 373.5498 366.7196 L 377.8055 365.756 L 379.1274 365.159 L 381.3871 363.44 L 385.1806 359.7493 L 391.3725 359.5634 L 393.2147 359.5687 L 396.0425 359.5761 L 398.3229 359.7737 L 399.7958 360.0977 L 401.1998 360.7086 L 402.4822 361.5798 L 406.6789 365.0474 L 410.5772 367.1669 L 414.3528 370.0152 L 416.246 371.1817 L 418.4822 374.8108 L 419.0487 376.0548 L 419.4121 377.5666 L 419.5136 379.1156 L 419.3822 380.6603 L 418.9686 382.1562 L 418.279 383.4321 L 417.4157 384.5858 L 415.0508 387.33 L 413.813 389.0925 L 412.562 391.775 L 410.9664 394.7837 L 410.6083 396.1797 L 410.6437 397.6734 L 411.0876 399.0641 L 411.8154 400.2593 L 414.5301 403.5612 L 416.0305 406.0238 L 416.8516 408.1135 L 418.0157 410.5709 L 418.9977 413.3437 L 420.0403 417.1301 L 421.4857 420.1271 L 421.9857 421.3945 L 422.157 423.1623 L 421.9383 424.3479 L 421.3036 425.6834 L 419.932 427.4512 L 413.8859 433.5132 L 412.3222 435.2311 L 410.97 437.0679 L 410.3537 438.2791 L 407.4586 445.5894 L 404.4124 444.5185 L 398.6046 443.3913 L 397.0608 442.8261 L 394.0784 441.4471 L 392.5223 441.0445 L 390.0773 440.7534 L 380.7158 440.254 L 381.5337 437.2932 L 381.8616 433.8616 L 381.7437 430.4322 L 381.4576 428.7707 L 380.9564 427.3024 L 379.3509 424.1833 L 378.2003 421.4444 L 376.1836 417.7314 L 375.059 414.9766 L 373.3885 411.8765 L 372.2061 409.2014 L 371.4702 407.814 L 369.4193 405.1813 L 364.072 399.6792 L 362.3796 397.803 L 360.9557 395.7548 L 360.335 394.2154 L 359.9331 391.774 L 359.8283 388.4126 L 359.9924 371.2592 L 360.2048 364.6065 Z" fill="#000" fill-opacity="1" stroke="#000" stroke-width="0" paint-order="fill" stroke-opacity="1" stroke-dasharray="" stroke-linecap="butt" stroke-linejoin="miter" stroke-miterlimit="10" transform="matrix(1.149999976158142,0,0,1.149999976158142,-59.99998474121094,-39.97494125366211)" clip-path="none"/>
<path data-code="227" d="M 254.562 296.7378 L 255.3165 298.2071 L 257.289 297.9755 L 258.1013 298.6714 L 258.6814 299.6775 L 260.5961 300.9152 L 261.1184 302.2304 L 260.7124 303.313 L 261.3506 304.3191 L 261.3506 305.3241 L 262.0466 305.6343 L 261.3506 306.7944 L 261.2347 309.1147 L 261.4084 311.1269 L 262.6849 312.1319 L 264.1354 311.8227 L 263.7295 312.6737 L 264.2514 313.9889 L 265.18 314.995 L 264.7737 317.1602 L 264.8318 318.2438 L 263.6713 321.415 L 261.2925 321.415 L 259.6678 320.6416 L 260.2479 318.7856 L 260.6542 318.3214 L 258.5073 317.4704 L 257.2308 316.1551 L 255.6643 315.9225 L 255.5484 316.7735 L 255.0265 317.0061 L 253.6337 315.6133 L 253.5178 314.4532 L 253.6919 312.4421 L 253.2855 310.8166 L 253.5759 310.3524 L 253.5759 309.0382 L 253.866 307.5678 L 253.4596 306.7169 L 253.866 305.4792 L 253.8078 304.3191 L 254.6779 304.5507 L 255.3161 303.9323 L 255.1424 300.9152 L 256.1285 300.0642 L 256.1285 299.5224 L 255.0265 298.7489 L 254.3301 297.201 L 254.562 296.7378 Z M 281.5812 346.7902 L 281.3525 349.7426 L 280.9322 352.0257 L 280.4358 353.3845 L 278.9646 356.4484 L 278.6291 357.8508 L 278.6343 359.9405 L 279.4892 361.7997 L 280.7199 362.5699 L 282.1151 362.878 L 285.9492 363.2148 L 287.5086 363.5569 L 288.7934 364.0806 L 293.8359 366.59 L 294.9426 367.4251 L 296.3227 368.9602 L 297.933 371.953 L 298.7314 373.1864 L 299.4047 375.9093 L 299.3748 377.3032 L 299.0318 379.3185 L 292.0961 378.9722 L 289.6444 378.6906 L 288.0842 378.2816 L 284.9955 376.7879 L 283.6816 376.2737 L 280.1195 375.3866 L 278.7347 374.9287 L 275.6818 373.3543 L 274.2611 372.8177 L 272.6488 372.4863 L 269.358 372.3439 L 266.9525 372.7508 L 265.5713 373.4212 L 264.498 374.3391 L 263.6434 375.462 L 263.0402 376.789 L 262.1084 381.1299 L 261.6275 382.4982 L 258.0021 389.5281 L 258.2069 390.4991 L 257.3472 390.7307 L 256.1285 390.4216 L 256.1285 391.0399 L 255.1998 391.5041 L 254.2715 390.4216 L 253.5759 392.1235 L 252.2991 391.8908 L 251.1967 390.344 L 250.0944 390.344 L 249.7458 392.1235 L 248.0637 391.5817 L 247.6578 390.9634 L 245.9749 391.4276 L 244.7566 391.2725 L 244.7566 392.046 L 243.8861 392.8969 L 242.8415 392.8194 L 240.405 394.5213 L 240.5209 395.9141 L 240.0568 397.2294 L 240.5209 397.9252 L 240.5209 399.6272 L 240.9205 400.4006 L 240.9858 402.3352 L 240.5791 403.4953 L 240.5791 404.2688 L 240.0568 404.733 L 239.709 406.5901 L 239.5926 408.4461 L 239.1285 409.143 L 239.0707 410.3807 L 238.7807 410.7674 L 237.156 411.0766 L 236.9819 410.7674 L 234.835 410.6123 L 236.0533 411.6184 L 236.3437 412.3142 L 236.2274 413.7846 L 236.4019 415.2539 L 237.0975 417.0334 L 237.0397 418.2711 L 236.3437 419.3547 L 235.2991 419.819 L 234.7776 420.5148 L 233.6167 419.4323 L 233.0944 419.6639 L 232.398 420.5924 L 231.1797 419.819 L 230.0192 418.6578 L 230.4255 416.5691 L 230.5415 414.1713 L 230.0192 413.8621 L 229.2068 411.3092 L 228.8009 411.0766 L 227.8726 409.4522 L 226.2479 409.0654 L 227.0021 410.3031 L 226.8276 411.5408 L 227.1188 413.7846 L 226.5957 414.7131 L 226.538 415.6406 L 225.7838 416.4151 L 225.0874 416.6467 L 223.9269 416.26 L 223.6946 415.4865 L 222.1285 415.8732 L 222.1867 413.7846 L 221.7225 413.1652 L 220.3875 413.9386 L 219.2856 413.5519 L 219.5756 413.0112 L 219.4015 411.5408 L 219.0533 411.1541 L 219.4601 410.3807 L 217.7191 409.994 L 217.2549 409.3746 L 217.3127 406.9768 L 217.5446 406.2034 L 217.0227 404.8881 L 216.5004 404.6555 L 215.4566 403.0311 L 215.8625 401.6383 L 216.6167 401.8709 L 217.1968 401.5618 L 216.3844 400.4781 L 216.9645 398.6986 L 216.6167 397.0742 L 215.9785 398.5446 L 214.9339 399.3956 L 214.1797 400.4006 L 213.0773 398.6986 L 212.3236 399.1629 L 211.5109 398.6221 L 210.5826 398.467 L 210.1766 397.3069 L 211.4527 395.759 L 211.1049 394.6764 L 210.6408 394.6764 L 210.3503 395.6815 L 208.3775 396.2233 L 206.6369 396.2233 L 205.9986 395.1407 L 205.2445 394.908 L 204.3162 395.759 L 204.0262 394.9856 L 204.6058 394.3673 L 204.6058 393.698 L 207.0122 391.0749 L 207.9671 389.7841 L 208.7245 388.3648 L 209.1731 386.8147 L 209.3946 385.2084 L 209.5324 380.2396 L 209.4635 371.0106 L 209.289 368.5565 L 209.0089 366.9714 L 208.5237 365.5393 L 206.9357 362.4106 L 205.7959 359.6409 L 203.3425 355.3074 L 203.3425 353.0509 L 203.7377 350.5808 L 203.8521 349.8839 L 205.0704 349.1881 L 205.3608 347.6412 L 206.1727 347.6412 L 206.9269 346.5576 L 207.2755 345.2423 L 208.6679 344.9332 L 209.3639 344.0822 L 208.2034 343.4628 L 207.8556 342.9996 L 207.3914 341.1426 L 207.6815 340.3692 L 207.2755 339.8273 L 207.6815 338.8988 L 207.9715 337.352 L 207.3333 336.7326 L 206.811 335.1082 L 205.8827 334.3348 L 205.6504 334.9541 L 204.7222 335.3409 L 204.4325 334.7215 L 204.9544 333.8705 L 204.9544 332.6328 L 203.7939 332.0135 L 202.9816 332.0135 L 202.6915 331.1625 L 202.8656 329.9248 L 203.562 330.0023 L 205.4767 331.0084 L 205.9986 330.235 L 206.8691 330.4666 L 207.2755 331.3176 L 208.4356 332.8644 L 209.5962 333.793 L 210.1177 335.4173 L 210.0021 336.6561 L 210.9886 337.5071 L 212.2646 337.352 L 212.671 336.501 L 213.6574 336.0367 L 213.7156 334.799 L 213.2518 334.1797 L 214.5279 333.6389 L 215.2821 332.6328 L 215.1076 331.6267 L 215.398 330.3891 L 216.0362 330.3891 L 216.4426 329.2289 L 214.0638 327.6045 L 213.3674 325.9801 L 212.4965 325.2832 L 211.9168 324.2782 L 210.8145 324.2006 L 210.0021 323.0405 L 209.0623 322.4881 L 212.1981 321.3184 L 213.61 320.9019 L 216.8502 320.5099 L 220.1485 320.4918 L 222.5911 320.6894 L 224.1679 320.9965 L 225.5687 321.5053 L 228.6315 323.0405 L 231.4494 323.8214 L 232.2 322.2437 L 233.0836 321.4469 L 234.1991 321.0432 L 234.6031 321.6477 L 234.9509 323.4272 L 234.4868 324.7424 L 233.7908 325.3608 L 234.6609 326.2117 L 234.0808 327.0627 L 233.9067 328.3004 L 233.5007 328.7647 L 232.8043 328.5331 L 232.4561 329.2289 L 231.2956 328.9973 L 230.7156 330.3891 L 231.702 331.1625 L 231.8179 331.7818 L 233.1525 332.4777 L 233.9067 333.2522 L 234.4868 333.0195 L 234.8931 332.1686 L 236.0537 331.4727 L 236.6337 332.7879 L 237.272 333.2522 L 237.3879 334.3348 L 237.0397 334.8766 L 237.6779 335.4173 L 237.5038 336.9653 L 238.8385 337.4295 L 239.2444 339.2855 L 238.8385 339.9049 L 239.5926 340.5232 L 240.1731 342.9221 L 240.695 343.3088 L 242.3196 343.5404 L 243.016 344.7016 L 243.422 345.9393 L 243.422 349.7299 L 243.0738 351.4318 L 242.5519 352.0501 L 242.726 353.3654 L 243.2479 354.6031 L 244.8726 354.9898 L 245.1626 355.9183 L 244.8726 356.4601 L 246.1486 358.7804 L 247.1355 358.8579 L 247.8896 360.7925 L 249.3406 362.2618 L 250.7908 362.7261 L 252.5895 362.4945 L 255.1998 361.3333 L 255.4906 359.9416 L 254.852 359.4773 L 255.1424 357.7754 L 254.852 356.6152 L 253.4596 355.7643 L 253.7496 354.8357 L 253.2855 353.598 L 252.0672 352.592 L 250.7908 352.2828 L 249.5729 351.5859 L 249.9784 350.9676 L 249.6302 349.3432 L 250.5585 349.4197 L 251.3708 349.9615 L 251.5449 351.4318 L 252.2991 350.8125 L 251.1389 348.2595 L 250.6748 344.3914 L 249.9203 343.6179 L 249.6302 342.8445 L 249.5139 341.1426 L 249.7466 339.8273 L 250.2689 339.2855 L 250.5585 338.1254 L 251.4871 337.8938 L 251.8927 336.9653 L 251.8349 336.1918 L 251.1967 335.5725 L 251.313 334.5664 L 252.5313 332.5553 L 253.3437 332.3237 L 254.0978 330.5442 L 255.9544 329.4605 L 256.0707 328.4555 L 256.5348 328.1463 L 257.6368 329.1514 L 257.9276 330.0799 L 259.0882 330.235 L 259.436 328.7647 L 258.9137 327.6045 L 259.9579 327.6821 L 260.7706 328.9973 L 261.4666 329.5381 L 262.2789 329.5381 L 263.149 331.24 L 263.2653 331.937 L 262.1048 332.6328 L 262.2789 333.9481 L 262.9175 334.5664 L 263.6713 337.0428 L 264.6577 337.5071 L 265.876 337.7387 L 265.6442 339.209 L 265.18 339.9049 L 266.1083 340.9875 L 267.7326 341.7619 L 268.023 343.5404 L 267.7907 344.3149 L 267.9648 345.8617 L 268.6027 346.8667 L 269.7636 347.331 L 270.2277 347.9504 L 271.7946 347.9504 L 271.8524 348.3371 L 273.593 349.4972 L 275.6236 350.1941 L 277.8865 349.9615 L 279.3371 347.9504 L 280.5553 347.177 L 281.5812 346.7902 Z M 268.8935 322.3436 L 270.1118 322.9629 L 269.8218 324.1231 L 270.75 325.7475 L 270.75 326.3668 L 269.0094 327.2954 L 268.5449 327.9912 L 266.9788 326.676 L 267.3266 324.5098 L 267.2684 322.8854 L 268.8935 322.3436 Z M 274.8109 333.4838 L 275.5077 335.1082 L 274.6376 335.65 L 274.0571 334.799 L 274.8109 333.4838 Z M 269.4736 334.799 L 270.0536 335.1857 L 269.5895 336.501 L 269.0668 334.8766 L 269.4736 334.799 Z M 205.6504 337.0428 L 205.9986 338.2029 L 206.115 339.8273 L 206.4628 340.1365 L 206.1727 341.1426 L 205.5345 340.6783 L 205.0704 339.8273 L 205.1285 337.4295 L 205.6504 337.0428 Z M 273.6507 337.8162 L 274.1149 338.9764 L 272.7806 339.7498 L 272.3743 338.8988 L 272.8966 338.2029 L 273.6507 337.8162 Z M 205.9986 342.767 L 206.2309 343.0761 L 206.1727 344.4689 L 205.8249 344.8556 L 204.9544 344.624 L 205.9986 342.767 Z M 273.5348 343.9568 L 274.0571 344.7781 L 273.3607 345.1658 L 273.1866 346.0158 L 272.2006 346.8667 L 272.1424 345.8617 L 272.6065 345.2423 L 272.491 344.5465 L 273.5348 343.9568 Z M 203.4457 346.5576 L 204.258 348.0279 L 203.7939 349.1105 L 202.9816 349.0329 L 201.7629 347.5637 L 202.5175 346.7902 L 203.4457 346.5576 Z M 250.3266 356.2275 L 250.5011 357.2335 L 249.6302 357.2335 L 249.3984 356.6917 L 250.3266 356.2275 Z" fill="#000" fill-opacity="1" stroke="#000" stroke-width="0" paint-order="fill" stroke-opacity="1" stroke-dasharray="" stroke-linecap="butt" stroke-linejoin="miter" stroke-miterlimit="10" transform="matrix(1.149999976158142,0,0,1.149999976158142,-59.99998474121094,-39.97494125366211)" clip-path="none"/>

</svg>