<?xml version="1.0" standalone="no"?>
<!-- Generator: Paintmaps.com , Online SVG vector map maker -->
<svg xmlns="http://www.w3.org/2000/svg" version="1.1" baseProfile="full"   style="background-color:false" width="800" height="500" viewBox="0 0 800 533">
<path data-code="200" d="M 130.107 189.1899 L 131.2117 189.9261 L 129.8997 190.5712 L 130.107 189.1899 Z M 131.8345 189.8337 L 133.2153 190.2942 L 133.9064 191.769 L 135.9096 192.6899 L 135.8408 193.7954 L 134.1825 194.4393 L 133.4226 194.4393 L 132.6627 193.4261 L 132.6627 192.5976 L 131.7648 190.9393 L 131.8345 189.8337 Z M 185.1647 203.5972 L 189.1658 203.625 L 193.053 203.3657 L 194.9305 202.9875 L 196.5982 202.3424 L 200.1677 200.2654 L 203.2134 198.7741 L 206.4019 196.8805 L 207.8416 196.5352 L 209.3471 196.8148 L 210.5728 197.9355 L 211.0884 199.4926 L 211.2246 201.2179 L 211.1795 205.9968 L 211.272 207.9738 L 211.5874 209.9268 L 212.27 211.7483 L 213.8652 214.0934 L 215.8062 216.1262 L 217.89 217.8578 L 220.5738 219.6034 L 221.6582 220.695 L 225.4633 226.9298 L 226.8252 230.1591 L 228.2752 233.0494 L 228.9863 235.4692 L 228.9621 237.2451 L 228.5053 238.9123 L 227.7497 240.3859 L 222.9953 247.7704 L 222.123 247.033 L 220.534 247.2177 L 218.3236 248.4143 L 217.5637 249.1517 L 215.56 248.7836 L 214.3856 248.3232 L 214.1783 247.1253 L 211.8298 246.8496 L 211.6918 247.6781 L 209.8955 247.4934 L 209.5501 248.4143 L 208.5834 248.4143 L 207.9606 249.1517 L 206.5793 249.6121 L 205.06 249.7968 L 203.6783 248.5066 L 202.5731 248.5989 L 202.2965 250.4406 L 201.4678 250.9023 L 201.6059 252.5594 L 201.3293 253.2968 L 202.6418 254.033 L 202.3658 254.8628 L 200.984 254.8628 L 199.2569 255.2309 L 198.221 254.4934 L 196.3554 254.5858 L 194.8351 254.2177 L 193.9377 253.2045 L 192.8325 252.467 L 192.4871 251.1781 L 192.0033 250.7177 L 190.8293 250.81 L 189.5856 249.8891 L 187.3752 249.7968 L 183.921 250.1649 L 183.4376 250.9023 L 181.8491 251.1781 L 181.434 252.1913 L 182.5392 252.6517 L 183.6449 252.467 L 184.8189 253.3892 L 183.5757 253.8496 L 182.9538 254.5858 L 182.1251 253.8496 L 182.1939 255.4155 L 180.8122 254.1253 L 180.6054 252.744 L 179.845 253.5726 L 178.7402 253.8496 L 177.7038 252.9287 L 177.7038 251.9155 L 174.595 251.8232 L 173.697 250.6253 L 171.2101 250.4406 L 170.6575 249.6121 L 169.8976 249.5198 L 168.6543 250.9934 L 167.9637 251.3628 L 168.447 252.467 L 167.9637 252.744 L 166.72 252.2836 L 165.3382 252.376 L 163.9564 251.5462 L 163.058 251.3628 L 162.4367 252.467 L 161.4012 252.1913 L 161.608 251.1781 L 161.0549 250.0726 L 159.9497 249.7045 L 159.1903 248.967 L 157.532 248.876 L 157.0486 248.5989 L 157.0486 247.4934 L 155.1147 245.467 L 154.4236 245.467 L 153.4564 244.1781 L 153.7325 243.0725 L 152.7653 241.8747 L 151.384 241.0462 L 151.384 240.31 L 150.7622 239.3879 L 151.107 238.5593 L 150.4168 237.3615 L 149.0351 237.0857 L 148.5517 237.7308 L 147.6529 237.2704 L 146.6174 237.3615 L 146.1335 238.3747 L 145.5122 238.5593 L 145.7882 240.6781 L 144.8908 240.4934 L 144.1304 240.9538 L 142.9559 240.2176 L 141.4357 241.4142 L 141.5059 240.4934 L 143.5085 237.8219 L 142.4726 237.8219 L 141.7127 237.3615 L 140.8831 238.0989 L 140.0544 238.1913 L 139.5018 239.2044 L 138.3278 242.0593 L 138.6038 242.8879 L 138.2585 244.7308 L 138.4658 245.744 L 137.2221 245.5594 L 136.4622 246.2045 L 135.9096 247.8628 L 135.1497 248.3232 L 134.7356 247.4934 L 134.6668 246.2045 L 135.8408 245.744 L 135.7023 244.4538 L 136.1169 242.6121 L 135.9096 241.1385 L 137.2221 240.033 L 136.7387 239.1121 L 135.5643 238.744 L 134.3903 239.1121 L 134.6668 239.6649 L 133.4226 240.7704 L 132.0413 241.6913 L 131.4195 240.6781 L 130.107 240.4934 L 129.209 241.2308 L 127.0674 241.1385 L 124.3044 242.8879 L 123.1299 244.2704 L 123.6132 245.2836 L 123.6132 246.4802 L 125.4784 247.31 L 126.2382 248.4143 L 125.4784 248.6913 L 124.5112 247.7704 L 123.4752 248.5989 L 124.1658 250.1649 L 124.2351 251.5462 L 123.3372 251.6385 L 122.6461 252.8364 L 121.6106 253.6649 L 121.4721 254.4934 L 120.6429 255.5989 L 119.883 255.5066 L 119.3304 254.8628 L 118.5013 255.876 L 117.396 255.876 L 116.0835 257.4419 L 116.3596 258.1781 L 117.3268 258.1781 L 117.4653 260.0211 L 117.8799 260.8496 L 117.1888 262.0475 L 115.3929 261.1253 L 115.1164 259.0079 L 114.633 258.4551 L 113.182 259.4683 L 112.146 260.4815 L 110.9023 259.099 L 109.521 260.6649 L 108.2085 259.9287 L 107.1028 259.8364 L 106.5502 258.7309 L 106.4122 256.9815 L 104.9617 255.7836 L 105.0304 254.4023 L 105.445 253.7572 L 105.2377 252.0066 L 105.6528 250.4406 L 105.5831 249.1517 L 106.1357 247.9538 L 105.9288 246.6649 L 105.169 245.744 L 105.1002 243.9011 L 104.4774 242.8879 L 104.5476 241.967 L 104.1325 240.4011 L 103.6487 240.033 L 103.7179 238.6517 L 103.5107 237.0857 L 102.8893 236.7176 L 101.231 236.6253 L 99.4351 235.5198 L 98.744 234.7823 L 99.0205 232.7559 L 99.4351 231.9274 L 100.333 231.3747 L 100.5408 230.3615 L 99.6424 228.8878 L 99.0205 230.2691 L 98.0534 229.7164 L 97.6383 228.5197 L 98.8825 227.8746 L 99.1586 226.8615 L 101.0232 225.7559 L 101.0232 224.5593 L 100.4023 223.3614 L 100.4706 221.1504 L 101.0925 220.2295 L 102.682 221.4274 L 104.2013 220.7823 L 104.8924 218.6636 L 104.6851 216.9142 L 105.169 216.5461 L 106.5502 217.467 L 107.9325 216.7295 L 108.7611 215.1636 L 109.3825 215.3482 L 111.4549 214.1504 L 112.9747 213.7823 L 114.495 212.124 L 114.3565 209.9142 L 113.32 207.9789 L 112.4914 208.3482 L 111.0408 207.8878 L 110.4877 209.0844 L 109.3137 208.4406 L 108.5539 210.1899 L 107.7247 210.3746 L 106.5502 209.6372 L 106.2044 210.9274 L 104.8924 210.9274 L 104.4091 209.9142 L 104.8236 209.4538 L 105.169 207.335 L 104.4774 205.124 L 105.445 204.8482 L 105.6528 206.5052 L 106.4122 207.8878 L 107.1721 207.5184 L 106.5502 206.5976 L 107.5174 206.4142 L 107.1028 205.124 L 107.3097 203.3746 L 109.0372 203.4657 L 109.521 201.4393 L 110.4877 202.0844 L 111.4549 204.6635 L 111.9392 204.6635 L 112.2148 206.1372 L 113.32 206.5976 L 113.7346 207.5184 L 114.4257 207.5184 L 114.8403 206.6899 L 115.6002 206.9669 L 115.5309 208.0712 L 115.9455 209.1767 L 117.3268 209.5448 L 117.8799 208.8087 L 116.9127 207.335 L 117.9487 207.058 L 118.1559 208.0712 L 119.0539 209.4538 L 119.745 209.3614 L 120.8502 208.3482 L 120.3664 207.058 L 120.6429 205.9537 L 119.9523 205.124 L 119.0539 204.6635 L 119.0539 202.1767 L 119.6757 202.2691 L 120.0211 201.2559 L 121.058 201.4393 L 121.9554 200.4261 L 122.7846 200.6108 L 123.2674 199.7823 L 123.406 198.124 L 122.4388 197.5712 L 122.9914 195.3601 L 124.4429 195.9129 L 125.4096 197.2954 L 125.4784 197.9393 L 126.9289 198.124 L 127.1366 200.7954 L 126.2382 201.992 L 126.2382 204.0184 L 127.4127 204.6635 L 128.2419 204.6635 L 128.8637 203.1899 L 128.9325 201.7163 L 128.5872 200.5184 L 130.1762 199.3218 L 130.1762 201.2559 L 130.7976 201.2559 L 131.2819 200.058 L 131.9028 199.5976 L 131.9028 198.124 L 131.4195 197.4788 L 131.4887 196.1912 L 132.732 196.0976 L 133.2153 197.6635 L 135.5643 197.8482 L 135.1497 199.8746 L 136.1169 200.2427 L 137.5684 199.4129 L 138.3278 199.4129 L 138.6731 200.1503 L 138.121 200.7954 L 137.1528 200.9789 L 136.946 202.4525 L 136.2554 203.1899 L 135.2194 203.4657 L 135.2882 205.2163 L 136.1861 205.2163 L 137.5684 206.6899 L 137.6367 207.8878 L 139.0184 208.3482 L 140.0544 208.3482 L 140.1929 206.5052 L 140.9533 205.6767 L 141.0216 204.4789 L 141.6434 204.2031 L 142.7486 204.4789 L 143.5085 203.2823 L 144.1304 204.3878 L 143.647 205.2163 L 144.4069 205.9537 L 145.3049 205.401 L 145.9263 206.2295 L 145.1668 207.1504 L 145.3049 208.7163 L 146.4101 208.901 L 146.6866 207.7031 L 148.4825 205.3086 L 149.5877 206.4142 L 149.795 207.058 L 148.5517 208.2559 L 148.6205 208.901 L 150.2783 208.7163 L 150.9002 208.9921 L 151.2455 209.9142 L 150.7622 210.4669 L 151.3148 212.0316 L 151.9366 213.0448 L 152.2824 214.7955 L 153.4564 215.7163 L 155.8049 215.7163 L 155.9434 217.0976 L 154.8382 218.2955 L 154.8382 219.401 L 155.4596 220.69 L 157.1174 220.7823 L 157.8768 220.3219 L 158.4991 221.1504 L 159.3971 220.8746 L 159.9497 218.3878 L 163.6107 216.5461 L 163.6107 215.4406 L 163.058 214.4274 L 164.9929 214.058 L 165.4762 214.5197 L 166.2361 213.5976 L 166.1674 212.5844 L 166.858 211.8482 L 168.6543 211.6636 L 170.7262 210.4669 L 171.1408 209.6372 L 172.4538 209.3614 L 173.7663 208.624 L 174.1111 207.5184 L 175.0091 206.6899 L 175.1476 205.3086 L 176.7366 205.3086 L 177.7731 206.1372 L 179.9835 205.5844 L 183.2991 205.7691 L 183.8517 205.5844 L 185.1647 203.5972 Z M 139.571 201.3482 L 139.0184 202.3614 L 138.3278 202.7295 L 137.4289 202.4525 L 137.4289 201.624 L 139.571 201.3482 Z M 161.4012 204.5712 L 161.4699 205.4921 L 161.0549 206.5052 L 160.2258 206.4142 L 160.4335 205.124 L 161.4012 204.5712 Z M 159.6736 206.7823 L 159.8117 207.5184 L 159.0518 208.7163 L 158.2231 208.2559 L 159.6736 206.7823 Z M 100.4706 217.8351 L 101.5075 218.9406 L 100.0565 219.2163 L 99.5039 218.8482 L 100.4706 217.8351 Z M 94.6685 218.1108 L 94.9445 218.3878 L 94.7377 219.9538 L 93.771 220.8746 L 92.6648 221.0593 L 92.458 219.7691 L 93.4247 218.1108 L 94.6685 218.1108 Z M 92.1815 231.0066 L 92.3888 232.2955 L 91.4216 232.3878 L 90.8685 231.3747 L 92.1815 231.0066 Z M 96.257 243.4406 L 97.0174 244.1781 L 96.9481 245.5594 L 95.9117 245.6517 L 95.2211 248.4143 L 94.2534 248.2308 L 93.632 249.1517 L 92.5268 249.1517 L 92.6648 248.3232 L 93.9086 247.7704 L 94.2534 246.7572 L 95.4288 245.9274 L 95.2903 244.6385 L 96.257 243.4406 Z M 131.1429 244.3628 L 131.696 244.9143 L 131.558 245.6517 L 130.7976 245.8364 L 130.3143 244.9143 L 131.1429 244.3628 Z M 137.3606 247.31 L 137.7054 248.7836 L 137.2221 251.1781 L 136.1169 250.2572 L 136.7387 248.7836 L 136.808 247.8628 L 137.3606 247.31 Z M 147.446 251.2704 L 147.0319 250.2572 L 147.1003 248.967 L 148.4825 248.7836 L 151.4533 250.533 L 153.3867 252.2836 L 154.6309 252.6517 L 155.2523 253.2045 L 156.2887 253.3892 L 157.0486 253.9419 L 158.0846 254.033 L 160.5023 254.7704 L 160.9169 255.2309 L 161.9538 255.3232 L 162.9893 256.1517 L 163.8872 257.3496 L 164.095 258.7309 L 162.7825 260.5726 L 161.6772 260.9419 L 161.2627 260.2968 L 160.4335 261.7704 L 158.983 260.9419 L 157.9461 259.2836 L 156.2887 259.1913 L 155.3908 259.7441 L 154.7689 258.5462 L 152.2824 257.3496 L 152.42 255.6913 L 151.7298 254.1253 L 151.384 254.1253 L 150.0715 252.6517 L 149.933 252.0989 L 148.5517 252.0066 L 147.446 251.2704 Z M 99.2278 252.1913 L 99.5731 253.4802 L 98.5372 253.1121 L 99.2278 252.1913 Z M 188.2038 254.4934 L 189.7929 255.0462 L 190.8293 256.0594 L 190.4147 257.3496 L 188.7569 258.3628 L 188.8257 257.533 L 187.9278 256.7968 L 187.7893 254.8628 L 188.2038 254.4934 Z" fill="#000000" fill-opacity="1" stroke="#000000" stroke-width="0" paint-order="fill" stroke-opacity="1" stroke-dasharray="" stroke-linecap="butt" stroke-linejoin="miter" stroke-miterlimit="10" transform="matrix(1.100000023841858,0,0,1.100000023841858,-40,-26.649948120117188)" clip-path="none"/>
<path data-code="201" d="M 479.9864 348.628 L 480.5153 347.0165 L 482.572 342.4224 L 483.2124 339.5131 L 483.7811 334.5154 L 484.1454 332.5662 L 484.7696 330.6891 L 486.3549 327.0183 L 486.8382 325.0046 L 487.0944 322.9048 L 487.2533 319.678 L 487.36 299.5723 L 493.6446 294.2306 L 495.0273 293.3388 L 497.5403 292.1726 L 500.2389 290.4371 L 504.1778 287.1091 L 505.5439 286.1174 L 509.3823 284.1973 L 510.7854 283.2701 L 512.7624 281.5916 L 517.8255 276.6799 L 519.8064 275.0153 L 521.21 274.0995 L 524.3406 272.6297 L 526.5188 271.132 L 528.5675 269.3207 L 531.8689 266.0484 L 535.0944 262.6774 L 537.4941 259.887 L 538.9622 257.6304 L 540.3439 254.3657 L 542.7896 249.9612 L 544.1406 246.6864 L 546.1029 243.0131 L 546.6361 241.4395 L 546.9112 239.016 L 546.5488 235.817 L 545.9986 234.3067 L 544.549 231.4632 L 544.1164 230.0275 L 544.0652 227.9316 L 544.4418 226.4478 L 546.2552 222.8125 L 547.3519 220.2485 L 548.1298 218.8862 L 549.798 216.9357 L 551.0958 215.82 L 554.7208 213.3067 L 554.1112 219.1948 L 553.0378 223.1793 L 556.8316 229.6746 L 557.5554 231.2292 L 558.1479 233.9348 L 558.2888 235.8069 L 558.3011 244.3982 L 558.5776 248.141 L 559.3152 250.7252 L 561.2188 254.4327 L 562.6185 257.6797 L 564.1284 259.954 L 565.9408 262.0702 L 578.4853 274.9685 L 581.6894 278.4243 L 583.9843 281.3563 L 586.4494 285.3168 L 581.5685 284.9942 L 578.7903 284.9626 L 576.0614 285.1485 L 574.3011 285.4875 L 572.6883 286.0921 L 569.1132 288.0983 L 565.9522 289.491 L 561.6172 291.8475 L 559.9423 292.361 L 556.4995 293.0517 L 554.8218 293.5323 L 550.3905 295.6207 L 548.7246 296.0938 L 544.457 297.0298 L 542.0516 298.2467 L 540.5958 299.3762 L 538.5291 301.2938 L 531.8442 308.1724 L 527.9285 312.3504 L 525.6583 315.3015 L 524.8173 316.9054 L 523.7989 319.3466 L 521.5354 323.8459 L 521.0216 325.5953 L 519.9696 330.2982 L 520.8295 330.9433 L 521.7958 330.3906 L 521.7958 331.9565 L 520.5525 332.3246 L 520.2765 333.4301 L 521.0364 334.4433 L 521.5192 336.0093 L 520.5525 336.0093 L 519.1708 336.6544 L 519.7926 337.1148 L 519.0332 338.2204 L 517.651 337.7599 L 516.7531 339.2336 L 517.5129 339.5093 L 517.1676 340.8919 L 516.6843 341.4434 L 516.615 342.8259 L 513.7827 342.9182 L 512.6775 343.3787 L 512.6083 344.1148 L 513.7827 343.8391 L 514.5426 344.6676 L 516.4077 344.7599 L 516.4077 345.5885 L 515.0952 346.1412 L 513.99 346.2336 L 513.5754 346.8787 L 513.6447 347.7995 L 512.2629 347.3391 L 510.7427 347.6149 L 510.1213 347.2468 L 508.5332 347.4314 L 509.0156 349.0885 L 508.3942 349.5489 L 507.4963 349.2731 L 506.9437 348.3523 L 505.9765 348.5357 L 506.253 350.1017 L 505.9077 350.5621 L 506.1838 351.9446 L 505.4244 354.0621 L 503.9733 354.6149 L 503.7661 355.4446 L 504.526 355.8127 L 505.4931 355.7204 L 506.1838 357.471 L 505.1473 358.4842 L 503.3515 358.6676 L 502.5916 359.4051 L 501.9005 359.4974 L 501.9697 360.7864 L 503.5588 360.8787 L 504.3874 362.3523 L 505.6999 362.6293 L 504.8713 363.6425 L 504.0421 363.7336 L 503.7661 364.3787 L 502.6608 364.8391 L 501.8317 366.037 L 502.5228 366.7732 L 503.8348 366.4974 L 504.3187 365.76 L 505.4931 365.76 L 506.0457 366.6821 L 505.2854 367.2336 L 506.7364 369.4447 L 508.878 369.26 L 509.0156 368.2468 L 508.463 368.0634 L 508.6015 364.6557 L 509.5687 364.3787 L 510.3978 364.7468 L 511.0885 365.8523 L 512.8155 365.5766 L 513.0916 364.3787 L 515.2328 363.7336 L 516.1317 364.194 L 515.4405 365.8523 L 515.3713 367.4183 L 514.4734 367.4183 L 513.9208 366.9579 L 512.9536 367.5106 L 512.2629 367.3259 L 511.6411 368.3391 L 510.6051 369.3523 L 511.0192 370.0898 L 509.6384 371.0106 L 509.9145 371.6418 L 509.2926 372.2996 L 508.6707 371.9315 L 507.6343 372.5766 L 508.0489 373.4974 L 506.6671 373.7732 L 505.8385 374.9711 L 506.4603 376.6294 L 506.0457 376.9975 L 506.3911 378.9315 L 507.5655 379.6689 L 507.7036 380.2217 L 505.2166 380.037 L 504.5947 380.314 L 503.6968 382.0634 L 502.7994 382.4315 L 500.588 384.4579 L 500.588 383.169 L 500.1046 381.603 L 498.5156 380.4051 L 498.4468 380.037 L 496.789 379.2085 L 496.4432 378.7481 L 496.5124 376.6294 L 495.476 376.4447 L 496.0291 372.8523 L 495.4077 372.4843 L 495.6838 371.5634 L 498.0322 371.1953 L 498.8618 369.9974 L 500.1046 368.7996 L 501.5552 368.5238 L 501.9697 368.0634 L 500.1046 366.6821 L 498.9301 366.6821 L 497.6869 367.603 L 496.6505 367.2336 L 496.8578 364.9315 L 495.5452 363.0898 L 495.3375 362.26 L 494.5093 362.1676 L 494.2327 361.1545 L 493.4729 360.8787 L 492.713 361.8919 L 492.0911 362.1676 L 490.088 362.0766 L 489.7431 363.0898 L 487.601 363.5502 L 488.1536 361.9842 L 487.739 360.7864 L 488.2228 360.2336 L 488.1536 359.2204 L 489.4666 358.5766 L 490.088 357.471 L 489.1203 356.4578 L 489.1905 355.6281 L 488.7062 354.5238 L 486.7718 352.0357 L 485.3901 351.2995 L 483.8708 350.8391 L 482.9041 350.0106 L 481.7988 350.1017 L 481.5911 349.5489 L 479.9864 348.628 Z M 524.0067 335.0884 L 525.6645 336.8391 L 525.3884 337.7599 L 526.6317 338.5885 L 525.4567 338.9565 L 524.0067 341.3523 L 523.1088 341.2599 L 522.763 340.0621 L 523.1775 338.8655 L 522.8322 337.2072 L 523.4541 336.7467 L 523.1775 336.0093 L 524.0067 335.0884 Z M 521.1051 347.3391 L 521.6577 348.4446 L 520.8291 349.7336 L 520.2765 349.2731 L 519.9307 347.8919 L 520.2072 347.3391 L 521.1051 347.3391 Z M 518.2728 353.4183 L 520.4145 354.9842 L 521.0364 354.7995 L 521.865 355.4446 L 523.8686 355.7204 L 523.1088 357.0106 L 522.142 357.7468 L 521.4505 356.9183 L 520.691 357.194 L 520.7598 359.2204 L 519.9307 359.9578 L 518.2728 362.4447 L 517.1676 362.0766 L 517.3057 360.1413 L 516.8911 359.5898 L 516.8223 357.8391 L 516.4077 357.194 L 516.5458 355.9974 L 517.3057 353.6017 L 518.2728 353.4183 Z M 513.0916 357.194 L 513.852 357.3787 L 513.99 358.1149 L 514.7499 358.2072 L 515.9249 359.037 L 516.3385 360.8787 L 516.4077 362.3523 L 516.0624 363.5502 L 514.7499 363.3655 L 514.1973 361.4315 L 513.5754 360.4183 L 512.8848 360.3259 L 511.2953 358.6676 L 512.0556 358.2995 L 513.0916 357.194 Z" fill="#000000" fill-opacity="1" stroke="#000000" stroke-width="0" paint-order="fill" stroke-opacity="1" stroke-dasharray="" stroke-linecap="butt" stroke-linejoin="miter" stroke-miterlimit="10" transform="matrix(1.100000023841858,0,0,1.100000023841858,-40,-26.649948120117188)" clip-path="none"/>
<path data-code="202" d="M 305.0199 308.8846 L 309.8643 310.806 L 314.2434 312.0519 L 316.3381 313.2586 L 314.9678 313.719 L 313.8625 314.8246 L 313.586 315.8378 L 312.6193 316.2059 L 312.0667 315.6531 L 310.6845 315.4697 L 310.0626 317.3114 L 309.4412 317.2191 L 308.6125 318.1412 L 309.1647 318.6927 L 310.5464 319.062 L 310.3391 320.8114 L 309.7173 321.5488 L 309.8558 322.4697 L 308.3355 323.2982 L 308.1292 322.562 L 306.3324 322.7454 L 306.4016 323.5752 L 305.7802 324.6808 L 306.3324 325.5093 L 305.7802 326.1544 L 304.8126 326.1544 L 303.1548 325.6016 L 302.7402 326.2467 L 303.2928 327.0752 L 302.7402 327.628 L 302.0495 326.7071 L 301.3589 324.8642 L 300.6678 324.5884 L 300.3225 323.5752 L 300.599 322.6544 L 300.3913 321.8246 L 301.5657 321.0884 L 301.2901 320.1676 L 300.4605 320.628 L 299.9079 321.8246 L 299.9079 322.562 L 299.0792 323.851 L 298.4578 324.0357 L 298.0423 325.5093 L 295.9011 325.1412 L 295.6251 326.4301 L 294.3809 326.8906 L 293.8283 327.9961 L 292.9996 327.7203 L 293.0688 326.2467 L 291.8256 325.785 L 291.3418 326.5225 L 290.5819 326.7982 L 290.0985 327.5357 L 289.3386 327.4433 L 288.5787 327.9961 L 286.7824 327.9961 L 286.5063 328.6412 L 285.2621 328.3642 L 284.7797 326.9829 L 284.0194 327.0752 L 283.9501 327.9961 L 282.8449 329.2863 L 282.5 330.1148 L 281.5324 329.3774 L 282.0162 327.5357 L 280.2199 327.6267 L 279.598 327.1676 L 278.147 327.5357 L 277.9407 328.6412 L 277.3179 329.6544 L 275.8678 330.2995 L 274.7621 331.2203 L 274.6246 332.417 L 273.7954 332.5093 L 273.3808 333.1544 L 271.5157 332.8774 L 271.1011 331.6808 L 270.2725 331.0357 L 269.9959 329.3774 L 268.8907 329.4697 L 268.1308 329.0093 L 266.0584 329.1016 L 264.0548 328.5489 L 263.2261 329.4697 L 263.3642 330.3906 L 264.7459 331.4038 L 264.9532 332.9697 L 264.4694 333.6148 L 263.6402 333.5225 L 262.1209 331.6808 L 261.7063 330.5752 L 262.535 330.4829 L 262.9496 329.7467 L 262.4662 328.7335 L 261.4303 328.1808 L 259.8412 328.1808 L 258.9428 328.7335 L 258.3902 329.7467 L 258.3214 331.0357 L 257.6991 331.7731 L 258.2517 332.694 L 257.1465 333.0621 L 256.87 332.417 L 255.4199 332.6016 L 255.696 333.4301 L 254.5903 333.4301 L 254.3142 332.0489 L 253.0022 331.8642 L 252.6564 331.4961 L 251.3439 331.7731 L 250.9986 332.3246 L 249.8241 332.6016 L 249.6861 331.5884 L 249.0642 330.2995 L 249.6168 329.3774 L 248.7881 328.5489 L 247.1986 327.7203 L 245.8866 326.7982 L 244.7121 326.5225 L 243.1235 326.5225 L 241.7418 326.062 L 240.6366 328.0884 L 239.6694 328.8246 L 238.7027 328.4565 L 238.7715 327.628 L 238.0116 327.351 L 237.3897 328.1808 L 236.4225 328.8246 L 235.5246 328.9169 L 235.5246 328.0884 L 234.2809 327.8114 L 233.5902 327.1676 L 231.5871 326.9829 L 229.2382 325.9697 L 227.9261 325.694 L 227.4418 326.1544 L 226.6131 325.785 L 223.297 326.4301 L 222.3991 327.0752 L 220.8793 327.628 L 219.9814 328.4565 L 217.9778 330.7599 L 216.6653 333.4301 L 215.9746 334.0753 L 215.7673 336.1016 L 214.8699 336.9302 L 213.971 336.9302 L 213.1423 337.5753 L 212.7278 338.8655 L 213.4876 339.6016 L 212.6585 340.2467 L 213.9022 341.628 L 214.5929 341.5357 L 214.7314 343.7468 L 214.0403 344.2995 L 213.3496 346.694 L 211.4845 346.694 L 210.5861 346.0489 L 209.6877 347.2468 L 209.7574 348.0753 L 210.6554 348.3523 L 209.6189 349.7336 L 209.8262 350.2863 L 209.4809 352.3127 L 208.9975 353.4183 L 208.9283 356.4578 L 209.2048 357.2864 L 209.2048 358.76 L 208.721 361.0634 L 205.6814 359.7732 L 203.609 359.4974 L 202.8491 358.76 L 202.7111 357.7468 L 201.8819 357.6544 L 201.1216 356.9183 L 200.5007 355.6281 L 199.7403 355.537 L 199.1882 356.8259 L 197.9444 356.5502 L 197.4606 356.9183 L 196.2866 355.8127 L 195.2502 356.0885 L 194.5591 355.26 L 194.8351 354.6149 L 194.145 353.7863 L 192.6944 353.694 L 192.4871 353.1412 L 190.5528 353.971 L 190.0002 353.4183 L 188.2731 353.4183 L 186.408 354.3391 L 185.3028 352.6808 L 184.1288 352.4974 L 183.8517 353.3259 L 182.7465 355.0753 L 181.5033 355.537 L 180.7439 355.3523 L 181.2263 354.2468 L 180.5361 353.6017 L 178.8783 353.3259 L 176.6674 355.9974 L 175.1476 355.9974 L 174.5267 355.4446 L 174.1804 356.9183 L 172.8679 356.5502 L 172.108 354.9842 L 171.2793 354.7072 L 169.4142 354.8919 L 167.8252 356.1808 L 166.7887 357.2864 L 166.72 357.9315 L 165.6835 359.037 L 165.6835 359.6808 L 163.6107 360.1413 L 163.9564 360.971 L 162.4367 361.2468 L 162.0226 362.537 L 160.8486 363.3655 L 160.9169 364.5634 L 160.157 364.7468 L 160.0882 362.537 L 158.3611 362.7204 L 158.2923 360.4183 L 156.1507 360.3259 L 155.7361 360.971 L 155.045 360.4183 L 154.2158 360.603 L 152.9038 359.7732 L 152.1439 360.1413 L 150.9695 360.0502 L 150.0715 359.3127 L 149.0351 359.4051 L 149.1043 358.6676 L 147.1003 357.194 L 145.5122 357.6544 L 144.6142 359.3127 L 143.9231 358.9447 L 143.4393 359.5898 L 142.2653 359.8655 L 141.5742 357.9315 L 141.6434 356.7336 L 142.3345 354.8919 L 141.6434 353.971 L 139.295 354.1544 L 138.1893 353.6017 L 137.7054 352.6808 L 136.8763 352.4051 L 134.3205 352.4974 L 135.1497 353.6017 L 133.8372 353.6017 L 133.4914 352.9578 L 132.1106 352.6808 L 131.7648 351.4842 L 133.7679 351.8523 L 134.2518 349.5489 L 133.9757 348.3523 L 132.8012 347.6149 L 132.2486 346.6017 L 131.6268 344.2995 L 132.3871 344.0225 L 132.87 344.8523 L 134.044 345.6808 L 136.946 345.5885 L 139.2945 345.7731 L 140.1236 347.2468 L 140.607 347.2468 L 142.6799 346.1412 L 143.647 344.4829 L 144.3382 343.9314 L 145.7882 343.3787 L 146.4101 342.8259 L 146.4101 341.7204 L 147.1003 339.417 L 146.8247 338.3127 L 145.9267 338.128 L 145.1668 337.2072 L 145.6502 336.4697 L 145.7194 334.628 L 146.9627 334.4433 L 147.1003 332.7863 L 147.6529 332.694 L 147.9299 331.4038 L 149.2424 331.128 L 149.795 331.4961 L 150.4168 330.9433 L 151.384 331.3127 L 152.0059 332.417 L 152.9726 332.5093 L 153.5252 331.8642 L 154.5621 331.4038 L 154.0783 329.4697 L 155.3908 327.8114 L 156.3575 327.9038 L 157.3944 326.7071 L 158.2923 327.351 L 158.9137 327.2599 L 159.8809 327.9961 L 159.5356 330.1148 L 160.8486 330.851 L 162.5064 330.0225 L 163.2658 329.3774 L 164.095 329.9301 L 164.9236 329.7467 L 166.1674 330.7599 L 167.3413 330.4829 L 168.9996 330.4829 L 170.7262 330.2072 L 171.5549 329.8378 L 173.0064 329.8378 L 175.9767 328.1808 L 177.0819 328.2731 L 177.8414 327.8114 L 178.7402 327.9038 L 179.4997 327.0752 L 180.3976 327.074 L 180.8814 326.3378 L 182.4705 326.3378 L 184.4736 325.9697 L 185.3715 325.5093 L 185.6481 324.7718 L 187.5127 325.3246 L 188.6881 325.3246 L 190.0689 325.785 L 190.8293 326.4301 L 193.247 326.1544 L 194.3527 325.3246 L 196.7012 322.4697 L 197.9444 320.1676 L 198.0132 319.6148 L 197.1153 319.1544 L 196.908 318.4169 L 197.5299 317.8642 L 197.4606 316.851 L 196.5627 316.2059 L 196.6319 315.0093 L 197.6684 313.9037 L 199.6715 313.6267 L 201.1216 313.9961 L 201.5366 312.9829 L 201.2605 311.5093 L 201.8132 310.6795 L 202.5731 311.9697 L 204.922 312.3378 L 206.7178 313.6267 L 208.5834 313.8114 L 209.8262 313.6267 L 211.1387 314.6399 L 211.0695 316.1148 L 212.1751 317.8642 L 213.833 318.8774 L 214.7314 319.062 L 219.1522 318.6016 L 220.8793 319.5225 L 221.9157 318.8774 L 223.5043 319.3353 L 223.9881 318.9697 L 226.5439 319.1544 L 226.6819 318.785 L 228.4787 318.4169 L 228.6163 318.0488 L 230.1356 317.6795 L 231.9324 317.9565 L 233.521 317.9565 L 234.9027 316.851 L 235.8007 315.6531 L 236.5606 313.0752 L 237.459 313.719 L 238.4949 313.719 L 239.186 313.0752 L 242.0183 311.0488 L 244.3663 309.9433 L 246.6465 310.0356 L 247.4064 309.851 L 248.0278 310.3114 L 248.9954 310.3114 L 249.6861 310.9565 L 250.5152 310.7718 L 251.0678 311.5093 L 254.3835 312.7059 L 257.0085 312.8905 L 258.4595 312.7059 L 259.1501 312.8905 L 261.2918 312.1531 L 262.4662 312.062 L 263.3642 311.4169 L 264.9532 311.6927 L 266.8178 311.4169 L 268.4069 312.1531 L 269.7886 314.6399 L 270.2725 315.1927 L 272.3449 314.9169 L 273.5881 314.4565 L 273.8647 314.9169 L 274.9006 314.8246 L 275.1084 313.9961 L 276.4897 315.0093 L 278.147 315.1927 L 279.5292 315.1016 L 279.8746 314.7322 L 281.2563 314.6399 L 282.4303 315.8378 L 284.0886 315.7454 L 285.9537 314.4565 L 288.3022 314.2718 L 288.924 315.1927 L 289.4767 315.0093 L 291.8256 315.1927 L 292.3782 316.2982 L 292.9996 315.6531 L 293.5522 316.1148 L 293.3454 317.5884 L 295.3485 316.6663 L 297.2132 317.0356 L 298.1808 318.3246 L 298.9407 317.7718 L 298.1808 316.2982 L 301.0824 315.1927 L 300.9439 314.3642 L 303.7074 314.3642 L 305.2964 313.9037 L 305.4344 312.7982 L 304.8126 310.4037 L 304.0522 310.219 L 304.26 309.0224 L 305.0199 308.8846 Z M 156.1507 322.4697 L 157.1174 323.3906 L 156.634 323.9433 L 155.6669 323.1148 L 156.1507 322.4697 Z M 168.5163 359.6808 L 168.7928 361.6161 L 167.8944 361.2468 L 168.5163 359.6808 Z" fill="#000000" fill-opacity="1" stroke="#000000" stroke-width="0" paint-order="fill" stroke-opacity="1" stroke-dasharray="" stroke-linecap="butt" stroke-linejoin="miter" stroke-miterlimit="10" transform="matrix(1.100000023841858,0,0,1.100000023841858,-40,-26.649948120117188)" clip-path="none"/>
<path data-code="203" d="M 519.9696 330.2982 L 521.0216 325.5953 L 521.5354 323.8459 L 523.7989 319.3466 L 524.8173 316.9054 L 525.6583 315.3015 L 527.9285 312.3504 L 531.8442 308.1724 L 538.5291 301.2938 L 540.5958 299.3762 L 542.0516 298.2467 L 544.457 297.0298 L 548.7246 296.0938 L 550.3905 295.6207 L 554.8218 293.5323 L 556.4995 293.0517 L 559.9423 292.361 L 561.6172 291.8475 L 565.9522 289.491 L 569.1132 288.0983 L 572.6883 286.0921 L 574.3011 285.4875 L 576.0614 285.1485 L 578.7903 284.9626 L 581.5685 284.9942 L 586.4494 285.3168 L 588.9397 285.466 L 590.655 285.7848 L 592.2212 286.3603 L 595.8177 288.1856 L 597.5111 288.6283 L 599.259 288.7813 L 601.0084 288.6485 L 602.7042 288.14 L 604.1234 287.2483 L 605.3083 286.0795 L 606.2579 284.7172 L 607.69 281.5714 L 608.6135 279.9991 L 612.5695 274.7193 L 613.5495 273.1395 L 615.5455 269.1499 L 619.539 263.9752 L 620.5408 262.394 L 621.2514 260.632 L 621.628 258.7486 L 621.8443 255.8317 L 621.6698 242.86 L 621.7798 238.9287 L 622.239 236.0725 L 622.932 234.3143 L 625.0675 231.3139 L 628.977 227.2953 L 632.535 224.3278 L 635.3948 222.6771 L 636.1808 225.3246 L 637.2988 229.7745 L 637.9198 231.3962 L 639.4078 234.3915 L 639.9869 236.0561 L 640.5063 239.742 L 640.5258 244.4892 L 640.097 248.2245 L 639.2607 250.7695 L 637.3572 254.5175 L 636.8373 256.2643 L 636.5328 258.0554 L 636.3796 260.6788 L 636.5228 262.3118 L 637.0617 263.8145 L 638.3296 264.934 L 639.8831 265.1971 L 641.3511 264.8277 L 644.5743 262.924 L 647.6366 261.3834 L 649.9083 259.7162 L 654.0986 255.6685 L 659.3728 249.9182 L 661.5889 246.8711 L 663.0598 243.7088 L 663.8871 242.2301 L 664.9473 240.9488 L 666.2351 239.8799 L 667.8004 239.1146 L 669.5356 238.7111 L 672.2246 238.5492 L 674.9293 238.7541 L 677.5448 239.4157 L 681.8974 241.7887 L 685.0717 243.1876 L 688.6221 245.2849 L 692.3865 247.1696 L 694.3028 248.7343 L 695.8107 250.7126 L 697.3026 253.8458 L 698.2536 255.4067 L 701.6902 259.8857 L 702.747 261.4315 L 705.0239 266.2432 L 707.3131 270.2428 L 709.1317 274.7661 L 708.145 279.9409 L 707.2746 286.7992 L 706.4806 289.434 L 704.6131 293.1706 L 703.2627 296.4416 L 700.8383 300.8524 L 699.365 304.0792 L 698.3793 305.6527 L 694.8801 310.0862 L 693.3342 312.4162 L 691.8823 315.6544 L 690.002 319.3922 L 689.418 321.1403 L 689.0647 323.1085 L 688.5486 328.1201 L 688.1957 330.0731 L 687.6336 331.7971 L 685.9558 335.6083 L 685.4839 337.5386 L 685.2315 339.5523 L 685.0394 345.7896 L 685.1556 361.6111 L 684.8971 366.7707 L 684.2724 369.6926 L 682.2218 374.1185 L 681.7166 375.6149 L 680.037 378.3205 L 678.5955 380.333 L 676.2807 383.0007 L 673.8165 385.4939 L 671.8783 387.1977 L 670.5174 388.1805 L 666.6639 390.0298 L 663.8382 392.0714 L 659.9221 395.8687 L 649.0687 407.1795 L 645.7601 410.2444 L 643.6166 411.7167 L 639.7441 413.5976 L 637.6565 415.2053 L 635.0267 417.6972 L 622.7276 430.1781 L 620.3075 432.8293 L 618.8887 435.0151 L 618.4191 436.5241 L 618.3475 437.9269 L 618.8451 440.0292 L 620.4664 443.5292 L 620.6523 446.2399 L 620.2809 447.6882 L 618.9105 450.6064 L 618.3636 452.1584 L 618.0411 453.8053 L 617.5572 458.9485 L 617.1488 461.4694 L 616.61 463.0683 L 614.8601 466.8529 L 614.4579 468.3771 L 613.7611 472.2857 L 612.8636 474.5524 L 611.8443 475.8932 L 610.5958 477.0038 L 608.6349 478.0347 L 604.2097 479.6993 L 603.5879 478.1321 L 602.8275 477.487 L 600.9605 474.1717 L 599.7889 474.1717 L 598.7524 472.7904 L 596.1962 471.4078 L 595.3671 470.5793 L 593.779 470.9474 L 592.8118 471.6848 L 592.0519 471.3168 L 591.1535 472.1453 L 591.0155 471.1321 L 589.4957 469.5661 L 587.216 468.0925 L 586.2493 468.921 L 584.729 468.4606 L 584.2452 467.7244 L 584.4529 465.9738 L 583.6926 466.0661 L 582.3796 465.1453 L 581.4821 466.1585 L 579.9628 466.4342 L 579.7551 465.421 L 578.8571 464.4078 L 578.9956 463.6716 L 579.6858 463.1189 L 578.6494 462.4738 L 578.4426 461.7363 L 577.1988 461.1848 L 576.5775 462.0133 L 575.5405 460.9078 L 574.3666 461.0925 L 573.3311 460.1716 L 573.1921 458.6967 L 573.8139 458.1452 L 574.0905 456.4869 L 575.3337 454.8287 L 574.5046 454.0001 L 573.1921 454.7135 L 572.6395 454.4606 L 569.5311 454.6452 L 568.3566 454.921 L 569.8072 452.7099 L 569.2541 452.7099 L 568.84 451.421 L 568.84 449.9474 L 567.5275 449.3946 L 566.492 450.1308 L 566.492 451.144 L 564.4191 451.3286 L 563.728 449.9474 L 564.5572 447.0001 L 564.3499 446.1703 L 564.7645 445.1571 L 565.8004 444.6967 L 566.492 444.7891 L 567.1134 443.9605 L 567.5275 442.578 L 569.2541 442.578 L 570.9817 442.2099 L 571.2582 440.1835 L 570.291 439.9988 L 568.3566 438.3418 L 569.8764 438.3418 L 570.6363 437.789 L 571.4655 438.0648 L 572.1566 437.1439 L 571.327 435.7627 L 570.9124 434.289 L 571.5343 433.1835 L 570.9124 432.9065 L 570.9817 431.8946 L 569.117 431.8946 L 569.6004 430.512 L 568.702 430.0516 L 568.5639 429.0384 L 569.4619 428.0252 L 570.0837 426.6439 L 567.3207 426.2758 L 567.3895 425.446 L 566.9066 424.5252 L 564.5572 423.789 L 564.4191 422.3141 L 564.005 421.8537 L 564.9717 421.1175 L 566.492 418.7231 L 567.0446 417.4328 L 566.9066 416.8801 L 567.3207 414.6703 L 568.84 414.5779 L 568.978 415.1307 L 570.0145 415.0384 L 570.291 414.2086 L 569.0473 413.5647 L 568.4952 412.2745 L 569.3926 409.235 L 569.5311 407.3932 L 570.3598 406.8405 L 570.0145 405.735 L 570.6363 404.3537 L 570.2218 402.4196 L 570.2218 399.6558 L 569.3926 398.4592 L 567.9421 397.3537 L 566.8373 397.2613 L 567.3207 396.3405 L 566.63 395.5107 L 565.1098 395.3273 L 565.5244 396.2481 L 566.63 397.7217 L 566.2155 399.2877 L 565.3166 398.2745 L 563.6592 398.7349 L 562.2087 397.9064 L 562.6228 397.0766 L 562.2087 395.603 L 561.38 395.2349 L 561.4483 393.8536 L 560.965 392.103 L 559.929 392.6558 L 559.3072 394.4064 L 557.6493 394.4975 L 555.9223 394.8668 L 554.264 394.4064 L 554.0567 395.0503 L 552.8134 394.4975 L 551.2244 394.3141 L 551.6385 395.2349 L 551.8462 398.1822 L 552.4676 399.2877 L 551.0864 400.3009 L 549.014 400.946 L 548.3233 400.1162 L 547.2869 399.5635 L 546.5967 401.0383 L 545.2837 400.8537 L 544.7999 400.2086 L 543.5571 400.2086 L 542.7968 399.5635 L 542.0373 399.6558 L 541.3458 398.8273 L 541.6915 397.8141 L 543.0728 397.5371 L 543.3494 398.0898 L 545.3525 398.0898 L 545.8368 397.3537 L 547.8395 396.1558 L 549.429 394.8668 L 550.3269 394.4064 L 549.3588 391.2745 L 547.9087 391.6426 L 546.9416 391.0898 L 547.3561 389.6162 L 547.1493 388.6953 L 547.5634 387.6822 L 545.0764 386.9447 L 544.5238 384.8272 L 545.4218 384.3668 L 546.3202 383.3536 L 546.0441 382.2481 L 546.3202 380.8655 L 545.8368 379.8524 L 546.4582 379.3009 L 546.6655 377.826 L 547.9087 377.3655 L 547.701 375.9843 L 548.3233 375.4315 L 548.9447 373.9579 L 550.3269 373.5898 L 551.2936 374.8787 L 552.6754 375.9843 L 553.4353 375.1557 L 555.7154 374.9711 L 555.7154 375.5238 L 557.7874 375.7085 L 557.0967 374.5106 L 556.8894 373.5898 L 558.616 373.6821 L 557.9254 372.0238 L 558.34 371.2864 L 557.9947 367.603 L 557.2352 367.2336 L 557.5108 365.9447 L 558.0634 365.5766 L 559.4452 365.6689 L 560.1358 366.4974 L 561.38 365.76 L 562.4843 366.1293 L 562.8301 367.5106 L 563.728 367.6953 L 564.2123 368.8919 L 563.9353 370.1821 L 563.1071 370.6425 L 562.1395 369.9974 L 560.827 372.9447 L 561.2411 373.9579 L 561.8624 373.4974 L 563.3139 373.4974 L 564.0738 372.8523 L 565.4551 373.2217 L 566.7681 372.8523 L 567.5963 372.1162 L 568.2186 370.2732 L 569.117 368.8919 L 569.0473 366.037 L 569.3243 365.2996 L 567.9421 362.7204 L 566.492 362.8127 L 566.353 361.2468 L 565.5931 359.2204 L 564.2806 356.9183 L 561.6556 354.3391 L 558.616 354.3391 L 557.9947 353.694 L 556.6822 353.5106 L 554.7478 354.2468 L 552.7442 353.694 L 551.2936 352.4051 L 550.3957 351.1149 L 549.4978 350.3787 L 548.0472 348.628 L 547.1493 348.3523 L 547.0796 344.6676 L 546.5967 345.5885 L 545.6978 346.1412 L 544.7999 345.3127 L 543.5571 346.971 L 542.2437 345.9578 L 542.59 344.8523 L 543.1421 344.8523 L 544.2473 343.7468 L 544.2473 342.6412 L 543.6254 342.2731 L 542.6583 343.1017 L 541.9676 343.1017 L 541.5535 343.9314 L 539.9645 343.6544 L 539.6196 343.0093 L 538.5822 343.2863 L 538.9973 344.4829 L 536.8556 343.7468 L 536.5103 342.4565 L 535.8885 341.8127 L 535.8202 340.7072 L 534.2306 340.7072 L 533.7473 340.1544 L 533.7473 339.0489 L 532.5728 338.5885 L 532.5728 337.8523 L 531.7437 337.1148 L 530.5692 337.2072 L 530.2243 338.6808 L 529.1879 337.6676 L 527.8749 336.0093 L 526.2171 335.0884 L 526.2864 334.0753 L 525.4567 332.7863 L 524.5593 331.9565 L 524.6973 330.9433 L 524.352 329.5621 L 523.2468 328.8246 L 521.2436 329.1016 L 520.5525 330.2072 L 519.9696 330.2982 Z M 540.4478 347.7072 L 542.3822 348.7204 L 542.1056 349.7336 L 541.1389 349.6412 L 540.1718 348.9974 L 539.9645 348.1676 L 540.4478 347.7072 Z M 550.5337 359.1281 L 551.4317 360.5106 L 551.9843 360.4183 L 552.1228 361.8919 L 550.0504 363.3655 L 549.5666 362.3523 L 549.7051 360.971 L 549.2212 360.1413 L 550.0499 359.8655 L 550.5337 359.1281 Z M 565.3166 362.9051 L 565.1098 363.5502 L 563.6592 364.3787 L 563.5207 363.4579 L 565.3166 362.9051 Z M 556.889 395.3273 L 557.0967 396.2481 L 555.9915 396.7086 L 555.0926 395.6954 L 555.3004 395.3273 L 556.889 395.3273 Z" fill="#000000" fill-opacity="1" stroke="#000000" stroke-width="0" paint-order="fill" stroke-opacity="1" stroke-dasharray="" stroke-linecap="butt" stroke-linejoin="miter" stroke-miterlimit="10" transform="matrix(1.100000023841858,0,0,1.100000023841858,-40,-26.649948120117188)" clip-path="none"/>
<path data-code="204" d="M 418.7171 83.7115 L 414.4186 90.5724 L 413.6905 92.1295 L 413.063 94.9781 L 412.9126 96.9488 L 412.859 104.9772 L 412.5502 108.9174 L 411.7823 111.5914 L 409.8991 115.3242 L 408.5691 118.6104 L 406.1751 123.0161 L 404.716 126.1708 L 403.199 128.1516 L 401.2837 129.71 L 398.245 131.2532 L 396.8467 132.1374 L 394.1572 134.2498 L 389.8018 129.7948 L 387.1236 127.628 L 385.7699 126.8931 L 382.4888 125.4523 L 378.9303 123.4108 L 375.8182 122.0194 L 373.8772 120.4724 L 372.3863 118.4612 L 371.051 115.2369 L 368.7419 110.7819 L 367.4366 107.4754 L 366.0391 105.3074 L 363.684 102.7421 L 361.7127 101.0826 L 360.3091 100.1895 L 357.2401 98.745 L 355.32 97.2195 L 353.8291 95.2463 L 352.0119 91.3579 L 349.9846 88.603 L 345.8004 84.0619 L 336.7718 74.9495 L 340.8265 68.9753 L 343.0246 64.2269 L 345.1188 61.4858 L 346.9796 59.6757 L 349.0634 58.1996 L 350.651 57.5355 L 354.9173 56.6058 L 356.5689 56.0631 L 360.153 54.1519 L 361.7577 53.5713 L 363.5057 53.2993 L 365.2807 53.3069 L 367.0348 53.6105 L 368.6457 54.2784 L 370.0459 55.2232 L 373.9113 58.5753 L 375.2494 59.5922 L 379.0484 61.5744 L 381.2641 63.1542 L 384.6865 66.3848 L 394.6339 76.7406 L 396.7352 78.5735 L 398.2398 79.5841 L 401.3757 81.0388 L 404.9475 83.0336 L 407.442 83.8178 L 409.2346 84.0379 L 411.9862 84.1201 L 414.6539 84.029 L 418.7171 83.7115 Z" fill="#000000" fill-opacity="1" stroke="#000000" stroke-width="0" paint-order="fill" stroke-opacity="1" stroke-dasharray="" stroke-linecap="butt" stroke-linejoin="miter" stroke-miterlimit="10" transform="matrix(1.100000023841858,0,0,1.100000023841858,-40,-26.649948120117188)" clip-path="none"/>
<path data-code="205" d="M 384.9322 298.3377 L 382.625 296.959 L 382.6131 284.6641 L 382.7673 281.4828 L 383.0372 279.4084 L 383.9621 276.4535 L 388.3958 268.4985 L 390.5678 262.5914 L 391.719 260.4334 L 393.9086 257.6962 L 397.6232 253.8825 L 399.596 252.1508 L 402.3528 250.428 L 404.9157 249.3731 L 409.2156 246.9723 L 412.3287 245.5821 L 413.6682 244.6132 L 414.8308 243.4141 L 416.086 241.4003 L 417.1324 238.8199 L 419.4969 234.3902 L 420.5533 231.7541 L 422.2415 228.9498 L 425.5211 224.9084 L 426.9118 222.7581 L 428.2827 219.4883 L 430.6691 215.0636 L 431.707 212.4301 L 433.3729 209.5891 L 435.0335 207.5501 L 437.4332 204.957 L 440.6701 201.9996 L 442.1439 201.037 L 443.5627 200.4349 L 446.8356 199.9024 L 448.9417 199.8265 L 458.8383 199.9619 L 463.059 199.8632 L 464.9749 199.6507 L 466.6266 199.227 L 468.1914 198.1834 L 471.6712 196.6352 L 475.8482 195.2298 L 480.2648 193.058 L 482.0981 192.5748 L 484.975 192.2586 L 487.9231 192.1776 L 500.8721 192.3939 L 504.8006 192.3496 L 507.6746 192.0284 L 509.5189 191.4781 L 512.0068 189.9412 L 514.9221 187.2343 L 518.2738 183.4219 L 521.1326 179.3274 L 522.7715 181.9597 L 523.7467 183.2828 L 525.4847 185.1966 L 528.1316 187.252 L 530.2025 188.0502 L 532.2484 188.4309 L 539.7045 196.1583 L 541.6802 197.7698 L 543.0766 198.7008 L 544.6339 199.3977 L 547.1673 200.0264 L 549.7535 203.4682 L 551.582 207.4615 L 553.6691 211.126 L 554.7208 213.3067 L 551.0958 215.82 L 549.798 216.9357 L 548.1298 218.8862 L 547.3519 220.2485 L 546.2552 222.8125 L 544.4418 226.4478 L 544.0652 227.9316 L 544.1164 230.0275 L 544.549 231.4632 L 545.9986 234.3067 L 546.5488 235.817 L 546.9112 239.016 L 546.6361 241.4395 L 546.1029 243.0131 L 544.1406 246.6864 L 542.7896 249.9612 L 540.3439 254.3657 L 538.9622 257.6304 L 537.4941 259.887 L 535.0944 262.6774 L 531.8689 266.0484 L 528.5675 269.3207 L 526.5188 271.132 L 524.3406 272.6297 L 521.21 274.0995 L 519.8064 275.0153 L 517.8255 276.6799 L 512.7624 281.5916 L 510.7854 283.2701 L 509.3823 284.1973 L 505.5439 286.1174 L 504.1778 287.1091 L 500.2389 290.4371 L 497.5403 292.1726 L 495.0273 293.3388 L 493.6446 294.2306 L 487.36 299.5723 L 484.4362 300.0972 L 481.6793 300.3047 L 478.9556 300.1731 L 476.3468 299.5027 L 474.7425 298.5857 L 473.2863 297.4397 L 469.7904 294.3634 L 468.2924 293.3072 L 465.1993 291.7488 L 461.6782 289.6731 L 459.1865 288.8838 L 457.4101 288.7383 L 455.6275 288.8737 L 453.8829 289.3556 L 451.5079 290.8482 L 449.4682 292.8113 L 447.6889 295.0325 L 446.7241 296.6503 L 445.3689 299.9543 L 443.0731 304.4662 L 441.8972 308.1762 L 442.2687 313.9037 L 440.764 313.1663 L 440.0734 313.719 L 439.175 313.6267 L 438.8989 314.5488 L 438.001 314.7322 L 438.2771 311.9697 L 437.7245 310.6795 L 435.5828 308.6531 L 433.925 308.7454 L 433.3724 308.3773 L 432.0603 308.7454 L 431.3692 308.0092 L 430.3328 307.7322 L 430.9547 306.8114 L 430.5401 305.2454 L 429.7802 305.2454 L 429.1588 303.5871 L 428.3301 303.496 L 426.8791 304.1399 L 427.1552 305.0607 L 426.9479 307.0871 L 426.0504 307.7322 L 426.6714 309.5739 L 425.3589 310.4961 L 422.8719 310.7718 L 422.1812 311.3246 L 422.3197 312.5224 L 421.9052 314.1795 L 422.8719 314.3642 L 423.563 315.4697 L 424.599 315.285 L 425.0135 315.7454 L 424.9452 318.1412 L 423.9776 318.8774 L 422.8031 318.8774 L 421.4213 317.5884 L 419.7635 317.9565 L 419.2797 316.2059 L 419.8323 315.6531 L 419.1417 314.2718 L 417.4834 314.3642 L 416.4474 316.4829 L 415.3422 317.3114 L 414.1677 316.1148 L 414.4443 315.1016 L 413.2005 314.3642 L 412.0958 314.4565 L 412.165 313.2586 L 413.4771 312.9829 L 413.6844 311.6016 L 414.4443 311.6003 L 414.375 310.3114 L 415.2037 309.5752 L 414.6511 308.6531 L 413.6151 308.1927 L 412.0958 308.8378 L 411.1281 308.562 L 410.3682 309.0224 L 408.6416 309.3905 L 407.2594 309.1135 L 407.1219 309.5739 L 405.1182 310.4037 L 404.4964 308.7454 L 403.8057 308.1003 L 403.8057 306.6267 L 402.9078 306.5356 L 402.5625 305.7982 L 403.3912 304.9697 L 402.2167 303.6795 L 402.3552 301.8377 L 403.6677 301.8377 L 403.7365 300.5475 L 402.6313 299.9037 L 402.4245 298.5212 L 402.8386 298.2454 L 403.2531 296.8641 L 405.6708 296.9552 L 406.362 296.4948 L 406.638 295.6662 L 406.2927 294.4684 L 406.638 292.2586 L 405.2558 291.7982 L 403.5297 291.8892 L 403.1839 290.9684 L 404.4271 289.9552 L 404.4271 288.942 L 403.875 288.1135 L 401.0427 287.7454 L 401.0427 289.219 L 400.7662 290.1399 L 401.0427 290.785 L 400.7662 292.1662 L 399.6609 292.1662 L 397.7266 295.1135 L 397.2432 294.285 L 396.4141 294.3773 L 396.1375 295.1135 L 395.3776 295.0211 L 394.825 295.7586 L 392.4073 295.8509 L 391.5782 296.3114 L 391.0948 294.1003 L 391.5782 293.4552 L 391.5782 292.3509 L 390.4725 292.1662 L 388.8844 294.4684 L 388.5395 296.7718 L 386.8115 296.7718 L 386.4662 297.6003 L 384.9322 298.3377 Z" fill="#000000" fill-opacity="1" stroke="#000000" stroke-width="0" paint-order="fill" stroke-opacity="1" stroke-dasharray="" stroke-linecap="butt" stroke-linejoin="miter" stroke-miterlimit="10" transform="matrix(1.100000023841858,0,0,1.100000023841858,-40,-26.649948120117188)" clip-path="none"/>
<path data-code="206" d="M 316.3381 313.2586 L 314.2434 312.0519 L 309.8643 310.806 L 305.0199 308.8846 L 306.4709 307.6399 L 306.4016 306.2586 L 303.3621 304.8773 L 302.948 303.6795 L 302.3256 304.5092 L 301.2901 304.6926 L 300.3913 303.5871 L 297.8355 303.8641 L 297.4902 304.8773 L 294.5886 305.0607 L 294.8652 304.1386 L 293.0688 303.4037 L 292.724 302.8509 L 291.6188 303.1267 L 291.0657 302.0212 L 293.2761 302.0212 L 293.898 301.5607 L 295.3485 301.5607 L 296.1777 301.1926 L 294.7276 299.9037 L 293.4142 299.4433 L 293.8283 296.4948 L 291.9636 297.0475 L 291.7563 296.4037 L 294.3126 295.2058 L 294.2433 293.0871 L 295.3485 293.9156 L 295.3485 294.9288 L 296.385 295.3905 L 297.1449 294.8377 L 298.7334 295.0211 L 299.3553 294.2837 L 299.0792 293.7322 L 299.4933 292.6267 L 300.2532 292.6267 L 301.2901 293.1782 L 301.9803 292.2586 L 302.8787 291.7058 L 301.8427 291.153 L 302.3953 290.3245 L 303.6381 290.6003 L 304.3288 290.1386 L 303.8454 288.942 L 304.9516 287.8377 L 304.4673 286.6398 L 303.7762 287.7454 L 300.9439 287.0079 L 300.3913 286.3628 L 300.599 284.8892 L 301.5657 283.6926 L 302.5329 283.6926 L 303.2235 282.4947 L 302.3256 281.7586 L 298.9407 282.0343 L 298.1116 281.8496 L 296.5923 280.0079 L 294.5199 279.5462 L 294.1741 278.8101 L 297.1449 278.8101 L 298.0423 278.442 L 298.3886 278.9947 L 299.7699 278.8101 L 300.3225 278.3496 L 300.3913 276.2309 L 299.7699 275.7705 L 300.0459 275.0343 L 298.5261 275.1266 L 296.7995 274.942 L 296.7995 273.376 L 298.4578 273.9288 L 300.1152 273.1913 L 300.599 274.1134 L 301.5657 273.653 L 302.6022 273.5607 L 303.7762 272.3628 L 304.5365 272.5475 L 305.1574 271.442 L 307.3688 271.2573 L 306.6777 270.5211 L 303.0167 270.6134 L 302.8094 270.2441 L 301.4277 269.876 L 301.0824 269.1398 L 302.1876 268.9551 L 302.8094 269.3232 L 303.7762 269.1398 L 304.8814 269.4156 L 306.3324 268.8615 L 306.4709 268.2177 L 308.1975 267.6649 L 309.5105 268.0343 L 310.6152 267.4815 L 311.0298 268.2177 L 312.6193 268.1266 L 313.3787 268.7705 L 313.7236 269.6002 L 314.4152 269.5079 L 314.3459 267.6649 L 315.5891 267.8496 L 316.8329 268.8615 L 317.5928 268.7705 L 317.6615 270.1517 L 320.6323 269.9683 L 321.0469 268.7705 L 321.738 269.9683 L 322.5667 269.876 L 323.7407 271.442 L 324.7079 271.1649 L 325.1917 272.6398 L 326.1589 273.376 L 326.3662 274.7573 L 327.5402 273.7441 L 327.0568 271.7177 L 328.6459 271.7177 L 329.8199 272.2692 L 329.4745 274.5739 L 330.4417 275.31 L 330.0272 276.5067 L 330.2344 277.7058 L 329.9579 278.442 L 330.5798 278.9947 L 332.2385 278.6266 L 331.962 276.6926 L 332.5834 275.0343 L 331.6859 274.7573 L 333.2048 272.5475 L 332.2385 270.6134 L 331.8235 269.1385 L 330.8563 269.6913 L 330.787 268.587 L 331.3392 268.1266 L 332.6522 268.587 L 332.2385 267.2045 L 330.3725 267.2045 L 329.5438 266.1913 L 330.1657 265.7309 L 330.649 264.7177 L 332.3761 264.6241 L 334.1032 264.256 L 334.448 265.2705 L 335.2776 265.087 L 337.0042 265.1781 L 336.5209 267.1134 L 337.8334 267.4815 L 338.386 266.7441 L 338.2484 265.2705 L 340.5969 264.81 L 341.4256 263.7968 L 341.6333 261.4947 L 341.2871 260.0211 L 340.2511 258.3628 L 341.0105 258.0858 L 342.2547 256.6121 L 343.0146 256.5198 L 343.9818 255.4155 L 342.9454 254.8628 L 342.1859 254.9551 L 341.3563 254.1253 L 339.7678 254.1253 L 340.2511 253.3879 L 340.873 253.6649 L 342.5308 253.3879 L 343.7745 252.8364 L 343.8428 251.7309 L 343.2907 251.2704 L 343.2907 249.8891 L 343.7053 248.7836 L 345.3631 248.1385 L 346.9521 250.0726 L 348.0573 250.6241 L 349.5776 250.6241 L 350.4751 250.2572 L 351.7871 251.3628 L 353.3074 250.9023 L 354.2058 249.8891 L 353.3766 248.876 L 351.3735 247.5857 L 351.2345 246.8496 L 352.4099 246.6649 L 352.686 246.0198 L 356.4162 243.81 L 356.91 242.5944 L 359.7119 245.5416 L 361.9812 248.2258 L 363.3496 250.3698 L 364.7613 253.5359 L 365.6919 254.9032 L 366.8351 256.1011 L 368.1481 257.0814 L 371.8992 259.0041 L 373.2529 259.9983 L 377.1805 263.3516 L 379.2847 264.7708 L 385.3989 267.3854 L 388.3958 268.4985 L 383.9621 276.4535 L 383.0372 279.4084 L 382.7673 281.4828 L 382.6131 284.6641 L 382.625 296.959 L 384.9322 298.3377 L 384.463 299.165 L 384.6703 300.0871 L 385.6375 301.6531 L 386.4662 301.1926 L 386.8115 302.2058 L 387.6407 302.5739 L 388.9532 302.4829 L 389.0224 301.6531 L 389.8516 301.6531 L 390.4725 301.008 L 391.7171 301.008 L 393.3052 301.3773 L 393.651 301.9288 L 395.9312 301.6531 L 396.5521 304.4169 L 395.5844 305.3378 L 395.4469 306.8101 L 396.0688 307.2718 L 395.7234 308.4697 L 394.2032 309.5752 L 393.3052 310.9565 L 393.7198 311.9697 L 393.5818 312.8905 L 392.6146 313.9961 L 392.8911 315.3773 L 391.6474 316.3905 L 391.6474 318.1412 L 389.7823 318.9697 L 388.5395 319.1544 L 387.6407 317.8642 L 385.3605 318.3246 L 385.3605 316.3905 L 384.325 314.9169 L 383.2198 314.8246 L 382.736 315.7454 L 380.8011 315.5608 L 379.213 314.1795 L 378.2454 311.9697 L 377.0714 312.1531 L 374.999 312.062 L 373.4099 311.0488 L 372.512 311.0488 L 371.9589 310.5871 L 370.9234 310.4961 L 369.5417 309.2982 L 368.0214 308.6531 L 367.1927 308.562 L 366.4329 309.0224 L 366.3641 310.4037 L 365.8802 311.9697 L 365.2584 312.4301 L 365.3276 313.351 L 366.3641 313.9961 L 366.8474 314.7322 L 367.9526 314.8246 L 368.0907 316.2059 L 365.1891 315.4697 L 365.1199 316.0225 L 363.1172 315.6531 L 362.9787 316.4829 L 362.012 316.5752 L 361.5974 317.4025 L 360.699 316.7586 L 360.561 315.9301 L 358.9032 315.7454 L 357.4526 315.0093 L 357.3834 314.3642 L 358.3501 313.351 L 358.1437 312.1531 L 356.4854 310.0356 L 358.5578 310.0356 L 358.9729 309.3905 L 359.8703 310.219 L 361.1136 309.7586 L 361.5286 308.9301 L 362.5646 308.562 L 363.1172 307.9156 L 364.4297 308.7454 L 365.2584 307.7322 L 365.7422 308.562 L 366.4329 307.5476 L 367.9526 308.1927 L 367.8839 306.9037 L 368.7125 306.3509 L 368.7125 305.3378 L 367.6766 304.6003 L 366.7094 304.8773 L 365.3276 304.6003 L 363.6006 303.1267 L 363.3933 301.285 L 362.2881 300.6399 L 361.1136 299.2586 L 360.9058 298.2454 L 358.8339 297.6926 L 358.2813 297.785 L 357.5907 296.7718 L 357.038 296.7718 L 354.2058 299.4433 L 353.8604 300.0871 L 351.7871 302.4829 L 351.0277 304.0475 L 350.8896 307.0871 L 351.0969 308.1927 L 350.2678 310.219 L 348.1954 312.1531 L 348.6792 313.6267 L 349.3698 314.1795 L 351.3735 313.9961 L 351.9261 315.6531 L 353.3074 316.9433 L 354.0672 316.9433 L 353.8604 318.5093 L 353.1693 318.9697 L 353.1005 319.9829 L 353.5146 321.4565 L 352.3406 321.5476 L 352.2021 323.2982 L 355.0344 325.0489 L 356.8308 325.4169 L 356.5542 327.351 L 357.038 327.9961 L 356.8995 330.5752 L 357.3834 331.9565 L 358.6261 332.694 L 359.7323 332.3246 L 359.8016 331.5884 L 361.0448 331.4025 L 361.3209 330.6676 L 362.8407 331.128 L 363.8078 332.8774 L 364.0844 334.351 L 364.9828 335.0884 L 363.8771 335.917 L 363.1172 336.1016 L 363.5318 337.0225 L 365.0511 336.8391 L 365.673 337.1148 L 364.8443 338.3127 L 363.6006 339.2336 L 362.8407 339.3259 L 362.4953 340.7995 L 361.3209 340.7072 L 360.4229 339.8787 L 360.561 338.7731 L 360.2849 336.7467 L 359.9391 336.1016 L 358.6261 335.7335 L 357.5214 336.3774 L 356.6927 337.4829 L 355.9328 337.4829 L 355.7938 336.4697 L 354.0672 337.0225 L 353.2386 337.6676 L 352.6167 339.5093 L 351.8573 339.694 L 352.1334 340.9829 L 351.7871 342.1808 L 350.7516 341.5357 L 349.9917 341.4434 L 349.9225 343.4697 L 348.2646 344.6663 L 347.712 345.8655 L 347.1594 345.9578 L 346.9521 346.971 L 348.6099 346.694 L 348.3339 347.4302 L 345.7777 347.8919 L 345.5016 349.1808 L 346.6756 350.194 L 346.0542 351.2995 L 345.0182 351.4842 L 344.6032 350.5621 L 343.636 350.2863 L 342.3928 351.2072 L 340.9422 350.5621 L 339.837 350.5621 L 339.3537 352.0357 L 337.9022 351.6676 L 337.1427 352.7732 L 335.6917 352.7732 L 335.623 353.6927 L 334.2412 354.2468 L 332.998 353.6927 L 330.5798 354.0608 L 329.8199 354.5238 L 328.9912 355.6281 L 329.1297 356.8259 L 330.3725 357.0106 L 330.9943 357.471 L 330.787 358.76 L 329.8891 358.6664 L 329.4062 359.6808 L 328.3693 360.2323 L 327.6094 362.1676 L 326.9876 362.3523 L 326.9876 363.9183 L 326.5042 364.471 L 326.6423 366.037 L 325.399 368.1557 L 324.4318 370.1821 L 322.5667 372.9447 L 321.9448 373.2217 L 321.738 374.4183 L 321.185 374.7864 L 320.9777 375.8919 L 320.2866 376.4447 L 320.4251 377.2745 L 319.5959 377.9183 L 319.5959 378.9315 L 318.7672 380.6821 L 317.9381 380.8655 L 317.2474 381.5107 L 316.6948 383.169 L 315.5204 384.0898 L 314.4152 383.9975 L 314.1386 385.2877 L 313.3787 385.0107 L 312.6193 385.6558 L 312.4808 386.4843 L 311.4439 385.8404 L 311.4439 385.0107 L 310.1319 384.7349 L 310.1319 383.3524 L 309.8558 382.0634 L 307.9907 382.5238 L 306.6777 382.3404 L 306.4709 383.6294 L 305.1574 385.5634 L 303.9839 386.669 L 303.4313 386.669 L 302.8094 388.0502 L 302.8094 389.8009 L 301.4277 389.8932 L 300.8751 390.8141 L 299.3553 391.9196 L 299.0792 392.8405 L 297.6282 392.7481 L 296.5923 393.4843 L 296.7995 391.0898 L 295.6938 390.9975 L 293.6907 388.88 L 292.9996 388.4196 L 292.9308 390.3536 L 293.5522 391.4592 L 294.8652 391.7349 L 294.1048 392.7481 L 292.4479 391.7349 L 291.3418 391.8273 L 290.8584 392.7481 L 290.0293 391.2745 L 289.2006 391.7349 L 288.0261 393.1162 L 288.0944 393.8536 L 287.0589 393.946 L 286.161 395.6954 L 285.5391 395.4196 L 285.1938 394.1294 L 285.4011 391.1822 L 284.5027 390.169 L 283.0522 389.4328 L 282.4303 387.9579 L 281.6709 387.8668 L 281.6709 386.7613 L 282.1542 386.2085 L 283.7428 386.3009 L 284.5027 385.2877 L 283.8121 383.9975 L 282.7766 383.2613 L 282.7069 382.5238 L 281.5324 382.0634 L 280.9798 381.1426 L 279.598 380.6821 L 280.2891 379.9447 L 280.4272 379.2085 L 282.2235 378.103 L 283.3282 378.1953 L 283.3282 377.2745 L 284.4335 377.3655 L 286.4371 376.7217 L 286.9892 377.3655 L 288.5095 378.0106 L 290.5819 378.0106 L 291.5486 378.7481 L 293.4834 378.4711 L 294.4506 378.9315 L 295.6251 379.0238 L 295.9011 379.4843 L 298.1808 379.7613 L 299.3553 379.3919 L 301.2901 379.1162 L 302.3256 378.6558 L 302.6022 377.7336 L 304.0522 378.1953 L 304.398 378.9315 L 305.7802 378.9315 L 305.0891 378.0106 L 305.5725 376.7217 L 306.885 376.4447 L 309.5105 373.7732 L 309.7865 371.7481 L 310.5464 370.7349 L 311.2371 370.3655 L 311.9282 369.3523 L 312.6881 368.8919 L 314.0694 366.8655 L 314.0001 365.3919 L 312.9641 363.8259 L 312.0667 363.8259 L 312.2042 362.7204 L 311.099 361.3379 L 310.961 360.5106 L 309.6485 360.694 L 308.1292 360.603 L 308.0599 361.8919 L 307.5068 363.3655 L 307.5068 364.6557 L 306.9542 365.5766 L 306.6089 367.0502 L 305.2964 368.6162 L 304.4673 368.0634 L 303.5006 366.7732 L 304.1219 366.5898 L 305.2276 366.9579 L 305.5725 366.5898 L 306.1251 363.3655 L 307.2308 362.0766 L 305.4344 361.4315 L 304.8126 362.537 L 303.7762 362.4447 L 303.3621 361.4315 L 304.3288 361.0621 L 305.4344 361.0621 L 305.6417 359.6808 L 306.1943 358.4842 L 307.0235 357.471 L 307.2996 356.2732 L 305.2276 356.0885 L 304.4673 355.8127 L 303.5006 356.4566 L 302.3256 355.8127 L 302.4641 354.9842 L 303.2928 352.8655 L 302.8782 352.3115 L 301.635 351.76 L 301.2901 350.471 L 300.5298 349.7336 L 299.6318 351.4842 L 299.8391 352.9578 L 300.3913 353.2336 L 299.7006 354.6149 L 299.8391 355.537 L 298.8719 356.4566 L 298.1116 356.2732 L 297.1449 356.8259 L 296.523 357.8391 L 294.6574 357.471 L 294.036 356.5502 L 292.9996 356.6413 L 291.9636 357.3787 L 291.1345 355.8127 L 289.6839 355.8127 L 289.2006 356.726 L 288.0944 357.194 L 287.0589 355.7204 L 284.1569 356.0885 L 283.3282 354.9842 L 281.2563 355.3523 L 281.3948 354.2468 L 281.2563 352.4974 L 282.0162 351.8523 L 283.3975 352.2204 L 283.8809 351.5753 L 283.8809 350.1017 L 285.4699 350.5621 L 285.1246 352.2204 L 285.5391 353.0489 L 286.7824 351.8523 L 286.7824 351.2072 L 285.8157 350.194 L 286.0225 349.0885 L 286.9209 348.1676 L 289.3386 348.4446 L 289.6839 346.8787 L 292.1714 345.9578 L 292.1714 348.074 L 293.2074 347.6149 L 293.5522 346.1412 L 294.1741 344.8523 L 296.2465 345.0344 L 296.7303 345.7731 L 299.3553 344.7599 L 299.6318 345.4961 L 300.9439 346.0489 L 300.8751 343.9314 L 301.2901 341.9961 L 302.7402 340.7072 L 304.8814 340.3391 L 305.5037 339.694 L 307.7141 339.0489 L 309.0266 338.8655 L 310.6845 338.128 L 312.2735 338.128 L 312.7569 339.0489 L 313.6553 338.5885 L 314.7605 338.7731 L 313.9313 339.7863 L 312.7569 340.6148 L 312.1355 340.5225 L 311.5141 341.2599 L 312.1355 342.7336 L 312.4808 344.5753 L 313.586 344.9446 L 314.0001 345.5885 L 315.6584 345.4051 L 316.2803 343.5621 L 317.2474 342.4565 L 318.3531 341.9961 L 318.9745 340.6148 L 318.2839 339.6016 L 318.2839 338.0357 L 320.0797 338.3127 L 320.7704 338.7731 L 322.4282 338.8655 L 322.1521 337.5753 L 321.6678 336.8391 L 320.6323 336.9302 L 320.2178 335.7335 L 317.5928 335.5489 L 315.0365 334.351 L 313.8625 334.1676 L 313.3787 333.5225 L 312.4115 333.8906 L 312.0667 333.0621 L 311.3756 333.0621 L 311.2371 331.128 L 312.2042 330.1148 L 312.8954 330.0225 L 313.0334 328.5489 L 313.6553 328.4565 L 313.6553 327.4433 L 313.1719 326.797 L 314.899 325.2335 L 315.6584 324.7718 L 317.9381 326.5225 L 318.5599 325.8774 L 318.698 324.8642 L 318.1454 324.0357 L 318.4902 323.2071 L 319.2506 324.3114 L 320.4943 325.2335 L 320.2866 326.797 L 321.9448 328.4565 L 322.2204 329.3774 L 322.8433 329.3774 L 323.4646 328.4565 L 322.6355 327.5357 L 322.3594 324.5884 L 321.8068 323.851 L 320.6323 323.1148 L 321.3918 322.3774 L 321.2542 319.1544 L 322.3594 318.3246 L 322.0829 317.4025 L 322.912 316.5752 L 322.2204 314.8246 L 320.1485 313.165 L 317.5928 312.8905 L 316.3381 313.2586 Z M 341.5631 249.3364 L 341.3573 250.1649 L 342.3928 250.0726 L 342.462 250.9921 L 340.1819 250.9921 L 340.4584 250.0726 L 341.5631 249.3364 Z M 339.6302 259.9287 L 340.0438 261.5858 L 338.9386 262.1385 L 337.4188 261.9551 L 337.6261 261.2177 L 338.4548 260.4815 L 339.6302 259.9287 Z M 296.7995 291.4288 L 297.1449 292.3509 L 295.6251 292.3509 L 295.2105 291.7058 L 296.7995 291.4288 Z M 361.9427 307.1795 L 361.8735 307.9169 L 359.525 307.9169 L 359.525 307.3641 L 361.9427 307.1795 Z M 354.6203 310.9565 L 355.1729 311.8773 L 354.1365 314.2718 L 353.9292 313.0752 L 353.1005 312.6135 L 351.9948 312.7982 L 350.9584 312.4301 L 350.8209 311.4169 L 352.686 311.785 L 354.6203 310.9565 Z M 399.937 321.8246 L 400.0063 323.9433 L 398.0031 323.9433 L 398.901 322.7454 L 398.901 321.6412 L 399.937 321.8246 Z M 303.2235 335.6412 L 304.7438 336.2863 L 306.1943 335.8259 L 306.747 336.0093 L 306.2636 337.3906 L 305.3652 338.5885 L 303.8454 339.3259 L 302.1188 339.3259 L 302.0495 338.7731 L 303.2928 337.4829 L 303.2928 337.0225 L 301.9803 336.5621 L 301.9115 335.917 L 303.2235 335.6412 Z M 298.6646 338.5885 L 297.9052 341.628 L 296.7995 342.1808 L 295.7631 342.1808 L 293.9672 343.4697 L 293.9668 342.4565 L 293.2761 341.905 L 293.3454 340.9829 L 294.1741 340.3391 L 294.7267 339.3259 L 297.2132 339.2336 L 297.4902 338.7731 L 298.6646 338.5885 Z M 290.7199 340.7072 L 291.3418 341.4434 L 291.5486 342.9182 L 290.2366 341.4434 L 290.7199 340.7072 Z M 352.0641 342.5489 L 351.7871 343.2863 L 350.6819 343.194 L 350.6819 342.6412 L 352.0641 342.5489 Z M 299.286 356.9183 L 299.5626 358.8523 L 300.599 359.5898 L 301.0824 360.603 L 300.8751 361.7996 L 301.7725 361.8919 L 301.7042 362.8127 L 300.599 364.103 L 299.4245 363.6425 L 299.01 361.8919 L 298.5954 361.2468 L 297.4902 361.4315 L 297.1449 360.5106 L 298.1116 358.76 L 298.7334 358.4842 L 299.286 356.9183 Z M 303.8454 363.9183 L 304.6048 365.0238 L 303.5006 365.0238 L 302.8094 363.9183 L 303.8454 363.9183 Z M 321.8756 380.314 L 322.5667 380.8655 L 322.1521 382.0634 L 320.5631 381.3272 L 321.8756 380.314 Z" fill="#000000" fill-opacity="1" stroke="#000000" stroke-width="0" paint-order="fill" stroke-opacity="1" stroke-dasharray="" stroke-linecap="butt" stroke-linejoin="miter" stroke-miterlimit="10" transform="matrix(1.100000023841858,0,0,1.100000023841858,-40,-26.649948120117188)" clip-path="none"/>
<path data-code="207" d="M 468.1914 198.1834 L 467.0297 195.0022 L 465.3724 191.5224 L 464.5309 190.1942 L 463.2279 189.1077 L 461.5468 188.5005 L 458.7558 188.159 L 446.5809 188.2096 L 441.8009 188.5283 L 439.1807 189.1646 L 437.678 189.8729 L 434.8324 191.4819 L 431.6932 192.8961 L 428.101 194.8618 L 426.4318 195.4638 L 423.6005 195.9091 L 417.7699 196.1773 L 414.9091 196.4922 L 413.0914 196.9602 L 408.6568 199.0145 L 406.8183 199.5002 L 404.8967 199.757 L 401.9378 199.9024 L 387.9153 199.7645 L 385.9658 199.9189 L 383.1415 200.6247 L 381.5145 201.543 L 380.0545 202.7143 L 378.0879 204.747 L 376.4078 207.0087 L 374.0005 211.8128 L 369.6019 217.8426 L 368.7548 219.5186 L 368.2629 221.2921 L 368.0186 223.1274 L 367.8616 226.8716 L 369.8291 229.304 L 370.4856 230.8219 L 368.8501 231.6517 L 366.0875 231.6517 L 363.8078 232.1121 L 362.8407 231.9274 L 362.3573 232.2955 L 360.4229 232.2044 L 358.4886 231.5593 L 356.7615 232.8483 L 354.0672 233.8615 L 353.3766 234.4142 L 351.6495 234.2308 L 350.8209 235.0593 L 349.7844 235.1517 L 349.4391 234.6912 L 347.4355 234.2308 L 346.6068 234.2308 L 345.8469 234.7823 L 344.4652 234.4142 L 341.3563 234.7823 L 339.837 234.6912 L 337.9022 235.1517 L 336.2443 236.8087 L 333.8959 236.901 L 332.6522 238.0066 L 330.4417 238.3747 L 328.9912 238.0989 L 328.7839 237.7308 L 322.9808 237.5461 L 320.1485 236.4406 L 318.9745 236.7176 L 315.3823 236.4406 L 314.899 236.901 L 314.5527 238.1913 L 316.6256 239.2044 L 317.3162 239.8483 L 318.7672 240.4934 L 318.0761 241.5989 L 318.9057 242.4274 L 318.5599 243.2572 L 317.0402 243.3496 L 314.6912 243.9934 L 314.3459 242.8879 L 314.8288 241.8747 L 315.4516 241.5066 L 315.0365 240.6781 L 313.9313 240.31 L 313.7236 240.8615 L 312.6881 240.9538 L 312.8954 238.8351 L 312.0667 238.467 L 311.099 239.7572 L 309.8558 240.7704 L 307.5068 240.4934 L 306.747 239.7572 L 305.0199 240.033 L 303.1548 240.033 L 300.9439 240.4011 L 299.4245 240.31 L 298.2501 240.6781 L 295.4178 240.5857 L 294.5886 240.2176 L 291.2725 240.1253 L 290.3058 239.6649 L 289.2694 238.744 L 288.3022 238.5593 L 290.3309 238.6997 L 289.6953 235.4553 L 289.4643 232.6168 L 289.5834 229.8049 L 289.932 227.9834 L 290.6269 226.248 L 291.6302 224.6668 L 295.6412 219.5098 L 297.6605 215.5392 L 298.658 213.9771 L 302.1871 209.5575 L 303.2681 208.0307 L 304.1305 206.4243 L 305.1816 203.9957 L 307.1065 200.2895 L 307.6776 198.6135 L 308.0827 195.856 L 308.1757 193.0137 L 308.0685 188.56 L 312.1554 184.0986 L 316.1437 180.0965 L 318.8564 177.764 L 321.5146 176.0184 L 322.5473 174.947 L 323.7644 172.9687 L 325.871 170.5755 L 327.1911 169.6116 L 330.2842 168.1633 L 333.1483 166.5632 L 334.6501 165.8574 L 336.3444 165.3818 L 339.8095 164.7607 L 341.4967 164.2851 L 342.9923 163.5856 L 345.8588 161.9893 L 349.0179 160.5574 L 351.7567 158.5221 L 358.0726 152.381 L 360.8133 150.3584 L 363.9639 148.9063 L 368.2453 146.4258 L 371.4381 145.0837 L 375.8016 142.7841 L 377.4822 142.2959 L 381.7835 141.4307 L 383.3758 140.8286 L 386.9742 138.8401 L 389.3464 137.7915 L 390.8453 136.9605 L 394.1572 134.2498 L 396.8467 132.1374 L 398.245 131.2532 L 401.2837 129.71 L 403.199 128.1516 L 404.716 126.1708 L 406.1751 123.0161 L 408.5691 118.6104 L 409.8991 115.3242 L 411.7823 111.5914 L 412.5502 108.9174 L 412.859 104.9772 L 412.9126 96.9488 L 413.063 94.9781 L 413.6905 92.1295 L 414.4186 90.5724 L 418.7171 83.7115 L 424.5833 84.3136 L 426.5504 84.6944 L 428.4141 85.3597 L 431.0491 86.6803 L 432.7776 87.3722 L 440.5307 89.5086 L 441.3057 89.6693 L 442.0813 90.4383 L 442.6951 92.7405 L 442.8734 97.7989 L 442.5409 110.0318 L 442.5907 114.3553 L 443.0755 117.4353 L 444.2984 119.8475 L 446.1497 121.5754 L 447.7881 122.3444 L 450.5715 122.815 L 457.3148 122.9858 L 460.1584 123.3526 L 461.8476 123.8838 L 465.555 125.5548 L 471.3771 127.0474 L 472.9002 127.8089 L 474.1989 128.8461 L 475.2994 130.0971 L 476.1803 131.5669 L 479.337 138.4758 L 479.7663 140.3846 L 479.9655 142.3579 L 480.0547 152.443 L 480.299 155.3763 L 481.0091 158.0225 L 482.8272 161.773 L 483.83 164.1523 L 484.6942 165.6335 L 485.798 166.8895 L 487.1228 167.9103 L 488.7038 168.6149 L 490.4385 168.9589 L 494.9343 169.0917 L 498.3277 169.9455 L 501.9906 171.7683 L 503.5697 172.3653 L 507.8525 173.2912 L 509.5269 173.801 L 513.8923 176.1019 L 517.1335 177.4009 L 521.1326 179.3274 L 518.2738 183.4219 L 514.9221 187.2343 L 512.0068 189.9412 L 509.5189 191.4781 L 507.6746 192.0284 L 504.8006 192.3496 L 500.8721 192.3939 L 487.9231 192.1776 L 484.975 192.2586 L 482.0981 192.5748 L 480.2648 193.058 L 475.8482 195.2298 L 471.6712 196.6352 L 468.1914 198.1834 Z" fill="#000000" fill-opacity="1" stroke="#000000" stroke-width="0" paint-order="fill" stroke-opacity="1" stroke-dasharray="" stroke-linecap="butt" stroke-linejoin="miter" stroke-miterlimit="10" transform="matrix(1.100000023841858,0,0,1.100000023841858,-40,-26.649948120117188)" clip-path="none"/>
<path data-code="208" d="M 274.0639 95.5271 L 274.5814 99.5368 L 274.7256 102.6207 L 274.6843 105.7045 L 274.3779 108.7277 L 273.9021 110.6516 L 272.1599 114.4489 L 271.5608 116.0642 L 270.5343 120.4458 L 270.0111 122.1522 L 267.9283 126.7096 L 267.4497 128.6488 L 267.2244 130.6638 L 267.2182 133.7236 L 267.6304 136.7252 L 268.2053 138.4796 L 269.6283 141.4952 L 270.2099 143.1155 L 271.1481 147.5351 L 271.6395 149.2744 L 273.7798 153.7458 L 275.1724 156.9638 L 276.7259 159.0015 L 278.6987 160.5333 L 282.5252 162.2751 L 287.5727 165.2907 L 288.5394 166.0408 L 289.2822 167.0198 L 290.6573 169.3852 L 292.8136 172.1402 L 295.9101 175.5099 L 304.259 184.2049 L 308.0685 188.56 L 308.1757 193.0137 L 308.0827 195.856 L 307.6776 198.6135 L 307.1065 200.2895 L 305.1816 203.9957 L 304.1305 206.4243 L 303.2681 208.0307 L 302.1871 209.5575 L 298.658 213.9771 L 297.6605 215.5392 L 295.6412 219.5098 L 291.6302 224.6668 L 290.6269 226.248 L 289.932 227.9834 L 289.5834 229.8049 L 289.4643 232.6168 L 289.6953 235.4553 L 290.3309 238.6997 L 288.3022 238.5593 L 286.8517 238.1913 L 285.4699 237.3615 L 284.2959 237.4538 L 283.6048 238.0989 L 283.3282 239.6649 L 282.4303 240.9538 L 281.6012 241.4142 L 280.6345 241.4142 L 278.2855 242.4274 L 276.835 242.6121 L 274.7621 240.2176 L 274.0027 239.0198 L 272.4137 237.8219 L 271.5157 237.7308 L 270.5485 238.0989 L 270.0652 238.744 L 268.0616 240.033 L 266.9564 240.1253 L 265.7131 239.7572 L 263.9856 238.5593 L 263.0876 238.5593 L 261.2225 239.1121 L 260.6699 239.6649 L 257.8376 240.4011 L 256.1798 241.4142 L 253.2782 241.7836 L 251.8965 241.5989 L 250.9293 242.0593 L 249.8933 243.0725 L 249.3407 243.9934 L 247.3376 243.9934 L 246.7157 243.7176 L 244.9891 244.5462 L 243.1235 247.31 L 241.8798 247.5857 L 241.6725 248.4143 L 240.4293 249.5198 L 239.8767 249.3364 L 240.6366 247.5857 L 240.6366 247.033 L 238.7027 246.2045 L 237.8038 246.2045 L 237.459 246.7572 L 237.8731 248.4143 L 237.1132 248.7836 L 236.6298 249.7045 L 236.008 249.8891 L 234.972 249.3364 L 234.3501 248.5066 L 233.8663 250.0726 L 232.9684 250.0726 L 232.0012 250.7177 L 231.4486 249.7968 L 230.7579 250.7177 L 229.86 250.9023 L 229.7908 249.6121 L 230.4814 248.5989 L 229.6527 247.5857 L 229.1689 247.5857 L 228.3402 248.876 L 226.5439 248.5989 L 225.7152 249.9802 L 224.7476 249.9802 L 224.0569 248.967 L 224.2642 247.6781 L 222.9953 247.7704 L 227.7497 240.3859 L 228.5053 238.9123 L 228.9621 237.2451 L 228.9863 235.4692 L 228.2752 233.0494 L 226.8252 230.1591 L 225.4633 226.9298 L 221.6582 220.695 L 220.5738 219.6034 L 217.89 217.8578 L 215.8062 216.1262 L 213.8652 214.0934 L 212.27 211.7483 L 211.5874 209.9268 L 211.272 207.9738 L 211.1795 205.9968 L 211.2246 201.2179 L 211.0884 199.4926 L 210.5728 197.9355 L 209.3471 196.8148 L 207.8416 196.5352 L 206.4019 196.8805 L 203.2134 198.7741 L 200.1677 200.2654 L 196.5982 202.3424 L 194.9305 202.9875 L 193.053 203.3657 L 189.1658 203.625 L 185.1647 203.5972 L 185.0262 203.0052 L 186.1314 202.7295 L 186.1314 201.992 L 183.7825 201.8086 L 182.4705 202.6372 L 181.5033 202.6372 L 180.1908 203.4012 L 179.4309 203.324 L 179.7762 202.6372 L 179.2236 200.9789 L 179.4309 199.1371 L 179.1543 198.492 L 180.5361 196.558 L 180.0523 195.7295 L 178.8783 197.4788 L 178.1184 198.0316 L 176.8059 197.6635 L 176.2533 196.835 L 176.5293 196.0052 L 175.9075 195.1767 L 176.8747 193.3337 L 178.3257 193.058 L 178.2564 192.5052 L 176.1148 192.1371 L 175.9767 191.1239 L 176.3913 189.4656 L 176.046 188.7295 L 176.8747 188.3601 L 176.9439 186.3337 L 175.2168 185.9656 L 173.9043 184.3997 L 174.4574 183.8469 L 176.5986 185.2295 L 177.0127 183.2031 L 178.3257 183.8469 L 179.5689 183.8469 L 180.6737 183.2941 L 180.6054 181.2678 L 181.8491 180.0712 L 182.1251 179.058 L 182.9453 178.6722 L 182.9538 177.8601 L 183.7825 177.8601 L 184.6112 178.6886 L 185.5788 178.8733 L 187.9278 181.8205 L 187.997 182.4656 L 189.1022 183.1107 L 188.6881 184.3997 L 187.0298 184.2163 L 186.8225 184.8601 L 185.0262 186.6107 L 184.3351 186.8865 L 184.3351 187.992 L 185.0262 188.3601 L 186.546 187.7163 L 187.2366 188.5448 L 188.5496 188.4524 L 189.5856 187.2546 L 190.2074 187.3469 L 190.6908 185.9656 L 190.5528 185.0448 L 191.658 184.1239 L 193.5231 185.6899 L 194.5591 185.1371 L 193.1778 184.3997 L 192.0033 183.4788 L 191.8653 181.1767 L 190.6908 181.4524 L 189.5856 181.3601 L 187.7205 179.7941 L 187.1679 178.3205 L 185.7861 177.215 L 184.8882 177.1239 L 184.6814 176.3865 L 185.4408 175.3733 L 186.4772 175.4656 L 186.9606 174.1754 L 187.6512 173.992 L 187.6512 173.1622 L 188.2038 172.0579 L 188.1355 169.1094 L 189.171 169.1094 L 189.5163 168.3733 L 190.6215 167.9128 L 190.9678 166.715 L 190.6215 166.2545 L 192.2798 164.8733 L 192.6252 163.3073 L 193.4543 162.6622 L 193.247 161.5567 L 193.4543 159.6226 L 192.6944 158.8864 L 192.9705 158.2413 L 194.9044 157.3205 L 193.4543 156.86 L 193.3163 156.0303 L 194.0069 155.1094 L 192.4871 154.649 L 191.7272 155.9379 L 190.6908 156.4907 L 190.7601 154.8337 L 191.3819 154.0962 L 191.1054 152.9907 L 189.9309 152.5303 L 188.0653 153.083 L 187.3059 154.4643 L 188.0653 154.9247 L 187.997 156.3073 L 187.1679 157.3205 L 186.7533 156.1226 L 186.1314 157.9643 L 185.2335 157.5039 L 183.2991 157.0435 L 182.7465 156.3996 L 180.7439 156.3073 L 180.0523 155.8469 L 179.6382 157.8732 L 178.671 158.149 L 178.7402 159.0698 L 178.3257 160.2677 L 176.9439 160.6358 L 176.3221 161.8337 L 176.4601 162.7545 L 176.184 164.5052 L 177.1512 164.5052 L 178.1876 165.426 L 178.8783 166.6226 L 178.0491 167.0831 L 177.359 166.6226 L 177.2892 165.7941 L 176.3221 166.0699 L 175.9767 164.9656 L 174.595 164.5052 L 175.1476 166.6226 L 174.3189 166.6226 L 174.1111 167.9128 L 173.1976 167.1754 L 172.1777 168.1886 L 171.4174 168.1886 L 171.2101 168.926 L 171.8319 169.3865 L 172.7299 171.6886 L 172.3845 172.3337 L 170.5194 172.5184 L 168.5163 171.6886 L 167.4106 171.7809 L 167.4799 170.9524 L 166.5819 170.215 L 165.9601 170.3073 L 165.6835 169.3865 L 166.9272 168.7414 L 168.5851 168.926 L 169.345 167.7282 L 171.4174 164.9656 L 171.1408 164.3205 L 169.9668 164.8733 L 169.6903 163.583 L 171.8319 163.1226 L 172.108 162.2941 L 170.6575 162.2018 L 170.934 161.0039 L 170.1049 160.9128 L 170.2429 159.0698 L 171.2101 158.2413 L 171.4866 156.86 L 170.5882 156.2149 L 169.0684 156.6754 L 168.5163 156.3996 L 168.2402 155.1094 L 167.6876 155.0171 L 166.9272 155.8469 L 165.4762 156.1226 L 165.4762 158.0567 L 164.7861 158.7018 L 163.3346 159.2545 L 161.331 159.3469 L 160.9169 159.8996 L 159.8117 163.3996 L 158.7757 162.8469 L 157.4637 162.7545 L 156.2195 164.3205 L 155.045 164.5962 L 154.5621 162.7545 L 155.1835 161.5567 L 155.8741 161.0962 L 155.8741 160.3601 L 156.7721 158.9775 L 158.0846 158.5171 L 158.7757 157.5962 L 158.7757 155.8469 L 159.259 154.8337 L 159.259 153.5435 L 159.8809 152.2545 L 160.6408 152.0698 L 161.2627 151.2413 L 162.1606 151.4247 L 162.6439 150.7809 L 163.3346 147.649 L 162.9205 146.8192 L 164.1633 144.9775 L 164.095 143.7809 L 165.2689 143.1358 L 165.4075 141.3851 L 164.8548 140.7413 L 164.7159 139.2664 L 164.3022 137.9775 L 163.3346 137.517 L 162.5064 139.083 L 162.0226 138.8983 L 161.4012 136.2268 L 160.5715 134.7532 L 160.4335 133.74 L 158.7757 133.74 L 158.983 135.4907 L 159.3283 136.3192 L 160.157 136.8719 L 160.3643 138.8983 L 159.6736 139.2664 L 158.3611 141.9379 L 157.3242 141.9379 L 156.9106 143.3192 L 155.8741 144.5171 L 154.8382 145.3456 L 153.5945 145.2545 L 152.7653 145.9907 L 151.7986 147.649 L 151.4533 147.4643 L 149.1043 147.8324 L 148.4132 146.5434 L 147.5153 146.6358 L 146.8934 146.083 L 145.8575 146.1754 L 145.5809 146.7281 L 143.9919 146.8192 L 143.7154 145.4379 L 142.7486 145.1622 L 142.3345 143.8719 L 140.8143 143.7796 L 141.5059 142.7639 L 140.8143 141.8456 L 139.6403 141.8456 L 139.1565 141.017 L 138.3966 141.017 L 138.6731 139.3587 L 137.4991 139.3587 L 138.2585 138.0698 L 137.1528 136.3192 L 136.8763 135.2136 L 137.0153 133.8324 L 137.3606 133.2796 L 137.3606 131.0698 L 136.7387 129.8719 L 137.1528 129.1345 L 137.844 128.9511 L 138.9492 126.74 L 141.9887 126.0949 L 142.2653 125.4511 L 144.268 122.8719 L 144.0611 121.0302 L 145.5122 120.6608 L 146.2721 121.7664 L 146.7554 121.2136 L 149.1731 121.4906 L 148.8971 119.6477 L 148.759 116.3323 L 148.9658 115.6872 L 148.3449 114.0289 L 147.7231 113.6608 L 146.6866 111.9115 L 146.6174 110.9893 L 145.4429 110.0685 L 144.7523 110.066 L 145.4642 106.3838 L 147.1263 102.8421 L 148.4128 99.595 L 149.9183 96.6313 L 150.5625 95.0793 L 151.0634 92.4192 L 151.1231 89.8249 L 151.5244 83.8912 L 151.7815 82.0444 L 152.2454 80.2685 L 154.4971 75.7692 L 155.821 72.4842 L 158.1998 68.038 L 159.537 64.7341 L 160.8988 62.5294 L 163.1572 59.9186 L 165.1058 58.3134 L 167.4746 57.3799 L 169.2226 57.409 L 170.8339 57.9668 L 172.2033 58.875 L 175.9701 62.2359 L 177.2978 63.2668 L 178.7692 64.1219 L 181.8496 65.6107 L 185.4028 67.7193 L 189.2958 69.5344 L 195.1757 73.8592 L 198.073 74.7572 L 203.5094 76.857 L 207.7951 79.3388 L 210.9694 80.7175 L 215.3153 83.05 L 222.0965 84.7728 L 225.7688 86.5728 L 227.3465 87.1787 L 231.6065 88.1779 L 233.2667 88.689 L 236.9438 90.4497 L 238.6145 91.0202 L 241.4444 91.4553 L 248.2407 91.812 L 251.0702 92.256 L 252.7408 92.8353 L 256.3999 94.6543 L 261.6637 96.3581 L 267.4468 95.7042 L 274.0639 95.5271 Z M 133.4914 154.0962 L 132.4559 155.1094 L 131.9028 154.649 L 132.732 153.4511 L 133.4914 154.0962 Z M 178.394 163.7677 L 179.4309 164.4128 L 181.7789 166.8073 L 180.3288 166.5303 L 179.4997 165.426 L 177.9799 164.6886 L 178.394 163.7677 Z M 173.9741 193.1503 L 174.9398 194.1635 L 174.2497 194.4393 L 174.3189 196.3733 L 174.8023 197.4788 L 173.9741 198.492 L 173.7663 199.7823 L 172.6606 201.3482 L 171.0023 200.9789 L 170.3121 199.5976 L 170.3809 198.0316 L 169.2069 198.3997 L 168.9304 198.9525 L 167.8944 198.9525 L 167.2033 199.9657 L 165.7528 201.2559 L 164.9929 200.9789 L 164.1633 201.2559 L 163.4038 200.6108 L 164.0257 200.058 L 165.2002 197.8482 L 164.5095 196.6503 L 165.2002 195.4525 L 166.1674 195.4525 L 166.996 196.1899 L 167.2033 197.1108 L 169.621 195.0844 L 170.0356 195.3601 L 170.7262 193.9788 L 171.7627 194.3469 L 173.0752 193.9788 L 173.9741 193.1503 Z" fill="#000000" fill-opacity="1" stroke="#000000" stroke-width="0" paint-order="fill" stroke-opacity="1" stroke-dasharray="" stroke-linecap="butt" stroke-linejoin="miter" stroke-miterlimit="10" transform="matrix(1.100000023841858,0,0,1.100000023841858,-40,-26.649948120117188)" clip-path="none"/>
<path data-code="209" d="M 442.2687 313.9037 L 441.8972 308.1762 L 443.0731 304.4662 L 445.3689 299.9543 L 446.7241 296.6503 L 447.6889 295.0325 L 449.4682 292.8113 L 451.5079 290.8482 L 453.8829 289.3556 L 455.6275 288.8737 L 457.4101 288.7383 L 459.1865 288.8838 L 461.6782 289.6731 L 465.1993 291.7488 L 468.2924 293.3072 L 469.7904 294.3634 L 473.2863 297.4397 L 474.7425 298.5857 L 476.3468 299.5027 L 478.9556 300.1731 L 481.6793 300.3047 L 484.4362 300.0972 L 487.36 299.5723 L 487.2533 319.678 L 487.0944 322.9048 L 486.8382 325.0046 L 486.3549 327.0183 L 484.7696 330.6891 L 484.1454 332.5662 L 483.7811 334.5154 L 483.2124 339.5131 L 482.572 342.4224 L 480.5153 347.0165 L 479.9864 348.628 L 477.1005 347.3391 L 475.3734 346.971 L 473.8536 346.2336 L 472.7484 346.1412 L 471.3671 345.4051 L 466.9458 345.4961 L 466.6005 346.3259 L 463.9062 346.6017 L 462.3859 347.1544 L 461.9035 348.3523 L 459.2781 348.9974 L 458.7947 349.7336 L 457.8963 349.6412 L 456.7911 350.0093 L 456.7218 348.9051 L 457.6198 348.5357 L 457.3437 347.6149 L 457.827 345.4051 L 457.4817 344.9446 L 456.0312 344.9446 L 455.6171 342.9182 L 452.9916 342.5489 L 452.6458 341.3523 L 451.9556 340.5225 L 450.85 340.1544 L 451.0572 341.3523 L 449.1921 343.7468 L 448.7078 346.0489 L 447.6723 347.4314 L 446.1526 347.9842 L 444.6328 346.4182 L 443.8729 346.1412 L 443.6651 344.2995 L 443.251 342.8259 L 443.6651 342.1808 L 444.7703 342.1808 L 445.2542 340.3391 L 444.8405 339.7863 L 445.3931 338.128 L 444.1489 337.4829 L 443.7344 335.7335 L 442.8369 336.4697 L 441.662 336.9302 L 441.5932 335.8259 L 442.2843 335.5489 L 442.0765 334.628 L 442.4911 334.0753 L 444.4943 333.7072 L 444.287 333.0621 L 445.0464 332.6016 L 445.2542 330.851 L 445.8068 329.9301 L 447.6723 329.194 L 447.6723 328.2731 L 445.738 328.2731 L 445.2542 328.6412 L 443.5963 328.4565 L 442.6984 327.628 L 443.251 326.7071 L 442.6984 326.1544 L 443.0437 324.6808 L 443.7344 323.6676 L 445.3229 323.4829 L 446.7052 323.0225 L 447.1885 321.4565 L 446.9125 320.0752 L 445.9457 318.4169 L 443.8729 315.6531 L 442.6291 315.0093 L 442.2687 313.9037 Z M 463.9062 349.0885 L 463.9062 349.8259 L 462.939 349.9183 L 462.4561 349.2731 L 463.9062 349.0885 Z" fill="#000000" fill-opacity="1" stroke="#000000" stroke-width="0" paint-order="fill" stroke-opacity="1" stroke-dasharray="" stroke-linecap="butt" stroke-linejoin="miter" stroke-miterlimit="10" transform="matrix(1.100000023841858,0,0,1.100000023841858,-40,-26.649948120117188)" clip-path="none"/>
<path data-code="210" d="M 388.3958 268.4985 L 385.3989 267.3854 L 379.2847 264.7708 L 377.1805 263.3516 L 373.2529 259.9983 L 371.8992 259.0041 L 368.1481 257.0814 L 366.8351 256.1011 L 365.6919 254.9032 L 364.7613 253.5359 L 363.3496 250.3698 L 361.9812 248.2258 L 359.7119 245.5416 L 356.91 242.5944 L 359.3865 241.6913 L 362.5646 241.6913 L 362.9787 240.7704 L 364.2917 240.6781 L 365.3276 240.31 L 366.4329 240.8615 L 367.3308 239.5725 L 369.749 240.31 L 370.1635 239.3879 L 371.1298 239.3879 L 372.3052 238.0066 L 372.4428 237.1781 L 371.4765 231.5593 L 370.4856 230.8219 L 369.8291 229.304 L 367.8616 226.8716 L 368.0186 223.1274 L 368.2629 221.2921 L 368.7548 219.5186 L 369.6019 217.8426 L 374.0005 211.8128 L 376.4078 207.0087 L 378.0879 204.747 L 380.0545 202.7143 L 381.5145 201.543 L 383.1415 200.6247 L 385.9658 199.9189 L 387.9153 199.7645 L 401.9378 199.9024 L 404.8967 199.757 L 406.8183 199.5002 L 408.6568 199.0145 L 413.0914 196.9602 L 414.9091 196.4922 L 417.7699 196.1773 L 423.6005 195.9091 L 426.4318 195.4638 L 428.101 194.8618 L 431.6932 192.8961 L 434.8324 191.4819 L 437.678 189.8729 L 439.1807 189.1646 L 441.8009 188.5283 L 446.5809 188.2096 L 458.7558 188.159 L 461.5468 188.5005 L 463.2279 189.1077 L 464.5309 190.1942 L 465.3724 191.5224 L 467.0297 195.0022 L 468.1914 198.1834 L 466.6266 199.227 L 464.9749 199.6507 L 463.059 199.8632 L 458.8383 199.9619 L 448.9417 199.8265 L 446.8356 199.9024 L 443.5627 200.4349 L 442.1439 201.037 L 440.6701 201.9996 L 437.4332 204.957 L 435.0335 207.5501 L 433.3729 209.5891 L 431.707 212.4301 L 430.6691 215.0636 L 428.2827 219.4883 L 426.9118 222.7581 L 425.5211 224.9084 L 422.2415 228.9498 L 420.5533 231.7541 L 419.4969 234.3902 L 417.1324 238.8199 L 416.086 241.4003 L 414.8308 243.4141 L 413.6682 244.6132 L 412.3287 245.5821 L 409.2156 246.9723 L 404.9157 249.3731 L 402.3528 250.428 L 399.596 252.1508 L 397.6232 253.8825 L 393.9086 257.6962 L 391.719 260.4334 L 390.5678 262.5914 L 388.3958 268.4985 Z" fill="#000000" fill-opacity="1" stroke="#000000" stroke-width="0" paint-order="fill" stroke-opacity="1" stroke-dasharray="" stroke-linecap="butt" stroke-linejoin="miter" stroke-miterlimit="10" transform="matrix(1.100000023841858,0,0,1.100000023841858,-40,-26.649948120117188)" clip-path="none"/>
<path data-code="211" d="M 308.0685 188.56 L 304.259 184.2049 L 295.9101 175.5099 L 292.8136 172.1402 L 290.6573 169.3852 L 289.2822 167.0198 L 288.5394 166.0408 L 287.5727 165.2907 L 282.5252 162.2751 L 278.6987 160.5333 L 276.7259 159.0015 L 275.1724 156.9638 L 273.7798 153.7458 L 271.6395 149.2744 L 271.1481 147.5351 L 270.2099 143.1155 L 269.6283 141.4952 L 268.2053 138.4796 L 267.6304 136.7252 L 267.2182 133.7236 L 267.2244 130.6638 L 267.4497 128.6488 L 267.9283 126.7096 L 270.0111 122.1522 L 270.5343 120.4458 L 271.5608 116.0642 L 272.1599 114.4489 L 273.9021 110.6516 L 274.3779 108.7277 L 274.6843 105.7045 L 274.7256 102.6207 L 274.5814 99.5368 L 274.0639 95.5271 L 291.7326 95.6131 L 296.7265 95.4145 L 298.6618 95.1489 L 300.5136 94.6556 L 304.944 92.6026 L 307.7706 91.9664 L 311.7484 91.7323 L 321.8585 91.8044 L 323.8356 91.6602 L 325.7685 91.2896 L 327.5506 90.5534 L 329.1008 89.5061 L 331.166 87.5834 L 332.9439 85.3762 L 334.2497 82.9109 L 335.9133 78.1093 L 336.7718 74.9495 L 345.8004 84.0619 L 349.9846 88.603 L 352.0119 91.3579 L 353.8291 95.2463 L 355.32 97.2195 L 357.2401 98.745 L 360.3091 100.1895 L 361.7127 101.0826 L 363.684 102.7421 L 366.0391 105.3074 L 367.4366 107.4754 L 368.7419 110.7819 L 371.051 115.2369 L 372.3863 118.4612 L 373.8772 120.4724 L 375.8182 122.0194 L 378.9303 123.4108 L 382.4888 125.4523 L 385.7699 126.8931 L 387.1236 127.628 L 389.8018 129.7948 L 394.1572 134.2498 L 390.8453 136.9605 L 389.3464 137.7915 L 386.9742 138.8401 L 383.3758 140.8286 L 381.7835 141.4307 L 377.4822 142.2959 L 375.8016 142.7841 L 371.4381 145.0837 L 368.2453 146.4258 L 363.9639 148.9063 L 360.8133 150.3584 L 358.0726 152.381 L 351.7567 158.5221 L 349.0179 160.5574 L 345.8588 161.9893 L 342.9923 163.5856 L 341.4967 164.2851 L 339.8095 164.7607 L 336.3444 165.3818 L 334.6501 165.8574 L 333.1483 166.5632 L 330.2842 168.1633 L 327.1911 169.6116 L 325.871 170.5755 L 323.7644 172.9687 L 322.5473 174.947 L 321.5146 176.0184 L 318.8564 177.764 L 316.1437 180.0965 L 312.1554 184.0986 L 308.0685 188.56 Z" fill="#000000" fill-opacity="1" stroke="#000000" stroke-width="0" paint-order="fill" stroke-opacity="1" stroke-dasharray="" stroke-linecap="butt" stroke-linejoin="miter" stroke-miterlimit="10" transform="matrix(1.100000023841858,0,0,1.100000023841858,-40,-26.649948120117188)" clip-path="none"/>












</svg>