<?xml version="1.0" standalone="no"?>
<!-- Generator: Paintmaps.com , Online SVG vector map maker -->
<svg xmlns="http://www.w3.org/2000/svg" version="1.1" baseProfile="full"   style="background-color:#e0f2f1" width="800" height="500" viewBox="0 0 800 533">

<path data-code="200" d="M 558.2123 374.7557 L 557.9801 378.8714 L 557.5167 381.8623 L 556.9281 383.6812 L 555.4237 386.9975 L 554.8076 388.8885 L 554.4201 391.0329 L 553.8439 396.5436 L 553.4621 398.7157 L 552.8699 400.6053 L 551.152 404.419 L 547.8075 404.3774 L 545.327 404.2112 L 543.7072 403.9438 L 542.1451 403.4493 L 541.3124 403.0365 L 539.7706 402.003 L 535.5072 398.3514 L 534.0339 397.2501 L 532.5908 396.4258 L 529.8458 395.132 L 527.5565 393.5458 L 524.0354 390.271 L 522.0364 388.1446 L 520.1611 385.9364 L 518.5424 383.6174 L 516.5694 379.3244 L 516.0951 378.5514 L 514.9506 377.1384 L 513.5953 375.9374 L 512.8472 375.4387 L 508.6763 373.4757 L 504.7729 371.2357 L 501.2887 369.7243 L 498.8918 368.0772 L 495.2227 364.6459 L 488.193 357.2373 L 485.6133 354.1343 L 482.8756 350.0005 L 484.0855 346.0123 L 484.4652 343.8318 L 484.7571 340.5071 L 484.7971 333.8591 L 484.5982 331.6856 L 484.1655 329.5675 L 483.3384 327.556 L 481.4683 324.8893 L 479.248 322.4568 L 472.2043 315.3835 L 470.1373 312.8359 L 469.0609 310.9187 L 468.6786 309.8631 L 468.21 307.6812 L 468.0142 305.462 L 468.0297 303.2455 L 468.2916 301.0623 L 468.557 299.9956 L 468.9518 298.958 L 469.9601 297.3483 L 471.276 296.0309 L 472.0324 295.4879 L 472.8532 295.0377 L 474.8901 294.4018 L 477.0044 294.1358 L 479.1701 294.0513 L 485.8262 294.1317 L 491.3629 294.3727 L 494.5811 294.7842 L 496.6165 295.3397 L 501.4544 297.6185 L 504.4311 298.3222 L 509.6857 298.6657 L 521.5278 298.62 L 521.6307 301.5111 L 521.8738 303.3577 L 522.426 305.0603 L 522.8816 305.8152 L 524.1149 306.9747 L 528.4401 309.6664 L 532.4864 311.5794 L 534.0568 312.5034 L 536.0059 314.3985 L 536.9804 315.9874 L 537.3721 317.0167 L 537.9363 320.2819 L 538.0485 323.68 L 537.6459 351.595 L 537.6911 356.1831 L 538.0262 359.548 L 538.6111 361.7118 L 539.0563 362.6981 L 540.8272 365.3856 L 542.9446 367.8403 L 546.0241 370.8783 L 548.5421 372.8454 L 550.4055 373.8317 L 552.3026 374.3706 L 554.2523 374.6241 L 558.2123 374.7557 Z" fill="#000000" fill-opacity="1" stroke="#000000" stroke-width="0" paint-order="fill" stroke-opacity="1" stroke-dasharray="" stroke-linecap="butt" stroke-linejoin="miter" stroke-miterlimit="10" transform="matrix(1.100000023841858,0,0,1.100000023841858,-40.00004196166992,-26.649986267089844)" clip-path="none" style="filter: url(#f1)"/>
<path data-code="201" d="M 321.1335 277.0136 L 321.2145 239.2547 L 339.2786 239.2519 L 361.18 239.3032 L 365.9899 239.5124 L 369.4191 239.8795 L 370.5848 245.447 L 371.1495 247.3587 L 373.5973 252.3069 L 375.0705 255.8935 L 377.5958 260.7988 L 379.1059 265.5115 L 380.5085 268.8598 L 371.9495 268.8861 L 369.7167 269.0801 L 367.5474 269.4887 L 365.5011 270.2492 L 361.7297 272.3133 L 358.2979 273.8759 L 354.5275 275.94 L 352.4911 276.7005 L 350.3425 277.112 L 347.0121 277.3655 L 342.4838 277.4126 L 327.6437 277.2616 L 321.1335 277.0136 Z" fill="#000000" fill-opacity="1" stroke="#000000" stroke-width="0" paint-order="fill" stroke-opacity="1" stroke-dasharray="" stroke-linecap="butt" stroke-linejoin="miter" stroke-miterlimit="10" transform="matrix(1.100000023841858,0,0,1.100000023841858,-40.00004196166992,-26.649986267089844)" clip-path="none" style="filter: url(#f1)"/>
<path data-code="202" d="M 373.9848 372.7166 L 379.6249 370.0568 L 380.9932 369.0248 L 381.5288 368.3293 L 382.281 366.7418 L 383.5709 362.3975 L 385.1522 358.5367 L 385.5818 356.5585 L 385.5506 354.6537 L 385.3792 353.72 L 383.4187 348.8078 L 382.7148 345.6452 L 382.3542 341.1444 L 382.2758 334.2387 L 382.4483 329.6741 L 382.8483 326.3522 L 383.3839 324.2479 L 385.5527 319.2276 L 386.0883 317.086 L 386.3813 314.8474 L 386.6119 309.0679 L 386.6151 283.2267 L 386.2753 279.8244 L 385.7293 277.6633 L 385.3059 276.6327 L 382.0181 270.6427 L 380.5085 268.8598 L 379.1059 265.5115 L 377.5958 260.7988 L 375.0705 255.8935 L 373.5973 252.3069 L 371.1495 247.3587 L 370.5848 245.447 L 369.4191 239.8795 L 374.3017 239.3614 L 376.2461 239.0428 L 378.1261 238.4609 L 379.8275 237.5023 L 381.3849 236.2943 L 383.5865 234.2441 L 387.8452 229.85 L 391.2826 226.0986 L 393.1372 223.7464 L 394.1549 222.0715 L 395.6619 218.4919 L 398.2681 213.6406 L 399.6822 210.0223 L 402.3149 205.1751 L 403.4287 202.489 L 404.2999 200.7907 L 405.3633 199.2419 L 409.4932 194.0581 L 410.4797 192.4914 L 411.2095 190.9676 L 414.5171 189.8552 L 416.3088 189.6488 L 417.8813 189.6765 L 421.3031 194.9891 L 422.2112 196.6168 L 422.9094 198.4052 L 423.9587 203.2219 L 424.499 205.1045 L 426.9208 210.032 L 428.3884 213.6116 L 430.058 216.8545 L 430.7868 218.5612 L 431.2907 220.6128 L 431.5406 222.7462 L 431.6653 232.6261 L 431.844 235.8787 L 432.1806 237.9872 L 432.7869 239.8892 L 434.8004 243.9966 L 435.9199 246.6646 L 436.8607 248.442 L 438.0601 250.1196 L 439.416 251.6891 L 442.4477 254.4902 L 444.1288 255.6206 L 452.3725 259.6864 L 455.5081 260.3846 L 459.8811 260.6575 L 468.7762 260.6145 L 472.0609 260.4109 L 474.1924 260.1089 L 476.2288 259.5589 L 481.0693 257.2815 L 483.0506 256.7482 L 485.1208 256.46 L 489.3852 256.255 L 501.5625 256.1733 L 501.1303 260.5439 L 501.0757 263.6566 L 501.3994 266.6752 L 502.0051 268.5744 L 502.9755 270.1509 L 504.2139 271.4614 L 505.6332 272.5017 L 508.0493 273.6889 L 509.5761 274.5907 L 510.9246 275.7489 L 512.0815 277.1383 L 512.561 277.9141 L 513.3231 279.6789 L 514.7096 283.9207 L 515.1584 285.8837 L 518.8177 291.5232 L 520.2151 293.9474 L 520.8993 295.7359 L 521.5278 298.62 L 509.6857 298.6657 L 504.4311 298.3222 L 501.4544 297.6185 L 496.6165 295.3397 L 494.5811 294.7842 L 491.3629 294.3727 L 485.8262 294.1317 L 479.1701 294.0513 L 477.0044 294.1358 L 474.8901 294.4018 L 472.8532 295.0377 L 472.0324 295.4879 L 471.276 296.0309 L 469.9601 297.3483 L 468.9518 298.958 L 468.557 299.9956 L 468.2916 301.0623 L 468.0297 303.2455 L 468.0142 305.462 L 468.21 307.6812 L 468.6786 309.8631 L 469.0609 310.9187 L 470.1373 312.8359 L 472.2043 315.3835 L 479.248 322.4568 L 481.4683 324.8893 L 483.3384 327.556 L 484.1655 329.5675 L 484.5982 331.6856 L 484.7971 333.8591 L 484.7571 340.5071 L 484.4652 343.8318 L 484.0855 346.0123 L 482.8756 350.0005 L 480.4714 349.6071 L 476.4329 349.3037 L 468.2796 349.1292 L 464.2666 349.2649 L 462.3092 349.5379 L 460.4198 350.1086 L 458.6967 351.0838 L 457.1304 352.3209 L 454.2073 355.1524 L 444.1838 365.6834 L 429.671 380.5573 L 427.5484 382.8084 L 425.5691 385.1343 L 423.9328 387.6348 L 422.4216 391.2102 L 419.8242 396.0726 L 418.4273 399.7076 L 416.2366 403.7527 L 414.7083 407.1896 L 413.7773 408.8118 L 412.6054 410.2012 L 411.2449 411.3732 L 409.6973 412.2916 L 407.2453 413.4885 L 406.5103 413.9734 L 404.5404 415.8102 L 403.4874 417.2828 L 401.4063 421.5246 L 400.3627 423.0747 L 398.6167 425.33 L 396.3912 424.4489 L 395.1538 423.4127 L 393.2089 420.5216 L 388.7616 414.9583 L 387.5932 413.2544 L 386.6779 411.4632 L 385.5776 408.7591 L 383.8976 405.4981 L 383.1584 403.8025 L 382.6457 401.8978 L 382.2987 399.9473 L 381.3818 396.1128 L 379.481 391.9527 L 378.8462 390.1643 L 377.8238 385.3283 L 377.2934 383.4387 L 375.0768 378.406 L 374.5698 376.4873 L 373.9848 372.7166 Z" fill="#000000" fill-opacity="1" stroke="#000000" stroke-width="0" paint-order="fill" stroke-opacity="1" stroke-dasharray="" stroke-linecap="butt" stroke-linejoin="miter" stroke-miterlimit="10" transform="matrix(1.100000023841858,0,0,1.100000023841858,-40.00004196166992,-26.649986267089844)" clip-path="none" style="filter: url(#f1)"/>
<path data-code="203" d="M 417.8813 189.6765 L 423.7291 184.1588 L 435.6638 171.8117 L 437.8768 169.8626 L 439.4659 168.7738 L 440.3157 168.3388 L 441.9459 167.7861 L 446.107 166.9355 L 447.7153 166.4562 L 451.6951 164.4531 L 452.5314 164.1026 L 454.3351 163.6191 L 456.2141 163.3601 L 459.104 163.1911 L 468.9051 163.1509 L 473.7171 163.4321 L 475.569 163.7895 L 476.4625 164.0735 L 478.1077 164.852 L 481.2122 166.6266 L 484.6517 168.2058 L 486.2818 169.2947 L 487.8143 170.5844 L 490.019 172.7066 L 500.7962 183.9386 L 505.0139 188.4879 L 507.5303 191.5799 L 506.7407 194.8824 L 505.2363 199.1879 L 504.4861 201.004 L 502.8009 203.5571 L 498.8996 208.3502 L 497.8778 210.1539 L 497.2674 212.0919 L 496.964 214.0895 L 496.8783 216.0857 L 497.0009 218.0279 L 497.4045 219.8578 L 497.7609 220.7001 L 498.2591 221.462 L 498.8861 222.0812 L 504.7874 225.5431 L 508.9859 227.3689 L 510.4732 228.4037 L 511.7584 229.7239 L 512.7646 231.3211 L 513.3917 233.2467 L 513.7299 236.2736 L 513.6421 239.3434 L 513.0914 242.3619 L 512.7433 243.3302 L 511.7594 245.109 L 510.5366 246.7187 L 509.1864 248.2411 L 501.5625 256.1733 L 489.3852 256.255 L 485.1208 256.46 L 483.0506 256.7482 L 481.0693 257.2815 L 476.2288 259.5589 L 474.1924 260.1089 L 472.0609 260.4109 L 468.7762 260.6145 L 459.8811 260.6575 L 455.5081 260.3846 L 452.3725 259.6864 L 444.1288 255.6206 L 442.4477 254.4902 L 439.416 251.6891 L 438.0601 250.1196 L 436.8607 248.442 L 435.9199 246.6646 L 434.8004 243.9966 L 432.7869 239.8892 L 432.1806 237.9872 L 431.844 235.8787 L 431.6653 232.6261 L 431.5406 222.7462 L 431.2907 220.6128 L 430.7868 218.5612 L 430.058 216.8545 L 428.3884 213.6116 L 426.9208 210.032 L 424.499 205.1045 L 423.9587 203.2219 L 422.9094 198.4052 L 422.2112 196.6168 L 421.3031 194.9891 L 417.8813 189.6765 Z" fill="#000000" fill-opacity="1" stroke="#000000" stroke-width="0" paint-order="fill" stroke-opacity="1" stroke-dasharray="" stroke-linecap="butt" stroke-linejoin="miter" stroke-miterlimit="10" transform="matrix(1.100000023841858,0,0,1.100000023841858,-40.00004196166992,-26.649986267089844)" clip-path="none" style="filter: url(#f1)"/>
<path data-code="204" d="M 321.1335 277.0136 L 317.1599 277.2948 L 315.2124 277.583 L 313.3319 278.1565 L 312.4482 278.5998 L 310.0466 280.3674 L 303.4913 286.7661 L 301.1718 288.6376 L 296.1728 291.3057 L 294.6855 292.3973 L 290.3566 295.9824 L 288.8143 296.9951 L 287.0942 297.7418 L 284.3056 298.3859 L 284.8397 292.5649 L 285.3857 290.3637 L 287.1426 286.3657 L 287.8314 284.292 L 288.2013 282.1337 L 288.3457 278.8104 L 288.2044 276.6008 L 287.8361 274.4439 L 287.1446 272.3784 L 285.3721 268.3957 L 284.8199 266.2028 L 284.5207 263.906 L 284.3036 257.9811 L 284.3721 236.3207 L 284.0968 228.3871 L 287.6719 230.0647 L 292.2309 231.6411 L 297.0611 234.0488 L 304.4326 236.0297 L 308.4487 237.9636 L 310.2155 238.5828 L 312.1381 238.9513 L 314.1168 239.1411 L 321.2145 239.2547 L 321.1335 277.0136 Z" fill="#000000" fill-opacity="1" stroke="#000000" stroke-width="0" paint-order="fill" stroke-opacity="1" stroke-dasharray="" stroke-linecap="butt" stroke-linejoin="miter" stroke-miterlimit="10" transform="matrix(1.100000023841858,0,0,1.100000023841858,-40.00004196166992,-26.649986267089844)" clip-path="none" style="filter: url(#f1)"/>
<path data-code="205" d="M 228.8917 276.8696 L 233.1068 270.8588 L 234.4045 268.3652 L 234.7032 267.4066 L 235.0658 265.4284 L 235.5442 259.3595 L 235.8725 257.3799 L 236.1411 256.4213 L 236.8663 254.7146 L 238.5437 251.4744 L 240.0648 247.9045 L 241.6918 245.4387 L 244.3297 242.3938 L 247.8648 238.7075 L 251.4825 235.1238 L 253.7257 233.1345 L 256.1122 231.4777 L 260.3164 229.3748 L 261.8125 228.2957 L 266.8504 224.1633 L 268.3653 223.2269 L 269.8785 222.5689 L 276.5586 225.6484 L 282.4698 227.301 L 284.0968 228.3871 L 284.3721 236.3207 L 284.3036 257.9811 L 284.5207 263.906 L 284.8199 266.2028 L 285.3721 268.3957 L 287.1446 272.3784 L 287.8361 274.4439 L 288.2044 276.6008 L 288.3457 278.8104 L 288.2013 282.1337 L 287.8314 284.292 L 287.1426 286.3657 L 285.3857 290.3637 L 284.8397 292.5649 L 284.3056 298.3859 L 282.9394 299.0453 L 281.7254 299.9458 L 280.8511 301.1981 L 280.209 302.6097 L 277.9622 302.0763 L 276.5342 301.5818 L 272.6988 299.544 L 271.1466 299.0813 L 269.6499 299.0176 L 268.9008 299.1174 L 267.333 299.6687 L 266.5559 300.1217 L 265.1045 301.2147 L 261.6275 304.2983 L 260.1636 305.4149 L 258.7226 306.2488 L 255.9771 307.5482 L 253.6981 309.1483 L 250.8758 311.7526 L 244.7453 318.0737 L 241.9541 320.739 L 239.7318 322.454 L 238.2658 323.2616 L 235.5141 324.5139 L 233.9754 325.5155 L 231.8081 327.3441 L 226.2735 332.7398 L 224.1124 334.5808 L 222.5774 335.5949 L 219.8303 336.8693 L 218.3737 337.6825 L 216.156 339.3837 L 212.5295 342.5463 L 210.3113 344.1144 L 206.9159 345.7629 L 203.0416 348.0043 L 201.2634 348.6623 L 199.3346 348.974 L 197.3797 348.9768 L 196.4057 348.8577 L 194.4992 348.3202 L 193.5797 347.8589 L 191.9153 346.6703 L 190.4135 345.2615 L 188.3963 342.8995 L 186.7558 340.3007 L 185.2077 336.7433 L 184.255 335.146 L 182.5204 332.8825 L 179.9573 329.99 L 181.004 327.448 L 182.0129 323.6509 L 192.2529 323.7686 L 196.7522 323.6924 L 200.0468 323.353 L 202.1533 322.8059 L 203.8151 322.0536 L 211.1128 318.2344 L 212.5632 317.1802 L 217.7217 312.9052 L 219.2423 311.9202 L 222.5696 310.2523 L 224.6693 308.5526 L 226.3369 306.3957 L 228.0086 302.9768 L 228.9883 301.4349 L 232.4761 297.0754 L 233.5151 295.5627 L 234.2829 293.8962 L 234.5058 292.9389 L 234.5463 291.0009 L 234.0948 289.1959 L 232.1457 285.2173 L 230.5727 280.499 L 228.8917 276.8696 Z" fill="#000000" fill-opacity="1" stroke="#000000" stroke-width="0" paint-order="fill" stroke-opacity="1" stroke-dasharray="" stroke-linecap="butt" stroke-linejoin="miter" stroke-miterlimit="10" transform="matrix(1.100000023841858,0,0,1.100000023841858,-40.00004196166992,-26.649986267089844)" clip-path="none" style="filter: url(#f1)"/>
<path data-code="206" d="M 280.209 302.6097 L 280.8511 301.1981 L 281.7254 299.9458 L 282.9394 299.0453 L 284.3056 298.3859 L 287.0942 297.7418 L 288.8143 296.9951 L 290.3566 295.9824 L 294.6855 292.3973 L 296.1728 291.3057 L 301.1718 288.6376 L 303.4913 286.7661 L 310.0466 280.3674 L 312.4482 278.5998 L 313.3319 278.1565 L 315.2124 277.583 L 317.1599 277.2948 L 321.1335 277.0136 L 327.6437 277.2616 L 342.4838 277.4126 L 347.0121 277.3655 L 350.3425 277.112 L 352.4911 276.7005 L 354.5275 275.94 L 358.2979 273.8759 L 361.7297 272.3133 L 365.5011 270.2492 L 367.5474 269.4887 L 369.7167 269.0801 L 371.9495 268.8861 L 380.5085 268.8598 L 382.0181 270.6427 L 385.3059 276.6327 L 385.7293 277.6633 L 386.2753 279.8244 L 386.6151 283.2267 L 386.6119 309.0679 L 386.3813 314.8474 L 386.0883 317.086 L 385.5527 319.2276 L 383.3839 324.2479 L 382.8483 326.3522 L 382.4483 329.6741 L 382.2758 334.2387 L 382.3542 341.1444 L 382.7148 345.6452 L 383.4187 348.8078 L 385.3792 353.72 L 385.5506 354.6537 L 385.5818 356.5585 L 385.1522 358.5367 L 383.5709 362.3975 L 382.281 366.7418 L 381.5288 368.3293 L 380.9932 369.0248 L 379.6249 370.0568 L 373.9848 372.7166 L 374.1635 368.3418 L 374.1209 366.2292 L 373.897 364.1998 L 373.3718 362.2313 L 372.4217 360.3736 L 370.5173 357.9216 L 368.2902 355.7731 L 365.7993 354.0165 L 362.3484 352.4428 L 358.3831 350.351 L 356.5348 349.7041 L 354.4704 349.3328 L 349.1212 349.0835 L 331.6853 349.2289 L 328.4987 349.0059 L 326.439 348.6263 L 324.6005 347.9683 L 316.4908 343.7362 L 314.2493 342.0531 L 311.0503 339.2327 L 309.1053 337.7518 L 307.7292 336.9843 L 305.0014 335.7265 L 302.724 334.1431 L 300.5847 332.2286 L 298.5052 330.177 L 294.4127 325.9519 L 291.7919 323.0732 L 290.0262 320.8152 L 289.0662 319.2055 L 287.6101 315.6106 L 285.0023 310.7663 L 283.8521 307.8876 L 283.0708 306.3652 L 282.0059 304.8192 L 280.209 302.6097 Z" fill="#000000" fill-opacity="1" stroke="#000000" stroke-width="0" paint-order="fill" stroke-opacity="1" stroke-dasharray="" stroke-linecap="butt" stroke-linejoin="miter" stroke-miterlimit="10" transform="matrix(1.100000023841858,0,0,1.100000023841858,-40.00004196166992,-26.649986267089844)" clip-path="none" style="filter: url(#f1)"/>
<path data-code="207" d="M 597.0848 227.1971 L 594.7238 228.0906 L 590.7835 230.0536 L 588.9663 230.5745 L 584.2878 231.583 L 582.492 232.3615 L 580.8405 233.4628 L 578.5413 235.4438 L 575.6509 238.3584 L 572.9844 241.4559 L 571.3371 243.9716 L 569.7906 247.536 L 567.7033 251.5977 L 567.082 253.4373 L 566.7438 255.4363 L 566.5926 258.5283 L 566.7183 261.6674 L 567.2092 265.9562 L 562.4471 265.0018 L 558.3946 264.7192 L 555.3775 264.7621 L 553.3993 264.9574 L 551.4741 265.3799 L 550.5473 265.7235 L 549.6413 266.1848 L 547.9722 267.3332 L 544.1015 270.6537 L 541.6558 272.402 L 538.2298 274.038 L 533.5456 276.767 L 530.0604 278.2618 L 525.3429 280.9368 L 521.8021 282.4052 L 515.1584 285.8837 L 514.7096 283.9207 L 513.3231 279.6789 L 512.561 277.9141 L 512.0815 277.1383 L 510.9246 275.7489 L 509.5761 274.5907 L 508.0493 273.6889 L 505.6332 272.5017 L 504.2139 271.4614 L 502.9755 270.1509 L 502.0051 268.5744 L 501.3994 266.6752 L 501.0757 263.6566 L 501.1303 260.5439 L 501.5625 256.1733 L 509.1864 248.2411 L 510.5366 246.7187 L 511.7594 245.109 L 512.7433 243.3302 L 513.0914 242.3619 L 513.6421 239.3434 L 513.7299 236.2736 L 513.3917 233.2467 L 512.7646 231.3211 L 511.7584 229.7239 L 510.4732 228.4037 L 508.9859 227.3689 L 504.7874 225.5431 L 498.8861 222.0812 L 498.2591 221.462 L 497.7609 220.7001 L 497.4045 219.8578 L 497.0009 218.0279 L 496.8783 216.0857 L 496.964 214.0895 L 497.2674 212.0919 L 497.8778 210.1539 L 498.8996 208.3502 L 502.8009 203.5571 L 504.4861 201.004 L 505.2363 199.1879 L 506.7407 194.8824 L 507.5303 191.5799 L 511.5345 192.4775 L 514.574 192.8668 L 518.6338 192.9998 L 522.6302 192.7574 L 524.5564 192.3861 L 525.4827 192.0924 L 529.4848 190.0754 L 531.1991 189.416 L 536.8147 188.1776 L 538.5565 187.5085 L 542.4958 185.3474 L 545.9561 183.7848 L 548.4044 182.0643 L 552.1473 178.5069 L 561.5666 168.6117 L 563.8082 166.4742 L 565.3765 165.1914 L 567.0581 164.1261 L 567.9386 163.7189 L 573.0031 161.8016 L 576.4379 160.807 L 579.7891 164.0652 L 581.9148 165.8536 L 583.425 166.8275 L 586.8655 168.3914 L 587.6338 168.8472 L 589.0988 169.9305 L 591.8365 172.4988 L 595.4464 176.5536 L 601.6256 182.1959 L 603.8646 183.7225 L 607.3015 185.3308 L 608.9467 186.3809 L 611.2751 188.2898 L 614.9478 191.8555 L 616.9935 194.1343 L 618.7229 196.632 L 619.1603 197.5588 L 619.724 199.5328 L 620.0434 202.5985 L 620.0419 204.6639 L 619.886 206.7156 L 619.5182 208.7215 L 619.2175 209.6912 L 618.4263 211.3854 L 615.766 215.9666 L 614.7359 217.3574 L 613.3618 218.3728 L 608.1015 221.4994 L 602.9867 223.7408 L 597.0848 227.1971 Z" fill="#000000" fill-opacity="1" stroke="#000000" stroke-width="0" paint-order="fill" stroke-opacity="1" stroke-dasharray="" stroke-linecap="butt" stroke-linejoin="miter" stroke-miterlimit="10" transform="matrix(1.100000023841858,0,0,1.100000023841858,-40.00004196166992,-26.649986267089844)" clip-path="none" style="filter: url(#f1)"/>
<path data-code="208" d="M 369.4191 239.8795 L 365.9899 239.5124 L 361.18 239.3032 L 339.2786 239.2519 L 337.1544 235.2775 L 334.7242 231.2726 L 332.7299 226.9021 L 331.6842 225.2203 L 329.7902 222.8612 L 324.2696 216.8268 L 323.0202 215.2476 L 321.9558 213.5686 L 320.3839 210.0236 L 318.6649 206.8042 L 317.9033 205.0948 L 317.2264 202.1233 L 316.9257 197.9882 L 316.9646 193.8393 L 317.3303 190.8096 L 317.9459 188.8896 L 318.9309 187.2868 L 320.1953 185.95 L 321.6675 184.8903 L 325.8686 183.016 L 329.0089 181.2761 L 332.3549 179.7772 L 333.9258 178.8241 L 335.2546 177.5926 L 336.3357 176.1269 L 337.0915 174.4092 L 337.6863 171.6067 L 339.5451 168.9913 L 340.4292 167.0588 L 340.6381 166.1403 L 340.7248 165.2108 L 340.5622 163.385 L 339.7492 161.0397 L 342.8573 158.0184 L 345.3326 156.0277 L 353.606 151.7125 L 355.3478 151.0448 L 360.0315 150.0128 L 361.858 149.4808 L 365.9027 147.5871 L 367.6642 146.9873 L 369.5682 146.6313 L 375.4139 146.012 L 377.3173 145.6034 L 378.2378 145.2903 L 379.8742 144.473 L 384.613 141.3769 L 389.6156 150.0599 L 390.292 151.858 L 391.5029 157.6582 L 392.1413 159.4494 L 394.2099 163.536 L 395.6536 167.1405 L 398.265 172.0015 L 399.704 175.6102 L 402.2822 180.4698 L 403.837 183.9885 L 404.8588 185.5331 L 406.7586 187.5805 L 411.2095 190.9676 L 410.4797 192.4914 L 409.4932 194.0581 L 405.3633 199.2419 L 404.2999 200.7907 L 403.4287 202.489 L 402.3149 205.1751 L 399.6822 210.0223 L 398.2681 213.6406 L 395.6619 218.4919 L 394.1549 222.0715 L 393.1372 223.7464 L 391.2826 226.0986 L 387.8452 229.85 L 383.5865 234.2441 L 381.3849 236.2943 L 379.8275 237.5023 L 378.1261 238.4609 L 376.2461 239.0428 L 374.3017 239.3614 L 369.4191 239.8795 Z" fill="#000000" fill-opacity="1" stroke="#000000" stroke-width="0" paint-order="fill" stroke-opacity="1" stroke-dasharray="" stroke-linecap="butt" stroke-linejoin="miter" stroke-miterlimit="10" transform="matrix(1.100000023841858,0,0,1.100000023841858,-40.00004196166992,-26.649986267089844)" clip-path="none" style="filter: url(#f1)"/>
<path data-code="209" d="M 398.6167 425.33 L 400.3627 423.0747 L 401.4063 421.5246 L 403.4874 417.2828 L 404.5404 415.8102 L 406.5103 413.9734 L 407.2453 413.4885 L 409.6973 412.2916 L 411.2449 411.3732 L 412.6054 410.2012 L 413.7773 408.8118 L 414.7083 407.1896 L 416.2366 403.7527 L 418.4273 399.7076 L 419.8242 396.0726 L 422.4216 391.2102 L 423.9328 387.6348 L 425.5691 385.1343 L 427.5484 382.8084 L 429.671 380.5573 L 444.1838 365.6834 L 454.2073 355.1524 L 457.1304 352.3209 L 458.6967 351.0838 L 460.4198 350.1086 L 462.3092 349.5379 L 464.2666 349.2649 L 468.2796 349.1292 L 476.4329 349.3037 L 480.4714 349.6071 L 482.8756 350.0005 L 485.6133 354.1343 L 488.193 357.2373 L 495.2227 364.6459 L 498.8918 368.0772 L 501.2887 369.7243 L 504.7729 371.2357 L 508.6763 373.4757 L 512.8472 375.4387 L 513.5953 375.9374 L 514.9506 377.1384 L 516.0951 378.5514 L 516.5694 379.3244 L 518.5424 383.6174 L 520.1611 385.9364 L 522.0364 388.1446 L 524.0354 390.271 L 527.5565 393.5458 L 529.8458 395.132 L 532.5908 396.4258 L 534.0339 397.2501 L 535.5072 398.3514 L 539.7706 402.003 L 541.3124 403.0365 L 542.1451 403.4493 L 543.7072 403.9438 L 545.327 404.2112 L 547.8075 404.3774 L 551.152 404.419 L 550.5083 407.6176 L 550.2403 409.9089 L 550.0637 413.386 L 549.9348 422.673 L 549.5385 427.1946 L 549.021 429.3432 L 546.8351 434.3704 L 545.8371 438.1592 L 545.195 441.0364 L 544.4937 442.8179 L 543.0527 445.2117 L 539.5706 450.0076 L 536.3254 450.5312 L 533.0604 450.7279 L 518.6889 450.7446 L 516.5574 450.9496 L 514.5075 451.4206 L 512.7496 452.2559 L 511.3532 453.3448 L 510.1797 454.6068 L 508.3116 457.3732 L 507.1693 458.5507 L 502.8347 461.3434 L 500.4669 462.604 L 498.643 463.1873 L 493.0622 464.5199 L 488.993 466.3901 L 487.1405 467.0148 L 485.0559 467.4055 L 479.7322 467.9818 L 477.6506 468.3766 L 475.8064 469.0096 L 471.7654 470.9255 L 468.0703 471.9035 L 466.1825 472.2872 L 464.3466 472.8483 L 462.7253 473.6518 L 459.6058 475.4762 L 456.1798 477.036 L 452.3901 479.1625 L 450.6374 479.6515 L 449.6966 479.6999 L 447.8239 479.3716 L 446.9439 478.9851 L 445.3527 477.9032 L 443.1932 475.8696 L 439.0056 471.4685 L 437.5183 470.147 L 435.9006 469.0554 L 434.0923 468.3807 L 432.2061 468.1909 L 430.3479 468.3849 L 428.6097 468.8559 L 427.7437 465.3109 L 426.9697 461.4362 L 426.4226 459.5121 L 425.658 457.8137 L 423.965 454.5666 L 422.4725 450.987 L 421.4907 449.387 L 419.6891 447.1844 L 416.9348 444.5814 L 414.647 443.0202 L 411.1976 441.4451 L 409.5467 440.4075 L 407.2126 438.5 L 404.2765 435.6421 L 401.5772 432.5764 L 399.918 430.0663 L 399.1902 428.2197 L 398.6167 425.33 Z" fill="#000000" fill-opacity="1" stroke="#000000" stroke-width="0" paint-order="fill" stroke-opacity="1" stroke-dasharray="" stroke-linecap="butt" stroke-linejoin="miter" stroke-miterlimit="10" transform="matrix(1.100000023841858,0,0,1.100000023841858,-40.00004196166992,-26.649986267089844)" clip-path="none" style="filter: url(#f1)"/>
<path data-code="210" d="M 321.2145 239.2547 L 314.1168 239.1411 L 312.1381 238.9513 L 310.2155 238.5828 L 308.4487 237.9636 L 304.4326 236.0297 L 297.0611 234.0488 L 292.2309 231.6411 L 287.6719 230.0647 L 284.0968 228.3871 L 282.4698 227.301 L 276.5586 225.6484 L 269.8785 222.5689 L 271.7705 220.2402 L 272.9232 219.1139 L 274.103 218.3451 L 276.0069 217.3214 L 277.4864 216.3004 L 278.9222 215.1007 L 281.0235 213.1253 L 315.1417 177.8682 L 318.6057 174.4881 L 320.0644 173.2843 L 321.6171 172.2758 L 325.093 170.7589 L 329.0224 168.5743 L 330.5834 167.9717 L 333.6032 167.3746 L 339.7492 161.0397 L 340.5622 163.385 L 340.7248 165.2108 L 340.6381 166.1403 L 340.4292 167.0588 L 339.5451 168.9913 L 337.6863 171.6067 L 337.0915 174.4092 L 336.3357 176.1269 L 335.2546 177.5926 L 333.9258 178.8241 L 332.3549 179.7772 L 329.0089 181.2761 L 325.8686 183.016 L 321.6675 184.8903 L 320.1953 185.95 L 318.9309 187.2868 L 317.9459 188.8896 L 317.3303 190.8096 L 316.9646 193.8393 L 316.9257 197.9882 L 317.2264 202.1233 L 317.9033 205.0948 L 318.6649 206.8042 L 320.3839 210.0236 L 321.9558 213.5686 L 323.0202 215.2476 L 324.2696 216.8268 L 329.7902 222.8612 L 331.6842 225.2203 L 332.7299 226.9021 L 334.7242 231.2726 L 337.1544 235.2775 L 339.2786 239.2519 L 321.2145 239.2547 Z" fill="#000000" fill-opacity="1" stroke="#000000" stroke-width="0" paint-order="fill" stroke-opacity="1" stroke-dasharray="" stroke-linecap="butt" stroke-linejoin="miter" stroke-miterlimit="10" transform="matrix(1.100000023841858,0,0,1.100000023841858,-40.00004196166992,-26.649986267089844)" clip-path="none" style="filter: url(#f1)"/>
<path data-code="211" d="M 384.613 141.3769 L 387.9912 140.0207 L 391.1626 138.5786 L 394.0156 137.4759 L 395.5195 136.6807 L 397.0349 135.578 L 399.1409 133.6455 L 401.6697 130.742 L 403.0089 128.7084 L 405.3087 124.2034 L 406.1892 123.7878 L 406.7814 123.224 L 408.4495 120.3772 L 410.1108 118.2189 L 413.369 114.6172 L 418.1712 109.6467 L 420.2756 107.6325 L 422.4621 105.815 L 424.0102 104.8287 L 426.7723 103.6055 L 428.2414 102.8089 L 429.7427 101.7104 L 431.8819 99.8084 L 435.3193 96.359 L 462.2941 68.4606 L 472.1628 58.0487 L 474.1732 56.0885 L 475.5997 54.9263 L 477.1831 54.0051 L 478.0163 53.7017 L 479.7322 53.3623 L 481.4719 53.2999 L 482.341 53.3637 L 484.0543 53.7114 L 485.7 54.4581 L 487.1728 55.558 L 489.1317 57.5459 L 491.393 60.4965 L 496.8113 65.4781 L 499.5292 68.2445 L 502.0991 71.0954 L 503.2721 72.5721 L 504.2991 74.1084 L 505.042 75.6045 L 505.8898 77.7171 L 506.7017 79.1938 L 507.2545 79.935 L 508.5225 81.2455 L 509.9771 82.2914 L 511.3392 82.9341 L 516.546 85.019 L 519.7257 86.0497 L 518.4696 89.5946 L 518.0348 91.4578 L 517.6982 94.3489 L 517.6031 98.2194 L 517.8021 101.0801 L 518.1756 102.9336 L 518.8946 104.6957 L 519.9294 106.2888 L 521.1361 107.7669 L 523.1066 109.8892 L 536.1041 123.2281 L 538.8719 125.935 L 540.3046 127.1818 L 541.8023 128.2817 L 543.2672 129.0852 L 546.021 130.3208 L 546.8205 130.7974 L 548.3488 131.925 L 550.525 133.8769 L 554.0237 137.4108 L 576.4379 160.807 L 573.0031 161.8016 L 567.9386 163.7189 L 567.0581 164.1261 L 565.3765 165.1914 L 563.8082 166.4742 L 561.5666 168.6117 L 552.1473 178.5069 L 548.4044 182.0643 L 545.9561 183.7848 L 542.4958 185.3474 L 538.5565 187.5085 L 536.8147 188.1776 L 531.1991 189.416 L 529.4848 190.0754 L 525.4827 192.0924 L 524.5564 192.3861 L 522.6302 192.7574 L 518.6338 192.9998 L 514.574 192.8668 L 511.5345 192.4775 L 507.5303 191.5799 L 505.0139 188.4879 L 500.7962 183.9386 L 490.019 172.7066 L 487.8143 170.5844 L 486.2818 169.2947 L 484.6517 168.2058 L 481.2122 166.6266 L 478.1077 164.852 L 476.4625 164.0735 L 475.569 163.7895 L 473.7171 163.4321 L 468.9051 163.1509 L 459.104 163.1911 L 456.2141 163.3601 L 454.3351 163.6191 L 452.5314 164.1026 L 451.6951 164.4531 L 447.7153 166.4562 L 446.107 166.9355 L 441.9459 167.7861 L 440.3157 168.3388 L 439.4659 168.7738 L 437.8768 169.8626 L 435.6638 171.8117 L 423.7291 184.1588 L 417.8813 189.6765 L 416.3088 189.6488 L 414.5171 189.8552 L 411.2095 190.9676 L 406.7586 187.5805 L 404.8588 185.5331 L 403.837 183.9885 L 402.2822 180.4698 L 399.704 175.6102 L 398.265 172.0015 L 395.6536 167.1405 L 394.2099 163.536 L 392.1413 159.4494 L 391.5029 157.6582 L 390.292 151.858 L 389.6156 150.0599 L 384.613 141.3769 Z" fill="#000000" fill-opacity="1" stroke="#000000" stroke-width="0" paint-order="fill" stroke-opacity="1" stroke-dasharray="" stroke-linecap="butt" stroke-linejoin="miter" stroke-miterlimit="10" transform="matrix(1.100000023841858,0,0,1.100000023841858,-40.00004196166992,-26.649986267089844)" clip-path="none" style="filter: url(#f1)"/>
<path data-code="212" d="M 569.2207 284.1063 L 570.5314 287.9754 L 571.349 289.8248 L 572.3449 291.4484 L 574.7054 294.4448 L 574.7418 314.9402 L 574.6327 318.3078 L 574.28 321.5951 L 573.7641 323.6869 L 571.8862 327.8539 L 571.2404 329.6243 L 569.5994 336.3111 L 567.4082 341.3452 L 566.7256 344.5342 L 566.15 350.0324 L 565.7635 352.1838 L 565.1464 354.0885 L 563.2903 358.2638 L 561.6934 364.9769 L 561.0528 366.764 L 559.1536 370.9282 L 558.2123 374.7557 L 554.2523 374.6241 L 552.3026 374.3706 L 550.4055 373.8317 L 548.5421 372.8454 L 546.0241 370.8783 L 542.9446 367.8403 L 540.8272 365.3856 L 539.0563 362.6981 L 538.6111 361.7118 L 538.0262 359.548 L 537.6911 356.1831 L 537.6459 351.595 L 538.0485 323.68 L 537.9363 320.2819 L 537.3721 317.0167 L 536.9804 315.9874 L 536.0059 314.3985 L 534.0568 312.5034 L 532.4864 311.5794 L 528.4401 309.6664 L 524.1149 306.9747 L 522.8816 305.8152 L 522.426 305.0603 L 521.8738 303.3577 L 521.6307 301.5111 L 521.5278 298.62 L 520.8993 295.7359 L 520.2151 293.9474 L 518.8177 291.5232 L 515.1584 285.8837 L 521.8021 282.4052 L 525.3429 280.9368 L 530.0604 278.2618 L 533.5456 276.767 L 538.2298 274.038 L 541.6558 272.402 L 544.1015 270.6537 L 547.9722 267.3332 L 549.6413 266.1848 L 550.5473 265.7235 L 551.4741 265.3799 L 553.3993 264.9574 L 555.3775 264.7621 L 558.3946 264.7192 L 562.4471 265.0018 L 567.2092 265.9562 L 566.7895 270.1509 L 566.8757 274.2597 L 567.4108 277.1577 L 569.1152 281.858 L 569.2207 284.1063 Z" fill="#000000" fill-opacity="1" stroke="#000000" stroke-width="0" paint-order="fill" stroke-opacity="1" stroke-dasharray="" stroke-linecap="butt" stroke-linejoin="miter" stroke-miterlimit="10" transform="matrix(1.100000023841858,0,0,1.100000023841858,-40.00004196166992,-26.649986267089844)" clip-path="none" style="filter: url(#f1)"/>













</svg>