<?xml version="1.0" standalone="no"?>
<!-- Generator: Paintmaps.com , Online SVG vector map maker -->
<svg xmlns="http://www.w3.org/2000/svg" version="1.1" baseProfile="full"   style="background-color:#e0f2f1" width="800" height="500" viewBox="0 0 800 533">

<path data-code="200" d="M 698.8392 111.7988 L 699.5841 115.0449 L 700.4148 117.0408 L 701.5252 118.8314 L 703.4486 121.3663 L 708.0663 126.1524 L 708.8242 129.3984 L 709.7089 131.4836 L 710.9544 133.431 L 715.2854 138.9111 L 716.5156 140.8506 L 719.3908 147.3709 L 719.9242 149.1412 L 720.0006 150.0765 L 719.9007 151.0071 L 719.3297 152.757 L 716.4709 159.2539 L 714.4558 162.8478 L 713.5629 164.7528 L 712.9624 166.9524 L 712.597 170.4021 L 712.6734 173.8848 L 713.2127 177.2718 L 713.9295 179.3179 L 716.129 183.9739 L 716.6965 186.1484 L 717.1125 189.5809 L 717.4238 195.1989 L 711.9943 199.2205 L 705.828 204.5752 L 703.9163 205.8489 L 702.8835 206.3549 L 700.6393 207.0255 L 698.3116 207.3435 L 686.3386 207.5628 L 683.9816 207.7555 L 681.6903 208.1597 L 679.6388 208.8569 L 676.0105 210.6099 L 673.9449 211.3212 L 671.6043 211.7598 L 665.6025 212.4084 L 662.1046 213.2638 L 660.2423 214.1819 L 653.2065 218.6828 L 648.3256 212.7985 L 637.3513 201.1239 L 633.3646 197.1212 L 630.7925 195.0454 L 628.8856 194.0098 L 626.9233 193.4537 L 624.9071 193.1936 L 619.8312 192.9132 L 617.8431 192.6359 L 615.9302 192.0311 L 614.1854 190.9376 L 612.7214 189.4963 L 611.5616 187.8091 L 609.8626 183.8862 L 608.2 181.2198 L 605.4094 177.8797 L 601.6025 173.8581 L 603.8996 170.9865 L 604.9042 169.4809 L 605.7032 167.9002 L 607.0521 164.6682 L 608.0978 162.9371 L 609.3421 161.2984 L 612.1233 158.1682 L 615.8033 154.3534 L 624.0141 146.0299 L 627.7353 142.4783 L 631.1721 138.6369 L 634.1318 135.5741 L 636.4947 133.4529 L 639.0362 131.7014 L 642.9465 129.9311 L 648.261 126.8949 L 652.2089 125.2124 L 657.5163 122.1324 L 661.4619 120.4435 L 665.9268 117.9917 L 667.8926 117.2382 L 673.2105 116.1274 L 675.2879 115.5086 L 677.1279 114.6219 L 680.6775 112.6244 L 684.6231 110.9434 L 689.0774 108.4713 L 691.0397 107.7099 L 694.2215 107.0143 L 698.8392 111.7988 Z" fill="#000000" fill-opacity="1" stroke="#000000" stroke-width="0" paint-order="fill" stroke-opacity="1" stroke-dasharray="" stroke-linecap="butt" stroke-linejoin="miter" stroke-miterlimit="10" transform="matrix(0.8999999761581421,0,0,0.8999999761581421,40.00004959106445,26.64999008178711)" clip-path="none" style="filter: url(#f1)"/>
<path data-code="201" d="M 259.064 276.6109 L 259.1627 283.9992 L 259.5258 289.0469 L 260.3107 292.5907 L 261.8922 296.23 L 262.5396 298.0786 L 262.8063 300.156 L 262.5713 302.3477 L 261.8922 304.2668 L 260.1051 307.8638 L 258.4495 311.8948 L 255.9139 316.449 L 254.1597 320.3891 L 253.0998 322.3929 L 251.7392 324.2838 L 250.1941 326.0463 L 248.5221 327.6865 L 246.7408 329.1686 L 244.8444 330.4188 L 240.987 332.294 L 239.0377 333.5802 L 236.2812 335.9208 L 230.109 341.8897 L 227.3172 344.1519 L 225.3574 345.2846 L 222.4422 346.6162 L 218.8926 348.5683 L 217.0127 349.4096 L 214.8754 349.9532 L 212.6641 350.2274 L 204.76 350.5516 L 201.4418 350.9339 L 198.3951 351.8723 L 193.855 354.0672 L 190.5051 354.8348 L 185.7934 355.1309 L 173.7863 355.1388 L 169.1181 355.5759 L 166.9056 356.1618 L 162.3549 358.3911 L 160.4503 359.1212 L 157.4083 359.8011 L 153.3816 360.4387 L 152.4216 357.2569 L 151.6321 355.2124 L 148.8615 349.9485 L 147.1942 345.8737 L 144.2027 340.4014 L 142.5577 336.3328 L 140.203 331.7159 L 139.4769 329.684 L 138.39 324.1961 L 137.4019 321.08 L 135.0484 316.46 L 133.4081 312.3867 L 130.4295 306.9019 L 128.7658 302.8349 L 125.8048 297.3407 L 124.1504 293.2721 L 121.1965 287.7764 L 119.541 283.7047 L 116.5859 278.2073 L 114.9315 274.1372 L 111.9765 268.6414 L 110.3209 264.5713 L 107.3623 259.0755 L 105.695 255.0117 L 102.7188 249.5268 L 101.0727 245.4551 L 98.7086 240.8398 L 97.9719 238.8095 L 96.8662 233.3215 L 96.2799 231.1799 L 94.1203 226.48 L 93.4071 224.4528 L 92.3026 218.9601 L 91.7104 216.8107 L 89.176 211.1034 L 88.6038 208.9399 L 87.7907 204.5032 L 87.1785 202.3553 L 86.3055 200.4863 L 83.0532 194.9373 L 81.9827 194.049 L 81.1791 193.7498 L 80.2649 190.0352 L 80.0006 187.6461 L 80.1098 185.1834 L 80.4987 182.5451 L 88.8634 182.8929 L 114.7952 183.0997 L 118.6269 183.001 L 122.3668 182.553 L 124.7485 181.8214 L 126.7413 180.7043 L 132.9475 175.6049 L 134.8075 174.3109 L 143.0547 169.94 L 144.01 169.5624 L 146.1402 169.0752 L 149.4066 169.0109 L 151.5439 169.3619 L 153.5073 170.0465 L 157.9875 172.2147 L 161.1717 172.9448 L 165.6472 173.1061 L 170.0005 172.6158 L 173.6888 173.6498 L 175.597 174.4315 L 177.3923 175.5297 L 180.6776 178.2228 L 176.0434 182.9995 L 175.369 186.2925 L 174.6241 188.3245 L 171.098 194.461 L 169.9312 195.9556 L 166.1807 198.5311 L 164.8518 199.7892 L 163.8002 201.2947 L 163.2526 203.1261 L 163.2526 204.0896 L 163.443 205.0108 L 163.826 205.8536 L 164.3724 206.5367 L 167.7481 209.1733 L 169.0006 210.6115 L 170.0158 212.3238 L 170.3977 213.3328 L 170.8771 215.4571 L 171.4669 220.8385 L 171.8934 222.8532 L 172.7535 224.6643 L 173.4033 225.4084 L 174.9237 226.5677 L 179.0244 229.137 L 180.8879 230.0002 L 183.1309 230.5674 L 187.832 230.9058 L 199.8685 230.6943 L 203.4181 230.8055 L 206.8691 231.3805 L 209.0193 232.2875 L 210.9298 233.5988 L 212.6688 235.1545 L 215.0011 237.788 L 216.3229 239.715 L 221.1086 250.4339 L 222.6855 256.4514 L 223.6125 258.1747 L 224.2752 258.8797 L 230.7623 263.1723 L 235.6044 265.2998 L 240.1233 267.6435 L 242.095 268.3798 L 248.4316 269.8446 L 250.3938 270.6593 L 253.0387 272.3152 L 259.064 276.6109 Z" fill="#000000" fill-opacity="1" stroke="#000000" stroke-width="0" paint-order="fill" stroke-opacity="1" stroke-dasharray="" stroke-linecap="butt" stroke-linejoin="miter" stroke-miterlimit="10" transform="matrix(0.8999999761581421,0,0,0.8999999761581421,40.00004959106445,26.64999008178711)" clip-path="none" style="filter: url(#f1)"/>
<path data-code="202" d="M 380.1798 366.8729 L 379.9343 366.9481 L 378.9943 367.2332 L 373.9383 366.1084 L 372.1289 363.3464 L 371.606 362.8999 L 370.3875 361.8565 L 357.8199 361.5009 L 352.6453 364.9773 L 348.8654 367.5168 L 345.1384 368.9628 L 340.1694 369.4187 L 339.0449 369.5221 L 335.0559 370.9164 L 329.0882 375.057 L 328.9742 375.1589 L 325.9874 377.8253 L 324.8911 378.8044 L 315.9695 383.2302 L 312.6807 385.2057 L 302.5383 388.8168 L 296.4319 394.0933 L 285.2955 400.0512 L 281.0949 401.2622 L 271.8713 402.8038 L 259.2873 404.9156 L 251.9895 407.4082 L 250.4056 408.4688 L 247.3154 410.5383 L 246.1298 411.3326 L 239.4853 418.6848 L 235.9322 421.4171 L 230.8798 424.4125 L 229.5979 425.0172 L 219.4895 429.7767 L 217.4298 430.7464 L 207.7056 437.7978 L 205.5167 439.3849 L 202.7977 441.3557 L 197.6314 443.6806 L 197.1849 443.8811 L 195.6315 445.4666 L 190.061 442.457 L 185.166 440.3891 L 180.7234 437.8777 L 176.0434 435.5811 L 174.4067 434.3575 L 172.9767 432.8739 L 171.7982 431.1788 L 171.3024 430.2106 L 170.0334 427.2465 L 167.1418 421.7476 L 165.5097 417.6634 L 162.5464 412.1739 L 160.8697 408.1272 L 158.5186 403.5245 L 157.7995 401.4126 L 157.3871 399.0736 L 157.1427 395.4516 L 157.2567 379.359 L 156.9712 373.2805 L 156.2756 369.8292 L 154.123 364.5026 L 153.3816 360.4387 L 157.4083 359.8011 L 160.4503 359.1212 L 162.3549 358.3911 L 166.9056 356.1618 L 169.1181 355.5759 L 173.7863 355.1388 L 185.7934 355.1309 L 190.5051 354.8348 L 193.855 354.0672 L 198.3951 351.8723 L 201.4418 350.9339 L 204.76 350.5516 L 212.6641 350.2274 L 214.8754 349.9532 L 217.0127 349.4096 L 218.8926 348.5683 L 222.4422 346.6162 L 225.3574 345.2846 L 227.3172 344.1519 L 230.109 341.8897 L 236.2812 335.9208 L 239.0377 333.5802 L 240.987 332.294 L 244.8444 330.4188 L 246.7408 329.1686 L 248.5221 327.6865 L 250.1941 326.0463 L 251.7392 324.2838 L 253.0998 322.3929 L 254.1597 320.3891 L 255.9139 316.449 L 258.4495 311.8948 L 260.1051 307.8638 L 261.8922 304.2668 L 262.5713 302.3477 L 262.8063 300.156 L 262.5396 298.0786 L 261.8922 296.23 L 260.3107 292.5907 L 259.5258 289.0469 L 259.1627 283.9992 L 259.064 276.6109 L 266.1245 271.7293 L 268.8422 270.2143 L 270.909 269.5187 L 277.1681 267.9317 L 281.7165 265.7713 L 283.8079 265.0538 L 287.3799 264.5008 L 291.0705 264.3394 L 296.0606 264.4021 L 301.4855 264.7154 L 308.3216 264.4507 L 327.4197 264.2454 L 330.8448 264.2658 L 334.2087 264.5118 L 336.3907 264.9645 L 338.4833 265.8669 L 340.3762 267.1954 L 342.9012 269.6127 L 344.4087 271.4018 L 345.7306 273.3131 L 348.0476 278.3358 L 349.2132 280.3004 L 354.7744 287.7654 L 357.713 293.6419 L 358.9162 295.384 L 363.555 301.2808 L 365.1319 304.071 L 366.4055 307.0899 L 368.2972 310.7653 L 369.1162 312.7001 L 369.8259 316.0198 L 370.4428 322.8785 L 370.8317 325.1094 L 371.4955 327.1664 L 373.5999 331.8804 L 374.1851 334.0158 L 375.0416 338.4086 L 375.6538 340.5534 L 378.4091 346.1369 L 380.0988 350.1992 L 384.9914 358.4757 L 387.6116 359.259 L 391.2951 359.8403 L 389.9157 359.9891 L 385.1547 362.5411 L 381.3431 366.5204 L 380.1798 366.8729 Z" fill="#000000" fill-opacity="1" stroke="#000000" stroke-width="0" paint-order="fill" stroke-opacity="1" stroke-dasharray="" stroke-linecap="butt" stroke-linejoin="miter" stroke-miterlimit="10" transform="matrix(0.8999999761581421,0,0,0.8999999761581421,40.00004959106445,26.64999008178711)" clip-path="none" style="filter: url(#f1)"/>
<path data-code="203" d="M 259.064 276.6109 L 253.0387 272.3152 L 250.3938 270.6593 L 248.4316 269.8446 L 242.095 268.3798 L 240.1233 267.6435 L 235.6044 265.2998 L 230.7623 263.1723 L 224.2752 258.8797 L 223.6125 258.1747 L 222.6855 256.4514 L 221.1086 250.4339 L 216.3229 239.715 L 215.0011 237.788 L 212.6688 235.1545 L 210.9298 233.5988 L 209.0193 232.2875 L 206.8691 231.3805 L 203.4181 230.8055 L 199.8685 230.6943 L 187.832 230.9058 L 183.1309 230.5674 L 180.8879 230.0002 L 179.0244 229.137 L 174.9237 226.5677 L 173.4033 225.4084 L 172.7535 224.6643 L 171.8934 222.8532 L 171.4669 220.8385 L 170.8771 215.4571 L 170.3977 213.3328 L 170.0158 212.3238 L 169.0006 210.6115 L 167.7481 209.1733 L 164.3724 206.5367 L 163.826 205.8536 L 163.443 205.0108 L 163.2526 204.0896 L 163.2526 203.1261 L 163.8002 201.2947 L 164.8518 199.7892 L 166.1807 198.5311 L 169.9312 195.9556 L 171.098 194.461 L 174.6241 188.3245 L 175.369 186.2925 L 176.0434 182.9995 L 180.6776 178.2228 L 192.8551 178.4076 L 197.6525 178.3371 L 201.1622 177.9298 L 203.4087 177.2468 L 205.418 176.1094 L 208.1157 173.8832 L 217.3123 164.4363 L 220.829 161.314 L 222.716 160.0435 L 227.5099 157.5243 L 235.5997 151.0478 L 245.8455 145.7667 L 248.0733 145.1808 L 251.5583 144.8142 L 268.3487 144.7562 L 273.0862 144.4209 L 276.0037 143.9024 L 279.3371 146.7427 L 282.4896 149.7005 L 294.2935 161.9485 L 298.064 165.5596 L 299.6537 166.827 L 301.3316 167.8783 L 305.2396 169.5859 L 306.827 170.5729 L 309.7656 173.0952 L 312.441 176.1109 L 314.0978 178.6896 L 315.7651 182.7018 L 317.6356 186.3928 L 318.4734 188.3151 L 319.0667 190.4755 L 320.1454 195.9728 L 320.848 198.0016 L 323.0029 202.7062 L 323.5963 204.8494 L 324.0193 207.0521 L 322.0817 209.623 L 320.935 211.3854 L 319.1831 215.2347 L 318.1503 217.0708 L 316.8084 218.6405 L 315.1776 219.9299 L 313.2036 220.8166 L 311.0534 221.238 L 308.8714 221.3837 L 301.005 221.4339 L 298.7772 221.6704 L 296.6035 222.2438 L 295.5413 222.731 L 293.585 223.9937 L 290.9694 226.3359 L 288.7487 229.0603 L 287.6419 231.1611 L 287.0662 233.4061 L 286.9205 235.6965 L 287.139 237.9744 L 287.777 240.185 L 288.2834 241.2158 L 289.5548 243.088 L 291.0305 244.8128 L 296.5988 250.6125 L 298.0522 252.3703 L 299.2965 254.2659 L 299.7935 255.2905 L 300.4668 257.465 L 301.4855 264.7154 L 296.0606 264.4021 L 291.0705 264.3394 L 287.3799 264.5008 L 283.8079 265.0538 L 281.7165 265.7713 L 277.1681 267.9317 L 270.909 269.5187 L 268.8422 270.2143 L 266.1245 271.7293 L 259.064 276.6109 Z" fill="#000000" fill-opacity="1" stroke="#000000" stroke-width="0" paint-order="fill" stroke-opacity="1" stroke-dasharray="" stroke-linecap="butt" stroke-linejoin="miter" stroke-miterlimit="10" transform="matrix(0.8999999761581421,0,0,0.8999999761581421,40.00004959106445,26.64999008178711)" clip-path="none" style="filter: url(#f1)"/>
<path data-code="204" d="M 301.4855 264.7154 L 300.4668 257.465 L 299.7935 255.2905 L 299.2965 254.2659 L 298.0522 252.3703 L 296.5988 250.6125 L 291.0305 244.8128 L 289.5548 243.088 L 288.2834 241.2158 L 287.777 240.185 L 287.139 237.9744 L 286.9205 235.6965 L 287.0662 233.4061 L 287.6419 231.1611 L 288.7487 229.0603 L 290.9694 226.3359 L 293.585 223.9937 L 295.5413 222.731 L 296.6035 222.2438 L 298.7772 221.6704 L 301.005 221.4339 L 308.8714 221.3837 L 311.0534 221.238 L 313.2036 220.8166 L 315.1776 219.9299 L 316.8084 218.6405 L 318.1503 217.0708 L 319.1831 215.2347 L 320.935 211.3854 L 322.0817 209.623 L 324.0193 207.0521 L 361.5282 206.9988 L 368.1527 207.1665 L 370.7424 207.414 L 373.2521 207.8887 L 375.5821 208.7096 L 379.9683 210.7243 L 382.2725 211.3259 L 387.1381 211.8162 L 393.3937 211.9008 L 394.1386 215.1469 L 394.9681 217.1428 L 396.0785 218.9335 L 398.0031 221.4683 L 397.9867 231.0311 L 394.6004 233.4986 L 392.7885 234.4526 L 390.7582 235.1012 L 386.6293 235.9817 L 384.6142 236.6882 L 383.7142 237.1896 L 382.0927 238.4758 L 380.745 240.0957 L 379.731 242.1934 L 379.3996 243.3966 L 379.0377 245.8625 L 378.952 248.366 L 379.1129 250.8616 L 379.6135 253.3087 L 380.0635 254.4915 L 381.2079 256.3276 L 382.699 257.8379 L 383.5579 258.4614 L 384.4908 258.9815 L 386.755 259.7069 L 390.2917 260.0797 L 396.3335 259.9215 L 399.9066 259.4311 L 402.1849 258.7826 L 407.6544 256.0315 L 415.3106 253.3698 L 416.4832 257.3131 L 417.2293 259.3277 L 419.9282 264.999 L 420.5004 267.1375 L 421.3182 271.5193 L 421.9762 273.6688 L 422.4768 274.7231 L 423.7387 276.6877 L 425.2297 278.4972 L 426.8724 280.1688 L 428.6442 281.6774 L 430.5583 282.9355 L 434.4862 284.6823 L 439.9135 287.4834 L 442.0002 288.096 L 447.3135 289.2083 L 449.271 289.9399 L 453.8111 292.188 L 455.8838 292.8069 L 458.0152 293.2455 L 460.0244 295.7615 L 461.2288 297.5115 L 462.0713 299.0922 L 463.5365 302.4307 L 464.6221 304.2183 L 469.2175 310.1214 L 470.4019 311.8713 L 471.3771 313.7748 L 472.6919 316.7859 L 474.4884 319.54 L 478.1955 323.7919 L 490.1639 336.1182 L 492.3399 338.6953 L 493.6018 340.5095 L 494.6018 342.4694 L 495.8437 345.5024 L 498.8246 350.9684 L 500.4379 355.0448 L 502.339 358.7138 L 503.1674 360.6377 L 503.4752 361.7187 L 503.85 363.9574 L 504.3729 370.8255 L 504.7747 373.0658 L 505.1084 374.15 L 505.5267 375.1307 L 506.5701 376.9715 L 507.7991 378.7888 L 504.3635 380.2223 L 501.6704 382.6584 L 498.3241 384.2062 L 497.9787 384.366 L 492.3246 384.9018 L 491.0357 383.9947 L 490.3237 383.4934 L 489.0312 379.605 L 487.9948 378.4535 L 477.3342 373.141 L 465.83 372.8058 L 461.6436 372.1823 L 460.3323 371.9864 L 443.3832 367.7361 L 435.0162 366.9121 L 425.2121 365.0258 L 416.5596 362.7887 L 414.2296 361.8268 L 409.6366 359.928 L 400.7432 358.8219 L 391.3727 359.8324 L 391.2951 359.8403 L 387.6116 359.259 L 384.9914 358.4757 L 380.0988 350.1992 L 378.4091 346.1369 L 375.6538 340.5534 L 375.0416 338.4086 L 374.1851 334.0158 L 373.5999 331.8804 L 371.4955 327.1664 L 370.8317 325.1094 L 370.4428 322.8785 L 369.8259 316.0198 L 369.1162 312.7001 L 368.2972 310.7653 L 366.4055 307.0899 L 365.1319 304.071 L 363.555 301.2808 L 358.9162 295.384 L 357.713 293.6419 L 354.7744 287.7654 L 349.2132 280.3004 L 348.0476 278.3358 L 345.7306 273.3131 L 344.4087 271.4018 L 342.9012 269.6127 L 340.3762 267.1954 L 338.4833 265.8669 L 336.3907 264.9645 L 334.2087 264.5118 L 330.8448 264.2658 L 327.4197 264.2454 L 308.3216 264.4507 L 301.4855 264.7154 Z" fill="#000000" fill-opacity="1" stroke="#000000" stroke-width="0" paint-order="fill" stroke-opacity="1" stroke-dasharray="" stroke-linecap="butt" stroke-linejoin="miter" stroke-miterlimit="10" transform="matrix(0.8999999761581421,0,0,0.8999999761581421,40.00004959106445,26.64999008178711)" clip-path="none" style="filter: url(#f1)"/>
<path data-code="205" d="M 520.0178 271.3078 L 518.3928 267.0873 L 517.4234 265.0413 L 516.2696 263.2162 L 513.5753 259.8322 L 509.0129 255.0367 L 506.2869 251.6763 L 505.1895 249.8684 L 503.4306 245.8405 L 502.3555 244.0295 L 497.1468 237.3071 L 494.8591 233.5816 L 493.9261 232.3596 L 492.7253 231.4134 L 486.4873 227.5907 L 484.8036 226.7667 L 481.6229 225.493 L 476.2662 222.4945 L 473.1078 221.1628 L 471.4241 220.2495 L 468.9096 218.299 L 466.6208 216.018 L 464.608 213.4941 L 463.5259 211.6533 L 460.5191 203.7841 L 459.2607 199.963 L 463.0559 198.3541 L 466.2753 197.1713 L 467.9603 196.294 L 468.818 195.7065 L 470.4559 194.3764 L 472.0269 192.9179 L 479.0039 186.0152 L 483.2679 182.3524 L 488.8667 183.1138 L 495.5112 183.3347 L 555.8276 183.4679 L 562.4627 183.3269 L 566.3355 182.907 L 568.7982 182.2866 L 573.2115 180.2892 L 575.4627 179.4933 L 586.1069 177.7606 L 588.3675 176.9757 L 591.661 175.4498 L 593.9969 174.6696 L 596.4808 174.2325 L 601.6025 173.8581 L 605.4094 177.8797 L 608.2 181.2198 L 609.8626 183.8862 L 611.5616 187.8091 L 612.7214 189.4963 L 614.1854 190.9376 L 615.9302 192.0311 L 617.8431 192.6359 L 619.8312 192.9132 L 624.9071 193.1936 L 626.9233 193.4537 L 628.8856 194.0098 L 630.7925 195.0454 L 633.3646 197.1212 L 637.3513 201.1239 L 648.3256 212.7985 L 653.2065 218.6828 L 652.6448 223.3984 L 652.411 228.9913 L 652.2935 264.2329 L 652.6707 272.5925 L 653.0831 275.3059 L 653.801 278.2058 L 649.8084 278.7713 L 646.3093 279.0533 L 642.5717 279.1113 L 638.8835 278.9123 L 636.4947 278.5583 L 634.227 277.9065 L 629.7774 275.6474 L 627.814 274.9534 L 624.5863 274.5837 L 622.4161 274.7733 L 620.3106 275.378 L 619.2977 275.8809 L 617.4401 277.1545 L 612.2055 281.5145 L 610.2445 282.6597 L 607.9662 283.3945 L 605.5822 283.7626 L 601.9127 283.9585 L 575.6519 283.6859 L 571.9331 283.7313 L 568.2789 284.0008 L 565.9219 284.4535 L 563.8422 285.229 L 559.4125 287.7247 L 555.5421 289.5247 L 552.0595 291.5551 L 550.21 292.4277 L 548.0845 292.9776 L 544.7899 293.139 L 542.6079 292.8319 L 540.5846 292.141 L 533.3597 288.3216 L 530.8205 286.5105 L 529.4164 285.0034 L 528.2544 283.3099 L 526.4002 279.434 L 525.1935 277.4773 L 523.0034 274.6746 L 520.0178 271.3078 Z" fill="#000000" fill-opacity="1" stroke="#000000" stroke-width="0" paint-order="fill" stroke-opacity="1" stroke-dasharray="" stroke-linecap="butt" stroke-linejoin="miter" stroke-miterlimit="10" transform="matrix(0.8999999761581421,0,0,0.8999999761581421,40.00004959106445,26.64999008178711)" clip-path="none" style="filter: url(#f1)"/>
<path data-code="206" d="M 625.4711 365.5021 L 622.2234 366.5267 L 618.0146 367.8536 L 606.6925 373.0674 L 596.9672 376.0205 L 592.6597 376.5892 L 579.3202 378.3548 L 544.2787 378.206 L 513.1359 378.1104 L 508.5417 378.4786 L 507.7991 378.7888 L 506.5701 376.9715 L 505.5267 375.1307 L 505.1084 374.15 L 504.7747 373.0658 L 504.3729 370.8255 L 503.85 363.9574 L 503.4752 361.7187 L 503.1674 360.6377 L 502.339 358.7138 L 500.4379 355.0448 L 498.8246 350.9684 L 495.8437 345.5024 L 494.6018 342.4694 L 493.6018 340.5095 L 492.3399 338.6953 L 490.1639 336.1182 L 478.1955 323.7919 L 474.4884 319.54 L 472.6919 316.7859 L 471.3771 313.7748 L 470.4019 311.8713 L 469.2175 310.1214 L 464.6221 304.2183 L 463.5365 302.4307 L 462.0713 299.0922 L 461.2288 297.5115 L 460.0244 295.7615 L 458.0152 293.2455 L 459.1033 288.9357 L 461.2358 284.2295 L 461.9091 282.0848 L 462.13 280.8894 L 462.4273 277.1984 L 462.5142 269.749 L 462.9842 266.1771 L 463.3649 265.0366 L 464.4177 263.2224 L 465.8535 261.7607 L 466.7065 261.1921 L 467.6512 260.7659 L 468.7146 260.5106 L 469.7838 260.4557 L 471.8659 260.8756 L 473.7517 261.9393 L 479.5456 266.9228 L 481.4573 267.9286 L 483.5088 268.3218 L 484.5463 268.2968 L 486.492 267.8424 L 490.8818 265.8105 L 494.2504 264.9943 L 500.2863 264.576 L 508.9424 264.6089 L 512.2088 267.4038 L 513.9713 268.6023 L 515.9464 269.6112 L 520.0178 271.3078 L 523.0034 274.6746 L 525.1935 277.4773 L 526.4002 279.434 L 528.2544 283.3099 L 529.4164 285.0034 L 530.8205 286.5105 L 533.3597 288.3216 L 540.5846 292.141 L 542.6079 292.8319 L 544.7899 293.139 L 548.0845 292.9776 L 550.21 292.4277 L 552.0595 291.5551 L 555.5421 289.5247 L 559.4125 287.7247 L 563.8422 285.229 L 565.9219 284.4535 L 568.2789 284.0008 L 571.9331 283.7313 L 575.6519 283.6859 L 601.9127 283.9585 L 605.5822 283.7626 L 607.9662 283.3945 L 610.2445 282.6597 L 612.2055 281.5145 L 617.4401 277.1545 L 619.2977 275.8809 L 620.3106 275.378 L 622.4161 274.7733 L 624.5863 274.5837 L 627.814 274.9534 L 629.7774 275.6474 L 634.227 277.9065 L 636.4947 278.5583 L 638.8835 278.9123 L 642.5717 279.1113 L 646.3093 279.0533 L 649.8084 278.7713 L 653.801 278.2058 L 657.0498 287.2891 L 658.038 289.1675 L 659.3469 290.7342 L 660.1142 291.3969 L 661.8837 292.3933 L 662.9236 292.6753 L 665.0303 292.7223 L 666.989 292.1786 L 671.3211 289.9117 L 673.3445 289.2004 L 678.5684 287.7764 L 680.4002 286.968 L 682.8148 285.6019 L 684.4703 284.9439 L 686.3397 284.8687 L 687.2445 285.1334 L 688.0775 285.6426 L 688.7226 286.3601 L 689.162 287.1763 L 690.5838 292.8946 L 692.5871 297.6149 L 693.2463 299.7486 L 693.6422 302.1299 L 694.2732 308.4263 L 694.7232 310.8937 L 695.4282 313.0557 L 697.1413 316.8141 L 697.8463 318.9541 L 698.2834 321.3557 L 698.5642 325.0718 L 698.4996 330.0741 L 698.0766 333.751 L 697.4797 336.0916 L 695.3589 340.8087 L 694.6187 342.9738 L 694.1181 345.4663 L 693.2475 351.8786 L 692.788 353.9278 L 686.8438 355.4662 L 658.723 362.7793 L 649.4183 364.407 L 639.2865 364.0953 L 636.6334 364.0154 L 627.5249 364.8551 L 625.4711 365.5021 Z" fill="#000000" fill-opacity="1" stroke="#000000" stroke-width="0" paint-order="fill" stroke-opacity="1" stroke-dasharray="" stroke-linecap="butt" stroke-linejoin="miter" stroke-miterlimit="10" transform="matrix(0.8999999761581421,0,0,0.8999999761581421,40.00004959106445,26.64999008178711)" clip-path="none" style="filter: url(#f1)"/>
<path data-code="207" d="M 520.0178 271.3078 L 515.9464 269.6112 L 513.9713 268.6023 L 512.2088 267.4038 L 508.9424 264.6089 L 500.2863 264.576 L 494.2504 264.9943 L 490.8818 265.8105 L 486.492 267.8424 L 484.5463 268.2968 L 483.5088 268.3218 L 481.4573 267.9286 L 479.5456 266.9228 L 473.7517 261.9393 L 471.8659 260.8756 L 469.7838 260.4557 L 468.7146 260.5106 L 467.6512 260.7659 L 466.7065 261.1921 L 465.8535 261.7607 L 464.4177 263.2224 L 463.3649 265.0366 L 462.9842 266.1771 L 462.5142 269.749 L 462.4273 277.1984 L 462.13 280.8894 L 461.9091 282.0848 L 461.2358 284.2295 L 459.1033 288.9357 L 458.0152 293.2455 L 455.8838 292.8069 L 453.8111 292.188 L 449.271 289.9399 L 447.3135 289.2083 L 442.0002 288.096 L 439.9135 287.4834 L 434.4862 284.6823 L 430.5583 282.9355 L 428.6442 281.6774 L 426.8724 280.1688 L 425.2297 278.4972 L 423.7387 276.6877 L 422.4768 274.7231 L 421.9762 273.6688 L 421.3182 271.5193 L 420.5004 267.1375 L 419.9282 264.999 L 417.2293 259.3277 L 416.4832 257.3131 L 415.3106 253.3698 L 415.891 250.2115 L 415.8922 247.9853 L 415.7383 246.873 L 415.0321 244.7204 L 414.4998 243.7256 L 413.212 241.8597 L 411.7398 240.1019 L 409.3452 237.589 L 406.8178 235.2187 L 405.0495 233.7821 L 403.1742 232.5617 L 402.1802 232.0792 L 400.1016 231.4369 L 397.9867 231.0311 L 398.0031 221.4683 L 396.0785 218.9335 L 394.9681 217.1428 L 394.1386 215.1469 L 393.3937 211.9008 L 396.5309 212.681 L 398.4602 213.5443 L 400.1886 214.6957 L 402.636 216.6916 L 406.7931 215.5558 L 411.3297 213.3453 L 414.6032 212.3677 L 419.4982 211.9478 L 433.2842 211.9243 L 435.7364 211.7332 L 438.1205 211.3055 L 440.2248 210.5567 L 444.6886 208.1487 L 448.5931 206.3643 L 453.8734 203.0008 L 459.2607 199.963 L 460.5191 203.7841 L 463.5259 211.6533 L 464.608 213.4941 L 466.6208 216.018 L 468.9096 218.299 L 471.4241 220.2495 L 473.1078 221.1628 L 476.2662 222.4945 L 481.6229 225.493 L 484.8036 226.7667 L 486.4873 227.5907 L 492.7253 231.4134 L 493.9261 232.3596 L 494.8591 233.5816 L 497.1468 237.3071 L 502.3555 244.0295 L 503.4306 245.8405 L 505.1895 249.8684 L 506.2869 251.6763 L 509.0129 255.0367 L 513.5753 259.8322 L 516.2696 263.2162 L 517.4234 265.0413 L 518.3928 267.0873 L 520.0178 271.3078 Z" fill="#000000" fill-opacity="1" stroke="#000000" stroke-width="0" paint-order="fill" stroke-opacity="1" stroke-dasharray="" stroke-linecap="butt" stroke-linejoin="miter" stroke-miterlimit="10" transform="matrix(0.8999999761581421,0,0,0.8999999761581421,40.00004959106445,26.64999008178711)" clip-path="none" style="filter: url(#f1)"/>
<path data-code="208" d="M 276.0037 143.9024 L 280.5861 136.8039 L 281.4921 134.8785 L 281.8516 133.7318 L 282.2875 131.3552 L 282.4837 128.9175 L 282.5589 118.9834 L 282.7669 115.3081 L 283.1558 112.9268 L 284.2873 109.8295 L 286.1626 106.1605 L 287.9439 102.1546 L 289.892 99.261 L 292.229 96.5883 L 294.7658 94.0597 L 302.476 87.5331 L 312.4316 94.384 L 314.3281 95.4901 L 316.5206 96.3314 L 318.9857 96.8045 L 321.4943 97.0003 L 332.8164 97.1319 L 335.231 97.4797 L 337.5233 98.2536 L 339.5537 99.6323 L 341.1905 101.4167 L 344.3429 107.1145 L 346.7916 109.7966 L 348.6704 111.086 L 355.7332 114.8396 L 358.042 115.6762 L 360.439 116.118 L 364.1413 116.3953 L 369.162 116.469 L 375.447 116.3671 L 379.1576 116.1196 L 381.5651 115.7702 L 383.8693 115.1498 L 389.3705 112.6338 L 392.8708 111.8442 L 397.794 111.5262 L 409.0714 111.451 L 413.9441 110.9794 L 416.247 110.3747 L 421.7436 107.8587 L 425.2156 107.0581 L 428.8651 106.7636 L 432.5922 106.7307 L 441.0039 107.29 L 440.4034 110.3356 L 440.2836 112.5978 L 440.3588 113.7289 L 440.8464 115.9379 L 441.7688 117.846 L 442.9661 119.585 L 446.2948 123.7147 L 447.5027 125.4333 L 448.5049 127.3117 L 449.8562 130.3055 L 451.6927 133.0738 L 454.6748 136.5063 L 463.426 145.6617 L 464.8724 147.4023 L 466.1508 149.2305 L 467.1566 151.1982 L 468.3926 154.2375 L 471.3266 159.727 L 472.921 163.8175 L 475.869 169.3086 L 477.5363 173.3772 L 478.5668 175.2086 L 483.2679 182.3524 L 479.0039 186.0152 L 472.0269 192.9179 L 470.4559 194.3764 L 468.818 195.7065 L 467.9603 196.294 L 466.2753 197.1713 L 463.0559 198.3541 L 459.2607 199.963 L 453.8734 203.0008 L 448.5931 206.3643 L 444.6886 208.1487 L 440.2248 210.5567 L 438.1205 211.3055 L 435.7364 211.7332 L 433.2842 211.9243 L 419.4982 211.9478 L 414.6032 212.3677 L 411.3297 213.3453 L 406.7931 215.5558 L 402.636 216.6916 L 400.1886 214.6957 L 398.4602 213.5443 L 396.5309 212.681 L 393.3937 211.9008 L 387.1381 211.8162 L 382.2725 211.3259 L 379.9683 210.7243 L 375.5821 208.7096 L 373.2521 207.8887 L 370.7424 207.414 L 368.1527 207.1665 L 361.5282 206.9988 L 324.0193 207.0521 L 323.5963 204.8494 L 323.0029 202.7062 L 320.848 198.0016 L 320.1454 195.9728 L 319.0667 190.4755 L 318.4734 188.3151 L 317.6356 186.3928 L 315.7651 182.7018 L 314.0978 178.6896 L 312.441 176.1109 L 309.7656 173.0952 L 306.827 170.5729 L 305.2396 169.5859 L 301.3316 167.8783 L 299.6537 166.827 L 298.064 165.5596 L 294.2935 161.9485 L 282.4896 149.7005 L 279.3371 146.7427 L 276.0037 143.9024 Z" fill="#000000" fill-opacity="1" stroke="#000000" stroke-width="0" paint-order="fill" stroke-opacity="1" stroke-dasharray="" stroke-linecap="butt" stroke-linejoin="miter" stroke-miterlimit="10" transform="matrix(0.8999999761581421,0,0,0.8999999761581421,40.00004959106445,26.64999008178711)" clip-path="none" style="filter: url(#f1)"/>
<path data-code="209" d="M 397.9867 231.0311 L 400.1016 231.4369 L 402.1802 232.0792 L 403.1742 232.5617 L 405.0495 233.7821 L 406.8178 235.2187 L 409.3452 237.589 L 411.7398 240.1019 L 413.212 241.8597 L 414.4998 243.7256 L 415.0321 244.7204 L 415.7383 246.873 L 415.8922 247.9853 L 415.891 250.2115 L 415.3106 253.3698 L 407.6544 256.0315 L 402.1849 258.7826 L 399.9066 259.4311 L 396.3335 259.9215 L 390.2917 260.0797 L 386.755 259.7069 L 384.4908 258.9815 L 383.5579 258.4614 L 382.699 257.8379 L 381.2079 256.3276 L 380.0635 254.4915 L 379.6135 253.3087 L 379.1129 250.8616 L 378.952 248.366 L 379.0377 245.8625 L 379.3996 243.3966 L 379.731 242.1934 L 380.745 240.0957 L 382.0927 238.4758 L 383.7142 237.1896 L 384.6142 236.6882 L 386.6293 235.9817 L 390.7582 235.1012 L 392.7885 234.4526 L 394.6004 233.4986 L 397.9867 231.0311 Z" fill="#000000" fill-opacity="1" stroke="#000000" stroke-width="0" paint-order="fill" stroke-opacity="1" stroke-dasharray="" stroke-linecap="butt" stroke-linejoin="miter" stroke-miterlimit="10" transform="matrix(0.8999999761581421,0,0,0.8999999761581421,40.00004959106445,26.64999008178711)" clip-path="none" style="filter: url(#f1)"/>










</svg>