 <svg xmlns="http://www.w3.org/2000/svg" version="1.1" baseProfile="full" width="800" height="500"
                    viewBox="0 0 850 567" style="background-color:false">

                    <path
                        d="M 523.4793 459.5178 L 521.563 461.1529 L 520.233 462.1308 L 515.79 464.4195 L 514.4601 465.3974 L 512.5438 467.0338 L 510.7255 468.5617 L 509.4048 469.4039 L 507.8779 469.9304 L 506.2325 470.0057 L 504.6834 469.6468 L 500.4485 467.733 L 496.3301 466.6922 L 494.7144 466.162 L 491.1555 464.3665 L 488.664 463.5822 L 484.983 463.1926 L 480.258 463.0853 L 474.583 463.1408 L 470.8993 463.4947 L 469.1412 463.9583 L 468.3884 464.2703 L 464.8785 466.1694 L 462.5895 467.2212 L 461.0339 468.1214 L 459.5282 469.2954 L 458.0956 470.6136 L 451.9296 477.0543 L 449.8228 479.0878 L 447.5218 480.7994 L 445.7793 481.5491 L 442.9955 482.0337 L 440.1275 482.1509 L 418.2713 481.993 L 417.8773 476.1011 L 417.9069 473.07 L 418.152 470.0994 L 418.7865 467.2878 L 420.6981 462.8695 L 421.0736 461.1702 L 421.1929 459.4167 L 421.0801 457.6619 L 420.7111 455.9602 L 418.8022 451.532 L 418.3074 449.628 L 417.8866 445.5697 L 417.8958 440.3535 L 418.1335 437.2695 L 418.4517 435.2989 L 418.9807 433.4837 L 420.4827 430.3614 L 420.7296 429.566 L 420.7795 428.0801 L 420.5724 427.3427 L 420.1701 426.6533 L 419.5217 426.059 L 417.9781 425.4547 L 415.3155 425.2439 L 408.9959 425.4954 L 412.8711 419.2249 L 413.6008 417.7094 L 413.9014 416.7919 L 414.2833 414.8929 L 414.4729 412.9457 L 414.5395 409.9899 L 414.2547 406.0858 L 413.8376 404.2052 L 413.5102 403.3038 L 412.1099 400.967 L 408.7953 396.6929 L 407.9351 395.0911 L 407.4255 393.3733 L 407.1324 390.6653 L 407.2137 387.8982 L 407.4561 386.046 L 408.2376 382.3749 L 410.0105 383.4441 L 412.0757 384.475 L 413.2808 385.3246 L 415.9361 388.9624 L 417.0403 390.0858 L 418.3037 391.0476 L 423.1934 393.4054 L 424.5529 393.8333 L 425.2706 393.8962 L 425.9856 393.8172 L 427.3284 393.361 L 432.2884 391.0723 L 435.7548 389.1017 L 437.3752 388.4827 L 438.2815 388.2693 L 441.0949 387.9389 L 443.9768 387.8575 L 459.4922 388.0572 L 462.3213 387.8427 L 464.1507 387.4456 L 465.8616 386.6823 L 467.3849 385.5885 L 468.7888 384.3122 L 472.7731 380.212 L 474.8808 378.4289 L 476.4855 377.6002 L 478.1484 377.3092 L 479.8066 377.5028 L 481.2494 378.0774 L 483.937 379.5843 L 486.9733 380.9963 L 491.1158 383.5008 L 494.1937 384.909 L 498.3509 387.3679 L 501.4242 388.7552 L 504.9229 390.7023 L 506.5572 391.3152 L 507.4672 391.5248 L 509.3336 391.7801 L 512.1886 391.9022 L 515.051 391.8122 L 516.9313 391.6173 L 519.6272 390.965 L 523.1879 389.193 L 525.5306 388.4383 L 528.9248 388.0659 L 534.6691 388.0264 L 534.4943 401.0003 L 534.7357 410.6324 L 534.4101 418.4739 L 534.4296 422.436 L 534.5905 425.361 L 534.8448 427.26 L 535.3054 429.0777 L 537.2726 433.5491 L 537.9338 436.4618 L 538.2168 439.5187 L 538.3315 443.6288 L 538.2279 446.6191 L 537.9671 448.5009 L 537.3956 450.2211 L 536.9239 450.9771 L 535.7965 452.0129 L 531.2739 454.8393 L 526.805 457.0084 L 523.4793 459.5178 Z"
                        fill="#000" fill-opacity="1" stroke="#000" stroke-width="0" paint-order="fill"
                        stroke-opacity="1" stroke-dasharray="" stroke-linecap="butt" stroke-linejoin="miter"
                        stroke-miterlimit="10"
                        data-code="101"

                        transform="matrix(1.100000023841858,0,0,1.100000023841858,-42.500003814697266,-28.3499698638916)"
                        clip-path="none" />
                    <path
                        d="M 279.775 320.031 L 278.9649 316.6152 L 277.265 312.9145 L 276.7027 311.3201 L 275.8139 307.0066 L 275.3431 305.3208 L 273.3408 300.8606 L 272.5307 297.4435 L 271.69 294.045 L 270.0428 290.3283 L 269.4971 288.6315 L 268.2976 279.9169 L 267.7593 278.225 L 266.4451 275.2556 L 265.905 273.565 L 265.56 271.6549 L 265.0134 266.7765 L 264.6592 264.875 L 264.1089 263.1955 L 262.4895 259.4726 L 261.8819 256.5365 L 261.6562 253.4561 L 261.572 248.2104 L 261.6183 241.888 L 261.8227 237.7398 L 262.0881 235.7273 L 262.5783 233.8048 L 264.5602 229.3482 L 265.0412 227.5158 L 265.3926 224.6265 L 265.4703 220.6879 L 265.2613 217.7592 L 264.6463 214.9501 L 262.57 210.5071 L 261.1568 206.397 L 260.3161 204.4758 L 267.9128 202.832 L 269.4712 202.2401 L 273.055 200.4804 L 274.68 199.9933 L 278.0178 199.2768 L 279.6465 198.77 L 283.8944 196.5183 L 286.9973 195.1877 L 291.2534 192.9632 L 292.8793 192.4699 L 296.2134 191.751 L 297.8412 191.2244 L 299.2821 190.4796 L 303.5346 187.6754 L 307.9526 195.4664 L 308.5556 197.0597 L 309.4676 201.3572 L 309.9485 203.0355 L 310.6135 204.5288 L 312.1154 207.4205 L 313.4176 210.6131 L 314.8983 213.5073 L 315.5402 215.0278 L 315.9795 216.8787 L 316.1866 218.7999 L 316.3439 224.6783 L 316.6056 227.5713 L 317.081 229.4272 L 317.413 230.2016 L 318.2389 231.6345 L 320.4068 234.3967 L 323.358 237.4204 L 325.2253 238.8274 L 326.5885 239.3638 L 327.3201 239.4168 L 328.0313 239.2812 L 328.6759 239.005 L 329.8227 238.2047 L 331.9175 236.2945 L 333.0366 235.5028 L 333.6692 235.2389 L 334.3758 235.1292 L 335.0981 235.2242 L 335.7658 235.4905 L 336.9182 236.3759 L 337.8255 237.5918 L 339.0537 240.6253 L 340.8082 244.2853 L 341.1004 245.0745 L 341.475 246.6924 L 342.0216 253.3846 L 342.5432 255.7967 L 343.2054 257.3097 L 344.7305 260.194 L 346.053 263.3953 L 348.4993 267.6619 L 349.7534 270.7991 L 350.6958 272.8362 L 351.136 274.2186 L 351.2008 274.9486 L 350.9178 276.3729 L 349.6479 279.0623 L 348.3485 282.1489 L 346.4479 285.6239 L 346.0132 287.0556 L 345.918 288.4342 L 346.1122 289.8055 L 346.3647 290.5762 L 348.1904 294.1054 L 349.5961 297.2573 L 350.9187 299.2328 L 352.5437 301.18 L 352.0877 303.8768 L 351.5494 305.4861 L 348.5196 311.0081 L 347.4505 312.1155 L 342.1825 315.3968 L 338.3675 317.0826 L 334.0826 319.2911 L 327.4902 321.0224 L 323.9258 322.7599 L 322.3499 323.3099 L 319.7547 323.6922 L 317.081 323.7058 L 314.4359 323.4271 L 311.8962 322.9486 L 308.6565 320.6994 L 305.5961 319.2442 L 302.8419 317.6646 L 301.3788 316.9938 L 299.7038 316.5942 L 297.1244 316.5252 L 295.4329 316.7965 L 293.8791 317.344 L 291.0814 318.788 L 289.5378 319.3577 L 286.9695 319.8103 L 283.4162 320.0347 L 279.775 320.031 Z"
                        fill="#000" fill-opacity="1" stroke="#000" stroke-width="0" paint-order="fill"
                        stroke-opacity="1" stroke-dasharray="" stroke-linecap="butt" stroke-linejoin="miter"
                        stroke-miterlimit="10" data-code="102"
                        transform="matrix(1.100000023841858,0,0,1.100000023841858,-42.500003814697266,-28.3499698638916)"
                        clip-path="none" />
                    <path
                        d="M 363.2156 482.1953 L 363.0528 462.7523 L 363.1379 459.778 L 363.6151 456.9183 L 363.9564 456.0095 L 365.0431 454.3374 L 366.5118 453.0339 L 367.37 452.5468 L 369.1189 451.9932 L 370.9353 451.7589 L 376.5585 451.5998 L 379.3515 451.3458 L 381.1393 450.9277 L 384.6399 449.3937 L 386.4295 448.7932 L 388.2829 448.4602 L 393.0255 447.9966 L 394.8854 447.6636 L 395.7871 447.3935 L 397.5287 446.5784 L 400.4984 444.7435 L 401.6988 443.8285 L 402.6524 442.4992 L 403.174 440.8369 L 403.8445 435.347 L 404.2977 433.554 L 405.327 431.4786 L 407.8528 427.7064 L 408.9959 425.4954 L 415.3155 425.2439 L 417.9781 425.4547 L 419.5217 426.059 L 420.1701 426.6533 L 420.5724 427.3427 L 420.7795 428.0801 L 420.7296 429.566 L 420.4827 430.3614 L 418.9807 433.4837 L 418.4517 435.2989 L 418.1335 437.2695 L 417.8958 440.3535 L 417.8866 445.5697 L 418.3074 449.628 L 418.8022 451.532 L 420.7111 455.9602 L 421.0801 457.6619 L 421.1929 459.4167 L 421.0736 461.1702 L 420.6981 462.8695 L 418.7865 467.2878 L 418.152 470.0994 L 417.9069 473.07 L 417.8773 476.1011 L 418.2713 481.993 L 372.5002 481.9486 L 363.2156 482.1953 Z"
                        fill="#000" fill-opacity="1" stroke="#000" stroke-width="0" paint-order="fill"
                        stroke-opacity="1" stroke-dasharray="" stroke-linecap="butt" stroke-linejoin="miter"
                        stroke-miterlimit="10" data-code="103"
                        transform="matrix(1.100000023841858,0,0,1.100000023841858,-42.500003814697266,-28.3499698638916)"
                        clip-path="none" />
                    <path
                        d="M 442.066 232.9885 L 439.3294 231.9008 L 436.2663 230.5049 L 433.7247 229.5209 L 432.3846 228.813 L 431.0316 227.8339 L 429.1236 226.1347 L 426.6968 223.6745 L 424.417 221.0887 L 423.3987 219.7297 L 422.5451 218.2894 L 421.2383 215.0857 L 418.927 210.7623 L 417.6924 207.5352 L 415.3747 203.218 L 414.3435 200.6654 L 413.6415 199.3089 L 412.6806 197.9315 L 411.5948 196.6207 L 406.8595 191.5216 L 405.1966 189.5424 L 403.8094 187.4818 L 401.8505 183.9871 L 410.1104 184.7381 L 412.7148 185.1068 L 415.1065 185.8701 L 418.6847 187.5793 L 421.3437 188.1773 L 424.134 188.3919 L 431.7039 188.5485 L 433.561 188.7076 L 435.3673 189.0344 L 436.9849 189.5954 L 439.8288 191.0173 L 441.3557 191.6055 L 445.5056 192.5772 L 447.1315 193.0766 L 451.4487 195.1347 L 453.0755 195.623 L 456.4142 196.3506 L 458.042 196.8599 L 462.2899 199.1091 L 465.3853 200.4557 L 468.9026 202.3659 L 470.4425 202.9676 L 472.9312 203.5583 L 472.4586 206.1689 L 471.8926 207.7757 L 469.2226 212.6293 L 468.3375 213.8661 L 467.7715 214.3594 L 465.1634 216.0106 L 463.1888 217.6198 L 460.6057 220.0972 L 454.8707 225.9559 L 452.2061 228.305 L 450.7615 229.2446 L 447.666 230.5986 L 444.2653 232.3707 L 443.5994 232.6309 L 442.066 232.9885 Z"
                        fill="#000" fill-opacity="1" stroke="#000" stroke-width="0" paint-order="fill"
                        stroke-opacity="1" stroke-dasharray="" stroke-linecap="butt" stroke-linejoin="miter"
                        stroke-miterlimit="10" data-code="104"
                        transform="matrix(1.100000023841858,0,0,1.100000023841858,-42.500003814697266,-28.3499698638916)"
                        clip-path="none" />
                    <path
                        d="M 420.1821 271.8028 L 414.3879 274.4418 L 411.2017 275.6872 L 406.9085 277.9328 L 405.2281 278.4285 L 401.9633 279.1018 L 400.343 279.6086 L 398.8965 280.33 L 392.54 284.1614 L 389.844 283.0688 L 387.2452 282.5928 L 384.6112 282.6101 L 382.89 282.9393 L 382.0577 283.2378 L 380.5307 284.1182 L 379.1536 285.2342 L 374.0327 290.3394 L 372.6889 291.5158 L 371.2489 292.5221 L 369.6738 293.2336 L 364.6953 294.3496 L 363.1508 294.9255 L 359.6308 296.827 L 357.3085 297.8381 L 355.8796 298.6076 L 352.5437 301.18 L 350.9187 299.2328 L 349.5961 297.2573 L 348.1904 294.1054 L 346.3647 290.5762 L 346.1122 289.8055 L 345.918 288.4342 L 346.0132 287.0556 L 346.4479 285.6239 L 348.3485 282.1489 L 349.6479 279.0623 L 350.9178 276.3729 L 351.2008 274.9486 L 351.136 274.2186 L 350.6958 272.8362 L 349.7534 270.7991 L 348.4993 267.6619 L 346.053 263.3953 L 344.7305 260.194 L 343.2054 257.3097 L 342.5432 255.7967 L 342.0216 253.3846 L 341.475 246.6924 L 341.1004 245.0745 L 340.8082 244.2853 L 339.0537 240.6253 L 337.8255 237.5918 L 336.9182 236.3759 L 335.7658 235.4905 L 335.0981 235.2242 L 334.3758 235.1292 L 333.6692 235.2389 L 333.0366 235.5028 L 331.9175 236.2945 L 329.8227 238.2047 L 328.6759 239.005 L 328.0313 239.2812 L 327.3201 239.4168 L 326.5885 239.3638 L 325.2253 238.8274 L 323.358 237.4204 L 320.4068 234.3967 L 318.2389 231.6345 L 317.413 230.2016 L 317.081 229.4272 L 316.6056 227.5713 L 316.3439 224.6783 L 316.1866 218.7999 L 315.9795 216.8787 L 315.5402 215.0278 L 314.8983 213.5073 L 313.4176 210.6131 L 312.1154 207.4205 L 310.6135 204.5288 L 309.9485 203.0355 L 309.4676 201.3572 L 308.5556 197.0597 L 307.9526 195.4664 L 303.5346 187.6754 L 313.2854 183.6825 L 317.832 180.8673 L 318.9575 179.8203 L 319.4051 179.0916 L 319.9489 177.4465 L 320.1931 175.656 L 320.2717 173.7767 L 320.2162 170.8677 L 320.0035 167.9341 L 319.7399 166.0079 L 319.2738 163.9535 L 321.5323 160.8608 L 323.3839 158.6732 L 325.4038 156.6977 L 327.6234 155.0786 L 330.6773 153.637 L 333.4454 152.0537 L 334.9177 151.3533 L 335.751 151.0844 L 337.474 150.7527 L 339.234 150.6146 L 341.0033 150.6257 L 343.6253 150.9513 L 345.302 151.4889 L 346.1067 151.9094 L 347.5846 152.9502 L 351.0001 155.9553 L 352.4197 157.0565 L 353.9226 157.9284 L 356.2172 158.9864 L 358.9991 160.5735 L 360.4493 161.2714 L 362.0854 161.7647 L 365.4343 162.4466 L 367.0602 162.9288 L 370.6311 164.7131 L 372.1857 165.31 L 378.103 166.5986 L 380.7194 168.5716 L 384.65 172.054 L 382.8096 176.6191 L 382.1557 179.1236 L 381.9495 180.9351 L 381.8866 182.7663 L 381.9541 184.5938 L 382.1788 186.3954 L 382.6264 188.1329 L 382.9381 188.9074 L 384.8211 192.518 L 386.1779 195.6884 L 388.576 199.9686 L 389.9143 203.144 L 391.4098 206.0271 L 392.0591 207.5488 L 392.503 209.38 L 392.7176 211.2802 L 392.9071 222.032 L 393.1217 223.936 L 393.5656 225.766 L 394.2121 227.2827 L 395.6743 230.1374 L 396.971 233.3337 L 399.3765 237.6559 L 400.4336 240.1999 L 401.1365 241.5502 L 402.0808 242.9276 L 405.7469 247.5667 L 406.607 248.9663 L 408.441 252.8174 L 409.3853 254.1899 L 412.5317 258.1507 L 413.4704 259.5281 L 415.6383 264.1487 L 417.8644 267.7162 L 420.1821 271.8028 Z"
                        fill="#000" fill-opacity="1" stroke="#000" stroke-width="0" paint-order="fill"
                        stroke-opacity="1" stroke-dasharray="" stroke-linecap="butt" stroke-linejoin="miter"
                        stroke-miterlimit="10" data-code="105"
                        transform="matrix(1.100000023841858,0,0,1.100000023841858,-42.500003814697266,-28.3499698638916)"
                        clip-path="none" />
                    <path
                        d="M 319.2738 163.9535 L 315.8472 161.0951 L 311.0306 156.7877 L 309.6479 155.7087 L 307.001 154.0242 L 306.4239 153.5261 L 305.5055 152.2942 L 303.2165 148.284 L 302.6375 146.7894 L 302.4312 145.0704 L 302.6662 143.3551 L 303.2544 141.8605 L 304.7526 139.0601 L 306.1085 135.8983 L 308.5298 131.6057 L 310.2306 127.6757 L 312.2162 124.0885 L 313.5295 120.8885 L 315.8787 116.5725 L 317.1836 113.3688 L 319.4588 109.0134 L 320.8544 104.8663 L 322.1566 102.1743 L 323.5096 101.2729 L 324.7508 100.2346 L 326.349 98.3824 L 327.1748 96.9347 L 328.6389 93.9 L 329.5739 92.5275 L 332.6999 88.5432 L 333.635 87.1621 L 335.4653 83.2999 L 336.4012 81.8078 L 338.0946 79.709 L 341.795 75.6729 L 343.5467 73.6049 L 344.9996 71.3939 L 346.3915 68.2334 L 347.2969 66.7191 L 349.536 63.8791 L 352.6565 60.5386 L 354.6625 58.7308 L 356.1265 57.7295 L 356.9247 57.3398 L 358.6255 56.865 L 360.3726 56.6998 L 363.0075 56.8576 L 364.7249 57.23 L 366.9215 58.0661 L 368.5723 60.7556 L 369.6461 61.9986 L 370.8697 63.0801 L 372.2736 63.9605 L 378.0475 66.9053 L 380.4752 67.6489 L 386.5451 68.3357 L 388.2338 68.6674 L 389.7885 69.2112 L 393.389 70.8908 L 395.0556 71.3224 L 396.7878 71.5604 L 400.3337 71.7675 L 402.9113 73.8725 L 404.3458 74.7012 L 406.0188 75.266 L 409.279 75.9541 L 410.8928 76.4239 L 414.4748 78.154 L 416.0212 78.7262 L 420.1997 79.6375 L 421.832 80.143 L 426.0725 82.4133 L 429.1689 83.7561 L 433.4066 86.0288 L 435.0362 86.5356 L 438.3795 87.2472 L 440.0054 87.733 L 443.5791 89.4903 L 445.1273 90.0686 L 450.1909 91.0921 L 456.4457 93.0022 L 455.5162 96.4168 L 454.7292 99.9017 L 454.1594 101.596 L 453.7562 102.3951 L 452.2061 104.5901 L 447.9176 109.3031 L 446.1641 111.3674 L 444.7139 113.555 L 443.6651 115.8622 L 442.8475 117.2951 L 441.2401 119.1017 L 439.9611 120.0598 L 436.996 121.5408 L 435.642 122.4176 L 431.1268 126.154 L 429.0829 127.5413 L 425.9994 128.9422 L 421.82 131.3616 L 418.7088 132.6798 L 414.5247 135.0918 L 411.4181 136.4249 L 407.2341 138.848 L 404.1275 140.181 L 399.9444 142.5881 L 396.8322 143.9014 L 393.3492 145.9176 L 389.5471 147.66 L 388.0711 148.5984 L 385.9957 150.3113 L 382.743 153.5125 L 380.9432 155.5583 L 379.4338 157.7927 L 378.7744 159.476 L 378.4341 161.2505 L 378.103 166.5986 L 372.1857 165.31 L 370.6311 164.7131 L 367.0602 162.9288 L 365.4343 162.4466 L 362.0854 161.7647 L 360.4493 161.2714 L 358.9991 160.5735 L 356.2172 158.9864 L 353.9226 157.9284 L 352.4197 157.0565 L 351.0001 155.9553 L 347.5846 152.9502 L 346.1067 151.9094 L 345.302 151.4889 L 343.6253 150.9513 L 341.0033 150.6257 L 339.234 150.6146 L 337.474 150.7527 L 335.751 151.0844 L 334.9177 151.3533 L 333.4454 152.0537 L 330.6773 153.637 L 327.6234 155.0786 L 325.4038 156.6977 L 323.3839 158.6732 L 321.5323 160.8608 L 319.2738 163.9535 Z"
                        fill="#000" fill-opacity="1" stroke="#000" stroke-width="0" paint-order="fill"
                        stroke-opacity="1" stroke-dasharray="" stroke-linecap="butt" stroke-linejoin="miter"
                        stroke-miterlimit="10" data-code="106"
                        transform="matrix(1.100000023841858,0,0,1.100000023841858,-42.500003814697266,-28.3499698638916)"
                        clip-path="none" />
                    <path
                        d="M 512.922 244.5307 L 509.1801 244.8587 L 504.2349 245.0153 L 497.2957 245.0437 L 492.393 244.8599 L 490.4878 244.6441 L 488.6612 244.2618 L 483.6485 242.1236 L 482.0226 241.93 L 481.1958 241.999 L 479.5273 242.5367 L 477.981 243.5294 L 475.8686 245.4383 L 470.4924 251.2217 L 468.3948 253.2736 L 466.0938 254.9889 L 464.3514 255.7436 L 462.5081 256.1321 L 459.6623 256.3405 L 447.9685 256.1962 L 443.1148 256.317 L 441.2059 256.5119 L 439.3395 256.8781 L 436.6676 257.7968 L 436.4697 253.3945 L 436.4845 250.2549 L 436.6325 248.1993 L 436.9701 246.2003 L 437.6017 244.3112 L 439.2665 240.7745 L 440.6066 236.5658 L 442.066 232.9885 L 443.5994 232.6309 L 444.2653 232.3707 L 447.666 230.5986 L 450.7615 229.2446 L 452.2061 228.305 L 454.8707 225.9559 L 460.6057 220.0972 L 463.1888 217.6198 L 465.1634 216.0106 L 467.7715 214.3594 L 468.3375 213.8661 L 469.2226 212.6293 L 471.8926 207.7757 L 472.4586 206.1689 L 472.9312 203.5583 L 476.1932 204.477 L 480.5169 206.4981 L 483.3239 207.1344 L 486.2621 207.3675 L 491.2573 207.4193 L 496.27 207.275 L 500.1451 206.9236 L 501.5121 210.3085 L 502.8013 214.5444 L 504.8638 218.996 L 506.4897 225.8202 L 508.4753 230.2904 L 508.9451 231.9798 L 509.8386 236.2834 L 510.4036 237.8766 L 512.1193 241.5699 L 512.922 244.5307 Z"
                        fill="#000" fill-opacity="1" stroke="#000" stroke-width="0" paint-order="fill"
                        stroke-opacity="1" stroke-dasharray="" stroke-linecap="butt" stroke-linejoin="miter"
                        stroke-miterlimit="10" data-code="107"
                        transform="matrix(1.100000023841858,0,0,1.100000023841858,-42.500003814697266,-28.3499698638916)"
                        clip-path="none" />
                    <path
                        d="M 577.3836 363.7286 L 575.262 364.7805 L 572.0703 365.915 L 570.5739 366.6585 L 568.5688 368.121 L 564.7241 371.342 L 563.3637 372.2397 L 559.6402 374.1671 L 558.313 375.1487 L 554.4786 378.4079 L 552.4458 379.8014 L 549.3752 381.2219 L 545.2032 383.6525 L 542.0864 384.9621 L 538.7607 386.7575 L 537.2383 387.3716 L 534.6691 388.0264 L 534.633 383.1481 L 534.4841 380.4821 L 534.2224 378.7458 L 533.7202 377.0749 L 532.8148 375.4064 L 531.6726 373.8958 L 527.1213 368.9916 L 525.3586 366.7597 L 524.4596 365.0875 L 523.938 363.2637 L 523.6319 360.409 L 523.5699 352.5995 L 523.2508 348.778 L 522.8124 346.969 L 521.1569 343.2757 L 520.5974 341.5974 L 520.2571 339.6922 L 520.0841 337.7253 L 519.9805 333.7065 L 520.0175 322.4985 L 519.9038 312.3313 L 520.0055 309.3606 L 520.2589 307.4357 L 520.491 306.5022 L 521.2217 304.8584 L 522.2168 303.5501 L 523.4228 302.4723 L 524.8305 301.6375 L 527.0899 300.6608 L 530.5794 298.7667 L 534.3019 297.0181 L 535.6013 296.0723 L 536.7398 294.9168 L 537.6786 293.59 L 539.4487 289.7845 L 541.0071 286.915 L 542.6229 282.9504 L 544.5419 279.3349 L 545.9126 276.2273 L 546.7375 274.66 L 547.7808 273.1728 L 549.5741 271.0617 L 556.3773 264.2375 L 558.5988 265.9355 L 560.1581 266.9073 L 563.5255 268.3981 L 567.8206 270.5463 L 570.5757 271.1616 L 576.2395 271.8041 L 578.0532 272.285 L 582.3232 274.4689 L 585.4058 275.8303 L 589.6444 278.1288 L 597.7572 280.6888 L 598.24 281.8862 L 598.6062 282.2882 L 601.2634 284.3094 L 602.3121 285.434 L 603.2315 286.7374 L 606.0791 292.6442 L 606.6118 294.1609 L 606.7579 295.0118 L 606.7385 296.7209 L 606.5785 297.5558 L 606.0439 299.0294 L 604.7538 301.8939 L 604.1212 304.6821 L 603.8086 309.6714 L 603.9297 316.995 L 603.8002 323.1311 L 603.6486 324.9549 L 603.335 326.7319 L 602.7736 328.3646 L 600.8916 331.9752 L 599.4913 335.1296 L 597.982 337.401 L 595.0872 340.9796 L 594.0375 342.4668 L 591.6735 347.1626 L 590.6358 348.6645 L 587.262 353.0373 L 586.3288 354.5676 L 584.8721 357.6344 L 583.9482 358.9551 L 582.2391 360.6211 L 578.892 362.583 L 577.3836 363.7286 Z"
                        fill="#000" fill-opacity="1" stroke="#000" stroke-width="0" paint-order="fill"
                        stroke-opacity="1" stroke-dasharray="" stroke-linecap="butt" stroke-linejoin="miter"
                        stroke-miterlimit="10" data-code="108"
                        transform="matrix(1.100000023841858,0,0,1.100000023841858,-42.500003814697266,-28.3499698638916)"
                        clip-path="none" />
                    <path
                        d="M 408.2376 382.3749 L 406.1539 381.9088 L 402.3823 380.8236 L 398.1326 380.0986 L 396.4789 379.6275 L 395.0195 378.9369 L 392.2366 377.3745 L 389.168 375.9712 L 387.8241 375.076 L 385.9633 373.4359 L 384.2301 371.5973 L 382.1992 369.1162 L 381.8311 366.206 L 381.6498 363.3969 L 381.6461 359.6679 L 381.8588 356.9266 L 382.4359 354.3136 L 384.1275 350.6228 L 384.6695 349.0234 L 385.1023 346.3882 L 385.5203 341.8921 L 386.0854 339.2791 L 386.7328 337.7574 L 388.2338 334.8645 L 389.2632 332.4857 L 390.1141 330.9431 L 391.7594 328.8258 L 395.4366 324.9167 L 397.0709 322.9622 L 397.8893 321.5811 L 398.1576 320.8461 L 398.288 320.0766 L 398.1169 318.6647 L 397.1208 315.9468 L 396.7268 314.308 L 396.4207 311.6333 L 396.3365 308.8563 L 396.4235 306.0768 L 396.7259 303.3984 L 397.1152 301.7509 L 398.0947 299.0207 L 398.2593 297.6248 L 398.1243 296.8504 L 397.4815 295.4015 L 394.4933 291.2334 L 393.648 289.6563 L 393.1263 287.9656 L 392.54 284.1614 L 398.8965 280.33 L 400.343 279.6086 L 401.9633 279.1018 L 405.2281 278.4285 L 406.9085 277.9328 L 411.2017 275.6872 L 414.3879 274.4418 L 420.1821 271.8028 L 422.3472 270.254 L 423.7187 269.0887 L 430.9456 262.1572 L 432.2875 261.0856 L 435.5328 259.0164 L 436.6676 257.7968 L 439.3395 256.8781 L 441.2059 256.5119 L 443.1148 256.317 L 447.9685 256.1962 L 459.6623 256.3405 L 462.5081 256.1321 L 464.3514 255.7436 L 466.0938 254.9889 L 468.3948 253.2736 L 470.4924 251.2217 L 475.8686 245.4383 L 477.981 243.5294 L 479.5273 242.5367 L 481.1958 241.999 L 482.0226 241.93 L 483.6485 242.1236 L 488.6612 244.2618 L 490.4878 244.6441 L 492.393 244.8599 L 497.2957 245.0437 L 504.2349 245.0153 L 509.1801 244.8587 L 512.922 244.5307 L 513.4205 247.5802 L 513.9606 249.1956 L 516.9849 254.7226 L 517.476 255.3219 L 518.6756 256.2702 L 523.9916 259.5306 L 527.0723 260.8772 L 530.6007 262.759 L 533.1255 263.5445 L 535.8964 263.8528 L 539.6809 263.9021 L 543.4256 263.7208 L 547.8279 263.2843 L 550.793 263.7245 L 556.3773 264.2375 L 549.5741 271.0617 L 547.7808 273.1728 L 546.7375 274.66 L 545.9126 276.2273 L 544.5419 279.3349 L 542.6229 282.9504 L 541.0071 286.915 L 539.4487 289.7845 L 537.6786 293.59 L 536.7398 294.9168 L 535.6013 296.0723 L 534.3019 297.0181 L 530.5794 298.7667 L 527.0899 300.6608 L 524.8305 301.6375 L 523.4228 302.4723 L 522.2168 303.5501 L 521.2217 304.8584 L 520.491 306.5022 L 520.2589 307.4357 L 520.0055 309.3606 L 519.9038 312.3313 L 520.0175 322.4985 L 519.9805 333.7065 L 520.0841 337.7253 L 520.2571 339.6922 L 520.5974 341.5974 L 521.1569 343.2757 L 522.8124 346.969 L 523.2508 348.778 L 523.5699 352.5995 L 523.6319 360.409 L 523.938 363.2637 L 524.4596 365.0875 L 525.3586 366.7597 L 527.1213 368.9916 L 531.6726 373.8958 L 532.8148 375.4064 L 533.7202 377.0749 L 534.2224 378.7458 L 534.4841 380.4821 L 534.633 383.1481 L 534.6691 388.0264 L 528.9248 388.0659 L 525.5306 388.4383 L 523.1879 389.193 L 519.6272 390.965 L 516.9313 391.6173 L 515.051 391.8122 L 512.1886 391.9022 L 509.3336 391.7801 L 507.4672 391.5248 L 506.5572 391.3152 L 504.9229 390.7023 L 501.4242 388.7552 L 498.3509 387.3679 L 494.1937 384.909 L 491.1158 383.5008 L 486.9733 380.9963 L 483.937 379.5843 L 481.2494 378.0774 L 479.8066 377.5028 L 478.1484 377.3092 L 476.4855 377.6002 L 474.8808 378.4289 L 472.7731 380.212 L 468.7888 384.3122 L 467.3849 385.5885 L 465.8616 386.6823 L 464.1507 387.4456 L 462.3213 387.8427 L 459.4922 388.0572 L 443.9768 387.8575 L 441.0949 387.9389 L 438.2815 388.2693 L 437.3752 388.4827 L 435.7548 389.1017 L 432.2884 391.0723 L 427.3284 393.361 L 425.9856 393.8172 L 425.2706 393.8962 L 424.5529 393.8333 L 423.1934 393.4054 L 418.3037 391.0476 L 417.0403 390.0858 L 415.9361 388.9624 L 413.2808 385.3246 L 412.0757 384.475 L 410.0105 383.4441 L 408.2376 382.3749 Z"
                        fill="#000" fill-opacity="1" stroke="#000" stroke-width="0" paint-order="fill"
                        stroke-opacity="1" stroke-dasharray="" stroke-linecap="butt" stroke-linejoin="miter"
                        stroke-miterlimit="10" data-code="109"
                        transform="matrix(1.100000023841858,0,0,1.100000023841858,-42.500003814697266,-28.3499698638916)"
                        clip-path="none" />
                    <path
                        d="M 420.1821 271.8028 L 417.8644 267.7162 L 415.6383 264.1487 L 413.4704 259.5281 L 412.5317 258.1507 L 409.3853 254.1899 L 408.441 252.8174 L 406.607 248.9663 L 405.7469 247.5667 L 402.0808 242.9276 L 401.1365 241.5502 L 400.4336 240.1999 L 399.3765 237.6559 L 396.971 233.3337 L 395.6743 230.1374 L 394.2121 227.2827 L 393.5656 225.766 L 393.1217 223.936 L 392.9071 222.032 L 392.7176 211.2802 L 392.503 209.38 L 392.0591 207.5488 L 391.4098 206.0271 L 389.9143 203.144 L 388.576 199.9686 L 386.1779 195.6884 L 384.8211 192.518 L 382.9381 188.9074 L 382.6264 188.1329 L 382.1788 186.3954 L 381.9541 184.5938 L 381.8866 182.7663 L 381.9495 180.9351 L 382.1557 179.1236 L 382.8096 176.6191 L 384.65 172.054 L 387.5439 175.3588 L 389.3058 177.2024 L 391.1555 178.8942 L 392.466 179.8684 L 393.77 180.5849 L 396.2283 181.6269 L 399.6198 183.4137 L 400.6695 183.7775 L 401.8505 183.9871 L 403.8094 187.4818 L 405.1966 189.5424 L 406.8595 191.5216 L 411.5948 196.6207 L 412.6806 197.9315 L 413.6415 199.3089 L 414.3435 200.6654 L 415.3747 203.218 L 417.6924 207.5352 L 418.927 210.7623 L 421.2383 215.0857 L 422.5451 218.2894 L 423.3987 219.7297 L 424.417 221.0887 L 426.6968 223.6745 L 429.1236 226.1347 L 431.0316 227.8339 L 432.3846 228.813 L 433.7247 229.5209 L 436.2663 230.5049 L 439.3294 231.9008 L 442.066 232.9885 L 440.6066 236.5658 L 439.2665 240.7745 L 437.6017 244.3112 L 436.9701 246.2003 L 436.6325 248.1993 L 436.4845 250.2549 L 436.4697 253.3945 L 436.6676 257.7968 L 435.5328 259.0164 L 432.2875 261.0856 L 430.9456 262.1572 L 423.7187 269.0887 L 422.3472 270.254 L 420.1821 271.8028 Z"
                        fill="#000" fill-opacity="1" stroke="#000" stroke-width="0" paint-order="fill"
                        stroke-opacity="1" stroke-dasharray="" stroke-linecap="butt" stroke-linejoin="miter"
                        stroke-miterlimit="10" data-code="110"
                        transform="matrix(1.100000023841858,0,0,1.100000023841858,-42.500003814697266,-28.3499698638916)"
                        clip-path="none" />
                    <path
                        d="M 534.6691 388.0264 L 537.2383 387.3716 L 538.7607 386.7575 L 542.0864 384.9621 L 545.2032 383.6525 L 549.3752 381.2219 L 552.4458 379.8014 L 554.4786 378.4079 L 558.313 375.1487 L 559.6402 374.1671 L 563.3637 372.2397 L 564.7241 371.342 L 568.5688 368.121 L 570.5739 366.6585 L 572.0703 365.915 L 575.262 364.7805 L 577.3836 363.7286 L 577.9265 367.4157 L 578.1928 370.4665 L 578.3066 374.7196 L 578.1947 378.9308 L 578.0005 380.9926 L 577.6351 382.9903 L 577.0044 384.8646 L 575.4432 388.4235 L 574.806 391.3781 L 574.5054 396.5918 L 574.633 405.5642 L 567.8381 409.3881 L 565.9949 410.0898 L 564.0407 410.4671 L 558.9771 410.7298 L 534.7357 410.6324 L 534.4943 401.0003 L 534.6691 388.0264 Z"
                        fill="#000" fill-opacity="1" stroke="#000" stroke-width="0" paint-order="fill"
                        stroke-opacity="1" stroke-dasharray="" stroke-linecap="butt" stroke-linejoin="miter"
                        stroke-miterlimit="10" data-code="111"
                        transform="matrix(1.100000023841858,0,0,1.100000023841858,-42.500003814697266,-28.3499698638916)"
                        clip-path="none" />
                    <path
                        d="M 505.2226 203.8493 L 502.7791 204.8346 L 500.1451 206.9236 L 496.27 207.275 L 491.2573 207.4193 L 486.2621 207.3675 L 483.3239 207.1344 L 480.5169 206.4981 L 476.1932 204.477 L 472.9312 203.5583 L 470.4425 202.9676 L 468.9026 202.3659 L 465.3853 200.4557 L 462.2899 199.1091 L 458.042 196.8599 L 456.4142 196.3506 L 453.0755 195.623 L 451.4487 195.1347 L 447.1315 193.0766 L 445.5056 192.5772 L 441.3557 191.6055 L 439.8288 191.0173 L 436.9849 189.5954 L 435.3673 189.0344 L 433.561 188.7076 L 431.7039 188.5485 L 424.134 188.3919 L 421.3437 188.1773 L 418.6847 187.5793 L 415.1065 185.8701 L 412.7148 185.1068 L 410.1104 184.7381 L 401.8505 183.9871 L 400.6695 183.7775 L 399.6198 183.4137 L 396.2283 181.6269 L 393.77 180.5849 L 392.466 179.8684 L 391.1555 178.8942 L 389.3058 177.2024 L 387.5439 175.3588 L 384.65 172.054 L 380.7194 168.5716 L 378.103 166.5986 L 378.4341 161.2505 L 378.7744 159.476 L 379.4338 157.7927 L 380.9432 155.5583 L 382.743 153.5125 L 385.9957 150.3113 L 388.0711 148.5984 L 389.5471 147.66 L 393.3492 145.9176 L 396.8322 143.9014 L 399.9444 142.5881 L 404.1275 140.181 L 407.2341 138.848 L 411.4181 136.4249 L 414.5247 135.0918 L 418.7088 132.6798 L 421.82 131.3616 L 425.9994 128.9422 L 429.0829 127.5413 L 431.1268 126.154 L 435.642 122.4176 L 436.996 121.5408 L 439.9611 120.0598 L 441.2401 119.1017 L 442.8475 117.2951 L 443.6651 115.8622 L 444.7139 113.555 L 446.1641 111.3674 L 447.9176 109.3031 L 452.2061 104.5901 L 453.7562 102.3951 L 454.1594 101.596 L 454.7292 99.9017 L 455.5162 96.4168 L 456.4457 93.0022 L 457.3095 92.9394 L 457.7784 92.7408 L 458.2066 92.3857 L 460.1581 89.5544 L 463.3127 85.7255 L 464.7722 83.639 L 465.5232 82.0717 L 467.1463 77.3648 L 467.9 74.3017 L 472.0896 78.2872 L 474.0161 80.381 L 475.1712 81.8509 L 476.146 83.4158 L 477.5167 86.5887 L 479.6596 90.9885 L 480.1368 92.6779 L 481.0265 96.9742 L 481.5805 98.5551 L 483.2351 102.2718 L 483.6651 104.098 L 483.9666 107.9356 L 484.0619 116.7476 L 484.4235 119.5949 L 484.9553 121.2979 L 486.7153 124.9468 L 487.6855 127.2725 L 488.0767 128.0395 L 489.0228 129.3799 L 490.1955 130.5255 L 490.8642 131.0089 L 492.4087 131.7377 L 494.9743 132.2001 L 498.4804 132.1348 L 500.2127 131.8684 L 501.8811 131.3862 L 505.4455 129.5785 L 506.9854 128.9865 L 508.6677 128.6006 L 513.8968 127.7867 L 516.6446 127.032 L 516.8064 139.6865 L 516.6649 142.8273 L 516.2025 145.867 L 515.5431 147.7599 L 513.7757 151.2398 L 512.4383 154.4127 L 510.2446 158.7879 L 509.7303 160.4612 L 508.7491 164.7304 L 506.5507 170.0341 L 506.0781 172.0072 L 505.8339 174.0603 L 505.6915 177.2147 L 505.6564 197.5504 L 505.2226 203.8493 Z"
                        fill="#000" fill-opacity="1" stroke="#000" stroke-width="0" paint-order="fill"
                        stroke-opacity="1" stroke-dasharray="" stroke-linecap="butt" stroke-linejoin="miter"
                        stroke-miterlimit="10" data-code="112"
                        transform="matrix(1.100000023841858,0,0,1.100000023841858,-42.500003814697266,-28.3499698638916)"
                        clip-path="none" />
                    <path
                        d="M 363.2156 482.1953 L 358.4294 481.8931 L 353.278 481.755 L 350.2389 481.8179 L 347.3006 482.2002 L 345.462 482.8464 L 343.8685 483.9389 L 342.5682 485.3274 L 341.3224 487.3288 L 339.185 489.4202 L 336.8082 492.2417 L 335.5947 493.1209 L 331.5966 495.4848 L 329.3557 496.4713 L 323.5864 497.9178 L 319.2303 499.8982 L 316.3633 500.521 L 313.3677 500.7319 L 294.9445 500.6307 L 291.9119 500.7257 L 288.9542 501.0475 L 287.0722 501.5248 L 283.4634 503.1759 L 281.8375 503.7296 L 280.0007 504.0798 L 275.2904 504.6212 L 272.5417 505.308 L 270.3748 506.461 L 264.7896 510.2998 L 264.8044 502.5742 L 264.9071 500.7417 L 265.1494 498.9438 L 265.6451 497.2063 L 266.0391 496.3653 L 267.6049 494.0803 L 271.4365 489.9369 L 276.8765 484.701 L 279.0426 483.0338 L 282.8437 481.1015 L 284.2902 480.1483 L 286.3425 478.4231 L 291.0084 474.0479 L 293.0856 472.3807 L 294.521 471.5039 L 296.699 470.5667 L 298.0104 469.8047 L 299.0629 468.7972 L 299.4717 468.1905 L 299.7677 467.4999 L 299.9027 466.7206 L 299.8148 465.8648 L 299.5374 465.0941 L 299.1332 464.3924 L 297.4731 462.5094 L 296.1367 461.3724 L 294.6819 460.3625 L 291.6363 458.9321 L 290.2231 458.1243 L 288.9922 457.0836 L 287.9415 455.8455 L 287.111 454.4003 L 285.7607 451.3408 L 283.8093 447.7524 L 282.8169 445.3589 L 282.0021 443.7915 L 280.9635 442.3044 L 278.1353 438.7098 L 277.1651 437.1659 L 276.7785 436.3347 L 276.2874 434.6182 L 276.0285 432.8437 L 275.6261 428.3563 L 275.32 426.6077 L 274.7956 424.9985 L 273.4407 422.0439 L 272.9274 420.4186 L 272.5695 417.7476 L 272.3105 410.6089 L 271.9933 408.9911 L 271.7085 408.2413 L 271.2997 407.5544 L 270.7716 406.9798 L 269.5489 406.1129 L 266.2916 404.1386 L 264.8303 403.4567 L 263.1554 403.0128 L 257.929 402.3666 L 255.505 401.829 L 250.2324 399.8411 L 247.1036 398.9964 L 245.683 398.4859 L 244.4992 397.6733 L 244.0645 397.1233 L 243.2423 395.2625 L 245.818 393.1304 L 247.1914 392.2438 L 250.2666 390.8355 L 253.7348 388.7947 L 256.7535 387.3913 L 258.2768 386.5503 L 259.726 385.4763 L 263.21 382.5069 L 264.6638 381.4377 L 266.1926 380.6041 L 269.2298 379.2255 L 272.7017 377.234 L 275.7149 375.8356 L 276.3845 375.3916 L 277.6035 374.3274 L 278.643 373.0746 L 279.0777 372.3853 L 280.8118 368.5576 L 282.7531 364.9556 L 284.0368 361.7371 L 286.4053 357.4272 L 287.7455 354.2445 L 289.6655 350.645 L 290.2463 349.0148 L 290.6569 346.3314 L 290.7198 344.5039 L 290.6486 342.6752 L 290.237 339.9968 L 289.6738 338.374 L 287.9073 334.7177 L 287.4181 333.0468 L 286.5154 328.7345 L 285.9438 327.1438 L 284.2125 323.4579 L 283.7445 321.7697 L 283.4162 320.0347 L 286.9695 319.8103 L 289.5378 319.3577 L 291.0814 318.788 L 293.8791 317.344 L 295.4329 316.7965 L 297.1244 316.5252 L 299.7038 316.5942 L 301.3788 316.9938 L 302.8419 317.6646 L 305.5961 319.2442 L 308.6565 320.6994 L 311.8962 322.9486 L 309.4047 327.7764 L 308.0692 330.9949 L 306.1556 334.5673 L 305.5878 336.1925 L 305.2678 338.8561 L 305.3871 340.6516 L 305.5628 341.5407 L 305.8347 342.415 L 306.693 344.0711 L 307.8037 345.5533 L 309.0606 346.9172 L 310.422 348.1688 L 311.8824 349.2712 L 313.4315 350.1159 L 318.3582 352.2554 L 319.7834 352.5169 L 320.5131 352.4491 L 321.8847 352.0138 L 326.7762 349.6732 L 328.0331 348.6559 L 329.0847 347.4129 L 329.8782 345.9837 L 330.1621 345.1698 L 330.9335 340.9895 L 331.4255 339.3469 L 332.2384 337.9202 L 333.3362 336.6944 L 333.9836 336.1753 L 335.5115 335.375 L 336.3522 335.1172 L 338.0817 334.8176 L 339.8389 334.7103 L 341.5961 334.7522 L 344.1756 335.1949 L 345.0033 335.5156 L 346.3998 336.4194 L 347.5189 337.6193 L 347.9564 338.3246 L 348.2893 339.1065 L 348.4909 339.9869 L 348.54 340.8736 L 348.2218 342.611 L 347.8398 343.4607 L 346.7984 344.9663 L 345.5462 346.3438 L 341.4408 350.3638 L 339.5855 352.5341 L 338.6329 354.189 L 338.3268 355.0485 L 338.1168 355.929 L 337.9337 357.7244 L 338.041 359.5273 L 338.2139 360.4201 L 338.8761 362.1539 L 339.3487 362.953 L 340.4641 364.4204 L 342.4119 366.3762 L 343.8648 367.4958 L 345.4778 368.3689 L 347.2803 368.8745 L 349.1346 369.0977 L 351.9675 369.1852 L 365.4324 369.0471 L 382.1992 369.1162 L 384.2301 371.5973 L 385.9633 373.4359 L 387.8241 375.076 L 389.168 375.9712 L 392.2366 377.3745 L 395.0195 378.9369 L 396.4789 379.6275 L 398.1326 380.0986 L 402.3823 380.8236 L 406.1539 381.9088 L 408.2376 382.3749 L 407.4561 386.046 L 407.2137 387.8982 L 407.1324 390.6653 L 407.4255 393.3733 L 407.9351 395.0911 L 408.7953 396.6929 L 412.1099 400.967 L 413.5102 403.3038 L 413.8376 404.2052 L 414.2547 406.0858 L 414.5395 409.9899 L 414.4729 412.9457 L 414.2833 414.8929 L 413.9014 416.7919 L 413.6008 417.7094 L 412.8711 419.2249 L 408.9959 425.4954 L 407.8528 427.7064 L 405.327 431.4786 L 404.2977 433.554 L 403.8445 435.347 L 403.174 440.8369 L 402.6524 442.4992 L 401.6988 443.8285 L 400.4984 444.7435 L 397.5287 446.5784 L 395.7871 447.3935 L 394.8854 447.6636 L 393.0255 447.9966 L 388.2829 448.4602 L 386.4295 448.7932 L 384.6399 449.3937 L 381.1393 450.9277 L 379.3515 451.3458 L 376.5585 451.5998 L 370.9353 451.7589 L 369.1189 451.9932 L 367.37 452.5468 L 366.5118 453.0339 L 365.0431 454.3374 L 363.9564 456.0095 L 363.6151 456.9183 L 363.1379 459.778 L 363.0528 462.7523 L 363.2156 482.1953 Z"
                        fill="#000" fill-opacity="1" stroke="#000" stroke-width="0" paint-order="fill"
                        stroke-opacity="1" stroke-dasharray="" stroke-linecap="butt" stroke-linejoin="miter"
                        stroke-miterlimit="10" data-code="113"
                        transform="matrix(1.100000023841858,0,0,1.100000023841858,-42.500003814697266,-28.3499698638916)"
                        clip-path="none" />
                    <path
                        d="M 382.1992 369.1162 L 365.4324 369.0471 L 351.9675 369.1852 L 349.1346 369.0977 L 347.2803 368.8745 L 345.4778 368.3689 L 343.8648 367.4958 L 342.4119 366.3762 L 340.4641 364.4204 L 339.3487 362.953 L 338.8761 362.1539 L 338.2139 360.4201 L 338.041 359.5273 L 337.9337 357.7244 L 338.1168 355.929 L 338.3268 355.0485 L 338.6329 354.189 L 339.5855 352.5341 L 341.4408 350.3638 L 345.5462 346.3438 L 346.7984 344.9663 L 347.8398 343.4607 L 348.2218 342.611 L 348.54 340.8736 L 348.4909 339.9869 L 348.2893 339.1065 L 347.9564 338.3246 L 347.5189 337.6193 L 346.3998 336.4194 L 345.0033 335.5156 L 344.1756 335.1949 L 341.5961 334.7522 L 339.8389 334.7103 L 338.0817 334.8176 L 336.3522 335.1172 L 335.5115 335.375 L 333.9836 336.1753 L 333.3362 336.6944 L 332.2384 337.9202 L 331.4255 339.3469 L 330.9335 340.9895 L 330.1621 345.1698 L 329.8782 345.9837 L 329.0847 347.4129 L 328.0331 348.6559 L 326.7762 349.6732 L 321.8847 352.0138 L 320.5131 352.4491 L 319.7834 352.5169 L 318.3582 352.2554 L 313.4315 350.1159 L 311.8824 349.2712 L 310.422 348.1688 L 309.0606 346.9172 L 307.8037 345.5533 L 306.693 344.0711 L 305.8347 342.415 L 305.5628 341.5407 L 305.3871 340.6516 L 305.2678 338.8561 L 305.5878 336.1925 L 306.1556 334.5673 L 308.0692 330.9949 L 309.4047 327.7764 L 311.8962 322.9486 L 314.4359 323.4271 L 317.081 323.7058 L 319.7547 323.6922 L 322.3499 323.3099 L 323.9258 322.7599 L 327.4902 321.0224 L 334.0826 319.2911 L 338.3675 317.0826 L 342.1825 315.3968 L 347.4505 312.1155 L 348.5196 311.0081 L 351.5494 305.4861 L 352.0877 303.8768 L 352.5437 301.18 L 355.8796 298.6076 L 357.3085 297.8381 L 359.6308 296.827 L 363.1508 294.9255 L 364.6953 294.3496 L 369.6738 293.2336 L 371.2489 292.5221 L 372.6889 291.5158 L 374.0327 290.3394 L 379.1536 285.2342 L 380.5307 284.1182 L 382.0577 283.2378 L 382.89 282.9393 L 384.6112 282.6101 L 387.2452 282.5928 L 389.844 283.0688 L 392.54 284.1614 L 393.1263 287.9656 L 393.648 289.6563 L 394.4933 291.2334 L 397.4815 295.4015 L 398.1243 296.8504 L 398.2593 297.6248 L 398.0947 299.0207 L 397.1152 301.7509 L 396.7259 303.3984 L 396.4235 306.0768 L 396.3365 308.8563 L 396.4207 311.6333 L 396.7268 314.308 L 397.1208 315.9468 L 398.1169 318.6647 L 398.288 320.0766 L 398.1576 320.8461 L 397.8893 321.5811 L 397.0709 322.9622 L 395.4366 324.9167 L 391.7594 328.8258 L 390.1141 330.9431 L 389.2632 332.4857 L 388.2338 334.8645 L 386.7328 337.7574 L 386.0854 339.2791 L 385.5203 341.8921 L 385.1023 346.3882 L 384.6695 349.0234 L 384.1275 350.6228 L 382.4359 354.3136 L 381.8588 356.9266 L 381.6461 359.6679 L 381.6498 363.3969 L 381.8311 366.206 L 382.1992 369.1162 Z"
                        fill="#000" fill-opacity="1" stroke="#000" stroke-width="0" paint-order="fill"
                        stroke-opacity="1" stroke-dasharray="" stroke-linecap="butt" stroke-linejoin="miter"
                        stroke-miterlimit="10" data-code="114"
                        transform="matrix(1.100000023841858,0,0,1.100000023841858,-42.500003814697266,-28.3499698638916)"
                        clip-path="none" />


                    <path fill="rgba(255,255,255,0)" fill-opacity="0" stroke="#ccc" stroke-width="0" paint-order="fill"
                        stroke-opacity="1" stroke-dasharray="" stroke-linecap="butt" stroke-linejoin="miter"
                        stroke-miterlimit="10" transform="matrix(1,0,0,1,15,10)" clip-path="none" />
                    <defs />

                </svg>