<?xml version="1.0" standalone="no"?>
<!-- Generator: Paintmaps.com , Online SVG vector map maker -->
<svg xmlns="http://www.w3.org/2000/svg" version="1.1" baseProfile="full"   style="background-color:#e0f2f1" width="800" height="500" viewBox="0 0 800 533">

<path data-code="200" d="M 149.4409 391.0173 L 144.7381 392.5687 L 138.6876 394.2671 L 131.2263 397.671 L 128.59 398.3536 L 125.8517 398.6922 L 121.6622 398.7979 L 117.4726 398.5417 L 113.3557 397.8771 L 108.9754 396.2486 L 100.376 392.6117 L 98.468 391.2305 L 96.8556 389.4909 L 95.6356 387.4019 L 95.215 386.1712 L 94.9517 384.9117 L 94.7864 382.3516 L 95.2809 378.5499 L 96.0965 376.2353 L 98.6695 370.9932 L 99.3897 368.4116 L 99.8022 365.6939 L 100.1059 361.4927 L 100.2658 354.3767 L 100.2336 348.694 L 99.9971 344.5017 L 99.598 341.7786 L 98.8308 339.1665 L 98.2611 337.9608 L 96.8543 335.7304 L 92.8502 330.508 L 91.4407 328.3062 L 90.4195 325.9504 L 89.4978 322.2705 L 89.2425 316.9371 L 88.6607 313.0549 L 87.8921 310.6936 L 85.4292 305.3136 L 84.7036 302.8789 L 83.2726 296.6838 L 82.4422 294.4461 L 80.5611 290.3023 L 80.0008 287.9769 L 79.9995 285.492 L 80.2239 284.2612 L 81.0193 282.0792 L 83.1208 277.9873 L 85.2021 273.4314 L 86.6156 271.1884 L 91.4716 264.8248 L 92.8367 262.6248 L 93.7934 260.3532 L 95.0121 255.9334 L 95.9271 253.9466 L 96.6326 253.0831 L 97.5839 252.3593 L 99.8009 251.5101 L 102.2558 251.1518 L 111.5874 250.7702 L 115.5405 249.973 L 117.7011 249.0378 L 121.8126 246.8432 L 126.3314 244.8778 L 131.4171 241.9523 L 136.9462 239.4889 L 138.9657 238.3549 L 144.5768 234.7557 L 146.2027 233.2794 L 147.287 231.2998 L 149.1238 224.3988 L 150.4943 221.1812 L 153.672 222.5768 L 158.4232 223.9222 L 159.2751 227.6343 L 160.2237 229.9167 L 161.4948 231.9644 L 163.6944 234.8631 L 166.7176 238.7167 L 167.9699 240.7788 L 169.9343 245.4117 L 173.2988 251.7197 L 174.6236 255.2419 L 175.6247 257.4652 L 180.2213 265.3731 L 180.9119 266.224 L 181.7302 266.9406 L 185.5341 269.3539 L 188.4566 271.7223 L 192.2658 275.3573 L 195.8937 279.2467 L 197.5625 281.2819 L 199.0365 283.4103 L 200.1893 285.6694 L 201.6687 289.1235 L 202.9049 291.1855 L 205.1421 294.104 L 213.5426 304.1133 L 208.348 308.825 L 204.5764 312.8184 L 202.2666 316.1614 L 201.2562 318.7125 L 200.7456 321.4303 L 200.5347 324.2126 L 200.4084 338.3819 L 200.1074 341.1462 L 199.4651 343.8084 L 194.1966 354.735 L 192.7724 356.9314 L 187.043 364.2141 L 185.78 366.5628 L 185.0302 369.0745 L 184.5532 373.0123 L 184.5613 378.3869 L 184.9469 382.4215 L 186.0944 387.5901 L 177.6939 387.8642 L 163.1031 387.9036 L 158.8034 388.1365 L 156.006 388.5127 L 153.3173 389.2186 L 149.4409 391.0173 Z" fill="#000000" fill-opacity="1" stroke="#000000" stroke-width="0" paint-order="fill" stroke-opacity="1" stroke-dasharray="" stroke-linecap="butt" stroke-linejoin="miter" stroke-miterlimit="10" transform="matrix(0.8999999761581421,0,0,0.8999999761581421,39.99995040893555,26.650089263916016)" clip-path="none" style="filter: url(#f1)"/>
<path data-code="201" d="M 348.8257 235.0459 L 348.475 240.3506 L 347.8475 244.2042 L 347.001 246.7715 L 344.7921 251.9974 L 344.1511 254.7922 L 343.748 259.1815 L 343.5814 270.9286 L 343.259 273.6553 L 342.4796 276.1707 L 341.8078 277.2886 L 340.1686 278.8329 L 336.0664 281.3249 L 333.6384 282.5647 L 332.3431 283.0538 L 329.7431 283.6199 L 322.1125 284.4314 L 319.8606 285.2896 L 318.8689 286.0564 L 318.0883 287.0614 L 317.18 289.4137 L 316.8051 292.0132 L 316.7016 296.1929 L 316.8709 307.9812 L 316.4195 313.7876 L 315.7678 316.543 L 312.934 323.0534 L 311.6455 327.9569 L 297.5882 327.9103 L 293.5008 328.3295 L 290.8847 329.0014 L 281.3353 333.7561 L 278.0958 335.8504 L 276.1179 337.6133 L 273.4118 340.5138 L 271.0792 343.5254 L 268.627 347.2715 L 267.8477 348.058 L 266.8453 348.7298 L 265.7341 349.2225 L 263.3008 349.819 L 259.3545 350.1272 L 253.8871 349.914 L 249.8441 349.201 L 247.4484 348.3016 L 242.3169 345.4889 L 236.8093 342.9503 L 229.2096 338.0988 L 227.6751 336.4972 L 223.0637 328.661 L 220.6881 322.885 L 217.3733 316.5484 L 214.6202 308.4434 L 213.5426 304.1133 L 205.1421 294.104 L 202.9049 291.1855 L 201.6687 289.1235 L 200.1893 285.6694 L 199.0365 283.4103 L 197.5625 281.2819 L 195.8937 279.2467 L 192.2658 275.3573 L 188.4566 271.7223 L 185.5341 269.3539 L 181.7302 266.9406 L 180.9119 266.224 L 180.2213 265.3731 L 175.6247 257.4652 L 174.6236 255.2419 L 173.2988 251.7197 L 169.9343 245.4117 L 167.9699 240.7788 L 166.7176 238.7167 L 163.6944 234.8631 L 161.4948 231.9644 L 160.2237 229.9167 L 159.2751 227.6343 L 158.4232 223.9222 L 162.0108 224.8126 L 164.217 225.7997 L 166.1949 227.1183 L 168.9937 229.4007 L 174.1372 229.725 L 177.8672 230.37 L 180.1259 231.1815 L 185.3205 233.7148 L 189.2412 234.6625 L 191.9702 234.9509 L 196.1288 235.0889 L 200.278 234.9169 L 202.9909 234.5496 L 204.3157 234.2469 L 206.6967 233.3654 L 211.8093 230.5688 L 216.289 228.582 L 222.2669 225.0885 L 226.7225 223.0157 L 228.7474 221.6846 L 232.4854 218.5279 L 233.0457 214.5274 L 233.8398 212.4456 L 235.166 210.4695 L 236.8953 208.8733 L 237.9326 208.2785 L 238.8852 207.9309 L 240.8362 207.6837 L 242.7792 208.0384 L 243.8285 208.5544 L 244.7328 209.2352 L 245.4947 210.0503 L 246.1007 210.9963 L 246.5132 212.0766 L 246.6623 213.2787 L 246.4782 214.4432 L 246.055 215.4572 L 245.4826 216.3745 L 244.0489 218.0854 L 237.766 224.001 L 237.3239 235.5905 L 237.375 238.2832 L 237.6733 240.8146 L 238.5077 243.1311 L 239.2883 244.1469 L 240.241 244.8743 L 241.285 245.349 L 243.498 245.736 L 245.7849 245.5873 L 248.0611 244.9782 L 254.0712 241.8788 L 256.7249 241.0726 L 260.9789 240.4707 L 266.8171 240.2503 L 274.0863 240.5692 L 278.2758 241.3413 L 280.6675 242.2568 L 285.8312 244.8886 L 288.4486 245.6267 L 292.4769 246.0388 L 296.3291 245.6787 L 298.5945 244.7972 L 299.5405 244.0609 L 300.211 243.2243 L 300.6987 242.3177 L 302.428 237.5827 L 303.6897 235.9399 L 305.4015 234.6571 L 310.1043 231.6688 L 312.2179 230.653 L 314.8702 229.9185 L 323.1391 228.9045 L 325.7941 228.3796 L 328.0904 227.568 L 332.0905 225.7191 L 334.3331 225.1799 L 336.7409 225.2462 L 337.9367 225.5364 L 340.2169 226.6507 L 343.2455 229.0962 L 348.8257 235.0459 Z" fill="#000000" fill-opacity="1" stroke="#000000" stroke-width="0" paint-order="fill" stroke-opacity="1" stroke-dasharray="" stroke-linecap="butt" stroke-linejoin="miter" stroke-miterlimit="10" transform="matrix(0.8999999761581421,0,0,0.8999999761581421,39.99995040893555,26.650089263916016)" clip-path="none" style="filter: url(#f1)"/>
<path data-code="202" d="M 398.4281 431.696 L 400.4959 427.5181 L 402.5558 421.5093 L 405.1463 416.1848 L 405.9377 413.8182 L 406.529 409.9288 L 406.9253 401.8973 L 407.2827 397.9416 L 408.1333 394.2187 L 410.0117 390.0875 L 410.787 387.9573 L 411.0692 385.5083 L 410.705 383.0342 L 410.2482 381.8249 L 408.9663 379.5998 L 403.448 372.3279 L 401.1812 367.9207 L 399.9437 365.8479 L 397.5816 363.2287 L 395.73 361.8188 L 390.4024 358.9021 L 383.2461 353.1531 L 381.056 351.7073 L 379.8816 351.1251 L 377.463 350.3637 L 370.2583 349.3586 L 369.7921 343.099 L 369.8553 339.0877 L 370.468 335.1857 L 371.4502 332.7063 L 372.8906 330.4418 L 374.5755 328.3331 L 380.1893 322.3225 L 386.0288 316.543 L 388.0725 314.8088 L 390.2667 313.3254 L 391.4518 312.7378 L 393.99 311.9764 L 397.947 311.5177 L 406.099 311.4335 L 419.8083 311.6969 L 423.803 312.0713 L 426.3492 312.5909 L 428.6038 313.4221 L 431.5787 314.9199 L 433.6358 315.7153 L 435.9765 316.0288 L 438.3252 315.7529 L 440.4025 314.9915 L 443.4096 313.5511 L 445.6172 312.7808 L 448.0479 312.315 L 456.8488 311.2956 L 459.2822 310.561 L 460.435 310.0003 L 462.5755 308.5796 L 464.5654 306.9063 L 469.1876 302.1605 L 472.5346 297.9719 L 475.6559 292.9538 L 480.6301 295.9242 L 482.5475 297.3771 L 484.3494 299.011 L 487.6494 302.6496 L 489.071 304.5791 L 490.9561 307.5136 L 486.7868 311.0788 L 484.0591 314.0366 L 482.6362 316.2546 L 482.1337 317.4853 L 481.7333 319.9971 L 481.8005 321.2547 L 482.4105 323.5927 L 485.0682 328.6377 L 487.0636 333.1721 L 489.896 338.3765 L 490.3649 339.4944 L 491.0475 342.0079 L 491.5231 345.9654 L 491.6951 352.7392 L 491.5097 359.5095 L 491.0394 363.4652 L 490.3757 365.9859 L 489.9188 367.1074 L 487.1831 372.3548 L 485.2537 376.9752 L 482.3352 382.1563 L 479.8495 387.8534 L 476.2619 394.1489 L 474.3056 398.3877 L 472.1987 401.7378 L 469.7156 404.9393 L 460.478 414.9218 L 455.7389 419.7607 L 452.8071 422.4749 L 450.7432 424.0783 L 448.5128 425.3593 L 446.1439 426.1637 L 440.1337 427.5002 L 437.9234 428.3279 L 432.7195 430.8486 L 429.0311 431.6798 L 425.1735 431.9808 L 419.9265 432.0632 L 398.4281 431.696 Z" fill="#000000" fill-opacity="1" stroke="#000000" stroke-width="0" paint-order="fill" stroke-opacity="1" stroke-dasharray="" stroke-linecap="butt" stroke-linejoin="miter" stroke-miterlimit="10" transform="matrix(0.8999999761581421,0,0,0.8999999761581421,39.99995040893555,26.650089263916016)" clip-path="none" style="filter: url(#f1)"/>
<path data-code="203" d="M 348.8257 235.0459 L 352.5785 231.9788 L 354.5672 230.6763 L 358.9958 228.5318 L 365.0423 224.9864 L 369.522 223.0067 L 373.5987 220.8049 L 375.7472 219.85 L 378.3243 219.1943 L 382.3593 218.811 L 393.3383 218.9077 L 397.3451 218.7088 L 399.9262 218.1893 L 401.1705 217.7127 L 403.1846 216.4246 L 404.8467 214.7083 L 405.5293 213.7122 L 406.0936 212.6266 L 406.8581 210.0163 L 407.2075 205.9155 L 406.9603 196.0047 L 407.0167 191.7963 L 407.6845 187.7367 L 408.7648 185.3737 L 409.4716 184.3865 L 411.1699 182.7025 L 413.1908 181.4627 L 415.7531 180.7031 L 423.0519 179.9417 L 424.8591 179.3075 L 425.4852 178.7521 L 425.805 178.1323 L 425.8359 176.7564 L 430.9754 175.6689 L 441.3578 173.8971 L 444.6498 180.1728 L 450.1507 189.0678 L 451.661 190.6354 L 455.4608 193.1346 L 458.4706 195.589 L 462.4707 199.2975 L 468.3182 205.0931 L 470.9572 208.0241 L 472.4123 210.0503 L 473.3932 212.2324 L 473.5907 213.4095 L 473.322 215.5038 L 471.4731 220.5774 L 469.7895 227.9603 L 468.9202 230.2696 L 466.8442 234.555 L 466.077 236.927 L 465.5624 240.8218 L 465.3931 248.6455 L 465.1969 251.0945 L 464.6541 253.3733 L 464.1542 254.4124 L 463.43 255.3333 L 462.5042 256.0338 L 460.392 256.7844 L 456.916 257.0263 L 449.8578 256.8077 L 447.7536 257.0997 L 446.7701 257.5046 L 445.8631 258.2284 L 445.2101 259.2585 L 444.8943 260.3997 L 444.8809 261.5642 L 445.1389 262.7072 L 446.2218 264.5651 L 447.7603 266.0592 L 449.5864 267.2649 L 453.7906 269.1765 L 454.746 269.7749 L 456.5169 271.2493 L 458.0473 273.0158 L 458.6936 273.9904 L 461.4629 279.528 L 462.9248 281.6456 L 464.5762 283.6772 L 467.2688 286.5867 L 470.1564 289.2901 L 473.275 291.6209 L 475.6559 292.9538 L 472.5346 297.9719 L 469.1876 302.1605 L 464.5654 306.9063 L 462.5755 308.5796 L 460.435 310.0003 L 459.2822 310.561 L 456.8488 311.2956 L 448.0479 312.315 L 445.6172 312.7808 L 443.4096 313.5511 L 440.4025 314.9915 L 438.3252 315.7529 L 435.9765 316.0288 L 433.6358 315.7153 L 431.5787 314.9199 L 428.6038 313.4221 L 426.3492 312.5909 L 423.803 312.0713 L 419.8083 311.6969 L 406.099 311.4335 L 397.947 311.5177 L 393.99 311.9764 L 391.4518 312.7378 L 390.2667 313.3254 L 388.0725 314.8088 L 386.0288 316.543 L 380.1893 322.3225 L 374.5755 328.3331 L 372.8906 330.4418 L 371.4502 332.7063 L 370.468 335.1857 L 369.8553 339.0877 L 369.7921 343.099 L 370.2583 349.3586 L 361.5058 349.8423 L 342.8357 350.0949 L 338.6099 349.9247 L 334.5091 349.2099 L 333.1977 348.728 L 330.9081 347.4023 L 328.8644 345.7164 L 327.0048 343.8102 L 324.5499 340.6876 L 323.2184 338.4678 L 321.1276 334.0839 L 318.9805 331.3698 L 317.1853 329.9222 L 316.1924 329.3471 L 313.9525 328.5069 L 311.6455 327.9569 L 312.934 323.0534 L 315.7678 316.543 L 316.4195 313.7876 L 316.8709 307.9812 L 316.7016 296.1929 L 316.8051 292.0132 L 317.18 289.4137 L 318.0883 287.0614 L 318.8689 286.0564 L 319.8606 285.2896 L 322.1125 284.4314 L 329.7431 283.6199 L 332.3431 283.0538 L 333.6384 282.5647 L 336.0664 281.3249 L 340.1686 278.8329 L 341.8078 277.2886 L 342.4796 276.1707 L 343.259 273.6553 L 343.5814 270.9286 L 343.748 259.1815 L 344.1511 254.7922 L 344.7921 251.9974 L 347.001 246.7715 L 347.8475 244.2042 L 348.475 240.3506 L 348.8257 235.0459 Z" fill="#000000" fill-opacity="1" stroke="#000000" stroke-width="0" paint-order="fill" stroke-opacity="1" stroke-dasharray="" stroke-linecap="butt" stroke-linejoin="miter" stroke-miterlimit="10" transform="matrix(0.8999999761581421,0,0,0.8999999761581421,39.99995040893555,26.650089263916016)" clip-path="none" style="filter: url(#f1)"/>
<path data-code="204" d="M 490.9561 307.5136 L 489.071 304.5791 L 487.6494 302.6496 L 484.3494 299.011 L 482.5475 297.3771 L 480.6301 295.9242 L 475.6559 292.9538 L 473.275 291.6209 L 470.1564 289.2901 L 467.2688 286.5867 L 464.5762 283.6772 L 462.9248 281.6456 L 461.4629 279.528 L 458.6936 273.9904 L 458.0473 273.0158 L 456.5169 271.2493 L 454.746 269.7749 L 453.7906 269.1765 L 449.5864 267.2649 L 447.7603 266.0592 L 446.2218 264.5651 L 445.1389 262.7072 L 444.8809 261.5642 L 444.8943 260.3997 L 445.2101 259.2585 L 445.8631 258.2284 L 446.7701 257.5046 L 447.7536 257.0997 L 449.8578 256.8077 L 456.916 257.0263 L 460.392 256.7844 L 462.5042 256.0338 L 463.43 255.3333 L 464.1542 254.4124 L 464.6541 253.3733 L 465.1969 251.0945 L 465.3931 248.6455 L 465.5624 240.8218 L 466.077 236.927 L 466.8442 234.555 L 468.9202 230.2696 L 469.7895 227.9603 L 471.4731 220.5774 L 473.322 215.5038 L 473.5907 213.4095 L 473.3932 212.2324 L 472.4123 210.0503 L 470.9572 208.0241 L 468.3182 205.0931 L 462.4707 199.2975 L 458.4706 195.589 L 455.4608 193.1346 L 451.661 190.6354 L 450.1507 189.0678 L 444.6498 180.1728 L 441.3578 173.8971 L 444.9454 170.6956 L 453.964 165.4804 L 455.051 165.0146 L 457.4978 164.393 L 460.0171 164.1977 L 462.5405 164.3697 L 465.0021 164.9645 L 466.0999 165.4177 L 471.1292 168.2376 L 474.3674 169.8159 L 476.3788 171.122 L 478.096 172.7326 L 479.5445 174.5904 L 480.6825 176.7026 L 482.745 181.2478 L 484.2164 183.4478 L 485.912 185.5224 L 487.7797 187.4393 L 489.8328 189.1216 L 492.1399 190.4043 L 493.3559 190.8002 L 495.8416 191.18 L 499.5313 190.9955 L 501.8411 190.4384 L 504.7299 189.2309 L 506.6097 188.6289 L 508.5862 188.6379 L 510.513 189.281 L 516.6374 192.0669 L 522.3775 195.1895 L 524.4427 195.6679 L 525.5055 195.6231 L 526.5186 195.374 L 527.4363 194.9082 L 528.1821 194.2507 L 531.0723 190.1463 L 532.6484 188.5984 L 534.5564 187.3157 L 535.6971 186.8212 L 538.1278 186.1888 L 540.666 185.8717 L 544.5679 185.7284 L 549.7934 185.9703 L 553.6201 186.6188 L 555.907 187.4053 L 563.414 191.0224 L 556.6514 201.7824 L 554.1468 207.4866 L 551.4609 212.7681 L 550.6278 215.0899 L 549.3392 221.3496 L 548.6352 223.795 L 545.4306 230.1496 L 543.4823 234.7682 L 540.7089 240.0013 L 539.8705 242.3679 L 539.4002 244.9441 L 539.2135 247.5849 L 539.2457 250.2399 L 539.4889 252.8681 L 540.3784 256.6357 L 543.3277 263.0046 L 543.9149 265.4805 L 544.1138 268.0478 L 543.9619 270.6223 L 543.4124 273.1233 L 540.4819 279.5298 L 539.1651 284.4422 L 536.076 288.3137 L 534.7472 290.3937 L 533.6064 292.7478 L 532.1002 296.4061 L 525.6721 295.4996 L 515.9978 295.1198 L 509.1465 295.2004 L 506.4646 295.4602 L 503.8471 296.0245 L 501.3883 297.0923 L 498.1621 299.4929 L 495.2598 302.3916 L 490.9561 307.5136 Z" fill="#000000" fill-opacity="1" stroke="#000000" stroke-width="0" paint-order="fill" stroke-opacity="1" stroke-dasharray="" stroke-linecap="butt" stroke-linejoin="miter" stroke-miterlimit="10" transform="matrix(0.8999999761581421,0,0,0.8999999761581421,39.99995040893555,26.650089263916016)" clip-path="none" style="filter: url(#f1)"/>
<path data-code="205" d="M 150.4943 221.1812 L 148.4278 220.1743 L 146.0549 219.3466 L 141.9634 218.6855 L 137.7229 218.4813 L 123.4304 218.4491 L 120.6396 218.1982 L 117.9201 217.6339 L 115.4115 216.5859 L 113.1904 215.1293 L 103.4825 207.1427 L 106.1 202.3145 L 109.2374 197.119 L 111.7299 191.4237 L 112.9848 189.3455 L 114.483 187.4071 L 116.1438 185.5958 L 117.9375 183.9279 L 120.8922 181.8425 L 123.1429 180.9038 L 126.7586 180.1513 L 130.6499 179.3219 L 132.6613 178.5282 L 137.7538 175.6958 L 142.2725 173.7788 L 148.3324 170.2316 L 152.8537 168.3272 L 158.9244 164.8355 L 162.5146 163.2804 L 164.471 162.1965 L 166.4945 160.6845 L 168.4186 158.97 L 178.5525 148.6113 L 181.3862 145.9311 L 184.3786 143.6057 L 186.3134 142.529 L 189.8687 140.9041 L 192.9417 138.7722 L 196.7429 135.2554 L 204.9674 126.7044 L 207.7877 124.0314 L 210.8351 121.7776 L 212.985 120.7994 L 220.5161 119.1064 L 222.6539 118.3074 L 227.8579 115.8333 L 230.5264 115.174 L 234.7602 114.762 L 246.3775 114.5129 L 249.2314 114.28 L 252.0033 113.7963 L 254.4233 112.983 L 258.5846 110.9926 L 260.9494 110.1667 L 263.6246 109.6292 L 270.4759 108.7657 L 273.1484 108.2103 L 275.5025 107.3611 L 280.7239 104.8888 L 282.0313 104.4964 L 284.7455 104.0181 L 287.5215 103.8479 L 290.3082 103.9267 L 294.3862 104.5771 L 296.7524 105.4298 L 301.9161 107.9165 L 305.5533 108.7173 L 308.066 108.8732 L 310.5799 108.7961 L 314.834 108.1315 L 329.9339 109.8908 L 332.6401 110.6235 L 337.6519 112.9525 L 340.307 113.8948 L 344.6013 114.615 L 350.5523 114.9339 L 359.5884 114.8874 L 365.5152 114.3947 L 369.7142 113.3484 L 375.9514 110.3046 L 378.5541 109.5504 L 382.5393 109.0917 L 386.3567 109.4482 L 388.6449 110.4175 L 389.6204 111.2577 L 390.3769 112.3685 L 390.8552 113.5813 L 391.2852 116.1629 L 391.3604 122.9941 L 391.5902 125.6473 L 392.3615 128.1215 L 393.1099 129.2197 L 394.1069 130.0814 L 395.2409 130.6834 L 397.7482 131.3498 L 401.8705 131.6293 L 410.7198 131.2925 L 417.9231 130.4773 L 417.8224 139.3795 L 418.3101 144.6538 L 418.9282 147.1548 L 421.3078 152.5437 L 422.1113 154.9874 L 422.6165 157.7607 L 423.6646 167.7431 L 425.8359 176.7564 L 425.805 178.1323 L 425.4852 178.7521 L 424.8591 179.3075 L 423.0519 179.9417 L 415.7531 180.7031 L 413.1908 181.4627 L 411.1699 182.7025 L 409.4716 184.3865 L 408.7648 185.3737 L 407.6845 187.7367 L 407.0167 191.7963 L 406.9603 196.0047 L 407.2075 205.9155 L 406.8581 210.0163 L 406.0936 212.6266 L 405.5293 213.7122 L 404.8467 214.7083 L 403.1846 216.4246 L 401.1705 217.7127 L 399.9262 218.1893 L 397.3451 218.7088 L 393.3383 218.9077 L 382.3593 218.811 L 378.3243 219.1943 L 375.7472 219.85 L 373.5987 220.8049 L 369.522 223.0067 L 365.0423 224.9864 L 358.9958 228.5318 L 354.5672 230.6763 L 352.5785 231.9788 L 348.8257 235.0459 L 343.2455 229.0962 L 340.2169 226.6507 L 337.9367 225.5364 L 336.7409 225.2462 L 334.3331 225.1799 L 332.0905 225.7191 L 328.0904 227.568 L 325.7941 228.3796 L 323.1391 228.9045 L 314.8702 229.9185 L 312.2179 230.653 L 310.1043 231.6688 L 305.4015 234.6571 L 303.6897 235.9399 L 302.428 237.5827 L 300.6987 242.3177 L 300.211 243.2243 L 299.5405 244.0609 L 298.5945 244.7972 L 296.3291 245.6787 L 292.4769 246.0388 L 288.4486 245.6267 L 285.8312 244.8886 L 280.6675 242.2568 L 278.2758 241.3413 L 274.0863 240.5692 L 266.8171 240.2503 L 260.9789 240.4707 L 256.7249 241.0726 L 254.0712 241.8788 L 248.0611 244.9782 L 245.7849 245.5873 L 243.498 245.736 L 241.285 245.349 L 240.241 244.8743 L 239.2883 244.1469 L 238.5077 243.1311 L 237.6733 240.8146 L 237.375 238.2832 L 237.3239 235.5905 L 237.766 224.001 L 244.0489 218.0854 L 245.4826 216.3745 L 246.055 215.4572 L 246.4782 214.4432 L 246.6623 213.2787 L 246.5132 212.0766 L 246.1007 210.9963 L 245.4947 210.0503 L 244.7328 209.2352 L 243.8285 208.5544 L 242.7792 208.0384 L 240.8362 207.6837 L 238.8852 207.9309 L 237.9326 208.2785 L 236.8953 208.8733 L 235.166 210.4695 L 233.8398 212.4456 L 233.0457 214.5274 L 232.4854 218.5279 L 228.7474 221.6846 L 226.7225 223.0157 L 222.2669 225.0885 L 216.289 228.582 L 211.8093 230.5688 L 206.6967 233.3654 L 204.3157 234.2469 L 202.9909 234.5496 L 200.278 234.9169 L 196.1288 235.0889 L 191.9702 234.9509 L 189.2412 234.6625 L 185.3205 233.7148 L 180.1259 231.1815 L 177.8672 230.37 L 174.1372 229.725 L 168.9937 229.4007 L 166.1949 227.1183 L 164.217 225.7997 L 162.0108 224.8126 L 158.4232 223.9222 L 153.672 222.5768 L 150.4943 221.1812 Z" fill="#000000" fill-opacity="1" stroke="#000000" stroke-width="0" paint-order="fill" stroke-opacity="1" stroke-dasharray="" stroke-linecap="butt" stroke-linejoin="miter" stroke-miterlimit="10" transform="matrix(0.8999999761581421,0,0,0.8999999761581421,39.99995040893555,26.650089263916016)" clip-path="none" style="filter: url(#f1)"/>
<path data-code="206" d="M 398.4281 431.696 L 396.4677 432.7315 L 390.4333 436.4382 L 385.9294 438.4053 L 380.8128 441.1822 L 378.5635 442.0367 L 372.4928 443.3123 L 370.1146 444.0092 L 363.9244 447.2376 L 359.4325 449.2351 L 356.4268 451.1539 L 349.2248 456.4246 L 344.3581 454.4736 L 338.3466 452.6104 L 332.0999 449.4895 L 329.7324 448.7872 L 323.6698 447.4722 L 321.4259 446.6016 L 316.3294 443.7942 L 311.8282 441.8432 L 305.7643 438.3211 L 301.2657 436.3611 L 295.2112 432.821 L 290.7718 430.716 L 287.5873 428.473 L 282.5339 424.2163 L 280.3786 422.7472 L 279.2285 422.1524 L 276.8703 421.3534 L 272.0332 420.3125 L 269.6751 419.5977 L 263.5104 416.3371 L 259.0011 414.4148 L 252.8391 411.1291 L 250.4689 410.4089 L 245.6062 409.4056 L 243.2373 408.6854 L 237.0821 405.398 L 232.5822 403.4595 L 226.396 400.138 L 223.9828 399.3909 L 219.1886 398.3733 L 216.8332 397.6728 L 210.557 394.6935 L 200.9794 392.18 L 195.7714 389.6557 L 193.5074 388.8316 L 191.0592 388.2977 L 186.0944 387.5901 L 184.9469 382.4215 L 184.5613 378.3869 L 184.5532 373.0123 L 185.0302 369.0745 L 185.78 366.5628 L 187.043 364.2141 L 192.7724 356.9314 L 194.1966 354.735 L 199.4651 343.8084 L 200.1074 341.1462 L 200.4084 338.3819 L 200.5347 324.2126 L 200.7456 321.4303 L 201.2562 318.7125 L 202.2666 316.1614 L 204.5764 312.8184 L 208.348 308.825 L 213.5426 304.1133 L 214.6202 308.4434 L 217.3733 316.5484 L 220.6881 322.885 L 223.0637 328.661 L 227.6751 336.4972 L 229.2096 338.0988 L 236.8093 342.9503 L 242.3169 345.4889 L 247.4484 348.3016 L 249.8441 349.201 L 253.8871 349.914 L 259.3545 350.1272 L 263.3008 349.819 L 265.7341 349.2225 L 266.8453 348.7298 L 267.8477 348.058 L 268.627 347.2715 L 271.0792 343.5254 L 273.4118 340.5138 L 276.1179 337.6133 L 278.0958 335.8504 L 281.3353 333.7561 L 290.8847 329.0014 L 293.5008 328.3295 L 297.5882 327.9103 L 311.6455 327.9569 L 313.9525 328.5069 L 316.1924 329.3471 L 317.1853 329.9222 L 318.9805 331.3698 L 321.1276 334.0839 L 323.2184 338.4678 L 324.5499 340.6876 L 327.0048 343.8102 L 328.8644 345.7164 L 330.9081 347.4023 L 333.1977 348.728 L 334.5091 349.2099 L 338.6099 349.9247 L 342.8357 350.0949 L 361.5058 349.8423 L 370.2583 349.3586 L 377.463 350.3637 L 379.8816 351.1251 L 381.056 351.7073 L 383.2461 353.1531 L 390.4024 358.9021 L 395.73 361.8188 L 397.5816 363.2287 L 399.9437 365.8479 L 401.1812 367.9207 L 403.448 372.3279 L 408.9663 379.5998 L 410.2482 381.8249 L 410.705 383.0342 L 411.0692 385.5083 L 410.787 387.9573 L 410.0117 390.0875 L 408.1333 394.2187 L 407.2827 397.9416 L 406.9253 401.8973 L 406.529 409.9288 L 405.9377 413.8182 L 405.1463 416.1848 L 402.5558 421.5093 L 400.4959 427.5181 L 398.4281 431.696 Z" fill="#000000" fill-opacity="1" stroke="#000000" stroke-width="0" paint-order="fill" stroke-opacity="1" stroke-dasharray="" stroke-linecap="butt" stroke-linejoin="miter" stroke-miterlimit="10" transform="matrix(0.8999999761581421,0,0,0.8999999761581421,39.99995040893555,26.650089263916016)" clip-path="none" style="filter: url(#f1)"/>
<path data-code="207" d="M 417.9231 130.4773 L 422.1919 126.4768 L 425.414 122.8346 L 427.3556 119.8607 L 428.8484 116.4263 L 429.9905 114.1976 L 431.4309 112.1033 L 433.054 110.0914 L 436.5757 106.1948 L 442.0901 100.4923 L 444.9091 97.7549 L 447.8463 95.2628 L 449.9424 93.8959 L 454.4262 91.8965 L 458.48 89.632 L 460.5922 88.627 L 462.9772 87.9337 L 467.8587 87.0021 L 470.2262 86.3123 L 475.3953 83.6716 L 477.6499 82.7937 L 488.461 80.3447 L 496.7244 83.2219 L 502.8542 86.5936 L 507.3366 88.5786 L 513.504 91.9127 L 523.8515 95.0228 L 533.7045 91.8912 L 540.0089 88.8868 L 549.565 86.3392 L 555.86 83.4011 L 565.3878 80.8141 L 571.6936 77.9225 L 574.4212 77.2185 L 578.7061 76.7365 L 594.9429 76.5771 L 603.6645 77.0966 L 607.7694 78.0479 L 612.7691 80.3859 L 615.4215 81.3282 L 619.7306 82.0323 L 624.1969 82.2796 L 706.2552 82.3154 L 713.8307 82.0592 L 719.9995 81.3605 L 719.2698 88.996 L 718.7431 91.5669 L 718.3226 92.8138 L 717.0582 95.1948 L 715.4418 97.341 L 712.6416 100.2308 L 710.5925 101.9274 L 708.3889 103.3355 L 703.8864 105.3008 L 697.7673 108.7065 L 693.2352 110.593 L 687.1565 114.0847 L 682.6915 116.145 L 679.4856 118.3862 L 673.3988 123.5315 L 671.2261 124.9576 L 666.7397 127.0089 L 660.5817 130.4433 L 654.9491 132.749 L 648.3572 136.4467 L 647.5187 137.0433 L 646.773 137.8674 L 646.2463 138.9155 L 645.991 140.0567 L 645.9937 141.2373 L 646.2543 142.4161 L 646.7246 143.4517 L 647.3561 144.3671 L 648.9605 145.9114 L 650.9208 147.0652 L 652.063 147.4737 L 658.0261 148.597 L 660.3882 149.31 L 662.479 150.4225 L 666.3299 153.3481 L 666.3205 158.8159 L 662.7208 159.631 L 661.5545 160.0664 L 659.3617 161.3115 L 656.3573 163.7534 L 648.8006 171.1184 L 645.7814 173.5226 L 643.5966 174.7337 L 639.2109 176.7474 L 634.1722 179.707 L 630.8117 181.1922 L 628.6941 182.3531 L 626.7619 183.7649 L 621.1629 188.4121 L 619.169 189.7164 L 616.9506 190.6623 L 609.7916 192.2872 L 607.6001 193.3066 L 605.7015 194.738 L 604.0313 196.4705 L 602.5694 198.4877 L 599.8311 202.9469 L 591.0422 202.1317 L 587.3673 201.2807 L 581.0737 198.3605 L 578.7276 197.6439 L 573.8999 196.5367 L 571.5418 195.7538 L 569.4457 194.6843 L 563.414 191.0224 L 555.907 187.4053 L 553.6201 186.6188 L 549.7934 185.9703 L 544.5679 185.7284 L 540.666 185.8717 L 538.1278 186.1888 L 535.6971 186.8212 L 534.5564 187.3157 L 532.6484 188.5984 L 531.0723 190.1463 L 528.1821 194.2507 L 527.4363 194.9082 L 526.5186 195.374 L 525.5055 195.6231 L 524.4427 195.6679 L 522.3775 195.1895 L 516.6374 192.0669 L 510.513 189.281 L 508.5862 188.6379 L 506.6097 188.6289 L 504.7299 189.2309 L 501.8411 190.4384 L 499.5313 190.9955 L 495.8416 191.18 L 493.3559 190.8002 L 492.1399 190.4043 L 489.8328 189.1216 L 487.7797 187.4393 L 485.912 185.5224 L 484.2164 183.4478 L 482.745 181.2478 L 480.6825 176.7026 L 479.5445 174.5904 L 478.096 172.7326 L 476.3788 171.122 L 474.3674 169.8159 L 471.1292 168.2376 L 466.0999 165.4177 L 465.0021 164.9645 L 462.5405 164.3697 L 460.0171 164.1977 L 457.4978 164.393 L 455.051 165.0146 L 453.964 165.4804 L 444.9454 170.6956 L 441.3578 173.8971 L 430.9754 175.6689 L 425.8359 176.7564 L 423.6646 167.7431 L 422.6165 157.7607 L 422.1113 154.9874 L 421.3078 152.5437 L 418.9282 147.1548 L 418.3101 144.6538 L 417.8224 139.3795 L 417.9231 130.4773 Z" fill="#000000" fill-opacity="1" stroke="#000000" stroke-width="0" paint-order="fill" stroke-opacity="1" stroke-dasharray="" stroke-linecap="butt" stroke-linejoin="miter" stroke-miterlimit="10" transform="matrix(0.8999999761581421,0,0,0.8999999761581421,39.99995040893555,26.650089263916016)" clip-path="none" style="filter: url(#f1)"/>








</svg>