<?xml version="1.0" standalone="no"?>
<!-- Generator: Paintmaps.com , Online SVG vector map maker -->
<svg xmlns="http://www.w3.org/2000/svg" version="1.1" baseProfile="full"   style="background-color:#e0f2f1" width="800" height="500" viewBox="0 0 800 533">

<path data-code="200" d="M 287.4836 314.7385 L 293.1048 313.3852 L 295.011 312.765 L 299.9914 310.1004 L 303.6185 308.4984 L 308.6032 305.8411 L 311.5657 305.0633 L 319.0021 303.9977 L 319.5442 308.3365 L 319.4033 309.8618 L 318.9424 311.1876 L 317.4851 314.1515 L 315.9789 317.7645 L 313.7257 321.9746 L 312.9959 323.951 L 312.4049 327.3226 L 312.2379 329.633 L 312.1978 333.1101 L 312.3204 335.4045 L 312.6402 337.6513 L 312.9178 338.7443 L 313.7593 340.686 L 314.8805 342.2821 L 316.199 343.686 L 320.2837 347.0099 L 321.2044 355.3998 L 318.4133 360.0118 L 317.1121 361.7439 L 315.0008 364.1988 L 311.197 367.913 L 309.5347 369.1694 L 307.7238 370.1555 L 306.7534 370.4952 L 304.7614 370.9174 L 298.6794 371.5275 L 296.7059 371.9005 L 294.8896 372.5323 L 290.6856 374.5304 L 287.7199 375.2128 L 282.5054 375.5367 L 273.9673 375.4716 L 274.9855 371.5015 L 276.9351 367.1554 L 277.5694 365.1819 L 278.0617 361.8407 L 278.4131 354.9573 L 278.7741 351.5757 L 279.2859 349.4185 L 281.1716 345.0407 L 281.8157 343.0672 L 283.3078 332.8845 L 283.9573 330.9096 L 285.5328 327.4469 L 286.1607 325.5515 L 286.6952 322.4358 L 287.4836 314.7385 Z" fill="#000000" fill-opacity="1" stroke="#000000" stroke-width="0" paint-order="fill" stroke-opacity="1" stroke-dasharray="" stroke-linecap="butt" stroke-linejoin="miter" stroke-miterlimit="10" transform="matrix(1.100000023841858,0,0,1.100000023841858,-40.00005340576172,-26.649986267089844)" clip-path="none" style="filter: url(#f1)"/>
<path data-code="201" d="M 343.6665 238.5686 L 341.5043 236.747 L 340.2649 235.3792 L 339.3183 233.8279 L 338.9431 232.8607 L 338.4985 230.8236 L 338.3337 228.7127 L 338.4996 223.3199 L 339.212 221.5474 L 340.1966 220.0019 L 341.4555 218.6298 L 342.9356 217.4978 L 347.248 215.3869 L 351.3436 213.0447 L 355.8447 211.103 L 361.9484 207.2891 L 364.2559 206.2625 L 365.6482 205.1724 L 366.8767 203.8163 L 367.8917 202.1927 L 370.8725 196.1652 L 371.6316 194.3652 L 372.1607 192.1734 L 372.4904 188.7526 L 372.4752 177.0128 L 375.6144 176.342 L 377.2376 175.703 L 381.3473 173.4186 L 384.9939 171.8702 L 389.8843 169.009 L 393.5331 167.4692 L 398.4321 164.647 L 401.3262 163.3776 L 402.8649 162.5174 L 404.4274 161.3492 L 405.9162 160.0306 L 412.4049 153.6865 L 414.7211 151.8778 L 416.2608 151.0263 L 419.991 149.3463 L 424.0627 146.9925 L 427.6844 145.4007 L 429.3738 144.3063 L 432.488 141.5578 L 439.8702 133.8937 L 442.9584 131.1004 L 444.6369 129.9655 L 445.5326 129.5202 L 447.055 129.0156 L 449.3907 128.553 L 450.4024 132.5173 L 452.7196 137.7453 L 453.2563 139.9588 L 453.5318 142.2648 L 453.7107 148.1983 L 453.6142 165.062 L 453.7324 180.7025 L 453.65 184.2533 L 453.4418 186.5796 L 452.9853 188.8452 L 452.609 189.9382 L 451.5518 191.9016 L 449.4958 194.5387 L 443.4322 201.2008 L 441.5617 203.929 L 439.8669 207.61 L 437.1018 212.6486 L 435.5534 216.3816 L 433.4108 220.6423 L 432.7623 222.5551 L 432.2776 225.6997 L 432.1421 228.944 L 432.2386 234.4496 L 416.4506 250.6713 L 414.2884 252.7634 L 412.0362 254.6602 L 410.4347 255.6969 L 407.5536 256.9937 L 406.0323 257.8366 L 404.4806 258.9846 L 400.025 262.8636 L 398.4549 264.0087 L 397.6232 264.4916 L 391.4295 266.9827 L 387.4564 268.2275 L 385.9112 264.9687 L 384.4246 261.1735 L 383.4281 259.4805 L 382.231 257.9003 L 380.2044 255.707 L 378.7373 254.3769 L 377.1726 253.2072 L 375.4419 252.266 L 372.7224 251.1036 L 369.4336 249.3065 L 367.7214 248.5099 L 365.7946 247.9576 L 361.8552 247.2014 L 359.9381 246.6347 L 358.24 245.8207 L 354.9653 243.9831 L 351.3262 242.4173 L 346.3957 239.6009 L 343.6665 238.5686 Z" fill="#000000" fill-opacity="1" stroke="#000000" stroke-width="0" paint-order="fill" stroke-opacity="1" stroke-dasharray="" stroke-linecap="butt" stroke-linejoin="miter" stroke-miterlimit="10" transform="matrix(1.100000023841858,0,0,1.100000023841858,-40.00005340576172,-26.649986267089844)" clip-path="none" style="filter: url(#f1)"/>
<path data-code="202" d="M 362.6673 395.795 L 360.1528 402.3647 L 358.6152 409.5098 L 357.9526 411.3893 L 355.9694 415.6977 L 354.4697 421.2741 L 353.7833 422.8399 L 352.3683 424.6746 L 351.5377 426.0698 L 349.7192 432.4645 L 347.4259 437.6881 L 346.9303 439.7093 L 346.4977 443.6592 L 342.452 446.5754 L 341.0066 447.8723 L 339.726 449.3296 L 338.6666 450.9301 L 336.9978 454.5691 L 335.921 456.3128 L 333.9594 458.7836 L 328.9324 464.3528 L 326.9774 466.8554 L 325.9201 468.6366 L 323.9098 473.2603 L 322.8515 474.8969 L 321.6652 476.4106 L 319.7318 478.3668 L 318.2907 479.3196 L 317.4775 479.6102 L 316.5807 479.6998 L 315.6937 479.5321 L 314.9098 479.1678 L 314.2201 478.6661 L 313.0751 477.375 L 312.213 475.7629 L 311.1645 473.1012 L 310.2373 471.4545 L 304.8796 464.308 L 303.9417 462.5267 L 302.7576 459.7552 L 301.0074 456.4732 L 300.3308 454.7152 L 300.0933 452.7041 L 300.3818 450.7017 L 301.1007 448.9667 L 302.9246 445.7195 L 304.5359 442.0616 L 306.7469 437.9628 L 307.2684 436.0819 L 307.3411 435.0756 L 307.2858 434.0679 L 306.8032 432.1811 L 304.7506 428.0187 L 303.0677 423.2042 L 301.4043 420.0221 L 306.2643 412.1454 L 307.456 409.4114 L 309.1085 402.4095 L 311.0061 398.0317 L 311.622 396.0321 L 311.9918 393.7839 L 312.5654 388.0774 L 313.0393 385.8755 L 313.4253 384.8273 L 314.3719 383.1863 L 315.5474 381.7825 L 319.4347 378.5222 L 320.2924 377.101 L 320.9224 375.5179 L 323.8198 376.1974 L 324.7577 376.5545 L 326.5187 377.568 L 328.9281 379.5502 L 334.9993 385.4721 L 336.6204 386.7719 L 338.3835 387.8114 L 340.292 388.4663 L 344.2021 389.2745 L 346.1051 389.821 L 351.1527 392.2442 L 353.0731 392.8008 L 358.0166 393.8027 L 359.809 394.4331 L 362.6673 395.795 Z" fill="#000000" fill-opacity="1" stroke="#000000" stroke-width="0" paint-order="fill" stroke-opacity="1" stroke-dasharray="" stroke-linecap="butt" stroke-linejoin="miter" stroke-miterlimit="10" transform="matrix(1.100000023841858,0,0,1.100000023841858,-40.00005340576172,-26.649986267089844)" clip-path="none" style="filter: url(#f1)"/>
<path data-code="203" d="M 449.3907 128.553 L 451.8424 125.4503 L 452.8541 123.7877 L 454.4296 120.0532 L 457.1925 115.0045 L 458.4167 112.0074 L 459.2376 110.4199 L 460.3436 108.8035 L 464.0574 104.1712 L 465.1635 102.5635 L 465.9897 100.9948 L 467.2888 98.0339 L 468.3623 96.3047 L 471.0232 93.0936 L 479.8682 83.9346 L 481.1933 82.3225 L 482.334 80.5977 L 482.7948 79.6709 L 483.3565 78.0155 L 484.2977 73.6868 L 485.2205 70.0883 L 488.0626 70.7186 L 494.1902 71.4762 L 496.1539 71.9967 L 497.8672 72.7962 L 501.6862 75.1109 L 503.1197 76.1273 L 503.7389 76.801 L 504.2181 77.6063 L 504.5521 78.4854 L 504.924 80.3823 L 505.2277 88.7519 L 505.6473 91.8835 L 506.2491 93.789 L 507.8377 97.2531 L 508.4525 99.1399 L 508.8114 101.19 L 509.2831 106.4512 L 509.5867 108.5317 L 510.1625 110.5443 L 510.6157 111.5187 L 511.7532 113.3288 L 515.0691 117.5433 L 516.2868 119.2869 L 517.2421 121.1245 L 518.4056 123.9308 L 520.6936 128.138 L 522.2767 131.725 L 523.2505 133.4195 L 524.4823 134.8711 L 525.9255 136.0913 L 527.5824 137.0383 L 531.1531 138.7154 L 532.8588 139.8995 L 534.4257 141.2325 L 536.3721 143.4402 L 536.8459 144.2629 L 537.1712 145.1665 L 537.2742 146.1699 L 537.1159 147.0836 L 536.7689 147.8933 L 536.2897 148.6046 L 535.0557 149.7858 L 533.5181 150.6793 L 530.9645 151.7781 L 529.2816 152.806 L 526.8461 154.7607 L 521.3757 159.8904 L 518.9695 161.913 L 517.2736 163.0306 L 512.817 165.2962 L 510.2774 167.2509 L 503.8993 173.3897 L 499.4069 178.2475 L 497.5711 180.9266 L 497.1092 181.9126 L 496.528 183.9497 L 496.2439 186.0577 L 496.1235 188.2061 L 496.1062 197.264 L 496.9932 202.1594 L 497.7023 204.2081 L 499.5132 208.411 L 500.2191 211.81 L 500.4804 215.3652 L 500.552 220.2014 L 500.243 233.8539 L 498.032 236.705 L 496.7199 238.2058 L 494.6293 240.2906 L 493.1449 241.5253 L 491.5617 242.5576 L 487.9498 244.1797 L 483.89 246.6116 L 481.4719 247.8289 L 479.3521 242.6328 L 478.5301 241.0568 L 477.9207 240.3715 L 476.3268 239.4694 L 474.5267 239.1368 L 471.7129 239.4029 L 469.9519 240.0318 L 465.9008 242.1209 L 463.7972 242.7455 L 461.5732 243.1041 L 458.1304 243.3701 L 453.4797 243.4959 L 448.8431 243.4915 L 445.4209 243.3137 L 442.1039 242.7065 L 441.0434 242.3176 L 439.1751 241.2477 L 437.4814 239.8959 L 435.8885 238.385 L 432.2386 234.4496 L 432.1421 228.944 L 432.2776 225.6997 L 432.7623 222.5551 L 433.4108 220.6423 L 435.5534 216.3816 L 437.1018 212.6486 L 439.8669 207.61 L 441.5617 203.929 L 443.4322 201.2008 L 449.4958 194.5387 L 451.5518 191.9016 L 452.609 189.9382 L 452.9853 188.8452 L 453.4418 186.5796 L 453.65 184.2533 L 453.7324 180.7025 L 453.6142 165.062 L 453.7107 148.1983 L 453.5318 142.2648 L 453.2563 139.9588 L 452.7196 137.7453 L 450.4024 132.5173 L 449.3907 128.553 Z" fill="#000000" fill-opacity="1" stroke="#000000" stroke-width="0" paint-order="fill" stroke-opacity="1" stroke-dasharray="" stroke-linecap="butt" stroke-linejoin="miter" stroke-miterlimit="10" transform="matrix(1.100000023841858,0,0,1.100000023841858,-40.00005340576172,-26.649986267089844)" clip-path="none" style="filter: url(#f1)"/>
<path data-code="204" d="M 301.4043 420.0221 L 296.6224 418.8929 L 294.6532 418.1194 L 290.5999 416.1965 L 288.3911 415.6269 L 284.9202 415.2437 L 277.8969 415.011 L 273.745 410.6722 L 266.6035 403.5184 L 264.6636 401.3989 L 263.5901 399.9329 L 263.1694 399.1579 L 262.8669 398.3367 L 262.727 397.4606 L 262.791 396.5772 L 263.01 395.7517 L 266.0624 389.0042 L 267.7236 386.5839 L 271.5264 382.0037 L 272.5858 380.354 L 273.2874 378.6928 L 273.9673 375.4716 L 282.5054 375.5367 L 287.7199 375.2128 L 290.6856 374.5304 L 294.8896 372.5323 L 296.7059 371.9005 L 298.6794 371.5275 L 304.7614 370.9174 L 306.7534 370.4952 L 307.7238 370.1555 L 309.5347 369.1694 L 311.197 367.913 L 315.0008 364.1988 L 317.1121 361.7439 L 318.4133 360.0118 L 321.2044 355.3998 L 324.0323 361.5805 L 324.4585 363.4557 L 324.5073 364.4721 L 324.2405 366.4759 L 323.5769 368.221 L 321.9623 371.5651 L 321.367 373.5024 L 320.9224 375.5179 L 320.2924 377.101 L 319.4347 378.5222 L 315.5474 381.7825 L 314.3719 383.1863 L 313.4253 384.8273 L 313.0393 385.8755 L 312.5654 388.0774 L 311.9918 393.7839 L 311.622 396.0321 L 311.0061 398.0317 L 309.1085 402.4095 L 307.456 409.4114 L 306.2643 412.1454 L 301.4043 420.0221 Z" fill="#000000" fill-opacity="1" stroke="#000000" stroke-width="0" paint-order="fill" stroke-opacity="1" stroke-dasharray="" stroke-linecap="butt" stroke-linejoin="miter" stroke-miterlimit="10" transform="matrix(1.100000023841858,0,0,1.100000023841858,-40.00005340576172,-26.649986267089844)" clip-path="none" style="filter: url(#f1)"/>
<path data-code="205" d="M 321.2044 355.3998 L 320.2837 347.0099 L 322.9209 343.2205 L 327.7494 337.0889 L 328.7199 335.4566 L 330.289 331.738 L 331.2551 330.1303 L 333.0312 327.872 L 334.9972 325.7062 L 368.9023 290.7427 L 372.4242 287.2483 L 374.62 285.3355 L 376.1544 284.241 L 377.6583 283.4502 L 380.4928 282.1938 L 381.8189 281.2815 L 383.003 280.1581 L 384.0126 278.8613 L 384.4322 278.1485 L 385.0633 276.6521 L 386.68 271.7928 L 387.4564 268.2275 L 391.4295 266.9827 L 397.6232 264.4916 L 398.4549 264.0087 L 400.025 262.8636 L 404.4806 258.9846 L 406.0323 257.8366 L 407.5536 256.9937 L 410.4347 255.6969 L 412.0362 254.6602 L 414.2884 252.7634 L 416.4506 250.6713 L 432.2386 234.4496 L 435.8885 238.385 L 437.4814 239.8959 L 439.1751 241.2477 L 441.0434 242.3176 L 442.1039 242.7065 L 445.4209 243.3137 L 448.8431 243.4915 L 453.4797 243.4959 L 458.1304 243.3701 L 461.5732 243.1041 L 463.7972 242.7455 L 465.9008 242.1209 L 469.9519 240.0318 L 471.7129 239.4029 L 474.5267 239.1368 L 476.3268 239.4694 L 477.9207 240.3715 L 478.5301 241.0568 L 479.3521 242.6328 L 481.4719 247.8289 L 479.6329 249.7981 L 478.2959 251.0039 L 474.2275 253.4443 L 472.602 254.7123 L 470.2338 256.8665 L 459.4425 267.7822 L 457.2543 270.1851 L 455.309 272.7225 L 454.3071 274.5803 L 453.9568 275.5605 L 452.9234 280.6063 L 452.3965 282.5726 L 450.0413 287.7904 L 449.4969 289.7712 L 448.4874 294.8459 L 447.8173 296.7124 L 445.769 301.0295 L 445.216 303.0073 L 444.8299 305.043 L 443.8464 309.0262 L 441.8654 313.3621 L 441.2419 315.2647 L 440.8753 317.325 L 440.3072 323.6676 L 439.6609 326.7457 L 435.9611 334.6368 L 434.9581 336.3154 L 433.0269 338.3857 L 431.5262 339.4672 L 428.9801 340.7366 L 427.3721 341.6995 L 425.3086 343.6079 L 424.1982 345.1491 L 420.0311 353.9164 L 419.4954 355.9043 L 418.4859 360.9704 L 417.7757 362.847 L 412.4895 371.7111 L 409.4501 371.3627 L 406.2795 371.1834 L 396.7178 371.0128 L 392.5604 371.2673 L 390.5479 371.6894 L 389.5741 372.0393 L 388.6481 372.502 L 386.9414 373.6731 L 384.5894 375.7752 L 373.4207 387.5526 L 368.8155 392.0548 L 367.1869 393.3892 L 365.4563 394.53 L 362.6673 395.795 L 359.809 394.4331 L 358.0166 393.8027 L 353.0731 392.8008 L 351.1527 392.2442 L 346.1051 389.821 L 344.2021 389.2745 L 340.292 388.4663 L 338.3835 387.8114 L 336.6204 386.7719 L 334.9993 385.4721 L 328.9281 379.5502 L 326.5187 377.568 L 324.7577 376.5545 L 323.8198 376.1974 L 320.9224 375.5179 L 321.367 373.5024 L 321.9623 371.5651 L 323.5769 368.221 L 324.2405 366.4759 L 324.5073 364.4721 L 324.4585 363.4557 L 324.0323 361.5805 L 321.2044 355.3998 Z" fill="#000000" fill-opacity="1" stroke="#000000" stroke-width="0" paint-order="fill" stroke-opacity="1" stroke-dasharray="" stroke-linecap="butt" stroke-linejoin="miter" stroke-miterlimit="10" transform="matrix(1.100000023841858,0,0,1.100000023841858,-40.00005340576172,-26.649986267089844)" clip-path="none" style="filter: url(#f1)"/>
<path data-code="206" d="M 320.2837 347.0099 L 316.199 343.686 L 314.8805 342.2821 L 313.7593 340.686 L 312.9178 338.7443 L 312.6402 337.6513 L 312.3204 335.4045 L 312.1978 333.1101 L 312.2379 329.633 L 312.4049 327.3226 L 312.9959 323.951 L 313.7257 321.9746 L 315.9789 317.7645 L 317.4851 314.1515 L 318.9424 311.1876 L 319.4033 309.8618 L 319.5442 308.3365 L 319.0021 303.9977 L 321.8615 296.4449 L 324.607 291.3876 L 326.1706 287.6603 L 328.3762 283.4285 L 329.0517 281.4839 L 329.4399 279.3254 L 329.6709 275.9827 L 329.5679 257.7644 L 329.9192 254.4622 L 330.5156 252.347 L 330.9612 251.387 L 332.0879 249.6159 L 334.8464 246.4048 L 339.5004 241.933 L 343.6665 238.5686 L 346.3957 239.6009 L 351.3262 242.4173 L 354.9653 243.9831 L 358.24 245.8207 L 359.9381 246.6347 L 361.8552 247.2014 L 365.7946 247.9576 L 367.7214 248.5099 L 369.4336 249.3065 L 372.7224 251.1036 L 375.4419 252.266 L 377.1726 253.2072 L 378.7373 254.3769 L 380.2044 255.707 L 382.231 257.9003 L 383.4281 259.4805 L 384.4246 261.1735 L 385.9112 264.9687 L 387.4564 268.2275 L 386.68 271.7928 L 385.0633 276.6521 L 384.4322 278.1485 L 384.0126 278.8613 L 383.003 280.1581 L 381.8189 281.2815 L 380.4928 282.1938 L 377.6583 283.4502 L 376.1544 284.241 L 374.62 285.3355 L 372.4242 287.2483 L 368.9023 290.7427 L 334.9972 325.7062 L 333.0312 327.872 L 331.2551 330.1303 L 330.289 331.738 L 328.7199 335.4566 L 327.7494 337.0889 L 322.9209 343.2205 L 320.2837 347.0099 Z" fill="#000000" fill-opacity="1" stroke="#000000" stroke-width="0" paint-order="fill" stroke-opacity="1" stroke-dasharray="" stroke-linecap="butt" stroke-linejoin="miter" stroke-miterlimit="10" transform="matrix(1.100000023841858,0,0,1.100000023841858,-40.00005340576172,-26.649986267089844)" clip-path="none" style="filter: url(#f1)"/>
<path data-code="207" d="M 449.3907 128.553 L 447.055 129.0156 L 445.5326 129.5202 L 444.6369 129.9655 L 442.9584 131.1004 L 439.8702 133.8937 L 432.488 141.5578 L 429.3738 144.3063 L 427.6844 145.4007 L 424.0627 146.9925 L 419.991 149.3463 L 416.2608 151.0263 L 414.7211 151.8778 L 412.4049 153.6865 L 405.9162 160.0306 L 404.4274 161.3492 L 402.8649 162.5174 L 401.3262 163.3776 L 398.4321 164.647 L 393.5331 167.4692 L 389.8843 169.009 L 384.9939 171.8702 L 381.3473 173.4186 L 377.2376 175.703 L 375.6144 176.342 L 372.4752 177.0128 L 371.8615 173.9767 L 371.1903 172.1015 L 369.0031 167.8437 L 367.4775 164.089 L 364.6549 159.0605 L 363.0751 155.3362 L 360.8576 151.1376 L 360.503 150.2325 L 360.0443 148.2012 L 359.9608 145.0696 L 360.2688 143.0123 L 360.901 141.1241 L 362.5784 137.7424 L 363.2388 135.8817 L 363.6432 133.8388 L 364.2993 127.5062 L 364.6755 125.446 L 365.311 123.5491 L 367.3137 119.2233 L 367.8592 117.2513 L 368.8958 112.1867 L 369.5876 110.3158 L 371.8007 106.0695 L 373.3231 102.3119 L 376.0839 97.256 L 377.5998 93.497 L 380.3334 88.4353 L 381.948 84.7167 L 383.0443 82.9572 L 384.3379 81.2989 L 389.379 75.776 L 391.436 73.3557 L 393.1536 70.7736 L 394.8354 67.0969 L 395.821 65.469 L 397.5831 63.147 L 403.6608 55.707 L 406.3174 54.6574 L 408.137 54.1094 L 411.1829 53.6338 L 415.0323 53.2998 L 422.1119 53.5875 L 425.5753 53.9909 L 427.7733 54.5605 L 431.8254 56.4328 L 433.8889 57.1586 L 437.1029 57.6906 L 443.7391 58.1114 L 446.9975 58.5104 L 449.0719 59.0511 L 454.1596 61.3456 L 457.3161 62.0728 L 461.75 62.4025 L 470.8432 62.3894 L 471.8072 64.5711 L 472.3169 65.216 L 473.7048 66.1687 L 475.3704 66.7673 L 479.0387 67.7577 L 485.2205 70.0883 L 484.2977 73.6868 L 483.3565 78.0155 L 482.7948 79.6709 L 482.334 80.5977 L 481.1933 82.3225 L 479.8682 83.9346 L 471.0232 93.0936 L 468.3623 96.3047 L 467.2888 98.0339 L 465.9897 100.9948 L 465.1635 102.5635 L 464.0574 104.1712 L 460.3436 108.8035 L 459.2376 110.4199 L 458.4167 112.0074 L 457.1925 115.0045 L 454.4296 120.0532 L 452.8541 123.7877 L 451.8424 125.4503 L 449.3907 128.553 Z" fill="#000000" fill-opacity="1" stroke="#000000" stroke-width="0" paint-order="fill" stroke-opacity="1" stroke-dasharray="" stroke-linecap="butt" stroke-linejoin="miter" stroke-miterlimit="10" transform="matrix(1.100000023841858,0,0,1.100000023841858,-40.00005340576172,-26.649986267089844)" clip-path="none" style="filter: url(#f1)"/>
<path data-code="208" d="M 287.4836 314.7385 L 286.9728 309.1303 L 286.8178 304.1336 L 286.9349 297.9428 L 287.3285 294.337 L 287.8924 292.0483 L 290.125 286.7914 L 290.6487 284.6473 L 291.0272 281.2786 L 291.3991 274.4126 L 291.9022 271.0757 L 292.6125 268.92 L 294.5296 264.7461 L 296.052 259.7769 L 297.672 255.5509 L 298.379 254.3104 L 299.5219 252.6492 L 302.8899 248.7383 L 316.0082 235.145 L 318.2517 233.0125 L 319.8131 231.7243 L 321.4733 230.6457 L 325.0939 229.0525 L 330.0396 226.3185 L 334.8746 224.8539 L 338.4996 223.3199 L 338.3337 228.7127 L 338.4985 230.8236 L 338.9431 232.8607 L 339.3183 233.8279 L 340.2649 235.3792 L 341.5043 236.747 L 343.6665 238.5686 L 339.5004 241.933 L 334.8464 246.4048 L 332.0879 249.6159 L 330.9612 251.387 L 330.5156 252.347 L 329.9192 254.4622 L 329.5679 257.7644 L 329.6709 275.9827 L 329.4399 279.3254 L 329.0517 281.4839 L 328.3762 283.4285 L 326.1706 287.6603 L 324.607 291.3876 L 321.8615 296.4449 L 319.0021 303.9977 L 311.5657 305.0633 L 308.6032 305.8411 L 303.6185 308.4984 L 299.9914 310.1004 L 295.011 312.765 L 293.1048 313.3852 L 287.4836 314.7385 Z" fill="#000000" fill-opacity="1" stroke="#000000" stroke-width="0" paint-order="fill" stroke-opacity="1" stroke-dasharray="" stroke-linecap="butt" stroke-linejoin="miter" stroke-miterlimit="10" transform="matrix(1.100000023841858,0,0,1.100000023841858,-40.00005340576172,-26.649986267089844)" clip-path="none" style="filter: url(#f1)"/>









</svg>