<?xml version="1.0" standalone="no"?>
<!-- Generator: Paintmaps.com , Online SVG vector map maker -->
<svg xmlns="http://www.w3.org/2000/svg" version="1.1" baseProfile="full"   style="background-color:#e0f2f1" width="800" height="500" viewBox="0 0 800 533">

<path data-code="200" d="M 295.7518 417.8377 L 266.7703 417.6268 L 258.0079 417.9385 L 255.3845 418.3108 L 252.8827 418.9765 L 246.433 421.9949 L 244.0082 422.745 L 239.1931 423.7847 L 234.9192 417.0822 L 228.9474 409.857 L 227.5762 408.0048 L 226.4188 406.0555 L 224.4225 401.3444 L 223.1579 399.2392 L 221.6463 397.2477 L 217.38 392.5092 L 185.456 359.4218 L 189.734 354.2285 L 198.0356 345.2447 L 200.644 342.1639 L 202.8439 338.8887 L 205.7301 333.1214 L 211.4818 325.612 L 212.9307 323.316 L 213.5132 322.0764 L 213.9622 320.7542 L 214.5124 318.0072 L 214.8342 313.7546 L 214.7483 288.9707 L 219.6211 287.6174 L 224.8929 284.9253 L 227.231 284.0671 L 231.0806 283.429 L 236.3317 283.4216 L 238.918 283.7719 L 241.4081 284.4761 L 243.575 285.5287 L 247.666 287.9273 L 252.2039 290.0233 L 257.3932 292.9446 L 261.0296 294.1274 L 263.77 294.5088 L 268.015 294.7215 L 289.769 294.5528 L 294.0635 294.6848 L 298.2563 295.1433 L 302.0426 296.2638 L 307.3604 298.7816 L 314.6567 300.6465 L 317.0649 301.5103 L 318.2464 302.1338 L 320.4573 303.6778 L 322.5299 305.4713 L 328.4109 311.4697 L 325.3645 315.4344 L 324.0841 317.5414 L 322.0107 322.2488 L 319.0681 327.576 L 317.0072 332.199 L 315.7824 334.5298 L 314.2407 336.756 L 309.1869 343.2073 L 307.7634 345.4941 L 305.6488 350.1831 L 302.1155 356.5684 L 300.1488 361.3015 L 297.9262 365.5871 L 296.9476 367.8445 L 296.0482 372.0091 L 295.705 377.8314 L 295.7518 417.8377 Z" fill="#000000" fill-opacity="1" stroke="#000000" stroke-width="0" paint-order="fill" stroke-opacity="1" stroke-dasharray="" stroke-linecap="butt" stroke-linejoin="miter" stroke-miterlimit="10" transform="matrix(0.8999999761581421,0,0,0.8999999761581421,39.999961853027344,26.650115966796875)" clip-path="none" style="filter: url(#f1)"/>
<path data-code="201" d="M 567.9302 185.8283 L 567.9302 186.2281 L 568.0306 186.2281 L 568.0306 186.7618 L 568.1303 186.7618 L 568.1303 187.1634 L 568.2307 187.1634 L 568.2307 187.5631 L 568.3311 187.5631 L 568.3311 188.0986 L 568.4308 188.0986 L 568.4308 188.4984 L 568.5312 188.4984 L 568.5312 188.8981 L 568.6309 188.8981 L 568.6316 189.032 L 568.8317 189.032 L 568.8317 189.2997 L 568.9314 189.2997 L 568.9314 189.6995 L 569.0318 189.6995 L 569.0318 190.235 L 569.1322 190.235 L 569.1322 190.7686 L 569.2319 190.7686 L 569.2319 191.1684 L 569.3323 191.1684 L 569.3323 191.57 L 569.4327 191.57 L 569.4327 191.8359 L 569.5325 191.8359 L 569.5325 192.2375 L 569.6329 192.2375 L 569.6329 192.3714 L 569.7326 192.3714 L 569.7326 192.5052 L 569.833 192.5052 L 569.833 192.7711 L 569.9334 192.7711 L 569.9334 193.0389 L 570.0331 193.0389 L 570.0331 193.3048 L 570.1335 193.3048 L 570.1335 193.5725 L 570.2339 193.5725 L 570.2339 193.8402 L 570.3329 193.8402 L 570.3336 194.1061 L 570.434 194.1061 L 570.434 194.3739 L 570.5344 194.3739 L 570.5344 194.6416 L 570.6341 194.6416 L 570.6341 194.9075 L 570.7345 194.9075 L 570.7345 195.1753 L 570.8342 195.1753 L 570.8342 195.4412 L 570.9346 195.443 L 570.9346 195.7089 L 571.035 195.7089 L 571.035 196.5103 L 571.1347 196.5103 L 571.1347 196.6441 L 571.2351 196.6441 L 571.2351 196.778 L 571.3355 196.778 L 571.3355 196.91 L 571.4353 196.9119 L 571.4353 197.0439 L 571.535 197.0439 L 571.5357 197.3116 L 571.6361 197.3116 L 571.6361 197.5794 L 571.7358 197.5794 L 571.7358 197.7114 L 571.8362 197.7114 L 571.8362 197.9791 L 571.9352 197.9791 L 571.9359 198.113 L 572.0363 198.113 L 572.0363 198.3789 L 572.1367 198.3789 L 572.1367 198.6466 L 572.2364 198.6466 L 572.2364 198.7805 L 572.3368 198.7805 L 572.3368 199.0482 L 572.4372 199.0482 L 572.4372 199.3142 L 572.5369 199.3142 L 572.5369 199.7158 L 572.6373 199.7158 L 572.6373 199.9817 L 572.7377 199.9817 L 572.7377 200.2494 L 572.8374 200.2494 L 572.8374 200.3833 L 572.9378 200.3833 L 572.9378 200.5171 L 573.0375 200.5171 L 573.0375 200.783 L 573.1379 200.783 L 573.1379 200.9169 L 573.2383 200.9169 L 573.2383 201.1846 L 573.3381 201.1846 L 573.3381 201.4505 L 573.4385 201.4505 L 573.4385 201.7183 L 573.5389 201.7183 L 573.5389 201.986 L 573.6386 201.986 L 573.6386 202.118 L 573.739 202.118 L 573.739 202.3858 L 573.8394 202.3858 L 573.8394 202.5196 L 573.9391 202.5196 L 573.9391 202.7855 L 574.0395 202.7855 L 574.0395 202.9194 L 574.1392 202.9194 L 574.1392 203.0533 L 574.2396 203.0533 L 574.2396 203.1871 L 574.34 203.1871 L 574.34 203.4549 L 574.4397 203.4549 L 574.4397 203.5869 L 574.5401 203.5869 L 574.5401 203.7208 L 574.6405 203.7208 L 574.6405 203.8547 L 574.7402 203.8547 L 574.7402 204.1224 L 574.8406 204.1224 L 574.8406 204.2544 L 574.941 204.2544 L 574.941 204.5222 L 575.0407 204.5222 L 575.0407 204.656 L 575.1411 204.656 L 575.6418 204.656 L 575.6418 204.7899 L 575.7415 204.7899 L 575.7422 205.0558 L 575.8419 205.0558 L 575.8419 205.4574 L 575.9423 205.4574 L 575.9423 205.8572 L 576.0427 205.8572 L 576.0427 205.991 L 576.2428 205.991 L 576.2428 206.1249 L 576.3425 206.1249 L 576.3425 205.991 L 576.5426 205.991 L 576.5433 206.1249 L 576.643 206.1249 L 576.643 206.3926 L 576.5433 206.3926 L 576.5433 207.0601 L 576.643 207.0601 L 576.643 207.326 L 576.8438 207.326 L 576.8438 207.4599 L 576.9429 207.4599 L 576.9435 207.5938 L 577.0439 207.5938 L 577.0439 207.7276 L 577.1443 207.7276 L 577.1443 207.9935 L 577.2441 207.9935 L 577.2441 208.1274 L 577.3445 208.1274 L 577.3445 208.2613 L 577.645 208.2613 L 577.645 208.6611 L 577.744 208.6611 L 577.7447 208.7949 L 577.8451 208.7949 L 577.8451 208.9288 L 578.0452 208.9288 L 578.0452 209.0627 L 578.1456 209.0627 L 578.1456 209.1965 L 578.246 209.1965 L 578.246 209.3304 L 578.3457 209.3304 L 578.3457 209.5963 L 578.4461 209.5963 L 578.4461 209.7302 L 578.5458 209.7302 L 578.5458 209.864 L 578.7466 209.864 L 578.7466 209.9979 L 578.9467 209.9979 L 578.9467 210.3977 L 579.0471 210.3977 L 579.0471 210.5315 L 579.1469 210.5315 L 579.1469 210.6654 L 579.2473 210.6654 L 579.2473 210.9313 L 579.347 210.9313 L 579.3477 211.0652 L 579.4474 211.0652 L 579.4474 211.199 L 579.6475 211.199 L 579.6475 211.4668 L 579.7479 211.4668 L 579.7479 211.7327 L 579.8476 211.7327 L 579.8483 211.8665 L 579.948 211.8665 L 579.948 212.0004 L 580.1488 212.0004 L 580.1488 212.1343 L 580.2485 212.1343 L 580.2485 212.2681 L 580.3489 212.2681 L 580.3489 212.4002 L 580.4486 212.4002 L 580.4493 212.6679 L 580.6494 212.6679 L 580.6494 212.9357 L 580.7491 212.9357 L 580.7491 213.2016 L 580.8495 213.2016 L 580.8495 213.3354 L 580.9499 213.3354 L 580.9499 213.737 L 581.049 213.737 L 581.0497 213.8691 L 581.1501 213.8691 L 581.1501 214.0029 L 581.2505 214.0029 L 581.2505 214.1368 L 581.3502 214.1368 L 581.3502 214.5366 L 581.4506 214.5366 L 581.4506 214.6704 L 581.7511 214.6704 L 581.7511 214.8043 L 581.8508 214.8043 L 581.8508 214.9382 L 581.9512 214.9382 L 581.9512 215.072 L 582.0516 215.072 L 582.0516 215.3379 L 582.1513 215.3379 L 582.1513 215.4718 L 582.3521 215.4718 L 582.3521 215.6057 L 582.4518 215.6057 L 582.4518 215.7395 L 582.5522 215.7395 L 582.5522 215.8734 L 582.8528 215.8734 L 582.8528 216.0054 L 582.9525 216.0054 L 582.9525 216.1393 L 583.1533 216.1393 L 583.1533 216.2732 L 583.253 216.2732 L 583.253 216.407 L 583.3534 216.407 L 583.3534 216.5409 L 583.5535 216.5409 L 583.5535 216.6748 L 583.854 216.6748 L 583.854 216.8068 L 583.9544 216.8068 L 583.9544 216.9407 L 584.0541 216.9407 L 584.0541 217.2084 L 584.1545 217.2084 L 584.1545 217.4743 L 584.3546 217.4743 L 584.3546 217.3423 L 584.7556 217.3423 L 584.7556 217.4743 L 585.0561 217.4743 L 585.0561 217.3423 L 585.2562 217.3423 L 585.2562 217.4743 L 585.3566 217.4743 L 585.3566 217.6082 L 585.4563 217.6082 L 585.4563 217.7421 L 585.5567 217.7421 L 585.5567 218.0098 L 585.6571 218.0098 L 585.6571 218.2757 L 585.7568 218.2757 L 585.7568 218.4096 L 585.8572 218.4096 L 585.8572 218.5434 L 586.3572 218.5434 L 586.3578 218.6773 L 586.2574 218.6773 L 586.2574 218.8112 L 586.1577 218.8112 L 586.1577 218.9432 L 586.0573 218.9432 L 586.0573 219.0771 L 585.9569 219.0771 L 585.9569 219.4787 L 586.6584 219.4787 L 586.6584 219.3448 L 586.8585 219.3448 L 586.8585 219.0771 L 586.9589 219.0771 L 586.9589 218.9432 L 587.2594 218.9432 L 587.2594 219.0771 L 587.3591 219.0771 L 587.3591 219.2109 L 587.4595 219.2109 L 587.4595 219.3448 L 587.5599 219.3448 L 587.5599 219.4787 L 587.6596 219.4787 L 587.6596 219.6125 L 587.76 219.6125 L 587.76 220.28 L 587.8604 220.28 L 587.8604 220.5459 L 587.9601 220.5459 L 587.9601 220.6798 L 588.0605 220.6798 L 588.0605 220.8137 L 588.1602 220.8137 L 588.1602 220.9475 L 588.2606 220.9475 L 588.2606 221.2134 L 588.4608 221.2134 L 588.4608 221.3473 L 588.5612 221.3473 L 588.5612 221.4812 L 588.6616 221.4812 L 588.6616 221.6151 L 588.7613 221.6151 L 588.7613 221.7489 L 588.8617 221.7489 L 588.8617 221.881 L 588.9621 221.881 L 588.9621 222.5485 L 588.8617 222.5503 L 588.8617 222.8162 L 589.3623 222.8162 L 589.3623 222.6823 L 589.5624 222.6823 L 589.5624 222.8162 L 589.8629 222.8162 L 589.8629 222.9501 L 589.9633 222.9501 L 589.9633 223.0839 L 590.0637 223.0839 L 590.0637 223.3498 L 590.1634 223.3498 L 590.1634 223.4837 L 590.2638 223.4837 L 590.2638 223.7514 L 590.3636 223.7514 L 590.3636 224.0192 L 590.464 224.0192 L 590.464 224.2851 L 590.3636 224.2851 L 590.3636 224.5528 L 590.2638 224.5528 L 590.2638 225.2203 L 590.3636 225.2203 L 590.3636 225.3542 L 589.9633 225.3542 L 589.9633 225.4862 L 589.6628 225.4862 L 589.6628 225.754 L 589.8629 225.754 L 589.8629 225.8878 L 590.0637 225.8878 L 590.0637 226.0217 L 590.1634 226.0217 L 590.1634 226.1556 L 589.9633 226.1556 L 589.9633 226.2876 L 590.0637 226.2876 L 590.0637 226.4215 L 590.2638 226.4215 L 590.2638 226.5553 L 590.3636 226.5553 L 590.3636 226.6892 L 590.5637 226.6892 L 590.5644 226.8231 L 590.7645 226.8231 L 590.7645 227.4906 L 590.6641 227.4906 L 590.6641 227.7565 L 590.464 227.7565 L 590.464 228.0242 L 590.6641 228.0242 L 590.6641 228.2919 L 590.7645 228.2919 L 590.7645 228.8256 L 590.6641 228.8256 L 590.6641 228.9594 L 590.8649 228.9594 L 590.8649 229.0933 L 590.9646 229.0933 L 590.9646 229.2253 L 591.065 229.2253 L 591.065 229.3592 L 591.2651 229.3592 L 591.2651 229.4931 L 591.065 229.4931 L 591.065 229.6269 L 590.9646 229.6269 L 590.9646 229.7608 L 591.065 229.7608 L 591.065 230.0267 L 590.464 230.0267 L 590.464 229.8928 L 590.3636 229.8928 L 590.3636 230.0267 L 589.8629 230.0267 L 589.8629 230.1606 L 589.6628 230.1606 L 589.6628 230.4283 L 589.4627 230.4283 L 589.4627 230.8281 L 589.3623 230.8281 L 589.3623 230.962 L 589.5624 230.962 L 589.5624 231.8972 L 589.4627 231.8972 L 589.4627 232.0311 L 589.3623 232.0311 L 589.3623 232.297 L 589.8629 232.297 L 589.8629 232.4308 L 589.9633 232.4308 L 589.9633 232.5647 L 590.0637 232.5647 L 590.0637 233.0983 L 589.8629 233.0983 L 589.8629 233.7658 L 589.9633 233.7658 L 589.9633 233.8997 L 590.2638 233.8997 L 590.2638 233.7658 L 590.5637 233.7658 L 590.5644 233.8997 L 590.6641 233.8997 L 590.6641 234.0336 L 590.7645 234.0336 L 590.7645 234.1674 L 591.2651 234.1674 L 591.2651 234.0336 L 591.3648 234.0336 L 591.3655 234.1674 L 591.4652 234.1674 L 591.4652 235.1009 L 591.5656 235.1009 L 591.5656 235.2347 L 591.4652 235.2347 L 591.4652 235.6363 L 591.3655 235.6363 L 591.3655 235.9022 L 591.4652 235.9022 L 591.4652 236.3038 L 591.666 236.3038 L 591.666 236.4377 L 591.765 236.4377 L 591.7657 236.5697 L 591.9665 236.5697 L 591.9665 236.8375 L 592.0662 236.8375 L 592.0662 237.1052 L 592.1666 237.1052 L 592.1666 237.2372 L 592.2664 237.2372 L 592.2664 237.505 L 592.3668 237.505 L 592.3668 237.7727 L 592.4672 237.7727 L 592.4672 238.0386 L 592.5669 238.0386 L 592.5669 238.3063 L 592.7677 238.3063 L 592.7677 238.5741 L 592.9678 238.5741 L 592.9678 238.7061 L 593.1679 238.7061 L 593.1679 238.84 L 593.368 238.84 L 593.368 238.9739 L 593.5688 238.9739 L 593.5688 239.1077 L 593.6685 239.1077 L 593.6685 239.2416 L 593.8686 239.2416 L 593.8693 239.3755 L 593.969 239.3755 L 593.969 239.5075 L 594.0694 239.5075 L 594.0694 239.6414 L 594.1699 239.6414 L 594.1699 239.7752 L 594.8706 239.7752 L 594.8706 239.9091 L 594.971 239.9091 L 594.971 240.043 L 595.1711 240.043 L 595.1711 240.175 L 595.2715 240.175 L 595.2715 240.3089 L 595.4716 240.3089 L 595.4716 240.4427 L 595.5713 240.4427 L 595.5713 240.5766 L 595.7721 240.5766 L 595.7721 240.7105 L 595.8712 240.7105 L 595.8719 240.8443 L 595.9723 240.8443 L 595.9723 240.9764 L 596.0727 240.9764 L 596.0727 241.378 L 596.1724 241.378 L 596.1724 241.5118 L 596.2728 241.5118 L 596.2728 241.6439 L 596.4729 241.6439 L 596.4729 241.7777 L 596.9735 241.7777 L 596.9735 241.9116 L 597.0739 241.9116 L 597.0739 242.3132 L 597.1743 242.3132 L 597.1743 242.5791 L 597.274 242.5791 L 597.274 242.713 L 597.5745 242.713 L 597.5745 242.8468 L 597.7747 242.8468 L 597.7747 242.9807 L 597.6749 242.9807 L 597.6749 243.5144 L 597.7747 243.5144 L 597.7747 244.048 L 597.8751 244.048 L 597.8751 244.8494 L 597.7747 244.8494 L 597.7747 245.1171 L 597.6749 245.1171 L 597.6749 245.6507 L 597.7747 245.6507 L 597.7747 245.7846 L 597.8751 245.7846 L 597.8751 245.9185 L 597.9755 245.9185 L 597.9755 246.0505 L 598.0752 246.0505 L 598.0752 246.3182 L 598.1756 246.3182 L 598.1756 246.9857 L 598.276 246.9857 L 598.276 247.2535 L 598.3757 247.2535 L 598.3757 247.3873 L 598.4761 247.3873 L 598.4761 247.5194 L 598.5765 247.5194 L 598.5765 247.6533 L 598.6762 247.6533 L 598.6762 247.7871 L 598.7766 247.7871 L 598.7766 247.921 L 598.8763 247.921 L 598.8763 248.0549 L 598.9767 248.0549 L 598.9767 248.1887 L 599.0771 248.1887 L 599.0771 248.3208 L 599.1768 248.3208 L 599.1768 248.4546 L 599.3776 248.4546 L 599.3776 248.5885 L 599.4773 248.5885 L 599.4773 248.8562 L 599.5777 248.8562 L 599.5777 248.9883 L 600.2785 248.9883 L 600.2785 249.1221 L 600.3789 249.1221 L 600.3789 249.256 L 600.579 249.256 L 600.579 249.3899 L 600.7798 249.3899 L 600.7798 249.5237 L 600.8795 249.5237 L 600.8795 250.0574 L 600.7798 250.0574 L 600.7798 250.1912 L 600.6794 250.1912 L 600.6794 250.3251 L 600.7798 250.3251 L 600.7798 250.591 L 601.0796 250.591 L 601.0796 250.7249 L 601.1793 250.7249 L 601.18 250.8587 L 601.2804 250.8587 L 601.2804 251.1265 L 601.3801 251.1265 L 601.3801 251.2585 L 601.8808 251.2585 L 601.8815 251.3924 L 602.2817 251.3924 L 602.2817 251.5262 L 602.3821 251.5262 L 602.3821 251.6601 L 602.4818 251.6601 L 602.4818 251.794 L 602.5822 251.794 L 602.5822 251.926 L 602.6826 251.926 L 602.6826 252.1938 L 602.8827 252.1938 L 602.8827 252.3276 L 603.1832 252.3276 L 603.1832 252.4615 L 603.3833 252.4615 L 603.3833 252.5954 L 603.4837 252.5954 L 603.4837 252.7274 L 603.5835 252.7274 L 603.5835 252.8613 L 603.6839 252.8613 L 603.6839 252.9951 L 603.884 252.9951 L 603.884 253.129 L 604.0841 253.129 L 604.0841 253.2629 L 604.3846 253.2629 L 604.3846 253.3949 L 605.1857 253.3949 L 605.1857 253.2629 L 605.4863 253.2629 L 605.4863 253.3949 L 605.6871 253.3949 L 605.6871 253.5288 L 606.2874 253.5288 L 606.2874 253.6626 L 606.6883 253.6626 L 606.6883 253.7965 L 606.9888 253.7965 L 606.9888 253.9304 L 607.0892 253.9304 L 607.0892 254.0642 L 607.1889 254.0642 L 607.1889 254.3301 L 607.2893 254.3301 L 607.2893 254.5979 L 607.3891 254.5979 L 607.3891 254.8638 L 608.0905 254.8638 L 608.0905 255.1315 L 608.1909 255.1315 L 608.1909 255.3186 L 607.5589 255.2379 L 603.9541 254.1468 L 599.7228 252.0525 L 597.4576 251.187 L 591.3036 249.7163 L 588.8851 248.9461 L 582.5598 245.6177 L 577.9654 243.5859 L 571.755 239.9898 L 566.1388 237.3363 L 560.9991 234.2756 L 556.4329 232.2144 L 551.2093 229.3922 L 548.7323 228.501 L 544.4604 227.8188 L 540.0504 227.6134 L 493.6164 227.8335 L 489.1692 227.7675 L 484.7983 227.4374 L 481.9712 226.8909 L 479.4908 225.9648 L 474.2486 222.9226 L 467.5493 219.5117 L 463.5814 217.3845 L 458.9182 215.4553 L 452.7044 211.8537 L 448.0908 209.8769 L 441.8804 206.2661 L 437.2227 204.2838 L 430.8975 200.4951 L 427.4591 195.9363 L 419.7791 187.4311 L 418.1926 185.4964 L 416.7863 183.4682 L 415.75 181.4602 L 414.2007 177.6642 L 410.6227 171.2899 L 408.6683 166.5734 L 406.3969 162.462 L 405.4913 160.2614 L 405.1687 158.2222 L 405.3097 156.1482 L 406.0325 153.9807 L 406.6314 152.9097 L 408.0941 150.9255 L 409.772 149.0606 L 409.8023 149.0312 L 410.0031 149.2769 L 413.3665 152.8382 L 417.8502 151.9598 L 419.1189 149.6254 L 418.7662 148.6461 L 418.4127 147.6779 L 415.5025 146.7921 L 415.5217 146.1136 L 417.1735 145.3214 L 419.7159 144.0983 L 419.5364 142.8421 L 416.7293 142.0756 L 419.4924 137.6653 L 419.5811 137.5241 L 419.5419 135.0301 L 420.6284 135.0576 L 422.7361 137.5131 L 423.9237 137.7735 L 429.7607 131.39 L 431.6966 132.2446 L 431.7639 133.818 L 431.8279 135.3089 L 433.8091 134.5772 L 439.0258 130.8931 L 438.409 130.3117 L 437.3527 129.316 L 436.163 128.1955 L 435.976 127.0586 L 436.8569 126.5213 L 439.8737 127.7481 L 441.8604 126.7945 L 442.5199 126.4791 L 442.9112 127.7462 L 443.1209 128.4229 L 444.9034 127.1026 L 445.7575 126.4681 L 446.3406 126.0353 L 447.1982 125.8207 L 448.7496 125.4338 L 449.3472 127.605 L 450.2095 127.8599 L 453.6651 124.9185 L 454.1073 126.3691 L 454.4649 127.5464 L 455.5596 127.3556 L 456.2707 125.0029 L 457.208 124.6801 L 457.4789 124.5884 L 458.3124 121.4453 L 460.1829 120.4935 L 460.8272 120.6292 L 464.6253 121.4325 L 465.1864 120.952 L 465.5083 120.6678 L 464.0304 118.5846 L 464.1494 118.0766 L 464.2684 117.5686 L 471.9305 118.5754 L 472.3967 118.6377 L 472.5157 118.7184 L 474.9769 120.422 L 475.9678 120.0039 L 476.1115 119.7655 L 476.388 119.3181 L 477.4092 117.675 L 480.8613 119.2667 L 481.5009 120.0791 L 480.4941 121.3554 L 479.7837 122.2632 L 479.5059 122.6171 L 480.4625 123.6752 L 483.0062 123.7614 L 486.4418 123.8787 L 488.7373 125.5769 L 489.8644 126.4094 L 490.4482 125.9675 L 492.1908 124.6471 L 494.5571 125.8684 L 495.3108 126.5708 L 493.0504 130.3521 L 493.309 130.7152 L 493.4664 130.9371 L 493.8832 130.8179 L 494.8927 130.5281 L 495.3679 131.0819 L 496.8986 132.8681 L 499.1047 132.1675 L 501.077 131.5422 L 502.4633 132.6132 L 502.735 134.7019 L 502.7748 135.0063 L 503.8834 135.4666 L 504.8867 134.7477 L 505.2525 132.1217 L 505.3275 131.5844 L 508.171 131.1204 L 508.5273 131.9163 L 508.9027 132.7525 L 510.274 132.9341 L 511.7765 132.2867 L 512.8754 130.8069 L 512.6877 127.9351 L 511.7284 127.0311 L 511.291 127.3538 L 510.7395 127.7536 L 510.1302 128.1955 L 509.915 128.3441 L 508.9474 128.0818 L 508.1834 126.6918 L 508.4647 125.652 L 508.6105 125.1111 L 508.8202 124.3262 L 508.5871 121.5975 L 507.6188 120.9923 L 506.8535 118.6946 L 507.6835 114.2916 L 510.1481 111.4547 L 510.5614 110.9779 L 511.1893 111.2897 L 513.4552 112.4101 L 516.1096 112.5458 L 516.5483 109.2633 L 516.6233 108.7058 L 517.6397 108.6362 L 518.2104 108.5977 L 518.544 112.5458 L 519.7054 112.4211 L 520.9715 111.2842 L 520.7713 107.5047 L 520.7452 107.0132 L 521.6915 106.2192 L 523.2814 106.4283 L 524.3053 107.1948 L 529.7875 111.253 L 530.471 111.7591 L 530.9166 111.8013 L 534.6074 112.1387 L 535.0021 112.1791 L 535.6355 113.2665 L 534.8983 116.0649 L 535.2146 117.167 L 537.8436 119.5253 L 540.0545 119.683 L 542.4779 117.8217 L 543.1917 118.6561 L 543.3182 118.8046 L 544.7919 119.0999 L 545.2141 117.7355 L 545.9499 115.3571 L 550.3717 116.6902 L 552.6878 115.2617 L 553.4222 117.8474 L 559.7413 114.7207 L 560.9 112.5183 L 562.5862 112.0122 L 562.8008 112.2139 L 566.4475 115.6835 L 566.7508 115.7238 L 567.1318 115.7385 L 572.9488 115.9805 L 573.292 115.9274 L 573.7458 115.8559 L 577.7309 115.225 L 580.6542 114.7886 L 582.0667 113.6938 L 581.476 112.3129 L 581.2608 111.2897 L 581.302 111.2933 L 586.3908 110.8037 L 587.5881 113.052 L 587.4595 113.052 L 587.4595 113.1858 L 587.3591 113.1858 L 587.3591 113.3197 L 586.6584 113.3197 L 586.6584 113.1858 L 586.3578 113.1858 L 586.3572 113.052 L 586.1577 113.052 L 586.1577 112.9181 L 585.8572 112.9181 L 585.8572 113.052 L 585.6571 113.052 L 585.6571 113.1858 L 585.1558 113.1858 L 585.1558 113.3197 L 585.0561 113.3197 L 585.0561 113.5856 L 584.9557 113.5856 L 584.9557 113.7195 L 584.8553 113.7195 L 584.8553 113.8533 L 584.7556 113.8533 L 584.7556 115.3222 L 584.8553 115.3222 L 584.8553 115.8559 L 584.7556 115.8559 L 584.7556 115.9897 L 584.6552 115.9897 L 584.6552 116.2575 L 584.5554 116.2575 L 584.5554 116.5234 L 584.6552 116.5234 L 584.6552 116.6572 L 584.8553 116.6572 L 584.8553 116.7911 L 584.9557 116.7911 L 584.9557 117.057 L 585.0561 117.057 L 585.0561 117.1909 L 585.1551 117.1909 L 585.1558 117.4586 L 585.2562 117.4586 L 585.2562 117.7263 L 585.3566 117.7263 L 585.3566 117.8584 L 585.4563 117.8584 L 585.4563 117.9922 L 585.5567 117.9922 L 585.5567 118.1261 L 585.6571 118.1261 L 585.6571 118.26 L 585.7568 118.26 L 585.7568 118.3938 L 585.8572 118.3938 L 585.8572 118.7936 L 585.9569 118.7936 L 585.9569 119.1952 L 586.1577 119.1952 L 586.1577 119.3272 L 586.2574 119.3272 L 586.2574 119.4611 L 586.6584 119.4611 L 586.6584 119.595 L 586.7588 119.595 L 586.7588 119.8627 L 586.8585 119.8627 L 586.8585 120.2625 L 586.9589 120.2625 L 586.9589 120.5302 L 586.8585 120.5302 L 586.8585 120.6641 L 586.7588 120.6641 L 586.7588 120.93 L 586.8585 120.93 L 586.8585 121.0639 L 587.0586 121.0639 L 587.0586 121.1977 L 587.3591 121.1977 L 587.3591 121.0639 L 587.4595 121.0639 L 587.4595 120.93 L 587.5599 120.93 L 587.5599 120.7961 L 587.6596 120.7961 L 587.6596 120.6641 L 587.76 120.6641 L 587.76 120.5302 L 587.9601 120.5302 L 587.9601 120.3964 L 588.2606 120.3964 L 588.2606 120.5302 L 588.4608 120.5302 L 588.4608 120.6641 L 588.7613 120.6641 L 588.7613 120.7961 L 588.9621 120.7961 L 588.9621 120.93 L 589.0618 120.93 L 589.0618 121.0639 L 589.1622 121.0639 L 589.1622 121.1977 L 589.5624 121.1977 L 589.5624 121.3316 L 589.7632 121.3316 L 589.7632 121.4636 L 589.8629 121.4636 L 589.8629 121.5975 L 589.9633 121.5975 L 589.9633 121.8652 L 590.0637 121.8652 L 590.0637 121.9991 L 590.1634 121.9991 L 590.1634 122.133 L 590.2638 122.133 L 590.2638 122.265 L 590.3636 122.265 L 590.3636 122.3989 L 590.464 122.3989 L 590.464 122.5327 L 590.6641 122.5327 L 590.6641 122.9325 L 590.7645 122.9325 L 590.7645 123.8677 L 590.6641 123.8677 L 590.6641 124.0016 L 590.1634 124.0016 L 590.1634 124.1355 L 589.9633 124.1355 L 589.9633 124.2693 L 589.8629 124.2693 L 589.8629 124.4014 L 589.7632 124.4014 L 589.7632 124.803 L 589.6628 124.803 L 589.6628 124.9369 L 589.7632 124.9369 L 589.7632 125.7382 L 589.8629 125.7382 L 589.8629 125.8703 L 590.0637 125.8703 L 590.0637 126.0041 L 590.1634 126.0041 L 590.1634 126.138 L 590.3636 126.138 L 590.3636 126.2719 L 590.464 126.2719 L 590.464 126.4057 L 590.6641 126.4057 L 590.6641 126.5396 L 591.065 126.5396 L 591.065 126.6716 L 591.5656 126.6716 L 591.5656 126.8055 L 591.666 126.8055 L 591.666 127.6069 L 591.765 127.6069 L 591.7657 128.1405 L 591.8661 128.1405 L 591.8661 128.2744 L 591.9665 128.2744 L 591.9665 128.4082 L 592.0662 128.4082 L 592.0662 128.5421 L 592.1666 128.5421 L 592.1666 128.676 L 592.3668 128.676 L 592.3668 128.808 L 592.4672 128.808 L 592.4672 129.3435 L 592.3668 129.3435 L 592.3668 129.4774 L 592.2664 129.4774 L 592.2664 129.6094 L 592.3668 129.6094 L 592.3668 129.7433 L 592.4672 129.7433 L 592.4672 130.1449 L 592.5669 130.1449 L 592.5669 130.4108 L 592.7677 130.4108 L 592.7677 130.5446 L 592.9678 130.5446 L 592.9678 130.6785 L 593.0682 130.6785 L 593.0682 130.8234 L 593.0682 130.9462 L 593.1679 130.9462 L 593.1679 131.6137 L 592.9678 131.6137 L 592.9678 132.0135 L 592.8674 132.0135 L 592.8674 132.1474 L 592.9678 132.1474 L 592.9678 132.4133 L 592.8674 132.4151 L 592.8674 132.9487 L 592.7677 132.9487 L 592.7677 133.3485 L 592.5669 133.3485 L 592.5669 133.4824 L 592.4672 133.4824 L 592.4672 133.6163 L 592.3606 133.6163 L 592.2664 133.6163 L 592.2664 133.7501 L 592.1666 133.7501 L 592.1666 134.1499 L 592.0662 134.1499 L 592.0662 134.2838 L 591.5656 134.2838 L 591.5656 134.1499 L 591.4652 134.1499 L 591.4652 134.2838 L 591.2651 134.2838 L 591.2651 134.8174 L 591.1654 134.8174 L 591.1647 135.0851 L 591.065 135.0851 L 591.065 135.8865 L 590.9646 135.8865 L 590.9646 136.0204 L 590.8649 136.0204 L 590.8649 136.1524 L 590.6641 136.1524 L 590.6641 136.2863 L 590.5644 136.2863 L 590.5644 136.4201 L 590.6641 136.4201 L 590.6641 136.6879 L 590.7645 136.6879 L 590.7645 136.8199 L 590.8649 136.8217 L 590.8649 137.0876 L 590.9646 137.0876 L 590.9646 137.3554 L 590.8649 137.3554 L 590.8649 137.4892 L 590.9646 137.4892 L 590.9646 137.6213 L 591.1647 137.6213 L 591.1654 137.7552 L 591.2651 137.7552 L 591.2651 137.889 L 591.3648 137.889 L 591.3655 138.2888 L 591.4652 138.2888 L 591.4652 138.5565 L 591.5656 138.5565 L 591.5656 138.8243 L 591.666 138.8243 L 591.666 138.9581 L 591.765 138.9581 L 591.7657 139.0902 L 591.8661 139.0902 L 591.8661 139.6256 L 591.9665 139.6256 L 591.9665 139.8915 L 592.0662 139.8915 L 592.0662 140.2931 L 592.1666 140.2931 L 592.1666 140.427 L 592.2664 140.427 L 592.2664 141.0945 L 592.3668 141.0945 L 592.3668 141.2265 L 592.2664 141.2265 L 592.2664 141.3604 L 592.1666 141.3604 L 592.1666 141.4943 L 591.9665 141.4943 L 591.9665 141.8959 L 591.8661 141.8959 L 591.8661 142.2957 L 591.9665 142.2957 L 591.9665 143.8984 L 591.8661 143.8984 L 591.8661 144.0323 L 591.7657 144.0323 L 591.7657 144.6998 L 591.666 144.6998 L 591.666 144.8336 L 591.5656 144.8336 L 591.5656 144.9657 L 591.4652 144.9657 L 591.4652 145.3673 L 591.2651 145.3673 L 591.2651 145.5011 L 591.065 145.5011 L 591.065 145.6332 L 590.9646 145.6332 L 590.9646 146.0348 L 591.065 146.0348 L 591.065 146.4345 L 591.1647 146.4345 L 591.1654 146.7023 L 591.2651 146.7023 L 591.2651 146.8362 L 591.3648 146.8362 L 591.3655 146.97 L 591.4652 146.97 L 591.4652 147.1021 L 591.8661 147.1021 L 591.8661 147.3698 L 591.9665 147.3698 L 591.9665 147.6375 L 592.0662 147.6375 L 592.0662 147.9034 L 592.1666 147.9034 L 592.1666 148.4389 L 592.0662 148.4389 L 592.0662 148.8387 L 591.8661 148.8387 L 591.8661 148.7048 L 591.666 148.7048 L 591.666 148.9725 L 591.765 148.9725 L 591.7657 149.1064 L 591.8661 149.1064 L 591.8661 149.2403 L 592.0662 149.2403 L 592.0662 149.3723 L 592.2664 149.3723 L 592.2664 149.64 L 592.4672 149.64 L 592.4672 149.3723 L 592.5669 149.3723 L 592.5669 149.5062 L 592.6673 149.5062 L 592.6673 149.64 L 592.7677 149.64 L 592.7677 149.7739 L 592.6673 149.7739 L 592.6673 150.0398 L 592.5669 150.0398 L 592.5669 150.1737 L 592.6673 150.1737 L 592.6673 150.3075 L 592.9678 150.3075 L 592.9678 150.4414 L 593.0682 150.4414 L 593.0682 150.7091 L 593.1679 150.7091 L 593.1679 150.8412 L 593.2683 150.8412 L 593.2683 151.7764 L 593.368 151.7764 L 593.368 151.9103 L 593.5688 151.9103 L 593.5688 152.0442 L 593.6685 152.0442 L 593.6685 152.178 L 593.7689 152.178 L 593.7689 152.3101 L 593.8686 152.3101 L 593.8693 152.5778 L 593.969 152.5778 L 593.969 152.8455 L 594.0694 152.8455 L 594.0694 152.9776 L 594.1699 152.9776 L 594.1699 153.1114 L 594.2696 153.1114 L 594.2696 153.2453 L 594.4697 153.2453 L 594.4697 153.513 L 594.5701 153.513 L 594.5701 154.5803 L 594.6698 154.5803 L 594.6705 154.7142 L 594.4697 154.7142 L 594.4697 155.1158 L 594.5701 155.1158 L 594.5701 155.6494 L 594.6698 155.6494 L 594.6705 156.0492 L 594.7702 156.0492 L 594.7702 156.3169 L 594.8706 156.3169 L 594.8706 156.8506 L 594.971 156.8506 L 594.971 156.9844 L 595.07 156.9844 L 595.0707 157.1183 L 595.1711 157.1183 L 595.1711 157.3842 L 595.0707 157.3842 L 595.0707 157.5181 L 595.1711 157.5181 L 595.1711 157.6519 L 595.2715 157.6519 L 595.2715 157.9197 L 595.4716 157.9197 L 595.4716 157.993 L 595.4716 158.1856 L 595.5713 158.1856 L 595.5713 158.9869 L 595.6717 158.9869 L 595.6717 159.1208 L 595.7721 159.1208 L 595.7721 159.2547 L 595.8712 159.2547 L 595.8719 159.5224 L 595.9723 159.5224 L 595.9723 160.7236 L 595.8719 160.7236 L 595.8719 160.8574 L 595.6717 160.8574 L 595.6717 160.9913 L 595.4716 160.9913 L 595.4716 161.1233 L 595.2715 161.1233 L 595.2715 161.2572 L 595.0707 161.2572 L 595.0707 161.3911 L 594.971 161.3911 L 594.971 161.6588 L 594.8706 161.6588 L 594.8706 161.7908 L 594.5701 161.7908 L 594.5701 161.6588 L 594.37 161.6588 L 594.37 161.5249 L 594.0694 161.5249 L 594.0694 161.3911 L 593.8693 161.3911 L 593.8693 161.5249 L 593.6685 161.5249 L 593.6685 161.6588 L 593.5688 161.6588 L 593.5688 161.7908 L 593.2683 161.7908 L 593.2683 161.9247 L 592.2664 161.9247 L 592.2664 162.0586 L 591.9665 162.0586 L 591.9665 161.9247 L 591.5656 161.9247 L 591.5656 162.0586 L 591.2651 162.0586 L 591.2651 161.9247 L 590.6641 161.9247 L 590.6641 162.0586 L 590.1634 162.0586 L 590.1634 161.9247 L 589.8629 161.9247 L 589.8629 161.7908 L 589.7632 161.7908 L 589.7632 161.5249 L 589.6628 161.5249 L 589.6628 161.3911 L 589.5624 161.3911 L 589.5624 161.2572 L 589.4627 161.2572 L 589.4627 161.1233 L 589.3623 161.1233 L 589.3623 160.9913 L 588.9621 160.9913 L 588.9621 160.8574 L 588.7613 160.8574 L 588.7613 160.7236 L 588.5612 160.7236 L 588.5612 160.4558 L 588.4608 160.4558 L 588.4608 160.322 L 588.361 160.322 L 588.361 160.1899 L 588.1602 160.1899 L 588.1602 160.0561 L 587.5599 160.0561 L 587.5599 159.9222 L 587.4595 159.9222 L 587.4595 159.7883 L 587.3591 159.7883 L 587.3591 159.6544 L 587.159 159.6544 L 587.159 159.5224 L 587.0586 159.5224 L 587.0586 159.3885 L 586.8585 159.3885 L 586.8585 159.2547 L 586.6584 159.2547 L 586.6584 159.1208 L 586.4582 159.1208 L 586.4582 158.9869 L 585.8572 158.9869 L 585.8572 158.8531 L 585.7568 158.8531 L 585.7568 158.721 L 585.6571 158.721 L 585.6571 158.4533 L 585.5567 158.4533 L 585.5567 158.3194 L 585.4563 158.3194 L 585.4563 158.1856 L 585.2562 158.1856 L 585.2562 158.3194 L 584.8553 158.3194 L 584.8553 158.1856 L 584.5554 158.1856 L 584.5554 158.0535 L 584.455 158.0535 L 584.455 157.9197 L 584.0541 157.9197 L 584.0541 157.7858 L 583.9544 157.7858 L 583.9544 157.6519 L 583.7536 157.6519 L 583.7536 157.5181 L 583.6539 157.5181 L 583.6539 157.3842 L 583.5535 157.3842 L 583.5535 157.1183 L 583.4538 157.1183 L 583.4538 156.9844 L 583.3534 156.9844 L 583.3534 156.8506 L 583.253 156.8506 L 583.253 156.7167 L 583.1533 156.7167 L 583.1533 156.5847 L 583.0529 156.5847 L 583.0529 156.4508 L 582.8528 156.4508 L 582.8528 156.3169 L 582.6519 156.3169 L 582.6519 156.1831 L 582.3521 156.1831 L 582.3521 156.0492 L 582.0516 156.0492 L 582.0516 155.9153 L 581.8508 155.9153 L 581.8508 155.7833 L 581.551 155.7833 L 581.5503 155.6494 L 581.3502 155.6494 L 581.3502 155.5156 L 580.9499 155.5156 L 580.9499 155.3817 L 580.1488 155.3817 L 580.1488 155.2478 L 579.948 155.2478 L 579.948 155.3817 L 579.6475 155.3817 L 579.6475 155.5156 L 578.8463 155.5156 L 578.8463 155.6494 L 578.7466 155.6494 L 578.7466 155.7833 L 578.6462 155.7833 L 578.6462 155.9153 L 578.1456 155.9153 L 578.1456 156.0492 L 577.7447 156.0492 L 577.7447 156.1831 L 577.645 156.1831 L 577.645 156.3169 L 577.5446 156.3169 L 577.5446 156.4508 L 577.4442 156.4508 L 577.4442 156.5847 L 577.2441 156.5847 L 577.2441 156.4508 L 576.8438 156.4508 L 576.8438 156.5847 L 576.3425 156.5847 L 576.3425 156.7167 L 576.0427 156.7167 L 576.0427 156.8506 L 575.7422 156.8506 L 575.7422 156.9844 L 575.6418 156.9844 L 575.6418 157.1183 L 575.5414 157.1183 L 575.5414 157.2522 L 575.4417 157.2522 L 575.4417 157.5181 L 575.3413 157.5181 L 575.3413 157.3842 L 575.2409 157.3842 L 575.2409 157.5181 L 575.1411 157.5181 L 575.0407 157.5181 L 575.0407 157.6519 L 574.941 157.6519 L 574.941 157.7858 L 574.7402 157.7858 L 574.7402 157.9197 L 574.6254 157.9197 L 574.5401 157.9197 L 574.5401 158.0114 L 574.5401 158.0535 L 574.503 158.0535 L 574.2396 158.0535 L 574.2396 158.1856 L 574.0395 158.1856 L 574.0395 158.3194 L 573.9391 158.3194 L 573.9391 158.4533 L 573.739 158.4533 L 573.739 158.5872 L 573.5389 158.5872 L 573.5389 158.721 L 573.4385 158.721 L 573.4385 158.8531 L 573.3381 158.8531 L 573.3381 158.9869 L 573.2383 158.9869 L 573.2383 159.2547 L 573.1379 159.2547 L 573.1379 159.3885 L 573.0375 159.3885 L 573.0375 159.5224 L 572.9378 159.5224 L 572.9378 159.6544 L 572.8374 159.6544 L 572.8374 159.7883 L 572.6373 159.7883 L 572.6373 159.9222 L 572.5369 159.9222 L 572.5369 160.0561 L 572.3368 160.0561 L 572.3368 160.1899 L 572.2364 160.1899 L 572.2364 160.322 L 572.1367 160.322 L 572.1367 160.5897 L 572.0363 160.5897 L 572.0363 160.8574 L 571.9359 160.8574 L 571.9359 161.1233 L 571.8362 161.1233 L 571.8362 161.3911 L 571.7358 161.3911 L 571.7358 161.5249 L 571.6361 161.5249 L 571.6361 161.6588 L 571.5357 161.6588 L 571.5357 161.7908 L 571.3355 161.7908 L 571.3355 161.9247 L 571.2351 161.9247 L 571.2351 162.1924 L 571.3355 162.1924 L 571.3355 162.8599 L 571.2351 162.8599 L 571.2351 163.2597 L 571.1347 163.2597 L 571.1347 163.5201 L 571.035 163.5274 L 571.035 163.6613 L 570.9346 163.6613 L 570.9346 163.7952 L 570.8342 163.7952 L 570.8342 164.0262 L 570.8342 164.0611 L 570.7345 164.0611 L 570.7345 164.195 L 570.6341 164.195 L 570.6341 164.3288 L 570.5344 164.3288 L 570.5344 164.5966 L 570.434 164.5966 L 570.434 164.8625 L 570.3336 164.8625 L 570.3336 164.9963 L 570.2339 164.9963 L 570.2339 165.2641 L 570.1335 165.2641 L 570.1335 165.3961 L 570.0331 165.3961 L 570.0331 165.6638 L 569.9334 165.6638 L 569.9334 165.9316 L 569.833 165.9316 L 569.833 166.1975 L 569.7326 166.1975 L 569.7326 166.5991 L 569.6329 166.5991 L 569.6329 166.865 L 568.8317 166.865 L 568.8317 166.7329 L 568.3311 166.7329 L 568.3311 166.865 L 568.2307 166.865 L 568.2307 167.1327 L 568.1303 167.1327 L 568.1303 167.2666 L 568.0306 167.2666 L 568.0306 167.5343 L 567.9302 167.5343 L 567.9302 167.6663 L 567.8298 167.6663 L 567.8298 167.8002 L 567.73 167.8002 L 567.73 167.9341 L 566.9289 167.9341 L 566.9289 167.6663 L 566.3279 167.6663 L 566.3279 167.8002 L 566.2275 167.8002 L 566.2275 167.9341 L 565.927 167.9341 L 565.927 168.2018 L 565.6264 168.2018 L 565.6264 168.3338 L 565.5267 168.3338 L 565.5267 168.4677 L 565.4263 168.4677 L 565.4263 168.6016 L 565.3266 168.6016 L 565.3266 168.7355 L 565.2262 168.7355 L 565.2262 168.8693 L 565.0261 168.8693 L 565.0261 169.0032 L 564.9257 169.0032 L 564.9257 169.1352 L 564.8253 169.1352 L 564.8253 169.2691 L 564.6252 169.2691 L 564.6252 169.5368 L 564.5248 169.5368 L 564.5248 170.3382 L 564.4251 170.3382 L 564.4251 170.738 L 564.7256 170.738 L 564.7256 170.8718 L 564.8253 170.8718 L 564.8253 171.0057 L 565.2262 171.0057 L 565.2262 171.1396 L 565.4263 171.1396 L 565.4263 171.0057 L 565.5267 171.0057 L 565.5267 170.4721 L 565.4263 170.4721 L 565.4263 170.3382 L 565.3266 170.3382 L 565.3266 170.0705 L 565.2262 170.0705 L 565.2262 169.6707 L 565.3266 169.6707 L 565.3266 169.5368 L 565.4263 169.5368 L 565.4263 169.403 L 565.6264 169.403 L 565.6264 169.2691 L 566.2268 169.2691 L 566.2275 169.403 L 566.3279 169.403 L 566.3279 169.5368 L 566.4283 169.5368 L 566.4283 169.6707 L 566.7281 169.6707 L 566.7281 169.5368 L 566.9289 169.5368 L 566.9289 169.403 L 567.0286 169.403 L 567.0286 169.2691 L 567.129 169.2691 L 567.129 169.1352 L 567.4288 169.1352 L 567.4295 170.4721 L 567.3291 170.4721 L 567.3291 170.6041 L 567.129 170.6041 L 567.129 170.8718 L 567.0286 170.8718 L 567.0286 172.4746 L 566.9289 172.4746 L 566.9289 172.6084 L 566.8285 172.6084 L 566.8285 173.0082 L 566.9289 173.0082 L 566.9289 173.1421 L 566.8285 173.1421 L 566.8285 174.0773 L 566.7281 174.0773 L 566.7281 178.616 L 566.8285 178.616 L 566.8285 179.5512 L 566.9289 179.5512 L 566.9289 180.3526 L 567.0286 180.3526 L 567.0286 181.2878 L 567.129 181.2878 L 567.129 182.0892 L 567.2294 182.0892 L 567.2294 182.6229 L 567.3291 182.6229 L 567.3291 183.1565 L 567.4288 183.1565 L 567.4295 183.824 L 567.5299 183.824 L 567.5299 184.3595 L 567.6296 184.3595 L 567.6296 184.8931 L 567.73 184.8931 L 567.73 185.4267 L 567.8298 185.4267 L 567.8298 185.8283 L 567.9302 185.8283 Z" fill="#000000" fill-opacity="1" stroke="#000000" stroke-width="0" paint-order="fill" stroke-opacity="1" stroke-dasharray="" stroke-linecap="butt" stroke-linejoin="miter" stroke-miterlimit="10" transform="matrix(0.8999999761581421,0,0,0.8999999761581421,39.999961853027344,26.650115966796875)" clip-path="none" style="filter: url(#f1)"/>
<path data-code="202" d="M 204.7604 101.7869 L 205.8896 100.6389 L 208.4746 96.302 L 208.7689 92.8636 L 208.4464 88.5982 L 210.136 86.57 L 212.8406 85.897 L 213.4121 85.7539 L 215.4751 85.0516 L 219.7793 82.3504 L 221.5996 80.2617 L 223.8641 76.8985 L 225.5159 73.3134 L 225.1219 70.1153 L 224.4699 66.5998 L 224.6728 65.5527 L 226.5172 64.9293 L 228.4337 64.2801 L 230.3001 64.2599 L 232.9077 64.2342 L 236.3502 62.7269 L 238.3397 61.2231 L 239.6834 60.209 L 241.2974 59.6754 L 241.9259 59.4663 L 242.5799 59.2555 L 243.6279 59.4773 L 245.3306 59.8386 L 248.0875 60.6987 L 251.6662 61.313 L 255.707 61.2121 L 259.221 62.7929 L 260.4272 64.1444 L 262.2413 66.3083 L 264.9026 68.474 L 268.0975 69.82 L 273.5453 70.614 L 276.4019 70.8744 L 276.5243 70.8121 L 280.3224 68.9251 L 281.7465 68.9196 L 283.192 69.4661 L 284.39 71.1128 L 285.841 71.9362 L 287.86 73.3226 L 290.0901 73.3556 L 291.1856 71.111 L 290 68.8884 L 289.3124 65.5766 L 289.5455 64.1994 L 292.3161 63.1138 L 292.3925 63.0551 L 294.4981 61.4744 L 295.2732 59.5507 L 297.3905 55.9785 L 300.9802 54.9203 L 303.9901 53.3011 L 306.223 53.8989 L 309.2839 54.7938 L 310.0279 54.2345 L 310.3697 53.9796 L 310.4811 53.9539 L 312.5675 53.4716 L 313.9525 54.064 L 315.9083 55.7914 L 317.5697 56.9595 L 319.4986 57.572 L 322.2493 58.2139 L 323.6336 59.0941 L 326.1292 61.1351 L 328.3291 61.7549 L 331.0984 63.5264 L 333.2969 64.1462 L 335.5339 67.0308 L 335.996 68.3016 L 334.8957 72.4717 L 333.5197 80.3112 L 332.6683 82.7062 L 329.8784 88.0792 L 327.8347 92.7921 L 326.4304 95.0183 L 323.884 98.1248 L 316.5045 106.0762 L 314.8472 108.1704 L 313.4471 110.3984 L 311.4164 115.1187 L 309.167 119.4006 L 308.1747 121.6397 L 307.4932 124.1722 L 306.6081 129.3985 L 305.9638 131.9842 L 303.1608 138.5969 L 301.2332 145.3379 L 299.9439 147.2818 L 298.9453 148.0703 L 297.8279 148.6314 L 295.3825 149.2751 L 292.7618 149.519 L 288.6488 149.4695 L 284.4773 149.0349 L 280.442 148.0226 L 275.2776 145.536 L 272.6128 144.5696 L 269.8243 144.0158 L 262.7825 143.2071 L 260.1198 142.6789 L 257.7294 141.7932 L 252.4893 138.8829 L 247.8778 136.8639 L 242.6487 134.016 L 240.2686 133.1633 L 236.1928 132.5343 L 224.9623 131.942 L 222.2405 131.4267 L 220.9243 131.0031 L 217.6949 129.3343 L 208.6314 123.6844 L 206.8262 121.9459 L 205.6668 120.202 L 204.8326 117.8547 L 204.4407 115.2984 L 204.4579 111.2897 L 204.843 108.5866 L 206.7217 102.4691 L 204.7604 101.7869 Z" fill="#000000" fill-opacity="1" stroke="#000000" stroke-width="0" paint-order="fill" stroke-opacity="1" stroke-dasharray="" stroke-linecap="butt" stroke-linejoin="miter" stroke-miterlimit="10" transform="matrix(0.8999999761581421,0,0,0.8999999761581421,39.999961853027344,26.650115966796875)" clip-path="none" style="filter: url(#f1)"/>
<path data-code="203" d="M 460.4703 373.179 L 458.9217 379.2379 L 457.3944 388.2401 L 456.5788 390.5965 L 454.0729 396.1016 L 453.3728 398.5956 L 452.3372 403.7284 L 451.6089 406.2334 L 448.3768 412.7672 L 446.4307 417.5223 L 442.9401 423.9333 L 440.9238 428.6736 L 437.154 435.0901 L 433.7596 441.7083 L 427.2672 450.8975 L 424.5805 456.6593 L 423.3062 458.7774 L 417.2051 466.6426 L 414.1477 471.5718 L 413.4277 472.4521 L 411.6432 473.8458 L 405.7746 477.4932 L 403.6084 478.5733 L 402.3699 478.9841 L 399.8028 479.481 L 395.8562 479.7011 L 391.9131 479.4242 L 389.3508 478.8557 L 388.1137 478.3936 L 387.0058 477.8251 L 384.9634 476.4168 L 377.5152 469.6555 L 371.7703 465.082 L 370.6226 463.0318 L 369.0939 460.7781 L 363.9803 454.3047 L 362.4633 452.0638 L 359.7277 446.214 L 358.3132 443.9162 L 356.6263 441.7633 L 354.7634 439.7425 L 352.7623 437.8757 L 350.6195 436.2381 L 348.346 434.9728 L 343.8692 432.9006 L 338.6883 429.8986 L 334.065 427.9365 L 327.7528 424.5806 L 325.3253 423.8324 L 320.3555 422.778 L 317.9493 422.0499 L 311.5601 418.9508 L 309.0728 418.2906 L 306.4802 417.9496 L 302.4938 417.7717 L 295.7518 417.8377 L 295.705 377.8314 L 296.0482 372.0091 L 296.9476 367.8445 L 297.9262 365.5871 L 300.1488 361.3015 L 302.1155 356.5684 L 305.6488 350.1831 L 307.7634 345.4941 L 309.1869 343.2073 L 314.2407 336.756 L 315.7824 334.5298 L 317.0072 332.199 L 319.0681 327.576 L 322.0107 322.2488 L 324.0841 317.5414 L 325.3645 315.4344 L 328.4109 311.4697 L 333.825 311.4752 L 338.6869 312.8157 L 345.0933 315.8708 L 349.2118 316.7987 L 353.5256 317.1233 L 357.9178 317.2021 L 383.0331 317.0463 L 387.3813 317.259 L 390.2111 317.6239 L 392.9288 318.3281 L 398.2755 320.8734 L 400.5482 321.7261 L 406.7353 323.1088 L 410.2802 324.3155 L 415.5052 327.1047 L 418.859 328.6487 L 420.9516 329.9287 L 423.5751 332.4282 L 424.9704 334.4179 L 429.1398 343.3669 L 430.0324 345.661 L 430.6362 348.4777 L 431.3465 357.1369 L 431.885 359.939 L 432.9131 362.3981 L 433.5774 363.4287 L 435.1686 365.257 L 437.0474 366.7497 L 438.1312 367.375 L 447.8171 372.0916 L 450.1799 372.6839 L 452.6178 372.992 L 460.4703 373.179 Z" fill="#000000" fill-opacity="1" stroke="#000000" stroke-width="0" paint-order="fill" stroke-opacity="1" stroke-dasharray="" stroke-linecap="butt" stroke-linejoin="miter" stroke-miterlimit="10" transform="matrix(0.8999999761581421,0,0,0.8999999761581421,39.999961853027344,26.650115966796875)" clip-path="none" style="filter: url(#f1)"/>
<path data-code="204" d="M 214.7483 288.9707 L 213.6101 285.9578 L 213.0167 285.0519 L 211.4082 283.5958 L 204.6525 279.268 L 198.9482 276.7979 L 192.658 273.3889 L 189.3042 271.8668 L 188.2136 271.2598 L 186.3211 269.7946 L 184.7153 267.9865 L 183.483 265.8739 L 182.7032 263.3983 L 181.9564 258.4855 L 185.5254 255.1847 L 186.986 253.2849 L 192.3424 243.8609 L 194.3215 239.1316 L 196.9986 233.6907 L 197.8383 231.1068 L 198.4592 226.658 L 198.801 212.8733 L 199.257 208.3915 L 199.9426 205.5491 L 202.7957 198.8924 L 203.698 194.6581 L 204.0226 190.2056 L 204.1216 176.5548 L 204.4778 170.5949 L 205.3732 166.3533 L 207.813 160.8354 L 208.663 158.2883 L 209.2186 155.3505 L 210.5369 144.0268 L 208.6314 123.6844 L 217.6949 129.3343 L 220.9243 131.0031 L 222.2405 131.4267 L 224.9623 131.942 L 236.1928 132.5343 L 240.2686 133.1633 L 242.6487 134.016 L 247.8778 136.8639 L 252.4893 138.8829 L 257.7294 141.7932 L 260.1198 142.6789 L 262.7825 143.2071 L 269.8243 144.0158 L 272.6128 144.5696 L 275.2776 145.536 L 280.442 148.0226 L 284.4773 149.0349 L 288.6488 149.4695 L 292.7618 149.519 L 295.3825 149.2751 L 297.8279 148.6314 L 298.9453 148.0703 L 299.9439 147.2818 L 301.2332 145.3379 L 303.1608 138.5969 L 305.9638 131.9842 L 306.6081 129.3985 L 307.4932 124.1722 L 308.1747 121.6397 L 309.167 119.4006 L 311.4164 115.1187 L 313.4471 110.3984 L 314.8472 108.1704 L 316.5045 106.0762 L 323.884 98.1248 L 326.4304 95.0183 L 327.8347 92.7921 L 329.8784 88.0792 L 332.6683 82.7062 L 333.5197 80.3112 L 334.8957 72.4717 L 335.996 68.3016 L 336.672 70.1611 L 336.9856 72.987 L 336.4444 73.8232 L 336.9959 74.6869 L 340.0162 75.3416 L 342.4835 75.4149 L 346.054 76.6509 L 348.5193 78.4242 L 350.4262 80.7623 L 351.2129 83.6487 L 352.0051 85.6916 L 353.0662 88.015 L 353.5785 90.0432 L 354.0785 92.6454 L 355.1464 94.4022 L 356.7246 98.1853 L 359.6885 101.7099 L 361.3149 103.1898 L 362.6655 104.6641 L 363.4598 106.122 L 364.4961 109.311 L 365.8625 109.9235 L 368.0803 109.6906 L 368.9158 109.4229 L 370.2636 110.8917 L 370.7725 112.9163 L 371.7923 116.6829 L 373.6766 119.0338 L 377.8061 119.7105 L 380.5863 119.2044 L 381.677 119.804 L 382.7484 121.5553 L 384.3438 124.1813 L 385.6979 125.366 L 387.8627 127.4363 L 391.1642 128.0928 L 394.3908 127.6582 L 394.7724 127.6069 L 396.7227 127.0806 L 398.0774 128.2652 L 400.4905 131.4945 L 402.6168 134.9971 L 404.1909 138.4868 L 405.7443 142.8403 L 407.59 146.3355 L 409.8023 149.0312 L 409.772 149.0606 L 408.0941 150.9255 L 406.6314 152.9097 L 406.0325 153.9807 L 405.3097 156.1482 L 405.1687 158.2222 L 405.4913 160.2614 L 406.3969 162.462 L 408.6683 166.5734 L 410.6227 171.2899 L 414.2007 177.6642 L 415.75 181.4602 L 416.7863 183.4682 L 418.1926 185.4964 L 419.7791 187.4311 L 427.4591 195.9363 L 430.8975 200.4951 L 420.9654 210.5077 L 417.9822 213.2071 L 415.8814 214.775 L 413.6354 215.9999 L 410.1929 217.4927 L 403.9763 221.0594 L 399.3448 223.0032 L 393.1186 226.5792 L 388.4816 228.5175 L 382.2381 232.0531 L 377.6335 234.0739 L 374.5891 236.1645 L 370.9554 239.656 L 368.5926 242.603 L 367.3135 244.7357 L 365.3777 249.4981 L 362.5053 254.8528 L 360.5337 259.507 L 359.3413 261.8212 L 357.8105 263.9833 L 356.0817 266.039 L 348.7208 274.0179 L 347.071 276.1157 L 345.6792 278.3456 L 343.6437 283.0659 L 340.1179 289.4512 L 338.1986 294.2081 L 335.9327 298.479 L 334.9418 300.7291 L 334.5711 302.0017 L 334.1235 304.6424 L 333.825 311.4752 L 328.4109 311.4697 L 322.5299 305.4713 L 320.4573 303.6778 L 318.2464 302.1338 L 317.0649 301.5103 L 314.6567 300.6465 L 307.3604 298.7816 L 302.0426 296.2638 L 298.2563 295.1433 L 294.0635 294.6848 L 289.769 294.5528 L 268.015 294.7215 L 263.77 294.5088 L 261.0296 294.1274 L 257.3932 292.9446 L 252.2039 290.0233 L 247.666 287.9273 L 243.575 285.5287 L 241.4081 284.4761 L 238.918 283.7719 L 236.3317 283.4216 L 231.0806 283.429 L 227.231 284.0671 L 224.8929 284.9253 L 219.6211 287.6174 L 214.7483 288.9707 Z" fill="#000000" fill-opacity="1" stroke="#000000" stroke-width="0" paint-order="fill" stroke-opacity="1" stroke-dasharray="" stroke-linecap="butt" stroke-linejoin="miter" stroke-miterlimit="10" transform="matrix(0.8999999761581421,0,0,0.8999999761581421,39.999961853027344,26.650115966796875)" clip-path="none" style="filter: url(#f1)"/>
<path data-code="205" d="M 239.1931 423.7847 L 224.9087 423.1961 L 219.1886 423.2474 L 214.9676 423.5151 L 212.2286 423.9259 L 209.6127 424.6558 L 204.3196 427.2506 L 201.8928 428.14 L 197.7179 428.8332 L 193.4426 428.8772 L 189.2375 428.1969 L 186.7797 427.1974 L 183.7237 425.1821 L 177.9005 420.3903 L 173.4615 413.8162 L 172.353 411.5862 L 171.8984 410.2311 L 171.153 405.9785 L 170.9776 398.6653 L 171.3318 394.31 L 172.3454 390.1216 L 174.068 386.7987 L 179.7159 378.035 L 182.8868 367.5896 L 184.4692 363.1224 L 185.456 359.4218 L 217.38 392.5092 L 221.6463 397.2477 L 223.1579 399.2392 L 224.4225 401.3444 L 226.4188 406.0555 L 227.5762 408.0048 L 228.9474 409.857 L 234.9192 417.0822 L 239.1931 423.7847 Z" fill="#000000" fill-opacity="1" stroke="#000000" stroke-width="0" paint-order="fill" stroke-opacity="1" stroke-dasharray="" stroke-linecap="butt" stroke-linejoin="miter" stroke-miterlimit="10" transform="matrix(0.8999999761581421,0,0,0.8999999761581421,39.999961853027344,26.650115966796875)" clip-path="none" style="filter: url(#f1)"/>
<path data-code="206" d="M 457.7884 365.2423 L 460.4703 373.179 L 452.6178 372.992 L 450.1799 372.6839 L 447.8171 372.0916 L 438.1312 367.375 L 437.0474 366.7497 L 435.1686 365.257 L 433.5774 363.4287 L 432.9131 362.3981 L 431.885 359.939 L 431.3465 357.1369 L 430.6362 348.4777 L 430.0324 345.661 L 429.1398 343.3669 L 424.9704 334.4179 L 423.5751 332.4282 L 420.9516 329.9287 L 418.859 328.6487 L 415.5052 327.1047 L 410.2802 324.3155 L 406.7353 323.1088 L 400.5482 321.7261 L 398.2755 320.8734 L 392.9288 318.3281 L 390.2111 317.6239 L 387.3813 317.259 L 383.0331 317.0463 L 357.9178 317.2021 L 353.5256 317.1233 L 349.2118 316.7987 L 345.0933 315.8708 L 338.6869 312.8157 L 333.825 311.4752 L 334.1235 304.6424 L 334.5711 302.0017 L 334.9418 300.7291 L 335.9327 298.479 L 338.1986 294.2081 L 340.1179 289.4512 L 343.6437 283.0659 L 345.6792 278.3456 L 347.071 276.1157 L 348.7208 274.0179 L 356.0817 266.039 L 357.8105 263.9833 L 359.3413 261.8212 L 360.5337 259.507 L 362.5053 254.8528 L 365.3777 249.4981 L 367.3135 244.7357 L 368.5926 242.603 L 370.9554 239.656 L 374.5891 236.1645 L 377.6335 234.0739 L 382.2381 232.0531 L 388.4816 228.5175 L 393.1186 226.5792 L 399.3448 223.0032 L 403.9763 221.0594 L 410.1929 217.4927 L 413.6354 215.9999 L 415.8814 214.775 L 417.9822 213.2071 L 420.9654 210.5077 L 430.8975 200.4951 L 437.2227 204.2838 L 441.8804 206.2661 L 448.0908 209.8769 L 452.7044 211.8537 L 458.9182 215.4553 L 463.5814 217.3845 L 467.5493 219.5117 L 464.8969 228.0205 L 464.364 230.7969 L 464.0098 235.0954 L 463.7189 248.1887 L 463.252 252.4248 L 462.151 256.2483 L 459.6891 261.7442 L 458.7814 265.9179 L 458.3791 273.2917 L 458.4568 291.3308 L 458.2567 294.2741 L 457.8166 297.1458 L 456.9707 299.88 L 455.6745 302.2365 L 450.838 308.4879 L 449.504 310.7068 L 449.0205 311.9226 L 448.5997 314.4368 L 448.6423 315.7076 L 449.1966 318.0934 L 451.774 323.3032 L 453.7999 327.9427 L 456.6372 333.2919 L 457.8221 337.1411 L 458.3035 341.3974 L 458.4355 347.2234 L 458.2766 356.0586 L 457.7884 365.2423 Z" fill="#000000" fill-opacity="1" stroke="#000000" stroke-width="0" paint-order="fill" stroke-opacity="1" stroke-dasharray="" stroke-linecap="butt" stroke-linejoin="miter" stroke-miterlimit="10" transform="matrix(0.8999999761581421,0,0,0.8999999761581421,39.999961853027344,26.650115966796875)" clip-path="none" style="filter: url(#f1)"/>
<path data-code="207" d="M 629.022 306.2268 L 625.063 306.6724 L 622.5682 307.1364 L 620.2459 307.9286 L 614.8875 310.4904 L 605.0558 313.0247 L 598.6171 316.056 L 594.8733 316.9197 L 587.1108 317.7303 L 584.5871 318.2199 L 582.2565 319.0323 L 576.9167 321.5849 L 574.4989 322.2983 L 569.5256 323.3546 L 567.0981 324.1027 L 560.7708 327.4439 L 556.1626 329.4483 L 549.9481 333.0517 L 545.3599 335.1037 L 539.1674 338.7365 L 534.5875 340.7794 L 529.3742 343.6438 L 526.9611 344.5387 L 524.2654 345.065 L 520.0885 345.3987 L 514.4213 345.4354 L 508.7776 345.1677 L 506.0234 344.8449 L 503.3766 344.2783 L 501.0556 343.398 L 496.9908 341.3735 L 494.7208 340.75 L 492.2781 340.7134 L 489.9593 341.2873 L 480.3325 346.0717 L 478.0494 347.6433 L 474.862 350.471 L 465.564 359.5649 L 463.3538 361.3638 L 457.7884 365.2423 L 458.2766 356.0586 L 458.4355 347.2234 L 458.3035 341.3974 L 457.8221 337.1411 L 456.6372 333.2919 L 453.7999 327.9427 L 451.774 323.3032 L 449.1966 318.0934 L 448.6423 315.7076 L 448.5997 314.4368 L 449.0205 311.9226 L 449.504 310.7068 L 450.838 308.4879 L 455.6745 302.2365 L 456.9707 299.88 L 457.8166 297.1458 L 458.2567 294.2741 L 458.4568 291.3308 L 458.3791 273.2917 L 458.7814 265.9179 L 459.6891 261.7442 L 462.151 256.2483 L 463.252 252.4248 L 463.7189 248.1887 L 464.0098 235.0954 L 464.364 230.7969 L 464.8969 228.0205 L 467.5493 219.5117 L 474.2486 222.9226 L 479.4908 225.9648 L 481.9712 226.8909 L 484.7983 227.4374 L 489.1692 227.7675 L 493.6164 227.8335 L 540.0504 227.6134 L 544.4604 227.8188 L 548.7323 228.501 L 551.2093 229.3922 L 556.4329 232.2144 L 560.9991 234.2756 L 566.1388 237.3363 L 571.755 239.9898 L 577.9654 243.5859 L 582.5598 245.6177 L 588.8851 248.9461 L 591.3036 249.7163 L 597.4576 251.187 L 599.7228 252.0525 L 603.9541 254.1468 L 607.5589 255.2379 L 608.1909 255.3186 L 608.1909 256.0667 L 608.391 256.0667 L 608.391 256.2006 L 608.5911 256.2006 L 608.5911 257.134 L 608.6908 257.134 L 608.6915 257.4018 L 608.7912 257.4018 L 608.7912 257.5356 L 608.8916 257.5356 L 608.8916 257.4018 L 609.3923 257.4018 L 609.3923 257.5356 L 609.6928 257.5356 L 609.6928 257.6695 L 609.7932 257.6695 L 609.7932 257.8015 L 609.8922 257.8015 L 609.8929 257.9354 L 610.3942 257.9354 L 610.3942 258.0693 L 610.6934 258.0693 L 610.694 258.2031 L 610.7944 258.2031 L 610.7944 258.337 L 610.8948 258.337 L 610.8948 258.469 L 610.9946 258.469 L 610.9946 258.8706 L 611.0943 258.8706 L 611.095 259.1384 L 611.1954 259.1384 L 611.1954 259.4043 L 611.095 259.4043 L 611.095 259.5381 L 610.9946 259.5381 L 610.9946 259.9379 L 611.0943 259.9379 L 611.095 260.0718 L 611.2951 260.0718 L 611.2951 260.7393 L 611.1954 260.7393 L 611.1954 261.6745 L 611.3955 261.6745 L 611.3955 261.8084 L 611.7957 261.8084 L 611.7957 262.2357 L 611.7957 262.8757 L 611.8961 262.8757 L 611.8961 263.0095 L 612.3967 263.0095 L 612.3967 263.1434 L 612.7976 263.1434 L 612.7976 263.2773 L 612.9978 263.2773 L 612.9978 263.4111 L 613.0982 263.4111 L 613.0982 263.545 L 613.1979 263.545 L 613.1979 263.8109 L 613.0982 263.8109 L 613.0982 264.0786 L 612.9978 264.0786 L 612.9978 264.3445 L 612.8974 264.3445 L 612.8974 264.4784 L 612.7976 264.4784 L 612.7976 264.6123 L 612.6972 264.6123 L 612.6972 264.7461 L 612.5975 264.7461 L 612.5975 264.88 L 612.3967 264.88 L 612.3967 265.0139 L 611.5956 265.0139 L 611.5956 265.1459 L 611.3955 265.1459 L 611.3955 265.2798 L 611.095 265.2798 L 611.095 265.4137 L 610.694 265.4137 L 610.694 265.5475 L 610.4939 265.5475 L 610.4939 265.6814 L 610.3942 265.6814 L 610.3942 265.9473 L 610.2938 265.9473 L 610.2938 266.215 L 610.1934 266.215 L 610.1934 266.3489 L 609.9933 266.3489 L 609.9933 266.4828 L 609.7932 266.4828 L 609.7932 266.3489 L 609.1922 266.3489 L 609.1922 266.4828 L 609.0526 266.4828 L 608.7912 266.4828 L 608.7912 266.3489 L 608.6915 266.3489 L 608.6915 266.4828 L 608.2906 266.4828 L 608.2906 266.3489 L 607.9901 266.3489 L 607.9901 266.4828 L 607.6896 266.4828 L 607.6896 266.6148 L 607.5899 266.6148 L 607.5899 267.0164 L 607.4895 267.0164 L 607.4895 267.2823 L 607.3891 267.2823 L 607.3891 267.55 L 607.2893 267.55 L 607.2893 268.7512 L 607.1889 268.7512 L 607.1889 268.885 L 607.0892 268.885 L 607.0892 269.0189 L 606.9888 269.0189 L 606.9888 269.1528 L 606.8884 269.1528 L 606.8884 269.4205 L 606.7887 269.4205 L 606.7887 269.5525 L 606.6883 269.5525 L 606.6883 269.6864 L 606.5879 269.6864 L 606.5879 270.2201 L 606.6883 270.2201 L 606.6883 270.4878 L 606.7887 270.4878 L 606.7887 271.0214 L 606.8884 271.0214 L 606.8884 271.8228 L 606.7887 271.8228 L 606.7887 271.9567 L 606.8884 271.9567 L 606.8884 272.3583 L 606.9888 272.3583 L 606.9888 272.758 L 607.0892 272.758 L 607.0892 272.8919 L 607.1889 272.8919 L 607.1889 273.1578 L 607.2893 273.1578 L 607.2893 273.6933 L 607.3891 273.6933 L 607.3891 274.0931 L 607.4895 274.0931 L 607.4895 274.8944 L 607.5899 274.8944 L 607.5899 275.1622 L 607.6896 275.1622 L 607.6896 275.296 L 607.79 275.296 L 607.79 275.4281 L 607.8904 275.4281 L 607.8904 275.8297 L 607.9901 275.8297 L 607.9901 275.9635 L 608.0905 275.9635 L 608.0905 276.0956 L 608.1909 276.0956 L 608.1909 276.2294 L 608.391 276.2294 L 608.391 276.3633 L 608.4907 276.3633 L 608.4907 276.4972 L 608.5911 276.4972 L 608.5911 276.631 L 608.6908 276.631 L 608.6915 276.7649 L 608.5911 276.7649 L 608.5911 277.1647 L 608.391 277.1647 L 608.391 277.2985 L 608.2906 277.2985 L 608.2906 277.4324 L 608.1909 277.4324 L 608.1909 277.5644 L 608.0905 277.5644 L 608.0905 277.8322 L 607.9901 277.8322 L 607.9901 278.3658 L 608.0905 278.3658 L 608.0905 278.4997 L 608.1909 278.4997 L 608.1909 278.6336 L 608.2906 278.6336 L 608.2906 278.7674 L 608.7912 278.7674 L 608.7912 278.6336 L 608.8916 278.6336 L 608.8916 278.7674 L 609.0911 278.7674 L 609.0918 278.9013 L 610.0937 278.9013 L 610.0937 278.7674 L 610.2931 278.7674 L 610.2938 278.9013 L 610.5943 278.9013 L 610.5943 279.0333 L 610.6934 279.0333 L 610.694 279.4349 L 610.5943 279.4349 L 610.5943 279.7027 L 610.6934 279.7027 L 610.694 280.2363 L 610.7944 280.2363 L 610.7944 280.3702 L 610.8948 280.3702 L 610.8948 280.6361 L 610.9946 280.6361 L 610.9946 280.7699 L 611.0943 280.7699 L 611.095 281.0377 L 610.5943 281.0377 L 610.5943 281.1715 L 610.1934 281.1715 L 610.1934 281.3036 L 609.9933 281.3036 L 609.9933 281.5713 L 609.8929 281.5713 L 609.8929 281.9711 L 609.9933 281.9711 L 609.9933 282.1049 L 610.1934 282.1049 L 610.1934 281.9711 L 610.6934 281.9711 L 610.694 282.6404 L 610.7944 282.6404 L 610.7944 282.7724 L 610.8948 282.7724 L 610.8948 283.0402 L 610.9946 283.0402 L 610.9946 283.1741 L 611.0943 283.1741 L 611.095 283.5738 L 611.1954 283.5738 L 611.1954 283.8416 L 611.5956 283.8416 L 611.5956 283.7077 L 611.696 283.7077 L 611.696 283.5738 L 611.7957 283.5738 L 611.7957 283.7077 L 611.9965 283.7077 L 611.9965 283.8416 L 612.0962 283.8416 L 612.0962 283.9754 L 612.297 283.9754 L 612.297 284.1093 L 612.3967 284.1093 L 612.3967 284.2413 L 612.4971 284.2413 L 612.4971 284.5091 L 612.5975 284.5091 L 612.5975 284.6429 L 612.6972 284.6429 L 612.6972 284.7768 L 612.7976 284.7768 L 612.7976 284.9088 L 612.9978 284.9088 L 612.9978 284.7768 L 613.1979 284.7768 L 613.1979 284.9088 L 613.3987 284.9088 L 613.3987 285.0427 L 613.7989 285.0427 L 613.7989 285.1766 L 613.8993 285.1766 L 613.8993 285.4443 L 613.999 285.4443 L 613.999 285.7102 L 614.1998 285.7102 L 614.1998 285.8441 L 614.6 285.8441 L 614.6 285.9779 L 614.7004 285.9779 L 614.7004 286.2457 L 614.8002 286.2457 L 614.8002 286.3777 L 614.9006 286.3777 L 614.9006 286.5116 L 615.001 286.5116 L 615.001 286.6454 L 615.1007 286.6454 L 615.1007 286.7793 L 615.2011 286.7793 L 615.2011 287.0452 L 615.3015 287.047 L 615.3015 287.7146 L 615.4012 287.7146 L 615.4012 287.8466 L 615.5016 287.8466 L 615.5016 287.9805 L 615.602 287.9805 L 615.602 288.1143 L 615.8021 288.1143 L 615.8021 288.2482 L 616.1026 288.2482 L 616.1026 288.3821 L 616.2023 288.3821 L 616.2023 288.5141 L 616.3027 288.5141 L 616.3027 288.7818 L 616.5022 288.7818 L 616.5028 288.9157 L 616.9038 288.9157 L 616.9038 289.0496 L 617.8053 289.0496 L 617.8053 289.8509 L 617.905 289.8509 L 617.905 289.983 L 618.506 289.983 L 618.506 290.1168 L 618.6058 290.1168 L 618.6064 291.3198 L 618.7062 291.3198 L 618.7062 291.4518 L 618.8066 291.4518 L 618.8066 291.5857 L 619.0067 291.5857 L 619.0067 291.7196 L 619.4076 291.7196 L 619.4076 291.5857 L 619.8071 291.5857 L 619.8078 291.7196 L 620.3084 291.7196 L 620.3084 291.8535 L 620.5093 291.8535 L 620.5093 292.1212 L 620.6083 292.1212 L 620.609 292.2532 L 620.7094 292.2532 L 620.7094 292.3871 L 620.8098 292.3871 L 620.8098 292.7887 L 620.9095 292.7887 L 620.9095 293.0546 L 620.8098 293.0546 L 620.8098 293.4562 L 621.4094 293.4562 L 621.4101 293.5901 L 621.6109 293.5901 L 621.6109 295.0589 L 622.0111 295.0589 L 622.0111 295.191 L 623.2132 295.191 L 623.2132 295.3248 L 623.7138 295.3248 L 623.7138 295.4587 L 623.9133 295.4587 L 623.9139 295.5926 L 624.0143 295.5926 L 624.0143 295.8585 L 624.1147 295.8585 L 624.1147 296.1262 L 624.2145 296.1262 L 624.2145 295.9923 L 624.515 295.9923 L 624.515 296.1262 L 624.8155 296.1262 L 624.8155 296.394 L 624.9159 296.394 L 624.9159 297.0615 L 625.0156 297.0615 L 625.0156 297.3274 L 625.2164 297.3274 L 625.2164 297.4612 L 625.4165 297.4612 L 625.4165 297.1953 L 625.9171 297.1953 L 625.9171 297.3274 L 626.1173 297.3274 L 626.1173 297.4612 L 626.2177 297.4612 L 626.2177 297.8628 L 626.3181 297.8628 L 626.3181 297.9967 L 626.4178 297.9967 L 626.4178 297.8628 L 626.8187 297.8628 L 626.8187 297.9967 L 626.9184 297.9967 L 626.9184 298.1287 L 626.8187 298.1287 L 626.8187 298.3965 L 626.7183 298.3965 L 626.7183 298.6642 L 626.6179 298.6642 L 626.6179 298.7962 L 626.7183 298.7962 L 626.7183 299.1978 L 626.8187 299.1978 L 626.8187 299.4656 L 626.9184 299.4656 L 626.9184 299.5976 L 627.0188 299.5976 L 627.0188 299.7315 L 627.1192 299.7315 L 627.1192 299.9992 L 627.5194 299.9992 L 627.5194 300.1331 L 627.7195 300.1331 L 627.7195 300.2651 L 627.8199 300.2651 L 627.8199 300.399 L 627.9203 300.399 L 627.9203 300.8006 L 627.8199 300.8006 L 627.8199 300.9345 L 627.7195 300.9345 L 627.7195 301.0665 L 626.6179 301.0665 L 626.6179 301.2004 L 626.4178 301.2004 L 626.4178 301.3342 L 626.3181 301.3342 L 626.3181 301.4681 L 626.2177 301.4681 L 626.2177 301.8679 L 626.3181 301.8679 L 626.3181 302.4033 L 626.4178 302.4033 L 626.4178 302.6692 L 626.5182 302.6692 L 626.5182 302.937 L 626.6179 302.937 L 626.6179 304.272 L 626.7183 304.272 L 626.7183 304.4058 L 626.8187 304.4058 L 626.8187 304.5397 L 626.9184 304.5397 L 626.9184 304.6717 L 627.3193 304.6717 L 627.3193 304.5397 L 627.8199 304.5397 L 627.8199 304.8056 L 627.9203 304.8056 L 627.9203 304.9395 L 628.1205 304.9395 L 628.1205 305.0734 L 628.3206 305.0734 L 628.3206 305.2072 L 628.421 305.2072 L 628.421 305.3411 L 628.6211 305.3411 L 628.6211 305.4731 L 628.7215 305.4731 L 628.7215 305.7409 L 628.8212 305.7409 L 628.8212 306.0086 L 628.9216 306.0086 L 628.9216 306.1406 L 629.022 306.1406 L 629.022 306.2268 Z" fill="#000000" fill-opacity="1" stroke="#000000" stroke-width="0" paint-order="fill" stroke-opacity="1" stroke-dasharray="" stroke-linecap="butt" stroke-linejoin="miter" stroke-miterlimit="10" transform="matrix(0.8999999761581421,0,0,0.8999999761581421,39.999961853027344,26.650115966796875)" clip-path="none" style="filter: url(#f1)"/>








</svg>