<?xml version="1.0" standalone="no"?>
<!-- Generator: Paintmaps.com , Online SVG vector map maker -->
<svg xmlns="http://www.w3.org/2000/svg" version="1.1" baseProfile="full"   style="background-color:#e0f2f1" width="800" height="500" viewBox="0 0 800 533">

<path data-code="200" d="M 143.3069 327.2852 L 144.9983 328.1932 L 154.9776 333.9134 L 163.3529 339.2811 L 172.276 343.7438 L 175.4123 346.0527 L 178.1735 348.8516 L 180.472 352.0627 L 188.4273 368.2584 L 189.7591 372.258 L 190.4738 376.5833 L 190.7303 383.2145 L 190.2206 389.8129 L 188.7107 396.1096 L 184.3992 404.9363 L 182.98 408.8134 L 181.8576 415.2445 L 181.619 419.6474 L 181.7322 424.0593 L 182.7425 430.5591 L 184.2245 434.5229 L 187.3306 439.7293 L 195.4729 451.6207 L 175.9814 451.3459 L 160.9256 450.0017 L 156.3789 444.0635 L 149.7589 436.7363 L 102.4677 387.7279 L 101.7083 386.9602 L 102.0353 386.9602 L 102.0353 386.7422 L 102.5237 386.7422 L 102.5237 386.5271 L 102.8508 386.5271 L 102.8508 386.3091 L 103.0132 386.3091 L 103.0132 386.091 L 103.1768 386.091 L 103.1768 385.873 L 103.5027 385.873 L 103.5027 385.6549 L 103.6663 385.6549 L 103.6663 385.4398 L 103.8298 385.4398 L 103.8298 385.0037 L 103.9922 385.0037 L 103.9922 384.5676 L 104.1558 384.5676 L 104.1558 383.6984 L 104.3182 383.6984 L 104.3182 383.0472 L 104.4817 383.0472 L 104.4817 382.3931 L 104.8077 382.3931 L 104.8077 381.957 L 104.9712 381.957 L 104.9712 381.7419 L 105.1348 381.7419 L 105.1348 381.3058 L 105.2972 381.3058 L 105.2972 380.8697 L 105.4607 380.8697 L 105.4607 380.4366 L 105.6243 380.4366 L 105.6243 380.0004 L 105.7867 380.0004 L 105.7867 379.406 L 105.7867 378.4771 L 105.9502 378.4771 L 105.9502 377.1717 L 105.7867 377.1717 L 105.7867 376.9567 L 105.4607 376.9567 L 105.4607 376.5205 L 105.6243 376.5205 L 105.6243 373.9099 L 105.7867 373.9099 L 105.7867 373.4768 L 105.9502 373.4768 L 105.9502 373.0406 L 106.2762 373.0406 L 106.2762 372.8226 L 106.6021 372.8226 L 106.6021 372.6045 L 106.7657 372.6045 L 106.7657 372.1714 L 106.9292 372.1565 L 106.9292 371.7353 L 107.1185 371.7353 L 107.2552 371.7353 L 107.2552 371.5173 L 107.4187 371.5173 L 107.4187 371.2992 L 107.5912 371.2992 L 107.7447 371.2992 L 107.7447 371.0841 L 108.2342 371.0841 L 108.2342 370.8661 L 108.8861 370.8661 L 108.8861 370.648 L 109.2132 370.648 L 109.2132 370.43 L 109.3756 370.43 L 109.3756 369.5607 L 109.5391 369.5607 L 109.5391 369.3427 L 109.7016 369.3427 L 109.7016 369.1246 L 110.3546 369.1246 L 110.3546 368.9066 L 110.8441 368.9066 L 110.8441 368.6915 L 111.1701 368.6915 L 111.1701 368.4735 L 111.3336 368.4735 L 111.3336 368.0374 L 111.6596 368.0374 L 111.6596 367.8193 L 111.8231 367.8193 L 111.8231 367.6012 L 112.475 367.6012 L 112.475 367.8193 L 112.6386 367.8193 L 112.6386 367.1681 L 112.9645 367.1681 L 112.9645 366.9501 L 113.1281 366.9501 L 113.1281 366.732 L 113.6176 366.732 L 113.6176 366.514 L 113.9435 366.514 L 113.9435 366.2989 L 114.1071 366.2989 L 114.1071 365.4267 L 114.5955 365.4267 L 114.5966 365.2086 L 114.9225 365.2086 L 114.9225 364.7755 L 115.085 364.7755 L 115.085 364.3394 L 115.2485 364.3394 L 115.2485 364.1213 L 115.412 364.1213 L 115.412 363.9063 L 115.5745 363.9063 L 115.5745 363.6882 L 115.738 363.6882 L 115.738 363.4702 L 115.9015 363.4702 L 115.9015 363.2521 L 116.064 363.2521 L 116.064 363.0341 L 116.2275 363.0341 L 116.2275 362.816 L 116.3899 362.816 L 116.391 362.6009 L 116.5535 362.6009 L 116.5535 362.3829 L 116.717 362.3829 L 116.717 362.1648 L 116.8794 362.1648 L 116.8794 361.9468 L 117.043 361.9468 L 117.043 361.7287 L 117.696 361.7287 L 117.696 361.5137 L 118.022 361.5137 L 118.022 361.2956 L 118.1844 361.2956 L 118.1844 361.0775 L 118.5115 361.0775 L 118.5115 360.8595 L 119.001 360.8595 L 119.001 360.6414 L 119.3269 360.6414 L 119.3269 360.4234 L 119.6529 360.4234 L 119.6529 360.2083 L 119.9789 360.2083 L 119.9789 359.9903 L 120.3059 359.9903 L 120.3059 359.7722 L 120.6319 359.7722 L 120.6319 359.5542 L 120.9579 359.5542 L 120.9579 359.3361 L 121.1214 359.3331 L 121.1214 359.121 L 121.4474 359.121 L 121.4474 358.903 L 121.6109 358.903 L 121.6109 358.6849 L 121.9369 358.6849 L 121.9369 358.4669 L 122.1004 358.4669 L 122.1004 358.0308 L 122.2628 358.0308 L 122.2628 357.8157 L 123.0794 357.8157 L 123.0794 357.5976 L 123.4054 357.5976 L 123.4054 357.3796 L 123.5678 357.3796 L 123.5678 357.1615 L 123.7313 357.1615 L 123.7313 356.7284 L 124.2208 356.7284 L 124.2208 356.5104 L 124.3844 356.5104 L 124.3844 356.2923 L 125.0363 356.2923 L 125.0363 356.0743 L 125.1998 356.0743 L 125.1998 355.6381 L 125.5258 355.6381 L 125.5258 355.4231 L 125.8517 355.4231 L 125.8517 355.205 L 126.0153 355.205 L 126.0153 354.7689 L 126.1788 354.7689 L 126.1788 354.5509 L 126.3413 354.5509 L 126.3413 354.3358 L 126.8308 354.3358 L 126.8308 354.1177 L 126.9943 354.1148 L 126.9943 353.6816 L 127.1567 353.6816 L 127.1567 353.4636 L 127.4838 353.4636 L 127.4838 353.2455 L 127.6462 353.2455 L 127.6462 352.8124 L 127.9733 352.8124 L 127.9733 352.5944 L 128.2993 352.5944 L 128.2993 352.1582 L 127.9733 352.1582 L 127.9733 351.7251 L 127.8098 351.7251 L 127.8098 350.8529 L 127.6462 350.8529 L 127.6462 350.4198 L 127.8098 350.4198 L 127.8098 350.2017 L 127.9733 350.2017 L 127.9733 349.7656 L 128.1357 349.7656 L 128.1357 349.5506 L 128.2993 349.5506 L 128.2993 348.4603 L 128.1357 348.4603 L 128.1357 348.2452 L 127.9733 348.2452 L 127.9733 347.5911 L 128.1357 347.5911 L 128.1357 347.1579 L 128.2993 347.1579 L 128.2993 346.9399 L 128.4628 346.9399 L 128.4628 346.7218 L 128.6252 346.7218 L 128.6252 346.2857 L 128.7888 346.2857 L 128.7888 345.8526 L 128.9512 345.8526 L 128.9512 344.9804 L 128.7888 344.9804 L 128.7888 344.7653 L 128.6252 344.7653 L 128.6252 344.3292 L 128.4628 344.3292 L 128.4628 343.8931 L 128.2993 343.8931 L 128.2993 343.2419 L 128.1357 343.2419 L 128.1357 342.5878 L 128.2993 342.5878 L 128.2993 342.1546 L 128.6252 342.1546 L 128.6252 341.9366 L 128.7888 341.9366 L 128.7888 341.7185 L 128.9512 341.7185 L 128.9512 341.5005 L 129.1147 341.5005 L 129.1147 341.2854 L 129.7678 341.2854 L 129.7678 341.7185 L 129.6042 341.7185 L 129.6042 341.9366 L 129.4407 341.9366 L 129.4407 342.1546 L 129.2783 342.1546 L 129.2783 342.3727 L 128.9512 342.3727 L 128.9512 342.8058 L 129.1147 342.8058 L 129.1147 343.0239 L 129.4407 343.0239 L 129.4407 343.2419 L 129.9302 343.2419 L 129.9302 343.8931 L 130.0657 343.8931 L 130.0937 343.8931 L 130.0937 344.1022 L 130.2573 344.1112 L 130.2573 343.8931 L 130.4197 343.8931 L 130.4197 343.678 L 130.5832 343.678 L 130.5832 343.46 L 130.9092 343.46 L 130.9092 342.8058 L 131.2351 342.8058 L 131.2351 342.5878 L 131.3987 342.5878 L 131.3987 342.3727 L 131.7246 342.3727 L 131.7246 342.1546 L 131.8882 342.1546 L 131.8882 341.9366 L 132.0517 341.9366 L 132.0517 341.7185 L 132.2141 341.7185 L 132.2141 341.5005 L 132.3777 341.5005 L 132.3777 341.2854 L 132.7036 341.2854 L 132.7036 341.0674 L 133.0296 341.0674 L 133.0296 340.8493 L 133.1931 340.8493 L 133.1931 340.6313 L 133.5191 340.6313 L 133.5191 340.4132 L 133.6826 340.4132 L 133.6826 339.9801 L 133.8451 339.9801 L 133.8462 339.544 L 134.0086 339.544 L 134.0086 339.1079 L 134.1721 339.1079 L 134.1721 338.8928 L 134.4981 338.8928 L 134.4981 338.6747 L 134.6617 338.6747 L 134.6617 338.4567 L 134.9876 338.4567 L 134.9876 338.2386 L 135.3136 338.2386 L 135.3136 338.0206 L 135.6395 338.0176 L 135.6395 337.8025 L 135.8031 337.8025 L 135.8031 337.5875 L 136.129 337.5875 L 136.129 337.3694 L 136.2926 337.3694 L 136.2926 337.1514 L 136.4561 337.1514 L 136.4561 336.9333 L 136.6185 336.9333 L 136.6185 336.7152 L 136.7821 336.7152 L 136.7821 336.5002 L 137.108 336.5002 L 137.108 336.2821 L 137.2716 336.2821 L 137.2716 336.0641 L 137.5975 336.0641 L 137.5975 335.846 L 137.7611 335.846 L 137.7611 335.628 L 138.087 335.628 L 138.087 335.4099 L 138.2506 335.4099 L 138.2506 335.1948 L 138.5765 335.1948 L 138.5765 334.9768 L 138.7401 334.9768 L 138.7401 334.7587 L 138.9025 334.7587 L 138.9025 334.5407 L 139.066 334.5407 L 139.066 334.3226 L 139.1736 334.3226 L 139.2285 334.3226 L 139.2285 334.2718 L 139.2285 334.1076 L 139.392 334.1076 L 139.392 333.8895 L 139.5555 333.8895 L 139.5555 333.6715 L 139.718 333.6715 L 139.718 333.4534 L 139.8815 333.4534 L 139.8815 333.2353 L 140.045 333.2353 L 140.045 333.0173 L 140.2075 333.0173 L 140.2075 332.8022 L 140.371 332.7992 L 140.371 332.5842 L 140.5345 332.5842 L 140.5345 332.3661 L 140.697 332.3661 L 140.697 331.93 L 140.8605 331.93 L 140.8605 331.7149 L 141.0229 331.7149 L 141.0229 331.4969 L 141.1865 331.4969 L 141.1865 331.2788 L 141.35 331.2788 L 141.35 331.0608 L 141.4665 331.0608 L 141.5124 331.0608 L 141.5124 330.9861 L 141.5124 330.6247 L 141.7275 330.6247 L 141.8395 330.6247 L 141.8395 330.4096 L 142.0019 330.4096 L 142.0019 330.1916 L 142.1655 330.1916 L 142.1655 329.7554 L 142.2484 329.7554 L 142.329 329.7554 L 142.329 329.3223 L 142.4914 329.3223 L 142.4914 328.8862 L 142.655 328.8862 L 142.655 328.6682 L 142.8174 328.6682 L 142.8174 328.4501 L 142.9809 328.4501 L 142.9809 328.017 L 143.1445 328.017 L 143.1445 327.5809 L 143.3069 327.5809 L 143.3069 327.2852 Z" fill="#000000" fill-opacity="1" stroke="#000000" stroke-width="0" paint-order="fill" stroke-opacity="1" stroke-dasharray="" stroke-linecap="butt" stroke-linejoin="miter" stroke-miterlimit="10" transform="matrix(0.8500000238418579,0,0,0.8500000238418579,59.999820709228516,39.97526931762695)" clip-path="none" style="filter: url(#f1)"/>
<path data-code="201" d="M 527.45 237.3543 L 520.1198 235.6039 L 508.9901 231.5834 L 505.2757 229.2654 L 500.2373 224.8984 L 495.7433 219.907 L 492.0603 214.3601 L 488.7727 206.6655 L 484.3459 197.8477 L 482.9714 193.7585 L 481.9342 186.8853 L 481.5153 175.0387 L 481.8188 163.1742 L 482.7284 156.2592 L 484.0737 151.8832 L 486.2019 148.015 L 494.3341 137.6798 L 496.7649 134.0177 L 497.7573 132.0253 L 498.51 129.9792 L 499.4913 125.7107 L 500.235 116.8512 L 499.9035 105.6766 L 499.2695 101.3066 L 498.0709 97.0919 L 495.2123 91.7063 L 486.2187 78.7186 L 476.7143 67.8757 L 477.5657 67.8757 L 477.5657 68.0907 L 479.5225 68.0907 L 479.5225 67.8757 L 480.012 67.8757 L 480.012 67.6576 L 480.5015 67.6576 L 480.5015 67.4395 L 480.991 67.4395 L 480.991 67.2215 L 482.296 67.2215 L 482.296 67.0034 L 483.7645 67.0034 L 483.7645 66.7854 L 484.9059 66.7854 L 484.9059 66.5703 L 485.7214 66.5703 L 485.7214 66.3523 L 486.538 66.3523 L 486.538 66.1342 L 486.8639 66.1342 L 486.8639 65.9162 L 487.0264 65.9162 L 487.0264 65.6981 L 487.3534 65.6981 L 487.3534 65.483 L 487.6794 65.483 L 487.6794 65.265 L 488.3324 65.265 L 488.3324 65.0469 L 488.6584 65.0469 L 488.6584 64.8289 L 488.9844 64.8289 L 488.9844 64.6108 L 489.6374 64.6108 L 489.6374 64.3928 L 490.2893 64.3928 L 490.2893 64.1777 L 490.4517 64.1777 L 491.1059 64.1777 L 491.1059 63.9596 L 491.4307 63.9596 L 491.4307 63.7416 L 491.5943 63.7416 L 491.5943 63.5235 L 491.7578 63.5235 L 491.7578 63.3055 L 491.9214 63.3055 L 491.9214 63.0904 L 492.0849 63.0904 L 492.0849 62.8724 L 492.2462 62.8724 L 492.2462 62.6543 L 492.4097 62.6543 L 492.4097 62.4363 L 493.2252 62.4363 L 493.2252 62.2182 L 493.0639 62.2182 L 493.0639 62.0001 L 493.3888 62.0001 L 493.3888 61.7851 L 493.5523 61.7851 L 493.5523 61.567 L 493.7158 61.567 L 493.7158 61.1309 L 493.8794 61.1309 L 493.8794 60.9129 L 494.0407 60.9129 L 494.0407 60.6978 L 494.2042 60.6978 L 494.2042 60.4797 L 494.3678 60.4768 L 494.3678 60.2617 L 495.6738 60.2617 L 495.6738 60.0436 L 495.9987 60.0436 L 495.9987 59.8256 L 496.1622 59.8256 L 496.1622 59.6075 L 496.4893 59.6075 L 496.4893 59.3925 L 496.6506 59.3925 L 496.6506 59.1744 L 496.8141 59.1744 L 496.8141 58.9564 L 497.1412 58.9564 L 497.1412 58.7383 L 497.3048 58.7383 L 497.3048 57.8691 L 497.4683 57.8691 L 497.4683 57.651 L 497.7931 57.651 L 497.7931 57.433 L 497.9567 57.433 L 497.9567 57.2179 L 498.1202 57.2149 L 498.1202 56.9998 L 498.2838 56.9998 L 498.2838 56.7818 L 498.1202 56.7818 L 498.1202 56.3457 L 497.9567 56.3457 L 497.9567 56.1276 L 497.7931 56.1276 L 497.7931 55.9126 L 497.6296 55.9126 L 497.6296 55.6945 L 497.4683 55.6945 L 497.4683 55.0403 L 498.1202 55.0403 L 498.1202 55.2584 L 498.4451 55.2584 L 498.4451 55.4764 L 498.6086 55.4764 L 498.6086 55.6945 L 498.9357 55.6945 L 498.9357 55.9126 L 499.0992 55.9126 L 499.0992 56.1276 L 499.7511 56.1276 L 499.7511 56.3457 L 500.0782 56.3457 L 500.0782 56.1276 L 500.2395 56.1276 L 500.2395 55.9126 L 500.5666 55.9126 L 500.5666 55.6945 L 500.8937 55.6945 L 500.8937 55.4764 L 501.0572 55.4764 L 501.0572 55.2584 L 501.3821 55.2584 L 501.3821 55.0403 L 501.5456 55.0403 L 501.5456 54.8223 L 501.3821 54.8223 L 501.3821 54.6072 L 501.2185 54.6072 L 501.2185 54.1711 L 501.0572 54.1711 L 501.0572 53.9531 L 502.1975 53.9531 L 502.1975 53.735 L 502.3611 53.735 L 502.3611 53.5199 L 502.6882 53.5199 L 502.6882 53.3019 L 503.2998 56.1635 L 503.2527 56.1933 L 505.3294 64.2255 L 509.4045 75.9227 L 511.0242 79.2623 L 514.5616 84.1789 L 521.5177 91.7809 L 541.9356 112.6872 L 614.3684 187.7336 L 618.3023 192.4293 L 620.5717 195.7389 L 622.2205 199.0067 L 624.0307 203.6665 L 625.4891 206.7043 L 627.2948 209.6227 L 635.0215 220.7793 L 618.9542 224.7221 L 614.962 225.9916 L 604.65 231.5057 L 597.1832 234.8303 L 587.131 240.8044 L 579.6955 244.2066 L 571.2452 248.9709 L 567.421 250.4286 L 563.2631 251.268 L 559.0088 251.6443 L 552.5904 251.5189 L 548.3697 250.9125 L 544.2946 249.6729 L 539.1129 246.6679 L 527.45 237.3543 Z" fill="#000000" fill-opacity="1" stroke="#000000" stroke-width="0" paint-order="fill" stroke-opacity="1" stroke-dasharray="" stroke-linecap="butt" stroke-linejoin="miter" stroke-miterlimit="10" transform="matrix(0.8500000238418579,0,0,0.8500000238418579,59.999820709228516,39.97526931762695)" clip-path="none" style="filter: url(#f1)"/>
<path data-code="202" d="M 544.3977 479.7019 L 521.5446 479.2658 L 451.1707 479.3584 L 438.8032 478.8536 L 434.009 478.1994 L 429.4198 476.9986 L 418.8994 472.297 L 414.4222 471.15 L 407.3721 470.3495 L 388.0933 469.7102 L 381.0421 468.9127 L 376.5637 467.7657 L 366.04 463.07 L 359.159 461.5048 L 349.4832 460.8118 L 335.505 460.6326 L 333.1561 453.5683 L 332.3664 449.2072 L 331.8354 442.5043 L 331.3067 426.7476 L 330.5506 420.215 L 329.4921 416.1227 L 325.5615 407.4782 L 324.568 403.6459 L 324.5164 399.5208 L 325.4473 395.6077 L 329.6321 386.9871 L 332.9668 379.3493 L 335.3695 375.6125 L 339.7537 370.5136 L 344.6711 365.9584 L 348.194 363.3477 L 351.8837 361.3285 L 357.4418 358.7745 L 361.0845 356.4446 L 364.5581 353.6727 L 371.214 347.4716 L 379.2958 339.2692 L 385.5316 332.5513 L 389.778 327.2911 L 392.1258 323.5394 L 395.4605 315.8717 L 399.0853 308.894 L 400.6524 305.202 L 401.9528 298.8217 L 402.4446 287.7129 L 407.614 281.2728 L 409.8364 277.8048 L 411.716 273.9277 L 414.8972 265.9642 L 420.9919 262.6068 L 425.3526 261.3134 L 429.9306 260.6114 L 437.0009 260.1514 L 446.5826 260.0051 L 463.2749 260.5218 L 467.8899 261.173 L 472.3144 262.4066 L 475.853 264.0854 L 482.5693 267.8998 L 489.9824 271.2423 L 496.7156 274.9223 L 500.2619 276.4577 L 506.3488 277.5808 L 513.9881 277.3389 L 517.9534 294.0245 L 519.7098 297.7822 L 520.8434 299.431 L 523.5183 302.3553 L 526.6457 304.7121 L 528.4447 305.6799 L 533.9401 308.0755 L 542.5091 312.4844 L 546.275 313.8136 L 556.2667 315.8926 L 560.0953 317.2935 L 561.7755 318.2703 L 564.7775 320.7256 L 567.2799 323.6679 L 572.8022 334.0418 L 576.5995 338.4179 L 579.6373 340.7836 L 588.4192 345.536 L 596.3587 351.7191 L 588.3789 357.8276 L 577.4889 363.5299 L 573.9806 366.1704 L 569.108 370.7526 L 564.7865 375.8694 L 562.4207 379.6091 L 559.1006 387.2948 L 554.7321 396.1573 L 552.9869 402.23 L 551.3582 417.4161 L 550.5674 421.6368 L 549.2681 425.514 L 545.2221 434.4781 L 543.7659 441.2139 L 543.2215 448.2782 L 543.1252 460.307 L 543.4725 469.982 L 544.3977 479.7019 Z" fill="#000000" fill-opacity="1" stroke="#000000" stroke-width="0" paint-order="fill" stroke-opacity="1" stroke-dasharray="" stroke-linecap="butt" stroke-linejoin="miter" stroke-miterlimit="10" transform="matrix(0.8500000238418579,0,0,0.8500000238418579,59.999820709228516,39.97526931762695)" clip-path="none" style="filter: url(#f1)"/>
<path data-code="203" d="M 143.3069 327.2852 L 143.3069 326.9297 L 143.4704 326.9297 L 143.4704 325.6244 L 143.634 325.6244 L 143.634 325.4063 L 143.7964 325.4063 L 143.7964 323.2317 L 143.634 323.2317 L 143.634 322.5776 L 143.4704 322.5776 L 143.4704 322.3595 L 143.3069 322.3595 L 143.3058 322.1445 L 142.9809 322.1445 L 142.9809 321.9264 L 142.4914 321.9234 L 142.4914 321.7084 L 142.329 321.7084 L 142.329 321.4903 L 142.1655 321.4903 L 142.1655 321.2722 L 142.0019 321.2722 L 142.0019 321.0542 L 141.676 321.0542 L 141.676 320.8391 L 141.0229 320.8391 L 141.0229 320.6211 L 140.697 320.6211 L 140.6958 320.403 L 140.5345 320.403 L 140.5345 320.185 L 140.2075 320.185 L 140.2075 319.9669 L 140.045 319.9669 L 140.045 319.5338 L 139.8815 319.5338 L 139.8815 319.0977 L 139.718 319.0977 L 139.718 318.6616 L 139.5555 318.6616 L 139.5555 318.4465 L 139.392 318.4465 L 139.392 318.0104 L 139.5555 318.0104 L 139.5555 317.7923 L 139.392 317.7923 L 139.392 316.0539 L 139.5555 316.0539 L 139.5555 315.6178 L 139.718 315.6178 L 139.718 315.3997 L 139.8815 315.3997 L 139.8815 314.9666 L 140.045 314.9666 L 140.045 313.8763 L 139.8815 313.8763 L 139.8815 312.7891 L 140.045 312.7891 L 140.045 312.3559 L 140.2075 312.3559 L 140.2075 312.1379 L 140.371 312.1379 L 140.371 311.9198 L 140.5345 311.9198 L 140.5345 311.4837 L 140.697 311.4837 L 140.697 311.0506 L 140.8605 311.0506 L 140.8605 310.1814 L 140.697 310.1814 L 140.6958 309.7453 L 140.5345 309.7453 L 140.5345 304.0908 L 140.371 304.0908 L 140.371 303.8727 L 140.2075 303.8727 L 140.2075 303.6547 L 140.045 303.6547 L 140.045 303.4366 L 139.8815 303.4366 L 139.8815 303.2186 L 139.718 303.2186 L 139.718 303.0035 L 139.8815 303.0035 L 139.8815 302.5674 L 140.045 302.5674 L 140.045 302.1313 L 140.371 302.1313 L 140.371 301.9162 L 140.5345 301.9132 L 140.5345 301.6982 L 140.697 301.6982 L 140.697 301.4801 L 140.8605 301.4801 L 140.8605 301.2621 L 141.0229 301.2621 L 141.0229 301.044 L 141.1865 301.044 L 141.1865 300.826 L 141.35 300.826 L 141.3489 299.7387 L 141.1865 299.7387 L 141.1865 298.8694 L 141.35 298.8694 L 141.35 298.4333 L 141.5124 298.4333 L 141.5124 298.0002 L 141.676 298.0002 L 141.676 297.7822 L 141.8395 297.7822 L 141.8395 297.131 L 141.676 297.128 L 141.676 296.2588 L 141.8395 296.2588 L 141.8395 295.3895 L 141.676 295.3895 L 141.676 293.433 L 141.8395 293.433 L 141.8395 292.9969 L 142.0019 292.9969 L 142.0019 292.5608 L 142.1655 292.5608 L 142.1655 292.3458 L 142.0019 292.3458 L 142.0019 291.6916 L 142.1655 291.6916 L 142.1655 291.0404 L 142.329 291.0404 L 142.329 290.8224 L 142.4914 290.8224 L 142.4914 290.3863 L 142.655 290.3863 L 142.6539 289.7351 L 142.4914 289.7321 L 142.4914 289.299 L 142.329 289.299 L 142.329 288.8629 L 142.0019 288.8629 L 142.0019 288.2117 L 141.8395 288.2117 L 141.8395 287.5605 L 141.676 287.5605 L 141.676 287.3425 L 141.5124 287.3425 L 141.5124 286.9064 L 141.35 286.9064 L 141.3489 286.4702 L 141.1865 286.4702 L 141.1865 286.0371 L 141.0229 286.0371 L 141.0229 285.8191 L 140.8605 285.8191 L 140.8605 285.383 L 140.697 285.383 L 140.6958 285.1679 L 140.5345 285.1679 L 140.5345 284.7318 L 140.2075 284.7318 L 140.2075 284.0776 L 140.045 284.0776 L 140.045 283.8626 L 139.8815 283.8626 L 139.8815 283.4264 L 139.718 283.4264 L 139.718 282.7753 L 139.5555 282.7753 L 139.5555 282.1211 L 139.392 282.1211 L 139.392 281.4699 L 139.718 281.4699 L 139.718 281.0338 L 140.045 281.0338 L 140.045 281.4699 L 140.371 281.4699 L 140.371 281.685 L 140.2075 281.685 L 140.2075 282.3392 L 140.371 282.3392 L 140.371 282.5542 L 140.6958 282.5572 L 140.697 282.7753 L 141.1865 282.7753 L 141.1865 282.9903 L 141.3489 282.9903 L 141.35 283.2084 L 141.5124 283.2084 L 141.5124 283.4264 L 141.676 283.4264 L 141.676 284.0776 L 141.8395 284.0776 L 141.8395 284.2957 L 142.1655 284.2957 L 142.1655 284.5137 L 142.329 284.5137 L 142.329 286.2552 L 142.4914 286.2552 L 142.4914 286.4702 L 142.6539 286.4702 L 142.655 286.9064 L 143.3069 286.9064 L 143.3069 286.4702 L 145.1014 286.4702 L 145.1014 286.2552 L 145.5909 286.2552 L 145.5909 286.0371 L 146.0804 286.0371 L 146.0804 286.2552 L 146.4063 286.2552 L 146.4063 286.4702 L 146.5699 286.4702 L 146.5699 286.9064 L 146.7334 286.9064 L 146.7334 287.5605 L 147.0594 287.5605 L 147.0594 287.7756 L 147.2229 287.7756 L 147.2229 287.9936 L 148.2008 287.9936 L 148.2008 287.5605 L 148.3643 287.5605 L 148.3643 287.3425 L 148.5279 287.3425 L 148.5279 286.4702 L 148.6903 286.4702 L 148.6903 285.8191 L 148.8538 285.8191 L 148.8538 285.383 L 149.0174 285.383 L 149.0174 285.1679 L 149.3433 285.1679 L 149.3433 284.9498 L 149.1798 284.9498 L 149.1798 284.7318 L 149.0174 284.7318 L 149.0174 284.5137 L 148.2008 284.5137 L 148.2008 284.7318 L 147.7124 284.7318 L 147.7124 284.9498 L 147.5489 284.9498 L 147.5489 285.1679 L 147.3853 285.1679 L 147.3853 284.9498 L 147.2229 284.9498 L 147.2229 284.5137 L 147.0594 284.5137 L 147.0594 284.2957 L 146.7334 284.2957 L 146.7334 283.6445 L 146.8958 283.6445 L 146.8958 283.4264 L 147.2229 283.4264 L 147.2229 283.2084 L 147.8748 283.2084 L 147.8748 282.9903 L 148.2008 282.9903 L 148.2008 283.2084 L 148.3643 283.2084 L 148.3643 283.4264 L 149.8328 283.4264 L 149.8328 283.2084 L 149.9952 283.2084 L 149.9952 283.0381 L 149.9952 282.5572 L 150.1588 282.5542 L 150.1588 282.2406 L 150.1588 279.5104 L 149.9952 279.5104 L 149.9952 277.772 L 149.8328 277.772 L 149.8328 276.4666 L 149.6693 276.4666 L 149.6693 276.0305 L 149.5069 276.0305 L 149.5057 275.5974 L 149.3433 275.5974 L 149.3433 275.3794 L 149.1798 275.3794 L 149.1798 275.1613 L 149.0174 275.1613 L 149.0174 274.9433 L 148.5279 274.9433 L 148.5279 274.7252 L 148.2008 274.7252 L 148.2008 274.5071 L 147.3853 274.5071 L 147.3853 274.074 L 147.2229 274.074 L 147.2229 273.856 L 146.8958 273.856 L 146.8958 273.6379 L 146.5699 273.6379 L 146.5699 273.4199 L 146.4063 273.4199 L 146.4063 273.2048 L 146.2439 273.2048 L 146.2439 272.9867 L 145.4284 272.9867 L 145.4284 273.4199 L 145.2649 273.4199 L 145.2649 273.6379 L 145.1014 273.6379 L 145.1014 274.074 L 144.7754 274.074 L 144.7754 273.856 L 144.4494 273.856 L 144.4494 273.6379 L 144.2859 273.6379 L 144.2859 273.4199 L 144.1235 273.4199 L 144.1235 272.9867 L 143.9599 272.9867 L 143.9599 271.8995 L 143.7964 271.8995 L 143.7964 271.6814 L 143.9599 271.6814 L 143.9599 271.0272 L 143.7964 271.0272 L 143.7964 270.3761 L 143.9599 270.3761 L 143.9599 269.7219 L 144.1235 269.7219 L 144.1235 269.5068 L 143.9599 269.5068 L 143.9599 268.8527 L 143.3069 268.8527 L 143.3058 268.6346 L 142.655 268.6346 L 142.6539 268.4196 L 142.1655 268.4196 L 142.1655 268.2015 L 141.8395 268.2015 L 141.8395 267.9835 L 141.35 267.9835 L 141.35 268.2015 L 140.5345 268.2015 L 140.5345 268.4166 L 140.371 268.4196 L 140.371 268.6346 L 139.8815 268.6346 L 139.8815 268.8527 L 139.718 268.8527 L 139.718 269.0707 L 139.392 269.0707 L 139.392 269.5068 L 139.2285 269.5068 L 139.2285 269.7219 L 139.066 269.7219 L 139.066 269.94 L 138.7401 269.94 L 138.7401 270.158 L 138.413 270.158 L 138.413 269.94 L 138.2506 269.94 L 138.2506 269.7219 L 137.5975 269.7219 L 137.5975 269.5068 L 135.8031 269.5068 L 135.8031 269.2888 L 135.3136 269.2888 L 135.3136 269.0707 L 135.1512 269.0707 L 135.1512 268.8527 L 134.9876 268.8527 L 134.9876 268.2015 L 134.6617 268.2015 L 134.6617 267.5473 L 134.4981 267.5473 L 134.4981 267.1142 L 134.3346 267.1142 L 134.3346 266.6781 L 134.4981 266.6781 L 134.4981 266.242 L 134.3346 266.242 L 134.3346 266.0269 L 134.1721 266.0269 L 134.1721 265.8089 L 133.8462 265.8089 L 133.8451 265.3728 L 133.6826 265.3728 L 133.6826 264.9367 L 133.5191 264.9367 L 133.5191 264.5035 L 133.3567 264.5035 L 133.3567 264.0674 L 133.1931 264.0674 L 133.1931 263.8494 L 132.8672 263.8494 L 132.8672 263.4163 L 133.0296 263.4163 L 133.0296 262.5441 L 133.1931 262.5441 L 133.1931 262.1109 L 133.3567 262.1109 L 133.3567 261.6748 L 133.5191 261.6748 L 133.5191 261.2417 L 133.6826 261.2417 L 133.6826 260.8056 L 133.8451 260.8056 L 133.8462 260.3695 L 134.0086 260.3695 L 134.0086 259.5003 L 134.1721 259.5003 L 134.1721 258.8491 L 133.8462 258.8491 L 133.8451 258.631 L 133.6826 258.631 L 133.6826 258.413 L 133.3567 258.413 L 133.3567 257.7588 L 133.1931 257.7588 L 133.1931 257.5437 L 133.3567 257.5408 L 133.3567 257.3257 L 133.1931 257.3257 L 133.1931 257.1076 L 133.3567 257.1076 L 133.3567 255.8023 L 133.1931 255.8023 L 133.1931 254.497 L 133.5191 254.497 L 133.5191 254.2789 L 133.6826 254.2789 L 133.6826 254.0638 L 134.6617 254.0638 L 134.6617 253.8458 L 134.8241 253.8458 L 134.8241 253.6277 L 134.9876 253.6277 L 134.9876 253.4097 L 135.2284 253.4097 L 135.3136 253.4097 L 135.3136 253.1916 L 135.4771 253.1916 L 135.4771 252.9766 L 135.6395 252.9736 L 135.6395 252.7585 L 135.8031 252.7585 L 135.8031 252.3224 L 135.9666 252.3224 L 135.9666 251.8863 L 136.129 251.8863 L 136.129 251.6712 L 136.2926 251.6712 L 136.2926 251.2351 L 136.4561 251.2351 L 136.4561 251.0171 L 136.2926 251.0171 L 136.2926 250.799 L 136.4561 250.799 L 136.4561 250.581 L 136.2926 250.581 L 136.2926 250.1478 L 136.129 250.1359 L 136.129 249.7117 L 136.0887 249.7117 L 135.9666 249.7117 L 135.9666 249.4937 L 135.8031 249.4937 L 135.8031 249.2786 L 135.6395 249.2786 L 135.6395 248.8425 L 135.8031 248.8425 L 135.8031 248.6244 L 135.9666 248.6244 L 135.9666 248.4064 L 136.129 248.4064 L 136.129 248.1913 L 136.5132 248.1913 L 136.7821 248.1913 L 136.7821 247.9733 L 136.9456 247.9733 L 136.9456 247.7552 L 137.2716 247.7552 L 137.2716 247.5372 L 137.434 247.5372 L 137.434 247.3191 L 137.5975 247.3191 L 137.5975 247.1011 L 137.7611 247.1011 L 137.7611 246.886 L 137.9235 246.886 L 137.9235 246.6679 L 138.2506 246.6679 L 138.2506 246.4499 L 138.5765 246.4499 L 138.5765 246.2318 L 139.066 246.2318 L 139.066 246.0138 L 139.392 246.0138 L 139.392 245.7987 L 139.5555 245.7987 L 139.5555 245.5806 L 139.8815 245.5806 L 139.8815 245.3626 L 142.1655 245.3626 L 142.1655 245.5806 L 142.4914 245.5806 L 142.4914 245.7987 L 142.6539 245.7987 L 142.655 246.0138 L 142.9809 246.0138 L 142.9809 246.2318 L 143.4704 246.2318 L 143.4704 246.4499 L 143.7964 246.4499 L 143.7964 246.6679 L 143.9599 246.6679 L 143.9599 246.886 L 144.2859 246.886 L 144.2859 247.1011 L 144.4494 247.1011 L 144.4494 247.3191 L 144.7754 247.3191 L 144.7754 247.5372 L 145.1014 247.5372 L 145.1014 247.7552 L 145.4284 247.7552 L 145.4284 247.9733 L 146.2439 247.9733 L 146.2439 247.5372 L 146.5699 247.5372 L 146.5699 247.3191 L 146.7334 247.3191 L 146.7334 247.1011 L 147.3853 247.1011 L 147.3853 246.886 L 147.7124 246.886 L 147.7124 246.6679 L 148.2008 246.6679 L 148.2008 246.4499 L 148.5279 246.4499 L 148.5279 246.6679 L 148.8538 246.6679 L 148.8538 246.886 L 149.0174 246.886 L 149.0174 247.1011 L 149.1798 247.1011 L 149.1798 247.3191 L 149.5057 247.3191 L 149.5069 247.5372 L 149.6693 247.5372 L 149.6693 247.3191 L 149.8328 247.3191 L 149.8328 247.1011 L 150.1588 247.1011 L 150.1588 246.886 L 150.3223 246.886 L 150.3223 246.6679 L 150.4847 246.6679 L 150.4847 246.4499 L 150.6483 246.4499 L 150.6483 246.2318 L 150.8118 246.2318 L 150.8118 246.0138 L 150.9743 246.0138 L 150.9743 245.7987 L 151.3002 245.7987 L 151.3013 245.5806 L 151.4638 245.5806 L 151.4638 245.1445 L 151.6273 245.1445 L 151.6273 244.9265 L 151.9533 244.9265 L 151.9533 244.7084 L 153.5842 244.7084 L 153.5842 244.4934 L 153.7477 244.4934 L 153.7477 243.4061 L 153.5842 243.4061 L 153.5842 241.8827 L 153.7477 241.8827 L 153.7477 241.6646 L 154.2372 241.6646 L 154.2372 241.4466 L 154.7267 241.4466 L 154.7267 241.0135 L 154.8891 241.0135 L 154.8891 240.7954 L 155.0527 240.7954 L 155.0527 240.5774 L 155.2162 240.5774 L 155.2162 240.3593 L 155.5422 240.3593 L 155.5422 240.1412 L 155.7057 240.1412 L 155.7057 239.9232 L 155.8681 239.9232 L 155.8681 239.7081 L 156.0317 239.7081 L 156.0317 239.4901 L 156.1952 239.4901 L 156.1952 239.054 L 156.5212 239.054 L 156.5212 238.8359 L 156.6836 238.8359 L 156.6836 238.6208 L 157.1731 238.6208 L 157.1731 238.4028 L 157.6626 238.4028 L 157.6626 238.6208 L 157.8261 238.6208 L 157.8261 238.8359 L 157.9897 238.8359 L 157.9897 239.054 L 158.3156 239.054 L 158.3156 238.8359 L 158.4781 238.8359 L 158.4781 238.6208 L 158.8052 238.6208 L 158.8052 237.9667 L 158.9676 237.9667 L 158.9676 237.7486 L 159.1311 237.7486 L 159.1311 237.3155 L 160.1101 237.3155 L 160.1101 237.5306 L 160.4361 237.5306 L 160.4361 237.9667 L 160.5996 237.9667 L 160.5996 238.1847 L 160.762 238.1847 L 160.762 238.4028 L 161.0891 238.4028 L 161.0891 237.7486 L 161.2515 237.7486 L 161.2515 237.5306 L 163.2095 237.5306 L 163.2095 237.7486 L 163.3731 237.7486 L 163.3731 237.9667 L 163.8615 237.9667 L 163.8615 238.4028 L 164.1885 238.4028 L 164.1885 238.1847 L 164.351 238.1847 L 164.351 237.9667 L 165.4935 237.9667 L 165.4935 237.7486 L 166.1454 237.7486 L 166.1454 237.5306 L 166.6349 237.5306 L 166.6349 237.3155 L 168.7565 237.3155 L 168.7565 237.0975 L 169.2449 237.0975 L 169.2449 236.8794 L 169.5719 236.8794 L 169.5719 236.6613 L 169.8979 236.6613 L 169.8979 236.4433 L 170.0614 236.4433 L 170.0614 236.0102 L 170.3874 236.0102 L 170.3874 235.7921 L 170.5498 235.7921 L 170.5498 236.0102 L 171.0393 236.0102 L 171.0393 236.2282 L 171.2029 236.2282 L 171.2029 236.4433 L 171.3664 236.4433 L 171.3664 237.3155 L 171.6924 237.3155 L 171.6924 237.0975 L 171.8559 237.0975 L 171.8559 237.3155 L 172.1819 237.3155 L 172.1819 237.7486 L 172.3443 237.7486 L 172.3443 237.9667 L 172.5078 237.9667 L 172.5078 238.1847 L 173.1609 238.1847 L 173.1609 238.4028 L 174.3023 238.4028 L 174.3023 238.1847 L 174.4658 238.1847 L 174.4658 237.7486 L 174.6282 237.7486 L 174.6282 237.3155 L 174.4658 237.3155 L 174.4658 237.0975 L 174.7918 237.0975 L 174.7918 236.8794 L 175.9332 236.8794 L 175.9332 237.0975 L 176.0968 237.0975 L 176.0968 237.5306 L 176.7498 237.5306 L 176.7498 237.3155 L 176.9122 237.3155 L 176.9122 237.0975 L 177.2393 237.0975 L 177.2393 236.8794 L 177.4017 236.8794 L 177.4017 236.2282 L 177.5653 236.2282 L 177.5653 235.7921 L 177.7277 235.7921 L 177.7277 235.138 L 177.8912 235.138 L 177.8912 234.7048 L 178.0548 234.7048 L 178.0548 234.4868 L 178.2172 234.4868 L 178.2172 233.8356 L 178.3807 233.8356 L 178.3807 233.1814 L 178.5443 233.1814 L 178.5443 232.5303 L 178.7067 232.5303 L 178.7067 231.8761 L 178.8702 231.8761 L 178.8702 231.2249 L 179.0338 231.2249 L 179.0338 230.7888 L 179.1962 230.7888 L 179.1962 230.5708 L 179.3597 230.5678 L 179.3597 230.1377 L 179.5221 230.1377 L 179.5221 229.9196 L 179.6857 229.9196 L 179.6857 229.7015 L 180.1752 229.7015 L 180.1752 229.4835 L 180.3824 229.4835 L 180.5011 229.4835 L 180.5011 229.0504 L 180.6546 229.0504 L 180.8282 229.0504 L 180.8282 228.8323 L 181.1542 228.8323 L 181.1542 228.6143 L 181.3166 228.6143 L 181.3166 228.3962 L 181.8061 228.3962 L 181.8061 228.1782 L 182.2956 228.1782 L 182.2956 227.9601 L 183.6006 227.9601 L 183.6006 227.745 L 184.0901 227.745 L 184.0901 227.527 L 184.2536 227.527 L 184.2536 227.3089 L 184.4172 227.3089 L 184.4172 227.0909 L 184.5796 227.0909 L 184.5796 226.8728 L 184.7431 226.8728 L 184.7431 226.6577 L 184.9055 226.6577 L 184.9055 226.4397 L 185.0691 226.4397 L 185.0691 226.2216 L 185.2326 226.2216 L 185.2326 225.7855 L 185.395 225.7855 L 185.395 225.5675 L 185.5586 225.5675 L 185.5586 225.3524 L 185.7221 225.3524 L 185.7221 225.1344 L 185.8845 225.1344 L 185.8845 224.9163 L 186.0481 224.9163 L 186.0481 224.6983 L 186.374 224.6983 L 186.374 224.4802 L 186.5376 224.4802 L 186.5376 224.2651 L 186.7 224.2651 L 186.7 224.0471 L 187.0271 224.0471 L 187.0271 223.829 L 187.1895 223.829 L 187.1895 223.611 L 187.353 223.611 L 187.353 223.3929 L 187.5166 223.3929 L 187.5166 223.1749 L 187.8425 223.1749 L 187.8425 222.7417 L 188.005 222.7417 L 188.0061 222.5237 L 188.1685 222.5237 L 188.1685 222.3056 L 188.4945 222.3056 L 188.4945 222.0876 L 188.8215 222.0876 L 188.8215 221.8725 L 188.984 221.8725 L 188.984 220.7822 L 189.1475 220.7822 L 189.1475 220.5672 L 189.311 220.5672 L 189.311 220.3491 L 189.637 220.3491 L 189.637 220.1311 L 190.4525 220.1311 L 190.4525 219.695 L 190.942 219.695 L 190.942 219.4799 L 193.2259 219.4799 L 193.2259 219.2618 L 193.5519 219.2618 L 193.5519 219.0438 L 193.7154 219.0438 L 193.7154 218.8257 L 194.0414 218.8257 L 194.0414 218.6077 L 194.2049 218.6077 L 194.2049 218.3896 L 194.3674 218.3896 L 194.3674 218.1746 L 194.6944 218.1716 L 194.6944 217.9565 L 194.8569 217.9565 L 194.8569 217.7384 L 195.3464 217.7384 L 195.3464 217.5204 L 195.6723 217.5204 L 195.6723 217.0873 L 195.9994 217.0873 L 195.9994 216.8692 L 197.3044 216.8692 L 197.3044 216.6512 L 197.4668 216.6512 L 197.4668 216.4331 L 197.7939 216.4331 L 197.7939 215.997 L 197.9563 215.997 L 197.9563 215.7819 L 198.6093 215.7819 L 198.6093 215.5639 L 199.2612 215.5639 L 199.2612 215.3458 L 199.4248 215.3458 L 199.4248 215.1278 L 200.0778 215.1278 L 200.0778 214.9097 L 201.5452 214.9097 L 201.5452 214.6947 L 202.5231 214.6947 L 202.5242 214.9097 L 203.0137 214.9097 L 203.0137 215.3458 L 203.6668 215.3458 L 203.6668 215.1278 L 203.8292 215.1278 L 203.8292 214.9097 L 204.3187 214.9097 L 204.3187 214.6947 L 204.6446 214.6947 L 204.6446 214.4766 L 204.8082 214.4766 L 204.8082 214.2585 L 205.1341 214.2585 L 205.1341 214.0405 L 205.2977 214.0405 L 205.2977 213.8224 L 205.6236 213.8224 L 205.6236 213.6044 L 205.7872 213.6044 L 205.7872 213.3893 L 206.1131 213.3893 L 206.1131 213.1713 L 206.2767 213.1713 L 206.2767 212.9532 L 206.4391 212.9532 L 206.4391 212.7352 L 207.0921 212.7352 L 207.0921 212.5171 L 207.7441 212.5141 L 207.7441 212.084 L 208.8866 212.084 L 208.8866 211.8659 L 209.049 211.8659 L 209.049 211.6479 L 209.7021 211.6479 L 209.7021 211.4298 L 210.1916 211.4298 L 210.1916 211.2118 L 210.3551 211.2118 L 210.3551 210.9967 L 210.5175 210.9967 L 210.5175 210.7786 L 210.8435 210.7786 L 210.8435 210.5606 L 211.986 210.5606 L 211.986 210.7786 L 212.312 210.7786 L 212.312 210.9967 L 212.4755 210.9967 L 212.4755 211.2118 L 213.4545 211.2118 L 213.4545 210.9967 L 213.617 210.9967 L 213.617 210.7786 L 213.7805 210.7786 L 213.7805 210.3425 L 213.944 210.3425 L 213.944 210.1245 L 214.1065 210.1245 L 214.1065 209.4733 L 214.596 209.4733 L 214.596 209.2553 L 215.0855 209.2553 L 215.0855 209.0372 L 215.249 209.0372 L 215.249 208.6041 L 215.4114 208.6041 L 215.4114 208.386 L 216.554 208.386 L 216.554 208.168 L 217.2059 208.168 L 217.2059 207.9499 L 217.3694 207.9499 L 217.3694 207.7319 L 217.6954 207.7319 L 217.6954 207.9499 L 217.8589 207.9499 L 217.8589 207.7319 L 218.5109 207.7319 L 218.5109 207.9499 L 218.6744 207.9499 L 218.6744 208.168 L 219.0004 208.168 L 219.0004 208.386 L 219.1639 208.386 L 219.1639 208.6041 L 219.4899 208.6041 L 219.4899 208.8191 L 219.6534 208.8191 L 219.6534 209.0372 L 219.9782 209.0372 L 219.9794 209.2553 L 220.1429 209.2553 L 220.1429 209.4733 L 220.4689 209.4733 L 220.4689 209.6914 L 220.6324 209.6914 L 220.6324 209.9094 L 221.6103 209.9094 L 221.6103 209.6914 L 221.9374 209.6914 L 221.9374 209.4733 L 222.4269 209.4733 L 222.4269 209.2553 L 222.7528 209.2553 L 222.7528 209.0372 L 223.2423 209.0372 L 223.2423 208.8191 L 223.7318 208.8191 L 223.7318 208.6041 L 224.2213 208.6041 L 224.2213 208.386 L 224.7097 208.386 L 224.7108 208.168 L 225.5263 208.168 L 225.5263 207.9499 L 226.1782 207.9499 L 226.1782 207.7319 L 226.9937 207.7319 L 226.9937 207.5168 L 227.1572 207.5168 L 227.1572 207.2987 L 227.3208 207.2987 L 227.3208 207.0807 L 227.4832 207.0807 L 227.4832 206.8626 L 227.6467 206.8626 L 227.6467 206.6446 L 227.8103 206.6446 L 227.8103 206.4265 L 227.9727 206.4265 L 227.9727 206.2115 L 228.2986 206.2115 L 228.2986 205.9934 L 228.4622 205.9934 L 228.4622 205.7754 L 228.6257 205.7754 L 228.6257 205.5573 L 228.7881 205.5573 L 228.7881 205.3392 L 229.2776 205.3392 L 229.2776 205.1242 L 229.6047 205.1242 L 229.6047 204.9061 L 229.9307 204.9061 L 229.9307 204.6881 L 230.0931 204.6881 L 230.0931 203.6008 L 230.2566 203.6008 L 230.2566 203.8188 L 230.4202 203.8188 L 230.4202 204.0339 L 230.7461 204.0339 L 230.7461 203.6008 L 230.9097 203.6008 L 230.9097 203.3827 L 231.0721 203.3827 L 231.0721 203.1647 L 231.3992 203.1647 L 231.3992 202.9466 L 231.7251 202.9466 L 231.7251 202.7316 L 231.8876 202.7316 L 231.8876 202.5135 L 232.0511 202.5135 L 232.0511 202.2955 L 232.2147 202.2955 L 232.2147 202.5135 L 232.7042 202.5135 L 232.7042 202.7316 L 233.0301 202.7316 L 233.0301 202.9466 L 233.1937 202.9466 L 233.1937 203.1647 L 233.8456 203.1647 L 233.8456 203.3827 L 234.0091 203.3827 L 234.0091 203.1647 L 234.1715 203.1647 L 234.1715 202.9466 L 234.3351 202.9466 L 234.3351 202.5135 L 234.4986 202.5135 L 234.4986 202.2955 L 234.661 202.2955 L 234.661 202.0774 L 235.1505 202.0774 L 235.1505 202.2955 L 236.619 202.2955 L 236.619 202.5135 L 239.0654 202.5135 L 239.0654 202.7316 L 239.3925 202.7316 L 239.3925 202.5135 L 239.7185 202.5135 L 239.7185 202.2955 L 239.882 202.2955 L 239.882 202.5135 L 240.6975 202.5135 L 240.6975 202.7316 L 241.3494 202.7316 L 241.3494 202.9466 L 241.8389 202.9466 L 241.8389 202.5135 L 242.0024 202.5135 L 242.0024 202.2955 L 242.166 202.2955 L 242.166 202.0774 L 242.4919 202.0774 L 242.4919 201.8593 L 242.8179 201.8593 L 242.8179 201.6443 L 243.1439 201.6443 L 243.1439 201.8593 L 243.4709 201.8593 L 243.4709 201.6443 L 243.7969 201.6413 L 243.7969 201.4262 L 245.9173 201.4262 L 245.9173 201.6413 L 246.0809 201.6443 L 246.0809 201.8593 L 246.5704 201.8593 L 246.5704 201.6443 L 246.8963 201.6413 L 246.8963 201.4262 L 247.0599 201.4262 L 247.0599 201.6413 L 247.3858 201.6443 L 247.3858 201.8593 L 247.5482 201.8593 L 247.5482 202.0774 L 247.7118 202.0774 L 247.7118 202.2955 L 248.0377 202.2955 L 248.0377 202.5135 L 248.3648 202.5135 L 248.3648 202.2955 L 248.6908 202.2955 L 248.6908 202.0774 L 248.8543 202.0774 L 248.8543 201.8593 L 249.6698 201.8593 L 249.6698 201.6443 L 249.8322 201.6413 L 249.8322 201.2082 L 249.9958 201.2082 L 249.9958 200.9901 L 250.3217 200.9901 L 250.3217 200.7721 L 250.6488 200.7721 L 250.6488 200.554 L 251.1372 200.554 L 251.1372 200.3389 L 251.3007 200.3389 L 251.3007 199.0336 L 251.1372 199.0336 L 251.1372 198.3794 L 251.3007 198.3794 L 251.3007 197.7283 L 251.4643 197.7283 L 251.4643 197.5102 L 251.6267 197.5102 L 251.6267 197.2922 L 253.0952 197.2922 L 253.0952 197.5102 L 253.5847 197.5102 L 253.5847 197.7283 L 253.9106 197.7283 L 253.9106 197.9463 L 254.5637 197.9463 L 254.5637 198.1614 L 254.725 198.1614 L 254.7261 198.5975 L 255.8686 198.5975 L 255.8686 198.3794 L 256.0322 198.3794 L 256.0322 198.1614 L 256.6841 198.1614 L 256.6841 198.3794 L 257.0101 198.3794 L 257.0101 198.5975 L 257.4996 198.5975 L 257.4996 198.8155 L 257.6631 198.8155 L 257.6631 199.0336 L 257.9891 199.0336 L 257.9891 198.8155 L 258.315 198.8155 L 258.315 198.3794 L 258.4786 198.3794 L 258.4786 198.1614 L 258.6421 198.1614 L 258.6421 197.9463 L 258.9681 197.9463 L 258.9681 197.7283 L 259.294 197.7283 L 259.294 197.5102 L 259.9471 197.5102 L 259.9471 197.2922 L 260.1095 197.2922 L 260.1095 197.0741 L 261.252 197.0741 L 261.252 196.641 L 262.3935 196.641 L 262.3935 196.4229 L 262.7205 196.4229 L 262.7205 196.2049 L 263.0465 196.2049 L 263.0465 195.9868 L 263.536 195.9868 L 263.536 195.7688 L 263.862 195.7688 L 263.862 195.5537 L 264.1879 195.5537 L 264.1879 195.3356 L 264.515 195.3356 L 264.515 195.1176 L 264.841 195.1176 L 264.841 194.8995 L 265.0034 194.8995 L 265.0034 194.6815 L 265.1669 194.6815 L 265.1669 194.4664 L 265.6564 194.4664 L 265.6564 194.2484 L 265.9824 194.2484 L 265.9824 194.0303 L 266.6354 194.0303 L 266.6354 194.2484 L 266.7979 194.2484 L 266.7979 194.4664 L 267.2874 194.4664 L 267.2874 194.0303 L 267.4509 194.0303 L 267.4509 193.8123 L 267.6144 193.8123 L 267.6144 193.3761 L 267.7769 193.3761 L 267.7769 193.1611 L 268.4299 193.1611 L 268.4299 192.943 L 268.5923 192.943 L 268.5923 192.725 L 269.0818 192.725 L 269.0818 191.6377 L 269.2454 191.6377 L 269.2454 191.2016 L 269.4089 191.1986 L 269.4089 190.9835 L 269.7349 190.9835 L 269.7349 190.7685 L 270.0608 190.7685 L 270.0608 190.5504 L 270.2244 190.5504 L 270.2244 190.1143 L 270.3868 190.1143 L 270.3868 189.8962 L 270.5503 189.8962 L 270.5503 189.6812 L 271.3658 189.6812 L 271.3658 189.4631 L 271.5293 189.4631 L 271.5293 189.2451 L 271.6929 189.2451 L 271.6929 189.027 L 271.8553 189.027 L 271.8553 188.809 L 272.0188 188.809 L 272.0188 188.3758 L 272.6707 188.3758 L 272.6707 188.809 L 273.4873 188.809 L 273.4873 188.5909 L 273.6498 188.5909 L 273.6498 188.3758 L 274.4652 188.3758 L 274.4652 188.1578 L 274.7923 188.1578 L 274.7923 187.9397 L 274.9547 187.9397 L 274.9547 187.7217 L 275.1183 187.7217 L 275.1183 187.2886 L 275.2818 187.2886 L 275.2818 187.0705 L 275.4442 187.0705 L 275.4442 186.6344 L 275.7702 186.6344 L 275.7702 186.4163 L 275.9337 186.4163 L 275.9337 186.6344 L 276.2597 186.6344 L 276.2597 186.8525 L 276.4232 186.8525 L 276.4232 187.0705 L 276.7492 187.0705 L 276.7492 186.8525 L 276.9127 186.8525 L 276.9116 186.4163 L 276.7492 186.4163 L 276.7492 185.5471 L 277.0763 185.5471 L 277.0763 185.3291 L 277.7282 185.3291 L 277.7282 185.111 L 278.0541 185.111 L 278.0541 184.8959 L 278.7072 184.8959 L 278.7072 184.6779 L 278.8707 184.6779 L 278.8707 184.2418 L 279.0331 184.2418 L 279.0331 183.5906 L 278.8707 183.5906 L 278.8707 183.1545 L 278.7072 183.1545 L 278.7072 182.9364 L 278.8707 182.9364 L 278.8707 182.7184 L 279.0331 182.7184 L 279.0331 182.5033 L 279.3591 182.5033 L 279.3591 182.2853 L 279.6862 182.2853 L 279.6862 182.0672 L 280.0121 182.0672 L 280.0121 182.5033 L 280.5016 182.5033 L 280.5016 181.8492 L 283.2751 181.8492 L 283.2751 181.6311 L 283.6011 181.6311 L 283.6011 181.4131 L 284.0906 181.4131 L 284.0906 181.198 L 284.4165 181.198 L 284.4165 180.9799 L 284.906 180.9799 L 284.906 180.7619 L 285.232 180.7619 L 285.232 180.5438 L 285.3955 180.5438 L 285.3955 180.3258 L 285.5591 180.3228 L 285.5591 180.1107 L 286.211 180.1107 L 286.211 179.8926 L 286.537 179.8926 L 286.537 179.6746 L 287.0265 179.6746 L 287.0265 179.4565 L 287.3535 179.4565 L 287.3535 179.0204 L 288.0055 179.0204 L 288.0055 178.8054 L 288.3314 178.8054 L 288.3314 178.5873 L 289.148 178.5873 L 289.148 178.3693 L 289.474 178.3693 L 289.474 178.1512 L 289.6364 178.1512 L 289.6364 177.9332 L 289.7999 177.9332 L 289.7999 177.7181 L 289.9635 177.7181 L 289.9635 177.5 L 290.1259 177.5 L 290.1259 177.282 L 290.2894 177.282 L 290.2894 177.0639 L 290.453 177.0639 L 290.453 176.8459 L 290.6154 176.8459 L 290.6154 176.6278 L 291.1049 176.6278 L 291.1049 176.4127 L 291.5944 176.4127 L 291.5944 176.1947 L 293.8784 176.1947 L 293.8784 175.9766 L 294.0419 175.9766 L 294.0419 175.7586 L 294.2043 175.7586 L 294.2043 175.5405 L 294.5314 175.5405 L 294.5314 175.3255 L 295.3469 175.3255 L 295.3469 175.5405 L 295.8364 175.5405 L 295.8364 175.3255 L 295.9215 175.3255 L 296.0593 182.8916 L 296.2015 182.8259 L 296.6171 198.9858 L 296.374 227.6315 L 296.8859 234.5346 L 297.8459 238.9524 L 299.6034 242.8296 L 303.3547 247.3311 L 306.3702 249.652 L 314.7197 254.4044 L 318.8541 258.3234 L 321.0843 261.406 L 325.7889 270.1192 L 329.631 274.5071 L 334.4532 277.9393 L 348.3048 285.2933 L 352.3015 286.76 L 354.5205 287.2618 L 361.3612 288.0414 L 372.9199 287.9727 L 377.4677 287.456 L 381.8822 286.4225 L 383.997 285.604 L 387.4526 283.6146 L 393.6403 278.5874 L 399.8884 273.2825 L 403.2612 271.0183 L 407.0528 269.1215 L 414.8972 265.9642 L 411.716 273.9277 L 409.8364 277.8048 L 407.614 281.2728 L 402.4446 287.7129 L 401.9528 298.8217 L 400.6524 305.202 L 399.0853 308.894 L 395.4605 315.8717 L 392.1258 323.5394 L 389.778 327.2911 L 385.5316 332.5513 L 379.2958 339.2692 L 371.214 347.4716 L 364.5581 353.6727 L 361.0845 356.4446 L 357.4418 358.7745 L 351.8837 361.3285 L 348.194 363.3477 L 344.6711 365.9584 L 339.7537 370.5136 L 335.3695 375.6125 L 332.9668 379.3493 L 329.6321 386.9871 L 325.4473 395.6077 L 324.5164 399.5208 L 324.568 403.6459 L 325.5615 407.4782 L 329.4921 416.1227 L 330.5506 420.215 L 331.3067 426.7476 L 331.8354 442.5043 L 332.3664 449.2072 L 333.1561 453.5683 L 335.505 460.6326 L 269.531 460.9612 L 255.3836 460.5908 L 246.3699 459.2377 L 242.0976 457.7023 L 233.766 453.8132 L 226.8436 452.2331 L 214.624 451.4953 L 195.4729 451.6207 L 187.3306 439.7293 L 184.2245 434.5229 L 182.7425 430.5591 L 181.7322 424.0593 L 181.619 419.6474 L 181.8576 415.2445 L 182.98 408.8134 L 184.3992 404.9363 L 188.7107 396.1096 L 190.2206 389.8129 L 190.7303 383.2145 L 190.4738 376.5833 L 189.7591 372.258 L 188.4273 368.2584 L 180.472 352.0627 L 178.1735 348.8516 L 175.4123 346.0527 L 172.276 343.7438 L 163.3529 339.2811 L 154.9776 333.9134 L 144.9983 328.1932 L 143.3069 327.2852 Z" fill="#000000" fill-opacity="1" stroke="#000000" stroke-width="0" paint-order="fill" stroke-opacity="1" stroke-dasharray="" stroke-linecap="butt" stroke-linejoin="miter" stroke-miterlimit="10" transform="matrix(0.8500000238418579,0,0,0.8500000238418579,59.999820709228516,39.97526931762695)" clip-path="none" style="filter: url(#f1)"/>
<path data-code="204" d="M 596.3587 351.7191 L 588.4192 345.536 L 579.6373 340.7836 L 576.5995 338.4179 L 572.8022 334.0418 L 567.2799 323.6679 L 564.7775 320.7256 L 561.7755 318.2703 L 560.0953 317.2935 L 556.2667 315.8926 L 546.275 313.8136 L 542.5091 312.4844 L 533.9401 308.0755 L 528.4447 305.6799 L 526.6457 304.7121 L 523.5183 302.3553 L 520.8434 299.431 L 519.7098 297.7822 L 517.9534 294.0245 L 513.9881 277.3389 L 522.3018 263.3476 L 524.0291 259.6795 L 525.6309 253.347 L 527.45 237.3543 L 539.1129 246.6679 L 544.2946 249.6729 L 548.3697 250.9125 L 552.5904 251.5189 L 559.0088 251.6443 L 563.2631 251.268 L 567.421 250.4286 L 571.2452 248.9709 L 579.6955 244.2066 L 587.131 240.8044 L 597.1832 234.8303 L 604.65 231.5057 L 614.962 225.9916 L 618.9542 224.7221 L 635.0215 220.7793 L 643.5883 227.6644 L 651.4629 235.1917 L 665.2541 249.425 L 669.5644 254.3237 L 672.1653 257.7289 L 674.3451 261.3373 L 677.5443 269.0618 L 683.1382 279.5194 L 685.5712 285.7534 L 687.1573 289.0749 L 692.5586 297.6358 L 698.2893 307.3377 L 686.8213 306.3221 L 678.0954 306.2415 L 671.7128 306.9135 L 667.6445 308.0098 L 665.8343 308.7864 L 657.3728 313.494 L 649.9059 316.7977 L 639.8179 322.706 L 632.304 325.935 L 623.8761 330.8218 L 616.5773 334.2031 L 612.8741 336.2582 L 609.3569 338.9107 L 606.0054 341.9097 L 596.3587 351.7191 Z" fill="#000000" fill-opacity="1" stroke="#000000" stroke-width="0" paint-order="fill" stroke-opacity="1" stroke-dasharray="" stroke-linecap="butt" stroke-linejoin="miter" stroke-miterlimit="10" transform="matrix(0.8500000238418579,0,0,0.8500000238418579,59.999820709228516,39.97526931762695)" clip-path="none" style="filter: url(#f1)"/>
<path data-code="205" d="M 513.9881 277.3389 L 506.3488 277.5808 L 500.2619 276.4577 L 496.7156 274.9223 L 489.9824 271.2423 L 482.5693 267.8998 L 475.853 264.0854 L 472.3144 262.4066 L 467.8899 261.173 L 463.2749 260.5218 L 446.5826 260.0051 L 437.0009 260.1514 L 429.9306 260.6114 L 425.3526 261.3134 L 420.9919 262.6068 L 414.8972 265.9642 L 407.0528 269.1215 L 403.2612 271.0183 L 399.8884 273.2825 L 393.6403 278.5874 L 387.4526 283.6146 L 383.997 285.604 L 381.8822 286.4225 L 377.4677 287.456 L 372.9199 287.9727 L 361.3612 288.0414 L 354.5205 287.2618 L 352.3015 286.76 L 348.3048 285.2933 L 334.4532 277.9393 L 329.631 274.5071 L 325.7889 270.1192 L 321.0843 261.406 L 318.8541 258.3234 L 314.7197 254.4044 L 306.3702 249.652 L 303.3547 247.3311 L 299.6034 242.8296 L 297.8459 238.9524 L 296.8859 234.5346 L 296.374 227.6315 L 296.6171 198.9858 L 296.2015 182.8259 L 296.0593 182.8916 L 295.9215 175.3255 L 295.9988 175.3255 L 295.9988 175.5405 L 296.6518 175.5405 L 296.6518 175.3255 L 296.8142 175.3255 L 296.8142 175.1074 L 296.9778 175.1044 L 296.9778 174.6713 L 297.1413 174.6713 L 297.1413 174.4532 L 297.3037 174.4532 L 297.3037 174.2352 L 297.6308 174.2352 L 297.6308 173.8021 L 297.7933 173.8021 L 297.7933 173.584 L 298.1192 173.584 L 298.1203 173.366 L 298.2828 173.366 L 298.2828 173.1479 L 298.4463 173.1479 L 298.4463 172.9328 L 301.2198 172.9328 L 301.2198 172.7148 L 301.3822 172.7148 L 301.3822 172.4967 L 301.5457 172.4967 L 301.5457 172.2787 L 302.3612 172.2787 L 302.3612 172.0606 L 302.6871 172.0606 L 302.6871 172.4967 L 302.8507 172.4967 L 302.8507 173.1479 L 303.0142 173.1479 L 303.0142 173.366 L 303.1766 173.366 L 303.1766 174.0201 L 303.6661 174.0201 L 303.6661 173.8021 L 303.8297 173.8021 L 303.8297 173.584 L 303.9921 173.584 L 303.9921 173.366 L 304.1556 173.366 L 304.1556 172.9328 L 304.3192 172.9328 L 304.3192 172.2787 L 304.6451 172.2787 L 304.6451 172.0606 L 304.9711 172.0606 L 304.9711 171.8426 L 305.1346 171.8426 L 305.1346 171.6275 L 305.4606 171.6275 L 305.4606 172.0606 L 306.1137 172.0606 L 306.1137 171.8426 L 306.2761 171.8426 L 306.2761 171.4095 L 306.6032 171.4095 L 306.6032 171.1914 L 306.7656 171.1914 L 306.7656 170.7553 L 307.2551 170.7553 L 307.2551 170.5402 L 307.4186 170.5402 L 307.4186 170.3222 L 307.7446 170.3222 L 307.7446 170.1041 L 307.9081 170.1041 L 307.9081 169.8861 L 308.2341 169.8861 L 308.2341 169.668 L 308.3976 169.668 L 308.3976 169.45 L 308.7236 169.45 L 308.7236 169.2349 L 308.886 169.2349 L 308.886 169.0168 L 309.2131 169.0168 L 309.2131 168.7988 L 309.7026 168.7988 L 309.7026 168.5807 L 309.865 168.5807 L 309.865 168.3627 L 310.0285 168.3627 L 310.0285 168.1476 L 310.3545 168.1476 L 310.3545 167.9296 L 310.518 167.9296 L 310.518 167.7115 L 310.844 167.7115 L 310.844 167.4934 L 311.497 167.4934 L 311.497 167.2754 L 311.6595 167.2754 L 311.6595 167.0573 L 311.823 167.0573 L 311.823 166.8423 L 312.3125 166.8423 L 312.3125 166.6242 L 312.802 166.6242 L 312.802 166.1881 L 313.6175 166.1881 L 313.6175 165.755 L 313.9434 165.755 L 313.9434 165.5369 L 314.2694 165.5369 L 314.2694 165.755 L 314.7589 165.755 L 314.7589 165.9701 L 314.9224 165.9701 L 314.9224 166.1881 L 315.4119 166.1881 L 315.4119 165.9701 L 315.5755 165.9701 L 315.5755 165.755 L 315.9014 165.755 L 315.9014 165.5369 L 316.0639 165.5369 L 316.0639 165.1008 L 316.2274 165.1008 L 316.2274 164.8828 L 316.3909 164.8828 L 316.3909 164.4497 L 316.5534 164.4497 L 316.5534 163.7955 L 316.7169 163.7955 L 316.7169 163.3624 L 316.8804 163.3624 L 316.8804 163.1443 L 317.0429 163.1443 L 317.0429 162.9263 L 317.3688 162.9263 L 317.3699 162.7082 L 317.8583 162.7082 L 317.8583 162.4902 L 318.5114 162.4902 L 318.5114 162.2721 L 319.8163 162.2721 L 319.8163 162.057 L 320.4694 162.057 L 320.4694 162.2721 L 321.6108 162.2721 L 321.6108 162.4902 L 321.9368 162.4902 L 321.9368 162.057 L 322.1003 162.057 L 322.1003 161.839 L 322.2638 161.839 L 322.2638 161.6209 L 322.4263 161.6209 L 322.4263 161.4029 L 322.7522 161.4029 L 322.7522 161.1848 L 323.4053 161.1848 L 323.4053 160.9697 L 323.5688 160.9697 L 323.5688 160.7517 L 323.7312 160.7517 L 323.7312 160.5336 L 325.0362 160.5336 L 325.0362 160.7517 L 325.3633 160.7517 L 325.3633 160.9697 L 325.5257 160.9697 L 325.5257 161.1848 L 326.0152 161.1848 L 326.0152 159.8795 L 326.1787 159.8795 L 326.1787 159.4464 L 326.0152 159.4464 L 326.0152 159.0103 L 326.1787 159.0073 L 326.1787 158.141 L 326.3411 158.141 L 326.3411 157.923 L 326.5047 157.923 L 326.5047 157.7049 L 326.6682 157.7049 L 326.6682 157.4869 L 326.8306 157.4869 L 326.8306 157.0537 L 326.6682 157.0537 L 326.6682 156.8357 L 326.9942 156.8357 L 326.9942 156.6176 L 327.1577 156.6176 L 327.1577 156.3996 L 327.4837 156.3996 L 327.4837 156.1845 L 327.8096 156.1845 L 327.8096 155.9665 L 327.9732 155.9665 L 327.9732 155.7484 L 328.7886 155.7484 L 328.7886 155.5303 L 328.9522 155.5303 L 328.9522 155.3123 L 329.1146 155.3123 L 329.1146 155.0972 L 329.7676 155.0942 L 329.7676 154.8792 L 330.2572 154.8792 L 330.2572 154.4431 L 330.5831 154.4431 L 330.5831 154.225 L 330.7467 154.225 L 330.7467 153.5738 L 331.2362 153.5738 L 331.2362 153.3558 L 331.7245 153.3558 L 331.7245 153.1377 L 331.8881 153.1377 L 331.8881 152.9197 L 332.214 152.9197 L 332.214 152.7046 L 332.5411 152.7016 L 332.5411 152.4866 L 332.7035 152.4866 L 332.7035 152.2685 L 332.8671 152.2685 L 332.8671 152.0504 L 333.0306 152.0504 L 333.0306 151.8324 L 333.519 151.8324 L 333.519 151.6143 L 334.6615 151.6143 L 334.6615 151.3993 L 335.151 151.3993 L 335.151 151.6143 L 335.477 151.6143 L 335.477 151.3993 L 335.6405 151.3993 L 335.6405 151.1812 L 337.435 151.1812 L 337.435 150.9632 L 337.761 150.9632 L 337.761 150.7451 L 338.0869 150.7451 L 338.0869 150.5271 L 338.4129 150.5271 L 338.4129 150.312 L 338.5764 150.312 L 338.5764 150.0939 L 339.2295 150.0939 L 339.2295 150.312 L 339.719 150.312 L 339.719 150.5271 L 340.3709 150.5271 L 340.3709 150.7451 L 340.6969 150.7451 L 340.6969 150.5271 L 341.1864 150.5271 L 341.1864 150.312 L 341.3499 150.312 L 341.3499 150.0939 L 341.5134 150.0939 L 341.5134 149.6578 L 342.4913 149.6578 L 342.4913 149.2217 L 342.6549 149.2217 L 342.6549 149.0067 L 342.9808 149.0067 L 342.9808 148.7886 L 343.3079 148.7886 L 343.3079 148.5705 L 343.6339 148.5705 L 343.6339 148.3525 L 344.1234 148.3525 L 344.1234 148.1344 L 344.2858 148.1314 L 344.2858 147.0472 L 344.4493 147.0472 L 344.4493 146.8291 L 344.6129 146.8291 L 344.6129 146.614 L 344.7753 146.614 L 344.7753 146.1779 L 344.9388 146.1779 L 344.9388 145.3087 L 344.7753 145.3087 L 344.7753 145.0906 L 344.6129 145.0906 L 344.6129 144.4365 L 344.4493 144.4365 L 344.4493 144.2214 L 344.6129 144.2214 L 344.6129 143.8182 L 344.6129 142.698 L 344.4493 142.698 L 344.4493 142.48 L 344.6129 142.48 L 344.6129 141.6107 L 344.7753 141.6107 L 344.7753 140.3054 L 344.9388 140.3054 L 344.9388 139.6512 L 345.1024 139.6512 L 345.1024 139.4362 L 345.2648 139.4362 L 345.2648 139.2181 L 345.4283 139.2181 L 345.4283 138.782 L 345.5907 138.782 L 345.5907 138.3489 L 345.7543 138.3489 L 345.7543 138.1308 L 345.9178 138.1308 L 345.9178 137.9128 L 346.0802 137.9128 L 346.0802 137.6947 L 347.0593 137.6947 L 347.0593 137.4767 L 347.644 137.4767 L 347.7123 137.4767 L 347.7123 137.2586 L 348.0383 137.2586 L 348.0383 137.0436 L 349.6692 137.0436 L 349.6692 136.8255 L 349.9963 136.8255 L 349.9963 137.0436 L 350.1587 137.0436 L 350.1587 137.2586 L 351.1377 137.2586 L 351.1377 137.0436 L 351.3012 137.0436 L 351.3012 136.8255 L 351.6272 136.8255 L 351.6272 136.6074 L 352.7686 136.6074 L 352.7686 136.8255 L 352.9321 136.8255 L 352.9321 137.0436 L 353.0957 137.0436 L 353.0957 137.2586 L 353.7476 137.2586 L 353.7476 137.4767 L 354.8902 137.4767 L 354.8902 137.6947 L 356.0316 137.6947 L 356.0316 137.9128 L 356.6846 137.9128 L 356.6846 138.1308 L 357.3365 138.1308 L 357.3365 138.3489 L 359.9465 138.3489 L 359.9465 138.1308 L 360.11 138.1308 L 360.11 137.9128 L 360.763 137.9128 L 360.763 137.6947 L 360.9255 137.6947 L 360.9255 137.4767 L 361.089 137.4767 L 361.089 137.0436 L 361.2514 137.0436 L 361.2514 136.8255 L 361.415 136.8255 L 361.415 136.6074 L 361.7409 136.6074 L 361.7409 136.3894 L 362.2304 136.3894 L 362.2304 136.6074 L 363.0459 136.6074 L 363.0459 136.8255 L 363.5343 136.8255 L 363.5354 137.2586 L 363.6989 137.2586 L 363.6989 137.4767 L 363.5354 137.4767 L 363.5354 137.6947 L 363.2094 137.6947 L 363.2094 137.9128 L 363.373 137.9128 L 363.373 138.1308 L 363.5343 138.1308 L 363.5354 138.3489 L 364.352 138.3489 L 364.352 137.9128 L 364.5144 137.9128 L 364.5144 137.6947 L 364.6779 137.6947 L 364.6779 136.8255 L 365.0039 136.8255 L 365.0039 137.0436 L 365.4934 137.0436 L 365.4934 136.3894 L 365.3299 136.3894 L 365.3299 135.3021 L 365.0039 135.3021 L 365.0039 134.866 L 363.0459 134.866 L 363.0459 135.0841 L 362.7199 135.0841 L 362.7199 135.3021 L 361.7409 135.3021 L 361.7409 135.0841 L 361.5785 135.0841 L 361.5785 135.3021 L 360.763 135.3021 L 360.763 135.0841 L 360.5995 135.0841 L 360.5995 134.4329 L 360.763 134.4329 L 360.763 134.2148 L 362.2304 134.2148 L 362.2304 133.9968 L 362.7199 133.9968 L 362.7199 133.7787 L 363.6989 133.7787 L 363.6989 133.5637 L 364.352 133.5637 L 364.352 133.3456 L 364.5144 133.3456 L 364.5144 132.9095 L 364.6779 132.9095 L 364.6779 132.2583 L 364.8404 132.2583 L 364.8392 131.6042 L 364.6779 131.6042 L 364.6779 130.953 L 364.5144 130.953 L 364.5144 130.2988 L 364.6779 130.2988 L 364.6779 130.0808 L 364.8404 130.0808 L 364.8404 129.8657 L 365.1674 129.8657 L 365.1674 129.6476 L 365.4934 129.6476 L 365.4934 129.4296 L 365.8194 129.4296 L 365.8194 129.2115 L 366.3089 129.2115 L 366.3089 128.9935 L 366.4724 128.9935 L 366.4724 128.7784 L 366.6348 128.7784 L 366.6348 128.5604 L 366.9619 128.5604 L 366.9619 128.3423 L 367.1243 128.3423 L 367.1243 128.1243 L 367.4514 128.1243 L 367.4514 127.9062 L 367.6138 127.9062 L 367.6138 127.6881 L 368.2669 127.6881 L 368.2669 127.4731 L 369.0823 127.4731 L 369.0823 128.3423 L 369.2459 128.3423 L 369.2459 128.7784 L 369.4083 128.7784 L 369.4083 129.2115 L 370.0613 129.2115 L 370.0613 129.4296 L 370.2237 129.4296 L 370.2237 129.6476 L 370.5508 129.6476 L 370.5508 129.4296 L 370.7133 129.4296 L 370.7133 128.9935 L 370.8768 128.9935 L 370.8768 128.7784 L 371.2028 128.7784 L 371.2028 128.5604 L 371.8558 128.5604 L 371.8558 128.3423 L 372.3453 128.3423 L 372.3453 128.1243 L 372.5077 128.1243 L 372.5077 127.9062 L 372.8348 127.9062 L 372.8348 127.6881 L 372.9972 127.6881 L 372.9961 127.4731 L 372.8348 127.4731 L 372.8348 127.255 L 372.5077 127.255 L 372.5077 127.037 L 372.0182 127.037 L 372.0182 126.8189 L 371.8558 126.8189 L 371.8558 126.6009 L 371.5298 126.6009 L 371.5287 126.3858 L 371.2028 126.3858 L 371.2028 125.9497 L 371.3663 125.9497 L 371.3663 125.7316 L 371.6911 125.7316 L 371.6923 126.1677 L 372.3453 126.1677 L 372.3453 125.9497 L 372.5077 125.9497 L 372.5077 125.7316 L 372.6713 125.7316 L 372.6713 125.2955 L 372.8348 125.2955 L 372.8348 125.0805 L 373.6503 125.0805 L 373.6503 125.2955 L 374.1398 125.2955 L 374.1398 124.6444 L 373.8127 124.6444 L 373.8127 124.2082 L 373.6503 124.2082 L 373.6503 123.9932 L 373.4867 123.9932 L 373.4867 123.7751 L 373.3243 123.7751 L 373.3243 123.121 L 373.4867 123.121 L 373.4867 122.9029 L 374.1398 122.9029 L 374.1398 122.6878 L 374.9552 122.6878 L 374.9552 122.9029 L 374.7917 122.9029 L 374.7917 123.121 L 375.1176 123.121 L 375.1176 122.9029 L 375.2812 122.9029 L 375.2812 122.4698 L 375.6071 122.4698 L 375.6071 122.2517 L 377.191 122.2517 L 377.8911 122.2517 L 377.8911 122.0337 L 378.0546 122.0337 L 378.0546 121.8156 L 378.5441 121.8156 L 378.5441 121.3825 L 378.7066 121.3825 L 378.7066 121.5976 L 379.8491 121.5976 L 379.8491 121.3825 L 380.0127 121.3825 L 380.0127 121.1645 L 380.3386 121.1645 L 380.3386 120.9464 L 380.8281 120.9464 L 380.8281 121.1645 L 381.3176 121.1645 L 381.3176 120.9464 L 381.48 120.9464 L 381.48 120.7283 L 381.8071 120.7283 L 381.8071 120.5103 L 382.1331 120.5103 L 382.1331 120.0772 L 382.2955 120.0772 L 382.2955 119.6411 L 382.459 119.6411 L 382.459 118.9899 L 382.785 118.9899 L 382.785 118.7718 L 382.9485 118.7718 L 382.9485 118.5538 L 383.438 118.5538 L 383.438 118.3357 L 383.9275 118.3357 L 383.9275 118.1177 L 384.2535 118.1177 L 384.2535 117.9026 L 384.743 117.9026 L 384.743 117.6845 L 385.2325 117.6845 L 385.2325 117.2484 L 385.396 117.2484 L 385.396 117.0304 L 385.722 117.0304 L 385.722 116.8153 L 386.048 116.8153 L 386.048 116.5973 L 386.3739 116.5973 L 386.3739 116.1612 L 388.3319 116.1612 L 388.3319 115.9431 L 388.6579 115.9401 L 388.6579 115.7251 L 388.985 115.7251 L 388.985 115.51 L 389.1474 115.51 L 389.1474 115.2919 L 389.3109 115.2919 L 389.3109 114.8558 L 389.6369 114.8558 L 389.6369 114.6378 L 389.9629 114.6378 L 389.9629 114.4227 L 390.1264 114.4227 L 390.1264 114.2046 L 390.2899 114.2046 L 390.2899 113.9866 L 390.6159 113.9866 L 390.6159 113.5505 L 390.7783 113.5505 L 390.7794 112.6813 L 390.9419 112.6813 L 390.9419 112.6574 L 390.9419 111.1579 L 391.1054 111.1579 L 391.1054 110.7247 L 390.9419 110.7218 L 390.9419 110.5067 L 390.7794 110.5067 L 390.7783 110.2886 L 390.6159 110.2886 L 390.6159 109.6375 L 390.7783 109.6375 L 390.7794 109.4194 L 391.1054 109.4194 L 391.1054 109.2014 L 391.2678 109.2014 L 391.2678 108.9833 L 391.9209 108.9833 L 391.9209 108.7652 L 392.4104 108.7652 L 392.4104 108.5472 L 392.5728 108.5472 L 392.5728 108.1141 L 392.7363 108.1141 L 392.7363 107.896 L 393.7153 107.896 L 393.7153 107.678 L 394.0413 107.678 L 394.0413 107.4599 L 394.5308 107.4599 L 394.5308 107.2448 L 394.8567 107.2448 L 394.8567 107.0268 L 395.1838 107.0268 L 395.1838 106.8087 L 395.5098 106.8087 L 395.5098 106.5907 L 395.8358 106.5907 L 395.8358 106.3726 L 396.4888 106.3726 L 396.4888 106.1576 L 396.8148 106.1546 L 396.8148 105.9395 L 396.8898 105.9395 L 397.1407 105.9395 L 397.1407 105.7215 L 397.3043 105.7215 L 397.3043 105.5034 L 397.7938 105.5034 L 397.7938 105.0673 L 398.4457 105.0673 L 398.4457 104.8522 L 398.7728 104.8522 L 398.7728 104.6342 L 398.9352 104.6342 L 398.9352 104.4161 L 399.2623 104.4161 L 399.2623 104.1981 L 399.4247 104.1981 L 399.4247 103.98 L 399.5882 103.98 L 399.5882 103.7649 L 399.7506 103.762 L 399.7506 103.3288 L 398.7728 103.3288 L 398.7728 103.5439 L 398.4457 103.5439 L 398.4457 103.4214 L 398.4457 103.3288 L 398.2833 103.3288 L 398.2833 102.6747 L 398.4457 102.6747 L 398.4457 102.4596 L 398.6092 102.4596 L 398.6092 102.2416 L 399.1771 102.2416 L 399.4247 102.2416 L 399.4247 102.4596 L 399.5882 102.4596 L 399.5882 102.6747 L 400.2401 102.6747 L 400.2401 102.4596 L 400.4037 102.4596 L 400.4037 102.2416 L 400.7296 102.2416 L 400.7296 102.0235 L 400.8932 102.0235 L 400.8932 101.8054 L 401.5451 101.8054 L 401.5451 101.5874 L 401.8722 101.5874 L 401.8722 101.3723 L 402.1981 101.3723 L 402.1981 101.1543 L 402.5241 101.1543 L 402.5241 100.9362 L 403.0136 100.9332 L 403.0136 100.7182 L 403.6667 100.7182 L 403.6667 100.5001 L 404.1562 100.5001 L 404.1562 100.2821 L 405.134 100.2821 L 405.134 100.067 L 405.4611 100.067 L 405.4611 99.8489 L 405.6235 99.8489 L 405.6235 99.6309 L 406.113 99.6309 L 406.113 99.4128 L 406.4401 99.4128 L 406.4401 99.1948 L 406.7661 99.1948 L 406.7661 98.9797 L 407.418 98.9797 L 407.418 98.7616 L 407.5815 98.7616 L 407.5815 98.5436 L 408.397 98.5436 L 408.397 98.3255 L 408.723 98.3255 L 408.723 98.1075 L 408.8865 98.1075 L 408.8865 97.8894 L 409.2125 97.8894 L 409.2125 97.6744 L 409.702 97.6744 L 409.702 97.2383 L 409.8655 97.2383 L 409.8655 97.0202 L 410.1915 97.0202 L 410.1915 96.8022 L 410.8445 96.8022 L 410.8445 96.5871 L 411.0069 96.5871 L 411.0069 96.369 L 411.334 96.369 L 411.334 96.151 L 411.4964 96.151 L 411.4964 95.9329 L 412.3119 95.9329 L 412.3119 95.7149 L 412.4754 95.7149 L 412.4754 94.8456 L 412.639 94.8456 L 412.639 94.6276 L 412.8014 94.6276 L 412.8014 94.4095 L 414.2699 94.4095 L 414.2699 94.1945 L 414.7594 94.1945 L 414.7594 94.4095 L 414.9229 94.4095 L 414.9229 94.6276 L 415.5749 94.6276 L 415.5749 94.4095 L 415.7384 94.4095 L 415.7384 94.1945 L 416.0644 94.1945 L 416.0644 93.9764 L 416.2279 93.9764 L 416.2279 93.7584 L 416.7174 93.7584 L 416.7174 93.5403 L 417.2058 93.5403 L 417.2058 93.3222 L 417.5329 93.3222 L 417.5329 93.1042 L 417.6953 93.1042 L 417.6953 92.6711 L 418.0224 92.6711 L 418.0224 92.235 L 419.4897 92.235 L 419.4897 92.0169 L 420.1428 92.0169 L 420.1428 91.8018 L 420.3063 91.8018 L 420.3063 91.5838 L 420.6323 91.5838 L 420.6323 91.3657 L 420.7947 91.3657 L 420.7947 91.1477 L 421.2842 91.1477 L 421.2842 90.9296 L 421.7737 90.9296 L 421.7737 90.7116 L 422.1008 90.7116 L 422.1008 90.4965 L 422.5892 90.4965 L 422.5892 90.2785 L 422.7527 90.2785 L 422.7527 90.0604 L 422.9163 90.0604 L 422.9163 89.8423 L 423.4058 89.8423 L 423.4058 89.6243 L 423.8953 89.6243 L 423.8953 89.4092 L 425.5262 89.4062 L 425.5262 89.1912 L 425.6897 89.1912 L 425.6897 88.9731 L 426.1781 88.9731 L 426.1781 88.7551 L 426.5052 88.7551 L 426.5052 88.319 L 426.8311 88.319 L 426.8311 88.1039 L 427.9726 88.1039 L 427.9726 87.8858 L 428.2997 87.8858 L 428.2997 87.2317 L 428.1361 87.2317 L 428.1361 86.1444 L 428.2997 86.1444 L 428.2997 85.9263 L 428.4621 85.9263 L 428.4621 85.7113 L 429.1151 85.7113 L 429.1151 85.9263 L 429.2775 85.9263 L 429.2775 87.2317 L 430.0941 87.2317 L 430.0941 86.7986 L 430.4201 86.7986 L 430.4201 86.3624 L 431.5615 86.3624 L 431.5615 85.9263 L 431.2355 85.9263 L 431.2355 85.7113 L 430.9096 85.7113 L 430.9096 85.4932 L 430.746 85.4932 L 430.746 85.2752 L 430.5836 85.2752 L 430.5836 85.0571 L 429.9306 85.0571 L 429.9306 84.8391 L 429.1151 84.8391 L 429.1151 85.0571 L 428.1361 85.0571 L 428.1361 84.8391 L 427.9726 84.8391 L 427.9726 84.4059 L 428.1361 84.4059 L 428.1361 84.1879 L 428.2997 84.1879 L 428.2997 83.9698 L 428.7892 83.9698 L 428.7892 83.7518 L 429.2775 83.7518 L 429.2775 83.9698 L 430.5836 83.9698 L 430.5836 84.1879 L 430.9096 84.1879 L 430.9096 84.4059 L 431.3991 84.4059 L 431.3991 84.624 L 431.5615 84.624 L 431.5615 84.8391 L 431.725 84.8391 L 431.725 85.0571 L 432.051 85.0571 L 432.051 85.2752 L 432.2145 85.2752 L 432.2145 85.4932 L 432.3781 85.4932 L 432.3781 85.9263 L 432.704 85.9263 L 432.704 86.3624 L 432.8665 86.3624 L 432.8665 86.5805 L 433.356 86.5805 L 433.356 86.3624 L 433.5195 86.3624 L 433.5195 86.1444 L 433.683 86.1444 L 433.683 86.3624 L 433.8455 86.3624 L 433.8455 86.5805 L 434.335 86.5805 L 434.335 86.3624 L 434.4985 86.3624 L 434.4985 86.1444 L 436.4554 86.1444 L 436.4554 85.9263 L 436.6189 85.9263 L 436.6189 85.7113 L 436.7825 85.7113 L 436.7825 85.0571 L 436.9449 85.0571 L 436.9449 84.8391 L 437.1084 84.8391 L 437.1084 84.624 L 437.272 84.624 L 437.272 84.1879 L 437.5979 84.1879 L 437.5979 83.9698 L 438.4134 83.9698 L 438.4134 84.1879 L 438.5769 84.1879 L 438.5769 84.4059 L 438.9029 84.4059 L 438.9029 84.1879 L 439.2289 84.1879 L 439.2289 83.9698 L 439.5559 83.9698 L 439.5559 83.7518 L 439.8819 83.7488 L 439.8819 83.5337 L 440.0443 83.5337 L 440.0443 83.3187 L 440.5338 83.3187 L 440.5338 83.1006 L 440.6974 83.1006 L 440.6974 82.8825 L 441.1869 82.8825 L 441.1869 82.6645 L 441.5128 82.6645 L 441.5128 82.4464 L 441.8388 82.4464 L 441.8388 82.2314 L 442.0023 82.2314 L 442.0023 82.0133 L 442.3283 82.0133 L 442.3283 81.5772 L 442.4918 81.5772 L 442.4918 81.3592 L 442.6554 81.3592 L 442.6554 81.1411 L 442.8178 81.1411 L 442.8178 80.926 L 443.9603 80.926 L 443.9603 80.708 L 444.4498 80.708 L 444.4498 80.4899 L 444.7758 80.4899 L 444.7758 80.708 L 444.9382 80.708 L 444.9393 80.4899 L 445.1018 80.4899 L 445.1018 80.2719 L 445.2653 80.2719 L 445.2653 80.0538 L 445.4277 80.0538 L 445.4277 79.8387 L 445.5913 79.8387 L 445.5913 79.6207 L 445.7548 79.6207 L 445.7548 79.4026 L 445.9172 79.4026 L 445.9172 79.1846 L 446.7327 79.1846 L 446.7338 78.9665 L 446.8962 78.9665 L 446.8962 79.1846 L 447.2222 79.1846 L 447.2222 78.9665 L 447.5493 78.9665 L 447.5493 78.7485 L 447.8752 78.7485 L 447.8752 78.5334 L 448.2012 78.5334 L 448.2012 78.3154 L 448.3647 78.3154 L 448.3647 78.0973 L 448.5271 78.0973 L 448.5271 77.8793 L 448.8542 77.8793 L 448.8542 77.6612 L 449.0166 77.6612 L 449.0166 77.4461 L 449.3437 77.4461 L 449.3437 77.6612 L 449.6697 77.6612 L 449.6697 77.8793 L 449.8332 77.8793 L 449.8332 78.0973 L 450.4851 78.0973 L 450.4851 78.3154 L 450.6487 78.3154 L 450.6487 78.5334 L 450.9746 78.5334 L 450.9746 78.3154 L 451.3006 78.3154 L 451.3006 78.0973 L 451.6277 78.0973 L 451.6277 78.3154 L 451.7901 78.3154 L 451.7901 77.8793 L 451.9536 77.8793 L 451.9536 78.0973 L 452.4432 78.0973 L 452.4432 77.6612 L 452.2796 77.6612 L 452.2796 77.2281 L 452.1161 77.2281 L 452.1161 76.5739 L 452.4432 76.5739 L 452.4432 76.3559 L 453.5846 76.3559 L 453.5846 76.5739 L 454.0741 76.5739 L 454.0741 76.792 L 455.2166 76.792 L 455.2166 77.01 L 455.5426 77.01 L 455.5426 77.2281 L 456.0321 77.2281 L 456.0321 76.3559 L 456.1945 76.3559 L 456.1945 76.1408 L 456.358 76.1408 L 456.358 75.9227 L 456.5216 75.9227 L 456.5216 75.7047 L 457.0111 75.7047 L 457.0111 75.2686 L 457.337 75.2686 L 457.337 75.0535 L 457.663 75.0535 L 457.663 74.8355 L 458.1525 74.8355 L 458.1525 75.0535 L 458.4785 75.0535 L 458.4785 74.8355 L 459.2939 74.8355 L 459.2939 75.0535 L 463.2099 75.0535 L 463.2099 74.6174 L 463.8619 74.6174 L 463.8619 74.3993 L 464.1878 74.3993 L 464.1889 74.1813 L 464.3514 74.1813 L 464.3514 73.9632 L 464.5149 73.9632 L 464.5149 73.7482 L 465.0044 73.7482 L 465.0044 73.5301 L 465.1668 73.5301 L 465.1668 73.3121 L 465.8199 73.3121 L 465.8199 73.094 L 466.3094 73.094 L 466.3094 72.0067 L 466.6353 72.0067 L 466.6353 71.7887 L 466.9613 71.7887 L 466.9613 71.5706 L 467.4508 71.5706 L 467.4508 71.3556 L 468.1038 71.3526 L 468.1038 71.1375 L 468.4298 71.1375 L 468.4298 70.9194 L 468.5933 70.9194 L 468.5933 70.7014 L 469.2453 70.7014 L 469.2453 70.4833 L 469.5712 70.4833 L 469.5712 70.2683 L 469.8983 70.2683 L 469.8983 70.0502 L 470.2243 70.0502 L 470.2243 69.8322 L 470.3878 69.8322 L 470.3878 69.6141 L 470.7138 69.6141 L 470.7138 69.3961 L 470.8773 69.3961 L 470.8773 69.178 L 471.8552 69.178 L 471.8552 68.9629 L 472.5082 68.9629 L 472.5082 68.7449 L 473.4872 68.7449 L 473.4872 68.5268 L 475.9336 68.5268 L 475.9336 68.0907 L 476.0971 68.0907 L 476.0971 67.8757 L 476.7143 67.8757 L 486.2187 78.7186 L 495.2123 91.7063 L 498.0709 97.0919 L 499.2695 101.3066 L 499.9035 105.6766 L 500.235 116.8512 L 499.4913 125.7107 L 498.51 129.9792 L 497.7573 132.0253 L 496.7649 134.0177 L 494.3341 137.6798 L 486.2019 148.015 L 484.0737 151.8832 L 482.7284 156.2592 L 481.8188 163.1742 L 481.5153 175.0387 L 481.9342 186.8853 L 482.9714 193.7585 L 484.3459 197.8477 L 488.7727 206.6655 L 492.0603 214.3601 L 495.7433 219.907 L 500.2373 224.8984 L 505.2757 229.2654 L 508.9901 231.5834 L 520.1198 235.6039 L 527.45 237.3543 L 525.6309 253.347 L 524.0291 259.6795 L 522.3018 263.3476 L 513.9881 277.3389 Z" fill="#000000" fill-opacity="1" stroke="#000000" stroke-width="0" paint-order="fill" stroke-opacity="1" stroke-dasharray="" stroke-linecap="butt" stroke-linejoin="miter" stroke-miterlimit="10" transform="matrix(0.8500000238418579,0,0,0.8500000238418579,59.999820709228516,39.97526931762695)" clip-path="none" style="filter: url(#f1)"/>






</svg>