<?xml version="1.0" standalone="no"?>
<!-- Generator: Paintmaps.com , Online SVG vector map maker -->
<svg xmlns="http://www.w3.org/2000/svg" version="1.1" baseProfile="full"   style="background-color:#e0f2f1" width="800" height="500" viewBox="0 0 800 533">

<path data-code="200" d="M 472.8548 171.8673 L 467.2457 180.4158 L 465.1699 185.1352 L 462.3587 190.3307 L 460.7864 194.1807 L 457.9529 199.3689 L 456.389 203.2248 L 453.7664 208.5108 L 453.1978 210.5449 L 452.1563 215.7419 L 451.4625 217.6647 L 449.216 222.0339 L 447.6526 225.8898 L 444.8208 231.0809 L 443.253 234.9338 L 440.4473 240.1324 L 438.825 243.9646 L 437.2644 246.5164 L 433.0367 252.1719 L 430.9793 251.841 L 426.0823 249.712 L 423.9665 249.1601 L 420.6039 248.7803 L 416.0062 248.7462 L 412.5952 249.0385 L 410.3982 249.4836 L 408.4537 250.2001 L 404.1576 252.3351 L 402.0229 252.9433 L 397.5153 253.4641 L 394.0737 253.5027 L 391.7943 253.3662 L 388.4657 252.7505 L 386.5118 251.933 L 384.0544 250.2995 L 380.3062 247.3309 L 378.6244 245.2434 L 376.2788 241.9558 L 374.8684 239.3031 L 374.5402 238.2809 L 374.1285 236.1697 L 373.5288 229.6967 L 373.156 227.5974 L 372.519 225.6717 L 370.4989 221.2283 L 369.977 219.1557 L 369.6899 216.9926 L 369.4935 213.6634 L 369.4312 204.6253 L 369.656 199.0395 L 370.1717 195.8127 L 370.8566 193.8543 L 373.1082 189.5073 L 374.6776 185.6693 L 377.5044 180.493 L 379.149 176.6653 L 380.2589 174.8419 L 381.5719 173.1209 L 385.2806 169.0722 L 389.298 165.378 L 391.9156 163.5902 L 395.6326 161.8589 L 397.463 160.715 L 403.3887 155.9971 L 407.0768 153.4246 L 407.6459 152.7362 L 408.0487 151.8979 L 408.2601 150.9915 L 408.2996 150.0509 L 408.1745 149.1014 L 407.5614 147.416 L 405.8216 144.2025 L 404.5732 141.4133 L 403.5462 139.5544 L 401.5644 136.9788 L 395.6059 130.5073 L 393.5769 127.9778 L 392.457 126.1767 L 390.3156 121.5004 L 387.684 117.2261 L 385.0514 112.5379 L 390.5648 112.891 L 396.7709 113.0497 L 401.6974 112.9874 L 405.3209 112.7085 L 408.7809 111.9445 L 412.9541 110.0365 L 415.0843 109.2799 L 425.1643 107.6524 L 427.2991 106.8987 L 431.4761 104.9982 L 433.5664 104.4463 L 436.8461 104.0101 L 449.8202 103.0369 L 450.9618 108.59 L 452.2264 113.2975 L 452.6053 115.5526 L 452.8351 119.0376 L 452.9385 129.629 L 453.1372 131.9316 L 453.5772 134.1718 L 453.94 135.2519 L 454.9592 137.2043 L 459.6237 143.2856 L 460.7786 145.1179 L 465.0576 154.1975 L 465.6178 156.2227 L 466.6888 161.3945 L 467.4265 163.3158 L 468.9314 165.9106 L 472.8548 171.8673 Z" fill="#000000" fill-opacity="1" stroke="#000000" stroke-width="0" paint-order="fill" stroke-opacity="1" stroke-dasharray="" stroke-linecap="butt" stroke-linejoin="miter" stroke-miterlimit="10" clip-path="none" style="filter: url(#f1)"/>
<path data-code="201" d="M 521.3565 246.4259 L 521.1145 247.2478 L 520.7985 247.721 L 519.6707 248.4554 L 514.5451 249.939 L 509.4767 252.657 L 505.6963 254.2652 L 502.2692 256.0945 L 500.4877 256.8853 L 497.4478 257.5662 L 492.2448 258.0455 L 490.2102 258.3733 L 488.2663 259.0128 L 487.4179 259.4712 L 485.9013 260.6195 L 484.6183 261.9651 L 482.0408 265.6148 L 481.392 266.2008 L 478.2798 268.3669 L 476.6158 269.757 L 468.5909 277.5148 L 465.4286 280.3841 L 452.3538 266.4026 L 449.7184 263.0511 L 447.7728 259.7887 L 447.1998 259.084 L 446.5193 258.4846 L 441.0098 255.0041 L 439.2973 254.0649 L 436.6029 253.0917 L 433.0367 252.1719 L 437.2644 246.5164 L 438.825 243.9646 L 440.4473 240.1324 L 443.253 234.9338 L 444.8208 231.0809 L 447.6526 225.8898 L 449.216 222.0339 L 451.4625 217.6647 L 452.1563 215.7419 L 453.1978 210.5449 L 453.7664 208.5108 L 456.389 203.2248 L 457.9529 199.3689 L 460.7864 194.1807 L 462.3587 190.3307 L 465.1699 185.1352 L 467.2457 180.4158 L 472.8548 171.8673 L 489.7373 171.7723 L 493.0877 172.0186 L 495.2636 172.4637 L 496.3201 172.8346 L 498.3029 173.928 L 500.9684 176.0792 L 505.0075 180.2437 L 507.8177 183.9038 L 508.8803 185.9274 L 509.2402 186.9377 L 510.8854 194.1154 L 512.7998 198.6018 L 513.4257 200.6492 L 513.8023 202.9518 L 514.3999 208.8194 L 514.8778 211.1057 L 515.2566 212.205 L 516.8784 215.0298 L 520.8012 220.2358 L 521.8349 222.1674 L 522.4948 224.3632 L 522.8358 226.6553 L 522.9905 229.0009 L 522.9237 236.1608 L 522.4887 240.9365 L 521.3565 246.4259 Z" fill="#000000" fill-opacity="1" stroke="#000000" stroke-width="0" paint-order="fill" stroke-opacity="1" stroke-dasharray="" stroke-linecap="butt" stroke-linejoin="miter" stroke-miterlimit="10" clip-path="none" style="filter: url(#f1)"/>
<path data-code="202" d="M 369.2243 425.3516 L 373.6122 420.8281 L 372.9919 417.4885 L 372.3699 415.7601 L 370.1155 411.4087 L 368.5411 407.5647 L 367.5079 405.86 L 365.6152 403.4803 L 362.0963 399.7045 L 354.7875 392.2895 L 350.0618 387.7467 L 351.051 385.453 L 352.7568 380.5082 L 355.1958 375.1494 L 355.9541 371.5546 L 356.2779 365.2508 L 356.1789 341.292 L 359.724 343.0946 L 364.5476 344.8512 L 369.71 347.4282 L 373.047 348.1834 L 378.902 348.4875 L 400.4111 348.5068 L 403.9306 348.3525 L 407.341 347.8169 L 409.3311 347.1018 L 413.5605 344.826 L 417.2691 343.1881 L 422.2763 340.252 L 425.9516 338.4969 L 428.6126 336.6543 L 434.5572 331.8296 L 439.0926 329.4098 L 440.8746 328.2185 L 445.9457 324.0273 L 447.6983 322.7544 L 449.5287 321.7396 L 452.3026 320.483 L 454.8162 319.0335 L 461.0624 325.4857 L 463.1982 328.0108 L 464.4394 329.7896 L 465.4125 331.6738 L 466.5992 334.5446 L 469.3543 339.7535 L 470.8642 343.6243 L 473.6137 348.8391 L 475.2299 352.6787 L 476.3315 354.505 L 477.6378 356.2304 L 481.3375 360.2807 L 485.3611 363.9496 L 487.9748 365.7018 L 490.7477 366.945 L 492.5892 367.9316 L 495.1779 369.9286 L 496.7635 371.47 L 498.2089 373.1524 L 499.4351 375.0099 L 499.9208 376.0277 L 500.278 377.0692 L 500.7186 379.2234 L 501.0624 384.7898 L 500.9779 391.386 L 500.7559 393.4348 L 500.2652 395.3294 L 499.8512 396.1869 L 499.2771 396.948 L 498.5572 397.5385 L 496.9271 398.2714 L 492.4084 399.5606 L 490.7265 400.4627 L 487.5297 402.8305 L 483.2425 402.5976 L 480.1469 402.059 L 478.2982 401.3454 L 474.1022 399.1141 L 472.1138 398.58 L 471.0867 398.4479 L 469.0093 398.4227 L 466.9458 398.7506 L 465.941 399.0874 L 464.094 400.1229 L 461.6343 402.1881 L 445.5435 419.0893 L 442.3851 422.1277 L 439.8654 424.098 L 438.0472 425.0875 L 435.2621 426.2952 L 430.2316 429.1793 L 426.4873 430.7564 L 422.3147 433.2266 L 417.7276 435.2918 L 412.6831 438.167 L 406.3279 440.4339 L 404.3868 440.9547 L 397.8541 445.8031 L 396.2173 446.7942 L 395.3233 447.1576 L 393.7138 447.4529 L 392.0825 447.3416 L 391.2808 447.128 L 389.5478 446.2363 L 387.2651 444.3388 L 373.5972 429.884 L 369.2243 425.3516 Z" fill="#000000" fill-opacity="1" stroke="#000000" stroke-width="0" paint-order="fill" stroke-opacity="1" stroke-dasharray="" stroke-linecap="butt" stroke-linejoin="miter" stroke-miterlimit="10" clip-path="none" style="filter: url(#f1)"/>
<path data-code="203" d="M 656.1077 441.4829 L 653.4712 442.6341 L 649.5333 443.7409 L 646.5268 443.1089 L 644.6608 442.422 L 638.2149 438.6848 L 637.51 438.072 L 636.3845 436.5766 L 633.6355 431.6362 L 632.8667 429.8039 L 632.5495 428.6512 L 632.1868 426.264 L 632.0188 422.5773 L 631.986 413.8596 L 631.8107 411.4161 L 631.4124 409.0409 L 630.7208 406.9683 L 628.5071 402.6079 L 626.8948 398.8069 L 624.6671 394.457 L 623.9572 392.377 L 623.7102 391.1916 L 623.3347 387.5152 L 623.2462 383.7513 L 623.5155 334.1559 L 623.387 327.8669 L 623.1722 325.4085 L 622.7511 323.0259 L 622.0712 320.9637 L 620.0811 316.5129 L 619.4953 314.2133 L 619.1709 311.8083 L 618.9545 308.1067 L 619.0235 300.6353 L 619.4274 296.9871 L 620.396 293.7276 L 622.6264 289.3569 L 624.2699 285.5456 L 627.1613 280.4004 L 628.8242 276.6172 L 630.6746 273.196 L 631.5069 271.3504 L 632.0694 269.2482 L 632.3559 267.0776 L 632.3587 262.6877 L 631.8001 259.4638 L 631.4446 258.4312 L 630.4059 256.4669 L 625.0905 249.4791 L 622.6999 244.9408 L 621.5944 243.383 L 619.6411 241.3875 L 616.8042 239.2378 L 615.657 237.8655 L 612.3812 230.8065 L 619.4975 227.1242 L 623.3019 225.596 L 628.3368 222.7149 L 631.118 221.4968 L 632.8789 220.534 L 635.2601 218.7047 L 640.6055 213.9394 L 645.621 210.2748 L 645.5281 219.5785 L 645.7668 222.8855 L 646.1451 225.0159 L 646.7921 226.9713 L 648.8156 231.4058 L 649.3864 233.4161 L 650.2349 237.5613 L 650.8301 239.585 L 653.4589 244.8621 L 655.0117 248.7165 L 657.6065 254.0071 L 658.1768 256.0337 L 659.2205 261.2204 L 659.9031 263.1476 L 662.1235 267.5257 L 663.3325 270.3979 L 664.2788 272.2213 L 665.4166 273.8948 L 669.6065 279.2566 L 670.7998 281.1496 L 673.1438 285.8334 L 677.806 291.977 L 679.5858 294.7276 L 681.2843 298.5227 L 684.1195 303.6975 L 685.7023 307.5296 L 687.4809 311.0042 L 688.2615 312.8335 L 688.9786 316.2117 L 689.2168 319.7382 L 689.0738 339.0384 L 689.3981 344.9417 L 690.1231 348.2843 L 692.1231 352.7217 L 692.7974 354.7379 L 693.208 357.0301 L 693.4773 360.5937 L 693.5085 387.5063 L 693.277 393.5312 L 692.9755 395.8679 L 692.418 398.1052 L 690.4419 402.5664 L 689.5828 405.6968 L 689.2557 409.1655 L 688.9035 417.3298 L 688.4579 419.5641 L 688.0685 420.6367 L 687.6072 421.5313 L 686.4328 423.1188 L 684.2085 424.9881 L 679.7905 427.126 L 675.5678 429.4464 L 671.803 430.9952 L 666.7379 433.8245 L 663.0543 435.5692 L 660.3182 437.5201 L 656.1077 441.4829 Z" fill="#000000" fill-opacity="1" stroke="#000000" stroke-width="0" paint-order="fill" stroke-opacity="1" stroke-dasharray="" stroke-linecap="butt" stroke-linejoin="miter" stroke-miterlimit="10" clip-path="none" style="filter: url(#f1)"/>
<path data-code="204" d="M 310.2459 467.581 L 309.5956 464.8333 L 308.5374 461.246 L 308.0166 458.031 L 307.7424 451.3206 L 307.7284 444.5302 L 307.8531 440.0497 L 308.2169 436.7769 L 308.7549 434.6909 L 309.5633 432.872 L 311.3909 429.4197 L 312.9576 425.5801 L 315.7939 420.4112 L 317.444 416.5983 L 318.574 414.7661 L 319.9109 413.0347 L 322.119 410.5438 L 330.7214 401.6332 L 334.6993 397.7224 L 337.1945 395.6172 L 338.9665 394.46 L 343.4908 392.2598 L 350.0618 387.7467 L 354.7875 392.2895 L 362.0963 399.7045 L 365.6152 403.4803 L 367.5079 405.86 L 368.5411 407.5647 L 370.1155 411.4087 L 372.3699 415.7601 L 372.9919 417.4885 L 373.6122 420.8281 L 369.2243 425.3516 L 367.1986 425.724 L 365.223 426.2878 L 363.4716 427.1156 L 360.1123 429.0043 L 356.4054 430.6852 L 353.9574 432.3691 L 348.5469 436.8926 L 346.899 437.9474 L 344.1378 439.2189 L 342.3764 440.1847 L 339.9963 442.0318 L 337.1344 444.9486 L 335.3268 447.3965 L 334.3994 449.2332 L 333.27 452.1055 L 331.1676 456.3619 L 330.8454 457.2209 L 330.4148 459.0843 L 322.3371 464.1835 L 320.5791 465.0826 L 318.5884 465.7339 L 310.2459 467.581 Z" fill="#000000" fill-opacity="1" stroke="#000000" stroke-width="0" paint-order="fill" stroke-opacity="1" stroke-dasharray="" stroke-linecap="butt" stroke-linejoin="miter" stroke-miterlimit="10" clip-path="none" style="filter: url(#f1)"/>
<path data-code="205" d="M 179.328 176.5881 L 183.2102 175.0897 L 186.2028 173.658 L 189.2305 180.9662 L 189.7473 183.2065 L 190.0277 185.515 L 190.2592 191.4064 L 190.1474 197.2903 L 189.7201 200.7278 L 189.058 202.9191 L 187.9481 204.922 L 186.5578 206.7335 L 181.0454 212.6189 L 179.5811 214.38 L 178.3327 216.2849 L 177.842 217.322 L 177.2144 219.5444 L 176.9268 221.8544 L 176.7387 230.1359 L 176.3548 233.609 L 176.0694 234.7247 L 175.3278 236.5643 L 173.1897 240.5478 L 172.2095 241.9854 L 171.5057 242.5878 L 170.6517 242.9987 L 169.7431 243.1901 L 168.8135 243.1857 L 167.8877 242.9972 L 167.0576 242.6619 L 165.541 241.6961 L 161.3428 238.1147 L 153.6228 235.4605 L 149.3779 234.9235 L 145.0356 234.873 L 141.8449 235.0911 L 138.7694 235.6578 L 136.8984 236.3373 L 132.5911 238.3936 L 130.4074 238.9722 L 125.7886 239.4188 L 119.8551 239.4663 L 119.4384 237.4678 L 118.7802 235.5303 L 118.3195 234.6772 L 117.1534 233.1476 L 114.9836 231.3495 L 110.7793 229.0959 L 109.345 227.8333 L 108.1377 226.2948 L 107.6548 225.4165 L 106.9828 223.3869 L 106.6512 221.2476 L 106.5087 219.0489 L 106.4926 213.4364 L 106.6673 208.9485 L 107.0501 205.6683 L 107.5897 203.5734 L 112.4333 193.5427 L 114.4245 190.8708 L 117.4628 187.503 L 123.8602 180.9766 L 126.3482 178.7171 L 128.0941 177.3937 L 129.9295 176.3581 L 132.6862 175.1179 L 136.895 172.8019 L 137.803 172.4162 L 139.847 171.8599 L 143.0933 171.4845 L 146.4732 171.3792 L 151.0976 171.4504 L 154.5586 171.6937 L 156.8135 172.0334 L 158.9738 172.6269 L 164.1908 175.0318 L 166.4334 175.6327 L 169.9518 176.0733 L 179.328 176.5881 Z" fill="#000000" fill-opacity="1" stroke="#000000" stroke-width="0" paint-order="fill" stroke-opacity="1" stroke-dasharray="" stroke-linecap="butt" stroke-linejoin="miter" stroke-miterlimit="10" clip-path="none" style="filter: url(#f1)"/>
<path data-code="206" d="M 465.4286 280.3841 L 463.1303 283.7385 L 462.1868 285.3735 L 460.5149 289.2056 L 458.2361 293.5674 L 457.5674 295.5436 L 457.1279 298.7808 L 457.2135 303.15 L 457.7042 306.2641 L 459.173 310.4864 L 459.37 312.1778 L 458.9165 313.878 L 457.998 315.4372 L 456.8158 316.9045 L 454.8162 319.0335 L 452.3026 320.483 L 449.5287 321.7396 L 447.6983 322.7544 L 445.9457 324.0273 L 440.8746 328.2185 L 439.0926 329.4098 L 434.5572 331.8296 L 428.6126 336.6543 L 425.9516 338.4969 L 422.2763 340.252 L 417.2691 343.1881 L 413.5605 344.826 L 409.3311 347.1018 L 407.341 347.8169 L 403.9306 348.3525 L 400.4111 348.5068 L 378.902 348.4875 L 373.047 348.1834 L 369.71 347.4282 L 364.5476 344.8512 L 359.724 343.0946 L 356.1789 341.292 L 356.4265 334.8918 L 356.92 331.6738 L 357.5609 329.7169 L 359.5905 325.275 L 360.1863 323.2692 L 361.3636 318.1285 L 362.0623 316.2339 L 364.1097 311.7787 L 364.6705 309.5874 L 365.144 304.9689 L 365.2235 297.8773 L 364.9125 293.2143 L 364.1692 289.8807 L 361.5739 284.5857 L 359.9749 280.7565 L 357.2093 275.5016 L 355.4746 270.7184 L 354.2178 268.1533 L 362.7049 266.686 L 364.6516 265.9842 L 366.2845 264.9042 L 367.0055 264.2469 L 368.2523 262.7559 L 369.2215 261.0305 L 370.895 257.4194 L 372.5957 255.01 L 376.0184 251.2639 L 380.3062 247.3309 L 384.0544 250.2995 L 386.5118 251.933 L 388.4657 252.7505 L 391.7943 253.3662 L 394.0737 253.5027 L 397.5153 253.4641 L 402.0229 252.9433 L 404.1576 252.3351 L 408.4537 250.2001 L 410.3982 249.4836 L 412.5952 249.0385 L 416.0062 248.7462 L 420.6039 248.7803 L 423.9665 249.1601 L 426.0823 249.712 L 430.9793 251.841 L 433.0367 252.1719 L 436.6029 253.0917 L 439.2973 254.0649 L 441.0098 255.0041 L 446.5193 258.4846 L 447.1998 259.084 L 447.7728 259.7887 L 449.7184 263.0511 L 452.3538 266.4026 L 465.4286 280.3841 Z" fill="#000000" fill-opacity="1" stroke="#000000" stroke-width="0" paint-order="fill" stroke-opacity="1" stroke-dasharray="" stroke-linecap="butt" stroke-linejoin="miter" stroke-miterlimit="10" clip-path="none" style="filter: url(#f1)"/>
<path data-code="207" d="M 380.3062 247.3309 L 376.0184 251.2639 L 372.5957 255.01 L 370.895 257.4194 L 369.2215 261.0305 L 368.2523 262.7559 L 367.0055 264.2469 L 366.2845 264.9042 L 364.6516 265.9842 L 362.7049 266.686 L 354.2178 268.1533 L 348.9552 264.241 L 347.2127 263.3137 L 346.1095 262.9206 L 343.8146 262.431 L 340.2561 262.1372 L 335.4331 262.1135 L 331.8302 262.2752 L 329.4696 262.523 L 327.1813 262.9755 L 325.189 263.6861 L 320.8689 265.7231 L 318.7381 266.2765 L 315.3866 266.6637 L 308.548 267.0079 L 305.2143 267.4916 L 303.2331 268.1295 L 298.878 270.0686 L 293.0291 271.4335 L 291.1225 272.1382 L 290.2757 272.6293 L 289.489 273.2138 L 288.1076 274.6203 L 287.0394 276.3279 L 286.6238 277.4035 L 286.1448 279.6482 L 285.9278 283.1377 L 286.1259 287.8733 L 286.6366 291.3554 L 287.2758 293.5466 L 289.4267 297.8951 L 290.1105 299.8104 L 290.5461 302.9542 L 290.4309 305.0743 L 289.8768 307.1528 L 288.8553 308.9064 L 287.4711 310.344 L 286.6622 310.933 L 284.6899 311.8232 L 283.5755 312.0784 L 281.3034 312.289 L 279.004 312.2312 L 276.7185 311.9656 L 273.4516 311.1007 L 270.133 309.4479 L 268.4328 308.7803 L 267.4725 308.583 L 265.5086 308.5592 L 264.535 308.7373 L 262.7991 309.3901 L 259.5178 311.1363 L 255.8475 312.7786 L 250.7296 315.4847 L 247.426 316.2873 L 241.7384 316.9431 L 239.5208 317.3704 L 237.563 318.0484 L 233.2307 320.0661 L 231.0737 320.6269 L 227.6811 321.0141 L 224.2028 321.1372 L 198.565 321.0438 L 183.8901 305.908 L 180.3995 302.0863 L 179.1266 300.5003 L 178.01 298.8505 L 177.2044 297.2438 L 175.9337 294.2558 L 174.4849 292.2262 L 172.6356 290.5676 L 171.2397 289.7516 L 169.0605 288.8036 L 167.5411 287.9876 L 166.0078 286.8823 L 164.5324 285.6257 L 161.6766 282.8855 L 150.9763 272.113 L 149.0012 269.8906 L 147.8685 268.2838 L 147.4045 267.4144 L 147.0451 266.4783 L 146.8159 265.4338 L 146.7463 264.373 L 146.8303 263.3152 L 147.0735 262.2752 L 147.4824 261.2664 L 148.0087 260.3317 L 149.2755 258.6048 L 153.4181 253.694 L 155.9067 249.7595 L 158.1165 247.3442 L 158.9015 245.733 L 160.0231 241.9899 L 161.3428 238.1147 L 165.541 241.6961 L 167.0576 242.6619 L 167.8877 242.9972 L 168.8135 243.1857 L 169.7431 243.1901 L 170.6517 242.9987 L 171.5057 242.5878 L 172.2095 241.9854 L 173.1897 240.5478 L 175.3278 236.5643 L 176.0694 234.7247 L 176.3548 233.609 L 176.7387 230.1359 L 176.9268 221.8544 L 177.2144 219.5444 L 177.842 217.322 L 178.3327 216.2849 L 179.5811 214.38 L 181.0454 212.6189 L 186.5578 206.7335 L 187.9481 204.922 L 189.058 202.9191 L 189.7201 200.7278 L 190.1474 197.2903 L 190.2592 191.4064 L 190.0277 185.515 L 189.7473 183.2065 L 189.2305 180.9662 L 186.2028 173.658 L 186.5578 172.3509 L 187.1074 171.078 L 188.1005 169.4994 L 189.2922 167.9802 L 192.6637 164.3068 L 201.9242 154.8963 L 206.1158 150.4974 L 208.744 147.4382 L 210.7001 144.652 L 226.2284 144.5749 L 229.4481 144.4295 L 231.5466 144.1595 L 233.5706 143.6268 L 234.4753 143.25 L 238.6935 140.9564 L 242.3888 139.2576 L 244.9903 137.4343 L 247.4093 135.2489 L 250.4793 132.0948 L 253.3139 128.7656 L 255.053 126.0639 L 257.1227 121.3817 L 259.4126 117.5406 L 264.5828 117.2914 L 267.8141 117.3299 L 270.9697 117.7186 L 272.9854 118.3521 L 274.9348 119.4738 L 276.7013 120.8921 L 283.2651 127.3932 L 285.8744 129.5816 L 287.7154 130.6898 L 290.4515 132.0028 L 294.6325 134.3113 L 296.5385 134.9596 L 298.5948 135.2504 L 300.6745 135.2356 L 302.7252 134.924 L 304.6196 134.2861 L 308.0278 132.6066 L 309.8698 131.9583 L 311.8638 131.5637 L 316.8204 130.9138 L 318.6357 130.4109 L 320.2091 129.4644 L 320.8172 128.7834 L 323.5667 123.3964 L 324.3511 119.8105 L 326.2283 114.2366 L 327.178 112.437 L 328.4197 110.9089 L 329.8907 109.6256 L 330.6997 109.0945 L 335.1816 107.0204 L 339.3843 104.6525 L 343.1174 103.0087 L 344.8866 101.8693 L 347.3724 99.7908 L 354.5071 93.0774 L 356.0782 91.806 L 358.357 90.2556 L 359.6611 89.0376 L 360.1418 88.2409 L 360.7343 86.4279 L 361.0264 84.4473 L 361.516 79.1894 L 361.9666 77.0916 L 362.6231 75.3083 L 365.0583 69.6647 L 368.0398 72.301 L 369.2437 73.8277 L 372.3298 79.4179 L 373.2951 81.6018 L 373.6183 82.7323 L 373.9989 85.0808 L 374.1508 87.4917 L 374.0539 102.034 L 374.3277 104.249 L 374.9764 106.2815 L 375.5255 107.1791 L 376.1653 107.8705 L 377.6302 108.9224 L 382.1683 111.5409 L 385.0514 112.5379 L 387.684 117.2261 L 390.3156 121.5004 L 392.457 126.1767 L 393.5769 127.9778 L 395.6059 130.5073 L 401.5644 136.9788 L 403.5462 139.5544 L 404.5732 141.4133 L 405.8216 144.2025 L 407.5614 147.416 L 408.1745 149.1014 L 408.2996 150.0509 L 408.2601 150.9915 L 408.0487 151.8979 L 407.6459 152.7362 L 407.0768 153.4246 L 403.3887 155.9971 L 397.463 160.715 L 395.6326 161.8589 L 391.9156 163.5902 L 389.298 165.378 L 385.2806 169.0722 L 381.5719 173.1209 L 380.2589 174.8419 L 379.149 176.6653 L 377.5044 180.493 L 374.6776 185.6693 L 373.1082 189.5073 L 370.8566 193.8543 L 370.1717 195.8127 L 369.656 199.0395 L 369.4312 204.6253 L 369.4935 213.6634 L 369.6899 216.9926 L 369.977 219.1557 L 370.4989 221.2283 L 372.519 225.6717 L 373.156 227.5974 L 373.5288 229.6967 L 374.1285 236.1697 L 374.5402 238.2809 L 374.8684 239.3031 L 376.2788 241.9558 L 378.6244 245.2434 L 380.3062 247.3309 Z" fill="#000000" fill-opacity="1" stroke="#000000" stroke-width="0" paint-order="fill" stroke-opacity="1" stroke-dasharray="" stroke-linecap="butt" stroke-linejoin="miter" stroke-miterlimit="10" clip-path="none" style="filter: url(#f1)"/>
<path data-code="208" d="M 259.4126 117.5406 L 259.8393 113.9028 L 260.3006 105.4225 L 260.695 101.8901 L 261.2464 99.638 L 263.5975 94.2584 L 264.6523 90.1933 L 268.657 90.4915 L 270.5113 90.9173 L 271.3603 91.2675 L 272.7706 92.3416 L 275.4634 95.7999 L 277.5547 97.5772 L 279.2215 98.4407 L 283.639 99.8827 L 285.1656 100.7877 L 286.3184 102.126 L 288.4948 105.3394 L 290.6012 107.8007 L 292.9679 110.1033 L 295.5944 112.0246 L 299.2725 113.7812 L 304.3047 116.6801 L 308.0305 118.2928 L 313.1557 121.0034 L 315.1468 121.619 L 323.5667 123.3964 L 320.8172 128.7834 L 320.2091 129.4644 L 318.6357 130.4109 L 316.8204 130.9138 L 311.8638 131.5637 L 309.8698 131.9583 L 308.0278 132.6066 L 304.6196 134.2861 L 302.7252 134.924 L 300.6745 135.2356 L 298.5948 135.2504 L 296.5385 134.9596 L 294.6325 134.3113 L 290.4515 132.0028 L 287.7154 130.6898 L 285.8744 129.5816 L 283.2651 127.3932 L 276.7013 120.8921 L 274.9348 119.4738 L 272.9854 118.3521 L 270.9697 117.7186 L 267.8141 117.3299 L 264.5828 117.2914 L 259.4126 117.5406 Z" fill="#000000" fill-opacity="1" stroke="#000000" stroke-width="0" paint-order="fill" stroke-opacity="1" stroke-dasharray="" stroke-linecap="butt" stroke-linejoin="miter" stroke-miterlimit="10" clip-path="none" style="filter: url(#f1)"/>
<path data-code="209" d="M 612.3812 230.8065 L 608.3349 230.9504 L 605.1559 230.7827 L 603.1168 230.3465 L 601.2831 229.4682 L 599.7771 228.2116 L 598.5542 226.6909 L 597.6334 224.9284 L 596.0423 221.1437 L 594.8956 219.3234 L 593.5932 217.6439 L 591.4251 215.5476 L 589.7171 214.6737 L 588.7146 214.5521 L 587.7955 214.7123 L 586.9799 215.0788 L 586.2633 215.5891 L 585.0777 216.9125 L 584.1936 218.5801 L 583.1905 221.3663 L 580.6213 226.6346 L 579.0402 230.4845 L 577.9074 232.3746 L 575.8117 234.9739 L 573.4232 237.2987 L 571.688 238.6369 L 569.8492 239.6888 L 567.0869 240.9395 L 562.8353 243.1797 L 560.8202 243.8785 L 559.6886 244.1144 L 556.1975 244.4616 L 551.429 244.5328 L 535.7532 244.3503 L 529.7769 244.5268 L 526.2674 244.9823 L 521.3565 246.4259 L 522.4887 240.9365 L 522.9237 236.1608 L 522.9905 229.0009 L 522.8358 226.6553 L 522.4948 224.3632 L 521.8349 222.1674 L 520.8012 220.2358 L 516.8784 215.0298 L 515.2566 212.205 L 514.8778 211.1057 L 514.3999 208.8194 L 513.8023 202.9518 L 513.4257 200.6492 L 512.7998 198.6018 L 510.8854 194.1154 L 509.2402 186.9377 L 508.8803 185.9274 L 507.8177 183.9038 L 505.0075 180.2437 L 500.9684 176.0792 L 498.3029 173.928 L 496.3201 172.8346 L 495.2636 172.4637 L 493.0877 172.0186 L 489.7373 171.7723 L 472.8548 171.8673 L 468.9314 165.9106 L 467.4265 163.3158 L 466.6888 161.3945 L 465.6178 156.2227 L 465.0576 154.1975 L 460.7786 145.1179 L 459.6237 143.2856 L 454.9592 137.2043 L 453.94 135.2519 L 453.5772 134.1718 L 453.1372 131.9316 L 452.9385 129.629 L 452.8351 119.0376 L 452.6053 115.5526 L 452.2264 113.2975 L 450.9618 108.59 L 449.8202 103.0369 L 453.9255 103.6511 L 460.1739 103.9656 L 492.9592 103.9182 L 499.1942 104.0799 L 501.631 104.3158 L 503.9922 104.7638 L 506.1914 105.5397 L 510.3402 107.4551 L 512.6624 108.0619 L 515.0897 108.3897 L 521.3531 108.6316 L 539.172 108.5158 L 545.3942 108.8823 L 548.9215 109.6775 L 554.1434 112.0157 L 557.6195 112.7871 L 562.5093 113.0928 L 573.6975 113.1788 L 576.1227 113.3747 L 578.4688 113.8004 L 580.4755 114.5096 L 584.7311 116.7736 L 588.4642 118.4308 L 593.5209 121.2956 L 598.3984 123.1308 L 601.4873 124.7361 L 602.8887 127.3502 L 604.9422 130.7581 L 607.0636 135.4433 L 608.1819 137.2473 L 610.2048 139.7799 L 615.3577 145.4606 L 617.3656 147.999 L 618.4705 149.7972 L 620.6703 154.518 L 622.5274 157.1529 L 625.3926 160.4702 L 628.4832 163.5769 L 631.0101 165.5887 L 632.8889 166.5901 L 633.8987 166.9209 L 637.0243 167.3764 L 643.276 167.4417 L 645.2394 167.5767 L 647.0703 167.9936 L 647.9099 168.3867 L 648.6626 168.9624 L 649.2534 169.7071 L 649.9717 171.4281 L 650.9208 176.2721 L 651.8761 179.8758 L 652.4241 182.7258 L 653.5908 184.8844 L 655.3043 189.6661 L 656.6752 192.9048 L 656.8727 193.7505 L 656.9194 194.6451 L 656.7564 195.5916 L 655.9497 197.3274 L 654.7608 198.9267 L 649.6446 204.3849 L 647.5705 206.8715 L 646.4177 208.6414 L 645.621 210.2748 L 640.6055 213.9394 L 635.2601 218.7047 L 632.8789 220.534 L 631.118 221.4968 L 628.3368 222.7149 L 623.3019 225.596 L 619.4975 227.1242 L 612.3812 230.8065 Z" fill="#000000" fill-opacity="1" stroke="#000000" stroke-width="0" paint-order="fill" stroke-opacity="1" stroke-dasharray="" stroke-linecap="butt" stroke-linejoin="miter" stroke-miterlimit="10" clip-path="none" style="filter: url(#f1)"/>
<path data-code="210" d="M 273.4577 63.0359 L 277.4145 61.987 L 281.7424 59.9352 L 283.7163 59.2527 L 285.9434 58.824 L 291.6282 58.1638 L 293.8447 57.7276 L 295.803 57.0496 L 300.1415 55.0452 L 302.3163 54.4859 L 305.7339 54.0883 L 313.9557 53.7248 L 318.7832 53.299 L 324.6249 54.7411 L 326.4786 55.4577 L 329.9224 57.149 L 331.8808 57.8166 L 335.1933 58.3388 L 343.1486 58.775 L 346.4645 59.2943 L 348.4267 59.9708 L 352.734 62.1013 L 357.6338 63.7599 L 361.7252 65.5759 L 362.419 66.7049 L 364.3261 68.6321 L 365.0583 69.6647 L 362.6231 75.3083 L 361.9666 77.0916 L 361.516 79.1894 L 361.0264 84.4473 L 360.7343 86.4279 L 360.1418 88.2409 L 359.6611 89.0376 L 358.357 90.2556 L 356.0782 91.806 L 354.5071 93.0774 L 347.3724 99.7908 L 344.8866 101.8693 L 343.1174 103.0087 L 339.3843 104.6525 L 335.1816 107.0204 L 330.6997 109.0945 L 329.8907 109.6256 L 328.4197 110.9089 L 327.178 112.437 L 326.2283 114.2366 L 324.3511 119.8105 L 323.5667 123.3964 L 315.1468 121.619 L 313.1557 121.0034 L 308.0305 118.2928 L 304.3047 116.6801 L 299.2725 113.7812 L 295.5944 112.0246 L 292.9679 110.1033 L 290.6012 107.8007 L 288.4948 105.3394 L 286.3184 102.126 L 285.1656 100.7877 L 283.639 99.8827 L 279.2215 98.4407 L 277.5547 97.5772 L 275.4634 95.7999 L 272.7706 92.3416 L 271.3603 91.2675 L 270.5113 90.9173 L 268.657 90.4915 L 264.6523 90.1933 L 265.656 86.0971 L 267.6678 81.6389 L 268.2981 79.6938 L 268.6737 77.5901 L 269.3569 71.1334 L 269.8164 69.0401 L 270.1691 68.0312 L 271.0932 66.2554 L 273.4577 63.0359 Z" fill="#000000" fill-opacity="1" stroke="#000000" stroke-width="0" paint-order="fill" stroke-opacity="1" stroke-dasharray="" stroke-linecap="butt" stroke-linejoin="miter" stroke-miterlimit="10" clip-path="none" style="filter: url(#f1)"/>
<path data-code="211" d="M 310.2459 467.581 L 310.3472 468.5305 L 310.1836 469.6016 L 308.2681 472.5911 L 304.3603 474.45 L 299.4872 476.1577 L 295.2973 478.4543 L 293.413 479.1471 L 291.3634 479.4765 L 289.282 479.478 L 287.2196 479.1279 L 285.2368 478.2956 L 282.6108 476.3268 L 280.2052 473.9812 L 265.1731 458.2491 L 262.2784 454.8145 L 261.0956 452.9467 L 260.2861 450.9364 L 259.0766 444.7216 L 258.4156 442.8003 L 255.3162 436.9252 L 254.2486 435.4075 L 252.7976 434.28 L 247.9941 431.4285 L 246.2438 430.5769 L 244.2459 429.9819 L 239.0284 428.9612 L 236.9043 421.0966 L 234.8363 416.6354 L 234.1676 414.7186 L 233.12 409.5379 L 232.5547 407.5038 L 227.7868 397.4213 L 225.7739 394.6944 L 223.4801 392.1129 L 212.8582 381.2767 L 208.6861 377.5202 L 204.6926 374.7948 L 204.0111 374.1925 L 202.914 372.7163 L 200.5734 368.6645 L 199.3055 366.003 L 198.9867 364.914 L 198.6056 362.6515 L 198.3992 359.1487 L 198.565 321.0438 L 224.2028 321.1372 L 227.6811 321.0141 L 231.0737 320.6269 L 233.2307 320.0661 L 237.563 318.0484 L 239.5208 317.3704 L 241.7384 316.9431 L 247.426 316.2873 L 250.7296 315.4847 L 255.8475 312.7786 L 259.5178 311.1363 L 262.7991 309.3901 L 264.535 308.7373 L 265.5086 308.5592 L 267.4725 308.583 L 268.4328 308.7803 L 270.133 309.4479 L 273.4516 311.1007 L 276.7185 311.9656 L 279.004 312.2312 L 281.3034 312.289 L 283.5755 312.0784 L 284.6899 311.8232 L 286.6622 310.933 L 287.4711 310.344 L 288.8553 308.9064 L 289.8768 307.1528 L 290.4309 305.0743 L 290.5461 302.9542 L 290.1105 299.8104 L 289.4267 297.8951 L 287.2758 293.5466 L 286.6366 291.3554 L 286.1259 287.8733 L 285.9278 283.1377 L 286.1448 279.6482 L 286.6238 277.4035 L 287.0394 276.3279 L 288.1076 274.6203 L 289.489 273.2138 L 290.2757 272.6293 L 291.1225 272.1382 L 293.0291 271.4335 L 298.878 270.0686 L 303.2331 268.1295 L 305.2143 267.4916 L 308.548 267.0079 L 315.3866 266.6637 L 318.7381 266.2765 L 320.8689 265.7231 L 325.189 263.6861 L 327.1813 262.9755 L 329.4696 262.523 L 331.8302 262.2752 L 335.4331 262.1135 L 340.2561 262.1372 L 343.8146 262.431 L 346.1095 262.9206 L 347.2127 263.3137 L 348.9552 264.241 L 354.2178 268.1533 L 355.4746 270.7184 L 357.2093 275.5016 L 359.9749 280.7565 L 361.5739 284.5857 L 364.1692 289.8807 L 364.9125 293.2143 L 365.2235 297.8773 L 365.144 304.9689 L 364.6705 309.5874 L 364.1097 311.7787 L 362.0623 316.2339 L 361.3636 318.1285 L 360.1863 323.2692 L 359.5905 325.275 L 357.5609 329.7169 L 356.92 331.6738 L 356.4265 334.8918 L 356.1789 341.292 L 356.2779 365.2508 L 355.9541 371.5546 L 355.1958 375.1494 L 352.7568 380.5082 L 351.051 385.453 L 350.0618 387.7467 L 343.4908 392.2598 L 338.9665 394.46 L 337.1945 395.6172 L 334.6993 397.7224 L 330.7214 401.6332 L 322.119 410.5438 L 319.9109 413.0347 L 318.574 414.7661 L 317.444 416.5983 L 315.7939 420.4112 L 312.9576 425.5801 L 311.3909 429.4197 L 309.5633 432.872 L 308.7549 434.6909 L 308.2169 436.7769 L 307.8531 440.0497 L 307.7284 444.5302 L 307.7424 451.3206 L 308.0166 458.031 L 308.5374 461.246 L 309.5956 464.8333 L 310.2459 467.581 Z" fill="#000000" fill-opacity="1" stroke="#000000" stroke-width="0" paint-order="fill" stroke-opacity="1" stroke-dasharray="" stroke-linecap="butt" stroke-linejoin="miter" stroke-miterlimit="10" clip-path="none" style="filter: url(#f1)"/>
<path data-code="212" d="M 649.5333 443.7409 L 649.3286 448.1635 L 648.864 451.3889 L 648.2442 453.3576 L 646.2909 457.8307 L 644.6135 464.903 L 644.2196 465.8763 L 643.1853 467.5587 L 641.8662 469.0008 L 640.329 470.1773 L 635.9216 472.3671 L 631.7356 474.8031 L 628.0075 476.4307 L 623.807 478.7228 L 621.9065 479.389 L 619.8519 479.699 L 616.7397 479.5804 L 614.7274 479.0833 L 612.9704 478.2822 L 609.6245 476.4574 L 604.8627 474.6029 L 601.7616 472.8848 L 600.2845 472.0896 L 598.1837 471.4205 L 595.8348 471.0541 L 593.3495 470.8701 L 588.1988 470.7618 L 560.256 470.8122 L 556.8011 471.0912 L 554.579 471.5229 L 552.6274 472.2335 L 548.3423 474.3581 L 546.2071 474.953 L 541.695 475.4426 L 535.9613 475.3402 L 532.6198 474.7839 L 530.6498 474.0524 L 526.4198 471.744 L 522.6962 470.1209 L 518.523 467.6893 L 514.0994 465.4861 L 512.5444 464.3274 L 511.1825 462.9239 L 509.5852 460.3973 L 505.8665 452.2776 L 505.3191 450.2317 L 504.301 445.0287 L 503.6222 443.103 L 501.4235 438.713 L 499.8596 434.8586 L 497.0495 429.66 L 494.9982 424.951 L 492.607 420.6471 L 491.0186 416.8135 L 488.8288 412.4294 L 488.1784 410.4651 L 487.8112 408.3347 L 487.5297 402.8305 L 490.7265 400.4627 L 492.4084 399.5606 L 496.9271 398.2714 L 498.5572 397.5385 L 499.2771 396.948 L 499.8512 396.1869 L 500.2652 395.3294 L 500.7559 393.4348 L 500.9779 391.386 L 501.0624 384.7898 L 500.7186 379.2234 L 500.278 377.0692 L 499.9208 376.0277 L 499.4351 375.0099 L 498.2089 373.1524 L 496.7635 371.47 L 495.1779 369.9286 L 492.5892 367.9316 L 490.7477 366.945 L 487.9748 365.7018 L 485.3611 363.9496 L 481.3375 360.2807 L 477.6378 356.2304 L 476.3315 354.505 L 475.2299 352.6787 L 473.6137 348.8391 L 470.8642 343.6243 L 469.3543 339.7535 L 466.5992 334.5446 L 465.4125 331.6738 L 464.4394 329.7896 L 463.1982 328.0108 L 461.0624 325.4857 L 454.8162 319.0335 L 456.8158 316.9045 L 457.998 315.4372 L 458.9165 313.878 L 459.37 312.1778 L 459.173 310.4864 L 457.7042 306.2641 L 457.2135 303.15 L 457.1279 298.7808 L 457.5674 295.5436 L 458.2361 293.5674 L 460.5149 289.2056 L 462.1868 285.3735 L 463.1303 283.7385 L 465.4286 280.3841 L 468.5909 277.5148 L 476.6158 269.757 L 478.2798 268.3669 L 481.392 266.2008 L 482.0408 265.6148 L 484.6183 261.9651 L 485.9013 260.6195 L 487.4179 259.4712 L 488.2663 259.0128 L 490.2102 258.3733 L 492.2448 258.0455 L 497.4478 257.5662 L 500.4877 256.8853 L 502.2692 256.0945 L 505.6963 254.2652 L 509.4767 252.657 L 514.5451 249.939 L 519.6707 248.4554 L 520.7985 247.721 L 521.1145 247.2478 L 521.3565 246.4259 L 526.2674 244.9823 L 529.7769 244.5268 L 535.7532 244.3503 L 551.429 244.5328 L 556.1975 244.4616 L 559.6886 244.1144 L 560.8202 243.8785 L 562.8353 243.1797 L 567.0869 240.9395 L 569.8492 239.6888 L 571.688 238.6369 L 573.4232 237.2987 L 575.8117 234.9739 L 577.9074 232.3746 L 579.0402 230.4845 L 580.6213 226.6346 L 583.1905 221.3663 L 584.1936 218.5801 L 585.0777 216.9125 L 586.2633 215.5891 L 586.9799 215.0788 L 587.7955 214.7123 L 588.7146 214.5521 L 589.7171 214.6737 L 591.4251 215.5476 L 593.5932 217.6439 L 594.8956 219.3234 L 596.0423 221.1437 L 597.6334 224.9284 L 598.5542 226.6909 L 599.7771 228.2116 L 601.2831 229.4682 L 603.1168 230.3465 L 605.1559 230.7827 L 608.3349 230.9504 L 612.3812 230.8065 L 615.657 237.8655 L 616.8042 239.2378 L 619.6411 241.3875 L 621.5944 243.383 L 622.6999 244.9408 L 625.0905 249.4791 L 630.4059 256.4669 L 631.4446 258.4312 L 631.8001 259.4638 L 632.3587 262.6877 L 632.3559 267.0776 L 632.0694 269.2482 L 631.5069 271.3504 L 630.6746 273.196 L 628.8242 276.6172 L 627.1613 280.4004 L 624.2699 285.5456 L 622.6264 289.3569 L 620.396 293.7276 L 619.4274 296.9871 L 619.0235 300.6353 L 618.9545 308.1067 L 619.1709 311.8083 L 619.4953 314.2133 L 620.0811 316.5129 L 622.0712 320.9637 L 622.7511 323.0259 L 623.1722 325.4085 L 623.387 327.8669 L 623.5155 334.1559 L 623.2462 383.7513 L 623.3347 387.5152 L 623.7102 391.1916 L 623.9572 392.377 L 624.6671 394.457 L 626.8948 398.8069 L 628.5071 402.6079 L 630.7208 406.9683 L 631.4124 409.0409 L 631.8107 411.4161 L 631.986 413.8596 L 632.0188 422.5773 L 632.1868 426.264 L 632.5495 428.6512 L 632.8667 429.8039 L 633.6355 431.6362 L 636.3845 436.5766 L 637.51 438.072 L 638.2149 438.6848 L 644.6608 442.422 L 646.5268 443.1089 L 649.5333 443.7409 Z" fill="#000000" fill-opacity="1" stroke="#000000" stroke-width="0" paint-order="fill" stroke-opacity="1" stroke-dasharray="" stroke-linecap="butt" stroke-linejoin="miter" stroke-miterlimit="10" clip-path="none" style="filter: url(#f1)"/>













</svg>