<?xml version="1.0" standalone="no"?>
<!-- Generator: Paintmaps.com , Online SVG vector map maker -->
<svg xmlns="http://www.w3.org/2000/svg" version="1.1" baseProfile="full"   style="background-color:#e0f2f1" width="800" height="500" viewBox="0 0 800 533">

<path data-code="200" d="M 562.9621 376.9636 L 561.0594 376.9674 L 558.7095 377.4665 L 552.1938 380.0409 L 546.3075 381.3917 L 543.4069 382.2665 L 536.6101 385.4055 L 532.0765 386.4133 L 524.1271 386.8295 L 485.2409 386.7139 L 474.0637 387.1899 L 470.3155 382.6326 L 466.1057 378.5687 L 463.7933 376.925 L 462.5685 376.266 L 458.9338 375.0058 L 460.3848 368.5178 L 462.416 361.5287 L 463.4775 355.4184 L 464.0975 353.0405 L 464.5398 351.8998 L 465.8159 349.6742 L 471.1263 342.9376 L 472.065 340.8449 L 472.2304 339.6656 L 472.0968 338.442 L 471.7145 337.3013 L 471.1581 336.2299 L 468.8523 333.2412 L 450.152 314.4612 L 446.3222 310.4146 L 443.6652 307.266 L 442.1311 305.0384 L 441.4865 303.863 L 439.5117 298.7817 L 435.5894 290.2029 L 434.3906 273.9607 L 433.3984 269.575 L 430.8245 263.8789 L 430.0275 261.4047 L 429.5527 257.2733 L 429.9538 253.1054 L 430.779 250.5579 L 433.6773 244.9544 L 435.7852 240.0079 L 439.4972 233.2829 L 442.0661 227.186 L 450.264 212.6068 L 451.2735 222.9699 L 452.1312 234.8495 L 452.7021 237.7303 L 453.1718 239.1235 L 454.5411 241.7017 L 456.2804 244.0487 L 458.222 246.2647 L 466.5652 254.8454 L 470.5338 259.3005 L 472.1979 261.5242 L 473.5268 263.7248 L 476.4483 269.8274 L 478.0929 272.1474 L 480.9609 275.3596 L 483.0601 277.3039 L 485.2973 279.017 L 491.1901 282.1039 L 493.574 283.7052 L 496.9421 286.5976 L 503.426 292.8775 L 506.8352 295.7082 L 509.3289 297.1842 L 510.5827 297.6891 L 518.3051 299.6045 L 520.6796 300.4986 L 526.2856 303.1809 L 530.5142 304.1154 L 534.938 304.443 L 539.4406 304.5239 L 579.5299 304.3814 L 578.3449 307.9115 L 577.6931 310.6844 L 577.0565 317.1281 L 576.9221 326.9786 L 577.1786 351.6898 L 576.9856 356.5245 L 576.5745 359.6769 L 575.7052 362.7196 L 575.0794 364.0473 L 572.6052 367.6468 L 568.5586 371.9381 L 562.9621 376.9636 Z" fill="#000000" fill-opacity="1" stroke="#000000" stroke-width="0" paint-order="fill" stroke-opacity="1" stroke-dasharray="" stroke-linecap="butt" stroke-linejoin="miter" stroke-miterlimit="10" transform="matrix(1.0499999523162842,0,0,1.0499999523162842,-20.00000762939453,-13.325013160705566)" clip-path="none" style="filter: url(#f1)"/>
<path data-code="201" d="M 450.8378 166.0229 L 451.4736 171.9849 L 451.7135 177.3321 L 443.5857 183.587 L 441.3955 184.9416 L 438.8584 185.9745 L 436.028 186.5738 L 431.6533 186.9553 L 425.7251 187.0594 L 419.8192 186.8801 L 415.4959 186.3175 L 412.7319 185.4523 L 411.45 184.8029 L 407.9613 182.2651 L 398.8074 173.7943 L 405.0673 163.8821 L 407.9086 157.8045 L 410.9413 152.2298 L 411.4356 151.0216 L 412.1004 148.3066 L 412.2355 144.1367 L 411.7203 141.41 L 411.2181 140.1055 L 409.8097 137.9415 L 407.996 136.2227 L 405.9106 134.9856 L 403.5715 134.2688 L 399.0942 133.2957 L 398.0638 132.8217 L 397.1085 132.099 L 396.3389 131.1202 L 395.448 128.7982 L 395.237 126.2431 L 395.6366 123.6147 L 396.1005 122.3179 L 397.4583 120.1269 L 398.3059 119.177 L 400.2453 117.5391 L 402.5122 116.2731 L 407.2459 114.3365 L 415.5674 110.3034 L 423.6028 110.2514 L 426.3357 110.5751 L 428.992 111.3189 L 431.5038 112.6735 L 433.7561 114.4309 L 436.7455 117.5294 L 438.4415 119.8591 L 439.7523 122.4566 L 440.1974 123.8903 L 440.696 126.8327 L 440.9063 131.3552 L 440.8304 143.6048 L 441.0255 146.6166 L 441.5017 149.5495 L 442.3761 152.1817 L 446.9639 161.298 L 448.2523 163.3464 L 450.8378 166.0229 Z" fill="#000000" fill-opacity="1" stroke="#000000" stroke-width="0" paint-order="fill" stroke-opacity="1" stroke-dasharray="" stroke-linecap="butt" stroke-linejoin="miter" stroke-miterlimit="10" transform="matrix(1.0499999523162842,0,0,1.0499999523162842,-20.00000762939453,-13.325013160705566)" clip-path="none" style="filter: url(#f1)"/>
<path data-code="202" d="M 458.9338 375.0058 L 450.2575 378.0311 L 440.8268 381.91 L 435.2859 384.7947 L 432.7242 385.71 L 429.8331 386.2746 L 422.4495 387.1012 L 419.5656 387.6504 L 417.0155 388.5233 L 411.3641 391.0938 L 408.5799 391.7683 L 404.2161 392.1903 L 395.3432 392.4658 L 390.9982 393.1191 L 389.5905 393.5796 L 387.0585 394.9111 L 383.7093 397.6011 L 380.842 400.8153 L 379.3072 403.2567 L 378.3158 405.9621 L 377.9292 408.7427 L 377.9826 411.5272 L 378.4307 414.2538 L 379.2855 416.753 L 381.9801 422.4144 L 382.7475 425.2393 L 383.1796 428.2106 L 383.491 434.3518 L 383.3082 442.127 L 382.84 446.7652 L 381.8789 451.7521 L 373.8399 450.251 L 371.4207 449.3569 L 366.96 447.1718 L 364.355 446.2642 L 361.3584 445.6996 L 356.707 445.3161 L 342.398 445.1446 L 332.9608 445.5107 L 329.9295 445.9597 L 327.0412 446.7999 L 323.0972 448.9311 L 318.039 450.9698 L 315.593 452.1953 L 313.418 453.6559 L 309.3873 457.0801 L 303.0927 457.5522 L 300.0483 458.1072 L 297.1948 459.0996 L 291.7752 461.6104 L 288.8321 462.3946 L 285.7603 462.8398 L 277.8716 463.2386 L 270.1282 463.0614 L 266.255 462.4756 L 264.3907 461.8589 L 263.171 461.252 L 260.967 459.747 L 257.9971 457.084 L 244.9628 443.2427 L 239.1921 437.5929 L 237.1608 435.9435 L 235.0147 434.5657 L 231.1777 432.8642 L 229.1363 431.7524 L 227.0509 430.2224 L 224.0788 427.5748 L 217.4092 420.817 L 210.9144 413.8356 L 208.3166 410.7005 L 203.8835 404.3724 L 219.7403 404.0641 L 268.1287 404.2125 L 272.4528 404.1007 L 276.623 403.7365 L 280.5742 402.8193 L 286.1714 400.162 L 288.5907 399.3084 L 291.2225 398.7862 L 299.3611 397.9056 L 303.3246 396.9903 L 310.1055 393.6586 L 314.9875 391.6661 L 317.1676 390.4676 L 322.0632 387.3633 L 323.8112 386.0202 L 324.5229 385.1088 L 325.0107 384.0239 L 325.2528 382.8696 L 325.2773 381.6904 L 324.7795 379.4493 L 322.8198 375.3661 L 322.0011 373.0018 L 321.5827 370.3426 L 321.5494 367.5967 L 322.2561 363.554 L 325.3619 356.642 L 326.0852 353.9693 L 326.5787 349.7513 L 326.5426 345.4619 L 326.2023 342.6312 L 325.5028 339.8853 L 324.5244 337.598 L 322.4599 333.6728 L 325.2752 329.6282 L 328.037 326.3119 L 331.9701 322.1516 L 335.0845 319.292 L 338.4446 316.9142 L 343.2275 314.6866 L 347.5834 312.2876 L 349.89 311.2413 L 352.6532 310.5283 L 356.9751 310.089 L 374.8169 309.9695 L 382.7742 309.3394 L 385.7528 312.0236 L 388.7538 314.3417 L 391.009 315.6309 L 394.9761 317.3728 L 398.7394 320.3596 L 403.6322 325.017 L 438.4697 361.2416 L 443.2786 365.9646 L 446.3959 368.4734 L 448.9062 370.0323 L 452.1912 371.7743 L 458.9338 375.0058 Z" fill="#000000" fill-opacity="1" stroke="#000000" stroke-width="0" paint-order="fill" stroke-opacity="1" stroke-dasharray="" stroke-linecap="butt" stroke-linejoin="miter" stroke-miterlimit="10" transform="matrix(1.0499999523162842,0,0,1.0499999523162842,-20.00000762939453,-13.325013160705566)" clip-path="none" style="filter: url(#f1)"/>
<path data-code="203" d="M 571.9513 264.5244 L 577.1237 269.2204 L 588.0559 280.0055 L 590.3509 282.7013 L 591.4854 284.6302 L 591.8388 285.69 L 591.9703 286.8327 L 591.8301 287.9426 L 591.4796 288.9677 L 590.9825 289.9254 L 589.6999 291.7155 L 584.1951 297.9531 L 579.5299 304.3814 L 539.4406 304.5239 L 534.938 304.443 L 530.5142 304.1154 L 526.2856 303.1809 L 520.6796 300.4986 L 518.3051 299.6045 L 510.5827 297.6891 L 509.3289 297.1842 L 506.8352 295.7082 L 503.426 292.8775 L 496.9421 286.5976 L 493.574 283.7052 L 491.1901 282.1039 L 485.2973 279.017 L 483.0601 277.3039 L 480.9609 275.3596 L 478.0929 272.1474 L 476.4483 269.8274 L 473.5268 263.7248 L 472.1979 261.5242 L 470.5338 259.3005 L 466.5652 254.8454 L 458.222 246.2647 L 456.2804 244.0487 L 454.5411 241.7017 L 453.1718 239.1235 L 452.7021 237.7303 L 452.1312 234.8495 L 451.2735 222.9699 L 450.264 212.6068 L 451.5416 204.7969 L 451.9383 199.5575 L 452.0727 189.0268 L 451.7135 177.3321 L 451.4736 171.9849 L 450.8378 166.0229 L 461.7361 172.4897 L 464.0065 173.6324 L 466.5558 174.4552 L 471.7644 175.6017 L 474.2985 176.3629 L 481.0448 179.5558 L 491.3166 182.2709 L 498.0679 185.4446 L 502.3587 186.41 L 514.4638 187.1846 L 520.5625 187.9573 L 521.6212 192.1022 L 522.8821 194.6245 L 524.5188 196.9561 L 526.4091 199.1047 L 528.5083 201.0413 L 530.8423 202.6695 L 532.1206 203.3112 L 534.9828 204.1591 L 539.4442 204.6273 L 545.5386 204.662 L 557.6112 204.2978 L 555.8524 207.9127 L 553.1 215.6244 L 550.2955 221.3416 L 549.3901 224.0162 L 548.8648 227.0473 L 548.6596 230.1516 L 548.825 234.8244 L 549.3135 237.869 L 550.1756 240.5629 L 552.7654 246.2782 L 554.8927 253.6025 L 556.0858 255.7183 L 557.8395 257.308 L 565.0164 261.8402 L 567.4465 262.9752 L 571.9513 264.5244 Z" fill="#000000" fill-opacity="1" stroke="#000000" stroke-width="0" paint-order="fill" stroke-opacity="1" stroke-dasharray="" stroke-linecap="butt" stroke-linejoin="miter" stroke-miterlimit="10" transform="matrix(1.0499999523162842,0,0,1.0499999523162842,-20.00000762939453,-13.325013160705566)" clip-path="none" style="filter: url(#f1)"/>
<path data-code="204" d="M 394.9761 317.3728 L 399.1101 311.9542 L 402.9587 307.6494 L 408.0278 302.6375 L 411.2954 300.0708 L 413.659 298.7797 L 417.2735 297.2189 L 423.8969 293.6329 L 426.465 292.812 L 431.7321 291.4824 L 435.5894 290.2029 L 439.5117 298.7817 L 441.4865 303.863 L 442.1311 305.0384 L 443.6652 307.266 L 446.3222 310.4146 L 450.152 314.4612 L 468.8523 333.2412 L 471.1581 336.2299 L 471.7145 337.3013 L 472.0968 338.442 L 472.2304 339.6656 L 472.065 340.8449 L 471.1263 342.9376 L 465.8159 349.6742 L 464.5398 351.8998 L 464.0975 353.0405 L 463.4775 355.4184 L 462.416 361.5287 L 460.3848 368.5178 L 458.9338 375.0058 L 452.1912 371.7743 L 448.9062 370.0323 L 446.3959 368.4734 L 443.2786 365.9646 L 438.4697 361.2416 L 403.6322 325.017 L 398.7394 320.3596 L 394.9761 317.3728 Z" fill="#000000" fill-opacity="1" stroke="#000000" stroke-width="0" paint-order="fill" stroke-opacity="1" stroke-dasharray="" stroke-linecap="butt" stroke-linejoin="miter" stroke-miterlimit="10" transform="matrix(1.0499999523162842,0,0,1.0499999523162842,-20.00000762939453,-13.325013160705566)" clip-path="none" style="filter: url(#f1)"/>
<path data-code="205" d="M 415.5674 110.3034 L 407.3449 106.0044 L 401.3712 103.3837 L 398.9945 101.8711 L 396.7899 100.0617 L 394.7427 98.0461 L 392.8849 95.8474 L 391.314 93.4272 L 390.6932 92.1034 L 389.8803 89.1976 L 389.5067 86.1954 L 389.3615 81.5996 L 389.5421 75.4064 L 389.954 70.7895 L 390.4808 67.7719 L 391.0415 65.789 L 391.2713 65.789 L 391.2713 65.9297 L 391.7974 65.9297 L 391.7974 66.0704 L 392.2179 66.0704 L 392.2179 66.2091 L 392.744 66.2091 L 392.744 66.3498 L 393.2708 66.3498 L 393.2708 66.4904 L 393.7968 66.4904 L 393.7968 66.6311 L 394.3229 66.6311 L 394.3229 66.7718 L 394.7442 66.7718 L 394.7442 66.9105 L 395.2702 66.9105 L 395.2702 67.0512 L 395.7963 67.0512 L 395.7963 67.1919 L 396.3223 67.1919 L 396.3223 67.3325 L 396.8484 67.3325 L 396.8484 67.4732 L 397.2697 67.4732 L 397.2697 67.6139 L 397.7957 67.6139 L 397.7957 67.7526 L 398.3218 67.7526 L 398.3218 67.8933 L 398.8471 67.8933 L 398.8478 68.032 L 399.4794 68.0339 L 399.4794 68.1746 L 400.0054 68.1746 L 400.0054 68.3153 L 400.5308 68.3153 L 400.5322 68.454 L 401.0583 68.454 L 401.0583 68.5947 L 401.6891 68.5947 L 401.6891 68.7353 L 402.2159 68.7353 L 402.2159 68.876 L 402.7419 68.876 L 402.7419 69.0167 L 403.3735 69.0167 L 403.3735 69.1573 L 403.8996 69.1573 L 403.8996 69.2961 L 404.5311 69.2961 L 404.5311 69.4367 L 405.1619 69.4367 L 405.1619 69.5774 L 405.7935 69.5774 L 405.7935 69.7181 L 406.4251 69.7181 L 406.4251 69.8587 L 407.0566 69.8587 L 407.0566 69.9975 L 407.6882 69.9975 L 407.6882 70.1382 L 408.4245 70.1382 L 408.4245 70.2788 L 409.0561 70.2788 L 409.0561 70.4195 L 409.6876 70.4195 L 409.6876 70.5602 L 410.3192 70.5602 L 410.3192 70.7008 L 410.95 70.7008 L 410.95 70.8396 L 411.5816 70.8396 L 411.5816 70.9802 L 412.2131 70.9802 L 412.2131 71.1209 L 412.8447 71.1209 L 412.8447 71.2616 L 413.3707 71.2616 L 413.3707 71.4022 L 414.0023 71.4022 L 414.0023 71.541 L 414.6338 71.541 L 414.6338 71.6816 L 415.2647 71.6816 L 415.2647 71.8223 L 415.7915 71.8223 L 415.7915 71.963 L 416.4223 71.963 L 416.4223 72.1036 L 417.0538 72.1036 L 417.0538 72.2443 L 417.6854 72.2443 L 417.6854 72.383 L 418.2115 72.383 L 418.2115 72.5237 L 418.843 72.5237 L 418.843 72.6644 L 419.6848 72.6644 L 419.6848 72.805 L 420.5267 72.805 L 420.5267 72.9457 L 421.3685 72.9457 L 421.3685 73.0845 L 422.3158 73.0845 L 422.3158 73.2251 L 423.1577 73.2251 L 423.1577 73.3658 L 423.9995 73.3658 L 423.9995 73.5065 L 424.8413 73.5065 L 424.8413 73.6471 L 425.6825 73.6471 L 425.6832 73.7878 L 426.4202 73.7878 L 426.4202 73.9265 L 427.2621 73.9265 L 427.2621 74.0672 L 428.1039 74.0672 L 428.1039 74.2079 L 428.8402 74.2079 L 428.8402 74.3466 L 429.6828 74.3485 L 429.6828 74.4892 L 430.5246 74.4892 L 430.5246 74.6279 L 431.261 74.6279 L 431.261 74.7686 L 432.1028 74.7686 L 432.1028 74.9093 L 432.9446 74.9093 L 432.9446 75.0499 L 433.6817 75.0499 L 433.6817 75.1906 L 434.5235 75.1906 L 434.5235 75.3313 L 435.5749 75.3313 L 435.5756 75.4681 L 436.6277 75.47 L 436.6285 75.6107 L 437.6806 75.6107 L 437.6806 75.7513 L 438.7327 75.7513 L 438.7327 75.892 L 439.7855 75.892 L 439.7855 76.0327 L 440.8376 76.0327 L 440.8376 76.1714 L 441.8897 76.1714 L 441.8897 76.3121 L 442.8371 76.3121 L 442.8371 76.4528 L 443.6789 76.4528 L 443.6789 76.5934 L 444.6262 76.5934 L 444.6262 76.7341 L 445.4681 76.7341 L 445.4681 76.8748 L 446.4154 76.8748 L 446.4154 77.0135 L 447.2572 77.0135 L 447.2572 77.1542 L 448.2039 77.1542 L 448.2039 77.2948 L 449.0457 77.2948 L 449.0457 77.4355 L 449.993 77.4355 L 449.993 77.5762 L 450.8349 77.5762 L 450.8349 77.7149 L 451.6767 77.7149 L 451.6767 77.8556 L 452.624 77.8556 L 452.624 77.9962 L 453.4659 77.9962 L 453.4659 78.1369 L 454.3077 78.1369 L 454.3077 78.2776 L 455.1495 78.2776 L 455.1495 78.4182 L 455.9906 78.4182 L 455.9914 78.557 L 456.9387 78.557 L 456.9387 78.6976 L 457.7805 78.6976 L 457.7805 78.8383 L 458.6224 78.8383 L 458.6224 78.979 L 459.8848 78.979 L 459.8855 79.1196 L 461.0431 79.1196 L 461.0431 79.2584 L 462.7268 79.2584 L 462.7268 79.1196 L 462.8641 79.1196 L 463.3583 79.1196 L 463.3583 78.979 L 463.8844 78.979 L 463.8844 78.8383 L 464.5159 78.8383 L 464.5159 78.6976 L 465.1468 78.6976 L 465.1475 78.8383 L 465.2523 78.8383 L 465.2523 79.1196 L 465.3578 79.1196 L 465.3578 79.399 L 465.4633 79.399 L 465.4633 79.5397 L 465.6735 79.5397 L 465.6735 79.6804 L 466.0941 79.6804 L 466.0941 79.821 L 466.1996 79.821 L 466.1996 79.9617 L 466.4099 79.9617 L 466.4099 80.1005 L 466.6209 80.1005 L 466.6209 80.2411 L 466.8311 80.2411 L 466.8311 80.3818 L 467.1469 80.3818 L 467.1469 80.5225 L 467.3572 80.5225 L 467.3572 80.6631 L 467.673 80.6631 L 467.673 80.8019 L 467.8833 80.8019 L 467.8833 80.9425 L 468.0943 80.9425 L 468.0943 81.0832 L 468.4093 81.0832 L 468.4093 81.2239 L 468.6203 81.2239 L 468.6203 81.3626 L 468.9361 81.3645 L 468.9361 81.5033 L 469.1464 81.5052 L 469.1464 81.6439 L 469.5669 81.6439 L 469.5669 81.7846 L 469.8827 81.7846 L 469.8827 81.9253 L 470.83 81.9253 L 470.83 82.0659 L 471.1451 82.0659 L 471.1458 82.2066 L 471.2513 82.2066 L 471.2513 82.3453 L 471.6719 82.3453 L 471.6719 82.0659 L 471.9877 82.0659 L 471.9877 82.2066 L 472.1979 82.2066 L 472.1979 82.3453 L 472.3034 82.3453 L 472.3034 82.6267 L 472.4089 82.6267 L 472.4089 82.7673 L 472.6192 82.7673 L 472.6192 83.0468 L 472.724 83.0487 L 472.724 83.1874 L 472.8295 83.1874 L 472.8295 83.3281 L 472.935 83.3281 L 472.935 83.4688 L 473.1453 83.4688 L 473.1453 83.6094 L 473.461 83.6094 L 473.461 83.7501 L 474.0926 83.7501 L 474.0926 83.8888 L 474.4084 83.8888 L 474.4084 84.1702 L 474.5132 84.1702 L 474.5132 84.3108 L 474.7242 84.3108 L 474.7242 84.4515 L 474.8289 84.4515 L 474.8289 84.5902 L 474.9344 84.5902 L 474.9344 84.7309 L 475.1447 84.7309 L 475.1447 84.8716 L 475.7763 84.8716 L 475.7763 84.5902 L 476.6181 84.5902 L 476.6181 84.7309 L 476.7236 84.7309 L 476.7236 84.8716 L 476.9339 84.8716 L 476.9339 85.0122 L 477.1442 85.0122 L 477.1442 85.1529 L 477.3544 85.1529 L 477.3544 85.2936 L 477.6702 85.2936 L 477.6702 85.4323 L 477.7757 85.4323 L 477.7757 85.573 L 477.8812 85.573 L 477.8812 85.7136 L 478.197 85.7136 L 478.197 85.995 L 478.3018 85.995 L 478.3018 86.1337 L 478.4073 86.1337 L 478.4073 86.2628 L 478.4535 86.2744 L 478.512 86.2744 L 478.512 86.4151 L 478.9333 86.4151 L 478.9333 86.5557 L 479.1436 86.5557 L 479.1436 86.6964 L 479.2491 86.6964 L 479.2491 86.8371 L 479.4594 86.8371 L 479.4594 86.9758 L 479.5649 86.9758 L 479.5649 87.1165 L 479.7752 87.1165 L 479.7752 87.2571 L 479.9854 87.2571 L 479.9854 87.3978 L 480.3012 87.3978 L 480.3012 87.5385 L 480.8273 87.5385 L 480.8273 87.6772 L 481.2485 87.6772 L 481.2485 87.8179 L 481.6698 87.8179 L 481.6698 87.9585 L 482.4062 87.9585 L 482.4062 88.0992 L 482.6164 88.0992 L 482.6164 88.2399 L 482.9322 88.2399 L 482.9322 88.3805 L 483.1425 88.3805 L 483.1425 88.5193 L 483.4583 88.5193 L 483.4583 88.6599 L 483.6693 88.6599 L 483.6693 88.7987 L 484.0898 88.8006 L 484.0898 88.9413 L 484.3001 88.9413 L 484.3001 89.0819 L 484.5111 89.0819 L 484.5111 89.2207 L 484.7214 89.2207 L 484.7214 89.3614 L 484.9317 89.3614 L 484.9317 89.502 L 485.1419 89.502 L 485.1419 89.6427 L 485.3529 89.6427 L 485.3529 89.7834 L 485.5632 89.7834 L 485.5632 89.924 L 485.7735 89.924 L 485.7735 90.0628 L 485.9845 90.0628 L 485.9845 90.2034 L 486.1948 90.2034 L 486.1948 90.3441 L 486.405 90.3441 L 486.405 90.4848 L 486.6153 90.4848 L 486.6153 90.6254 L 486.8263 90.6254 L 486.8263 90.7642 L 487.0366 90.7642 L 487.0366 90.9048 L 487.2469 90.9048 L 487.2469 91.0455 L 487.4572 91.0455 L 487.4572 91.1862 L 487.6682 91.1862 L 487.6682 91.3268 L 487.8784 91.3268 L 487.8784 91.4675 L 488.1942 91.4675 L 488.1942 91.6062 L 488.4045 91.6062 L 488.4045 91.7469 L 488.8258 91.7469 L 488.8258 91.8876 L 489.036 91.8876 L 489.036 92.0282 L 489.2463 92.0282 L 489.2463 92.1689 L 489.4573 92.1689 L 489.4573 92.3076 L 489.7724 92.3076 L 489.7724 92.4483 L 489.9834 92.4483 L 489.9834 92.589 L 490.2992 92.589 L 490.2992 92.7296 L 490.8252 92.7296 L 490.8252 93.011 L 491.4568 93.011 L 491.4568 93.1497 L 491.5616 93.1497 L 491.5616 93.2904 L 491.7726 93.2904 L 491.7726 93.4311 L 491.9828 93.4311 L 491.9828 93.5717 L 492.2986 93.5717 L 492.2986 93.7124 L 492.6144 93.7124 L 492.6144 93.8511 L 492.9302 93.8511 L 492.9302 93.9918 L 493.1404 93.9918 L 493.1404 94.1325 L 493.4562 94.1325 L 493.4562 94.2731 L 493.772 94.2731 L 493.772 94.4138 L 494.0878 94.4138 L 494.0878 94.5545 L 494.2981 94.5545 L 494.2981 94.6932 L 494.6138 94.6932 L 494.6138 94.8339 L 494.9296 94.8339 L 494.9296 94.9745 L 495.2447 94.9745 L 495.2454 95.1152 L 495.4549 95.1152 L 495.4557 95.2559 L 495.8762 95.2559 L 495.8762 95.3946 L 495.9817 95.3946 L 495.9817 95.5353 L 496.192 95.5353 L 496.192 95.6759 L 496.5078 95.6759 L 496.5078 95.8147 L 496.8236 95.8166 L 496.8236 95.9573 L 497.0331 95.9573 L 497.0338 96.0979 L 497.2448 96.0979 L 497.2448 96.2367 L 497.3496 96.2367 L 497.3496 96.3774 L 497.4551 96.3774 L 497.4551 96.518 L 497.6654 96.518 L 497.6654 96.6587 L 497.7709 96.6587 L 497.7709 96.7994 L 497.9812 96.7994 L 497.9812 96.9381 L 498.5072 96.9381 L 498.5072 97.0788 L 498.7175 97.0788 L 498.7175 97.2194 L 498.9285 97.2194 L 498.9285 97.3601 L 499.2443 97.3601 L 499.2443 97.5008 L 499.4546 97.5008 L 499.4546 97.6414 L 499.5601 97.6414 L 499.5601 97.7802 L 499.8751 97.7802 L 499.8751 97.9208 L 499.9806 97.9208 L 499.9806 98.0615 L 500.5067 98.0615 L 500.5067 98.2022 L 500.7177 98.2022 L 500.7177 98.3428 L 501.2437 98.3428 L 501.2437 98.4816 L 501.4533 98.4816 L 501.454 98.6222 L 501.7698 98.6222 L 501.7698 98.7629 L 501.8753 98.7629 L 501.8753 98.9036 L 502.0856 98.9036 L 502.0856 99.0442 L 502.2958 99.0442 L 502.2958 99.1849 L 502.4013 99.1849 L 502.4013 99.3237 L 502.6116 99.3237 L 502.6116 99.4643 L 502.9274 99.4643 L 502.9274 99.605 L 503.3479 99.605 L 503.3479 99.7457 L 503.5589 99.7457 L 503.5589 99.8863 L 503.7692 99.8863 L 503.7692 100.0251 L 503.9795 100.0251 L 503.9795 100.1657 L 504.1905 100.1657 L 504.1905 100.3064 L 505.9789 100.3064 L 505.9789 100.1657 L 506.6105 100.1657 L 506.6105 100.0251 L 506.9263 100.0251 L 506.9263 99.8863 L 507.8736 99.8863 L 507.8736 100.0251 L 508.5052 100.0251 L 508.5052 100.1657 L 509.7676 100.1657 L 509.7676 100.3064 L 510.1888 100.3064 L 510.1888 100.4471 L 510.2936 100.4471 L 510.2936 100.5877 L 510.9252 100.5877 L 510.9252 100.7284 L 512.1883 100.7284 L 512.1883 100.8671 L 512.2923 100.8671 L 512.2931 101.0078 L 512.6088 101.0078 L 512.6088 100.8671 L 512.9246 100.8671 L 512.9246 100.7284 L 513.2404 100.7284 L 513.2404 100.5877 L 513.9775 100.5877 L 513.9775 100.7284 L 514.8193 100.7284 L 514.8193 100.8671 L 515.1351 100.8671 L 515.1351 101.0078 L 515.2398 101.0078 L 515.2398 100.8671 L 515.7652 100.8671 L 515.7659 101.0078 L 516.3975 101.0078 L 516.3975 101.1485 L 517.3448 101.1485 L 517.3448 101.2891 L 517.6606 101.2891 L 517.6606 101.4298 L 523.1068 101.4298 L 523.4486 101.4298 L 523.4486 101.5685 L 523.6589 101.5685 L 523.6589 101.7092 L 524.185 101.7092 L 524.185 101.8499 L 524.5007 101.8499 L 524.5007 101.9905 L 524.922 101.9905 L 524.922 102.1312 L 525.4481 102.1312 L 525.4481 102.2719 L 525.8686 102.2719 L 525.8686 102.4106 L 526.3954 102.4106 L 526.3954 102.5513 L 527.2372 102.5513 L 527.2372 102.692 L 528.6051 102.692 L 528.6051 102.8326 L 529.2367 102.8326 L 529.2367 102.9733 L 529.7627 102.9733 L 529.7627 103.112 L 530.9196 103.112 L 530.9204 103.2527 L 531.4464 103.2527 L 531.4464 103.3934 L 532.6033 103.3934 L 532.604 103.534 L 533.2356 103.534 L 533.2356 103.6747 L 533.7616 103.6747 L 533.7616 103.8154 L 534.1829 103.8154 L 534.1829 103.9541 L 534.6035 103.9541 L 534.6035 104.0948 L 535.1295 104.0948 L 535.1295 104.2354 L 535.8066 104.2354 L 536.126 105.5978 L 537.1232 110.446 L 537.5242 114.7835 L 537.5546 120.574 L 537.1109 124.8306 L 536.4078 127.5534 L 535.915 128.7674 L 532.8952 134.4037 L 530.6082 139.2808 L 529.09 141.6085 L 524.9394 146.9789 L 523.6575 149.1853 L 523.2326 150.3549 L 523.0245 151.5766 L 523.2846 153.7695 L 524.8208 158.0261 L 525.701 162.2172 L 526.1569 168.2948 L 526.0348 174.4745 L 525.6504 177.5094 L 524.8642 180.4326 L 523.2044 183.7643 L 520.5625 187.9573 L 514.4638 187.1846 L 502.3587 186.41 L 498.0679 185.4446 L 491.3166 182.2709 L 481.0448 179.5558 L 474.2985 176.3629 L 471.7644 175.6017 L 466.5558 174.4552 L 464.0065 173.6324 L 461.7361 172.4897 L 450.8378 166.0229 L 448.2523 163.3464 L 446.9639 161.298 L 442.3761 152.1817 L 441.5017 149.5495 L 441.0255 146.6166 L 440.8304 143.6048 L 440.9063 131.3552 L 440.696 126.8327 L 440.1974 123.8903 L 439.7523 122.4566 L 438.4415 119.8591 L 436.7455 117.5294 L 433.7561 114.4309 L 431.5038 112.6735 L 428.992 111.3189 L 426.3357 110.5751 L 423.6028 110.2514 L 415.5674 110.3034 Z" fill="#000000" fill-opacity="1" stroke="#000000" stroke-width="0" paint-order="fill" stroke-opacity="1" stroke-dasharray="" stroke-linecap="butt" stroke-linejoin="miter" stroke-miterlimit="10" transform="matrix(1.0499999523162842,0,0,1.0499999523162842,-20.00000762939453,-13.325013160705566)" clip-path="none" style="filter: url(#f1)"/>
<path data-code="206" d="M 357.6565 53.3005 L 357.8054 53.3005 L 357.8003 53.4489 L 357.6565 53.3005 Z M 398.8074 173.7943 L 389.8709 175.8792 L 381.1859 178.8583 L 379.4589 177.3533 L 377.5686 176.018 L 372.915 173.7172 L 368.5924 171.2603 L 366.2938 170.2024 L 362.3151 169.3122 L 355.3789 168.9673 L 351.6307 168.077 L 349.3386 166.9825 L 347.3804 165.4371 L 345.7263 163.5545 L 344.4105 161.3501 L 342.747 157.7814 L 340.4932 154.3707 L 337.761 151.1411 L 331.9614 144.8882 L 329.389 141.5835 L 328.0919 139.1093 L 327.6634 137.7662 L 327.3845 136.3923 L 327.1865 133.6078 L 327.3996 130.8369 L 328.0427 128.1565 L 330.7482 122.472 L 331.6283 119.9998 L 332.3415 115.8896 L 333.0121 108.8485 L 333.8879 104.7557 L 334.8945 102.3702 L 337.2018 97.8361 L 339.3385 92.8703 L 341.7693 89.3344 L 343.7095 87.1935 L 345.8044 85.2184 L 349.171 82.671 L 353.8498 80.4126 L 356.0357 79.1428 L 357.9304 77.4952 L 358.7657 76.5337 L 360.1293 74.3254 L 360.6228 73.017 L 361.1814 70.2807 L 361.3288 66.0261 L 360.8822 61.7078 L 359.0974 54.7958 L 357.8003 53.4489 L 358.0164 53.4412 L 358.0164 53.5818 L 358.3321 53.5818 L 358.3321 53.7225 L 358.6479 53.7225 L 358.6479 53.8613 L 358.9623 53.8613 L 358.963 54.0019 L 359.174 54.0019 L 359.174 54.1426 L 359.4898 54.1426 L 359.4898 54.2833 L 359.8055 54.2833 L 359.8055 54.4239 L 360.0158 54.4239 L 360.0158 54.5627 L 360.3316 54.5627 L 360.3316 54.7033 L 360.5419 54.7033 L 360.5419 54.844 L 360.8576 54.844 L 360.8576 54.9847 L 361.1734 54.9847 L 361.1734 55.1253 L 361.3837 55.1253 L 361.3837 55.266 L 361.6995 55.266 L 361.6995 55.4047 L 362.0153 55.4047 L 362.0153 55.5454 L 362.2255 55.5454 L 362.2255 55.6861 L 362.5413 55.6861 L 362.5413 55.7747 L 362.5413 55.8267 L 362.722 55.8267 L 362.8571 55.8267 L 362.8571 55.8653 L 362.8571 55.9674 L 363.1729 55.9674 L 363.1729 56.1061 L 363.3831 56.1061 L 363.3831 56.2468 L 363.6982 56.2468 L 363.6989 56.3875 L 364.0147 56.3875 L 364.0147 56.5281 L 364.3305 56.5281 L 364.3305 56.6688 L 364.751 56.6688 L 364.751 56.8095 L 365.0661 56.8095 L 365.0668 56.9482 L 365.4881 56.9482 L 365.4881 57.0889 L 365.8039 57.0889 L 365.8039 57.2296 L 366.1196 57.2296 L 366.1196 57.3702 L 366.5402 57.3702 L 366.5402 57.5109 L 366.856 57.5109 L 366.856 57.6496 L 367.2765 57.6496 L 367.2773 57.7903 L 367.593 57.7903 L 367.593 57.931 L 368.0136 57.931 L 368.0136 58.0716 L 368.3294 58.0716 L 368.3294 58.2123 L 368.6451 58.2123 L 368.6451 58.353 L 369.0657 58.353 L 369.0657 58.4917 L 369.3808 58.4917 L 369.3815 58.6324 L 369.6973 58.6324 L 369.6973 58.773 L 370.013 58.773 L 370.013 58.9137 L 370.4343 58.9137 L 370.4343 59.0544 L 370.7501 59.0544 L 370.7501 59.1931 L 371.0659 59.1931 L 371.0659 59.3338 L 371.3809 59.3338 L 371.3809 59.4744 L 371.8022 59.4744 L 371.8022 59.6151 L 372.118 59.6151 L 372.118 59.7558 L 372.433 59.7558 L 372.4338 59.8964 L 372.7495 59.8964 L 372.7495 60.0352 L 373.1701 60.0352 L 373.1701 60.1759 L 373.4859 60.1759 L 373.4859 60.3165 L 373.9071 60.3165 L 373.9071 60.4572 L 374.4332 60.4572 L 374.4332 60.5979 L 374.5589 60.5979 L 374.8538 60.5979 L 374.8538 60.7366 L 375.3805 60.7366 L 375.3805 60.8773 L 375.8011 60.8773 L 375.8011 61.0179 L 376.3272 61.0179 L 376.3272 61.1586 L 376.7484 61.1586 L 376.7484 61.2993 L 377.2745 61.2993 L 377.2745 61.4399 L 377.6958 61.4399 L 377.6958 61.5787 L 378.2218 61.5787 L 378.2218 61.7193 L 378.6424 61.7193 L 378.6424 61.86 L 378.7493 61.86 L 379.0637 61.86 L 379.0637 62.0007 L 379.4842 62.0007 L 379.4842 62.1413 L 379.8975 62.1413 L 380.011 62.1413 L 380.011 62.1837 L 380.011 62.2801 L 380.4034 62.2801 L 380.4315 62.2801 L 380.4315 62.4207 L 380.8528 62.4207 L 380.8528 62.5614 L 381.2734 62.5614 L 381.2734 62.7021 L 381.6947 62.7021 L 381.6947 62.8427 L 382.2207 62.8427 L 382.2207 62.9834 L 382.6413 62.9834 L 382.6413 63.1222 L 383.0625 63.1222 L 383.0625 63.2628 L 383.4838 63.2628 L 383.4838 63.4035 L 384.0099 63.4035 L 384.0099 63.5442 L 384.4304 63.5442 L 384.4304 63.6848 L 384.8517 63.6848 L 384.8517 63.8236 L 385.2723 63.8236 L 385.2723 63.9642 L 385.6935 63.9642 L 385.6935 64.1049 L 386.1141 64.1049 L 386.1141 64.2456 L 386.5354 64.2456 L 386.5354 64.3862 L 386.9567 64.3862 L 386.9567 64.5269 L 387.3772 64.5269 L 387.3772 64.6656 L 387.7985 64.6656 L 387.7985 64.8063 L 388.219 64.8063 L 388.219 64.947 L 388.6403 64.947 L 388.6403 65.0876 L 389.0609 65.0876 L 389.0609 65.2283 L 389.4822 65.2283 L 389.4822 65.367 L 389.9027 65.367 L 389.9027 65.5077 L 390.324 65.5077 L 390.324 65.6484 L 390.7445 65.6484 L 390.7445 65.789 L 391.0415 65.789 L 390.4808 67.7719 L 389.954 70.7895 L 389.5421 75.4064 L 389.3615 81.5996 L 389.5067 86.1954 L 389.8803 89.1976 L 390.6932 92.1034 L 391.314 93.4272 L 392.8849 95.8474 L 394.7427 98.0461 L 396.7899 100.0617 L 398.9945 101.8711 L 401.3712 103.3837 L 407.3449 106.0044 L 415.5674 110.3034 L 407.2459 114.3365 L 402.5122 116.2731 L 400.2453 117.5391 L 398.3059 119.177 L 397.4583 120.1269 L 396.1005 122.3179 L 395.6366 123.6147 L 395.237 126.2431 L 395.448 128.7982 L 396.3389 131.1202 L 397.1085 132.099 L 398.0638 132.8217 L 399.0942 133.2957 L 403.5715 134.2688 L 405.9106 134.9856 L 407.996 136.2227 L 409.8097 137.9415 L 411.2181 140.1055 L 411.7203 141.41 L 412.2355 144.1367 L 412.1004 148.3066 L 411.4356 151.0216 L 410.9413 152.2298 L 407.9086 157.8045 L 405.0673 163.8821 L 398.8074 173.7943 Z" fill="#000000" fill-opacity="1" stroke="#000000" stroke-width="0" paint-order="fill" stroke-opacity="1" stroke-dasharray="" stroke-linecap="butt" stroke-linejoin="miter" stroke-miterlimit="10" transform="matrix(1.0499999523162842,0,0,1.0499999523162842,-20.00000762939453,-13.325013160705566)" clip-path="none" style="filter: url(#f1)"/>
<path data-code="207" d="M 557.6112 204.2978 L 545.5386 204.662 L 539.4442 204.6273 L 534.9828 204.1591 L 532.1206 203.3112 L 530.8423 202.6695 L 528.5083 201.0413 L 526.4091 199.1047 L 524.5188 196.9561 L 522.8821 194.6245 L 521.6212 192.1022 L 520.5625 187.9573 L 523.2044 183.7643 L 524.8642 180.4326 L 525.6504 177.5094 L 526.0348 174.4745 L 526.1569 168.2948 L 525.701 162.2172 L 524.8208 158.0261 L 523.2846 153.7695 L 523.0245 151.5766 L 523.2326 150.3549 L 523.6575 149.1853 L 524.9394 146.9789 L 529.09 141.6085 L 530.6082 139.2808 L 532.8952 134.4037 L 535.915 128.7674 L 536.4078 127.5534 L 537.1109 124.8306 L 537.5546 120.574 L 537.5242 114.7835 L 537.1232 110.446 L 536.126 105.5978 L 535.8066 104.2354 L 536.2871 104.2354 L 536.2871 104.3761 L 537.2345 104.3761 L 537.2345 104.5168 L 537.6557 104.5168 L 537.6557 104.6555 L 538.6024 104.6555 L 538.6024 104.7962 L 538.8134 104.7962 L 538.8134 104.6555 L 539.1291 104.6555 L 539.1291 104.5168 L 539.3394 104.5168 L 539.3394 104.6555 L 541.1286 104.6555 L 541.1286 104.7962 L 541.6546 104.7962 L 541.6546 104.9041 L 541.6546 104.9368 L 542.18 104.9368 L 542.1807 105.0775 L 542.8122 105.0775 L 542.8122 105.2182 L 543.3383 105.2182 L 543.3383 105.3588 L 544.1801 105.3588 L 544.1801 105.4976 L 544.3904 105.4976 L 544.3904 105.6382 L 544.6014 105.6382 L 544.6014 105.7789 L 546.1796 105.7789 L 546.1796 105.9196 L 547.9687 105.9196 L 547.9687 106.0602 L 551.5471 106.0602 L 551.5471 106.199 L 551.9676 106.199 L 551.9676 106.3397 L 553.5465 106.3397 L 553.5465 106.4803 L 555.0192 106.4803 L 555.0199 106.621 L 556.7036 106.621 L 556.7036 106.7617 L 559.1236 106.7617 L 559.1236 106.9023 L 561.123 106.9023 L 561.123 107.0411 L 563.228 107.0411 L 563.228 107.1817 L 563.8595 107.1817 L 563.8595 107.3224 L 564.1753 107.3224 L 564.1753 107.1817 L 564.3856 107.1817 L 564.3856 107.0411 L 565.4377 107.0411 L 565.4377 107.1817 L 574.4883 107.1817 L 574.4883 107.3224 L 574.5938 107.3224 L 574.5938 107.1817 L 575.2254 107.1817 L 575.2254 107.0411 L 579.2243 107.0411 L 579.2243 107.1817 L 579.5523 107.1817 L 581.6443 107.1817 L 581.6443 107.3224 L 584.065 107.3224 L 584.065 107.4631 L 584.3808 107.4631 L 584.3808 107.3224 L 584.9068 107.3224 L 584.9068 107.1817 L 586.4857 107.1817 L 586.4857 107.0411 L 587.0118 107.0411 L 587.0118 107.1817 L 587.6296 107.1817 L 589.2605 110.1068 L 592.6784 115.6622 L 594.9069 120.4121 L 596.2322 122.6339 L 597.8797 124.53 L 599.7773 126.1159 L 601.914 127.3376 L 605.2915 128.9234 L 607.257 130.3397 L 608.9269 132.1414 L 609.6054 133.1878 L 610.1365 134.3439 L 610.4892 135.6543 L 610.5672 138.3308 L 609.9125 140.8339 L 607.0228 146.2447 L 604.8854 151.1642 L 601.8338 156.7967 L 600.8981 159.2844 L 600.0259 163.329 L 585.477 178.4286 L 580.8183 182.8875 L 578.8608 184.4695 L 576.7941 185.7953 L 572.947 187.5064 L 571.0639 188.52 L 569.2682 189.7918 L 565.8416 192.6995 L 563.0264 194.2179 L 561.4699 195.8173 L 560.3455 197.8849 L 557.6112 204.2978 Z" fill="#000000" fill-opacity="1" stroke="#000000" stroke-width="0" paint-order="fill" stroke-opacity="1" stroke-dasharray="" stroke-linecap="butt" stroke-linejoin="miter" stroke-miterlimit="10" transform="matrix(1.0499999523162842,0,0,1.0499999523162842,-20.00000762939453,-13.325013160705566)" clip-path="none" style="filter: url(#f1)"/>
<path data-code="208" d="M 382.7742 309.3394 L 384.7628 304.8226 L 388.3578 297.9376 L 389.4395 293.5288 L 389.6802 289.12 L 389.3521 286.3182 L 388.3831 283.7226 L 387.5203 282.5818 L 386.3302 281.6473 L 383.6356 280.6568 L 379.1757 280.2483 L 357.7049 280.6549 L 323.5474 280.732 L 329.4843 272.0434 L 330.6506 269.8043 L 331.3364 267.278 L 331.4231 265.9388 L 331.0885 263.3008 L 330.2185 261.002 L 328.1201 256.5796 L 327.3303 253.7721 L 326.8598 250.7911 L 326.4689 244.6422 L 326.5737 240.0503 L 326.9661 237.0674 L 327.8578 234.2117 L 328.4799 233.0478 L 330.0545 230.9956 L 331.9614 229.3057 L 333.0208 228.61 L 342.2282 224.5943 L 347.0097 222.7136 L 353.3845 221.3281 L 354.6143 220.831 L 356.746 219.4725 L 358.5417 217.6689 L 359.2845 216.6129 L 359.8973 215.4509 L 360.6683 212.7918 L 360.8678 210.0516 L 360.3612 205.9762 L 359.5122 203.4827 L 356.8392 197.8213 L 355.7929 193.3219 L 355.2871 185.3212 L 355.3789 168.9673 L 362.3151 169.3122 L 366.2938 170.2024 L 368.5924 171.2603 L 372.915 173.7172 L 377.5686 176.018 L 379.4589 177.3533 L 381.1859 178.8583 L 379.318 186.329 L 379.3541 188.7435 L 380.1497 190.9788 L 381.6694 192.6475 L 384.5135 194.744 L 387.685 197.4552 L 396.3996 205.6409 L 398.7438 207.4503 L 401.3047 208.8878 L 402.7217 209.4003 L 405.6519 210.0189 L 410.1718 210.36 L 430.2732 210.1808 L 438.0065 210.3985 L 442.6261 210.938 L 450.264 212.6068 L 442.0661 227.186 L 439.4972 233.2829 L 435.7852 240.0079 L 433.6773 244.9544 L 430.779 250.5579 L 429.9538 253.1054 L 429.5527 257.2733 L 430.0275 261.4047 L 430.8245 263.8789 L 433.3984 269.575 L 434.3906 273.9607 L 435.5894 290.2029 L 431.7321 291.4824 L 426.465 292.812 L 423.8969 293.6329 L 417.2735 297.2189 L 413.659 298.7797 L 411.2954 300.0708 L 408.0278 302.6375 L 402.9587 307.6494 L 399.1101 311.9542 L 394.9761 317.3728 L 391.009 315.6309 L 388.7538 314.3417 L 385.7528 312.0236 L 382.7742 309.3394 Z" fill="#000000" fill-opacity="1" stroke="#000000" stroke-width="0" paint-order="fill" stroke-opacity="1" stroke-dasharray="" stroke-linecap="butt" stroke-linejoin="miter" stroke-miterlimit="10" transform="matrix(1.0499999523162842,0,0,1.0499999523162842,-20.00000762939453,-13.325013160705566)" clip-path="none" style="filter: url(#f1)"/>
<path data-code="209" d="M 203.8835 404.3724 L 203.1515 401.2797 L 200.8138 394.0074 L 199.8116 391.5775 L 196.9891 385.8622 L 196.2463 383.2261 L 195.7296 380.5168 L 194.408 375.2139 L 191.7878 369.4176 L 190.9293 366.8876 L 190.3657 364.1455 L 189.4328 357.2818 L 198.9943 357.0486 L 220.6045 357.091 L 225.1194 356.7538 L 228.0343 356.1988 L 230.6068 355.2623 L 236.0935 352.2929 L 240.9054 350.1617 L 247.5425 346.6604 L 250.081 345.8685 L 256.5678 344.3539 L 258.9705 343.4116 L 264.4514 340.4229 L 269.2668 338.2975 L 273.6422 335.8869 L 275.9408 334.8386 L 278.7026 334.116 L 281.5728 333.7615 L 294.8478 333.5707 L 297.7627 333.3934 L 300.6156 332.9714 L 302.003 332.6149 L 304.496 331.5493 L 306.6269 330.1427 L 309.6019 327.7032 L 313.5242 328.5876 L 315.89 329.528 L 317.9949 330.7208 L 322.4599 333.6728 L 324.5244 337.598 L 325.5028 339.8853 L 326.2023 342.6312 L 326.5426 345.4619 L 326.5787 349.7513 L 326.0852 353.9693 L 325.3619 356.642 L 322.2561 363.554 L 321.5494 367.5967 L 321.5827 370.3426 L 322.0011 373.0018 L 322.8198 375.3661 L 324.7795 379.4493 L 325.2773 381.6904 L 325.2528 382.8696 L 325.0107 384.0239 L 324.5229 385.1088 L 323.8112 386.0202 L 322.0632 387.3633 L 317.1676 390.4676 L 314.9875 391.6661 L 310.1055 393.6586 L 303.3246 396.9903 L 299.3611 397.9056 L 291.2225 398.7862 L 288.5907 399.3084 L 286.1714 400.162 L 280.5742 402.8193 L 276.623 403.7365 L 272.4528 404.1007 L 268.1287 404.2125 L 219.7403 404.0641 L 203.8835 404.3724 Z" fill="#000000" fill-opacity="1" stroke="#000000" stroke-width="0" paint-order="fill" stroke-opacity="1" stroke-dasharray="" stroke-linecap="butt" stroke-linejoin="miter" stroke-miterlimit="10" transform="matrix(1.0499999523162842,0,0,1.0499999523162842,-20.00000762939453,-13.325013160705566)" clip-path="none" style="filter: url(#f1)"/>
<path data-code="210" d="M 322.4599 333.6728 L 317.9949 330.7208 L 315.89 329.528 L 313.5242 328.5876 L 309.6019 327.7032 L 310.1352 324.9958 L 310.878 322.3636 L 313.5697 316.5943 L 314.4614 314.1066 L 315.8763 307.3681 L 316.6256 304.7398 L 319.3151 298.9743 L 320.1967 296.4712 L 321.6752 288.2933 L 323.5474 280.732 L 357.7049 280.6549 L 379.1757 280.2483 L 383.6356 280.6568 L 386.3302 281.6473 L 387.5203 282.5818 L 388.3831 283.7226 L 389.3521 286.3182 L 389.6802 289.12 L 389.4395 293.5288 L 388.3578 297.9376 L 384.7628 304.8226 L 382.7742 309.3394 L 374.8169 309.9695 L 356.9751 310.089 L 352.6532 310.5283 L 349.89 311.2413 L 347.5834 312.2876 L 343.2275 314.6866 L 338.4446 316.9142 L 335.0845 319.292 L 331.9701 322.1516 L 328.037 326.3119 L 325.2752 329.6282 L 322.4599 333.6728 Z" fill="#000000" fill-opacity="1" stroke="#000000" stroke-width="0" paint-order="fill" stroke-opacity="1" stroke-dasharray="" stroke-linecap="butt" stroke-linejoin="miter" stroke-miterlimit="10" transform="matrix(1.0499999523162842,0,0,1.0499999523162842,-20.00000762939453,-13.325013160705566)" clip-path="none" style="filter: url(#f1)"/>
<path data-code="211" d="M 450.264 212.6068 L 442.6261 210.938 L 438.0065 210.3985 L 430.2732 210.1808 L 410.1718 210.36 L 405.6519 210.0189 L 402.7217 209.4003 L 401.3047 208.8878 L 398.7438 207.4503 L 396.3996 205.6409 L 387.685 197.4552 L 384.5135 194.744 L 381.6694 192.6475 L 380.1497 190.9788 L 379.3541 188.7435 L 379.318 186.329 L 381.1859 178.8583 L 389.8709 175.8792 L 398.8074 173.7943 L 407.9613 182.2651 L 411.45 184.8029 L 412.7319 185.4523 L 415.4959 186.3175 L 419.8192 186.8801 L 425.7251 187.0594 L 431.6533 186.9553 L 436.028 186.5738 L 438.8584 185.9745 L 441.3955 184.9416 L 443.5857 183.587 L 451.7135 177.3321 L 452.0727 189.0268 L 451.9383 199.5575 L 451.5416 204.7969 L 450.264 212.6068 Z" fill="#000000" fill-opacity="1" stroke="#000000" stroke-width="0" paint-order="fill" stroke-opacity="1" stroke-dasharray="" stroke-linecap="butt" stroke-linejoin="miter" stroke-miterlimit="10" transform="matrix(1.0499999523162842,0,0,1.0499999523162842,-20.00000762939453,-13.325013160705566)" clip-path="none" style="filter: url(#f1)"/>
<path data-code="212" d="M 454.2347 479.7005 L 450.7568 478.6985 L 445.346 476.1241 L 440.2111 474.8523 L 436.304 473.9775 L 433.8891 473.0468 L 428.3966 470.0465 L 423.5558 467.9442 L 417.0408 464.1366 L 412.2218 461.9803 L 405.7314 458.1361 L 400.9224 455.9914 L 396.576 453.5654 L 394.2774 452.521 L 391.6478 451.862 L 388.9193 451.5787 L 381.8789 451.7521 L 382.84 446.7652 L 383.3082 442.127 L 383.491 434.3518 L 383.1796 428.2106 L 382.7475 425.2393 L 381.9801 422.4144 L 379.2855 416.753 L 378.4307 414.2538 L 377.9826 411.5272 L 377.9292 408.7427 L 378.3158 405.9621 L 379.3072 403.2567 L 380.842 400.8153 L 383.7093 397.6011 L 387.0585 394.9111 L 389.5905 393.5796 L 390.9982 393.1191 L 395.3432 392.4658 L 404.2161 392.1903 L 408.5799 391.7683 L 411.3641 391.0938 L 417.0155 388.5233 L 419.5656 387.6504 L 422.4495 387.1012 L 429.8331 386.2746 L 432.7242 385.71 L 435.2859 384.7947 L 440.8268 381.91 L 450.2575 378.0311 L 458.9338 375.0058 L 462.5685 376.266 L 463.7933 376.925 L 466.1057 378.5687 L 470.3155 382.6326 L 474.0637 387.1899 L 465.787 395.5547 L 461.3408 400.5012 L 459.0624 403.6594 L 457.9735 405.754 L 456.2479 409.7081 L 454.8648 411.9048 L 452.3357 414.9725 L 445.101 422.5223 L 443.6587 424.4492 L 443.0987 425.4802 L 442.7027 426.592 L 442.5437 427.7983 L 442.6846 429.0084 L 443.0661 430.126 L 444.2888 432.1532 L 446.7608 434.9704 L 455.461 443.3853 L 459.1542 447.3124 L 460.7634 449.4321 L 461.4571 450.567 L 462.0417 451.7714 L 462.794 454.288 L 463.1639 456.8874 L 463.2861 460.8454 L 462.984 464.786 L 462.4478 467.3488 L 461.4629 469.7883 L 460.0871 472.0159 L 456.9676 476.2783 L 454.2347 479.7005 Z" fill="#000000" fill-opacity="1" stroke="#000000" stroke-width="0" paint-order="fill" stroke-opacity="1" stroke-dasharray="" stroke-linecap="butt" stroke-linejoin="miter" stroke-miterlimit="10" transform="matrix(1.0499999523162842,0,0,1.0499999523162842,-20.00000762939453,-13.325013160705566)" clip-path="none" style="filter: url(#f1)"/>













</svg>