<?xml version="1.0" standalone="no"?>
<!-- Generator: Paintmaps.com , Online SVG vector map maker -->
<svg xmlns="http://www.w3.org/2000/svg" version="1.1" baseProfile="full"   style="background-color:#e0f2f1" width="800" height="500" viewBox="0 0 850 567">

<path data-code="200" d="M 385.7233 417.7814 L 384.1388 414.1061 L 381.8974 410.1953 L 380.3746 406.6897 L 379.6169 405.2493 L 377.4331 402.3961 L 372.4361 397.0239 L 370.7096 394.8995 L 369.4463 392.779 L 368.2585 389.9798 L 366.7268 386.949 L 366.0505 385.3245 L 365.5686 383.2974 L 365.3372 381.1914 L 365.2356 377.9568 L 365.2899 368.1436 L 365.0871 364.9419 L 364.726 362.8767 L 364.1089 361.0587 L 362.1358 357.2006 L 360.7028 353.8318 L 358.7218 349.9775 L 358.1032 348.1872 L 357.7322 346.1799 L 357.4693 342.0152 L 357.4989 336.718 L 357.6716 332.5007 L 358.1338 327.2337 L 364.3896 325.0264 L 365.8059 324.3016 L 366.5236 323.8149 L 367.892 322.7126 L 369.8439 320.8671 L 374.6751 315.7869 L 376.1412 318.0257 L 377.2521 320.3212 L 378.1262 321.8089 L 379.2237 323.1191 L 380.5122 324.2517 L 382.0078 325.1606 L 385.1664 326.655 L 388.9015 328.7794 L 392.3057 330.0869 L 397.6223 332.4021 L 396.9021 335.4697 L 396.5105 338.4728 L 396.5149 341.4115 L 396.765 343.3254 L 397.3042 345.1604 L 398.2192 346.8692 L 401.7561 351.4285 L 403.2478 353.9212 L 403.596 354.8828 L 404.0361 356.8914 L 404.3059 360.009 L 404.2531 364.2158 L 404.0494 366.2941 L 403.6518 368.3146 L 403.0021 370.1089 L 400.9589 373.9447 L 399.5082 377.3096 L 397.8769 380.3627 L 397.1606 381.9714 L 396.6673 383.8144 L 396.3067 386.7109 L 396.1144 395.9992 L 396.1893 399.2075 L 396.469 402.354 L 396.9026 404.3772 L 397.6273 406.1543 L 398.5606 407.6539 L 400.1687 409.7507 L 397.4339 412.0475 L 395.9698 413.0025 L 392.6885 414.5073 L 388.1838 416.979 L 385.7233 417.7814 Z" fill="#000000" fill-opacity="1" stroke="#000000" stroke-width="0" paint-order="fill" stroke-opacity="1" stroke-dasharray="" stroke-linecap="butt" stroke-linejoin="miter" stroke-miterlimit="10" transform="matrix(1.100000023841858,0,0,1.100000023841858,-42.49998092651367,-28.350112915039062)" clip-path="none" style="filter: url(#f1)"/>
<path data-code="201" d="M 372.3414 280.0598 L 370.4324 278.9061 L 368.9668 278.2024 L 366.1191 277.5131 L 363.1367 277.2829 L 355.0409 277.2197 L 353.0534 277.0816 L 351.1168 276.7488 L 350.1815 276.466 L 348.6158 275.7478 L 343.7288 272.7262 L 342.5982 271.5305 L 339.2596 265.7058 L 337.5203 261.5017 L 335.1224 256.8293 L 333.7703 253.3802 L 331.739 249.5207 L 329.8788 245.4495 L 328.8952 244.017 L 327.7034 242.7581 L 325.5552 241.2625 L 319.4246 238.1344 L 317.6423 237.5174 L 316.6439 237.3135 L 312.5181 236.9991 L 300.9332 236.9768 L 298.8738 236.8097 L 296.872 236.4532 L 295.1075 235.8468 L 291.2732 234.0315 L 289.5418 233.529 L 285.9738 232.8055 L 284.2291 232.282 L 281.9659 231.1218 L 277.9436 228.4673 L 277.3852 227.8569 L 276.5782 226.2047 L 276.1851 224.3473 L 275.4372 218.3726 L 274.8833 216.5889 L 273.1721 212.6005 L 272.7025 210.6248 L 272.4548 208.5701 L 272.3064 205.4156 L 272.3572 196.8548 L 276.2477 192.8441 L 278.3827 193.3426 L 279.7496 193.8096 L 283.4576 195.8367 L 284.2439 196.184 L 285.8194 196.6154 L 287.4498 196.7943 L 289.0934 196.7496 L 290.7188 196.4497 L 291.5105 196.1774 L 292.3417 195.767 L 293.8625 194.7133 L 296.6239 192.1351 L 303.8964 184.3359 L 305.7236 182.2128 L 308.3898 178.8518 L 316.09 185.8907 L 317.6231 187.0838 L 319.3047 188.0401 L 320.2356 188.3821 L 322.1643 188.8057 L 325.1477 189.0635 L 331.226 189.078 L 335.229 188.7965 L 337.1642 188.4242 L 338.9015 187.7915 L 342.6396 185.7394 L 345.0789 184.6042 L 346.7176 183.6426 L 349.0479 181.7287 L 354.958 176.0223 L 357.3859 174.2518 L 358.267 173.8072 L 360.0112 173.2402 L 363.5806 172.5588 L 365.3303 172.0839 L 366.8842 171.3894 L 371.0564 168.9598 L 372.2457 167.8443 L 372.6685 167.0958 L 372.9437 166.2842 L 373.1524 164.5636 L 373.0068 162.7996 L 372.5427 161.0869 L 370.7037 157.4892 L 370.2272 155.8489 L 370.2282 154.0494 L 370.4477 153.151 L 370.7989 152.3512 L 371.818 150.9752 L 373.1479 149.9137 L 373.9066 149.523 L 375.6173 149.0442 L 381.5698 148.497 L 383.0679 147.9313 L 383.7215 147.4301 L 384.238 146.779 L 384.6055 146.041 L 385.0342 144.4165 L 385.6074 139.0074 L 386.3216 136.3674 L 388.2282 132.4461 L 390.0578 128.2354 L 392.431 124.4509 L 394.963 120.0166 L 398.5635 120.9137 L 400.292 121.5201 L 401.9194 122.4725 L 403.4254 123.659 L 406.9563 127.0752 L 415.2307 135.7281 L 417.1915 137.9327 L 418.9101 140.265 L 419.7729 141.9409 L 420.8083 144.4902 L 422.4006 147.5735 L 423.1026 149.1797 L 423.587 150.9897 L 424.249 154.694 L 424.7462 156.4974 L 425.4629 158.0943 L 427.0785 161.179 L 428.4246 164.6149 L 430.384 168.5047 L 430.971 170.2003 L 432.0705 175.6435 L 432.3981 176.5156 L 433.2909 178.0257 L 433.8434 178.7006 L 435.1141 179.8752 L 436.6122 180.7895 L 439.0249 181.8537 L 442.0063 183.469 L 443.5754 184.182 L 445.3404 184.6674 L 447.1463 184.9844 L 446.2121 188.5887 L 444.0919 193.3426 L 443.5937 195.3723 L 443.3357 197.4875 L 443.1532 204.0331 L 443.279 229.4394 L 443.1492 232.6911 L 442.6964 235.8442 L 442.0872 237.6832 L 440.1323 241.5532 L 439.0313 244.0722 L 437.5085 246.6241 L 434.8004 249.7838 L 427.4405 257.3304 L 425.5305 259.7719 L 424.5558 261.5937 L 423.9722 263.6406 L 423.6279 266.8397 L 423.6126 280.0834 L 423.4059 286.3409 L 420.684 285.7911 L 415.0566 285.0676 L 413.2457 284.6848 L 411.5779 284.081 L 407.7614 282.2131 L 401.6278 280.5609 L 400.0158 279.9177 L 397.0151 278.4089 L 394.4466 277.6986 L 391.7123 277.6288 L 389.9182 277.9117 L 388.2701 278.4799 L 384.5073 280.3031 L 381.8293 280.9253 L 379.9568 281.0713 L 377.1026 280.9793 L 375.1911 280.703 L 372.3414 280.0598 Z" fill="#000000" fill-opacity="1" stroke="#000000" stroke-width="0" paint-order="fill" stroke-opacity="1" stroke-dasharray="" stroke-linecap="butt" stroke-linejoin="miter" stroke-miterlimit="10" transform="matrix(1.100000023841858,0,0,1.100000023841858,-42.49998092651367,-28.350112915039062)" clip-path="none" style="filter: url(#f1)"/>
<path data-code="202" d="M 617.64 422.0092 L 600.5362 439.7807 L 597.0314 443.1258 L 595.5314 444.2716 L 593.9129 445.17 L 592.178 445.7172 L 587.7498 446.6288 L 586.8821 446.9353 L 585.2399 447.8206 L 582.9688 449.5635 L 580.1359 452.222 L 578.1539 454.3293 L 576.4486 456.584 L 575.6564 458.2862 L 575.4462 459.2109 L 575.4215 461.0762 L 575.8754 462.8086 L 577.8515 466.5313 L 578.9846 469.0227 L 579.8833 470.6091 L 580.9592 472.039 L 584.4763 476.1181 L 585.4668 477.5809 L 585.8585 478.3794 L 586.3582 480.1723 L 586.4618 481.9679 L 586.3681 482.84 L 586.1599 483.6792 L 585.8112 484.4659 L 585.2912 485.163 L 584.6268 485.684 L 583.1405 486.2548 L 579.8853 486.8744 L 578.2831 487.419 L 573.2827 490.1932 L 572.0391 491.239 L 571.5739 491.9428 L 571.234 492.7176 L 570.797 494.3934 L 570.355 497.0585 L 569.507 501.1061 L 569.1652 505.8337 L 554.08 506.4151 L 548.9799 507.0636 L 544.7362 503.2002 L 542.7305 501.0403 L 541.5342 499.5144 L 540.526 497.8925 L 539.051 494.5171 L 536.5895 489.9065 L 535.2276 486.4824 L 532.9298 481.7876 L 532.4134 479.9868 L 531.6853 476.2997 L 531.1925 474.5067 L 529.1241 469.7238 L 528.5455 466.947 L 527.8919 460.2422 L 527.4484 458.3953 L 526.7776 456.7603 L 525.239 453.6506 L 523.811 450.2476 L 522.191 447.8061 L 520.2035 445.6238 L 517.9596 443.7428 L 516.2908 442.7799 L 514.548 442.1866 L 511.0033 441.4289 L 509.2842 440.9291 L 505.4666 439.1124 L 503.7352 438.5231 L 501.8049 438.1851 L 499.8205 438.0272 L 491.7286 437.8891 L 487.7547 437.5287 L 485.8609 437.0433 L 481.998 435.203 L 480.343 434.6176 L 478.5657 434.2598 L 474.2593 433.7336 L 472.7982 433.4022 L 471.6859 432.826 L 471.0219 431.9105 L 472.1027 428.7468 L 474.6505 422.1671 L 477.1515 417.5591 L 478.5411 414.1456 L 480.1615 411.0661 L 480.8778 409.4679 L 481.378 407.6644 L 482.2654 403.0446 L 482.8652 401.328 L 484.8132 397.433 L 486.2186 394.0208 L 487.6743 391.774 L 488.8512 390.3876 L 490.1293 389.0998 L 491.5007 387.933 L 492.984 386.9517 L 494.6508 386.2545 L 499.119 385.3902 L 500.8633 384.9127 L 502.4028 384.1893 L 506.6633 381.6834 L 507.9429 380.7113 L 508.4569 380.0904 L 510.1844 377.228 L 511.2608 375.7784 L 513.7479 372.9173 L 521.6824 364.4223 L 523.3729 362.211 L 525.5315 358.4187 L 526.6232 357.1637 L 528.4271 355.43 L 531.2226 361.1995 L 531.9857 364.0434 L 532.294 368.316 L 532.1204 379.1985 L 532.2846 382.37 L 532.6768 384.4116 L 533.0285 385.3902 L 533.4374 386.1887 L 534.4788 387.6054 L 535.7465 388.7867 L 536.4519 389.2787 L 542.5997 392.3541 L 544.2 393.0395 L 546.9224 393.6183 L 553.4175 394.2773 L 555.994 395.0758 L 559.7553 397.0805 L 563.0455 398.5104 L 567.4865 401.1031 L 571.5241 403.046 L 573.6728 404.5811 L 577.8441 407.9288 L 578.7345 401.4582 L 579.358 399.931 L 579.8947 399.268 L 580.6884 398.7024 L 582.4405 398.2433 L 584.1517 398.4933 L 584.9213 398.8655 L 585.5788 399.4114 L 585.9951 399.9994 L 586.6029 401.9055 L 588.6372 403.6563 L 590.0544 404.7047 L 591.6078 405.5703 L 594.0653 406.6831 L 598.5064 409.2903 L 601.8237 410.6912 L 606.357 413.0709 L 608.0934 413.5878 L 611.6505 414.3402 L 613.3785 414.9269 L 614.8894 415.7885 L 617.6464 417.9945 L 617.64 422.0092 Z" fill="#000000" fill-opacity="1" stroke="#000000" stroke-width="0" paint-order="fill" stroke-opacity="1" stroke-dasharray="" stroke-linecap="butt" stroke-linejoin="miter" stroke-miterlimit="10" transform="matrix(1.100000023841858,0,0,1.100000023841858,-42.49998092651367,-28.350112915039062)" clip-path="none" style="filter: url(#f1)"/>
<path data-code="203" d="M 530.6839 309.5307 L 514.6634 309.5083 L 518.6995 303.4705 L 519.9697 301.1198 L 520.5252 299.3111 L 521.5034 294.736 L 522.117 293.097 L 523.5673 290.0926 L 523.9954 288.3838 L 524.0389 287.467 L 523.9599 286.5475 L 523.7503 285.6411 L 523.0217 284.0626 L 522.0327 282.6327 L 519.2323 279.2126 L 518.2057 277.7762 L 515.6841 272.8815 L 513.9324 270.6189 L 508.7484 265.0902 L 507.6997 263.6827 L 507.2898 262.9342 L 506.9968 262.137 L 506.87 261.2794 L 506.9425 260.4664 L 507.163 259.7048 L 508.303 257.5975 L 511.2687 253.2158 L 513.5348 246.486 L 515.7872 241.74 L 516.387 239.9575 L 516.7328 237.966 L 516.8961 235.9165 L 517.1062 225.4944 L 517.3494 223.4686 L 517.8377 221.5218 L 518.5431 219.9077 L 520.1601 216.8428 L 521.5749 213.4542 L 523.1717 210.3735 L 523.8632 208.7621 L 524.4784 205.9931 L 525.1093 200.2697 L 525.8448 197.527 L 527.3024 195.0448 L 530.7061 190.521 L 531.4855 188.8307 L 531.6922 187.9428 L 531.7761 187.0404 L 531.599 185.2567 L 531.0583 183.6939 L 529.7062 180.6619 L 529.2115 178.7729 L 528.9288 176.7708 L 528.6861 171.567 L 528.7453 160.9778 L 531.0238 158.1417 L 532.0044 156.6145 L 532.8346 154.911 L 534.2445 151.4159 L 536.852 149.7124 L 540.1323 148.2273 L 544.5877 145.6385 L 547.8927 144.1942 L 552.3313 141.5594 L 555.6082 140.0729 L 559.2921 137.9617 L 560.0882 137.6197 L 561.8803 137.1658 L 564.6605 137.0698 L 566.4871 137.3776 L 567.3682 137.667 L 569.6412 138.943 L 575.422 143.2089 L 576.4081 145.482 L 578.4686 149.3191 L 579.8892 152.7221 L 580.9015 154.3848 L 582.1125 155.9357 L 584.1586 158.0759 L 585.6479 159.3453 L 587.2525 160.4069 L 590.5437 161.8828 L 595.0884 164.2585 L 596.8371 164.7794 L 600.4085 165.5094 L 602.1355 166.0264 L 605.9284 167.914 L 607.6041 168.5099 L 609.4332 168.8467 L 611.316 169.0072 L 621.865 169.1887 L 623.7291 169.4149 L 625.5256 169.8793 L 627.0973 170.6001 L 630.0629 172.255 L 633.3368 173.7624 L 635.6375 175.3844 L 637.7725 177.3312 L 641.1322 180.8644 L 643.5439 183.8702 L 644.5236 185.4803 L 645.6404 188.0112 L 646.5076 189.6739 L 651.7512 196.7167 L 652.6234 198.3939 L 653.6992 200.934 L 656.2204 205.5235 L 657.5908 208.9397 L 659.5422 212.8189 L 660.1208 214.55 L 660.4479 216.4271 L 660.9259 222.2058 L 661.502 225.0261 L 662.5034 227.3557 L 664.6975 231.6125 L 664.8016 237.1662 L 665.5499 243.4066 L 662.3579 242.1372 L 657.1606 240.4811 L 652.5765 238.1804 L 649.6824 237.4964 L 646.659 237.2635 L 642.5889 237.328 L 640.5837 237.5293 L 638.6362 237.9173 L 636.9097 238.5461 L 633.0892 240.3877 L 631.1945 240.8652 L 628.215 241.1572 L 622.1886 241.3624 L 619.2954 241.8807 L 617.6227 242.6673 L 616.9227 243.1751 L 615.6954 244.38 L 614.7108 245.7783 L 613.2122 249.0169 L 611.6668 251.4307 L 609.0469 254.351 L 606.7951 256.2005 L 605.1702 257.1252 L 601.9618 258.6327 L 598.2257 260.7611 L 594.8901 262.1436 L 591.0987 264.1036 L 589.4575 264.7008 L 584.2198 265.8978 L 583.3802 266.2425 L 581.9201 267.162 L 580.1088 269.0233 L 579.1858 270.5518 L 578.0868 273.0091 L 576.1215 276.8685 L 575.7999 277.7078 L 575.3505 279.5836 L 575.1468 281.5159 L 575.1137 283.4694 L 575.2262 285.4149 L 575.5005 287.3209 L 575.9967 289.1428 L 578.1425 293.8231 L 578.5628 295.6384 L 578.6975 297.5182 L 578.5756 299.3979 L 578.1706 301.2211 L 576.4086 305.1279 L 575.8241 306.8314 L 575.35 309.6609 L 575.098 313.5756 L 570.3895 313.2665 L 567.6858 312.6325 L 555.3581 306.4078 L 553.4042 305.8606 L 551.3659 305.562 L 547.1715 305.3292 L 541.882 305.2884 L 538.7931 305.3884 L 535.9024 305.7488 L 534.2006 306.2987 L 533.47 306.7262 L 530.6839 309.5307 Z" fill="#000000" fill-opacity="1" stroke="#000000" stroke-width="0" paint-order="fill" stroke-opacity="1" stroke-dasharray="" stroke-linecap="butt" stroke-linejoin="miter" stroke-miterlimit="10" transform="matrix(1.100000023841858,0,0,1.100000023841858,-42.49998092651367,-28.350112915039062)" clip-path="none" style="filter: url(#f1)"/>
<path data-code="204" d="M 374.6751 315.7869 L 370.7634 312.9271 L 369.654 311.7748 L 366.8038 306.8222 L 366.2207 305.2226 L 366.0712 304.3097 L 366.1482 302.4681 L 366.7401 300.6923 L 367.7312 299.1072 L 371.2754 294.6439 L 372.2136 292.9523 L 372.5392 292.0539 L 373.0591 289.2099 L 373.1312 286.262 L 372.8672 283.2207 L 372.3414 280.0598 L 375.1911 280.703 L 377.1026 280.9793 L 379.9568 281.0713 L 381.8293 280.9253 L 384.5073 280.3031 L 388.2701 278.4799 L 389.9182 277.9117 L 391.7123 277.6288 L 394.4466 277.6986 L 397.0151 278.4089 L 400.0158 279.9177 L 401.6278 280.5609 L 407.7614 282.2131 L 411.5779 284.081 L 413.2457 284.6848 L 415.0566 285.0676 L 420.684 285.7911 L 423.4059 286.3409 L 427.7858 288.6811 L 431.1219 290.1175 L 432.5046 290.987 L 434.6445 292.6774 L 435.2912 297.3774 L 435.3819 300.3306 L 435.2502 302.2577 L 434.8684 304.1216 L 434.535 305.0135 L 434.1152 305.8014 L 433.0507 307.1853 L 431.7666 308.3218 L 431.0598 308.7888 L 427.8879 310.2923 L 426.34 311.2539 L 424.1227 313.0389 L 421.3193 315.7395 L 419.3482 317.9008 L 417.5876 320.1843 L 416.6321 321.801 L 415.1794 325.1909 L 413.6186 327.6507 L 411.6889 329.8791 L 409.4755 331.7943 L 407.7806 332.7467 L 406.8848 333.0532 L 405.9692 333.2558 L 404.1061 333.4347 L 402.2282 333.386 L 400.364 333.1453 L 397.6223 332.4021 L 392.3057 330.0869 L 388.9015 328.7794 L 385.1664 326.655 L 382.0078 325.1606 L 380.5122 324.2517 L 379.2237 323.1191 L 378.1262 321.8089 L 377.2521 320.3212 L 376.1412 318.0257 L 374.6751 315.7869 Z" fill="#000000" fill-opacity="1" stroke="#000000" stroke-width="0" paint-order="fill" stroke-opacity="1" stroke-dasharray="" stroke-linecap="butt" stroke-linejoin="miter" stroke-miterlimit="10" transform="matrix(1.100000023841858,0,0,1.100000023841858,-42.49998092651367,-28.350112915039062)" clip-path="none" style="filter: url(#f1)"/>
<path data-code="205" d="M 447.1463 184.9844 L 449.9181 182.8047 L 451.4305 181.9431 L 452.2829 181.605 L 458.4322 180.0305 L 462.2572 178.177 L 463.9072 177.564 L 468.3651 176.5985 L 470.1049 176.0789 L 473.9244 174.1992 L 475.5695 173.577 L 480.0249 172.6009 L 481.7652 172.0826 L 485.5896 170.2147 L 487.2352 169.6004 L 491.6857 168.623 L 493.426 168.0864 L 497.9568 165.6778 L 501.2633 164.2479 L 505.7902 161.8315 L 507.5276 161.2869 L 511.0886 160.5134 L 512.8176 159.9951 L 516.6391 158.1562 L 518.3182 157.5761 L 521.0772 157.1433 L 524.8686 156.9591 L 527.6201 154.6242 L 529.1064 153.6285 L 530.7796 152.7971 L 534.2445 151.4159 L 532.8346 154.911 L 532.0044 156.6145 L 531.0238 158.1417 L 528.7453 160.9778 L 528.6861 171.567 L 528.9288 176.7708 L 529.2115 178.7729 L 529.7062 180.6619 L 531.0583 183.6939 L 531.599 185.2567 L 531.7761 187.0404 L 531.6922 187.9428 L 531.4855 188.8307 L 530.7061 190.521 L 527.3024 195.0448 L 525.8448 197.527 L 525.1093 200.2697 L 524.4784 205.9931 L 523.8632 208.7621 L 523.1717 210.3735 L 521.5749 213.4542 L 520.1601 216.8428 L 518.5431 219.9077 L 517.8377 221.5218 L 517.3494 223.4686 L 517.1062 225.4944 L 516.8961 235.9165 L 516.7328 237.966 L 516.387 239.9575 L 515.7872 241.74 L 513.5348 246.486 L 511.2687 253.2158 L 503.3736 253.2934 L 499.6266 253.6841 L 497.8488 254.155 L 494.0219 255.9703 L 492.3694 256.5451 L 490.5738 256.8858 L 485.0426 257.4541 L 483.2327 257.8448 L 481.483 258.5775 L 479.8646 259.6495 L 476.889 262.2699 L 471.9355 267.3159 L 469.286 270.3124 L 467.632 272.7631 L 466.9079 274.581 L 466.4319 277.4394 L 466.3179 280.382 L 466.3993 285.3662 L 462.5088 289.377 L 457.2513 289.4296 L 453.1615 289.8334 L 451.2288 290.3412 L 446.6126 292.438 L 443.5744 293.0865 L 439.3105 293.1891 L 434.6445 292.6774 L 432.5046 290.987 L 431.1219 290.1175 L 427.7858 288.6811 L 423.4059 286.3409 L 423.6126 280.0834 L 423.6279 266.8397 L 423.9722 263.6406 L 424.5558 261.5937 L 425.5305 259.7719 L 427.4405 257.3304 L 434.8004 249.7838 L 437.5085 246.6241 L 439.0313 244.0722 L 440.1323 241.5532 L 442.0872 237.6832 L 442.6964 235.8442 L 443.1492 232.6911 L 443.279 229.4394 L 443.1532 204.0331 L 443.3357 197.4875 L 443.5937 195.3723 L 444.0919 193.3426 L 446.2121 188.5887 L 447.1463 184.9844 Z" fill="#000000" fill-opacity="1" stroke="#000000" stroke-width="0" paint-order="fill" stroke-opacity="1" stroke-dasharray="" stroke-linecap="butt" stroke-linejoin="miter" stroke-miterlimit="10" transform="matrix(1.100000023841858,0,0,1.100000023841858,-42.49998092651367,-28.350112915039062)" clip-path="none" style="filter: url(#f1)"/>
<path data-code="206" d="M 308.3898 178.8518 L 307.8245 176.5169 L 307.3923 172.322 L 307.1709 162.5484 L 307.2863 157.167 L 307.5423 155.0675 L 308.0992 153.0339 L 309.0153 151.2699 L 310.1888 149.6914 L 311.53 148.2602 L 313.0069 146.9842 L 314.6293 145.9187 L 316.4762 145.1729 L 318.4632 144.7848 L 323.512 144.3205 L 325.493 143.9903 L 327.2545 143.4312 L 330.346 142.0369 L 332.0873 141.4857 L 337.8725 140.7333 L 339.6715 140.3321 L 340.5106 139.9914 L 341.2831 139.5073 L 342.3895 138.2932 L 344.5161 134.8086 L 345.6447 132.4382 L 346.2766 129.418 L 346.4522 126.2754 L 346.3383 122.0515 L 345.9693 118.9524 L 345.4681 116.9832 L 343.6918 113.0158 L 343.092 111.2255 L 342.7028 109.1945 L 342.0798 103.988 L 341.6856 101.9636 L 341.0853 100.1864 L 339.3647 96.2559 L 338.8729 93.4856 L 338.9632 90.6535 L 339.3637 88.8185 L 341.473 84.1 L 342.4576 80.5037 L 346.3482 76.4929 L 350.2318 76.4969 L 353.9995 76.756 L 356.7338 77.2309 L 358.5511 77.8767 L 362.2354 79.5842 L 364.1746 80.0867 L 368.2688 80.4813 L 373.5278 80.5339 L 377.4183 76.5232 L 379.6707 79.3671 L 380.6281 80.9036 L 381.4248 82.6412 L 382.734 86.2481 L 381.9965 87.9056 L 380.4703 92.2452 L 378.0014 96.8624 L 376.5348 100.2404 L 374.8961 103.283 L 374.1858 104.8996 L 373.729 106.7531 L 373.5579 108.6591 L 373.6457 110.5718 L 374.0383 112.4397 L 375.1166 114.814 L 377.2032 118.296 L 378.3195 119.5378 L 379.9597 120.3796 L 382.7581 120.8506 L 385.7657 120.8966 L 389.9271 120.6572 L 394.963 120.0166 L 392.431 124.4509 L 390.0578 128.2354 L 388.2282 132.4461 L 386.3216 136.3674 L 385.6074 139.0074 L 385.0342 144.4165 L 384.6055 146.041 L 384.238 146.779 L 383.7215 147.4301 L 383.0679 147.9313 L 381.5698 148.497 L 375.6173 149.0442 L 373.9066 149.523 L 373.1479 149.9137 L 371.818 150.9752 L 370.7989 152.3512 L 370.4477 153.151 L 370.2282 154.0494 L 370.2272 155.8489 L 370.7037 157.4892 L 372.5427 161.0869 L 373.0068 162.7996 L 373.1524 164.5636 L 372.9437 166.2842 L 372.6685 167.0958 L 372.2457 167.8443 L 371.0564 168.9598 L 366.8842 171.3894 L 365.3303 172.0839 L 363.5806 172.5588 L 360.0112 173.2402 L 358.267 173.8072 L 357.3859 174.2518 L 354.958 176.0223 L 349.0479 181.7287 L 346.7176 183.6426 L 345.0789 184.6042 L 342.6396 185.7394 L 338.9015 187.7915 L 337.1642 188.4242 L 335.229 188.7965 L 331.226 189.078 L 325.1477 189.0635 L 322.1643 188.8057 L 320.2356 188.3821 L 319.3047 188.0401 L 317.6231 187.0838 L 316.09 185.8907 L 308.3898 178.8518 Z" fill="#000000" fill-opacity="1" stroke="#000000" stroke-width="0" paint-order="fill" stroke-opacity="1" stroke-dasharray="" stroke-linecap="butt" stroke-linejoin="miter" stroke-miterlimit="10" transform="matrix(1.100000023841858,0,0,1.100000023841858,-42.49998092651367,-28.350112915039062)" clip-path="none" style="filter: url(#f1)"/>
<path data-code="207" d="M 514.6634 309.5083 L 513.6862 313.8229 L 512.9952 318.4401 L 512.5773 320.2567 L 511.8157 321.9115 L 510.728 323.2809 L 509.3882 324.3806 L 507.792 325.1475 L 503.4229 326.1143 L 501.7231 326.6773 L 500.9688 327.0667 L 499.561 328.0283 L 495.7193 331.1314 L 494.3188 331.7733 L 493.533 331.8851 L 492.6939 331.7891 L 491.9096 331.5115 L 490.4702 330.6144 L 488.4591 328.7886 L 485.2256 325.2277 L 484.017 323.7084 L 482.9372 322.118 L 482.0893 320.4251 L 481.0696 317.8521 L 479.4926 314.7621 L 478.8124 313.1376 L 478.5628 312.2273 L 478.2643 310.3476 L 477.8411 304.5925 L 477.4844 302.7167 L 477.1845 301.8078 L 476.3745 300.2437 L 475.3465 298.8099 L 471.8541 294.9518 L 470.463 291.4435 L 469.6407 289.7361 L 468.6669 288.2062 L 466.3993 285.3662 L 466.3179 280.382 L 466.4319 277.4394 L 466.9079 274.581 L 467.632 272.7631 L 469.286 270.3124 L 471.9355 267.3159 L 476.889 262.2699 L 479.8646 259.6495 L 481.483 258.5775 L 483.2327 257.8448 L 485.0426 257.4541 L 490.5738 256.8858 L 492.3694 256.5451 L 494.0219 255.9703 L 497.8488 254.155 L 499.6266 253.6841 L 503.3736 253.2934 L 511.2687 253.2158 L 508.303 257.5975 L 507.163 259.7048 L 506.9425 260.4664 L 506.87 261.2794 L 506.9968 262.137 L 507.2898 262.9342 L 507.6997 263.6827 L 508.7484 265.0902 L 513.9324 270.6189 L 515.6841 272.8815 L 518.2057 277.7762 L 519.2323 279.2126 L 522.0327 282.6327 L 523.0217 284.0626 L 523.7503 285.6411 L 523.9599 286.5475 L 524.0389 287.467 L 523.9954 288.3838 L 523.5673 290.0926 L 522.117 293.097 L 521.5034 294.736 L 520.5252 299.3111 L 519.9697 301.1198 L 518.6995 303.4705 L 514.6634 309.5083 Z" fill="#000000" fill-opacity="1" stroke="#000000" stroke-width="0" paint-order="fill" stroke-opacity="1" stroke-dasharray="" stroke-linecap="butt" stroke-linejoin="miter" stroke-miterlimit="10" transform="matrix(1.100000023841858,0,0,1.100000023841858,-42.49998092651367,-28.350112915039062)" clip-path="none" style="filter: url(#f1)"/>
<path data-code="208" d="M 631.4377 324.7318 L 630.2242 327.9704 L 628.5747 333.3597 L 626.1625 338.0163 L 623.6847 344.2909 L 623.4307 345.7655 L 623.4834 346.4982 L 624.4774 350.0459 L 624.6244 351.7323 L 624.5632 352.5992 L 624.1676 354.2487 L 622.8343 357.3058 L 622.2547 359.0448 L 621.8911 361.0048 L 621.6854 363.0358 L 621.5073 367.1952 L 621.4846 372.4333 L 621.5715 375.5482 L 621.8295 378.5987 L 622.4722 381.4966 L 624.2594 385.4258 L 624.8444 387.145 L 625.2025 389.0353 L 625.4013 391.0019 L 625.5681 395.2362 L 625.6825 405.1638 L 625.6125 408.4142 L 625.4171 410.5229 L 624.9613 412.5513 L 624.5726 413.5168 L 624.0359 414.4336 L 622.6532 415.974 L 620.9627 417.0856 L 619.3196 417.6499 L 617.6464 417.9945 L 614.8894 415.7885 L 613.3785 414.9269 L 611.6505 414.3402 L 608.0934 413.5878 L 606.357 413.0709 L 601.8237 410.6912 L 598.5064 409.2903 L 594.0653 406.6831 L 591.6078 405.5703 L 590.0544 404.7047 L 588.6372 403.6563 L 586.6029 401.9055 L 585.9951 399.9994 L 585.5788 399.4114 L 584.9213 398.8655 L 584.1517 398.4933 L 582.4405 398.2433 L 580.6884 398.7024 L 579.8947 399.268 L 579.358 399.931 L 578.7345 401.4582 L 577.8441 407.9288 L 573.6728 404.5811 L 571.5241 403.046 L 567.4865 401.1031 L 563.0455 398.5104 L 559.7553 397.0805 L 555.994 395.0758 L 553.4175 394.2773 L 546.9224 393.6183 L 544.2 393.0395 L 542.5997 392.3541 L 536.4519 389.2787 L 535.7465 388.7867 L 534.4788 387.6054 L 533.4374 386.1887 L 533.0285 385.3902 L 532.6768 384.4116 L 532.2846 382.37 L 532.1204 379.1985 L 532.294 368.316 L 531.9857 364.0434 L 531.2226 361.1995 L 528.4271 355.43 L 528.2974 349.7487 L 527.8628 346.8915 L 527.2645 345.1565 L 525.2444 341.3089 L 523.7883 337.9466 L 522.1397 334.9264 L 521.4313 333.3229 L 520.9933 331.4813 L 520.8828 328.6294 L 521.1487 326.7457 L 521.7239 325.0041 L 523.7251 321.1788 L 525.2173 317.8074 L 526.1161 316.2775 L 530.6839 309.5307 L 533.47 306.7262 L 534.2006 306.2987 L 535.9024 305.7488 L 538.7931 305.3884 L 541.882 305.2884 L 547.1715 305.3292 L 551.3659 305.562 L 553.4042 305.8606 L 555.3581 306.4078 L 567.6858 312.6325 L 570.3895 313.2665 L 575.098 313.5756 L 578.583 314.5412 L 583.1844 316.7208 L 586.1007 317.3772 L 590.1896 317.635 L 602.7126 317.6008 L 605.7883 317.7613 L 607.7866 318.0297 L 609.7005 318.5322 L 613.5314 320.3277 L 615.2643 320.9355 L 617.231 321.3222 L 624.3048 322.2141 L 626.0648 322.7258 L 631.4377 324.7318 Z" fill="#000000" fill-opacity="1" stroke="#000000" stroke-width="0" paint-order="fill" stroke-opacity="1" stroke-dasharray="" stroke-linecap="butt" stroke-linejoin="miter" stroke-miterlimit="10" transform="matrix(1.100000023841858,0,0,1.100000023841858,-42.49998092651367,-28.350112915039062)" clip-path="none" style="filter: url(#f1)"/>
<path data-code="209" d="M 177.7492 275.6531 L 178.5262 272.8591 L 179.6711 266.2912 L 180.2507 264.5785 L 181.6798 261.4201 L 182.2618 259.6167 L 182.6278 257.5791 L 183.1788 252.366 L 183.8359 249.3352 L 186.0004 244.5721 L 187.5212 240.1549 L 189.0287 237.0439 L 194.0346 236.7374 L 197.1324 236.2388 L 199.0661 235.568 L 202.7653 233.8895 L 204.7419 233.3896 L 207.8511 233.0515 L 217.4055 232.7635 L 220.4831 232.3044 L 222.4232 231.6414 L 226.1051 229.9142 L 232.1227 228.3489 L 235.4115 226.9269 L 237.7487 225.9061 L 241.2402 224.9261 L 242.8882 227.0703 L 243.8694 228.5436 L 245.8026 232.5819 L 246.2648 233.3094 L 247.3673 234.6327 L 248.6562 235.7587 L 249.3611 236.2283 L 252.5428 237.766 L 254.8361 239.3261 L 258.4031 242.5897 L 261.7076 246.1782 L 262.8762 247.7067 L 263.8598 249.3287 L 265.3076 252.7383 L 267.8465 257.3173 L 269.1523 260.6756 L 270.4151 263.5787 L 270.6721 265.1086 L 270.5818 265.886 L 270.0742 267.3448 L 269.0107 269.4929 L 267.6024 272.7696 L 265.9198 275.6833 L 265.242 277.2513 L 265.0402 278.159 L 264.9677 279.089 L 265.0259 280.0256 L 265.2257 280.9556 L 265.5464 281.7922 L 266.4545 283.3089 L 267.5826 284.6822 L 268.8445 285.9542 L 270.2035 287.1249 L 271.6557 288.151 L 273.2549 288.9679 L 275.7569 289.9834 L 280.2404 292.509 L 282.7201 293.5771 L 284.2863 294.4203 L 285.7173 295.4529 L 290.5244 299.4466 L 291.9702 300.3779 L 295.1475 301.9393 L 296.5218 302.9588 L 297.7229 304.2032 L 298.7056 305.6331 L 300.1489 308.9545 L 302.5813 313.5783 L 304.2511 317.8429 L 306.3022 321.6839 L 307.7288 325.0304 L 308.7099 326.4747 L 309.9175 327.731 L 310.5913 328.2742 L 312.1072 329.1661 L 314.5248 330.1987 L 318.147 332.0574 L 318.8815 332.3218 L 320.569 332.6217 L 321.8308 335.7196 L 322.4356 338.4491 L 322.554 341.372 L 322.1401 344.2475 L 321.416 346.0694 L 320.3599 347.7203 L 316.0693 352.9254 L 314.1583 355.726 L 313.0449 356.8007 L 311.0787 358.0845 L 309.8736 359.1132 L 308.8313 360.3668 L 308.4065 361.0771 L 307.8531 362.703 L 307.7771 364.4275 L 308.0992 365.9995 L 309.0039 368.7474 L 309.0296 370.1997 L 308.6369 371.6611 L 307.5221 374.776 L 306.5602 378.4237 L 304.9955 382.445 L 299.5476 380.7981 L 295.0454 378.3435 L 291.768 376.8465 L 290.19 375.7994 L 287.984 373.8973 L 285.8703 371.8084 L 269.2712 354.3882 L 267.1273 352.3703 L 264.8143 350.6642 L 263.9742 350.2288 L 262.2349 349.6408 L 258.6867 348.8976 L 256.9686 348.3911 L 253.1851 346.5087 L 252.3904 346.1812 L 250.6067 345.709 L 248.748 345.463 L 245.8914 345.3157 L 237.1567 345.3564 L 236.3902 343.432 L 235.928 342.8505 L 235.3197 342.3757 L 233.8502 341.8021 L 233.0403 341.6732 L 231.3458 341.6864 L 229.6311 342.0534 L 228.6998 342.423 L 225.1403 344.2975 L 220.8299 345.8971 L 217.9546 347.2375 L 217.5945 341.4193 L 217.1342 338.5741 L 216.5669 336.8456 L 215.1261 333.7004 L 214.5366 331.9048 L 214.1656 329.8712 L 213.6122 324.6581 L 213.2491 322.6192 L 212.6685 320.8158 L 211.2429 317.66 L 210.6623 315.8553 L 210.3002 313.8163 L 209.7576 308.5941 L 209.399 306.5512 L 208.8258 304.7425 L 207.4328 301.5684 L 206.8842 299.761 L 206.5641 297.7247 L 205.9401 291.5422 L 205.3467 289.5835 L 204.9402 288.7955 L 203.9063 287.388 L 201.9469 285.7201 L 198.0509 283.7851 L 194.3321 281.6791 L 191.0108 280.2742 L 187.2401 278.2405 L 184.6868 277.3316 L 177.7492 275.6531 Z" fill="#000000" fill-opacity="1" stroke="#000000" stroke-width="0" paint-order="fill" stroke-opacity="1" stroke-dasharray="" stroke-linecap="butt" stroke-linejoin="miter" stroke-miterlimit="10" transform="matrix(1.100000023841858,0,0,1.100000023841858,-42.49998092651367,-28.350112915039062)" clip-path="none" style="filter: url(#f1)"/>
<path data-code="210" d="M 400.1687 409.7507 L 398.5606 407.6539 L 397.6273 406.1543 L 396.9026 404.3772 L 396.469 402.354 L 396.1893 399.2075 L 396.1144 395.9992 L 396.3067 386.7109 L 396.6673 383.8144 L 397.1606 381.9714 L 397.8769 380.3627 L 399.5082 377.3096 L 400.9589 373.9447 L 403.0021 370.1089 L 403.6518 368.3146 L 404.0494 366.2941 L 404.2531 364.2158 L 404.3059 360.009 L 404.0361 356.8914 L 403.596 354.8828 L 403.2478 353.9212 L 401.7561 351.4285 L 398.2192 346.8692 L 397.3042 345.1604 L 396.765 343.3254 L 396.5149 341.4115 L 396.5105 338.4728 L 396.9021 335.4697 L 397.6223 332.4021 L 400.364 333.1453 L 402.2282 333.386 L 404.1061 333.4347 L 405.9692 333.2558 L 406.8848 333.0532 L 407.7806 332.7467 L 409.4755 331.7943 L 411.6889 329.8791 L 413.6186 327.6507 L 415.1794 325.1909 L 416.6321 321.801 L 417.5876 320.1843 L 419.3482 317.9008 L 421.3193 315.7395 L 424.1227 313.0389 L 426.34 311.2539 L 427.8879 310.2923 L 431.0598 308.7888 L 431.7666 308.3218 L 433.0507 307.1853 L 434.1152 305.8014 L 434.535 305.0135 L 434.8684 304.1216 L 435.2502 302.2577 L 435.3819 300.3306 L 435.2912 297.3774 L 434.6445 292.6774 L 439.3105 293.1891 L 443.5744 293.0865 L 446.6126 292.438 L 451.2288 290.3412 L 453.1615 289.8334 L 457.2513 289.4296 L 462.5088 289.377 L 466.3993 285.3662 L 468.6669 288.2062 L 469.6407 289.7361 L 470.463 291.4435 L 471.8541 294.9518 L 475.3465 298.8099 L 476.3745 300.2437 L 477.1845 301.8078 L 477.4844 302.7167 L 477.8411 304.5925 L 478.2643 310.3476 L 478.5628 312.2273 L 478.8124 313.1376 L 479.4926 314.7621 L 481.0696 317.8521 L 482.0893 320.4251 L 482.9372 322.118 L 484.017 323.7084 L 485.2256 325.2277 L 488.4591 328.7886 L 490.4702 330.6144 L 491.9096 331.5115 L 492.6939 331.7891 L 493.533 331.8851 L 494.3188 331.7733 L 495.7193 331.1314 L 499.561 328.0283 L 500.9688 327.0667 L 501.7231 326.6773 L 503.4229 326.1143 L 507.792 325.1475 L 509.3882 324.3806 L 510.728 323.2809 L 511.8157 321.9115 L 512.5773 320.2567 L 512.9952 318.4401 L 513.6862 313.8229 L 514.6634 309.5083 L 530.6839 309.5307 L 526.1161 316.2775 L 525.2173 317.8074 L 523.7251 321.1788 L 521.7239 325.0041 L 521.1487 326.7457 L 520.8828 328.6294 L 520.9933 331.4813 L 521.4313 333.3229 L 522.1397 334.9264 L 523.7883 337.9466 L 525.2444 341.3089 L 527.2645 345.1565 L 527.8628 346.8915 L 528.2974 349.7487 L 528.4271 355.43 L 526.6232 357.1637 L 525.5315 358.4187 L 523.3729 362.211 L 521.6824 364.4223 L 513.7479 372.9173 L 511.2608 375.7784 L 510.1844 377.228 L 508.4569 380.0904 L 507.9429 380.7113 L 506.6633 381.6834 L 502.4028 384.1893 L 500.8633 384.9127 L 499.119 385.3902 L 494.6508 386.2545 L 492.984 386.9517 L 491.5007 387.933 L 490.1293 389.0998 L 488.8512 390.3876 L 487.6743 391.774 L 486.2186 394.0208 L 484.8132 397.433 L 482.8652 401.328 L 482.2654 403.0446 L 481.378 407.6644 L 480.8778 409.4679 L 480.1615 411.0661 L 478.5411 414.1456 L 477.1515 417.5591 L 474.6505 422.1671 L 472.1027 428.7468 L 471.0219 431.9105 L 467.8298 430.674 L 463.4598 429.4019 L 461.8182 428.714 L 458.0766 426.6185 L 454.773 425.1833 L 450.3537 422.5709 L 447.1631 421.0187 L 445.8628 420.1255 L 444.6681 419.1126 L 442.8503 412.0067 L 442.2026 410.2624 L 441.6718 409.3456 L 440.303 407.7591 L 439.4831 407.1067 L 438.5755 406.5713 L 436.6078 405.9175 L 434.5508 405.636 L 431.3691 405.5348 L 412.7958 405.6176 L 408.5097 405.8071 L 406.4285 406.1267 L 404.4386 406.7568 L 402.6272 407.7999 L 400.1687 409.7507 Z" fill="#000000" fill-opacity="1" stroke="#000000" stroke-width="0" paint-order="fill" stroke-opacity="1" stroke-dasharray="" stroke-linecap="butt" stroke-linejoin="miter" stroke-miterlimit="10" transform="matrix(1.100000023841858,0,0,1.100000023841858,-42.49998092651367,-28.350112915039062)" clip-path="none" style="filter: url(#f1)"/>
<path data-code="211" d="M 617.64 422.0092 L 623.4948 428.0089 L 626.562 431.429 L 628.1297 433.6113 L 628.8637 435.0517 L 629.9933 437.7589 L 631.4328 439.9964 L 633.1854 442.0879 L 637.5959 446.8156 L 639.4107 448.8887 L 640.5156 450.3278 L 642.3452 452.9968 L 638.9731 454.0847 L 637.2797 454.7634 L 631.9729 457.7179 L 629.541 458.8031 L 625.023 461.3906 L 621.6879 462.7928 L 617.9498 464.8712 L 614.0227 466.7457 L 612.6494 467.7744 L 611.4739 469.0569 L 610.5633 470.5802 L 610.2185 471.5115 L 609.8234 473.4597 L 609.6413 476.4904 L 609.8125 485.8852 L 609.7355 490.0275 L 609.3202 493.028 L 609.0435 493.9856 L 608.3351 495.6023 L 605.8539 499.959 L 604.8629 501.2705 L 604.2403 501.8019 L 598.5971 505.2378 L 593.8231 507.5727 L 590.3075 510.3009 L 587.5599 507.9831 L 586.0677 507.0084 L 584.3658 506.2126 L 580.8023 504.955 L 578.7784 505.3299 L 577.0213 505.3667 L 572.6049 505.7706 L 569.1652 505.8337 L 569.507 501.1061 L 570.355 497.0585 L 570.797 494.3934 L 571.234 492.7176 L 571.5739 491.9428 L 572.0391 491.239 L 573.2827 490.1932 L 578.2831 487.419 L 579.8853 486.8744 L 583.1405 486.2548 L 584.6268 485.684 L 585.2912 485.163 L 585.8112 484.4659 L 586.1599 483.6792 L 586.3681 482.84 L 586.4618 481.9679 L 586.3582 480.1723 L 585.8585 478.3794 L 585.4668 477.5809 L 584.4763 476.1181 L 580.9592 472.039 L 579.8833 470.6091 L 578.9846 469.0227 L 577.8515 466.5313 L 575.8754 462.8086 L 575.4215 461.0762 L 575.4462 459.2109 L 575.6564 458.2862 L 576.4486 456.584 L 578.1539 454.3293 L 580.1359 452.222 L 582.9688 449.5635 L 585.2399 447.8206 L 586.8821 446.9353 L 587.7498 446.6288 L 592.178 445.7172 L 593.9129 445.17 L 595.5314 444.2716 L 597.0314 443.1258 L 600.5362 439.7807 L 617.64 422.0092 Z" fill="#000000" fill-opacity="1" stroke="#000000" stroke-width="0" paint-order="fill" stroke-opacity="1" stroke-dasharray="" stroke-linecap="butt" stroke-linejoin="miter" stroke-miterlimit="10" transform="matrix(1.100000023841858,0,0,1.100000023841858,-42.49998092651367,-28.350112915039062)" clip-path="none" style="filter: url(#f1)"/>
<path data-code="212" d="M 358.1338 327.2337 L 353.4574 325.9788 L 350.5169 325.4868 L 345.4292 325.2948 L 341.3813 325.5487 L 338.4896 326.213 L 334.6706 328.0848 L 333.0373 328.711 L 326.7829 330.1579 L 320.569 332.6217 L 318.8815 332.3218 L 318.147 332.0574 L 314.5248 330.1987 L 312.1072 329.1661 L 310.5913 328.2742 L 309.9175 327.731 L 308.7099 326.4747 L 307.7288 325.0304 L 306.3022 321.6839 L 304.2511 317.8429 L 302.5813 313.5783 L 300.1489 308.9545 L 298.7056 305.6331 L 297.7229 304.2032 L 296.5218 302.9588 L 295.1475 301.9393 L 291.9702 300.3779 L 290.5244 299.4466 L 285.7173 295.4529 L 284.2863 294.4203 L 282.7201 293.5771 L 280.2404 292.509 L 275.7569 289.9834 L 273.2549 288.9679 L 271.6557 288.151 L 270.2035 287.1249 L 268.8445 285.9542 L 267.5826 284.6822 L 266.4545 283.3089 L 265.5464 281.7922 L 265.2257 280.9556 L 265.0259 280.0256 L 264.9677 279.089 L 265.0402 278.159 L 265.242 277.2513 L 265.9198 275.6833 L 267.6024 272.7696 L 269.0107 269.4929 L 270.0742 267.3448 L 270.5818 265.886 L 270.6721 265.1086 L 270.4151 263.5787 L 269.1523 260.6756 L 267.8465 257.3173 L 265.3076 252.7383 L 263.8598 249.3287 L 262.8762 247.7067 L 261.7076 246.1782 L 258.4031 242.5897 L 254.8361 239.3261 L 252.5428 237.766 L 249.3611 236.2283 L 248.6562 235.7587 L 247.3673 234.6327 L 246.2648 233.3094 L 245.8026 232.5819 L 243.8694 228.5436 L 242.8882 227.0703 L 241.2402 224.9261 L 241.764 222.1729 L 242.429 220.4589 L 243.9182 218.2161 L 245.7616 216.239 L 247.8541 214.571 L 249.3981 213.7423 L 251.1375 213.2201 L 255.4976 212.3177 L 256.3298 211.9836 L 257.7662 211.0641 L 258.9906 209.8671 L 259.9722 208.4674 L 261.4427 205.1999 L 262.3326 203.6951 L 263.404 202.2665 L 265.238 200.2815 L 267.3049 198.5833 L 268.8385 197.7309 L 270.5803 197.1876 L 272.3572 196.8548 L 272.3064 205.4156 L 272.4548 208.5701 L 272.7025 210.6248 L 273.1721 212.6005 L 274.8833 216.5889 L 275.4372 218.3726 L 276.1851 224.3473 L 276.5782 226.2047 L 277.3852 227.8569 L 277.9436 228.4673 L 281.9659 231.1218 L 284.2291 232.282 L 285.9738 232.8055 L 289.5418 233.529 L 291.2732 234.0315 L 295.1075 235.8468 L 296.872 236.4532 L 298.8738 236.8097 L 300.9332 236.9768 L 312.5181 236.9991 L 316.6439 237.3135 L 317.6423 237.5174 L 319.4246 238.1344 L 325.5552 241.2625 L 327.7034 242.7581 L 328.8952 244.017 L 329.8788 245.4495 L 331.739 249.5207 L 333.7703 253.3802 L 335.1224 256.8293 L 337.5203 261.5017 L 339.2596 265.7058 L 342.5982 271.5305 L 343.7288 272.7262 L 348.6158 275.7478 L 350.1815 276.466 L 351.1168 276.7488 L 353.0534 277.0816 L 355.0409 277.2197 L 363.1367 277.2829 L 366.1191 277.5131 L 368.9668 278.2024 L 370.4324 278.9061 L 372.3414 280.0598 L 372.8672 283.2207 L 373.1312 286.262 L 373.0591 289.2099 L 372.5392 292.0539 L 372.2136 292.9523 L 371.2754 294.6439 L 367.7312 299.1072 L 366.7401 300.6923 L 366.1482 302.4681 L 366.0712 304.3097 L 366.2207 305.2226 L 366.8038 306.8222 L 369.654 311.7748 L 370.7634 312.9271 L 374.6751 315.7869 L 369.8439 320.8671 L 367.892 322.7126 L 366.5236 323.8149 L 365.8059 324.3016 L 364.3896 325.0264 L 358.1338 327.2337 Z" fill="#000000" fill-opacity="1" stroke="#000000" stroke-width="0" paint-order="fill" stroke-opacity="1" stroke-dasharray="" stroke-linecap="butt" stroke-linejoin="miter" stroke-miterlimit="10" transform="matrix(1.100000023841858,0,0,1.100000023841858,-42.49998092651367,-28.350112915039062)" clip-path="none" style="filter: url(#f1)"/>
<path data-code="213" d="M 665.5499 243.4066 L 666.423 243.1882 L 666.9173 243.1961 L 667.4747 243.379 L 667.972 243.7565 L 668.3784 244.2722 L 670.0428 247.6028 L 671.2834 250.9677 L 671.8448 253.7551 L 672.2182 258.2868 L 672.2502 278.7338 L 672.2256 293.5995 L 670.0872 293.9836 L 668.6922 294.4243 L 667.1714 295.2543 L 665.0882 296.9025 L 662.5088 299.4518 L 660.0976 302.2156 L 658.4994 304.4544 L 657.1103 306.8183 L 652.5568 308.9585 L 649.8555 310.0148 L 648.4339 310.7738 L 647.7058 311.2789 L 646.3137 312.418 L 644.9794 313.669 L 638.5415 320.3606 L 635.9261 322.7968 L 634.5686 323.7834 L 633.8706 324.1714 L 632.7814 324.5674 L 631.4377 324.7318 L 626.0648 322.7258 L 624.3048 322.2141 L 617.231 321.3222 L 615.2643 320.9355 L 613.5314 320.3277 L 609.7005 318.5322 L 607.7866 318.0297 L 605.7883 317.7613 L 602.7126 317.6008 L 590.1896 317.635 L 586.1007 317.3772 L 583.1844 316.7208 L 578.583 314.5412 L 575.098 313.5756 L 575.35 309.6609 L 575.8241 306.8314 L 576.4086 305.1279 L 578.1706 301.2211 L 578.5756 299.3979 L 578.6975 297.5182 L 578.5628 295.6384 L 578.1425 293.8231 L 575.9967 289.1428 L 575.5005 287.3209 L 575.2262 285.4149 L 575.1137 283.4694 L 575.1468 281.5159 L 575.3505 279.5836 L 575.7999 277.7078 L 576.1215 276.8685 L 578.0868 273.0091 L 579.1858 270.5518 L 580.1088 269.0233 L 581.9201 267.162 L 583.3802 266.2425 L 584.2198 265.8978 L 589.4575 264.7008 L 591.0987 264.1036 L 594.8901 262.1436 L 598.2257 260.7611 L 601.9618 258.6327 L 605.1702 257.1252 L 606.7951 256.2005 L 609.0469 254.351 L 611.6668 251.4307 L 613.2122 249.0169 L 614.7108 245.7783 L 615.6954 244.38 L 616.9227 243.1751 L 617.6227 242.6673 L 619.2954 241.8807 L 622.1886 241.3624 L 628.215 241.1572 L 631.1945 240.8652 L 633.0892 240.3877 L 636.9097 238.5461 L 638.6362 237.9173 L 640.5837 237.5293 L 642.5889 237.328 L 646.659 237.2635 L 649.6824 237.4964 L 652.5765 238.1804 L 657.1606 240.4811 L 662.3579 242.1372 L 665.5499 243.4066 Z" fill="#000000" fill-opacity="1" stroke="#000000" stroke-width="0" paint-order="fill" stroke-opacity="1" stroke-dasharray="" stroke-linecap="butt" stroke-linejoin="miter" stroke-miterlimit="10" transform="matrix(1.100000023841858,0,0,1.100000023841858,-42.49998092651367,-28.350112915039062)" clip-path="none" style="filter: url(#f1)"/>
<path data-code="214" d="M 308.3898 178.8518 L 305.7236 182.2128 L 303.8964 184.3359 L 296.6239 192.1351 L 293.8625 194.7133 L 292.3417 195.767 L 291.5105 196.1774 L 290.7188 196.4497 L 289.0934 196.7496 L 287.4498 196.7943 L 285.8194 196.6154 L 284.2439 196.184 L 283.4576 195.8367 L 279.7496 193.8096 L 278.3827 193.3426 L 276.2477 192.8441 L 276.3888 165.7383 L 276.3128 162.3958 L 275.9887 159.1296 L 275.4782 157.0459 L 275.088 156.0567 L 273.2209 152.338 L 271.7731 148.9495 L 269.1444 144.3257 L 267.3414 140.4307 L 268.0779 137.525 L 268.3936 135.4084 L 268.5771 132.1988 L 268.4809 129.0102 L 268.2249 126.9344 L 267.7277 124.9481 L 265.6435 120.1955 L 264.9934 117.1608 L 264.7423 112.8856 L 264.691 102.0083 L 264.5312 99.88 L 264.1883 97.8134 L 263.6063 95.9915 L 261.8511 92.04 L 260.353 85.6851 L 259.733 83.9817 L 257.7741 80.0998 L 255.9218 75.9181 L 250.9776 68.1426 L 257.267 65.0013 L 260.6401 63.6477 L 265.1118 61.084 L 269.1878 59.3108 L 273.1711 56.9325 L 275.4422 56.7009 L 277.2915 56.7088 L 279.1157 56.9943 L 280.8461 57.677 L 282.4034 58.7083 L 283.8458 59.9382 L 288.6435 64.6961 L 290.7849 66.5851 L 292.3076 67.6401 L 296.3062 69.7921 L 302.3268 74.6 L 304.001 75.5274 L 304.8751 75.8431 L 306.682 76.2443 L 312.2285 76.8704 L 314.0221 77.2348 L 315.6608 77.8333 L 319.4423 79.6684 L 321.2123 80.088 L 323.0369 80.2143 L 324.8601 80.0801 L 326.6256 79.6526 L 330.3973 77.7991 L 332.0448 77.1927 L 334.787 76.7152 L 338.5804 76.485 L 342.4576 80.5037 L 341.473 84.1 L 339.3637 88.8185 L 338.9632 90.6535 L 338.8729 93.4856 L 339.3647 96.2559 L 341.0853 100.1864 L 341.6856 101.9636 L 342.0798 103.988 L 342.7028 109.1945 L 343.092 111.2255 L 343.6918 113.0158 L 345.4681 116.9832 L 345.9693 118.9524 L 346.3383 122.0515 L 346.4522 126.2754 L 346.2766 129.418 L 345.6447 132.4382 L 344.5161 134.8086 L 342.3895 138.2932 L 341.2831 139.5073 L 340.5106 139.9914 L 339.6715 140.3321 L 337.8725 140.7333 L 332.0873 141.4857 L 330.346 142.0369 L 327.2545 143.4312 L 325.493 143.9903 L 323.512 144.3205 L 318.4632 144.7848 L 316.4762 145.1729 L 314.6293 145.9187 L 313.0069 146.9842 L 311.53 148.2602 L 310.1888 149.6914 L 309.0153 151.2699 L 308.0992 153.0339 L 307.5423 155.0675 L 307.2863 157.167 L 307.1709 162.5484 L 307.3923 172.322 L 307.8245 176.5169 L 308.3898 178.8518 Z" fill="#000000" fill-opacity="1" stroke="#000000" stroke-width="0" paint-order="fill" stroke-opacity="1" stroke-dasharray="" stroke-linecap="butt" stroke-linejoin="miter" stroke-miterlimit="10" transform="matrix(1.100000023841858,0,0,1.100000023841858,-42.49998092651367,-28.350112915039062)" clip-path="none" style="filter: url(#f1)"/>
<path data-code="215" d="M 385.7233 417.7814 L 382.0192 420.8109 L 376.4885 426.3212 L 375.0708 427.5919 L 373.5386 428.6824 L 372.699 429.1099 L 370.9 429.6308 L 369.9786 429.7466 L 368.1253 429.7479 L 366.2957 429.4322 L 365.4088 429.1296 L 364.6151 428.7455 L 363.15 427.7905 L 359.7384 425.1097 L 357.9572 423.5759 L 354.2625 417.4289 L 352.8739 414.0088 L 350.3887 409.4008 L 349.3429 406.8462 L 348.526 405.2283 L 347.533 403.7471 L 343.7056 398.7642 L 342.8083 397.2725 L 341.6896 394.8022 L 340.7799 393.2499 L 339.604 391.9003 L 338.3239 390.8545 L 337.6126 390.4191 L 336.0054 389.7259 L 333.5365 388.8906 L 331.3187 387.9277 L 326.1604 386.3111 L 324.2149 385.9296 L 321.2004 385.6796 L 315.0945 385.4534 L 312.1082 385.0588 L 310.3654 384.5471 L 304.9955 382.445 L 306.5602 378.4237 L 307.5221 374.776 L 308.6369 371.6611 L 309.0296 370.1997 L 309.0039 368.7474 L 308.0992 365.9995 L 307.7771 364.4275 L 307.8531 362.703 L 308.4065 361.0771 L 308.8313 360.3668 L 309.8736 359.1132 L 311.0787 358.0845 L 313.0449 356.8007 L 314.1583 355.726 L 316.0693 352.9254 L 320.3599 347.7203 L 321.416 346.0694 L 322.1401 344.2475 L 322.554 341.372 L 322.4356 338.4491 L 321.8308 335.7196 L 320.569 332.6217 L 326.7829 330.1579 L 333.0373 328.711 L 334.6706 328.0848 L 338.4896 326.213 L 341.3813 325.5487 L 345.4292 325.2948 L 350.5169 325.4868 L 353.4574 325.9788 L 358.1338 327.2337 L 357.6716 332.5007 L 357.4989 336.718 L 357.4693 342.0152 L 357.7322 346.1799 L 358.1032 348.1872 L 358.7218 349.9775 L 360.7028 353.8318 L 362.1358 357.2006 L 364.1089 361.0587 L 364.726 362.8767 L 365.0871 364.9419 L 365.2899 368.1436 L 365.2356 377.9568 L 365.3372 381.1914 L 365.5686 383.2974 L 366.0505 385.3245 L 366.7268 386.949 L 368.2585 389.9798 L 369.4463 392.779 L 370.7096 394.8995 L 372.4361 397.0239 L 377.4331 402.3961 L 379.6169 405.2493 L 380.3746 406.6897 L 381.8974 410.1953 L 384.1388 414.1061 L 385.7233 417.7814 Z" fill="#000000" fill-opacity="1" stroke="#000000" stroke-width="0" paint-order="fill" stroke-opacity="1" stroke-dasharray="" stroke-linecap="butt" stroke-linejoin="miter" stroke-miterlimit="10" transform="matrix(1.100000023841858,0,0,1.100000023841858,-42.49998092651367,-28.350112915039062)" clip-path="none" style="filter: url(#f1)"/>
















</svg>