<?xml version="1.0" standalone="no"?>
<!-- Generator: Paintmaps.com , Online SVG vector map maker -->
<svg xmlns="http://www.w3.org/2000/svg" version="1.1" baseProfile="full"   style="background-color:#e0f2f1" width="800" height="500" viewBox="0 0 850 567">

<path data-code="200" d="M 474.6625 444.2453 L 473.4191 440.5166 L 471.7682 434.6229 L 469.8796 430.5038 L 469.1382 428.3517 L 467.9264 421.5636 L 467.0611 418.6694 L 472.164 413.0976 L 481.8756 402.9595 L 485.3773 399.4216 L 487.5586 397.4675 L 489.9049 395.8637 L 493.4818 394.3184 L 498.3075 391.5723 L 501.1746 390.3731 L 502.7005 389.5498 L 504.2526 388.4161 L 505.7348 387.13 L 509.3074 383.6262 L 514.8589 377.7938 L 517.3388 374.7287 L 518.3312 373.0751 L 520.2454 368.5359 L 522.4999 364.3955 L 523.6594 361.4273 L 524.4547 359.8435 L 526.1612 357.4592 L 528.8125 354.4839 L 532.3595 350.9687 L 533.8481 349.6855 L 535.4125 348.5574 L 536.9507 347.7456 L 539.8402 346.5691 L 544.6873 343.8729 L 548.2065 342.3418 L 549.7244 341.2565 L 551.0378 339.9006 L 552.0884 338.3154 L 552.7085 336.8355 L 554.2911 332.04 L 554.9977 328.9507 L 559.2257 329.5546 L 561.4476 329.7483 L 572.008 329.9961 L 575.4668 330.3408 L 577.6722 330.9005 L 578.7089 331.3307 L 582.5422 333.3517 L 585.4851 334.6592 L 586.9389 335.4924 L 589.2612 337.3141 L 592.1246 340.0729 L 595.5012 343.7362 L 597.3028 346.0649 L 598.2818 347.7285 L 600.1704 352.2834 L 602.3864 356.4465 L 603.8541 360.1582 L 605.4052 362.6109 L 607.3237 364.837 L 609.4655 366.8382 L 611.8492 368.4547 L 618.0411 370.9116 L 621.9818 372.2049 L 619.3887 377.5018 L 617.5043 380.8531 L 616.7235 382.6093 L 616.0451 385.6202 L 615.2969 392.8556 L 614.461 395.7369 L 612.3513 399.9457 L 610.7991 403.6275 L 606.8628 410.212 L 603.7158 417.1938 L 602.2919 420.9696 L 599.7794 426.0458 L 599.2346 427.9942 L 598.8597 429.9939 L 598.1472 434.0389 L 596.8765 438.2847 L 587.7924 438.6365 L 571.8953 438.5468 L 569.7214 438.6792 L 567.5909 439.004 L 565.5436 439.6677 L 563.6892 440.7843 L 561.235 442.9464 L 556.1097 448.2746 L 554.5795 449.3657 L 553.7142 449.7061 L 552.7421 449.8115 L 551.8705 449.6448 L 551.0939 449.2788 L 550.4198 448.7689 L 549.8425 448.1465 L 548.9804 446.6353 L 548.5451 444.8108 L 548.1317 438.2534 L 547.5672 436.5528 L 547.047 435.7965 L 546.3254 435.1641 L 545.4996 434.7169 L 543.6671 434.2027 L 540.6478 433.9392 L 529.7958 434.0004 L 527.6567 434.1386 L 525.5731 434.4562 L 523.5847 435.1228 L 522.7541 435.5914 L 521.2864 436.7764 L 520.0729 438.2092 L 519.1265 439.8813 L 517.6096 443.395 L 515.4155 447.5625 L 513.8479 451.2471 L 512.8641 452.8936 L 510.5081 455.9872 L 502.56 455.8376 L 500.359 455.5627 L 498.245 455.0201 L 493.2265 452.6885 L 491.3427 452.1145 L 486.4823 450.9993 L 484.6786 450.3142 L 480.5975 448.3288 L 475.8386 446.8418 L 474.8505 446.01 L 474.5669 445.0273 L 474.6625 444.2453 Z" fill="#000000" fill-opacity="1" stroke="#000000" stroke-width="0" paint-order="fill" stroke-opacity="1" stroke-dasharray="" stroke-linecap="butt" stroke-linejoin="miter" stroke-miterlimit="10" transform="matrix(1.100000023841858,0,0,1.100000023841858,-42.49998474121094,-28.349939346313477)" clip-path="none" style="filter: url(#f1)"/>
<path data-code="201" d="M 444.7023 362.89 L 447.8861 361.1196 L 450.5887 359.9702 L 452.3555 359.0331 L 455.6146 356.5035 L 458.6692 353.5965 L 461.4936 350.4987 L 463.2283 347.9279 L 463.9633 345.9723 L 464.2682 343.9214 L 464.1299 340.8421 L 463.6519 338.8637 L 461.6666 334.6464 L 461.0219 332.8034 L 460.5135 329.7355 L 460.0974 322.4559 L 459.8704 320.5317 L 459.4501 318.8055 L 459.1344 318.0606 L 458.4326 316.9767 L 453.5386 309.5091 L 452.5878 307.8484 L 451.0053 304.1866 L 449.2828 300.8566 L 448.5254 299.0962 L 447.9886 296.9811 L 447.704 294.7849 L 447.5122 290.2813 L 447.5528 285.7378 L 447.7483 282.3679 L 448.2797 279.1049 L 448.9426 277.1693 L 451.0021 272.9377 L 452.6706 268.1749 L 454.313 264.825 L 455.8406 263.959 L 457.4034 262.8623 L 464.0263 257.0327 L 467.5407 254.318 L 473.7529 261.2172 L 476.525 264.0459 L 478.6705 266.037 L 480.1644 267.2306 L 481.7389 268.2247 L 484.5814 269.4738 L 486.094 270.2957 L 487.6301 271.4308 L 489.7671 273.422 L 491.6872 275.6367 L 492.7805 277.2291 L 493.5694 278.7972 L 494.7631 281.7484 L 496.2907 284.2053 L 497.5175 285.7492 L 499.5108 287.9768 L 501.6045 290.1203 L 503.7783 292.14 L 506.0782 293.8918 L 507.5929 294.7136 L 510.4296 295.9912 L 512.0105 297.0196 L 514.234 298.9053 L 519.9079 304.4643 L 522.1292 306.3529 L 523.708 307.3884 L 527.2332 309.0391 L 528.8114 310.0732 L 531.0317 311.9646 L 536.6895 317.5549 L 538.9125 319.4578 L 540.5057 320.4947 L 544.0789 322.0685 L 548.8613 324.8829 L 552.2924 326.5194 L 553.6368 327.5335 L 554.9977 328.9507 L 554.2911 332.04 L 552.7085 336.8355 L 552.0884 338.3154 L 551.0378 339.9006 L 549.7244 341.2565 L 548.2065 342.3418 L 544.6873 343.8729 L 539.8402 346.5691 L 536.9507 347.7456 L 535.4125 348.5574 L 533.8481 349.6855 L 532.3595 350.9687 L 528.8125 354.4839 L 526.1612 357.4592 L 524.4547 359.8435 L 523.6594 361.4273 L 522.4999 364.3955 L 520.2454 368.5359 L 518.3312 373.0751 L 517.3388 374.7287 L 514.8589 377.7938 L 509.3074 383.6262 L 505.7348 387.13 L 504.2526 388.4161 L 502.7005 389.5498 L 501.1746 390.3731 L 498.3075 391.5723 L 493.4818 394.3184 L 489.9049 395.8637 L 487.5586 397.4675 L 485.3773 399.4216 L 481.8756 402.9595 L 472.164 413.0976 L 467.0611 418.6694 L 465.0988 412.1747 L 463.9937 406.1115 L 463.4548 404.1459 L 462.6793 402.4126 L 460.9295 399.0798 L 459.4356 395.3823 L 456.7117 390.4044 L 455.206 386.707 L 452.9163 382.5694 L 450.9946 378.0259 L 448.3209 373.021 L 445.6199 365.7642 L 444.7023 362.89 Z" fill="#000000" fill-opacity="1" stroke="#000000" stroke-width="0" paint-order="fill" stroke-opacity="1" stroke-dasharray="" stroke-linecap="butt" stroke-linejoin="miter" stroke-miterlimit="10" transform="matrix(1.100000023841858,0,0,1.100000023841858,-42.49998474121094,-28.349939346313477)" clip-path="none" style="filter: url(#f1)"/>
<path data-code="202" d="M 444.7023 362.89 L 441.0602 363.9525 L 439.0397 364.3471 L 435.7239 364.6704 L 431.2775 364.7914 L 427.9644 364.7174 L 424.7186 364.3727 L 422.6415 363.8272 L 420.9323 363.0453 L 414.3131 359.5458 L 412.1751 357.7555 L 410.4991 355.5136 L 408.8289 351.9843 L 407.7596 350.2196 L 402.4447 343.504 L 399.7656 339.6898 L 410.2945 329.3737 L 413.4853 326.7915 L 415.2211 325.8229 L 417.8762 324.618 L 422.6847 321.8221 L 426.2505 320.2696 L 429.4695 318.4822 L 431.1642 317.696 L 432.1689 317.3798 L 434.2525 316.9895 L 437.4785 316.7559 L 444.0688 316.7374 L 458.4326 316.9767 L 459.1344 318.0606 L 459.4501 318.8055 L 459.8704 320.5317 L 460.0974 322.4559 L 460.5135 329.7355 L 461.0219 332.8034 L 461.6666 334.6464 L 463.6519 338.8637 L 464.1299 340.8421 L 464.2682 343.9214 L 463.9633 345.9723 L 463.2283 347.9279 L 461.4936 350.4987 L 458.6692 353.5965 L 455.6146 356.5035 L 452.3555 359.0331 L 450.5887 359.9702 L 447.8861 361.1196 L 444.7023 362.89 Z" fill="#000000" fill-opacity="1" stroke="#000000" stroke-width="0" paint-order="fill" stroke-opacity="1" stroke-dasharray="" stroke-linecap="butt" stroke-linejoin="miter" stroke-miterlimit="10" transform="matrix(1.100000023841858,0,0,1.100000023841858,-42.49998474121094,-28.349939346313477)" clip-path="none" style="filter: url(#f1)"/>
<path data-code="203" d="M 471.3446 125.2405 L 465.3504 128.844 L 460.9637 130.8308 L 456.9018 133.0257 L 455.01 133.7065 L 452.8816 134.0982 L 447.3541 134.3673 L 431.5472 134.2805 L 418.0108 134.4414 L 414.7191 134.3132 L 412.5912 134.0041 L 410.5648 133.3219 L 409.7449 132.8533 L 408.9902 132.2964 L 407.6678 130.9832 L 406.6076 129.4607 L 404.5016 125.0055 L 402.6482 122.315 L 400.4984 119.747 L 398.1858 117.3115 L 396.5583 115.8074 L 394.8284 114.4715 L 392.9349 113.4317 L 391.0025 112.8563 L 384.0201 112.1114 L 381.1173 111.4662 L 379.4204 110.7156 L 376.1672 108.9751 L 371.7613 107.0182 L 365.7659 103.4831 L 370.0623 97.2091 L 371.4136 94.6639 L 372.0118 92.7155 L 372.806 88.7317 L 373.3364 86.7933 L 375.2586 82.5119 L 375.8964 80.6717 L 376.9309 75.7009 L 377.5104 73.7497 L 378.3228 72.0149 L 380.7194 67.7548 L 382.8478 63.435 L 384.1254 62.173 L 385.4681 61.1376 L 391.9276 57.6139 L 393.6058 56.9473 L 395.5184 56.6995 L 397.4289 56.9573 L 399.1023 57.6267 L 402.237 59.3686 L 405.7498 61.0009 L 410.5172 63.9164 L 414.06 65.5429 L 418.1037 67.7705 L 419.9977 68.4641 L 422.1346 68.8686 L 426.5656 69.1535 L 434.488 69.1976 L 441.2594 69.1093 L 444.5693 68.853 L 447.7296 68.1351 L 452.6877 65.6882 L 458.5068 63.8024 L 462.3369 71.0065 L 462.8689 72.6145 L 462.964 73.4506 L 462.7322 75.0799 L 461.321 79.2531 L 460.8243 82.4691 L 460.6336 85.8561 L 460.6705 89.2787 L 460.8516 91.5333 L 461.2324 93.7239 L 461.8733 95.6694 L 463.4543 99.0721 L 464.0957 101.0134 L 464.4936 103.2153 L 465.0673 108.8655 L 465.7664 112.1513 L 468.1234 117.2973 L 469.7648 122.0643 L 471.3446 125.2405 Z" fill="#000000" fill-opacity="1" stroke="#000000" stroke-width="0" paint-order="fill" stroke-opacity="1" stroke-dasharray="" stroke-linecap="butt" stroke-linejoin="miter" stroke-miterlimit="10" transform="matrix(1.100000023841858,0,0,1.100000023841858,-42.49998474121094,-28.349939346313477)" clip-path="none" style="filter: url(#f1)"/>
<path data-code="204" d="M 519.3732 510.2995 L 518.9176 502.5243 L 518.9139 484.8361 L 518.501 480.267 L 517.9493 478.095 L 517.5199 477.0296 L 515.4673 473.0231 L 513.9259 469.3683 L 511.4796 464.2765 L 510.8243 461.2556 L 510.5081 455.9872 L 512.8641 452.8936 L 513.8479 451.2471 L 515.4155 447.5625 L 517.6096 443.395 L 519.1265 439.8813 L 520.0729 438.2092 L 521.2864 436.7764 L 522.7541 435.5914 L 523.5847 435.1228 L 525.5731 434.4562 L 527.6567 434.1386 L 529.7958 434.0004 L 540.6478 433.9392 L 543.6671 434.2027 L 545.4996 434.7169 L 546.3254 435.1641 L 547.047 435.7965 L 547.5672 436.5528 L 548.1317 438.2534 L 548.5451 444.8108 L 548.9804 446.6353 L 549.8425 448.1465 L 550.4198 448.7689 L 551.0939 449.2788 L 551.8705 449.6448 L 552.7421 449.8115 L 553.7142 449.7061 L 554.5795 449.3657 L 556.1097 448.2746 L 561.235 442.9464 L 563.6892 440.7843 L 565.5436 439.6677 L 567.5909 439.004 L 569.7214 438.6792 L 571.8953 438.5468 L 587.7924 438.6365 L 596.8765 438.2847 L 591.1771 447.7064 L 589.6383 451.3995 L 586.9496 456.3917 L 585.4765 460.0905 L 582.8028 465.0841 L 581.2582 468.7844 L 579.5853 471.3752 L 577.56 473.7822 L 573.1125 478.3001 L 571.5427 479.6674 L 569.8961 480.8766 L 568.1399 481.8195 L 565.4561 482.9689 L 560.6138 485.7163 L 557.0054 487.199 L 552.982 489.522 L 549.5183 491.1243 L 547.854 492.0743 L 546.3734 493.2593 L 545.0205 494.6138 L 542.091 498.1603 L 536.0609 500.4492 L 533.4737 502.1398 L 529.4337 505.4883 L 527.7395 506.689 L 525.9406 507.6048 L 522.2312 508.9336 L 519.3732 510.2995 Z" fill="#000000" fill-opacity="1" stroke="#000000" stroke-width="0" paint-order="fill" stroke-opacity="1" stroke-dasharray="" stroke-linecap="butt" stroke-linejoin="miter" stroke-miterlimit="10" transform="matrix(1.100000023841858,0,0,1.100000023841858,-42.49998474121094,-28.349939346313477)" clip-path="none" style="filter: url(#f1)"/>
<path data-code="205" d="M 399.7656 339.6898 L 397.0401 339.0289 L 395.0404 338.8139 L 393.0241 338.7954 L 391.0282 338.9862 L 389.1011 339.4505 L 384.957 341.3861 L 383.0849 342.0442 L 380.9565 342.4572 L 375.491 343.0654 L 373.3492 343.4784 L 371.4483 344.1578 L 367.3736 346.3327 L 363.8047 347.925 L 358.9651 350.9018 L 353.7165 353.5025 L 355.4245 345.1804 L 356.0062 343.2064 L 358.5154 338.1074 L 360.0836 334.4399 L 362.8535 329.4805 L 364.4836 325.8229 L 366.6397 321.8392 L 367.4446 319.7042 L 367.8842 317.5079 L 368.0621 315.3117 L 367.8265 312.154 L 367.1204 310.2298 L 366.4838 309.3852 L 365.6415 308.7258 L 363.7369 308.0193 L 361.6672 307.7687 L 346.6198 308.045 L 343.1342 307.9054 L 340.8706 307.622 L 338.7006 307.0651 L 332.7885 304.4045 L 326.1688 302.617 L 321.1792 300.2783 L 319.0374 299.72 L 316.8059 299.4266 L 311.0637 299.2201 L 275.546 299.2429 L 275.2539 292.5302 L 275.2384 285.6238 L 275.4066 282.2269 L 275.9071 278.9382 L 276.5475 276.9998 L 278.4858 272.7369 L 279.0412 270.8098 L 280.1356 265.8533 L 280.8188 264.0131 L 282.9717 259.8186 L 284.5127 256.1354 L 287.2569 251.1746 L 288.8085 247.5028 L 290.5224 244.16 L 291.2643 242.3996 L 291.91 239.3673 L 292.2065 234.0874 L 293.1091 231.7445 L 294.1399 230.4384 L 297.7227 227.7579 L 305.2088 220.561 L 306.7839 219.2079 L 308.4743 218.04 L 309.3898 217.57 L 311.3371 216.9404 L 314.3778 216.5245 L 318.507 216.4562 L 322.5945 216.8279 L 324.5643 217.3107 L 326.43 218.1696 L 328.1247 219.366 L 332.9226 223.3383 L 334.7065 224.361 L 335.6428 224.7128 L 337.5875 225.1657 L 343.585 225.8365 L 345.5393 226.204 L 347.343 226.8207 L 350.6544 228.4045 L 352.4597 229.0084 L 354.414 229.3531 L 359.3994 229.7875 L 361.3563 230.0937 L 363.238 230.7133 L 364.0632 231.1705 L 365.5299 232.3384 L 366.7466 233.7627 L 367.2481 234.5546 L 369.1842 238.9628 L 371.341 243.1445 L 372.4327 245.9346 L 373.3332 247.7563 L 375.1267 250.2915 L 377.1932 252.6786 L 380.8978 256.4345 L 382.4573 257.8104 L 384.0944 259.0352 L 385.8431 260.0066 L 388.5115 261.1845 L 391.7455 262.9463 L 393.4466 263.714 L 396.3655 264.3834 L 401.3893 264.8762 L 404.3344 265.389 L 406.1221 266.0328 L 410.248 268.0553 L 412.2766 268.6122 L 415.4754 269.0181 L 419.854 269.199 L 425.3291 269.0879 L 427.4725 268.8514 L 429.5496 268.3686 L 430.5431 267.9855 L 432.3238 266.9286 L 437.0533 262.8979 L 438.7331 261.7115 L 440.6003 260.8939 L 442.5669 260.5193 L 445.5718 260.5863 L 447.5352 261.0592 L 449.9488 262.2228 L 454.313 264.825 L 452.6706 268.1749 L 451.0021 272.9377 L 448.9426 277.1693 L 448.2797 279.1049 L 447.7483 282.3679 L 447.5528 285.7378 L 447.5122 290.2813 L 447.704 294.7849 L 447.9886 296.9811 L 448.5254 299.0962 L 449.2828 300.8566 L 451.0053 304.1866 L 452.5878 307.8484 L 453.5386 309.5091 L 458.4326 316.9767 L 444.0688 316.7374 L 437.4785 316.7559 L 434.2525 316.9895 L 432.1689 317.3798 L 431.1642 317.696 L 429.4695 318.4822 L 426.2505 320.2696 L 422.6847 321.8221 L 417.8762 324.618 L 415.2211 325.8229 L 413.4853 326.7915 L 410.2945 329.3737 L 399.7656 339.6898 Z" fill="#000000" fill-opacity="1" stroke="#000000" stroke-width="0" paint-order="fill" stroke-opacity="1" stroke-dasharray="" stroke-linecap="butt" stroke-linejoin="miter" stroke-miterlimit="10" transform="matrix(1.100000023841858,0,0,1.100000023841858,-42.49998474121094,-28.349939346313477)" clip-path="none" style="filter: url(#f1)"/>
<path data-code="206" d="M 474.6625 444.2453 L 470.5264 443.3851 L 467.2646 442.9848 L 461.6976 442.7854 L 456.1936 442.9863 L 454.0561 443.2782 L 452.0067 443.8209 L 447.8626 445.7935 L 446.0733 446.4216 L 444.1297 446.8019 L 438.1402 447.4728 L 436.1881 447.9129 L 435.2432 448.2561 L 433.4315 449.2603 L 427.7369 453.8564 L 426.0309 455.0001 L 422.5165 456.7064 L 417.7063 459.5322 L 414.1278 461.0833 L 410.0584 463.2781 L 408.2628 463.9632 L 402.4127 465.1268 L 396.6214 466.8588 L 393.5866 468.1933 L 389.8115 469.4196 L 388.0511 470.183 L 383.9988 472.4548 L 380.4315 474.0357 L 375.6186 476.8501 L 372.0497 478.4197 L 368.805 480.1801 L 367.106 480.945 L 364.1919 481.6129 L 358.1667 482.1869 L 356.1974 482.5487 L 354.3681 483.1797 L 350.2677 485.3161 L 346.7149 486.9697 L 344.1842 488.8426 L 341.9335 491.1215 L 340.5945 492.7694 L 339.4403 494.4899 L 337.8503 497.9296 L 336.9508 499.4479 L 335.7955 500.6557 L 334.3941 501.4661 L 333.6078 501.6555 L 332.8184 501.6569 L 331.3443 501.2695 L 328.1685 500.0874 L 326.118 499.6957 L 322.8317 499.3895 L 316.0165 499.2214 L 294.3969 499.2114 L 291.0758 499.455 L 288.9335 499.8481 L 287.0417 500.5161 L 282.928 502.5471 L 279.1449 503.5726 L 279.1716 487.4767 L 284.8801 485.8573 L 286.4221 484.9501 L 287.0427 484.3049 L 289.7677 479.703 L 290.9545 477.1606 L 291.4635 475.2122 L 292.1723 471.2242 L 292.755 469.2658 L 293.201 468.3044 L 294.3317 466.5013 L 295.6605 464.8078 L 300.8943 459.2174 L 304.8237 455.4118 L 307.2956 453.3707 L 309.048 452.2584 L 312.6073 450.6774 L 314.2106 449.7858 L 319.5117 446.5228 L 320.7326 445.2666 L 324.3923 438.9883 L 325.9621 435.3962 L 326.8957 433.5788 L 328.0921 431.8441 L 332.0616 426.8434 L 333.1822 425.0702 L 334.8101 421.4297 L 336.5764 418.1196 L 337.3477 416.3649 L 337.8759 414.2684 L 338.2263 410.9825 L 338.4292 399.678 L 338.3507 396.3309 L 338.152 394.1531 L 337.7007 392.0537 L 337.3188 391.0539 L 336.3232 389.4302 L 335.717 388.7166 L 334.3487 387.4889 L 332.7805 386.5289 L 330.3103 385.2813 L 328.1968 383.5935 L 326.5026 381.4314 L 324.7742 377.9861 L 323.1329 375.6944 L 321.0921 373.6876 L 317.3165 370.7649 L 318.4712 368.3835 L 320.1425 366.0918 L 322.7815 363.2418 L 326.0144 360.2423 L 335.6535 360.2337 L 339.0023 359.9645 L 341.1585 359.5358 L 343.2186 358.7411 L 349.1381 355.4424 L 351.7745 353.5396 L 352.8064 353.3929 L 353.7165 353.5025 L 358.9651 350.9018 L 363.8047 347.925 L 367.3736 346.3327 L 371.4483 344.1578 L 373.3492 343.4784 L 375.491 343.0654 L 380.9565 342.4572 L 383.0849 342.0442 L 384.957 341.3861 L 389.1011 339.4505 L 391.0282 338.9862 L 393.0241 338.7954 L 395.0404 338.8139 L 397.0401 339.0289 L 399.7656 339.6898 L 402.4447 343.504 L 407.7596 350.2196 L 408.8289 351.9843 L 410.4991 355.5136 L 412.1751 357.7555 L 414.3131 359.5458 L 420.9323 363.0453 L 422.6415 363.8272 L 424.7186 364.3727 L 427.9644 364.7174 L 431.2775 364.7914 L 435.7239 364.6704 L 439.0397 364.3471 L 441.0602 363.9525 L 444.7023 362.89 L 445.6199 365.7642 L 448.3209 373.021 L 450.9946 378.0259 L 452.9163 382.5694 L 455.206 386.707 L 456.7117 390.4044 L 459.4356 395.3823 L 460.9295 399.0798 L 462.6793 402.4126 L 463.4548 404.1459 L 463.9937 406.1115 L 465.0988 412.1747 L 467.0611 418.6694 L 467.9264 421.5636 L 469.1382 428.3517 L 469.8796 430.5038 L 471.7682 434.6229 L 473.4191 440.5166 L 474.6625 444.2453 Z" fill="#000000" fill-opacity="1" stroke="#000000" stroke-width="0" paint-order="fill" stroke-opacity="1" stroke-dasharray="" stroke-linecap="butt" stroke-linejoin="miter" stroke-miterlimit="10" transform="matrix(1.100000023841858,0,0,1.100000023841858,-42.49998474121094,-28.349939346313477)" clip-path="none" style="filter: url(#f1)"/>
<path data-code="207" d="M 326.0144 360.2423 L 320.3908 354.7616 L 318.7094 353.4498 L 316.862 352.4172 L 314.8174 351.8076 L 312.7002 351.5242 L 300.7319 351.3433 L 298.6051 351.1026 L 296.5504 350.5913 L 294.8354 349.8336 L 291.5997 348.0831 L 288.9468 346.891 L 287.1816 345.8883 L 284.7242 343.9028 L 281.8202 340.7794 L 280.0598 338.1416 L 278.473 334.484 L 276.7798 331.1412 L 276.0412 329.3723 L 275.5359 327.2743 L 275.2128 323.9984 L 275.1316 319.5233 L 275.2875 305.9328 L 275.546 299.2429 L 311.0637 299.2201 L 316.8059 299.4266 L 319.0374 299.72 L 321.1792 300.2783 L 326.1688 302.617 L 332.7885 304.4045 L 338.7006 307.0651 L 340.8706 307.622 L 343.1342 307.9054 L 346.6198 308.045 L 361.6672 307.7687 L 363.7369 308.0193 L 365.6415 308.7258 L 366.4838 309.3852 L 367.1204 310.2298 L 367.8265 312.154 L 368.0621 315.3117 L 367.8842 317.5079 L 367.4446 319.7042 L 366.6397 321.8392 L 364.4836 325.8229 L 362.8535 329.4805 L 360.0836 334.4399 L 358.5154 338.1074 L 356.0062 343.2064 L 355.4245 345.1804 L 353.7165 353.5025 L 352.8064 353.3929 L 351.7745 353.5396 L 349.1381 355.4424 L 343.2186 358.7411 L 341.1585 359.5358 L 339.0023 359.9645 L 335.6535 360.2337 L 326.0144 360.2423 Z" fill="#000000" fill-opacity="1" stroke="#000000" stroke-width="0" paint-order="fill" stroke-opacity="1" stroke-dasharray="" stroke-linecap="butt" stroke-linejoin="miter" stroke-miterlimit="10" transform="matrix(1.100000023841858,0,0,1.100000023841858,-42.49998474121094,-28.349939346313477)" clip-path="none" style="filter: url(#f1)"/>
<path data-code="208" d="M 467.5407 254.318 L 469.9266 253.4649 L 471.5156 252.6359 L 473.0308 251.5264 L 474.3821 250.2317 L 475.5208 248.7619 L 476.3348 247.0741 L 476.5688 246.0799 L 476.5949 244.0774 L 476.1105 242.2258 L 474.5114 238.9855 L 473.8357 237.2137 L 472.7616 232.2544 L 472.1869 230.2988 L 469.6173 225.234 L 468.1144 221.5337 L 465.3445 216.5815 L 463.8025 212.9054 L 462.0047 209.6068 L 461.2099 207.862 L 460.6855 205.8538 L 460.3682 202.7146 L 460.4221 199.5399 L 460.6737 197.4547 L 461.1907 195.4408 L 461.5577 194.5449 L 463.7758 190.3945 L 464.9578 187.6585 L 465.9299 185.861 L 467.8334 183.3657 L 474.3132 176.3212 L 476.1062 173.9113 L 477.0292 172.1565 L 478.2053 169.3991 L 480.9693 164.4454 L 482.3606 160.7978 L 483.4032 158.4236 L 483.8823 156.8369 L 483.948 156.0179 L 483.8545 155.2104 L 483.6371 154.437 L 482.351 151.3306 L 482.0882 150.4034 L 481.7298 147.4181 L 481.8447 145.3671 L 482.0353 144.3487 L 482.7372 142.4658 L 484.3678 140.0958 L 486.3905 138.0007 L 488.5958 136.1847 L 492.3046 133.6937 L 498.0404 135.2604 L 502.1728 137.3142 L 503.9493 137.9993 L 508.7477 139.1245 L 510.6208 139.697 L 515.6291 142.0186 L 517.7218 142.5684 L 524.2592 143.3859 L 526.3861 143.8132 L 528.2602 144.4841 L 532.4081 146.4752 L 535.5337 147.2073 L 537.7049 147.4224 L 541.0057 147.5021 L 545.3725 147.2044 L 548.4917 146.4667 L 552.638 144.4841 L 554.4369 143.846 L 557.4017 143.3347 L 561.4887 143.0726 L 567.185 143.027 L 571.6191 142.5983 L 573.7155 142.0428 L 577.8506 140.0688 L 579.6468 139.4164 L 582.5993 138.8724 L 585.6624 138.663 L 589.8311 138.7114 L 593.9064 139.227 L 601.3177 141.7751 L 600.0507 145.4953 L 598.974 149.0888 L 598.2204 150.6356 L 596.0989 152.9543 L 593.7098 156.7315 L 589.7329 161.4459 L 588.5167 163.1038 L 588.0114 164.0011 L 587.6189 164.9696 L 587.3855 165.968 L 587.3048 166.9835 L 587.3716 168.0019 L 587.5916 169.0046 L 587.9366 169.9033 L 588.3821 170.738 L 589.4695 172.2805 L 591.3656 174.414 L 601.6381 184.7558 L 604.3797 187.3864 L 605.7961 188.5928 L 607.2681 189.6539 L 608.7268 190.4373 L 610.8189 191.3474 L 612.159 192.1308 L 613.9343 193.7231 L 615.3252 195.6715 L 616.5451 198.54 L 617.3185 200.0825 L 618.3904 201.6664 L 619.6124 203.1889 L 622.9634 206.8579 L 637.0516 221.3885 L 636.8924 257.9699 L 637.0906 261.3326 L 637.4565 263.5047 L 637.7625 264.5501 L 638.9797 267.1053 L 641.2267 270.995 L 642.28 272.4122 L 642.9343 272.9904 L 646.7681 275.6068 L 650.7734 279.2131 L 660.9706 289.6161 L 663.1727 292.0944 L 665.1051 294.7122 L 669.6824 304.3917 L 670.225 306.3444 L 671.2308 311.318 L 671.8728 313.1582 L 673.858 317.441 L 675.8973 324.9912 L 674.5027 332.1382 L 673.9328 334.1151 L 673.1285 335.8414 L 670.4018 340.57 L 669.3544 341.99 L 668.6996 342.5669 L 665.6889 344.5651 L 662.6263 347.2941 L 659.8767 350.3962 L 657.7996 353.4541 L 656.6614 354.7403 L 655.9227 355.2174 L 654.2445 355.817 L 647.5719 356.663 L 645.662 357.1473 L 643.964 357.8993 L 640.6996 359.6426 L 637.0933 361.1595 L 633.0741 363.5082 L 629.6158 365.1518 L 627.8601 366.163 L 626.2039 367.4762 L 624.6635 368.9689 L 621.9818 372.2049 L 618.0411 370.9116 L 611.8492 368.4547 L 609.4655 366.8382 L 607.3237 364.837 L 605.4052 362.6109 L 603.8541 360.1582 L 602.3864 356.4465 L 600.1704 352.2834 L 598.2818 347.7285 L 597.3028 346.0649 L 595.5012 343.7362 L 592.1246 340.0729 L 589.2612 337.3141 L 586.9389 335.4924 L 585.4851 334.6592 L 582.5422 333.3517 L 578.7089 331.3307 L 577.6722 330.9005 L 575.4668 330.3408 L 572.008 329.9961 L 561.4476 329.7483 L 559.2257 329.5546 L 554.9977 328.9507 L 553.6368 327.5335 L 552.2924 326.5194 L 548.8613 324.8829 L 544.0789 322.0685 L 540.5057 320.4947 L 538.9125 319.4578 L 536.6895 317.5549 L 531.0317 311.9646 L 528.8114 310.0732 L 527.2332 309.0391 L 523.708 307.3884 L 522.1292 306.3529 L 519.9079 304.4643 L 514.234 298.9053 L 512.0105 297.0196 L 510.4296 295.9912 L 507.5929 294.7136 L 506.0782 293.8918 L 503.7783 292.14 L 501.6045 290.1203 L 499.5108 287.9768 L 497.5175 285.7492 L 496.2907 284.2053 L 494.7631 281.7484 L 493.5694 278.7972 L 492.7805 277.2291 L 491.6872 275.6367 L 489.7671 273.422 L 487.6301 271.4308 L 486.094 270.2957 L 484.5814 269.4738 L 481.7389 268.2247 L 480.1644 267.2306 L 478.6705 266.037 L 476.525 264.0459 L 473.7529 261.2172 L 467.5407 254.318 Z" fill="#000000" fill-opacity="1" stroke="#000000" stroke-width="0" paint-order="fill" stroke-opacity="1" stroke-dasharray="" stroke-linecap="butt" stroke-linejoin="miter" stroke-miterlimit="10" transform="matrix(1.100000023841858,0,0,1.100000023841858,-42.49998474121094,-28.349939346313477)" clip-path="none" style="filter: url(#f1)"/>
<path data-code="209" d="M 310.0585 388.5357 L 308.7975 392.5978 L 307.9808 394.522 L 306.9692 396.197 L 304.5486 399.2763 L 302.2221 402.3129 L 301.3109 404.0106 L 300.6924 406.0645 L 300.2881 409.3061 L 300.1663 416.0145 L 300.3853 427.2992 L 300.6651 430.5565 L 301.0267 432.5989 L 302.4389 436.6767 L 302.6093 437.4728 L 302.6483 438.3118 L 302.4971 439.2347 L 302.1793 440.1178 L 301.7382 440.9638 L 300.6037 442.5818 L 297.8023 445.7052 L 292.3838 451.0919 L 289.0819 453.8365 L 287.2628 454.889 L 286.3211 455.2636 L 278.1247 457.4129 L 276.7814 453.7695 L 274.9794 450.1633 L 274.5393 449.6049 L 274.0009 449.1962 L 273.3973 448.9982 L 272.8622 448.9896 L 271.9168 449.2261 L 271.1065 442.4693 L 270.9938 436.4559 L 273.5063 431.0223 L 274.1777 429.3359 L 274.6285 427.5769 L 275.2427 423.9991 L 275.67 422.2372 L 276.3985 420.5067 L 277.4464 418.8731 L 279.3217 416.6013 L 283.3825 412.2345 L 285.2866 409.9756 L 286.852 407.5557 L 288.0965 404.6274 L 288.8998 403.0621 L 289.9958 401.4683 L 291.9181 399.2592 L 294.0844 397.3108 L 295.6766 396.2497 L 297.2773 395.5618 L 300.3506 394.9251 L 303.3186 392.3514 L 304.9044 391.2234 L 310.0585 388.5357 Z" fill="#000000" fill-opacity="1" stroke="#000000" stroke-width="0" paint-order="fill" stroke-opacity="1" stroke-dasharray="" stroke-linecap="butt" stroke-linejoin="miter" stroke-miterlimit="10" transform="matrix(1.100000023841858,0,0,1.100000023841858,-42.49998474121094,-28.349939346313477)" clip-path="none" style="filter: url(#f1)"/>
<path data-code="210" d="M 279.1716 487.4767 L 279.1369 465.3376 L 278.7325 460.4309 L 278.1247 457.4129 L 286.3211 455.2636 L 287.2628 454.889 L 289.0819 453.8365 L 292.3838 451.0919 L 297.8023 445.7052 L 300.6037 442.5818 L 301.7382 440.9638 L 302.1793 440.1178 L 302.4971 439.2347 L 302.6483 438.3118 L 302.6093 437.4728 L 302.4389 436.6767 L 301.0267 432.5989 L 300.6651 430.5565 L 300.3853 427.2992 L 300.1663 416.0145 L 300.2881 409.3061 L 300.6924 406.0645 L 301.3109 404.0106 L 302.2221 402.3129 L 304.5486 399.2763 L 306.9692 396.197 L 307.9808 394.522 L 308.7975 392.5978 L 310.0585 388.5357 L 310.043 387.2012 L 310.1568 386.3594 L 310.685 384.7728 L 312.2168 381.5582 L 314.0136 377.0061 L 317.3165 370.7649 L 321.0921 373.6876 L 323.1329 375.6944 L 324.7742 377.9861 L 326.5026 381.4314 L 328.1968 383.5935 L 330.3103 385.2813 L 332.7805 386.5289 L 334.3487 387.4889 L 335.717 388.7166 L 336.3232 389.4302 L 337.3188 391.0539 L 337.7007 392.0537 L 338.152 394.1531 L 338.3507 396.3309 L 338.4292 399.678 L 338.2263 410.9825 L 337.8759 414.2684 L 337.3477 416.3649 L 336.5764 418.1196 L 334.8101 421.4297 L 333.1822 425.0702 L 332.0616 426.8434 L 328.0921 431.8441 L 326.8957 433.5788 L 325.9621 435.3962 L 324.3923 438.9883 L 320.7326 445.2666 L 319.5117 446.5228 L 314.2106 449.7858 L 312.6073 450.6774 L 309.048 452.2584 L 307.2956 453.3707 L 304.8237 455.4118 L 300.8943 459.2174 L 295.6605 464.8078 L 294.3317 466.5013 L 293.201 468.3044 L 292.755 469.2658 L 292.1723 471.2242 L 291.4635 475.2122 L 290.9545 477.1606 L 289.7677 479.703 L 287.0427 484.3049 L 286.4221 484.9501 L 284.8801 485.8573 L 279.1716 487.4767 Z" fill="#000000" fill-opacity="1" stroke="#000000" stroke-width="0" paint-order="fill" stroke-opacity="1" stroke-dasharray="" stroke-linecap="butt" stroke-linejoin="miter" stroke-miterlimit="10" transform="matrix(1.100000023841858,0,0,1.100000023841858,-42.49998474121094,-28.349939346313477)" clip-path="none" style="filter: url(#f1)"/>
<path data-code="211" d="M 310.0585 388.5357 L 304.9044 391.2234 L 303.3186 392.3514 L 300.3506 394.9251 L 297.2773 395.5618 L 295.6766 396.2497 L 294.0844 397.3108 L 291.9181 399.2592 L 289.9958 401.4683 L 288.8998 403.0621 L 288.0965 404.6274 L 286.852 407.5557 L 285.2866 409.9756 L 283.3825 412.2345 L 279.3217 416.6013 L 277.4464 418.8731 L 276.3985 420.5067 L 275.67 422.2372 L 275.2427 423.9991 L 274.6285 427.5769 L 274.1777 429.3359 L 273.5063 431.0223 L 270.9938 436.4559 L 268.6181 431.8469 L 267.5339 429.3245 L 266.9101 426.2708 L 266.3925 420.0139 L 266.0384 417.9815 L 265.4119 416.1071 L 263.299 411.9069 L 261.8152 408.208 L 259.0854 403.2387 L 257.9205 400.4884 L 256.9762 398.6724 L 251.2986 391.0468 L 250.3597 389.2465 L 249.1504 386.5061 L 248.0897 384.7628 L 245.4784 381.5083 L 241.8406 377.6827 L 239.529 375.5747 L 237.0379 373.8186 L 233.4931 372.1864 L 230.282 370.3946 L 228.5803 369.6141 L 226.6351 369.1113 L 224.6167 368.8663 L 213.1948 368.6698 L 211.1561 368.496 L 209.1757 368.1314 L 207.3613 367.4862 L 203.2546 365.4423 L 201.3846 364.8826 L 197.5177 364.0921 L 195.6243 363.5281 L 190.7036 360.9558 L 187.14 359.3578 L 185.4025 358.2084 L 183.7901 356.834 L 181.5746 354.5166 L 180.2633 352.8374 L 179.1674 351.0371 L 177.6291 347.3525 L 175.3982 343.1978 L 174.3305 340.7367 L 174.2931 321.9959 L 174.1029 314.6451 L 180.6655 310.19 L 182.2887 309.2243 L 184.0769 308.4951 L 188.8977 307.4624 L 190.7821 306.9098 L 195.7012 304.3532 L 199.2947 302.8421 L 204.1209 300.069 L 206.7855 298.8825 L 208.5556 297.9069 L 211.0563 295.9599 L 214.975 292.187 L 220.2456 286.608 L 222.9455 283.2624 L 224.0426 281.4806 L 225.7004 277.8586 L 226.7724 276.1395 L 228.7112 273.7111 L 234.3834 267.4984 L 236.248 265.0244 L 237.2057 263.234 L 238.3652 260.4866 L 240.4974 256.2921 L 240.8451 255.3976 L 241.338 253.4036 L 242.0762 246.1483 L 242.4479 244.1315 L 243.0734 242.2813 L 245.025 238.017 L 245.5158 236.0259 L 245.8881 231.8256 L 245.9917 222.1604 L 246.1626 220.0553 L 246.5381 218.0015 L 246.8463 217.0102 L 247.6715 215.2612 L 252.2878 207.8207 L 254.0637 208.755 L 255.7841 209.9244 L 260.6642 213.9921 L 262.3295 215.2199 L 266.5885 217.5144 L 268.0445 218.6367 L 269.8653 220.7233 L 270.7839 222.3541 L 271.9905 224.9478 L 273.0229 226.476 L 274.2904 227.8391 L 275.7565 228.9771 L 279.1929 230.6805 L 282.3997 232.468 L 284.1121 233.2371 L 285.0767 233.5234 L 287.07 233.8652 L 292.2065 234.0874 L 291.91 239.3673 L 291.2643 242.3996 L 290.5224 244.16 L 288.8085 247.5028 L 287.2569 251.1746 L 284.5127 256.1354 L 282.9717 259.8186 L 280.8188 264.0131 L 280.1356 265.8533 L 279.0412 270.8098 L 278.4858 272.7369 L 276.5475 276.9998 L 275.9071 278.9382 L 275.4066 282.2269 L 275.2384 285.6238 L 275.2539 292.5302 L 275.546 299.2429 L 275.2875 305.9328 L 275.1316 319.5233 L 275.2128 323.9984 L 275.5359 327.2743 L 276.0412 329.3723 L 276.7798 331.1412 L 278.473 334.484 L 280.0598 338.1416 L 281.8202 340.7794 L 284.7242 343.9028 L 287.1816 345.8883 L 288.9468 346.891 L 291.5997 348.0831 L 294.8354 349.8336 L 296.5504 350.5913 L 298.6051 351.1026 L 300.7319 351.3433 L 312.7002 351.5242 L 314.8174 351.8076 L 316.862 352.4172 L 318.7094 353.4498 L 320.3908 354.7616 L 326.0144 360.2423 L 322.7815 363.2418 L 320.1425 366.0918 L 318.4712 368.3835 L 317.3165 370.7649 L 314.0136 377.0061 L 312.2168 381.5582 L 310.685 384.7728 L 310.1568 386.3594 L 310.043 387.2012 L 310.0585 388.5357 Z" fill="#000000" fill-opacity="1" stroke="#000000" stroke-width="0" paint-order="fill" stroke-opacity="1" stroke-dasharray="" stroke-linecap="butt" stroke-linejoin="miter" stroke-miterlimit="10" transform="matrix(1.100000023841858,0,0,1.100000023841858,-42.49998474121094,-28.349939346313477)" clip-path="none" style="filter: url(#f1)"/>
<path data-code="212" d="M 467.5407 254.318 L 464.0263 257.0327 L 457.4034 262.8623 L 455.8406 263.959 L 454.313 264.825 L 449.9488 262.2228 L 447.5352 261.0592 L 445.5718 260.5863 L 442.5669 260.5193 L 440.6003 260.8939 L 438.7331 261.7115 L 437.0533 262.8979 L 432.3238 266.9286 L 430.5431 267.9855 L 429.5496 268.3686 L 427.4725 268.8514 L 425.3291 269.0879 L 419.854 269.199 L 415.4754 269.0181 L 412.2766 268.6122 L 410.248 268.0553 L 406.1221 266.0328 L 404.3344 265.389 L 401.3893 264.8762 L 396.3655 264.3834 L 393.4466 263.714 L 391.7455 262.9463 L 388.5115 261.1845 L 385.8431 260.0066 L 384.0944 259.0352 L 382.4573 257.8104 L 380.8978 256.4345 L 377.1932 252.6786 L 375.1267 250.2915 L 373.3332 247.7563 L 372.4327 245.9346 L 371.341 243.1445 L 369.1842 238.9628 L 367.2481 234.5546 L 366.7466 233.7627 L 365.5299 232.3384 L 364.0632 231.1705 L 363.238 230.7133 L 361.3563 230.0937 L 359.3994 229.7875 L 354.414 229.3531 L 352.4597 229.0084 L 350.6544 228.4045 L 347.343 226.8207 L 345.5393 226.204 L 343.585 225.8365 L 337.5875 225.1657 L 335.6428 224.7128 L 334.7065 224.361 L 332.9226 223.3383 L 328.1247 219.366 L 326.43 218.1696 L 324.5643 217.3107 L 322.5945 216.8279 L 318.507 216.4562 L 314.3778 216.5245 L 311.3371 216.9404 L 309.3898 217.57 L 308.4743 218.04 L 306.7839 219.2079 L 305.2088 220.561 L 297.7227 227.7579 L 294.1399 230.4384 L 293.1091 231.7445 L 292.2065 234.0874 L 287.07 233.8652 L 285.0767 233.5234 L 284.1121 233.2371 L 282.3997 232.468 L 279.1929 230.6805 L 275.7565 228.9771 L 274.2904 227.8391 L 273.0229 226.476 L 271.9905 224.9478 L 270.7839 222.3541 L 269.8653 220.7233 L 268.0445 218.6367 L 266.5885 217.5144 L 262.3295 215.2199 L 260.6642 213.9921 L 255.7841 209.9244 L 254.0637 208.755 L 252.2878 207.8207 L 250.9541 204.4993 L 250.5194 202.4568 L 250.3399 199.322 L 250.7079 196.2256 L 251.3392 194.3327 L 253.52 190.1781 L 255.1907 186.5532 L 256.2226 184.931 L 258.6517 181.8944 L 260.1632 182.5268 L 261.5311 183.3956 L 264.6588 187.3993 L 266.6606 189.2323 L 268.2576 190.2308 L 274.9292 193.659 L 277.9116 194.5748 L 284.4667 195.3468 L 286.5951 195.7556 L 288.4731 196.4093 L 292.6306 198.3663 L 294.7777 198.9374 L 298.1575 199.3433 L 301.6175 199.4758 L 306.2487 199.4117 L 309.6654 199.1197 L 312.9267 198.3677 L 317.105 196.4307 L 318.9754 195.8083 L 322.1405 195.3468 L 329.523 194.9722 L 331.4527 194.5677 L 332.3506 194.2088 L 333.1779 193.6946 L 333.8375 193.0736 L 334.8582 191.6394 L 337.0865 187.781 L 337.8332 186.0263 L 338.1397 184.9182 L 338.4885 182.6236 L 338.6237 180.2693 L 338.5836 168.4505 L 338.8421 163.8715 L 339.522 160.6127 L 341.4218 156.327 L 342.0574 154.3871 L 342.4521 152.188 L 343.1833 145.4241 L 343.7158 143.2492 L 348.2515 133.6908 L 349.9126 131.3649 L 352.5927 128.1988 L 353.7357 126.6249 L 354.6485 125.1109 L 355.9277 122.2082 L 356.7561 120.6657 L 357.867 119.0933 L 361.5764 114.5626 L 362.6622 112.9617 L 363.1168 112.1128 L 363.7144 110.6074 L 365.0043 106.6564 L 365.7659 103.4831 L 371.7613 107.0182 L 376.1672 108.9751 L 379.4204 110.7156 L 381.1173 111.4662 L 384.0201 112.1114 L 391.0025 112.8563 L 392.9349 113.4317 L 394.8284 114.4715 L 396.5583 115.8074 L 398.1858 117.3115 L 400.4984 119.747 L 402.6482 122.315 L 404.5016 125.0055 L 406.6076 129.4607 L 407.6678 130.9832 L 408.9902 132.2964 L 409.7449 132.8533 L 410.5648 133.3219 L 412.5912 134.0041 L 414.7191 134.3132 L 418.0108 134.4414 L 431.5472 134.2805 L 447.3541 134.3673 L 452.8816 134.0982 L 455.01 133.7065 L 456.9018 133.0257 L 460.9637 130.8308 L 465.3504 128.844 L 471.3446 125.2405 L 475.1272 125.9626 L 477.0276 126.5338 L 481.9526 129.1174 L 485.6016 130.5916 L 492.3046 133.6937 L 488.5958 136.1847 L 486.3905 138.0007 L 484.3678 140.0958 L 482.7372 142.4658 L 482.0353 144.3487 L 481.8447 145.3671 L 481.7298 147.4181 L 482.0882 150.4034 L 482.351 151.3306 L 483.6371 154.437 L 483.8545 155.2104 L 483.948 156.0179 L 483.8823 156.8369 L 483.4032 158.4236 L 482.3606 160.7978 L 480.9693 164.4454 L 478.2053 169.3991 L 477.0292 172.1565 L 476.1062 173.9113 L 474.3132 176.3212 L 467.8334 183.3657 L 465.9299 185.861 L 464.9578 187.6585 L 463.7758 190.3945 L 461.5577 194.5449 L 461.1907 195.4408 L 460.6737 197.4547 L 460.4221 199.5399 L 460.3682 202.7146 L 460.6855 205.8538 L 461.2099 207.862 L 462.0047 209.6068 L 463.8025 212.9054 L 465.3445 216.5815 L 468.1144 221.5337 L 469.6173 225.234 L 472.1869 230.2988 L 472.7616 232.2544 L 473.8357 237.2137 L 474.5114 238.9855 L 476.1105 242.2258 L 476.5949 244.0774 L 476.5688 246.0799 L 476.3348 247.0741 L 475.5208 248.7619 L 474.3821 250.2317 L 473.0308 251.5264 L 471.5156 252.6359 L 469.9266 253.4649 L 467.5407 254.318 Z" fill="#000000" fill-opacity="1" stroke="#000000" stroke-width="0" paint-order="fill" stroke-opacity="1" stroke-dasharray="" stroke-linecap="butt" stroke-linejoin="miter" stroke-miterlimit="10" transform="matrix(1.100000023841858,0,0,1.100000023841858,-42.49998474121094,-28.349939346313477)" clip-path="none" style="filter: url(#f1)"/>













</svg>