<?xml version="1.0" standalone="no"?>
<!-- Generator: Paintmaps.com , Online SVG vector map maker -->
<svg xmlns="http://www.w3.org/2000/svg" version="1.1" baseProfile="full"   style="background-color:#e0f2f1" width="800" height="500" viewBox="0 0 800 533">

<path data-code="200" d="M 501.2054 321.5137 L 496.3309 316.0337 L 494.6351 313.6858 L 493.2778 311.1534 L 492.3544 308.2672 L 490.8366 300.9013 L 489.8735 298.1676 L 486.7362 291.9078 L 484.5095 286.4045 L 480.4313 279.0216 L 478.1491 273.5586 L 475.5553 268.6169 L 474.4221 266.0104 L 473.6497 262.8953 L 473.1745 258.0108 L 473.157 237.8815 L 472.5944 231.3505 L 471.8395 228.2587 L 468.966 221.9035 L 468.041 219.1508 L 467.4784 216.1523 L 466.5598 206.8919 L 466.0242 203.8743 L 465.1262 201.0877 L 462.302 194.7177 L 461.5296 191.8463 L 460.3582 185.9404 L 459.438 183.0457 L 458.7339 181.5941 L 456.9761 178.8817 L 453.8372 175.1033 L 429.5381 150.062 L 429.5906 118.8837 L 429.6955 118.8837 L 429.6955 118.7291 L 430.0419 118.7291 L 430.0419 118.5744 L 430.1579 118.5744 L 430.1579 118.4197 L 430.506 118.4197 L 430.506 118.2671 L 430.8525 118.265 L 430.8525 118.1124 L 430.9685 118.1124 L 430.9685 117.9577 L 431.0845 117.9577 L 431.0845 117.803 L 431.1989 117.803 L 431.1989 117.6483 L 431.547 117.6483 L 431.547 117.4936 L 431.663 117.4936 L 431.663 117.341 L 432.0095 117.341 L 432.0095 117.2436 L 432.0095 117.1864 L 432.1255 117.1864 L 432.1255 117.341 L 432.472 117.341 L 432.472 117.1864 L 432.9361 117.1864 L 432.9361 117.0317 L 433.2825 117.0317 L 433.2825 116.877 L 433.4033 116.877 L 433.6306 116.877 L 433.6306 116.8092 L 433.6306 116.7223 L 433.745 116.7223 L 433.745 116.5697 L 434.0931 116.5697 L 434.0931 116.415 L 434.4396 116.415 L 434.4396 116.2603 L 435.0181 116.2603 L 435.0181 116.1056 L 435.7126 116.095 L 435.7126 115.9509 L 435.986 115.9509 L 436.6392 115.9509 L 436.6392 115.7962 L 437.3337 115.7962 L 437.3337 115.6437 L 437.9122 115.6437 L 437.9122 115.489 L 438.0283 115.489 L 438.0283 115.6437 L 438.1443 115.6437 L 438.1443 115.489 L 438.6068 115.489 L 438.6068 115.1796 L 438.8372 115.1796 L 438.8372 115.0249 L 439.1853 115.0249 L 439.1853 114.8723 L 439.3013 114.8723 L 439.3013 114.7176 L 439.8798 114.7176 L 439.8798 114.5629 L 439.9958 114.5629 L 439.9958 114.4082 L 440.5744 114.4082 L 440.5744 114.2535 L 440.8763 114.2535 L 440.9208 114.2493 L 440.9208 114.0988 L 441.2689 114.0988 L 441.2689 113.9463 L 441.9634 113.9463 L 441.9634 113.7916 L 442.6564 113.7916 L 442.6564 113.6369 L 442.7724 113.6369 L 442.7724 113.7916 L 443.1204 113.7916 L 443.1204 113.6369 L 443.5829 113.6369 L 443.5829 113.4822 L 443.699 113.4822 L 443.699 113.3275 L 444.0454 113.3275 L 444.0454 113.1749 L 444.1615 113.1749 L 444.1615 113.0202 L 444.3935 113.0202 L 444.3935 112.8655 L 444.5095 112.8655 L 444.5095 112.7108 L 444.6239 112.7108 L 444.6239 112.5561 L 444.74 112.5561 L 444.74 112.7108 L 444.856 112.7108 L 444.856 112.8655 L 444.74 112.8655 L 444.74 113.1749 L 444.856 113.1749 L 444.856 113.6369 L 444.972 113.6369 L 444.972 113.9039 L 444.972 114.0988 L 445.088 114.0988 L 445.088 114.2535 L 445.6665 114.2535 L 445.6665 114.4082 L 446.4755 114.4082 L 446.4755 114.2535 L 446.5915 114.2535 L 446.5915 114.0988 L 446.8236 114.0988 L 446.8236 113.7471 L 446.8236 113.6369 L 448.1077 113.6369 L 448.2126 113.6369 L 448.2126 113.7916 L 448.4431 113.7916 L 448.4431 113.6369 L 448.7911 113.6369 L 448.7911 113.5775 L 448.7911 113.4822 L 449.2536 113.4822 L 449.2536 113.3275 L 449.6017 113.3275 L 449.6017 113.1749 L 449.9482 113.1749 L 449.9482 113.0202 L 450.1802 113.0202 L 450.2946 113.0202 L 450.2946 112.8655 L 450.4107 112.8655 L 450.4107 112.7108 L 450.5267 112.7108 L 450.5267 112.5561 L 450.7587 112.5561 L 450.7587 112.4014 L 450.9892 112.4014 L 450.9892 112.2489 L 451.2212 112.2489 L 451.2212 112.0942 L 451.5677 112.0942 L 451.5677 111.9395 L 451.7997 111.9395 L 451.7997 111.7848 L 452.0318 111.7848 L 452.0318 111.6301 L 452.4943 111.6301 L 452.4943 111.4775 L 452.6103 111.4775 L 452.6103 111.3228 L 453.3048 111.3228 L 453.3048 111.1681 L 453.4192 111.1681 L 453.4192 111.0134 L 453.8833 111.0134 L 453.8833 110.8587 L 454.3458 110.8587 L 454.3458 110.704 L 454.4618 110.704 L 454.4618 110.5515 L 454.8083 110.5515 L 454.8083 110.3968 L 454.9243 110.3968 L 454.9243 110.2421 L 455.0404 110.2421 L 455.0404 110.3968 L 455.1564 110.3968 L 455.1564 110.2421 L 455.5028 110.2421 L 455.5028 110.0874 L 455.7349 110.0874 L 455.7349 109.9327 L 456.1974 109.9327 L 456.1974 109.7801 L 456.3134 109.7801 L 456.3134 109.6254 L 456.4294 109.6254 L 456.4294 109.4707 L 456.8919 109.4707 L 456.8919 109.316 L 457.124 109.316 L 457.124 109.1613 L 457.3544 109.1613 L 457.3544 109.0066 L 457.5864 109.0066 L 457.5864 108.8541 L 458.165 108.8541 L 458.165 108.6994 L 458.397 108.6994 L 458.397 108.5447 L 458.5114 108.5447 L 458.5114 108.39 L 458.7435 108.39 L 458.7435 108.2353 L 458.9755 108.2353 L 458.9755 108.0827 L 459.0915 108.0827 L 459.0915 107.928 L 459.322 107.928 L 459.322 107.7733 L 459.7845 107.7733 L 459.7845 107.6186 L 459.9005 107.6186 L 459.9005 107.4639 L 460.0165 107.4639 L 460.0165 107.3093 L 460.3646 107.3093 L 460.3646 107.1567 L 460.595 107.1567 L 460.595 106.8473 L 460.9431 106.8473 L 460.9431 106.6926 L 461.0575 106.6926 L 461.0575 106.5379 L 461.1735 106.5379 L 461.1735 106.3853 L 461.5216 106.3853 L 461.5216 106.5379 L 461.6376 106.5379 L 461.6376 106.3853 L 461.9841 106.3853 L 461.9841 106.2306 L 462.1001 106.2306 L 462.1001 106.0759 L 462.2161 106.0759 L 462.2161 105.9212 L 462.5626 105.9212 L 462.5626 105.7666 L 462.9107 105.7666 L 462.9107 105.6119 L 463.3732 105.6119 L 463.3732 105.4593 L 463.6036 105.4593 L 463.6036 105.3046 L 464.0836 105.3046 L 464.2982 105.3046 L 464.2982 105.1499 L 464.6462 105.1499 L 464.6462 105.0884 L 464.6462 104.9952 L 464.8767 104.9952 L 464.8767 104.8405 L 464.9927 104.8405 L 464.9927 104.6879 L 465.3407 104.6879 L 465.3407 104.5332 L 466.1497 104.5332 L 466.1497 104.6879 L 466.6138 104.6879 L 466.6138 104.8405 L 466.8665 104.8405 L 466.9603 104.8299 L 466.9603 104.6879 L 467.3083 104.6879 L 467.3083 104.5332 L 467.6548 104.5332 L 467.6548 104.6879 L 467.8868 104.6879 L 467.8868 104.5332 L 468.5814 104.5332 L 468.5814 104.3785 L 468.9278 104.3785 L 468.9278 104.2239 L 469.1599 104.2239 L 469.1599 104.0692 L 469.3903 104.0692 L 469.3903 103.9145 L 469.7384 103.9145 L 469.7384 103.7619 L 469.8544 103.7619 L 469.8544 103.6072 L 469.9688 103.6072 L 469.9688 103.4525 L 470.0849 103.4525 L 470.0849 103.2978 L 470.3169 103.2978 L 470.3169 103.1431 L 470.4329 103.1431 L 470.4329 102.9905 L 470.7794 102.9905 L 470.7794 102.8358 L 471.1275 102.8358 L 471.1275 102.6812 L 471.4739 102.6812 L 471.4739 102.5265 L 472.4005 102.5265 L 472.4005 102.3718 L 472.863 102.3718 L 472.863 102.2171 L 473.2095 102.2171 L 473.2095 102.0645 L 473.3255 102.0645 L 473.3255 101.9098 L 473.6736 101.9098 L 473.6736 101.7551 L 474.02 101.7551 L 474.02 101.6004 L 474.136 101.6004 L 474.136 101.4457 L 474.4825 101.4457 L 474.4825 101.2931 L 474.5985 101.2931 L 474.5985 101.1385 L 474.9466 101.1385 L 474.9466 100.9838 L 475.2931 100.9838 L 475.2931 100.8291 L 475.4091 100.8291 L 475.4091 100.6744 L 475.9018 100.6744 L 475.9876 100.6744 L 475.9876 100.6172 L 475.9876 100.5197 L 476.1275 100.5197 L 476.2196 100.5197 L 476.2196 100.4582 L 476.2196 100.3671 L 476.3516 100.3671 L 476.5661 100.3671 L 476.5661 100.2124 L 476.9126 100.2124 L 476.9142 100.0577 L 477.0286 100.0577 L 477.0286 99.903 L 477.1446 99.903 L 477.1446 99.8225 L 477.1446 99.7483 L 477.2511 99.7483 L 477.4927 99.7483 L 477.4927 99.5957 L 477.7231 99.5957 L 477.7231 99.4411 L 477.9552 99.4411 L 477.9552 99.2864 L 478.3017 99.2864 L 478.3017 99.1317 L 478.4177 99.1317 L 478.4177 98.977 L 478.6497 98.977 L 478.6497 98.8223 L 478.7657 98.8223 L 478.7657 98.71 L 478.7657 98.6697 L 478.8261 98.6697 L 479.1122 98.6697 L 479.1122 98.515 L 479.2282 98.515 L 479.2282 98.3603 L 479.2743 98.3603 L 479.3443 98.3603 L 479.3443 98.2056 L 479.4587 98.2056 L 479.4587 98.0509 L 479.5747 98.0509 L 479.5747 97.8984 L 479.8067 97.8984 L 479.8067 97.7437 L 479.9228 97.7437 L 479.9228 97.589 L 480.0388 97.589 L 480.0388 97.4343 L 480.1532 97.4343 L 480.1532 97.2796 L 480.5013 97.2796 L 480.5013 97.1249 L 480.6173 97.1249 L 480.6173 96.9723 L 480.7317 96.9723 L 480.7317 96.8176 L 480.8478 96.8176 L 480.8478 96.6629 L 481.0798 96.6629 L 481.0798 96.5082 L 481.1958 96.5082 L 481.1958 96.3535 L 481.3118 96.3535 L 481.3118 95.8916 L 481.5423 95.8916 L 481.5423 95.7369 L 481.6583 95.7369 L 481.6583 95.5822 L 481.7743 95.5822 L 481.7743 95.4275 L 482.1208 95.4275 L 482.1208 94.9655 L 482.3528 94.9655 L 482.3528 94.8108 L 482.4689 94.8108 L 482.4689 94.6561 L 482.5849 94.6561 L 482.5849 94.5036 L 482.6993 94.5036 L 482.6993 94.3489 L 482.8153 94.3489 L 482.8153 94.1942 L 482.9314 94.1942 L 482.9314 94.0395 L 483.0474 94.0395 L 483.0474 93.7301 L 483.1634 93.7301 L 483.1634 93.5775 L 483.2778 93.5775 L 483.2778 93.4228 L 483.5099 93.4228 L 483.5099 93.2681 L 483.6259 93.2681 L 483.6259 93.1134 L 483.9724 93.1134 L 483.9724 92.9587 L 484.2044 92.9587 L 484.2044 92.8062 L 484.5509 92.8062 L 484.5509 92.6515 L 484.7829 92.6515 L 484.7829 92.4968 L 484.8989 92.4968 L 484.8989 92.3421 L 485.015 92.3421 L 485.015 92.1874 L 485.131 92.1874 L 485.131 92.0327 L 485.2454 92.0327 L 485.2454 91.8801 L 485.3614 91.8801 L 485.3614 91.7254 L 485.5935 91.7254 L 485.5935 91.5707 L 485.7095 91.5707 L 485.7095 91.416 L 485.8239 91.416 L 485.8239 91.2614 L 485.9399 91.2614 L 485.9399 91.1088 L 486.288 91.1088 L 486.288 90.9541 L 486.404 90.9541 L 486.404 90.7994 L 486.7505 90.7994 L 486.7505 90.6447 L 486.8713 90.6447 L 485.9749 98.2904 L 485.7127 104.2705 L 485.719 108.7163 L 485.8811 111.6407 L 486.2769 114.5099 L 487.0763 117.2817 L 487.72 118.6506 L 489.349 121.1724 L 492.2718 124.6434 L 507.4832 140.0683 L 512.6119 145.7581 L 514.4253 148.1506 L 515.9463 150.6723 L 517.7963 155.0207 L 519.0185 157.3919 L 520.7159 159.8692 L 522.6358 162.2489 L 527.8662 167.9959 L 534.4063 174.7071 L 537.7725 177.873 L 541.3278 180.6299 L 543.6434 181.9014 L 547.8948 183.7196 L 555.0563 187.8582 L 559.2982 189.7124 L 561.5392 190.9648 L 563.8167 192.6516 L 570.3377 198.3286 L 573.8437 200.7232 L 584.0614 204.9995 L 588.9359 206.6566 L 585.4267 213.7556 L 583.3764 216.8558 L 580.522 220.257 L 572.4324 228.9538 L 569.7178 232.3697 L 568.235 234.7982 L 565.8732 240.2231 L 563.5481 243.8277 L 558.7118 249.3882 L 545.0484 263.3128 L 540.0865 268.8118 L 537.5531 272.3232 L 536.3596 274.6393 L 534.5159 278.9919 L 532.1876 282.5944 L 528.3462 287.0551 L 518.9772 296.7266 L 515.0213 301.128 L 512.4737 304.6351 L 511.2721 306.9492 L 509.4079 311.2954 L 507.9202 313.7239 L 505.2041 317.1462 L 501.2054 321.5137 Z" fill="#000000" fill-opacity="1" stroke="#000000" stroke-width="0" paint-order="fill" stroke-opacity="1" stroke-dasharray="" stroke-linecap="butt" stroke-linejoin="miter" stroke-miterlimit="10" transform="matrix(1.100000023841858,0,0,1.100000023841858,-40.000064849853516,-26.65019416809082)" clip-path="none" style="filter: url(#f1)"/>
<path data-code="201" d="M 375.7316 349.651 L 381.717 341.9206 L 393.4828 329.3289 L 396.1497 325.5484 L 397.3544 322.6707 L 397.9885 319.6171 L 398.2809 314.9275 L 397.9821 310.2359 L 397.3639 307.1823 L 396.868 305.7095 L 395.568 303.1284 L 389.7367 294.5164 L 398.4558 285.3577 L 400.4694 282.8423 L 402.2018 280.1638 L 402.9043 278.7377 L 403.8722 275.8578 L 405.9605 267.1356 L 408.7228 260.7444 L 409.6239 257.8391 L 410.3248 252.9356 L 410.8445 242.855 L 411.396 237.9112 L 412.6563 233.4505 L 415.4551 227.0699 L 416.2705 223.7556 L 416.7075 220.2909 L 417.046 209.5534 L 416.9761 159.9921 L 419.8496 158.568 L 422.0699 157.0571 L 425.1865 154.368 L 429.5381 150.062 L 453.8372 175.1033 L 456.9761 178.8817 L 458.7339 181.5941 L 459.438 183.0457 L 460.3582 185.9404 L 461.5296 191.8463 L 462.302 194.7177 L 465.1262 201.0877 L 466.0242 203.8743 L 466.5598 206.8919 L 467.4784 216.1523 L 468.041 219.1508 L 468.966 221.9035 L 471.8395 228.2587 L 472.5944 231.3505 L 473.157 237.8815 L 473.1745 258.0108 L 473.6497 262.8953 L 474.4221 266.0104 L 475.5553 268.6169 L 478.1491 273.5586 L 480.4313 279.0216 L 484.5095 286.4045 L 486.7362 291.9078 L 489.8735 298.1676 L 490.8366 300.9013 L 492.3544 308.2672 L 493.2778 311.1534 L 494.6351 313.6858 L 496.3309 316.0337 L 501.2054 321.5137 L 501.1942 327.9812 L 496.946 332.0774 L 493.6259 334.8661 L 491.2769 336.4088 L 486.0512 338.9305 L 482.5738 341.3569 L 479.3077 344.2664 L 471.9046 351.4671 L 469.7336 353.3764 L 467.4355 355.1013 L 459.8067 359.0746 L 457.5229 360.7466 L 450.9431 366.3601 L 448.6465 368.0278 L 446.3929 369.2654 L 442.1382 371.1069 L 434.9688 375.2709 L 430.7142 377.1145 L 428.4605 378.352 L 426.1656 380.024 L 418.4637 386.5318 L 416.1179 388.0702 L 411.9173 390.0495 L 409.6875 391.3082 L 407.4005 392.9844 L 404.1058 395.7901 L 400.6697 391.1938 L 399.3331 388.6742 L 398.4367 385.7901 L 397.3289 379.8545 L 396.5581 376.9471 L 395.4392 374.3597 L 392.9106 369.3798 L 391.2752 365.2624 L 389.9529 362.675 L 387.4084 359.259 L 384.4173 356.1461 L 380.7444 353.0861 L 375.7316 349.651 Z" fill="#000000" fill-opacity="1" stroke="#000000" stroke-width="0" paint-order="fill" stroke-opacity="1" stroke-dasharray="" stroke-linecap="butt" stroke-linejoin="miter" stroke-miterlimit="10" transform="matrix(1.100000023841858,0,0,1.100000023841858,-40.000064849853516,-26.65019416809082)" clip-path="none" style="filter: url(#f1)"/>
<path data-code="202" d="M 325.8397 319.331 L 327.9598 314.3321 L 330.6776 305.8388 L 333.5129 299.6722 L 334.1804 296.9216 L 334.1836 293.9973 L 333.9246 292.5605 L 333.0155 290.0049 L 330.7475 285.0843 L 329.2202 279.3077 L 328.6687 276.3198 L 327.8724 273.4166 L 324.9004 267.0805 L 323.9452 264.3405 L 322.5418 256.8961 L 321.7488 253.9803 L 320.6013 251.395 L 318.0155 246.4405 L 315.7078 240.9733 L 314.1121 238.3859 L 312.2208 235.9531 L 302.6404 225.5102 L 296.717 218.424 L 299.3902 217.4068 L 302.073 216.0146 L 304.333 214.3617 L 306.388 212.4375 L 308.1791 210.2528 L 308.9388 209.047 L 309.573 207.7501 L 310.401 204.7473 L 310.5806 203.2089 L 310.5647 200.1192 L 310.0514 197.0699 L 309.5714 195.5929 L 308.969 194.2684 L 307.4767 191.8293 L 304.0453 187.197 L 301.6963 184.3108 L 301.6963 184.1561 L 301.8123 184.1561 L 301.8123 184.0014 L 302.1604 184.0014 L 302.1604 183.8467 L 302.5069 183.8467 L 302.5069 183.692 L 303.0854 183.692 L 303.0854 183.5373 L 303.6639 183.5373 L 303.6639 183.692 L 304.2424 183.692 L 304.2424 183.5373 L 304.8209 183.5373 L 304.8209 183.3848 L 305.401 183.3848 L 305.401 183.2301 L 305.7475 183.2301 L 305.7475 183.0754 L 306.094 183.0754 L 306.094 182.9207 L 306.326 182.9207 L 306.326 182.766 L 306.558 182.766 L 306.558 182.6134 L 306.9045 182.6134 L 306.9045 182.4587 L 307.2526 182.4587 L 307.2526 182.304 L 307.599 182.304 L 307.599 182.1493 L 308.1776 182.1493 L 308.1776 181.9946 L 308.4096 181.9946 L 308.4096 181.8399 L 308.8721 181.8399 L 308.8721 181.6874 L 309.3346 181.6874 L 309.3346 181.5327 L 309.6826 181.5327 L 309.6826 181.378 L 310.1451 181.378 L 310.1451 181.0686 L 310.2612 181.0686 L 310.2612 180.916 L 310.3772 180.916 L 310.3772 180.7613 L 310.4932 180.7613 L 310.4932 180.6066 L 310.9557 180.6066 L 310.9557 180.4519 L 311.0717 180.4519 L 311.0717 180.6066 L 311.1861 180.6066 L 311.1861 180.7613 L 311.7662 180.7613 L 311.7662 180.6066 L 312.1127 180.6066 L 312.1127 180.4519 L 312.6912 180.4519 L 312.6912 180.2972 L 312.8072 180.2972 L 312.8072 180.1425 L 312.9233 180.1425 L 312.9233 179.99 L 313.5018 179.99 L 313.5018 179.8353 L 313.6178 179.8353 L 313.6178 179.6806 L 313.7322 179.6806 L 313.7322 179.3712 L 313.9643 179.3712 L 313.9643 179.2186 L 314.1963 179.2186 L 314.1963 179.0639 L 314.4268 179.0639 L 314.4268 178.9092 L 314.8908 178.9092 L 314.8908 179.0639 L 315.0053 179.0639 L 315.0053 178.9092 L 315.1213 178.9092 L 315.1213 178.7545 L 315.3533 178.7545 L 315.3533 178.5998 L 315.4694 178.5998 L 315.4694 178.4451 L 316.1639 178.4451 L 316.1639 178.2926 L 316.2783 178.2926 L 316.2783 178.1379 L 316.5104 178.1379 L 316.5104 177.9832 L 316.6264 177.9832 L 316.6264 177.8285 L 316.7424 177.8285 L 316.7424 177.6738 L 316.8584 177.6738 L 316.8584 177.5212 L 317.2049 177.5212 L 317.2049 177.3665 L 317.3209 177.3665 L 317.3209 177.2118 L 317.5514 177.2118 L 317.5514 177.0571 L 317.6674 177.0571 L 317.6674 176.9024 L 317.7834 176.9024 L 317.7834 176.7477 L 318.3619 176.7477 L 318.3619 176.9024 L 318.594 176.9024 L 318.594 177.0571 L 318.9404 177.0571 L 318.9404 177.2118 L 319.0565 177.2118 L 319.0565 177.3665 L 319.1725 177.3665 L 319.1725 177.5212 L 318.8244 177.5212 L 318.8244 177.6738 L 318.594 177.6738 L 318.594 177.5212 L 318.3619 177.5212 L 318.3619 177.6738 L 318.2459 177.6738 L 318.2459 178.1379 L 318.3619 178.1379 L 318.3619 178.4409 L 318.3619 178.5998 L 318.4779 178.5998 L 318.4779 178.7545 L 318.594 178.7545 L 318.594 178.9092 L 320.3295 178.9092 L 320.3295 178.7545 L 320.792 178.7545 L 320.792 178.5998 L 321.2561 178.5998 L 321.2561 178.7545 L 321.4865 178.7545 L 321.4865 178.5998 L 321.8346 178.5998 L 321.8346 178.4451 L 322.1811 178.4451 L 322.1811 178.2926 L 322.4131 178.2926 L 322.4131 178.1379 L 322.5291 178.1379 L 322.5291 177.9832 L 322.7596 177.9832 L 322.7596 177.8285 L 323.1076 177.8285 L 323.1076 177.6738 L 323.2221 177.6738 L 323.2221 177.5212 L 323.3381 177.5212 L 323.3381 177.3665 L 323.9166 177.3665 L 323.9166 177.2118 L 324.0326 177.2118 L 324.0326 177.0571 L 324.2647 177.0571 L 324.2647 176.9024 L 324.3807 176.9024 L 324.3807 176.7477 L 324.7272 176.7477 L 324.7272 176.5952 L 325.0752 176.5952 L 325.0752 176.4405 L 325.4217 176.4405 L 325.4217 176.2858 L 325.5377 176.2858 L 325.5377 176.1311 L 325.6537 176.1311 L 325.6537 175.9764 L 326.1162 175.9764 L 326.1162 175.8238 L 326.3483 175.8238 L 326.3483 175.6691 L 326.8108 175.6691 L 326.8108 175.8238 L 326.8759 175.8238 L 327.1572 175.8238 L 327.1572 175.6691 L 327.5053 175.6691 L 327.5053 175.5144 L 327.6213 175.5144 L 327.6213 175.3597 L 327.7357 175.3597 L 327.7357 175.2792 L 327.7357 175.205 L 327.8549 175.205 L 328.3143 175.205 L 328.3143 175.0504 L 328.5463 175.0504 L 328.5463 174.8978 L 328.6623 174.8978 L 328.6623 174.7431 L 329.1248 174.7431 L 329.1248 174.5884 L 329.4729 174.5884 L 329.4729 174.4337 L 329.9354 174.4337 L 329.9354 174.1264 L 330.0514 174.1264 L 330.0514 174.279 L 330.1674 174.279 L 330.1674 174.1264 L 330.5139 174.1264 L 330.5139 173.9717 L 330.7459 173.9717 L 330.7459 173.817 L 331.2084 173.817 L 331.2084 173.6623 L 331.0924 173.6623 L 331.0924 173.5077 L 332.3654 173.5077 L 332.3654 173.353 L 332.4815 173.353 L 332.4815 173.2004 L 332.7135 173.2004 L 332.7135 173.0457 L 332.8279 173.0457 L 332.8279 172.891 L 333.06 172.891 L 333.06 172.7363 L 333.176 172.7363 L 333.176 172.5816 L 333.6385 172.5816 L 333.6385 172.891 L 333.9865 172.891 L 333.9865 172.7363 L 334.101 172.7363 L 334.101 172.5816 L 334.333 172.5816 L 334.333 172.429 L 334.449 172.429 L 334.449 172.1196 L 334.5651 172.1196 L 334.5651 171.9649 L 334.6795 171.9649 L 334.6795 171.8103 L 334.9115 171.8103 L 334.9115 171.6556 L 335.1436 171.6556 L 335.1436 171.503 L 335.374 171.503 L 335.374 171.3483 L 335.7221 171.3483 L 335.7221 171.0389 L 335.8381 171.0389 L 335.8381 170.7316 L 335.9525 170.7316 L 335.9525 170.4222 L 336.0685 170.4222 L 336.0685 170.1129 L 336.1846 170.1129 L 336.1846 169.9582 L 336.3006 169.9582 L 336.3006 169.8056 L 336.4166 169.8056 L 336.4166 169.6509 L 336.5326 169.6509 L 336.5326 169.4962 L 336.6471 169.4962 L 336.6471 169.3415 L 336.7631 169.3415 L 336.7631 169.1868 L 337.1111 169.1868 L 337.1111 169.0342 L 337.3416 169.0342 L 337.3416 168.7249 L 337.5736 168.7249 L 337.5736 168.5702 L 337.6897 168.5702 L 337.6897 168.2608 L 337.8057 168.2608 L 337.8057 168.1082 L 337.9201 168.1082 L 337.9201 167.9535 L 338.0361 167.9535 L 338.0361 167.7988 L 338.2682 167.7988 L 338.2682 167.6441 L 338.3842 167.6441 L 338.3842 167.3368 L 338.6146 167.3368 L 338.6146 167.1822 L 338.8467 167.1822 L 338.8467 167.0275 L 338.9627 167.0275 L 338.9627 166.8728 L 339.1932 166.8728 L 339.1932 166.7181 L 339.3092 166.7181 L 339.3092 166.5634 L 339.5412 166.5634 L 339.5412 166.4108 L 339.6572 166.4108 L 339.6572 166.2561 L 339.8877 166.2561 L 339.8877 166.1014 L 340.0037 166.1014 L 340.0037 165.9467 L 340.2357 165.9467 L 340.2357 165.792 L 340.3518 165.792 L 340.3518 165.6395 L 340.4662 165.6395 L 340.4662 165.4848 L 340.5822 165.4848 L 340.5822 165.3301 L 340.9303 165.3301 L 340.9303 165.1754 L 341.0447 165.1754 L 341.0447 164.866 L 341.2768 164.866 L 341.2768 164.7134 L 341.5088 164.7134 L 341.5088 164.404 L 341.7392 164.404 L 341.7392 164.0946 L 341.8553 164.0946 L 341.8553 163.7874 L 341.9713 163.7874 L 341.9713 163.6327 L 342.0873 163.6327 L 342.0873 163.3233 L 342.2033 163.3233 L 342.2033 163.016 L 342.3178 163.016 L 342.3178 162.5519 L 342.4338 162.5519 L 342.4338 162.09 L 342.6658 162.09 L 342.6658 161.9353 L 342.8979 161.9353 L 342.8979 161.7806 L 343.0123 161.7806 L 343.0123 161.6259 L 343.1283 161.6259 L 343.1283 161.4712 L 343.2443 161.4712 L 343.2443 161.3186 L 343.3604 161.3186 L 343.3604 161.1639 L 343.5908 161.1639 L 343.5908 160.6998 L 343.7068 160.6998 L 343.7068 160.3926 L 343.8228 160.3926 L 343.8228 160.0832 L 344.0549 160.0832 L 344.0549 159.7738 L 344.1709 159.7738 L 344.1709 159.4665 L 344.2853 159.4665 L 344.2853 158.8499 L 344.4014 158.8499 L 344.4014 158.6952 L 344.6334 158.6952 L 344.6334 158.5405 L 344.9799 158.5405 L 344.9799 158.0764 L 345.2119 158.0764 L 345.2119 157.9238 L 345.3279 157.9238 L 345.3279 157.7691 L 345.444 157.7691 L 345.444 157.6144 L 345.5584 157.6144 L 345.5584 157.4597 L 345.6744 157.4597 L 345.6744 157.1525 L 345.7904 157.1525 L 345.7904 156.9978 L 345.9064 156.9978 L 345.9064 156.6884 L 346.0225 156.6884 L 346.0225 156.379 L 346.2529 156.379 L 346.2529 156.0717 L 346.3689 156.0717 L 346.3689 155.917 L 346.485 155.917 L 346.485 155.7624 L 346.601 155.7624 L 346.601 155.4551 L 346.7154 155.4551 L 346.717 155.3004 L 346.8314 155.3004 L 346.8314 155.1457 L 347.0635 155.1457 L 347.0635 154.991 L 347.1795 154.991 L 347.1795 154.6837 L 347.2955 154.6816 L 347.2955 154.529 L 347.4099 154.529 L 347.4099 154.3743 L 347.526 154.3743 L 347.526 154.065 L 348.2205 154.065 L 348.2205 153.9103 L 348.3365 153.9103 L 348.3365 153.7577 L 348.4525 153.7577 L 348.4525 153.4483 L 348.5686 153.4483 L 348.5686 153.2936 L 348.683 153.2936 L 348.683 153.1389 L 348.799 153.1389 L 348.799 152.9863 L 348.915 152.9842 L 348.915 152.8316 L 349.0311 152.8316 L 349.0311 152.5223 L 349.1471 152.5223 L 349.1471 152.2129 L 349.2615 152.2129 L 349.2615 152.0603 L 349.3775 152.0603 L 349.3775 151.9056 L 349.4935 151.9056 L 349.4935 151.7509 L 349.6096 151.7509 L 349.6096 151.4415 L 349.7256 151.4415 L 349.7256 151.1342 L 349.8416 151.1342 L 349.8416 150.9796 L 349.956 150.9796 L 349.956 150.6702 L 350.0721 150.6702 L 350.0721 150.5155 L 350.1881 150.5155 L 350.1881 150.3629 L 350.3041 150.3629 L 350.3041 150.2442 L 350.3041 150.0535 L 350.4201 150.0535 L 350.4201 149.8988 L 350.6267 149.8988 L 350.6506 149.8988 L 350.6506 149.7441 L 350.7666 149.7441 L 350.7666 149.5915 L 350.8826 149.5915 L 350.8826 149.4369 L 350.9986 149.4369 L 350.9986 149.2822 L 351.1147 149.2822 L 351.1147 148.9728 L 351.2291 148.9728 L 351.2291 148.8181 L 351.3451 148.8181 L 351.3451 148.5108 L 351.4611 148.5108 L 351.4611 148.0467 L 351.5771 148.0467 L 351.5771 147.7395 L 351.6932 147.7395 L 351.6932 147.4301 L 351.8076 147.4301 L 351.8076 147.2754 L 359.6874 155.5335 L 362.8502 158.5362 L 365.0625 160.3396 L 366.2211 161.1385 L 368.4986 162.3379 L 372.8534 163.995 L 379.101 166.8389 L 379.5111 179.5344 L 379.4157 184.741 L 378.9961 189.8438 L 377.9011 194.688 L 375.0021 201.0114 L 374.0263 203.9082 L 373.2968 208.8944 L 373.2873 213.9951 L 373.6639 217.3475 L 374.4586 220.5706 L 377.8343 228.2142 L 378.9023 233.033 L 379.3744 241.556 L 379.2615 262.3994 L 379.8496 269.1382 L 381.1592 273.673 L 384.2393 279.9498 L 389.7367 294.5164 L 395.568 303.1284 L 396.868 305.7095 L 397.3639 307.1823 L 397.9821 310.2359 L 398.2809 314.9275 L 397.9885 319.6171 L 397.3544 322.6707 L 396.1497 325.5484 L 393.4828 329.3289 L 381.717 341.9206 L 375.7316 349.651 L 373.8642 349.1764 L 372.0365 348.4537 L 366.1735 345.2391 L 361.9443 343.4145 L 359.6906 342.1537 L 357.4052 340.4309 L 355.2326 338.4855 L 345.7825 329.134 L 342.3877 326.4766 L 340.1086 325.2327 L 335.7602 323.5078 L 330.935 321.3124 L 325.8397 319.331 Z" fill="#000000" fill-opacity="1" stroke="#000000" stroke-width="0" paint-order="fill" stroke-opacity="1" stroke-dasharray="" stroke-linecap="butt" stroke-linejoin="miter" stroke-miterlimit="10" transform="matrix(1.100000023841858,0,0,1.100000023841858,-40.000064849853516,-26.65019416809082)" clip-path="none" style="filter: url(#f1)"/>
<path data-code="203" d="M 231.9108 202.196 L 231.132 204.3235 L 230.6282 204.9359 L 229.2328 208.068 L 229.619 215.8938 L 230.6362 220.4011 L 231.8584 223.0055 L 233.365 225.4318 L 238.8402 232.9822 L 232.4242 233.4187 L 227.1746 233.3742 L 223.613 232.9843 L 219.6937 232.0498 L 211.8059 221.8993 L 207.0189 215.3873 L 200.0052 207.1483 L 200.0846 207.1483 L 200.0846 206.9936 L 200.2007 206.9936 L 200.2007 207.1483 L 200.6632 207.1483 L 200.6632 206.9936 L 200.8952 206.9936 L 200.8952 207.1483 L 201.1272 207.1483 L 201.1272 207.3009 L 201.5897 207.3009 L 201.5897 207.4555 L 202.7468 207.4555 L 202.7468 207.3009 L 205.6409 207.3009 L 205.6409 207.4555 L 206.2194 207.4555 L 206.2194 207.6102 L 207.4925 207.6102 L 207.4925 207.4555 L 207.955 207.4555 L 207.955 207.3009 L 208.3014 207.3009 L 208.3014 207.1483 L 208.5335 207.1483 L 208.5335 207.3009 L 209.5745 207.3009 L 209.5745 207.4555 L 209.6905 207.4555 L 209.6905 207.3009 L 210.8475 207.3009 L 210.8475 207.1483 L 211.1956 207.1483 L 211.1956 206.9936 L 211.3116 206.9936 L 211.3116 206.8389 L 211.4276 206.8389 L 211.4276 206.5295 L 211.5421 206.5295 L 211.5421 206.3748 L 212.1206 206.3748 L 212.1206 206.5295 L 212.2366 206.5295 L 212.2366 206.3748 L 212.5847 206.3748 L 212.5847 206.2222 L 212.7007 206.2222 L 212.7007 206.0675 L 212.8151 206.0675 L 212.8151 205.9128 L 213.3936 205.9128 L 213.3936 205.7582 L 214.0882 205.7582 L 214.0882 205.6035 L 214.8987 205.6035 L 214.8987 205.4911 L 214.8987 205.4509 L 215.4486 205.4509 L 215.4772 205.4488 L 215.4772 205.2962 L 216.1718 205.2962 L 216.1718 205.1415 L 216.2878 205.1415 L 216.2878 204.9868 L 216.6342 204.9868 L 216.6342 204.8321 L 216.9823 204.8321 L 216.9823 204.6774 L 217.0983 204.6774 L 217.0983 204.5248 L 217.9073 204.5248 L 217.9073 204.3701 L 220.9175 204.3701 L 220.9175 204.599 L 220.9175 204.6774 L 221.2639 204.6774 L 221.2639 204.5291 L 221.2639 204.3701 L 221.496 204.3701 L 221.496 204.2155 L 221.6104 204.2155 L 221.6104 204.0608 L 221.8425 204.0608 L 221.8425 203.9061 L 222.1905 203.9061 L 222.1905 204.0608 L 222.3049 204.0608 L 222.3049 204.2155 L 222.653 204.2155 L 222.653 204.0608 L 222.769 204.0608 L 222.769 204.2155 L 222.8167 204.2155 L 222.9995 204.2155 L 222.9995 204.1794 L 222.9995 203.9061 L 223.1155 203.9061 L 223.1155 203.7535 L 223.2315 203.7535 L 223.2315 203.5988 L 223.81 203.5988 L 223.81 203.7535 L 223.9261 203.7535 L 223.9261 203.9061 L 224.344 203.9061 L 224.3885 203.9061 L 224.3885 204.0608 L 224.9671 204.0608 L 224.9671 203.9061 L 225.1991 203.9061 L 225.1991 204.0608 L 225.3151 204.0608 L 225.3151 203.9061 L 226.8186 203.9061 L 226.8186 204.0608 L 227.2827 204.0608 L 227.2827 203.9061 L 227.7452 203.9061 L 227.7452 203.7535 L 227.9756 203.7535 L 227.9756 203.5988 L 228.3237 203.5967 L 228.3237 203.4441 L 228.5557 203.4441 L 228.5557 203.2894 L 229.1343 203.2894 L 229.1343 203.1347 L 229.5968 203.1347 L 229.5968 202.98 L 229.7128 202.98 L 229.7128 202.8274 L 230.0592 202.8274 L 230.0592 202.7512 L 230.0592 202.6727 L 230.2913 202.6727 L 230.2913 202.5181 L 230.9858 202.5181 L 230.9858 202.3634 L 231.2163 202.3634 L 231.2163 202.2087 L 231.9108 202.196 Z" fill="#000000" fill-opacity="1" stroke="#000000" stroke-width="0" paint-order="fill" stroke-opacity="1" stroke-dasharray="" stroke-linecap="butt" stroke-linejoin="miter" stroke-miterlimit="10" transform="matrix(1.100000023841858,0,0,1.100000023841858,-40.000064849853516,-26.65019416809082)" clip-path="none" style="filter: url(#f1)"/>
<path data-code="204" d="M 588.9359 206.6566 L 584.0614 204.9995 L 573.8437 200.7232 L 570.3377 198.3286 L 563.8167 192.6516 L 561.5392 190.9648 L 559.2982 189.7124 L 555.0563 187.8582 L 547.8948 183.7196 L 543.6434 181.9014 L 541.3278 180.6299 L 537.7725 177.873 L 534.4063 174.7071 L 527.8662 167.9959 L 522.6358 162.2489 L 520.7159 159.8692 L 519.0185 157.3919 L 517.7963 155.0207 L 515.9463 150.6723 L 514.4253 148.1506 L 512.6119 145.7581 L 507.4832 140.0683 L 492.2718 124.6434 L 489.349 121.1724 L 487.72 118.6506 L 487.0763 117.2817 L 486.2769 114.5099 L 485.8811 111.6407 L 485.719 108.7163 L 485.7127 104.2705 L 485.9749 98.2904 L 486.8713 90.6447 L 487.097 90.6447 L 487.097 90.49 L 487.445 90.49 L 487.445 90.3353 L 487.561 90.3353 L 487.561 90.1827 L 487.6771 90.1827 L 487.6771 90.028 L 487.7915 90.028 L 487.7915 89.8733 L 488.1396 89.8733 L 488.1396 89.7187 L 488.2556 89.7187 L 488.2556 89.564 L 488.37 89.564 L 488.37 89.4114 L 488.7181 89.4114 L 488.7181 89.2567 L 488.8341 89.2567 L 488.8341 89.102 L 489.0645 89.102 L 489.0645 88.9473 L 489.1806 88.9473 L 489.1806 88.7926 L 489.2966 88.7926 L 489.2966 88.6379 L 489.4126 88.6379 L 489.4126 88.4853 L 489.5286 88.4853 L 489.5286 88.3306 L 489.6431 88.3306 L 489.6431 88.1759 L 489.8751 88.1759 L 489.8751 88.0213 L 489.9911 88.0213 L 489.9911 87.8666 L 490.1071 87.8666 L 490.1071 87.714 L 490.2232 87.714 L 490.2232 87.5593 L 490.3376 87.5593 L 490.3376 87.2499 L 490.4536 87.2499 L 490.4536 87.2012 L 490.4536 87.0952 L 490.5696 87.0952 L 490.5696 86.9405 L 490.6856 86.9405 L 490.6856 86.7879 L 490.8017 86.7879 L 490.8017 86.6332 L 491.1481 86.6332 L 491.1481 86.4786 L 491.2642 86.4786 L 491.2642 86.3239 L 491.4962 86.3239 L 491.4962 86.1692 L 491.6106 86.1692 L 491.6106 86.0166 L 491.7267 86.0166 L 491.7267 85.8619 L 491.8427 85.8619 L 491.8427 85.7072 L 491.9587 85.7072 L 491.9587 85.5525 L 492.0747 85.5525 L 492.0747 85.3978 L 492.4212 85.3978 L 492.4212 85.2452 L 492.5372 85.2431 L 492.5372 85.0905 L 492.7692 85.0905 L 492.7692 84.9359 L 492.8837 84.9359 L 492.8837 84.7812 L 492.9997 84.7812 L 492.9997 84.6265 L 493.3478 84.6265 L 493.3478 84.4718 L 493.4622 84.4718 L 493.4622 84.3192 L 493.8103 84.3192 L 493.8103 84.1645 L 493.9263 84.1645 L 493.9263 84.0098 L 494.2727 84.0098 L 494.2727 83.8551 L 494.3888 83.8551 L 494.3888 83.7004 L 494.5048 83.7004 L 494.5048 83.5478 L 495.0833 83.5457 L 495.0833 83.3932 L 495.3153 83.3932 L 495.3153 83.2385 L 495.5458 83.2385 L 495.5458 83.0838 L 495.6618 83.0838 L 495.6618 82.9291 L 495.7778 82.9291 L 495.7778 82.7744 L 496.1243 82.7744 L 496.1243 82.6218 L 496.4724 82.6218 L 496.4724 82.4671 L 497.0509 82.4671 L 497.0509 82.3124 L 497.1669 82.3124 L 497.1669 82.1577 L 497.2813 82.1577 L 497.2813 82.003 L 497.6294 82.003 L 497.6294 81.8505 L 497.7454 81.8505 L 497.7454 81.6958 L 498.0919 81.6958 L 498.0919 81.5411 L 498.2079 81.5411 L 498.2079 81.3864 L 498.3239 81.3864 L 498.3239 81.2317 L 498.4399 81.2317 L 498.4399 81.077 L 498.6704 81.077 L 498.6704 80.9244 L 498.7864 80.9244 L 498.7864 80.7697 L 498.9024 80.7697 L 498.9024 80.615 L 499.481 80.615 L 499.481 80.4603 L 500.274 80.4603 L 500.522 80.4603 L 500.522 80.3056 L 500.754 80.3056 L 500.754 79.9984 L 501.3325 79.9984 L 501.3325 79.8437 L 501.4485 79.8437 L 501.4485 79.5343 L 501.5646 79.5343 L 501.5646 79.3796 L 501.6806 79.3796 L 501.6806 79.227 L 502.1431 79.227 L 502.1431 78.9176 L 502.6056 78.9176 L 502.6056 78.6082 L 503.068 78.6082 L 503.068 78.301 L 503.1841 78.301 L 503.1841 78.1463 L 503.4161 78.1463 L 503.4161 77.6822 L 503.5321 77.6822 L 503.5321 77.5296 L 503.7626 77.5296 L 503.7626 77.0655 L 503.8786 77.0655 L 503.8786 76.9108 L 503.9946 76.9108 L 503.9946 76.6036 L 504.1106 76.6036 L 504.1106 76.4489 L 504.2251 76.4489 L 504.2267 76.2942 L 504.3411 76.2942 L 504.3411 76.1395 L 504.5731 76.1395 L 504.5731 75.9848 L 504.6892 75.9848 L 504.6892 75.8322 L 504.8052 75.8322 L 504.8052 75.6775 L 504.9196 75.6775 L 504.9196 75.5228 L 505.2677 75.5228 L 505.2677 75.3681 L 505.3837 75.3681 L 505.3837 75.2134 L 505.4981 75.2134 L 505.4981 75.0609 L 505.6141 75.0609 L 505.6141 74.7515 L 505.7302 74.7515 L 505.7302 74.5968 L 505.9622 74.5968 L 505.9622 74.4421 L 506.0782 74.4421 L 506.0782 74.2874 L 506.1927 74.2874 L 506.1927 74.1348 L 506.3087 74.1348 L 506.3087 73.8254 L 506.4247 73.8254 L 506.4247 73.5161 L 506.7712 73.5161 L 506.7712 73.2088 L 506.8872 73.2088 L 506.8872 73.0541 L 507.1192 73.0541 L 507.1192 72.59 L 507.2352 72.59 L 507.2352 72.4374 L 507.3513 72.4374 L 507.3513 71.8187 L 507.4657 71.8187 L 507.4657 71.6661 L 507.6977 71.6661 L 507.6977 71.5114 L 507.9298 71.5114 L 507.9298 71.202 L 508.0442 71.202 L 508.0442 71.0473 L 508.2763 71.0473 L 508.2763 70.8926 L 508.3923 70.8926 L 508.3923 70.74 L 508.5083 70.74 L 508.5083 70.5853 L 508.7387 70.5853 L 508.7387 70.4307 L 508.8548 70.4307 L 508.8548 70.276 L 509.0868 70.276 L 509.0868 70.1213 L 509.2028 70.1213 L 509.2028 69.9687 L 509.3173 69.9687 L 509.3173 69.814 L 509.4333 69.814 L 509.4333 69.6593 L 509.5493 69.6593 L 509.5493 69.5046 L 509.6653 69.5046 L 509.6653 69.3499 L 509.8974 69.3499 L 509.8974 69.1952 L 510.0118 69.1952 L 510.0118 69.0426 L 510.1278 69.0426 L 510.1278 68.888 L 510.3599 68.888 L 510.3599 68.7333 L 510.5903 68.7333 L 510.5903 68.4239 L 510.7063 68.4239 L 510.7063 68.2713 L 510.8223 68.2713 L 510.8223 68.1166 L 510.9384 68.1166 L 510.9384 67.9619 L 511.0544 67.9619 L 511.0544 67.9047 L 511.0544 67.8072 L 511.1847 67.8072 L 511.2848 67.8072 L 511.2848 67.733 L 511.2848 67.6525 L 511.4009 67.6462 L 511.4009 67.4978 L 511.5169 67.4978 L 511.5169 67.3452 L 511.6329 67.3452 L 511.6329 67.0359 L 511.7489 67.0359 L 511.7489 66.8812 L 511.8634 66.8812 L 511.8634 66.7265 L 511.9794 66.7265 L 511.9794 66.5739 L 512.0954 66.5739 L 512.0954 66.4192 L 512.2114 66.4192 L 512.2114 66.2645 L 512.3274 66.2645 L 512.3274 66.1098 L 512.5579 66.1098 L 512.5579 65.9551 L 512.6739 65.9551 L 512.6739 65.8004 L 512.7899 65.8004 L 512.7899 65.6479 L 512.9059 65.6479 L 512.9059 65.4932 L 513.022 65.4932 L 513.022 65.3385 L 513.1364 65.3385 L 513.1364 65.1838 L 513.3684 65.1838 L 513.3684 65.0291 L 513.7165 65.0291 L 513.7165 64.8765 L 513.8309 64.8765 L 513.8309 64.7218 L 513.947 64.7218 L 513.947 64.5671 L 514.295 64.5671 L 514.295 64.4124 L 515.5681 64.4124 L 515.5681 64.2577 L 515.6825 64.2577 L 515.6825 64.103 L 515.9145 64.103 L 515.9145 63.9505 L 516.0306 63.9505 L 516.0306 63.7958 L 516.1466 63.7958 L 516.1466 63.6411 L 517.5356 63.6411 L 517.5356 63.4864 L 518.1142 63.4864 L 518.1142 63.3317 L 518.5766 63.3317 L 518.5766 63.1791 L 519.2712 63.1791 L 519.2712 63.0244 L 519.8497 63.0244 L 519.8497 62.8697 L 521.7012 62.8697 L 521.7012 62.715 L 521.9333 62.715 L 521.9333 62.5603 L 522.1637 62.5603 L 522.1637 62.4056 L 523.0903 62.4056 L 523.0903 62.2531 L 523.2063 62.2531 L 523.2063 62.0984 L 523.4368 62.0984 L 523.4368 61.9437 L 523.5528 61.9437 L 523.5528 61.789 L 523.9009 61.789 L 523.9009 61.9437 L 524.2473 61.9437 L 524.2473 62.0984 L 524.5938 62.0984 L 524.5938 61.9437 L 524.8259 61.9437 L 524.8259 61.789 L 525.0579 61.789 L 525.0579 61.6343 L 525.5204 61.6343 L 525.5204 61.327 L 525.6364 61.327 L 525.6364 61.1723 L 525.9829 61.1723 L 525.9829 61.0176 L 526.3309 61.0176 L 526.3309 60.8629 L 526.447 60.8629 L 526.447 60.7082 L 526.7934 60.7082 L 526.7934 60.5557 L 527.1399 60.5557 L 527.1399 60.401 L 527.2559 60.401 L 527.2559 60.2463 L 527.3719 60.2463 L 527.3719 60.0916 L 527.72 60.0916 L 527.72 59.9369 L 528.0665 59.9369 L 528.0665 59.7843 L 528.1825 59.7843 L 528.1825 59.6296 L 528.529 59.6296 L 528.529 59.4749 L 528.877 59.4749 L 528.877 59.3202 L 529.2235 59.3202 L 529.2235 59.1655 L 529.5716 59.1655 L 529.5716 59.0109 L 529.686 59.0109 L 529.686 58.8583 L 530.0341 58.8583 L 530.0341 58.7036 L 530.3805 58.7036 L 530.3805 58.5489 L 530.4966 58.5489 L 530.4966 58.3942 L 530.8446 58.3942 L 530.8446 58.2395 L 530.959 58.2395 L 530.959 58.0869 L 531.3071 58.0869 L 531.3071 57.9322 L 531.7696 57.9322 L 531.7696 57.7775 L 532.3481 57.7775 L 532.3481 57.6228 L 532.4641 57.6228 L 532.4641 57.4681 L 532.8106 57.4681 L 532.8106 57.3135 L 533.0236 57.3135 L 533.2747 57.3135 L 533.2747 57.1609 L 533.3907 57.1609 L 533.3907 57.0062 L 533.8532 57.0062 L 533.8532 56.8515 L 534.1997 56.8515 L 534.1997 56.6968 L 534.3157 56.6968 L 534.3157 56.5421 L 534.6638 56.5421 L 534.6638 56.3895 L 534.7782 56.3895 L 534.7782 56.2348 L 535.1262 56.2348 L 535.1262 56.0801 L 535.4727 56.0801 L 535.4727 55.9254 L 535.7048 55.9254 L 535.7048 55.7708 L 536.0512 55.7708 L 536.0512 55.4635 L 536.1672 55.4635 L 536.1672 55.3088 L 536.2833 55.3088 L 536.2833 55.1541 L 536.6297 55.1541 L 536.6297 54.9994 L 536.7458 54.9994 L 536.7458 54.8447 L 536.8618 54.8447 L 536.8618 54.6921 L 537.0938 54.6921 L 537.0938 54.5374 L 537.2098 54.5374 L 537.2098 54.3827 L 537.3243 54.3827 L 537.3243 54.2281 L 537.4403 54.2281 L 537.4403 54.0734 L 537.5563 54.0734 L 537.5563 53.9187 L 537.6723 53.9187 L 537.6723 53.7661 L 537.9028 53.7661 L 537.9028 53.6114 L 538.1348 53.6114 L 538.1348 53.4567 L 538.2508 53.4567 L 538.2508 53.4249 L 538.2508 53.302 L 538.3446 53.302 L 539.4651 54.6307 L 541.8618 57.6991 L 546.8936 65.313 L 549.8179 72.0094 L 552.3926 76.9681 L 553.5004 79.583 L 554.2029 82.5688 L 554.5303 85.6606 L 554.7798 96.7053 L 555.0245 99.8225 L 555.6015 102.8655 L 556.7362 105.739 L 559.3252 109.5428 L 567.7137 118.7502 L 570.611 122.3421 L 572.2019 124.8999 L 575.371 131.6237 L 578.0474 135.3682 L 584.3571 142.3421 L 587.7391 145.578 L 590.1024 147.5381 L 592.612 149.2016 L 597.8854 151.6301 L 603.8962 154.9295 L 606.6171 155.9022 L 609.5764 156.4214 L 614.1505 156.6672 L 620.7477 156.4828 L 625.0802 165.3724 L 626.8809 169.6615 L 622.9172 180.952 L 621.6838 183.247 L 619.9118 185.4339 L 617.8075 187.2648 L 616.6457 188.0192 L 611.4248 190.3311 L 605.433 193.7069 L 599.9435 196.1184 L 597.7153 197.3538 L 595.5014 199.0512 L 593.448 200.9944 L 590.6555 204.2133 L 588.9359 206.6566 Z" fill="#000000" fill-opacity="1" stroke="#000000" stroke-width="0" paint-order="fill" stroke-opacity="1" stroke-dasharray="" stroke-linecap="butt" stroke-linejoin="miter" stroke-miterlimit="10" transform="matrix(1.100000023841858,0,0,1.100000023841858,-40.000064849853516,-26.65019416809082)" clip-path="none" style="filter: url(#f1)"/>
<path data-code="205" d="M 329.2202 279.3077 L 313.1553 279.3458 L 307.9773 278.8457 L 304.689 278.0214 L 292.1524 271.8146 L 288.9166 269.1699 L 286.3784 265.8196 L 283.9801 260.5113 L 280.819 254.2897 L 279.8304 251.3526 L 279.4983 249.723 L 278.9881 244.688 L 278.8689 239.5577 L 279.0278 234.4359 L 279.7096 229.4454 L 280.6982 226.502 L 281.9681 224.0163 L 285.2484 218.5278 L 287.0571 216.7478 L 288.2506 216.2032 L 290.7904 215.9489 L 293.1362 216.5486 L 296.717 218.424 L 302.6404 225.5102 L 312.2208 235.9531 L 314.1121 238.3859 L 315.7078 240.9733 L 318.0155 246.4405 L 320.6013 251.395 L 321.7488 253.9803 L 322.5418 256.8961 L 323.9452 264.3405 L 324.9004 267.0805 L 327.8724 273.4166 L 328.6687 276.3198 L 329.2202 279.3077 Z" fill="#000000" fill-opacity="1" stroke="#000000" stroke-width="0" paint-order="fill" stroke-opacity="1" stroke-dasharray="" stroke-linecap="butt" stroke-linejoin="miter" stroke-miterlimit="10" transform="matrix(1.100000023841858,0,0,1.100000023841858,-40.000064849853516,-26.65019416809082)" clip-path="none" style="filter: url(#f1)"/>
<path data-code="206" d="M 379.101 166.8389 L 384.3474 168.532 L 389.2822 169.3309 L 395.9335 169.5153 L 400.835 168.9876 L 403.9739 168.0912 L 405.5187 167.3771 L 416.9761 159.9921 L 417.046 209.5534 L 416.7075 220.2909 L 416.2705 223.7556 L 415.4551 227.0699 L 412.6563 233.4505 L 411.396 237.9112 L 410.8445 242.855 L 410.3248 252.9356 L 409.6239 257.8391 L 408.7228 260.7444 L 405.9605 267.1356 L 403.8722 275.8578 L 402.9043 278.7377 L 402.2018 280.1638 L 400.4694 282.8423 L 398.4558 285.3577 L 389.7367 294.5164 L 384.2393 279.9498 L 381.1592 273.673 L 379.8496 269.1382 L 379.2615 262.3994 L 379.3744 241.556 L 378.9023 233.033 L 377.8343 228.2142 L 374.4586 220.5706 L 373.6639 217.3475 L 373.2873 213.9951 L 373.2968 208.8944 L 374.0263 203.9082 L 375.0021 201.0114 L 377.9011 194.688 L 378.9961 189.8438 L 379.4157 184.741 L 379.5111 179.5344 L 379.101 166.8389 Z" fill="#000000" fill-opacity="1" stroke="#000000" stroke-width="0" paint-order="fill" stroke-opacity="1" stroke-dasharray="" stroke-linecap="butt" stroke-linejoin="miter" stroke-miterlimit="10" transform="matrix(1.100000023841858,0,0,1.100000023841858,-40.000064849853516,-26.65019416809082)" clip-path="none" style="filter: url(#f1)"/>
<path data-code="207" d="M 235.0386 479.6956 L 235.0449 442.2088 L 234.5173 434.8047 L 233.1346 427.8986 L 235.9811 421.9969 L 238.7989 417.0128 L 240.01 414.4339 L 240.8968 411.5392 L 242.1603 405.6333 L 242.99 402.7725 L 245.8841 396.4322 L 246.8457 393.5587 L 247.4353 390.3482 L 247.7516 387.0446 L 247.92 375.2455 L 247.6467 370.2317 L 246.8774 365.3768 L 245.9159 362.5055 L 242.9995 356.1609 L 240.0736 344.5143 L 237.2255 338.1359 L 236.283 335.2221 L 235.6966 331.9333 L 234.8081 323.529 L 234.2153 320.2528 L 233.2824 317.356 L 230.5297 310.9373 L 229.8224 307.9769 L 229.4299 304.9021 L 229.0818 298.6084 L 268.1346 298.8542 L 274.4092 298.6932 L 279.004 298.869 L 281.9998 299.259 L 284.8861 300.0282 L 287.4147 301.1852 L 292.2049 303.8426 L 297.4687 306.2265 L 304.5984 310.4605 L 309.9067 312.8296 L 315.9271 316.1926 L 318.559 317.2861 L 325.8397 319.331 L 330.935 321.3124 L 335.7602 323.5078 L 340.1086 325.2327 L 342.3877 326.4766 L 345.7825 329.134 L 355.2326 338.4855 L 357.4052 340.4309 L 359.6906 342.1537 L 361.9443 343.4145 L 366.1735 345.2391 L 372.0365 348.4537 L 373.8642 349.1764 L 375.7316 349.651 L 380.7444 353.0861 L 384.4173 356.1461 L 387.4084 359.259 L 389.9529 362.675 L 391.2752 365.2624 L 392.9106 369.3798 L 395.4392 374.3597 L 396.5581 376.9471 L 397.3289 379.8545 L 398.4367 385.7901 L 399.3331 388.6742 L 400.6697 391.1938 L 404.1058 395.7901 L 400.808 398.5894 L 398.5209 400.2656 L 396.0289 401.6536 L 392.0953 403.5163 L 389.751 405.0569 L 382.046 411.5583 L 378.5495 413.9528 L 373.2571 416.3559 L 366.0797 420.522 L 360.7316 422.781 L 353.5495 426.9344 L 348.211 429.2103 L 341.0177 433.351 L 334.422 436.1737 L 325.4376 441.1874 L 321.9156 442.817 L 315.9684 446.2945 L 310.6489 448.6149 L 303.4652 452.7895 L 298.1299 455.0866 L 292.0857 458.3797 L 289.4267 459.3968 L 282.243 460.9226 L 279.4315 461.7575 L 272.1174 465.61 L 266.7916 467.9241 L 259.627 472.122 L 254.3027 474.4382 L 248.2554 477.7355 L 245.5964 478.7548 L 241.2957 479.702 L 235.0386 479.6956 Z" fill="#000000" fill-opacity="1" stroke="#000000" stroke-width="0" paint-order="fill" stroke-opacity="1" stroke-dasharray="" stroke-linecap="butt" stroke-linejoin="miter" stroke-miterlimit="10" transform="matrix(1.100000023841858,0,0,1.100000023841858,-40.000064849853516,-26.65019416809082)" clip-path="none" style="filter: url(#f1)"/>
<path data-code="208" d="M 219.6937 232.0498 L 212.5131 238.3943 L 204.1422 246.8474 L 197.885 246.841 L 196.9521 242.1409 L 195.9524 239.7251 L 195.2356 238.5151 L 193.5382 236.2519 L 191.5961 234.1667 L 189.4775 232.2511 L 186.1781 229.8141 L 186.1956 229.7802 L 183.7067 228.5448 L 179.4346 226.68 L 173.1202 224.2621 L 173.1202 224.1222 L 173.2362 224.1201 L 173.2362 223.9675 L 173.4667 223.9675 L 173.4667 223.8128 L 173.5827 223.8128 L 173.5827 223.6581 L 173.6987 223.6581 L 173.6987 223.5034 L 173.8148 223.5034 L 173.8148 223.3488 L 174.0452 223.3488 L 174.0452 223.1962 L 174.2773 223.1962 L 174.2773 223.0415 L 174.3933 223.0415 L 174.3933 222.8868 L 174.7397 222.8868 L 174.7397 222.7321 L 174.8558 222.7321 L 174.8558 222.5774 L 174.9718 222.5774 L 174.9718 222.2701 L 175.0878 222.2701 L 175.0878 222.1154 L 175.3183 222.1154 L 175.3183 221.8061 L 175.5503 221.8061 L 175.5503 221.6514 L 175.5503 221.4988 L 175.6663 221.4988 L 175.6663 221.3441 L 176.0128 221.3441 L 176.0128 221.1894 L 176.1288 221.1894 L 176.1288 221.0347 L 176.2448 221.0347 L 176.2448 220.88 L 176.4769 220.88 L 176.4769 220.7274 L 176.7073 220.7274 L 176.7073 220.5727 L 176.8233 220.5727 L 176.8233 220.418 L 176.9394 220.418 L 176.9394 220.2634 L 177.1698 220.2634 L 177.1698 220.1087 L 177.2858 220.1087 L 177.2858 219.954 L 177.4019 219.954 L 177.4019 219.6467 L 177.5179 219.6467 L 177.5179 219.3373 L 177.6339 219.3373 L 177.6339 219.03 L 177.7499 219.03 L 177.7499 218.8753 L 177.8644 218.8753 L 177.8644 218.7207 L 177.9804 218.7207 L 177.9804 218.566 L 178.2124 218.566 L 178.2124 218.4113 L 178.4429 218.4113 L 178.4429 218.2566 L 178.5589 218.2566 L 178.5589 218.104 L 178.7909 218.104 L 178.7909 217.9493 L 178.9069 217.9493 L 178.9069 217.8497 L 178.9069 217.7946 L 179.023 217.7946 L 179.023 217.6399 L 179.1374 217.6399 L 179.1374 217.4852 L 179.3694 217.4852 L 179.3694 217.3326 L 179.4855 217.3326 L 179.4855 217.178 L 179.6015 217.178 L 179.6015 217.0233 L 179.7159 217.0233 L 179.7159 216.8686 L 179.8319 216.8686 L 179.8319 216.7139 L 179.948 216.7139 L 179.948 216.5592 L 180.064 216.5592 L 180.064 216.4066 L 180.18 216.4066 L 180.18 216.2519 L 180.5265 216.2519 L 180.5265 216.0972 L 180.7585 216.0972 L 180.7585 215.7878 L 180.8745 215.7878 L 180.8745 215.6353 L 181.105 215.6353 L 181.105 215.4806 L 181.453 215.4806 L 181.453 215.3259 L 182.1476 215.3259 L 182.1476 215.1712 L 182.378 215.1712 L 182.378 215.0165 L 182.494 215.0165 L 182.494 214.7092 L 182.6101 214.7092 L 182.6101 214.3998 L 182.7261 214.3998 L 182.7261 214.2451 L 182.8421 214.2451 L 182.8421 214.0904 L 182.9565 214.0904 L 182.9565 213.9379 L 183.0726 213.9379 L 183.0726 213.7832 L 183.1886 213.7832 L 183.1886 213.4738 L 183.6511 213.4738 L 183.6511 213.6285 L 184.5776 213.6285 L 184.5776 213.4738 L 184.9241 213.4738 L 184.9241 213.3191 L 185.1562 213.3191 L 185.1562 213.1644 L 185.3882 213.1644 L 185.3882 213.0118 L 185.6186 213.0118 L 185.6186 212.8571 L 185.8507 212.8571 L 185.8507 212.7024 L 185.9667 212.7024 L 185.9667 212.5477 L 186.4292 212.5477 L 186.4292 212.2405 L 186.7757 212.2405 L 186.7757 212.0858 L 187.1237 212.0858 L 187.1237 211.7764 L 187.2398 211.7764 L 187.2398 211.1597 L 187.1237 211.1597 L 187.1237 211.005 L 188.1647 211.005 L 188.1647 210.8503 L 188.8593 210.8503 L 188.8593 210.6956 L 189.0913 210.6956 L 189.0913 210.5431 L 189.2073 210.5431 L 189.2073 210.079 L 189.4378 210.079 L 189.4378 209.9243 L 189.6698 209.9243 L 189.6698 209.617 L 189.9003 209.617 L 189.9003 209.4623 L 190.0163 209.4623 L 190.0163 209.3076 L 190.2483 209.3076 L 190.2483 209.1529 L 190.7108 209.1529 L 190.7108 208.9982 L 191.2893 208.9982 L 191.2893 208.8457 L 191.5214 208.8457 L 191.5214 208.691 L 191.6374 208.691 L 191.6374 208.5363 L 191.7518 208.5363 L 191.7534 208.3816 L 191.9839 208.3816 L 191.9839 208.2269 L 192.2159 208.2269 L 192.2159 208.0722 L 192.4464 208.0722 L 192.4464 207.7649 L 192.6784 207.7649 L 192.6784 207.6102 L 193.0249 207.6102 L 193.0249 207.4555 L 193.489 207.4555 L 193.489 207.3009 L 194.2979 207.3009 L 194.2979 207.1483 L 194.762 207.1483 L 194.762 206.9936 L 195.4565 206.9936 L 195.4565 206.8389 L 196.5468 206.8389 L 198.2331 206.8389 L 198.2331 206.9936 L 199.0436 206.9936 L 199.0436 207.1483 L 200.0052 207.1483 L 207.0189 215.3873 L 211.8059 221.8993 L 219.6937 232.0498 Z" fill="#000000" fill-opacity="1" stroke="#000000" stroke-width="0" paint-order="fill" stroke-opacity="1" stroke-dasharray="" stroke-linecap="butt" stroke-linejoin="miter" stroke-miterlimit="10" transform="matrix(1.100000023841858,0,0,1.100000023841858,-40.000064849853516,-26.65019416809082)" clip-path="none" style="filter: url(#f1)"/>
<path data-code="209" d="M 238.8402 232.9822 L 240.0672 238.2418 L 242.893 246.3642 L 245.1657 250.0133 L 250.6076 256.7817 L 252.9502 260.3672 L 255.331 265.8048 L 259.3918 273.1941 L 261.5993 278.6995 L 264.8368 284.9318 L 265.3867 286.2477 L 266.229 289.189 L 268.1346 298.8542 L 229.0818 298.6084 L 228.5383 295.6247 L 227.7388 292.7173 L 226.5913 290.1384 L 224.0008 285.167 L 221.7948 279.651 L 217.7674 272.2341 L 215.5583 266.7203 L 211.5373 259.3034 L 209.1867 253.8446 L 207.7023 251.4098 L 204.1422 246.8474 L 212.5131 238.3943 L 219.6937 232.0498 L 223.613 232.9843 L 227.1746 233.3742 L 232.4242 233.4187 L 238.8402 232.9822 Z" fill="#000000" fill-opacity="1" stroke="#000000" stroke-width="0" paint-order="fill" stroke-opacity="1" stroke-dasharray="" stroke-linecap="butt" stroke-linejoin="miter" stroke-miterlimit="10" transform="matrix(1.100000023841858,0,0,1.100000023841858,-40.000064849853516,-26.65019416809082)" clip-path="none" style="filter: url(#f1)"/>
<path data-code="210" d="M 238.8402 232.9822 L 233.365 225.4318 L 231.8584 223.0055 L 230.6362 220.4011 L 229.619 215.8938 L 229.2328 208.068 L 230.6282 204.9359 L 231.132 204.3235 L 231.9108 202.196 L 231.9108 202.0561 L 231.9617 202.0561 L 232.0268 202.0561 L 232.0268 201.9014 L 232.2589 201.9014 L 232.2589 201.7467 L 232.4893 201.7467 L 232.4893 201.9014 L 232.7214 201.9014 L 232.7214 202.0561 L 232.8374 202.0561 L 232.8374 201.9014 L 233.0678 201.9014 L 233.0678 201.7467 L 233.2999 201.7467 L 233.2999 201.592 L 233.5319 201.592 L 233.5319 201.4373 L 233.6479 201.4373 L 233.6479 201.2826 L 233.7624 201.2826 L 233.7624 201.13 L 233.8784 201.13 L 233.8784 200.9754 L 233.9944 200.9754 L 233.9944 200.8207 L 234.1104 200.8207 L 234.1104 200.666 L 234.4569 200.666 L 234.4569 200.5113 L 234.5729 200.5113 L 234.5729 200.666 L 234.805 200.666 L 234.805 200.8207 L 234.921 200.8207 L 234.921 200.9754 L 236.7725 200.9754 L 236.7725 200.8207 L 237.003 200.8207 L 237.003 200.666 L 237.235 200.666 L 237.235 200.5113 L 237.351 200.5113 L 237.351 200.3587 L 238.0456 200.3587 L 238.0456 200.0493 L 238.16 200.0493 L 238.16 199.8946 L 238.6241 199.8946 L 238.6241 199.7399 L 238.7401 199.7399 L 238.7401 199.5852 L 239.2026 199.5852 L 239.2026 199.4327 L 239.5491 199.4327 L 239.5491 199.278 L 239.6651 199.278 L 239.6651 199.1233 L 240.0132 199.1233 L 240.0132 198.9686 L 240.3596 198.9686 L 240.3596 198.8139 L 241.0542 198.8139 L 241.0542 198.6613 L 241.5167 198.6613 L 241.5167 198.8139 L 241.8647 198.8139 L 241.8647 198.6613 L 241.9792 198.6613 L 241.9792 198.8139 L 242.7897 198.8139 L 242.7897 198.6613 L 243.3682 198.6613 L 243.3682 198.8139 L 243.8307 198.8139 L 243.8307 198.9686 L 243.9467 198.9686 L 243.9467 199.1233 L 244.2948 199.1233 L 244.2948 198.9686 L 244.4108 198.9686 L 244.4108 198.8139 L 244.9893 198.8139 L 244.9893 198.6613 L 246.0303 198.6613 L 246.0303 198.8139 L 246.1464 198.8139 L 246.1464 198.6613 L 246.3768 198.6613 L 246.3768 198.8139 L 247.4194 198.8139 L 247.4194 198.9686 L 247.9979 198.9686 L 247.9979 199.1233 L 248.6924 199.1233 L 248.6924 199.278 L 249.387 199.278 L 249.387 199.4327 L 249.6174 199.4327 L 249.6174 199.5852 L 249.7334 199.5852 L 249.7334 199.7399 L 250.0815 199.7399 L 250.0815 199.8946 L 249.8495 199.8946 L 249.8495 200.204 L 249.503 200.204 L 249.503 199.8946 L 249.1549 199.8946 L 249.1549 199.7399 L 247.9979 199.7399 L 247.9979 199.5852 L 247.5354 199.5852 L 247.5354 199.4327 L 247.1874 199.4327 L 247.1874 199.278 L 246.8409 199.278 L 246.8409 199.1233 L 246.3768 199.1233 L 246.3768 198.9686 L 245.6839 198.9686 L 245.6839 199.278 L 245.5678 199.278 L 245.5678 199.8946 L 245.6839 199.8946 L 245.6839 200.0493 L 245.4518 200.0493 L 245.4518 200.204 L 245.3358 200.204 L 245.3358 200.3587 L 245.4518 200.3587 L 245.4518 200.666 L 246.2624 200.666 L 246.2624 200.5113 L 246.3768 200.5113 L 246.3768 200.3587 L 246.6088 200.3587 L 246.6088 200.0493 L 247.0713 200.0493 L 247.0713 199.8946 L 247.1874 199.8946 L 247.1874 200.0493 L 247.4194 200.0493 L 247.4194 200.3587 L 247.5354 200.3587 L 247.5354 200.8207 L 247.4194 200.8207 L 247.4194 200.9754 L 247.3034 200.9754 L 247.3034 201.2826 L 247.0713 201.2826 L 247.0713 201.592 L 246.9569 201.592 L 246.9569 203.1347 L 247.0713 203.1347 L 247.0713 203.2894 L 247.1874 203.2894 L 247.1874 203.5988 L 247.3034 203.5988 L 247.3034 203.7535 L 247.4194 203.7535 L 247.4194 203.9061 L 247.5354 203.9061 L 247.5354 204.0608 L 247.6498 204.0608 L 247.6498 204.2155 L 247.7659 204.2155 L 247.7659 204.3701 L 247.8819 204.3701 L 247.8819 204.6774 L 247.9979 204.6774 L 247.9979 204.8321 L 248.1139 204.8321 L 248.1139 204.9868 L 248.23 204.9868 L 248.23 205.1415 L 249.1549 205.1415 L 249.1549 205.2962 L 249.9655 205.2962 L 249.9655 205.4509 L 250.0815 205.4509 L 250.0815 205.6035 L 250.312 205.6035 L 250.312 205.7582 L 250.544 205.7582 L 250.544 205.9128 L 251.0065 205.9128 L 251.0065 206.0675 L 251.3546 206.0675 L 251.3546 206.2222 L 251.817 206.2222 L 251.817 206.0675 L 252.0491 206.0675 L 252.0491 206.2222 L 252.5116 206.2222 L 252.5116 206.3748 L 255.0577 206.3748 L 255.0577 206.5295 L 256.2147 206.5295 L 256.2147 206.6842 L 257.9471 206.6842 L 258.8768 206.6842 L 258.8768 206.5295 L 258.9928 206.5295 L 258.9928 206.3748 L 259.1232 206.3748 L 260.0338 206.3748 L 260.0338 206.2222 L 261.0748 206.2222 L 261.0748 205.9128 L 261.5389 205.9128 L 261.5389 205.7582 L 262.1174 205.7582 L 262.1174 205.6035 L 262.2335 205.6035 L 262.2335 205.4509 L 262.3479 205.4509 L 262.3479 205.2962 L 262.696 205.2962 L 262.696 205.1415 L 262.812 205.1415 L 262.812 204.9868 L 262.9264 204.9868 L 262.9264 204.8321 L 263.0424 204.8321 L 263.0424 204.6774 L 263.2745 204.6774 L 263.2745 204.5248 L 263.5065 204.5248 L 263.5065 204.3701 L 263.6209 204.3701 L 263.6209 204.2155 L 263.853 204.2155 L 263.853 204.0608 L 264.085 204.0608 L 264.085 203.9061 L 264.3155 203.9061 L 264.3155 203.7535 L 264.6635 203.7535 L 264.6635 203.5988 L 264.894 203.5988 L 264.894 203.4441 L 265.01 203.4441 L 265.01 203.2894 L 265.126 203.2894 L 265.126 203.1347 L 265.4725 203.1347 L 265.4725 202.98 L 265.5885 202.98 L 265.5885 202.8274 L 265.7045 202.8274 L 265.7045 202.6727 L 266.167 202.6727 L 266.167 202.5181 L 266.283 202.5181 L 266.283 202.3634 L 266.3991 202.3634 L 266.3991 202.2087 L 266.5151 202.2087 L 266.5151 201.9014 L 266.6311 201.9014 L 266.6311 201.6662 L 266.6311 201.4373 L 266.7455 201.4373 L 266.7455 201.2826 L 267.0936 201.2826 L 267.0936 201.13 L 267.4401 201.13 L 267.4401 200.9754 L 267.5561 200.9754 L 267.5561 200.8207 L 267.7881 200.8207 L 267.7881 200.666 L 267.9042 200.666 L 267.9042 200.5113 L 268.2506 200.5113 L 268.2506 200.3587 L 268.3666 200.3587 L 268.3666 200.204 L 268.4827 200.204 L 268.4827 200.0493 L 268.7131 200.0493 L 268.7131 199.8946 L 268.9452 199.8946 L 268.9452 199.7399 L 269.1772 199.7399 L 269.1772 199.5852 L 269.7557 199.5852 L 269.7557 199.4327 L 270.0195 199.4327 L 270.2182 199.4327 L 270.2182 199.278 L 270.4502 199.278 L 270.4502 199.1487 L 270.4502 198.9686 L 270.6807 198.9686 L 270.6807 198.8139 L 270.7967 198.8139 L 270.7967 198.6613 L 271.0288 198.6613 L 271.0288 198.5066 L 271.1432 198.5066 L 271.1432 198.3519 L 271.3752 198.3519 L 271.3752 198.1972 L 271.4913 198.1972 L 271.4913 198.0425 L 271.6073 198.0425 L 271.6073 197.8878 L 271.7233 197.8878 L 271.7233 197.7353 L 271.8377 197.7353 L 271.8377 197.4259 L 271.9537 197.4259 L 271.9537 197.2712 L 272.1858 197.2712 L 272.1858 196.8092 L 272.3018 196.8092 L 272.3018 196.4998 L 272.4162 196.4998 L 272.4162 196.3451 L 272.6483 196.3451 L 272.6483 196.1904 L 272.8803 196.1904 L 272.8803 196.0379 L 273.2268 196.0379 L 273.2268 196.1904 L 274.0373 196.1904 L 274.0373 196.0379 L 274.6159 196.0379 L 274.6159 195.8832 L 274.8479 195.8832 L 274.8479 195.7285 L 275.1944 195.7285 L 275.1944 195.5738 L 275.3104 195.5738 L 275.3104 195.4191 L 275.6569 195.4191 L 275.6569 195.2665 L 277.278 195.2665 L 277.278 195.4191 L 277.5084 195.4191 L 277.5084 195.5738 L 278.8975 195.5738 L 278.8975 195.4191 L 279.476 195.4191 L 279.476 195.2665 L 279.8241 195.2665 L 279.8241 195.1118 L 280.1705 195.1118 L 280.1705 194.9571 L 281.6756 194.9571 L 281.6756 195.1118 L 283.0647 195.1118 L 283.0647 195.2665 L 283.2951 195.2665 L 283.2951 195.1118 L 283.5272 195.1118 L 283.5272 195.2665 L 283.7592 195.2665 L 283.7592 195.1118 L 284.4538 195.1118 L 284.4538 194.9571 L 284.9162 194.9571 L 284.9162 194.8024 L 285.1467 194.8024 L 285.1467 194.6477 L 285.4948 194.6477 L 285.4948 194.493 L 285.8412 194.493 L 285.8412 194.3405 L 286.0733 194.3405 L 286.0733 194.1858 L 286.1893 194.1858 L 286.1893 194.0311 L 286.4197 194.0311 L 286.4197 193.8764 L 286.5358 193.8764 L 286.5358 193.7217 L 287.1143 193.7217 L 287.1143 193.5691 L 287.3463 193.5691 L 287.3463 193.4144 L 287.4623 193.4144 L 287.4623 193.2597 L 287.7754 193.2597 L 287.8088 193.2597 L 287.8088 193.105 L 287.9614 193.105 L 288.0409 193.105 L 288.0409 193.0393 L 288.0409 192.9503 L 288.1569 192.9419 L 288.1569 192.7956 L 288.3317 192.7956 L 288.5033 192.7956 L 288.5033 192.6537 L 288.5033 192.3337 L 288.7354 192.3337 L 288.7354 192.179 L 288.8514 192.179 L 288.8514 192.0243 L 288.9658 192.0243 L 288.9658 191.8717 L 289.4299 191.8717 L 289.4299 191.717 L 289.6302 191.717 L 289.6604 191.717 L 289.6604 191.5623 L 289.8161 191.5623 L 289.8924 191.5623 L 289.8924 191.4988 L 289.8924 191.4076 L 290.0005 191.4076 L 290.1245 191.4076 L 290.1245 191.3059 L 290.1245 191.2529 L 290.1864 191.2529 L 290.2389 191.2529 L 290.2389 191.0983 L 290.3549 191.0983 L 290.3549 190.9457 L 290.4709 190.9457 L 290.4709 190.791 L 290.7427 190.791 L 290.9334 190.791 L 290.9334 190.6363 L 291.0494 190.6363 L 291.0494 190.5473 L 291.0494 190.1743 L 291.1655 190.1743 L 291.1655 190.0196 L 291.3975 190.0196 L 291.3975 189.8649 L 291.976 189.8649 L 291.976 189.7102 L 292.3225 189.7102 L 292.3225 189.5556 L 292.6705 189.5556 L 292.6705 189.403 L 292.785 189.4009 L 292.785 189.2483 L 293.017 189.2483 L 293.017 189.0936 L 293.133 189.0936 L 293.133 188.9389 L 293.3651 188.9389 L 293.3651 188.7842 L 293.5955 188.7842 L 293.5955 188.6295 L 294.5221 188.6295 L 294.5221 188.4769 L 294.8686 188.4769 L 294.8686 188.3222 L 294.9846 188.3222 L 294.9846 188.1675 L 295.2166 188.1675 L 295.2166 188.0129 L 295.3311 188.0129 L 295.3311 188.1675 L 295.5854 188.1675 L 295.7952 188.1675 L 295.7952 188.0574 L 295.7952 188.0129 L 295.8794 188.0129 L 296.0256 188.0129 L 296.0256 187.9366 L 296.0256 187.8582 L 296.1734 187.8582 L 296.8362 187.8582 L 296.8362 187.7056 L 296.9522 187.7035 L 296.9522 187.5509 L 297.2986 187.5509 L 297.2986 187.3962 L 297.5307 187.3962 L 297.5307 187.2415 L 297.6467 187.2415 L 297.6467 187.0868 L 297.9932 187.0868 L 297.9932 186.9321 L 298.1092 186.9321 L 298.1092 186.8431 L 298.1092 186.7795 L 298.2252 186.7795 L 298.2252 186.6248 L 298.5256 186.6248 L 298.5717 186.6248 L 298.5717 186.5994 L 298.5717 186.4702 L 298.6877 186.4702 L 298.6877 186.3155 L 299.0358 186.3155 L 299.0358 186.1608 L 299.1502 186.1608 L 299.1502 186.0082 L 299.3822 186.0082 L 299.3822 185.8535 L 299.4983 185.8535 L 299.4983 185.6988 L 299.6143 185.6988 L 299.6143 185.5441 L 299.9608 185.5441 L 299.9608 185.3894 L 300.0768 185.3894 L 300.0768 185.2347 L 300.1928 185.2347 L 300.1928 185.0821 L 300.5393 185.0821 L 300.5393 184.9275 L 300.7713 184.9275 L 300.7713 184.7728 L 300.8873 184.7728 L 300.8873 184.6181 L 301.0018 184.6181 L 301.0018 184.4634 L 301.3498 184.4634 L 301.3498 184.3108 L 301.6963 184.3108 L 304.0453 187.197 L 307.4767 191.8293 L 308.969 194.2684 L 309.5714 195.5929 L 310.0514 197.0699 L 310.5647 200.1192 L 310.5806 203.2089 L 310.401 204.7473 L 309.573 207.7501 L 308.9388 209.047 L 308.1791 210.2528 L 306.388 212.4375 L 304.333 214.3617 L 302.073 216.0146 L 299.3902 217.4068 L 296.717 218.424 L 293.1362 216.5486 L 290.7904 215.9489 L 288.2506 216.2032 L 287.0571 216.7478 L 285.2484 218.5278 L 281.9681 224.0163 L 280.6982 226.502 L 279.7096 229.4454 L 279.0278 234.4359 L 278.8689 239.5577 L 278.9881 244.688 L 279.4983 249.723 L 279.8304 251.3526 L 280.819 254.2897 L 283.9801 260.5113 L 286.3784 265.8196 L 288.9166 269.1699 L 292.1524 271.8146 L 304.689 278.0214 L 307.9773 278.8457 L 313.1553 279.3458 L 329.2202 279.3077 L 330.7475 285.0843 L 333.0155 290.0049 L 333.9246 292.5605 L 334.1836 293.9973 L 334.1804 296.9216 L 333.5129 299.6722 L 330.6776 305.8388 L 327.9598 314.3321 L 325.8397 319.331 L 318.559 317.2861 L 315.9271 316.1926 L 309.9067 312.8296 L 304.5984 310.4605 L 297.4687 306.2265 L 292.2049 303.8426 L 287.4147 301.1852 L 284.8861 300.0282 L 281.9998 299.259 L 279.004 298.869 L 274.4092 298.6932 L 268.1346 298.8542 L 266.229 289.189 L 265.3867 286.2477 L 264.8368 284.9318 L 261.5993 278.6995 L 259.3918 273.1941 L 255.331 265.8048 L 252.9502 260.3672 L 250.6076 256.7817 L 245.1657 250.0133 L 242.893 246.3642 L 240.0672 238.2418 L 238.8402 232.9822 Z" fill="#000000" fill-opacity="1" stroke="#000000" stroke-width="0" paint-order="fill" stroke-opacity="1" stroke-dasharray="" stroke-linecap="butt" stroke-linejoin="miter" stroke-miterlimit="10" transform="matrix(1.100000023841858,0,0,1.100000023841858,-40.000064849853516,-26.65019416809082)" clip-path="none" style="filter: url(#f1)"/>
<path data-code="211" d="M 416.9761 159.9921 L 405.5187 167.3771 L 403.9739 168.0912 L 400.835 168.9876 L 395.9335 169.5153 L 389.2822 169.3309 L 384.3474 168.532 L 379.101 166.8389 L 372.8534 163.995 L 368.4986 162.3379 L 366.2211 161.1385 L 365.0625 160.3396 L 362.8502 158.5362 L 359.6874 155.5335 L 351.8076 147.2754 L 351.9236 147.2754 L 351.9236 147.1207 L 352.0396 147.1207 L 352.0396 146.9681 L 352.1557 146.9681 L 352.1557 146.8134 L 352.3877 146.8134 L 352.3877 146.3493 L 352.5021 146.3493 L 352.5021 146.1968 L 352.6181 146.1968 L 352.6181 146.0421 L 352.7342 146.0421 L 352.7342 145.8874 L 353.1967 145.8874 L 353.1967 145.7327 L 353.5447 145.7327 L 353.5447 145.578 L 353.6607 145.578 L 353.6607 145.4233 L 354.0072 145.4233 L 354.0072 145.2707 L 354.2393 145.2707 L 354.2393 144.8066 L 354.8178 144.8066 L 354.8178 144.6519 L 355.0482 144.6519 L 355.0482 144.4994 L 355.1642 144.4994 L 355.1642 144.3447 L 355.6267 144.3447 L 355.6267 144.0353 L 355.7428 144.0353 L 355.7428 143.8806 L 355.8588 143.8806 L 355.8588 143.7259 L 356.0908 143.7259 L 356.0908 143.5733 L 356.2068 143.5733 L 356.2068 143.4186 L 356.4373 143.4186 L 356.4373 143.2639 L 356.6693 143.2639 L 356.6693 143.1092 L 356.7853 143.1092 L 356.7853 142.9545 L 357.0158 142.9545 L 357.0158 142.802 L 357.1318 142.802 L 357.1318 142.4926 L 357.2478 142.4926 L 357.2478 142.1832 L 357.3639 142.1832 L 357.3639 142.0285 L 357.4799 142.0285 L 357.4799 141.8759 L 357.5943 141.8759 L 357.5943 141.7212 L 357.7103 141.7212 L 357.7103 141.5665 L 357.9424 141.5665 L 357.9424 141.4118 L 358.0584 141.4118 L 358.0584 141.1046 L 358.1728 141.1046 L 358.1728 140.9499 L 358.2888 140.9499 L 358.2888 140.7952 L 358.4049 140.7952 L 358.4049 140.4858 L 358.5209 140.4858 L 358.5209 140.3311 L 358.6369 140.3311 L 358.6369 140.1785 L 358.8674 140.1785 L 358.8674 140.0238 L 358.9834 140.0238 L 358.9834 139.8691 L 359.2154 139.8691 L 359.2154 139.7144 L 359.3314 139.7144 L 359.3314 139.5598 L 359.5619 139.5598 L 359.5619 139.4072 L 359.6779 139.4072 L 359.6779 139.2525 L 359.7939 139.2525 L 359.7939 139.0978 L 359.91 139.0978 L 359.91 138.7884 L 360.1404 138.7884 L 360.1404 138.6337 L 360.2564 138.6337 L 360.2564 138.4811 L 360.3724 138.4811 L 360.3724 138.1717 L 360.4885 138.1717 L 360.4885 137.8624 L 360.8349 137.8624 L 360.8349 137.7098 L 361.6455 137.7098 L 361.6455 137.5551 L 361.8775 137.5551 L 361.8775 137.4004 L 362.224 137.4004 L 362.224 137.2457 L 362.34 137.2457 L 362.34 136.9363 L 362.456 136.9363 L 362.456 136.7837 L 362.5721 136.7837 L 362.5721 136.629 L 362.6865 136.629 L 362.6865 136.4744 L 362.9185 136.4744 L 362.9185 136.3197 L 363.0346 136.3197 L 363.0346 136.0124 L 363.1506 136.0124 L 363.1506 135.8577 L 363.265 135.8577 L 363.265 135.703 L 363.381 135.703 L 363.381 135.5483 L 363.6131 135.5483 L 363.6131 135.3936 L 363.7291 135.3936 L 363.7291 135.2389 L 364.1916 135.2389 L 364.1916 135.0863 L 364.3076 135.0863 L 364.3076 134.9317 L 364.5381 134.9317 L 364.5381 134.777 L 364.6541 134.777 L 364.6541 134.6223 L 364.8861 134.6223 L 364.8861 134.4676 L 365.0021 134.4676 L 365.0021 134.315 L 365.1182 134.315 L 365.1182 134.1603 L 365.2326 134.1603 L 365.2326 134.0056 L 365.3486 134.0056 L 365.3486 133.8509 L 365.4646 133.8509 L 365.4646 133.6962 L 365.5807 133.6962 L 365.5807 133.5415 L 365.6967 133.5415 L 365.6967 133.389 L 365.8111 133.389 L 365.8111 133.2343 L 365.9271 133.2343 L 365.9271 133.0796 L 366.0431 133.0796 L 366.0431 132.7702 L 366.7377 132.7702 L 366.7377 132.6176 L 367.0841 132.6176 L 367.0841 132.4629 L 367.2002 132.4629 L 367.2002 131.9988 L 367.4322 131.9988 L 367.4322 131.8441 L 367.5482 131.8441 L 367.5482 131.6916 L 367.7787 131.6916 L 367.7787 131.5369 L 368.0107 131.5369 L 368.0107 131.3822 L 368.2428 131.3822 L 368.2428 131.2275 L 371.0193 131.2275 L 371.0193 131.3822 L 371.4818 131.3822 L 371.4834 131.5369 L 371.7138 131.5369 L 371.7138 131.6916 L 372.4084 131.6916 L 372.4084 131.8441 L 372.6404 131.8441 L 372.6404 131.6916 L 372.7548 131.6916 L 372.7564 131.3822 L 372.8709 131.3822 L 372.8709 131.2275 L 373.1029 131.2275 L 373.1029 131.3822 L 373.2189 131.3822 L 373.2189 131.5369 L 373.4494 131.5369 L 373.4494 131.3822 L 373.6814 131.3822 L 373.6814 131.2275 L 374.0279 131.2275 L 374.0295 131.0728 L 374.376 131.0728 L 374.376 130.9202 L 374.608 130.9202 L 374.608 130.7655 L 374.8384 130.7655 L 374.8384 130.6108 L 375.0705 130.6108 L 375.0705 130.4561 L 375.1865 130.4561 L 375.1865 130.1467 L 375.417 130.1467 L 375.417 129.9942 L 375.533 129.9942 L 375.533 129.6848 L 375.649 129.6848 L 375.649 129.5301 L 375.765 129.5301 L 375.765 129.3754 L 375.9955 129.3754 L 375.9955 129.0681 L 376.1115 129.0681 L 376.1115 128.9134 L 376.2275 128.9134 L 376.2275 128.604 L 376.3435 128.604 L 376.3435 128.4896 L 376.3435 128.4493 L 376.4611 128.4493 L 376.574 128.4493 L 376.574 128.4133 L 376.574 128.2968 L 376.69 128.2968 L 376.69 128.1421 L 376.806 128.1421 L 376.806 127.9874 L 377.1541 127.9874 L 377.1541 127.8327 L 377.5006 127.8327 L 377.5006 127.678 L 378.3111 127.678 L 378.3111 127.8327 L 378.6576 127.8327 L 378.6576 127.9874 L 379.1201 127.9874 L 379.1201 127.678 L 379.2361 127.678 L 379.2361 127.5254 L 379.3521 127.5254 L 379.3521 127.3707 L 379.5842 127.3707 L 379.5842 127.216 L 379.7002 127.216 L 379.7002 126.9066 L 379.8146 126.9066 L 379.8146 126.7519 L 379.9306 126.7519 L 379.9306 126.5994 L 380.0467 126.5994 L 380.0467 126.4447 L 380.2787 126.4447 L 380.2787 126.29 L 380.3931 126.29 L 380.3931 125.9806 L 380.5091 125.9806 L 380.5091 126.29 L 381.5517 126.29 L 381.5517 126.1353 L 381.6662 126.1353 L 381.6662 125.828 L 381.7822 125.828 L 381.7822 125.6733 L 381.8982 125.6733 L 381.8982 125.5186 L 382.0142 125.5186 L 382.0142 125.2092 L 382.1303 125.2092 L 382.1303 125.0546 L 382.2463 125.0546 L 382.2463 124.902 L 382.3607 124.902 L 382.3607 124.7473 L 382.4767 124.7473 L 382.4767 124.5926 L 382.7088 124.5926 L 382.7088 124.4379 L 382.8248 124.4379 L 382.8248 124.2832 L 382.9392 124.2832 L 382.9392 124.1306 L 383.2873 124.1306 L 383.2873 124.2832 L 383.5193 124.2832 L 383.5193 124.5926 L 383.6337 124.5926 L 383.6337 124.902 L 383.7498 124.902 L 383.7498 125.0546 L 383.6337 125.0546 L 383.6337 125.2092 L 383.5193 125.2092 L 383.5193 125.5186 L 383.6337 125.5186 L 383.6337 125.6733 L 383.8658 125.6733 L 383.8658 125.828 L 383.9818 125.828 L 383.9818 125.9403 L 383.9818 125.9806 L 384.2123 125.9806 L 384.2123 126.1353 L 384.3283 126.1353 L 384.3283 126.29 L 384.4443 126.29 L 384.4443 126.4447 L 384.7924 126.4447 L 384.7924 126.29 L 384.9068 126.29 L 384.9068 126.1353 L 385.0228 126.1353 L 385.0228 125.9806 L 385.2549 125.9806 L 385.2549 125.828 L 385.4853 125.828 L 385.4853 125.9806 L 385.8334 125.9806 L 385.8334 125.828 L 386.0654 125.828 L 386.0654 125.6733 L 386.1798 125.6733 L 386.1798 125.5186 L 386.4119 125.5186 L 386.4119 125.3639 L 386.6439 125.3639 L 386.6439 125.2092 L 386.7584 125.2092 L 386.7584 125.0546 L 386.8744 125.0546 L 386.8744 124.974 L 386.8744 124.902 L 387.0937 124.902 L 387.2224 124.902 L 387.2224 124.7473 L 387.7231 124.7473 L 387.8009 124.7367 L 387.8009 124.5926 L 388.1474 124.5926 L 388.1474 124.4379 L 388.6115 124.4379 L 388.6115 124.2832 L 388.7259 124.2832 L 388.7259 124.1306 L 388.958 124.1306 L 388.958 123.9759 L 389.3044 123.9759 L 389.3044 123.8212 L 389.7685 123.8212 L 389.7685 123.6665 L 390.115 123.6665 L 390.115 123.5119 L 390.4631 123.5119 L 390.4631 123.3572 L 390.5775 123.3572 L 390.5775 123.2046 L 390.6935 123.2046 L 390.6935 123.0499 L 392.6611 123.0499 L 392.6611 123.2046 L 393.1236 123.2046 L 393.1236 123.0499 L 393.8181 123.0499 L 393.8181 122.8952 L 394.6175 122.8952 L 394.9767 122.8952 L 394.9767 122.7405 L 395.3232 122.7405 L 395.3232 122.5858 L 395.4392 122.5858 L 395.4392 122.4332 L 395.5552 122.4332 L 395.5552 122.2785 L 395.6697 122.2785 L 395.6697 122.198 L 395.6697 122.1238 L 395.7857 122.1217 L 395.7857 121.9692 L 396.0161 121.9692 L 396.1338 121.9692 L 396.1338 121.8929 L 396.1338 121.8145 L 396.2498 121.8145 L 396.2498 121.6598 L 396.3642 121.6598 L 396.3642 121.5072 L 396.5963 121.5072 L 396.5963 121.3525 L 396.7123 121.3525 L 396.7123 121.1978 L 396.8283 121.1978 L 396.8283 121.0431 L 397.1748 121.0431 L 397.1748 120.8884 L 397.5228 120.8884 L 397.5228 120.7358 L 397.6373 120.7358 L 397.6373 120.5811 L 397.7533 120.5811 L 397.7533 119.9645 L 397.8693 119.9624 L 397.8693 119.8098 L 397.9853 119.8098 L 397.9853 119.9624 L 398.4478 119.9645 L 398.4478 120.1171 L 399.2584 120.1171 L 399.2584 120.2718 L 399.7209 120.2718 L 399.7209 120.4264 L 399.8369 120.4264 L 399.8369 120.5811 L 399.9529 120.5811 L 399.9529 120.7358 L 400.1833 120.7358 L 400.1833 120.8312 L 400.1833 120.8884 L 400.9939 120.8884 L 400.9939 120.7358 L 401.2196 120.7358 L 402.1509 120.7358 L 402.1509 120.6468 L 402.1509 120.5811 L 402.2669 120.5811 L 402.2669 120.7358 L 402.499 120.7358 L 402.499 120.5811 L 402.8455 120.5811 L 402.8455 120.4264 L 402.9615 120.4264 L 402.9615 120.5727 L 403.308 120.5811 L 403.308 120.4264 L 403.656 120.4264 L 403.656 120.2718 L 404.0025 120.2718 L 404.0025 120.1171 L 404.2345 120.1171 L 404.2345 119.9645 L 405.0451 119.9624 L 405.0451 119.8098 L 405.3916 119.8098 L 405.3916 119.6551 L 405.6236 119.6551 L 405.6236 119.5004 L 406.2021 119.5004 L 406.2021 119.3457 L 406.7806 119.3457 L 406.7806 119.191 L 408.1697 119.191 L 408.1697 119.3457 L 408.2857 119.3457 L 408.2857 119.5004 L 408.9787 119.5004 L 408.9787 119.6551 L 409.0947 119.6551 L 409.0947 119.8098 L 409.5588 119.8098 L 409.5588 119.956 L 409.9052 119.9645 L 409.9052 120.1171 L 410.5712 120.1171 L 410.5998 120.1171 L 410.5998 120.2718 L 410.7507 120.2718 L 412.1048 120.2718 L 412.1048 120.4264 L 411.9888 120.4264 L 411.9888 121.0431 L 412.1048 121.0431 L 412.1048 121.3525 L 412.4513 121.3525 L 412.4513 121.5072 L 412.5673 121.5072 L 412.5673 121.6598 L 412.7978 121.6598 L 412.7978 121.8145 L 412.9138 121.8145 L 412.9138 121.9692 L 413.1459 121.9692 L 413.1459 122.1238 L 413.2619 122.1238 L 413.2619 122.2785 L 413.4923 122.2785 L 413.4923 122.4332 L 413.6083 122.4332 L 413.6083 122.5858 L 413.8404 122.5858 L 413.8404 122.7405 L 413.9564 122.7405 L 413.9564 122.8952 L 414.6509 122.8952 L 414.6509 123.0499 L 414.7654 123.0499 L 414.7654 123.1135 L 414.7654 123.2046 L 414.9974 123.2046 L 414.9974 123.3487 L 415.7015 123.3572 L 415.808 123.3572 L 415.808 123.5119 L 416.1544 123.5119 L 416.1544 123.6665 L 416.3865 123.6665 L 416.3865 123.5119 L 417.4354 123.5119 L 417.5435 123.5119 L 417.5435 123.6665 L 418.006 123.6665 L 418.006 123.5119 L 419.3951 123.5119 L 419.3951 123.6665 L 419.6271 123.6665 L 419.6271 123.5119 L 419.8576 123.5119 L 419.8576 123.6665 L 419.9736 123.6665 L 419.9736 123.8212 L 420.6681 123.8212 L 420.6681 123.9759 L 421.4787 123.9759 L 421.4787 123.8212 L 421.8251 123.8212 L 421.8251 123.6665 L 422.1732 123.6665 L 422.1732 123.5119 L 422.5197 123.5119 L 422.5197 123.3572 L 422.8677 123.3572 L 422.8677 123.2957 L 422.8677 123.2046 L 423.3302 123.2046 L 423.3302 123.0499 L 423.6767 123.0499 L 423.6767 122.8952 L 423.7927 122.8952 L 423.7927 122.7405 L 424.0248 122.7405 L 424.0248 122.5858 L 424.2552 122.5858 L 424.2552 122.2785 L 424.6033 122.2785 L 424.6033 122.1238 L 424.9497 122.1238 L 424.9497 121.9692 L 425.0658 121.9692 L 425.0658 121.8145 L 425.4138 121.8145 L 425.4138 121.6598 L 425.7603 121.6598 L 425.7603 121.5072 L 425.8763 121.5072 L 425.8763 121.3525 L 426.2228 121.3525 L 426.2228 121.1978 L 426.3388 121.1978 L 426.3388 121.0431 L 426.5772 121.0431 L 426.6869 121.0431 L 426.6869 120.8884 L 426.8013 120.8884 L 426.8013 120.8058 L 426.8013 120.7358 L 426.868 120.7358 L 426.9173 120.7358 L 426.9173 120.5811 L 427.0333 120.5811 L 427.0333 120.56 L 427.0333 120.4264 L 427.1605 120.4264 L 427.3798 120.4264 L 427.3798 120.2718 L 427.7279 120.2718 L 427.7279 120.1171 L 428.0743 120.1171 L 428.0743 119.9645 L 428.1904 119.9624 L 428.1904 119.8098 L 428.3064 119.8098 L 428.3064 119.6551 L 428.6529 119.6551 L 428.6529 119.5004 L 428.7689 119.5004 L 428.7689 119.3457 L 428.8849 119.3457 L 428.8849 119.191 L 429.233 119.191 L 429.233 119.0384 L 429.3474 119.0384 L 429.3474 118.8837 L 429.5906 118.8837 L 429.5381 150.062 L 425.1865 154.368 L 422.0699 157.0571 L 419.8496 158.568 L 416.9761 159.9921 Z" fill="#000000" fill-opacity="1" stroke="#000000" stroke-width="0" paint-order="fill" stroke-opacity="1" stroke-dasharray="" stroke-linecap="butt" stroke-linejoin="miter" stroke-miterlimit="10" transform="matrix(1.100000023841858,0,0,1.100000023841858,-40.000064849853516,-26.65019416809082)" clip-path="none" style="filter: url(#f1)"/>












</svg>