<?xml version="1.0" standalone="no"?>
<!-- Generator: Paintmaps.com , Online SVG vector map maker -->
<svg xmlns="http://www.w3.org/2000/svg" version="1.1" baseProfile="full"   style="background-color:#e0f2f1" width="800" height="500" viewBox="0 0 800 533">

<path data-code="200" d="M 361.044 145.9467 L 361.7003 161.901 L 362.094 166.2119 L 363.0536 170.2874 L 365.8011 175.9828 L 366.6586 178.5028 L 367.137 182.6561 L 366.9314 185.46 L 366.647 186.8445 L 365.6145 189.4812 L 364.0861 191.834 L 361.3269 195.0559 L 354.445 202.3438 L 351.8915 205.7018 L 350.579 208.1305 L 348.3667 213.0072 L 345.2006 218.6791 L 343.1312 223.7095 L 340.2772 229.4106 L 339.3978 231.9753 L 338.7066 236.1793 L 338.043 250.0374 L 327.753 243.7801 L 323.728 242.454 L 319.1167 241.9426 L 314.2823 241.8376 L 307.7168 242.0029 L 301.5641 242.4618 L 295.7074 233.0234 L 293.9223 229.5389 L 293.1261 226.8867 L 292.0644 221.5005 L 291.3294 218.8133 L 288.6504 212.9566 L 287.7638 210.4405 L 286.355 203.6504 L 285.5996 201.0137 L 282.8783 195.2251 L 282.0018 192.6681 L 281.312 188.4428 L 281.0379 184.0756 L 280.9402 176.7139 L 281.1968 170.8902 L 281.611 168.0494 L 282.4218 165.3096 L 283.0548 163.9855 L 284.6502 161.551 L 288.5221 157.1332 L 298.9711 146.4873 L 301.7595 143.0903 L 303.2907 140.65 L 305.4607 135.6411 L 307.8408 131.0775 L 308.8908 128.6936 L 309.6287 126.0122 L 310.9383 119.2182 L 311.771 116.7546 L 313.715 112.3387 L 314.2954 110.0715 L 314.4441 108.5276 L 318.7958 106.7406 L 321.5798 106.0115 L 325.4955 105.6984 L 328.0942 105.9842 L 329.3119 106.3187 L 331.4747 107.4815 L 332.3249 108.3234 L 335.7141 113.4412 L 338.3712 116.6768 L 341.4731 119.6421 L 343.8239 121.2677 L 346.5029 122.3818 L 349.3875 122.9185 L 359.4588 123.1266 L 362.0926 123.4007 L 364.5207 124.2583 L 365.5984 125.0983 L 366.383 126.1444 L 367.2201 128.5361 L 367.3601 131.0969 L 366.9664 133.7161 L 366.0709 136.1894 L 362.9165 141.7584 L 361.044 145.9467 Z" fill="#000000" fill-opacity="1" stroke="#000000" stroke-width="0" paint-order="fill" stroke-opacity="1" stroke-dasharray="" stroke-linecap="butt" stroke-linejoin="miter" stroke-miterlimit="10" clip-path="none" style="filter: url(#f1)"/>
<path data-code="201" d="M 314.4441 108.5276 L 312.5731 102.7914 L 310.6218 98.5078 L 309.3545 96.4292 L 308.4941 95.5211 L 307.3712 94.7433 L 306.136 94.1911 L 303.4599 93.565 L 299.1301 93.2928 L 291.4927 93.6194 L 284.0173 94.4886 L 291.8705 81.2994 L 293.9588 76.2574 L 297.6338 69.4401 L 299.5968 64.297 L 302.8284 57.5809 L 310.5372 57.8492 L 325.7069 58.0437 L 330.012 58.5278 L 332.6953 59.2551 L 333.8809 59.7645 L 339.3935 62.8056 L 344.2439 64.929 L 350.7729 68.8101 L 355.5957 71.0793 L 359.0651 73.5215 L 364.5309 78.2271 L 366.8103 79.9246 L 369.2078 81.2527 L 373.9649 83.4577 L 379.4366 86.6388 L 384.3075 88.8127 L 386.6234 90.3041 L 390.9021 94.0258 L 396.7909 100.3628 L 398.557 102.5951 L 400.1145 104.9109 L 402.9626 110.9776 L 404.3845 113.0932 L 407.1014 115.7785 L 409.2962 117.1551 L 412.8298 118.8079 L 418.319 121.8471 L 420.8244 122.7571 L 423.5457 123.2588 L 429.1705 123.566 L 434.8989 123.4202 L 439.2389 123.0255 L 445.0606 122.1213 L 441.371 128.8161 L 439.7668 130.9063 L 437.922 132.7536 L 434.6918 134.9625 L 425.5626 139.5436 L 422.9609 140.4186 L 418.5902 141.0525 L 409.6346 141.4531 L 405.242 141.945 L 401.2797 143.1214 L 395.6082 145.7639 L 392.7061 146.5281 L 389.6757 146.9423 L 381.8619 147.2553 L 372.3549 147.1134 L 366.0345 146.672 L 361.044 145.9467 L 362.9165 141.7584 L 366.0709 136.1894 L 366.9664 133.7161 L 367.3601 131.0969 L 367.2201 128.5361 L 366.383 126.1444 L 365.5984 125.0983 L 364.5207 124.2583 L 362.0926 123.4007 L 359.4588 123.1266 L 349.3875 122.9185 L 346.5029 122.3818 L 343.8239 121.2677 L 341.4731 119.6421 L 338.3712 116.6768 L 335.7141 113.4412 L 332.3249 108.3234 L 331.4747 107.4815 L 329.3119 106.3187 L 328.0942 105.9842 L 325.4955 105.6984 L 321.5798 106.0115 L 318.7958 106.7406 L 314.4441 108.5276 Z" fill="#000000" fill-opacity="1" stroke="#000000" stroke-width="0" paint-order="fill" stroke-opacity="1" stroke-dasharray="" stroke-linecap="butt" stroke-linejoin="miter" stroke-miterlimit="10" clip-path="none" style="filter: url(#f1)"/>
<path data-code="202" d="M 89.5516 184.832 L 109.6315 163.9252 L 115.6326 157.9926 L 117.7122 156.1921 L 119.8837 154.5976 L 122.2098 153.324 L 125.8206 151.6576 L 128.0577 150.209 L 130.1825 148.4901 L 135.2401 143.6289 L 149.0185 129.2536 L 152.135 126.5099 L 154.3721 124.9777 L 155.5679 124.3652 L 158.1448 123.5077 L 163.4007 122.4402 L 165.9455 121.6993 L 171.544 118.9129 L 172.7209 118.4288 L 175.3634 117.7482 L 179.5139 117.3146 L 192.3196 117.1785 L 197.9313 116.8168 L 200.6394 116.3074 L 207.7036 114.2715 L 214.3333 112.9123 L 223.4056 110.0618 L 229.083 107.2968 L 231.673 106.3965 L 234.5911 105.8267 L 242.0389 104.9615 L 244.9526 104.4073 L 247.5339 103.5323 L 252.0708 101.3934 L 254.6535 100.5106 L 267.9332 98.4806 L 270.5014 97.6114 L 275.0033 95.5542 L 277.4474 94.8094 L 280.0652 94.4536 L 284.0173 94.4886 L 291.4927 93.6194 L 299.1301 93.2928 L 303.4599 93.565 L 306.136 94.1911 L 307.3712 94.7433 L 308.4941 95.5211 L 309.3545 96.4292 L 310.6218 98.5078 L 312.5731 102.7914 L 314.4441 108.5276 L 314.2954 110.0715 L 313.715 112.3387 L 311.771 116.7546 L 310.9383 119.2182 L 309.6287 126.0122 L 308.8908 128.6936 L 307.8408 131.0775 L 305.4607 135.6411 L 303.2907 140.65 L 301.7595 143.0903 L 298.9711 146.4873 L 288.5221 157.1332 L 284.6502 161.551 L 283.0548 163.9855 L 282.4218 165.3096 L 281.611 168.0494 L 281.1968 170.8902 L 280.9402 176.7139 L 281.0379 184.0756 L 281.312 188.4428 L 282.0018 192.6681 L 282.8783 195.2251 L 285.5996 201.0137 L 286.355 203.6504 L 287.7638 210.4405 L 288.6504 212.9566 L 291.3294 218.8133 L 292.0644 221.5005 L 293.1261 226.8867 L 293.9223 229.5389 L 295.7074 233.0234 L 301.5641 242.4618 L 292.5194 241.9737 L 284.8923 241.8104 L 278.8372 241.8454 L 274.3791 242.1565 L 271.4974 242.6874 L 268.9205 243.6168 L 263.3934 246.6463 L 258.5823 248.9388 L 256.23 250.4982 L 249.5814 255.9991 L 247.2904 257.6655 L 241.3053 260.7416 L 238.953 262.3225 L 236.7553 264.193 L 234.7107 266.26 L 232.0303 269.6609 L 230.6711 272.1537 L 229.8311 274.7048 L 228.5857 279.6281 L 227.594 281.7476 L 223.7965 285.8971 L 220.6114 290.4821 L 212.6824 288.0904 L 205.9668 284.5029 L 201.0726 282.3562 L 194.4211 278.8095 L 186.1114 276.274 L 180.8803 272.7273 L 173.7943 270.6525 L 171.4259 269.7017 L 165.9017 266.6781 L 161.0221 264.4964 L 154.4391 260.6425 L 149.5974 258.4394 L 144.0586 255.4449 L 141.4132 254.4941 L 136.8194 253.7669 L 132.0798 253.551 L 82.7047 253.6288 L 88.6183 244.7368 L 90.3829 241.2076 L 91.3877 236.7451 L 91.9944 225.9086 L 92.4946 221.3858 L 93.6539 217.4327 L 96.3431 211.6013 L 97.0621 208.8927 L 97.4529 206.0752 L 97.5171 200.3429 L 97.154 197.5098 L 96.381 194.774 L 94.4852 191.3031 L 89.5516 184.832 Z" fill="#000000" fill-opacity="1" stroke="#000000" stroke-width="0" paint-order="fill" stroke-opacity="1" stroke-dasharray="" stroke-linecap="butt" stroke-linejoin="miter" stroke-miterlimit="10" clip-path="none" style="filter: url(#f1)"/>
<path data-code="203" d="M 487.7638 294.721 L 494.4416 302.565 L 496.0253 304.6494 L 497.3772 306.8544 L 497.9139 308.025 L 498.6241 310.3797 L 500.0606 317.5801 L 500.4733 318.7409 L 501.707 321.0606 L 504.1279 324.232 L 512.3879 333.1241 L 513.9921 335.2552 L 515.2755 337.6041 L 515.7261 338.8758 L 516.289 341.5105 L 516.6667 346.953 L 516.5034 353.8306 L 516.2292 356.5392 L 515.7173 359.1778 L 514.819 361.6706 L 511.7988 367.3348 L 509.6477 372.3282 L 507.3348 375.7932 L 504.5581 379.0113 L 476.3392 407.9759 L 473.1833 410.7818 L 470.9768 412.4054 L 468.8783 413.5682 L 465.0676 415.3571 L 462.9705 416.8057 L 460.1588 419.5104 L 455.673 425.3069 L 452.3115 424.0799 L 446.9492 421.1088 L 442.1162 418.9913 L 436.5833 415.9851 L 434.1026 415.0654 L 430.0266 414.3362 L 416.2 413.3465 L 417.7036 409.4595 L 419.3063 404.1473 L 420.4905 401.6195 L 422.0786 399.3017 L 423.9015 397.1259 L 431.6862 388.755 L 433.372 386.4936 L 434.7035 383.9988 L 435.4895 381.261 L 435.8745 378.4202 L 436.2829 368.2565 L 436.6999 364.0351 L 437.2906 361.4217 L 438.9108 357.0759 L 439.2783 354.867 L 438.8933 352.6386 L 435.1891 343.3636 L 431.463 336.5949 L 429.8749 332.8343 L 428.6499 330.4621 L 427.1682 328.3212 L 424.6205 325.2859 L 416.4071 317.0006 L 421.5055 315.5364 L 428.6163 312.8356 L 431.0226 311.5775 L 433.2335 309.9481 L 436.3354 307.1092 L 446.1675 296.7491 L 449.2096 293.8324 L 452.5346 291.3804 L 455.0707 290.2799 L 459.1628 289.5254 L 463.3803 289.2979 L 471.9277 289.3582 L 477.5408 289.8288 L 480.2504 290.4179 L 482.6611 291.396 L 487.7638 294.721 Z" fill="#000000" fill-opacity="1" stroke="#000000" stroke-width="0" paint-order="fill" stroke-opacity="1" stroke-dasharray="" stroke-linecap="butt" stroke-linejoin="miter" stroke-miterlimit="10" clip-path="none" style="filter: url(#f1)"/>
<path data-code="204" d="M 627.2266 162.5602 L 622.5832 168.2283 L 617.0649 174.2425 L 612.2596 178.9189 L 609.1694 181.3164 L 607.1029 182.4559 L 603.2048 184.1261 L 598.8093 186.5781 L 596.5154 187.6612 L 594.2112 188.3281 L 588.2714 189.3898 L 585.9336 190.0256 L 583.698 190.9765 L 576.5375 194.4843 L 569.1758 198.7212 L 566.3306 199.8237 L 563.3424 200.4207 L 558.7151 200.7921 L 550.8371 200.8504 L 539.7231 200.6229 L 530.6303 200.131 L 527.3024 198.8126 L 517.2632 193.4129 L 515.3046 191.9331 L 513.5838 190.2356 L 510.0896 185.6603 L 509.2467 184.8534 L 508.1354 184.1359 L 505.5658 183.2239 L 502.7264 182.7728 L 498.1953 182.5395 L 487.1601 182.7456 L 480.8381 183.3425 L 473.8702 184.8378 L 472.7035 180.0272 L 470.077 172.6888 L 469.5054 171.4308 L 468.1374 169.2044 L 463.1776 163.1513 L 461.0776 159.9429 L 460.2741 157.4035 L 460.2157 154.6793 L 460.4666 153.3396 L 461.3795 150.9965 L 463.7405 146.6176 L 465.8726 141.6417 L 469.7154 134.8847 L 471.8095 129.8408 L 475.5604 123.0527 L 477.6006 117.9932 L 480.5684 112.2785 L 481.4798 109.7584 L 482.3052 105.6692 L 483.5186 102.4745 L 484.9448 100.6778 L 491.9099 95.9722 L 494.1018 94.7142 L 499.0033 92.6258 L 505.7816 89.1569 L 508.3731 88.3811 L 514.9663 86.9538 L 517.4003 86.0477 L 523.0572 83.2963 L 528.2722 81.978 L 532.2272 81.1282 L 534.6685 80.1949 L 540.2131 77.1577 L 545.1117 75.0654 L 551.6844 71.2096 L 556.5276 69.0104 L 560.3805 66.4807 L 565.5022 64.4409 L 567.9756 63.2101 L 570.1719 61.7381 L 574.2392 58.2867 L 579.3463 56.7603 L 584.7509 53.9875 L 587.2068 53.3011 L 589.8668 53.3011 L 591.1968 53.5967 L 592.5078 54.1159 L 594.8864 55.6092 L 597.0287 57.4817 L 599.8681 60.7542 L 601.4037 63.2412 L 602.4056 65.9965 L 602.8212 68.8354 L 602.76 73.1326 L 602.3604 75.956 L 601.2389 79.8974 L 595.2772 84.3677 L 589.0705 90.2166 L 580.058 99.4003 L 577.3454 102.6203 L 575.82 104.9556 L 575.209 106.2254 L 574.3952 108.9709 L 573.984 111.8157 L 573.7958 114.711 L 573.8498 122.0007 L 574.1167 124.8805 L 574.6811 127.6941 L 575.1448 129.0572 L 576.4836 131.5752 L 579.0867 134.9547 L 585.0892 141.1536 L 588.2932 143.9809 L 590.5464 145.6239 L 592.9453 146.9112 L 596.6029 148.4901 L 603.1814 152.2895 L 608.0727 154.3798 L 614.6761 158.1579 L 623.0441 161.3196 L 627.2266 162.5602 Z" fill="#000000" fill-opacity="1" stroke="#000000" stroke-width="0" paint-order="fill" stroke-opacity="1" stroke-dasharray="" stroke-linecap="butt" stroke-linejoin="miter" stroke-miterlimit="10" clip-path="none" style="filter: url(#f1)"/>
<path data-code="205" d="M 705.7802 361.062 L 706.298 363.7979 L 707.0359 366.4598 L 709.7659 372.2718 L 710.6672 374.7802 L 712.0905 381.5799 L 712.862 384.2147 L 715.6474 389.98 L 716.5355 392.5389 L 717.1845 396.7622 L 717.2968 399.6459 L 717.1976 402.5276 L 716.5501 406.7587 L 715.6343 409.3293 L 712.6067 415.0051 L 710.4936 420.0238 L 706.7588 426.8197 L 704.7346 431.8947 L 701.6736 437.5745 L 698.9392 443.61 L 698.2537 444.697 L 696.6146 446.6726 L 694.6925 448.3506 L 693.6366 449.0506 L 688.8853 451.2557 L 683.4107 454.3959 L 678.6215 456.5699 L 676.2109 457.8843 L 673.9184 459.5701 L 668.4248 464.2524 L 666.1396 465.946 L 663.7377 467.2721 L 658.9776 469.4849 L 653.5089 472.703 L 648.6599 474.9236 L 646.4942 476.3216 L 642.4327 479.6836 L 630.2031 479.7011 L 624.2399 479.2578 L 619.9947 478.2797 L 613.1521 475.1939 L 610.3623 474.4666 L 605.98 473.93 L 597.0549 473.3641 L 592.7324 472.6486 L 589.9572 471.6725 L 584.5074 469.1544 L 581.5513 468.3883 L 576.8934 467.8458 L 567.3718 467.4588 L 567.9508 460.5132 L 568.4962 457.721 L 568.9439 456.3637 L 570.3016 453.7737 L 572.0429 451.4365 L 574.0175 449.2879 L 576.1598 447.322 L 579.6832 444.8856 L 584.5803 442.7662 L 589.0341 440.3842 L 591.3543 439.3361 L 593.9574 438.6206 L 600.5871 437.3567 L 603.0356 436.4389 L 610.4644 432.1494 L 612.3719 430.6891 L 613.7865 428.7233 L 618.1338 421.1418 L 619.232 418.7229 L 620.6757 414.9021 L 623.5355 409.1232 L 624.4062 406.5954 L 626.0395 398.4384 L 627.1216 395.8017 L 629.6037 392.2258 L 631.5754 390.0772 L 633.7119 388.1133 L 637.2265 385.6827 L 642.1163 383.5633 L 648.743 379.8396 L 653.6022 377.6443 L 657.0833 375.2196 L 662.5375 370.4751 L 664.8081 368.7368 L 667.2056 367.3562 L 670.8325 365.6859 L 676.3451 362.639 L 677.5351 362.1645 L 680.1878 361.5753 L 684.2303 361.5034 L 686.8262 361.8942 L 692.1681 363.8523 L 694.2462 364.1362 L 696.3112 363.5684 L 698.2173 362.4348 L 700.0387 361.0562 L 705.7802 361.062 Z" fill="#000000" fill-opacity="1" stroke="#000000" stroke-width="0" paint-order="fill" stroke-opacity="1" stroke-dasharray="" stroke-linecap="butt" stroke-linejoin="miter" stroke-miterlimit="10" clip-path="none" style="filter: url(#f1)"/>
<path data-code="206" d="M 390.1263 301.408 L 390.2153 282.9182 L 390.6134 273.6723 L 394.5145 266.5847 L 397.1599 260.413 L 400.1189 254.6885 L 400.603 253.4577 L 401.287 250.7005 L 401.6049 247.8441 L 401.6633 244.9546 L 401.497 242.0748 L 401.0828 239.269 L 400.3332 236.6284 L 397.7447 231.2559 L 397.173 228.9809 L 397.3101 226.6495 L 397.698 225.5761 L 398.942 223.9253 L 402.2364 220.4719 L 403.1172 219.7603 L 405.2858 218.8191 L 407.7402 218.37 L 414.3873 217.7866 L 417.0546 217.32 L 419.525 216.4916 L 424.0547 214.2963 L 426.5295 213.4544 L 429.2084 212.9741 L 436.0583 212.3655 L 438.7679 211.9591 L 441.3987 211.1658 L 442.6777 210.5338 L 445.049 208.9199 L 447.2525 207.0202 L 457.6432 196.3179 L 461.9307 192.2792 L 465.3928 189.8078 L 471.1241 186.8834 L 473.8702 184.8378 L 480.8381 183.3425 L 487.1601 182.7456 L 498.1953 182.5395 L 502.7264 182.7728 L 505.5658 183.2239 L 508.1354 184.1359 L 509.2467 184.8534 L 510.0896 185.6603 L 513.5838 190.2356 L 515.3046 191.9331 L 517.2632 193.4129 L 527.3024 198.8126 L 530.6303 200.131 L 537.2352 210.6641 L 538.3537 213.0383 L 539.0989 215.7508 L 539.4971 218.543 L 539.7479 222.7664 L 539.6706 233.8906 L 539.1325 239.2632 L 538.4733 241.8279 L 537.9804 243.0529 L 535.0112 248.7191 L 532.8222 253.5919 L 532.1251 254.673 L 530.4641 256.6252 L 528.5318 258.2741 L 527.4774 258.9605 L 521.6397 261.8578 L 519.4799 263.4211 L 517.4017 265.1983 L 512.385 270.0711 L 494.6837 288.3432 L 487.7638 294.721 L 482.6611 291.396 L 480.2504 290.4179 L 477.5408 289.8288 L 471.9277 289.3582 L 463.3803 289.2979 L 459.1628 289.5254 L 455.0707 290.2799 L 452.5346 291.3804 L 449.2096 293.8324 L 446.1675 296.7491 L 436.3354 307.1092 L 433.2335 309.9481 L 431.0226 311.5775 L 428.6163 312.8356 L 421.5055 315.5364 L 416.4071 317.0006 L 412.5965 314.4223 L 408.7595 312.6198 L 406.7222 311.455 L 404.6426 309.9033 L 398.6095 304.8011 L 396.4541 303.3641 L 394.2972 302.3939 L 390.1263 301.408 Z" fill="#000000" fill-opacity="1" stroke="#000000" stroke-width="0" paint-order="fill" stroke-opacity="1" stroke-dasharray="" stroke-linecap="butt" stroke-linejoin="miter" stroke-miterlimit="10" clip-path="none" style="filter: url(#f1)"/>
<path data-code="207" d="M 361.044 145.9467 L 366.0345 146.672 L 372.3549 147.1134 L 381.8619 147.2553 L 389.6757 146.9423 L 392.7061 146.5281 L 395.6082 145.7639 L 401.2797 143.1214 L 405.242 141.945 L 409.6346 141.4531 L 418.5902 141.0525 L 422.9609 140.4186 L 425.5626 139.5436 L 434.6918 134.9625 L 437.922 132.7536 L 439.7668 130.9063 L 441.371 128.8161 L 445.0606 122.1213 L 444.9367 120.0349 L 445.8685 118.524 L 446.6998 117.9504 L 451.8259 115.6988 L 455.0007 113.1671 L 456.0901 112.5565 L 463.2228 109.8051 L 466.6106 107.3823 L 467.8662 106.8067 L 470.7347 106.097 L 473.8906 105.7742 L 482.3052 105.6692 L 481.4798 109.7584 L 480.5684 112.2785 L 477.6006 117.9932 L 475.5604 123.0527 L 471.8095 129.8408 L 469.7154 134.8847 L 465.8726 141.6417 L 463.7405 146.6176 L 461.3795 150.9965 L 460.4666 153.3396 L 460.2157 154.6793 L 460.2741 157.4035 L 461.0776 159.9429 L 463.1776 163.1513 L 468.1374 169.2044 L 469.5054 171.4308 L 470.077 172.6888 L 472.7035 180.0272 L 473.8702 184.8378 L 471.1241 186.8834 L 465.3928 189.8078 L 461.9307 192.2792 L 457.6432 196.3179 L 447.2525 207.0202 L 445.049 208.9199 L 442.6777 210.5338 L 441.3987 211.1658 L 438.7679 211.9591 L 436.0583 212.3655 L 429.2084 212.9741 L 426.5295 213.4544 L 424.0547 214.2963 L 419.525 216.4916 L 417.0546 217.32 L 414.3873 217.7866 L 407.7402 218.37 L 405.2858 218.8191 L 403.1172 219.7603 L 402.2364 220.4719 L 398.942 223.9253 L 397.698 225.5761 L 397.3101 226.6495 L 397.173 228.9809 L 397.7447 231.2559 L 400.3332 236.6284 L 401.0828 239.269 L 401.497 242.0748 L 401.6633 244.9546 L 401.6049 247.8441 L 401.287 250.7005 L 400.603 253.4577 L 400.1189 254.6885 L 397.1599 260.413 L 394.5145 266.5847 L 390.6134 273.6723 L 386.9325 268.7431 L 384.099 265.4103 L 380.1337 261.1772 L 375.9775 257.2708 L 372.5941 254.8655 L 367.7757 252.6099 L 362.2763 249.5513 L 359.7811 248.6296 L 357.0686 248.1143 L 354.2832 247.881 L 350.0437 247.8538 L 344.3854 248.3535 L 341.7341 248.9154 L 338.043 250.0374 L 338.7066 236.1793 L 339.3978 231.9753 L 340.2772 229.4106 L 343.1312 223.7095 L 345.2006 218.6791 L 348.3667 213.0072 L 350.579 208.1305 L 351.8915 205.7018 L 354.445 202.3438 L 361.3269 195.0559 L 364.0861 191.834 L 365.6145 189.4812 L 366.647 186.8445 L 366.9314 185.46 L 367.137 182.6561 L 366.6586 178.5028 L 365.8011 175.9828 L 363.0536 170.2874 L 362.094 166.2119 L 361.7003 161.901 L 361.044 145.9467 Z" fill="#000000" fill-opacity="1" stroke="#000000" stroke-width="0" paint-order="fill" stroke-opacity="1" stroke-dasharray="" stroke-linecap="butt" stroke-linejoin="miter" stroke-miterlimit="10" clip-path="none" style="filter: url(#f1)"/>
<path data-code="208" d="M 567.3718 467.4588 L 562.1947 467.908 L 558.0982 468.5477 L 555.6511 469.2847 L 552.0782 470.6963 L 547.9161 469.7085 L 542.0608 467.6221 L 539.5758 466.5721 L 536.3456 464.3982 L 530.3503 459.2201 L 527.1726 456.9937 L 522.3426 454.7343 L 515.7713 450.8959 L 510.8844 448.7823 L 504.3233 444.9245 L 499.4451 442.7992 L 493.9122 439.7678 L 492.7368 439.272 L 490.1074 438.5739 L 480.5056 437.6211 L 476.5215 436.7228 L 474.2114 435.6592 L 469.8029 433.2189 L 463.812 430.52 L 455.673 425.3069 L 460.1588 419.5104 L 462.9705 416.8057 L 465.0676 415.3571 L 468.8783 413.5682 L 470.9768 412.4054 L 473.1833 410.7818 L 476.3392 407.9759 L 504.5581 379.0113 L 507.3348 375.7932 L 509.6477 372.3282 L 511.7988 367.3348 L 514.819 361.6706 L 515.7173 359.1778 L 516.2292 356.5392 L 516.5034 353.8306 L 516.6667 346.953 L 516.289 341.5105 L 515.7261 338.8758 L 515.2755 337.6041 L 513.9921 335.2552 L 512.3879 333.1241 L 504.1279 324.232 L 501.707 321.0606 L 500.4733 318.7409 L 500.0606 317.5801 L 498.6241 310.3797 L 497.9139 308.025 L 497.3772 306.8544 L 496.0253 304.6494 L 494.4416 302.565 L 487.7638 294.721 L 494.6837 288.3432 L 512.385 270.0711 L 517.4017 265.1983 L 519.4799 263.4211 L 521.6397 261.8578 L 527.4774 258.9605 L 528.5318 258.2741 L 530.4641 256.6252 L 532.1251 254.673 L 532.8222 253.5919 L 535.0112 248.7191 L 537.9804 243.0529 L 538.4733 241.8279 L 539.1325 239.2632 L 539.6706 233.8906 L 539.7479 222.7664 L 539.4971 218.543 L 539.0989 215.7508 L 538.3537 213.0383 L 537.2352 210.6641 L 530.6303 200.131 L 539.7231 200.6229 L 550.8371 200.8504 L 558.7151 200.7921 L 563.3424 200.4207 L 566.3306 199.8237 L 569.1758 198.7212 L 576.5375 194.4843 L 583.2459 204.6927 L 584.347 207.0766 L 584.9959 209.8124 L 585.1082 214.0124 L 584.6838 216.758 L 583.8322 219.2683 L 581.5659 223.7892 L 580.6398 226.3034 L 579.8582 230.5034 L 579.4323 236.3484 L 579.3098 243.716 L 579.6555 249.4716 L 580.2432 252.2327 L 580.739 253.5569 L 581.3573 254.7313 L 582.9236 256.8041 L 584.8209 258.5191 L 585.8709 259.2269 L 591.678 262.0055 L 597.1745 265.1419 L 602.1008 267.1914 L 607.6979 270.112 L 608.8821 270.5825 L 611.5159 271.2281 L 621.017 272.0175 L 623.6493 272.5562 L 626.0585 273.6567 L 628.0579 275.2803 L 629.6591 277.3298 L 630.2745 278.5043 L 630.7529 279.8304 L 631.2764 282.5876 L 631.4689 286.8674 L 631.3012 300.043 L 631.7431 304.3286 L 632.5029 307.0644 L 633.1081 308.3847 L 634.6321 310.827 L 639.0669 316.4912 L 640.6988 318.8265 L 641.9967 321.2726 L 643.6738 325.0254 L 645.943 328.5857 L 648.6307 331.9282 L 651.4818 335.0996 L 654.4247 337.9716 L 656.4839 339.5524 L 658.7312 340.616 L 659.962 340.826 L 661.1229 340.758 L 663.2593 340.0833 L 669.8073 336.9741 L 672.1713 335.5916 L 679.8742 329.1535 L 682.212 327.5512 L 684.7174 326.4137 L 688.6155 325.4396 L 689.8931 330.8276 L 693.0504 337.8607 L 693.7927 340.5188 L 695.1941 347.3205 L 696.0808 349.8347 L 698.7612 355.67 L 700.0387 361.0562 L 698.2173 362.4348 L 696.3112 363.5684 L 694.2462 364.1362 L 692.1681 363.8523 L 686.8262 361.8942 L 684.2303 361.5034 L 680.1878 361.5753 L 677.5351 362.1645 L 676.3451 362.639 L 670.8325 365.6859 L 667.2056 367.3562 L 664.8081 368.7368 L 662.5375 370.4751 L 657.0833 375.2196 L 653.6022 377.6443 L 648.743 379.8396 L 642.1163 383.5633 L 637.2265 385.6827 L 633.7119 388.1133 L 631.5754 390.0772 L 629.6037 392.2258 L 627.1216 395.8017 L 626.0395 398.4384 L 624.4062 406.5954 L 623.5355 409.1232 L 620.6757 414.9021 L 619.232 418.7229 L 618.1338 421.1418 L 613.7865 428.7233 L 612.3719 430.6891 L 610.4644 432.1494 L 603.0356 436.4389 L 600.5871 437.3567 L 593.9574 438.6206 L 591.3543 439.3361 L 589.0341 440.3842 L 584.5803 442.7662 L 579.6832 444.8856 L 576.1598 447.322 L 574.0175 449.2879 L 572.0429 451.4365 L 570.3016 453.7737 L 568.9439 456.3637 L 568.4962 457.721 L 567.9508 460.5132 L 567.3718 467.4588 Z" fill="#000000" fill-opacity="1" stroke="#000000" stroke-width="0" paint-order="fill" stroke-opacity="1" stroke-dasharray="" stroke-linecap="butt" stroke-linejoin="miter" stroke-miterlimit="10" clip-path="none" style="filter: url(#f1)"/>
<path data-code="209" d="M 220.6114 290.4821 L 223.7965 285.8971 L 227.594 281.7476 L 228.5857 279.6281 L 229.8311 274.7048 L 230.6711 272.1537 L 232.0303 269.6609 L 234.7107 266.26 L 236.7553 264.193 L 238.953 262.3225 L 241.3053 260.7416 L 247.2904 257.6655 L 249.5814 255.9991 L 256.23 250.4982 L 258.5823 248.9388 L 263.3934 246.6463 L 268.9205 243.6168 L 271.4974 242.6874 L 274.3791 242.1565 L 278.8372 241.8454 L 284.8923 241.8104 L 292.5194 241.9737 L 301.5641 242.4618 L 307.7168 242.0029 L 314.2823 241.8376 L 319.1167 241.9426 L 323.728 242.454 L 327.753 243.7801 L 338.043 250.0374 L 341.7341 248.9154 L 344.3854 248.3535 L 350.0437 247.8538 L 354.2832 247.881 L 357.0686 248.1143 L 359.7811 248.6296 L 362.2763 249.5513 L 367.7757 252.6099 L 372.5941 254.8655 L 375.9775 257.2708 L 380.1337 261.1772 L 384.099 265.4103 L 386.9325 268.7431 L 390.6134 273.6723 L 390.2153 282.9182 L 390.1263 301.408 L 386.0546 304.7408 L 383.8963 306.1544 L 379.0881 308.4761 L 372.5256 312.3261 L 367.6664 314.4767 L 362.1188 317.4517 L 359.5201 318.3831 L 355.0823 319.0851 L 350.5002 319.2853 L 327.1755 318.8187 L 321.3319 318.9023 L 317.269 319.577 L 315.9739 320.067 L 313.766 321.4593 L 311.9504 323.322 L 310.6102 325.6048 L 309.8927 328.3232 L 309.7556 331.0999 L 310.0502 333.861 L 310.772 336.5191 L 313.5939 342.1424 L 314.4835 344.6333 L 314.9444 347.3847 L 314.905 351.6197 L 314.6906 353.0236 L 313.9541 355.5942 L 310.1741 363.9651 L 304.2314 360.0703 L 302.1401 358.4409 L 300.1422 356.652 L 296.2892 352.837 L 280.1731 336.1049 L 272.7297 328.889 L 268.2365 320.6465 L 265.3169 317.4167 L 262.1625 312.4545 L 260.5146 310.6092 L 258.5998 308.9797 L 256.3875 307.6361 L 246.1149 302.4872 L 237.7134 300.0722 L 236.732 299.5608 L 233.4726 297.0116 L 232.5203 296.4963 L 226.9217 294.6374 L 224.689 293.636 L 220.6114 290.4821 Z" fill="#000000" fill-opacity="1" stroke="#000000" stroke-width="0" paint-order="fill" stroke-opacity="1" stroke-dasharray="" stroke-linecap="butt" stroke-linejoin="miter" stroke-miterlimit="10" clip-path="none" style="filter: url(#f1)"/>
<path data-code="210" d="M 380.51 445.2142 L 375.575 443.82 L 371.9291 442.3092 L 366.4093 439.1553 L 361.6551 436.9289 L 359.6046 435.4161 L 357.8196 433.5669 L 356.3627 431.4416 L 354.2438 426.5183 L 351.3694 420.788 L 350.4988 418.2427 L 349.2767 411.3846 L 348.5737 408.7032 L 347.5412 406.3251 L 345.1933 401.7614 L 343.1035 396.7156 L 341.651 394.32 L 338.9953 390.9755 L 336.0612 387.8002 L 332.987 384.7572 L 329.7815 381.9416 L 326.3632 379.6374 L 322.7319 378.006 L 320.4248 376.7518 L 318.3306 375.1982 L 316.3706 373.4288 L 313.6989 370.5043 L 312.1677 368.4082 L 310.9587 366.1993 L 310.1741 363.9651 L 313.9541 355.5942 L 314.6906 353.0236 L 314.905 351.6197 L 314.9444 347.3847 L 314.4835 344.6333 L 313.5939 342.1424 L 310.772 336.5191 L 310.0502 333.861 L 309.7556 331.0999 L 309.8927 328.3232 L 310.6102 325.6048 L 311.9504 323.322 L 313.766 321.4593 L 315.9739 320.067 L 317.269 319.577 L 321.3319 318.9023 L 327.1755 318.8187 L 350.5002 319.2853 L 355.0823 319.0851 L 359.5201 318.3831 L 362.1188 317.4517 L 367.6664 314.4767 L 372.5256 312.3261 L 379.0881 308.4761 L 383.8963 306.1544 L 386.0546 304.7408 L 390.1263 301.408 L 394.2972 302.3939 L 396.4541 303.3641 L 398.6095 304.8011 L 404.6426 309.9033 L 406.7222 311.455 L 408.7595 312.6198 L 412.5965 314.4223 L 416.4071 317.0006 L 424.6205 325.2859 L 427.1682 328.3212 L 428.6499 330.4621 L 429.8749 332.8343 L 431.463 336.5949 L 435.1891 343.3636 L 438.8933 352.6386 L 439.2783 354.867 L 438.9108 357.0759 L 437.2906 361.4217 L 436.6999 364.0351 L 436.2829 368.2565 L 435.8745 378.4202 L 435.4895 381.261 L 434.7035 383.9988 L 433.372 386.4936 L 431.6862 388.755 L 423.9015 397.1259 L 422.0786 399.3017 L 420.4905 401.6195 L 419.3063 404.1473 L 417.7036 409.4595 L 416.2 413.3465 L 412.5483 415.8879 L 410.7414 417.6885 L 409.2277 419.7671 L 408.621 420.9085 L 407.7256 423.4849 L 406.3372 430.1544 L 405.4812 432.653 L 402.0074 439.1261 L 400.6643 441.1153 L 399.7878 441.9806 L 397.4268 443.2367 L 394.758 443.8414 L 384.4665 444.5706 L 380.51 445.2142 Z" fill="#000000" fill-opacity="1" stroke="#000000" stroke-width="0" paint-order="fill" stroke-opacity="1" stroke-dasharray="" stroke-linecap="butt" stroke-linejoin="miter" stroke-miterlimit="10" clip-path="none" style="filter: url(#f1)"/>
<path data-code="211" d="M 669.3552 178.845 L 670.6808 181.8745 L 672.9092 188.3553 L 676.1832 195.3612 L 677.153 199.7907 L 677.4826 204.4088 L 677.3601 210.6194 L 676.8059 215.1752 L 676.0476 218.0647 L 672.9223 225.092 L 672.1494 228.1234 L 671.7309 231.2967 L 671.4086 237.8379 L 671.3356 247.8071 L 671.4684 256.0788 L 671.8242 260.9361 L 672.7823 265.5658 L 675.3359 271.4362 L 676.2036 274.0845 L 676.7621 277.0829 L 677.624 284.7751 L 678.168 287.7871 L 679.0197 290.4529 L 681.092 295.1352 L 681.9407 297.803 L 683.8322 311.5445 L 684.6926 314.22 L 687.2899 320.0806 L 688.6155 325.4396 L 684.7174 326.4137 L 682.212 327.5512 L 679.8742 329.1535 L 672.1713 335.5916 L 669.8073 336.9741 L 663.2593 340.0833 L 661.1229 340.758 L 659.962 340.826 L 658.7312 340.616 L 656.4839 339.5524 L 654.4247 337.9716 L 651.4818 335.0996 L 648.6307 331.9282 L 645.943 328.5857 L 643.6738 325.0254 L 641.9967 321.2726 L 640.6988 318.8265 L 639.0669 316.4912 L 634.6321 310.827 L 633.1081 308.3847 L 632.5029 307.0644 L 631.7431 304.3286 L 631.3012 300.043 L 631.4689 286.8674 L 631.2764 282.5876 L 630.7529 279.8304 L 630.2745 278.5043 L 629.6591 277.3298 L 628.0579 275.2803 L 626.0585 273.6567 L 623.6493 272.5562 L 621.017 272.0175 L 611.5159 271.2281 L 608.8821 270.5825 L 607.6979 270.112 L 602.1008 267.1914 L 597.1745 265.1419 L 591.678 262.0055 L 585.8709 259.2269 L 584.8209 258.5191 L 582.9236 256.8041 L 581.3573 254.7313 L 580.739 253.5569 L 580.2432 252.2327 L 579.6555 249.4716 L 579.3098 243.716 L 579.4323 236.3484 L 579.8582 230.5034 L 580.6398 226.3034 L 581.5659 223.7892 L 583.8322 219.2683 L 584.6838 216.758 L 585.1082 214.0124 L 584.9959 209.8124 L 584.347 207.0766 L 583.2459 204.6927 L 576.5375 194.4843 L 583.698 190.9765 L 585.9336 190.0256 L 588.2714 189.3898 L 594.2112 188.3281 L 596.5154 187.6612 L 598.8093 186.5781 L 603.2048 184.1261 L 607.1029 182.4559 L 609.1694 181.3164 L 612.2596 178.9189 L 617.0649 174.2425 L 622.5832 168.2283 L 627.2266 162.5602 L 634.4046 167.8491 L 637.7515 169.7663 L 640.3123 170.6336 L 648.1028 172.5761 L 653.7612 175.2711 L 656.2214 176.1539 L 665.6364 177.8067 L 669.3552 178.845 Z" fill="#000000" fill-opacity="1" stroke="#000000" stroke-width="0" paint-order="fill" stroke-opacity="1" stroke-dasharray="" stroke-linecap="butt" stroke-linejoin="miter" stroke-miterlimit="10" clip-path="none" style="filter: url(#f1)"/>












</svg>