<?xml version="1.0" standalone="no"?>
<!-- Generator: Paintmaps.com , Online SVG vector map maker -->
<svg xmlns="http://www.w3.org/2000/svg" version="1.1" baseProfile="full" 

viewBox="0 0 800 533"
width="800" height="500" style="background-color:false">
<path data-code="5000" d="M 513.0397 223.955 L 509.3113 218.9593 L 507.8473 216.1775 L 506.8102 212.6786 L 506.2882 209.0192 L 506.0001 197.6683 L 506.6461 157.3443 L 506.3266 151.8039 L 505.6117 148.2515 L 504.9735 146.5498 L 504.2245 145.1554 L 502.3075 142.7204 L 499.9505 140.772 L 498.6262 140.0131 L 495.6407 138.9399 L 487.9437 137.322 L 485.0446 136.2884 L 478.3237 132.8617 L 472.4207 130.4128 L 464.4688 125.9851 L 458.6619 123.3383 L 455.816 121.4876 L 453.1675 119.2854 L 450.7074 116.8341 L 448.4814 114.1594 L 446.6089 111.2169 L 445.8721 109.6199 L 444.9415 106.3329 L 444.4701 102.9389 L 443.9891 92.6472 L 453.4547 89.8165 L 463.0162 87.9146 L 465.9511 86.7948 L 472.6023 83.2075 L 478.4511 80.6724 L 486.313 76.0539 L 492.0571 73.2651 L 494.8454 71.3957 L 504.1529 63.8836 L 507.114 62.2424 L 508.6583 61.6814 L 511.849 60.9621 L 521.6384 59.8656 L 524.8151 59.2441 L 527.7396 58.2175 L 534.5129 54.9933 L 537.8625 54.1064 L 541.3561 53.6292 L 550.352 53.3009 L 559.4509 53.6269 L 564.7821 54.281 L 571.5423 55.687 L 571.386 56.9651 L 571.8496 58.5713 L 573.4646 59.9308 L 581.2427 62.3612 L 587.913 65.6062 L 590.861 66.726 L 598.805 68.5487 L 601.8839 69.4869 L 610.0863 73.2976 L 613.5415 74.1846 L 617.139 74.6339 L 630.1295 74.8783 L 630.6463 83.4892 L 631.7175 88.4267 L 635.7156 96.749 L 638.235 102.7224 L 641.5898 109.2708 L 642.2917 111.012 L 643.1935 114.5621 L 643.8683 122.03 L 643.8744 150.9403 L 644.619 163.6483 L 643.1481 170.5063 L 642.2131 173.6932 L 638.9535 180.6629 L 637.9365 183.7125 L 637.3402 187.0228 L 636.1259 198.8881 L 635.3036 202.1402 L 634.7292 203.5975 L 631.226 210.4531 L 628.7511 216.4871 L 624.2676 224.6091 L 621.7753 230.6431 L 617.3432 238.7954 L 614.8745 244.8433 L 610.4739 253.0072 L 608.0435 259.0645 L 603.6648 267.2191 L 601.0782 273.2111 L 599.2633 276.1326 L 597.1079 278.8866 L 588.538 287.97 L 584.8821 282.8906 L 583.474 280.0947 L 582.9467 278.5094 L 582.0894 273.5557 L 581.3797 265.131 L 580.7582 261.8184 L 580.244 260.2028 L 578.6735 257.095 L 576.6421 254.2736 L 574.3218 251.6757 L 571.792 249.3012 L 567.6105 246.3331 L 553.6264 239.6753 L 548.4716 238.6417 L 534.5705 237.8479 L 531.4444 237.1496 L 530.0232 236.5653 L 528.7513 235.7621 L 527.7579 234.8147 L 524.5174 230.4312 L 521.4464 227.4329 L 518.9794 225.8383 L 517.5486 225.2144 L 513.0397 223.955 Z" fill="#000" fill-opacity="1" stroke="#000" stroke-width="0" paint-order="fill" stroke-opacity="1" stroke-dasharray="" stroke-linecap="butt" stroke-linejoin="miter" stroke-miterlimit="10" transform="matrix(0.8999999761581421,0,0,0.8999999761581421,40.00003433227539,26.650096893310547)" clip-path="none"/>
<path data-code="5001" d="M 155.3819 379.899 L 155.3932 372.7942 L 158.3543 372.1843 L 161.2621 371.1857 L 164.2538 369.2186 L 166.7007 366.4926 L 167.6505 364.8701 L 168.3384 363.1614 L 169.145 359.5717 L 169.4907 355.8401 L 169.6147 350.0879 L 169.4121 332.5192 L 169.1171 325.0256 L 168.7653 321.5454 L 168.1315 318.2002 L 167.0962 315.1576 L 163.9334 308.2042 L 162.7959 303.0758 L 162.3394 297.6774 L 162.1857 292.1649 L 162.2259 282.8952 L 162.541 275.5344 L 162.9051 271.9401 L 163.5484 268.4715 L 164.5742 265.394 L 166.9338 259.984 L 167.6339 257.0648 L 167.7422 255.5307 L 167.482 252.5463 L 165.723 246.268 L 165.6296 244.9713 L 166.0792 242.3617 L 170.4641 231.2576 L 174.7329 223.0168 L 177.6521 213.4794 L 179.7995 207.7481 L 182.1775 207.4571 L 184.105 206.7564 L 185.3402 206.0697 L 187.7426 204.3238 L 192.3711 200.0125 L 203.7642 188.1704 L 206.1255 185.9566 L 208.589 183.9406 L 209.8775 183.0467 L 212.3934 181.7035 L 217.1738 179.8342 L 225.2321 176.0467 L 227.7951 178.1162 L 231.3952 181.3823 L 243.9493 194.1555 L 248.6485 198.4644 L 252.445 201.074 L 257.0796 203.1342 L 259.5431 204.4821 L 263.2689 207.3687 L 267.9401 211.8662 L 279.355 223.671 L 284.1607 227.8868 L 286.749 229.5792 L 291.3792 231.6836 L 293.8253 233.0408 L 296.3211 234.8892 L 303.4881 241.1303 L 306.0066 242.9786 L 307.337 243.7608 L 313.2819 246.2237 L 318.5843 248.7937 L 324.3101 251.2636 L 317.3351 262.838 L 315.2513 267.0748 L 313.9986 272.4406 L 312.9868 281.6312 L 312.3356 285.2161 L 311.3125 288.3844 L 308.2702 295.4147 L 307.3868 299.0811 L 306.7836 304.852 L 306.5924 310.7672 L 306.5199 348.2744 L 306.7294 355.9938 L 307.0681 359.7673 L 307.7211 363.4268 L 308.7739 366.6253 L 311.8598 373.609 L 312.7564 377.2568 L 313.2321 381.0723 L 313.5604 390.9147 L 313.2225 424.8578 L 313.6355 430.6799 L 314.3731 434.4395 L 314.9842 436.2459 L 316.5756 439.3118 L 323.8107 448.8772 L 325.6291 451.7405 L 328.3842 457.665 L 333.3103 467.079 L 334.529 470.4452 L 336.5481 477.4033 L 328.2436 473.6856 L 320.8531 470.9015 L 314.1304 467.4352 L 311.0698 466.3574 L 307.6618 465.7335 L 304.1594 465.4332 L 286.3422 464.9886 L 282.8774 464.5533 L 279.5488 463.7013 L 271.384 459.8788 L 258.98 456.5709 L 250.823 452.6972 L 247.7537 451.7731 L 241.4561 450.3856 L 238.3877 449.4172 L 230.38 445.1595 L 224.5573 442.5918 L 216.5225 438.3806 L 213.4043 437.4658 L 203.6769 435.9061 L 199.1025 434.7375 L 195.8647 430.0141 L 193.9093 427.4674 L 190.6976 423.7986 L 182.8925 415.4321 L 179.7908 411.7308 L 177.2435 407.771 L 175.2444 402.9802 L 173.9454 400.4311 L 171.1712 396.5691 L 165.7431 390.5166 L 155.3819 379.899 Z" fill="#000" fill-opacity="1" stroke="#000" stroke-width="0" paint-order="fill" stroke-opacity="1" stroke-dasharray="" stroke-linecap="butt" stroke-linejoin="miter" stroke-miterlimit="10" transform="matrix(0.8999999761581421,0,0,0.8999999761581421,40.00003433227539,26.650096893310547)" clip-path="none"/>
<path data-code="5002" d="M 498.8698 479.7009 L 492.9118 479.6032 L 489.976 479.3285 L 487.1083 478.7186 L 484.3131 477.5243 L 481.7151 475.7575 L 479.3049 473.681 L 470.1457 464.5416 L 466.5439 461.4176 L 463.9782 459.6949 L 459.3777 457.5044 L 456.9343 456.1286 L 454.4263 454.2965 L 445.9576 447.1917 L 443.3815 445.5063 L 438.774 443.3251 L 436.3271 441.9377 L 433.8217 440.0916 L 430.2102 437.0072 L 430.1797 423.7125 L 430.7558 414.4311 L 431.9055 409.2329 L 434.2966 403.8066 L 435.2525 401.0364 L 435.5903 397.9077 L 435.1818 394.7999 L 434.1717 392.0809 L 431.7467 386.7477 L 430.9907 383.5748 L 430.775 378.5791 L 431.2691 375.2455 L 431.7624 373.6206 L 433.3101 370.5245 L 441.5282 359.5229 L 445.2636 352.4344 L 447.1021 350.011 L 449.3229 347.9462 L 451.8737 346.3562 L 454.827 345.325 L 457.8553 344.6755 L 466.4199 344.601 L 471.4814 344.8012 L 476.3866 345.5671 L 479.3703 346.6495 L 485.9621 350.2857 L 491.7272 352.9884 L 494.5398 354.8973 L 499.7165 359.6067 L 513.2859 373.7766 L 515.9091 376.0649 L 518.7419 378.0018 L 521.8453 379.3007 L 525.0788 379.9363 L 533.3999 380.2738 L 532.7914 383.5422 L 531.9097 386.7361 L 530.6622 389.5761 L 527.8173 395.0374 L 525.187 401.0154 L 522.3411 405.3034 L 516.8519 412.0287 L 514.8485 414.8292 L 513.2492 417.7763 L 511.3034 422.2413 L 508.4401 427.6676 L 507.2031 430.5426 L 506.3659 434.0042 L 505.9652 437.5961 L 505.7068 454.2174 L 505.1149 461.4641 L 504.7658 463.2101 L 503.7278 466.362 L 500.4917 473.3062 L 498.8698 479.7009 Z" fill="#000" fill-opacity="1" stroke="#000" stroke-width="0" paint-order="fill" stroke-opacity="1" stroke-dasharray="" stroke-linecap="butt" stroke-linejoin="miter" stroke-miterlimit="10" transform="matrix(0.8999999761581421,0,0,0.8999999761581421,40.00003433227539,26.650096893310547)" clip-path="none"/>
<path data-code="5003" d="M 225.2321 176.0467 L 227.6904 171.8635 L 230.5188 167.9014 L 234.7858 163.0104 L 239.3506 158.499 L 243.0371 155.5821 L 245.7284 154.1132 L 248.1972 153.3333 L 251.9815 152.6536 L 258.1647 150.9775 L 264.8883 147.6579 L 267.9803 146.5661 L 271.4818 145.9236 L 276.9098 145.5255 L 312.2457 145.5418 L 323.3847 145.8165 L 328.7561 146.317 L 332.1074 146.9572 L 337.298 148.8894 L 339.7074 149.5226 L 340.9976 149.5202 L 342.2826 149.2106 L 344.5733 147.886 L 346.4615 145.912 L 347.9316 143.4304 L 350.5304 137.8085 L 352.4169 134.9964 L 354.6054 132.3031 L 358.2841 128.5784 L 362.4202 125.5172 L 368.2271 122.8145 L 374.9289 119.3227 L 377.9188 118.2914 L 381.1374 117.7001 L 390.9853 116.762 L 395.7482 115.6702 L 398.5251 114.4201 L 403.8284 111.5428 L 409.6615 108.9774 L 417.5278 104.3775 L 423.3583 101.7935 L 429.9815 98.0805 L 432.8588 96.8328 L 439.0289 94.8284 L 443.9891 92.6472 L 444.4701 102.9389 L 444.9415 106.3329 L 445.8721 109.6199 L 446.6089 111.2169 L 448.4814 114.1594 L 450.7074 116.8341 L 453.1675 119.2854 L 455.816 121.4876 L 458.6619 123.3383 L 464.4688 125.9851 L 472.4207 130.4128 L 478.3237 132.8617 L 485.0446 136.2884 L 487.9437 137.322 L 495.6407 138.9399 L 498.6262 140.0131 L 499.9505 140.772 L 502.3075 142.7204 L 504.2245 145.1554 L 504.9735 146.5498 L 505.6117 148.2515 L 506.3266 151.8039 L 506.6461 157.3443 L 506.0001 197.6683 L 506.2882 209.0192 L 506.8102 212.6786 L 507.8473 216.1775 L 509.3113 218.9593 L 513.0397 223.955 L 507.3785 229.9493 L 503.1543 234.7797 L 501.3053 237.2194 L 498.1976 242.1778 L 497.2949 243.2487 L 496.2413 244.1589 L 490.2309 248.2024 L 486.7644 251.3079 L 483.503 254.7904 L 481.5379 257.2883 L 479.8688 259.9514 L 477.1556 265.8899 L 475.5319 268.5553 L 468.6329 277.3036 L 466.8267 279.8922 L 465.3244 282.7346 L 463.4091 287.2088 L 459.829 294.0086 L 458.7728 297.0931 L 458.2088 300.4546 L 457.9827 303.9092 L 458.0211 309.1679 L 458.3825 314.8015 L 452.6786 315.7815 L 445.8546 316.3146 L 439.0708 316.2518 L 434.1115 315.6558 L 430.954 314.7666 L 429.5477 314.1543 L 422.9742 310.4646 L 417.1812 307.869 L 411.9094 304.9544 L 409.15 303.6997 L 404.4089 302.6242 L 394.5994 301.7047 L 391.3895 301.0366 L 389.826 300.4918 L 386.8283 298.839 L 384.1195 296.709 L 380.4775 292.9844 L 378.3518 290.2398 L 376.5867 287.2833 L 374.1284 281.2354 L 370.6278 274.3565 L 368.2071 268.4203 L 366.7108 265.4033 L 363.6685 261.1945 L 361.3133 258.6361 L 358.7398 256.3222 L 355.9053 254.3737 L 354.3601 253.6078 L 352.6866 253.0166 L 349.2341 252.3275 L 343.9142 251.9713 L 331.2737 251.8223 L 324.3101 251.2636 L 318.5843 248.7937 L 313.2819 246.2237 L 307.337 243.7608 L 306.0066 242.9786 L 303.4881 241.1303 L 296.3211 234.8892 L 293.8253 233.0408 L 291.3792 231.6836 L 286.749 229.5792 L 284.1607 227.8868 L 279.355 223.671 L 267.9401 211.8662 L 263.2689 207.3687 L 259.5431 204.4821 L 257.0796 203.1342 L 252.445 201.074 L 248.6485 198.4644 L 243.9493 194.1555 L 231.3952 181.3823 L 227.7951 178.1162 L 225.2321 176.0467 Z" fill="#000" fill-opacity="1" stroke="#000" stroke-width="0" paint-order="fill" stroke-opacity="1" stroke-dasharray="" stroke-linecap="butt" stroke-linejoin="miter" stroke-miterlimit="10" transform="matrix(0.8999999761581421,0,0,0.8999999761581421,40.00003433227539,26.650096893310547)" clip-path="none"/>
<path data-code="5004" d="M 457.8553 344.6755 L 457.9495 326.9182 L 458.3825 314.8015 L 458.0211 309.1679 L 457.9827 303.9092 L 458.2088 300.4546 L 458.7728 297.0931 L 459.829 294.0086 L 463.4091 287.2088 L 465.3244 282.7346 L 466.8267 279.8922 L 468.6329 277.3036 L 475.5319 268.5553 L 477.1556 265.8899 L 479.8688 259.9514 L 481.5379 257.2883 L 483.503 254.7904 L 486.7644 251.3079 L 490.2309 248.2024 L 496.2413 244.1589 L 497.2949 243.2487 L 498.1976 242.1778 L 501.3053 237.2194 L 503.1543 234.7797 L 507.3785 229.9493 L 513.0397 223.955 L 517.5486 225.2144 L 518.9794 225.8383 L 521.4464 227.4329 L 524.5174 230.4312 L 527.7579 234.8147 L 528.7513 235.7621 L 530.0232 236.5653 L 531.4444 237.1496 L 534.5705 237.8479 L 548.4716 238.6417 L 553.6264 239.6753 L 567.6105 246.3331 L 571.792 249.3012 L 574.3218 251.6757 L 576.6421 254.2736 L 578.6735 257.095 L 580.244 260.2028 L 580.7582 261.8184 L 581.3797 265.131 L 582.0894 273.5557 L 582.9467 278.5094 L 583.474 280.0947 L 584.8821 282.8906 L 588.538 287.97 L 588.1408 294.8793 L 587.3578 299.9075 L 586.3687 302.9734 L 583.2452 309.9967 L 582.326 313.1813 L 581.0218 319.6109 L 575.942 322.1693 L 568.3691 324.8464 L 560.2828 328.7573 L 551.6404 331.2388 L 549.142 332.6844 L 548.1163 333.7157 L 543.5856 341.1231 L 541.6468 345.3133 L 540.5433 350.7048 L 539.7498 359.9908 L 539.1483 363.6223 L 538.1313 366.8348 L 534.9939 373.8511 L 533.3999 380.2738 L 525.0788 379.9363 L 521.8453 379.3007 L 518.7419 378.0018 L 515.9091 376.0649 L 513.2859 373.7766 L 499.7165 359.6067 L 494.5398 354.8973 L 491.7272 352.9884 L 485.9621 350.2857 L 479.3703 346.6495 L 476.3866 345.5671 L 471.4814 344.8012 L 466.4199 344.601 L 457.8553 344.6755 Z" fill="#000" fill-opacity="1" stroke="#000" stroke-width="0" paint-order="fill" stroke-opacity="1" stroke-dasharray="" stroke-linecap="butt" stroke-linejoin="miter" stroke-miterlimit="10" transform="matrix(0.8999999761581421,0,0,0.8999999761581421,40.00003433227539,26.650096893310547)" clip-path="none"/>
<path data-code="5005" d="M 367.7357 465.5054 L 359.9733 465.8965 L 355.1772 466.951 L 341.7449 473.7485 L 336.5481 477.4033 L 334.529 470.4452 L 333.3103 467.079 L 328.3842 457.665 L 325.6291 451.7405 L 323.8107 448.8772 L 316.5756 439.3118 L 314.9842 436.2459 L 314.3731 434.4395 L 313.6355 430.6799 L 313.2225 424.8578 L 313.5604 390.9147 L 313.2321 381.0723 L 312.7564 377.2568 L 311.8598 373.609 L 308.7739 366.6253 L 307.7211 363.4268 L 307.0681 359.7673 L 306.7294 355.9938 L 306.5199 348.2744 L 306.5924 310.7672 L 306.7836 304.852 L 307.3868 299.0811 L 308.2702 295.4147 L 311.3125 288.3844 L 312.3356 285.2161 L 312.9868 281.6312 L 313.9986 272.4406 L 315.2513 267.0748 L 317.3351 262.838 L 324.3101 251.2636 L 331.2737 251.8223 L 343.9142 251.9713 L 349.2341 252.3275 L 352.6866 253.0166 L 354.3601 253.6078 L 355.9053 254.3737 L 358.7398 256.3222 L 361.3133 258.6361 L 363.6685 261.1945 L 366.7108 265.4033 L 368.2071 268.4203 L 370.6278 274.3565 L 374.1284 281.2354 L 376.5867 287.2833 L 378.3518 290.2398 L 380.4775 292.9844 L 384.1195 296.709 L 386.8283 298.839 L 389.826 300.4918 L 391.3895 301.0366 L 394.5994 301.7047 L 404.4089 302.6242 L 409.15 303.6997 L 411.9094 304.9544 L 417.1812 307.869 L 422.9742 310.4646 L 429.5477 314.1543 L 430.954 314.7666 L 434.1115 315.6558 L 439.0708 316.2518 L 445.8546 316.3146 L 452.6786 315.7815 L 458.3825 314.8015 L 457.9495 326.9182 L 457.8553 344.6755 L 454.827 345.325 L 451.8737 346.3562 L 449.3229 347.9462 L 447.1021 350.011 L 445.2636 352.4344 L 441.5282 359.5229 L 433.3101 370.5245 L 431.7624 373.6206 L 431.2691 375.2455 L 430.775 378.5791 L 430.9907 383.5748 L 431.7467 386.7477 L 434.1717 392.0809 L 435.1818 394.7999 L 435.5903 397.9077 L 435.2525 401.0364 L 434.2966 403.8066 L 431.9055 409.2329 L 430.7558 414.4311 L 430.1797 423.7125 L 430.2102 437.0072 L 427.0396 437.6124 L 423.9441 438.5087 L 421.1951 439.803 L 415.9216 442.7641 L 410.1347 445.4644 L 405.9925 448.3929 L 399.4391 453.959 L 396.643 455.8841 L 395.1485 456.6617 L 392.08 457.7116 L 384.233 459.4458 L 381.3312 460.5283 L 374.5623 463.8572 L 371.726 464.7092 L 367.7357 465.5054 Z" fill="#000" fill-opacity="1" stroke="#000" stroke-width="0" paint-order="fill" stroke-opacity="1" stroke-dasharray="" stroke-linecap="butt" stroke-linejoin="miter" stroke-miterlimit="10" transform="matrix(0.8999999761581421,0,0,0.8999999761581421,40.00003433227539,26.650096893310547)" clip-path="none"/>
<path data-code="5000" d="M 513.0397 223.955 L 509.3113 218.9593 L 507.8473 216.1775 L 506.8102 212.6786 L 506.2882 209.0192 L 506.0001 197.6683 L 506.6461 157.3443 L 506.3266 151.8039 L 505.6117 148.2515 L 504.9735 146.5498 L 504.2245 145.1554 L 502.3075 142.7204 L 499.9505 140.772 L 498.6262 140.0131 L 495.6407 138.9399 L 487.9437 137.322 L 485.0446 136.2884 L 478.3237 132.8617 L 472.4207 130.4128 L 464.4688 125.9851 L 458.6619 123.3383 L 455.816 121.4876 L 453.1675 119.2854 L 450.7074 116.8341 L 448.4814 114.1594 L 446.6089 111.2169 L 445.8721 109.6199 L 444.9415 106.3329 L 444.4701 102.9389 L 443.9891 92.6472 L 453.4547 89.8165 L 463.0162 87.9146 L 465.9511 86.7948 L 472.6023 83.2075 L 478.4511 80.6724 L 486.313 76.0539 L 492.0571 73.2651 L 494.8454 71.3957 L 504.1529 63.8836 L 507.114 62.2424 L 508.6583 61.6814 L 511.849 60.9621 L 521.6384 59.8656 L 524.8151 59.2441 L 527.7396 58.2175 L 534.5129 54.9933 L 537.8625 54.1064 L 541.3561 53.6292 L 550.352 53.3009 L 559.4509 53.6269 L 564.7821 54.281 L 571.5423 55.687 L 571.386 56.9651 L 571.8496 58.5713 L 573.4646 59.9308 L 581.2427 62.3612 L 587.913 65.6062 L 590.861 66.726 L 598.805 68.5487 L 601.8839 69.4869 L 610.0863 73.2976 L 613.5415 74.1846 L 617.139 74.6339 L 630.1295 74.8783 L 630.6463 83.4892 L 631.7175 88.4267 L 635.7156 96.749 L 638.235 102.7224 L 641.5898 109.2708 L 642.2917 111.012 L 643.1935 114.5621 L 643.8683 122.03 L 643.8744 150.9403 L 644.619 163.6483 L 643.1481 170.5063 L 642.2131 173.6932 L 638.9535 180.6629 L 637.9365 183.7125 L 637.3402 187.0228 L 636.1259 198.8881 L 635.3036 202.1402 L 634.7292 203.5975 L 631.226 210.4531 L 628.7511 216.4871 L 624.2676 224.6091 L 621.7753 230.6431 L 617.3432 238.7954 L 614.8745 244.8433 L 610.4739 253.0072 L 608.0435 259.0645 L 603.6648 267.2191 L 601.0782 273.2111 L 599.2633 276.1326 L 597.1079 278.8866 L 588.538 287.97 L 584.8821 282.8906 L 583.474 280.0947 L 582.9467 278.5094 L 582.0894 273.5557 L 581.3797 265.131 L 580.7582 261.8184 L 580.244 260.2028 L 578.6735 257.095 L 576.6421 254.2736 L 574.3218 251.6757 L 571.792 249.3012 L 567.6105 246.3331 L 553.6264 239.6753 L 548.4716 238.6417 L 534.5705 237.8479 L 531.4444 237.1496 L 530.0232 236.5653 L 528.7513 235.7621 L 527.7579 234.8147 L 524.5174 230.4312 L 521.4464 227.4329 L 518.9794 225.8383 L 517.5486 225.2144 L 513.0397 223.955 Z" fill="#f4c0c7" fill-opacity="1" stroke="#000000" stroke-width="0.4444444562182018" paint-order="fill" stroke-opacity="1" stroke-dasharray="" stroke-linecap="butt" stroke-linejoin="miter" stroke-miterlimit="10" transform="matrix(0.8999999761581421,0,0,0.8999999761581421,40.00003433227539,26.650096893310547)" clip-path="none"/>
<path data-code="5001" d="M 155.3819 379.899 L 155.3932 372.7942 L 158.3543 372.1843 L 161.2621 371.1857 L 164.2538 369.2186 L 166.7007 366.4926 L 167.6505 364.8701 L 168.3384 363.1614 L 169.145 359.5717 L 169.4907 355.8401 L 169.6147 350.0879 L 169.4121 332.5192 L 169.1171 325.0256 L 168.7653 321.5454 L 168.1315 318.2002 L 167.0962 315.1576 L 163.9334 308.2042 L 162.7959 303.0758 L 162.3394 297.6774 L 162.1857 292.1649 L 162.2259 282.8952 L 162.541 275.5344 L 162.9051 271.9401 L 163.5484 268.4715 L 164.5742 265.394 L 166.9338 259.984 L 167.6339 257.0648 L 167.7422 255.5307 L 167.482 252.5463 L 165.723 246.268 L 165.6296 244.9713 L 166.0792 242.3617 L 170.4641 231.2576 L 174.7329 223.0168 L 177.6521 213.4794 L 179.7995 207.7481 L 182.1775 207.4571 L 184.105 206.7564 L 185.3402 206.0697 L 187.7426 204.3238 L 192.3711 200.0125 L 203.7642 188.1704 L 206.1255 185.9566 L 208.589 183.9406 L 209.8775 183.0467 L 212.3934 181.7035 L 217.1738 179.8342 L 225.2321 176.0467 L 227.7951 178.1162 L 231.3952 181.3823 L 243.9493 194.1555 L 248.6485 198.4644 L 252.445 201.074 L 257.0796 203.1342 L 259.5431 204.4821 L 263.2689 207.3687 L 267.9401 211.8662 L 279.355 223.671 L 284.1607 227.8868 L 286.749 229.5792 L 291.3792 231.6836 L 293.8253 233.0408 L 296.3211 234.8892 L 303.4881 241.1303 L 306.0066 242.9786 L 307.337 243.7608 L 313.2819 246.2237 L 318.5843 248.7937 L 324.3101 251.2636 L 317.3351 262.838 L 315.2513 267.0748 L 313.9986 272.4406 L 312.9868 281.6312 L 312.3356 285.2161 L 311.3125 288.3844 L 308.2702 295.4147 L 307.3868 299.0811 L 306.7836 304.852 L 306.5924 310.7672 L 306.5199 348.2744 L 306.7294 355.9938 L 307.0681 359.7673 L 307.7211 363.4268 L 308.7739 366.6253 L 311.8598 373.609 L 312.7564 377.2568 L 313.2321 381.0723 L 313.5604 390.9147 L 313.2225 424.8578 L 313.6355 430.6799 L 314.3731 434.4395 L 314.9842 436.2459 L 316.5756 439.3118 L 323.8107 448.8772 L 325.6291 451.7405 L 328.3842 457.665 L 333.3103 467.079 L 334.529 470.4452 L 336.5481 477.4033 L 328.2436 473.6856 L 320.8531 470.9015 L 314.1304 467.4352 L 311.0698 466.3574 L 307.6618 465.7335 L 304.1594 465.4332 L 286.3422 464.9886 L 282.8774 464.5533 L 279.5488 463.7013 L 271.384 459.8788 L 258.98 456.5709 L 250.823 452.6972 L 247.7537 451.7731 L 241.4561 450.3856 L 238.3877 449.4172 L 230.38 445.1595 L 224.5573 442.5918 L 216.5225 438.3806 L 213.4043 437.4658 L 203.6769 435.9061 L 199.1025 434.7375 L 195.8647 430.0141 L 193.9093 427.4674 L 190.6976 423.7986 L 182.8925 415.4321 L 179.7908 411.7308 L 177.2435 407.771 L 175.2444 402.9802 L 173.9454 400.4311 L 171.1712 396.5691 L 165.7431 390.5166 L 155.3819 379.899 Z" fill="#f4c0c7" fill-opacity="1" stroke="#000000" stroke-width="0.4444444562182018" paint-order="fill" stroke-opacity="1" stroke-dasharray="" stroke-linecap="butt" stroke-linejoin="miter" stroke-miterlimit="10" transform="matrix(0.8999999761581421,0,0,0.8999999761581421,40.00003433227539,26.650096893310547)" clip-path="none"/>
<path data-code="5002" d="M 498.8698 479.7009 L 492.9118 479.6032 L 489.976 479.3285 L 487.1083 478.7186 L 484.3131 477.5243 L 481.7151 475.7575 L 479.3049 473.681 L 470.1457 464.5416 L 466.5439 461.4176 L 463.9782 459.6949 L 459.3777 457.5044 L 456.9343 456.1286 L 454.4263 454.2965 L 445.9576 447.1917 L 443.3815 445.5063 L 438.774 443.3251 L 436.3271 441.9377 L 433.8217 440.0916 L 430.2102 437.0072 L 430.1797 423.7125 L 430.7558 414.4311 L 431.9055 409.2329 L 434.2966 403.8066 L 435.2525 401.0364 L 435.5903 397.9077 L 435.1818 394.7999 L 434.1717 392.0809 L 431.7467 386.7477 L 430.9907 383.5748 L 430.775 378.5791 L 431.2691 375.2455 L 431.7624 373.6206 L 433.3101 370.5245 L 441.5282 359.5229 L 445.2636 352.4344 L 447.1021 350.011 L 449.3229 347.9462 L 451.8737 346.3562 L 454.827 345.325 L 457.8553 344.6755 L 466.4199 344.601 L 471.4814 344.8012 L 476.3866 345.5671 L 479.3703 346.6495 L 485.9621 350.2857 L 491.7272 352.9884 L 494.5398 354.8973 L 499.7165 359.6067 L 513.2859 373.7766 L 515.9091 376.0649 L 518.7419 378.0018 L 521.8453 379.3007 L 525.0788 379.9363 L 533.3999 380.2738 L 532.7914 383.5422 L 531.9097 386.7361 L 530.6622 389.5761 L 527.8173 395.0374 L 525.187 401.0154 L 522.3411 405.3034 L 516.8519 412.0287 L 514.8485 414.8292 L 513.2492 417.7763 L 511.3034 422.2413 L 508.4401 427.6676 L 507.2031 430.5426 L 506.3659 434.0042 L 505.9652 437.5961 L 505.7068 454.2174 L 505.1149 461.4641 L 504.7658 463.2101 L 503.7278 466.362 L 500.4917 473.3062 L 498.8698 479.7009 Z" fill="#8cd5f7" fill-opacity="1" stroke="#000000" stroke-width="0.4444444562182018" paint-order="fill" stroke-opacity="1" stroke-dasharray="" stroke-linecap="butt" stroke-linejoin="miter" stroke-miterlimit="10" transform="matrix(0.8999999761581421,0,0,0.8999999761581421,40.00003433227539,26.650096893310547)" clip-path="none"/>
<path data-code="5003" d="M 225.2321 176.0467 L 227.6904 171.8635 L 230.5188 167.9014 L 234.7858 163.0104 L 239.3506 158.499 L 243.0371 155.5821 L 245.7284 154.1132 L 248.1972 153.3333 L 251.9815 152.6536 L 258.1647 150.9775 L 264.8883 147.6579 L 267.9803 146.5661 L 271.4818 145.9236 L 276.9098 145.5255 L 312.2457 145.5418 L 323.3847 145.8165 L 328.7561 146.317 L 332.1074 146.9572 L 337.298 148.8894 L 339.7074 149.5226 L 340.9976 149.5202 L 342.2826 149.2106 L 344.5733 147.886 L 346.4615 145.912 L 347.9316 143.4304 L 350.5304 137.8085 L 352.4169 134.9964 L 354.6054 132.3031 L 358.2841 128.5784 L 362.4202 125.5172 L 368.2271 122.8145 L 374.9289 119.3227 L 377.9188 118.2914 L 381.1374 117.7001 L 390.9853 116.762 L 395.7482 115.6702 L 398.5251 114.4201 L 403.8284 111.5428 L 409.6615 108.9774 L 417.5278 104.3775 L 423.3583 101.7935 L 429.9815 98.0805 L 432.8588 96.8328 L 439.0289 94.8284 L 443.9891 92.6472 L 444.4701 102.9389 L 444.9415 106.3329 L 445.8721 109.6199 L 446.6089 111.2169 L 448.4814 114.1594 L 450.7074 116.8341 L 453.1675 119.2854 L 455.816 121.4876 L 458.6619 123.3383 L 464.4688 125.9851 L 472.4207 130.4128 L 478.3237 132.8617 L 485.0446 136.2884 L 487.9437 137.322 L 495.6407 138.9399 L 498.6262 140.0131 L 499.9505 140.772 L 502.3075 142.7204 L 504.2245 145.1554 L 504.9735 146.5498 L 505.6117 148.2515 L 506.3266 151.8039 L 506.6461 157.3443 L 506.0001 197.6683 L 506.2882 209.0192 L 506.8102 212.6786 L 507.8473 216.1775 L 509.3113 218.9593 L 513.0397 223.955 L 507.3785 229.9493 L 503.1543 234.7797 L 501.3053 237.2194 L 498.1976 242.1778 L 497.2949 243.2487 L 496.2413 244.1589 L 490.2309 248.2024 L 486.7644 251.3079 L 483.503 254.7904 L 481.5379 257.2883 L 479.8688 259.9514 L 477.1556 265.8899 L 475.5319 268.5553 L 468.6329 277.3036 L 466.8267 279.8922 L 465.3244 282.7346 L 463.4091 287.2088 L 459.829 294.0086 L 458.7728 297.0931 L 458.2088 300.4546 L 457.9827 303.9092 L 458.0211 309.1679 L 458.3825 314.8015 L 452.6786 315.7815 L 445.8546 316.3146 L 439.0708 316.2518 L 434.1115 315.6558 L 430.954 314.7666 L 429.5477 314.1543 L 422.9742 310.4646 L 417.1812 307.869 L 411.9094 304.9544 L 409.15 303.6997 L 404.4089 302.6242 L 394.5994 301.7047 L 391.3895 301.0366 L 389.826 300.4918 L 386.8283 298.839 L 384.1195 296.709 L 380.4775 292.9844 L 378.3518 290.2398 L 376.5867 287.2833 L 374.1284 281.2354 L 370.6278 274.3565 L 368.2071 268.4203 L 366.7108 265.4033 L 363.6685 261.1945 L 361.3133 258.6361 L 358.7398 256.3222 L 355.9053 254.3737 L 354.3601 253.6078 L 352.6866 253.0166 L 349.2341 252.3275 L 343.9142 251.9713 L 331.2737 251.8223 L 324.3101 251.2636 L 318.5843 248.7937 L 313.2819 246.2237 L 307.337 243.7608 L 306.0066 242.9786 L 303.4881 241.1303 L 296.3211 234.8892 L 293.8253 233.0408 L 291.3792 231.6836 L 286.749 229.5792 L 284.1607 227.8868 L 279.355 223.671 L 267.9401 211.8662 L 263.2689 207.3687 L 259.5431 204.4821 L 257.0796 203.1342 L 252.445 201.074 L 248.6485 198.4644 L 243.9493 194.1555 L 231.3952 181.3823 L 227.7951 178.1162 L 225.2321 176.0467 Z" fill="#8cd5f7" fill-opacity="1" stroke="#000000" stroke-width="0.4444444562182018" paint-order="fill" stroke-opacity="1" stroke-dasharray="" stroke-linecap="butt" stroke-linejoin="miter" stroke-miterlimit="10" transform="matrix(0.8999999761581421,0,0,0.8999999761581421,40.00003433227539,26.650096893310547)" clip-path="none"/>
<path data-code="5004" d="M 457.8553 344.6755 L 457.9495 326.9182 L 458.3825 314.8015 L 458.0211 309.1679 L 457.9827 303.9092 L 458.2088 300.4546 L 458.7728 297.0931 L 459.829 294.0086 L 463.4091 287.2088 L 465.3244 282.7346 L 466.8267 279.8922 L 468.6329 277.3036 L 475.5319 268.5553 L 477.1556 265.8899 L 479.8688 259.9514 L 481.5379 257.2883 L 483.503 254.7904 L 486.7644 251.3079 L 490.2309 248.2024 L 496.2413 244.1589 L 497.2949 243.2487 L 498.1976 242.1778 L 501.3053 237.2194 L 503.1543 234.7797 L 507.3785 229.9493 L 513.0397 223.955 L 517.5486 225.2144 L 518.9794 225.8383 L 521.4464 227.4329 L 524.5174 230.4312 L 527.7579 234.8147 L 528.7513 235.7621 L 530.0232 236.5653 L 531.4444 237.1496 L 534.5705 237.8479 L 548.4716 238.6417 L 553.6264 239.6753 L 567.6105 246.3331 L 571.792 249.3012 L 574.3218 251.6757 L 576.6421 254.2736 L 578.6735 257.095 L 580.244 260.2028 L 580.7582 261.8184 L 581.3797 265.131 L 582.0894 273.5557 L 582.9467 278.5094 L 583.474 280.0947 L 584.8821 282.8906 L 588.538 287.97 L 588.1408 294.8793 L 587.3578 299.9075 L 586.3687 302.9734 L 583.2452 309.9967 L 582.326 313.1813 L 581.0218 319.6109 L 575.942 322.1693 L 568.3691 324.8464 L 560.2828 328.7573 L 551.6404 331.2388 L 549.142 332.6844 L 548.1163 333.7157 L 543.5856 341.1231 L 541.6468 345.3133 L 540.5433 350.7048 L 539.7498 359.9908 L 539.1483 363.6223 L 538.1313 366.8348 L 534.9939 373.8511 L 533.3999 380.2738 L 525.0788 379.9363 L 521.8453 379.3007 L 518.7419 378.0018 L 515.9091 376.0649 L 513.2859 373.7766 L 499.7165 359.6067 L 494.5398 354.8973 L 491.7272 352.9884 L 485.9621 350.2857 L 479.3703 346.6495 L 476.3866 345.5671 L 471.4814 344.8012 L 466.4199 344.601 L 457.8553 344.6755 Z" fill="#7bea05" fill-opacity="1" stroke="#000000" stroke-width="0.4444444562182018" paint-order="fill" stroke-opacity="1" stroke-dasharray="" stroke-linecap="butt" stroke-linejoin="miter" stroke-miterlimit="10" transform="matrix(0.8999999761581421,0,0,0.8999999761581421,40.00003433227539,26.650096893310547)" clip-path="none"/>
<path data-code="5005" d="M 367.7357 465.5054 L 359.9733 465.8965 L 355.1772 466.951 L 341.7449 473.7485 L 336.5481 477.4033 L 334.529 470.4452 L 333.3103 467.079 L 328.3842 457.665 L 325.6291 451.7405 L 323.8107 448.8772 L 316.5756 439.3118 L 314.9842 436.2459 L 314.3731 434.4395 L 313.6355 430.6799 L 313.2225 424.8578 L 313.5604 390.9147 L 313.2321 381.0723 L 312.7564 377.2568 L 311.8598 373.609 L 308.7739 366.6253 L 307.7211 363.4268 L 307.0681 359.7673 L 306.7294 355.9938 L 306.5199 348.2744 L 306.5924 310.7672 L 306.7836 304.852 L 307.3868 299.0811 L 308.2702 295.4147 L 311.3125 288.3844 L 312.3356 285.2161 L 312.9868 281.6312 L 313.9986 272.4406 L 315.2513 267.0748 L 317.3351 262.838 L 324.3101 251.2636 L 331.2737 251.8223 L 343.9142 251.9713 L 349.2341 252.3275 L 352.6866 253.0166 L 354.3601 253.6078 L 355.9053 254.3737 L 358.7398 256.3222 L 361.3133 258.6361 L 363.6685 261.1945 L 366.7108 265.4033 L 368.2071 268.4203 L 370.6278 274.3565 L 374.1284 281.2354 L 376.5867 287.2833 L 378.3518 290.2398 L 380.4775 292.9844 L 384.1195 296.709 L 386.8283 298.839 L 389.826 300.4918 L 391.3895 301.0366 L 394.5994 301.7047 L 404.4089 302.6242 L 409.15 303.6997 L 411.9094 304.9544 L 417.1812 307.869 L 422.9742 310.4646 L 429.5477 314.1543 L 430.954 314.7666 L 434.1115 315.6558 L 439.0708 316.2518 L 445.8546 316.3146 L 452.6786 315.7815 L 458.3825 314.8015 L 457.9495 326.9182 L 457.8553 344.6755 L 454.827 345.325 L 451.8737 346.3562 L 449.3229 347.9462 L 447.1021 350.011 L 445.2636 352.4344 L 441.5282 359.5229 L 433.3101 370.5245 L 431.7624 373.6206 L 431.2691 375.2455 L 430.775 378.5791 L 430.9907 383.5748 L 431.7467 386.7477 L 434.1717 392.0809 L 435.1818 394.7999 L 435.5903 397.9077 L 435.2525 401.0364 L 434.2966 403.8066 L 431.9055 409.2329 L 430.7558 414.4311 L 430.1797 423.7125 L 430.2102 437.0072 L 427.0396 437.6124 L 423.9441 438.5087 L 421.1951 439.803 L 415.9216 442.7641 L 410.1347 445.4644 L 405.9925 448.3929 L 399.4391 453.959 L 396.643 455.8841 L 395.1485 456.6617 L 392.08 457.7116 L 384.233 459.4458 L 381.3312 460.5283 L 374.5623 463.8572 L 371.726 464.7092 L 367.7357 465.5054 Z" fill="#f5fc98" fill-opacity="1" stroke="#000000" stroke-width="0.4444444562182018" paint-order="fill" stroke-opacity="1" stroke-dasharray="" stroke-linecap="butt" stroke-linejoin="miter" stroke-miterlimit="10" transform="matrix(0.8999999761581421,0,0,0.8999999761581421,40.00003433227539,26.650096893310547)" clip-path="none"/>

</svg>