<?xml version="1.0" standalone="no"?>
<!-- Generator: Paintmaps.com , Online SVG vector map maker -->
<svg xmlns="http://www.w3.org/2000/svg" version="1.1" baseProfile="full"  width="800" height="500" style="background-color:false" viewBox="00 0 800 667">





<path data-code="201" d="M 482.1224 440.9294 L 483.4371 442.8267 L 483.9846 443.1195 L 484.5321 445.456 L 483.7657 446.916 L 482.0126 447.2088 L 481.3561 447.646 L 479.4939 447.646 L 478.8366 445.7488 L 477.522 444.2867 L 477.0843 442.2431 L 477.6318 441.8059 L 479.2751 441.3666 L 480.6988 441.3666 L 482.1224 440.9294 Z M 485.4083 455.6782 L 485.737 456.4083 L 488.5851 456.5547 L 489.5711 458.1611 L 489.5711 459.3304 L 490.2276 459.3304 L 488.5851 461.9576 L 487.2697 462.3968 L 486.7229 462.9805 L 485.0796 461.8132 L 483.7657 461.9576 L 482.5609 461.0832 L 482.4511 460.0604 L 482.9986 458.7447 L 484.0944 457.5775 L 484.0944 456.9939 L 483.3273 455.8247 L 485.4083 455.6782 Z M 492.3086 455.8247 L 493.1848 456.8475 L 492.6365 458.1611 L 491.6513 458.0147 L 491.6513 456.5547 L 492.3086 455.8247 Z M 499.9769 456.4083 L 500.7425 457.4311 L 501.5096 459.184 L 502.276 461.6668 L 502.3858 463.4197 L 501.7285 463.4197 L 501.0711 464.4405 L 499.5376 465.0261 L 498.0034 465.0261 L 497.2378 465.6097 L 495.9231 465.1705 L 496.3616 464.5869 L 495.3756 463.7105 L 494.3889 464.4405 L 494.7183 466.0469 L 491.4325 465.7561 L 491.1038 464.5869 L 491.4325 463.7105 L 491.1038 462.9805 L 491.7604 462.104 L 493.5127 460.9368 L 495.047 460.7904 L 496.5805 459.184 L 496.5805 457.5775 L 497.4566 457.5775 L 498.3328 456.5547 L 499.9769 456.4083 Z M 451.1247 460.7904 L 451.236 462.2504 L 449.8108 462.6876 L 449.4829 461.6668 L 450.5779 460.7904 L 451.1247 460.7904 Z M 512.7908 461.5204 L 515.8578 462.2504 L 516.734 463.1269 L 516.734 464.5869 L 515.8578 466.3398 L 513.9957 469.1134 L 513.667 469.8455 L 512.7908 469.9899 L 511.4762 471.3055 L 511.2573 473.642 L 511.8049 475.9784 L 511.586 477.7313 L 511.0385 478.1685 L 511.2573 480.6514 L 510.8196 481.3814 L 506.7667 481.3814 L 506.0003 480.9442 L 505.8905 479.9213 L 505.1234 479.6285 L 505.0143 478.8985 L 506.3282 478.0221 L 506.7667 477.2921 L 506.1093 474.9556 L 504.9053 473.0584 L 505.6716 472.1819 L 505.6716 470.7199 L 506.0003 469.9899 L 504.0283 469.8455 L 503.8095 469.2598 L 506.3282 468.969 L 506.9855 467.7998 L 506.8765 464.1497 L 507.8617 464.0033 L 510.2721 462.9805 L 511.0385 462.104 L 511.8049 462.104 L 512.7908 461.5204 Z M 459.9977 466.3398 L 460.2158 467.6534 L 459.5592 468.239 L 458.465 468.239 L 457.8069 466.6326 L 459.2306 466.777 L 459.9977 466.3398 Z M 518.3765 471.8891 L 518.4863 472.7655 L 519.4723 473.9328 L 520.1289 475.2484 L 520.2394 477.0013 L 518.8143 476.8549 L 517.72 475.5392 L 517.1717 474.2256 L 518.3765 471.8891 Z M 506.6576 490.4365 L 506.7667 492.0429 L 506.1093 492.0429 L 505.452 490.4365 L 506.6576 490.4365 Z" fill="#000" fill-opacity="1" stroke="#000" stroke-width="0" paint-order="fill" stroke-opacity="1" stroke-dasharray="" stroke-linecap="butt" stroke-linejoin="miter" stroke-miterlimit="10" transform="matrix(1.2000000476837158,0,0,1.2000000476837158,-90.00012969970703,-60.00004959106445)" clip-path="none"/>
<path data-code="202" d="M 395.8557 326.4426 L 395.8655 326.8377 L 391.893 326.8377 L 389.7751 325.7787 L 388.7162 324.0138 L 386.5976 321.894 L 384.4789 321.188 L 383.1553 321.541 L 382.3611 322.5999 L 380.2425 324.7198 L 376.0052 328.6025 L 371.504 331.4284 L 369.6502 331.7793 L 365.1489 331.7793 L 362.7656 333.8992 L 361.7067 337.076 L 360.1175 338.8409 L 357.9997 339.1959 L 355.881 338.8409 L 354.0279 337.076 L 351.3791 335.3111 L 350.3202 334.2522 L 348.467 332.8403 L 346.0837 333.1932 L 343.1709 336.0171 L 341.8464 339.1959 L 341.0523 344.4905 L 338.6697 345.1965 L 336.551 346.2554 L 332.844 346.9614 L 329.6657 347.3143 L 329.304 347.5269 L 325.4293 349.7872 L 323.3061 351.1911 L 321.4575 348.7262 L 320.6626 345.1965 L 319.8684 343.0786 L 316.9563 339.5468 L 314.3075 340.6078 L 311.6602 336.723 L 309.8063 335.3111 L 306.6287 337.7819 L 301.5981 341.3137 L 298.9492 344.1375 L 298.6852 347.3143 L 298.1558 350.1402 L 295.5069 351.1991 L 293.9185 351.1991 L 292.0647 348.3753 L 290.9779 347.1659 L 290.4763 344.4905 L 291.7999 341.6667 L 293.3891 339.5468 L 293.3891 332.8403 L 292.0647 330.0144 L 291.7999 324.0138 L 291.7999 320.1291 L 292.5941 316.5993 L 291.7999 314.1265 L 289.9461 311.6556 L 289.9461 304.5941 L 294.1833 298.9465 L 296.0372 296.1206 L 299.4794 294.7087 L 301.5981 295.4147 L 305.5698 293.2968 L 307.9524 290.824 L 309.2768 290.824 L 309.8063 289.0591 L 310.6005 283.7644 L 310.071 279.5267 L 308.2171 276.7029 L 305.3043 276.7029 L 301.3326 275.9969 L 299.2147 272.8181 L 298.9492 270.7003 L 298.9492 267.1705 L 301.5981 264.6977 L 302.1275 261.5209 L 302.9217 259.05 L 302.9217 255.1653 L 305.3043 249.5177 L 305.3043 242.4561 L 306.8935 241.3952 L 308.7473 236.4535 L 308.7473 232.2158 L 307.6877 228.686 L 304.7748 225.5072 L 300.8031 225.1562 L 297.6256 225.1562 L 294.9775 223.7423 L 292.5941 219.8596 L 290.4763 218.8006 L 286.5038 218.0947 L 282.2673 215.9748 L 281.2084 212.4451 L 281.2084 209.2683 L 281.7378 200.4398 L 282.5358 191.9303 L 283.7639 192.0767 L 284.0926 192.5159 L 286.7211 193.0995 L 288.6931 194.5595 L 289.3497 194.706 L 290.4454 196.0196 L 291.5405 196.3124 L 294.2788 198.7953 L 297.236 200.8389 L 303.37 203.6146 L 305.9985 205.5119 L 309.8318 208.5804 L 311.9129 209.4548 L 312.68 210.0404 L 315.0896 210.9168 L 316.1847 212.0841 L 317.1707 211.9376 L 319.7992 213.1069 L 322.8662 212.3769 L 324.3997 212.3769 L 325.166 212.9605 L 326.3709 212.9605 L 328.6715 214.2741 L 329.3281 215.0061 L 330.205 215.0061 L 331.0812 215.7362 L 333.4908 215.8806 L 334.476 215.5898 L 335.3522 214.2741 L 335.3522 213.2533 L 337.2144 213.2533 L 337.4332 214.4205 L 338.5283 214.4205 L 338.7479 215.0061 L 337.7619 216.3198 L 339.0765 217.1962 L 339.2954 217.7798 L 341.2673 218.8026 L 341.7051 219.3863 L 342.5812 219.3863 L 344.1147 220.6999 L 345.1007 220.6999 L 347.4006 222.1619 L 352.1109 224.2056 L 353.9723 225.812 L 355.5058 224.7892 L 355.8344 223.7684 L 357.5868 223.4756 L 359.9964 224.352 L 361.2013 225.3748 L 365.8018 228.0021 L 367.1164 227.5649 L 368.1016 227.5649 L 369.4163 228.2949 L 370.6211 229.6086 L 371.3867 229.6086 L 372.3734 230.7778 L 373.4692 231.0706 L 375.002 231.0706 L 377.6312 232.8214 L 378.1788 235.0135 L 376.5355 236.1807 L 376.6453 237.35 L 378.3976 237.6408 L 379.1647 236.3272 L 381.9023 237.6408 L 382.9981 237.6408 L 384.6406 236.62 L 385.298 235.8879 L 386.6126 235.5971 L 387.8174 235.8879 L 389.7886 237.4944 L 390.9935 239.3936 L 391.3221 240.7073 L 392.7458 241.8765 L 393.2941 240.4165 L 393.8762 239.8329 L 393.4821 242.4561 L 393.2174 245.9859 L 393.2174 248.4567 L 391.629 253.7534 L 391.3635 256.2242 L 391.3635 258.6971 L 390.0398 261.1679 L 386.3328 264.6977 L 385.0084 266.1116 L 384.7444 268.2294 L 385.0084 270.3473 L 386.5976 271.0533 L 389.7751 276.7029 L 390.0398 280.2327 L 390.834 283.0585 L 392.4232 286.5883 L 396.6597 291.5319 L 398.5135 295.0617 L 399.043 299.2974 L 399.043 306.359 L 398.5135 309.8908 L 395.6007 316.5993 L 395.8557 326.4426 Z" fill="#000" fill-opacity="1" stroke="#000" stroke-width="0" paint-order="fill" stroke-opacity="1" stroke-dasharray="" stroke-linecap="butt" stroke-linejoin="miter" stroke-miterlimit="10" transform="matrix(1.2000000476837158,0,0,1.2000000476837158,-90.00012969970703,-60.00004959106445)" clip-path="none"/>
<path data-code="203" d="M 500.3747 407.3946 L 497.24 401.7229 L 496.2947 398.8871 L 493.6955 395.1066 L 490.8586 393.5302 L 488.7317 391.3241 L 487.5502 390.3795 L 487.5502 386.5971 L 488.9686 384.7078 L 491.3317 384.0781 L 492.3823 384.0781 L 494.4039 384.0781 L 499.84 384.7078 L 502.6753 386.2822 L 505.7476 388.4883 L 508.8198 389.118 L 511.6559 389.118 L 517.5643 391.3241 L 527.0172 391.9539 L 529.8533 391.9539 L 532.9256 393.5302 L 534.3432 394.9482 L 534.8155 395.4215 L 537.1793 399.8317 L 537.1793 400.0623 L 535.2886 399.8317 L 533.1617 398.5722 L 530.3256 398.8871 L 528.9079 399.8317 L 526.308 399.8317 L 523.7088 397.9425 L 521.5819 397.3107 L 518.2735 397.3107 L 517.5643 398.2573 L 517.0912 400.7783 L 507.166 400.7783 L 505.0384 402.9844 L 503.8576 405.5034 L 502.9115 407.0797 L 500.3747 407.3946 Z" fill="#000" fill-opacity="1" stroke="#000" stroke-width="0" paint-order="fill" stroke-opacity="1" stroke-dasharray="" stroke-linecap="butt" stroke-linejoin="miter" stroke-miterlimit="10" transform="matrix(1.2000000476837158,0,0,1.2000000476837158,-90.00012969970703,-60.00004959106445)" clip-path="none"/>
<path data-code="204" d="M 369.9705 399.934 L 370.2022 400.6299 L 368.1874 402.5492 L 366.4598 405.2346 L 366.5734 406.9012 L 365.0354 406.7548 L 363.7207 407.4849 L 362.6257 408.6541 L 361.093 408.9469 L 360.1055 410.2605 L 360.1055 410.9906 L 359.1203 411.5742 L 357.9162 411.5742 L 357.1491 411.137 L 353.8625 411.4278 L 352.7674 412.0134 L 351.3437 412.0134 L 349.8102 412.3042 L 348.1677 410.8442 L 345.8671 410.5534 L 343.131 409.9677 L 343.5732 408.4977 L 343.8613 406.5784 L 343.8613 403.1248 L 342.5662 400.4374 L 339.2555 397.3669 L 338.6794 396.4082 L 338.8238 395.4475 L 339.9745 393.7208 L 341.702 392.9526 L 342.0089 392.1344 L 342.8535 392.5696 L 345.7325 391.2259 L 346.7402 388.5384 L 346.8846 386.4266 L 347.6036 383.9317 L 347.6036 381.4368 L 346.7402 380.2856 L 343.8613 378.9419 L 342.9979 377.7907 L 342.5662 376.6395 L 343.7176 374.5276 L 344.293 372.9934 L 344.4374 371.4572 L 343.1415 368.0036 L 343.0265 366.2748 L 345.3008 366.2748 L 347.748 365.5087 L 348.3234 364.548 L 348.3234 358.022 L 347.8917 355.5291 L 346.4522 353.2247 L 346.3085 351.4979 L 347.1719 350.3467 L 347.1719 347.6593 L 348.1797 346.3156 L 349.3312 345.9325 L 350.339 346.3156 L 351.346 348.2349 L 352.7855 351.881 L 354.3694 355.144 L 357.9673 359.1752 L 360.8463 362.8212 L 363.0055 365.3162 L 363.3846 366.0241 L 363.7253 366.6599 L 363.7253 371.4572 L 363.8689 373.569 L 362.8619 377.5981 L 362.1414 382.3974 L 363.4372 384.8923 L 364.0133 391.2259 L 363.8689 393.7208 L 364.0133 396.2157 L 366.0281 398.7106 L 369.6268 398.9011 L 369.9705 399.934 Z" fill="#000" fill-opacity="1" stroke="#000" stroke-width="0" paint-order="fill" stroke-opacity="1" stroke-dasharray="" stroke-linecap="butt" stroke-linejoin="miter" stroke-miterlimit="10" transform="matrix(1.2000000476837158,0,0,1.2000000476837158,-90.00012969970703,-60.00004959106445)" clip-path="none"/>
<path data-code="205" d="M 411.0109 375.8794 L 409.2653 378.0795 L 408.253 378.2159 L 404.7084 378.2159 L 404.7084 378.8897 L 406.4299 381.5912 L 406.7338 382.9409 L 406.2269 384.8322 L 405.7771 384.9064 L 404.6069 384.5614 L 400.9608 382.2651 L 399.2393 382.1307 L 392.0494 382.1307 L 389.6187 381.8619 L 387.9987 381.4548 L 386.2569 381.4548 L 387.6189 378.7493 L 388.0513 376.447 L 388.3394 373.1839 L 388.483 368.9622 L 388.4326 364.548 L 389.4901 363.5894 L 390.2098 362.0531 L 391.2176 360.5189 L 393.0888 359.9413 L 396.7386 359.9413 L 398.5308 361.8766 L 399.847 362.8233 L 401.1639 362.8233 L 402.3792 361.7423 L 403.1892 360.5269 L 405.3161 357.9618 L 406.4299 357.8254 L 407.3415 358.3669 L 406.9361 360.1218 L 405.6192 361.7423 L 405.1131 362.9576 L 405.1131 365.9278 L 405.4169 367.8171 L 406.3284 369.4376 L 407.7461 371.3288 L 409.873 374.5698 L 411.0109 375.8794 Z" fill="#000" fill-opacity="1" stroke="#000" stroke-width="0" paint-order="fill" stroke-opacity="1" stroke-dasharray="" stroke-linecap="butt" stroke-linejoin="miter" stroke-miterlimit="10" transform="matrix(1.2000000476837158,0,0,1.2000000476837158,-90.00012969970703,-60.00004959106445)" clip-path="none"/>
<path data-code="206" d="M 405.7771 384.9064 L 407.0376 386.3163 L 407.9492 387.666 L 409.3668 387.9368 L 409.873 387.2629 L 411.4937 386.7214 L 411.7968 387.666 L 411.7968 391.4485 L 409.4676 393.4741 L 407.5438 394.9582 L 405.9238 394.9582 L 401.5685 395.2289 L 399.5439 396.3099 L 389.8217 396.3099 L 386.7833 393.2033 L 385.0618 391.8536 L 383.7908 390.4577 L 384.1646 390.4577 L 385.0287 388.9215 L 385.1724 384.5073 L 386.2569 381.4548 L 387.9987 381.4548 L 389.6187 381.8619 L 392.0494 382.1307 L 399.2393 382.1307 L 400.9608 382.2651 L 404.6069 384.5614 L 405.7771 384.9064 Z" fill="#000" fill-opacity="1" stroke="#000" stroke-width="0" paint-order="fill" stroke-opacity="1" stroke-dasharray="" stroke-linecap="butt" stroke-linejoin="miter" stroke-miterlimit="10" transform="matrix(1.2000000476837158,0,0,1.2000000476837158,-90.00012969970703,-60.00004959106445)" clip-path="none"/>
<path data-code="207" d="M 369.9705 399.934 L 372.3614 399.4767 L 374.9523 398.518 L 378.263 398.135 L 380.1342 397.3669 L 380.8539 395.8306 L 381.142 393.9113 L 381.8617 392.3771 L 383.7908 390.4577 L 385.0618 391.8536 L 386.7833 393.2033 L 389.8217 396.3099 L 399.5439 396.3099 L 401.5685 395.2289 L 405.9238 394.9582 L 407.5438 394.9582 L 409.4676 393.4741 L 411.7968 391.4485 L 416.7906 391.4485 L 416.6583 393.7428 L 415.949 395.6341 L 415.0383 397.1182 L 414.2275 400.6299 L 414.3291 402.3847 L 415.7467 404.6811 L 415.949 405.7601 L 416.8606 407.3806 L 416.8606 408.2149 L 414.7623 409.2377 L 414.3246 410.9906 L 412.7903 412.597 L 411.9141 412.7434 L 411.038 411.7206 L 410.1618 411.7206 L 409.5045 410.5534 L 408.7366 409.9677 L 407.8604 410.1141 L 404.6851 409.6769 L 402.6049 409.6769 L 400.851 412.3042 L 400.3042 415.6635 L 398.7692 417.2699 L 398.7692 418.1464 L 397.1267 417.8536 L 396.0317 418.73 L 395.594 419.6064 L 394.2793 418.73 L 392.5262 418.4392 L 391.8697 418.8764 L 391.541 420.3364 L 390.6648 419.7528 L 388.9125 419.8992 L 387.4888 419.3156 L 386.6126 419.3156 L 386.2832 417.8536 L 385.0791 416.6863 L 383.4358 415.6635 L 382.0121 415.3727 L 381.7925 414.6407 L 378.069 411.2834 L 377.4116 411.2834 L 376.5355 410.5534 L 375.7691 410.407 L 371.2784 407.4849 L 369.8547 406.0248 L 368.5401 406.0248 L 368.322 406.7548 L 367.1164 406.464 L 366.5734 406.9012 L 366.4598 405.2346 L 368.1874 402.5492 L 370.2022 400.6299 L 369.9705 399.934 Z" fill="#000" fill-opacity="1" stroke="#000" stroke-width="0" paint-order="fill" stroke-opacity="1" stroke-dasharray="" stroke-linecap="butt" stroke-linejoin="miter" stroke-miterlimit="10" transform="matrix(1.2000000476837158,0,0,1.2000000476837158,-90.00012969970703,-60.00004959106445)" clip-path="none"/>
<path data-code="208" d="M 388.4326 364.548 L 379.4144 364.548 L 376.3918 364.7406 L 374.2326 364.7406 L 369.3388 365.1236 L 367.324 365.6992 L 365.1647 365.6992 L 363.3846 366.0241 L 363.0055 365.3162 L 360.8463 362.8212 L 357.9673 359.1752 L 354.3694 355.144 L 352.7855 351.881 L 351.346 348.2349 L 350.339 346.3156 L 349.3312 345.9325 L 348.1797 346.3156 L 347.1719 347.6593 L 347.1719 350.3467 L 346.3085 351.4979 L 346.4522 353.2247 L 347.8917 355.5291 L 348.3234 358.022 L 348.3234 364.548 L 347.748 365.5087 L 345.3008 366.2748 L 343.0265 366.2748 L 341.9901 364.548 L 339.5428 361.6701 L 337.2399 359.9413 L 334.5054 356.2952 L 333.4976 353.6077 L 332.3462 351.1148 L 329.304 347.5269 L 329.6657 347.3143 L 332.844 346.9614 L 336.551 346.2554 L 338.6697 345.1965 L 341.0523 344.4905 L 341.8464 339.1959 L 343.1709 336.0171 L 346.0837 333.1932 L 348.467 332.8403 L 350.3202 334.2522 L 351.3791 335.3111 L 354.0279 337.076 L 355.881 338.8409 L 357.9997 339.1959 L 360.1175 338.8409 L 361.7067 337.076 L 362.7656 333.8992 L 365.1489 331.7793 L 369.6502 331.7793 L 371.504 331.4284 L 376.0052 328.6025 L 380.2425 324.7198 L 382.3611 322.5999 L 383.1553 321.541 L 384.4789 321.188 L 386.5976 321.894 L 388.7162 324.0138 L 389.7751 325.7787 L 391.893 326.8377 L 395.8655 326.8377 L 395.8557 326.4426 L 397.5509 327.7 L 398.4601 328.6908 L 401.7257 332.1143 L 403.5969 335.3773 L 404.8919 338.4478 L 404.8919 340.1746 L 404.1181 341.2134 L 402.7327 343.2451 L 402.301 349.1935 L 401.1496 353.8003 L 397.2636 359.9413 L 396.7386 359.9413 L 393.0888 359.9413 L 391.2176 360.5189 L 390.2098 362.0531 L 389.4901 363.5894 L 388.4326 364.548 Z" fill="#000" fill-opacity="1" stroke="#000" stroke-width="0" paint-order="fill" stroke-opacity="1" stroke-dasharray="" stroke-linecap="butt" stroke-linejoin="miter" stroke-miterlimit="10" transform="matrix(1.2000000476837158,0,0,1.2000000476837158,-90.00012969970703,-60.00004959106445)" clip-path="none"/>
<path data-code="209" d="M 419.9366 376.7919 L 418.3798 374.5698 L 415.2406 370.9237 L 414.7337 368.8981 L 416.8606 364.8469 L 416.8606 363.2264 L 415.3414 360.7956 L 414.8352 358.9064 L 415.0375 354.2154 L 416.7598 355.3947 L 418.2782 356.7464 L 422.4305 361.0664 L 423.6458 362.8233 L 424.7597 365.1176 L 426.0623 366.8544 L 425.4749 367.8111 L 426.4835 370.306 L 426.4835 373.3765 L 426.051 374.9127 L 426.2984 375.4763 L 424.152 375.6508 L 422.532 376.7297 L 421.1143 377.1349 L 419.9366 376.7919 Z" fill="#000" fill-opacity="1" stroke="#000" stroke-width="0" paint-order="fill" stroke-opacity="1" stroke-dasharray="" stroke-linecap="butt" stroke-linejoin="miter" stroke-miterlimit="10" transform="matrix(1.2000000476837158,0,0,1.2000000476837158,-90.00012969970703,-60.00004959106445)" clip-path="none"/>
<path data-code="210" d="M 455.6898 373.0315 L 456.9804 370.0011 L 457.2504 367.1211 L 457.7911 366.0402 L 458.3311 363.1602 L 458.3311 361.1787 L 458.8711 358.8382 L 460.8964 356.4977 L 464.5418 356.3193 L 465.7572 355.2383 L 466.0271 351.8168 L 464.8118 349.2978 L 462.0178 346.9433 L 462.5164 343.3554 L 462.5164 341.8071 L 462.9218 341.7349 L 465.509 339.23 L 470.6186 342.8159 L 479.1247 350.0178 L 481.1071 345.2627 L 483.2175 346.2775 L 483.2175 346.8791 L 484.2035 348.0484 L 484.2035 353.1585 L 482.5609 354.1813 L 479.9316 354.765 L 479.2751 355.7878 L 479.603 358.5615 L 480.1512 359.1471 L 480.0414 360.7535 L 478.7268 361.3371 L 478.0702 362.36 L 477.6318 364.6964 L 476.9744 364.9872 L 476.2081 366.4493 L 476.3171 367.4701 L 475.0032 369.5158 L 473.1411 370.683 L 472.4838 371.7058 L 471.1691 371.7058 L 470.6216 372.2895 L 468.9791 372.7287 L 468.4316 373.6051 L 467.2267 373.7495 L 464.8171 374.9187 L 464.3786 375.3559 L 462.2976 375.9416 L 461.2033 375.9416 L 460.2158 377.2552 L 459.7781 377.2552 L 459.3299 378.7152 L 457.9257 375.7631 L 456.035 373.2421 L 455.6898 373.0315 Z" fill="#000" fill-opacity="1" stroke="#000" stroke-width="0" paint-order="fill" stroke-opacity="1" stroke-dasharray="" stroke-linecap="butt" stroke-linejoin="miter" stroke-miterlimit="10" transform="matrix(1.2000000476837158,0,0,1.2000000476837158,-90.00012969970703,-60.00004959106445)" clip-path="none"/>
<path data-code="211" d="M 493.5105 357.2699 L 493.2224 356.3473 L 489.441 352.252 L 487.9278 350.9684 L 487.4893 349.362 L 487.7082 347.7556 L 487.2704 346.2955 L 486.9418 344.2498 L 487.4893 342.6434 L 488.6949 341.1834 L 489.7899 340.5997 L 490.0095 339.8697 L 491.6513 340.0161 L 493.9519 339.4305 L 494.0617 338.2633 L 494.9379 337.5333 L 495.3756 336.5104 L 497.3468 334.904 L 498.1147 334.904 L 499.5376 334.3204 L 499.8663 332.8583 L 500.0852 330.0846 L 499.1007 329.501 L 497.6755 327.1646 L 497.5664 325.8489 L 496.6903 325.5581 L 496.2518 324.8281 L 495.047 324.3889 L 493.0758 324.3889 L 491.98 323.6589 L 492.0898 322.4896 L 490.8857 322.1988 L 489.7899 321.3224 L 489.7899 320.0088 L 490.8857 318.4023 L 490.9948 317.6703 L 491.8709 316.6495 L 492.1988 314.313 L 491.5423 313.7274 L 490.2276 311.8301 L 490.5563 309.6381 L 491.4325 308.4708 L 493.5135 308.178 L 495.1568 307.3016 L 496.3616 305.8415 L 496.2518 303.6515 L 495.9231 302.3378 L 497.3468 301.4614 L 498.3328 301.1686 L 501.3998 301.0222 L 501.9473 300.4386 L 503.6997 301.0222 L 504.1381 299.7086 L 506.1093 299.125 L 507.3142 298.2485 L 508.7379 295.9121 L 508.6288 294.1592 L 508.9575 292.8436 L 508.3002 291.2371 L 509.1763 290.3627 L 510.491 289.7771 L 513.1195 289.6307 L 513.5572 288.1706 L 513.0097 287.7334 L 511.9147 287.7334 L 512.7908 286.5642 L 514.762 286.2734 L 515.8578 285.5434 L 517.0627 284.2277 L 518.3765 284.2277 L 518.9248 284.6669 L 520.0198 284.6669 L 521.5533 283.3513 L 521.2247 281.3076 L 523.6343 281.0148 L 524.0721 281.454 L 525.7154 281.5984 L 526.1538 280.2848 L 526.1538 279.262 L 526.5915 278.3856 L 528.7823 277.9483 L 529.8774 278.2412 L 530.8633 279.262 L 532.3968 279.262 L 533.8205 279.5548 L 534.9156 280.2848 L 536.2302 280.5776 L 537.9826 280.2848 L 540.0636 280.2848 L 541.488 279.7012 L 543.2404 279.7012 L 545.2116 280.2848 L 545.8689 279.992 L 547.2926 278.0948 L 546.5262 276.7791 L 545.9787 275.0283 L 546.4164 274.589 L 547.9499 274.7355 L 548.2786 275.6119 L 549.1547 275.6119 L 550.1407 275.0283 L 550.9071 275.9047 L 553.5356 275.7583 L 553.6454 275.1727 L 555.3978 275.3191 L 556.1649 276.1955 L 557.2599 276.3419 L 558.7934 274.1518 L 559.4507 274.1518 L 561.0933 272.9826 L 562.5177 273.129 L 563.1743 272.8362 L 563.6127 274.8819 L 565.0364 275.0283 L 566.2413 274.589 L 566.5699 275.0283 L 568.6509 275.4655 L 569.0894 276.3419 L 571.3893 276.3419 L 572.5941 277.2183 L 573.2514 278.0948 L 574.6751 278.3856 L 577.1946 279.7012 L 578.6183 279.7012 L 579.056 279.262 L 580.3706 279.5548 L 580.6993 279.992 L 583.6565 280.2848 L 586.8333 281.1612 L 587.3808 281.8913 L 592.9665 282.1841 L 594.1713 283.0605 L 596.5374 283.2049 L 596.2719 287.0977 L 595.853 289.9937 L 595.1265 292.7313 L 592.9913 297.342 L 592.1106 299.7206 L 591.7895 302.4582 L 592.2061 305.2238 L 593.4072 307.8411 L 595.0693 310.2096 L 600.7626 317.0987 L 602.4171 319.5675 L 605.6804 325.0748 L 605.3555 326.7875 L 605.7398 328.6467 L 604.5327 329.2503 L 593.8983 329.2503 L 587.0446 327.674 L 574.2833 327.674 L 569.7926 330.8247 L 561.9943 334.2903 L 558.9213 337.7579 L 555.1405 339.3322 L 552.0683 339.0174 L 550.1776 339.0174 L 548.2868 339.6471 L 547.3415 341.5383 L 545.4507 343.1147 L 544.0331 343.7444 L 542.6146 345.9506 L 541.197 349.1013 L 540.4877 350.9905 L 539.7793 356.9791 L 539.5431 359.8149 L 538.1247 361.7042 L 536.234 361.7042 L 529.8533 362.3359 L 525.5995 362.3359 L 522.7634 363.5954 L 519.2181 363.9103 L 517.3281 366.7461 L 514.7282 368.6373 L 514.492 369.2671 L 513.3105 369.2671 L 512.8375 368.6373 L 512.3652 365.8015 L 512.3652 363.9103 L 510.0021 360.4447 L 507.6383 360.4447 L 506.9291 359.8149 L 505.5114 359.1832 L 503.3845 357.294 L 501.73 356.6622 L 498.4216 356.3473 L 496.767 356.3473 L 493.5105 357.2699 Z" fill="#000" fill-opacity="1" stroke="#000" stroke-width="0" paint-order="fill" stroke-opacity="1" stroke-dasharray="" stroke-linecap="butt" stroke-linejoin="miter" stroke-miterlimit="10" transform="matrix(1.2000000476837158,0,0,1.2000000476837158,-90.00012969970703,-60.00004959106445)" clip-path="none"/>
<path data-code="212" d="M 343.131 409.9677 L 342.691 409.8213 L 341.596 410.8442 L 339.7339 410.8442 L 337.8717 412.4506 L 337.2144 415.5171 L 335.9005 415.3727 L 334.6957 415.6635 L 334.2572 416.6863 L 333.7097 416.6863 L 333.5999 415.3727 L 332.395 415.6635 L 331.5189 415.3727 L 331.1902 417.5628 L 330.5329 417.7092 L 330.5329 415.6635 L 329.6567 415.9563 L 328.6722 415.3727 L 327.9044 415.9563 L 327.3568 415.5171 L 326.2618 415.8099 L 322.5375 415.8099 L 321.7711 416.1027 L 318.923 416.1027 L 318.0468 416.3935 L 313.5561 416.5399 L 312.7883 416.9791 L 311.4744 416.8327 L 307.6418 415.2263 L 307.4222 414.7871 L 305.5608 413.9106 L 304.3559 412.7434 L 303.479 412.7434 L 303.2594 411.4278 L 302.0553 410.1141 L 302.3832 408.9469 L 303.0413 408.5077 L 302.8224 407.1941 L 303.37 405.8784 L 302.7126 405.002 L 302.2742 403.1047 L 302.2742 401.3519 L 302.7126 399.1618 L 302.7126 395.0725 L 303.0413 393.426 L 305.2855 394.6794 L 308.8835 397.3669 L 310.4673 399.0936 L 312.3385 399.2862 L 314.7851 397.3669 L 315.9372 395.8306 L 318.2401 393.1452 L 319.9676 390.4577 L 321.4064 387.3872 L 322.1269 385.2754 L 322.0855 384.6216 L 323.9973 385.2754 L 326.3009 386.8116 L 327.8841 387.0022 L 329.3235 388.1554 L 330.6186 389.6896 L 332.7778 390.0727 L 335.0815 390.8408 L 338.2477 391.0333 L 340.9831 391.6089 L 342.0089 392.1344 L 341.702 392.9526 L 339.9745 393.7208 L 338.8238 395.4475 L 338.6794 396.4082 L 339.2555 397.3669 L 342.5662 400.4374 L 343.8613 403.1248 L 343.8613 406.5784 L 343.5732 408.4977 L 343.131 409.9677 Z" fill="#000" fill-opacity="1" stroke="#000" stroke-width="0" paint-order="fill" stroke-opacity="1" stroke-dasharray="" stroke-linecap="butt" stroke-linejoin="miter" stroke-miterlimit="10" transform="matrix(1.2000000476837158,0,0,1.2000000476837158,-90.00012969970703,-60.00004959106445)" clip-path="none"/>
<path data-code="213" d="M 459.3299 378.7152 L 457.8069 379.5917 L 456.9307 381.6373 L 456.4915 381.6373 L 454.8497 383.2438 L 454.0826 383.3882 L 453.3162 384.411 L 451.4541 384.8502 L 449.5919 384.2646 L 448.278 381.9281 L 448.278 380.3217 L 447.4018 380.0309 L 447.0732 379.3009 L 445.8691 378.5688 L 444.3349 378.5688 L 443.13 378.278 L 442.0342 376.088 L 441.8154 375.0651 L 440.94 373.4587 L 438.5295 371.5594 L 437.8722 370.2458 L 437.8722 369.223 L 438.6393 367.6165 L 439.9532 367.6165 L 440.2811 367.0329 L 441.3784 366.4493 L 441.4867 365.5007 L 444.1529 365.5007 L 444.1649 365.2038 L 448.8789 368.3806 L 450.2289 368.9201 L 452.525 370.5406 L 453.605 370.5406 L 454.5496 372.3416 L 455.6898 373.0315 L 456.035 373.2421 L 457.9257 375.7631 L 459.3299 378.7152 Z" fill="#000" fill-opacity="1" stroke="#000" stroke-width="0" paint-order="fill" stroke-opacity="1" stroke-dasharray="" stroke-linecap="butt" stroke-linejoin="miter" stroke-miterlimit="10" transform="matrix(1.2000000476837158,0,0,1.2000000476837158,-90.00012969970703,-60.00004959106445)" clip-path="none"/>
<path data-code="214" d="M 323.3061 351.1911 L 322.7022 352.4566 L 320.2549 356.8708 L 319.1035 359.9413 L 319.1035 362.6287 L 319.9676 364.165 L 320.831 366.6599 L 320.831 368.9622 L 320.3993 371.4572 L 320.2549 373.9521 L 318.9599 377.9832 L 319.2479 379.5175 L 321.9825 382.973 L 322.0855 384.6216 L 322.1269 385.2754 L 321.4064 387.3872 L 319.9676 390.4577 L 318.2401 393.1452 L 315.9372 395.8306 L 314.7851 397.3669 L 312.3385 399.2862 L 310.4673 399.0936 L 308.8835 397.3669 L 305.2855 394.6794 L 303.0413 393.426 L 303.6986 392.2968 L 303.5888 390.9832 L 302.3832 389.0839 L 300.7414 387.4775 L 299.4268 386.8939 L 296.3598 386.7475 L 294.4976 386.3103 L 290.9929 386.4567 L 290.5545 387.1867 L 289.7881 387.1867 L 289.3497 388.7931 L 288.8021 389.6696 L 287.049 391.1296 L 286.5023 391.1296 L 285.2967 392.2968 L 284.9688 394.3425 L 284.2024 395.6561 L 283.3255 396.2397 L 283.3435 397.2666 L 282.778 398.2854 L 282.778 399.3082 L 282.2312 400.7683 L 282.0116 403.6884 L 281.1354 404.4184 L 280.2592 404.1276 L 279.8208 403.2511 L 278.8348 402.3747 L 275.6588 400.4755 L 273.0302 399.3082 L 272.7016 398.869 L 270.401 397.8462 L 269.8534 397.409 L 268.6494 397.409 L 268.4298 396.0953 L 265.8012 393.6125 L 265.0341 393.4661 L 263.3916 392.2968 L 261.2007 391.4204 L 259.2295 390.2532 L 258.5722 390.2532 L 257.2576 389.2303 L 256.9297 388.2075 L 256.1625 387.4775 L 254.6283 386.7475 L 253.9717 385.2874 L 252.439 384.5574 L 251.8907 383.8274 L 249.0433 382.3673 L 248.4951 381.7817 L 247.0714 381.4909 L 246.4141 380.7609 L 244.2233 380.0309 L 243.238 379.1545 L 241.5955 378.5688 L 240.9382 377.9852 L 239.4054 377.548 L 238.1998 376.6716 L 235.354 375.5023 L 236.4573 371.6758 L 237.45 360.4266 L 239.6348 359.6725 L 242.2829 359.3196 L 244.931 361.4374 L 249.9616 361.4374 L 254.9931 363.5553 L 258.1706 363.5553 L 262.9373 366.0281 L 266.3796 365.3202 L 268.7629 364.2632 L 269.0277 361.7904 L 269.0277 357.5547 L 270.3513 353.3169 L 269.5571 350.1402 L 269.5571 345.5494 L 270.3513 344.1375 L 271.675 344.1375 L 273.2641 343.7846 L 273.5289 342.0197 L 274.3238 340.6078 L 276.1769 340.9607 L 277.2359 342.7256 L 278.0308 344.8435 L 279.0898 346.6084 L 279.8847 348.7262 L 282.0026 349.7872 L 283.8564 348.0203 L 290.9779 347.1659 L 292.0647 348.3753 L 293.9185 351.1991 L 295.5069 351.1991 L 298.1558 350.1402 L 298.6852 347.3143 L 298.9492 344.1375 L 301.5981 341.3137 L 306.6287 337.7819 L 309.8063 335.3111 L 311.6602 336.723 L 314.3075 340.6078 L 316.9563 339.5468 L 319.8684 343.0786 L 320.6626 345.1965 L 321.4575 348.7262 L 323.3061 351.1911 Z" fill="#000" fill-opacity="1" stroke="#000" stroke-width="0" paint-order="fill" stroke-opacity="1" stroke-dasharray="" stroke-linecap="butt" stroke-linejoin="miter" stroke-miterlimit="10" transform="matrix(1.2000000476837158,0,0,1.2000000476837158,-90.00012969970703,-60.00004959106445)" clip-path="none"/>
<path data-code="215" d="M 290.9779 347.1659 L 283.8564 348.0203 L 282.0026 349.7872 L 279.8847 348.7262 L 279.0898 346.6084 L 278.0308 344.8435 L 277.2359 342.7256 L 276.1769 340.9607 L 274.3238 340.6078 L 273.5289 342.0197 L 273.2641 343.7846 L 271.675 344.1375 L 270.3513 344.1375 L 269.5571 345.5494 L 269.5571 350.1402 L 270.3513 353.3169 L 269.0277 357.5547 L 269.0277 361.7904 L 268.7629 364.2632 L 266.3796 365.3202 L 262.9373 366.0281 L 258.1706 363.5553 L 254.9931 363.5553 L 249.9616 361.4374 L 244.931 361.4374 L 242.2829 359.3196 L 239.6348 359.6725 L 237.45 360.4266 L 237.7817 352.964 L 237.7817 347.3143 L 238.8406 339.9018 L 238.5759 329.3085 L 237.2522 324.3648 L 235.6631 322.9529 L 234.0739 322.5999 L 232.7502 319.0702 L 232.7502 316.9523 L 233.2797 314.4795 L 234.8689 312.0086 L 234.8689 308.8318 L 235.3983 303.1822 L 232.1764 300.1819 L 230.4113 297.3561 L 228.6454 294.0609 L 228.6454 290.7658 L 226.8803 288.8826 L 219.1135 288.8826 L 217.3484 285.5875 L 214.5236 278.9972 L 213.4639 273.8189 L 215.5825 269.1119 L 218.76 263.9336 L 220.8786 260.6384 L 220.8786 257.3433 L 216.9949 257.3433 L 212.0522 256.872 L 209.2274 256.4007 L 205.3436 255.9314 L 203.9312 254.0482 L 203.9312 251.2224 L 204.2847 247.456 L 205.6964 245.5747 L 208.5212 243.6915 L 210.9925 242.2796 L 210.9925 240.3964 L 209.9336 238.5132 L 208.1685 236.63 L 203.5785 236.63 L 201.4599 240.3964 L 197.2234 242.2796 L 191.9273 242.2796 L 185.2194 242.7489 L 182.7474 242.7489 L 180.6295 242.2796 L 175.3333 240.3964 L 173.2147 238.9825 L 169.331 238.0419 L 158.7394 238.0419 L 156.9743 240.8657 L 156.6208 244.1628 L 155.2084 247.456 L 155.2084 253.1056 L 156.9743 255.9314 L 152.737 262.0503 L 148.5006 266.7574 L 145.323 267.7 L 139.6741 267.7 L 134.378 268.1693 L 127.1986 268.1693 L 128.0251 266.3202 L 128.9246 262.285 L 130.3107 256.7597 L 133.0069 250.719 L 133.9012 247.9614 L 134.463 244.8487 L 135.3008 236.8887 L 136.2898 232.2719 L 139.4583 224.9817 L 141.8364 215.303 L 142.7697 212.7399 L 145.0041 207.9566 L 145.9059 205.185 L 146.4444 202.0362 L 146.7031 198.7933 L 146.84 182.2134 L 147.2303 175.6953 L 148.2103 171.0585 L 150.8802 165.0318 L 152.0827 161.0127 L 152.6821 156.6406 L 154.0148 142.8083 L 154.2871 141.3844 L 155.1234 139.08 L 156.4095 136.918 L 158.7447 133.7813 L 153.7411 128.7073 L 149.5633 125.0131 L 146.2338 122.8852 L 142.3779 121.359 L 140.4322 120.286 L 138.6904 118.7116 L 137.5375 116.6579 L 137.3472 115.3944 L 138.0181 113.0299 L 139.5064 111.2249 L 141.4648 109.8371 L 145.9751 107.9579 L 145.9751 109.1271 L 146.7422 110.5871 L 148.1659 111.7544 L 148.3847 112.7772 L 149.5888 113.07 L 151.8902 115.6973 L 152.3279 116.4293 L 153.2033 116.7201 L 153.6425 117.4501 L 154.7376 117.7429 L 154.6285 118.3266 L 152.7664 119.203 L 153.7516 120.3722 L 153.8614 121.1022 L 155.5047 121.393 L 156.162 120.2258 L 158.6807 120.663 L 159.2283 123.1459 L 160.1044 123.1459 L 161.9666 125.0452 L 163.6099 125.0452 L 164.7049 125.4824 L 165.2524 126.2124 L 165.0336 127.6744 L 166.5671 127.3816 L 168.2104 129.1345 L 169.8522 129.4253 L 170.6193 130.4481 L 170.62 132.201 L 171.6053 132.3474 L 173.3576 133.3682 L 174.2338 134.8302 L 175.0009 135.5603 L 177.3008 135.8511 L 178.5056 137.1667 L 180.1489 137.8967 L 180.4776 138.6267 L 181.3537 138.6267 L 182.7774 139.794 L 185.9535 140.8168 L 187.7066 142.4233 L 193.1825 144.9061 L 196.6879 146.8054 L 199.5353 148.5562 L 203.0408 150.1627 L 204.3547 151.4783 L 206.7643 152.7919 L 207.4216 152.9384 L 210.0502 154.6912 L 211.3641 155.1284 L 218.5938 159.3641 L 219.9077 159.8013 L 221.3314 160.8242 L 224.1795 162.577 L 225.1655 162.8698 L 225.3844 163.4535 L 226.5892 163.5999 L 227.2465 164.3299 L 228.1227 164.3299 L 228.6702 165.2063 L 229.4373 165.2063 L 231.0799 166.3735 L 231.7372 166.3735 L 232.833 167.25 L 233.3805 167.25 L 236.2279 169.0028 L 237.4327 169.2956 L 240.171 170.9021 L 243.4569 171.9229 L 246.305 173.3829 L 246.5239 173.9686 L 249.0433 174.5522 L 250.1384 175.2822 L 252.7669 176.4514 L 257.1485 179.3715 L 258.5722 179.8087 L 261.2007 181.4152 L 262.6244 182.0008 L 263.6104 182.7308 L 266.5676 184.4837 L 267.1151 184.4837 L 270.5108 186.6737 L 271.4967 186.6737 L 274.0155 188.1338 L 274.7826 188.1338 L 275.4399 188.8638 L 278.9446 190.4702 L 279.9306 191.2003 L 280.9166 191.2003 L 281.4641 191.7859 L 282.5358 191.9303 L 281.7378 200.4398 L 281.2084 209.2683 L 281.2084 212.4451 L 282.2673 215.9748 L 286.5038 218.0947 L 290.4763 218.8006 L 292.5941 219.8596 L 294.9775 223.7423 L 297.6256 225.1562 L 300.8031 225.1562 L 304.7748 225.5072 L 307.6877 228.686 L 308.7473 232.2158 L 308.7473 236.4535 L 306.8935 241.3952 L 305.3043 242.4561 L 305.3043 249.5177 L 302.9217 255.1653 L 302.9217 259.05 L 302.1275 261.5209 L 301.5981 264.6977 L 298.9492 267.1705 L 298.9492 270.7003 L 299.2147 272.8181 L 301.3326 275.9969 L 305.3043 276.7029 L 308.2171 276.7029 L 310.071 279.5267 L 310.6005 283.7644 L 309.8063 289.0591 L 309.2768 290.824 L 307.9524 290.824 L 305.5698 293.2968 L 301.5981 295.4147 L 299.4794 294.7087 L 296.0372 296.1206 L 294.1833 298.9465 L 289.9461 304.5941 L 289.9461 311.6556 L 291.7999 314.1265 L 292.5941 316.5993 L 291.7999 320.1291 L 291.7999 324.0138 L 292.0647 330.0144 L 293.3891 332.8403 L 293.3891 339.5468 L 291.7999 341.6667 L 290.4763 344.4905 L 290.9779 347.1659 Z" fill="#000" fill-opacity="1" stroke="#000" stroke-width="0" paint-order="fill" stroke-opacity="1" stroke-dasharray="" stroke-linecap="butt" stroke-linejoin="miter" stroke-miterlimit="10" transform="matrix(1.2000000476837158,0,0,1.2000000476837158,-90.00012969970703,-60.00004959106445)" clip-path="none"/>
<path data-code="216" d="M 532.4525 381.5571 L 532.2163 380.9254 L 529.1441 377.4598 L 527.4903 375.2537 L 524.6542 372.4178 L 520.6365 370.5266 L 517.5643 369.2671 L 514.492 369.2671 L 514.7282 368.6373 L 517.3281 366.7461 L 519.2181 363.9103 L 522.7634 363.5954 L 525.5995 362.3359 L 529.8533 362.3359 L 536.234 361.7042 L 538.1247 361.7042 L 539.5431 359.8149 L 539.7793 356.9791 L 540.4877 350.9905 L 541.197 349.1013 L 542.6146 345.9506 L 544.0331 343.7444 L 545.4507 343.1147 L 547.3415 341.5383 L 548.2868 339.6471 L 550.1776 339.0174 L 552.0683 339.0174 L 555.1405 339.3322 L 558.9213 337.7579 L 561.9943 334.2903 L 569.7926 330.8247 L 574.2833 327.674 L 587.0446 327.674 L 593.8983 329.2503 L 604.5327 329.2503 L 605.7398 328.6467 L 606.7845 329.8921 L 609.2641 331.7854 L 610.9224 333.448 L 612.4033 335.4836 L 613.008 336.6528 L 613.821 339.3824 L 614.0676 343.7023 L 613.6781 346.5803 L 612.8102 349.2477 L 609.762 355.126 L 607.59 360.3865 L 602.4074 370.9518 L 606.0128 372.6505 L 604.0604 375.2537 L 599.5698 376.2003 L 596.9706 373.0476 L 595.789 370.5266 L 595.0798 367.6907 L 593.8758 368.0236 L 593.6622 367.6907 L 590.353 367.061 L 587.5177 365.8015 L 584.9177 364.2251 L 582.5547 364.2251 L 574.7556 363.5954 L 572.1564 362.9656 L 568.1388 363.2805 L 564.8296 365.4866 L 562.7027 369.2671 L 560.812 373.0476 L 557.9766 374.9388 L 554.1952 375.2537 L 552.3044 377.7746 L 549.2322 378.7213 L 544.0331 380.6105 L 539.5431 380.6105 L 534.1071 381.5571 L 532.4525 381.5571 Z" fill="#000" fill-opacity="1" stroke="#000" stroke-width="0" paint-order="fill" stroke-opacity="1" stroke-dasharray="" stroke-linecap="butt" stroke-linejoin="miter" stroke-miterlimit="10" transform="matrix(1.2000000476837158,0,0,1.2000000476837158,-90.00012969970703,-60.00004959106445)" clip-path="none"/>
<path data-code="217" d="M 419.9366 376.7919 L 419.5951 378.8897 L 419.5297 384.6958 L 418.4813 384.6958 L 415.3414 383.2117 L 414.7337 382.1307 L 414.7337 380.781 L 415.4429 379.5656 L 415.646 378.3502 L 415.5444 376.8641 L 414.5314 375.5144 L 413.3168 375.5144 L 411.8983 376.1903 L 411.0109 375.8794 L 409.873 374.5698 L 407.7461 371.3288 L 406.3284 369.4376 L 405.4169 367.8171 L 405.1131 365.9278 L 405.1131 362.9576 L 405.6192 361.7423 L 406.9361 360.1218 L 407.3415 358.3669 L 406.4299 357.8254 L 405.3161 357.9618 L 403.1892 360.5269 L 402.3792 361.7423 L 401.1639 362.8233 L 399.847 362.8233 L 398.5308 361.8766 L 396.7386 359.9413 L 397.2636 359.9413 L 401.1496 353.8003 L 402.301 349.1935 L 402.7327 343.2451 L 404.1181 341.2134 L 405.7207 343.2431 L 407.1392 345.403 L 408.1515 347.4286 L 409.5691 349.4543 L 410.886 350.9404 L 412.7783 351.4277 L 413.6198 352.8296 L 415.0375 354.2154 L 414.8352 358.9064 L 415.3414 360.7956 L 416.8606 363.2264 L 416.8606 364.8469 L 414.7337 368.8981 L 415.2406 370.9237 L 418.3798 374.5698 L 419.9366 376.7919 Z" fill="#000" fill-opacity="1" stroke="#000" stroke-width="0" paint-order="fill" stroke-opacity="1" stroke-dasharray="" stroke-linecap="butt" stroke-linejoin="miter" stroke-miterlimit="10" transform="matrix(1.2000000476837158,0,0,1.2000000476837158,-90.00012969970703,-60.00004959106445)" clip-path="none"/>
<path data-code="218" d="M 322.0855 384.6216 L 321.9825 382.973 L 319.2479 379.5175 L 318.9599 377.9832 L 320.2549 373.9521 L 320.3993 371.4572 L 320.831 368.9622 L 320.831 366.6599 L 319.9676 364.165 L 319.1035 362.6287 L 319.1035 359.9413 L 320.2549 356.8708 L 322.7022 352.4566 L 323.3061 351.1911 L 325.4293 349.7872 L 329.304 347.5269 L 332.3462 351.1148 L 333.4976 353.6077 L 334.5054 356.2952 L 337.2399 359.9413 L 339.5428 361.6701 L 341.9901 364.548 L 343.0265 366.2748 L 343.1415 368.0036 L 344.4374 371.4572 L 344.293 372.9934 L 343.7176 374.5276 L 342.5662 376.6395 L 342.9979 377.7907 L 343.8613 378.9419 L 346.7402 380.2856 L 347.6036 381.4368 L 347.6036 383.9317 L 346.8846 386.4266 L 346.7402 388.5384 L 345.7325 391.2259 L 342.8535 392.5696 L 342.0089 392.1344 L 340.9831 391.6089 L 338.2477 391.0333 L 335.0815 390.8408 L 332.7778 390.0727 L 330.6186 389.6896 L 329.3235 388.1554 L 327.8841 387.0022 L 326.3009 386.8116 L 323.9973 385.2754 L 322.0855 384.6216 Z" fill="#000" fill-opacity="1" stroke="#000" stroke-width="0" paint-order="fill" stroke-opacity="1" stroke-dasharray="" stroke-linecap="butt" stroke-linejoin="miter" stroke-miterlimit="10" transform="matrix(1.2000000476837158,0,0,1.2000000476837158,-90.00012969970703,-60.00004959106445)" clip-path="none"/>
<path data-code="219" d="M 436.4485 371.1744 L 436.9727 372.7287 L 435.2633 374.5276 L 433.5357 377.9832 L 431.5209 379.1344 L 430.7342 379.1344 L 428.2102 378.7493 L 427.0588 377.2151 L 426.2984 375.4763 L 426.051 374.9127 L 426.4835 373.3765 L 426.4835 370.306 L 425.4749 367.8111 L 426.0623 366.8544 L 426.7707 365.6992 L 429.5061 365.6992 L 431.8089 365.5087 L 433.2484 364.548 L 434.1118 362.4362 L 433.9682 360.3263 L 432.9604 357.8314 L 430.6575 358.9826 L 427.9222 358.7901 L 426.4835 356.2952 L 426.4835 353.4172 L 427.2024 351.1148 L 428.5607 348.3973 L 429.7934 345.3569 L 430.3695 341.1332 L 430.3695 337.2946 L 429.218 334.9922 L 427.3468 332.3048 L 423.7481 328.4662 L 421.4453 325.5882 L 418.1346 322.5177 L 414.8239 322.5177 L 414.5359 320.5984 L 413.9605 318.6791 L 413.3844 318.4865 L 411.945 316.3767 L 410.7935 315.6086 L 408.6343 315.6086 L 406.7631 316.1842 L 404.4602 318.1035 L 401.5813 322.9008 L 401.2932 326.3563 L 401.0059 327.7 L 399.2784 327.8906 L 398.4601 328.6908 L 397.5509 327.7 L 395.8557 326.4426 L 395.6007 316.5993 L 398.5135 309.8908 L 399.043 306.359 L 399.043 299.2974 L 398.5135 295.0617 L 396.6597 291.5319 L 392.4232 286.5883 L 390.834 283.0585 L 390.0398 280.2327 L 389.7751 276.7029 L 386.5976 271.0533 L 385.0084 270.3473 L 384.7444 268.2294 L 385.0084 266.1116 L 386.3328 264.6977 L 390.0398 261.1679 L 391.3635 258.6971 L 391.3635 256.2242 L 391.629 253.7534 L 393.2174 248.4567 L 393.2174 245.9859 L 393.4821 242.4561 L 393.8762 239.8329 L 394.608 239.9773 L 394.8268 241.5837 L 395.3751 242.4601 L 396.3603 242.7529 L 396.5799 243.483 L 398.1134 245.3822 L 400.9608 245.9658 L 401.1797 246.403 L 403.6991 246.5494 L 406.2186 247.2795 L 407.4234 248.4487 L 408.6283 248.4487 L 409.5045 248.0095 L 410.7093 246.6958 L 412.0232 246.6958 L 412.133 247.7187 L 411.8043 249.6159 L 412.4616 250.4924 L 413.3371 250.4924 L 413.8853 251.078 L 415.5286 251.078 L 417.0614 251.3688 L 419.6907 253.1216 L 420.1284 253.7052 L 425.7148 253.7052 L 426.8099 253.8517 L 428.4532 252.8288 L 429.1097 253.1216 L 431.3005 253.1216 L 432.834 254.2909 L 434.8052 255.1653 L 436.996 255.8973 L 437.7632 257.211 L 439.2967 257.941 L 441.3777 257.941 L 442.0342 257.6482 L 443.13 258.0874 L 444.2251 257.7946 L 445.7586 259.2546 L 447.292 259.5474 L 448.0584 261.5911 L 448.278 263.0531 L 448.9346 262.7603 L 450.4779 262.7603 L 447.7862 268.9715 L 444.9072 274.5389 L 442.6043 278.5681 L 442.748 281.446 L 444.4755 283.7504 L 446.9228 286.0528 L 447.7862 287.7796 L 447.7862 289.5083 L 446.4903 292.9619 L 444.4755 296.608 L 444.4755 298.7198 L 446.0586 301.4073 L 446.9228 303.9022 L 446.9228 311.77 L 447.7862 313.8818 L 449.6573 315.033 L 450.9532 315.033 L 452.968 316.5692 L 452.9139 318.8014 L 452.8244 319.6397 L 452.1046 320.9835 L 450.3771 322.3252 L 449.2256 324.6295 L 447.7862 326.3563 L 446.7784 328.6587 L 446.203 331.7292 L 445.6269 333.841 L 445.1952 336.5285 L 445.1952 338.3636 L 444.7635 340.9427 L 444.7635 343.4376 L 445.1952 345.74 L 445.7713 349.9617 L 445.7713 352.6491 L 444.4755 353.8003 L 443.3241 355.5291 L 440.3014 359.3657 L 439.7254 360.5189 L 438.2866 362.0531 L 435.983 363.3968 L 434.5435 364.548 L 433.3921 366.0843 L 433.3921 367.2355 L 435.1196 369.5378 L 435.8393 371.0741 L 436.4485 371.1744 Z" fill="#000" fill-opacity="1" stroke="#000" stroke-width="0" paint-order="fill" stroke-opacity="1" stroke-dasharray="" stroke-linecap="butt" stroke-linejoin="miter" stroke-miterlimit="10" transform="matrix(1.2000000476837158,0,0,1.2000000476837158,-90.00012969970703,-60.00004959106445)" clip-path="none"/>
<path data-code="220" d="M 436.9727 372.7287 L 438.7484 374.4815 L 439.7344 374.4815 L 440.5023 375.6488 L 440.5023 376.3788 L 441.3784 377.2552 L 441.9252 378.278 L 442.2546 379.7381 L 443.8964 381.1981 L 445.1012 381.6373 L 446.7453 384.411 L 448.278 385.5802 L 450.2485 386.6011 L 451.8925 386.7475 L 454.7399 387.3331 L 456.0545 386.8939 L 456.6013 387.3331 L 456.7126 390.2532 L 456.2742 392.5896 L 455.507 393.6125 L 453.5351 395.5097 L 452.8778 395.8025 L 451.236 395.8025 L 449.5919 395.0725 L 447.8396 395.0725 L 446.9634 395.3633 L 444.2251 395.3653 L 443.5677 395.9489 L 441.049 395.5097 L 440.5023 396.0953 L 438.6393 396.0953 L 436.7772 395.5097 L 435.9018 396.5326 L 435.1339 398.5762 L 434.4766 399.1618 L 432.834 401.7891 L 431.739 402.6655 L 429.1097 402.5211 L 428.8397 402.9583 L 427.7981 401.035 L 426.6835 399.6833 L 426.2789 397.5233 L 426.0758 394.5531 L 426.0758 388.6126 L 426.2789 386.1819 L 427.5958 383.3461 L 428.8104 382.4014 L 430.0258 380.781 L 430.7342 379.1344 L 431.5209 379.1344 L 433.5357 377.9832 L 435.2633 374.5276 L 436.9727 372.7287 Z" fill="#000" fill-opacity="1" stroke="#000" stroke-width="0" paint-order="fill" stroke-opacity="1" stroke-dasharray="" stroke-linecap="butt" stroke-linejoin="miter" stroke-miterlimit="10" transform="matrix(1.2000000476837158,0,0,1.2000000476837158,-90.00012969970703,-60.00004959106445)" clip-path="none"/>
<path data-code="221" d="M 426.0623 366.8544 L 424.7597 365.1176 L 423.6458 362.8233 L 422.4305 361.0664 L 418.2782 356.7464 L 416.7598 355.3947 L 415.0375 354.2154 L 413.6198 352.8296 L 412.7783 351.4277 L 413.8229 351.3455 L 415.3414 349.9937 L 416.7598 349.0491 L 418.9875 348.9148 L 421.6205 348.2389 L 426.0758 348.2389 L 428.5607 348.3973 L 427.2024 351.1148 L 426.4835 353.4172 L 426.4835 356.2952 L 427.9222 358.7901 L 430.6575 358.9826 L 432.9604 357.8314 L 433.9682 360.3263 L 434.1118 362.4362 L 433.2484 364.548 L 431.8089 365.5087 L 429.5061 365.6992 L 426.7707 365.6992 L 426.0623 366.8544 Z" fill="#000" fill-opacity="1" stroke="#000" stroke-width="0" paint-order="fill" stroke-opacity="1" stroke-dasharray="" stroke-linecap="butt" stroke-linejoin="miter" stroke-miterlimit="10" transform="matrix(1.2000000476837158,0,0,1.2000000476837158,-90.00012969970703,-60.00004959106445)" clip-path="none"/>
<path data-code="222" d="M 419.5297 384.6958 L 419.4936 385.506 L 418.6836 387.1265 L 417.5698 388.747 L 416.8606 390.2331 L 416.7906 391.4485 L 411.7968 391.4485 L 411.7968 387.666 L 411.4937 386.7214 L 409.873 387.2629 L 409.3668 387.9368 L 407.9492 387.666 L 407.0376 386.3163 L 405.7771 384.9064 L 406.2269 384.8322 L 406.7338 382.9409 L 406.4299 381.5912 L 404.7084 378.8897 L 404.7084 378.2159 L 408.253 378.2159 L 409.2653 378.0795 L 411.0109 375.8794 L 411.8983 376.1903 L 413.3168 375.5144 L 414.5314 375.5144 L 415.5444 376.8641 L 415.646 378.3502 L 415.4429 379.5656 L 414.7337 380.781 L 414.7337 382.1307 L 415.3414 383.2117 L 418.4813 384.6958 L 419.5297 384.6958 Z" fill="#000" fill-opacity="1" stroke="#000" stroke-width="0" paint-order="fill" stroke-opacity="1" stroke-dasharray="" stroke-linecap="butt" stroke-linejoin="miter" stroke-miterlimit="10" transform="matrix(1.2000000476837158,0,0,1.2000000476837158,-90.00012969970703,-60.00004959106445)" clip-path="none"/>
<path data-code="223" d="M 500.3747 407.3946 L 497.4762 407.3946 L 495.5855 408.0244 L 488.7317 411.8068 L 483.2182 414.1032 L 482.6692 413.1806 L 481.793 413.0342 L 480.589 412.3042 L 479.9316 412.3042 L 479.2743 413.9106 L 478.1785 414.6407 L 477.1933 413.1806 L 475.9885 413.1806 L 475.8794 413.7662 L 474.1271 413.9106 L 473.9075 412.597 L 474.6753 411.137 L 475.6606 411.7206 L 476.6458 411.867 L 476.8646 409.9677 L 476.5367 409.0913 L 476.5367 406.9012 L 475.441 406.0248 L 474.5648 406.0248 L 473.6886 406.6084 L 471.8265 407.3405 L 470.293 407.6313 L 469.6364 406.1712 L 469.7454 403.9812 L 468.2119 400.7663 L 469.7454 400.4755 L 470.7314 399.599 L 470.7314 398.869 L 468.7602 398.5762 L 468.6504 397.2626 L 467.5554 396.2397 L 465.8023 395.6561 L 465.9121 393.9033 L 464.7072 393.6125 L 464.4884 392.736 L 465.2548 391.7132 L 464.1597 391.1296 L 464.4884 389.5232 L 465.3646 389.106 L 466.0444 388.8032 L 468.6444 385.6524 L 471.0074 383.4463 L 473.6074 381.2402 L 475.4981 380.9254 L 477.1519 383.1315 L 479.988 385.6524 L 482.3511 387.5437 L 486.1325 390.3795 L 487.5502 390.3795 L 488.7317 391.3241 L 490.8586 393.5302 L 493.6955 395.1066 L 496.2947 398.8871 L 497.24 401.7229 L 500.3747 407.3946 Z" fill="#000" fill-opacity="1" stroke="#000" stroke-width="0" paint-order="fill" stroke-opacity="1" stroke-dasharray="" stroke-linecap="butt" stroke-linejoin="miter" stroke-miterlimit="10" transform="matrix(1.2000000476837158,0,0,1.2000000476837158,-90.00012969970703,-60.00004959106445)" clip-path="none"/>
<path data-code="224" d="M 441.4867 365.5007 L 441.4867 364.6964 L 440.8302 363.6736 L 440.6106 362.5064 L 439.6246 362.2136 L 439.6246 363.3808 L 440.6106 364.9872 L 440.5023 365.8637 L 437.2157 367.1793 L 436.2297 368.6394 L 436.4485 371.1744 L 435.8393 371.0741 L 435.1196 369.5378 L 433.3921 367.2355 L 433.3921 366.0843 L 434.5435 364.548 L 435.983 363.3968 L 438.2866 362.0531 L 439.7254 360.5189 L 440.3014 359.3657 L 443.3241 355.5291 L 444.4755 353.8003 L 445.7713 352.6491 L 445.7713 349.9617 L 445.1952 345.74 L 444.7635 343.4376 L 444.7635 340.9427 L 445.1952 338.3636 L 446.1782 338.4959 L 449.6889 339.3944 L 452.9296 339.7554 L 456.7104 342.2764 L 458.6003 342.0959 L 460.8964 342.0959 L 462.5164 341.8071 L 462.5164 343.3554 L 462.0178 346.9433 L 461.3011 349.4763 L 461.0311 351.8168 L 460.6265 353.4373 L 459.1411 353.7983 L 457.3857 353.7983 L 454.8204 354.1573 L 451.4443 355.9583 L 446.0436 360.0997 L 444.2882 362.0792 L 444.1649 365.2038 L 444.1529 365.5007 L 441.4867 365.5007 Z" fill="#000" fill-opacity="1" stroke="#000" stroke-width="0" paint-order="fill" stroke-opacity="1" stroke-dasharray="" stroke-linecap="butt" stroke-linejoin="miter" stroke-miterlimit="10" transform="matrix(1.2000000476837158,0,0,1.2000000476837158,-90.00012969970703,-60.00004959106445)" clip-path="none"/>
<path data-code="225" d="M 553.0137 421.7002 L 552.3044 422.8354 L 551.3591 425.0415 L 550.4137 425.9861 L 548.523 426.6158 L 547.8145 428.507 L 547.8145 434.8085 L 546.8684 437.3295 L 544.9784 438.2761 L 539.0701 438.2761 L 537.8885 438.9058 L 536.9432 441.7417 L 535.9978 447.0985 L 535.0524 449.3046 L 531.9802 451.5087 L 529.8774 453.3799 L 524.7294 449.5453 L 524.1811 449.5453 L 523.1959 448.6688 L 520.7862 447.9388 L 519.8017 448.8153 L 517.0627 446.6252 L 514.5432 443.1195 L 512.1335 438.4466 L 510.8196 436.1101 L 509.6148 434.5036 L 509.3952 433.7736 L 506.5478 429.9751 L 506.0981 429.6843 L 507.8752 428.8219 L 509.7652 428.8219 L 512.3652 429.4517 L 514.492 428.507 L 518.5097 427.5624 L 524.4173 425.3563 L 532.4525 425.3563 L 534.1071 425.0415 L 534.1071 421.8907 L 535.2886 419.6846 L 537.1793 414.3278 L 539.0693 412.3684 L 540.9608 410.2305 L 543.3238 409.2858 L 544.2692 409.2858 L 546.1599 410.8602 L 552.8324 410.8602 L 553.0129 414.9575 L 553.0137 421.7002 Z" fill="#000" fill-opacity="1" stroke="#000" stroke-width="0" paint-order="fill" stroke-opacity="1" stroke-dasharray="" stroke-linecap="butt" stroke-linejoin="miter" stroke-miterlimit="10" transform="matrix(1.2000000476837158,0,0,1.2000000476837158,-90.00012969970703,-60.00004959106445)" clip-path="none"/>
<path data-code="226" d="M 369.9705 399.934 L 369.6268 398.9011 L 366.0281 398.7106 L 364.0133 396.2157 L 363.8689 393.7208 L 364.0133 391.2259 L 363.4372 384.8923 L 362.1414 382.3974 L 362.8619 377.5981 L 363.8689 373.569 L 363.7253 371.4572 L 363.7253 366.6599 L 363.3846 366.0241 L 365.1647 365.6992 L 367.324 365.6992 L 369.3388 365.1236 L 374.2326 364.7406 L 376.3918 364.7406 L 379.4144 364.548 L 388.4326 364.548 L 388.483 368.9622 L 388.3394 373.1839 L 388.0513 376.447 L 387.6189 378.7493 L 386.2569 381.4548 L 385.1724 384.5073 L 385.0287 388.9215 L 384.1646 390.4577 L 383.7908 390.4577 L 381.8617 392.3771 L 381.142 393.9113 L 380.8539 395.8306 L 380.1342 397.3669 L 378.263 398.135 L 374.9523 398.518 L 372.3614 399.4767 L 369.9705 399.934 Z" fill="#000" fill-opacity="1" stroke="#000" stroke-width="0" paint-order="fill" stroke-opacity="1" stroke-dasharray="" stroke-linecap="butt" stroke-linejoin="miter" stroke-miterlimit="10" transform="matrix(1.2000000476837158,0,0,1.2000000476837158,-90.00012969970703,-60.00004959106445)" clip-path="none"/>
<path data-code="227" d="M 506.0981 429.6843 L 505.2332 428.5151 L 505.2332 427.785 L 504.3562 426.6178 L 502.3858 426.1786 L 502.276 425.4486 L 499.9769 422.3821 L 498.4419 422.5285 L 497.128 421.9429 L 497.0182 421.2129 L 496.2518 420.3364 L 495.3756 420.9221 L 494.3889 420.9221 L 493.4044 420.192 L 491.98 418.4392 L 491.4325 419.0228 L 489.899 418.5856 L 489.7899 417.2699 L 489.2417 416.1027 L 487.1606 415.8099 L 486.1754 416.1027 L 483.5454 414.9335 L 483.2182 414.1032 L 488.7317 411.8068 L 495.5855 408.0244 L 497.4762 407.3946 L 500.3747 407.3946 L 502.9115 407.0797 L 503.8576 405.5034 L 505.0384 402.9844 L 507.166 400.7783 L 517.0912 400.7783 L 517.5643 398.2573 L 518.2735 397.3107 L 521.5819 397.3107 L 523.7088 397.9425 L 526.308 399.8317 L 528.9079 399.8317 L 530.3256 398.8871 L 533.1617 398.5722 L 535.2886 399.8317 L 537.1793 400.0623 L 537.8885 400.1466 L 538.3609 402.9844 L 538.3609 407.0797 L 539.0693 412.3684 L 537.1793 414.3278 L 535.2886 419.6846 L 534.1071 421.8907 L 534.1071 425.0415 L 532.4525 425.3563 L 524.4173 425.3563 L 518.5097 427.5624 L 514.492 428.507 L 512.3652 429.4517 L 509.7652 428.8219 L 507.8752 428.8219 L 506.0981 429.6843 Z" fill="#000" fill-opacity="1" stroke="#000" stroke-width="0" paint-order="fill" stroke-opacity="1" stroke-dasharray="" stroke-linecap="butt" stroke-linejoin="miter" stroke-miterlimit="10" transform="matrix(1.2000000476837158,0,0,1.2000000476837158,-90.00012969970703,-60.00004959106445)" clip-path="none"/>
<path data-code="228" d="M 553.0137 421.7002 L 553.486 420.9441 L 556.7944 420.6292 L 565.775 420.6292 L 570.2657 416.5339 L 575.7009 415.9022 L 576.1733 411.1771 L 577.3555 407.7095 L 576.4102 407.3946 L 572.8648 407.0797 L 570.738 404.2439 L 569.0834 398.5722 L 569.0834 389.7498 L 570.2423 386.6592 L 571.6833 385.6524 L 572.8648 383.1315 L 573.5741 380.9254 L 575.4648 379.351 L 581.3724 379.351 L 584.6816 379.6659 L 587.0446 379.6659 L 589.8807 376.2003 L 592.716 374.309 L 593.6622 371.1583 L 593.8758 368.0236 L 595.0798 367.6907 L 595.789 370.5266 L 596.9706 373.0476 L 599.5698 376.2003 L 604.0604 375.2537 L 606.0128 372.6505 L 607.5591 373.3805 L 613.5412 376.7498 L 616.3412 377.913 L 621.7878 379.712 L 624.0658 381.2663 L 625.5542 383.5988 L 627.7856 390.2712 L 629.5387 393.6105 L 635.1109 387.9448 L 643.2025 379.4392 L 645.0113 377.7546 L 646.893 376.3246 L 648.9274 375.3559 L 651.1332 375.1975 L 653.2353 375.7711 L 657.3409 377.3795 L 655.7247 386.593 L 655.0613 389.4449 L 653.943 392.1584 L 651.4829 395.7985 L 646.5042 401.2797 L 643.2822 404.3221 L 641.0275 406.1632 L 638.6321 407.7275 L 637.3596 408.3432 L 634.701 409.1635 L 632.7275 409.5385 L 632.183 405.1885 L 631.4746 402.3527 L 625.3301 402.6675 L 618.004 402.6675 L 613.7495 406.45 L 608.0781 410.8602 L 603.5874 414.0129 L 597.2067 418.1083 L 590.8261 421.5739 L 586.8084 421.5739 L 585.39 424.7266 L 583.7362 427.2476 L 583.027 431.6578 L 581.3724 437.3295 L 579.9547 440.7971 L 577.3555 443.9478 L 574.5194 447.0985 L 572.6287 449.9344 L 572.6287 451.8256 L 571.6833 454.6614 L 567.9019 454.6614 L 565.0658 456.2358 L 564.1211 459.3865 L 562.4666 462.2224 L 560.5458 464.5869 L 559.3409 463.4197 L 557.3697 463.2733 L 555.5076 462.3968 L 554.0839 462.5433 L 554.0839 464.1497 L 555.2887 464.4405 L 554.6314 465.4633 L 553.6454 464.2941 L 551.4546 464.4405 L 549.9211 461.9576 L 548.7163 461.0832 L 547.6212 461.0812 L 544.8829 459.3304 L 544.4452 459.3304 L 542.8019 458.3075 L 539.4062 457.5775 L 538.6399 456.8475 L 537.326 456.7011 L 536.777 455.8247 L 535.0246 455.8247 L 534.0394 456.8475 L 533.1632 456.5547 L 531.192 455.3874 L 531.083 454.3646 L 529.8774 453.3799 L 531.9802 451.5087 L 535.0524 449.3046 L 535.9978 447.0985 L 536.9432 441.7417 L 537.8885 438.9058 L 539.0701 438.2761 L 544.9784 438.2761 L 546.8684 437.3295 L 547.8145 434.8085 L 547.8145 428.507 L 548.523 426.6158 L 550.4137 425.9861 L 551.3591 425.0415 L 552.3044 422.8354 L 553.0137 421.7002 Z" fill="#000" fill-opacity="1" stroke="#000" stroke-width="0" paint-order="fill" stroke-opacity="1" stroke-dasharray="" stroke-linecap="butt" stroke-linejoin="miter" stroke-miterlimit="10" transform="matrix(1.2000000476837158,0,0,1.2000000476837158,-90.00012969970703,-60.00004959106445)" clip-path="none"/>
<path data-code="229" d="M 570.2423 386.6592 L 566.7203 386.2822 L 562.4666 386.2822 L 559.6305 386.5971 L 558.2128 389.4329 L 556.3221 393.8451 L 554.6675 398.2573 L 553.2498 401.408 L 552.7768 405.5034 L 552.8324 410.8602 L 546.1599 410.8602 L 544.2692 409.2858 L 543.3238 409.2858 L 540.9608 410.2305 L 539.0693 412.3684 L 538.3609 407.0797 L 538.3609 402.9844 L 537.8885 400.1466 L 537.1793 400.0623 L 537.1793 399.8317 L 534.8155 395.4215 L 534.3432 394.9482 L 534.3432 391.9539 L 530.5618 385.9673 L 530.5618 383.4463 L 532.4525 381.5571 L 534.1071 381.5571 L 539.5431 380.6105 L 544.0331 380.6105 L 549.2322 378.7213 L 552.3044 377.7746 L 554.1952 375.2537 L 557.9766 374.9388 L 560.812 373.0476 L 562.7027 369.2671 L 564.8296 365.4866 L 568.1388 363.2805 L 572.1564 362.9656 L 574.7556 363.5954 L 582.5547 364.2251 L 584.9177 364.2251 L 587.5177 365.8015 L 590.353 367.061 L 593.6622 367.6907 L 593.8758 368.0236 L 593.6622 371.1583 L 592.716 374.309 L 589.8807 376.2003 L 587.0446 379.6659 L 584.6816 379.6659 L 581.3724 379.351 L 575.4648 379.351 L 573.5741 380.9254 L 572.8648 383.1315 L 571.6833 385.6524 L 570.2423 386.6592 Z" fill="#000" fill-opacity="1" stroke="#000" stroke-width="0" paint-order="fill" stroke-opacity="1" stroke-dasharray="" stroke-linecap="butt" stroke-linejoin="miter" stroke-miterlimit="10" transform="matrix(1.2000000476837158,0,0,1.2000000476837158,-90.00012969970703,-60.00004959106445)" clip-path="none"/>
<path data-code="230" d="M 465.509 339.23 L 466.8371 337.5954 L 468.9979 337.0539 L 470.2132 335.9749 L 470.3486 333.813 L 470.3486 330.213 L 470.2132 327.1525 L 470.2132 321.7516 L 469.2679 319.5916 L 467.5125 319.4111 L 466.7025 320.4901 L 466.0271 321.9321 L 460.4911 321.9321 L 459.4111 320.6706 L 459.4111 319.7721 L 458.7357 319.4111 L 455.9004 318.8716 L 452.9139 318.8014 L 452.968 316.5692 L 450.9532 315.033 L 449.6573 315.033 L 447.7862 313.8818 L 446.9228 311.77 L 446.9228 303.9022 L 446.0586 301.4073 L 444.4755 298.7198 L 444.4755 296.608 L 446.4903 292.9619 L 447.7862 289.5083 L 447.7862 287.7796 L 446.9228 286.0528 L 444.4755 283.7504 L 442.748 281.446 L 442.6043 278.5681 L 444.9072 274.5389 L 447.7862 268.9715 L 450.4779 262.7603 L 451.2352 263.4903 L 452.7687 263.0531 L 453.8637 263.4903 L 454.8497 263.4903 L 455.6161 264.0739 L 460.7641 266.1196 L 462.0787 266.1196 L 462.9549 266.996 L 465.9121 266.8496 L 467.1169 267.2868 L 468.2119 267.1424 L 470.293 267.2868 L 473.3599 267.2868 L 474.7836 266.7032 L 475.1123 265.8268 L 474.8934 264.804 L 476.0983 264.3668 L 476.8654 263.1975 L 476.8654 262.1767 L 476.4269 260.7167 L 478.1793 261.4467 L 478.3981 262.1767 L 480.3701 262.0303 L 480.8078 261.0075 L 481.5749 261.0075 L 482.0126 261.7375 L 483.6559 262.1767 L 485.6271 262.0303 L 486.2845 262.7603 L 486.2845 263.6367 L 486.832 264.3668 L 487.7082 263.4903 L 488.8039 263.6367 L 489.6801 263.3439 L 490.2276 263.7831 L 489.899 264.6596 L 490.4465 265.534 L 491.5423 264.2204 L 491.5423 263.4903 L 492.5275 262.3231 L 493.0758 264.5132 L 494.9372 264.6596 L 494.8281 265.6804 L 495.7043 266.4104 L 497.4566 265.8268 L 498.0042 266.7032 L 500.0852 267.8725 L 500.5236 269.1861 L 502.276 268.8933 L 502.4948 269.7697 L 503.9185 270.2089 L 503.6997 271.5226 L 504.7955 270.9389 L 505.7807 270.9389 L 505.0143 272.5454 L 506.438 272.5454 L 507.533 272.9826 L 507.0953 275.0283 L 507.3142 275.9047 L 506.438 276.1955 L 505.0143 277.8019 L 505.0143 279.1176 L 504.2472 279.4084 L 503.8095 280.2848 L 503.8095 281.454 L 504.5758 282.6213 L 505.5618 283.3513 L 505.343 284.6669 L 504.5758 286.127 L 503.4808 287.1498 L 503.262 288.0242 L 502.0571 288.317 L 500.8523 288.1706 L 500.195 289.7771 L 498.114 290.3627 L 496.3616 293.5756 L 495.7043 294.45 L 493.7323 297.9557 L 492.6373 298.3929 L 491.98 299.125 L 491.3227 301.0222 L 490.994 303.2123 L 488.3655 305.8415 L 485.8468 306.2808 L 484.751 307.7408 L 484.8608 308.6172 L 484.0937 309.4937 L 482.5609 309.6381 L 482.1224 310.2237 L 481.1365 310.3701 L 480.1512 311.9765 L 479.3841 312.5601 L 477.7416 312.8509 L 476.5367 313.8738 L 476.5367 314.8966 L 478.2891 315.9194 L 478.8366 317.0867 L 480.0414 317.8167 L 482.4511 318.6931 L 483.4371 320.1532 L 484.6419 322.4896 L 484.4223 323.6589 L 484.8608 324.2425 L 485.8468 324.5353 L 486.3943 325.9953 L 487.0516 326.7253 L 487.1606 327.6018 L 488.5851 328.771 L 489.3515 328.771 L 490.2276 330.5219 L 490.2276 331.9839 L 489.6801 332.5675 L 489.3515 333.7347 L 487.5991 334.904 L 486.2845 336.8032 L 485.1894 336.8032 L 485.0796 337.9705 L 485.4083 338.7005 L 484.4223 340.3069 L 484.4223 341.4762 L 483.8748 341.9134 L 483.3273 343.5198 L 483.2175 346.2775 L 481.1071 345.2627 L 479.1247 350.0178 L 470.6186 342.8159 L 465.509 339.23 Z" fill="#000" fill-opacity="1" stroke="#000" stroke-width="0" paint-order="fill" stroke-opacity="1" stroke-dasharray="" stroke-linecap="butt" stroke-linejoin="miter" stroke-miterlimit="10" transform="matrix(1.2000000476837158,0,0,1.2000000476837158,-90.00012969970703,-60.00004959106445)" clip-path="none"/>
<path data-code="231" d="M 605.7398 328.6467 L 605.3555 326.7875 L 605.6804 325.0748 L 602.4171 319.5675 L 600.7626 317.0987 L 595.0693 310.2096 L 593.4072 307.8411 L 592.2061 305.2238 L 591.7895 302.4582 L 592.1106 299.7206 L 592.9913 297.342 L 595.1265 292.7313 L 595.853 289.9937 L 596.2719 287.0977 L 596.5374 283.2049 L 597.1285 283.6441 L 598.0047 283.4977 L 598.3333 284.5205 L 599.4291 284.2277 L 600.9626 284.2277 L 601.8388 285.2506 L 605.1246 285.2506 L 605.4533 284.9577 L 607.3147 284.9577 L 608.8482 284.2277 L 610.053 284.0813 L 610.6013 284.8113 L 611.5865 284.8113 L 612.3536 284.0813 L 613.2298 284.0813 L 614.2158 283.3513 L 615.4199 283.0605 L 616.4059 284.5205 L 618.1582 284.5205 L 620.1302 285.9806 L 621.4441 286.127 L 623.1972 285.9806 L 623.8537 287.0034 L 624.8397 287.587 L 627.1396 287.8798 L 627.4682 288.317 L 629.5492 289.3399 L 631.4106 289.6307 L 631.9589 290.2163 L 633.0547 290.2163 L 635.3546 290.7999 L 635.9021 291.3835 L 637.4356 291.6763 L 637.874 292.1136 L 640.8312 291.8227 L 642.6934 292.4064 L 644.8834 293.8664 L 646.4169 294.5964 L 651.2363 295.9121 L 653.9746 296.3493 L 655.3983 297.3721 L 657.1506 297.5185 L 660.1086 298.9786 L 660.9847 299.2694 L 662.7371 299.2694 L 663.9412 298.9786 L 664.7091 299.4158 L 666.2418 299.7086 L 669.1997 300.7314 L 670.9521 301.0222 L 672.8142 301.7522 L 674.0191 301.7522 L 676.5378 303.0679 L 679.495 303.3587 L 681.0285 304.0887 L 682.6718 304.5279 L 684.4241 304.6743 L 684.9716 304.9651 L 686.8338 305.1115 L 689.2435 305.8415 L 692.967 306.2808 L 693.6243 306.718 L 695.5963 306.718 L 698.3346 306.2808 L 699.5395 305.1115 L 699.2108 304.0887 L 699.6485 303.0679 L 700.5247 303.5051 L 701.5107 302.7751 L 701.5107 301.8986 L 700.4156 302.045 L 699.7583 301.315 L 700.7443 300.4386 L 702.8253 300.585 L 704.1392 301.1686 L 704.1392 302.045 L 707.8635 301.4614 L 708.3012 302.1914 L 708.1922 303.2123 L 708.8495 304.3815 L 709.7256 303.7979 L 710.492 304.3815 L 711.478 304.3815 L 711.478 305.6951 L 712.3542 306.4252 L 713.4492 306.5716 L 714.9827 307.1572 L 716.1868 307.1572 L 718.0497 308.0316 L 722.5404 309.2008 L 723.855 309.2008 L 724.4025 308.3244 L 725.2787 308.3244 L 726.2647 309.0544 L 726.5933 310.5145 L 727.4695 311.1001 L 729.7694 311.1001 L 730.5357 310.0773 L 732.7266 309.7845 L 733.0552 310.3701 L 734.1502 309.9309 L 734.8076 310.2237 L 736.4509 310.2237 L 736.7795 309.7845 L 738.8605 310.0773 L 738.8605 311.5373 L 739.9556 311.5373 L 739.9556 312.5601 L 741.0506 312.9974 L 741.7079 312.4137 L 743.1324 312.5601 L 743.6799 312.9974 L 745.7609 313.2902 L 747.0748 312.9974 L 747.5132 313.7274 L 750.7991 314.4574 L 751.1277 313.7274 L 751.8941 313.8738 L 752.2228 312.9974 L 754.0849 311.9765 L 757.6994 312.7065 L 758.5748 311.1001 L 759.1231 313.583 L 760.1091 313.583 L 761.3139 312.4137 L 762.7376 312.5601 L 763.6138 311.8301 L 765.3669 311.9765 L 766.4619 312.5601 L 767.7766 312.5601 L 767.8856 313.1438 L 769.4191 312.8509 L 770.8428 313.4366 L 772.3763 314.4574 L 773.1434 314.4574 L 773.2525 315.9194 L 774.3483 315.1894 L 775.7719 315.3338 L 776.3195 315.9194 L 778.3997 316.5031 L 778.948 317.0867 L 780.3724 317.2331 L 780.8101 318.5467 L 782.015 318.5467 L 782.7821 319.2767 L 783.5485 319.2767 L 783.7673 320.1532 L 784.8631 320.2996 L 784.8631 320.8832 L 785.9581 321.0296 L 788.149 321.7596 L 790.5579 322.0524 L 794.392 322.9288 L 795.378 323.6589 L 797.568 323.6589 L 798.0065 322.1988 L 798.7729 321.0296 L 800.0875 320.7388 L 801.7308 321.0296 L 802.892 322.9489 L 805.2648 329.6956 L 808.7635 336.8774 L 809.7976 341.5063 L 810.0007 344.6389 L 809.8615 347.7054 L 809.2689 350.6054 L 807.94 353.1625 L 807.033 354.0811 L 801.8218 357.1295 L 796.4061 359.7989 L 791.865 360.3925 L 781.654 360.9461 L 777.3934 361.4575 L 774.6777 362.1735 L 768.8408 364.9872 L 766.3514 365.9218 L 759.5834 367.4039 L 756.9233 368.2062 L 743.7573 374.9348 L 740.221 377.7205 L 734.8715 382.6862 L 727.3319 386.2942 L 721.5845 389.6274 L 718.9191 390.6523 L 715.9318 391.276 L 712.8701 391.5929 L 705.1342 391.5728 L 700.5924 390.921 L 697.7119 389.9624 L 694.0274 387.6239 L 687.2655 382.1046 L 684.746 380.6727 L 683.3381 380.1472 L 680.4035 379.4874 L 677.3779 379.1605 L 663.4666 378.5608 L 660.4312 378.1196 L 657.3409 377.3795 L 653.2353 375.7711 L 651.1332 375.1975 L 648.9274 375.3559 L 646.893 376.3246 L 645.0113 377.7546 L 643.2025 379.4392 L 635.1109 387.9448 L 629.5387 393.6105 L 627.7856 390.2712 L 625.5542 383.5988 L 624.0658 381.2663 L 621.7878 379.712 L 616.3412 377.913 L 613.5412 376.7498 L 607.5591 373.3805 L 606.0128 372.6505 L 602.4074 370.9518 L 607.59 360.3865 L 609.762 355.126 L 612.8102 349.2477 L 613.6781 346.5803 L 614.0676 343.7023 L 613.821 339.3824 L 613.008 336.6528 L 612.4033 335.4836 L 610.9224 333.448 L 609.2641 331.7854 L 606.7845 329.8921 L 605.7398 328.6467 Z" fill="#000" fill-opacity="1" stroke="#000" stroke-width="0" paint-order="fill" stroke-opacity="1" stroke-dasharray="" stroke-linecap="butt" stroke-linejoin="miter" stroke-miterlimit="10" transform="matrix(1.2000000476837158,0,0,1.2000000476837158,-90.00012969970703,-60.00004959106445)" clip-path="none"/>
<path data-code="232" d="M 462.5164 341.8071 L 460.8964 342.0959 L 458.6003 342.0959 L 456.7104 342.2764 L 452.9296 339.7554 L 449.6889 339.3944 L 446.1782 338.4959 L 445.1952 338.3636 L 445.1952 336.5285 L 445.6269 333.841 L 446.203 331.7292 L 446.7784 328.6587 L 447.7862 326.3563 L 449.2256 324.6295 L 450.3771 322.3252 L 452.1046 320.9835 L 452.8244 319.6397 L 452.9139 318.8014 L 455.9004 318.8716 L 458.7357 319.4111 L 459.4111 319.7721 L 459.4111 320.6706 L 460.4911 321.9321 L 466.0271 321.9321 L 466.7025 320.4901 L 467.5125 319.4111 L 469.2679 319.5916 L 470.2132 321.7516 L 470.2132 327.1525 L 470.3486 330.213 L 470.3486 333.813 L 470.2132 335.9749 L 468.9979 337.0539 L 466.8371 337.5954 L 465.509 339.23 L 462.9218 341.7349 L 462.5164 341.8071 Z M 444.1649 365.2038 L 444.2882 362.0792 L 446.0436 360.0997 L 451.4443 355.9583 L 454.8204 354.1573 L 457.3857 353.7983 L 459.1411 353.7983 L 460.6265 353.4373 L 461.0311 351.8168 L 461.3011 349.4763 L 462.0178 346.9433 L 464.8118 349.2978 L 466.0271 351.8168 L 465.7572 355.2383 L 464.5418 356.3193 L 460.8964 356.4977 L 458.8711 358.8382 L 458.3311 361.1787 L 458.3311 363.1602 L 457.7911 366.0402 L 457.2504 367.1211 L 456.9804 370.0011 L 455.6898 373.0315 L 454.5496 372.3416 L 453.605 370.5406 L 452.525 370.5406 L 450.2289 368.9201 L 448.8789 368.3806 L 444.1649 365.2038 Z" fill="#000" fill-opacity="1" stroke="#000" stroke-width="0" paint-order="fill" stroke-opacity="1" stroke-dasharray="" stroke-linecap="butt" stroke-linejoin="miter" stroke-miterlimit="10" transform="matrix(1.2000000476837158,0,0,1.2000000476837158,-90.00012969970703,-60.00004959106445)" clip-path="none"/>
<path data-code="233" d="M 552.8324 410.8602 L 552.7768 405.5034 L 553.2498 401.408 L 554.6675 398.2573 L 556.3221 393.8451 L 558.2128 389.4329 L 559.6305 386.5971 L 562.4666 386.2822 L 566.7203 386.2822 L 570.2423 386.6592 L 569.0834 389.7498 L 569.0834 398.5722 L 570.738 404.2439 L 572.8648 407.0797 L 576.4102 407.3946 L 577.3555 407.7095 L 576.1733 411.1771 L 575.7009 415.9022 L 570.2657 416.5339 L 565.775 420.6292 L 556.7944 420.6292 L 553.486 420.9441 L 553.0137 421.7002 L 553.0129 414.9575 L 552.8324 410.8602 Z" fill="#000" fill-opacity="1" stroke="#000" stroke-width="0" paint-order="fill" stroke-opacity="1" stroke-dasharray="" stroke-linecap="butt" stroke-linejoin="miter" stroke-miterlimit="10" transform="matrix(1.2000000476837158,0,0,1.2000000476837158,-90.00012969970703,-60.00004959106445)" clip-path="none"/>
<path data-code="234" d="M 412.7783 351.4277 L 410.886 350.9404 L 409.5691 349.4543 L 408.1515 347.4286 L 407.1392 345.403 L 405.7207 343.2431 L 404.1181 341.2134 L 404.8919 340.1746 L 404.8919 338.4478 L 403.5969 335.3773 L 401.7257 332.1143 L 398.4601 328.6908 L 399.2784 327.8906 L 401.0059 327.7 L 401.2932 326.3563 L 401.5813 322.9008 L 404.4602 318.1035 L 406.7631 316.1842 L 408.6343 315.6086 L 410.7935 315.6086 L 411.945 316.3767 L 413.3844 318.4865 L 413.9605 318.6791 L 414.5359 320.5984 L 414.8239 322.5177 L 418.1346 322.5177 L 421.4453 325.5882 L 423.7481 328.4662 L 427.3468 332.3048 L 429.218 334.9922 L 430.3695 337.2946 L 430.3695 341.1332 L 429.7934 345.3569 L 428.5607 348.3973 L 426.0758 348.2389 L 421.6205 348.2389 L 418.9875 348.9148 L 416.7598 349.0491 L 415.3414 349.9937 L 413.8229 351.3455 L 412.7783 351.4277 Z" fill="#000" fill-opacity="1" stroke="#000" stroke-width="0" paint-order="fill" stroke-opacity="1" stroke-dasharray="" stroke-linecap="butt" stroke-linejoin="miter" stroke-miterlimit="10" transform="matrix(1.2000000476837158,0,0,1.2000000476837158,-90.00012969970703,-60.00004959106445)" clip-path="none"/>
<path data-code="235" d="M 560.5458 464.5869 L 562.4666 462.2224 L 564.1211 459.3865 L 565.0658 456.2358 L 567.9019 454.6614 L 571.6833 454.6614 L 572.6287 451.8256 L 572.6287 449.9344 L 574.5194 447.0985 L 577.3555 443.9478 L 579.9547 440.7971 L 581.3724 437.3295 L 583.027 431.6578 L 583.7362 427.2476 L 585.39 424.7266 L 586.8084 421.5739 L 590.8261 421.5739 L 597.2067 418.1083 L 603.5874 414.0129 L 608.0781 410.8602 L 613.7495 406.45 L 618.004 402.6675 L 625.3301 402.6675 L 631.4746 402.3527 L 632.183 405.1885 L 632.7275 409.5385 L 631.9943 409.6789 L 631.4129 412.5128 L 630.624 415.2463 L 628.024 421.1627 L 627.4374 423.7078 L 627.3727 425.0314 L 627.6833 427.5664 L 629.1356 431.6879 L 629.3921 433.8559 L 628.7046 436.0579 L 627.2983 437.9572 L 625.409 439.4874 L 624.2704 440.1092 L 619.5413 442.207 L 613.7758 445.3216 L 609.9034 446.8117 L 607.4666 447.9509 L 599.0944 453.408 L 598.2641 454.2944 L 597.1458 456.4724 L 595.95 461.4542 L 595.1107 464.0113 L 593.784 466.2535 L 592.0279 468.2049 L 591.0171 469.0473 L 588.6954 470.411 L 582.5908 472.6994 L 580.1954 473.4675 L 576.4463 474.3218 L 574.894 475.1742 L 574.894 473.9328 L 574.0178 472.3263 L 572.4843 472.3263 L 571.7179 472.9119 L 571.0606 472.0355 L 568.7607 471.1591 L 566.3511 472.4727 L 564.8183 472.3263 L 563.8316 471.4519 L 564.2701 470.2827 L 565.2553 469.8455 L 565.2553 469.1134 L 562.9547 467.2162 L 562.7366 466.0469 L 560.9842 464.5869 L 560.5458 464.5869 Z" fill="#000" fill-opacity="1" stroke="#000" stroke-width="0" paint-order="fill" stroke-opacity="1" stroke-dasharray="" stroke-linecap="butt" stroke-linejoin="miter" stroke-miterlimit="10" transform="matrix(1.2000000476837158,0,0,1.2000000476837158,-90.00012969970703,-60.00004959106445)" clip-path="none"/>
<path data-code="236" d="M 534.3432 394.9482 L 532.9256 393.5302 L 529.8533 391.9539 L 527.0172 391.9539 L 517.5643 391.3241 L 511.6559 389.118 L 508.8198 389.118 L 505.7476 388.4883 L 502.6753 386.2822 L 499.84 384.7078 L 494.4039 384.0781 L 492.3823 384.0781 L 492.2771 383.4463 L 490.8586 380.9254 L 490.8586 378.7213 L 491.0955 375.2537 L 491.8047 371.4732 L 493.9316 369.582 L 495.1132 367.6907 L 495.3493 363.9103 L 494.4039 360.1298 L 493.5105 357.2699 L 496.767 356.3473 L 498.4216 356.3473 L 501.73 356.6622 L 503.3845 357.294 L 505.5114 359.1832 L 506.9291 359.8149 L 507.6383 360.4447 L 510.0021 360.4447 L 512.3652 363.9103 L 512.3652 365.8015 L 512.8375 368.6373 L 513.3105 369.2671 L 514.492 369.2671 L 517.5643 369.2671 L 520.6365 370.5266 L 524.6542 372.4178 L 527.4903 375.2537 L 529.1441 377.4598 L 532.2163 380.9254 L 532.4525 381.5571 L 530.5618 383.4463 L 530.5618 385.9673 L 534.3432 391.9539 L 534.3432 394.9482 Z" fill="#000" fill-opacity="1" stroke="#000" stroke-width="0" paint-order="fill" stroke-opacity="1" stroke-dasharray="" stroke-linecap="butt" stroke-linejoin="miter" stroke-miterlimit="10" transform="matrix(1.2000000476837158,0,0,1.2000000476837158,-90.00012969970703,-60.00004959106445)" clip-path="none"/>
<path data-code="237" d="M 127.1986 268.1693 L 134.378 268.1693 L 139.6741 267.7 L 145.323 267.7 L 148.5006 266.7574 L 152.737 262.0503 L 156.9743 255.9314 L 155.2084 253.1056 L 155.2084 247.456 L 156.6208 244.1628 L 156.9743 240.8657 L 158.7394 238.0419 L 169.331 238.0419 L 173.2147 238.9825 L 175.3333 240.3964 L 180.6295 242.2796 L 182.7474 242.7489 L 185.2194 242.7489 L 191.9273 242.2796 L 197.2234 242.2796 L 201.4599 240.3964 L 203.5785 236.63 L 208.1685 236.63 L 209.9336 238.5132 L 210.9925 240.3964 L 210.9925 242.2796 L 208.5212 243.6915 L 205.6964 245.5747 L 204.2847 247.456 L 203.9312 251.2224 L 203.9312 254.0482 L 205.3436 255.9314 L 209.2274 256.4007 L 212.0522 256.872 L 216.9949 257.3433 L 220.8786 257.3433 L 220.8786 260.6384 L 218.76 263.9336 L 215.5825 269.1119 L 213.4639 273.8189 L 214.5236 278.9972 L 217.3484 285.5875 L 219.1135 288.8826 L 226.8803 288.8826 L 228.6454 290.7658 L 228.6454 294.0609 L 230.4113 297.3561 L 232.1764 300.1819 L 235.3983 303.1822 L 234.8689 308.8318 L 234.8689 312.0086 L 233.2797 314.4795 L 232.7502 316.9523 L 232.7502 319.0702 L 234.0739 322.5999 L 235.6631 322.9529 L 237.2522 324.3648 L 238.5759 329.3085 L 238.8406 339.9018 L 237.7817 347.3143 L 237.7817 352.964 L 237.45 360.4266 L 236.4573 371.6758 L 235.354 375.5023 L 234.2567 375.3559 L 233.4895 374.7723 L 230.4233 373.4587 L 229.766 373.4587 L 228.1227 372.4359 L 226.5892 371.9986 L 225.4942 371.9986 L 224.0712 370.9758 L 221.1133 370.9758 L 218.8127 369.5158 L 217.2792 369.3694 L 216.9505 368.9302 L 215.0891 368.9302 L 212.7893 368.3465 L 212.0229 369.3694 L 210.8173 368.7858 L 209.6125 368.6394 L 209.1747 368.2001 L 206.8734 368.0557 L 206.107 367.6165 L 205.2308 366.3029 L 203.2596 366.0101 L 201.9457 365.4265 L 201.0688 365.4265 L 199.9738 366.4493 L 197.6739 366.4493 L 196.2495 366.0101 L 193.1825 366.0101 L 191.8686 366.1565 L 190.3351 365.7173 L 187.3779 364.55 L 185.0773 364.1108 L 183.8725 364.1108 L 182.4488 363.5272 L 177.1917 362.7972 L 176.5344 363.3808 L 172.9199 363.09 L 170.9479 363.09 L 169.7431 363.3808 L 168.9767 362.5064 L 167.9908 362.36 L 166.2384 361.0443 L 166.0196 360.3143 L 163.6091 359.7307 L 162.6239 359.0007 L 163.0624 357.5406 L 162.5141 356.5178 L 161.8568 356.5178 L 160.9821 355.7878 L 159.4479 355.3486 L 158.2423 355.495 L 155.7236 355.3486 L 154.1908 355.7878 L 153.3139 356.3714 L 152.9852 357.1014 L 151.8902 358.1242 L 151.5615 359.1471 L 150.7944 359.4379 L 149.0421 359.4379 L 148.3847 359.0007 L 146.9611 359.0007 L 146.1947 358.4171 L 144.5514 358.5615 L 143.7843 357.9778 L 141.704 358.1242 L 140.718 357.687 L 136.1168 357.687 L 132.8317 357.9778 L 131.1884 358.2707 L 129.4376 359.0007 L 128.7795 359.8771 L 128.232 359.5843 L 126.6977 359.5843 L 125.8223 359.8771 L 122.5365 360.3143 L 121.9882 360.7535 L 120.4547 360.7535 L 119.4695 361.0443 L 116.6213 363.3808 L 115.9903 364.6964 L 114.05 361.4956 L 110.3227 354.4762 L 106.1854 347.4768 L 104.0503 342.2704 L 100.2816 335.2489 L 97.5117 328.8613 L 90.0007 316.9102 L 92.2373 312.3516 L 94.4898 305.5868 L 97.7967 298.3408 L 100.0033 288.7462 L 100.5268 287.4306 L 101.9174 285.1583 L 103.7066 283.2169 L 105.7989 281.6546 L 111.8306 278.8328 L 117.5058 275.7182 L 121.1827 274.0857 L 123.4435 272.6918 L 125.359 270.9089 L 127.1986 268.1693 Z" fill="#000" fill-opacity="1" stroke="#000" stroke-width="0" paint-order="fill" stroke-opacity="1" stroke-dasharray="" stroke-linecap="butt" stroke-linejoin="miter" stroke-miterlimit="10" transform="matrix(1.2000000476837158,0,0,1.2000000476837158,-90.00012969970703,-60.00004959106445)" clip-path="none"/>
<path data-code="238" d="M 487.5502 390.3795 L 486.1325 390.3795 L 482.3511 387.5437 L 479.988 385.6524 L 477.1519 383.1315 L 475.4981 380.9254 L 473.6074 381.2402 L 471.0074 383.4463 L 468.6444 385.6524 L 466.0444 388.8032 L 465.3646 389.106 L 465.6932 387.7703 L 464.9261 387.3331 L 464.9261 386.0174 L 464.4884 385.4338 L 464.3786 383.681 L 465.3646 382.3673 L 466.5702 382.0745 L 468.6504 379.8845 L 470.6216 379.008 L 472.0468 377.548 L 473.4697 376.6716 L 473.7992 375.7952 L 475.2221 375.3559 L 475.6606 374.7723 L 476.8654 374.1887 L 477.4137 373.3123 L 479.0555 372.7287 L 480.6988 371.2686 L 481.684 371.1222 L 481.9036 369.8066 L 481.9036 366.8865 L 482.4511 365.8637 L 482.5609 364.6964 L 482.1224 363.6736 L 484.0944 360.7535 L 484.0937 359.2935 L 483.7657 359.0007 L 483.4371 357.2478 L 483.8748 356.8106 L 485.4083 356.6642 L 486.9418 355.3486 L 487.0516 353.8885 L 487.5991 353.1585 L 487.9278 350.9684 L 489.441 352.252 L 493.2224 356.3473 L 493.5105 357.2699 L 494.4039 360.1298 L 495.3493 363.9103 L 495.1132 367.6907 L 493.9316 369.582 L 491.8047 371.4732 L 491.0955 375.2537 L 490.8586 378.7213 L 490.8586 380.9254 L 492.2771 383.4463 L 492.3823 384.0781 L 491.3317 384.0781 L 488.9686 384.7078 L 487.5502 386.5971 L 487.5502 390.3795 Z" fill="#000" fill-opacity="1" stroke="#000" stroke-width="0" paint-order="fill" stroke-opacity="1" stroke-dasharray="" stroke-linecap="butt" stroke-linejoin="miter" stroke-miterlimit="10" transform="matrix(1.2000000476837158,0,0,1.2000000476837158,-90.00012969970703,-60.00004959106445)" clip-path="none"/>
<path data-code="239" d="M 428.8397 402.9583 L 427.2483 403.542 L 426.2623 404.5648 L 426.0442 405.5876 L 423.0855 407.1941 L 420.0193 407.1941 L 419.1424 406.9012 L 417.9383 407.0477 L 416.8606 408.2149 L 416.8606 407.3806 L 415.949 405.7601 L 415.7467 404.6811 L 414.3291 402.3847 L 414.2275 400.6299 L 415.0383 397.1182 L 415.949 395.6341 L 416.6583 393.7428 L 416.7906 391.4485 L 416.8606 390.2331 L 417.5698 388.747 L 418.6836 387.1265 L 419.4936 385.506 L 419.5297 384.6958 L 419.5951 378.8897 L 419.9366 376.7919 L 421.1143 377.1349 L 422.532 376.7297 L 424.152 375.6508 L 426.2984 375.4763 L 427.0588 377.2151 L 428.2102 378.7493 L 430.7342 379.1344 L 430.0258 380.781 L 428.8104 382.4014 L 427.5958 383.3461 L 426.2789 386.1819 L 426.0758 388.6126 L 426.0758 394.5531 L 426.2789 397.5233 L 426.6835 399.6833 L 427.7981 401.035 L 428.8397 402.9583 Z" fill="#000" fill-opacity="1" stroke="#000" stroke-width="0" paint-order="fill" stroke-opacity="1" stroke-dasharray="" stroke-linecap="butt" stroke-linejoin="miter" stroke-miterlimit="10" transform="matrix(1.2000000476837158,0,0,1.2000000476837158,-90.00012969970703,-60.00004959106445)" clip-path="none"/>

</svg>