<?xml version="1.0" standalone="no"?>
<!-- Generator: Paintmaps.com , Online SVG vector map maker -->
<svg xmlns="http://www.w3.org/2000/svg" version="1.1" baseProfile="full"   style="background-color:#e0f2f1" width="800" height="500" viewBox="0 0 800 533">

<path data-code="200" d="M 301.036 346.8585 L 300.1654 350.564 L 299.7298 351.808 L 298.7542 353.3759 L 296.4285 356.1868 L 295.7974 357.2013 L 295.5655 357.762 L 295.4111 358.3932 L 295.3542 359.038 L 295.3926 359.6866 L 295.5298 360.3269 L 295.7693 360.9407 L 296.0828 361.5115 L 296.8566 362.5662 L 298.6994 364.5328 L 304.1747 369.8602 L 306.0846 371.8296 L 307.347 373.4038 L 307.9884 374.5893 L 308.199 375.2296 L 308.4138 376.5478 L 308.4048 377.8805 L 308.1709 379.1959 L 307.6516 380.4317 L 306.4654 382.0261 L 303.1504 385.3438 L 301.8456 386.8092 L 301.1575 387.8931 L 300.9146 388.4959 L 300.7719 389.1353 L 300.7307 389.7829 L 300.7877 390.4297 L 300.9448 391.0599 L 301.1828 391.6197 L 301.484 392.1384 L 302.2085 393.0933 L 304.6028 395.8393 L 305.2243 396.8858 L 305.601 398.1134 L 305.7005 399.3528 L 305.6463 399.9574 L 305.509 400.5429 L 305.2689 401.0963 L 304.8998 401.5893 L 304.4223 401.9561 L 303.9003 402.1894 L 302.7841 402.4162 L 299.1076 402.6907 L 297.8768 402.9907 L 296.786 403.491 L 294.7073 404.7149 L 293.6947 405.2272 L 290.2459 399.8641 L 288.9719 396.9507 L 287.6163 394.2486 L 287.1992 393.0613 L 286.5763 389.8579 L 286.2401 388.5993 L 284.6944 385.3081 L 283.7182 382.9344 L 283.0177 381.7718 L 282.1801 380.6933 L 281.2471 379.6926 L 280.2317 378.7861 L 279.1141 378.0232 L 278.5049 377.725 L 277.1829 377.3427 L 275.1268 377.135 L 269.5122 377.1094 L 267.4404 376.9667 L 265.466 376.5267 L 262.811 375.2571 L 261.6563 374.8464 L 259.7505 374.5244 L 257.1216 374.368 L 254.459 371.5671 L 252.8619 369.6105 L 252.2116 368.5622 L 251.4219 366.8141 L 250.834 365.7174 L 250.1239 364.7167 L 248.1454 362.3237 L 247.4161 361.323 L 246.8309 360.2208 L 246.621 359.5851 L 246.4001 358.2715 L 246.3946 356.9397 L 246.6011 355.6234 L 246.8021 354.9849 L 247.0594 354.4132 L 247.7022 353.3585 L 249.1834 351.3434 L 250.5136 349.695 L 253.6351 347.6387 L 254.7197 347.1036 L 255.3729 346.8905 L 257.4193 346.563 L 261.6248 346.3846 L 263.0099 346.2447 L 264.3552 345.951 L 264.9988 345.7132 L 266.6741 344.6741 L 269.716 342.2437 L 270.8528 341.6866 L 272.0561 341.478 L 272.6619 341.4991 L 273.7973 341.7662 L 276.3638 342.9279 L 277.6515 343.2773 L 279.7089 343.5426 L 283.9261 343.8216 L 285.9657 344.1591 L 287.1628 344.578 L 289.8219 345.8376 L 291.1577 346.1916 L 293.2625 346.4432 L 298.3351 346.6545 L 301.036 346.8585 Z" fill="#000000" fill-opacity="1" stroke="#000000" stroke-width="0" paint-order="fill" stroke-opacity="1" stroke-dasharray="" stroke-linecap="butt" stroke-linejoin="miter" stroke-miterlimit="10" transform="matrix(1.100000023841858,0,0,1.100000023841858,-40.000003814697266,-26.64997100830078)" clip-path="none" style="filter: url(#f1)"/>
<path data-code="201" d="M 461.0581 455.5875 L 459.9879 453.2961 L 458.9438 450.219 L 457.6506 447.4912 L 457.0859 445.4971 L 456.8609 443.2698 L 456.7999 440.9884 L 456.8143 432.5089 L 456.9192 428.6963 L 457.0571 427.2072 L 457.3192 425.7646 L 457.7377 424.506 L 458.9609 421.7636 L 459.4123 419.6524 L 459.5948 416.6805 L 459.6579 409.1175 L 459.7746 407.6384 L 460.0181 406.2023 L 460.4263 404.9363 L 461.655 402.1894 L 462.9475 397.1648 L 464.581 393.9212 L 465.571 391.5657 L 466.9396 388.8764 L 467.3766 387.5995 L 467.6387 386.1378 L 467.7985 383.872 L 467.8315 381.565 L 467.684 351.3242 L 467.8226 349.0812 L 468.1107 347.6396 L 468.3638 346.9481 L 468.9909 345.8824 L 470.258 344.5872 L 471.2939 343.9359 L 475.6009 341.8631 L 476.8358 341.4762 L 478.2024 341.275 L 483.6489 341.0536 L 484.8879 340.7984 L 485.9931 340.2349 L 486.4137 339.8352 L 487.0613 338.9086 L 488.4574 336.4132 L 488.9164 335.289 L 489.2265 333.8913 L 489.704 328.8356 L 490.0806 327.4342 L 490.731 326.1582 L 492.029 324.4394 L 494.0473 322.3419 L 495.6931 320.8894 L 498.0525 319.1953 L 500.3432 318.898 L 502.4864 318.7681 L 505.3437 318.7315 L 508.1606 318.8696 L 509.5279 319.0681 L 510.8348 319.4304 L 513.4754 320.7375 L 514.6712 321.1793 L 516.7149 321.537 L 519.5366 321.644 L 521.6517 321.5223 L 523.6948 321.1546 L 524.8851 320.711 L 527.5202 319.4505 L 528.7454 319.1715 L 530.005 319.0974 L 531.8635 319.3252 L 532.9756 319.7112 L 534.9734 320.6662 L 536.0916 320.9488 L 536.6933 320.9772 L 537.8952 320.7851 L 539.0361 320.2408 L 542.6193 317.4152 L 543.7582 316.7466 L 545.6091 316.1758 L 550.2989 315.53 L 550.2578 315.6361 L 552.1375 315.4376 L 554.9126 316.0459 L 554.8206 316.1319 L 549.5333 321.0815 L 548.2614 321.548 L 543.2916 323.3719 L 542.4499 324.4797 L 541.3536 327.4973 L 539.9266 329.8363 L 539.8312 332.7461 L 541.0599 336.2513 L 541.2472 336.7846 L 541.3577 337.9554 L 541.5189 339.6596 L 539.5356 352.9661 L 539.6796 354.2394 L 539.3112 355.3188 L 538.6883 356.2737 L 537.2256 357.2918 L 534.4499 358.4581 L 532.3938 358.8396 L 531.9904 359.5869 L 533.3852 362.6375 L 534.3895 364.8338 L 534.7147 366.666 L 533.5663 366.6577 L 530.9415 365.9076 L 529.9295 366.2918 L 528.2137 369.2766 L 527.361 371.7052 L 526.0541 371.7427 L 524.5112 373.3636 L 524.2594 374.2289 L 525.0648 376.9136 L 523.4629 378.6946 L 523.4821 381.4461 L 522.888 382.8978 L 522.6005 383.2179 L 517.1458 389.2936 L 516.848 390.0473 L 516.7973 393.1793 L 514.7275 396.0369 L 512.7187 399.7772 L 512.6179 400.7615 L 514.239 403.8194 L 514.3467 404.8156 L 510.6592 410.9406 L 509.7674 413.2018 L 509.7324 413.6665 L 509.4696 417.1443 L 512.1843 418.0626 L 513.1935 418.7222 L 514.7995 420.5425 L 516.2011 422.1313 L 518.1728 421.9264 L 520.0217 421.7353 L 523.041 422.7808 L 526.5906 420.5004 L 527.4865 420.2754 L 534.3257 423.0195 L 540.3869 424.7703 L 541.2074 425.0072 L 541.4064 425.0649 L 542.4039 426.9355 L 542.384 428.3643 L 540.8356 431.1935 L 540.6298 432.1723 L 540.8939 432.8144 L 540.9076 432.8474 L 541.8489 433.7804 L 543.8714 434.9394 L 544.6082 435.8056 L 545.3834 437.9397 L 546.1916 438.4254 L 547.753 438.4034 L 549.9188 437.7558 L 550.6886 437.9644 L 551.0755 438.5361 L 551.0021 439.9621 L 549.1189 444.2568 L 549.1807 445.0855 L 549.6252 445.4798 L 549.7775 445.6133 L 552.2377 446.303 L 556.1571 445.9216 L 559.8974 444.9794 L 562.066 443.7674 L 562.3075 443.6329 L 563.8689 443.6119 L 565.7589 444.2714 L 567.896 444.1744 L 569.8533 445.9124 L 569.0149 446.9991 L 569.0863 447.0339 L 566.8614 450.4357 L 564.2407 453.6437 L 563.0484 455.2902 L 562.4399 456.4446 L 561.6564 458.1945 L 560.9498 459.3397 L 559.6696 460.9597 L 558.2639 462.5202 L 554.82 466.0492 L 552.7728 467.9162 L 551.1338 469.0751 L 549.4448 469.9002 L 548.3396 470.5387 L 547.2831 471.3409 L 544.7227 473.5344 L 543.6175 474.2955 L 542.4025 474.8251 L 541.1279 475.095 L 539.8251 475.1992 L 537.863 475.1352 L 536.5787 474.9395 L 535.35 474.5726 L 532.7464 473.1777 L 532.2031 472.9316 L 530.9744 472.5712 L 529.6894 472.3791 L 528.3805 472.3096 L 527.0687 472.3471 L 525.7755 472.5099 L 524.5269 472.853 L 523.9712 473.0954 L 521.3821 474.5717 L 519.0989 475.6255 L 516.0344 477.5117 L 511.8426 479.4765 L 510.7964 479.6997 L 510.2545 479.653 L 509.2528 479.3311 L 507.4595 478.3971 L 506.593 477.7952 L 506.2219 477.3498 L 505.9708 476.8073 L 505.8542 476.232 L 505.8528 475.6456 L 506.1368 474.5351 L 507.5219 472.0773 L 508.5743 469.7722 L 510.0665 467.1185 L 510.5158 465.9102 L 510.8362 463.9161 L 510.887 462.5568 L 510.8383 461.1993 L 510.6771 459.862 L 510.3553 458.5732 L 509.0847 455.8235 L 508.6765 454.6499 L 508.0667 451.4429 L 507.6955 450.1741 L 507.0705 448.964 L 506.2809 447.8782 L 504.9156 446.4924 L 503.89 445.8081 L 503.3281 445.5849 L 502.7272 445.4834 L 502.1797 445.5218 L 501.1815 445.8539 L 497.5235 447.5626 L 494.4569 449.4259 L 492.16 450.4568 L 489.055 452.2643 L 486.7581 453.2714 L 483.6702 455.0908 L 481.3836 456.1052 L 478.7917 457.5606 L 478.2367 457.8039 L 476.9888 458.1542 L 475.6922 458.3372 L 473.7054 458.4341 L 471.7083 458.3966 L 469.7387 458.2146 L 467.861 457.7554 L 465.2204 456.4309 L 464.0747 456.0128 L 462.8247 455.7659 L 461.0581 455.5875 Z" fill="#000000" fill-opacity="1" stroke="#000000" stroke-width="0" paint-order="fill" stroke-opacity="1" stroke-dasharray="" stroke-linecap="butt" stroke-linejoin="miter" stroke-miterlimit="10" transform="matrix(1.100000023841858,0,0,1.100000023841858,-40.000003814697266,-26.64997100830078)" clip-path="none" style="filter: url(#f1)"/>
<path data-code="202" d="M 453.2118 179.2448 L 452.5354 177.5224 L 451.8109 175.0499 L 451.3705 173.8141 L 451.0659 173.2167 L 450.3222 172.0935 L 449.0126 170.521 L 447.5966 169.0081 L 435.8624 157.0992 L 434.5473 155.5424 L 433.8256 154.4063 L 433.5491 153.7861 L 433.355 153.1449 L 433.1697 151.8304 L 433.2754 149.8638 L 433.5903 148.6161 L 434.8046 146.0036 L 435.1023 144.852 L 435.1435 144.2345 L 435.1092 143.6162 L 434.8265 142.459 L 433.8715 140.3744 L 433.4935 139.2072 L 433.3145 137.9211 L 433.32 136.6094 L 433.5121 135.3187 L 433.6911 134.6985 L 434.9932 132.0403 L 435.4138 130.864 L 435.5469 130.2237 L 435.6628 128.911 L 435.5777 127.5892 L 435.2443 126.2986 L 434.9637 125.6958 L 434.2393 124.5935 L 432.931 123.0915 L 430.1312 120.1982 L 429.2785 119.1783 L 428.5485 118.0742 L 428.2583 117.4733 L 427.8789 116.189 L 427.6388 114.1775 L 427.5743 111.4205 L 427.6182 107.2393 L 427.691 105.1647 L 427.8721 103.1322 L 428.3153 101.2021 L 429.8369 97.9246 L 430.1772 96.6532 L 430.37 95.3213 L 430.5065 93.2696 L 430.5497 89.8019 L 430.4873 87.7328 L 430.2684 85.7103 L 429.9419 84.4196 L 429.7134 83.8433 L 428.3262 81.1641 L 427.5778 79.406 L 426.9624 78.258 L 425.7673 76.671 L 422.1223 72.6855 L 420.873 71.1268 L 420.1836 70.0172 L 418.865 67.1331 L 417.2308 64.5042 L 415.5006 61.5139 L 419.0111 61.7664 L 422.9161 61.8707 L 437.4019 61.7774 L 442.2783 61.9054 L 445.098 62.2045 L 446.431 62.5613 L 449.6389 64.0349 L 451.6806 64.5179 L 454.5551 64.7539 L 459.6915 64.7978 L 462.5942 64.6524 L 464.6956 64.302 L 466.0299 63.8181 L 468.5546 62.5357 L 472.4143 61.0785 L 474.6693 63.0187 L 475.4582 63.7806 L 475.7587 64.7557 L 477.5486 66.9639 L 478.1057 67.3746 L 478.4117 67.6005 L 480.8286 69.3842 L 482.4346 71.2786 L 482.8737 73.1685 L 482.1582 78.0741 L 482.2501 78.5571 L 482.3276 78.9614 L 482.5897 79.1791 L 483.806 80.1908 L 486.1098 80.8037 L 486.601 81.5986 L 486.0974 84.3181 L 485.5616 84.9383 L 484.9174 85.6856 L 484.1525 88.3374 L 484.158 89.3262 L 484.7281 90.6736 L 487.2095 93.0537 L 487.1725 93.8203 L 486.0933 96.4016 L 485.8148 98.8586 L 486.8891 101.825 L 489.2834 104.8601 L 498.2445 108.9535 L 498.7831 109.7329 L 501.1602 113.1713 L 502.1379 113.797 L 502.7505 114.1894 L 505.7856 117.0415 L 507.4732 121.4157 L 508.2951 124.041 L 508.2917 126.2382 L 507.4341 126.4669 L 506.0078 125.0637 L 503.9531 123.0421 L 501.7694 122.2674 L 500.1223 122.4009 L 497.5221 123.6367 L 494.247 126.7614 L 493.858 128.225 L 494.2902 129.126 L 499.5268 131.2683 L 501.5245 132.5818 L 502.5783 133.7371 L 503.3336 135.9517 L 505.8699 143.3911 L 505.9241 145.1767 L 504.4642 146.9119 L 500.2176 147.2915 L 499.1721 149.2143 L 499.1563 151.6859 L 499.7189 153.144 L 501.9526 154.9652 L 502.0843 155.5213 L 500.7376 158.1978 L 500.8844 159.5928 L 498.9498 159.5928 L 497.8405 159.6513 L 495.3858 160.2724 L 492.206 161.8915 L 489.8858 162.8529 L 487.2891 164.311 L 484.5751 165.6529 L 483.6345 166.3837 L 482.8373 167.2856 L 482.5046 167.7961 L 482.01 168.9587 L 481.7554 170.2329 L 481.3747 174.8312 L 481.0488 176.1201 L 480.7785 176.754 L 480.0746 177.9312 L 478.7547 179.5073 L 477.2029 180.8392 L 476.0119 181.5051 L 474.7468 181.8765 L 473.4481 182.0347 L 470.8343 181.967 L 469.5521 181.7621 L 468.3234 181.3999 L 465.1538 179.8266 L 463.1719 179.3408 L 461.0822 179.1561 L 458.9506 179.1085 L 453.2118 179.2448 Z" fill="#000000" fill-opacity="1" stroke="#000000" stroke-width="0" paint-order="fill" stroke-opacity="1" stroke-dasharray="" stroke-linecap="butt" stroke-linejoin="miter" stroke-miterlimit="10" transform="matrix(1.100000023841858,0,0,1.100000023841858,-40.000003814697266,-26.64997100830078)" clip-path="none" style="filter: url(#f1)"/>
<path data-code="203" d="M 363.1636 329.7137 L 364.524 332.2411 L 365.7267 335.1701 L 367.0802 337.8822 L 367.5035 339.0668 L 368.1656 342.2592 L 368.5237 343.506 L 370.1386 346.756 L 371.1128 349.1169 L 372.4883 351.8016 L 372.9192 353.0594 L 373.2423 355.2099 L 373.3349 357.4318 L 373.3054 366.505 L 373.481 374.7668 L 373.4248 376.8011 L 373.1874 378.0196 L 372.9295 378.5757 L 372.513 379.0678 L 372.0026 379.3843 L 371.4545 379.5407 L 370.8994 379.5618 L 369.8608 379.2864 L 367.5756 377.8586 L 365.4166 376.7243 L 363.4764 375.4976 L 362.4288 375.0156 L 361.8238 374.8701 L 360.5786 374.8647 L 359.4041 375.2726 L 358.4484 376.0007 L 357.6924 376.9576 L 357.4015 377.5119 L 357.0043 378.8684 L 356.8465 380.2808 L 356.8211 382.456 L 357.0084 385.3804 L 357.2252 386.8082 L 357.595 388.1721 L 358.8799 390.9044 L 359.459 392.8116 L 359.7149 394.9301 L 359.8061 398.5634 L 359.6366 402.183 L 359.2744 404.2658 L 358.8395 405.4879 L 357.5476 408.211 L 357.0921 410.1466 L 356.9336 412.8478 L 357.1017 414.8638 L 357.4214 416.16 L 357.9195 417.2851 L 359.6655 420.3074 L 360.3604 421.2185 L 361.2639 421.899 L 364.2091 423.6644 L 365.2375 424.2352 L 367.5152 425.2643 L 369.2536 426.4534 L 371.414 428.4027 L 374.0079 431.0289 L 375.9851 433.1941 L 377.2934 434.9156 L 377.9705 436.1697 L 378.1969 436.788 L 379.2445 441.1897 L 380.4629 443.9311 L 380.8512 445.1404 L 381.0769 446.4558 L 381.1881 447.8077 L 381.2244 452.6558 L 383.9206 455.4503 L 383.6873 456.2991 L 383.4836 456.7062 L 383.1659 457.0739 L 382.7317 457.3401 L 382.2357 457.4782 L 381.7067 457.4947 L 381.1675 457.3932 L 380.2166 456.9212 L 378.5194 455.4448 L 375.8184 455.442 L 348.3306 455.4677 L 343.811 455.3176 L 342.3538 455.121 L 340.9604 454.7533 L 337.7497 453.287 L 336.379 452.9339 L 334.2166 452.6988 L 327.5688 452.514 L 325.4304 452.1792 L 324.0865 451.6843 L 321.5975 450.3205 L 319.3322 449.2859 L 316.8487 447.9138 L 316.188 447.6266 L 314.8187 447.2525 L 313.3917 447.0595 L 311.1984 446.9534 L 299.3003 447.0558 L 296.4189 446.7631 L 295.0434 446.3497 L 293.7537 445.6398 L 289.706 442.4859 L 287.512 441.2254 L 286.4315 440.4634 L 285.4505 439.4307 L 284.7033 438.2113 L 284.2972 437.0258 L 284.0269 435.8102 L 283.9755 431.3372 L 284.0386 428.3917 L 284.2705 426.2403 L 284.621 424.871 L 286.2277 421.6127 L 287.2054 419.2527 L 288.8141 416.0027 L 289.1743 414.7614 L 289.872 411.5809 L 290.3365 410.3991 L 291.275 408.8038 L 293.6947 405.2272 L 294.7073 404.7149 L 296.786 403.491 L 297.8768 402.9907 L 299.1076 402.6907 L 302.7841 402.4162 L 303.9003 402.1894 L 304.4223 401.9561 L 304.8998 401.5893 L 305.2689 401.0963 L 305.509 400.5429 L 305.6463 399.9574 L 305.7005 399.3528 L 305.601 398.1134 L 305.2243 396.8858 L 304.6028 395.8393 L 302.2085 393.0933 L 301.484 392.1384 L 301.1828 391.6197 L 300.9448 391.0599 L 300.7877 390.4297 L 300.7307 389.7829 L 300.7719 389.1353 L 300.9146 388.4959 L 301.1575 387.8931 L 301.8456 386.8092 L 303.1504 385.3438 L 306.4654 382.0261 L 307.6516 380.4317 L 308.1709 379.1959 L 308.4048 377.8805 L 308.4138 376.5478 L 308.199 375.2296 L 307.9884 374.5893 L 307.347 373.4038 L 306.0846 371.8296 L 304.1747 369.8602 L 298.6994 364.5328 L 296.8566 362.5662 L 296.0828 361.5115 L 295.7693 360.9407 L 295.5298 360.3269 L 295.3926 359.6866 L 295.3542 359.038 L 295.4111 358.3932 L 295.5655 357.762 L 295.7974 357.2013 L 296.4285 356.1868 L 298.7542 353.3759 L 299.7298 351.808 L 300.1654 350.564 L 301.036 346.8585 L 302.8623 346.0562 L 305.4686 344.5241 L 308.8281 342.8154 L 309.9066 342.026 L 313.0302 339.4409 L 314.1278 338.7064 L 316.92 337.2081 L 317.9882 336.4077 L 320.5691 334.2151 L 322.2026 333.0662 L 324.4631 331.9813 L 327.0666 330.5644 L 328.296 330.1254 L 330.3967 329.8034 L 332.5619 329.7137 L 355.3516 329.8015 L 363.1636 329.7137 Z" fill="#000000" fill-opacity="1" stroke="#000000" stroke-width="0" paint-order="fill" stroke-opacity="1" stroke-dasharray="" stroke-linecap="butt" stroke-linejoin="miter" stroke-miterlimit="10" transform="matrix(1.100000023841858,0,0,1.100000023841858,-40.000003814697266,-26.64997100830078)" clip-path="none" style="filter: url(#f1)"/>
<path data-code="204" d="M 386.8809 293.528 L 384.5648 295.9036 L 382.7248 297.5656 L 381.2416 298.5764 L 379.5374 299.364 L 378.459 299.9604 L 377.0066 301.1056 L 376.1079 301.9765 L 374.8744 303.3714 L 374.1602 304.3346 L 372.9878 306.3114 L 372.6345 306.7422 L 372.2132 307.1072 L 368.3419 309.3547 L 367.8335 309.5541 L 366.707 309.802 L 362.3596 308.021 L 360.4606 307.6313 L 357.217 307.324 L 355.3235 306.9928 L 354.175 306.5757 L 351.5331 305.2731 L 350.8985 305.0737 L 349.5751 304.8158 L 347.5163 304.6401 L 344.7083 304.5807 L 341.1765 304.6219 L 338.4029 304.7728 L 336.436 305.0765 L 333.8413 306.0223 L 332.8486 306.2016 L 331.8511 306.0424 L 329.854 305.3097 L 328.6699 305.0408 L 324.8377 304.6511 L 323.5582 304.4453 L 322.3165 304.0584 L 321.7141 303.7547 L 320.6 302.9863 L 319.5647 302.0871 L 314.687 297.0534 L 312.6604 295.1718 L 311.0221 294.0284 L 309.3283 293.2271 L 308.2079 292.5941 L 307.1453 291.7773 L 306.1505 290.8479 L 305.2271 289.8426 L 304.3977 288.7751 L 303.713 287.6482 L 302.6867 285.3595 L 302.0123 284.3597 L 301.1842 283.4862 L 300.7218 283.1066 L 299.7915 282.5367 L 297.9962 281.7436 L 294.8898 280.0075 L 292.5846 279.0196 L 291.5563 278.361 L 290.1423 277.138 L 288.8642 275.7503 L 287.7761 274.2337 L 287.265 273.2284 L 286.4836 271.3386 L 285.5026 269.7616 L 283.4458 267.333 L 280.7161 264.6519 L 279.2404 263.5204 L 278.2634 262.9844 L 275.9069 261.8885 L 273.3424 260.2055 L 270.6662 258.6486 L 271.2589 257.3497 L 273.0577 254.1527 L 274.047 251.7863 L 275.6784 248.5216 L 276.0516 247.2557 L 277.0018 242.7607 L 278.5132 242.8211 L 279.4194 242.6601 L 279.7981 242.4863 L 280.2763 241.9137 L 280.29 241.095 L 283.0095 240.6056 L 285.6913 240.4062 L 287.6636 240.5095 L 288.9383 240.7483 L 289.553 240.944 L 290.6376 241.459 L 292.6896 242.6363 L 294.968 243.6635 L 298.0414 245.504 L 300.3363 246.5083 L 302.9398 247.9399 L 304.0862 248.3789 L 307.1885 249.0238 L 308.4042 249.376 L 309.4847 249.8809 L 311.5572 251.028 L 313.8369 252.0708 L 314.947 252.8126 L 316.4919 254.1683 L 321.3437 259.2422 L 322.8447 260.6738 L 323.9115 261.5126 L 325.0812 262.1703 L 325.6925 262.388 L 326.9514 262.6569 L 330.8077 263.032 L 332.0617 263.2625 L 333.2164 263.6622 L 335.8775 264.9282 L 337.1069 265.2493 L 341.6156 265.7423 L 343.4878 266.1814 L 344.5738 266.6863 L 346.6457 267.8379 L 348.9391 268.8414 L 352.0229 270.6635 L 354.3122 271.6825 L 357.3967 273.5038 L 359.6915 274.5045 L 362.3006 275.9122 L 362.8542 276.1409 L 364.0884 276.4592 L 369.218 277.0081 L 370.4563 277.3767 L 371.0367 277.6603 L 372.6242 278.7945 L 374.0841 280.1538 L 386.8809 293.528 Z" fill="#000000" fill-opacity="1" stroke="#000000" stroke-width="0" paint-order="fill" stroke-opacity="1" stroke-dasharray="" stroke-linecap="butt" stroke-linejoin="miter" stroke-miterlimit="10" transform="matrix(1.100000023841858,0,0,1.100000023841858,-40.000003814697266,-26.64997100830078)" clip-path="none" style="filter: url(#f1)"/>
<path data-code="205" d="M 402.7656 77.7659 L 403.2726 80.7625 L 403.4489 82.9881 L 403.4441 85.9637 L 403.2074 88.1425 L 402.6167 90.0927 L 401.2117 92.7784 L 400.184 95.1228 L 398.7934 97.7728 L 398.3989 98.9729 L 398.2164 100.2718 L 398.2212 101.5854 L 398.4092 102.8779 L 398.792 104.0661 L 400.0344 106.7719 L 400.3967 108.154 L 400.6018 109.6066 L 400.7692 112.6078 L 400.7822 117.9279 L 400.6814 120.1799 L 400.3637 122.3661 L 399.6797 124.2029 L 397.7705 128.0274 L 397.1187 129.072 L 396.3298 129.9639 L 395.4317 130.7167 L 392.846 132.1254 L 391.4945 133.2358 L 390.7591 134.1872 L 390.4648 134.7269 L 390.025 136.0706 L 389.8144 137.4857 L 389.7005 140.4238 L 389.7389 146.4436 L 389.8021 149.4329 L 389.9681 151.6274 L 390.4147 153.7221 L 391.6654 156.4772 L 392.1044 157.6536 L 393.2 161.9638 L 389.7431 162.2501 L 386.8082 162.3287 L 370.6463 162.2803 L 368.4832 162.3845 L 366.3894 162.7129 L 365.1669 163.1355 L 362.5105 164.4052 L 357.6348 165.7013 L 354.4714 167.3424 L 352.1711 168.3348 L 349.0695 170.1149 L 346.8117 171.2171 L 345.6791 171.9928 L 344.6116 172.9012 L 340.5262 176.8574 L 339.4306 177.7227 L 338.2265 178.4106 L 337.548 178.6575 L 336.1423 178.9548 L 333.9683 179.1158 L 322.2623 179.0189 L 312.6638 169.0108 L 311.195 167.5692 L 309.6624 166.2612 L 308.5674 165.5422 L 306.2905 164.4976 L 303.1909 162.7221 L 300.8872 161.7397 L 297.7739 159.9715 L 295.4551 159.0074 L 292.8604 157.5484 L 290.1169 156.2614 L 289.6209 155.9302 L 288.7263 155.1253 L 287.9881 154.1511 L 287.6973 153.5986 L 287.3028 152.3317 L 287.0723 150.333 L 287.0613 146.193 L 287.2589 142.7499 L 287.4523 141.4163 L 287.7906 140.142 L 289.0783 137.4189 L 289.304 136.8563 L 289.6394 135.5913 L 290.2535 130.1679 L 290.7131 127.3871 L 293.8909 124.8469 L 295.6087 123.7922 L 296.8162 123.3815 L 299.2894 122.8519 L 300.4954 122.5034 L 303.1703 121.2401 L 304.3229 120.8303 L 307.43 120.2019 L 308.647 119.8461 L 309.7227 119.3357 L 312.6919 117.6041 L 313.5982 116.9144 L 313.9707 116.4735 L 315.7092 113.4777 L 316.4871 111.8276 L 316.8171 110.4866 L 317.0229 108.3864 L 317.1355 98.2576 L 317.0936 96.1272 L 316.9729 94.7423 L 316.6923 93.4013 L 316.4528 92.7601 L 315.821 91.7063 L 315.4341 91.2407 L 314.5518 90.4349 L 313.5255 89.7991 L 311.3219 88.685 L 307.0328 85.4478 L 305.9234 84.7681 L 303.7061 83.7107 L 302.7374 83.0109 L 301.8963 82.1392 L 301.5375 81.6379 L 301.2357 81.0882 L 300.8336 79.8204 L 300.7376 79.1672 L 300.7191 77.851 L 300.9455 76.5466 L 301.4792 75.3538 L 301.8435 74.847 L 302.7216 73.9853 L 303.7727 73.3432 L 305.0096 72.9627 L 306.9388 72.7431 L 310.4239 72.6141 L 313.9042 72.9471 L 316.0714 72.9672 L 317.4949 72.8739 L 318.8814 72.6334 L 319.549 72.4257 L 321.1406 71.618 L 323.5664 70.127 L 324.4549 69.4245 L 324.8192 68.9882 L 326.4369 66.4608 L 329.3553 62.7159 L 330.0928 61.5734 L 330.6245 60.5562 L 333.6156 58.2218 L 336.6548 55.4557 L 337.7168 54.6151 L 338.8851 53.9382 L 339.5005 53.7067 L 340.7752 53.4204 L 342.0766 53.2997 L 344.0401 53.3445 L 345.3305 53.5384 L 346.575 53.9308 L 348.1468 54.8748 L 351.1942 57.4187 L 354.2491 56.4866 L 355.5746 56.2689 L 357.5778 56.1161 L 359.5728 56.117 L 360.8832 56.2296 L 362.162 56.4985 L 363.3866 57.0345 L 363.9532 57.405 L 364.9981 58.2703 L 366.4004 59.7631 L 367.5852 61.4179 L 368.169 62.5942 L 368.9031 64.3651 L 369.9445 66.0327 L 372.1343 68.5948 L 374.5506 70.9484 L 375.5748 71.7836 L 376.6554 72.4916 L 378.3554 73.2993 L 379.4716 73.9268 L 380.5404 74.7226 L 383.109 76.939 L 384.1765 77.7522 L 385.3016 78.4025 L 386.9961 79.1965 L 389.0316 80.3829 L 390.1163 80.8906 L 390.7323 81.0735 L 392.0008 81.2601 L 393.2837 81.251 L 394.5474 81.0498 L 395.7089 80.6317 L 398.3104 79.245 L 402.7656 77.7659 Z" fill="#000000" fill-opacity="1" stroke="#000000" stroke-width="0" paint-order="fill" stroke-opacity="1" stroke-dasharray="" stroke-linecap="butt" stroke-linejoin="miter" stroke-miterlimit="10" transform="matrix(1.100000023841858,0,0,1.100000023841858,-40.000003814697266,-26.64997100830078)" clip-path="none" style="filter: url(#f1)"/>
<path data-code="206" d="M 301.036 346.8585 L 298.3351 346.6545 L 293.2625 346.4432 L 291.1577 346.1916 L 289.8219 345.8376 L 287.1628 344.578 L 285.9657 344.1591 L 283.9261 343.8216 L 279.7089 343.5426 L 277.6515 343.2773 L 276.3638 342.9279 L 273.7973 341.7662 L 272.6619 341.4991 L 272.0561 341.478 L 270.8528 341.6866 L 269.716 342.2437 L 266.6741 344.6741 L 264.9988 345.7132 L 264.3552 345.951 L 263.0099 346.2447 L 261.6248 346.3846 L 257.4193 346.563 L 255.3729 346.8905 L 254.7197 347.1036 L 253.6351 347.6387 L 250.5136 349.695 L 247.0676 349.363 L 245.1288 349.0721 L 243.8809 348.687 L 242.7297 348.0513 L 241.6732 347.2536 L 240.6702 346.3636 L 238.3013 343.956 L 237.0266 342.4056 L 236.3241 341.2759 L 236.0518 340.6612 L 235.8549 340.0163 L 235.6607 338.6945 L 235.6731 337.3654 L 235.8796 336.0592 L 236.2967 334.8618 L 237.4033 332.7323 L 237.8595 331.5734 L 238.7164 327.7919 L 239.7742 324.6333 L 239.7736 323.5832 L 238.9091 321.0101 L 238.632 319.7752 L 238.4714 318.4589 L 238.3137 315.7248 L 238.0639 314.4405 L 237.7161 313.1901 L 236.4641 310.4404 L 236.0524 309.2577 L 235.3918 306.0616 L 235.0282 304.813 L 234.5246 303.7053 L 233.3899 301.5685 L 232.3965 299.2103 L 230.9757 296.5402 L 230.538 295.3319 L 230.208 293.3451 L 230.147 291.9913 L 230.1923 290.6393 L 230.5202 288.6562 L 230.997 287.4552 L 232.0384 285.8946 L 233.7693 283.9609 L 236.0744 281.7326 L 237.0362 280.9185 L 238.042 280.1986 L 239.0271 279.6727 L 240.8678 278.8942 L 243.9701 277.116 L 246.2821 276.151 L 249.3823 274.3526 L 251.6909 273.3729 L 254.7911 271.5746 L 257.1031 270.6105 L 259.6819 269.1067 L 262.5009 267.8288 L 263.5196 267.1812 L 265.4035 265.5621 L 266.7379 264.2056 L 268.0132 262.7703 L 269.185 261.2272 L 270.6662 258.6486 L 273.3424 260.2055 L 275.9069 261.8885 L 278.2634 262.9844 L 279.2404 263.5204 L 280.7161 264.6519 L 283.4458 267.333 L 285.5026 269.7616 L 286.4836 271.3386 L 287.265 273.2284 L 287.7761 274.2337 L 288.8642 275.7503 L 290.1423 277.138 L 291.5563 278.361 L 292.5846 279.0196 L 294.8898 280.0075 L 297.9962 281.7436 L 299.7915 282.5367 L 300.7218 283.1066 L 301.1842 283.4862 L 302.0123 284.3597 L 302.6867 285.3595 L 303.713 287.6482 L 304.3977 288.7751 L 305.2271 289.8426 L 306.1505 290.8479 L 307.1453 291.7773 L 308.2079 292.5941 L 309.3283 293.2271 L 311.0221 294.0284 L 312.6604 295.1718 L 314.687 297.0534 L 319.5647 302.0871 L 320.6 302.9863 L 321.7141 303.7547 L 322.3165 304.0584 L 323.5582 304.4453 L 324.8377 304.6511 L 328.6699 305.0408 L 329.854 305.3097 L 331.8511 306.0424 L 332.8486 306.2016 L 333.8413 306.0223 L 336.436 305.0765 L 338.4029 304.7728 L 341.1765 304.6219 L 344.7083 304.5807 L 347.5163 304.6401 L 349.5751 304.8158 L 350.8985 305.0737 L 351.5331 305.2731 L 354.175 306.5757 L 355.3235 306.9928 L 357.217 307.324 L 360.4606 307.6313 L 362.3596 308.021 L 366.707 309.802 L 363.4257 315.3955 L 363.13 316.0834 L 362.741 317.5469 L 362.494 319.8365 L 362.4748 323.747 L 362.6834 326.8863 L 363.1636 329.7137 L 355.3516 329.8015 L 332.5619 329.7137 L 330.3967 329.8034 L 328.296 330.1254 L 327.0666 330.5644 L 324.4631 331.9813 L 322.2026 333.0662 L 320.5691 334.2151 L 317.9882 336.4077 L 316.92 337.2081 L 314.1278 338.7064 L 313.0302 339.4409 L 309.9066 342.026 L 308.8281 342.8154 L 305.4686 344.5241 L 302.8623 346.0562 L 301.036 346.8585 Z" fill="#000000" fill-opacity="1" stroke="#000000" stroke-width="0" paint-order="fill" stroke-opacity="1" stroke-dasharray="" stroke-linecap="butt" stroke-linejoin="miter" stroke-miterlimit="10" transform="matrix(1.100000023841858,0,0,1.100000023841858,-40.000003814697266,-26.64997100830078)" clip-path="none" style="filter: url(#f1)"/>
<path data-code="207" d="M 461.0581 455.5875 L 456.6887 457.8706 L 454.3548 458.8604 L 451.1914 460.6331 L 449.7645 461.1902 L 447.2179 461.9092 L 444.2672 461.4344 L 440.1173 460.9359 L 438.8022 460.6487 L 437.509 460.1474 L 435.0186 458.7653 L 432.7588 457.7188 L 430.2938 456.3641 L 429.0239 455.915 L 427.7685 455.7293 L 426.4993 455.7348 L 425.25 455.9259 L 423.9918 456.3595 L 421.4706 457.5651 L 419.4015 458.06 L 415.7291 458.3125 L 408.2155 458.3372 L 404.4903 458.2567 L 401.6048 457.9356 L 400.3754 457.5981 L 397.1695 456.1235 L 395.0922 455.6442 L 391.4252 455.4183 L 383.9206 455.4503 L 381.2244 452.6558 L 381.1881 447.8077 L 381.0769 446.4558 L 380.8512 445.1404 L 380.4629 443.9311 L 379.2445 441.1897 L 378.1969 436.788 L 377.9705 436.1697 L 377.2934 434.9156 L 375.9851 433.1941 L 374.0079 431.0289 L 371.414 428.4027 L 369.2536 426.4534 L 367.5152 425.2643 L 365.2375 424.2352 L 364.2091 423.6644 L 361.2639 421.899 L 360.3604 421.2185 L 359.6655 420.3074 L 357.9195 417.2851 L 357.4214 416.16 L 357.1017 414.8638 L 356.9336 412.8478 L 357.0921 410.1466 L 357.5476 408.211 L 358.8395 405.4879 L 359.2744 404.2658 L 359.6366 402.183 L 359.8061 398.5634 L 359.7149 394.9301 L 359.459 392.8116 L 358.8799 390.9044 L 357.595 388.1721 L 357.2252 386.8082 L 357.0084 385.3804 L 356.8211 382.456 L 356.8465 380.2808 L 357.0043 378.8684 L 357.4015 377.5119 L 357.6924 376.9576 L 358.4484 376.0007 L 359.4041 375.2726 L 360.5786 374.8647 L 361.8238 374.8701 L 362.4288 375.0156 L 363.4764 375.4976 L 365.4166 376.7243 L 367.5756 377.8586 L 369.8608 379.2864 L 370.8994 379.5618 L 371.4545 379.5407 L 372.0026 379.3843 L 372.513 379.0678 L 372.9295 378.5757 L 373.1874 378.0196 L 373.4248 376.8011 L 373.481 374.7668 L 373.3054 366.505 L 373.3349 357.4318 L 373.2423 355.2099 L 372.9192 353.0594 L 372.4883 351.8016 L 371.1128 349.1169 L 370.1386 346.756 L 368.5237 343.506 L 368.1656 342.2592 L 367.5035 339.0668 L 367.0802 337.8822 L 365.7267 335.1701 L 364.524 332.2411 L 363.1636 329.7137 L 362.6834 326.8863 L 362.4748 323.747 L 362.494 319.8365 L 362.741 317.5469 L 363.13 316.0834 L 363.4257 315.3955 L 366.707 309.802 L 367.8335 309.5541 L 368.3419 309.3547 L 372.2132 307.1072 L 372.6345 306.7422 L 372.9878 306.3114 L 374.1602 304.3346 L 374.8744 303.3714 L 376.1079 301.9765 L 377.0066 301.1056 L 378.459 299.9604 L 379.5374 299.364 L 381.2416 298.5764 L 382.7248 297.5656 L 384.5648 295.9036 L 386.8809 293.528 L 390.1005 290.3 L 391.0335 289.484 L 392.0056 288.7651 L 395.2884 287.1003 L 396.268 286.3822 L 399.111 283.9399 L 400.1119 283.2081 L 401.0292 282.6977 L 402.9336 281.8708 L 406.0044 280.1035 L 407.7181 279.3361 L 408.848 278.7085 L 409.9231 277.9091 L 413.0226 275.2728 L 414.1258 274.5319 L 416.3932 273.4598 L 418.9995 272.042 L 420.1747 271.6286 L 422.0983 271.345 L 427.3685 271.1666 L 428.6583 270.9992 L 429.9035 270.6516 L 431.5006 269.7772 L 433.9676 267.9971 L 435.3486 266.9058 L 440.6126 270.4815 L 443.4282 271.8014 L 446.575 273.4745 L 447.7866 273.8449 L 450.2687 274.3618 L 451.4741 274.7176 L 454.1298 276.0028 L 455.2913 276.4089 L 456.5508 276.6468 L 461.0609 277.1398 L 462.2971 277.4728 L 462.8508 277.7042 L 465.4619 279.1101 L 467.7581 280.1044 L 470.8412 281.9238 L 473.1078 283.0004 L 474.1218 283.6673 L 476.0263 285.2525 L 476.3254 286.8542 L 476.818 288.3232 L 478.2244 291.0583 L 479.1526 293.4521 L 480.9082 296.6381 L 481.9016 298.9999 L 482.9032 300.5568 L 485.2577 303.4858 L 485.9554 304.5039 L 487.5724 307.9094 L 488.6591 309.4132 L 490.3351 311.3076 L 498.0525 319.1953 L 495.6931 320.8894 L 494.0473 322.3419 L 492.029 324.4394 L 490.731 326.1582 L 490.0806 327.4342 L 489.704 328.8356 L 489.2265 333.8913 L 488.9164 335.289 L 488.4574 336.4132 L 487.0613 338.9086 L 486.4137 339.8352 L 485.9931 340.2349 L 484.8879 340.7984 L 483.6489 341.0536 L 478.2024 341.275 L 476.8358 341.4762 L 475.6009 341.8631 L 471.2939 343.9359 L 470.258 344.5872 L 468.9909 345.8824 L 468.3638 346.9481 L 468.1107 347.6396 L 467.8226 349.0812 L 467.684 351.3242 L 467.8315 381.565 L 467.7985 383.872 L 467.6387 386.1378 L 467.3766 387.5995 L 466.9396 388.8764 L 465.571 391.5657 L 464.581 393.9212 L 462.9475 397.1648 L 461.655 402.1894 L 460.4263 404.9363 L 460.0181 406.2023 L 459.7746 407.6384 L 459.6579 409.1175 L 459.5948 416.6805 L 459.4123 419.6524 L 458.9609 421.7636 L 457.7377 424.506 L 457.3192 425.7646 L 457.0571 427.2072 L 456.9192 428.6963 L 456.8143 432.5089 L 456.7999 440.9884 L 456.8609 443.2698 L 457.0859 445.4971 L 457.6506 447.4912 L 458.9438 450.219 L 459.9879 453.2961 L 461.0581 455.5875 Z" fill="#000000" fill-opacity="1" stroke="#000000" stroke-width="0" paint-order="fill" stroke-opacity="1" stroke-dasharray="" stroke-linecap="butt" stroke-linejoin="miter" stroke-miterlimit="10" transform="matrix(1.100000023841858,0,0,1.100000023841858,-40.000003814697266,-26.64997100830078)" clip-path="none" style="filter: url(#f1)"/>
<path data-code="208" d="M 435.0255 211.5273 L 438.997 216.1623 L 440.225 217.828 L 442.9678 223.4453 L 443.3842 224.6875 L 443.6264 226.0633 L 443.7828 228.1927 L 443.8364 231.0879 L 443.7746 236.1609 L 443.6683 237.5806 L 443.4529 238.9682 L 443.0488 240.2946 L 442.7524 240.9056 L 442.0245 242.0326 L 439.5863 245.2259 L 438.9565 246.4159 L 438.7274 247.0837 L 438.3624 249.1857 L 438.1559 253.5298 L 437.9419 255.6675 L 437.6174 257.0286 L 436.3989 259.7801 L 435.999 260.9757 L 435.6676 262.9451 L 435.3486 266.9058 L 433.9676 267.9971 L 431.5006 269.7772 L 429.9035 270.6516 L 428.6583 270.9992 L 427.3685 271.1666 L 422.0983 271.345 L 420.1747 271.6286 L 418.9995 272.042 L 416.3932 273.4598 L 414.1258 274.5319 L 413.0226 275.2728 L 409.9231 277.9091 L 408.848 278.7085 L 407.7181 279.3361 L 406.0044 280.1035 L 402.9336 281.8708 L 401.0292 282.6977 L 400.1119 283.2081 L 399.111 283.9399 L 396.268 286.3822 L 395.2884 287.1003 L 392.0056 288.7651 L 391.0335 289.484 L 390.1005 290.3 L 386.8809 293.528 L 374.0841 280.1538 L 372.6242 278.7945 L 371.0367 277.6603 L 370.4563 277.3767 L 369.218 277.0081 L 364.0884 276.4592 L 362.8542 276.1409 L 362.3006 275.9122 L 359.6915 274.5045 L 357.3967 273.5038 L 354.3122 271.6825 L 352.0229 270.6635 L 348.9391 268.8414 L 346.6457 267.8379 L 344.5738 266.6863 L 343.4878 266.1814 L 341.6156 265.7423 L 337.1069 265.2493 L 335.8775 264.9282 L 333.2164 263.6622 L 332.0617 263.2625 L 330.8077 263.032 L 326.9514 262.6569 L 325.6925 262.388 L 325.0812 262.1703 L 323.9115 261.5126 L 322.8447 260.6738 L 321.3437 259.2422 L 316.4919 254.1683 L 314.947 252.8126 L 313.8369 252.0708 L 311.5572 251.028 L 309.4847 249.8809 L 308.4042 249.376 L 307.1885 249.0238 L 304.0862 248.3789 L 302.9398 247.9399 L 300.3363 246.5083 L 298.0414 245.504 L 294.968 243.6635 L 292.6896 242.6363 L 290.6376 241.459 L 289.553 240.944 L 288.9383 240.7483 L 287.6636 240.5095 L 285.6913 240.4062 L 283.0095 240.6056 L 280.29 241.095 L 281.6916 238.391 L 282.3701 237.2787 L 285.5163 233.3308 L 286.2181 232.3136 L 287.5854 229.4587 L 288.2783 228.3547 L 289.5311 226.7978 L 292.7191 223.299 L 293.965 221.7375 L 294.6489 220.6289 L 295.6897 218.289 L 296.008 217.7219 L 296.7572 216.6343 L 298.0483 215.0865 L 299.9226 213.1245 L 301.9094 211.3234 L 303.5127 210.2248 L 305.78 209.1554 L 306.8544 208.4511 L 308.3712 207.1696 L 311.2952 204.3568 L 312.7921 203.0277 L 314.3748 201.9318 L 316.0412 201.147 L 317.0813 200.5314 L 317.9896 199.753 L 318.7703 198.8346 L 319.3925 197.7616 L 320.1355 196.0373 L 321.5213 193.3654 L 321.7498 192.7882 L 322.0667 191.493 L 322.2225 190.1493 L 322.3055 188.092 L 322.2623 179.0189 L 333.9683 179.1158 L 336.1423 178.9548 L 337.548 178.6575 L 338.2265 178.4106 L 339.4306 177.7227 L 340.5262 176.8574 L 344.6116 172.9012 L 345.6791 171.9928 L 346.8117 171.2171 L 349.0695 170.1149 L 352.1711 168.3348 L 354.4714 167.3424 L 357.6348 165.7013 L 362.5105 164.4052 L 365.1669 163.1355 L 366.3894 162.7129 L 368.4832 162.3845 L 370.6463 162.2803 L 386.8082 162.3287 L 389.7431 162.2501 L 393.2 161.9638 L 392.6752 165.2293 L 392.492 168.9916 L 392.407 184.1843 L 392.4619 186.4327 L 392.6841 188.629 L 392.8296 189.3397 L 393.2522 190.6066 L 394.5968 193.3069 L 395.5676 195.6715 L 397.2868 198.8748 L 398.3172 201.2303 L 399.0438 202.4249 L 400.3521 204.0998 L 402.2956 206.1991 L 403.8722 207.6782 L 404.9829 208.5453 L 406.1828 209.2332 L 407.3964 209.6439 L 409.8648 210.169 L 411.0633 210.5156 L 413.7231 211.7798 L 414.888 212.1869 L 416.1496 212.4375 L 420.0182 212.893 L 421.2586 213.1537 L 422.3837 213.5653 L 423.9115 214.32 L 424.9715 214.7206 L 426.1769 214.8743 L 427.387 214.7225 L 428.4559 214.3154 L 430.5079 213.2754 L 433.4997 212.2198 L 435.0255 211.5273 Z" fill="#000000" fill-opacity="1" stroke="#000000" stroke-width="0" paint-order="fill" stroke-opacity="1" stroke-dasharray="" stroke-linecap="butt" stroke-linejoin="miter" stroke-miterlimit="10" transform="matrix(1.100000023841858,0,0,1.100000023841858,-40.000003814697266,-26.64997100830078)" clip-path="none" style="filter: url(#f1)"/>
<path data-code="209" d="M 453.2118 179.2448 L 447.6158 179.1661 L 446.136 179.2741 L 444.6939 179.5137 L 443.435 179.9226 L 440.7588 181.1236 L 437.1659 181.9853 L 435.9935 182.4262 L 434.9884 183.0912 L 434.1384 183.9602 L 433.781 184.4624 L 433.2219 185.6735 L 432.9221 187.0538 L 432.7999 188.478 L 432.7986 190.6551 L 432.957 192.8349 L 433.3378 194.9488 L 433.7721 196.1874 L 435.0262 198.9297 L 435.3754 200.2826 L 435.5688 201.6959 L 435.6937 204.6038 L 435.612 207.5382 L 435.3925 209.7107 L 435.0255 211.5273 L 433.4997 212.2198 L 430.5079 213.2754 L 428.4559 214.3154 L 427.387 214.7225 L 426.1769 214.8743 L 424.9715 214.7206 L 423.9115 214.32 L 422.3837 213.5653 L 421.2586 213.1537 L 420.0182 212.893 L 416.1496 212.4375 L 414.888 212.1869 L 413.7231 211.7798 L 411.0633 210.5156 L 409.8648 210.169 L 407.3964 209.6439 L 406.1828 209.2332 L 404.9829 208.5453 L 403.8722 207.6782 L 402.2956 206.1991 L 400.3521 204.0998 L 399.0438 202.4249 L 398.3172 201.2303 L 397.2868 198.8748 L 395.5676 195.6715 L 394.5968 193.3069 L 393.2522 190.6066 L 392.8296 189.3397 L 392.6841 188.629 L 392.4619 186.4327 L 392.407 184.1843 L 392.492 168.9916 L 392.6752 165.2293 L 393.2 161.9638 L 392.1044 157.6536 L 391.6654 156.4772 L 390.4147 153.7221 L 389.9681 151.6274 L 389.8021 149.4329 L 389.7389 146.4436 L 389.7005 140.4238 L 389.8144 137.4857 L 390.025 136.0706 L 390.4648 134.7269 L 390.7591 134.1872 L 391.4945 133.2358 L 392.846 132.1254 L 395.4317 130.7167 L 396.3298 129.9639 L 397.1187 129.072 L 397.7705 128.0274 L 399.6797 124.2029 L 400.3637 122.3661 L 400.6814 120.1799 L 400.7822 117.9279 L 400.7692 112.6078 L 400.6018 109.6066 L 400.3967 108.154 L 400.0344 106.7719 L 398.792 104.0661 L 398.4092 102.8779 L 398.2212 101.5854 L 398.2164 100.2718 L 398.3989 98.9729 L 398.7934 97.7728 L 400.184 95.1228 L 401.2117 92.7784 L 402.6167 90.0927 L 403.2074 88.1425 L 403.4441 85.9637 L 403.4489 82.9881 L 403.2726 80.7625 L 402.7656 77.7659 L 403.7377 75.9721 L 405.3513 73.3395 L 406.6383 70.4389 L 407.7133 68.7824 L 409.4758 66.7434 L 411.8728 64.3322 L 413.9008 62.5814 L 415.5006 61.5139 L 417.2308 64.5042 L 418.865 67.1331 L 420.1836 70.0172 L 420.873 71.1268 L 422.1223 72.6855 L 425.7673 76.671 L 426.9624 78.258 L 427.5778 79.406 L 428.3262 81.1641 L 429.7134 83.8433 L 429.9419 84.4196 L 430.2684 85.7103 L 430.4873 87.7328 L 430.5497 89.8019 L 430.5065 93.2696 L 430.37 95.3213 L 430.1772 96.6532 L 429.8369 97.9246 L 428.3153 101.2021 L 427.8721 103.1322 L 427.691 105.1647 L 427.6182 107.2393 L 427.5743 111.4205 L 427.6388 114.1775 L 427.8789 116.189 L 428.2583 117.4733 L 428.5485 118.0742 L 429.2785 119.1783 L 430.1312 120.1982 L 432.931 123.0915 L 434.2393 124.5935 L 434.9637 125.6958 L 435.2443 126.2986 L 435.5777 127.5892 L 435.6628 128.911 L 435.5469 130.2237 L 435.4138 130.864 L 434.9932 132.0403 L 433.6911 134.6985 L 433.5121 135.3187 L 433.32 136.6094 L 433.3145 137.9211 L 433.4935 139.2072 L 433.8715 140.3744 L 434.8265 142.459 L 435.1092 143.6162 L 435.1435 144.2345 L 435.1023 144.852 L 434.8046 146.0036 L 433.5903 148.6161 L 433.2754 149.8638 L 433.1697 151.8304 L 433.355 153.1449 L 433.5491 153.7861 L 433.8256 154.4063 L 434.5473 155.5424 L 435.8624 157.0992 L 447.5966 169.0081 L 449.0126 170.521 L 450.3222 172.0935 L 451.0659 173.2167 L 451.3705 173.8141 L 451.8109 175.0499 L 452.5354 177.5224 L 453.2118 179.2448 Z" fill="#000000" fill-opacity="1" stroke="#000000" stroke-width="0" paint-order="fill" stroke-opacity="1" stroke-dasharray="" stroke-linecap="butt" stroke-linejoin="miter" stroke-miterlimit="10" transform="matrix(1.100000023841858,0,0,1.100000023841858,-40.000003814697266,-26.64997100830078)" clip-path="none" style="filter: url(#f1)"/>
<path data-code="210" d="M 435.0255 211.5273 L 435.3925 209.7107 L 435.612 207.5382 L 435.6937 204.6038 L 435.5688 201.6959 L 435.3754 200.2826 L 435.0262 198.9297 L 433.7721 196.1874 L 433.3378 194.9488 L 432.957 192.8349 L 432.7986 190.6551 L 432.7999 188.478 L 432.9221 187.0538 L 433.2219 185.6735 L 433.781 184.4624 L 434.1384 183.9602 L 434.9884 183.0912 L 435.9935 182.4262 L 437.1659 181.9853 L 440.7588 181.1236 L 443.435 179.9226 L 444.6939 179.5137 L 446.136 179.2741 L 447.6158 179.1661 L 453.2118 179.2448 L 458.9506 179.1085 L 461.0822 179.1561 L 463.1719 179.3408 L 465.1538 179.8266 L 468.3234 181.3999 L 469.5521 181.7621 L 470.8343 181.967 L 473.4481 182.0347 L 474.7468 181.8765 L 476.0119 181.5051 L 477.2029 180.8392 L 478.7547 179.5073 L 480.0746 177.9312 L 480.7785 176.754 L 481.0488 176.1201 L 481.3747 174.8312 L 481.7554 170.2329 L 482.01 168.9587 L 482.5046 167.7961 L 482.8373 167.2856 L 483.6345 166.3837 L 484.5751 165.6529 L 487.2891 164.311 L 489.8858 162.8529 L 492.206 161.8915 L 495.3858 160.2724 L 497.8405 159.6513 L 498.9498 159.5928 L 500.8844 159.5928 L 500.9174 159.9102 L 501.3167 160.3712 L 503.5127 160.8167 L 504.0149 161.3381 L 504.124 162.3324 L 503.2657 164.6156 L 503.0908 165.0802 L 502.9515 166.831 L 503.7158 168.4647 L 505.8816 170.5576 L 506.6246 173.6741 L 506.4407 175.2584 L 506.8153 176.2125 L 507.797 177.6934 L 510.6976 179.8266 L 512.3194 184.392 L 512.5486 185.0359 L 513.6284 185.5875 L 516.2793 185.2728 L 518.2922 185.0332 L 518.7209 184.982 L 520.9163 186.4199 L 522.8043 188.7204 L 523.3662 190.1246 L 523.786 197.8467 L 523.8038 198.1714 L 522.8722 199.935 L 521.4404 201.5916 L 520.4669 202.7176 L 520.2364 203.9763 L 519.9586 205.4929 L 520.1116 209.7875 L 519.6533 211.5767 L 519.5922 211.703 L 516.3651 218.3786 L 516.6196 219.0016 L 516.0975 219.6538 L 513.9653 220.499 L 510.6352 221.0743 L 508.7664 221.6122 L 507.594 222.2836 L 506.532 223.1325 L 505.5557 224.0929 L 504.6639 225.133 L 503.5538 226.839 L 502.5659 229.2063 L 500.8714 232.4298 L 499.9185 234.8145 L 498.1869 238.0233 L 496.9191 240.9349 L 495.4071 243.5803 L 494.415 245.9256 L 493.1033 248.5518 L 492.8008 249.7455 L 492.7617 250.3813 L 492.9147 251.6399 L 493.3208 252.744 L 494.096 254.3228 L 494.5385 255.4745 L 495.3 258.6431 L 495.689 259.8469 L 496.6913 261.8574 L 497.0618 262.8792 L 497.1139 264.0263 L 496.9822 264.5797 L 496.7291 265.0919 L 496.3696 265.51 L 495.9538 265.8301 L 493.1294 267.4812 L 492.1044 268.019 L 489.8672 269.0051 L 488.902 269.7058 L 488.078 270.5894 L 487.4428 271.6304 L 487.2081 272.235 L 486.4384 276.0193 L 486.0364 277.2029 L 484.1278 280.8371 L 483.461 281.7701 L 482.5622 282.4635 L 479.0517 284.4631 L 477.8951 284.8866 L 476.0263 285.2525 L 474.1218 283.6673 L 473.1078 283.0004 L 470.8412 281.9238 L 467.7581 280.1044 L 465.4619 279.1101 L 462.8508 277.7042 L 462.2971 277.4728 L 461.0609 277.1398 L 456.5508 276.6468 L 455.2913 276.4089 L 454.1298 276.0028 L 451.4741 274.7176 L 450.2687 274.3618 L 447.7866 273.8449 L 446.575 273.4745 L 443.4282 271.8014 L 440.6126 270.4815 L 435.3486 266.9058 L 435.6676 262.9451 L 435.999 260.9757 L 436.3989 259.7801 L 437.6174 257.0286 L 437.9419 255.6675 L 438.1559 253.5298 L 438.3624 249.1857 L 438.7274 247.0837 L 438.9565 246.4159 L 439.5863 245.2259 L 442.0245 242.0326 L 442.7524 240.9056 L 443.0488 240.2946 L 443.4529 238.9682 L 443.6683 237.5806 L 443.7746 236.1609 L 443.8364 231.0879 L 443.7828 228.1927 L 443.6264 226.0633 L 443.3842 224.6875 L 442.9678 223.4453 L 440.225 217.828 L 438.997 216.1623 L 435.0255 211.5273 Z" fill="#000000" fill-opacity="1" stroke="#000000" stroke-width="0" paint-order="fill" stroke-opacity="1" stroke-dasharray="" stroke-linecap="butt" stroke-linejoin="miter" stroke-miterlimit="10" transform="matrix(1.100000023841858,0,0,1.100000023841858,-40.000003814697266,-26.64997100830078)" clip-path="none" style="filter: url(#f1)"/>
<path data-code="211" d="M 476.0263 285.2525 L 477.8951 284.8866 L 479.0517 284.4631 L 482.5622 282.4635 L 483.461 281.7701 L 484.1278 280.8371 L 486.0364 277.2029 L 486.4384 276.0193 L 487.2081 272.235 L 487.4428 271.6304 L 488.078 270.5894 L 488.902 269.7058 L 489.8672 269.0051 L 492.1044 268.019 L 493.1294 267.4812 L 495.9538 265.8301 L 496.3696 265.51 L 496.7291 265.0919 L 496.9822 264.5797 L 497.1139 264.0263 L 497.0618 262.8792 L 496.6913 261.8574 L 495.689 259.8469 L 495.3 258.6431 L 494.5385 255.4745 L 494.096 254.3228 L 493.3208 252.744 L 492.9147 251.6399 L 492.7617 250.3813 L 492.8008 249.7455 L 493.1033 248.5518 L 494.415 245.9256 L 495.4071 243.5803 L 496.9191 240.9349 L 498.1869 238.0233 L 499.9185 234.8145 L 500.8714 232.4298 L 502.5659 229.2063 L 503.5538 226.839 L 504.6639 225.133 L 505.5557 224.0929 L 506.532 223.1325 L 507.594 222.2836 L 508.7664 221.6122 L 510.6352 221.0743 L 513.9653 220.499 L 516.0975 219.6538 L 516.6196 219.0016 L 517.5375 221.2454 L 518.0527 223.5807 L 520.1829 227.2689 L 520.6748 228.9995 L 520.4127 230.0295 L 519.5531 231.3367 L 517.7941 234.0104 L 517.8579 234.8382 L 518.347 235.5792 L 521.4439 236.8022 L 521.8925 236.9796 L 523.349 237.5541 L 526.3134 239.2545 L 527.0804 240.7254 L 526.7099 250.1599 L 525.4106 256.1358 L 525.3083 258.1638 L 525.9018 263.3814 L 526.0006 264.2485 L 527.5737 269.5018 L 525.1986 280.2023 L 523.5823 284.1823 L 523.4615 285.5498 L 524.4199 290.4948 L 524.376 292.4166 L 524.3355 292.5767 L 523.4601 296.0499 L 523.6413 297.6544 L 524.6017 298.3669 L 528.6809 299.5799 L 529.9337 300.2385 L 530.3144 300.4388 L 533.1368 299.5497 L 534.229 299.7198 L 534.7675 300.4644 L 535.3472 302.4759 L 536.0594 302.9003 L 538.3281 302.5857 L 541.7926 300.4141 L 544.1156 299.4756 L 545.3786 298.9652 L 546.8625 297.6187 L 546.9112 297.605 L 547.6604 297.3882 L 548.6922 297.7212 L 550.4505 299.1939 L 552.2747 302.4311 L 552.8112 304.2203 L 553.3683 304.3721 L 556.6345 305.2612 L 557.4111 306.4595 L 558.1473 311.4503 L 557.914 312.9221 L 557.4009 313.7179 L 554.9126 316.0459 L 552.1375 315.4376 L 550.2578 315.6361 L 550.2989 315.53 L 545.6091 316.1758 L 543.7582 316.7466 L 542.6193 317.4152 L 539.0361 320.2408 L 537.8952 320.7851 L 536.6933 320.9772 L 536.0916 320.9488 L 534.9734 320.6662 L 532.9756 319.7112 L 531.8635 319.3252 L 530.005 319.0974 L 528.7454 319.1715 L 527.5202 319.4505 L 524.8851 320.711 L 523.6948 321.1546 L 521.6517 321.5223 L 519.5366 321.644 L 516.7149 321.537 L 514.6712 321.1793 L 513.4754 320.7375 L 510.8348 319.4304 L 509.5279 319.0681 L 508.1606 318.8696 L 505.3437 318.7315 L 502.4864 318.7681 L 500.3432 318.898 L 498.0525 319.1953 L 490.3351 311.3076 L 488.6591 309.4132 L 487.5724 307.9094 L 485.9554 304.5039 L 485.2577 303.4858 L 482.9032 300.5568 L 481.9016 298.9999 L 480.9082 296.6381 L 479.1526 293.4521 L 478.2244 291.0583 L 476.818 288.3232 L 476.3254 286.8542 L 476.0263 285.2525 Z" fill="#000000" fill-opacity="1" stroke="#000000" stroke-width="0" paint-order="fill" stroke-opacity="1" stroke-dasharray="" stroke-linecap="butt" stroke-linejoin="miter" stroke-miterlimit="10" transform="matrix(1.100000023841858,0,0,1.100000023841858,-40.000003814697266,-26.64997100830078)" clip-path="none" style="filter: url(#f1)"/>












</svg>