<?xml version="1.0" standalone="no"?>
<!-- Generator: Paintmaps.com , Online SVG vector map maker -->
<svg xmlns="http://www.w3.org/2000/svg" version="1.1" baseProfile="full"   style="background-color:false" width="800" height="500" viewBox="0 0 800 533">
<path data-code="200" d="M 479.9253 383.4047 L 477.8615 382.8839 L 474.4289 381.3052 L 472.5708 380.6448 L 470.4282 380.4361 L 469.3414 380.5528 L 468.2695 380.8238 L 466.2279 381.8325 L 460.7622 386.2304 L 458.8118 387.5725 L 457.7546 388.1196 L 455.3446 388.895 L 452.815 389.286 L 450.2288 389.4519 L 438.3906 389.4355 L 433.2231 389.7444 L 429.5514 390.5707 L 423.7937 393.2288 L 420.0752 394.0699 L 414.8473 394.4166 L 402.8699 394.6055 L 397.7726 395.118 L 393.8988 388.6535 L 389.8895 383.8302 L 383.7511 377.4265 L 379.2071 373.1173 L 376.3436 370.893 L 371.4349 368.2496 L 369.0051 366.2191 L 367.1138 363.6875 L 365.7141 360.7354 L 364.636 358.8741 L 363.261 357.2542 L 362.4687 356.538 L 360.6871 355.3633 L 359.6509 354.9214 L 352.0253 353.093 L 346.3009 350.2476 L 342.1548 348.4651 L 340.1304 347.1673 L 338.2514 345.6066 L 335.6837 342.9551 L 334.1928 340.9886 L 333.0137 338.7971 L 332.617 337.6405 L 331.991 334.0329 L 331.8259 330.33 L 331.9134 326.6156 L 332.129 324.176 L 332.5554 321.8103 L 333.3439 319.599 L 334.5058 317.8051 L 336.6411 315.722 L 339.6203 313.7391 L 340.245 313.0425 L 340.7034 312.1571 L 340.9584 311.1681 L 341.0138 310.1167 L 340.8648 309.034 L 340.5001 307.9564 L 339.3332 305.9981 L 337.8116 304.2091 L 336.0607 302.5547 L 334.1165 301.0893 L 331.9467 299.9525 L 330.8144 299.5878 L 327.3139 299.0769 L 317.8254 298.8551 L 315.5065 298.5693 L 313.2665 297.9581 L 310.3859 296.4073 L 302.9586 291.2653 L 303.587 286.6768 L 304.1945 284.4311 L 305.0865 282.417 L 307.1035 278.5646 L 308.863 274.3097 L 312.0443 268.5894 L 313.7914 264.3279 L 316.2803 259.4897 L 317.0491 257.3623 L 317.7675 253.9156 L 322.1329 255.1018 L 326.8999 257.4066 L 329.0685 258.1525 L 332.7439 258.7242 L 340.3115 259.1234 L 344.0227 259.5538 L 347.3667 260.5674 L 352.1374 262.8345 L 355.8079 263.6773 L 359.6644 263.9911 L 363.5949 264.0749 L 387.3809 263.8498 L 391.2313 264.1274 L 393.7263 264.6416 L 394.9326 265.0737 L 397.1319 266.319 L 400.0816 268.7635 L 404.6281 273.4718 L 408.9824 278.5137 L 409.8006 284.0795 L 409.9238 287.7562 L 409.5541 291.331 L 408.8358 293.5882 L 407.685 295.4676 L 405.3859 297.7068 L 403.5451 298.8157 L 399.5888 300.792 L 396.7167 302.9556 L 393.2409 306.4351 L 391.1105 309.4234 L 387.27 317.2942 L 386.5394 319.3066 L 386.3386 320.4517 L 386.3854 322.7812 L 386.6454 323.9345 L 387.0963 325.1009 L 388.3703 327.2201 L 390.7865 330.1115 L 393.4848 332.8534 L 396.3335 335.4523 L 399.3497 337.7424 L 401.4406 338.8907 L 404.5172 340.2773 L 410.0753 343.4857 L 414.1795 345.2928 L 418.8554 347.8178 L 421.0572 348.613 L 424.8312 349.2126 L 430.0406 349.4065 L 467.115 349.2849 L 484.1601 348.9662 L 487.7049 349.2947 L 489.8476 350.0849 L 490.7939 350.8242 L 491.5233 351.7984 L 492.3168 354.0261 L 492.5743 357.6863 L 492.3747 360.2343 L 491.8781 362.7823 L 491.0452 365.056 L 488.4528 369.8514 L 486.0009 375.0312 L 482.1296 380.5528 L 479.9253 383.4047 Z" fill="#000000" fill-opacity="1" stroke="#000000" stroke-width="0" paint-order="fill" stroke-opacity="1" stroke-dasharray="" stroke-linecap="butt" stroke-linejoin="miter" stroke-miterlimit="10" transform="matrix(1.100000023841858,0,0,1.100000023841858,-40.000022888183594,-26.650043487548828)" clip-path="none"/>
<path data-code="201" d="M 466.0739 436.7176 L 462.1717 440.4419 L 453.5617 449.1702 L 449.7027 453.1705 L 446.7863 456.4529 L 445.4815 458.1713 L 444.3849 459.9866 L 442.9704 463.3758 L 442.1326 465.0334 L 441.0791 466.6121 L 438.6703 469.6234 L 433.2995 470.016 L 430.6948 470.4744 L 428.2454 471.2925 L 424.7917 472.8926 L 422.4211 473.7157 L 411.2594 475.5327 L 408.8986 476.3672 L 404.2708 478.4618 L 401.6883 479.1124 L 397.6272 479.5526 L 390.6695 479.7005 L 327.4199 479.5609 L 320.4523 479.3292 L 314.5812 478.5308 L 309.6515 471.0395 L 308.5709 469.1191 L 306.8226 464.8527 L 303.7312 459.0946 L 302.0592 454.8051 L 298.9826 449.0487 L 297.6864 445.8616 L 296.6317 443.7982 L 295.2912 441.881 L 293.7744 440.0559 L 284.5976 430.4552 L 281.4705 426.8558 L 279.5447 423.9529 L 278.1278 420.8135 L 277.0768 418.8437 L 275.8101 417.0415 L 272.3196 412.711 L 271.064 410.8875 L 270.0968 408.8866 L 269.5855 406.5702 L 269.5066 405.3841 L 269.6323 403.0118 L 270.2619 399.8182 L 272.4218 398.9163 L 274.4758 397.8123 L 277.3269 395.6585 L 281.7329 391.4841 L 284.1996 388.8047 L 285.7041 386.9253 L 286.9941 384.9079 L 287.912 382.6884 L 288.4492 380.3491 L 289.828 371.7702 L 299.4434 380.4969 L 301.3704 381.9672 L 303.47 383.132 L 304.5653 383.523 L 306.8226 384.0158 L 313.7483 384.7107 L 316.0043 385.1264 L 318.0854 385.8443 L 322.8537 388.1541 L 327.2437 389.2942 L 326.948 405.9903 L 327.0515 408.6845 L 327.3805 411.3081 L 328.153 413.8183 L 329.3087 415.7059 L 330.8156 417.2699 L 331.6769 417.9221 L 333.6433 418.9242 L 341.1531 420.82 L 345.9497 422.9984 L 349.4366 423.9923 L 352.0093 424.3061 L 355.9557 424.4835 L 373.3557 424.3636 L 379.9463 424.6182 L 382.498 424.9698 L 384.9389 425.6204 L 390.6842 428.2932 L 393.1411 428.9504 L 397.021 429.4071 L 402.3438 429.5697 L 427.9632 429.6617 L 431.9442 429.5352 L 434.5476 429.2609 L 437.0698 428.6859 L 439.3307 427.6706 L 441.2812 426.3103 L 446.7358 421.7055 L 448.7798 420.4997 L 449.8666 420.0873 L 452.1152 419.6191 L 455.5343 419.7029 L 457.7509 420.3765 L 458.7193 420.9104 L 460.4098 422.2904 L 461.7873 423.9858 L 463.2301 427.0545 L 464.9255 432.1539 L 466.0739 436.7176 Z" fill="#000000" fill-opacity="1" stroke="#000000" stroke-width="0" paint-order="fill" stroke-opacity="1" stroke-dasharray="" stroke-linecap="butt" stroke-linejoin="miter" stroke-miterlimit="10" transform="matrix(1.100000023841858,0,0,1.100000023841858,-40.000022888183594,-26.650043487548828)" clip-path="none"/>
<path data-code="202" d="M 524.5157 389.2055 L 530.3116 389.6491 L 532.2768 390.2438 L 533.9685 391.4168 L 534.6708 392.3877 L 535.4446 394.617 L 535.7933 399.529 L 532.4567 400.2584 L 530.3991 401.0569 L 525.7281 403.6492 L 521.5907 405.412 L 517.8684 407.5066 L 515.9389 408.4364 L 513.7605 409.0853 L 508.184 410.2501 L 506.1226 411.0403 L 501.4406 413.6113 L 497.3031 415.3823 L 491.7377 418.6121 L 487.5977 420.3765 L 482.0249 423.5603 L 477.9244 425.4167 L 475.2593 427.2533 L 472.7815 429.4777 L 469.6778 432.6894 L 466.0739 436.7176 L 464.9255 432.1539 L 463.2301 427.0545 L 461.7873 423.9858 L 460.4098 422.2904 L 458.7193 420.9104 L 457.7509 420.3765 L 455.5343 419.7029 L 452.1152 419.6191 L 449.8666 420.0873 L 448.7798 420.4997 L 446.7358 421.7055 L 441.2812 426.3103 L 439.3307 427.6706 L 437.0698 428.6859 L 434.5476 429.2609 L 431.9442 429.5352 L 427.9632 429.6617 L 402.3438 429.5697 L 397.021 429.4071 L 393.1411 428.9504 L 390.6842 428.2932 L 384.9389 425.6204 L 382.498 424.9698 L 379.9463 424.6182 L 373.3557 424.3636 L 355.9557 424.4835 L 352.0093 424.3061 L 349.4366 423.9923 L 345.9497 422.9984 L 341.1531 420.82 L 333.6433 418.9242 L 331.6769 417.9221 L 330.8156 417.2699 L 329.3087 415.7059 L 328.153 413.8183 L 327.3805 411.3081 L 327.0515 408.6845 L 326.948 405.9903 L 327.2437 389.2942 L 331.5955 390.5017 L 336.3478 392.8197 L 339.7435 393.8514 L 344.8014 394.3311 L 360.4357 394.3081 L 366.8255 394.7024 L 370.4356 395.5649 L 376.1563 398.2953 L 378.57 398.9524 L 381.0873 399.2826 L 384.9339 399.3368 L 388.7449 398.839 L 390.9504 398.1507 L 397.7726 395.118 L 402.8699 394.6055 L 414.8473 394.4166 L 420.0752 394.0699 L 423.7937 393.2288 L 429.5514 390.5707 L 433.2231 389.7444 L 438.3906 389.4355 L 450.2288 389.4519 L 452.815 389.286 L 455.3446 388.895 L 457.7546 388.1196 L 458.8118 387.5725 L 460.7622 386.2304 L 466.2279 381.8325 L 468.2695 380.8238 L 469.3414 380.5528 L 470.4282 380.4361 L 472.5708 380.6448 L 474.4289 381.3052 L 477.8615 382.8839 L 479.9253 383.4047 L 484.8193 387.4066 L 491.7105 394.3065 L 494.3189 396.6656 L 496.2213 397.9174 L 497.2674 398.3643 L 498.3677 398.6353 L 499.4828 398.7355 L 501.6784 398.4563 L 503.5783 397.6808 L 506.2742 396.2237 L 508.2542 395.4236 L 513.7926 394.157 L 515.9759 393.4686 L 521.6523 390.3703 L 524.5157 389.2055 Z" fill="#000000" fill-opacity="1" stroke="#000000" stroke-width="0" paint-order="fill" stroke-opacity="1" stroke-dasharray="" stroke-linecap="butt" stroke-linejoin="miter" stroke-miterlimit="10" transform="matrix(1.100000023841858,0,0,1.100000023841858,-40.000022888183594,-26.650043487548828)" clip-path="none"/>
<path data-code="203" d="M 471.51 203.6041 L 469.5546 208.3322 L 468.9102 210.4777 L 468.5061 212.845 L 467.7988 220.0537 L 467.3701 222.3882 L 466.6628 224.5337 L 464.8491 228.4568 L 464.1419 230.6007 L 463.7181 232.9318 L 463.0059 240.1143 L 462.2333 243.5856 L 461.3598 245.6013 L 459.365 249.4504 L 457.6141 253.7021 L 454.4809 259.452 L 452.7966 263.7939 L 449.4895 271.093 L 439.4355 275.1261 L 433.7369 278.0274 L 431.3651 278.6681 L 427.6453 279.0969 L 422.553 279.2151 L 414.8301 279.0065 L 408.9824 278.5137 L 404.6281 273.4718 L 400.0816 268.7635 L 397.1319 266.319 L 394.9326 265.0737 L 393.7263 264.6416 L 391.2313 264.1274 L 387.3809 263.8498 L 363.5949 264.0749 L 359.6644 263.9911 L 355.8079 263.6773 L 352.1374 262.8345 L 347.3667 260.5674 L 344.0227 259.5538 L 340.3115 259.1234 L 332.7439 258.7242 L 329.0685 258.1525 L 326.8999 257.4066 L 322.1329 255.1018 L 317.7675 253.9156 L 318.9035 249.3897 L 321.1139 244.4431 L 321.8507 242.1859 L 322.3189 239.6379 L 323.0508 233.1339 L 323.5326 230.599 L 324.2805 228.3632 L 326.4909 223.4084 L 327.1131 220.9524 L 327.5517 217.095 L 327.6146 211.8495 L 327.1082 206.6943 L 326.4798 204.2498 L 323.8652 198.3077 L 323.0434 194.5473 L 322.691 189.2541 L 322.6836 178.7154 L 364.6385 178.855 L 368.4285 178.7909 L 372.1532 178.5149 L 375.7103 177.7165 L 380.4823 175.3903 L 382.5178 174.6149 L 388.0586 173.3729 L 390.2357 172.7043 L 395.9183 169.7324 L 400.0754 167.9894 L 405.636 164.8105 L 409.6022 162.8572 L 411.3025 161.5626 L 412.7835 160.0019 L 413.9984 158.2343 L 415.9057 154.165 L 417.16 152.1377 L 418.6632 150.2222 L 420.3339 148.4233 L 422.1328 146.7674 L 424.0512 145.3151 L 430.1182 142.1543 L 432.0428 140.7152 L 433.849 139.0707 L 436.3108 136.3387 L 437.7179 134.3607 L 438.8108 132.2776 L 440.192 129.1234 L 442.2237 125.9626 L 445.5591 122.0461 L 449.2049 118.3876 L 451.1209 116.7086 L 453.128 115.2186 L 459.1974 112.1383 L 467.4908 106.298 L 468.9065 120.6432 L 469.5447 123.2125 L 471.5777 127.9751 L 472.3996 130.5165 L 472.8702 133.2535 L 473.1758 137.5035 L 473.0822 191.416 L 472.5844 198.605 L 471.51 203.6041 Z" fill="#000000" fill-opacity="1" stroke="#000000" stroke-width="0" paint-order="fill" stroke-opacity="1" stroke-dasharray="" stroke-linecap="butt" stroke-linejoin="miter" stroke-miterlimit="10" transform="matrix(1.100000023841858,0,0,1.100000023841858,-40.000022888183594,-26.650043487548828)" clip-path="none"/>
<path data-code="204" d="M 397.7726 395.118 L 390.9504 398.1507 L 388.7449 398.839 L 384.9339 399.3368 L 381.0873 399.2826 L 378.57 398.9524 L 376.1563 398.2953 L 370.4356 395.5649 L 366.8255 394.7024 L 360.4357 394.3081 L 344.8014 394.3311 L 339.7435 393.8514 L 336.3478 392.8197 L 331.5955 390.5017 L 327.2437 389.2942 L 322.8537 388.1541 L 318.0854 385.8443 L 316.0043 385.1264 L 313.7483 384.7107 L 306.8226 384.0158 L 304.5653 383.523 L 303.47 383.132 L 301.3704 381.9672 L 299.4434 380.4969 L 289.828 371.7702 L 286.1809 370.8979 L 279.058 368.4106 L 271.8612 364.2001 L 270.225 362.9795 L 268.9953 361.3186 L 266.361 356.8386 L 264.8911 353.9029 L 264.5535 352.7512 L 264.2073 350.3856 L 264.2319 347.9986 L 264.3872 346.8174 L 265.0747 344.5273 L 265.6057 343.5366 L 266.9635 341.815 L 268.5961 340.412 L 269.4918 339.8403 L 274.4856 337.468 L 277.3195 335.3866 L 280.0166 332.9569 L 282.604 330.3595 L 285.0338 327.639 L 286.4938 325.7334 L 287.7198 323.711 L 289.5088 319.4594 L 292.6039 313.7062 L 294.7835 308.4558 L 297.403 303.6653 L 299.075 299.32 L 302.9586 291.2653 L 310.3859 296.4073 L 313.2665 297.9581 L 315.5065 298.5693 L 317.8254 298.8551 L 327.3139 299.0769 L 330.8144 299.5878 L 331.9467 299.9525 L 334.1165 301.0893 L 336.0607 302.5547 L 337.8116 304.2091 L 339.3332 305.9981 L 340.5001 307.9564 L 340.8648 309.034 L 341.0138 310.1167 L 340.9584 311.1681 L 340.7034 312.1571 L 340.245 313.0425 L 339.6203 313.7391 L 336.6411 315.722 L 334.5058 317.8051 L 333.3439 319.599 L 332.5554 321.8103 L 332.129 324.176 L 331.9134 326.6156 L 331.8259 330.33 L 331.991 334.0329 L 332.617 337.6405 L 333.0137 338.7971 L 334.1928 340.9886 L 335.6837 342.9551 L 338.2514 345.6066 L 340.1304 347.1673 L 342.1548 348.4651 L 346.3009 350.2476 L 352.0253 353.093 L 359.6509 354.9214 L 360.6871 355.3633 L 362.4687 356.538 L 363.261 357.2542 L 364.636 358.8741 L 365.7141 360.7354 L 367.1138 363.6875 L 369.0051 366.2191 L 371.4349 368.2496 L 376.3436 370.893 L 379.2071 373.1173 L 383.7511 377.4265 L 389.8895 383.8302 L 393.8988 388.6535 L 397.7726 395.118 Z" fill="#000000" fill-opacity="1" stroke="#000000" stroke-width="0" paint-order="fill" stroke-opacity="1" stroke-dasharray="" stroke-linecap="butt" stroke-linejoin="miter" stroke-miterlimit="10" transform="matrix(1.100000023841858,0,0,1.100000023841858,-40.000022888183594,-26.650043487548828)" clip-path="none"/>
<path data-code="205" d="M 322.6836 178.7154 L 322.7637 165.8685 L 322.7428 148.31 L 322.9522 144.2374 L 323.2837 141.5859 L 323.9022 139.0444 L 326.0658 134.0864 L 326.8001 131.8472 L 327.2757 129.3123 L 328.1826 121.5089 L 328.7752 118.997 L 331.2592 112.9761 L 332.8116 106.2668 L 333.5854 104.1065 L 334.1029 103.1553 L 336.1544 100.6615 L 337.8732 99.3341 L 342.7782 96.9191 L 347.4332 94.2923 L 351.5842 92.5361 L 357.1571 89.3244 L 361.2686 87.509 L 364.9958 85.4473 L 366.9647 84.5552 L 369.3341 83.9556 L 371.7971 83.6796 L 383.055 83.6977 L 385.4219 83.5745 L 387.6471 83.1654 L 388.6833 82.7678 L 389.6357 82.1748 L 390.9935 80.619 L 392.8146 77.2595 L 393.5354 75.4803 L 393.82 73.5023 L 393.682 72.492 L 392.9698 70.629 L 388.1991 62.755 L 390.8013 60.3022 L 392.5213 59.0356 L 399.7366 54.9811 L 402.1861 54.071 L 406.119 53.4615 L 411.5317 53.3284 L 416.969 53.5716 L 422.1944 54.2862 L 428.4659 53.5683 L 434.4984 53.3005 L 439.2543 53.4549 L 442.7178 54.0743 L 444.9603 55.0255 L 447.0401 56.435 L 449.8961 58.9699 L 453.4397 62.709 L 456.5594 66.7569 L 457.7373 68.996 L 458.1341 70.1165 L 459.9428 78.071 L 462.1138 83.0241 L 462.8051 85.1927 L 463.2166 87.537 L 463.8942 94.7325 L 464.3045 97.0555 L 464.9859 99.1813 L 467.0066 103.9258 L 467.4908 106.298 L 459.1974 112.1383 L 453.128 115.2186 L 451.1209 116.7086 L 449.2049 118.3876 L 445.5591 122.0461 L 442.2237 125.9626 L 440.192 129.1234 L 438.8108 132.2776 L 437.7179 134.3607 L 436.3108 136.3387 L 433.849 139.0707 L 432.0428 140.7152 L 430.1182 142.1543 L 424.0512 145.3151 L 422.1328 146.7674 L 420.3339 148.4233 L 418.6632 150.2222 L 417.16 152.1377 L 415.9057 154.165 L 413.9984 158.2343 L 412.7835 160.0019 L 411.3025 161.5626 L 409.6022 162.8572 L 405.636 164.8105 L 400.0754 167.9894 L 395.9183 169.7324 L 390.2357 172.7043 L 388.0586 173.3729 L 382.5178 174.6149 L 380.4823 175.3903 L 375.7103 177.7165 L 372.1532 178.5149 L 368.4285 178.7909 L 364.6385 178.855 L 322.6836 178.7154 Z" fill="#000000" fill-opacity="1" stroke="#000000" stroke-width="0" paint-order="fill" stroke-opacity="1" stroke-dasharray="" stroke-linecap="butt" stroke-linejoin="miter" stroke-miterlimit="10" transform="matrix(1.100000023841858,0,0,1.100000023841858,-40.000022888183594,-26.650043487548828)" clip-path="none"/>






</svg>