<?xml version="1.0" standalone="no"?>
<!-- Generator: Paintmaps.com , Online SVG vector map maker -->
<svg xmlns="http://www.w3.org/2000/svg" version="1.1" baseProfile="full"   style="background-color:#e0f2f1" width="800" height="500" viewBox="0 0 800 533">

<path data-code="200" d="M 397.4163 406.9183 L 394.4663 408.8998 L 390.4907 412.0657 L 388.8668 413.2106 L 384.2694 415.4988 L 382.4872 416.6817 L 379.9756 418.8241 L 375.1214 423.4963 L 372.6246 425.6843 L 369.9888 427.4669 L 367.2238 428.7196 L 365.4928 429.7263 L 363.997 431.0336 L 363.3394 431.7959 L 362.2717 433.5451 L 361.8914 434.5806 L 361.4797 436.7459 L 361.3874 438.9719 L 361.5349 441.2221 L 361.925 443.4572 L 363.2818 447.5281 L 358.0593 447.1044 L 354.6941 446.989 L 351.3449 447.0073 L 348.0481 447.2107 L 345.9185 447.5326 L 343.9045 448.1127 L 340.5206 449.8482 L 338.7782 450.5785 L 337.7852 450.7987 L 335.7478 450.8367 L 334.7355 450.6484 L 332.9418 449.9484 L 329.604 448.1157 L 326.8521 446.8326 L 325.1291 445.75 L 323.656 444.3926 L 322.409 442.8225 L 321.4228 441.0293 L 320.1633 438.1656 L 318.4061 435.4492 L 316.2749 432.8815 L 311.7635 427.8678 L 309.7034 425.2698 L 308.5652 423.431 L 306.8091 419.5666 L 305.6681 417.7309 L 303.5954 415.1466 L 297.5547 408.5278 L 295.6073 405.8615 L 294.6524 403.9058 L 292.992 399.0743 L 292.4465 397.2841 L 291.8487 394.595 L 294.0597 392.9293 L 297.492 391.1649 L 299.178 390.1111 L 300.6306 388.7673 L 301.2677 387.9929 L 302.3023 386.2377 L 302.6998 385.1398 L 303.153 382.8501 L 303.3386 380.489 L 303.5448 373.269 L 304.0071 369.7463 L 304.6648 367.6691 L 306.7408 363.1169 L 307.7931 358.9383 L 311.7868 360.0862 L 315.2095 361.7321 L 316.9843 362.3881 L 317.9808 362.5764 L 320.0022 362.5824 L 321.9051 362.1163 L 327.1653 359.8053 L 332.2369 358.5328 L 334.2258 357.8799 L 338.6239 355.6752 L 340.6327 354.9448 L 344.0463 354.3572 L 348.741 354.1492 L 353.4249 354.3967 L 356.8089 355.1422 L 364.8198 359.1189 L 366.5217 360.2319 L 367.9572 361.6304 L 369.1176 363.2946 L 369.5635 364.2223 L 369.9307 365.3292 L 370.3197 367.6159 L 370.556 376.7522 L 370.9841 378.8096 L 371.4066 379.7571 L 372.0358 380.6089 L 372.8933 381.2892 L 373.8556 381.7432 L 375.9545 382.1926 L 378.2036 382.2959 L 385.2488 382.0924 L 388.5747 382.3657 L 390.5659 383.0915 L 391.4268 383.7566 L 392.0788 384.6084 L 392.5269 385.5604 L 393.0274 387.6316 L 393.8314 394.4249 L 394.4361 396.496 L 396.355 401.1408 L 396.9016 403.3501 L 397.4163 406.9183 Z" fill="#000000" fill-opacity="1" stroke="#000000" stroke-width="0" paint-order="fill" stroke-opacity="1" stroke-dasharray="" stroke-linecap="butt" stroke-linejoin="miter" stroke-miterlimit="10" clip-path="none" style="filter: url(#f1)"/>
<path data-code="201" d="M 487.4604 150.5873 L 487.4524 155.2215 L 485.3861 155.639 L 483.3755 156.2418 L 478.1291 158.978 L 469.7361 162.0497 L 466.8811 163.269 L 462.007 165.0106 L 460.095 166.1433 L 459.1982 166.9162 L 457.6966 168.7201 L 457.1193 169.7298 L 455.2943 175.2113 L 454.3696 176.7646 L 453.0002 177.9079 L 448.531 180.4725 L 447.268 176.1253 L 445.9664 172.9321 L 442.6388 167.3064 L 441.3702 165.8943 L 440.4745 165.3219 L 438.4605 164.6386 L 436.2706 164.344 L 423.1157 164.3364 L 419.5274 164.0996 L 417.2122 163.6942 L 414.9904 162.938 L 411.8068 161.4348 L 409.6317 160.674 L 401.7649 159.3849 L 399.6695 158.7578 L 397.8975 157.7435 L 395.2862 155.4325 L 400.7041 152.3456 L 400.9626 152.3456 L 400.9626 152.4549 L 401.7916 152.4549 L 401.7916 152.5658 L 402.6212 152.5658 L 402.6212 152.6766 L 403.202 152.6766 L 403.202 152.7875 L 403.6991 152.7875 L 403.6991 152.8983 L 405.109 152.8983 L 405.109 153.0091 L 406.1863 153.0091 L 406.1863 152.8983 L 406.4357 152.8983 L 406.4357 152.7875 L 406.6019 152.7875 L 406.6019 152.6766 L 406.7676 152.6766 L 406.7676 152.5658 L 407.0165 152.5658 L 407.0165 152.4549 L 407.2653 152.4549 L 407.2653 152.3456 L 407.431 152.3456 L 407.431 152.2348 L 407.5967 152.2348 L 407.5967 152.1239 L 407.7624 152.1239 L 407.7624 152.0131 L 408.0112 152.0131 L 408.0112 151.9022 L 408.1769 151.9022 L 408.1769 151.7929 L 408.3432 151.7929 L 408.3432 151.6821 L 408.592 151.6821 L 408.592 151.5712 L 408.7577 151.5712 L 408.7577 151.4604 L 408.8408 151.4604 L 408.8408 151.3495 L 408.9234 151.3495 L 408.9234 151.2387 L 409.0065 151.2387 L 409.0065 151.1294 L 409.0891 151.1294 L 409.0891 151.0185 L 409.1722 151.0185 L 409.1722 150.9077 L 409.2553 150.9077 L 409.2553 150.686 L 409.3379 150.686 L 409.3379 150.5767 L 409.421 150.5767 L 409.421 150.4658 L 409.5042 150.4658 L 409.5042 150.355 L 409.5867 150.355 L 409.5867 150.2441 L 409.6693 150.2441 L 409.6693 150.1333 L 409.7536 150.1333 L 409.7536 150.024 L 409.8356 150.0224 L 409.8356 149.9131 L 409.9187 149.9131 L 409.9187 149.8023 L 410.0013 149.8023 L 410.0013 149.6914 L 410.0844 149.6914 L 410.0844 149.5806 L 410.1675 149.5806 L 410.1675 149.3604 L 410.2501 149.3604 L 410.2501 149.2496 L 410.3327 149.2496 L 410.3327 149.1387 L 410.4169 149.1387 L 410.4169 149.0279 L 410.4989 149.0279 L 410.4989 148.917 L 410.5821 148.917 L 410.5821 148.6969 L 410.6652 148.6969 L 410.6652 148.4752 L 410.7483 148.4752 L 410.7483 148.1442 L 410.8309 148.1442 L 410.8309 147.8116 L 410.9134 147.8116 L 410.9134 147.5915 L 410.996 147.5915 L 410.996 147.2589 L 411.0803 147.2589 L 411.0803 146.8596 L 411.0803 146.7062 L 411.1623 146.7002 L 411.1623 146.3752 L 411.246 146.3752 L 411.246 146.1535 L 411.3285 146.1535 L 411.3285 145.7831 L 411.3285 145.49 L 411.4117 145.49 L 411.4117 144.7156 L 411.3285 144.7156 L 411.3285 144.6048 L 411.246 144.6048 L 411.246 144.2738 L 411.1623 144.2738 L 411.1623 144.1629 L 411.246 144.1629 L 411.246 143.9427 L 411.0803 143.9427 L 411.0803 143.8319 L 410.996 143.8319 L 410.996 143.6102 L 410.9134 143.6102 L 410.9134 143.3885 L 410.8309 143.3885 L 410.8309 143.2792 L 410.6652 143.2792 L 410.6652 143.0575 L 410.5821 143.0575 L 410.5821 142.9467 L 410.4989 142.9467 L 410.4989 142.8358 L 410.4169 142.8358 L 410.4169 142.5048 L 410.3327 142.5048 L 410.3327 142.1723 L 410.4169 142.1723 L 410.4169 141.8413 L 410.4989 141.8413 L 410.4989 141.6196 L 410.8309 141.6196 L 410.8309 141.5103 L 410.9134 141.5103 L 410.9134 141.3994 L 411.0803 141.3994 L 411.0803 141.2886 L 411.1623 141.2886 L 411.1623 141.1777 L 411.246 141.1777 L 411.246 140.956 L 411.3285 140.956 L 411.3285 140.7359 L 411.4117 140.7359 L 411.4117 140.5142 L 411.5774 140.5142 L 411.5774 140.294 L 411.6599 140.294 L 411.6599 140.0723 L 411.7436 140.0723 L 411.7436 139.8506 L 411.8256 139.8506 L 411.8256 139.7398 L 411.9088 139.7398 L 411.9088 139.6305 L 412.1576 139.6305 L 412.1576 139.2979 L 412.2407 139.2979 L 412.2407 139.0778 L 412.3233 139.0778 L 412.3233 138.9669 L 412.407 138.9669 L 412.407 138.8561 L 412.4895 138.8561 L 412.4895 138.7452 L 412.5721 138.7452 L 412.5721 138.6344 L 412.6552 138.6344 L 412.6552 138.4142 L 412.7378 138.4142 L 412.7378 138.3034 L 412.8209 138.3034 L 412.8209 138.1925 L 412.9041 138.1925 L 412.9041 137.9709 L 412.9866 137.9709 L 412.9866 137.8615 L 413.0692 137.8615 L 413.0692 137.7507 L 413.1529 137.7507 L 413.1529 137.198 L 413.2355 137.198 L 413.2355 137.0871 L 413.3186 137.0871 L 413.3186 136.9763 L 413.4012 136.9763 L 413.4012 136.6453 L 413.4843 136.6453 L 413.4843 136.4236 L 413.5674 136.4236 L 413.5674 136.2019 L 413.65 136.2019 L 413.65 136.0911 L 413.7326 136.0911 L 413.7326 135.7601 L 413.65 135.7601 L 413.65 135.5384 L 413.7326 135.5384 L 413.7326 135.0965 L 413.8168 135.0965 L 413.8168 134.9857 L 413.8988 134.9857 L 413.8988 134.8748 L 414.0645 134.8748 L 414.0645 134.7655 L 414.1818 134.7655 L 414.4802 134.7655 L 414.4802 134.6547 L 414.8116 134.6547 L 414.8116 134.5438 L 414.8941 134.5438 L 414.8941 134.6547 L 414.9773 134.6547 L 414.9773 134.5438 L 415.1435 134.5438 L 415.1435 134.433 L 415.2255 134.433 L 415.2255 134.2128 L 415.3087 134.2128 L 415.3087 133.9911 L 415.3918 133.9911 L 415.3918 133.7694 L 415.4749 133.7694 L 415.4749 133.5493 L 415.5575 133.5493 L 415.5575 133.3276 L 415.7232 133.3276 L 415.7232 133.2167 L 416.1383 133.2167 L 416.1383 133.1059 L 416.2208 133.1059 L 416.2208 132.8857 L 416.304 132.8857 L 416.304 132.664 L 416.3865 132.664 L 416.3865 132.4423 L 416.4697 132.4423 L 416.4697 132.333 L 416.5528 132.333 L 416.5528 132.0005 L 416.6354 132.0005 L 416.6354 131.7803 L 416.3529 131.7803 L 415.89 131.7803 L 415.89 131.3369 L 415.972 131.3369 L 415.972 131.2261 L 416.7675 131.2261 L 416.8016 131.2261 L 416.8016 131.1608 L 416.8016 131.0059 L 416.8819 131.0059 L 417.0499 131.0059 L 417.0499 131.1168 L 417.133 131.1168 L 417.133 131.2261 L 417.0499 131.2261 L 417.0499 131.5586 L 417.3819 131.5586 L 417.3819 131.4478 L 417.465 131.4478 L 417.465 131.3369 L 417.5475 131.3369 L 417.5475 131.2261 L 417.6312 131.2261 L 417.6312 131.1168 L 417.7138 131.1168 L 417.7138 131.0059 L 417.7958 131.0059 L 417.7958 130.8951 L 417.8801 130.8951 L 417.8801 130.7842 L 417.9621 130.7842 L 417.9621 130.6734 L 418.0452 130.6734 L 418.0452 130.5641 L 418.294 130.5641 L 418.294 130.6734 L 418.8748 130.6734 L 418.8748 130.7842 L 419.3719 130.7842 L 419.3719 130.8951 L 419.455 130.8951 L 419.455 131.0059 L 419.6207 131.0059 L 419.6207 131.1168 L 419.7039 131.1168 L 419.7039 131.2261 L 419.7864 131.2261 L 419.7864 131.3369 L 419.9527 131.3369 L 419.9527 131.4478 L 420.0353 131.4478 L 420.0353 131.5586 L 420.2841 131.5586 L 420.2841 131.6695 L 420.5329 131.6695 L 420.5329 131.7803 L 420.7817 131.7803 L 420.7817 131.8896 L 421.1137 131.8896 L 421.1137 132.0005 L 421.3625 132.0005 L 421.3625 132.1113 L 421.6108 132.1113 L 421.6108 132.2222 L 422.0265 132.2222 L 422.0265 132.1113 L 422.1916 132.1113 L 422.1916 132.0005 L 422.2742 132.0005 L 422.2742 131.8896 L 422.3573 131.8896 L 422.3573 131.7803 L 422.4404 131.7803 L 422.4404 131.6695 L 422.6055 131.6695 L 422.6055 131.5586 L 422.6898 131.5586 L 422.6898 131.4478 L 422.7718 131.4478 L 422.7718 131.3369 L 423.5189 131.3369 L 423.5189 131.2261 L 424.2648 131.2261 L 424.2648 131.1168 L 425.0107 131.1168 L 425.0107 131.0059 L 425.0938 131.0059 L 425.0938 131.1168 L 425.8699 131.1168 L 426.7531 131.1168 L 426.7531 130.7842 L 426.8351 130.7842 L 426.8351 130.6734 L 427.2502 130.6734 L 427.2502 130.5641 L 427.8304 130.5641 L 427.8304 130.4532 L 427.9135 130.4532 L 427.9135 130.3424 L 428.0792 130.3424 L 428.0792 130.2315 L 428.328 130.2315 L 428.328 130.1207 L 428.4112 130.1207 L 428.4112 130.0099 L 429.2402 130.0099 L 429.2402 129.9005 L 429.5716 129.9005 L 429.5716 129.7897 L 429.7379 129.7897 L 429.7379 129.6788 L 429.9041 129.6788 L 429.9041 129.568 L 430.0687 129.568 L 430.0687 129.4572 L 430.3181 129.4572 L 430.3181 129.3478 L 430.4838 129.3478 L 430.4838 129.237 L 430.6501 129.237 L 430.6501 129.1261 L 430.732 129.1261 L 430.732 129.0153 L 430.8994 129.0153 L 430.8994 129.1261 L 431.5628 129.1261 L 431.5628 129.237 L 431.9768 129.237 L 431.9768 129.3478 L 433.0546 129.3478 L 433.0546 129.237 L 433.2203 129.237 L 433.2203 129.1261 L 433.3035 129.1261 L 433.3035 128.9045 L 433.4692 128.9045 L 433.4692 128.7936 L 434.547 128.7936 L 434.547 128.9045 L 435.1278 128.9045 L 435.1278 128.7936 L 435.8743 128.7936 L 435.8743 128.6843 L 436.0406 128.6843 L 436.0406 128.5734 L 436.1231 128.5734 L 436.1231 128.4626 L 436.2057 128.4626 L 436.2057 128.1316 L 436.372 128.1316 L 436.372 127.0247 L 436.2894 127.0247 L 436.2894 126.6937 L 436.2057 126.6937 L 436.2057 126.5828 L 436.1231 126.5828 L 436.1231 126.2518 L 435.9574 126.2518 L 435.9574 126.0301 L 435.7918 126.0301 L 435.7918 125.9193 L 435.6261 125.9193 L 435.6261 125.8084 L 435.3767 125.8084 L 435.3767 125.6991 L 435.2941 125.6991 L 435.2941 125.4774 L 435.211 125.4774 L 435.211 125.3666 L 435.3767 125.3666 L 435.3767 125.1464 L 435.4598 125.1449 L 435.4598 124.8139 L 435.5424 124.8139 L 435.5424 124.2612 L 435.4598 124.2612 L 435.4598 123.9286 L 435.3767 123.9286 L 435.3767 123.8193 L 435.2941 123.8193 L 435.2941 123.7085 L 435.0447 123.7085 L 435.0447 123.5976 L 434.9627 123.5976 L 434.9627 123.4868 L 434.7133 123.4868 L 434.7133 123.3759 L 434.547 123.3759 L 434.547 123.2666 L 434.4645 123.2666 L 434.4645 123.1558 L 434.2993 123.1558 L 434.2993 123.0449 L 433.9668 123.0449 L 433.9668 122.9341 L 433.8837 122.9341 L 433.8837 122.8233 L 433.3866 122.8233 L 433.3866 122.7139 L 433.1378 122.7124 L 433.1378 122.6031 L 432.8889 122.6031 L 432.8889 122.4922 L 432.8058 122.4922 L 432.8058 122.3814 L 432.7232 122.3814 L 432.7232 122.2706 L 432.4744 122.2706 L 432.4744 122.1597 L 432.2256 122.1597 L 432.2256 122.0504 L 432.0599 122.0504 L 432.0599 121.9395 L 431.9306 121.9395 L 431.8111 121.9395 L 431.8111 121.8287 L 431.6448 121.8287 L 431.6448 121.7179 L 431.5628 121.7179 L 431.5628 121.607 L 431.396 121.607 L 431.396 121.4977 L 431.3134 121.4962 L 431.3134 121.3868 L 431.1477 121.3868 L 431.1477 121.276 L 431.0646 121.276 L 431.0646 121.1652 L 430.8994 121.1652 L 430.8994 121.0543 L 430.8152 121.0543 L 430.8152 120.9435 L 430.6501 120.9435 L 430.6501 120.8341 L 430.5675 120.8341 L 430.5675 120.7233 L 430.2361 120.7233 L 430.2361 120.6125 L 429.9867 120.6125 L 429.9867 120.5016 L 429.8204 120.5016 L 429.8204 120.3908 L 429.7379 120.3908 L 429.7379 120.1706 L 429.6547 120.1706 L 429.6547 120.0598 L 429.5716 120.0598 L 429.5716 119.8381 L 429.489 119.8381 L 429.489 119.5071 L 429.4059 119.5071 L 429.4059 119.2854 L 429.1571 119.2854 L 429.1571 119.1745 L 428.9914 119.1745 L 428.9914 118.9544 L 428.9083 118.9544 L 428.9083 118.8435 L 428.8257 118.8435 L 428.8257 118.7327 L 428.7426 118.7327 L 428.7426 118.6218 L 428.4937 118.6218 L 428.4937 118.511 L 428.4112 118.511 L 428.4112 118.4017 L 428.1629 118.4017 L 428.1629 118.18 L 427.9961 118.18 L 427.9961 117.9583 L 427.9135 117.9583 L 427.9135 117.849 L 427.6647 117.849 L 427.6647 117.7381 L 427.4158 117.7381 L 427.4158 117.6273 L 427.3327 117.6273 L 427.3327 117.5164 L 427.2502 117.5164 L 427.2502 117.4056 L 427.167 117.4056 L 427.167 117.2947 L 427.0845 117.2947 L 427.0845 117.1854 L 427.0013 117.1854 L 427.0013 116.9637 L 426.9182 116.9637 L 426.9182 116.8529 L 426.8351 116.8529 L 426.8351 116.742 L 426.7531 116.742 L 426.7531 116.6327 L 426.6688 116.6327 L 426.6688 116.5219 L 426.5868 116.5219 L 426.5868 116.411 L 426.5037 116.411 L 426.5037 116.3002 L 426.1717 116.3002 L 426.1717 116.1893 L 425.9229 116.1893 L 425.9229 116.0785 L 425.3421 116.0785 L 425.3421 115.9692 L 425.0938 115.9692 L 425.0938 115.8583 L 424.9281 115.8583 L 424.9281 115.7475 L 424.845 115.7475 L 424.845 115.6366 L 424.6787 115.6366 L 424.6787 115.5258 L 424.5962 115.5258 L 424.5962 115.4165 L 424.4305 115.4165 L 424.4305 115.3056 L 424.3479 115.3056 L 424.3479 115.1948 L 424.2648 115.1948 L 424.2648 115.0839 L 424.0991 115.0839 L 424.0985 114.9731 L 424.0165 114.9731 L 424.0165 114.8623 L 423.9328 114.8623 L 423.9328 114.7529 L 423.7671 114.7529 L 423.7671 114.6421 L 423.6846 114.6421 L 423.6846 114.5312 L 423.6014 114.5312 L 423.6014 114.4204 L 423.4352 114.4204 L 423.4352 114.3096 L 423.3532 114.3096 L 423.3532 114.2002 L 423.1869 114.2002 L 423.1863 114.0894 L 423.1038 114.0894 L 423.1038 113.9785 L 422.9381 113.9785 L 422.9381 113.8677 L 422.8549 113.8677 L 422.8549 113.7569 L 422.6898 113.7569 L 422.6898 113.646 L 422.6055 113.646 L 422.6055 113.5367 L 422.4404 113.5367 L 422.4404 113.4258 L 422.3573 113.4258 L 422.3573 113.315 L 422.1916 113.315 L 422.1916 113.2042 L 422.1085 113.2042 L 422.1085 113.0933 L 421.9422 113.0933 L 421.9422 113.0189 L 421.9422 112.984 L 421.8596 112.984 L 421.8596 112.8731 L 421.6939 112.8731 L 421.6939 112.7623 L 421.6108 112.7623 L 421.6108 112.6515 L 421.4451 112.6515 L 421.4451 112.5406 L 421.3625 112.5406 L 421.3625 112.4298 L 421.1963 112.4298 L 421.1963 112.3204 L 421.1137 112.3204 L 421.1137 112.2096 L 420.7817 112.2096 L 420.7817 112.0988 L 420.6986 112.0988 L 420.6986 111.9879 L 420.6161 111.9879 L 420.6161 111.8771 L 420.5329 111.8771 L 420.5329 111.7677 L 420.3672 111.7677 L 420.3672 111.6569 L 420.1184 111.6569 L 420.1184 111.5461 L 420.0353 111.5461 L 420.0353 111.4352 L 419.8696 111.4352 L 419.8696 111.3244 L 419.7864 111.3244 L 419.7864 111.2135 L 419.6207 111.2135 L 419.6207 111.1042 L 419.5382 111.1042 L 419.5382 110.9934 L 419.3719 110.9934 L 419.3719 110.7717 L 419.2899 110.7717 L 419.2899 110.6608 L 419.2062 110.6608 L 419.2062 110.5515 L 419.1231 110.5515 L 419.1231 110.4407 L 419.0405 110.4407 L 419.0405 110.3298 L 418.9574 110.3298 L 418.9574 110.1081 L 418.7917 110.1081 L 418.7917 109.9973 L 418.7086 109.9973 L 418.7086 109.888 L 418.5423 109.888 L 418.5423 109.7771 L 418.4592 109.7771 L 418.4592 109.5554 L 418.3772 109.5554 L 418.3772 109.4446 L 418.294 109.4446 L 418.294 109.3353 L 418.2109 109.3353 L 418.2109 109.2244 L 418.1283 109.2244 L 418.1283 109.1136 L 418.0452 109.1136 L 418.0452 109.0027 L 417.9621 109.0027 L 417.9621 108.8919 L 417.8801 108.8919 L 417.8801 108.781 L 417.7958 108.781 L 417.7958 108.6717 L 417.7138 108.6717 L 417.7138 108.5609 L 417.133 108.5609 L 417.133 108.45 L 416.5528 108.45 L 416.5528 108.3392 L 415.8063 108.3392 L 415.8063 108.119 L 415.6406 108.119 L 415.6406 108.0082 L 415.3918 108.0082 L 415.3918 107.7865 L 415.3087 107.7865 L 415.3087 107.6756 L 415.1435 107.6756 L 415.1435 107.5648 L 415.0593 107.5648 L 415.0593 107.4555 L 414.8941 107.4555 L 414.8941 107.3446 L 414.6453 107.3446 L 414.6453 107.4555 L 414.2308 107.4555 L 414.2308 107.5648 L 413.7326 107.5648 L 413.7326 107.4555 L 412.6552 107.4555 L 412.6552 107.5648 L 412.1576 107.5648 L 412.1576 107.6756 L 411.4942 107.6756 L 411.4942 107.7819 L 411.2454 107.7865 L 411.2454 107.6756 L 410.996 107.6756 L 410.996 107.5648 L 410.8309 107.5648 L 410.8309 107.4555 L 410.5821 107.4555 L 410.5821 107.3446 L 410.2501 107.3446 L 410.2501 107.1229 L 409.1722 107.1229 L 409.1722 107.2338 L 409.0891 107.2338 L 409.0891 107.3446 L 408.9234 107.3446 L 408.9234 107.4555 L 408.6746 107.4555 L 408.6746 107.5648 L 408.3432 107.5648 L 408.3432 107.6756 L 408.26 107.6756 L 408.26 107.5648 L 407.7624 107.5648 L 407.7624 107.4555 L 407.3479 107.4555 L 407.3479 107.3446 L 407.1822 107.3446 L 407.1822 107.2338 L 407.099 107.2338 L 407.099 107.1229 L 406.9328 107.1229 L 406.9328 107.0121 L 406.6845 107.0121 L 406.6845 106.9028 L 406.0211 106.9028 L 406.0211 107.0121 L 405.938 107.0121 L 405.938 107.1229 L 405.7723 107.1229 L 405.7723 107.2338 L 405.6066 107.2338 L 405.6066 107.1229 L 405.4409 107.1229 L 405.4404 107.0121 L 405.1921 107.0121 L 405.1921 106.9028 L 404.9433 106.9028 L 404.9433 106.7919 L 404.3625 106.7919 L 404.3625 106.9028 L 404.2799 106.9028 L 404.2799 106.7919 L 403.3677 106.7919 L 403.3677 106.6811 L 403.202 106.6811 L 403.202 106.7919 L 403.1189 106.7919 L 403.1189 106.6811 L 402.2073 106.6811 L 402.2073 106.7919 L 401.7091 106.7919 L 401.7091 106.9028 L 401.2114 106.9028 L 401.2114 106.7919 L 400.88 106.7919 L 400.88 106.6811 L 400.5481 106.6811 L 400.5481 106.5702 L 400.4649 106.5702 L 400.4649 106.6811 L 400.1341 106.6811 L 400.1341 106.7919 L 399.9678 106.7919 L 399.9678 106.9665 L 397.8166 104.0983 L 393.4009 99.5203 L 394.1611 96.3924 L 395.0226 94.3866 L 396.2212 92.5144 L 400.2867 87.1574 L 401.3674 85.1865 L 402.3069 82.0222 L 403.7458 74.8827 L 407.2869 75.7876 L 411.1964 76.2295 L 417.8641 76.4238 L 430.137 76.3874 L 435.7479 76.3935 L 445.6623 76.3191 L 451.7492 76.026 L 451.53 117.1247 L 451.6638 122.1886 L 451.9303 124.662 L 452.4872 127.0505 L 456.3062 135.3486 L 457.9625 137.9268 L 460.132 139.9979 L 461.8618 141.0684 L 468.0951 144.1584 L 469.9257 144.9373 L 472.176 145.4915 L 479.1352 146.2841 L 481.398 146.7852 L 482.4884 147.1815 L 484.2507 148.1381 L 487.4604 150.5873 Z" fill="#000000" fill-opacity="1" stroke="#000000" stroke-width="0" paint-order="fill" stroke-opacity="1" stroke-dasharray="" stroke-linecap="butt" stroke-linejoin="miter" stroke-miterlimit="10" clip-path="none" style="filter: url(#f1)"/>
<path data-code="202" d="M 469.7361 162.0497 L 472.0661 166.5989 L 472.82 168.3253 L 473.2527 170.0821 L 473.2869 171.8024 L 473.1644 172.6573 L 472.5557 174.4308 L 472.0672 175.3054 L 470.8999 176.9362 L 467.6817 180.8658 L 466.5713 182.5664 L 466.1232 183.4759 L 465.5299 185.2919 L 464.3558 190.9267 L 463.6013 192.7822 L 462.5081 194.5481 L 460.5357 197.0095 L 457.6198 200.1101 L 455.3182 202.3102 L 452.9 204.2917 L 451.1787 205.3713 L 446.4851 207.4774 L 442.2089 209.9706 L 438.4087 211.6651 L 436.7159 212.7584 L 433.5563 215.4095 L 431.0714 214.9434 L 429.4589 214.462 L 427.6681 213.6163 L 424.2352 211.697 L 421.1957 210.3821 L 419.5928 209.4908 L 417.9837 208.2867 L 415.7129 206.2065 L 412.875 203.2152 L 409.5958 199.4784 L 413.1899 198.499 L 416.5317 197.0383 L 418.1773 196.1227 L 419.4995 194.8245 L 421.4992 191.5083 L 424.2352 188.0752 L 426.6722 185.7399 L 428.5 184.4477 L 429.4982 183.9406 L 430.5174 183.5716 L 432.6213 183.1252 L 441.225 182.3432 L 448.531 180.4725 L 453.0002 177.9079 L 454.3696 176.7646 L 455.2943 175.2113 L 457.1193 169.7298 L 457.6966 168.7201 L 459.1982 166.9162 L 460.095 166.1433 L 462.007 165.0106 L 466.8811 163.269 L 469.7361 162.0497 Z" fill="#000000" fill-opacity="1" stroke="#000000" stroke-width="0" paint-order="fill" stroke-opacity="1" stroke-dasharray="" stroke-linecap="butt" stroke-linejoin="miter" stroke-miterlimit="10" clip-path="none" style="filter: url(#f1)"/>
<path data-code="203" d="M 363.2818 447.5281 L 361.925 443.4572 L 361.5349 441.2221 L 361.3874 438.9719 L 361.4797 436.7459 L 361.8914 434.5806 L 362.2717 433.5451 L 363.3394 431.7959 L 363.997 431.0336 L 365.4928 429.7263 L 367.2238 428.7196 L 369.9888 427.4669 L 372.6246 425.6843 L 375.1214 423.4963 L 379.9756 418.8241 L 382.4872 416.6817 L 384.2694 415.4988 L 388.8668 413.2106 L 390.4907 412.0657 L 394.4663 408.8998 L 397.4163 406.9183 L 401.5639 404.8184 L 405.831 402.1065 L 410.5001 399.9458 L 412.1844 398.8571 L 413.773 397.5619 L 416.0563 395.4149 L 424.9651 386.2589 L 428.8223 382.5009 L 431.2286 384.4383 L 433.6041 386.0205 L 437.3992 387.7545 L 440.8338 389.6935 L 442.6217 390.553 L 444.6385 391.1558 L 449.7876 392.2354 L 451.6855 392.9444 L 456.0841 395.1249 L 458.0918 395.7186 L 462.2183 396.5674 L 464.226 397.1793 L 469.4616 399.9382 L 476.8428 402.8338 L 479.5013 403.713 L 476.6441 407.0884 L 474.8732 409.5679 L 470.0379 419.758 L 469.4702 422.0766 L 468.6906 429.2875 L 468.2699 431.6319 L 467.5923 433.7 L 465.5669 438.2688 L 464.8421 441.7429 L 464.5665 446.6246 L 464.6092 459.2243 L 464.4651 461.7343 L 464.0933 464.1804 L 463.7665 465.3617 L 462.9704 467.2324 L 460.5949 471.3458 L 459.5068 472.8748 L 458.8036 473.5368 L 457.9216 474.085 L 456.9644 474.4676 L 454.9071 474.8988 L 447.0369 475.2982 L 443.6626 475.7901 L 441.6685 476.4537 L 437.2141 478.5187 L 433.7373 479.3204 L 430.0949 479.6317 L 425.1576 479.7 L 421.469 479.5588 L 417.8658 479.1261 L 415.5768 478.5172 L 411.1446 476.4309 L 409.1426 475.734 L 406.8735 475.2982 L 399.8853 474.4752 L 396.7057 473.4989 L 389.5933 469.8441 L 387.8908 468.7797 L 385.7567 466.8255 L 382.4223 462.5572 L 380.964 461.631 L 379.3526 460.9568 L 376.755 457.7105 L 374.5059 454.373 L 373.3995 453.1173 L 371.7209 452.1228 L 368.0819 450.741 L 366.655 449.8269 L 364.9308 448.3799 L 363.2818 447.5281 Z" fill="#000000" fill-opacity="1" stroke="#000000" stroke-width="0" paint-order="fill" stroke-opacity="1" stroke-dasharray="" stroke-linecap="butt" stroke-linejoin="miter" stroke-miterlimit="10" clip-path="none" style="filter: url(#f1)"/>
<path data-code="204" d="M 511.7556 334.6696 L 507.4253 333.2043 L 501.8817 331.0102 L 500.0385 330.0506 L 498.3878 328.8328 L 496.8493 327.4389 L 494.7283 325.137 L 493.4699 323.4865 L 492.4108 321.7313 L 491.1524 318.8038 L 490.2175 316.9559 L 489.0741 315.2568 L 485.2153 310.3599 L 484.0571 308.6593 L 483.1022 306.7977 L 481.8712 303.8596 L 478.9376 298.5665 L 477.3575 294.6232 L 475.5428 291.0853 L 474.7832 289.2237 L 474.523 288.1775 L 474.2884 286.029 L 474.49 282.5837 L 476.5928 280.3168 L 477.7458 278.7027 L 480.8576 272.9297 L 481.8535 270.7037 L 482.4337 268.3669 L 482.7156 265.9375 L 482.8004 257.1641 L 484.4904 256.6752 L 486.0318 255.9266 L 488.3145 253.646 L 490.177 252.0653 L 491.3153 250.7048 L 494.4766 244.7557 L 495.2948 242.9139 L 495.8733 240.8367 L 496.7155 236.5821 L 497.3674 234.5095 L 497.848 233.4967 L 499.0403 231.5957 L 503.78 225.3019 L 504.7964 223.3675 L 506.4722 219.5381 L 508.9821 214.9312 L 514.347 215.2956 L 525.0159 215.4991 L 529.6212 215.944 L 531.8106 216.5119 L 536.2382 218.6103 L 538.1178 219.3194 L 543.2219 220.4977 L 545.2291 221.1248 L 555.1492 226.2783 L 556.9234 227.6099 L 562.0464 231.9738 L 563.8679 233.2098 L 567.6066 235.0349 L 571.9221 237.3945 L 573.9582 238.1264 L 577.4362 238.673 L 581.0222 238.8324 L 603.5182 238.6396 L 603.5313 243.2662 L 603.1065 246.555 L 602.4784 248.5593 L 600.4314 253.1115 L 599.3598 257.2795 L 599.0916 261.8226 L 598.7921 264.0258 L 598.2478 266.1106 L 596.5954 269.6211 L 595.9024 271.425 L 595.6991 272.4499 L 595.6826 274.5453 L 595.874 275.5824 L 596.5646 277.4166 L 598.3526 280.8771 L 599.9492 284.7915 L 602.877 290.0892 L 604.5351 294.0204 L 606.3105 296.7899 L 609.2122 300.2064 L 613.1684 304.2104 L 615.7068 306.3331 L 617.5431 307.4658 L 618.5139 307.8956 L 624.0309 309.8163 L 625.9332 310.3189 L 626.2402 320.2873 L 626.0972 322.8291 L 625.7186 325.3025 L 624.9442 327.6424 L 623.8623 329.7469 L 621.7373 333.2635 L 620.4425 334.6787 L 619.5229 335.2618 L 617.4714 335.9542 L 612.919 336.3611 L 600.6319 336.021 L 592.4143 335.0613 L 586.2106 337.0717 L 580.9249 339.6803 L 577.5557 340.4456 L 574.0271 340.7189 L 566.8083 340.8131 L 558.3623 340.766 L 553.6386 340.4623 L 551.3604 340.0311 L 549.3413 339.2916 L 545.0304 336.9168 L 541.2535 335.1828 L 536.171 332.0746 L 532.4261 330.3345 L 529.0843 328.4775 L 527.3003 327.7639 L 525.2636 327.4891 L 523.2245 327.7533 L 521.4355 328.4639 L 514.5491 332.2204 L 513.1177 333.3243 L 511.7556 334.6696 Z" fill="#000000" fill-opacity="1" stroke="#000000" stroke-width="0" paint-order="fill" stroke-opacity="1" stroke-dasharray="" stroke-linecap="butt" stroke-linejoin="miter" stroke-miterlimit="10" clip-path="none" style="filter: url(#f1)"/>
<path data-code="205" d="M 630.7077 134.2325 L 624.1949 138.9472 L 621.5363 140.3882 L 618.1484 141.2278 L 612.3348 141.8534 L 610.0612 142.2664 L 608.0461 142.9391 L 604.5089 144.6078 L 602.4927 145.2956 L 600.2162 145.7314 L 594.3998 146.4162 L 592.1318 146.8672 L 590.1304 147.5702 L 585.7016 149.6489 L 583.432 150.2335 L 581.0644 150.5402 L 577.4242 150.7209 L 561.3289 150.6222 L 555.2238 150.9016 L 551.7447 151.5059 L 549.7775 152.2135 L 546.3963 153.7744 L 544.5139 154.2026 L 543.5106 154.2284 L 542.509 154.1176 L 540.6425 153.4905 L 539.0175 152.4807 L 536.7735 150.6359 L 536.8908 119.3507 L 536.7672 115.4969 L 536.368 111.7404 L 535.7947 109.3535 L 533.9196 104.9456 L 533.1817 102.6239 L 532.6612 98.8795 L 532.1573 89.8997 L 531.3471 86.1978 L 529.6611 82.9089 L 525.4088 76.4831 L 555.3644 76.5711 L 558.9072 76.3965 L 562.3368 75.8544 L 564.3507 75.156 L 568.7568 73.0408 L 576.8485 70.8832 L 582.0819 68.1166 L 585.8855 66.4388 L 591.0619 63.5204 L 597.5953 60.9862 L 601.4655 59.7973 L 603.3963 58.8407 L 608.2322 57.0095 L 612.5785 54.7152 L 614.5896 53.9742 L 616.8496 53.5278 L 619.1716 53.3031 L 625.0512 53.3 L 628.5126 53.7222 L 630.7179 54.3447 L 635.9428 57.1462 L 639.7287 58.8422 L 644.0414 61.2246 L 645.9329 61.9701 L 648.9957 62.702 L 653.0351 63.7922 L 657.4479 65.9256 L 659.3782 66.6119 L 662.5452 67.1919 L 666.4109 67.5852 L 667.146 72.9938 L 667.5901 75.1544 L 668.2666 77.1481 L 670.3312 81.7155 L 671.3726 85.8941 L 668.2779 86.5212 L 666.3653 87.2349 L 662.0402 89.5884 L 658.2405 91.286 L 656.4629 92.4445 L 653.9723 94.5536 L 651.5802 96.8722 L 646.1237 102.5055 L 643.173 105.8217 L 641.8486 107.5557 L 640.7297 109.3884 L 639.0597 113.3029 L 636.162 118.599 L 634.5847 122.5484 L 632.2752 127.0156 L 631.8892 127.9615 L 631.3232 130.0721 L 630.7077 134.2325 Z" fill="#000000" fill-opacity="1" stroke="#000000" stroke-width="0" paint-order="fill" stroke-opacity="1" stroke-dasharray="" stroke-linecap="butt" stroke-linejoin="miter" stroke-miterlimit="10" clip-path="none" style="filter: url(#f1)"/>
<path data-code="206" d="M 252.6921 71.7426 L 252.6921 71.8519 L 252.8583 71.8519 L 252.8583 71.9628 L 252.9414 71.9628 L 252.9414 72.0736 L 254.3513 72.0736 L 254.3513 72.1844 L 254.9315 72.1844 L 254.9315 72.0736 L 255.0146 72.0736 L 255.0146 72.1844 L 255.5949 72.1844 L 255.5949 72.2953 L 256.0925 72.2953 L 256.0925 72.4046 L 257.0036 72.4046 L 257.2535 72.4046 L 257.2535 72.5155 L 257.4187 72.5155 L 257.4187 72.6263 L 257.5029 72.6263 L 257.5029 72.7371 L 257.4187 72.7371 L 257.4187 72.848 L 257.3361 72.848 L 257.3361 72.9588 L 257.2535 72.9588 L 257.2535 73.0682 L 257.1704 73.0682 L 257.1704 73.4007 L 257.0867 73.4007 L 257.0867 73.5115 L 256.9216 73.5115 L 256.9216 73.6209 L 256.839 73.6209 L 256.839 73.8425 L 256.7553 73.8425 L 256.7553 73.9534 L 256.6727 73.9534 L 256.6727 74.0642 L 256.5902 74.0642 L 256.5902 74.1736 L 256.507 74.1751 L 256.507 74.2844 L 256.4233 74.2844 L 256.4233 74.5061 L 256.3413 74.5061 L 256.3413 74.6169 L 256.2582 74.6169 L 256.2582 74.7278 L 256.1757 74.7278 L 256.1751 74.8371 L 256.0925 74.8371 L 256.0925 75.1696 L 256.1751 75.1696 L 256.1757 75.5006 L 256.2582 75.5006 L 256.2582 75.7223 L 256.1757 75.7223 L 256.1751 75.944 L 256.0925 75.944 L 256.0925 76.0533 L 256.0094 76.0533 L 256.0094 76.1642 L 255.8437 76.1642 L 255.8437 76.275 L 255.2635 76.275 L 255.2629 76.3859 L 255.1803 76.3859 L 255.1803 76.4967 L 255.0146 76.4967 L 255.0146 76.606 L 254.9315 76.606 L 254.9315 76.7169 L 254.8484 76.7169 L 254.8484 76.606 L 254.185 76.606 L 254.185 76.8277 L 254.0979 76.8277 L 253.9362 76.8277 L 253.9362 76.9386 L 253.8536 76.9386 L 253.8536 76.8277 L 253.6048 76.8277 L 253.6048 76.7169 L 252.7752 76.7169 L 252.7752 76.8277 L 252.6921 76.8277 L 252.6921 76.9386 L 252.6095 76.9386 L 252.6095 77.1603 L 252.5269 77.1603 L 252.5269 77.2696 L 252.4438 77.2696 L 252.4438 77.3804 L 252.3607 77.3804 L 252.3607 78.4858 L 252.2781 78.4858 L 252.2781 78.7075 L 252.195 78.7075 L 252.195 78.8184 L 252.1118 78.8184 L 252.1118 78.9292 L 252.0293 78.9292 L 252.0293 79.0385 L 251.863 79.0385 L 251.863 79.9238 L 251.9461 79.9238 L 251.9461 80.3656 L 252.195 80.3656 L 252.195 80.4765 L 252.2781 80.4765 L 252.2781 80.5873 L 252.3607 80.5873 L 252.3607 80.6981 L 252.2781 80.6981 L 252.2781 81.14 L 252.3607 81.14 L 252.3607 81.2508 L 252.4438 81.2508 L 252.4438 81.3617 L 252.5269 81.3617 L 252.5269 81.471 L 252.6095 81.471 L 252.6095 81.8035 L 252.7752 81.8035 L 252.7752 82.2454 L 252.6921 82.2454 L 252.6921 82.3562 L 252.7752 82.3562 L 252.7752 82.7981 L 252.8583 82.7981 L 252.8583 83.6833 L 252.9414 83.6833 L 252.9414 83.9035 L 253.024 83.9035 L 253.024 84.1252 L 253.2728 84.1252 L 253.2728 84.4577 L 253.3554 84.4577 L 253.3554 84.567 L 253.4397 84.567 L 253.4397 84.6779 L 253.6048 84.6779 L 253.6048 84.7887 L 253.6868 84.7887 L 253.6868 85.0104 L 253.6048 85.0104 L 253.6048 85.1197 L 253.6868 85.1197 L 253.6868 85.4523 L 253.7711 85.4523 L 253.7711 85.5631 L 253.8536 85.5631 L 253.8536 85.7833 L 253.9362 85.7833 L 253.9362 86.2267 L 254.0188 86.2267 L 254.0188 86.1158 L 254.103 86.1158 L 254.103 86.2267 L 254.185 86.2267 L 254.185 86.5577 L 254.2682 86.5577 L 254.2682 86.6685 L 254.3513 86.6685 L 254.3513 86.9995 L 254.4344 86.9995 L 254.4344 87.2212 L 254.517 87.2212 L 254.517 87.3321 L 254.5995 87.3321 L 254.5995 88.1064 L 254.517 88.1064 L 254.517 88.2158 L 254.4344 88.2158 L 254.4344 88.3266 L 254.3513 88.3266 L 254.3513 88.4299 L 254.2682 88.4375 L 254.2682 89.2118 L 254.185 89.2118 L 254.185 89.3227 L 254.103 89.3227 L 254.103 89.5429 L 254.0188 89.5429 L 254.0188 90.2064 L 254.103 90.2064 L 254.103 90.3172 L 254.0188 90.3172 L 254.0188 90.5389 L 253.9362 90.5389 L 253.9362 90.9808 L 253.8536 90.9808 L 253.8536 91.6443 L 253.7711 91.6443 L 253.7711 91.8645 L 253.6868 91.8645 L 253.6868 91.9753 L 253.6048 91.9753 L 253.6048 92.197 L 253.5217 92.197 L 253.5217 92.3079 L 253.4397 92.3079 L 253.4397 92.4172 L 253.2728 92.4172 L 253.2728 92.528 L 252.8583 92.528 L 252.8583 92.4172 L 252.6921 92.4172 L 252.6921 92.528 L 252.0293 92.528 L 252.0293 92.6389 L 251.863 92.6389 L 251.863 92.7497 L 251.5316 92.7497 L 251.5316 92.8606 L 251.2828 92.8606 L 251.2828 92.9714 L 251.1996 92.9714 L 251.1996 93.0807 L 251.1171 93.0807 L 251.1171 93.1916 L 250.7031 93.1916 L 250.7031 93.3024 L 250.8683 93.3024 L 250.8683 93.4133 L 250.6194 93.4133 L 250.6194 93.3024 L 250.288 93.3024 L 250.288 93.4133 L 250.0386 93.4133 L 250.0386 93.5241 L 249.7904 93.5241 L 249.7904 93.6334 L 249.5415 93.6334 L 249.5415 93.7443 L 249.2096 93.7443 L 249.2096 93.8551 L 248.7119 93.8551 L 248.7119 93.966 L 248.3805 93.966 L 248.3805 93.8551 L 248.2974 93.8551 L 248.2974 93.7443 L 248.2143 93.7443 L 248.2143 93.6334 L 248.1317 93.6334 L 248.1317 93.5241 L 247.8829 93.5241 L 247.8829 93.4133 L 247.7997 93.4133 L 247.7997 93.1916 L 247.6341 93.1916 L 247.6341 93.0807 L 247.4684 93.0807 L 247.4684 92.9714 L 247.3021 92.9714 L 247.3021 92.8606 L 247.2195 92.8606 L 247.2195 92.6389 L 247.1364 92.6389 L 247.1364 92.4172 L 247.0538 92.4172 L 247.0538 92.197 L 246.9707 92.197 L 246.9707 91.9753 L 246.805 91.9753 L 246.805 91.8645 L 246.7219 91.8645 L 246.7219 91.7552 L 246.6387 91.7552 L 246.6387 91.6443 L 246.5562 91.6443 L 246.5562 91.5335 L 246.473 91.5335 L 246.473 91.3118 L 246.3899 91.3118 L 246.3899 91.0916 L 246.3073 91.0916 L 246.3073 90.9808 L 246.2248 90.9808 L 246.2248 90.8699 L 246.1417 90.8699 L 246.1417 90.7591 L 246.0585 90.7591 L 246.0585 90.6482 L 245.9754 90.6482 L 245.9754 90.4281 L 245.8934 90.4281 L 245.8934 90.0956 L 245.8091 90.0956 L 245.8091 89.8754 L 245.7266 89.8754 L 245.7266 89.7645 L 245.8091 89.7645 L 245.8091 89.6537 L 245.8934 89.6537 L 245.8934 89.7645 L 245.9754 89.7645 L 245.9754 89.6537 L 246.0585 89.6537 L 246.0585 89.432 L 246.1417 89.432 L 246.1417 89.3227 L 246.2248 89.3227 L 246.2248 89.2118 L 246.3073 89.2118 L 246.3073 88.9902 L 246.3899 88.9902 L 246.3899 88.8793 L 246.473 88.8793 L 246.473 88.7685 L 246.5562 88.7685 L 246.5562 88.5483 L 246.6387 88.5483 L 246.6387 88.4375 L 246.7219 88.4375 L 246.7219 88.1064 L 246.805 88.1064 L 246.805 87.9956 L 246.8881 87.9956 L 246.8881 87.8848 L 246.9707 87.8848 L 246.9707 87.6631 L 247.0538 87.6631 L 247.0538 87.5522 L 247.1364 87.5522 L 247.1364 87.4429 L 247.2195 87.4429 L 247.2195 87.1104 L 247.3021 87.1104 L 247.3021 86.9995 L 247.3852 86.9995 L 247.3852 86.5577 L 247.4684 86.5577 L 247.4684 86.4468 L 247.5509 86.4468 L 247.5509 86.2267 L 247.7172 86.2267 L 247.7172 86.1158 L 247.7997 86.1158 L 247.7997 85.7833 L 247.8829 85.7833 L 247.8829 85.5631 L 247.966 85.5631 L 247.966 85.3414 L 248.0486 85.3414 L 248.0486 85.2306 L 248.1317 85.2306 L 248.1317 85.0104 L 248.2143 85.0104 L 248.2143 84.8996 L 248.1317 84.8996 L 248.1317 84.6779 L 248.2143 84.6779 L 248.2143 84.567 L 248.2974 84.567 L 248.2974 84.4577 L 248.3805 84.4577 L 248.3805 84.236 L 248.2974 84.236 L 248.2974 83.0198 L 248.3805 83.0198 L 248.3805 82.7981 L 248.4631 82.7981 L 248.4631 82.5779 L 248.5462 82.5779 L 248.5462 82.4671 L 248.6294 82.4671 L 248.6294 82.2454 L 248.7119 82.2454 L 248.7119 82.0252 L 248.7951 82.0252 L 248.7951 81.8035 L 248.8782 81.8035 L 248.8782 81.2508 L 248.9608 81.2508 L 248.9608 81.0292 L 248.8782 81.0292 L 248.8782 80.9183 L 248.9608 80.9183 L 248.9608 79.5927 L 249.0439 79.5927 L 249.0439 78.9292 L 249.1265 78.9292 L 249.1265 78.7075 L 249.0439 78.7075 L 249.0439 78.4858 L 248.9608 78.4858 L 248.9608 78.2657 L 248.8782 78.2657 L 248.8782 78.1548 L 248.7951 78.1548 L 248.7951 78.044 L 248.7119 78.044 L 248.7119 77.8223 L 248.6294 77.8223 L 248.6294 77.4913 L 248.7119 77.4913 L 248.7119 76.8277 L 248.7951 76.8277 L 248.7951 76.7169 L 248.8782 76.7169 L 248.8782 76.8277 L 248.9608 76.8277 L 248.9608 76.4967 L 248.8782 76.4967 L 248.8782 76.1642 L 248.7951 76.1642 L 248.7951 75.944 L 248.7119 75.944 L 248.7119 75.1696 L 248.6294 75.1696 L 248.6294 74.9479 L 248.5462 74.9479 L 248.5462 74.7278 L 248.4631 74.7278 L 248.4631 74.6169 L 248.3805 74.6169 L 248.3805 74.5061 L 248.2143 74.5061 L 248.2143 74.3952 L 248.1317 74.3952 L 248.1317 74.2844 L 247.966 74.2844 L 247.966 74.1751 L 247.8829 74.1736 L 247.8829 74.0642 L 247.7997 74.0642 L 247.7997 73.9534 L 247.7172 73.9534 L 247.7172 73.8425 L 247.6341 73.8425 L 247.6341 73.7317 L 247.3852 73.7317 L 247.3852 73.6209 L 247.3021 73.6209 L 247.3021 73.5115 L 247.2195 73.5115 L 247.2195 73.4007 L 246.9707 73.4007 L 246.9707 73.2898 L 246.8881 73.2898 L 246.8881 73.179 L 246.7219 73.179 L 246.7219 73.0682 L 246.6387 73.0682 L 246.6387 72.9588 L 246.5562 72.9588 L 246.5562 72.848 L 246.473 72.848 L 246.473 72.6263 L 246.3899 72.6263 L 246.3899 72.5155 L 246.473 72.5155 L 246.473 72.4046 L 246.5562 72.4046 L 246.5562 72.2953 L 246.805 72.2953 L 246.805 72.1844 L 247.0538 72.1844 L 247.0538 72.2953 L 247.2195 72.2953 L 247.2195 72.4046 L 247.3852 72.4046 L 247.3852 72.5155 L 247.7172 72.5155 L 247.7172 72.6263 L 248.1317 72.6263 L 248.1317 72.7371 L 248.3805 72.7371 L 248.3805 72.6263 L 249.0439 72.6263 L 249.0439 72.5155 L 249.7078 72.5155 L 249.7078 72.4046 L 249.9555 72.4046 L 249.9555 72.2953 L 250.288 72.2953 L 250.288 72.1844 L 250.4765 72.1844 L 250.5363 72.1844 L 250.5363 72.0736 L 251.034 72.0736 L 251.034 71.9628 L 251.6147 71.9628 L 251.6147 71.8519 L 251.9461 71.8519 L 251.9461 71.7426 L 252.6921 71.7426 Z M 128.6479 252.1792 L 128.6268 213.9306 L 128.7771 207.6262 L 129.0009 205.1618 L 129.4331 202.7749 L 130.1317 200.6901 L 132.1793 196.147 L 132.9281 192.641 L 133.2122 187.7047 L 133.2054 175.1703 L 133.4075 172.7226 L 133.8755 170.3387 L 134.7723 168.1264 L 136.0421 166.1661 L 137.522 164.3471 L 143.1067 158.234 L 144.5626 156.4088 L 145.8108 154.4805 L 147.6602 150.6526 L 148.8434 148.7394 L 153.7978 142.3089 L 156.1596 138.9669 L 156.4996 138.9669 L 156.4996 138.8561 L 156.831 138.8561 L 156.831 138.9669 L 157.9089 138.9669 L 157.9089 138.7452 L 158.0751 138.7452 L 158.0751 138.5236 L 158.4065 138.5236 L 158.4065 138.4142 L 158.7385 138.4142 L 158.7385 138.3034 L 159.5675 138.3034 L 159.5675 138.4142 L 160.314 138.4142 L 160.314 138.3034 L 160.6454 138.3034 L 160.6454 138.1925 L 160.8942 138.1925 L 160.8942 138.0817 L 161.3919 138.0817 L 161.3919 137.9709 L 161.8064 137.9709 L 161.8064 137.8615 L 162.3046 137.8615 L 162.3046 137.7507 L 162.7186 137.7507 L 162.7186 137.6398 L 163.2162 137.6398 L 163.2162 137.529 L 166.9481 137.529 L 166.9481 137.6398 L 167.6115 137.6398 L 167.6115 137.529 L 169.1876 137.529 L 169.1876 137.6398 L 169.4353 137.6398 L 169.4353 137.7507 L 169.7678 137.7507 L 169.7678 137.6398 L 169.8509 137.6398 L 169.8509 137.529 L 170.348 137.529 L 170.348 137.6398 L 170.5968 137.6398 L 170.5968 137.7507 L 170.9282 137.7507 L 170.9282 137.8615 L 171.3427 137.8615 L 171.3427 137.9709 L 171.6747 137.9709 L 171.6747 138.0817 L 171.9235 138.0817 L 171.9235 137.9709 L 172.1718 137.9709 L 172.1718 137.8615 L 172.3381 137.8615 L 172.3381 137.9709 L 172.4212 137.9709 L 172.4212 138.0817 L 172.5869 138.0817 L 172.5869 138.1925 L 172.8352 138.1925 L 172.8352 138.0817 L 172.9183 138.0817 L 172.9183 137.9709 L 173.0845 137.9709 L 173.0845 138.1925 L 173.1671 138.1925 L 173.1671 138.3034 L 173.2508 138.3034 L 173.2508 138.4142 L 173.9142 138.4142 L 173.9142 138.3034 L 174.1624 138.3034 L 174.1624 138.4142 L 174.3281 138.4142 L 174.3281 138.5236 L 174.4113 138.5236 L 174.4113 138.6344 L 174.5775 138.6344 L 174.5775 138.7452 L 175.0746 138.7452 L 175.0746 138.8561 L 176.8984 138.8561 L 176.8984 138.7452 L 177.2298 138.7452 L 177.2298 138.9669 L 177.3141 138.9669 L 177.3141 139.0778 L 177.5618 139.0778 L 177.5618 138.9669 L 177.728 138.9669 L 177.728 139.0778 L 178.2257 139.0778 L 178.2257 139.1871 L 178.4745 139.1871 L 178.4745 139.2979 L 178.6408 139.2979 L 178.6408 139.4088 L 178.7233 139.4088 L 178.7233 139.5196 L 179.1379 139.5196 L 179.1379 139.6305 L 179.5524 139.6305 L 179.5524 139.7398 L 179.9669 139.7398 L 179.9669 139.8506 L 180.7134 139.8506 L 180.7134 139.7398 L 181.0448 139.7398 L 181.0448 139.6305 L 181.4605 139.6305 L 181.4605 139.5196 L 181.7913 139.5196 L 181.7913 139.4088 L 183.1185 139.4088 L 183.1185 139.2979 L 183.3668 139.2979 L 183.3668 139.1871 L 183.5331 139.1871 L 183.5331 139.0778 L 183.6988 139.0778 L 183.6988 138.9669 L 185.5237 138.9669 L 185.5237 138.7452 L 188.4254 138.7452 L 188.4254 138.6344 L 188.7573 138.6344 L 188.7573 138.5236 L 189.0887 138.5236 L 189.0887 138.4142 L 189.4207 138.4142 L 189.4207 138.3034 L 189.6695 138.3034 L 189.6695 138.1925 L 190.0009 138.1925 L 190.0009 138.0817 L 190.3329 138.0817 L 190.3329 137.9709 L 190.6643 137.9709 L 190.6643 137.8615 L 191.4939 137.8615 L 191.4939 137.7507 L 194.0647 137.7507 L 194.0647 137.6398 L 194.3124 137.6398 L 194.3124 137.529 L 194.6449 137.529 L 194.6449 137.6398 L 194.7287 137.6398 L 194.7287 137.7507 L 194.8938 137.7507 L 194.8938 137.8615 L 195.2252 137.8615 L 195.2252 137.9709 L 195.5571 137.9709 L 195.5571 138.0817 L 196.1374 138.0817 L 196.1374 138.1925 L 196.635 138.1925 L 196.635 138.3034 L 197.2158 138.3034 L 197.2158 138.4142 L 197.7966 138.4142 L 197.7966 138.5236 L 198.1286 138.5236 L 198.1286 138.6344 L 198.5425 138.6344 L 198.5425 138.7452 L 198.957 138.7452 L 198.957 138.8561 L 199.2884 138.8561 L 199.2884 138.9669 L 199.7035 138.9669 L 199.7035 139.0778 L 200.118 139.0778 L 200.118 139.1871 L 200.5326 139.1871 L 200.5326 139.2979 L 200.6157 139.2979 L 200.6157 139.4088 L 200.9471 139.4088 L 200.9471 139.2979 L 201.1959 139.2979 L 201.1959 139.1871 L 201.3616 139.1871 L 201.3616 139.0778 L 202.025 139.0778 L 202.025 138.9669 L 202.2738 138.9669 L 202.2738 138.8561 L 202.5232 138.8561 L 202.5232 138.7452 L 202.9275 138.7452 L 202.9371 138.8561 L 203.0203 138.8561 L 203.0203 138.9669 L 203.3522 138.9669 L 203.3522 139.0778 L 203.6011 139.0778 L 203.6011 139.1871 L 203.8693 139.1871 L 204.2644 139.1871 L 204.2644 139.2979 L 204.5133 139.2979 L 204.5133 139.4088 L 205.0103 139.4088 L 205.0103 139.5196 L 205.5906 139.5196 L 205.5906 139.6305 L 206.0888 139.6305 L 206.0888 139.7398 L 206.5853 139.7398 L 206.5853 139.8506 L 207.0835 139.8506 L 207.0835 139.9615 L 207.6638 139.9615 L 207.6638 140.0723 L 208.1614 140.0723 L 208.162 140.1832 L 208.6591 140.1832 L 208.6591 140.294 L 209.1567 140.294 L 209.1567 140.4033 L 209.7381 140.4033 L 209.7381 140.5142 L 212.8055 140.5142 L 212.8055 140.625 L 213.4688 140.625 L 213.4688 140.7359 L 214.1327 140.7359 L 214.1327 140.8467 L 214.7955 140.8467 L 214.7955 140.956 L 219.8541 140.956 L 219.8541 140.8467 L 221.9267 140.8467 L 221.9267 140.7359 L 224.0836 140.7359 L 224.0836 140.625 L 226.1562 140.625 L 226.1562 140.5142 L 226.9027 140.5142 L 226.9027 140.4033 L 227.7318 140.4033 L 227.7323 140.294 L 228.4782 140.294 L 228.4782 140.1832 L 229.3079 140.1832 L 229.3079 140.0723 L 230.0538 140.0723 L 230.0538 139.9615 L 235.0292 139.9615 L 235.0292 140.0723 L 243.4882 140.0723 L 243.4882 140.1832 L 244.1516 140.1832 L 244.1516 140.625 L 243.9853 140.625 L 243.9853 140.7359 L 243.6539 140.7359 L 243.6539 140.8467 L 243.5708 140.8467 L 243.5708 140.956 L 243.4882 140.956 L 243.4882 141.0669 L 243.4051 141.0669 L 243.4051 141.1777 L 243.2388 141.1777 L 243.2388 141.2886 L 243.1568 141.2886 L 243.1568 141.3994 L 243.0731 141.3994 L 243.0731 141.5103 L 242.9074 141.5103 L 242.9074 141.6196 L 242.8249 141.6196 L 242.8249 141.7304 L 242.6586 141.7304 L 242.6586 141.8413 L 242.4935 141.8413 L 242.4935 141.9521 L 242.4098 141.9521 L 242.4098 142.063 L 242.2441 142.063 L 242.2441 142.1723 L 242.0773 142.1723 L 242.0773 142.2831 L 241.7459 142.2831 L 241.7459 142.394 L 241.6633 142.394 L 241.6633 142.5048 L 241.4976 142.5048 L 241.4976 142.6157 L 241.3319 142.6157 L 241.3319 142.7265 L 241.1656 142.7265 L 241.1656 142.8358 L 241.0825 142.8358 L 241.0825 142.9467 L 241 142.9467 L 241 143.0575 L 240.8343 143.0575 L 240.8343 143.1684 L 240.7511 143.1684 L 240.7511 143.2792 L 240.6686 143.2792 L 240.6686 143.3885 L 240.5023 143.3885 L 240.5023 143.4994 L 240.4192 143.4994 L 240.4192 143.6102 L 240.3366 143.6102 L 240.3366 143.7211 L 240.1709 143.7211 L 240.1709 143.8319 L 240.0878 143.8319 L 240.0878 143.9427 L 240.0052 143.9427 L 240.0052 144.0521 L 239.9221 144.0521 L 239.9221 144.1629 L 239.8389 144.1629 L 239.8389 144.3846 L 239.7564 144.3846 L 239.7564 144.4954 L 239.6732 144.4954 L 239.6732 144.6048 L 239.5901 144.6048 L 239.5901 144.8265 L 239.5076 144.8265 L 239.5076 144.9373 L 239.4244 144.9373 L 239.4244 145.0481 L 239.2587 145.0481 L 239.2587 145.159 L 239.093 145.159 L 239.093 145.2683 L 239.0099 145.2683 L 239.0099 145.3792 L 238.9268 145.3792 L 238.9268 145.6008 L 238.8442 145.6008 L 238.8442 145.7117 L 238.7611 145.7117 L 238.7611 145.821 L 238.6774 145.821 L 238.6774 145.9319 L 238.5954 145.9319 L 238.5954 146.0427 L 238.5122 146.0427 L 238.5122 146.1535 L 238.4291 146.1535 L 238.4291 146.2644 L 238.3465 146.2644 L 238.3465 146.3737 L 238.2628 146.3752 L 238.2628 146.5954 L 238.1808 146.5954 L 238.1808 146.7062 L 238.0983 146.7062 L 238.0983 146.9279 L 238.0151 146.9279 L 238.0151 147.0373 L 237.932 147.0373 L 237.932 147.1481 L 237.8489 147.1481 L 237.8489 147.2589 L 237.7658 147.2589 L 237.7658 147.3698 L 237.6826 147.3698 L 237.6826 147.59 L 237.5995 147.5915 L 237.5995 147.9225 L 237.5169 147.9225 L 237.5169 148.1442 L 237.4344 148.1442 L 237.4344 148.2535 L 237.3512 148.2535 L 237.3512 148.4752 L 237.2687 148.4752 L 237.2687 148.586 L 237.1855 148.586 L 237.1855 148.8062 L 237.0198 148.8062 L 237.0198 149.3604 L 236.9367 149.3604 L 236.9367 149.5806 L 236.8536 149.5806 L 236.8536 149.9131 L 236.771 149.9131 L 236.771 150.1333 L 236.6879 150.1333 L 236.6879 150.2441 L 236.6047 150.2441 L 236.6047 150.5767 L 236.5222 150.5767 L 236.5222 150.7968 L 236.439 150.7968 L 236.439 150.9077 L 236.3565 150.9077 L 236.3565 151.1294 L 236.2733 151.1294 L 236.2733 151.3495 L 236.1902 151.3495 L 236.1902 151.4604 L 236.1077 151.4604 L 236.1077 151.6821 L 236.0245 151.6821 L 236.0245 152.3456 L 235.9414 152.3456 L 235.9414 152.4549 L 235.8588 152.4549 L 235.8588 152.5658 L 235.7757 152.5658 L 235.7757 152.8983 L 235.9414 152.8983 L 235.9414 152.7875 L 236.0245 152.7875 L 236.0245 152.5658 L 236.1077 152.5658 L 236.1077 152.4549 L 236.1902 152.4549 L 236.1902 152.3456 L 236.2733 152.3456 L 236.2733 152.1239 L 236.3565 152.1239 L 236.3565 151.9022 L 236.439 151.9022 L 236.439 151.6821 L 236.5222 151.6821 L 236.5222 151.4604 L 236.6047 151.4604 L 236.6053 151.3495 L 236.6879 151.3495 L 236.6879 151.2387 L 236.771 151.2387 L 236.771 151.1294 L 236.8536 151.1294 L 236.8536 150.9077 L 236.9367 150.9077 L 236.9367 150.7968 L 237.0198 150.7968 L 237.0198 150.686 L 237.1024 150.686 L 237.1024 150.5767 L 237.1855 150.5767 L 237.1855 150.355 L 237.2687 150.355 L 237.2687 150.024 L 237.3512 150.0224 L 237.3512 149.8023 L 237.4344 149.8023 L 237.4344 149.6914 L 237.5169 149.6914 L 237.5175 149.3604 L 237.5995 149.3604 L 237.5995 149.1387 L 237.6826 149.1387 L 237.6826 148.917 L 237.7658 148.917 L 237.7658 148.3643 L 237.8489 148.3643 L 237.8489 148.2535 L 237.932 148.2535 L 237.932 148.1442 L 238.0151 148.1442 L 238.0151 148.0333 L 238.0983 148.0333 L 238.0983 147.9225 L 238.1808 147.9225 L 238.1808 147.8116 L 238.2628 147.8116 L 238.2628 147.5915 L 238.4291 147.5915 L 238.4291 147.3698 L 238.5954 147.3698 L 238.5954 147.2589 L 238.5122 147.2589 L 238.5122 147.1481 L 238.5954 147.1481 L 238.5954 147.0373 L 238.6774 147.0373 L 238.6774 146.9279 L 238.8442 146.9279 L 238.8442 146.8171 L 238.9268 146.8171 L 238.9268 146.5954 L 239.0099 146.5954 L 239.0099 146.3752 L 239.093 146.3752 L 239.093 146.2644 L 239.1756 146.2644 L 239.1756 146.0427 L 239.2587 146.0427 L 239.2587 145.9319 L 239.4244 145.9319 L 239.4244 145.7117 L 239.5076 145.7117 L 239.5076 145.6008 L 239.5901 145.6008 L 239.5901 145.49 L 239.6732 145.49 L 239.6732 145.3792 L 239.7564 145.3792 L 239.7564 145.159 L 239.8389 145.159 L 239.8389 145.0481 L 240.0052 145.0481 L 240.0052 144.9373 L 240.0878 144.9373 L 240.0878 144.8265 L 240.2535 144.8265 L 240.2535 144.6048 L 240.3366 144.6048 L 240.3366 144.3846 L 240.4192 144.3846 L 240.4192 144.2738 L 240.5023 144.2738 L 240.5023 144.1629 L 240.5854 144.1629 L 240.5854 144.0521 L 240.6686 144.0521 L 240.6686 143.9427 L 240.7511 143.9427 L 240.7511 143.8319 L 240.8343 143.8319 L 240.8343 143.7211 L 240.9174 143.7211 L 240.9174 143.6102 L 241 143.6102 L 241 143.4994 L 241.2488 143.4994 L 241.2488 143.3885 L 241.4145 143.3885 L 241.4145 143.2792 L 241.4976 143.2792 L 241.4976 143.1684 L 241.5807 143.1684 L 241.5807 143.0575 L 241.7459 143.0575 L 241.7459 142.9467 L 241.8301 142.9467 L 241.8301 142.8358 L 241.9953 142.8358 L 241.9953 142.7265 L 242.1615 142.7265 L 242.1615 142.6157 L 242.4098 142.6157 L 242.4098 142.5048 L 242.6586 142.5048 L 242.6586 142.394 L 242.8249 142.394 L 242.8249 142.2831 L 243.0731 142.2831 L 243.0731 142.1723 L 243.1568 142.1723 L 243.1568 142.063 L 243.2388 142.063 L 243.2388 141.9521 L 243.4051 141.9521 L 243.4051 141.8413 L 243.8191 141.8413 L 243.8191 141.7304 L 244.2342 141.7304 L 244.2342 141.8413 L 244.3999 141.8413 L 244.3999 141.7304 L 244.4824 141.7304 L 244.4824 141.6196 L 244.5661 141.6196 L 244.5661 141.5103 L 244.6487 141.5103 L 244.6487 141.3994 L 244.7318 141.3994 L 244.7318 141.2886 L 244.8138 141.2886 L 244.8138 141.1777 L 244.8975 141.1777 L 244.8975 141.0092 L 244.8975 140.956 L 244.9806 140.956 L 244.9806 140.8467 L 245.0632 140.8467 L 245.0632 140.7359 L 244.9806 140.7359 L 244.9806 140.625 L 245.0632 140.625 L 245.0632 140.294 L 245.8091 140.294 L 245.8091 140.4033 L 245.9754 140.4033 L 245.9754 140.5142 L 246.1417 140.5142 L 246.1417 140.625 L 246.3073 140.625 L 246.3073 140.7359 L 246.473 140.7359 L 246.473 140.8467 L 246.5562 140.8467 L 246.5562 141.0669 L 246.6387 141.0669 L 246.6387 141.1033 L 246.6387 141.1777 L 246.805 141.1777 L 246.805 141.5103 L 246.8881 141.5103 L 246.8881 141.6196 L 247.2195 141.6196 L 247.2195 141.5103 L 247.3852 141.5103 L 247.3852 141.6196 L 248.0486 141.6196 L 248.0486 141.7304 L 248.6294 141.7304 L 248.6294 141.8413 L 248.8782 141.8413 L 248.8782 141.9521 L 249.2096 141.9521 L 249.2096 142.063 L 249.5415 142.063 L 249.5415 142.1723 L 249.7078 142.1723 L 249.7078 142.2831 L 249.9555 142.2831 L 249.9555 142.394 L 250.2049 142.394 L 250.2049 142.5048 L 250.5363 142.5048 L 250.5363 142.7265 L 250.8683 142.7265 L 250.8683 142.8358 L 251.2828 142.8358 L 251.2828 142.9467 L 251.4485 142.9467 L 251.4485 143.0575 L 251.6147 143.0575 L 251.6147 143.1684 L 251.7804 143.1684 L 251.7804 143.2792 L 252.0293 143.2792 L 252.0293 143.3885 L 252.3607 143.3885 L 252.3607 143.4994 L 252.4438 143.4994 L 252.4438 143.6102 L 252.6921 143.6102 L 252.6921 143.7211 L 252.8583 143.7211 L 252.8583 143.8319 L 252.9414 143.8319 L 252.9414 143.9427 L 253.5217 143.9427 L 253.5217 144.0521 L 253.6048 144.0521 L 253.6048 144.1629 L 253.7711 144.1629 L 253.7711 144.2738 L 254.0188 144.2738 L 254.0188 144.3846 L 254.3501 144.3846 L 254.3513 144.4954 L 254.517 144.4954 L 254.517 144.6048 L 254.7664 144.6048 L 254.7664 144.7156 L 255.0978 144.7156 L 255.0978 144.9373 L 255.1803 144.9373 L 255.1803 145.0481 L 255.8437 145.0481 L 255.8437 145.159 L 256.3413 145.159 L 256.3413 145.3792 L 256.507 145.3792 L 256.507 145.49 L 256.6727 145.49 L 256.6727 145.6008 L 256.839 145.6008 L 256.839 145.7117 L 256.9216 145.7117 L 256.9216 145.821 L 257.0867 145.821 L 257.0867 145.9319 L 257.1704 145.9319 L 257.1704 146.0427 L 257.5849 146.0427 L 257.5849 146.1535 L 257.8343 146.1535 L 257.8343 146.2644 L 257.9994 146.2644 L 257.9994 146.3752 L 258.5802 146.3752 L 258.5802 146.4846 L 258.9948 146.4846 L 258.9948 146.5954 L 259.4093 146.5954 L 259.4093 146.7062 L 259.9069 146.7062 L 259.9069 146.8171 L 259.9901 146.8171 L 259.9901 146.9279 L 260.3215 146.9279 L 260.3215 147.0373 L 260.4877 147.0373 L 260.4877 147.1481 L 260.8191 147.1481 L 260.8191 147.2589 L 261.3168 147.2589 L 261.3168 147.3698 L 261.8976 147.3698 L 261.8976 147.4806 L 262.0633 147.4806 L 262.0633 147.5915 L 262.3127 147.5915 L 262.3127 147.7008 L 262.5598 147.7008 L 262.5598 147.8116 L 262.8923 147.8116 L 262.8923 147.9225 L 263.1167 147.9225 L 263.0956 153.0896 L 262.6606 156.8583 L 262.0251 159.2103 L 260.0015 163.4117 L 259.2504 165.6195 L 258.9908 167.9123 L 259.2812 170.1307 L 259.7042 171.1662 L 260.3784 172.0925 L 261.2672 172.7773 L 262.2489 173.2054 L 264.3568 173.5911 L 270.0503 173.6853 L 272.3062 173.8735 L 274.4199 174.4642 L 275.373 175.0139 L 276.0876 175.6516 L 277.2076 177.1518 L 279.1391 180.3617 L 280.0387 182.1656 L 280.7032 184.2048 L 281.0591 186.414 L 281.2174 188.6856 L 281.2652 194.6939 L 282.5361 197.0414 L 284.4943 199.1914 L 286.1467 200.2908 L 288.2353 201.0165 L 290.4468 201.3536 L 293.8797 201.469 L 306.4572 201.0606 L 308.5048 201.2671 L 309.4756 201.5161 L 310.4038 201.9306 L 311.2579 202.5881 L 311.8979 203.4338 L 312.5732 205.347 L 312.6768 207.3741 L 312.3079 209.4361 L 311.427 211.3478 L 310.1618 212.9133 L 308.6341 214.2024 L 306.8575 215.2076 L 304.0299 216.3691 L 298.7003 218.914 L 296.6761 219.4682 L 292.5638 220.2927 L 290.555 220.9578 L 289.5591 221.4619 L 287.6943 222.7297 L 285.9491 224.2238 L 283.4608 226.6928 L 279.9311 230.5343 L 276.4987 229.6415 L 273.2252 229.2725 L 267.6599 229.1192 L 253.0901 229.2073 L 249.7853 229.0296 L 247.6363 228.7183 L 245.5797 228.1201 L 244.6692 227.7056 L 240.43 225.2154 L 234.3755 222.4063 L 232.7385 221.8749 L 231.8588 221.8172 L 230.9005 221.9812 L 229.9974 222.3319 L 228.3103 223.3948 L 223.328 227.4262 L 221.5105 228.4906 L 218.7016 229.8738 L 216.859 231.1144 L 215.1075 232.566 L 212.5726 234.9408 L 206.0387 241.6475 L 203.7417 244.2562 L 201.7357 247.0106 L 200.741 248.9632 L 199.1119 252.8154 L 196.7495 257.2552 L 195.1289 261.1925 L 193.9639 263.1178 L 192.5655 264.9141 L 190.2036 267.4088 L 188.4897 268.9014 L 186.6431 270.1677 L 182.8965 271.9579 L 179.594 273.8499 L 177.8163 274.5848 L 175.7642 274.8292 L 174.7318 274.7108 L 173.7189 274.4162 L 172.0186 273.405 L 171.2898 272.743 L 170.057 271.2003 L 169.1409 269.3842 L 167.7083 265.57 L 164.1535 258.8359 L 163.4975 258.1207 L 162.6804 257.5604 L 161.7768 257.1748 L 159.8277 256.8179 L 157.7853 256.9151 L 155.7389 257.4891 L 154.7453 258.0008 L 152.9471 259.3248 L 150.5431 261.7315 L 149.0939 263.5019 L 147.8156 265.3817 L 145.0905 271.1775 L 143.9591 272.8887 L 142.0584 275.3622 L 139.5194 272.172 L 136.8729 268.2546 L 135.5279 267.1006 L 133.108 266.0863 L 133.0459 259.3916 L 132.4145 255.8006 L 131.3662 253.8798 L 130.0634 252.8534 L 128.6479 252.1792 Z" fill="#000000" fill-opacity="1" stroke="#000000" stroke-width="0" paint-order="fill" stroke-opacity="1" stroke-dasharray="" stroke-linecap="butt" stroke-linejoin="miter" stroke-miterlimit="10" clip-path="none" style="filter: url(#f1)"/>
<path data-code="207" d="M 428.8223 382.5009 L 420.7857 374.1709 L 418.5673 371.661 L 416.7048 368.9187 L 415.886 366.84 L 415.4755 364.6444 L 415.3309 362.4108 L 415.5689 357.9741 L 415.9487 355.862 L 417.4957 351.4768 L 417.7901 349.7883 L 417.547 348.0908 L 416.1172 343.6084 L 415.7807 341.3642 L 415.562 337.8233 L 415.4288 328.1329 L 415.2637 325.749 L 414.8862 323.4258 L 414.5679 322.3052 L 413.7593 320.4194 L 411.8848 316.8906 L 410.5929 314.0466 L 409.556 312.308 L 407.6468 310.1473 L 404.1256 307.3687 L 403.5255 306.6915 L 403.0511 305.8837 L 402.7049 304.9863 L 402.2944 303.026 L 402.0365 298.7897 L 406.0656 297.6888 L 411.3798 295.1713 L 414.7495 294.4197 L 420.6696 294.1282 L 435.1068 294.3073 L 438.6228 294.0416 L 440.8942 293.5512 L 443.0112 292.6174 L 444.8936 291.2903 L 447.4719 288.9246 L 451.6086 284.7308 L 454.2575 282.4653 L 456.2452 281.2931 L 458.4847 280.581 L 461.9916 280.1771 L 466.7507 280.338 L 470.2724 280.9788 L 474.49 282.5837 L 474.2884 286.029 L 474.523 288.1775 L 474.7832 289.2237 L 475.5428 291.0853 L 477.3575 294.6232 L 478.9376 298.5665 L 481.8712 303.8596 L 483.1022 306.7977 L 484.0571 308.6593 L 485.2153 310.3599 L 489.0741 315.2568 L 490.2175 316.9559 L 491.1524 318.8038 L 492.4108 321.7313 L 493.4699 323.4865 L 494.7283 325.137 L 496.8493 327.4389 L 498.3878 328.8328 L 500.0385 330.0506 L 501.8817 331.0102 L 507.4253 333.2043 L 511.7556 334.6696 L 509.4866 339.2749 L 506.9317 343.8165 L 506.0656 345.6659 L 505.4478 347.7461 L 504.3449 353.0453 L 503.665 355.0071 L 501.6157 359.5714 L 501.0503 361.638 L 500.2036 365.885 L 499.5659 367.9621 L 498.1253 370.6755 L 493.545 377.3641 L 492.7331 380.7471 L 491.358 384.9592 L 490.7208 386.5641 L 490.2362 387.4691 L 489.0787 389.1758 L 485.1242 394.0058 L 483.9398 395.6821 L 483.0567 397.3266 L 481.6929 400.4211 L 480.7198 402.0351 L 479.5013 403.713 L 476.8428 402.8338 L 469.4616 399.9382 L 464.226 397.1793 L 462.2183 396.5674 L 458.0918 395.7186 L 456.0841 395.1249 L 451.6855 392.9444 L 449.7876 392.2354 L 444.6385 391.1558 L 442.6217 390.553 L 440.8338 389.6935 L 437.3992 387.7545 L 433.6041 386.0205 L 431.2286 384.4383 L 428.8223 382.5009 Z" fill="#000000" fill-opacity="1" stroke="#000000" stroke-width="0" paint-order="fill" stroke-opacity="1" stroke-dasharray="" stroke-linecap="butt" stroke-linejoin="miter" stroke-miterlimit="10" clip-path="none" style="filter: url(#f1)"/>
<path data-code="208" d="M 411.3029 248.2663 L 415.1225 243.7536 L 419.8684 238.884 L 423.1374 236.0067 L 427.1881 233.3479 L 428.4909 232.0239 L 431.8737 226.1978 L 432.6959 224.3392 L 432.9994 223.2824 L 433.3558 221.0899 L 433.5563 215.4095 L 436.7159 212.7584 L 438.4087 211.6651 L 442.2089 209.9706 L 446.4851 207.4774 L 451.1787 205.3713 L 452.9 204.2917 L 455.3182 202.3102 L 457.6198 200.1101 L 460.5357 197.0095 L 462.5081 194.5481 L 463.6013 192.7822 L 464.3558 190.9267 L 465.5299 185.2919 L 466.1232 183.4759 L 466.5713 182.5664 L 467.6817 180.8658 L 470.8999 176.9362 L 472.0672 175.3054 L 472.5557 174.4308 L 473.1644 172.6573 L 473.2869 171.8024 L 473.2527 170.0821 L 472.82 168.3253 L 472.0661 166.5989 L 469.7361 162.0497 L 478.1291 158.978 L 483.3755 156.2418 L 485.3861 155.639 L 487.4524 155.2215 L 488.466 159.4168 L 490.5477 163.969 L 491.2059 165.9596 L 491.5988 168.1188 L 492.265 174.7542 L 492.6647 176.9058 L 493.3218 178.8828 L 494.9902 182.5087 L 495.6285 184.5024 L 496.0937 187.7836 L 496.4279 196.7999 L 496.7115 199.0062 L 497.302 201.1441 L 498.3081 203.1044 L 500.2942 205.7525 L 508.9821 214.9312 L 506.4722 219.5381 L 504.7964 223.3675 L 503.78 225.3019 L 499.0403 231.5957 L 497.848 233.4967 L 497.3674 234.5095 L 496.7155 236.5821 L 495.8733 240.8367 L 495.2948 242.9139 L 494.4766 244.7557 L 491.3153 250.7048 L 490.177 252.0653 L 488.3145 253.646 L 486.0318 255.9266 L 484.4904 256.6752 L 482.8004 257.1641 L 477.3456 257.4587 L 474.2212 258.1739 L 472.418 259.0105 L 468.9947 260.9434 L 465.2219 262.6486 L 460.9388 265.0932 L 459.0034 265.8464 L 456.8898 266.2958 L 453.6174 266.598 L 450.3058 266.6314 L 447.0215 266.4173 L 443.8431 265.7598 L 441.8519 264.8518 L 440.0418 263.5839 L 435.8014 260.0248 L 433.9862 258.7979 L 433.0085 258.309 L 432.0121 257.9476 L 429.9451 257.4906 L 422.5355 256.6479 L 420.4891 256.0375 L 419.4824 255.544 L 417.613 254.2837 L 415.8712 252.7957 L 411.3029 248.2663 Z" fill="#000000" fill-opacity="1" stroke="#000000" stroke-width="0" paint-order="fill" stroke-opacity="1" stroke-dasharray="" stroke-linecap="butt" stroke-linejoin="miter" stroke-miterlimit="10" clip-path="none" style="filter: url(#f1)"/>
<path data-code="209" d="M 381.7424 155.4416 L 376.7562 163.8931 L 374.0265 169.6615 L 372.7271 171.5048 L 371.2518 173.2343 L 369.6517 174.8499 L 367.9384 176.3151 L 366.0918 177.5496 L 357.0008 181.8968 L 353.8873 182.5725 L 347.494 183.2269 L 345.4214 183.6976 L 344.4221 184.0666 L 342.5141 185.1416 L 337.3689 189.3309 L 335.552 190.5897 L 334.568 191.1014 L 332.377 191.8105 L 328.9276 192.2629 L 325.4075 192.3267 L 321.9006 192.1126 L 319.6167 191.7619 L 317.4342 191.1363 L 313.0629 188.9209 L 310.0058 187.9173 L 307.7526 187.5711 L 304.2833 187.3251 L 299.6005 187.2461 L 296.1084 187.3524 L 292.6914 187.7685 L 290.5089 188.4092 L 289.5859 188.8405 L 287.023 190.4652 L 281.2652 194.6939 L 281.2174 188.6856 L 281.0591 186.414 L 280.7032 184.2048 L 280.0387 182.1656 L 279.1391 180.3617 L 277.2076 177.1518 L 276.0876 175.6516 L 275.373 175.0139 L 274.4199 174.4642 L 272.3062 173.8735 L 270.0503 173.6853 L 264.3568 173.5911 L 262.2489 173.2054 L 261.2672 172.7773 L 260.3784 172.0925 L 259.7042 171.1662 L 259.2812 170.1307 L 258.9908 167.9123 L 259.2504 165.6195 L 260.0015 163.4117 L 262.0251 159.2103 L 262.6606 156.8583 L 263.0956 153.0896 L 263.1167 147.9225 L 263.1411 147.9225 L 263.1411 148.0333 L 263.4725 148.0333 L 263.4725 148.1442 L 263.7214 148.1442 L 263.7214 148.2535 L 264.0533 148.2535 L 264.0533 148.3643 L 264.3016 148.3643 L 264.3016 148.4752 L 264.6335 148.4752 L 264.6335 148.586 L 264.8824 148.586 L 264.8824 148.6969 L 265.5457 148.6969 L 265.5457 148.8062 L 265.7946 148.8077 L 265.7946 148.917 L 266.1265 148.917 L 266.1265 149.0279 L 266.4579 149.0279 L 266.4579 149.1387 L 267.1213 149.1387 L 267.1213 149.2496 L 267.4532 149.2496 L 267.4532 149.3604 L 267.5364 149.3604 L 267.5364 149.4697 L 267.7021 149.4697 L 267.7021 149.5806 L 267.8677 149.5806 L 267.8677 149.6914 L 268.1166 149.6914 L 268.1166 149.8023 L 268.4485 149.8023 L 268.4485 149.9131 L 268.9456 149.9131 L 268.9456 150.0224 L 269.6915 150.024 L 269.6915 150.355 L 270.1072 150.355 L 270.1072 150.4658 L 270.6874 150.4658 L 270.6874 150.5767 L 271.0188 150.5767 L 271.0188 150.686 L 271.4333 150.686 L 271.4333 150.7968 L 271.7653 150.7968 L 271.7653 150.9077 L 271.8484 150.9077 L 271.8484 151.0185 L 272.3455 151.0185 L 272.3455 150.9077 L 272.4287 150.9077 L 272.4287 151.0185 L 272.6775 151.0185 L 272.6775 151.2387 L 273.1746 151.2387 L 273.1746 151.3495 L 274.0873 151.3495 L 274.0873 151.4604 L 274.1705 151.4604 L 274.1705 151.5712 L 274.6675 151.5712 L 274.6675 151.6821 L 276.1605 151.6821 L 276.1605 151.7929 L 276.2431 151.7929 L 276.2431 151.9022 L 277.1553 151.9022 L 277.1553 152.0131 L 277.4872 152.0131 L 277.4872 152.1239 L 278.8139 152.1239 L 278.8139 152.2348 L 279.0628 152.2348 L 279.0628 152.3456 L 279.8092 152.3456 L 279.8092 152.4549 L 281.0528 152.4549 L 281.0528 152.2348 L 281.1359 152.2348 L 281.1359 152.3456 L 281.633 152.3456 L 281.633 152.4549 L 281.7162 152.4549 L 281.7162 152.6766 L 281.7999 152.6766 L 281.7999 153.0091 L 282.0476 153.0091 L 282.0476 153.1185 L 282.3801 153.1185 L 282.3801 153.2293 L 282.6284 153.2293 L 282.6284 153.3402 L 282.9603 153.3402 L 282.9603 153.2293 L 283.126 153.2293 L 283.126 153.3402 L 283.2091 153.3402 L 283.2091 153.451 L 283.6237 153.451 L 283.6237 153.3402 L 284.0382 153.3402 L 284.0382 153.451 L 284.1213 153.451 L 284.1213 153.782 L 284.7015 153.782 L 284.7015 153.8929 L 285.0335 153.8929 L 285.0335 153.782 L 285.1161 153.782 L 285.1161 153.6712 L 285.1992 153.6712 L 285.1992 153.451 L 285.2823 153.451 L 285.2823 153.2293 L 285.3649 153.2293 L 285.3649 153.1185 L 285.5306 153.1185 L 285.5306 153.0091 L 285.7794 153.0091 L 285.7794 153.2293 L 286.2771 153.2293 L 286.2771 153.3402 L 286.4422 153.3402 L 286.4422 153.782 L 286.3602 153.782 L 286.3602 153.8929 L 286.1951 153.8929 L 286.1951 154.0037 L 286.1108 154.0037 L 286.1108 154.1145 L 286.0282 154.1145 L 286.0282 154.2254 L 286.1108 154.2254 L 286.1108 154.4456 L 286.3602 154.4456 L 286.3602 154.3347 L 286.5265 154.3347 L 286.5265 154.2254 L 286.8584 154.2254 L 286.8584 154.1145 L 287.0236 154.1145 L 287.0236 154.0037 L 287.1898 154.0037 L 287.1898 153.8929 L 287.355 153.8929 L 287.355 153.6712 L 287.8532 153.6712 L 287.8532 153.782 L 288.184 153.782 L 288.184 153.8929 L 288.5991 153.8929 L 288.5991 154.0037 L 288.7648 154.0037 L 288.7648 154.1145 L 289.0136 154.1145 L 289.0136 154.2254 L 289.1788 154.2254 L 289.1788 154.1145 L 289.4281 154.1145 L 289.4281 154.0037 L 289.595 154.0037 L 289.595 153.8929 L 289.7601 153.8929 L 289.7601 153.782 L 290.0089 153.782 L 290.0089 153.6712 L 290.5066 153.6712 L 290.5066 153.5618 L 291.3356 153.5618 L 291.3356 153.451 L 291.999 153.451 L 291.999 153.3402 L 292.4135 153.3402 L 292.4135 153.2293 L 292.4967 153.2293 L 292.4967 153.1185 L 292.7455 153.1185 L 292.7455 153.0091 L 292.9943 153.0091 L 292.9943 152.8983 L 293.0769 152.8983 L 293.0769 152.7875 L 293.4088 152.7875 L 293.4088 152.6766 L 293.4914 152.6766 L 293.492 152.5658 L 293.574 152.5658 L 293.574 152.4549 L 293.7402 152.4549 L 293.7402 152.3456 L 293.8234 152.3456 L 293.8234 152.1239 L 293.9059 152.1239 L 293.9059 152.0131 L 293.9896 152.0131 L 293.9896 151.9022 L 294.0728 151.9022 L 294.0728 151.3495 L 294.1553 151.3495 L 294.1553 150.4658 L 294.0728 150.4658 L 294.0728 150.355 L 293.9896 150.355 L 293.9896 150.1758 L 293.9896 150.0224 L 293.9059 150.0224 L 293.9059 149.8023 L 293.8234 149.8023 L 293.8234 149.6914 L 293.7402 149.6914 L 293.7402 149.5806 L 293.6582 149.5806 L 293.6582 149.4697 L 293.2431 149.4697 L 293.2431 149.3604 L 292.9943 149.3604 L 292.9943 149.0279 L 293.0769 149.0279 L 293.0769 148.917 L 293.16 148.917 L 293.16 148.6969 L 293.2431 148.6969 L 293.2431 148.3643 L 293.574 148.3643 L 293.574 148.4752 L 293.9059 148.4752 L 293.9059 148.3643 L 293.9896 148.3643 L 293.9896 148.2535 L 294.0728 148.2535 L 294.0728 148.1442 L 294.1553 148.1442 L 294.1553 148.0333 L 294.2373 148.0333 L 294.2373 147.9225 L 294.9012 147.9225 L 294.9012 148.0333 L 295.0675 148.0333 L 295.0675 148.1442 L 295.4365 148.1442 L 295.482 148.1442 L 295.482 148.0333 L 295.6477 148.0333 L 295.6477 147.9225 L 295.9797 147.9225 L 295.9797 147.8116 L 297.3064 147.8116 L 297.3064 147.9225 L 297.7203 147.9225 L 297.7203 148.1442 L 298.0517 148.1442 L 298.0517 148.0333 L 298.468 148.0333 L 298.468 147.9225 L 298.8819 147.9225 L 298.8819 147.8116 L 298.9645 147.8116 L 298.9645 147.7008 L 299.2133 147.7008 L 299.2133 147.5915 L 299.7935 147.5915 L 299.7935 147.4806 L 300.0429 147.4806 L 300.0429 147.3698 L 300.5406 147.3698 L 300.5406 147.1481 L 301.2039 147.1481 L 301.2039 147.3698 L 302.2818 147.3698 L 302.2818 147.4806 L 302.447 147.4806 L 302.447 147.5793 L 302.7795 147.5915 L 302.7795 147.4806 L 302.8626 147.4806 L 302.8626 147.3698 L 302.9452 147.3698 L 302.9452 147.4806 L 303.0283 147.4806 L 303.0283 147.5915 L 303.194 147.5915 L 303.194 147.7008 L 304.2719 147.7008 L 304.2719 147.5915 L 304.355 147.5915 L 304.355 147.4806 L 304.6038 147.4806 L 304.6038 147.3698 L 305.0184 147.3698 L 305.0184 147.2589 L 305.2672 147.2589 L 305.2672 147.1481 L 305.4329 147.1481 L 305.4329 146.9279 L 305.516 146.9279 L 305.516 146.8171 L 306.6776 146.8171 L 306.6776 146.9279 L 306.7596 146.9279 L 306.7596 147.0373 L 306.9247 147.0373 L 306.9247 146.9279 L 307.0916 146.9279 L 307.0916 146.8171 L 307.5061 146.8171 L 307.5061 146.7062 L 307.6718 146.7062 L 307.6718 146.5954 L 307.7549 146.5954 L 307.7549 146.3752 L 307.8375 146.3752 L 307.8375 146.2644 L 307.9206 146.2644 L 307.9206 145.9319 L 308.0037 145.9319 L 308.0037 145.6008 L 308.1694 145.6008 L 308.1694 145.49 L 308.2526 145.49 L 308.2526 145.3792 L 308.3351 145.3792 L 308.3351 145.2683 L 308.4183 145.2683 L 308.4183 145.159 L 308.5014 145.159 L 308.5014 145.0481 L 308.584 145.0481 L 308.584 144.9373 L 308.6665 144.9373 L 308.6665 144.8265 L 309.4142 144.8265 L 309.4142 144.9373 L 309.4961 144.9373 L 309.4961 145.0481 L 309.5793 145.0481 L 309.5793 145.159 L 309.745 145.159 L 309.745 144.9373 L 309.8281 144.9373 L 309.8281 144.8265 L 309.9932 144.8265 L 309.9932 144.9373 L 310.1595 144.9373 L 310.1595 145.0481 L 310.3246 145.0481 L 310.3258 145.159 L 310.4089 145.159 L 310.4089 145.2683 L 310.4915 145.2683 L 310.4915 145.3792 L 310.9891 145.3792 L 310.9891 145.159 L 311.1548 145.159 L 311.1548 145.0481 L 311.2374 145.0481 L 311.2379 144.9373 L 311.4042 144.9373 L 311.4042 144.7156 L 311.4862 144.7156 L 311.4862 144.3846 L 311.9013 144.3846 L 311.9013 144.1629 L 312.067 144.1629 L 312.067 143.9427 L 312.2327 143.9427 L 312.2327 143.8319 L 312.9792 143.8319 L 312.9792 143.7211 L 313.0612 143.7211 L 313.0612 143.6102 L 313.1449 143.6102 L 313.1449 143.4994 L 313.228 143.4994 L 313.228 143.3885 L 313.5594 143.3885 L 313.5594 143.4994 L 313.6425 143.4994 L 313.6425 143.3885 L 313.7251 143.3885 L 313.7251 143.2792 L 313.8082 143.2792 L 313.8082 143.1684 L 313.9739 143.1684 L 313.9739 143.0575 L 314.2228 143.0575 L 314.2228 142.9467 L 314.4721 142.9467 L 314.4721 142.8358 L 314.7204 142.8358 L 314.7204 142.9467 L 314.9692 142.9467 L 314.9692 143.0575 L 315.1355 143.0575 L 315.1355 142.9467 L 315.2181 142.9467 L 315.2181 142.8358 L 315.3838 142.8358 L 315.3838 142.7265 L 315.6326 142.7265 L 315.6326 142.6157 L 315.7983 142.6157 L 315.7983 142.5048 L 315.8814 142.5048 L 315.8814 142.394 L 316.2134 142.394 L 316.2134 142.2831 L 316.4622 142.2831 L 316.4622 142.1723 L 316.5448 142.1723 L 316.5448 142.063 L 316.9593 142.063 L 316.9593 141.9521 L 317.1256 141.9521 L 317.1256 142.063 L 317.457 142.063 L 317.457 142.1723 L 317.6226 142.1723 L 317.6226 142.2831 L 317.7889 142.2831 L 317.7889 142.1723 L 317.8715 142.1723 L 317.8715 142.063 L 317.9552 142.063 L 317.9552 141.9521 L 319.1156 141.9521 L 319.1156 141.8413 L 319.447 141.8413 L 319.447 141.7304 L 319.5301 141.7304 L 319.5301 141.6196 L 319.8621 141.6196 L 319.8621 141.5103 L 320.0278 141.5103 L 320.0278 141.3994 L 320.1109 141.3994 L 320.1109 141.2886 L 320.2766 141.2886 L 320.2766 141.1777 L 320.5255 141.1777 L 320.5255 141.0669 L 320.608 141.0669 L 320.608 140.956 L 320.8569 140.956 L 320.8569 140.7359 L 321.1057 140.7359 L 321.1057 140.625 L 321.4376 140.625 L 321.4376 140.5142 L 321.769 140.5142 L 321.769 140.4033 L 322.101 140.4033 L 322.101 140.5142 L 323.7591 140.5142 L 323.7591 140.4033 L 324.0911 140.4033 L 324.0911 140.5142 L 324.5056 140.5142 L 324.5056 140.625 L 324.7544 140.625 L 324.7544 140.7359 L 324.8375 140.7359 L 324.8375 140.8467 L 326.0817 140.8467 L 326.0817 140.7359 L 326.4125 140.7359 L 326.4125 140.625 L 327.8229 140.625 L 327.8229 140.7359 L 327.9055 140.7359 L 327.9055 140.8467 L 327.9886 140.8467 L 327.9886 140.7359 L 328.5688 140.7359 L 328.5688 140.625 L 329.3984 140.625 L 329.3984 140.5142 L 329.6473 140.5142 L 329.6473 140.625 L 329.8955 140.625 L 329.8955 140.7359 L 330.1449 140.7359 L 330.1449 140.8467 L 330.642 140.8467 L 330.642 140.7359 L 330.974 140.7359 L 330.974 140.8467 L 331.2234 140.8467 L 331.2234 141.0897 L 331.2234 141.1777 L 331.3054 141.1777 L 331.3054 141.3994 L 331.3885 141.3994 L 331.3885 141.5103 L 331.5548 141.5103 L 331.5548 141.6196 L 331.6373 141.6196 L 331.6373 141.7304 L 331.7199 141.7304 L 331.7199 141.8413 L 332.0519 141.8413 L 332.0519 141.7304 L 332.3838 141.7304 L 332.3838 141.8413 L 332.5489 141.8413 L 332.5489 141.7304 L 332.7983 141.7304 L 332.7983 141.6196 L 333.0472 141.6196 L 333.0472 141.5103 L 333.5443 141.5103 L 333.5443 141.2886 L 333.7931 141.2886 L 333.7931 141.3994 L 334.0419 141.3994 L 334.0419 141.5103 L 334.2913 141.5103 L 334.2913 141.6196 L 334.6233 141.6196 L 334.6233 141.7304 L 334.8715 141.7304 L 334.8715 141.8413 L 335.2029 141.8413 L 335.2029 141.9521 L 335.4518 141.9521 L 335.4518 142.063 L 335.5349 142.063 L 335.5349 142.1723 L 335.7006 142.1723 L 335.7006 142.2831 L 335.9494 142.2831 L 335.9494 142.394 L 336.1151 142.394 L 336.1151 142.5048 L 336.2814 142.5048 L 336.2814 142.6157 L 336.4471 142.6157 L 336.4471 142.7265 L 336.7785 142.7265 L 336.7785 142.8358 L 337.193 142.8358 L 337.193 142.9467 L 337.3593 142.9467 L 337.3593 143.0575 L 337.525 143.0575 L 337.525 143.1684 L 337.6075 143.1684 L 337.6075 143.0575 L 337.7738 143.0575 L 337.7738 143.1684 L 337.8563 143.1684 L 337.8569 143.2792 L 337.9389 143.2792 L 337.9389 143.3885 L 338.0232 143.3885 L 338.0232 143.4994 L 338.1883 143.4994 L 338.1883 143.6102 L 338.2714 143.6102 L 338.2714 143.7211 L 338.5203 143.7211 L 338.5203 143.8319 L 339.2662 143.8319 L 339.2662 143.9427 L 339.3493 143.9427 L 339.3493 144.1629 L 339.2662 144.1629 L 339.2662 144.3846 L 339.5981 144.3846 L 339.5981 144.6048 L 339.847 144.6048 L 339.847 144.7156 L 340.1784 144.7156 L 340.1784 144.8265 L 340.7592 144.8265 L 340.7592 144.7156 L 340.8417 144.7156 L 340.8417 144.4954 L 341.0905 144.4954 L 341.0905 144.6048 L 341.3394 144.6048 L 341.3394 144.7156 L 341.7539 144.7156 L 341.7539 144.8265 L 341.9202 144.8265 L 341.9202 144.9373 L 342.0027 144.9373 L 342.0027 145.0481 L 342.2516 145.0481 L 342.2516 145.159 L 342.501 145.159 L 342.501 145.2683 L 342.998 145.2683 L 342.998 145.3792 L 343.3294 145.3792 L 343.3294 145.49 L 344.6567 145.49 L 344.6567 145.6008 L 345.1538 145.6008 L 345.1538 145.7117 L 345.3201 145.7117 L 345.3201 145.821 L 345.9834 145.821 L 345.9834 145.7117 L 346.1485 145.7117 L 346.1485 145.6008 L 346.7299 145.6008 L 346.7299 145.49 L 346.9782 145.49 L 346.9782 145.3792 L 347.1444 145.3792 L 347.1444 145.2683 L 347.3933 145.2683 L 347.3933 145.159 L 347.559 145.159 L 347.559 145.0481 L 347.6421 145.0481 L 347.6421 144.9373 L 347.7246 144.9373 L 347.7246 144.8265 L 347.8078 144.8265 L 347.8078 144.7156 L 347.8909 144.7156 L 347.8909 144.6048 L 347.9735 144.6048 L 347.9735 144.4954 L 348.1392 144.4954 L 348.1392 144.3846 L 348.388 144.3846 L 348.388 144.2738 L 349.2176 144.2738 L 349.2176 144.3846 L 349.4659 144.3846 L 349.4664 144.2738 L 349.8804 144.2738 L 349.8804 144.1629 L 350.8757 144.1629 L 350.8757 144.2738 L 351.2908 144.2738 L 351.2908 144.3846 L 351.5391 144.3846 L 351.5391 144.2738 L 351.871 144.2738 L 351.871 144.3846 L 352.1199 144.3846 L 352.1199 144.4954 L 352.2856 144.4954 L 352.2856 144.6048 L 352.3687 144.6048 L 352.3687 144.7156 L 352.4513 144.7156 L 352.4513 144.8265 L 352.5344 144.8265 L 352.5344 145.159 L 352.6175 145.159 L 352.6175 145.2683 L 352.7001 145.2683 L 352.7001 145.3792 L 352.8663 145.3792 L 352.8663 145.2683 L 353.1146 145.2683 L 353.1146 145.159 L 353.7791 145.159 L 353.7791 145.2683 L 354.1236 145.2683 L 354.1931 145.2683 L 354.1931 145.3032 L 354.1931 145.3792 L 354.3462 145.3792 L 354.4424 145.3792 L 354.4424 145.4262 L 354.4424 145.49 L 354.5244 145.49 L 354.5244 145.6008 L 354.6076 145.6008 L 354.6076 145.7117 L 354.7738 145.7117 L 354.7738 145.821 L 354.8564 145.821 L 354.8564 145.9319 L 354.939 145.9319 L 354.939 146.0427 L 355.0221 146.0427 L 355.0221 146.1535 L 355.1878 146.1535 L 355.1878 146.2644 L 355.2709 146.2644 L 355.2709 146.3752 L 355.3541 146.3752 L 355.3541 146.4846 L 355.4372 146.4846 L 355.4372 146.5954 L 355.6029 146.5954 L 355.6029 146.7062 L 355.6855 146.7062 L 355.6855 146.8171 L 355.7692 146.8171 L 355.7692 146.9279 L 355.9343 146.9279 L 355.9343 147.0373 L 356.0174 147.0373 L 356.0174 147.1481 L 356.1005 147.1481 L 356.1005 147.2589 L 356.1831 147.2589 L 356.1831 147.3698 L 356.3488 147.3698 L 356.3488 147.4806 L 356.4314 147.4806 L 356.4314 147.5915 L 356.5145 147.5915 L 356.5151 147.7008 L 356.5976 147.7008 L 356.5976 147.8116 L 356.7633 147.8116 L 356.7633 147.9225 L 356.8465 147.9225 L 356.8465 148.0333 L 356.9296 148.0333 L 356.9296 148.1442 L 357.0122 148.1442 L 357.0122 148.2535 L 357.1784 148.2535 L 357.1784 148.3643 L 357.261 148.3643 L 357.261 148.4752 L 357.3441 148.4752 L 357.3441 148.586 L 357.4261 148.586 L 357.4267 148.6969 L 357.5098 148.6969 L 357.5098 148.8062 L 357.5929 148.8077 L 357.5929 148.917 L 357.6755 148.917 L 357.6755 149.0279 L 358.09 149.0279 L 358.09 149.1387 L 358.1737 149.1387 L 358.1737 149.2496 L 358.2563 149.2496 L 358.2563 149.3604 L 358.3389 149.3604 L 358.3389 149.4697 L 358.5057 149.4697 L 358.5057 149.5806 L 358.5877 149.5806 L 358.5877 149.6914 L 358.754 149.6914 L 358.754 149.8023 L 358.8371 149.8023 L 358.8371 149.9131 L 359.3342 149.9131 L 359.3342 150.0224 L 359.4173 150.024 L 359.4173 150.1333 L 359.583 150.1333 L 359.583 150.2441 L 359.7487 150.2441 L 359.7487 150.355 L 359.915 150.355 L 359.915 150.4658 L 360.3295 150.4658 L 360.3295 150.5767 L 360.9097 150.5767 L 360.9097 150.686 L 360.9928 150.686 L 360.9928 150.7968 L 361.1585 150.7968 L 361.1585 150.9077 L 361.2417 150.9077 L 361.2417 151.0185 L 361.4074 151.0185 L 361.4074 151.1294 L 361.5731 151.1294 L 361.5731 151.2387 L 361.6562 151.2387 L 361.6562 151.3495 L 361.8213 151.3495 L 361.8213 151.4604 L 361.9876 151.4604 L 361.9876 151.5712 L 362.0707 151.5712 L 362.0707 151.6821 L 362.237 151.6821 L 362.237 151.7929 L 362.4027 151.7929 L 362.4027 151.9022 L 362.4847 151.9022 L 362.4847 152.0131 L 362.6521 152.0131 L 362.6521 152.1239 L 362.8172 152.1239 L 362.8172 152.2348 L 362.9829 152.2348 L 362.9829 152.3456 L 363.066 152.3456 L 363.066 152.4549 L 363.1486 152.4549 L 363.1486 152.5658 L 363.2317 152.5658 L 363.2317 152.6766 L 363.3974 152.6766 L 363.3974 152.7875 L 363.4806 152.7875 L 363.4806 152.8983 L 363.6463 152.8983 L 363.6463 153.0091 L 363.7294 153.0091 L 363.7294 153.1185 L 363.8951 153.1185 L 363.8951 153.2293 L 364.0608 153.2293 L 364.0608 153.3402 L 364.1439 153.3402 L 364.1439 153.451 L 364.2271 153.451 L 364.2271 153.5618 L 364.3927 153.5618 L 364.3927 153.6712 L 364.6416 153.6712 L 364.6416 153.782 L 364.8073 153.782 L 364.8073 153.8929 L 364.973 153.8929 L 364.973 154.0037 L 365.1392 154.0037 L 365.1392 154.1145 L 365.3044 154.1145 L 365.3044 154.2254 L 365.6363 154.2254 L 365.6363 154.3347 L 365.7195 154.3347 L 365.7195 154.4456 L 365.8851 154.4456 L 365.8851 154.5564 L 366.052 154.5564 L 366.052 154.6672 L 366.2991 154.6672 L 366.3002 154.7781 L 366.4659 154.7781 L 366.4659 154.8874 L 366.6311 154.8874 L 366.6311 154.9983 L 366.8805 154.9983 L 366.8805 155.1091 L 367.1293 155.1091 L 367.1293 155.2199 L 367.295 155.2199 L 367.295 155.3308 L 367.6269 155.3308 L 367.6269 155.4416 L 367.7926 155.4416 L 367.7926 155.551 L 367.9583 155.551 L 367.9583 155.6618 L 368.2072 155.6618 L 368.2072 155.7726 L 368.788 155.7726 L 368.788 155.8835 L 370.1972 155.8835 L 370.1972 155.7726 L 371.0268 155.7726 L 371.0268 155.6618 L 371.11 155.6618 L 371.11 155.551 L 371.3582 155.551 L 371.3582 155.6618 L 371.4414 155.6618 L 371.4414 155.7726 L 371.7733 155.7726 L 371.7733 155.6618 L 371.8559 155.6618 L 371.8559 155.551 L 372.1047 155.551 L 372.1047 155.4416 L 372.6849 155.4416 L 372.6849 155.551 L 372.8512 155.551 L 372.8512 155.6618 L 374.4267 155.6618 L 374.4267 155.4416 L 374.593 155.4416 L 374.593 155.3308 L 374.6756 155.3308 L 374.6756 155.2199 L 374.7576 155.2199 L 374.7576 155.1091 L 374.925 155.1091 L 374.925 154.9983 L 375.007 154.9983 L 375.007 154.8874 L 375.1732 154.8874 L 375.1732 154.7781 L 375.5046 154.7781 L 375.5046 154.6672 L 375.6703 154.6672 L 375.6703 154.5564 L 378.2406 154.5564 L 378.2406 154.4456 L 379.1534 154.4456 L 379.1534 154.5564 L 379.4853 154.5564 L 379.4853 154.6672 L 380.0655 154.6672 L 380.0655 154.7781 L 380.3975 154.7781 L 380.3975 154.8874 L 380.7289 154.8874 L 380.7289 154.9983 L 380.8946 154.9983 L 380.8946 155.1091 L 381.1434 155.1091 L 381.1434 155.2199 L 381.4754 155.2199 L 381.4754 155.3308 L 381.6405 155.3308 L 381.6405 155.4416 L 381.7424 155.4416 Z" fill="#000000" fill-opacity="1" stroke="#000000" stroke-width="0" paint-order="fill" stroke-opacity="1" stroke-dasharray="" stroke-linecap="butt" stroke-linejoin="miter" stroke-miterlimit="10" clip-path="none" style="filter: url(#f1)"/>
<path data-code="210" d="M 182.2832 349.5454 L 181.5749 346.3962 L 180.731 344.3737 L 179.5336 342.4863 L 176.0437 338.0571 L 174.7563 336.226 L 173.7382 334.2945 L 172.5043 331.361 L 170.1954 326.8984 L 169.4956 324.9229 L 168.4701 319.5949 L 167.8933 317.5162 L 167.0671 315.6728 L 165.2035 312.1152 L 163.6291 308.1628 L 161.7665 304.6037 L 160.9421 302.7588 L 160.3692 300.6771 L 159.6119 296.3906 L 159.059 294.2922 L 158.2562 292.426 L 156.4358 288.8745 L 154.7487 285.0496 L 153.6025 283.4052 L 151.4359 281.3493 L 149.7152 280.3046 L 146.1046 278.481 L 144.4573 277.3164 L 142.0584 275.3622 L 143.9591 272.8887 L 145.0905 271.1775 L 147.8156 265.3817 L 149.0939 263.5019 L 150.5431 261.7315 L 152.9471 259.3248 L 154.7453 258.0008 L 155.7389 257.4891 L 157.7853 256.9151 L 159.8277 256.8179 L 161.7768 257.1748 L 162.6804 257.5604 L 163.4975 258.1207 L 164.1535 258.8359 L 167.7083 265.57 L 169.1409 269.3842 L 170.057 271.2003 L 171.2898 272.743 L 172.0186 273.405 L 173.7189 274.4162 L 174.7318 274.7108 L 175.7642 274.8292 L 177.8163 274.5848 L 179.594 273.8499 L 182.8965 271.9579 L 186.6431 270.1677 L 188.4897 268.9014 L 190.2036 267.4088 L 192.5655 264.9141 L 193.9639 263.1178 L 195.1289 261.1925 L 196.7495 257.2552 L 199.1119 252.8154 L 200.741 248.9632 L 201.7357 247.0106 L 203.7417 244.2562 L 206.0387 241.6475 L 212.5726 234.9408 L 215.1075 232.566 L 216.859 231.1144 L 218.7016 229.8738 L 221.5105 228.4906 L 223.328 227.4262 L 228.3103 223.3948 L 229.9974 222.3319 L 230.9005 221.9812 L 231.8588 221.8172 L 232.7385 221.8749 L 234.3755 222.4063 L 240.43 225.2154 L 244.6692 227.7056 L 245.5797 228.1201 L 247.6363 228.7183 L 249.7853 229.0296 L 253.0901 229.2073 L 267.6599 229.1192 L 273.2252 229.2725 L 276.4987 229.6415 L 279.9311 230.5343 L 288.9937 234.1937 L 290.645 235.0653 L 293.0888 236.9542 L 295.9934 239.9591 L 297.2643 241.6096 L 298.3273 243.377 L 299.9427 247.3173 L 302.7362 252.6742 L 304.9045 259.4265 L 305.4363 261.7649 L 311.1503 270.3469 L 312.0636 272.2252 L 313.2673 275.177 L 316.149 280.4883 L 317.728 284.4408 L 320.0494 288.9094 L 320.7845 290.8788 L 321.912 296.1902 L 322.4984 298.2264 L 324.1349 301.7415 L 324.8062 303.5696 L 325.0579 305.6574 L 324.7908 307.7513 L 324.0911 309.5886 L 322.2963 313.0475 L 320.6786 316.9544 L 317.72 322.2384 L 316.4571 325.1644 L 315.4379 327.0685 L 313.4449 329.6968 L 308.0664 335.3969 L 305.885 337.9144 L 304.6517 339.7487 L 303.7782 341.8061 L 303.317 343.9956 L 303.1314 346.2338 L 303.2259 349.6016 L 303.5607 351.8109 L 304.2263 353.929 L 304.6921 354.8583 L 305.8309 356.5695 L 307.7931 358.9383 L 306.7408 363.1169 L 304.6648 367.6691 L 304.0071 369.7463 L 303.5448 373.269 L 303.3386 380.489 L 303.153 382.8501 L 302.6998 385.1398 L 302.3023 386.2377 L 301.2677 387.9929 L 300.6306 388.7673 L 299.178 390.1111 L 297.492 391.1649 L 294.0597 392.9293 L 291.8487 394.595 L 287.4432 395.4863 L 283.7763 395.8977 L 279.9527 395.9919 L 276.4788 395.7991 L 274.3276 395.4771 L 272.2743 394.9153 L 266.943 392.4722 L 264.629 391.8603 L 260.9786 391.4276 L 250.9918 390.9766 L 247.3738 390.5029 L 237.1263 386.2118 L 235.4933 385.3221 L 234.6574 384.736 L 232.2887 382.7134 L 226.2718 376.7598 L 223.9105 374.7342 L 222.2313 373.6167 L 219.2237 372.203 L 217.6283 371.3102 L 215.9924 370.1152 L 211.2755 366.1097 L 209.639 364.9147 L 208.0435 364.0204 L 205.0394 362.6022 L 203.3642 361.4801 L 201.0154 359.4408 L 195.0458 353.4674 L 192.6498 351.4981 L 190.8664 350.4974 L 189.0324 349.9402 L 186.1728 349.6031 L 182.2832 349.5454 Z" fill="#000000" fill-opacity="1" stroke="#000000" stroke-width="0" paint-order="fill" stroke-opacity="1" stroke-dasharray="" stroke-linecap="butt" stroke-linejoin="miter" stroke-miterlimit="10" clip-path="none" style="filter: url(#f1)"/>
<path data-code="211" d="M 279.9311 230.5343 L 283.4608 226.6928 L 285.9491 224.2238 L 287.6943 222.7297 L 289.5591 221.4619 L 290.555 220.9578 L 292.5638 220.2927 L 296.6761 219.4682 L 298.7003 218.914 L 304.0299 216.3691 L 306.8575 215.2076 L 308.6341 214.2024 L 310.1618 212.9133 L 311.427 211.3478 L 312.3079 209.4361 L 312.6768 207.3741 L 312.5732 205.347 L 311.8979 203.4338 L 311.2579 202.5881 L 310.4038 201.9306 L 309.4756 201.5161 L 308.5048 201.2671 L 306.4572 201.0606 L 293.8797 201.469 L 290.4468 201.3536 L 288.2353 201.0165 L 286.1467 200.2908 L 284.4943 199.1914 L 282.5361 197.0414 L 281.2652 194.6939 L 287.023 190.4652 L 289.5859 188.8405 L 290.5089 188.4092 L 292.6914 187.7685 L 296.1084 187.3524 L 299.6005 187.2461 L 304.2833 187.3251 L 307.7526 187.5711 L 310.0058 187.9173 L 313.0629 188.9209 L 317.4342 191.1363 L 319.6167 191.7619 L 321.9006 192.1126 L 325.4075 192.3267 L 328.9276 192.2629 L 332.377 191.8105 L 334.568 191.1014 L 335.552 190.5897 L 337.3689 189.3309 L 342.5141 185.1416 L 344.4221 184.0666 L 345.4214 183.6976 L 347.494 183.2269 L 353.8873 182.5725 L 357.0008 181.8968 L 366.0918 177.5496 L 367.9384 176.3151 L 369.6517 174.8499 L 371.2518 173.2343 L 372.7271 171.5048 L 374.0265 169.6615 L 376.7562 163.8931 L 381.7424 155.4416 L 381.8899 155.4416 L 381.8899 155.551 L 381.973 155.551 L 381.973 155.6618 L 382.3881 155.6618 L 382.3881 155.7726 L 384.3776 155.7726 L 384.3776 155.6618 L 384.4607 155.6618 L 384.4607 155.551 L 384.5433 155.551 L 384.5433 155.4416 L 384.6264 155.4416 L 384.6264 155.3308 L 384.8758 155.3308 L 384.8758 155.2199 L 385.1247 155.2199 L 385.1247 155.3308 L 385.2898 155.3308 L 385.2898 155.4416 L 385.5392 155.4416 L 385.5392 155.551 L 385.9531 155.551 L 385.9531 155.4416 L 386.7828 155.4416 L 386.7828 155.3308 L 386.9485 155.3308 L 386.9485 155.2199 L 387.1142 155.2199 L 387.1142 155.3308 L 387.2804 155.3308 L 387.2804 155.2199 L 387.5293 155.2199 L 387.5293 155.1091 L 387.6944 155.1091 L 387.6944 154.9983 L 387.7775 154.9815 L 387.7775 154.8874 L 387.9432 154.8874 L 387.9432 154.7781 L 388.192 154.7781 L 388.192 154.8874 L 388.3583 154.8874 L 388.3583 154.7781 L 388.7728 154.7781 L 388.7728 154.6672 L 388.9385 154.6672 L 388.9385 154.7781 L 389.0217 154.7781 L 389.0217 154.6672 L 389.5193 154.6672 L 389.5193 154.5564 L 389.685 154.5564 L 389.685 154.6672 L 390.0164 154.6672 L 390.0164 154.5564 L 390.2658 154.5564 L 390.2658 154.4456 L 390.3484 154.4456 L 390.5141 154.4456 L 390.5141 154.3347 L 390.9291 154.3347 L 390.9291 154.4456 L 391.2611 154.4456 L 391.2611 154.3347 L 391.4268 154.3347 L 391.4268 154.2254 L 391.5094 154.2254 L 391.5094 154.1145 L 391.6751 154.1145 L 391.6751 154.2254 L 391.8408 154.2254 L 391.8408 154.3347 L 391.9239 154.3347 L 391.9239 154.4456 L 392.0896 154.4456 L 392.0896 154.3347 L 392.4221 154.3347 L 392.4221 154.2254 L 392.7535 154.2254 L 392.7535 154.1145 L 393.0023 154.1145 L 393.0023 154.0037 L 394.1628 154.0037 L 394.1628 153.8929 L 394.7436 153.8929 L 394.7436 153.782 L 395.2407 153.782 L 395.2407 154.0037 L 395.3238 154.0037 L 395.3238 153.8929 L 395.4075 153.8929 L 395.4075 153.782 L 395.8214 153.782 L 395.8214 153.6712 L 396.236 153.6712 L 396.236 153.5618 L 396.5674 153.5618 L 396.5674 153.6712 L 396.8993 153.6712 L 396.8993 153.5618 L 396.9825 153.5618 L 396.9825 153.451 L 397.2313 153.451 L 397.2313 153.3402 L 397.4795 153.3402 L 397.4795 153.2293 L 398.4754 153.2293 L 398.4754 153.1185 L 398.5586 153.1185 L 398.5586 153.0091 L 398.8074 153.0091 L 398.8074 152.8983 L 399.0557 152.8983 L 399.0557 152.7875 L 399.1388 152.7875 L 399.1388 152.6766 L 399.2213 152.6766 L 399.2213 152.5658 L 399.387 152.5658 L 399.387 152.4549 L 399.6364 152.4549 L 399.6364 152.3456 L 400.7041 152.3456 L 395.2862 155.4325 L 397.8975 157.7435 L 399.6695 158.7578 L 401.7649 159.3849 L 409.6317 160.674 L 411.8068 161.4348 L 414.9904 162.938 L 417.2122 163.6942 L 419.5274 164.0996 L 423.1157 164.3364 L 436.2706 164.344 L 438.4605 164.6386 L 440.4745 165.3219 L 441.3702 165.8943 L 442.6388 167.3064 L 445.9664 172.9321 L 447.268 176.1253 L 448.531 180.4725 L 441.225 182.3432 L 432.6213 183.1252 L 430.5174 183.5716 L 429.4982 183.9406 L 428.5 184.4477 L 426.6722 185.7399 L 424.2352 188.0752 L 421.4992 191.5083 L 419.4995 194.8245 L 418.1773 196.1227 L 416.5317 197.0383 L 413.1899 198.499 L 409.5958 199.4784 L 408.3551 203.6692 L 406.1219 209.5287 L 405.2991 211.1003 L 403.6667 213.2762 L 399.5237 212.4319 L 397.8759 212.3666 L 396.9853 212.5777 L 395.3249 213.428 L 393.0792 215.3366 L 391.0783 217.6598 L 389.9367 219.368 L 389.1093 221.0534 L 387.8532 224.2193 L 386.8266 225.9989 L 384.9146 228.5027 L 382.7753 230.8775 L 379.7507 233.8855 L 377.3774 235.9459 L 374.8635 237.6283 L 371.1692 239.3608 L 369.58 240.5148 L 368.1924 241.936 L 367.0598 243.5668 L 365.3425 247.3613 L 364.2988 249.0908 L 363.0621 250.7504 L 358.3753 256.4459 L 354.7551 261.894 L 341.9276 261.6525 L 305.4363 261.7649 L 304.9045 259.4265 L 302.7362 252.6742 L 299.9427 247.3173 L 298.3273 243.377 L 297.2643 241.6096 L 295.9934 239.9591 L 293.0888 236.9542 L 290.645 235.0653 L 288.9937 234.1937 L 279.9311 230.5343 Z" fill="#000000" fill-opacity="1" stroke="#000000" stroke-width="0" paint-order="fill" stroke-opacity="1" stroke-dasharray="" stroke-linecap="butt" stroke-linejoin="miter" stroke-miterlimit="10" clip-path="none" style="filter: url(#f1)"/>
<path data-code="212" d="M 428.8223 382.5009 L 424.9651 386.2589 L 416.0563 395.4149 L 413.773 397.5619 L 412.1844 398.8571 L 410.5001 399.9458 L 405.831 402.1065 L 401.5639 404.8184 L 397.4163 406.9183 L 396.9016 403.3501 L 396.355 401.1408 L 394.4361 396.496 L 393.8314 394.4249 L 393.0274 387.6316 L 392.5269 385.5604 L 392.0788 384.6084 L 391.4268 383.7566 L 390.5659 383.0915 L 388.5747 382.3657 L 385.2488 382.0924 L 378.2036 382.2959 L 375.9545 382.1926 L 373.8556 381.7432 L 372.8933 381.2892 L 372.0358 380.6089 L 371.4066 379.7571 L 370.9841 378.8096 L 370.556 376.7522 L 370.3197 367.6159 L 369.9307 365.3292 L 369.5635 364.2223 L 369.1176 363.2946 L 367.9572 361.6304 L 366.5217 360.2319 L 364.8198 359.1189 L 356.8089 355.1422 L 353.4249 354.3967 L 348.741 354.1492 L 344.0463 354.3572 L 340.6327 354.9448 L 338.6239 355.6752 L 334.2258 357.8799 L 332.2369 358.5328 L 327.1653 359.8053 L 321.9051 362.1163 L 320.0022 362.5824 L 317.9808 362.5764 L 316.9843 362.3881 L 315.2095 361.7321 L 311.7868 360.0862 L 307.7931 358.9383 L 305.8309 356.5695 L 304.6921 354.8583 L 304.2263 353.929 L 303.5607 351.8109 L 303.2259 349.6016 L 303.1314 346.2338 L 303.317 343.9956 L 303.7782 341.8061 L 304.6517 339.7487 L 305.885 337.9144 L 308.0664 335.3969 L 313.4449 329.6968 L 315.4379 327.0685 L 316.4571 325.1644 L 317.72 322.2384 L 320.6786 316.9544 L 322.2963 313.0475 L 324.0911 309.5886 L 324.7908 307.7513 L 325.0579 305.6574 L 324.8062 303.5696 L 324.1349 301.7415 L 322.4984 298.2264 L 321.912 296.1902 L 320.7845 290.8788 L 320.0494 288.9094 L 317.728 284.4408 L 316.149 280.4883 L 313.2673 275.177 L 312.0636 272.2252 L 311.1503 270.3469 L 305.4363 261.7649 L 341.9276 261.6525 L 354.7551 261.894 L 362.02 265.5108 L 365.8914 267.1112 L 367.6002 268.2014 L 369.2013 269.5118 L 371.4932 271.6892 L 385.5865 286.4709 L 390.1371 290.9228 L 391.7354 292.2317 L 393.4254 293.3295 L 396.4501 294.6915 L 398.0512 295.5722 L 399.6865 296.7702 L 402.0365 298.7897 L 402.2944 303.026 L 402.7049 304.9863 L 403.0511 305.8837 L 403.5255 306.6915 L 404.1256 307.3687 L 407.6468 310.1473 L 409.556 312.308 L 410.5929 314.0466 L 411.8848 316.8906 L 413.7593 320.4194 L 414.5679 322.3052 L 414.8862 323.4258 L 415.2637 325.749 L 415.4288 328.1329 L 415.562 337.8233 L 415.7807 341.3642 L 416.1172 343.6084 L 417.547 348.0908 L 417.7901 349.7883 L 417.4957 351.4768 L 415.9487 355.862 L 415.5689 357.9741 L 415.3309 362.4108 L 415.4755 364.6444 L 415.886 366.84 L 416.7048 368.9187 L 418.5673 371.661 L 420.7857 374.1709 L 428.8223 382.5009 Z" fill="#000000" fill-opacity="1" stroke="#000000" stroke-width="0" paint-order="fill" stroke-opacity="1" stroke-dasharray="" stroke-linecap="butt" stroke-linejoin="miter" stroke-miterlimit="10" clip-path="none" style="filter: url(#f1)"/>
<path data-code="213" d="M 451.7492 76.026 L 461.449 76.4937 L 466.4905 76.4375 L 470.1956 76.1444 L 473.727 75.3534 L 477.9896 73.3992 L 480.2353 72.6217 L 482.6325 72.1844 L 487.5908 71.8109 L 490.6508 71.079 L 492.5446 70.3047 L 498.5939 66.5906 L 505.4228 67.2177 L 507.5557 67.5791 L 509.6141 68.2032 L 512.2715 69.6624 L 518.974 74.4484 L 521.091 75.0178 L 525.4088 76.4831 L 529.6611 82.9089 L 531.3471 86.1978 L 532.1573 89.8997 L 532.6612 98.8795 L 533.1817 102.6239 L 533.9196 104.9456 L 535.7947 109.3535 L 536.368 111.7404 L 536.7672 115.4969 L 536.8908 119.3507 L 536.7735 150.6359 L 487.4604 150.5873 L 484.2507 148.1381 L 482.4884 147.1815 L 481.398 146.7852 L 479.1352 146.2841 L 472.176 145.4915 L 469.9257 144.9373 L 468.0951 144.1584 L 461.8618 141.0684 L 460.132 139.9979 L 457.9625 137.9268 L 456.3062 135.3486 L 452.4872 127.0505 L 451.9303 124.662 L 451.6638 122.1886 L 451.53 117.1247 L 451.7492 76.026 Z" fill="#000000" fill-opacity="1" stroke="#000000" stroke-width="0" paint-order="fill" stroke-opacity="1" stroke-dasharray="" stroke-linecap="butt" stroke-linejoin="miter" stroke-miterlimit="10" clip-path="none" style="filter: url(#f1)"/>
<path data-code="214" d="M 474.49 282.5837 L 470.2724 280.9788 L 466.7507 280.338 L 461.9916 280.1771 L 458.4847 280.581 L 456.2452 281.2931 L 454.2575 282.4653 L 451.6086 284.7308 L 447.4719 288.9246 L 444.8936 291.2903 L 443.0112 292.6174 L 440.8942 293.5512 L 438.6228 294.0416 L 435.1068 294.3073 L 420.6696 294.1282 L 414.7495 294.4197 L 411.3798 295.1713 L 406.0656 297.6888 L 402.0365 298.7897 L 399.6865 296.7702 L 398.0512 295.5722 L 396.4501 294.6915 L 393.4254 293.3295 L 391.7354 292.2317 L 390.1371 290.9228 L 385.5865 286.4709 L 371.4932 271.6892 L 369.2013 269.5118 L 367.6002 268.2014 L 365.8914 267.1112 L 362.02 265.5108 L 354.7551 261.894 L 358.3753 256.4459 L 363.0621 250.7504 L 364.2988 249.0908 L 365.3425 247.3613 L 367.0598 243.5668 L 368.1924 241.936 L 369.58 240.5148 L 371.1692 239.3608 L 374.8635 237.6283 L 377.3774 235.9459 L 379.7507 233.8855 L 382.7753 230.8775 L 384.9146 228.5027 L 386.8266 225.9989 L 387.8532 224.2193 L 389.1093 221.0534 L 389.9367 219.368 L 391.0783 217.6598 L 393.0792 215.3366 L 395.3249 213.428 L 396.9853 212.5777 L 397.8759 212.3666 L 399.5237 212.4319 L 403.6667 213.2762 L 402.4943 218.9125 L 402.1384 222.6417 L 402.1549 228.8277 L 402.6708 232.4172 L 403.3825 234.5217 L 405.6784 238.9782 L 407.4207 242.8623 L 408.9815 245.2993 L 411.3029 248.2663 L 415.8712 252.7957 L 417.613 254.2837 L 419.4824 255.544 L 420.4891 256.0375 L 422.5355 256.6479 L 429.9451 257.4906 L 432.0121 257.9476 L 433.0085 258.309 L 433.9862 258.7979 L 435.8014 260.0248 L 440.0418 263.5839 L 441.8519 264.8518 L 443.8431 265.7598 L 447.0215 266.4173 L 450.3058 266.6314 L 453.6174 266.598 L 456.8898 266.2958 L 459.0034 265.8464 L 460.9388 265.0932 L 465.2219 262.6486 L 468.9947 260.9434 L 472.418 259.0105 L 474.2212 258.1739 L 477.3456 257.4587 L 482.8004 257.1641 L 482.7156 265.9375 L 482.4337 268.3669 L 481.8535 270.7037 L 480.8576 272.9297 L 477.7458 278.7027 L 476.5928 280.3168 L 474.49 282.5837 Z" fill="#000000" fill-opacity="1" stroke="#000000" stroke-width="0" paint-order="fill" stroke-opacity="1" stroke-dasharray="" stroke-linecap="butt" stroke-linejoin="miter" stroke-miterlimit="10" clip-path="none" style="filter: url(#f1)"/>
<path data-code="215" d="M 487.4524 155.2215 L 487.4604 150.5873 L 536.7735 150.6359 L 539.0175 152.4807 L 540.6425 153.4905 L 542.509 154.1176 L 543.5106 154.2284 L 544.5139 154.2026 L 546.3963 153.7744 L 549.7775 152.2135 L 551.7447 151.5059 L 555.2238 150.9016 L 561.3289 150.6222 L 577.4242 150.7209 L 581.0644 150.5402 L 583.432 150.2335 L 585.7016 149.6489 L 590.1304 147.5702 L 592.1318 146.8672 L 594.3998 146.4162 L 600.2162 145.7314 L 602.4927 145.2956 L 604.5089 144.6078 L 608.0461 142.9391 L 610.0612 142.2664 L 612.3348 141.8534 L 618.1484 141.2278 L 621.5363 140.3882 L 624.1949 138.9472 L 630.7077 134.2325 L 630.9115 144.2434 L 630.9018 159.9968 L 631.5663 163.1885 L 632.294 165.1503 L 634.6701 169.5916 L 636.2986 173.4879 L 638.1315 176.9286 L 638.8478 178.7583 L 639.1206 180.8582 L 639.0557 181.9181 L 638.5421 183.9041 L 636.3362 188.2589 L 634.2687 193.089 L 631.7952 197.465 L 630.0643 201.2716 L 628.9124 202.9054 L 626.7424 204.9401 L 625.0211 205.965 L 621.3404 207.7871 L 618.7406 209.7443 L 616.2608 212.0022 L 613.1001 215.2243 L 610.9164 217.7721 L 609.6466 219.573 L 608.6456 221.4983 L 607.4328 224.4364 L 605.5783 227.9849 L 604.7646 229.8571 L 604.0494 233.0898 L 603.5182 238.6396 L 581.0222 238.8324 L 577.4362 238.673 L 573.9582 238.1264 L 571.9221 237.3945 L 567.6066 235.0349 L 563.8679 233.2098 L 562.0464 231.9738 L 556.9234 227.6099 L 555.1492 226.2783 L 545.2291 221.1248 L 543.2219 220.4977 L 538.1178 219.3194 L 536.2382 218.6103 L 531.8106 216.5119 L 529.6212 215.944 L 525.0159 215.4991 L 514.347 215.2956 L 508.9821 214.9312 L 500.2942 205.7525 L 498.3081 203.1044 L 497.302 201.1441 L 496.7115 199.0062 L 496.4279 196.7999 L 496.0937 187.7836 L 495.6285 184.5024 L 494.9902 182.5087 L 493.3218 178.8828 L 492.6647 176.9058 L 492.265 174.7542 L 491.5988 168.1188 L 491.2059 165.9596 L 490.5477 163.969 L 488.466 159.4168 L 487.4524 155.2215 Z" fill="#000000" fill-opacity="1" stroke="#000000" stroke-width="0" paint-order="fill" stroke-opacity="1" stroke-dasharray="" stroke-linecap="butt" stroke-linejoin="miter" stroke-miterlimit="10" clip-path="none" style="filter: url(#f1)"/>
<path data-code="216" d="M 411.3029 248.2663 L 408.9815 245.2993 L 407.4207 242.8623 L 405.6784 238.9782 L 403.3825 234.5217 L 402.6708 232.4172 L 402.1549 228.8277 L 402.1384 222.6417 L 402.4943 218.9125 L 403.6667 213.2762 L 405.2991 211.1003 L 406.1219 209.5287 L 408.3551 203.6692 L 409.5958 199.4784 L 412.875 203.2152 L 415.7129 206.2065 L 417.9837 208.2867 L 419.5928 209.4908 L 421.1957 210.3821 L 424.2352 211.697 L 427.6681 213.6163 L 429.4589 214.462 L 431.0714 214.9434 L 433.5563 215.4095 L 433.3558 221.0899 L 432.9994 223.2824 L 432.6959 224.3392 L 431.8737 226.1978 L 428.4909 232.0239 L 427.1881 233.3479 L 423.1374 236.0067 L 419.8684 238.884 L 415.1225 243.7536 L 411.3029 248.2663 Z" fill="#000000" fill-opacity="1" stroke="#000000" stroke-width="0" paint-order="fill" stroke-opacity="1" stroke-dasharray="" stroke-linecap="butt" stroke-linejoin="miter" stroke-miterlimit="10" clip-path="none" style="filter: url(#f1)"/>

















</svg>