<?xml version="1.0" encoding="utf-8"?>
<!-- Generator: Adobe Illustrator 24.0.1, SVG Export Plug-In . SVG Version: 6.00 Build 0)  -->
<svg version="1.1" id="katman_1" xmlns="http://www.w3.org/2000/svg" xmlns:xlink="http://www.w3.org/1999/xlink" x="0px" y="0px"
	 viewBox="100 0 900 600" style="enable-background:new 0 0 900 600;" xml:space="preserve"
	 width="800" height="460">

<path data-code="3000" d="M571.9,316.8l-0.8,0.2l-0.7-0.6l1-0.1L571.9,316.8z M578,313l0.4-1.1h1l-0.3,1.7L578,313z M567.9,321.5v-0.2V321.5L567.9,321.5z M551.8,317.6l1.9-2.5l-1.5-0.4l1.9-4.4l-0.1-2.2l4.1-3.3l0.7,1.6l2.7-3.7l3.3-2.6l-0.9-2.3l-4.2-2.2l1.1-3.2l-0.8-1l0.7-3.4l2.3-2.3l2.7,1l2-1.1l2.9,2.2l1.5-1.6l4.7-1.1l3.8,0.8l3.3-3.3l1.4,3.4l2,0.8l-0.5,2.1l1.4,3.2l2.5,3.5l0.4,6l-1.4,3.2l-2.1,1l-3.8,6.3l-3.2,0.5l-2.2-1.4l-1.9,2l-3.1-0.2l-5,2.1l0.7,1.2L567,320l0.6,1.5h-7.1l-2.7,0.5l-4.2,2.9l-2.3-0.5l-0.2-3.5L551.8,317.6z"/>
<path data-code="3001" d="M387,281.2l1.7,0.2l-3.2,0.5l0.6-0.8L387,281.2z M352.6,267.4L352.6,267.4l0.5-5l-0.8-6.5l0.7-8.8l2.4-0.5l0.2-2.3l2.8-3.2l0.4-3.3l2-2.4l-0.9-3.8l-1.8-2.1l0.8-2.3l0.3-6.4l3.2-3.6l0.3-3.6l2.8-1.7l5.7-0.5l2.1-0.9l6,1.8l4,4.7l3.6-0.8l2.7-1.7l2.4,0.1l4.5,2.9l7.2,0.7l2.1-2.4l5.5-1.9l5.7,0.1l4.6,1.9l3.1,0.4l0.7-1.4l5.9-3.7l1.9,0.1l3.4,4.8l0.9,5.3l3.6,1.7l-0.5,5.1l-3.2,2l-1.4-0.3l-3.1,4.6l-1,4l-1.4,0.5l-0.3,4.1l-2.5,1.3l-0.4,4.1l-4.2,3.4l-0.2,3.1l-3.4,5.4l1.1,1.2l-2.4,1.7l-1.8,3.3l-5.4-4.7l-0.8,1.4l-2.8-0.9l-9.3,8.7l-0.4,5.1l-1.5,2.6l0,0l-2.7-0.9l0.3,2.9l-4.1,0.3l-3.1-0.7l-2.1,1.5l-6.2,1l-4.4-2.6L372,275l-3.4-4.9l-3.6-2.6l-4-0.5L352.6,267.4z"/>
<path data-code="3002" d="M381.9,314l-1.1-1l1.3-1.4l0.9,0.9L381.9,314z"/>
<path data-code="3003" d="M626,373.8l-0.9-0.5l0.7-0.9l1.4-0.5L626,373.8z M622.3,357.9l0.7-1l1.4,5.5l-2.4-2.3L622.3,357.9zM625.4,354.8l0.3-4.1l1,0.6l0.3,2.1L625.4,354.8z M576.1,328.5l1.2,0.3l0.5,1.4l-2.4-1L576.1,328.5z M590.7,400.5v-0.6l-0.3-0.6l-0.1-0.2h-0.1l-0.7-0.5l-0.5-0.5l-0.1-0.1h0.1l-1.7-9.7l-1.5-1.7l-0.7-0.8l0,0l-0.2-0.2l-0.5-0.5l-0.1-0.1h-0.1l-1,0.3l-0.2,1.2l-3.7-0.8l-3.6-1.5l-4-2.1l-2.9-0.5l-3.2-2.7l-2.8-0.9l-4.2-8.1l-0.1-4.1l-3.3-3.8l-3-1.5l1.7-2.5l-1.5-3.6l0.6-2.3l-1.7-1.7l0.5-3.4l2.5-1.3l3.4-5.7l2.4-1.8l0.2-2.2l-3-1l1-3.3l2-0.4v-5.6l-2.7-3.9l2.7-0.5h7.1l-0.1,0.4l0.3-0.4h0.1l0.2,1.1L566,329l2.3,2.9l-0.7,2l2.9-3.3l1.1,1.4l6.2,0.6l4.6-2.1l-1.9-1.7l0.6-3.8l3.1-3.2l26.3,14.9l-0.4,3.5l11.7,8.7l-0.4,3.2l-2.7,6.9l0.5,2.3l4.5,3.8l0.6,2l-2,3.5l1.3,3.1l-1.3,2.3l0.6,3l2.1,3.6l1.1,4.9l-0.7,0.8l5.4,3l-0.1,1l-3.2,2.5l-5.3,2.6l-2.9,0.1l-3,1.8l-1.7-1l-2.8,0.2l-0.7,1.9l-2.6,1.2l-4.5-1.1l-1.9,1.2l-2.7-0.3l-2.7-2.2l-1.8,1.4L590.7,400.5z"/>
<path data-code="3004" d="M239.2,259.7l0.6,1.5l-0.6-0.5l-2.6-0.7L239.2,259.7z M256.2,252.8l-0.6,2.5l-1.9,1.1l0.1,1.9l-5.5,4.8l-0.7,1.7l-2.7-1.7l-5-1.7l0.7-1.2l-4.1-2.7l-0.2-2.6l-1.4,0.6l-1.2-6.5l2-0.5l2.4-2.5l1.4-3.4l4.4-1.1l4.7-0.1l4.5,5.1l1.5,4.8l-1.8,2.6L256.2,252.8z"/>
<path data-code="3005" d="M212.1,232.9l1.9,0.2l0.3,0.8l-2.5,0.2L212.1,232.9z M220.7,234.7l-2.9-1.7l-0.5-2.3l3-0.8l-1.2-1.2l-3.2,2l2.1-3.5l-4.4,1.9l-5.8-4.5l3.7-1h4.1l3.6-1.9l10.9-0.2l0.2,3.1l-1.9,0.9l1.9,1.1v2.3l-4.1,0.4l-3,1.3L220.7,234.7z"/>
<path data-code="3006" "bulunmadı" d="M151,206.5l-1.4-0.7l0.9-1l0.8,0.8L151,206.5z M155.3,202.6l2.3,2.3l-0.3,0.8l-2.1-0.9L155.3,202.6zM159.5,202.4l0.5,1.2l-0.5,0.5l-0.6-0.5L159.5,202.4z M161.8,195.6l1.2,0.2l-0.8,1.4l-1.1-0.2L161.8,195.6z M151,192.4l0.5,0.3l-0.7,0.9l-0.7-1.4L151,192.4z M144.9,188.2l0.9,0.7l-2.4,1.5l-0.2-1.4L144.9,188.2z"/>
<path data-code="3007" "bulunmadı" d="M741.9,349.9l0.5,0.5l-0.2,0.8l-0.4-0.8L741.9,349.9z"/>
<path data-code="3008" d="M412,44l1,0.9l-1.2,1.3l-1.2-2L412,44z M416.4,50.4l-0.4,4.9l0.9,1.5l-5.2,3l-5.7,6.5l1.2,4.3l-3,5.1l-2.6,1.1L398,60.5l-5.5-4.4l-1.8-4.8l-2.5-1l-2.1-6.2l2.6-4.7l3-2.2l0.6-9.3l-0.6-1.7l1.2-7.6l1.4-2.9l4.6-2.9l4.9-0.9l3.1,1.4l-0.7,1l2,3.2l4.6-3.3l0.6,2l-2.5,4l-2.1,1.1l0.7,4.5l3.4,2.3l0.8,3.5l-4.2,6.4l-3.5,2.1l-0.6,3.1l2.1,2.6l2.9-0.1v2l2-1.4l1.5,3.8L416.4,50.4L416.4,50.4L416.4,50.4z"/>
<path data-code="3009" d="M688.6,413.9v1.3l-0.8-0.3l-0.1-1H688.6z M667,510.2l-2.6,0.1l-2.2-2l-3.4-0.8l-2.4-2.1l-2.3-4.7l-0.5-6.2l0.9-1.5l-2.9-5l-1-4.8l2.1-7.2l2.2-0.7l0.7-2.7l4.3-7.5l0.1-3l-1.8-3.7l0.2-2l-1.5-2.9l-0.7-7.5l3.6-5.8l0.2-3.9l2.9,0.3l3.1-2.3l2.5,0.5l0.6-1.6l3.8-0.5l5.5-3.8l-0.2,2.5l2-0.7L679,429l3-4.1l0.1,3.2l2-3.6l-0.3-1.8l2.5-2.1l-1.2-2.3l0.7-2l2.7,2l0.7-2l2.4-0.8l1.6-4.5l-0.5-1.9l2.8-4.7l2.1,5.1l2.7,3.2l1.4,5.7l0.6,7.2l1.8,5.5l-1.9,4L701,434l-1-3.3l-1.9,0.9l1.5,7.7l-3.1,5.7l0.5,2.9l-1.1,5.9l-2.1,5l-3.9,11.8l-2.7,9.6l-2.6,7.5l-2.2,8.8l-3.3,8.7l-3.4,2l-3.1,0.1L667,510.2z"/>
<path data-code="3010" d="M584.5,322l0.7-5.1l5-0.4l-0.8-1.7l-3.6,1.3l-1.9-1.7v-2.2l3.8-6.3l2.1-1l1.4-3.2l-0.4-6l-2.5-3.5l-1.4-3.2l0.5-2.1l-2-0.8l-1.4-3.4l3-2.9l7.6-3.1l1.5,3.1h2.3l0.9,1.4l5.9,0.1l9.3,6.3l2.9-0.1l7.7,1.7l2.3-3.5l6.8-3l2.6,2.4l5.7-0.1l-4.1,5.8l-2.7,2.6l-0.2,27.6l4,5.2l0.1,0.9l-1.9,2l-2.9,0.4l0.3,1.4l-2.3,2.5l-3.3,1.6l0.3,1.7l-1.9,2.9l-1.4,4l-2.8,5.2l-1.6,0.5l-11.7-8.7l0.4-3.5L584.5,322z"/>
<path data-code="3011" d="M547.7,328.3l0.1,2.2l-0.6,0.3V330L547.7,328.3z M563.9,297.9l-5.8,5.1l-0.1,1.9l-4.1,3.3l0.1,2.2l-1.9,4.4l-2.8,3l0.5,1.4l2-1.6l-0.6,3.2l0.2,3.5l-1.6,0.8l-1,1.3l-1.2-0.7l-1.5,4.1l0.1,2.6l0.1,1.3l0.9,0.5l1.6,2.4l-0.2,2.2l-0.9,5.2l0.8,3.6l-0.8,4.1l2,4l-1.4,2.3l2.3,5.8l5,5.1l0.6,3.4l2.3,3l-12.2,1.8l-0.2,0.1l-4.1,4.4v3.4l1.4-1.1l1.1,3.2l-0.3,5.4l-2.1,6.9l1.1,3.2l3.8,3.8l3.4,0.6l-0.2-1.6l2.4-0.6l-0.1,9.6l-1.6-1.5l-3,1.5l-6-7.4l-5.1-1.2l-3.3-5.5l-3.6,3.4l-5.1-0.8l-4.7-2l-0.5-3.3l-7.3,1.4l0.7-2l-3.1-1.8l-1,1.1l-2.5-0.5l-3.5,1l-3.5-0.5l-2.2,1.6l-0.6-3l1.1-3.6l-1.1-3.3l-2.3-2.3l0.6-9l-1.3-3l0.2-5.4h-9.3l0.7-2.7l-2.4,0.6h-5.7l-0.1,3.6l-1.2,0.7l0.1,3.2h-8.7l-4.6,0.6L457,364l-1.2-5.8l-2.1-0.5l-11.9,0.2l-11.2-0.1l-5.4,1.5l-1.8-2.2l2.1-0.3l-0.5-5l4.6-3.2l2.1,1.2l2.6-0.8l4.9-3.1l0.2,4.5l3.2-0.5l2.7-3.5l2.7-2.3l2.3-0.7l2.5-4.9l-0.4-3l0.4-5.7l2.1-2l2.3-4.4l3.4-1.8l3.3-3.7l-0.2-2.4l1.7-5l-0.6-4.1l1.5-4l-0.1-4.5l4-7.2l0.1-2.6l0.2-3.8l-0.8-2.4l1.4-0.5l2.7-4l2.4-1.7l2.3-0.1l4.6,2.7l1.9,2.7l2-0.3l2.5,1.2l3.8-0.1l5.2,1.2l3.5-5.1l3.6,1.7l8.1-3.8l2.3,1.4l3.8-0.8l0.4-2l3.4,0.8l2.2-0.5l2.5,1.5l3,0.2l1.9-1.2l2.4,1l2.4,3.5l4.7,2.4l2.6-2l3.1,1.6l2.1-2.4l5.5,5.4l2.4,0.6l0.1,2l2.2,0.9l-0.7,3.4l0.8,1l-1.1,3.2L563.9,297.9z"/>
<path data-code="3012" "bulunmadı" d="M740.4,473.4l2.6,2.3l-0.3,1.3l-3.4-0.5l-1-1.7L740.4,473.4z M666.4,409.9l-0.7,0.5l-0.2,1l-0.9-1.9L666.4,409.9z"/>
<path data-code="3013" d="M265.7,103.7l23.9,15.3l5.3,3.5l0,0l-13.2,0.2l5.4,44.6l2.8,23.4l2,1.7l-1.1,6.3l-28.6,0.5l-3.6,1l-6.7-0.2l-1.3,2.5l-3.7-3.8l-2.3,0.5l-0.6,5l-3.3,1.1l-3.9-2.9l-1.4-2.7l-2-0.8l-1.9-4.1l-2.4,0.3l-4-3.9h-4.4l-5.5,1.4l-4.9,0.2l-1.5,5.3l0.5-6.6l2-4.9l1-5.5l-1.5-8.1l-2.4-3.2l2.3-6.6l-2.5-4.1l-1,0.5l-2-3.8l-1,3.2l0.6-4.5l29.4-0.6l-0.7-9.4l-0.6-2l1.1-2.3l2.9-2.1l4.5-1.9L241,115l24.7-0.4V103.7z M294.9,122.5L294.9,122.5L294.9,122.5L294.9,122.5z M294.9,122.5L294.9,122.5L294.9,122.5L294.9,122.5L294.9,122.5L294.9,122.5L294.9,122.5z"/>
<path data-code="3014" d="M289.6,119l-23.9-15.3l-0.1-3.2l-0.2-8.6l7.9-6.4l3.6-1.1l10.4-1.1l1.6,0.8l1.9-3.2l6.7-5.5l5.4-2l0.6-2.1l-2-3.2l1.1-2.9l6.2-1.4l-0.8-2.3l3.2-0.8l9.5,0.3l1.5-3.9l-2.9-2l-1.9-4.4l-0.1-7.9l-1.5-4.5l0.8-1.3l-3.4-3.2l3.4-0.4l3.7-2.5l0.6-1.7l6.3-3.2l1.7,1.1l1.9-2.5l6.8-4.2l11.9-1.2l2.3-2l4,0.2l2.7-1.3l7.2,0.2l3.4,2.2l7.2-2.4l1.1-1.6l4.3,1.6l3.6-1.8l4,2.3l5.2-1l-1.4,2.9l-1.2,7.6l0.6,1.7l-0.6,9.3l-3,2.2l-2.6,4.7l2.1,6.2l2.5,1l1.8,4.8l5.5,4.4l3.7,16.2l-1.8,1.1L403,82l1.2,4.2l-0.3,7.4l1.2,3.5l-1.6,4.8l1.4,3.8l-0.5,2.9l-2.7,1.4l-0.6,2l4.3,6l0.5,4.6l2.7,3.1l2.5-0.7l6.3,2.3l3,6.2L387,155.2l-12.2,11.2l-11.9,2.8l-6.8,1.3l-1.6-1.3l1.1-1.7l-0.3-3.4l-6.1-2l-1.6-1.8l-2.1,0.5l-1.9-2.3l-3.6-1.7l-0.2-2.9l-44.9-31.2l0,0l0,0l0,0l0,0l0,0l0,0l0,0L289.6,119z"/>
<path data-code="3015" d="M629.3,194.4l2.7,2.5l-2-0.4l-1.4-0.9L629.3,194.4z M652.1,219.2l-3.3,2.6l-2.3-0.9l-3.2-3.2l-1.7-2.9l-3.8-2.9l-2.7-3.8l-5.4-2.9l-4.4-0.8l-2.3,1l-1-1.6l-4.9,1.7l-4-3.5l-2.4,5.8l-2-2.6l-1.6,1.4l-4.1,0.2l-0.7-6.6l4-8.8l-0.5-2.2l1-4.2l3,0.3l0.8-2.3l5.2-1.6l2.9-3.8l2.4,4.8l1.7,6l0.5,4.1l1.6,4.6l1.9,2l1.1-1.8l3.1,4.6l1.8-0.7l1.8,2.3l2.9,0.5l3.8,5.4l4.5,2.8l3.6,5.5L652.1,219.2z"/>
<path data-code="3016" d="M397.6,286.5l1.4,0.8l-2,3.3l-1.6-0.5L397.6,286.5z M416.5,298.2l0.2,8.7l-11.3,0.1l-3.4-1.4l3.3-5.4l-0.1-3.3l1.4,1.4L416.5,298.2z"/>
<path data-code="3017" "bulunmadı" d="M756.7,467.6l-0.3,3l-2.1,0.2l1.2-3.8L756.7,467.6z"/>
<path data-code="3018" d="M208.9,214.9l-2.9-6l-1.8-2.2l-2.7-0.8l2.9-1.4l4.3-6.9l1.5-5.3l4.9-0.2l5.5-1.4h4.4l4,3.9l2.4-0.3l1.9,4.1l2,0.8l1.4,2.7l3.9,2.9l0.3,2.9l2,3.7l-1,1.6l3.7,2.6l1.8,3.3v4.1h-5.1l-2.1,0.8l-5.4-1.5v-0.9l-4.9-0.2l-10.9,0.2l-3.6,1.9h-4.1l-3.7,1l-0.3-1.9l0.1-3.7l0.6-0.8l6.2-0.1l0.1-1.3l4.4-0.9l0.6-1.2l5.6,2.6l4-0.8l-1.1-1.9l-2.7,1.1l-1.8-1.6l-3.8-1.1l-3.1,1.9L208.9,214.9z"/>
<path data-code="3019" "bulunmadı" d="M660.5,404.9l0.2,2.2l-2.3-1.7l1.2,0.2L660.5,404.9z M653.1,403.6l-1.5-0.9l0.2-3.3l0.8,0.4L653.1,403.6z"/>
<path data-code="3020" d="M642.1,229.9l-0.8,0.7l0.8,0.8l1.2,1.1l4.9-1.1l2.3,0.7l-2,2.8l1.4,3.2l4.2,6.1l4.5,3.2l21.8,7.7h7.4l-11.6,11.2L665.1,278l-7.2-0.4l-6.3,2.3l-2.5,2.6l-4.8,0.6l-1.9,1.7l-5.7,0.1l-2.6-2.4l-6.8,3L625,289l-7.7-1.7l-2.9,0.1l-9.3-6.3l-5.9-0.1l-0.9-1.4l-1-1.1l0.2-4.1l-3.6-0.3l-2.5-3.7l-1.8-6l-3.2-2.6l-4.3-5.1l-4.9-1.1l1-4.5l5.9-0.3l1.1-1.4l-0.3-6.3l1.9-6.1l-0.3-2.3l2.3-2.3l2.7,0.1l0.7-6.9l1.2-1l3.1-5.1l3.6-0.9l1-5.1l1.1-1.6l1.1-5.4l4.1-0.2l1.6-1.4l2,2.6l2.4-5.8l4,3.5l4.9-1.7l1,1.6l2.3-1l4.4,0.8l5.4,2.9l2.7,3.8l3.8,2.9l1.7,2.9l3.2,3.2l-4.7,7.1V229.9z"/>
<path data-code="3021" d="M309.6,277.4l-1-0.1L309.6,277.4L309.6,277.4L309.6,277.4z M276.6,278.2l1.4-3.8l-0.5-2l-2.7-0.9l-0.8-2.3l-5.3-1.5l2-2l0.3-2.9l-1.4-3.2l1.9,0.1l1.5-4.4l-1.7-2.4l4.1-1.3l-2-1.3l0.6-4.7l-1.5,0.2l-0.8-4.1l1.4-1.7l2.4-2.2l5.3,1.8l1.9-1.2l0.2-2.3l1.9,0.7l1.3-1.3l0.1,3.3l1.7,0.8l1.5-1.7l2.1-0.2l2.3,0.8l1.9,3.2l2.1,1.7l7.5-2.1l3.4,0.2l3.3,3.9l0.5-0.8l-0.6,3.2l1.1,1l0.9,5.4l-2.4,3l-1.4,5.6l-1.6,3.5l2.3,7.5l1.4,0.3l-0.4,3.2l-3.5,0.3l-5-0.8l-13.7,1.7l-7.8,2.9l-4.6,2.3L276.6,278.2z"/>
<path data-code="3022" d="M309.6,277.4L309.6,277.4L309.6,277.4l1-0.1l1.1-0.4l0.4-3.2l-1.4-0.3l-2.3-7.5l1.6-3.5l1.4-5.6l2.4-3l-0.9-5.4l-1.1-1l0.6-3.2l-1.8-9.3l1.2-2l15.2-0.2l4-1.1l1.4,0.5l-0.7,3.2l3.6,2.6l-1.2,5.4l2.3,1.3l-1.1,5.2l2.5,3.2l-1,0.6l0.6,6.6l-0.9,3.7l1.9,3.1l3.1,2.3l-1.4,2l-5,0.5L330,274l-3.1,2.1l-5.7,1.6l-3.8,2.2l-2-1.4L309.6,277.4z"/>
<path data-code="3023" d="M545.2,438.1l-2.4,0.2l-3.2,2.3l-1.7-0.1l-3.3,4.5l-2.2,4.1l-2.3,0.9l-3.7-1.4l-1.6,0.8l-2.1-1.4l-3.1-0.1l-2.2-2l-5.4-0.5l-6.2,1.3l-4.6-3.8l-4.7-4.7l-0.9-2.9l-0.1-24.1l14.8-0.1l-1-1.6l1.2-3l-0.5-5.8l0.7-1.7l-0.7-3.8l3.1,1.8l-0.7,2l7.3-1.4l0.5,3.3l4.7,2l5.1,0.8l3.6-3.4l3.3,5.5l5.1,1.2l6,7.4l3-1.5l1.6,1.5l0.1-9.6l-2.4,0.6l0.2,1.6l-3.4-0.6l-3.8-3.8l-1.1-3.2l2.1-6.9l0.3-5.4l-1.1-3.2l3.6-2.9l1-2.3l-1.9-1.4l0.2-0.1l12.2-1.8l-0.7,2.1l2.4,0.4l1.7,1.8l1-1.6l2.8,0.9l3.2,2.7l2.9,0.5l4,2.1l3.3,3.7l2.2,5.1l-2.6,1.9l0.5,2.6l-1.2,1.9l0.2,5.5l0.8,2.9l-3.1,1.6l0.3,3.5l-1.4,3.9l1.4,2.6l1.5-0.2l-21.9,7.2l1.4,5.1l-4.1-0.2l-3.1,0.8l-4,2.5L545.2,438.1z"/>
<path data-code="3024" d="M505.7,446.7l6.2-1.3l5.4,0.5l2.2,2l-2.2-0.1l-3.3,2.1l-2.4-0.2l-4.4,3.4l-2-3.5h-2.4l-11,2.2l-3.7,0.2l0.1,28.6l-7.3,0.3l0.1,22l0.1,29.9L478,534l-3.5,3.5l-2.4-1l-4.2,0.5l-5.5-1.6l-0.5-4.1l-3.3-1.2l-0.7,2.4l-2.3,1.7l-1-0.1l-4.9-5.1l-2.9-5.2l-2.4-8.1l-0.9-4.7l-0.5-7.8l-2.3-5.2l0.4-10.5l-1.1-4.6l-3.2-3.8l-0.8-2.6l-3.3-5l-1.8-5.2l-6.4-11.4l-3.2-4.3l-1-4.6l0.3-2.3l1.9-0.8l3.8,0.7l4.5-2.3l5.7,3.5l1.9-0.2l31-0.1l2.3,2.8l9.3,1.1l2.2-0.3l3.4,1.4l4.4-0.2L505.7,446.7z"/>
<path data-code="3025" d="M557.9,322l2.7,3.9v5.6l-2,0.4l-4.6-0.6l-0.2,2.5l-1.5,1.2l-5-0.8l-0.9-0.5l-0.1-1.4l3.6-3.2l-1.1-2.6l1-1.3l1.6-0.8l2.3,0.5L557.9,322z"/>
<path data-code="3026" d="M695.2,230.7l-0.2,13.6l-7.2,10.9h-7.4l-21.8-7.7l-4.5-3.2l-4.2-6.1l-1.4-3.2l2-2.8l2.4-3.7l4.4,5.3l3.3,2.6l5.1,0.4l6.3-3.5l4.7,1.4l6.8-3.6l5.9,0.3l3.7-1.4L695.2,230.7z"/>
<path data-code="3027" d="M687.8,255.2l7.2-10.9l0.2-13.6l4.7-1.6l5.1-0.9l4-3l3.7,1.2l-1.6,5l0.6,4.7l1.6,0.7l-3.5,1.1l-0.7,6.6l-3.1,4.4l-1,2.8l-3.4,3.9l-0.2,1.7l-3.4,5.3l-2.5,6.6l-2.9,5l-5.3,7.5l-9.9,10.6l-4.5,4.3l-11,6.4l-8,6.9l-10.3,10.9l-4.1,6.1l-0.1-0.9l-4-5.2l0.2-27.6l2.7-2.6l4.1-5.8l1.9-1.7l4.8-0.6l2.5-2.6l6.3-2.3l7.2,0.4l11.1-11.7L687.8,255.2z"/>
<path data-code="3028" d="M438.2,215.8l-0.3,1.5l1.8-0.7l2.4,2.6l0.6,3.8l1.1,0.5l0.7,4.2l-0.8,2.7l0.3,2.9l1.8,3.6l2.8,2.4l-7.1,0.6l-4.1-0.5l-1.8,2.6l3,3.6l6.2,5.1l2.3,7.2l-1.9,2l-3.7,7.5l-2.4,1.7l1.4,0.8l1,9.7l2.1,1.7l1.2,4.8l6.8,6.6l0.8,4.6l-0.2,3.8l-6.8-2.2l-2.5,0.2l-2.4-1.5l-2.2,0.4h-7.2l-0.4-0.8l-14-0.1l-0.2,1l-9.8,0.1l-1.4-1.4l1.1-5.4l-2.3-3.4l-0.2-3.2l-2.3,0.2l-2.5-1.3l-0.3-3.4l-3.1,0.2l0.6-2.1l0,0l1.5-2.6l0.4-5.1l9.3-8.7l2.8,0.9l0.8-1.4l5.4,4.7l1.8-3.3l2.4-1.7l-1.1-1.2l3.4-5.4l0.2-3.1l4.2-3.4l0.4-4.1l2.5-1.3l0.3-4.1l1.4-0.5l1-4l3.1-4.6l1.4,0.3l3.2-2l0.5-5.1l-3.6-1.7l-0.9-5.3L438.2,215.8z M438.7,215.8l0.1,0.2l-0.2-0.2H438.7z"/>
<path data-code="3029" d="M431.1,298.2h7.2l2.2-0.4l2.4,1.5l2.5-0.2l6.8,2.2l0.2-3.8l2.1-4.4l0.6-4.7l6.6-1.9l2.8,1.3l4.6-0.7l1.1,1.1l-0.1,2.6l-4,7.2l0.1,4.5l-1.5,4l0.6,4.1l-1.7,5l0.2,2.4l-3.3,3.7l-3.4,1.8l-2.3,4.4l-2.1,2l-0.4,5.7l0.4,3l-2.5,4.9l-2.3,0.7l-2.7,2.3l-2.7,3.5l-3.2,0.5l-0.2-4.5l-4.9,3.1l-2.6,0.8l-2.1-1.2l-1.6-1.7l-3.4,1.6l-2.8,3.1l-1.4-3l-5.3-5.1l2.7-3.2l1.2,1.3l2.1-2.9l-1.9-1l-1-6l3.7,0.5l2.9-0.6l-0.3-3.2l2.8,0.1l1.2,3.4l3.7,0.5l2-2.5l2.5,2.9l2.8-7.1l-0.5-3.8l0.7-2.9l-2.8-2.4l-2.1-0.8l0.3-3l4.4-5.3l-2.1-3.5l-2.9-0.3l-4,1.6l-0.8-2.9L431.1,298.2z"/>
<path data-code="3030" d="M204.2,158.5l-0.3-0.5l0.6-4.7l9.4-0.7l6.8,0.2l1.5-3.3l3-3.8l1.3-9l1.8-3.2l3.4-1.7l1.8-3.5l4.6-3.6l2.8-10.1l2.3-0.6l2.8-4.5l-0.5-2.1l3.5-1.1l5,1.1h3.9l2.4-2l4.6-0.4l-0.2-4.6h1l0.1,3.2l-0.1,10.9L241,115l0.3,20.7l-4.5,1.9l-2.9,2.1l-1.1,2.3l0.6,2l0.7,9.4l-29.4,0.6L204.2,158.5z"/>
<path data-code="3031" d="M352.6,267.4l-6,0.8l-2,0.5l1.2-0.5l-1.6-2.9l0.5-2.4l-0.4-15.5l-1.3-1.8l-0.7-5.4l-4.2-2.8l1-4.7l1.6-0.5l2.4-3.2l4.2,0.3l2.8-3.6l-0.2-2.4l3.6-1.4l5.6,5.3l-0.8,2.3l1.8,2.1l0.9,3.8l-2,2.4l-0.4,3.3l-2.8,3.2l-0.2,2.3l-2.4,0.5l-0.7,8.8l0.8,6.5L352.6,267.4z"/>
<path data-code="3032" d="M349.8,225.6l-2.8,3.6l-4.2-0.3l-2.4,3.2l-1.6,0.5l-3.1-0.1l-4.8-0.9l-4,1.1l-15.2,0.2l-1.2,2l1.8,9.3l-0.5,0.8l-3.3-3.9l-3.4-0.2l-7.5,2.1l-2.1-1.7l-1.9-3.2l-2.3-0.8l0.1-4.7l2.1-2.9l-0.5-3.2l5.3-2.4l1.2-2.9l-0.7-1.4l2-0.8l-1.1-2.3l2.8-2.7l3.8,2.3l1.5-1l-0.2-3.2l2.8,0.5l0.4-3.1l2.8-1.9l3.3,0.7l0.4-2.3l2-0.1l4.8-2.6l2.1-2h3.8l3.4,1.1l-0.5,2.8l3.6,6.6l2.4,0.8l0.2,3.9l4.2,3.2l4.2-0.5l1,2.1l-1.3,0.9L349.8,225.6z"/>
<path data-code="3033" d="M344.6,268.6l-1.4,0.3l-1.8,0.6l-3.1-2.3l-1.9-3.1l0.9-3.7l-0.6-6.6l1-0.6l-2.5-3.2l1.1-5.2l-2.3-1.3l1.2-5.4l-3.6-2.6l0.7-3.2l-1.4-0.5l4.8,0.9l3.1,0.1l-1,4.7l4.2,2.8l0.7,5.4l1.3,1.8l0.4,15.5l-0.5,2.4l1.6,2.9L344.6,268.6z"/>
<path data-code="3034" d="M358.7,227.1l-5.6-5.3l-3.6,1.4l0.2,2.4l-2.4-3.2l1.3-0.9l-1-2.1l-4.2,0.5l-4.2-3.2l-0.2-3.9l-2.4-0.8l-3.6-6.6l0.5-2.8l5.6-0.7l2.7-2.3l16.2-0.8l2.7-2.8l2.3-5.5l0.3-4.5l-0.2-16.9l11.9-2.8l12.2-11.2l33.3-21.7l11.3,2.6l5.7,4.5l5.5-3.1l1.5,8.1l0.1,4l3.2,4.4l-0.5,1.2l3.1,3.4l-1.6,3.8l-1.9,23.6l-8.1,9.2l-4,5.7l-0.5,2.3l-2.3,2.6l1.2,5.2l-1.9-0.1l-5.9,3.7l-0.7,1.4l-3.1-0.4l-4.6-1.9l-5.7-0.1l-5.5,1.9l-2.1,2.4l-7.2-0.7l-4.5-2.9l-2.4-0.1l-2.7,1.7l-3.6,0.8l-4-4.7l-6-1.8l-2.1,0.9l-5.7,0.5l-2.8,1.7l-0.3,3.6l-3.2,3.6L358.7,227.1z"/>
<path data-code="3035" d="M442.8,137.5l-5.5,3.1l-5.7-4.5l-11.3-2.6l-3-6.2L411,125l-2.5,0.7l-2.7-3.1l-0.5-4.6l-4.3-6l0.6-2l2.7-1.4l0.5-2.9l-1.4-3.8l1.6-4.8l-1.2-3.5l0.3-7.4l-1.2-4.2l-2.9-4.3l1.8-1.1l2.6-1.1l3-5.1l-1.2-4.3l5.7-6.5l5.2-3l-0.9-1.5l0.4-4.9l0,0l0,0l6.3,3.1l2.9,0.3l4.6-1l6.2,1.6l2.2,1.8l5.4,1.1l2.3,6.5l4.2,3.5l5.1,0.4l4.8,1.2l6,2.6l5.9,4.4l2.8-0.2l3.1-1.8l2.1-2.8l0.8-3.5l-1.7-4.4l1.1-4.1l3.7-3.5l7.9-3.3l4-0.2l7.1,2.6l0.1,2.9l7.5,2.8l6.7,0.4l1.3,2.8l-2.2,2.4l1,5.3l-2.3,5.7l2.2,8.4v60v16.1l-7.5,0.1v3.9l-59.6-31.7L442.8,137.5z"/>
<path data-code="3036" "bulunmadı" d="M269.6,259.6l1.4,3.2l-0.3,2.9l-2,2l5.3,1.5l0.8,2.3l2.7,0.9l0.5,2l-1.4,3.8l0.4,5.3l-5.4-1.6l-7.6-4.1l-8.4-7.5l-7.1-3.8l-1-1.6l0.7-1.7l5.5-4.8l-0.1-1.9l1.9-1.1l0.6-2.5l3.5-0.3l2.3,1.2l1.2,5.4l-0.8,1.4l2.5,1.7l2-0.6l1.2-3.2L269.6,259.6z"/>
<path data-code="3037" d="M590.4,399.3l-0.1-0.2h-0.1h0.1L590.4,399.3z M589.1,398.2L589.1,398.2L589,398L589.1,398.2L589.1,398.2zM585.8,386.5l-0.7-0.8l0,0L585.8,386.5z M584.4,385.1l-0.1-0.1L584.4,385.1L584.4,385.1z M575.8,384.2l3.6,1.5l3.7,0.8l0.3,2.1l2.3,3.4l-0.5,1.4l0.7,8l-2.1,3.8l2.2,6.2l-0.1,2.9l2.3,2.3l-0.8,2.1l1.3,2.3l1.2-2l2.8,3l-1.4-5.1l-1.5-1.7l1.6,1.4l5.6,7.4l-0.5,4.1l0.1,6.2l-3.1,1.1l-1.8,3l1.1,1.3l0.1,3.2h-1.5l-0.6-2.3l-4.5-4.9l-1.1-2.3l2.5-4.7l-0.5-5.3l-1.1-1.4l-4.6,0.7l-0.6,0.9l-3.2-4.4l-1.5,0.2l-1.4-2.6l1.4-3.9l-0.3-3.5l3.1-1.6l-0.8-2.9l-0.2-5.5l1.2-1.9l-0.5-2.6l2.6-1.9l-2.2-5.1L575.8,384.2z"/>
<path data-code="3038" "bulunmadı" d="M207.6,218.9l-0.6-2.1l1.9-1.9l0,0l7.7-0.2l3.1-1.9l3.8,1.1l1.8,1.6l2.7-1.1l1.1,1.9l-4,0.8l-5.6-2.6l-0.6,1.2l-4.4,0.9l-0.1,1.3l-6.2,0.1L207.6,218.9z"/>
<path data-code="3039" d="M439.7,216.7l2-0.8l-1.8-1.4l-1.2,1.3h-0.2l-0.6-0.4l0.3,0.4l-1.9,0.1l-3.4-4.8l-1.2-5.2l2.3-2.6l0.5-2.3l4-5.7l8.1-9.2l1.9-23.6l1.6-3.8l-3.1-3.4l0.5-1.2l-3.2-4.4l-0.1-4l-1.5-8.1l7.5-3.7l59.6,31.7l0.1,29.7l-6.6,0.2l-1.2,1.1l0.3,2.6l-2.2,4.2l-2.3,1.1l1.2,3.3l-3.4,2.6l1.5,3.4l-2.5,2.1v3.2l2-0.8l3,5.1l-0.6,3l2.8,2.2l-0.4,3.6l-3-0.6l-5.4,2.8l0.2,1.7l-5.4,5.1l-1.4,2.5l-2.9,2.1l-9.9,1l-1.7,1.1l1.9,1.4L470,254l-6.7,0.5l-6.8,3.2l-1.6-2.3l-1.3,1.4l-4.2,1.7l-2.3-0.5l-2.3-7.2l-6.2-5.1l-3-3.6l1.8-2.6l4.1,0.5l7.1-0.6l-2.8-2.4l-1.8-3.6l-0.3-2.9l0.8-2.7l-0.7-4.2l-1.1-0.5l-0.6-3.8L439.7,216.7z"/>
<path data-code="3040" d="M405.4,307l11.3-0.1l-0.2-8.7l0.2-1l14,0.1l0.4,0.8l-1.1,4.1l0.8,2.9l4-1.6l2.9,0.3l2.1,3.5l-4.4,5.3l-0.3,3l2.1,0.8l2.8,2.4l-0.7,2.9l0.5,3.8l-2.8,7.1l-2.5-2.9l-2,2.5l-3.7-0.5l-1.2-3.4l-2.8-0.1l0.3,3.2l-2.9,0.6l-3.7-0.5l1,6l1.9,1l-2.1,2.9l-1.2-1.3l-2.7,3.2l-3.4-3.5l-0.1-1l-5.4-4.5l-4.7-6.1l0.6-3.9l-2.4-0.4l-2.5-5.3l2.5,0.9l1.6-2.2l0.3-5.5l1.4,1.6l2.4-0.1l-2.4-1.3l-1.4-2.5l2.4,0.2l-0.6-2.6L405.4,307z"/>
<path data-code="3041" d="M650.5,232.1l-2.3-0.7l-4.9,1.1l-1.2-1.1l0.7-0.6l-0.7-0.8l-0.2-2l4.7-7.1l2.3,0.9l3.3-2.6l1.5,1.7l0.3,3.7l-4.6,2.3l-0.1,1.1l3.7,0.6L650.5,232.1z"/>
<path data-code="3042" d="M551.9,347.1l-2.3-5.1l-1-3.2l0.2-2.2l-1.6-2.4l5,0.8l1.5-1.2l0.2-2.5l4.6,0.6l-1,3.3l3,1l-0.2,2.2l-2.4,1.8l-3.4,5.7L551.9,347.1z"/>
<path data-code="3043" d="M423.5,357.1l0.1-2.1l-1.6-3.4l2.8-3.1l3.4-1.6l1.6,1.7l-4.6,3.2l0.5,5L423.5,357.1z M457,364l2.4,4.7l3.4,5.5l4.6-0.6h8.7l-0.1-3.2l1.2-0.7l0.1-3.6h5.7l2.4-0.6l-0.7,2.7h9.3l-0.2,5.4l1.3,3l-0.6,9l2.3,2.3l1.1,3.3l-1.1,3.6l0.6,3l2.2-1.6l3.5,0.5l3.5-1l2.5,0.5l1-1.1l0.7,3.8l-0.7,1.7l0.5,5.8l-1.2,3l1,1.6l-14.8,0.1l0.1,24.1l0.9,2.9l4.7,4.7l4.6,3.8l-14.5,2.9l-4.4,0.2l-3.4-1.4l-2.2,0.3l-9.3-1.1l-2.3-2.8l-31,0.1l-1.9,0.2l-5.7-3.5l-4.5,2.3l-3.8-0.7l-1.9,0.8l0.4-6l-0.6-5.2l1.8-1.4l2-6.6l0.4-5.1l1.2-1.8l0.1-3.2l3.2-3.5l-0.1-1.3l3.1-1.7l2-2.6l1.1-3.6l0.3-5l-0.7-3.5l-4.1-7.1l-1.5-4.5l2.8-2.6l-0.1-3.2l-3.8-7.9l-0.2-2.7l-1.5-1.3l-2.6-4.5l3.4-0.5l3.2-1.4l11.2,0.1l11.9-0.2l2.1,0.5L457,364z"/>
<path data-code="3044" d="M233.7,249l-2.3-5.5l-6.5-3.3l-1.2-3.5l-3.1-2l2.4-4.2l3-1.3l4.1-0.4v-2.3l-1.9-1.1l1.9-0.9l-0.2-3.1l4.9,0.2v0.9l5.4,1.5l2.1-0.8h5.1l-0.8,1.6l2.4,1.3l2.1-1.4l1.5,2.4l3.3-2.6l4.1,1.4l3-2.5l2.4-0.4l1.5,3.6l-0.4,2l3.6,2.1l-1.8,1.8l2.3,1l0.2,3.5l2.3,2.9l-1.4,1.7l0.8,4.1l1.5-0.2l-0.6,4.7l2,1.3l-4.1,1.3l1.7,2.4l-1.5,4.4l-1.9-0.1l-1.5-1l-1.2,3.2l-2,0.6l-2.5-1.7l0.8-1.4l-1.2-5.4l-2.3-1.2l-3.5,0.3l-3.3,1.2l1.8-2.6l-1.5-4.8l-4.5-5.1l-4.7,0.1l-4.4,1.1l-1.4,3.4l-2.4,2.5L233.7,249z"/>
<path data-code="3045" d="M519.5,447.9l3.1,0.1l2.1,1.4l1.6-0.8l3.7,1.4l2.3-0.9l4.9-5.8l2.6-0.9l0.5-1.9l4.4-0.3l2.1-1.4l-1.8-0.7l0.7-3.7l4-2.5l3.1-0.8l4.1,0.2v2.7l6.3,0.2l4.7,3.1l2.8,0.3l5,1.7l-1.1,2l1.4,3.2l-0.6,4l0.7,3.6l-1.1,3.5l-1.4,0.3l1.2,2.3l-0.7,2.7l1.9,2.5l-0.2,2l-2.7,4.1l-1,0.1l-0.8,5.7l-8.2,8.7l-3.3-0.9l-4,0.4l-4-1.6l-3,0.4l-2-1.1l-0.2-2l-7.3-1.7l-2.6-3.8l0.2-4.6l-3.1-0.1l-0.4-3l-3.6-1.4l-4.4-3.5l-1.4-4.5l-5.2-7.7L519.5,447.9z"/>
<path data-code="3046" d="M569.4,519.9l1.8,0.2l4-0.2l-2.6,11.2l-1.2,3l-4.6,3.4l-4.1,5.1l-5.8,10.9l-2.8,3.8l-4.5,3.8l-3.8,4.7l-7.1,6.6l-5.5,3.8l-4.6,2.4l-4.1-0.5l-2,0.8l0.2,2l-5.4-0.4l-0.7,1.8l-8.9-1.8l-1.6,1.1l-6.1-1l-6.3,3.5l-5.7-0.2l-2.8,0.8L481,588l-2.3-0.3l-2.7-3.3l-3.4-0.3l0.3-1.9l-3.9,0.1l1.2-2.6l-4.7-9.1l3.1-1.5l0.5-3.4l-1.3-5.1l-2-2.7l-4.5-8.4l-3.5-10.8l-2.3-4.2l2.3-1.7l0.7-2.4l3.3,1.2l0.5,4.1l5.5,1.6l4.2-0.5l2.4,1l3.5-3.5l3.1-1.2l-0.1-29.9l2.8,2.3l1.8,3.2l1.7,5.7l-1.6,2.4l0.5,3.8l7.3-0.3l7.5-7.2l0.9-4.1l1.2-1.4l3.3-0.2l3.4,2.8l6.4,1.7l5.7-1.7l2.1-7.2l3.9-0.9l3.2-3.1l1.1-4.8l5.5-3.4l4.3-5.1l4.2-1.1l1-1.8l2.2-0.3l3-0.4l4,1.6l4-0.4l3.3,0.9l1.8,6.1l-0.1,2l2.4,4.3l1,3.8l-0.3,12.4l-3.8-1.8l-2.3,1.4l-2.4,4.5l0.1,2.9l2.6,3.2l5.9,0.9l0.2-4.1L569.4,519.9z M541,548.5l6.8-3l0.1-2l2-2.7l-5.8-6.5l-1.8,0.5l-4.6,2.3l-2.4,4.1l-2.9,1.9l2.1,4.3l3.1,3.9l2.4,0.5L541,548.5z"/>
<path data-code="3047" d="M575.1,520l-4,0.2l-1.8-0.2l-0.5-4.5l-0.7-2.7l0.3-12.4l-1-3.8l-2.4-4.3l0.1-2l-1.8-6.1l8.2-8.7l0.8-5.7l1-0.1l2.7-4.1l0.2-2l-1.9-2.5l0.7-2.7l-1.2-2.3l1.4-0.3l1.1-3.5l-0.7-3.6l0.6-4l-1.4-3.2l1.1-2l-5-1.7l-2.8-0.3l-4.7-3.1l-6.3-0.2v-2.7l-1.4-5.1l21.9-7.2l3.2,4.4l0.6-0.9l4.6-0.7l1.1,1.4l0.5,5.3l-2.5,4.7l1.1,2.3l4.5,4.9l0.6,2.3h1.5l-0.1-3.2l-1.1-1.3l1.8-3l3.1-1.1l-0.1-6.2l0.5-4.1l-5.6-7.4l-1.6-1.4l-0.7-4.3l0.5-1.7l-0.9-4l1.3-1.1l0.7-3.5l4.5,0.2l1.8-1.4l2.7,2.2l2.7,0.3l1.9-1.2l4.5,1.1l2.6-1.2l0.7-1.9l2.8-0.2l1.7,1l3-1.8l2.9-0.1l5.3-2.6l3.2-2.5l1.3,2.8l-1.4,6l1.1,10l-0.4,5.1l2.1,6.3l-0.1,2.6L632,428l-0.2,2.4l-3.2,3.3l-1.9,3.8L621,441l-8.9,3.8l-6,3.8l-4.5,5.5l-6,4.3l-4,4.4l-2.8,1.4l-0.6,4.2l2.4,2.4l0.2,2.7l1.8,4.5l0.3,6l1.2-2.5l0.3,6.5l-1,7.5l0.7,2.2l-2.9,3.9l-3.3,1.7l-6.7,2.3l-6.2,3.5l-2.6,3.2l2.3,2.8l1.1-2.6L575.1,520z"/>
<path data-code="3048" d="M568.2,512.7l0.7,2.7l0.5,4.5l-0.9-0.2l-0.2,4.1l-5.9-0.9l-2.6-3.2l-0.1-2.9l2.4-4.5l2.3-1.4L568.2,512.7z"/>
<path data-code="3049" d="M294.9,122.5L294.9,122.5L294.9,122.5L294.9,122.5L294.9,122.5L294.9,122.5L294.9,122.5l44.9,31.2l0.2,2.9l3.6,1.7l1.9,2.3l2.1-0.5l1.6,1.8l6.1,2l0.3,3.4l-1.1,1.7l1.6,1.3l6.8-1.3l0.2,16.9l-0.3,4.5l-2.3,5.5l-2.7,2.8l-16.2,0.8L339,202l-5.6,0.7l-3.4-1.1h-3.8l-2.1,2l-4.8,2.6l-2,0.1l-0.4,2.3l-3.3-0.7l-2.8,1.9l-0.4,3.1l-2.8-0.5l0.2,3.2l-1.5,1l-3.8-2.3l-2.8,2.7l1.1,2.3l-2,0.8l0.7,1.4l-1.2,2.9l-5.3,2.4l0.5,3.2l-2.1,2.9l-0.1,4.7l-2.1,0.2l-1.5,1.7l-1.7-0.8l-0.1-3.3l-1.3,1.3l-1.9-0.7l-0.2,2.3l-1.9,1.2l-5.3-1.8l-2.4,2.2l-2.3-2.9l-0.2-3.5l-2.3-1l1.8-1.8l-3.6-2.1l0.4-2l-1.5-3.6l-2.4,0.4l-3,2.5l-4.1-1.4l-3.3,2.6l-1.5-2.4l-2.1,1.4l-2.4-1.3l0.8-1.6v-4.1l-1.8-3.3l-3.7-2.6l1-1.6l-2-3.7l-0.3-2.9l3.3-1.1l0.6-5l2.3-0.5l3.7,3.8l1.3-2.5l6.7,0.2l3.6-1l28.6-0.5l1.1-6.3l-2-1.7l-2.8-23.4l-5.4-44.6L294.9,122.5L294.9,122.5L294.9,122.5L294.9,122.5L294.9,122.5z"/>
<path data-code="3050" d="M481,502.8l-0.1-22l7.3-0.3l-0.1-28.6l3.7-0.2l11-2.2h2.4l2,3.5l4.4-3.4l2.4,0.2l3.3-2.1l2.2,0.1l-0.2,1l5.2,7.7l1.4,4.5l4.4,3.5l3.6,1.4l0.4,3l3.1,0.1l-0.2,4.6l2.6,3.8l7.3,1.7l0.2,2l2,1.1l-2.2,0.3l-1,1.8l-4.2,1.1l-4.3,5.1l-5.5,3.4l-1.1,4.8l-3.2,3.1l-3.9,0.9l-2.1,7.2l-5.7,1.7l-6.4-1.7l-3.4-2.8l-3.3,0.2l-1.2,1.4l-0.9,4.1l-7.5,7.2l-7.3,0.3l-0.5-3.8l1.6-2.4l-1.7-5.7l-1.8-3.2L481,502.8z"/>
<path data-code="3051" d="M606.2,145.7v2.8l1.7,3.1l0.8,5.7l-0.4,1.7l1.1,9.6l1.6,3.5l1-0.2l2.9,3.1l3.9,2.7l-2.9,3.8l-5.2,1.6l-0.8,2.3l-3-0.3l-1,4.2l0.5,2.2l-4,8.8l0.7,6.6l-1.1,5.4l-1.1,1.6l-1,5.1l-3.6,0.9l-3.1,5.1l-1.2,1l-0.7,6.9l-2.7-0.1l-2.3,2.3l0.3,2.3l-1.9,6.1h-1.2v-5.6l-5.3-5l-0.7-5.7l1-4.7l-3.5-0.1l0.1,1.6l-4.9,0.1l2,2.2l0.5,5.1l-3.5,2.9l-2,3.4l-3.2,3.2l-3.6,0.5l-5.4-4.1l-2.9,1.6l-1,2.3l-3.5,1.2l-1.2,2h-5.9l-1.1-2l-6-0.1l-3.8,0.7l-4.9-5.1l-0.5-1.7l-5.6,1l-2.2,3.7l-1.7,6.9l-2.9,1.5l-5.1-0.8l-0.1-2.9l1.1-0.8l-0.1-4.7l-2.5-4.1l-3.2-3.6l0.4-3.6l-2.8-2.2l0.6-3l-3-5.1l-2,0.8v-3.2l2.5-2.1l-1.5-3.4l3.4-2.6l-1.2-3.3l2.3-1.1l2.2-4.2l-0.3-2.6l1.2-1.1l6.6-0.2l-0.1-29.7v-3.9l7.5-0.1v-16.1l46.8,0.1L606.2,145.7z"/>
<path data-code="3052" d="M204.4,153.3l0.3-2.9l1.9-4.1l1.4-0.4l1.6-4.8l3.8-7.9l6.3-6.9l0.8-6.3l2.7-6.9l5.8-3.8l3.2-8.4l1.5-2l6.8-1.6l4.2-2l3.2-3.8l3.5-2l3.2-3.8l3.6-6.1l0.3-2.5l-2.1-2.4l0.2-6.3l3.6-5.6l0.7-5l5.4-6.3l7.7-3.6l5-3.6l3.9-7.8l2.8-8.5l3.8-1.2l1.2,3.1l3.6,3.2l3,0.8l5.3-1.4l1.9,0.8l3.3-1.1l0.7,1.5l5,0.5l3.4,3.2l-0.8,1.3l1.5,4.5l0.1,7.9l1.9,4.4l2.9,2l-1.5,3.9l-9.5-0.3l-3.2,0.8l0.8,2.3l-6.2,1.4l-1.1,2.9l2,3.2l-0.6,2.1l-5.4,2l-6.7,5.5l-1.9,3.2l-1.6-0.8l-10.4,1.1l-3.6,1.1l-7.9,6.4l0.2,8.6h-1l0.2,4.6l-4.6,0.4l-2.4,2H254l-5-1.1l-3.5,1.1l0.5,2.1l-2.8,4.5l-2.3,0.6l-2.8,10.1l-4.6,3.6l-1.8,3.5l-3.4,1.7l-1.8,3.2l-1.3,9l-3,3.8l-1.5,3.3l-6.8-0.2L204.4,153.3z"/>
<path data-code="3053" d="M606.2,145.7l-42-0.2l-46.8-0.1v-60l-2.2-8.4l2.3-5.7l-1-5.3l2.2-2.4l1.9,1.4l3.2-1l11.4,2.2l4.2,2.2l3.8,0.3l4.6,2.3l3.6-1.2l6.4-4.8l1.4,1l5.1-1.7l2.3,1.2l3-0.7l-1.1,2l2.4,2l1.8-1.7l2,1.8l3.8-1.6l4.1,1.1l4.1-1.7l4.6,13.8l-1.5,8.4l-1.8,4l0.2,2.8l-2.6,1.5l-6.3-6.6l-0.7-4l-3.1-3.8l-1.1-4.3l-1.8,3.1l1.9,2.2l0.2,3.3l1.8,3.3l4.8,5.4l-0.1,2.7l3.7,6.8l0.1,2l4,7.5l5.1,11.1l3.6,3.3l-1.5,0.2l-0.2,3.9l1.5,4.6l3.7,2.3L606.2,145.7z"/>
<path data-code="3054" d="M541,548.5l-1,3.3l-2.4-0.5l-3.1-3.9l-2.1-4.3l2.9-1.9l2.4-4.1l4.6-2.3l1.8-0.5l5.8,6.5l-2,2.7l-0.1,2L541,548.5z"/>
<path data-code="3055" d="M584,282.7l-3.3,3.3l-3.8-0.8l-4.7,1.1l-1.5,1.6l-2.9-2.2l-2,1.1l-2.7-1l-2.3,2.3l-2.2-0.9l-0.1-2l-2.4-0.6l-5.5-5.4l-2.1,2.4l-3.1-1.6l-2.6,2l-4.7-2.4l-2.4-3.5l-2.3-5.2l-4.8-2.5l-1.4-2.1l0.7-2l-2.6-2.6l-4.9-2.6l-0.6-2.4l-3.3-3.8l-5.2-1.4l0.3-2.6l2.9-1.5l1.7-6.9l2.2-3.7l5.6-1l0.5,1.7l4.9,5.1l3.8-0.7l6,0.1l1.1,2h5.9l1.2-2l3.5-1.2l1-2.3l2.9-1.6l5.4,4.1l3.6-0.5l3.2-3.2l2-3.4l3.5-2.9l-0.5-5.1l-2-2.2l4.9-0.1l-0.1-1.6l3.5,0.1l-1,4.7l0.7,5.7l5.3,5v5.6h1.2l0.3,6.3L584,251l-5.9,0.3l-1,4.5l4.9,1.1l4.3,5.1l3.2,2.6l1.8,6l2.5,3.7l3.6,0.3l-0.2,4.1l1,1.1h-2.3l-1.5-3.1l-7.6,3.1L584,282.7z"/>
<path data-code="3056" d="M511.5,249.1l-0.3,2.6l5.2,1.4l3.3,3.8l0.6,2.4l4.9,2.6l2.6,2.6l-0.7,2l1.4,2.1l4.8,2.5l2.3,5.2l-2.4-1l-1.9,1.2l-3-0.2l-2.5-1.5l-2.2,0.5l-3.4-0.8l-0.4,2l-3.8,0.8l-2.3-1.4l-8.1,3.8L502,278l-3.5,5.1l-5.2-1.2l-3.8,0.1l-2.5-1.2l-2,0.3l-1.9-2.7l-4.6-2.7l-2.3,0.1l-2.4,1.7l-2.7,4l-1.4,0.5l0.8,2.4l-0.2,3.8l-1.1-1.1l-4.6,0.7l-2.8-1.3l-6.6,1.9l-0.6,4.7l-2.1,4.4l-0.8-4.6l-6.8-6.6l-1.2-4.8l-2.1-1.7l-1-9.7l-1.4-0.8l2.4-1.7l3.7-7.5l1.9-2l2.3,0.5l4.2-1.7l1.3-1.4l1.6,2.3l6.8-3.2l6.7-0.5l3.9-4.7l-1.9-1.4l1.7-1.1l9.9-1l2.9-2.1l1.4-2.5l5.4-5.1l-0.2-1.7l5.4-2.8l3,0.6l3.2,3.6l2.5,4.1l0.1,4.7l-1.1,0.8l0.1,2.9L511.5,249.1z"/>
</svg>
