<?xml version="1.0" standalone="no"?>
<!-- Generator: Paintmaps.com , Online SVG vector map maker -->
<svg xmlns="http://www.w3.org/2000/svg" version="1.1" baseProfile="full"   style="background-color:#e0f2f1" width="800" height="500" viewBox="0 0 800 533">

<path data-code="200" d="M 696.0339 303.0411 L 696.0436 321.1152 L 696.2707 331.0402 L 691.7333 329.231 L 685.573 327.2888 L 679.1359 324.0746 L 676.6976 323.3324 L 671.6894 322.2746 L 669.251 321.5472 L 663.8911 318.9256 L 661.5843 318.0616 L 655.3396 316.6881 L 652.8958 315.9385 L 646.5361 312.5637 L 641.9129 310.5181 L 635.6917 306.8387 L 631.074 304.7895 L 625.8055 301.9408 L 623.4571 301.0842 L 620.9163 300.5747 L 613.1208 299.7236 L 610.5953 299.2196 L 608.2746 298.3925 L 602.9078 295.83 L 600.2756 295.1524 L 596.1328 294.7057 L 584.7899 294.4804 L 579.2403 293.9709 L 576.6081 293.2952 L 571.2399 290.7327 L 568.9193 289.9075 L 566.3951 289.4053 L 557.3161 288.377 L 553.6953 287.2545 L 548.4253 284.4354 L 543.8408 282.292 L 541.606 280.7837 L 537.4812 277.0747 L 528.6002 267.9084 L 524.5252 264.0924 L 521.2464 261.7201 L 515.6401 258.7089 L 508.3223 252.7495 L 506.0861 251.2486 L 504.8773 250.6449 L 503.5979 250.1815 L 500.9408 249.611 L 496.8243 249.2805 L 478.507 249.4448 L 471.5492 249.1291 L 467.5338 248.3334 L 458.8923 244.8793 L 460.5677 240.4374 L 462.3608 234.2028 L 462.851 232.964 L 464.2121 230.5732 L 465.8861 228.3652 L 467.736 226.2606 L 476.6156 217.0962 L 480.3029 212.8814 L 482.5598 209.477 L 484.7074 204.784 L 486.0976 202.5557 L 488.6134 199.4098 L 495.97 191.3531 L 497.6315 189.2411 L 499.0397 186.9961 L 501.0959 182.2422 L 503.3611 177.9259 L 504.365 175.6754 L 505.067 173.1369 L 506.0252 167.9381 L 506.7147 165.4125 L 509.7651 158.757 L 510.4768 156.2315 L 511.4875 151.0437 L 512.1951 148.5255 L 515.1928 141.8553 L 516.0097 137.9599 L 516.7353 129.881 L 517.2324 127.2465 L 517.6284 125.969 L 519.3176 122.6274 L 524.9323 113.5959 L 532.8233 114.2089 L 533.3689 116.6624 L 534.1886 119.0551 L 535.6964 121.516 L 537.6765 123.6003 L 539.8572 125.1382 L 544.2853 127.6822 L 552.4546 134.0478 L 555.0577 135.4805 L 557.8339 136.3149 L 563.6494 136.9057 L 587.663 136.699 L 592.0897 136.9131 L 594.9697 137.3027 L 597.7334 138.0577 L 599.0668 138.6374 L 604.0792 141.4067 L 608.6513 143.4947 L 613.6747 146.2474 L 616.3872 147.2461 L 620.7031 147.9218 L 634.1202 148.2948 L 638.4845 148.7692 L 641.251 149.4819 L 647.7311 152.4413 L 650.5433 153.1834 L 653.4842 153.5804 L 662.6062 153.8831 L 718.0842 153.8315 L 718.1548 165.8408 L 717.9291 170.2569 L 717.5483 173.1295 L 716.8325 175.8895 L 716.2717 177.2686 L 713.5966 182.4545 L 711.5695 187.1771 L 708.8985 192.3667 L 707.9265 195.1433 L 707.4073 198.0381 L 707.1594 201.0197 L 707.0362 217.7977 L 706.5281 223.7535 L 705.8454 226.5818 L 702.5126 234.5093 L 700.264 243.3802 L 697.3286 250.0688 L 696.621 252.9747 L 696.1461 257.5403 L 696.0035 262.2167 L 696.0339 303.0411 Z" fill="#000000" fill-opacity="1" stroke="#000000" stroke-width="0" paint-order="fill" stroke-opacity="1" stroke-dasharray="" stroke-linecap="butt" stroke-linejoin="miter" stroke-miterlimit="10" transform="matrix(0.8999999761581421,0,0,0.8999999761581421,40.000057220458984,26.65006446838379)" clip-path="none" style="filter: url(#f1)"/>
<path data-code="201" d="M 341.6058 441.7978 L 339.8722 443.0975 L 338.7631 443.9301 L 337.6554 444.2698 L 336.8025 444.532 L 335.8249 444.8329 L 332.9892 445.7043 L 330.1106 447.9252 L 324.6524 449.6016 L 321.6782 451.5973 L 318.8743 451.5973 L 318.5018 451.3665 L 314.7024 448.996 L 311.3821 448.8686 L 307.2005 452.9893 L 306.8529 444.4729 L 305.8421 440.4372 L 304.5157 438.2384 L 301.9984 434.0715 L 301.2036 431.7841 L 297.533 421.2388 L 296.8725 415.9938 L 298.6518 409.2866 L 304.1294 403.9401 L 305.3921 400.3235 L 304.9186 395.7523 L 302.1479 391.4249 L 296.7991 389.5566 L 294.0659 387.2322 L 291.7521 381.5922 L 290.6029 381.0919 L 286.7245 379.4045 L 286.4808 379.1072 L 285.2236 377.5712 L 284.1228 372.9761 L 282.2439 369.9077 L 275.2224 374.6432 L 272.1111 374.3053 L 268.0569 370.9361 L 264.9581 370.1551 L 260.4844 370.1016 L 257.6154 371.9958 L 255.3391 371.5785 L 254.3449 370.0979 L 254.6053 368.4419 L 258.1554 361.4652 L 259.7561 356.9697 L 260.0025 353.9457 L 260.4332 353.0836 L 259.4653 352.2768 L 256.8317 351.4128 L 255.2006 351.9149 L 253.7537 353.3106 L 250.6244 360.5883 L 245.5816 369.3022 L 241.94 372.7361 L 235.622 377.0192 L 233.5575 372.5828 L 232.8624 369.7877 L 232.5301 365.4954 L 232.9662 361.4135 L 233.8663 359.043 L 234.5849 358.0645 L 235.3893 357.3778 L 239.8534 355.4596 L 241.5302 354.2836 L 242.7805 352.2435 L 243.4479 349.7623 L 243.7511 347.0466 L 243.819 344.2035 L 243.4064 338.412 L 242.4288 334.2249 L 239.9752 328.8857 L 238.9991 326.1017 L 238.2597 321.6506 L 237.9232 313.9428 L 238.1697 306.211 L 238.8482 301.7027 L 240.122 298.0472 L 243.3607 291.1979 L 253.852 298.2928 L 259.5179 300.9993 L 264.8031 303.8018 L 268.644 304.987 L 277.1124 306.0079 L 279.8692 306.5396 L 282.302 307.387 L 287.6855 309.9089 L 290.3758 310.6141 L 294.61 311.1163 L 301.8821 311.3452 L 313.6307 311.2954 L 319.4074 310.9594 L 322.2043 310.544 L 324.867 309.8055 L 331.2667 306.8276 L 333.7328 306.2498 L 336.2777 306.0689 L 338.8213 306.2516 L 341.2873 306.835 L 347.6788 309.8203 L 351.4242 310.7526 L 356.7246 311.2308 L 366.5845 311.4043 L 364.97 314.6757 L 362.7782 320.7478 L 361.6137 323.1404 L 360.0975 325.3909 L 355.9187 330.7836 L 354.4759 333.0913 L 353.8985 334.332 L 352.9113 338.2089 L 352.0985 346.2509 L 351.6416 348.8706 L 350.869 351.2946 L 348.4112 356.8516 L 346.3301 365.7963 L 344.796 369.2837 L 338.5444 378.9743 L 344.0981 387.3282 L 345.8261 390.6366 L 346.5974 393.1603 L 347.6345 398.3204 L 348.3212 400.833 L 350.7817 406.3992 L 351.6 408.7919 L 352.9376 415.2387 L 353.6687 417.7606 L 356.906 424.344 L 358.8375 429.1478 L 362.0139 435.7774 L 362.6965 438.3122 L 362.8709 439.2353 L 361.0931 441.0353 L 359.4135 441.5227 L 356.9267 441.3122 L 354.4413 441.1036 L 350.844 439.9627 L 346.5101 439.791 L 345.2487 440.1713 L 342.2801 441.2919 L 341.6058 441.7978 Z" fill="#000000" fill-opacity="1" stroke="#000000" stroke-width="0" paint-order="fill" stroke-opacity="1" stroke-dasharray="" stroke-linecap="butt" stroke-linejoin="miter" stroke-miterlimit="10" transform="matrix(0.8999999761581421,0,0,0.8999999761581421,40.000057220458984,26.65006446838379)" clip-path="none" style="filter: url(#f1)"/>
<path data-code="202" d="M 232.9289 175.8895 L 235.1595 178.6865 L 236.3863 180.7228 L 237.1478 183.0896 L 237.2392 185.6466 L 237.0287 186.9112 L 236.2201 189.1395 L 234.0324 193.3045 L 231.9485 197.9753 L 229.567 202.2308 L 228.5257 204.4849 L 227.8223 207.077 L 227.4679 209.7705 L 227.4609 215.2352 L 227.7974 217.9269 L 228.4551 220.5208 L 231.4888 227.1744 L 234.0366 237.3506 L 237.0509 244.0208 L 239.5557 254.1987 L 242.0854 259.7151 L 242.9148 262.2259 L 243.5504 266.4887 L 243.7525 270.8937 L 243.7013 281.3449 L 243.3607 291.1979 L 239.3328 289.4662 L 235.6607 288.2662 L 233.2833 287.297 L 230.2177 285.2717 L 225.5003 281.2212 L 222.4915 279.0556 L 220.1584 278.0218 L 217.5982 277.431 L 213.6299 277.0673 L 209.6075 277.0581 L 205.6115 277.3405 L 203.0111 277.767 L 200.5313 278.5073 L 199.4319 279.0003 L 194.1495 281.7769 L 191.6682 282.508 L 189.079 282.9031 L 186.4454 283.0563 L 183.8049 282.988 L 181.1907 282.6464 L 178.6527 281.8803 L 176.3321 280.5769 L 173.2236 278.0273 L 168.4701 273.1423 L 164.9961 268.9571 L 162.8734 265.5583 L 160.9377 260.688 L 156.752 251.5347 L 156.3851 244.9143 L 155.8949 240.8694 L 155.2261 238.3069 L 152.6341 232.82 L 151.7895 230.4089 L 151.1539 226.4175 L 151.0639 222.3135 L 151.4946 218.2482 L 152.2021 215.6562 L 153.2544 213.4112 L 155.6291 209.1761 L 158.9979 201.52 L 159.6708 199.4578 L 159.7885 198.3612 L 159.6985 197.259 L 159.0699 195.1728 L 155.6817 187.4891 L 154.232 185.2035 L 149.1282 178.7456 L 147.6605 176.4508 L 146.6179 173.9935 L 145.7248 170.1683 L 140.2832 164.5282 L 138.0166 161.5411 L 136.7081 159.4309 L 135.7291 157.0789 L 134.8513 153.2536 L 138.5496 154.173 L 140.8232 155.1902 L 142.86 156.5472 L 145.7442 158.8992 L 151.1858 164.5393 L 156.1261 165.8168 L 161.4791 168.4605 L 163.7832 169.3504 L 170.0029 170.8236 L 172.4177 171.5935 L 178.8521 174.7302 L 182.6501 175.6034 L 187.9145 175.7862 L 191.8192 175.3228 L 194.3004 174.6194 L 199.6008 171.935 L 201.9228 171.0618 L 204.4636 170.5449 L 208.3904 170.2846 L 212.3186 170.5264 L 214.8677 171.0212 L 217.2133 171.8612 L 221.5098 174.0046 L 223.9108 174.8594 L 228.2391 175.5739 L 232.9289 175.8895 Z" fill="#000000" fill-opacity="1" stroke="#000000" stroke-width="0" paint-order="fill" stroke-opacity="1" stroke-dasharray="" stroke-linecap="butt" stroke-linejoin="miter" stroke-miterlimit="10" transform="matrix(0.8999999761581421,0,0,0.8999999761581421,40.000057220458984,26.65006446838379)" clip-path="none" style="filter: url(#f1)"/>
<path data-code="203" d="M 235.622 377.0192 L 230.9973 380.154 L 225.6997 385.1442 L 221.0875 390.3061 L 219.6239 391.9437 L 216.125 399.8232 L 213.6977 402.8546 L 203.9693 408.3211 L 195.9938 414.4559 L 181.116 419.9926 L 175.3227 423.3416 L 166.1619 428.6401 L 138.6867 435.7479 L 127.7204 438.5854 L 128.2618 436.1706 L 129.2878 428.6143 L 129.8777 425.677 L 130.75 423.1256 L 133.2493 417.5667 L 133.9527 414.8086 L 134.4511 410.4756 L 134.5273 404.5807 L 134.1964 400.2016 L 133.6813 397.3714 L 132.8505 394.8496 L 130.8317 390.4206 L 130.0009 387.8729 L 129.4706 384.9651 L 128.7271 377.5454 L 128.2604 374.7392 L 127.4837 372.2247 L 125.1229 366.6622 L 123.4475 359.9236 L 122.9296 358.9618 L 122.1695 358.1162 L 121.1877 357.5162 L 120.1216 357.2042 L 117.9186 357.2928 L 115.9677 358.0682 L 113.1223 359.6781 L 110.9636 360.6307 L 104.8076 362.3089 L 102.4232 363.147 L 97.3181 365.8185 L 95.0099 366.4591 L 92.5273 366.4037 L 91.3019 366.0714 L 89.2166 364.8972 L 88.3125 364.1163 L 86.77 362.2701 L 85.6055 360.0566 L 81.777 349.3524 L 80.931 345.9352 L 80.445 342.7376 L 80.0005 332.8864 L 80.139 291.3567 L 80.4145 284.7659 L 81.0764 279.2089 L 89.3675 273.9048 L 91.5622 272.823 L 95.6842 271.8149 L 102.7569 271.0506 L 105.5151 270.5337 L 107.9493 269.6955 L 112.225 267.6297 L 114.6426 266.8081 L 117.3426 266.3318 L 120.1202 266.1047 L 134.2296 265.8463 L 136.9725 265.4715 L 139.6172 264.6813 L 140.8343 264.085 L 143.0871 262.5841 L 150.3536 256.2738 L 156.752 251.5347 L 160.9377 260.688 L 162.8734 265.5583 L 164.9961 268.9571 L 168.4701 273.1423 L 173.2236 278.0273 L 176.3321 280.5769 L 178.6527 281.8803 L 181.1907 282.6464 L 183.8049 282.988 L 186.4454 283.0563 L 189.079 282.9031 L 191.6682 282.508 L 194.1495 281.7769 L 199.4319 279.0003 L 200.5313 278.5073 L 203.0111 277.767 L 205.6115 277.3405 L 209.6075 277.0581 L 213.6299 277.0673 L 217.5982 277.431 L 220.1584 278.0218 L 222.4915 279.0556 L 225.5003 281.2212 L 230.2177 285.2717 L 233.2833 287.297 L 235.6607 288.2662 L 239.3328 289.4662 L 243.3607 291.1979 L 240.122 298.0472 L 238.8482 301.7027 L 238.1697 306.211 L 237.9232 313.9428 L 238.2597 321.6506 L 238.9991 326.1017 L 239.9752 328.8857 L 242.4288 334.2249 L 243.4064 338.412 L 243.819 344.2035 L 243.7511 347.0466 L 243.4479 349.7623 L 242.7805 352.2435 L 241.5302 354.2836 L 239.8534 355.4596 L 235.3893 357.3778 L 234.5849 358.0645 L 233.8663 359.043 L 232.9662 361.4135 L 232.5301 365.4954 L 232.8624 369.7877 L 233.5575 372.5828 L 235.622 377.0192 Z" fill="#000000" fill-opacity="1" stroke="#000000" stroke-width="0" paint-order="fill" stroke-opacity="1" stroke-dasharray="" stroke-linecap="butt" stroke-linejoin="miter" stroke-miterlimit="10" transform="matrix(0.8999999761581421,0,0,0.8999999761581421,40.000057220458984,26.65006446838379)" clip-path="none" style="filter: url(#f1)"/>
<path data-code="204" d="M 458.8923 244.8793 L 456.7378 245.3869 L 455.8074 245.8337 L 454.06 247.1297 L 452.577 248.8928 L 451.9899 249.9452 L 451.227 252.4153 L 451.0498 256.3237 L 451.8016 260.1877 L 454.7855 266.8007 L 455.4958 269.5294 L 456.0012 273.8476 L 456.4388 282.6575 L 457.0605 286.9333 L 457.8802 289.4607 L 460.4971 294.953 L 462.6544 301.0122 L 463.8313 303.4787 L 455.7465 311.7348 L 453.6487 313.5976 L 451.4499 315.2517 L 449.1528 316.5367 L 444.6611 318.6616 L 439.4757 321.7281 L 434.8579 323.77 L 429.6268 326.6925 L 427.2618 327.5823 L 423.3752 328.2285 L 418.0803 328.2211 L 415.4717 327.8667 L 412.9558 327.1596 L 410.7639 326.1036 L 406.6225 323.7091 L 402.0311 321.6044 L 395.8459 317.8641 L 391.2503 315.7853 L 386.0206 312.8849 L 383.6639 312.0099 L 381.0968 311.5095 L 377.1188 311.2068 L 366.5845 311.4043 L 356.7246 311.2308 L 351.4242 310.7526 L 347.6788 309.8203 L 341.2873 306.835 L 338.8213 306.2516 L 336.2777 306.0689 L 333.7328 306.2498 L 331.2667 306.8276 L 324.867 309.8055 L 322.2043 310.544 L 319.4074 310.9594 L 313.6307 311.2954 L 301.8821 311.3452 L 294.61 311.1163 L 290.3758 310.6141 L 287.6855 309.9089 L 282.302 307.387 L 279.8692 306.5396 L 277.1124 306.0079 L 268.644 304.987 L 264.8031 303.8018 L 259.5179 300.9993 L 253.852 298.2928 L 243.3607 291.1979 L 243.7013 281.3449 L 243.7525 270.8937 L 243.5504 266.4887 L 242.9148 262.2259 L 242.0854 259.7151 L 239.5557 254.1987 L 237.0509 244.0208 L 234.0366 237.3506 L 231.4888 227.1744 L 228.4551 220.5208 L 227.7974 217.9269 L 227.4609 215.2352 L 227.4679 209.7705 L 227.8223 207.077 L 228.5257 204.4849 L 229.567 202.2308 L 231.9485 197.9753 L 234.0324 193.3045 L 236.2201 189.1395 L 237.0287 186.9112 L 237.2392 185.6466 L 237.1478 183.0896 L 236.3863 180.7228 L 235.1595 178.6865 L 232.9289 175.8895 L 234.0559 173.0981 L 234.7095 172.2618 L 235.6317 171.5326 L 237.8831 170.6298 L 240.4446 170.207 L 246.0261 170.0132 L 282.6482 170.4747 L 288.3501 170.1184 L 291.1041 169.5424 L 292.4306 169.0661 L 293.6408 168.4661 L 295.8839 166.9725 L 303.2252 161.0352 L 308.8468 158.0444 L 311.0788 156.549 L 314.2469 153.8758 L 317.3 150.9496 L 324.1982 143.7846 L 327.837 139.5125 L 330.0926 136.0916 L 332.8812 130.3352 L 336.5768 125.2822 L 340.2751 120.2274 L 343.0319 114.4452 L 345.3595 110.9079 L 348.1523 107.5977 L 351.1528 104.426 L 354.2973 101.437 L 356.4961 99.6351 L 358.8292 98.1157 L 363.4456 96.0148 L 369.7221 92.4554 L 374.3606 90.4449 L 380.6025 86.8116 L 385.2161 84.7661 L 390.4611 81.8842 L 391.5813 81.4079 L 394.2051 80.6952 L 398.323 80.2152 L 406.7997 80.0122 L 415.2875 80.1082 L 419.4359 80.4719 L 422.111 81.0534 L 423.4001 81.5242 L 424.6075 82.1316 L 426.8395 83.6417 L 434.1296 89.6769 L 440.8146 93.4763 L 449.1958 100.3035 L 451.5455 101.6235 L 452.8193 102.0869 L 455.464 102.6573 L 459.5583 102.9915 L 482.0378 102.7995 L 486.218 102.89 L 490.3165 103.2297 L 494.2212 104.1343 L 499.5645 106.7282 L 501.881 107.5626 L 505.6984 108.2365 L 512.2352 108.8845 L 516.0721 109.7042 L 524.9323 113.5959 L 519.3176 122.6274 L 517.6284 125.969 L 517.2324 127.2465 L 516.7353 129.881 L 516.0097 137.9599 L 515.1928 141.8553 L 512.1951 148.5255 L 511.4875 151.0437 L 510.4768 156.2315 L 509.7651 158.757 L 506.7147 165.4125 L 506.0252 167.9381 L 505.067 173.1369 L 504.365 175.6754 L 503.3611 177.9259 L 501.0959 182.2422 L 499.0397 186.9961 L 497.6315 189.2411 L 495.97 191.3531 L 488.6134 199.4098 L 486.0976 202.5557 L 484.7074 204.784 L 482.5598 209.477 L 480.3029 212.8814 L 476.6156 217.0962 L 467.736 226.2606 L 465.8861 228.3652 L 464.2121 230.5732 L 462.851 232.964 L 462.3608 234.2028 L 460.5677 240.4374 L 458.8923 244.8793 Z" fill="#000000" fill-opacity="1" stroke="#000000" stroke-width="0" paint-order="fill" stroke-opacity="1" stroke-dasharray="" stroke-linecap="butt" stroke-linejoin="miter" stroke-miterlimit="10" transform="matrix(0.8999999761581421,0,0,0.8999999761581421,40.000057220458984,26.65006446838379)" clip-path="none" style="filter: url(#f1)"/>
<path data-code="205" d="M 362.8709 439.2353 L 362.6965 438.3122 L 362.0139 435.7774 L 358.8375 429.1478 L 356.906 424.344 L 353.6687 417.7606 L 352.9376 415.2387 L 351.6 408.7919 L 350.7817 406.3992 L 348.3212 400.833 L 347.6345 398.3204 L 346.5974 393.1603 L 345.8261 390.6366 L 344.0981 387.3282 L 338.5444 378.9743 L 344.796 369.2837 L 346.3301 365.7963 L 348.4112 356.8516 L 350.869 351.2946 L 351.6416 348.8706 L 352.0985 346.2509 L 352.9113 338.2089 L 353.8985 334.332 L 354.4759 333.0913 L 355.9187 330.7836 L 360.0975 325.3909 L 361.6137 323.1404 L 362.7782 320.7478 L 364.97 314.6757 L 366.5845 311.4043 L 377.1188 311.2068 L 381.0968 311.5095 L 383.6639 312.0099 L 386.0206 312.8849 L 391.2503 315.7853 L 395.8459 317.8641 L 402.0311 321.6044 L 406.6225 323.7091 L 410.7639 326.1036 L 412.9558 327.1596 L 415.4717 327.8667 L 418.0803 328.2211 L 423.3752 328.2285 L 427.2618 327.5823 L 429.6268 326.6925 L 434.8579 323.77 L 439.4757 321.7281 L 444.6611 318.6616 L 449.1528 316.5367 L 451.4499 315.2517 L 453.6487 313.5976 L 455.7465 311.7348 L 463.8313 303.4787 L 465.9332 306.5821 L 468.042 311.0129 L 471.0162 316.2838 L 473.5376 322.1564 L 475.3694 325.5515 L 471.8303 324.4678 L 466.7446 322.9097 L 465.2215 323.1829 L 463.2401 324.6598 L 460.6647 329.0925 L 460.3227 329.6814 L 460.0236 330.1965 L 456.2103 333.3793 L 447.5896 336.2797 L 441.6994 337.4981 L 440.4477 338.8699 L 443.5437 343.3856 L 443.9854 344.0299 L 444.9976 345.505 L 445.4573 347.1906 L 445.7813 348.3832 L 445.9156 348.8761 L 444.9699 351.9463 L 443.5299 353.3679 L 443.1158 353.7759 L 442.7018 354.1839 L 442.2615 354.4017 L 441.9694 354.5476 L 441.8226 354.6196 L 438.9896 356.0264 L 432.2382 356.8608 L 430.9352 357.0214 L 429.9799 357.5365 L 429.0231 358.0516 L 428.8666 359.4898 L 429.2737 360.9483 L 430.3482 364.8031 L 430.434 365.1095 L 429.5063 367.7366 L 426.8187 370.0684 L 425.43 372.5108 L 424.0412 374.9515 L 421.3591 375.0586 L 420.4384 375.0955 L 420.2099 375.1047 L 419.9759 375.114 L 416.3994 379.0758 L 416.11 380.3276 L 415.5631 382.6925 L 415.4218 383.3036 L 414.0594 389.1984 L 412.024 393.7806 L 408.2259 398.1782 L 404.7145 400.8238 L 402.776 402.286 L 401.6018 405.2214 L 401.4634 406.1445 L 400.8237 410.4257 L 398.7329 413.6732 L 393.7593 419.1341 L 391.5273 423.4874 L 390.4666 430.898 L 389.9363 434.6032 L 385.9098 435.4783 L 380.0348 434.1288 L 374.9477 433.9811 L 369.8606 433.8315 L 366.3685 435.6906 L 362.8709 439.2353 Z" fill="#000000" fill-opacity="1" stroke="#000000" stroke-width="0" paint-order="fill" stroke-opacity="1" stroke-dasharray="" stroke-linecap="butt" stroke-linejoin="miter" stroke-miterlimit="10" transform="matrix(0.8999999761581421,0,0,0.8999999761581421,40.000057220458984,26.65006446838379)" clip-path="none" style="filter: url(#f1)"/>
<path data-code="206" d="M 475.3694 325.5515 L 473.5376 322.1564 L 471.0162 316.2838 L 468.042 311.0129 L 465.9332 306.5821 L 463.8313 303.4787 L 462.6544 301.0122 L 460.4971 294.953 L 457.8802 289.4607 L 457.0605 286.9333 L 456.4388 282.6575 L 456.0012 273.8476 L 455.4958 269.5294 L 454.7855 266.8007 L 451.8016 260.1877 L 451.0498 256.3237 L 451.227 252.4153 L 451.9899 249.9452 L 452.577 248.8928 L 454.06 247.1297 L 455.8074 245.8337 L 456.7378 245.3869 L 458.8923 244.8793 L 467.5338 248.3334 L 471.5492 249.1291 L 478.507 249.4448 L 496.8243 249.2805 L 500.9408 249.611 L 503.5979 250.1815 L 504.8773 250.6449 L 506.0861 251.2486 L 508.3223 252.7495 L 515.6401 258.7089 L 521.2464 261.7201 L 524.5252 264.0924 L 528.6002 267.9084 L 537.4812 277.0747 L 541.606 280.7837 L 543.8408 282.292 L 548.4253 284.4354 L 553.6953 287.2545 L 557.3161 288.377 L 566.3951 289.4053 L 568.9193 289.9075 L 571.2399 290.7327 L 576.6081 293.2952 L 579.2403 293.9709 L 584.7899 294.4804 L 596.1328 294.7057 L 600.2756 295.1524 L 602.9078 295.83 L 608.2746 298.3925 L 610.5953 299.2196 L 613.1208 299.7236 L 620.9163 300.5747 L 623.4571 301.0842 L 625.8055 301.9408 L 631.074 304.7895 L 635.6917 306.8387 L 641.9129 310.5181 L 646.5361 312.5637 L 652.8958 315.9385 L 655.3396 316.6881 L 661.5843 318.0616 L 663.8911 318.9256 L 669.251 321.5472 L 671.6894 322.2746 L 676.6976 323.3324 L 679.1359 324.0746 L 685.573 327.2888 L 691.7333 329.231 L 696.2707 331.0402 L 695.973 336.8649 L 696.1558 340.9653 L 696.6459 343.6256 L 697.0738 344.9105 L 698.331 347.281 L 700.7998 350.4546 L 707.2799 357.4239 L 709.8152 360.555 L 711.2053 362.787 L 712.77 366.3243 L 713.9317 368.5711 L 716.118 371.621 L 720.0005 375.9909 L 681.0993 356.451 L 677.4148 351.0398 L 674.6483 348.6767 L 672.4717 346.8195 L 668.8522 345.9905 L 663.8219 347.8736 L 662.5494 349.0054 L 659.6057 351.6251 L 658.6614 353.0817 L 657.4775 357.6547 L 657.184 358.7882 L 656.2923 358.9156 L 655.5072 358.2731 L 651.3408 354.8651 L 647.1343 353.7611 L 642.9264 352.6589 L 640.6418 349.2047 L 639.6753 347.7426 L 633.7934 343.4317 L 630.1601 339.3942 L 629.4013 339.132 L 623.0902 339.5769 L 621.2334 339.0508 L 613.7052 334.007 L 606.4095 333.1799 L 604.1969 332.9289 L 603.0823 332.0482 L 600.0389 325.6457 L 598.9201 324.8758 L 592.2323 326.2291 L 591.7851 326.3196 L 591.1661 326.4451 L 589.4007 326.8014 L 589.2304 326.7682 L 588.1047 326.5522 L 584.945 325.9448 L 578.4857 328.7344 L 577.5704 329.1294 L 576.5887 329.231 L 573.5993 329.5374 L 571.4421 329.759 L 562.8338 332.5061 L 554.5551 333.5159 L 551.9852 333.8298 L 550.7363 335.1646 L 549.0955 339.2299 L 548.5721 340.5259 L 547.9823 341.988 L 545.4304 344.713 L 538.9545 347.0576 L 533.5918 348.9998 L 529.9807 352.238 L 528.6085 352.6811 L 526.1079 352.3525 L 523.7305 352.0386 L 515.9211 348.4977 L 509.6169 345.6398 L 506.2606 344.7998 L 500.9962 343.4816 L 497.2078 342.5327 L 496.9489 342.468 L 495.3566 341.7942 L 492.0833 338.4452 L 490.1213 337.8692 L 483.6482 338.0003 L 480.854 335.8384 L 480.1658 333.791 L 478.8836 329.9787 L 478.111 327.6839 L 476.9161 326.026 L 475.3694 325.5515 Z" fill="#000000" fill-opacity="1" stroke="#000000" stroke-width="0" paint-order="fill" stroke-opacity="1" stroke-dasharray="" stroke-linecap="butt" stroke-linejoin="miter" stroke-miterlimit="10" transform="matrix(0.8999999761581421,0,0,0.8999999761581421,40.000057220458984,26.65006446838379)" clip-path="none" style="filter: url(#f1)"/>







</svg>