<?xml version="1.0" standalone="no"?>
<!-- Generator: Paintmaps.com , Online SVG vector map maker -->
<svg xmlns="http://www.w3.org/2000/svg" version="1.1" baseProfile="full"   style="background-color:#e0f2f1" width="800" height="500" viewBox="0 0 800 533">
<rect width="100%" height="100%" fill="#e0f2f1"/>
<path data-code="200" d="M 534.8026 197.3865 L 523.4258 197.4345 L 521.5504 197.5611 L 520.3381 197.7806 L 519.2726 198.1581 L 517.0268 199.3663 L 515.0605 200.2756 L 513.8052 201.0669 L 512.0637 202.3372 L 510.5033 200.1513 L 508.5684 197.9646 L 506.8876 196.4033 L 505.9567 195.763 L 505.4512 195.5089 L 504.3757 195.1762 L 503.2631 195.015 L 502.131 194.9552 L 500.4155 194.9859 L 498.1331 195.2423 L 495.4047 195.9801 L 495.9952 193.784 L 496.4937 191.5328 L 496.8223 190.4434 L 498.2381 187.6416 L 499.0646 185.6013 L 500.5713 182.8569 L 501.2166 181.3365 L 501.7387 180.3289 L 502.3965 179.3653 L 504.1934 177.0394 L 504.8323 176.0829 L 505.7438 174.1181 L 506.2606 173.197 L 506.9242 172.4057 L 507.3094 172.0604 L 508.1938 171.5059 L 508.717 171.3139 L 509.8054 171.1322 L 510.9192 171.1566 L 512.492 171.5137 L 515.1762 172.8297 L 516.8828 173.2607 L 518.0786 173.3968 L 519.9021 173.4817 L 524.562 173.4495 L 528.5635 173.2843 L 530.8429 173.3614 L 531.873 173.6068 L 532.349 173.8451 L 532.7773 174.203 L 533.1207 174.7017 L 533.4345 175.8186 L 533.4587 176.4031 L 533.3094 177.5861 L 532.9107 178.7258 L 531.8399 180.8928 L 531.4919 182.0939 L 531.2854 183.3666 L 531.0866 186.6631 L 531.1739 189.9542 L 531.4895 191.8616 L 531.9479 193.0611 L 532.9396 194.6964 L 534.8026 197.3865 Z" fill="#000" fill-opacity="1" stroke="#000" stroke-width="0" paint-order="fill" stroke-opacity="1" stroke-dasharray="" stroke-linecap="butt" stroke-linejoin="miter" stroke-miterlimit="10" transform="matrix(1.149999976158142,0,0,1.149999976158142,-59.99997329711914,-39.97494888305664)" clip-path="none" style="filter: url(#f1)"/>
<path data-code="201" d="M 512.0637 202.3372 L 510.9015 203.8238 L 509.8285 204.951 L 508.6911 205.9295 L 507.5625 206.7514 L 506.6499 205.9641 L 505.8506 205.4009 L 504.8978 204.9651 L 504.3616 204.8149 L 503.2572 204.6371 L 501.5677 204.5813 L 499.8899 204.752 L 498.8133 205.0501 L 497.8776 205.5055 L 496.1173 206.5375 L 494.6543 207.2124 L 493.7251 207.7378 L 492.878 208.3686 L 490.0263 210.7873 L 489.1579 211.3608 L 486.7775 212.5799 L 485.9286 213.2013 L 484.7027 214.2357 L 483.7435 212.9253 L 483.1795 212.0301 L 482.3336 210.0881 L 481.8374 209.1646 L 481.1909 208.3804 L 480.8121 208.0438 L 479.9314 207.5301 L 479.4069 207.3831 L 478.8713 207.3296 L 478.335 207.3634 L 477.3345 207.6741 L 476.0597 208.4968 L 473.1572 210.7724 L 472.7738 207.1203 L 471.9956 204.4806 L 473.3383 202.3435 L 474.681 200.6114 L 476.941 198.1786 L 478.9415 196.3223 L 479.8034 195.6985 L 480.6576 195.2478 L 482.2793 194.6264 L 484.0727 193.8272 L 485.9581 193.1138 L 487.1285 192.8747 L 488.7803 192.7465 L 489.8876 192.8 L 490.9749 193.0013 L 491.9772 193.3962 L 492.8621 193.9405 L 495.4047 195.9801 L 498.1331 195.2423 L 500.4155 194.9859 L 502.131 194.9552 L 503.2631 195.015 L 504.3757 195.1762 L 505.4512 195.5089 L 505.9567 195.763 L 506.8876 196.4033 L 508.5684 197.9646 L 510.5033 200.1513 L 512.0637 202.3372 Z" fill="#000" fill-opacity="1" stroke="#000" stroke-width="0" paint-order="fill" stroke-opacity="1" stroke-dasharray="" stroke-linecap="butt" stroke-linejoin="miter" stroke-miterlimit="10" transform="matrix(1.149999976158142,0,0,1.149999976158142,-59.99997329711914,-39.97494888305664)" clip-path="none" style="filter: url(#f1)"/>
<path data-code="202" d="M 333.731 226.0886 L 333.7437 221.9134 L 333.839 220.7485 L 334.0419 219.6158 L 334.4036 218.5784 L 335.6035 216.2761 L 336.4326 214.2404 L 337.9381 211.5 L 338.8124 209.4777 L 339.397 208.5322 L 340.8453 206.7821 L 345.6509 201.7787 L 346.7157 200.4549 L 347.2991 199.5087 L 348.1722 197.4848 L 349.6659 194.7365 L 350.4794 192.6875 L 351.441 190.8422 L 351.8687 189.8857 L 352.1684 188.8065 L 352.7106 186.0472 L 353.0787 185.0278 L 354.2739 182.7145 L 355.0957 180.6687 L 356.6029 177.918 L 357.4459 175.8619 L 358.9933 173.2064 L 360.5985 174.4736 L 361.8362 175.2901 L 363.7948 176.2033 L 366.0247 177.4437 L 367.06 177.8268 L 368.2163 178.0501 L 369.4044 178.1626 L 373.0425 178.2303 L 376.0506 178.0737 L 377.2133 177.8598 L 377.7749 177.6868 L 382.3835 175.331 L 383.5651 174.343 L 384.486 173.101 L 385.6694 170.6587 L 386.3106 169.7282 L 387.4215 168.3965 L 389.0379 166.7125 L 390.2938 165.5358 L 391.561 164.4991 L 393.1727 163.3837 L 393.5119 163.04 L 393.7898 162.6333 L 394.1909 161.7067 L 395.333 158.2214 L 396.4515 157.3766 L 397.3447 156.9487 L 400.9686 155.9868 L 403.7218 154.663 L 404.7636 154.3468 L 407.4189 153.7317 L 408.3899 153.347 L 410.6671 152.2026 L 412.2858 151.8171 L 414.5329 151.7165 L 415.6532 151.8124 L 416.7475 152.0413 L 417.2761 152.2262 L 418.2058 152.7107 L 421.1183 154.7141 L 421.6303 156.1323 L 421.9064 157.4065 L 422.0987 159.3879 L 422.1164 162.067 L 421.9601 164.0491 L 421.7218 165.325 L 421.3124 166.5206 L 420.3054 168.789 L 419.9154 170.5895 L 419.808 171.8441 L 419.788 173.7547 L 420.0482 176.8522 L 415.3582 179.864 L 412.9253 180.9731 L 410.696 182.2402 L 408.7681 183.1133 L 407.7876 183.6482 L 406.4172 184.7266 L 405.176 185.9883 L 404.1065 187.3884 L 403.5679 188.396 L 402.9242 189.9101 L 401.7308 192.2218 L 401.3721 193.2703 L 401.1739 194.4062 L 401.0931 195.5671 L 401.1344 197.3149 L 401.2789 198.4625 L 401.5603 199.5677 L 402.6653 201.9203 L 403.0334 202.9248 L 403.6233 205.666 L 403.9419 206.7396 L 405.3754 209.5241 L 406.2461 211.5456 L 407.2579 213.3445 L 407.7045 214.2986 L 407.8726 214.8429 L 408.0625 215.9638 L 408.0767 217.0988 L 408.0124 217.6628 L 407.695 218.7608 L 407.1293 219.6701 L 406.3777 220.4008 L 405.4792 220.9334 L 404.9589 221.1135 L 403.8906 221.3023 L 401.1598 221.4368 L 400.0767 221.565 L 399.0289 221.8757 L 398.5664 222.1164 L 397.7405 222.7472 L 397.0539 223.5275 L 396.5235 224.4509 L 394.903 228.1722 L 394.6694 229.1106 L 394.6115 229.7186 L 394.083 232.0618 L 393.7237 233.174 L 392.335 236.0159 L 391.7297 237.5198 L 391.213 238.4614 L 390.5528 239.2676 L 390.1711 239.62 L 389.2957 240.1855 L 388.255 240.4978 L 387.2103 240.5458 L 386.2103 240.3515 L 385.7461 240.1486 L 385.3254 239.8599 L 384.9856 239.4949 L 382.144 234.416 L 381.8472 234.033 L 381.1027 233.4194 L 378.1543 231.567 L 375.7232 230.4879 L 373.4932 229.2097 L 371.5689 228.2973 L 370.6008 227.7506 L 369.6799 227.0616 L 367.0223 224.7986 L 366.0766 224.1599 L 364.1363 223.2231 L 361.9064 221.9834 L 360.8693 221.6012 L 359.1213 221.3101 L 357.3191 221.2165 L 354.2845 221.2362 L 351.8971 221.4258 L 350.1992 221.8324 L 347.9174 222.9383 L 346.3151 223.4252 L 344.5359 223.6234 L 340.9072 223.7949 L 339.1451 224.0616 L 338.1063 224.4195 L 335.8253 225.5301 L 333.731 226.0886 Z" fill="#000" fill-opacity="1" stroke="#000" stroke-width="0" paint-order="fill" stroke-opacity="1" stroke-dasharray="" stroke-linecap="butt" stroke-linejoin="miter" stroke-miterlimit="10" transform="matrix(1.149999976158142,0,0,1.149999976158142,-59.99997329711914,-39.97494888305664)" clip-path="none" style="filter: url(#f1)"/>
<path data-code="203" d="M 535.4426 336.6171 L 533.9531 338.3688 L 532.0812 340.384 L 530.5338 341.9155 L 529.3121 342.9427 L 528.439 343.502 L 526.0167 344.6016 L 523.7992 345.8979 L 521.7975 346.7175 L 520.1505 347.6606 L 517.7317 350.3058 L 511.1906 357.2316 L 510.0957 358.3021 L 508.93 359.1965 L 508.0846 359.5646 L 507.6374 359.6291 L 507.1974 359.5913 L 506.7826 359.4749 L 505.1503 358.7442 L 504.663 358.5908 L 504.1516 358.4783 L 503.0867 358.3682 L 502.003 358.4241 L 501.4656 358.5326 L 500.9394 358.7127 L 500.0409 359.2547 L 499.6474 359.5984 L 498.969 360.3952 L 498.4499 361.3367 L 497.8564 362.8438 L 496.9326 364.6978 L 496.5208 365.67 L 496.2418 366.7625 L 496.0595 367.8803 L 494.4791 367.5074 L 493.5039 367.0819 L 492.6302 366.5061 L 490.1761 364.472 L 489.3331 363.8538 L 486.961 362.6393 L 485.5977 361.6734 L 483.4898 359.6975 L 476.5157 352.4949 L 474.924 350.7849 L 473.8421 349.4453 L 473.2457 348.4873 L 472.3779 346.4674 L 471.1904 344.1651 L 470.8394 343.1229 L 470.6494 341.9894 L 470.5639 340.8261 L 470.5143 336.0634 L 470.4353 334.27 L 470.2117 332.4805 L 469.8813 330.7029 L 471.7054 330.2946 L 474.5064 329.2831 L 475.4969 328.6908 L 475.9665 328.2865 L 476.7629 327.3277 L 477.0743 326.7794 L 477.4537 325.7411 L 478.2111 322.5429 L 479.4028 319.6688 L 479.6901 318.4197 L 479.8806 316.4659 L 479.9408 313.7978 L 479.9172 299.6387 L 479.9927 287.4901 L 479.9721 285.4819 L 479.8452 283.5171 L 479.6299 282.2594 L 479.2671 281.1818 L 478.0843 278.8456 L 477.2372 276.7856 L 475.6709 274.068 L 474.822 272.0536 L 473.6474 269.8158 L 473.3855 268.8978 L 473.379 267.578 L 473.4693 267.1446 L 473.8433 266.1904 L 474.8002 264.4096 L 475.4904 262.8042 L 475.9623 261.9429 L 476.9446 260.653 L 480.3113 257.0229 L 481.3295 255.7589 L 481.8905 254.8575 L 483.0285 252.3932 L 485.0773 249.3302 L 485.8749 247.5353 L 489.4275 245.8268 L 491.4427 245.0033 L 494.1139 243.4655 L 496.0925 242.6176 L 498.3348 241.4 L 499.3188 241.0264 L 502.5045 240.3193 L 503.4914 239.9134 L 504.817 239.0741 L 507.7902 236.9173 L 510.0933 238.5243 L 511.7304 239.9079 L 513.7857 241.9538 L 518.9706 247.3913 L 520.6206 248.9409 L 521.9604 249.8966 L 523.9119 250.8043 L 525.6693 251.8292 L 526.6037 252.2822 L 527.0933 252.4427 L 528.1051 252.6456 L 529.6637 252.7566 L 531.2299 252.696 L 532.7561 252.4191 L 533.7171 252.0345 L 535.9175 250.7193 L 537.859 249.8242 L 540.0299 248.5979 L 540.5019 248.4217 L 541.3467 248.2684 L 542.2056 248.2943 L 543.0881 248.5114 L 546.2012 249.8635 L 545.3198 252.1627 L 544.4916 254.8661 L 543.4486 257.137 L 543.0622 258.3098 L 542.7884 260.1252 L 542.5861 263.8606 L 542.3802 265.6933 L 542.0953 266.8598 L 540.8806 269.7198 L 540.5738 270.9649 L 540.3597 272.9267 L 540.296 276.2948 L 540.3803 279.0132 L 540.6582 282.0643 L 540.2293 286.252 L 539.9385 287.9471 L 539.5969 288.9783 L 538.7398 290.8621 L 538.3864 291.9366 L 537.5746 297.4764 L 537.2242 298.5501 L 536.1983 300.9318 L 535.9199 302.1054 L 535.7234 303.9452 L 535.5323 307.6901 L 535.2645 309.5078 L 534.9194 310.5815 L 533.8587 312.946 L 533.3047 315.1059 L 532.9348 316.8584 L 532.5532 317.7621 L 531.9768 318.6596 L 529.9079 321.1515 L 529.0041 322.4682 L 527.3435 326.1392 L 527.2243 326.5883 L 527.1895 327.0689 L 527.2656 327.5455 L 527.4302 327.9923 L 527.6591 328.4139 L 528.2431 329.2115 L 529.2985 330.3646 L 533.1838 334.2566 L 535.4426 336.6171 Z" fill="#000" fill-opacity="1" stroke="#000" stroke-width="0" paint-order="fill" stroke-opacity="1" stroke-dasharray="" stroke-linecap="butt" stroke-linejoin="miter" stroke-miterlimit="10" transform="matrix(1.149999976158142,0,0,1.149999976158142,-59.99997329711914,-39.97494888305664)" clip-path="none" style="filter: url(#f1)"/>
<path data-code="204" d="M 333.731 226.0886 L 331.6241 226.6282 L 329.3378 227.7435 L 328.3553 228.1148 L 325.7012 228.7165 L 324.6647 229.0319 L 322.3787 230.1599 L 321.387 230.5414 L 316.4464 231.7173 L 316.1558 230.2063 L 315.6494 228.2957 L 315.1462 225.7275 L 314.7654 224.8151 L 314.4521 224.4202 L 314.053 224.115 L 313.6079 223.9066 L 312.6372 223.6856 L 311.5963 223.614 L 308.2817 223.5794 L 306.6246 223.3379 L 306.0893 223.1625 L 305.0932 222.6316 L 303.7534 221.565 L 302.1149 219.9179 L 300.5958 218.1591 L 299.6112 216.7622 L 298.4449 214.2593 L 297.8591 213.306 L 296.7946 211.9601 L 294.0627 208.9483 L 292.9902 207.6057 L 292.3973 206.6492 L 291.2726 204.1652 L 290.1839 202.3584 L 289.4408 200.9725 L 291.6139 197.108 L 292.458 195.0559 L 293.6456 192.7449 L 294.0116 191.6823 L 294.2255 190.5008 L 294.3665 188.6705 L 294.4269 182.4369 L 294.3379 180.5963 L 294.1712 179.3983 L 293.832 178.246 L 293.5662 177.6986 L 292.5153 176.2229 L 289.5916 173.105 L 288.4568 171.6876 L 287.8746 170.6249 L 287.677 170.057 L 287.4366 168.8771 L 287.2805 166.434 L 287.3153 161.4401 L 287.4392 158.9726 L 287.7177 157.1879 L 288.0746 156.1291 L 289.168 153.7812 L 289.4762 152.713 L 289.9411 150.5098 L 290.2697 149.4385 L 291.9259 146.1656 L 293.2553 142.9446 L 293.4161 142.0314 L 293.3751 141.5649 L 293.1076 140.6808 L 291.7315 137.3898 L 290.2216 134.6478 L 287.9291 128.769 L 288.42 128.2773 L 289.2397 127.9006 L 290.8546 127.6261 L 292.6884 127.5639 L 294.5962 127.6622 L 295.8625 127.8432 L 297.0887 128.1727 L 298.6676 128.9019 L 299.516 129.4084 L 299.9915 129.6067 L 301.5999 129.9583 L 304.549 130.1266 L 307.5682 130.0479 L 308.7543 129.9221 L 309.9046 129.6908 L 310.9311 129.3196 L 313.2189 128.227 L 314.3492 127.932 L 316.1278 127.7299 L 319.7532 127.5505 L 321.5148 127.2823 L 322.5542 126.9268 L 324.8414 125.8295 L 329.0414 124.7275 L 331.7955 123.4077 L 332.8349 123.0954 L 335.4955 122.5023 L 336.4804 122.1334 L 338.7711 121.0283 L 339.8106 120.7207 L 341.9443 120.2692 L 342.9862 119.9515 L 345.7075 118.5372 L 347.6849 117.6822 L 350.3449 116.1287 L 352.2835 115.1833 L 353.225 114.5516 L 355.9003 112.3453 L 357.3681 111.4455 L 358.9703 110.9814 L 362.2657 110.5157 L 365.6318 110.8248 L 370.0634 110.8838 L 367.8848 113.9829 L 367.0984 115.3201 L 366.794 116.3552 L 366.7769 117.4627 L 366.8783 118.0071 L 367.2453 118.962 L 368.1868 120.7404 L 369.0676 122.7454 L 369.6286 123.6326 L 370.6468 124.8644 L 371.7854 126.0144 L 374.5392 128.3159 L 372.7068 128.9507 L 369.3991 130.2902 L 368.4251 130.7983 L 367.5255 131.452 L 365.4194 133.3838 L 361.7725 137.1003 L 360.713 138.3998 L 360.162 139.3429 L 359.9702 139.8557 L 359.8564 140.3984 L 359.8605 141.48 L 360.1319 142.4624 L 360.9625 144.1787 L 361.1247 144.6381 L 361.2805 145.6842 L 361.166 146.7563 L 360.8162 147.7073 L 359.8865 149.5085 L 359.0311 151.534 L 357.4394 154.2563 L 356.5734 156.2739 L 355.6166 158.057 L 355.2431 159.0072 L 355.1033 160.0958 L 355.1393 160.6448 L 355.4148 161.6698 L 356.5953 163.902 L 357.4548 165.9078 L 358.4488 167.724 L 358.8688 168.6868 L 359.1143 169.7966 L 359.1839 170.945 L 358.9933 173.2064 L 357.4459 175.8619 L 356.6029 177.918 L 355.0957 180.6687 L 354.2739 182.7145 L 353.0787 185.0278 L 352.7106 186.0472 L 352.1684 188.8065 L 351.8687 189.8857 L 351.441 190.8422 L 350.4794 192.6875 L 349.6659 194.7365 L 348.1722 197.4848 L 347.2991 199.5087 L 346.7157 200.4549 L 345.6509 201.7787 L 340.8453 206.7821 L 339.397 208.5322 L 338.8124 209.4777 L 337.9381 211.5 L 336.4326 214.2404 L 335.6035 216.2761 L 334.4036 218.5784 L 334.0419 219.6158 L 333.839 220.7485 L 333.7437 221.9134 L 333.731 226.0886 Z" fill="#000" fill-opacity="1" stroke="#000" stroke-width="0" paint-order="fill" stroke-opacity="1" stroke-dasharray="" stroke-linecap="butt" stroke-linejoin="miter" stroke-miterlimit="10" transform="matrix(1.149999976158142,0,0,1.149999976158142,-59.99997329711914,-39.97494888305664)" clip-path="none" style="filter: url(#f1)"/>
<path data-code="205" d="M 379.7571 127.7912 L 376.5951 127.9375 L 374.5392 128.3159 L 371.7854 126.0144 L 370.6468 124.8644 L 369.6286 123.6326 L 369.0676 122.7454 L 368.1868 120.7404 L 367.2453 118.962 L 366.8783 118.0071 L 366.7769 117.4627 L 366.794 116.3552 L 367.0984 115.3201 L 367.8848 113.9829 L 370.0634 110.8838 L 374.5451 110.9169 L 376.7809 111.1599 L 378.307 111.65 L 380.573 112.7724 L 381.6767 113.0776 L 382.8324 113.2475 L 386.4227 113.4182 L 391.2413 113.4032 L 392.9945 113.2027 L 394.1184 112.8636 L 394.6393 112.6017 L 395.5932 111.9378 L 396.4592 111.1521 L 397.255 110.2884 L 397.973 109.3626 L 398.5771 108.3723 L 399.7516 105.8631 L 400.3976 104.9012 L 402.8564 101.6274 L 404.3796 98.6424 L 405.0515 97.6946 L 407.2579 94.9439 L 407.8814 93.9639 L 408.7858 91.966 L 409.7102 90.1734 L 410.063 89.2153 L 410.1627 88.6757 L 410.1609 87.5832 L 410.0618 87.0475 L 408.7115 83.7604 L 407.967 80.4843 L 407.5959 79.4673 L 406.4927 77.1107 L 405.445 72.7618 L 404.3495 70.406 L 403.9861 69.3779 L 403.0245 64.1488 L 405.8243 65.6291 L 408.4908 67.2856 L 410.4612 68.1697 L 412.6758 69.466 L 415.1081 70.5649 L 417.7946 72.0751 L 419.775 72.9167 L 423.2125 74.9421 L 423.9948 75.5321 L 424.3163 75.9112 L 425.7923 78.4495 L 426.2171 79.3595 L 426.4684 80.3955 L 426.4572 81.4927 L 426.3527 82.0307 L 426.0005 82.9794 L 425.3369 84.3323 L 424.9581 85.3163 L 424.2992 88.0402 L 423.9659 89.1013 L 422.6657 91.9164 L 422.4167 93.0152 L 422.3388 94.1479 L 422.4132 95.2814 L 422.6586 96.381 L 423.9488 99.1977 L 424.2779 100.2596 L 424.921 102.9819 L 425.2909 103.9667 L 425.9368 105.3228 L 426.276 106.2729 L 426.4058 107.3561 L 426.3746 107.9035 L 426.1244 108.9371 L 425.0372 111.2213 L 424.2107 113.2443 L 423.7116 114.1583 L 421.8604 117.0813 L 421.5188 117.4313 L 420.68 117.9276 L 417.7722 118.7905 L 415.029 120.0694 L 413.8739 120.3589 L 412.6723 120.5036 L 408.9681 120.5902 L 394.0086 120.4533 L 392.1787 120.539 L 390.9876 120.7081 L 389.8425 121.0574 L 388.8408 121.6174 L 385.2511 124.4971 L 382.4006 125.9947 L 379.7571 127.7912 Z" fill="#000" fill-opacity="1" stroke="#000" stroke-width="0" paint-order="fill" stroke-opacity="1" stroke-dasharray="" stroke-linecap="butt" stroke-linejoin="miter" stroke-miterlimit="10" transform="matrix(1.149999976158142,0,0,1.149999976158142,-59.99997329711914,-39.97494888305664)" clip-path="none" style="filter: url(#f1)"/>
<path data-code="206" d="M 469.1982 237.3177 L 466.7464 236.2385 L 464.0033 235.2443 L 461.2807 233.8843 L 460.2159 233.6271 L 458.573 233.5673 L 457.4893 233.7341 L 456.4876 234.0864 L 454.2771 235.3119 L 452.328 236.2094 L 449.6208 237.6779 L 448.0238 238.1349 L 444.0813 238.9278 L 445.4818 235.9664 L 447.0923 233.2173 L 447.9106 231.1675 L 449.4025 228.4215 L 450.0609 226.7925 L 450.5086 225.9257 L 451.1221 225.0448 L 451.8177 224.2071 L 456.4262 219.4082 L 457.8473 217.7469 L 458.7039 216.4035 L 459.3817 214.7839 L 459.8242 213.9218 L 460.7693 212.6256 L 461.8754 211.4402 L 463.0906 210.3925 L 463.9685 209.8246 L 465.5377 209.1206 L 466.3624 208.6778 L 467.206 208.0847 L 469.6731 206.0655 L 471.9956 204.4806 L 472.7738 207.1203 L 473.1572 210.7724 L 473.559 211.5928 L 474.1265 212.4242 L 474.8244 213.1683 L 475.6331 213.7897 L 477.5339 214.7226 L 479.7727 215.937 L 480.7685 216.3044 L 482.376 216.6339 L 483.2368 217.7116 L 483.6279 218.5304 L 483.7016 218.9976 L 483.6556 219.4735 L 483.5099 219.9234 L 483.2934 220.3481 L 482.3849 221.539 L 479.7721 224.2692 L 478.7385 225.5238 L 478.1752 226.4221 L 477.4767 228.0385 L 477.0378 228.8888 L 476.121 230.1638 L 473.9554 232.5495 L 469.1982 237.3177 Z" fill="#000" fill-opacity="1" stroke="#000" stroke-width="0" paint-order="fill" stroke-opacity="1" stroke-dasharray="" stroke-linecap="butt" stroke-linejoin="miter" stroke-miterlimit="10" transform="matrix(1.149999976158142,0,0,1.149999976158142,-59.99997329711914,-39.97494888305664)" clip-path="none" style="filter: url(#f1)"/>
<path data-code="207" d="M 485.9581 193.1138 L 484.5116 190.349 L 483.4745 188.8836 L 482.6893 187.9854 L 481.8451 187.1563 L 480.9307 186.4311 L 480.4375 186.1267 L 479.9125 185.8797 L 478.8341 185.602 L 477.2024 185.5635 L 475.6621 185.8734 L 473.579 186.6804 L 473.1478 186.73 L 472.2806 186.5916 L 468.6236 185.0955 L 465.9713 183.5593 L 464.5301 182.8868 L 463.6292 182.3385 L 462.4989 181.2696 L 461.8972 180.4177 L 461.6441 179.9301 L 461.0046 178.4458 L 459.8407 176.1356 L 459.6496 175.6377 L 459.38 174.5224 L 459.2089 172.7825 L 459.167 170.4086 L 459.2307 166.2075 L 459.3723 162.4563 L 459.2638 158.5227 L 459.0891 156.6884 L 458.8077 155.7138 L 458.5889 155.3536 L 458.0261 154.9359 L 457.4704 153.4037 L 457.1748 152.3536 L 456.9843 151.1894 L 456.9229 149.433 L 457.0403 148.2768 L 457.3459 147.1551 L 457.9052 146.1066 L 458.6225 145.1722 L 459.4331 144.3164 L 460.3091 143.5345 L 461.7421 142.5631 L 463.723 141.7034 L 466.4202 140.2199 L 468.4248 139.4129 L 470.6707 138.1756 L 472.5714 137.3395 L 473.4811 136.814 L 474.2604 136.1305 L 474.6014 135.7325 L 475.1512 134.8177 L 475.3429 134.2765 L 475.4662 133.7196 L 475.5511 132.5862 L 475.4585 131.4527 L 475.1783 130.3515 L 474.7323 129.399 L 473.7106 127.6072 L 472.831 125.5967 L 471.5992 123.307 L 471.2305 122.2726 L 471.0187 121.1423 L 470.8465 118.199 L 470.8524 112.2226 L 470.9851 110.4725 L 471.2087 109.3374 L 471.3927 108.7876 L 471.9254 107.7682 L 472.6003 106.8416 L 473.7513 105.5438 L 475.4078 103.9132 L 476.7133 102.7884 L 477.6265 102.1356 L 480.0606 100.9486 L 481.4434 100.0102 L 482.7394 98.8736 L 483.9836 97.645 L 485.9044 95.4701 L 486.8347 94.0433 L 487.7043 92.0132 L 489.1626 89.2444 L 490.3667 85.7339 L 490.8616 83.7754 L 493.8726 86.6943 L 500.3919 93.4628 L 501.9505 95.0061 L 502.7587 95.7297 L 503.6047 96.3889 L 506.0087 97.9644 L 506.326 98.8681 L 506.8151 99.7617 L 507.4345 100.6096 L 508.5153 101.7926 L 509.3081 102.5084 L 510.1553 103.1369 L 511.0885 103.6442 L 512.5575 104.3042 L 513.9403 105.2362 L 515.2369 106.3752 L 516.4805 107.6062 L 517.6674 108.8907 L 518.7417 110.2436 L 519.3293 111.2126 L 520.1746 113.2538 L 521.1244 115.0999 L 521.5421 116.0619 L 521.8265 117.1465 L 522.3208 119.9208 L 522.673 120.9504 L 523.8358 123.2684 L 524.6929 125.26 L 525.2823 126.1198 L 526.0043 126.8678 L 526.8338 127.4798 L 528.757 128.3804 L 530.9898 129.6562 L 532.4647 130.2674 L 534.461 130.8313 L 533.9389 132.1662 L 533.0859 134.8326 L 531.742 137.6612 L 531.437 138.8418 L 531.2347 140.6958 L 531.2234 143.2159 L 531.3839 145.0825 L 531.7998 146.8515 L 532.9059 149.1695 L 533.2481 150.1905 L 533.4469 151.8698 L 533.2906 153.5618 L 533.1449 154.1092 L 532.7396 155.0791 L 531.7739 156.8968 L 531.1002 158.3968 L 530.5315 159.406 L 529.4071 160.8368 L 526.0645 164.4314 L 525.3359 165.3997 L 524.7608 166.4694 L 524.4499 167.5423 L 524.2723 169.2193 L 524.3036 170.9317 L 524.562 173.4495 L 519.9021 173.4817 L 518.0786 173.3968 L 516.8828 173.2607 L 515.1762 172.8297 L 512.492 171.5137 L 510.9192 171.1566 L 509.8054 171.1322 L 508.717 171.3139 L 508.1938 171.5059 L 507.3094 172.0604 L 506.9242 172.4057 L 506.2606 173.197 L 505.7438 174.1181 L 504.8323 176.0829 L 504.1934 177.0394 L 502.3965 179.3653 L 501.7387 180.3289 L 501.2166 181.3365 L 500.5713 182.8569 L 499.0646 185.6013 L 498.2381 187.6416 L 496.8223 190.4434 L 496.4937 191.5328 L 495.9952 193.784 L 495.4047 195.9801 L 492.8621 193.9405 L 491.9772 193.3962 L 490.9749 193.0013 L 489.8876 192.8 L 488.7803 192.7465 L 487.1285 192.8747 L 485.9581 193.1138 Z" fill="#000" fill-opacity="1" stroke="#000" stroke-width="0" paint-order="fill" stroke-opacity="1" stroke-dasharray="" stroke-linecap="butt" stroke-linejoin="miter" stroke-miterlimit="10" transform="matrix(1.149999976158142,0,0,1.149999976158142,-59.99997329711914,-39.97494888305664)" clip-path="none" style="filter: url(#f1)"/>
<path data-code="208" d="M 507.7902 236.9173 L 508.2999 234.2493 L 508.6946 233.137 L 509.6981 230.856 L 510.0874 229.0107 L 510.2733 225.7684 L 510.3033 217.8177 L 510.1948 214.5535 L 509.9105 212.6657 L 509.5034 211.4709 L 508.1955 208.6888 L 507.5625 206.7514 L 508.6911 205.9295 L 509.8285 204.951 L 510.9015 203.8238 L 512.0637 202.3372 L 513.8052 201.0669 L 515.0605 200.2756 L 517.0268 199.3663 L 519.2726 198.1581 L 520.3381 197.7806 L 521.5504 197.5611 L 523.4258 197.4345 L 534.8026 197.3865 L 536.8803 197.6972 L 537.9392 197.9961 L 538.4135 198.2006 L 540.6529 199.4324 L 542.6268 200.2921 L 545.2803 201.8558 L 547.2536 202.7218 L 549.9166 204.269 L 551.8934 205.1287 L 554.5575 206.6744 L 556.5344 207.5341 L 559.1979 209.0797 L 561.1754 209.9378 L 563.8413 211.4756 L 565.8223 212.3212 L 568.4858 213.8542 L 570.4444 214.7603 L 571.3717 215.3754 L 572.2466 216.1014 L 575.5738 219.3413 L 576.8492 220.4646 L 577.7365 221.0922 L 579.5116 222.114 L 581.1705 223.6069 L 577.8498 225.6819 L 575.401 226.7383 L 573.1728 228.0125 L 570.8266 229.1609 L 570.0214 229.7768 L 569.3365 230.5233 L 568.8008 231.3641 L 568.4132 232.3284 L 566.4411 233.163 L 563.8106 233.9598 L 561.1199 235.4472 L 559.1502 236.314 L 558.247 236.9008 L 557.3975 237.6016 L 556.1769 238.7618 L 549.0399 246.1572 L 547.2076 248.2849 L 546.5858 249.1887 L 546.2012 249.8635 L 543.0881 248.5114 L 542.2056 248.2943 L 541.3467 248.2684 L 540.5019 248.4217 L 540.0299 248.5979 L 537.859 249.8242 L 535.9175 250.7193 L 533.7171 252.0345 L 532.7561 252.4191 L 531.2299 252.696 L 529.6637 252.7566 L 528.1051 252.6456 L 527.0933 252.4427 L 526.6037 252.2822 L 525.6693 251.8292 L 523.9119 250.8043 L 521.9604 249.8966 L 520.6206 248.9409 L 518.9706 247.3913 L 513.7857 241.9538 L 511.7304 239.9079 L 510.0933 238.5243 L 507.7902 236.9173 Z" fill="#000" fill-opacity="1" stroke="#000" stroke-width="0" paint-order="fill" stroke-opacity="1" stroke-dasharray="" stroke-linecap="butt" stroke-linejoin="miter" stroke-miterlimit="10" transform="matrix(1.149999976158142,0,0,1.149999976158142,-59.99997329711914,-39.97494888305664)" clip-path="none" style="filter: url(#f1)"/>
<path data-code="209" d="M 428.9785 206.9788 L 429.6398 206.3896 L 430.3542 205.9067 L 430.7548 205.7501 L 431.1961 205.6903 L 431.6438 205.7556 L 432.0562 205.9263 L 432.767 206.4816 L 433.3263 207.2281 L 434.1711 209.0545 L 434.4277 209.4761 L 435.0589 210.258 L 435.8093 210.9281 L 436.2193 211.2066 L 438.0682 212.134 L 438.4911 212.41 L 439.2681 213.0778 L 439.9194 213.8959 L 440.1766 214.367 L 440.5116 215.4572 L 440.6143 216.5915 L 440.5282 217.7351 L 440.2267 218.8568 L 439.9789 219.383 L 438.9926 220.7973 L 437.8298 222.0936 L 436.1786 223.7375 L 434.8719 224.8631 L 433.9286 225.49 L 432.8839 225.9226 L 431.222 226.1971 L 428.9408 226.2349 L 425.3292 226.0075 L 427.87 222.3224 L 428.437 221.1725 L 428.7797 219.9069 L 428.9472 218.5925 L 429.0328 216.5757 L 428.9785 206.9788 Z" fill="#000" fill-opacity="1" stroke="#000" stroke-width="0" paint-order="fill" stroke-opacity="1" stroke-dasharray="" stroke-linecap="butt" stroke-linejoin="miter" stroke-miterlimit="10" transform="matrix(1.149999976158142,0,0,1.149999976158142,-59.99997329711914,-39.97494888305664)" clip-path="none" style="filter: url(#f1)"/>
<path data-code="210" d="M 636.0293 438.7411 L 633.6471 437.551 L 631.3623 436.2193 L 630.4243 435.7757 L 629.3613 435.4823 L 625.4937 435.0505 L 623.8903 434.6729 L 622.9576 434.2443 L 621.1725 433.261 L 619.1986 432.4045 L 616.4849 430.9713 L 615.4425 430.6622 L 612.776 430.1069 L 611.7873 429.7325 L 608.7804 428.0138 L 607.9993 427.4215 L 607.407 426.6279 L 605.921 424.0157 L 605.4939 423.0466 L 605.2213 421.9297 L 605.0839 420.1913 L 605.1641 418.4412 L 605.3387 417.2991 L 605.6479 416.2105 L 606.7847 413.9098 L 607.1369 412.8935 L 607.3368 411.2142 L 607.2566 410.0815 L 606.9711 408.9787 L 606.728 408.4462 L 606.1057 407.4709 L 603.5743 404.2931 L 601.3437 400.0023 L 600.9249 399.0356 L 600.7727 398.4874 L 600.6016 396.7884 L 600.7969 395.0941 L 601.1514 394.0598 L 602.3673 391.7842 L 603.238 389.769 L 604.6845 386.9822 L 605.0143 385.8967 L 605.9411 381.6775 L 609.6352 382.8897 L 612.3371 384.3629 L 614.301 385.2077 L 616.4701 386.3789 L 617.8565 386.8327 L 621.153 388.962 L 623.5776 390.0593 L 625.7952 391.354 L 628.2351 392.441 L 630.9352 393.9465 L 633.3923 394.9809 L 636.2529 396.672 L 636.6121 396.9504 L 636.9248 397.3201 L 637.1419 397.7763 L 637.2475 398.2687 L 637.2504 398.7761 L 637.1572 399.285 L 636.9855 399.742 L 636.4835 400.5781 L 634.4188 403.0692 L 632.3617 404.935 L 631.6703 405.7333 L 631.078 406.6064 L 630.1477 408.587 L 629.1825 410.4024 L 628.7737 411.3738 L 628.5283 412.4845 L 628.4811 414.1914 L 628.6445 415.3138 L 628.7944 415.8573 L 629.8804 418.1958 L 630.2527 419.194 L 630.8609 421.9312 L 631.1718 423.0057 L 632.2661 425.3631 L 632.6271 426.3777 L 633.2023 429.1237 L 633.5061 430.195 L 634.6005 432.5531 L 634.9668 433.5788 L 636.0293 438.7411 Z" fill="#000" fill-opacity="1" stroke="#000" stroke-width="0" paint-order="fill" stroke-opacity="1" stroke-dasharray="" stroke-linecap="butt" stroke-linejoin="miter" stroke-miterlimit="10" transform="matrix(1.149999976158142,0,0,1.149999976158142,-59.99997329711914,-39.97494888305664)" clip-path="none" style="filter: url(#f1)"/>
<path data-code="211" d="M 469.8813 330.7029 L 469.3091 329.9493 L 468.8554 329.1336 L 468.6584 328.6011 L 468.4112 327.4645 L 468.2519 325.0482 L 468.3328 318.2105 L 468.2372 317.0094 L 467.9953 315.85 L 467.5352 314.829 L 467.2367 314.3995 L 466.5323 313.6484 L 465.717 313.0514 L 463.3543 311.8762 L 462.4287 311.2163 L 461.5539 310.4533 L 460.3699 309.157 L 459.7215 308.177 L 459.4667 307.6405 L 459.1399 306.4795 L 458.9924 305.2769 L 458.9411 303.4339 L 459.0266 297.2019 L 458.9145 295.3708 L 458.7116 294.1877 L 458.3529 293.1227 L 457.1831 290.8063 L 456.3519 288.7706 L 454.8611 286.02 L 453.975 284.0008 L 452.9845 282.5016 L 451.4047 280.6768 L 443.9846 272.9746 L 442.0172 271.0625 L 441.1859 270.3852 L 440.3028 269.8205 L 438.3212 268.9726 L 435.6571 267.4702 L 433.7245 266.6097 L 433.2956 266.3297 L 432.5175 265.6493 L 431.8597 264.8415 L 431.5878 264.3947 L 430.5347 261.9036 L 429.2741 259.5958 L 431.3022 257.3478 L 435.5108 252.9799 L 436.588 251.7576 L 437.2387 250.9089 L 437.7862 250.0114 L 438.4752 248.3942 L 438.92 247.5384 L 439.5241 246.6661 L 441.5659 244.1562 L 442.1694 243.2752 L 442.6077 242.4029 L 443.2259 240.7432 L 444.0813 238.9278 L 448.0238 238.1349 L 449.6208 237.6779 L 452.328 236.2094 L 454.2771 235.3119 L 456.4876 234.0864 L 457.4893 233.7341 L 458.573 233.5673 L 460.2159 233.6271 L 461.2807 233.8843 L 464.0033 235.2443 L 466.7464 236.2385 L 469.1982 237.3177 L 473.6793 241.2561 L 474.6078 241.9388 L 475.6154 242.4729 L 476.1812 242.6617 L 477.3457 242.8772 L 482.005 243.0998 L 483.0598 243.3326 L 483.5447 243.5426 L 483.9812 243.8423 L 484.5859 244.6053 L 485.393 246.2996 L 485.8749 247.5353 L 485.0773 249.3302 L 483.0285 252.3932 L 481.8905 254.8575 L 481.3295 255.7589 L 480.3113 257.0229 L 476.9446 260.653 L 475.9623 261.9429 L 475.4904 262.8042 L 474.8002 264.4096 L 473.8433 266.1904 L 473.4693 267.1446 L 473.379 267.578 L 473.3855 268.8978 L 473.6474 269.8158 L 474.822 272.0536 L 475.6709 274.068 L 477.2372 276.7856 L 478.0843 278.8456 L 479.2671 281.1818 L 479.6299 282.2594 L 479.8452 283.5171 L 479.9721 285.4819 L 479.9927 287.4901 L 479.9172 299.6387 L 479.9408 313.7978 L 479.8806 316.4659 L 479.6901 318.4197 L 479.4028 319.6688 L 478.2111 322.5429 L 477.4537 325.7411 L 477.0743 326.7794 L 476.7629 327.3277 L 475.9665 328.2865 L 475.4969 328.6908 L 474.5064 329.2831 L 471.7054 330.2946 L 469.8813 330.7029 Z" fill="#000" fill-opacity="1" stroke="#000" stroke-width="0" paint-order="fill" stroke-opacity="1" stroke-dasharray="" stroke-linecap="butt" stroke-linejoin="miter" stroke-miterlimit="10" transform="matrix(1.149999976158142,0,0,1.149999976158142,-59.99997329711914,-39.97494888305664)" clip-path="none" style="filter: url(#f1)"/>
<path data-code="212" d="M 374.5392 128.3159 L 376.5951 127.9375 L 379.7571 127.7912 L 381.0679 128.7579 L 382.3876 129.8529 L 384.8812 132.3062 L 385.6322 133.1785 L 386.3012 134.1043 L 386.8292 135.1213 L 387.0221 135.7073 L 387.3076 137.533 L 387.3713 139.4129 L 387.1737 150.9 L 387.3536 152.7296 L 387.7017 153.8905 L 387.9489 154.3664 L 388.5813 155.2057 L 389.3553 155.8979 L 389.7883 156.181 L 390.7634 156.6278 L 393.1049 157.5284 L 395.333 158.2214 L 394.1909 161.7067 L 393.7898 162.6333 L 393.5119 163.04 L 393.1727 163.3837 L 391.561 164.4991 L 390.2938 165.5358 L 389.0379 166.7125 L 387.4215 168.3965 L 386.3106 169.7282 L 385.6694 170.6587 L 384.486 173.101 L 383.5651 174.343 L 382.3835 175.331 L 377.7749 177.6868 L 377.2133 177.8598 L 376.0506 178.0737 L 373.0425 178.2303 L 369.4044 178.1626 L 368.2163 178.0501 L 367.06 177.8268 L 366.0247 177.4437 L 363.7948 176.2033 L 361.8362 175.2901 L 360.5985 174.4736 L 358.9933 173.2064 L 359.1839 170.945 L 359.1143 169.7966 L 358.8688 168.6868 L 358.4488 167.724 L 357.4548 165.9078 L 356.5953 163.902 L 355.4148 161.6698 L 355.1393 160.6448 L 355.1033 160.0958 L 355.2431 159.0072 L 355.6166 158.057 L 356.5734 156.2739 L 357.4394 154.2563 L 359.0311 151.534 L 359.8865 149.5085 L 360.8162 147.7073 L 361.166 146.7563 L 361.2805 145.6842 L 361.1247 144.6381 L 360.9625 144.1787 L 360.1319 142.4624 L 359.8605 141.48 L 359.8564 140.3984 L 359.9702 139.8557 L 360.162 139.3429 L 360.713 138.3998 L 361.7725 137.1003 L 365.4194 133.3838 L 367.5255 131.452 L 368.4251 130.7983 L 369.3991 130.2902 L 372.7068 128.9507 L 374.5392 128.3159 Z" fill="#000" fill-opacity="1" stroke="#000" stroke-width="0" paint-order="fill" stroke-opacity="1" stroke-dasharray="" stroke-linecap="butt" stroke-linejoin="miter" stroke-miterlimit="10" transform="matrix(1.149999976158142,0,0,1.149999976158142,-59.99997329711914,-39.97494888305664)" clip-path="none" style="filter: url(#f1)"/>
<path data-code="213" d="M 496.0595 367.8803 L 495.7232 369.6375 L 495.3539 370.5522 L 494.4555 371.8886 L 493.3564 373.085 L 492.5547 373.8079 L 491.7011 374.4466 L 490.8598 374.9177 L 489.6823 375.4495 L 488.8676 375.9159 L 488.0453 376.5365 L 486.1274 378.1655 L 485.3286 378.6555 L 484.895 378.8089 L 484.4296 378.8671 L 483.9653 378.805 L 483.1282 378.4203 L 482.366 377.8399 L 480.4588 376.1471 L 479.6152 375.5525 L 477.6778 374.6078 L 475.4656 373.3021 L 474.4905 372.919 L 473.4569 372.7043 L 472.3962 372.5903 L 470.7816 372.5226 L 469.1652 372.5376 L 468.0986 372.6076 L 467.0508 372.7665 L 466.0391 373.0834 L 465.5518 373.332 L 464.2322 374.3105 L 463.0216 375.466 L 458.3069 380.419 L 453.1267 385.7355 L 451.2325 387.8207 L 450.5588 388.6969 L 449.9901 389.6219 L 449.2939 391.2368 L 448.8592 392.0847 L 446.4027 395.5307 L 445.8594 396.4832 L 445.129 397.9683 L 443.0873 398.1421 L 442.2301 398.0257 L 438.1502 396.2056 L 435.9338 394.9463 L 434.9103 394.5538 L 434.3445 394.42 L 432.5883 394.2053 L 430.1843 394.1211 L 425.9504 394.0983 L 423.5795 394.2368 L 422.4321 394.4712 L 421.3572 394.936 L 420.408 395.6085 L 419.5491 396.4046 L 418.3999 397.7362 L 417.7498 398.6959 L 416.8413 400.6867 L 416.3398 401.6172 L 415.7021 402.4352 L 414.947 403.1455 L 414.0609 403.7197 L 410.4742 405.5681 L 409.4648 405.8293 L 408.9268 405.8537 L 408.3894 405.8041 L 407.3847 405.4863 L 406.0934 404.6699 L 403.3437 402.4675 L 402.0128 402.1631 L 399.6655 401.3505 L 398.6921 400.9108 L 398.2638 400.6363 L 397.4939 399.9835 L 396.8403 399.2417 L 395.5059 397.2659 L 394.7596 396.6791 L 392.2365 395.1342 L 390.8083 394.5089 L 388.1459 393.9473 L 387.0994 393.6303 L 386.169 393.171 L 384.3886 392.0595 L 381.9971 390.6988 L 382.587 387.7349 L 382.9551 386.7203 L 383.8559 384.8514 L 384.1999 383.8178 L 384.4583 382.1157 L 384.6453 378.0113 L 384.8352 376.2879 L 385.1078 375.193 L 386.1832 372.8388 L 386.5283 371.8108 L 386.795 370.111 L 387.0162 366.0003 L 387.2215 364.2825 L 387.5011 363.2041 L 388.5299 360.9214 L 388.7866 359.9123 L 388.8226 359.3719 L 388.6963 358.2927 L 388.3453 357.341 L 387.4268 355.5468 L 386.5832 353.5261 L 385.047 350.7849 L 384.1869 348.7469 L 382.643 346.0088 L 381.7841 343.9959 L 380.6579 341.7495 L 380.4155 340.7175 L 380.4597 339.6218 L 380.5966 339.0869 L 380.8172 338.5686 L 381.4183 337.6318 L 382.8489 335.9131 L 383.5079 335.018 L 383.9952 334.019 L 384.1238 333.4881 L 384.1751 332.9477 L 384.0595 331.8788 L 383.7126 330.9498 L 382.8454 329.1502 L 382.5416 328.0765 L 382.3699 326.943 L 382.2979 325.7828 L 382.3215 324.6187 L 382.4643 323.4672 L 382.787 322.3542 L 383.3356 321.3442 L 384.0258 320.4302 L 387.5707 316.6122 L 388.2816 315.7171 L 388.8839 314.7653 L 389.7718 312.747 L 391.2572 309.9924 L 392.0796 307.9457 L 393.5662 305.1872 L 394.4003 303.1437 L 395.8952 300.3883 L 396.7306 298.3448 L 398.2249 295.5894 L 399.0596 293.5459 L 400.5462 290.7874 L 401.3692 288.7391 L 402.8535 285.9806 L 403.736 283.9568 L 404.2958 283.0522 L 404.9512 282.2004 L 408.2731 278.5452 L 409.2837 277.2654 L 409.83 276.3593 L 410.6936 274.3393 L 411.5549 272.999 L 412.9961 271.3865 L 413.7949 270.6645 L 414.6479 270.0329 L 415.4933 269.5798 L 417.082 268.9277 L 419.3037 267.6543 L 421.73 266.5688 L 422.602 266.0119 L 424.2154 264.6165 L 429.2741 259.5958 L 430.5347 261.9036 L 431.5878 264.3947 L 431.8597 264.8415 L 432.5175 265.6493 L 433.2956 266.3297 L 433.7245 266.6097 L 435.6571 267.4702 L 438.3212 268.9726 L 440.3028 269.8205 L 441.1859 270.3852 L 442.0172 271.0625 L 443.9846 272.9746 L 451.4047 280.6768 L 452.9845 282.5016 L 453.975 284.0008 L 454.8611 286.02 L 456.3519 288.7706 L 457.1831 290.8063 L 458.3529 293.1227 L 458.7116 294.1877 L 458.9145 295.3708 L 459.0266 297.2019 L 458.9411 303.4339 L 458.9924 305.2769 L 459.1399 306.4795 L 459.4667 307.6405 L 459.7215 308.177 L 460.3699 309.157 L 461.5539 310.4533 L 462.4287 311.2163 L 463.3543 311.8762 L 465.717 313.0514 L 466.5323 313.6484 L 467.2367 314.3995 L 467.5352 314.829 L 467.9953 315.85 L 468.2372 317.0094 L 468.3328 318.2105 L 468.2519 325.0482 L 468.4112 327.4645 L 468.6584 328.6011 L 468.8554 329.1336 L 469.3091 329.9493 L 469.8813 330.7029 L 470.2117 332.4805 L 470.4353 334.27 L 470.5143 336.0634 L 470.5639 340.8261 L 470.6494 341.9894 L 470.8394 343.1229 L 471.1904 344.1651 L 472.3779 346.4674 L 473.2457 348.4873 L 473.8421 349.4453 L 474.924 350.7849 L 476.5157 352.4949 L 483.4898 359.6975 L 485.5977 361.6734 L 486.961 362.6393 L 489.3331 363.8538 L 490.1761 364.472 L 492.6302 366.5061 L 493.5039 367.0819 L 494.4791 367.5074 L 496.0595 367.8803 Z" fill="#000" fill-opacity="1" stroke="#000" stroke-width="0" paint-order="fill" stroke-opacity="1" stroke-dasharray="" stroke-linecap="butt" stroke-linejoin="miter" stroke-miterlimit="10" transform="matrix(1.149999976158142,0,0,1.149999976158142,-59.99997329711914,-39.97494888305664)" clip-path="none" style="filter: url(#f1)"/>
<path data-code="214" d="M 603.8639 141.1394 L 600.5574 145.1871 L 599.5987 146.4503 L 599.0625 147.336 L 598.1475 149.3363 L 597.213 150.7411 L 596.0939 152.0578 L 593.3514 155.0625 L 592.6476 155.9647 L 592.0512 156.922 L 591.1727 158.9451 L 589.6855 161.6989 L 588.8608 163.7439 L 587.3588 166.4946 L 586.5306 168.5389 L 585.3265 170.8491 L 584.9502 171.8669 L 584.3862 174.6223 L 584.0895 175.6951 L 582.9999 178.0486 L 582.6542 179.0806 L 582.4495 180.2014 L 582.0925 183.6466 L 581.8725 184.758 L 581.5132 185.7704 L 580.6006 187.6102 L 580.2567 188.6374 L 580.0891 189.7567 L 580.1346 191.4604 L 580.3841 192.5656 L 580.577 193.058 L 581.7834 195.3422 L 582.6429 197.3684 L 584.1785 200.1041 L 585.0086 202.1468 L 586.1985 204.4633 L 586.5636 205.4835 L 586.8975 207.1353 L 586.9058 213.5223 L 586.7264 215.3833 L 586.4386 216.5757 L 586.0256 217.555 L 584.4039 220.8342 L 583.8517 221.7176 L 583.1833 222.4554 L 582.4259 223.0485 L 581.1705 223.6069 L 579.5116 222.114 L 577.7365 221.0922 L 576.8492 220.4646 L 575.5738 219.3413 L 572.2466 216.1014 L 571.3717 215.3754 L 570.4444 214.7603 L 568.4858 213.8542 L 565.8223 212.3212 L 563.8413 211.4756 L 561.1754 209.9378 L 559.1979 209.0797 L 556.5344 207.5341 L 554.5575 206.6744 L 551.8934 205.1287 L 549.9166 204.269 L 547.2536 202.7218 L 545.2803 201.8558 L 542.6268 200.2921 L 540.6529 199.4324 L 538.4135 198.2006 L 537.9392 197.9961 L 536.8803 197.6972 L 534.8026 197.3865 L 532.9396 194.6964 L 531.9479 193.0611 L 531.4895 191.8616 L 531.1739 189.9542 L 531.0866 186.6631 L 531.2854 183.3666 L 531.4919 182.0939 L 531.8399 180.8928 L 532.9107 178.7258 L 533.3094 177.5861 L 533.4587 176.4031 L 533.4345 175.8186 L 533.1207 174.7017 L 532.7773 174.203 L 532.349 173.8451 L 531.873 173.6068 L 530.8429 173.3614 L 528.5635 173.2843 L 524.562 173.4495 L 524.3036 170.9317 L 524.2723 169.2193 L 524.4499 167.5423 L 524.7608 166.4694 L 525.3359 165.3997 L 526.0645 164.4314 L 529.4071 160.8368 L 530.5315 159.406 L 531.1002 158.3968 L 531.7739 156.8968 L 532.7396 155.0791 L 533.1449 154.1092 L 533.2906 153.5618 L 533.4469 151.8698 L 533.2481 150.1905 L 532.9059 149.1695 L 531.7998 146.8515 L 531.3839 145.0825 L 531.2234 143.2159 L 531.2347 140.6958 L 531.437 138.8418 L 531.742 137.6612 L 533.0859 134.8326 L 533.9389 132.1662 L 534.461 130.8313 L 536.0615 130.571 L 540.2246 130.276 L 541.3042 130.0314 L 542.2593 129.5233 L 542.6138 129.1733 L 543.1571 128.3686 L 544.5624 125.7501 L 544.9087 124.7393 L 545.4703 122.0414 L 545.8325 120.9992 L 546.0779 120.5375 L 546.6902 119.6966 L 547.4212 118.9682 L 548.8983 117.9402 L 554.4915 118.3406 L 556.1403 118.6355 L 557.1438 119.0076 L 559.382 120.2236 L 561.337 121.0802 L 563.5062 122.2821 L 564.866 122.7784 L 568.1584 124.8872 L 570.5818 125.979 L 572.3652 126.9661 L 573.2996 127.3964 L 574.9113 127.7598 L 578.7954 128.1452 L 579.8591 128.4276 L 580.3346 128.6282 L 582.5727 129.8544 L 584.5461 130.7141 L 587.2002 132.2747 L 589.177 133.1297 L 591.8352 134.6824 L 593.7891 135.5964 L 595.0745 136.497 L 597.4998 138.5917 L 598.8064 139.4711 L 599.8117 139.8958 L 602.1803 140.7398 L 603.8639 141.1394 Z" fill="#000" fill-opacity="1" stroke="#000" stroke-width="0" paint-order="fill" stroke-opacity="1" stroke-dasharray="" stroke-linecap="butt" stroke-linejoin="miter" stroke-miterlimit="10" transform="matrix(1.149999976158142,0,0,1.149999976158142,-59.99997329711914,-39.97494888305664)" clip-path="none" style="filter: url(#f1)"/>
<path data-code="215" d="M 459.3723 162.4563 L 457.0297 164.0255 L 456.1011 164.7547 L 454.798 165.9723 L 453.6122 167.2977 L 452.6318 168.7489 L 451.7457 170.7641 L 450.5759 173.079 L 450.216 174.1605 L 449.9529 175.9901 L 449.8727 178.5111 L 449.9193 182.9946 L 448.7671 183.5538 L 448.4368 183.8417 L 448.1689 184.2019 L 447.8055 185.0569 L 447.418 186.4972 L 447.0616 187.4812 L 446.5325 188.3472 L 445.8511 189.1109 L 445.0553 189.7481 L 442.7227 191.0475 L 439.0881 193.8917 L 438.0776 194.4416 L 437.0128 194.7648 L 435.9126 194.9363 L 432.0214 195.3076 L 428.378 196.187 L 427.4931 195.531 L 426.3445 194.4714 L 425.3528 193.257 L 424.8449 192.3446 L 424.5021 191.2732 L 424.0898 189.0763 L 423.809 188.0066 L 422.74 185.6477 L 422.3908 184.6259 L 421.8793 181.8422 L 421.6067 180.7394 L 420.0482 176.8522 L 419.788 173.7547 L 419.808 171.8441 L 419.9154 170.5895 L 420.3054 168.789 L 421.3124 166.5206 L 421.7218 165.325 L 421.9601 164.0491 L 422.1164 162.067 L 422.0987 159.3879 L 421.9064 157.4065 L 421.6303 156.1323 L 421.1183 154.7141 L 422.1259 152.4362 L 423.0468 150.9252 L 423.7977 150.0009 L 424.6166 149.1436 L 425.4962 148.3656 L 426.4495 147.7057 L 426.9615 147.4422 L 428.0039 147.0898 L 430.1242 146.6383 L 431.1512 146.3363 L 433.4295 145.2233 L 434.4731 144.8465 L 436.247 144.5405 L 438.6799 144.4218 L 440.491 144.4957 L 441.6638 144.6805 L 442.7782 145.0723 L 443.2289 145.3389 L 444.02 146.0036 L 444.6689 146.7925 L 445.1721 147.6923 L 445.8228 149.1129 L 446.3797 149.953 L 447.4551 151.04 L 448.33 151.6079 L 452.4648 153.7372 L 453.5296 154.0526 L 458.0261 154.9359 L 458.5889 155.3536 L 458.8077 155.7138 L 459.0891 156.6884 L 459.2638 158.5227 L 459.3723 162.4563 Z" fill="#000" fill-opacity="1" stroke="#000" stroke-width="0" paint-order="fill" stroke-opacity="1" stroke-dasharray="" stroke-linecap="butt" stroke-linejoin="miter" stroke-miterlimit="10" transform="matrix(1.149999976158142,0,0,1.149999976158142,-59.99997329711914,-39.97494888305664)" clip-path="none" style="filter: url(#f1)"/>
<path data-code="216" d="M 471.9956 204.4806 L 468.3274 202.6054 L 466.3146 201.7787 L 463.6381 200.2543 L 461.1928 199.1862 L 459.4284 198.1432 L 457.061 197.0129 L 456.6333 196.7289 L 455.8534 196.0485 L 455.1903 195.2462 L 454.9136 194.8034 L 454.0564 192.811 L 452.9043 190.4906 L 452.5521 189.4641 L 452.0165 186.7103 L 451.6837 185.6398 L 451.1894 184.7038 L 449.9193 182.9946 L 449.8727 178.5111 L 449.9529 175.9901 L 450.216 174.1605 L 450.5759 173.079 L 451.7457 170.7641 L 452.6318 168.7489 L 453.6122 167.2977 L 454.798 165.9723 L 456.1011 164.7547 L 457.0297 164.0255 L 459.3723 162.4563 L 459.2307 166.2075 L 459.167 170.4086 L 459.2089 172.7825 L 459.38 174.5224 L 459.6496 175.6377 L 459.8407 176.1356 L 461.0046 178.4458 L 461.6441 179.9301 L 461.8972 180.4177 L 462.4989 181.2696 L 463.6292 182.3385 L 464.5301 182.8868 L 465.9713 183.5593 L 468.6236 185.0955 L 472.2806 186.5916 L 473.1478 186.73 L 473.579 186.6804 L 475.6621 185.8734 L 477.2024 185.5635 L 478.8341 185.602 L 479.9125 185.8797 L 480.4375 186.1267 L 480.9307 186.4311 L 481.8451 187.1563 L 482.6893 187.9854 L 483.4745 188.8836 L 484.5116 190.349 L 485.9581 193.1138 L 484.0727 193.8272 L 482.2793 194.6264 L 480.6576 195.2478 L 479.8034 195.6985 L 478.9415 196.3223 L 476.941 198.1786 L 474.681 200.6114 L 473.3383 202.3435 L 471.9956 204.4806 Z" fill="#000" fill-opacity="1" stroke="#000" stroke-width="0" paint-order="fill" stroke-opacity="1" stroke-dasharray="" stroke-linecap="butt" stroke-linejoin="miter" stroke-miterlimit="10" transform="matrix(1.149999976158142,0,0,1.149999976158142,-59.99997329711914,-39.97494888305664)" clip-path="none" style="filter: url(#f1)"/>
<path data-code="217" d="M 421.1183 154.7141 L 418.2058 152.7107 L 417.2761 152.2262 L 416.7475 152.0413 L 415.6532 151.8124 L 414.5329 151.7165 L 412.2858 151.8171 L 410.6671 152.2026 L 408.3899 153.347 L 407.4189 153.7317 L 404.7636 154.3468 L 403.7218 154.663 L 400.9686 155.9868 L 397.3447 156.9487 L 396.4515 157.3766 L 395.333 158.2214 L 393.1049 157.5284 L 390.7634 156.6278 L 389.7883 156.181 L 389.3553 155.8979 L 388.5813 155.2057 L 387.9489 154.3664 L 387.7017 153.8905 L 387.3536 152.7296 L 387.1737 150.9 L 387.3713 139.4129 L 387.3076 137.533 L 387.0221 135.7073 L 386.8292 135.1213 L 386.3012 134.1043 L 385.6322 133.1785 L 384.8812 132.3062 L 382.3876 129.8529 L 381.0679 128.7579 L 379.7571 127.7912 L 382.4006 125.9947 L 385.2511 124.4971 L 388.8408 121.6174 L 389.8425 121.0574 L 390.9876 120.7081 L 392.1787 120.539 L 394.0086 120.4533 L 408.9681 120.5902 L 412.6723 120.5036 L 413.8739 120.3589 L 415.029 120.0694 L 417.7722 118.7905 L 420.68 117.9276 L 421.5188 117.4313 L 421.8604 117.0813 L 423.7116 114.1583 L 424.2107 113.2443 L 425.0372 111.2213 L 426.1244 108.9371 L 426.3746 107.9035 L 426.4058 107.3561 L 426.276 106.2729 L 425.9368 105.3228 L 425.2909 103.9667 L 424.921 102.9819 L 424.2779 100.2596 L 423.9488 99.1977 L 422.6586 96.381 L 422.4132 95.2814 L 422.3388 94.1479 L 422.4167 93.0152 L 422.6657 91.9164 L 423.9659 89.1013 L 424.2992 88.0402 L 424.9581 85.3163 L 425.3369 84.3323 L 426.0005 82.9794 L 426.3527 82.0307 L 426.4572 81.4927 L 426.4684 80.3955 L 426.2171 79.3595 L 425.7923 78.4495 L 424.3163 75.9112 L 423.9948 75.5321 L 423.2125 74.9421 L 419.775 72.9167 L 417.7946 72.0751 L 415.1081 70.5649 L 412.6758 69.466 L 410.4612 68.1697 L 408.4908 67.2856 L 405.8243 65.6291 L 403.0245 64.1488 L 404.1973 62.5788 L 405.2557 61.3321 L 407.1405 59.3011 L 409.8565 56.5112 L 411.0464 55.3706 L 412.2811 54.3316 L 413.1507 53.755 L 413.9925 53.331 L 433.9658 53.2996 L 435.8831 53.3869 L 437.7413 53.6811 L 438.8115 54.0657 L 441.052 55.277 L 443.0106 56.1682 L 445.6735 57.7272 L 447.6474 58.6097 L 449.8821 59.8329 L 450.8401 60.2175 L 453.7066 61.0568 L 455.8227 62.4915 L 459.1841 63.5172 L 461.8748 64.9519 L 463.8546 65.8203 L 466.5712 67.2715 L 469.7787 68.239 L 471.4281 69.5148 L 472.3313 69.9199 L 474.596 70.6718 L 474.9813 70.8803 L 476.2998 71.9115 L 476.6968 72.1183 L 480.0954 73.0953 L 484.2508 75.1781 L 485.1458 75.7216 L 485.9203 76.3808 L 486.587 77.1272 L 487.863 79.1346 L 489.044 80.4411 L 490.8616 83.7754 L 490.3667 85.7339 L 489.1626 89.2444 L 487.7043 92.0132 L 486.8347 94.0433 L 485.9044 95.4701 L 483.9836 97.645 L 482.7394 98.8736 L 481.4434 100.0102 L 480.0606 100.9486 L 477.6265 102.1356 L 476.7133 102.7884 L 475.4078 103.9132 L 473.7513 105.5438 L 472.6003 106.8416 L 471.9254 107.7682 L 471.3927 108.7876 L 471.2087 109.3374 L 470.9851 110.4725 L 470.8524 112.2226 L 470.8465 118.199 L 471.0187 121.1423 L 471.2305 122.2726 L 471.5992 123.307 L 472.831 125.5967 L 473.7106 127.6072 L 474.7323 129.399 L 475.1783 130.3515 L 475.4585 131.4527 L 475.5511 132.5862 L 475.4662 133.7196 L 475.3429 134.2765 L 475.1512 134.8177 L 474.6014 135.7325 L 474.2604 136.1305 L 473.4811 136.814 L 472.5714 137.3395 L 470.6707 138.1756 L 468.4248 139.4129 L 466.4202 140.2199 L 463.723 141.7034 L 461.7421 142.5631 L 460.3091 143.5345 L 459.4331 144.3164 L 458.6225 145.1722 L 457.9052 146.1066 L 457.3459 147.1551 L 457.0403 148.2768 L 456.9229 149.433 L 456.9843 151.1894 L 457.1748 152.3536 L 457.4704 153.4037 L 458.0261 154.9359 L 453.5296 154.0526 L 452.4648 153.7372 L 448.33 151.6079 L 447.4551 151.04 L 446.3797 149.953 L 445.8228 149.1129 L 445.1721 147.6923 L 444.6689 146.7925 L 444.02 146.0036 L 443.2289 145.3389 L 442.7782 145.0723 L 441.6638 144.6805 L 440.491 144.4957 L 438.6799 144.4218 L 436.247 144.5405 L 434.4731 144.8465 L 433.4295 145.2233 L 431.1512 146.3363 L 430.1242 146.6383 L 428.0039 147.0898 L 426.9615 147.4422 L 426.4495 147.7057 L 425.4962 148.3656 L 424.6166 149.1436 L 423.7977 150.0009 L 423.0468 150.9252 L 422.1259 152.4362 L 421.1183 154.7141 Z" fill="#000" fill-opacity="1" stroke="#000" stroke-width="0" paint-order="fill" stroke-opacity="1" stroke-dasharray="" stroke-linecap="butt" stroke-linejoin="miter" stroke-miterlimit="10" transform="matrix(1.149999976158142,0,0,1.149999976158142,-59.99997329711914,-39.97494888305664)" clip-path="none" style="filter: url(#f1)"/>
<path data-code="218" d="M 485.8749 247.5353 L 485.393 246.2996 L 484.5859 244.6053 L 483.9812 243.8423 L 483.5447 243.5426 L 483.0598 243.3326 L 482.005 243.0998 L 477.3457 242.8772 L 476.1812 242.6617 L 475.6154 242.4729 L 474.6078 241.9388 L 473.6793 241.2561 L 469.1982 237.3177 L 473.9554 232.5495 L 476.121 230.1638 L 477.0378 228.8888 L 477.4767 228.0385 L 478.1752 226.4221 L 478.7385 225.5238 L 479.7721 224.2692 L 482.3849 221.539 L 483.2934 220.3481 L 483.5099 219.9234 L 483.6556 219.4735 L 483.7016 218.9976 L 483.6279 218.5304 L 483.2368 217.7116 L 482.376 216.6339 L 480.7685 216.3044 L 479.7727 215.937 L 477.5339 214.7226 L 475.6331 213.7897 L 474.8244 213.1683 L 474.1265 212.4242 L 473.559 211.5928 L 473.1572 210.7724 L 476.0597 208.4968 L 477.3345 207.6741 L 478.335 207.3634 L 478.8713 207.3296 L 479.4069 207.3831 L 479.9314 207.5301 L 480.8121 208.0438 L 481.1909 208.3804 L 481.8374 209.1646 L 482.3336 210.0881 L 483.1795 212.0301 L 483.7435 212.9253 L 484.7027 214.2357 L 485.9286 213.2013 L 486.7775 212.5799 L 489.1579 211.3608 L 490.0263 210.7873 L 492.878 208.3686 L 493.7251 207.7378 L 494.6543 207.2124 L 496.1173 206.5375 L 497.8776 205.5055 L 498.8133 205.0501 L 499.8899 204.752 L 501.5677 204.5813 L 503.2572 204.6371 L 504.3616 204.8149 L 504.8978 204.9651 L 505.8506 205.4009 L 506.6499 205.9641 L 507.5625 206.7514 L 508.1955 208.6888 L 509.5034 211.4709 L 509.9105 212.6657 L 510.1948 214.5535 L 510.3033 217.8177 L 510.2733 225.7684 L 510.0874 229.0107 L 509.6981 230.856 L 508.6946 233.137 L 508.2999 234.2493 L 507.7902 236.9173 L 504.817 239.0741 L 503.4914 239.9134 L 502.5045 240.3193 L 499.3188 241.0264 L 498.3348 241.4 L 496.0925 242.6176 L 494.1139 243.4655 L 491.4427 245.0033 L 489.4275 245.8268 L 485.8749 247.5353 Z" fill="#000" fill-opacity="1" stroke="#000" stroke-width="0" paint-order="fill" stroke-opacity="1" stroke-dasharray="" stroke-linecap="butt" stroke-linejoin="miter" stroke-miterlimit="10" transform="matrix(1.149999976158142,0,0,1.149999976158142,-59.99997329711914,-39.97494888305664)" clip-path="none" style="filter: url(#f1)"/>
<path data-code="219" d="M 209.0304 189.4681 L 202.1518 189.984 L 200.413 190.2153 L 199.3048 190.5079 L 197.0902 191.5155 L 195.9584 191.9151 L 190.6143 192.778 L 189.4848 193.1791 L 187.2723 194.1906 L 185.4379 194.5957 L 183.5168 194.7436 L 180.9049 194.7766 L 177.6146 194.6925 L 174.6915 194.5053 L 173.1629 193.9767 L 170.7569 192.5884 L 169.9803 192.0307 L 169.6411 191.6642 L 169.3499 191.1883 L 169.006 190.1107 L 168.8609 188.9363 L 168.9122 181.2263 L 168.8317 179.9482 L 168.6299 178.703 L 168.4585 178.1036 L 167.9468 176.9458 L 166.3106 173.982 L 165.6723 173.1726 L 164.0916 171.7749 L 163.7034 171.2274 L 162.6923 170.2057 L 162.3245 169.6071 L 164.4895 164.208 L 164.7202 163.696 L 165.3242 162.6986 L 166.0454 161.7641 L 167.2406 160.4262 L 174.8557 152.577 L 176.5825 150.9181 L 177.9597 149.8436 L 178.9384 149.3127 L 180.8724 148.4459 L 183.1103 147.1968 L 185.1043 146.3591 L 186.0815 145.7511 L 186.9888 145.0196 L 187.826 144.207 L 188.5713 143.3229 L 189.1675 142.3444 L 189.3751 141.8048 L 189.4937 141.2566 L 189.4955 140.1578 L 189.2262 139.147 L 188.3498 137.3686 L 187.9855 136.3759 L 187.7622 135.2668 L 187.6392 134.1106 L 187.5395 130.5364 L 187.5272 123.3196 L 187.5808 120.9504 L 187.7726 119.2176 L 188.0708 118.1109 L 188.2826 117.6177 L 191.2065 112.8196 L 194.5358 113.1964 L 196.1738 113.4913 L 197.1728 113.8469 L 199.4558 114.9528 L 200.4885 115.2658 L 203.1408 115.8762 L 204.1251 116.2624 L 206.3689 117.4793 L 208.3446 118.3366 L 211.0037 119.887 L 212.9484 120.8246 L 214.3495 121.8133 L 216.5579 123.7113 L 217.4761 124.4043 L 218.4422 124.9588 L 219.9069 125.6329 L 221.6912 126.6169 L 222.6301 127.0432 L 224.2388 127.4216 L 227.0076 127.7118 L 228.6311 127.9989 L 229.6199 128.3489 L 231.9085 129.4344 L 233.019 129.7254 L 235.3619 129.9512 L 241.3881 129.9818 L 243.7522 130.1399 L 245.4329 130.5277 L 247.7154 131.6187 L 248.7079 131.9703 L 250.3459 132.2488 L 252.6044 132.3888 L 255.7502 132.4163 L 258.1975 132.6523 L 259.3538 132.959 L 262.105 134.2443 L 263.2606 134.5589 L 264.4697 134.7359 L 266.3333 134.8625 L 269.4879 134.9239 L 273.2381 134.7894 L 275.0342 134.4425 L 276.13 133.9635 L 277.1048 133.3059 L 279.4111 131.4472 L 280.7335 130.6504 L 281.9009 130.2611 L 285.5756 129.5752 L 287.9291 128.769 L 290.2216 134.6478 L 291.7315 137.3898 L 293.1076 140.6808 L 293.3751 141.5649 L 293.4161 142.0314 L 293.2553 142.9446 L 291.9259 146.1656 L 290.2697 149.4385 L 289.9411 150.5098 L 289.4762 152.713 L 289.168 153.7812 L 288.0746 156.1291 L 287.7177 157.1879 L 287.4392 158.9726 L 287.3153 161.4401 L 287.2805 166.434 L 287.4366 168.8771 L 287.677 170.057 L 287.8746 170.6249 L 288.4568 171.6876 L 289.5916 173.105 L 292.5153 176.2229 L 293.5662 177.6986 L 293.832 178.246 L 294.1712 179.3983 L 294.3379 180.5963 L 294.4269 182.4369 L 294.3665 188.6705 L 294.2255 190.5008 L 294.0116 191.6823 L 293.6456 192.7449 L 292.458 195.0559 L 291.6139 197.108 L 289.4408 200.9725 L 287.8032 200.1214 L 285.2172 199.1484 L 282.5363 197.6295 L 280.5571 196.7509 L 278.3009 195.5506 L 277.237 195.1746 L 275.9931 194.9489 L 274.7073 194.8451 L 268.7756 194.7994 L 266.1831 194.6374 L 264.3402 194.2284 L 261.5717 192.9888 L 259.7016 192.5672 L 256.4027 192.3729 L 246.9555 192.4342 L 243.6348 192.306 L 242.3479 192.1322 L 241.1167 191.8105 L 238.9172 190.795 L 237.7512 190.3836 L 236.4993 190.1461 L 235.2074 190.021 L 231.9017 189.9353 L 214.5197 189.9604 L 211.207 189.7937 L 209.0304 189.4681 Z" fill="#000" fill-opacity="1" stroke="#000" stroke-width="0" paint-order="fill" stroke-opacity="1" stroke-dasharray="" stroke-linecap="butt" stroke-linejoin="miter" stroke-miterlimit="10" transform="matrix(1.149999976158142,0,0,1.149999976158142,-59.99997329711914,-39.97494888305664)" clip-path="none" style="filter: url(#f1)"/>
<path data-code="220" d="M 381.9971 390.6988 L 379.8078 391.4515 L 375.9998 392.1681 L 375.0093 392.5244 L 373.1811 393.4061 L 372.1358 393.764 L 370.9559 393.9882 L 367.9367 394.3217 L 366.755 394.5467 L 365.7085 394.9077 L 363.4148 395.9979 L 361.3165 396.5524 L 360.2516 396.7971 L 359.2287 397.129 L 357.4743 398.0477 L 356.5616 398.4261 L 355.5133 398.5747 L 354.983 398.5425 L 353.986 398.2727 L 351.8074 397.092 L 349.8642 396.1827 L 349.3993 395.8909 L 348.5191 395.2066 L 347.682 394.4389 L 342.8564 389.4489 L 341.1645 387.9544 L 340.2471 387.3574 L 338.2779 386.4867 L 335.6052 384.9827 L 333.6319 384.123 L 332.3329 383.2239 L 331.1575 382.1172 L 330.1047 380.8863 L 329.2493 379.542 L 328.3901 377.5158 L 327.8205 376.5475 L 326.7699 375.1812 L 325.1995 373.4555 L 323.5285 371.8422 L 322.1849 370.8039 L 321.2157 370.2864 L 319.7329 369.6595 L 318.3993 368.9044 L 320.6316 366.8034 L 322.0823 365.7691 L 324.0352 364.8441 L 326.7206 363.3441 L 328.7166 362.5229 L 330.9554 361.2927 L 333.2977 360.1592 L 334.477 359.1682 L 335.0997 358.3265 L 335.3442 357.8522 L 335.5507 357.2835 L 335.7869 356.099 L 335.9737 351.7704 L 336.1471 349.9314 L 336.6025 348.2718 L 337.6502 345.9065 L 337.9458 344.7204 L 338.1057 343.4815 L 338.2284 340.2873 L 338.2119 326.0188 L 338.0691 324.1295 L 337.8514 322.9142 L 337.4939 321.8452 L 336.4335 319.4926 L 336.0492 317.7205 L 335.8772 314.5907 L 335.953 304.3581 L 335.8268 302.4885 L 335.4466 300.6974 L 335.0327 299.7276 L 334.0897 297.8854 L 333.2505 295.8537 L 331.7474 293.1101 L 330.8469 291.0981 L 329.9033 289.6398 L 327.4315 286.3826 L 326.1888 283.8994 L 325.5561 282.8957 L 323.3347 280.053 L 322.7315 279.1658 L 322.2298 278.1991 L 321.5888 276.6763 L 320.4116 274.3551 L 320.0497 273.3333 L 319.4963 270.5835 L 319.194 269.509 L 317.8183 266.7041 L 316.995 264.6606 L 315.6013 261.8627 L 315.2857 260.7898 L 314.8359 258.5921 L 314.5332 257.5263 L 313.4604 255.1753 L 313.1174 254.1386 L 312.9168 253.009 L 312.7903 251.2558 L 312.8395 246.3232 L 313.2619 245.4571 L 313.8731 244.5188 L 314.9727 243.2005 L 317.6852 240.3067 L 318.3156 239.4587 L 318.7433 238.5384 L 318.8297 238.0366 L 318.8049 237.5623 L 318.7002 237.114 L 317.9734 235.3969 L 317.0649 232.8617 L 316.4464 231.7173 L 321.387 230.5414 L 322.3787 230.1599 L 324.6647 229.0319 L 325.7012 228.7165 L 328.3553 228.1148 L 329.3378 227.7435 L 331.6241 226.6282 L 333.731 226.0886 L 335.8253 225.5301 L 338.1063 224.4195 L 339.1451 224.0616 L 340.9072 223.7949 L 344.5359 223.6234 L 346.3151 223.4252 L 347.9174 222.9383 L 350.1992 221.8324 L 351.8971 221.4258 L 354.2845 221.2362 L 357.3191 221.2165 L 359.1213 221.3101 L 360.8693 221.6012 L 361.9064 221.9834 L 364.1363 223.2231 L 366.0766 224.1599 L 367.0223 224.7986 L 369.6799 227.0616 L 370.6008 227.7506 L 371.5689 228.2973 L 373.4932 229.2097 L 375.7232 230.4879 L 378.1543 231.567 L 381.1027 233.4194 L 381.8472 234.033 L 382.144 234.416 L 384.9856 239.4949 L 385.3254 239.8599 L 385.7461 240.1486 L 386.2103 240.3515 L 387.2103 240.5458 L 388.255 240.4978 L 389.2957 240.1855 L 390.1711 239.62 L 390.5528 239.2676 L 391.213 238.4614 L 391.7297 237.5198 L 392.335 236.0159 L 393.7237 233.174 L 394.083 232.0618 L 394.6115 229.7186 L 395.907 230.7797 L 398.4744 232.6659 L 399.413 233.1567 L 400.8937 233.7946 L 403.5549 235.3347 L 405.517 236.2291 L 406.3411 236.7529 L 407.7682 237.8864 L 408.108 239.3526 L 408.4342 240.3657 L 409.8742 243.1635 L 410.5249 244.8004 L 410.9691 245.675 L 411.5756 246.5654 L 412.2599 247.4149 L 414.1317 249.4364 L 415.7305 250.9223 L 417.0354 251.837 L 417.5056 252.0667 L 418.4312 252.3601 L 421.2534 252.9438 L 421.7088 253.1129 L 422.6102 253.6147 L 423.8473 254.5995 L 427.3627 258.0046 L 429.2741 259.5958 L 424.2154 264.6165 L 422.602 266.0119 L 421.73 266.5688 L 419.3037 267.6543 L 417.082 268.9277 L 415.4933 269.5798 L 414.6479 270.0329 L 413.7949 270.6645 L 412.9961 271.3865 L 411.5549 272.999 L 410.6936 274.3393 L 409.83 276.3593 L 409.2837 277.2654 L 408.2731 278.5452 L 404.9512 282.2004 L 404.2958 283.0522 L 403.736 283.9568 L 402.8535 285.9806 L 401.3692 288.7391 L 400.5462 290.7874 L 399.0596 293.5459 L 398.2249 295.5894 L 396.7306 298.3448 L 395.8952 300.3883 L 394.4003 303.1437 L 393.5662 305.1872 L 392.0796 307.9457 L 391.2572 309.9924 L 389.7718 312.747 L 388.8839 314.7653 L 388.2816 315.7171 L 387.5707 316.6122 L 384.0258 320.4302 L 383.3356 321.3442 L 382.787 322.3542 L 382.4643 323.4672 L 382.3215 324.6187 L 382.2979 325.7828 L 382.3699 326.943 L 382.5416 328.0765 L 382.8454 329.1502 L 383.7126 330.9498 L 384.0595 331.8788 L 384.1751 332.9477 L 384.1238 333.4881 L 383.9952 334.019 L 383.5079 335.018 L 382.8489 335.9131 L 381.4183 337.6318 L 380.8172 338.5686 L 380.5966 339.0869 L 380.4597 339.6218 L 380.4155 340.7175 L 380.6579 341.7495 L 381.7841 343.9959 L 382.643 346.0088 L 384.1869 348.7469 L 385.047 350.7849 L 386.5832 353.5261 L 387.4268 355.5468 L 388.3453 357.341 L 388.6963 358.2927 L 388.8226 359.3719 L 388.7866 359.9123 L 388.5299 360.9214 L 387.5011 363.2041 L 387.2215 364.2825 L 387.0162 366.0003 L 386.795 370.111 L 386.5283 371.8108 L 386.1832 372.8388 L 385.1078 375.193 L 384.8352 376.2879 L 384.6453 378.0113 L 384.4583 382.1157 L 384.1999 383.8178 L 383.8559 384.8514 L 382.9551 386.7203 L 382.587 387.7349 L 381.9971 390.6988 Z" fill="#000" fill-opacity="1" stroke="#000" stroke-width="0" paint-order="fill" stroke-opacity="1" stroke-dasharray="" stroke-linecap="butt" stroke-linejoin="miter" stroke-miterlimit="10" transform="matrix(1.149999976158142,0,0,1.149999976158142,-59.99997329711914,-39.97494888305664)" clip-path="none" style="filter: url(#f1)"/>
<path data-code="221" d="M 420.0482 176.8522 L 421.6067 180.7394 L 421.8793 181.8422 L 422.3908 184.6259 L 422.74 185.6477 L 423.809 188.0066 L 424.0898 189.0763 L 424.5021 191.2732 L 424.8449 192.3446 L 425.3528 193.257 L 426.3445 194.4714 L 427.4931 195.531 L 428.378 196.187 L 427.1562 199.4544 L 426.8453 200.5477 L 426.663 201.7866 L 426.6371 203.6193 L 426.8017 204.7653 L 427.1863 205.7753 L 427.4942 206.189 L 427.8394 206.4785 L 428.9785 206.9788 L 429.0328 216.5757 L 428.9472 218.5925 L 428.7797 219.9069 L 428.437 221.1725 L 427.87 222.3224 L 425.3292 226.0075 L 420.8333 226.0949 L 419.1426 226.2168 L 418.0459 226.4409 L 417.5144 226.6305 L 416.5056 227.2047 L 415.18 228.346 L 414.3895 229.2144 L 413.6799 230.1449 L 413.0876 231.1352 L 412.2109 233.1473 L 411.2446 234.6119 L 410.4594 235.5156 L 409.6034 236.3667 L 407.7682 237.8864 L 406.3411 236.7529 L 405.517 236.2291 L 403.5549 235.3347 L 400.8937 233.7946 L 399.413 233.1567 L 398.4744 232.6659 L 395.907 230.7797 L 394.6115 229.7186 L 394.6694 229.1106 L 394.903 228.1722 L 396.5235 224.4509 L 397.0539 223.5275 L 397.7405 222.7472 L 398.5664 222.1164 L 399.0289 221.8757 L 400.0767 221.565 L 401.1598 221.4368 L 403.8906 221.3023 L 404.9589 221.1135 L 405.4792 220.9334 L 406.3777 220.4008 L 407.1293 219.6701 L 407.695 218.7608 L 408.0124 217.6628 L 408.0767 217.0988 L 408.0625 215.9638 L 407.8726 214.8429 L 407.7045 214.2986 L 407.2579 213.3445 L 406.2461 211.5456 L 405.3754 209.5241 L 403.9419 206.7396 L 403.6233 205.666 L 403.0334 202.9248 L 402.6653 201.9203 L 401.5603 199.5677 L 401.2789 198.4625 L 401.1344 197.3149 L 401.0931 195.5671 L 401.1739 194.4062 L 401.3721 193.2703 L 401.7308 192.2218 L 402.9242 189.9101 L 403.5679 188.396 L 404.1065 187.3884 L 405.176 185.9883 L 406.4172 184.7266 L 407.7876 183.6482 L 408.7681 183.1133 L 410.696 182.2402 L 412.9253 180.9731 L 415.3582 179.864 L 420.0482 176.8522 Z" fill="#000" fill-opacity="1" stroke="#000" stroke-width="0" paint-order="fill" stroke-opacity="1" stroke-dasharray="" stroke-linecap="butt" stroke-linejoin="miter" stroke-miterlimit="10" transform="matrix(1.149999976158142,0,0,1.149999976158142,-59.99997329711914,-39.97494888305664)" clip-path="none" style="filter: url(#f1)"/>
<path data-code="222" d="M 633.9976 449.9631 L 633.0867 450.2778 L 632.6183 450.5177 L 631.7098 451.1351 L 630.8302 451.8729 L 628.2758 454.3923 L 621.5848 461.4424 L 620.2663 462.6199 L 619.3089 463.2759 L 618.7897 463.5347 L 618.2323 463.7337 L 617.0795 463.9689 L 615.2997 464.0932 L 600.6464 463.9618 L 598.2407 464.0562 L 596.4992 464.3307 L 595.4692 464.6965 L 593.198 465.8189 L 592.1656 466.1304 L 590.0342 466.5834 L 588.9941 466.9052 L 586.2869 468.3493 L 584.313 469.2075 L 581.6401 470.7413 L 575.9301 473.149 L 572.7958 475.2885 L 570.3795 476.4298 L 568.1413 477.6812 L 567.1667 478.0989 L 565.0748 478.7698 L 563.0248 479.6996 L 561.278 475.828 L 560.4846 473.7444 L 559.0115 470.9788 L 558.1815 468.9377 L 556.696 466.1815 L 555.866 464.138 L 554.6177 461.8443 L 553.5659 459.3297 L 552.0698 456.5782 L 551.1731 454.5677 L 550.2151 453.1323 L 548.401 450.8575 L 547.7757 449.8766 L 547.525 449.3457 L 547.3398 448.8029 L 547.1097 447.675 L 546.9734 445.9296 L 547.0212 436.8974 L 547.0991 433.3814 L 547.2949 431.6549 L 547.5745 430.5615 L 548.6612 428.2183 L 549.0205 427.173 L 549.237 426.0057 L 549.3827 424.1887 L 549.4647 401.1091 L 549.3266 398.6699 L 548.9514 396.9253 L 548.5308 395.9578 L 547.571 394.1227 L 546.7298 392.0918 L 545.2337 389.3443 L 544.4066 387.3023 L 543.1672 385.0079 L 542.3 383.0242 L 541.7744 382.0181 L 541.0989 381.0617 L 539.9373 379.7032 L 535.3541 374.8973 L 534.5931 373.9856 L 533.9177 373.0284 L 533.3926 372.0216 L 532.5278 370.0378 L 531.299 367.7395 L 530.2684 365.2193 L 529.2613 363.3913 L 528.3871 361.4091 L 527.8467 360.3913 L 526.7565 358.9401 L 523.4417 355.2959 L 522.6936 354.337 L 522.0695 353.3082 L 520.7575 349.8268 L 520.1505 347.6606 L 521.7975 346.7175 L 523.7992 345.8979 L 526.0167 344.6016 L 528.439 343.502 L 529.3121 342.9427 L 530.5338 341.9155 L 532.0812 340.384 L 533.9531 338.3688 L 535.4426 336.6171 L 539.2636 336.7437 L 541.152 336.9522 L 542.3537 337.2621 L 544.5588 338.3082 L 545.6301 338.7291 L 548.2317 339.3434 L 549.1367 341.0746 L 550.0523 343.6939 L 551.169 345.9584 L 551.4315 346.9849 L 551.4616 347.5332 L 551.4221 348.0806 L 551.1383 349.104 L 549.9354 351.3339 L 549.0588 353.3239 L 548.0665 355.0906 L 547.6754 356.0345 L 547.5185 357.1239 L 547.6477 358.218 L 548.0158 359.1745 L 548.968 360.96 L 549.6122 362.4678 L 550.1225 363.4369 L 553.0373 367.3249 L 553.5417 368.2208 L 554.1122 369.6689 L 554.5811 370.546 L 555.2041 371.2484 L 555.5793 371.5213 L 556.0058 371.7195 L 556.4884 371.8108 L 556.9763 371.762 L 557.4187 371.6039 L 558.2027 371.0855 L 559.2546 370.0213 L 559.9 369.1978 L 560.4757 368.3074 L 561.5695 365.7919 L 562.1446 364.8228 L 563.2083 363.4613 L 565.9432 360.4314 L 567.0104 359.0871 L 567.5962 358.1385 L 568.5041 356.1587 L 569.0805 355.288 L 569.7772 354.4951 L 570.5635 353.7896 L 572.7646 352.2031 L 574.6577 356.1021 L 575.4346 358.1873 L 576.9029 360.949 L 577.5536 362.5827 L 577.9961 363.455 L 578.6007 364.3438 L 579.6467 365.6055 L 581.1605 367.2132 L 582.7509 368.7219 L 583.5886 369.3944 L 584.4759 369.9576 L 586.4521 370.8189 L 589.1127 372.3519 L 590.6896 373.0378 L 591.5238 373.5003 L 592.3715 374.1256 L 594.7961 376.236 L 596.0857 377.1359 L 598.0443 378.0333 L 600.709 379.5766 L 602.7401 380.349 L 604.5358 381.1403 L 605.9411 381.6775 L 605.0143 385.8967 L 604.6845 386.9822 L 603.238 389.769 L 602.3673 391.7842 L 601.1514 394.0598 L 600.7969 395.0941 L 600.6016 396.7884 L 600.7727 398.4874 L 600.9249 399.0356 L 601.3437 400.0023 L 603.5743 404.2931 L 606.1057 407.4709 L 606.728 408.4462 L 606.9711 408.9787 L 607.2566 410.0815 L 607.3368 411.2142 L 607.1369 412.8935 L 606.7847 413.9098 L 605.6479 416.2105 L 605.3387 417.2991 L 605.1641 418.4412 L 605.0839 420.1913 L 605.2213 421.9297 L 605.4939 423.0466 L 605.921 424.0157 L 607.407 426.6279 L 607.9993 427.4215 L 608.7804 428.0138 L 611.7873 429.7325 L 612.776 430.1069 L 615.4425 430.6622 L 616.4849 430.9713 L 619.1986 432.4045 L 621.1725 433.261 L 622.9576 434.2443 L 623.8903 434.6729 L 625.4937 435.0505 L 629.3613 435.4823 L 630.4243 435.7757 L 631.3623 436.2193 L 633.6471 437.551 L 636.0293 438.7411 L 636.4098 438.6617 L 636.9354 438.8221 L 637.2115 439.1108 L 637.4091 439.4986 L 637.5442 439.954 L 637.6752 441.0049 L 637.6663 442.169 L 637.5212 443.3819 L 637.195 444.5885 L 636.933 445.1839 L 633.9976 449.9631 Z" fill="#000" fill-opacity="1" stroke="#000" stroke-width="0" paint-order="fill" stroke-opacity="1" stroke-dasharray="" stroke-linecap="butt" stroke-linejoin="miter" stroke-miterlimit="10" transform="matrix(1.149999976158142,0,0,1.149999976158142,-59.99997329711914,-39.97494888305664)" clip-path="none" style="filter: url(#f1)"/>
<path data-code="223" d="M 444.0813 238.9278 L 443.2259 240.7432 L 442.6077 242.4029 L 442.1694 243.2752 L 441.5659 244.1562 L 439.5241 246.6661 L 438.92 247.5384 L 438.4752 248.3942 L 437.7862 250.0114 L 437.2387 250.9089 L 436.588 251.7576 L 435.5108 252.9799 L 431.3022 257.3478 L 429.2741 259.5958 L 427.3627 258.0046 L 423.8473 254.5995 L 422.6102 253.6147 L 421.7088 253.1129 L 421.2534 252.9438 L 418.4312 252.3601 L 417.5056 252.0667 L 417.0354 251.837 L 415.7305 250.9223 L 414.1317 249.4364 L 412.2599 247.4149 L 411.5756 246.5654 L 410.9691 245.675 L 410.5249 244.8004 L 409.8742 243.1635 L 408.4342 240.3657 L 408.108 239.3526 L 407.7682 237.8864 L 409.6034 236.3667 L 410.4594 235.5156 L 411.2446 234.6119 L 412.2109 233.1473 L 413.0876 231.1352 L 413.6799 230.1449 L 414.3895 229.2144 L 415.18 228.346 L 416.5056 227.2047 L 417.5144 226.6305 L 418.0459 226.4409 L 419.1426 226.2168 L 420.8333 226.0949 L 425.3292 226.0075 L 428.9408 226.2349 L 431.222 226.1971 L 432.8839 225.9226 L 433.9286 225.49 L 434.8719 224.8631 L 436.1786 223.7375 L 437.8298 222.0936 L 438.9926 220.7973 L 439.9789 219.383 L 440.2267 218.8568 L 440.5282 217.7351 L 440.6143 216.5915 L 440.5116 215.4572 L 440.1766 214.367 L 439.9194 213.8959 L 439.2681 213.0778 L 438.4911 212.41 L 438.0682 212.134 L 436.2193 211.2066 L 435.8093 210.9281 L 435.0589 210.258 L 434.4277 209.4761 L 434.1711 209.0545 L 433.3263 207.2281 L 432.767 206.4816 L 432.0562 205.9263 L 431.6438 205.7556 L 431.1961 205.6903 L 430.7548 205.7501 L 430.3542 205.9067 L 429.6398 206.3896 L 428.9785 206.9788 L 427.8394 206.4785 L 427.4942 206.189 L 427.1863 205.7753 L 426.8017 204.7653 L 426.6371 203.6193 L 426.663 201.7866 L 426.8453 200.5477 L 427.1562 199.4544 L 428.378 196.187 L 432.0214 195.3076 L 435.9126 194.9363 L 437.0128 194.7648 L 438.0776 194.4416 L 439.0881 193.8917 L 442.7227 191.0475 L 445.0553 189.7481 L 445.8511 189.1109 L 446.5325 188.3472 L 447.0616 187.4812 L 447.418 186.4972 L 447.8055 185.0569 L 448.1689 184.2019 L 448.4368 183.8417 L 448.7671 183.5538 L 449.9193 182.9946 L 451.1894 184.7038 L 451.6837 185.6398 L 452.0165 186.7103 L 452.5521 189.4641 L 452.9043 190.4906 L 454.0564 192.811 L 454.9136 194.8034 L 455.1903 195.2462 L 455.8534 196.0485 L 456.6333 196.7289 L 457.061 197.0129 L 459.4284 198.1432 L 461.1928 199.1862 L 463.6381 200.2543 L 466.3146 201.7787 L 468.3274 202.6054 L 471.9956 204.4806 L 469.6731 206.0655 L 467.206 208.0847 L 466.3624 208.6778 L 465.5377 209.1206 L 463.9685 209.8246 L 463.0906 210.3925 L 461.8754 211.4402 L 460.7693 212.6256 L 459.8242 213.9218 L 459.3817 214.7839 L 458.7039 216.4035 L 457.8473 217.7469 L 456.4262 219.4082 L 451.8177 224.2071 L 451.1221 225.0448 L 450.5086 225.9257 L 450.0609 226.7925 L 449.4025 228.4215 L 447.9106 231.1675 L 447.0923 233.2173 L 445.4818 235.9664 L 444.0813 238.9278 Z" fill="#000" fill-opacity="1" stroke="#000" stroke-width="0" paint-order="fill" stroke-opacity="1" stroke-dasharray="" stroke-linecap="butt" stroke-linejoin="miter" stroke-miterlimit="10" transform="matrix(1.149999976158142,0,0,1.149999976158142,-59.99997329711914,-39.97494888305664)" clip-path="none" style="filter: url(#f1)"/>
























<path fill="rgba(255,255,255,0)" fill-opacity="0" stroke="#ccc" stroke-width="0" paint-order="fill" stroke-opacity="1" stroke-dasharray="" stroke-linecap="butt" stroke-linejoin="miter" stroke-miterlimit="10" transform="matrix(1,0,0,1,15,10)" clip-path="none"/>
</svg>