<?xml version="1.0" standalone="no"?>
<!-- Generator: Paintmaps.com , Online SVG vector map maker -->
<svg xmlns="http://www.w3.org/2000/svg" version="1.1" baseProfile="full"   style="background-color:false" width="800" height="500" viewBox="0 0 800 533">
<path data-code="200" d="M 456.7775 116.2827 L 458.833 115.0933 L 461.315 112.9732 L 463.8359 110.0775 L 466.1628 105.8373 L 467.0161 106.5095 L 470.2738 107.5437 L 473.1049 106.3026 L 474.8889 105.9924 L 478.8059 106.1992 L 482.0636 107.3368 L 484.4294 107.6471 L 486.5236 107.1817 L 487.4544 107.6471 L 489.7426 111.8873 L 489.1221 113.9557 L 490.7509 116.7998 L 490.4407 118.8682 L 489.316 121.8673 L 489.1221 128.8482 L 489.5874 129.8307 L 488.4628 130.5029 L 485.6316 130.4512 L 484.4682 130.9683 L 479.5428 129.6238 L 479.1162 127.5037 L 476.9056 126.5729 L 475.6645 126.7281 L 474.5786 129.2618 L 474.8113 132.6747 L 474.1908 133.5538 L 470.8943 135.1568 L 466.5507 133.6055 L 464.6503 132.4679 L 464.3013 131.0717 L 464.6891 127.7623 L 464.3401 127.0383 L 464.9606 124.5045 L 460.2679 122.7464 L 458.2124 117.7822 L 456.7775 116.2827 Z" fill="#000000" fill-opacity="1" stroke="#000000" stroke-width="0" paint-order="fill" stroke-opacity="1" stroke-dasharray="" stroke-linecap="butt" stroke-linejoin="miter" stroke-miterlimit="10" clip-path="none"/>
<path data-code="201" d="M 474.1908 133.5538 L 474.8113 132.6747 L 474.5786 129.2618 L 475.6645 126.7281 L 476.9056 126.5729 L 479.1162 127.5037 L 479.5428 129.6238 L 484.4682 130.9683 L 485.6316 130.4512 L 488.4628 130.5029 L 489.5874 129.8307 L 489.1221 128.8482 L 489.316 121.8673 L 490.4407 118.8682 L 490.7509 116.7998 L 489.1221 113.9557 L 489.7426 111.8873 L 487.4544 107.6471 L 486.5236 107.1817 L 488.773 104.3377 L 490.9448 106.3026 L 494.1638 106.6129 L 497.0337 105.0099 L 497.6542 101.959 L 499.3994 104.3377 L 500.0587 107.1817 L 502.0366 106.9232 L 503.5103 110.0258 L 506.2251 114.8348 L 504.7514 117.472 L 505.6046 119.075 L 509.095 119.7472 L 510.9566 121.8156 L 511.1893 123.3669 L 509.2501 125.9007 L 508.9787 127.1417 L 512.5079 135.6222 L 514.6797 138.5696 L 515.3778 140.6897 L 516.2698 141.4137 L 521.8932 142.3962 L 524.3753 144.7231 L 527.4779 149.0667 L 529.8048 150.1009 L 534.4587 149.739 L 538.5697 155.7373 L 540.1597 159.357 L 543.6114 163.4421 L 546.7528 161.9942 L 550.9413 162.7182 L 554.2378 162.5113 L 553.8499 163.9592 L 554.2766 168.3545 L 555.6339 171.0435 L 556.6423 171.7674 L 556.6035 174.9217 L 555.1685 175.4388 L 547.9162 177.1452 L 545.9383 177.0418 L 544.2707 178.0243 L 544.2707 185.7291 L 542.4479 185.9359 L 540.7415 188.0043 L 540.7803 193.1753 L 542.6806 191.986 L 545.6669 194.4163 L 547.8774 198.398 L 545.4342 202.0694 L 545.9383 205.7925 L 541.2844 208.4814 L 537.0959 209.7225 L 533.2177 210.1362 L 530.2702 211.0669 L 527.8269 212.6182 L 525.1509 216.4448 L 521.7381 219.4957 L 518.0925 221.2538 L 511.3056 217.0136 L 506.4578 213.7559 L 506.1863 211.946 L 506.6129 209.1537 L 504.2472 205.7408 L 502.5408 204.2412 L 502.502 201.8109 L 503.8594 199.0185 L 503.7043 195.6574 L 505.2943 189.9693 L 505.6822 186.6599 L 504.635 184.9017 L 500.718 182.3162 L 499.477 181.0752 L 496.6458 180.2995 L 494.8231 180.8166 L 492.4186 180.403 L 492.9227 178.438 L 495.1333 175.5422 L 496.2968 173.3187 L 495.7926 171.4571 L 494.0474 170.5264 L 490.4019 171.8191 L 489.0057 169.3887 L 489.8589 166.7515 L 494.3189 163.287 L 498.4686 161.7357 L 496.9173 158.0126 L 497.3439 156.513 L 499.0116 154.4446 L 496.8785 153.9275 L 493.6208 151.8074 L 490.557 150.7215 L 487.3768 147.8257 L 483.8476 146.4813 L 483.3435 143.4304 L 480.9777 142.6547 L 481.4043 140.0692 L 479.6591 138.156 L 474.6174 134.7948 L 474.1908 133.5538 Z" fill="#000000" fill-opacity="1" stroke="#000000" stroke-width="0" paint-order="fill" stroke-opacity="1" stroke-dasharray="" stroke-linecap="butt" stroke-linejoin="miter" stroke-miterlimit="10" clip-path="none"/>
<path data-code="202" d="M 483.8476 146.4813 L 487.3768 147.8257 L 490.557 150.7215 L 493.6208 151.8074 L 496.8785 153.9275 L 499.0116 154.4446 L 497.3439 156.513 L 496.9173 158.0126 L 498.4686 161.7357 L 494.3189 163.287 L 489.8589 166.7515 L 489.0057 169.3887 L 490.4019 171.8191 L 489.0833 173.6807 L 484.313 177.2487 L 473.8418 182.7816 L 468.3347 185.2637 L 467.2488 187.177 L 465.8914 188.3663 L 463.7196 189.0385 L 461.3926 189.0385 L 458.2124 188.2112 L 456.2733 186.9184 L 457.1265 183.5056 L 454.4118 180.7649 L 453.7137 179.5756 L 455.1874 177.714 L 458.7554 176.8867 L 460.0352 173.9909 L 458.1737 168.6131 L 457.7471 166.0276 L 457.7858 161.5288 L 457.3205 160.2878 L 458.6778 158.478 L 459.7637 155.6856 L 460.8109 151.6005 L 463.7971 149.9975 L 468.6449 150.0492 L 470.6616 148.9633 L 477.72 149.377 L 482.6454 147.8774 L 483.8476 146.4813 Z" fill="#000000" fill-opacity="1" stroke="#000000" stroke-width="0" paint-order="fill" stroke-opacity="1" stroke-dasharray="" stroke-linecap="butt" stroke-linejoin="miter" stroke-miterlimit="10" clip-path="none"/>
<path data-code="203" d="M 556.6035 174.9217 L 556.6423 171.7674 L 555.6339 171.0435 L 554.2766 168.3545 L 553.8499 163.9592 L 554.2378 162.5113 L 550.9413 162.7182 L 546.7528 161.9942 L 543.6114 163.4421 L 540.1597 159.357 L 538.5697 155.7373 L 534.4587 149.739 L 534.8853 148.4979 L 537.6001 143.4821 L 541.7886 137.1735 L 543.6889 135.3119 L 546.2486 134.7431 L 550.5147 134.5363 L 557.4567 132.7781 L 560.0164 130.7614 L 558.3875 126.9349 L 555.5952 124.1943 L 552.415 122.2293 L 552.1823 120.5746 L 554.7032 117.834 L 556.0218 114.8348 L 554.7032 114.0074 L 552.1823 109.3535 L 551.872 107.0266 L 554.0826 105.8373 L 554.8971 103.2518 L 553.7336 99.994 L 551.4454 96.9949 L 551.9884 95.0816 L 554.3153 92.8064 L 554.8583 89.9106 L 556.7198 89.3418 L 555.983 86.4977 L 550.7086 84.7396 L 548.9246 84.9464 L 546.8691 87.6354 L 543.4563 90.5828 L 542.6418 90.6862 L 540.7027 89.2901 L 541.0905 84.6879 L 540.6639 83.3951 L 537.7165 82.6712 L 535.6998 81.0165 L 535.0017 72.8463 L 536.3591 72.4326 L 537.2123 70.4677 L 538.4533 70.2608 L 540.5088 71.7604 L 544.8524 72.5878 L 547.1018 72.3292 L 550.0105 71.0882 L 551.7557 69.3301 L 553.4621 68.6061 L 555.0522 64.5727 L 555.4788 64.9347 L 555.3237 68.5027 L 555.983 69.7954 L 557.0689 70.0023 L 556.7974 71.2433 L 557.6894 73.3634 L 560.9471 74.0874 L 557.8833 71.2433 L 557.9221 70.6228 L 560.5981 73.26 L 562.925 74.1391 L 565.4459 74.3459 L 567.4626 73.7254 L 568.8587 72.5361 L 573.629 73.9839 L 574.4822 76.5177 L 577.8563 78.4827 L 579.2524 78.6895 L 579.5627 79.8272 L 585.2637 83.5503 L 583.1307 87.9973 L 586.2333 90.8414 L 587.4355 91.1516 L 585.0698 94.5128 L 586.7762 96.8397 L 588.9093 102.2176 L 589.0644 103.562 L 588.2888 108.4745 L 588.9481 112.1459 L 588.1724 114.7831 L 590.1891 115.869 L 591.6628 119.437 L 590.2279 124.0909 L 590.732 127.9174 L 592.0506 129.1067 L 593.5244 131.5371 L 595.4247 132.9333 L 595.5799 135.1568 L 594.2225 136.7598 L 597.9456 142.1893 L 600.4277 143.3269 L 607.7575 148.2394 L 608.1841 148.8599 L 606.0899 151.2903 L 603.8017 152.2211 L 602.9873 154.4446 L 602.5995 158.3745 L 602.1341 159.5639 L 604.461 159.1502 L 605.0428 160.081 L 603.6854 161.5288 L 572.0389 162.1494 L 567.6177 163.6489 L 563.0414 164.3212 L 561.6452 165.252 L 564.8254 172.5948 L 560.4817 173.4738 L 556.6035 174.9217 Z" fill="#000000" fill-opacity="1" stroke="#000000" stroke-width="0" paint-order="fill" stroke-opacity="1" stroke-dasharray="" stroke-linecap="butt" stroke-linejoin="miter" stroke-miterlimit="10" clip-path="none"/>
<path data-code="204" d="M 554.7032 114.0074 L 556.0218 114.8348 L 554.7032 117.834 L 552.1823 120.5746 L 552.415 122.2293 L 555.5952 124.1943 L 558.3875 126.9349 L 560.0164 130.7614 L 557.4567 132.7781 L 550.5147 134.5363 L 546.2486 134.7431 L 543.6889 135.3119 L 541.7886 137.1735 L 537.6001 143.4821 L 534.8853 148.4979 L 534.4587 149.739 L 529.8048 150.1009 L 527.4779 149.0667 L 524.3753 144.7231 L 521.8932 142.3962 L 516.2698 141.4137 L 515.3778 140.6897 L 514.6797 138.5696 L 512.5079 135.6222 L 508.9787 127.1417 L 509.2501 125.9007 L 511.1893 123.3669 L 510.9566 121.8156 L 509.095 119.7472 L 505.6046 119.075 L 504.7514 117.472 L 506.2251 114.8348 L 503.5103 110.0258 L 502.0366 106.9232 L 500.0587 107.1817 L 499.3994 104.3377 L 497.6542 101.959 L 500.9507 102.0624 L 504.0145 100.8731 L 505.6822 101.3902 L 508.4745 101.2351 L 509.987 101.959 L 510.9178 103.2518 L 512.663 104.0274 L 514.8348 106.9749 L 517.9374 108.4745 L 518.9457 110.8531 L 521.04 112.1976 L 525.849 112.1459 L 527.5942 111.5771 L 528.1372 112.8698 L 531.3561 117.5237 L 531.0071 118.7647 L 531.3561 121.5571 L 533.7994 122.5396 L 535.9325 121.919 L 536.8245 122.9532 L 537.7165 121.1951 L 537.9491 119.075 L 543.0296 112.4561 L 544.8524 110.9048 L 546.6364 111.1634 L 548.7694 112.7664 L 554.7032 114.0074 Z" fill="#000000" fill-opacity="1" stroke="#000000" stroke-width="0" paint-order="fill" stroke-opacity="1" stroke-dasharray="" stroke-linecap="butt" stroke-linejoin="miter" stroke-miterlimit="10" clip-path="none"/>
<path data-code="205" d="M 518.0925 221.2538 L 515.4553 222.8051 L 510.6463 227.1487 L 508.0479 229.1137 L 505.6434 231.8543 L 503.9757 235.4223 L 501.7651 239.2488 L 499.2055 242.8168 L 496.7234 243.6959 L 494.5516 242.972 L 493.582 240.283 L 487.3768 241.5241 L 480.4348 241.6792 L 478.6508 241.9378 L 475.1216 234.2847 L 474.8113 231.5958 L 476.5178 227.8727 L 474.0745 227.3039 L 473.3376 226.2697 L 472.368 222.1329 L 473.4927 218.9786 L 472.0578 217.117 L 468.6449 215.0486 L 465.426 216.1862 L 463.7583 218.4615 L 460.617 218.72 L 457.0102 218.0995 L 455.9631 219.1854 L 453.3646 224.0978 L 447.9351 223.0119 L 445.6857 223.4256 L 442.3504 226.0628 L 438.2783 226.1662 L 437.1148 226.5282 L 435.7962 229.1654 L 433.7795 230.5616 L 432.3833 229.7859 L 428.699 230.0962 L 426.9926 231.3372 L 423.3083 231.5441 L 419.973 231.1304 L 418.8483 233.0954 L 418.6931 242.3514 L 419.973 246.5399 L 417.5685 247.6259 L 414.1168 246.1263 L 411.402 246.3331 L 408.9587 247.057 L 407.0972 249.746 L 406.0888 249.1254 L 400.3103 250.2631 L 397.9058 250.1079 L 394.7644 251.6075 L 392.3986 250.6767 L 390.8086 251.2456 L 388.598 254.6584 L 387.2794 254.3999 L 384.7197 255.3823 L 382.7806 257.1405 L 381.5783 257.2439 L 379.9495 255.9512 L 376.7693 255.5375 L 375.1017 254.6584 L 377.6225 251.4007 L 378.5921 251.0904 L 381.7723 246.7985 L 383.3623 244.1096 L 384.0992 241.7309 L 386.7364 238.3698 L 390.0717 234.7501 L 392.7089 230.0962 L 394.299 226.2697 L 395.4625 218.0995 L 394.3766 216.9619 L 393.2519 213.9627 L 389.9941 211.4289 L 388.5204 210.8084 L 388.5592 209.6708 L 390.2656 206.5682 L 390.2268 201.604 L 391.5842 202.6382 L 393.5233 205.534 L 394.7256 205.4823 L 397.1301 203.9827 L 402.5984 203.9827 L 404.9642 205.0169 L 409.6956 204.7583 L 414.4271 201.8109 L 415.4354 201.4489 L 417.1806 204.0861 L 421.0589 203.5173 L 426.9926 203.4656 L 431.918 201.7592 L 435.2145 201.966 L 437.4251 199.1737 L 440.4113 196.2262 L 452.8217 190.1244 L 456.2733 186.9184 L 458.2124 188.2112 L 461.3926 189.0385 L 463.7196 189.0385 L 465.8914 188.3663 L 467.2488 187.177 L 468.3347 185.2637 L 473.8418 182.7816 L 484.313 177.2487 L 489.0833 173.6807 L 490.4019 171.8191 L 494.0474 170.5264 L 495.7926 171.4571 L 496.2968 173.3187 L 495.1333 175.5422 L 492.9227 178.438 L 492.4186 180.403 L 494.8231 180.8166 L 496.6458 180.2995 L 499.477 181.0752 L 500.718 182.3162 L 504.635 184.9017 L 505.6822 186.6599 L 505.2943 189.9693 L 503.7043 195.6574 L 503.8594 199.0185 L 502.502 201.8109 L 502.5408 204.2412 L 504.2472 205.7408 L 506.6129 209.1537 L 506.1863 211.946 L 506.4578 213.7559 L 511.3056 217.0136 L 518.0925 221.2538 Z" fill="#000000" fill-opacity="1" stroke="#000000" stroke-width="0" paint-order="fill" stroke-opacity="1" stroke-dasharray="" stroke-linecap="butt" stroke-linejoin="miter" stroke-miterlimit="10" clip-path="none"/>
<path data-code="206" d="M 457.3205 160.2878 L 457.7858 161.5288 L 457.7471 166.0276 L 458.1737 168.6131 L 460.0352 173.9909 L 458.7554 176.8867 L 455.1874 177.714 L 453.7137 179.5756 L 454.4118 180.7649 L 457.1265 183.5056 L 456.2733 186.9184 L 452.8217 190.1244 L 440.4113 196.2262 L 437.4251 199.1737 L 435.2145 201.966 L 431.918 201.7592 L 426.9926 203.4656 L 421.0589 203.5173 L 417.1806 204.0861 L 415.4354 201.4489 L 414.4271 201.8109 L 409.6956 204.7583 L 404.9642 205.0169 L 402.5984 203.9827 L 397.1301 203.9827 L 394.7256 205.4823 L 393.5233 205.534 L 391.5842 202.6382 L 390.2268 201.604 L 389.9554 196.1745 L 390.6534 191.986 L 390.6147 189.6073 L 389.7227 188.5214 L 391.08 186.5047 L 391.7006 184.7466 L 393.7173 181.6957 L 394.299 178.8517 L 396.5872 176.3696 L 399.4958 172.5948 L 402.5984 173.7841 L 406.3215 173.0084 L 409.5405 173.629 L 411.6735 176.8867 L 414.4659 177.8692 L 418.8483 178.0243 L 421.7182 178.4897 L 424.6269 177.6106 L 427.4968 171.1986 L 428.9317 169.2336 L 428.8541 166.6998 L 426.023 164.9417 L 424.5493 162.3562 L 424.5493 161.0117 L 427.4192 158.5297 L 432.0731 155.1685 L 433.3529 153.6689 L 434.3225 147.5672 L 435.7962 146.171 L 438.7437 150.0492 L 441.7687 152.2728 L 444.4059 155.8407 L 446.1123 156.5647 L 449.3701 156.6164 L 451.1928 157.0818 L 455.614 160.0293 L 457.3205 160.2878 Z" fill="#000000" fill-opacity="1" stroke="#000000" stroke-width="0" paint-order="fill" stroke-opacity="1" stroke-dasharray="" stroke-linecap="butt" stroke-linejoin="miter" stroke-miterlimit="10" clip-path="none"/>
<path data-code="207" d="M 399.4958 172.5948 L 401.8228 170.1644 L 402.7923 167.0618 L 404.2273 164.2178 L 404.3436 161.1669 L 403.6843 160.5464 L 404.809 156.9784 L 404.0334 154.8065 L 404.4988 153.8758 L 408.1443 150.7732 L 410.9367 147.412 L 414.1556 144.8782 L 416.9479 141.0517 L 420.0117 137.5871 L 420.2057 136.2427 L 422.455 133.4504 L 424.3554 133.5538 L 426.1394 132.3644 L 427.5743 130.5546 L 429.4359 129.3653 L 432.7712 128.5896 L 435.0981 127.452 L 435.9125 129.0033 L 436.184 131.382 L 434.5164 134.4328 L 433.2366 135.0017 L 432.5773 136.3461 L 433.6244 138.8282 L 434.2061 143.844 L 435.7962 146.171 L 434.3225 147.5672 L 433.3529 153.6689 L 432.0731 155.1685 L 427.4192 158.5297 L 424.5493 161.0117 L 424.5493 162.3562 L 426.023 164.9417 L 428.8541 166.6998 L 428.9317 169.2336 L 427.4968 171.1986 L 424.6269 177.6106 L 421.7182 178.4897 L 418.8483 178.0243 L 414.4659 177.8692 L 411.6735 176.8867 L 409.5405 173.629 L 406.3215 173.0084 L 402.5984 173.7841 L 399.4958 172.5948 Z" fill="#000000" fill-opacity="1" stroke="#000000" stroke-width="0" paint-order="fill" stroke-opacity="1" stroke-dasharray="" stroke-linecap="butt" stroke-linejoin="miter" stroke-miterlimit="10" clip-path="none"/>
<path data-code="208" d="M 478.6508 241.9378 L 473.1437 243.2822 L 469.6145 243.7993 L 467.4815 245.8677 L 463.0215 244.1096 L 458.1737 244.213 L 455.3425 245.5057 L 453.0544 247.9878 L 446.1899 247.8844 L 437.9292 254.2964 L 434.7491 257.1922 L 431.8792 258.4849 L 428.4275 261.3807 L 426.7211 262.3632 L 425.8679 263.9662 L 423.2307 265.8795 L 419.9342 267.6893 L 419.081 269.4992 L 419.1585 299.1806 L 415.6681 299.1806 L 416.7928 305.1273 L 416.0947 308.0748 L 417.3745 313.0906 L 416.2886 315.159 L 410.8979 316.0898 L 405.5071 315.7795 L 400.1551 316.0898 L 398.216 317.2274 L 391.7006 322.8121 L 387.3957 323.0706 L 383.9441 321.2608 L 379.8331 322.657 L 378.2431 322.657 L 370.4478 318.727 L 365.057 317.7962 L 360.7522 318.0548 L 351.7934 320.8471 L 348.3806 321.571 L 349.1562 324.26 L 350.3197 325.7078 L 349.6992 329.0173 L 346.1312 332.275 L 341.6324 338.8422 L 340.3526 341.2208 L 339.3831 344.4268 L 331.1224 346.3918 L 330.4243 347.426 L 320.147 347.2192 L 318.9447 340.1349 L 317.1219 334.3951 L 317.5098 330.9822 L 319.604 326.8455 L 324.2579 322.1399 L 325.6541 320.1749 L 328.6403 314.1248 L 331.9756 304.7136 L 334.8455 300.8354 L 337.8705 298.3016 L 341.6324 296.1298 L 344.9677 294.6819 L 344.735 293.3374 L 340.9343 286.3049 L 339.034 282.1164 L 346.7905 278.9104 L 347.6437 278.2381 L 351.0178 273.3257 L 352.5691 272.3432 L 358.3089 266.1897 L 365.6775 262.5183 L 370.5641 259.6226 L 373.7443 256.6234 L 375.1017 254.6584 L 376.7693 255.5375 L 379.9495 255.9512 L 381.5783 257.2439 L 382.7806 257.1405 L 384.7197 255.3823 L 387.2794 254.3999 L 388.598 254.6584 L 390.8086 251.2456 L 392.3986 250.6767 L 394.7644 251.6075 L 397.9058 250.1079 L 400.3103 250.2631 L 406.0888 249.1254 L 407.0972 249.746 L 408.9587 247.057 L 411.402 246.3331 L 414.1168 246.1263 L 417.5685 247.6259 L 419.973 246.5399 L 418.6931 242.3514 L 418.8483 233.0954 L 419.973 231.1304 L 423.3083 231.5441 L 426.9926 231.3372 L 428.699 230.0962 L 432.3833 229.7859 L 433.7795 230.5616 L 435.7962 229.1654 L 437.1148 226.5282 L 438.2783 226.1662 L 442.3504 226.0628 L 445.6857 223.4256 L 447.9351 223.0119 L 453.3646 224.0978 L 455.9631 219.1854 L 457.0102 218.0995 L 460.617 218.72 L 463.7583 218.4615 L 465.426 216.1862 L 468.6449 215.0486 L 472.0578 217.117 L 473.4927 218.9786 L 472.368 222.1329 L 473.3376 226.2697 L 474.0745 227.3039 L 476.5178 227.8727 L 474.8113 231.5958 L 475.1216 234.2847 L 478.6508 241.9378 Z" fill="#000000" fill-opacity="1" stroke="#000000" stroke-width="0" paint-order="fill" stroke-opacity="1" stroke-dasharray="" stroke-linecap="butt" stroke-linejoin="miter" stroke-miterlimit="10" clip-path="none"/>
<path data-code="209" d="M 330.4243 347.426 L 329.6874 351.1491 L 327.1666 357.8714 L 323.0556 373.3844 L 321.6207 377.5212 L 319.6428 381.6063 L 317.7424 383.3644 L 312.0414 387.3461 L 305.6035 391.1209 L 300.2128 390.1384 L 295.8304 390.5521 L 286.9104 393.3444 L 284.6998 393.3961 L 282.4892 392.4136 L 275.8962 390.6038 L 273.6856 390.4487 L 269.2644 390.6555 L 261.5855 392.2068 L 259.2585 391.7414 L 256.505 388.4837 L 250.5325 386.3119 L 251.5408 384.864 L 253.4412 383.6229 L 255.6518 376.7972 L 255.962 373.3844 L 255.6518 368.0066 L 257.746 361.2326 L 259.6464 358.9573 L 261.2752 354.0966 L 262.4387 351.4077 L 265.3086 347.3743 L 266.5496 342.5653 L 266.2782 341.2208 L 268.6051 337.5494 L 271.5913 336.4118 L 274.8491 332.9472 L 278.3783 332.4818 L 281.6748 330.9305 L 289.8579 325.6561 L 291.4867 323.9497 L 293.1544 320.7954 L 295.1711 315.1073 L 296.0631 311.4359 L 298.8554 307.144 L 300.6006 303.0589 L 302.6173 296.5952 L 305.526 294.9921 L 307.1161 292.7169 L 308.1244 290.028 L 311.4985 288.425 L 316.2299 287.7528 L 319.953 287.9596 L 324.6457 286.5634 L 331.7429 285.5292 L 333.2166 284.5467 L 339.034 282.1164 L 340.9343 286.3049 L 344.735 293.3374 L 344.9677 294.6819 L 341.6324 296.1298 L 337.8705 298.3016 L 334.8455 300.8354 L 331.9756 304.7136 L 328.6403 314.1248 L 325.6541 320.1749 L 324.2579 322.1399 L 319.604 326.8455 L 317.5098 330.9822 L 317.1219 334.3951 L 318.9447 340.1349 L 320.147 347.2192 L 330.4243 347.426 Z" fill="#000000" fill-opacity="1" stroke="#000000" stroke-width="0" paint-order="fill" stroke-opacity="1" stroke-dasharray="" stroke-linecap="butt" stroke-linejoin="miter" stroke-miterlimit="10" clip-path="none"/>
<path data-code="210" d="M 305.6035 391.1209 L 302.501 393.8615 L 297.6919 402.9107 L 295.4425 406.1168 L 293.2707 407.2027 L 288.1127 409.1159 L 282.9158 411.3395 L 281.0155 412.4254 L 279.5805 414.1835 L 277.0209 419.1477 L 275.8186 422.3537 L 273.3366 431.4546 L 272.6385 435.5914 L 271.0872 441.4346 L 270.3891 446.4505 L 270.234 450.5873 L 269.2644 454.7241 L 266.7048 458.1887 L 263.0592 461.343 L 257.6685 467.5999 L 258.0951 470.9093 L 256.2723 475.3046 L 253.9841 478.2004 L 251.4633 479.5448 L 247.8953 479.7 L 242.9699 479.4931 L 234.4766 478.8726 L 226.6037 477.373 L 218.6533 476.7008 L 214.5036 477.0628 L 203.7996 476.5457 L 199.6887 476.7008 L 191.8159 477.7867 L 193.2508 472.7191 L 193.6386 467.0828 L 195.1512 462.6874 L 198.2925 456.8959 L 201.5115 452.8108 L 203.5669 452.9659 L 206.6308 451.88 L 208.2208 450.0702 L 209.4231 446.1919 L 211.4786 444.1236 L 212.1379 439.7282 L 213.4953 436.8325 L 213.8055 434.8158 L 215.2017 434.5572 L 217.0632 432.7991 L 217.5674 429.5414 L 215.9385 429.6965 L 218.3818 426.5939 L 220.6312 421.94 L 222.9194 419.0442 L 223.3848 417.0793 L 225.2075 414.2352 L 227.3406 412.1151 L 229.047 409.1676 L 229.3185 407.151 L 226.7201 407.6163 L 225.7505 408.6505 L 224.1604 412.0117 L 222.454 412.7873 L 224.5095 409.3228 L 227.3794 405.6514 L 229.3961 404.0484 L 233.4682 402.2902 L 238.4711 396.7056 L 242.5433 393.241 L 244.5212 390.5004 L 246.1501 388.9491 L 248.9036 388.1217 L 250.5325 386.3119 L 256.505 388.4837 L 259.2585 391.7414 L 261.5855 392.2068 L 269.2644 390.6555 L 273.6856 390.4487 L 275.8962 390.6038 L 282.4892 392.4136 L 284.6998 393.3961 L 286.9104 393.3444 L 295.8304 390.5521 L 300.2128 390.1384 L 305.6035 391.1209 Z" fill="#000000" fill-opacity="1" stroke="#000000" stroke-width="0" paint-order="fill" stroke-opacity="1" stroke-dasharray="" stroke-linecap="butt" stroke-linejoin="miter" stroke-miterlimit="10" clip-path="none"/>
<path data-code="211" d="M 476.9831 81.275 L 477.9527 77.6036 L 481.9473 66.3826 L 482.18 64.6244 L 483.6925 59.1432 L 484.4682 57.4885 L 487.4932 57.5919 L 489.0833 56.3509 L 491.798 56.506 L 495.2885 53.5585 L 496.4519 53.3 L 497.8869 55.5752 L 498.4686 59.5052 L 499.477 60.2808 L 500.369 63.28 L 502.8123 65.1933 L 504.9453 67.9856 L 506.3415 68.5027 L 508.8235 70.9331 L 512.2364 72.898 L 518.907 74.3976 L 519.799 77.3968 L 519.5663 78.2242 L 517.1618 80.9648 L 515.1063 81.5336 L 512.314 84.0674 L 507.8928 86.1875 L 504.1309 87.3251 L 502.7735 88.8764 L 501.5712 88.6179 L 498.8952 89.0832 L 497.1888 88.4627 L 494.8619 86.0841 L 491.9532 86.1358 L 490.3631 84.4293 L 488.3076 83.0849 L 485.0499 82.4127 L 480.2409 80.9648 L 476.9831 81.275 Z" fill="#000000" fill-opacity="1" stroke="#000000" stroke-width="0" paint-order="fill" stroke-opacity="1" stroke-dasharray="" stroke-linecap="butt" stroke-linejoin="miter" stroke-miterlimit="10" clip-path="none"/>
<path data-code="212" d="M 518.907 74.3976 L 521.8156 75.1733 L 524.2977 74.0874 L 527.633 73.3117 L 532.5972 71.1916 L 533.4116 72.898 L 535.0017 72.8463 L 535.6998 81.0165 L 537.7165 82.6712 L 540.6639 83.3951 L 541.0905 84.6879 L 540.7027 89.2901 L 542.6418 90.6862 L 543.4563 90.5828 L 546.8691 87.6354 L 548.9246 84.9464 L 550.7086 84.7396 L 555.983 86.4977 L 556.7198 89.3418 L 554.8583 89.9106 L 554.3153 92.8064 L 551.9884 95.0816 L 551.4454 96.9949 L 553.7336 99.994 L 554.8971 103.2518 L 554.0826 105.8373 L 551.872 107.0266 L 552.1823 109.3535 L 554.7032 114.0074 L 548.7694 112.7664 L 546.6364 111.1634 L 544.8524 110.9048 L 543.0296 112.4561 L 537.9491 119.075 L 537.7165 121.1951 L 536.8245 122.9532 L 535.9325 121.919 L 533.7994 122.5396 L 531.3561 121.5571 L 531.0071 118.7647 L 531.3561 117.5237 L 528.1372 112.8698 L 527.5942 111.5771 L 525.849 112.1459 L 521.04 112.1976 L 518.9457 110.8531 L 517.9374 108.4745 L 514.8348 106.9749 L 512.663 104.0274 L 510.9178 103.2518 L 509.987 101.959 L 508.4745 101.2351 L 505.6822 101.3902 L 504.0145 100.8731 L 500.9507 102.0624 L 497.6542 101.959 L 495.8702 99.4252 L 499.1667 96.6846 L 499.7872 95.4953 L 502.7347 93.0649 L 503.1613 91.4102 L 502.7735 88.8764 L 504.1309 87.3251 L 507.8928 86.1875 L 512.314 84.0674 L 515.1063 81.5336 L 517.1618 80.9648 L 519.5663 78.2242 L 519.799 77.3968 L 518.907 74.3976 Z" fill="#000000" fill-opacity="1" stroke="#000000" stroke-width="0" paint-order="fill" stroke-opacity="1" stroke-dasharray="" stroke-linecap="butt" stroke-linejoin="miter" stroke-miterlimit="10" clip-path="none"/>
<path data-code="213" d="M 502.7735 88.8764 L 503.1613 91.4102 L 502.7347 93.0649 L 499.7872 95.4953 L 499.1667 96.6846 L 495.8702 99.4252 L 497.6542 101.959 L 497.0337 105.0099 L 494.1638 106.6129 L 490.9448 106.3026 L 488.773 104.3377 L 486.5236 107.1817 L 484.4294 107.6471 L 482.0636 107.3368 L 478.8059 106.1992 L 474.8889 105.9924 L 473.1049 106.3026 L 470.2738 107.5437 L 467.0161 106.5095 L 466.1628 105.8373 L 467.4039 102.8898 L 470.0023 98.753 L 476.0524 84.8947 L 476.9831 81.275 L 480.2409 80.9648 L 485.0499 82.4127 L 488.3076 83.0849 L 490.3631 84.4293 L 491.9532 86.1358 L 494.8619 86.0841 L 497.1888 88.4627 L 498.8952 89.0832 L 501.5712 88.6179 L 502.7735 88.8764 Z" fill="#000000" fill-opacity="1" stroke="#000000" stroke-width="0" paint-order="fill" stroke-opacity="1" stroke-dasharray="" stroke-linecap="butt" stroke-linejoin="miter" stroke-miterlimit="10" clip-path="none"/>
<path data-code="214" d="M 435.0981 127.452 L 437.4251 126.6246 L 438.1619 126.211 L 441.536 127.2969 L 443.1649 128.1242 L 445.4142 127.9691 L 445.104 130.2443 L 446.4226 129.9341 L 447.1982 128.7447 L 449.4088 127.1417 L 450.1845 125.5387 L 449.9906 123.2118 L 451.348 119.437 L 454.0627 117.3169 L 456.7775 116.2827 L 458.2124 117.7822 L 460.2679 122.7464 L 464.9606 124.5045 L 464.3401 127.0383 L 464.6891 127.7623 L 464.3013 131.0717 L 464.6503 132.4679 L 466.5507 133.6055 L 470.8943 135.1568 L 474.1908 133.5538 L 474.6174 134.7948 L 479.6591 138.156 L 481.4043 140.0692 L 480.9777 142.6547 L 483.3435 143.4304 L 483.8476 146.4813 L 482.6454 147.8774 L 477.72 149.377 L 470.6616 148.9633 L 468.6449 150.0492 L 463.7971 149.9975 L 460.8109 151.6005 L 459.7637 155.6856 L 458.6778 158.478 L 457.3205 160.2878 L 455.614 160.0293 L 451.1928 157.0818 L 449.3701 156.6164 L 446.1123 156.5647 L 444.4059 155.8407 L 441.7687 152.2728 L 438.7437 150.0492 L 435.7962 146.171 L 434.2061 143.844 L 433.6244 138.8282 L 432.5773 136.3461 L 433.2366 135.0017 L 434.5164 134.4328 L 436.184 131.382 L 435.9125 129.0033 L 435.0981 127.452 Z" fill="#000000" fill-opacity="1" stroke="#000000" stroke-width="0" paint-order="fill" stroke-opacity="1" stroke-dasharray="" stroke-linecap="butt" stroke-linejoin="miter" stroke-miterlimit="10" clip-path="none"/>
<path data-code="215" d="M 438.1619 126.211 L 438.5498 125.6422 L 442.6607 123.9874 L 443.4363 123.0567 L 444.9489 123.2118 L 447.5861 121.8673 L 449.7579 119.5921 L 451.348 119.437 L 449.9906 123.2118 L 450.1845 125.5387 L 449.4088 127.1417 L 447.1982 128.7447 L 446.4226 129.9341 L 445.104 130.2443 L 445.4142 127.9691 L 443.1649 128.1242 L 441.536 127.2969 L 438.1619 126.211 Z" fill="#000000" fill-opacity="1" stroke="#000000" stroke-width="0" paint-order="fill" stroke-opacity="1" stroke-dasharray="" stroke-linecap="butt" stroke-linejoin="miter" stroke-miterlimit="10" clip-path="none"/>
















</svg>