<?xml version="1.0" standalone="no"?>
<!-- Generator: Paintmaps.com , Online SVG vector map maker -->
<svg xmlns="http://www.w3.org/2000/svg" version="1.1" baseProfile="full"   style="background-color:#e0f2f1" width="800" height="500" viewBox="0 0 800 533">

<path data-code="200" d="M 481.2338 406.7226 L 481.2753 360.0562 L 481.6804 353.3063 L 482.7283 348.4768 L 483.8623 345.8589 L 486.4493 340.8912 L 488.7525 335.4109 L 492.8053 327.9826 L 495.0797 322.4768 L 499.0926 315.0273 L 501.5488 309.5895 L 503.2969 306.8675 L 505.356 304.3049 L 513.3531 295.7878 L 516.5016 291.9429 L 518.1587 289.0613 L 518.7632 287.4472 L 519.6995 282.471 L 519.6883 277.6117 L 519.028 274.6025 L 518.3613 273.2223 L 517.3549 272.0059 L 516.1794 271.1935 L 513.6275 270.4535 L 512.318 270.3854 L 509.7055 270.6534 L 507.2189 271.3764 L 503.139 273.3287 L 500.9077 273.72 L 499.7146 273.5052 L 498.587 273.0267 L 496.6156 271.4551 L 495.1291 269.2307 L 494.6108 267.8569 L 494.0748 264.9349 L 493.968 260.2947 L 494.3476 254.2657 L 498.8996 245.0022 L 501.5999 238.1417 L 505.297 230.554 L 506.0865 227.6575 L 507.2269 221.7158 L 508.1488 218.8172 L 508.825 217.4455 L 510.5141 214.8872 L 512.4871 212.5011 L 518.4682 206.0979 L 520.5336 207.4185 L 527.392 213.2752 L 533.1466 218.2217 L 535.2264 220.0442 L 538.579 220.1038 L 540.1804 220.8991 L 542.1422 222.3367 L 542.5425 222.9854 L 543.6861 222.9854 L 549.916 222.9854 L 551.7071 222.9854 L 554.653 225.2715 L 566.7859 234.6158 L 571.1114 239.5963 L 573.7814 240.7745 L 579.0097 241.2104 L 579.1022 241.2168 L 580.7737 242.4651 L 589.6528 254.8697 L 595.1092 264.0077 L 597.7122 266.3342 L 602.4492 268.278 L 609.5579 276.6228 L 611.0476 281.0568 L 612.3331 291.3538 L 616.2823 296.1898 L 623.1996 301.2043 L 624.7882 303.8562 L 626.0131 306.3571 L 626.3608 315.576 L 626.6974 318.4086 L 627.9574 320.2737 L 630.6273 321.3285 L 637.9737 318.7063 L 638.5415 321.8091 L 636.3245 325.89 L 643.0967 331.1555 L 646.8497 332.7909 L 658.7672 341.3122 L 662.2634 340.8869 L 665.5219 338.1478 L 668.38 338.0691 L 669.5922 340.6998 L 667.3656 347.0796 L 669.4072 352.5705 L 671.1441 352.5493 L 674.0884 350.9415 L 676.4792 352.4961 L 678.4028 355.6818 L 679.591 363.0377 L 680.4842 364.7539 L 683.4476 365.898 L 685.2116 366.5807 L 688.6249 369.7323 L 693.2502 379.7316 L 695.3476 382.0348 L 699.1867 382.5792 L 699.4738 382.6196 L 700.1405 382.7153 L 700.9874 385.197 L 700.107 387.5703 L 700.9045 388.7697 L 706.1726 391.9107 L 709.8107 397.5059 L 712.5158 398.5309 L 716.2544 403.0436 L 717.2943 412.1178 L 719.9993 420.7455 L 719.3837 431.923 L 716.7121 424.163 L 701.6493 412.0434 L 678.2863 386.1731 L 672.0293 383.7509 L 660.0687 379.1255 L 656.2089 377.1159 L 650.9073 371.9631 L 648.9582 369.0433 L 643.4365 356.475 L 641.9197 350.1334 L 640.4284 347.8792 L 637.114 347.1796 L 633.4839 347.741 L 632.0596 348.4024 L 630.0468 349.3338 L 624.7579 354.1421 L 622.1374 357.9487 L 610.9631 369.5898 L 610.0476 370.5425 L 602.4667 377.7751 L 591.0149 385.5628 L 584.021 392.47 L 578.3637 389.9543 L 575.2248 391.5343 L 570.6505 392.5976 L 565.4046 393.2101 L 558.3071 393.4206 L 542.3096 393.3972 L 535.3971 394.0225 L 532.113 394.8986 L 530.5723 395.56 L 513.7216 404.2813 L 510.5699 405.453 L 507.2173 406.0867 L 502.0209 406.4695 L 481.2338 406.7226 Z" fill="#000000" fill-opacity="1" stroke="#000000" stroke-width="0" paint-order="fill" stroke-opacity="1" stroke-dasharray="" stroke-linecap="butt" stroke-linejoin="miter" stroke-miterlimit="10" clip-path="none" style="filter: url(#f1)"/>
<path data-code="201" d="M 494.3476 254.2657 L 482.3455 245.9592 L 475.7966 242.8649 L 469.6799 239.6452 L 465.5729 238.3119 L 458.3733 236.8551 L 454.4784 235.2538 L 447.7843 231.1941 L 445.8417 229.3843 L 445.0649 228.1084 L 444.5163 226.7112 L 443.8942 223.6871 L 443.5976 218.7981 L 443.7204 204.7582 L 444.3966 204.4966 L 447.1176 205.4302 L 456.2137 203.916 L 460.8407 202.0786 L 463.1916 202.7528 L 469.6576 202.6039 L 472.5716 199.0822 L 475.7934 199.6458 L 477.5766 196.9981 L 486.309 195.1033 L 494.4991 196.0071 L 497.059 199.1077 L 500.7705 200.1923 L 502.836 203.0313 L 505.9717 201.3003 L 509.9527 201.1153 L 515.0023 203.8799 L 515.9306 204.4732 L 518.4682 206.0979 L 512.4871 212.5011 L 510.5141 214.8872 L 508.825 217.4455 L 508.1488 218.8172 L 507.2269 221.7158 L 506.0865 227.6575 L 505.297 230.554 L 501.5999 238.1417 L 498.8996 245.0022 L 494.3476 254.2657 Z" fill="#000000" fill-opacity="1" stroke="#000000" stroke-width="0" paint-order="fill" stroke-opacity="1" stroke-dasharray="" stroke-linecap="butt" stroke-linejoin="miter" stroke-miterlimit="10" clip-path="none" style="filter: url(#f1)"/>
<path data-code="202" d="M 481.2338 406.7226 L 473.6849 406.0017 L 469.3259 404.9341 L 466.8058 403.7475 L 462.013 401.0339 L 456.7321 398.65 L 450.7302 395.2857 L 447.9502 394.2436 L 443.2467 393.4632 L 435.1028 393.191 L 397.0806 393.376 L 392.2717 393.8119 L 389.2046 394.435 L 386.5108 395.4282 L 381.7817 397.7334 L 379.1452 398.4288 L 376.319 398.4437 L 373.6474 397.7547 L 367.7317 394.6753 L 362.4619 392.2978 L 355.2974 388.0169 L 349.9718 385.6245 L 342.7546 381.4755 L 337.4131 379.1511 L 330.2119 374.9829 L 324.9373 372.4841 L 321.1397 369.8237 L 313.9146 363.7544 L 311.3467 362.0552 L 306.0705 359.5586 L 298.8613 355.3968 L 293.4927 353.0894 L 286.2053 349.0233 L 279.6389 346.0631 L 270.8363 340.2298 L 269.2812 338.2669 L 267.9654 334.7708 L 271.5205 330.1815 L 273.0054 327.7381 L 275.3851 322.2705 L 278.8047 316.0949 L 281.178 310.7252 L 282.5991 308.0201 L 284.4062 305.4469 L 290.4017 298.0293 L 292.0971 295.3859 L 294.539 289.9822 L 297.0367 285.1356 L 297.9793 282.5539 L 298.3127 279.6319 L 297.9315 276.7376 L 296.9904 274.2112 L 295.2392 270.5747 L 294.2774 267.8271 L 293.6825 264.7329 L 293.2662 259.8757 L 293.1147 251.5713 L 293.1705 221.5222 L 293.5007 216.648 L 294.4927 211.9759 L 295.6268 209.3538 L 298.2297 204.4051 L 300.6429 198.9695 L 302.2761 196.3899 L 303.7052 194.6355 L 305.0514 195.8753 L 310.613 198.742 L 318.6564 201.8936 L 325.6726 207.712 L 331.1082 210.4532 L 336.9219 212.6904 L 344.1327 212.2693 L 350.3498 211.9652 L 355.6977 211.525 L 363.6374 212.5182 L 369.1353 210.1704 L 373.1482 207.2931 L 377.6428 205.696 L 383.4803 205.9023 L 390.0532 207.0124 L 396.0422 205.1856 L 400.1556 204.3498 L 408.2485 203.3206 L 417.0542 204.5944 L 423.2778 203.9224 L 425.5139 203.9543 L 430.0643 207.3356 L 435.4234 206.2702 L 440.2721 206.0894 L 443.7204 204.7582 L 443.5976 218.7981 L 443.8942 223.6871 L 444.5163 226.7112 L 445.0649 228.1084 L 445.8417 229.3843 L 447.7843 231.1941 L 454.4784 235.2538 L 458.3733 236.8551 L 465.5729 238.3119 L 469.6799 239.6452 L 475.7966 242.8649 L 482.3455 245.9592 L 494.3476 254.2657 L 493.968 260.2947 L 494.0748 264.9349 L 494.6108 267.8569 L 495.1291 269.2307 L 496.6156 271.4551 L 498.587 273.0267 L 499.7146 273.5052 L 500.9077 273.72 L 503.139 273.3287 L 507.2189 271.3764 L 509.7055 270.6534 L 512.318 270.3854 L 513.6275 270.4535 L 516.1794 271.1935 L 517.3549 272.0059 L 518.3613 273.2223 L 519.028 274.6025 L 519.6883 277.6117 L 519.6995 282.471 L 518.7632 287.4472 L 518.1587 289.0613 L 516.5016 291.9429 L 513.3531 295.7878 L 505.356 304.3049 L 503.2969 306.8675 L 501.5488 309.5895 L 499.0926 315.0273 L 495.0797 322.4768 L 492.8053 327.9826 L 488.7525 335.4109 L 486.4493 340.8912 L 483.8623 345.8589 L 482.7283 348.4768 L 481.6804 353.3063 L 481.2753 360.0562 L 481.2338 406.7226 Z" fill="#000000" fill-opacity="1" stroke="#000000" stroke-width="0" paint-order="fill" stroke-opacity="1" stroke-dasharray="" stroke-linecap="butt" stroke-linejoin="miter" stroke-miterlimit="10" clip-path="none" style="filter: url(#f1)"/>
<path data-code="203" d="M 104.868 243.7475 L 104.9413 235.6685 L 104.7579 230.8942 L 104.0737 226.2646 L 103.1231 223.4426 L 96.6906 210.4234 L 94.8692 207.8651 L 88.904 200.4645 L 87.2117 197.8233 L 80.8973 184.8743 L 80.4699 183.3857 L 79.9993 180.3191 L 80.0887 175.6597 L 80.741 172.6229 L 82.5114 168.7716 L 85.1606 164.2525 L 86.6711 162.1089 L 87.6807 161.1881 L 88.8785 160.4991 L 90.164 160.0546 L 92.8627 159.7271 L 96.9809 160.2907 L 99.485 161.2859 L 103.9923 163.7826 L 106.5969 164.6034 L 108.0228 164.7502 L 110.932 164.4206 L 112.3786 163.8953 L 115.0183 162.3301 L 117.382 160.3183 L 119.4842 158.0131 L 121.2482 155.4399 L 122.4524 152.5434 L 122.7794 149.5385 L 122.6422 148.0626 L 121.8543 145.3682 L 119.4539 140.7046 L 118.5001 138.1143 L 117.9737 133.8654 L 118.3055 131.0859 L 118.7425 129.7695 L 119.4156 128.5446 L 120.3088 127.5196 L 122.3886 125.9969 L 127.9949 122.6539 L 130.5468 121.5098 L 132.0556 121.0674 L 136.7592 120.4145 L 143.2251 120.2699 L 164.5163 120.4252 L 173.9441 120.1083 L 182.2602 120.5485 L 189.026 120.5592 L 194.0023 120.221 L 198.7585 119.1854 L 206.2085 115.6956 L 214.6793 113.4988 L 217.461 112.5035 L 220.1979 110.9086 L 227.7772 104.8562 L 230.0946 103.2847 L 232.6737 102.0193 L 235.4585 101.0815 L 243.6901 110.7427 L 247.5307 113.0735 L 249.223 118.5708 L 254.0398 122.824 L 256.866 126.8029 L 256.7081 130.2416 L 254.5789 131.6218 L 248.7206 132.2024 L 235.7344 136.0303 L 232.2096 140.3324 L 230.1855 143.8817 L 228.6321 150.621 L 229.4519 156.3628 L 232.3946 161.2328 L 235.3548 164.0633 L 239.4411 166.2686 L 245.8879 168.6227 L 249.2342 169.9306 L 252.0716 172.3783 L 254.0366 175.0749 L 258.8534 178.5625 L 266.6703 180.4254 L 271.7741 179.8406 L 280.2434 178.654 L 290.8467 187.3072 L 295.1674 190.2844 L 300.9906 192.1346 L 303.7052 194.6355 L 302.2761 196.3899 L 300.6429 198.9695 L 298.2297 204.4051 L 295.6268 209.3538 L 294.4927 211.9759 L 293.5007 216.648 L 293.1705 221.5222 L 293.1147 251.5713 L 293.2662 259.8757 L 293.6825 264.7329 L 294.2774 267.8271 L 295.2392 270.5747 L 296.9904 274.2112 L 297.9315 276.7376 L 298.3127 279.6319 L 297.9793 282.5539 L 297.0367 285.1356 L 294.539 289.9822 L 292.0971 295.3859 L 290.4017 298.0293 L 284.4062 305.4469 L 282.5991 308.0201 L 281.178 310.7252 L 278.8047 316.0949 L 275.3851 322.2705 L 273.0054 327.7381 L 271.5205 330.1815 L 267.9654 334.7708 L 252.9281 334.8261 L 248.0427 334.439 L 244.8927 333.8202 L 242.0935 332.7803 L 236.0789 329.4479 L 230.8076 327.0384 L 224.7818 323.7166 L 221.9109 322.6576 L 218.6014 322.0175 L 211.7191 321.5496 L 197.6388 321.3625 L 190.6624 321.3774 L 185.5681 321.7389 L 182.3033 322.4662 L 180.7434 323.0978 L 178.3733 324.6332 L 176.3732 326.5961 L 174.7639 328.8801 L 171.7893 335.3684 L 166.5403 344.8318 L 164.9086 346.7734 L 162.0457 349.185 L 158.3262 353.032 L 154.9417 353.3319 L 152.0261 353.2106 L 149.1648 352.6131 L 147.876 352.1282 L 141.8296 348.9659 L 135.3062 345.8589 L 123.1637 337.4886 L 123.5529 324.8884 L 123.8942 269.9516 L 123.7618 264.3522 L 123.076 258.923 L 121.9675 255.5842 L 120.4364 252.6367 L 117.3836 247.7476 L 115.5398 245.8337 L 114.208 245.049 L 111.2621 244.1749 L 104.868 243.7475 Z" fill="#000000" fill-opacity="1" stroke="#000000" stroke-width="0" paint-order="fill" stroke-opacity="1" stroke-dasharray="" stroke-linecap="butt" stroke-linejoin="miter" stroke-miterlimit="10" clip-path="none" style="filter: url(#f1)"/>




</svg>