<?xml version="1.0" standalone="no"?>
<!-- Generator: Paintmaps.com , Online SVG vector map maker -->
<svg xmlns="http://www.w3.org/2000/svg" version="1.1" baseProfile="full"   style="background-color:false" width="800" height="500" viewBox="0 0 800 533">
<path data-code="200" d="M 457.091 159.7027 L 459.8858 166.1966 L 461.4476 170.1861 L 463.1025 172.7692 L 467.0451 177.5708 L 468.2361 179.2419 L 469.1321 180.8919 L 470.474 183.9876 L 472.4249 187.4387 L 473.2744 189.2823 L 473.7519 191.1727 L 473.9379 194.1005 L 473.7406 196.056 L 473.5273 197.0193 L 472.7753 198.9188 L 471.6502 200.667 L 469.6221 203.0626 L 466.6459 206.0781 L 464.3196 208.2302 L 462.7225 209.5641 L 461.062 210.7452 L 459.448 211.6117 L 456.4309 212.9622 L 453.9344 214.6697 L 450.8459 217.4901 L 442.6623 225.8987 L 439.5352 228.6451 L 437.844 229.7491 L 434.067 231.4429 L 428.9311 234.3692 L 422.399 236.7693 L 418.6243 237.8082 L 415.4699 236.1356 L 413.4306 235.5549 L 411.2993 235.2433 L 405.8039 235.0225 L 391.2697 235.1964 L 385.7414 235.1133 L 382.5145 234.7624 L 380.4524 234.2134 L 379.5337 233.8233 L 375.2587 231.4429 L 371.5146 229.6795 L 369.744 228.4757 L 367.2691 226.3085 L 361.7068 220.8278 L 359.216 218.697 L 357.4488 217.5219 L 354.6552 216.188 L 352.8427 215.1718 L 350.3235 213.2012 L 347.1544 210.1569 L 340.9592 203.7718 L 337.7561 200.8062 L 335.1723 198.9884 L 331.4452 197.1947 L 329.7983 196.1391 L 323.4351 190.8415 L 319.7738 188.0406 L 330.7522 183.4114 L 335.8914 180.4624 L 339.6866 178.8124 L 344.8916 176.0358 L 346.8913 175.4173 L 350.9893 174.5462 L 352.9743 173.9473 L 357.3411 171.7892 L 359.3215 171.086 L 362.6698 170.5582 L 367.2952 170.3767 L 395.4687 170.6292 L 398.8907 170.3903 L 401.107 169.9381 L 402.1789 169.5555 L 403.177 169.0579 L 405.0179 167.7967 L 407.5529 165.5327 L 420.4175 151.9777 L 425.3288 147.1338 L 427.0199 145.7152 L 428.7667 144.528 L 429.6673 144.0668 L 431.4185 143.4618 L 435.1298 145.0362 L 438.5745 146.6846 L 441.6766 147.9096 L 443.2895 148.7822 L 445.6771 150.6514 L 450.1631 154.9585 L 452.4871 157.0123 L 454.1522 158.1979 L 457.091 159.7027 Z" fill="#000000" fill-opacity="1" stroke="#000000" stroke-width="0" paint-order="fill" stroke-opacity="1" stroke-dasharray="" stroke-linecap="butt" stroke-linejoin="miter" stroke-miterlimit="10" clip-path="none"/>
<path data-code="201" d="M 291.7829 478.3768 L 282.8383 474.6504 L 281.095 473.6235 L 279.608 472.3139 L 278.349 470.7819 L 277.8215 469.9441 L 276.0748 466.192 L 274.9655 464.3757 L 272.9363 461.782 L 266.977 455.1112 L 265.6307 453.3705 L 264.4919 451.527 L 262.8121 447.6342 L 259.9753 442.332 L 258.4101 438.3909 L 255.5654 433.0842 L 253.9775 429.1506 L 251.1146 423.8499 L 249.5142 419.9224 L 246.6321 414.6308 L 245.0532 410.6972 L 242.7734 406.2404 L 241.8206 403.2309 L 240.7828 397.9287 L 240.0818 395.9672 L 237.7975 391.5119 L 236.2039 387.5859 L 233.2775 382.3245 L 231.6555 378.4212 L 229.792 374.902 L 228.9742 373.0479 L 228.4343 370.9216 L 228.0827 367.5869 L 227.9965 363.0242 L 228.1088 354.9363 L 228.8313 351.8043 L 229.6786 349.7914 L 230.8763 347.913 L 234.3585 343.5061 L 235.6447 341.6838 L 236.6655 339.7631 L 237.9064 336.8428 L 240.2146 332.4011 L 240.9178 330.4381 L 241.967 325.1374 L 242.5556 323.0671 L 243.395 321.2281 L 245.3221 317.6771 L 246.3156 315.3769 L 246.0763 308.7801 L 246.3678 303.1755 L 247.0586 299.9723 L 249.0571 295.4066 L 249.7365 293.3453 L 250.1766 291.0088 L 250.847 285.023 L 251.2757 282.688 L 251.9494 280.6327 L 254.0036 276.0701 L 256.0327 267.6812 L 258.5224 262.2308 L 260.5232 253.8616 L 262.9811 248.399 L 263.5528 246.3287 L 264.3683 242.0503 L 264.9388 239.933 L 268.3926 232.382 L 272.6029 235.3976 L 274.8453 237.5254 L 276.5943 240.0026 L 278.2832 243.8303 L 279.9244 246.3982 L 282.6398 249.5953 L 290.7349 258.0794 L 293.372 261.3158 L 294.4325 263.0535 L 295.7687 266.1552 L 296.6228 267.7961 L 297.7729 269.4778 L 301.6531 274.3339 L 302.8157 276.0413 L 303.6278 277.602 L 305.3791 281.7382 L 307.7395 286.1179 L 309.3921 290.0212 L 310.5501 291.9374 L 311.926 293.7491 L 316.6149 298.9001 L 322.4756 304.5759 L 324.2189 306.0232 L 326.0065 307.2799 L 329.5748 308.9903 L 331.1662 309.9628 L 332.441 311.2225 L 333.3087 312.7878 L 333.5095 313.6922 L 333.4993 314.6071 L 333.3212 315.4661 L 330.2451 322.4349 L 329.0508 324.2542 L 327.65 325.9662 L 321.5149 332.5251 L 319.429 335.1006 L 318.2732 336.9366 L 316.5457 340.8097 L 313.6489 346.0786 L 312.0337 349.988 L 310.1668 353.5117 L 309.3354 355.3718 L 308.5958 358.6022 L 308.2975 363.1089 L 308.4881 368.7756 L 309.0246 372.0649 L 309.7131 374.0566 L 311.8511 378.5558 L 312.4534 380.6035 L 313.3336 384.8259 L 313.9268 386.8781 L 316.007 391.4015 L 316.6546 393.3932 L 317.1288 396.6719 L 317.494 405.6884 L 317.9874 408.9671 L 318.6668 410.9604 L 320.9534 415.3975 L 322.5652 419.2993 L 324.4185 422.8321 L 325.2273 424.6817 L 325.9407 427.8727 L 326.5929 434.4785 L 326.9865 436.6185 L 327.6421 438.583 L 329.6916 443.1169 L 330.2338 445.2992 L 330.5242 447.5753 L 330.7102 451.0778 L 330.6739 462.9737 L 330.3779 468.8915 L 329.517 474.4387 L 322.2589 475.1918 L 318.7655 475.8209 L 316.5696 476.6104 L 312.3275 478.584 L 310.0091 479.1934 L 307.5909 479.5201 L 303.874 479.7001 L 298.872 479.5776 L 295.1641 479.1723 L 291.7829 478.3768 Z" fill="#000000" fill-opacity="1" stroke="#000000" stroke-width="0" paint-order="fill" stroke-opacity="1" stroke-dasharray="" stroke-linecap="butt" stroke-linejoin="miter" stroke-miterlimit="10" clip-path="none"/>
<path data-code="202" d="M 562.0154 337.6277 L 557.1778 337.0667 L 554.7335 337.0712 L 552.3312 337.3056 L 550.0241 337.8606 L 545.7866 339.8009 L 543.6996 340.5435 L 540.5577 341.0925 L 536.2227 341.3949 L 535.6397 339.7011 L 534.7584 338.1737 L 534.1323 337.5582 L 531.0607 335.5483 L 528.7469 333.7048 L 526.5498 331.5875 L 524.6727 329.2116 L 523.8061 327.3772 L 523.569 326.311 L 523.5021 325.2342 L 523.5963 324.162 L 523.8537 323.1139 L 524.7305 321.3218 L 525.8999 319.7218 L 529.111 315.8442 L 530.2089 314.1383 L 530.6479 313.2173 L 531.0006 312.1889 L 531.4316 310.049 L 531.8706 304.5789 L 532.1587 302.4314 L 532.7768 300.3701 L 533.7999 298.6339 L 534.4374 297.8672 L 535.8971 296.5454 L 537.6019 295.5261 L 541.261 293.7612 L 543.0145 292.5317 L 544.7102 291.1313 L 547.1636 288.8462 L 549.5001 286.4265 L 551.6234 283.8555 L 552.8064 281.9938 L 553.2771 280.9927 L 553.9123 278.8754 L 555.1146 272.5357 L 557.4965 265.2766 L 562.8626 268.1016 L 564.5561 269.3236 L 566.8631 271.4318 L 568.89 273.7411 L 570.014 275.3714 L 570.8364 277.0742 L 571.2912 278.9541 L 568.8072 285.4707 L 568.214 287.5577 L 567.175 295.9511 L 566.7418 298.2861 L 565.9943 300.5304 L 564.091 304.9101 L 563.5307 307.2073 L 563.2279 309.6028 L 563.0385 313.2884 L 562.8558 330.8102 L 562.5167 334.3853 L 562.0154 337.6277 Z" fill="#000000" fill-opacity="1" stroke="#000000" stroke-width="0" paint-order="fill" stroke-opacity="1" stroke-dasharray="" stroke-linecap="butt" stroke-linejoin="miter" stroke-miterlimit="10" clip-path="none"/>
<path data-code="203" d="M 571.5078 375.7867 L 571.8447 380.5309 L 571.83 382.813 L 571.5702 384.9892 L 570.9192 387.0626 L 569.8416 388.7791 L 569.1724 389.5171 L 567.6355 390.7345 L 565.8355 391.5633 L 562.9296 392.1909 L 562.0165 389.6698 L 561.5356 388.9182 L 560.9254 388.2709 L 557.8674 386.0826 L 551.9864 381.0617 L 550.1875 379.7445 L 548.3001 378.7131 L 545.4486 377.4578 L 540.3105 374.4982 L 535.609 372.4233 L 531.3034 369.9839 L 526.5793 367.9831 L 520.9172 364.6681 L 520.1674 364.1327 L 519.488 363.4416 L 518.9572 362.5886 L 518.3765 360.6695 L 518.2857 358.6203 L 518.4037 357.5783 L 519.0173 355.5261 L 520.0971 353.8187 L 520.7629 353.0776 L 522.2715 351.8043 L 524.0125 350.8182 L 526.7892 349.5872 L 529.5181 347.7648 L 532.0929 345.5054 L 536.2227 341.3949 L 540.5577 341.0925 L 543.6996 340.5435 L 545.7866 339.8009 L 550.0241 337.8606 L 552.3312 337.3056 L 554.7335 337.0712 L 557.1778 337.0667 L 562.0154 337.6277 L 563.668 341.0516 L 566.7134 346.3463 L 568.3751 350.2451 L 570.6243 354.6988 L 571.3218 356.7662 L 571.8504 360.2612 L 572.0035 363.8666 L 571.915 369.9597 L 571.5078 375.7867 Z" fill="#000000" fill-opacity="1" stroke="#000000" stroke-width="0" paint-order="fill" stroke-opacity="1" stroke-dasharray="" stroke-linecap="butt" stroke-linejoin="miter" stroke-miterlimit="10" clip-path="none"/>
<path data-code="204" d="M 562.9296 392.1909 L 560.5374 394.1403 L 558.8939 395.3017 L 555.2904 397.106 L 553.5755 398.1449 L 552.0907 399.4531 L 550.8238 400.9911 L 549.8268 402.7741 L 548.1923 406.5338 L 545.8013 410.9422 L 544.6115 413.9018 L 543.6758 415.7771 L 542.5325 417.4966 L 538.1554 423.2858 L 537.1698 425.0008 L 535.5705 428.6546 L 534.4793 430.1412 L 533.8249 430.7582 L 532.2982 431.6384 L 531.4248 431.8259 L 530.5492 431.7866 L 529.7325 431.5703 L 523.0371 428.3173 L 518.8597 425.76 L 516.9405 425.0053 L 514.8399 424.6363 L 512.7007 424.597 L 510.5831 424.8904 L 509.5532 425.1883 L 507.7418 426.0201 L 504.3686 427.9423 L 500.6868 429.7162 L 499.0909 430.914 L 497.7037 432.3658 L 496.5695 434.0279 L 494.918 437.8646 L 492.6711 442.3214 L 491.9894 444.3026 L 491.3962 447.5057 L 481.8799 447.418 L 478.3774 447.5964 L 476.0998 447.9125 L 473.9107 448.5099 L 472.815 448.9817 L 468.6921 451.2275 L 464.9252 452.9107 L 460.7875 455.1429 L 458.5996 455.9596 L 456.3345 456.4193 L 450.5487 457.1044 L 448.2904 457.5415 L 446.1138 458.3007 L 441.8525 460.2334 L 439.5692 460.7975 L 435.9861 461.168 L 426.2067 461.4251 L 422.6282 461.8077 L 420.3529 462.3794 L 415.0117 464.7522 L 412.8385 465.3118 L 409.4267 465.7201 L 402.4829 466.1451 L 399.1198 466.6971 L 396.9614 467.4533 L 392.7216 469.4117 L 390.4667 469.9985 L 388.1143 470.3146 L 384.4938 470.5082 L 367.2589 470.4053 L 361.2349 470.7592 L 357.822 471.5426 L 353.606 473.5343 L 351.3908 474.3298 L 349.0373 474.779 L 346.6077 475.0103 L 337.8831 475.0618 L 329.517 474.4387 L 330.3779 468.8915 L 330.6739 462.9737 L 330.7102 451.0778 L 330.5242 447.5753 L 330.2338 445.2992 L 329.6916 443.1169 L 327.6421 438.583 L 326.9865 436.6185 L 326.5929 434.4785 L 325.9407 427.8727 L 325.2273 424.6817 L 324.4185 422.8321 L 322.5652 419.2993 L 320.9534 415.3975 L 318.6668 410.9604 L 317.9874 408.9671 L 317.494 405.6884 L 317.1288 396.6719 L 316.6546 393.3932 L 316.007 391.4015 L 313.9268 386.8781 L 313.3336 384.8259 L 312.4534 380.6035 L 311.8511 378.5558 L 309.7131 374.0566 L 309.0246 372.0649 L 308.4881 368.7756 L 308.2975 363.1089 L 308.5958 358.6022 L 309.3354 355.3718 L 310.1668 353.5117 L 312.0337 349.988 L 313.6489 346.0786 L 316.5457 340.8097 L 318.2732 336.9366 L 319.429 335.1006 L 321.5149 332.5251 L 327.65 325.9662 L 329.0508 324.2542 L 330.2451 322.4349 L 333.3212 315.4661 L 333.4993 314.6071 L 333.5095 313.6922 L 333.3087 312.7878 L 332.441 311.2225 L 331.1662 309.9628 L 329.5748 308.9903 L 326.0065 307.2799 L 324.2189 306.0232 L 322.4756 304.5759 L 316.6149 298.9001 L 311.926 293.7491 L 310.5501 291.9374 L 309.3921 290.0212 L 307.7395 286.1179 L 305.3791 281.7382 L 303.6278 277.602 L 302.8157 276.0413 L 301.6531 274.3339 L 297.7729 269.4778 L 296.6228 267.7961 L 295.7687 266.1552 L 294.4325 263.0535 L 293.372 261.3158 L 290.7349 258.0794 L 282.6398 249.5953 L 279.9244 246.3982 L 278.2832 243.8303 L 276.5943 240.0026 L 274.8453 237.5254 L 272.6029 235.3976 L 268.3926 232.382 L 269.8535 230.0077 L 271.8747 227.8541 L 273.4365 226.7078 L 276.1043 225.3603 L 277.783 224.3349 L 279.9153 222.3099 L 281.053 220.6963 L 282.8326 216.9442 L 283.9635 215.1279 L 286.0198 212.5418 L 290.5205 207.5648 L 292.6211 205.0377 L 293.8064 203.2788 L 294.2896 202.3669 L 294.9611 200.6353 L 298.9026 198.8477 L 302.9246 197.5577 L 304.7984 196.7547 L 309.1017 194.3486 L 313.7476 192.1542 L 319.7738 188.0406 L 323.4351 190.8415 L 329.7983 196.1391 L 331.4452 197.1947 L 335.1723 198.9884 L 337.7561 200.8062 L 340.9592 203.7718 L 347.1544 210.1569 L 350.3235 213.2012 L 352.8427 215.1718 L 354.6552 216.188 L 357.4488 217.5219 L 359.216 218.697 L 361.7068 220.8278 L 367.2691 226.3085 L 369.744 228.4757 L 371.5146 229.6795 L 375.2587 231.4429 L 379.5337 233.8233 L 380.4524 234.2134 L 382.5145 234.7624 L 385.7414 235.1133 L 391.2697 235.1964 L 405.8039 235.0225 L 411.2993 235.2433 L 413.4306 235.5549 L 415.4699 236.1356 L 418.6243 237.8082 L 424.2762 243.8787 L 426.8044 246.2334 L 428.5897 247.6096 L 437.5673 252.3099 L 439.6123 253.0283 L 443.1194 253.5667 L 447.9513 253.733 L 473.7644 253.5561 L 481.0644 253.7118 L 483.4372 253.9447 L 485.7352 254.3894 L 487.744 255.1032 L 492.1244 257.1977 L 495.4523 257.9796 L 501.3311 258.3804 L 513.3438 258.3925 L 518.0702 258.143 L 521.4798 257.5728 L 523.4715 256.8741 L 527.8746 254.8143 L 530.0444 254.2472 L 533.4608 253.8495 L 542.7502 253.2823 L 544.9926 252.8423 L 551.6892 250.7749 L 552.5603 251.0244 L 553.0401 251.3541 L 553.7921 252.5292 L 555.2303 257.8299 L 556.9884 262.1476 L 557.4047 263.9473 L 557.4965 265.2766 L 555.1146 272.5357 L 553.9123 278.8754 L 553.2771 280.9927 L 552.8064 281.9938 L 551.6234 283.8555 L 549.5001 286.4265 L 547.1636 288.8462 L 544.7102 291.1313 L 543.0145 292.5317 L 541.261 293.7612 L 537.6019 295.5261 L 535.8971 296.5454 L 534.4374 297.8672 L 533.7999 298.6339 L 532.7768 300.3701 L 532.1587 302.4314 L 531.8706 304.5789 L 531.4316 310.049 L 531.0006 312.1889 L 530.6479 313.2173 L 530.2089 314.1383 L 529.111 315.8442 L 525.8999 319.7218 L 524.7305 321.3218 L 523.8537 323.1139 L 523.5963 324.162 L 523.5021 325.2342 L 523.569 326.311 L 523.8061 327.3772 L 524.6727 329.2116 L 526.5498 331.5875 L 528.7469 333.7048 L 531.0607 335.5483 L 534.1323 337.5582 L 534.7584 338.1737 L 535.6397 339.7011 L 536.2227 341.3949 L 532.0929 345.5054 L 529.5181 347.7648 L 526.7892 349.5872 L 524.0125 350.8182 L 522.2715 351.8043 L 520.7629 353.0776 L 520.0971 353.8187 L 519.0173 355.5261 L 518.4037 357.5783 L 518.2857 358.6203 L 518.3765 360.6695 L 518.9572 362.5886 L 519.488 363.4416 L 520.1674 364.1327 L 520.9172 364.6681 L 526.5793 367.9831 L 531.3034 369.9839 L 535.609 372.4233 L 540.3105 374.4982 L 545.4486 377.4578 L 548.3001 378.7131 L 550.1875 379.7445 L 551.9864 381.0617 L 557.8674 386.0826 L 560.9254 388.2709 L 561.5356 388.9182 L 562.0165 389.6698 L 562.9296 392.1909 Z" fill="#000000" fill-opacity="1" stroke="#000000" stroke-width="0" paint-order="fill" stroke-opacity="1" stroke-dasharray="" stroke-linecap="butt" stroke-linejoin="miter" stroke-miterlimit="10" clip-path="none"/>
<path data-code="205" d="M 457.091 159.7027 L 460.0843 157.9545 L 463.7626 156.2365 L 465.6296 155.1914 L 467.4092 153.8787 L 472.5406 149.5595 L 474.3621 148.3376 L 483.3215 143.8097 L 485.5775 143.2274 L 489.1096 142.8872 L 502.4233 142.8841 L 507.1497 142.4834 L 508.2885 142.2429 L 510.3097 141.5397 L 514.6902 139.4058 L 516.6728 138.7933 L 521.769 137.6107 L 523.6575 136.8878 L 525.4008 135.9985 L 528.0833 137.1781 L 532.094 138.3139 L 531.6914 140.4432 L 531.1152 142.5136 L 528.9851 147.034 L 528.2943 148.9879 L 527.244 154.2931 L 526.6542 156.3665 L 525.8194 158.2025 L 523.9422 161.7413 L 522.3236 165.6673 L 519.3292 170.9166 L 517.671 174.7897 L 515.4297 179.1089 L 514.8932 181.0885 L 514.8649 183.2133 L 515.0543 184.2644 L 515.7428 186.117 L 517.5281 189.5484 L 519.2714 193.3081 L 520.4533 194.9278 L 522.6582 196.9286 L 524.388 197.9297 L 527.1567 199.2031 L 529.6406 200.8863 L 532.6577 203.7129 L 534.0132 205.2872 L 535.2041 206.9689 L 536.1648 208.8291 L 537.3592 211.7615 L 540.1437 217.103 L 542.8773 224.7312 L 543.7109 227.473 L 544.6172 229.737 L 546.2641 234.829 L 548.8252 240.2869 L 551.6892 250.7749 L 544.9926 252.8423 L 542.7502 253.2823 L 533.4608 253.8495 L 530.0444 254.2472 L 527.8746 254.8143 L 523.4715 256.8741 L 521.4798 257.5728 L 518.0702 258.143 L 513.3438 258.3925 L 501.3311 258.3804 L 495.4523 257.9796 L 492.1244 257.1977 L 487.744 255.1032 L 485.7352 254.3894 L 483.4372 253.9447 L 481.0644 253.7118 L 473.7644 253.5561 L 447.9513 253.733 L 443.1194 253.5667 L 439.6123 253.0283 L 437.5673 252.3099 L 428.5897 247.6096 L 426.8044 246.2334 L 424.2762 243.8787 L 418.6243 237.8082 L 422.399 236.7693 L 428.9311 234.3692 L 434.067 231.4429 L 437.844 229.7491 L 439.5352 228.6451 L 442.6623 225.8987 L 450.8459 217.4901 L 453.9344 214.6697 L 456.4309 212.9622 L 459.448 211.6117 L 461.062 210.7452 L 462.7225 209.5641 L 464.3196 208.2302 L 466.6459 206.0781 L 469.6221 203.0626 L 471.6502 200.667 L 472.7753 198.9188 L 473.5273 197.0193 L 473.7406 196.056 L 473.9379 194.1005 L 473.7519 191.1727 L 473.2744 189.2823 L 472.4249 187.4387 L 470.474 183.9876 L 469.1321 180.8919 L 468.2361 179.2419 L 467.0451 177.5708 L 463.1025 172.7692 L 461.4476 170.1861 L 459.8858 166.1966 L 457.091 159.7027 Z" fill="#000000" fill-opacity="1" stroke="#000000" stroke-width="0" paint-order="fill" stroke-opacity="1" stroke-dasharray="" stroke-linecap="butt" stroke-linejoin="miter" stroke-miterlimit="10" clip-path="none"/>
<path data-code="206" d="M 457.091 159.7027 L 454.1522 158.1979 L 452.4871 157.0123 L 450.1631 154.9585 L 445.6771 150.6514 L 443.2895 148.7822 L 441.6766 147.9096 L 438.5745 146.6846 L 435.1298 145.0362 L 431.4185 143.4618 L 437.0625 134.273 L 437.5661 133.1281 L 438.1934 130.8082 L 438.4724 128.4762 L 438.4894 126.238 L 438.2376 124.2175 L 437.9779 123.3419 L 437.5979 122.5963 L 437.0671 122.0413 L 436.0565 121.7328 L 435.3249 121.8855 L 433.2821 111.9601 L 432.5777 109.988 L 430.4737 105.4541 L 429.8896 103.3943 L 428.7837 98.1148 L 428.0895 96.1639 L 425.9855 91.6314 L 425.3878 89.5656 L 424.2184 84.3027 L 423.5027 82.3836 L 421.4145 77.8874 L 421.1264 76.8424 L 420.8122 74.6843 L 420.903 71.4026 L 421.3748 69.2672 L 422.1608 67.3995 L 424.0165 63.909 L 425.8052 60.101 L 426.944 58.4223 L 428.2733 56.8873 L 432.2284 53.3001 L 448.5921 70.3485 L 452.4769 74.1822 L 454.0909 75.5872 L 455.7742 76.8303 L 457.581 77.8239 L 460.3849 79.1275 L 462.9721 80.9333 L 466.1695 83.9065 L 473.8336 91.9369 L 475.4249 93.4251 L 477.1127 94.7514 L 478.9694 95.7888 L 479.988 96.1427 L 482.092 96.5556 L 484.2471 96.7265 L 491.893 96.8777 L 495.0893 97.3163 L 497.0413 97.9938 L 501.3356 100.3258 L 504.1122 101.5704 L 505.023 102.065 L 506.611 103.2552 L 507.9857 104.707 L 509.1052 106.3675 L 510.7407 110.2043 L 513.531 115.5186 L 515.0395 119.49 L 517.8661 124.8028 L 519.0684 127.7352 L 520.0257 129.5923 L 521.8575 132.0937 L 525.4008 135.9985 L 523.6575 136.8878 L 521.769 137.6107 L 516.6728 138.7933 L 514.6902 139.4058 L 510.3097 141.5397 L 508.2885 142.2429 L 507.1497 142.4834 L 502.4233 142.8841 L 489.1096 142.8872 L 485.5775 143.2274 L 483.3215 143.8097 L 474.3621 148.3376 L 472.5406 149.5595 L 467.4092 153.8787 L 465.6296 155.1914 L 463.7626 156.2365 L 460.0843 157.9545 L 457.091 159.7027 Z" fill="#000000" fill-opacity="1" stroke="#000000" stroke-width="0" paint-order="fill" stroke-opacity="1" stroke-dasharray="" stroke-linecap="butt" stroke-linejoin="miter" stroke-miterlimit="10" clip-path="none"/>







</svg>