<?xml version="1.0" standalone="no"?>
<!-- Generator: Paintmaps.com , Online SVG vector map maker -->
<svg xmlns="http://www.w3.org/2000/svg" version="1.1" baseProfile="full"   style="background-color:#e0f2f1" width="800" height="500" viewBox="0 0 800 533">

<path data-code="200" d="M 559.7384 185.9424 L 564.9193 194.92 L 565.8585 196.988 L 566.2434 198.2619 L 566.7023 200.9034 L 566.8929 203.6151 L 566.7374 216.0199 L 566.8277 219.9988 L 567.1462 222.4982 L 567.886 224.7735 L 568.5041 225.7649 L 570.0188 227.1324 L 579.5017 232.9804 L 580.99 234.4115 L 584.319 239.8298 L 585.7973 242.8525 L 586.4606 245.3869 L 586.8857 249.3324 L 586.9308 253.2896 L 586.7691 255.8575 L 586.3728 258.2983 L 585.5829 260.5084 L 584.2551 262.2153 L 579.9656 265.2547 L 577.2861 267.6354 L 574.8298 270.3888 L 573.4732 272.4602 L 572.9365 273.5853 L 572.2068 276.1198 L 571.3679 284.0241 L 570.5203 287.8776 L 569.0132 290.9069 L 564.3112 297.9854 L 558.472 299.378 L 556.3931 300.1972 L 551.5369 302.6013 L 547.912 303.4555 L 544.1154 303.7899 L 537.6699 303.8936 L 533.8193 303.7665 L 530.0546 303.3285 L 528.8377 303.0526 L 526.6353 302.2418 L 521.8964 299.6238 L 518.7943 298.191 L 516.723 297.0124 L 514.7343 295.5278 L 508.9672 290.6729 L 505.1624 287.8743 L 509.8719 280.6571 L 511.4461 277.6662 L 512.1125 275.3708 L 512.9739 270.6697 L 513.6021 268.3827 L 514.5118 266.3531 L 516.5675 262.4377 L 518.3229 258.091 L 521.5635 252.2647 L 523.3164 247.9147 L 525.8661 242.9912 L 526.6579 240.8262 L 527.9074 234.9816 L 528.6603 232.7347 L 529.165 231.7449 L 530.3862 229.9143 L 533.0808 226.5841 L 534.2494 224.9206 L 535.0349 223.0933 L 535.1697 222.0702 L 535.0506 220.9935 L 534.7164 219.9888 L 533.63 218.1448 L 531.4157 215.5702 L 523.6367 207.8314 L 520.3642 204.1768 L 518.2972 201.1976 L 516.276 196.9747 L 522.618 196.6854 L 535.6468 196.5082 L 538.1877 196.2792 L 540.661 195.8127 L 542.874 195.022 L 547.645 192.4675 L 551.7952 190.5833 L 557.4551 187.1193 L 559.7384 185.9424 Z" fill="#000000" fill-opacity="1" stroke="#000000" stroke-width="0" paint-order="fill" stroke-opacity="1" stroke-dasharray="" stroke-linecap="butt" stroke-linejoin="miter" stroke-miterlimit="10" transform="matrix(0.8999999761581421,0,0,0.8999999761581421,40.000038146972656,26.65003776550293)" clip-path="none" style="filter: url(#f1)"/>
<path data-code="201" d="M 597.3228 338.6404 L 595.7529 330.8364 L 594.8238 328.6146 L 592.7876 325.6538 L 590.3726 322.9221 L 583.5216 315.8336 L 580.2653 312.2359 L 578.14 309.4908 L 575.9382 305.8696 L 575.2875 305.0856 L 573.665 303.8568 L 570.988 302.3037 L 564.3112 297.9854 L 569.0132 290.9069 L 570.5203 287.8776 L 571.3679 284.0241 L 572.2068 276.1198 L 572.9365 273.5853 L 573.4732 272.4602 L 574.8298 270.3888 L 577.2861 267.6354 L 579.9656 265.2547 L 584.2551 262.2153 L 585.5829 260.5084 L 586.3728 258.2983 L 586.7691 255.8575 L 586.9308 253.2896 L 586.8857 249.3324 L 586.4606 245.3869 L 585.7973 242.8525 L 584.319 239.8298 L 580.99 234.4115 L 579.5017 232.9804 L 570.0188 227.1324 L 568.5041 225.7649 L 567.886 224.7735 L 567.1462 222.4982 L 566.8277 219.9988 L 566.7374 216.0199 L 566.8929 203.6151 L 566.7023 200.9034 L 566.2434 198.2619 L 565.8585 196.988 L 564.9193 194.92 L 559.7384 185.9424 L 560.8192 183.2006 L 561.381 181.059 L 561.6819 178.6215 L 561.7057 176.1707 L 561.4612 173.7633 L 560.8945 171.4745 L 559.1278 167.626 L 558.3868 165.6566 L 558.0783 163.3964 L 558.3241 161.1077 L 559.045 159.0798 L 560.971 155.248 L 562.7941 150.9247 L 564.3877 148.1227 L 567.8032 142.7779 L 570.7623 145.2439 L 575.2938 148.6109 L 577.2661 149.6725 L 579.5468 150.3663 L 581.9154 150.7224 L 584.3265 150.8845 L 590.4027 150.8143 L 593.9775 150.383 L 596.2633 149.7494 L 597.2814 149.3097 L 602.016 146.6582 L 605.1255 145.2388 L 607.158 144.0753 L 609.9729 141.8166 L 616.1871 135.8098 L 618.9192 133.3824 L 620.8201 131.9747 L 625.8167 129.3767 L 627.557 128.0894 L 629.0855 126.5162 L 630.3393 124.6973 L 635.1567 113.3023 L 643.3443 115.3636 L 645.5599 116.1711 L 648.6519 118.1254 L 653.3752 122.0893 L 656.3556 124.1857 L 660.5034 126.1785 L 666.2172 129.2647 L 673.4093 131.3896 L 674.2431 131.8259 L 677.0643 133.9742 L 677.9997 134.4239 L 680.1325 135.0124 L 685.9303 135.8667 L 688.0682 136.4535 L 689.0086 136.8999 L 691.8523 139.0331 L 692.6899 139.4594 L 698.8363 141.1262 L 701.8318 142.4369 L 707.1907 145.6785 L 708.8057 147.0059 L 709.4527 147.8536 L 710.4395 149.7511 L 711.9918 153.5695 L 713.1516 157.9479 L 717.3934 163.5117 L 719.0234 166.4959 L 719.6879 168.8481 L 720.0002 171.284 L 719.945 176.2125 L 719.6089 178.6349 L 718.9908 180.9637 L 716.6787 185.9775 L 715.6819 189.3763 L 715.2518 193.2649 L 714.7302 202.5819 L 713.8663 206.4187 L 712.3491 209.453 L 707.2647 217.0982 L 705.4755 217.9993 L 703.6273 219.2248 L 701.003 221.4332 L 698.4739 223.8574 L 692.7012 229.7873 L 688.6951 234.1039 L 686.4457 236.7537 L 683.953 240.0906 L 685.9968 251.2048 L 686.7692 253.3899 L 689.0976 258.3969 L 691.3244 267.6404 L 693.6692 272.6491 L 694.4578 274.8108 L 696.0402 281.7738 L 698.9103 288.7603 L 699.1209 289.8988 L 699.1247 292.221 L 698.9128 293.3678 L 698.163 295.4041 L 696.1982 299.2142 L 694.276 303.4606 L 692.9507 305.5436 L 688.2613 311.39 L 686.8331 313.4045 L 683.5957 319.749 L 678.3696 326.7071 L 676.9966 328.7517 L 674.5002 334.0848 L 673.2162 336.1896 L 671.6903 338.1573 L 669.9988 339.9929 L 668.1582 341.6631 L 666.1307 343.0741 L 665.0235 343.6308 L 662.6349 344.3513 L 658.9085 344.7777 L 648.667 344.8094 L 641.036 344.4466 L 638.5797 344.0855 L 636.2337 343.4369 L 631.4177 341.0512 L 628.1739 340.0097 L 623.4218 339.4931 L 613.8963 339.4229 L 604.4773 339.2975 L 597.3228 338.6404 Z" fill="#000000" fill-opacity="1" stroke="#000000" stroke-width="0" paint-order="fill" stroke-opacity="1" stroke-dasharray="" stroke-linecap="butt" stroke-linejoin="miter" stroke-miterlimit="10" transform="matrix(0.8999999761581421,0,0,0.8999999761581421,40.000038146972656,26.65003776550293)" clip-path="none" style="filter: url(#f1)"/>
<path data-code="202" d="M 90.1432 378.8491 L 92.5143 375.88 L 95.2207 372.182 L 96.4144 370.2493 L 97.2689 368.1328 L 97.7341 365.9093 L 97.9962 362.4905 L 97.8902 359.0566 L 97.5692 356.8013 L 96.9166 354.6179 L 96.4094 353.573 L 95.8075 352.5884 L 94.4114 350.7494 L 91.2071 347.3422 L 83.6589 340.0414 L 81.5142 337.5972 L 80.4534 335.8385 L 80.1224 334.8688 L 80.0002 333.8189 L 80.1381 332.7724 L 80.4816 331.8078 L 80.9675 330.9133 L 82.2189 329.2415 L 88.4957 322.6914 L 90.6899 320.0299 L 91.8899 318.124 L 93.387 314.6934 L 94.3318 312.8762 L 96.3085 310.1361 L 100.166 305.8446 L 107.3468 298.5872 L 117.0441 298.1743 L 150.7817 298.2746 L 157.6785 297.9135 L 161.6118 297.0391 L 167.5087 294.3158 L 170.0252 293.5568 L 175.1322 292.3848 L 180.7852 290.1513 L 182.824 289.7183 L 184.4747 289.7149 L 187.82 293.6738 L 189.4299 295.2001 L 191.2192 296.4858 L 193.2598 297.412 L 198.8338 298.6157 L 201.0438 299.3061 L 202.1321 299.8411 L 204.1627 301.2136 L 206.8987 303.7464 L 209.217 306.6838 L 210.3762 308.8906 L 211.0521 311.1994 L 211.8476 315.9038 L 212.4244 318.2059 L 213.2795 320.2622 L 215.2518 324.1877 L 216.5885 327.3591 L 217.7144 329.3184 L 219.1275 330.9969 L 220.7682 332.423 L 222.6396 333.5581 L 225.6219 335.041 L 228.2424 336.9937 L 230.5533 339.4279 L 233.7481 343.5372 L 227.5334 353.7352 L 227.0832 354.7834 L 226.4494 357.1357 L 226.0419 360.8187 L 225.9278 365.8542 L 225.9541 381.193 L 226.166 388.7897 L 226.4275 391.2473 L 226.9021 393.6045 L 227.6763 395.7144 L 229.5389 399.4943 L 230.1113 401.6426 L 230.1075 403.9781 L 229.8555 405.1434 L 229.4142 406.2902 L 228.1471 408.3699 L 226.5629 410.2491 L 224.7837 411.976 L 222.8552 413.5308 L 220.7782 414.8231 L 216.5402 416.6036 L 211.7837 419.2584 L 207.6729 421.1008 L 205.5928 422.2292 L 202.6656 424.5129 L 198.9956 428.0388 L 182.8102 444.7218 L 180.2699 447.5655 L 178.737 449.5516 L 177.4531 451.6715 L 176.9628 452.7598 L 172.3612 464.2351 L 167.7507 462.1888 L 162.2294 460.3198 L 157.3757 457.919 L 155.1645 457.1567 L 151.428 456.5716 L 142.4636 456.08 L 138.7308 455.4916 L 136.524 454.7393 L 132.6434 452.8334 L 130.5544 452.0259 L 123.9717 450.4009 L 122.9473 447.2295 L 121.7342 442.5618 L 120.8972 440.4018 L 118.3124 435.4967 L 116.9488 432.2668 L 115.8273 430.1386 L 114.4079 428.1157 L 110.5002 423.2574 L 108.4778 420.1696 L 106.6064 415.8714 L 103.4417 410.0167 L 101.6919 405.67 L 98.5372 399.8136 L 96.7818 395.4719 L 94.2001 390.5602 L 93.3481 388.4136 L 91.7162 382.7729 L 90.1432 378.8491 Z" fill="#000000" fill-opacity="1" stroke="#000000" stroke-width="0" paint-order="fill" stroke-opacity="1" stroke-dasharray="" stroke-linecap="butt" stroke-linejoin="miter" stroke-miterlimit="10" transform="matrix(0.8999999761581421,0,0,0.8999999761581421,40.000038146972656,26.65003776550293)" clip-path="none" style="filter: url(#f1)"/>
<path data-code="203" d="M 462.1495 377.719 L 462.8535 371.1705 L 463.0654 366.0815 L 462.8892 359.8022 L 462.3288 356.1727 L 461.5928 353.9709 L 459.302 348.9772 L 458.6644 346.7119 L 457.4469 340.8773 L 456.6557 338.7107 L 454.1035 333.8022 L 452.1913 329.5324 L 450.8854 327.4677 L 445.6061 320.625 L 444.4575 318.4233 L 444.0532 317.2062 L 443.5748 314.6767 L 443.3761 312.0787 L 443.3027 298.8765 L 442.9949 296.3069 L 442.3103 293.8259 L 441.1072 291.5439 L 439.5744 289.4742 L 432.4694 281.7772 L 429.9398 278.7713 L 425.8459 272.5739 L 432.319 272.945 L 438.4766 273.0687 L 442.1285 272.9684 L 445.6926 272.5505 L 447.9621 271.9152 L 448.9708 271.4722 L 453.6784 268.7672 L 457.8086 266.8412 L 461.4968 264.6228 L 463.4572 263.6598 L 464.5751 263.3037 L 466.8865 262.9209 L 469.2344 262.9175 L 470.4049 263.0613 L 472.6925 263.7083 L 473.7784 264.2483 L 476.6904 266.4233 L 480.2175 269.9291 L 490.528 281.1335 L 493.1918 283.7549 L 495.0582 285.3298 L 497.0675 286.6455 L 499.2693 287.5015 L 501.5613 287.8676 L 505.1624 287.8743 L 508.9672 290.6729 L 514.7343 295.5278 L 516.723 297.0124 L 518.7943 298.191 L 521.8964 299.6238 L 526.6353 302.2418 L 528.8377 303.0526 L 530.0546 303.3285 L 533.8193 303.7665 L 537.6699 303.8936 L 544.1154 303.7899 L 547.912 303.4555 L 551.5369 302.6013 L 556.3931 300.1972 L 558.472 299.378 L 564.3112 297.9854 L 570.988 302.3037 L 573.665 303.8568 L 575.2875 305.0856 L 575.9382 305.8696 L 578.14 309.4908 L 580.2653 312.2359 L 583.5216 315.8336 L 590.3726 322.9221 L 592.7876 325.6538 L 594.8238 328.6146 L 595.7529 330.8364 L 597.3228 338.6404 L 590.3187 339.6302 L 586.9133 340.6165 L 583.7937 342.5291 L 578.1074 347.2185 L 576.1063 348.561 L 571.9861 350.5705 L 566.3324 353.8723 L 562.1295 355.6896 L 556.3455 358.6955 L 554.1312 359.3709 L 549.596 360.3305 L 547.3867 360.9842 L 542.5179 363.3331 L 540.4246 364.1172 L 534.7697 365.3777 L 532.5604 366.0414 L 526.7068 368.8467 L 517.78 371.1889 L 512.9188 373.5211 L 510.7095 374.2767 L 506.9655 374.8468 L 499.2599 375.228 L 495.4795 375.6577 L 493.0771 376.2846 L 488.2146 378.6067 L 486.0329 379.3958 L 483.5879 379.8873 L 481.067 380.1548 L 474.6498 380.322 L 468.3818 379.9642 L 464.9631 379.2169 L 463.9525 378.7956 L 462.1495 377.719 Z" fill="#000000" fill-opacity="1" stroke="#000000" stroke-width="0" paint-order="fill" stroke-opacity="1" stroke-dasharray="" stroke-linecap="butt" stroke-linejoin="miter" stroke-miterlimit="10" transform="matrix(0.8999999761581421,0,0,0.8999999761581421,40.000038146972656,26.65003776550293)" clip-path="none" style="filter: url(#f1)"/>
<path data-code="204" d="M 567.8032 142.7779 L 561.9352 141.3669 L 559.697 141.2349 L 558.5736 141.3536 L 557.4677 141.6093 L 555.5079 142.4352 L 551.8015 144.5183 L 547.6425 146.3673 L 543.8633 148.5039 L 541.8829 149.4234 L 538.4661 150.1924 L 531.395 150.7775 L 529.0816 151.2356 L 527.955 151.6218 L 526.8479 152.1601 L 524.8078 153.5494 L 522.9452 155.2095 L 521.2287 157.0468 L 518.9862 160.0879 L 517.8539 162.2846 L 516.7995 164.9127 L 511.2261 165.7887 L 503.4321 166.1582 L 498.4906 165.9141 L 496.2262 165.3958 L 495.1873 164.9428 L 494.2488 164.3058 L 492.9354 162.7059 L 489.3538 156.3062 L 487.6084 152.1568 L 486.5389 150.1774 L 485.1678 148.4554 L 483.5453 146.9792 L 481.6551 145.7989 L 477.654 143.8713 L 473.8969 141.6645 L 468.7053 139.3708 L 463.0196 136.1375 L 458.8242 134.3052 L 453.1418 131.0586 L 447.9533 128.7882 L 440.8778 124.8812 L 444.2344 120.3205 L 446.5314 117.873 L 449.1344 115.9186 L 452.0766 114.419 L 453.9173 113.2638 L 455.5178 111.811 L 456.8626 110.079 L 457.4049 109.111 L 458.2092 106.9076 L 459.8555 100.0916 L 462.1557 95.0996 L 462.9018 92.8811 L 463.3394 90.4754 L 463.567 86.774 L 463.3645 83.0726 L 462.9068 80.6619 L 462.5325 79.4949 L 461.5426 77.4403 L 455.7999 68.7653 L 463.6234 68.8656 L 469.0388 69.2534 L 472.89 70.1295 L 478.78 72.7575 L 481.2865 73.3995 L 485.233 73.8459 L 496.023 74.2037 L 499.9689 74.6517 L 502.4748 75.2937 L 508.3629 77.9251 L 510.9314 78.5972 L 513.6147 78.9633 L 520.5366 79.2458 L 559.924 79.194 L 572.7146 79.4381 L 588.7376 79.1255 L 593.0158 79.2191 L 597.2137 79.5585 L 601.206 80.4629 L 605.8766 82.6312 L 608.3718 83.5173 L 611.0713 84.0289 L 613.8574 84.2964 L 625.3001 84.4284 L 636.2224 83.85 L 636.1347 103.4887 L 635.746 109.5256 L 635.1567 113.3023 L 630.3393 124.6973 L 629.0855 126.5162 L 627.557 128.0894 L 625.8167 129.3767 L 620.8201 131.9747 L 618.9192 133.3824 L 616.1871 135.8098 L 609.9729 141.8166 L 607.158 144.0753 L 605.1255 145.2388 L 602.016 146.6582 L 597.2814 149.3097 L 596.2633 149.7494 L 593.9775 150.383 L 590.4027 150.8143 L 584.3265 150.8845 L 581.9154 150.7224 L 579.5468 150.3663 L 577.2661 149.6725 L 575.2938 148.6109 L 570.7623 145.2439 L 567.8032 142.7779 Z" fill="#000000" fill-opacity="1" stroke="#000000" stroke-width="0" paint-order="fill" stroke-opacity="1" stroke-dasharray="" stroke-linecap="butt" stroke-linejoin="miter" stroke-miterlimit="10" transform="matrix(0.8999999761581421,0,0,0.8999999761581421,40.000038146972656,26.65003776550293)" clip-path="none" style="filter: url(#f1)"/>
<path data-code="205" d="M 425.8459 272.5739 L 408.7076 272.8999 L 404.6307 273.1256 L 401.9838 273.4833 L 399.4497 274.1454 L 393.5748 276.7985 L 389.8721 277.6512 L 383.3395 278.0491 L 373.5613 277.8518 L 369.0995 272.6257 L 362.3913 265.4085 L 358.9351 261.9997 L 356.1515 259.7829 L 354.0933 258.6795 L 351.8245 258.0559 L 349.4954 257.7817 L 343.66 257.439 L 341.3936 257.001 L 339.3223 256.0698 L 337.6045 254.6805 L 336.2271 252.9335 L 335.2748 250.8203 L 334.7626 248.5082 L 334.1256 243.7903 L 332.9138 238.6596 L 332.4248 235.8543 L 333.9156 233.7745 L 335.5569 231.8737 L 338.3129 229.3442 L 340.3404 227.9901 L 345.4179 225.6178 L 351.5718 221.8495 L 353.0984 220.4653 L 354.156 218.3788 L 354.6613 215.9982 L 354.9027 212.1396 L 354.6776 192.8169 L 354.7842 181.7077 L 355.1372 176.2409 L 355.6211 172.9223 L 358.9188 165.4527 L 360.582 161.0207 L 363.7374 155.146 L 365.3548 150.699 L 368.0249 144.0418 L 372.0241 144.8075 L 376.0007 145.2572 L 379.9598 145.3759 L 383.8831 145.2037 L 386.4366 144.8577 L 388.8847 144.2123 L 393.7597 141.932 L 397.1658 140.9105 L 400.9431 140.4759 L 408.6449 140.0813 L 412.3901 139.4928 L 414.6051 138.7171 L 419.3553 136.2261 L 423.5438 134.3821 L 428.274 131.5484 L 433.423 129.1761 L 438.1243 126.3206 L 440.8778 124.8812 L 447.9533 128.7882 L 453.1418 131.0586 L 458.8242 134.3052 L 463.0196 136.1375 L 468.7053 139.3708 L 473.8969 141.6645 L 477.654 143.8713 L 481.6551 145.7989 L 483.5453 146.9792 L 485.1678 148.4554 L 486.5389 150.1774 L 487.6084 152.1568 L 489.3538 156.3062 L 492.9354 162.7059 L 494.2488 164.3058 L 495.1873 164.9428 L 496.2262 165.3958 L 498.4906 165.9141 L 503.4321 166.1582 L 511.2261 165.7887 L 516.7995 164.9127 L 517.5054 172.6749 L 517.637 182.9582 L 517.2113 191.3423 L 516.276 196.9747 L 518.2972 201.1976 L 520.3642 204.1768 L 523.6367 207.8314 L 531.4157 215.5702 L 533.63 218.1448 L 534.7164 219.9888 L 535.0506 220.9935 L 535.1697 222.0702 L 535.0349 223.0933 L 534.2494 224.9206 L 533.0808 226.5841 L 530.3862 229.9143 L 529.165 231.7449 L 528.6603 232.7347 L 527.9074 234.9816 L 526.6579 240.8262 L 525.8661 242.9912 L 523.3164 247.9147 L 521.5635 252.2647 L 518.3229 258.091 L 516.5675 262.4377 L 514.5118 266.3531 L 513.6021 268.3827 L 512.9739 270.6697 L 512.1125 275.3708 L 511.4461 277.6662 L 509.8719 280.6571 L 505.1624 287.8743 L 501.5613 287.8676 L 499.2693 287.5015 L 497.0675 286.6455 L 495.0582 285.3298 L 493.1918 283.7549 L 490.528 281.1335 L 480.2175 269.9291 L 476.6904 266.4233 L 473.7784 264.2483 L 472.6925 263.7083 L 470.4049 263.0613 L 469.2344 262.9175 L 466.8865 262.9209 L 464.5751 263.3037 L 463.4572 263.6598 L 461.4968 264.6228 L 457.8086 266.8412 L 453.6784 268.7672 L 448.9708 271.4722 L 447.9621 271.9152 L 445.6926 272.5505 L 442.1285 272.9684 L 438.4766 273.0687 L 432.319 272.945 L 425.8459 272.5739 Z" fill="#000000" fill-opacity="1" stroke="#000000" stroke-width="0" paint-order="fill" stroke-opacity="1" stroke-dasharray="" stroke-linecap="butt" stroke-linejoin="miter" stroke-miterlimit="10" transform="matrix(0.8999999761581421,0,0,0.8999999761581421,40.000038146972656,26.65003776550293)" clip-path="none" style="filter: url(#f1)"/>
<path data-code="206" d="M 184.4747 289.7149 L 189.3302 285.3549 L 192.841 281.6317 L 194.9876 278.5088 L 195.5306 277.3569 L 196.2848 274.7171 L 196.6415 271.9821 L 196.8089 267.7875 L 196.5863 246.3482 L 196.7029 237.8019 L 197.2552 232.2114 L 197.8207 229.8057 L 198.8489 226.7429 L 205.8793 230.6967 L 211.0326 233.0322 L 215.7471 235.6353 L 216.7596 236.0499 L 219.0253 236.5932 L 222.5179 236.6952 L 224.8131 236.3374 L 226.924 235.6018 L 230.7244 233.6508 L 232.8121 232.8768 L 235.1042 232.3986 L 239.5629 231.9372 L 248.4596 231.9021 L 253.2124 231.3855 L 256.4599 230.3456 L 261.291 227.9533 L 264.9428 227.0472 L 267.4863 226.7646 L 271.3569 226.6175 L 276.4833 226.9418 L 278.966 227.5036 L 280.1615 227.9616 L 282.347 229.2623 L 285.2566 231.7717 L 291.6418 238.2299 L 294.668 240.5604 L 297.0215 241.6103 L 300.8545 242.2673 L 304.7553 242.2372 L 308.5683 241.607 L 310.7851 240.7861 L 315.5999 238.3837 L 317.833 237.7367 L 332.4248 235.8543 L 332.9138 238.6596 L 334.1256 243.7903 L 334.7626 248.5082 L 335.2748 250.8203 L 336.2271 252.9335 L 337.6045 254.6805 L 339.3223 256.0698 L 341.3936 257.001 L 343.66 257.439 L 349.4954 257.7817 L 351.8245 258.0559 L 354.0933 258.6795 L 356.1515 259.7829 L 358.9351 261.9997 L 362.3913 265.4085 L 369.0995 272.6257 L 373.5613 277.8518 L 370.1859 283.4022 L 368.3353 287.7322 L 366.3078 291.6509 L 365.4282 293.7173 L 364.8238 296.1982 L 364.5279 298.7745 L 364.2897 312.0152 L 364.0809 314.6182 L 363.6345 317.1493 L 362.8565 319.4146 L 360.3043 324.3064 L 358.4486 328.5862 L 355.8525 333.4528 L 355.04 335.7633 L 354.5811 338.3897 L 354.4168 341.0763 L 354.4833 343.7729 L 355.0557 347.7284 L 355.8243 350.0322 L 357.7032 354.0027 L 358.4743 356.2713 L 358.9664 358.8526 L 359.7018 365.4763 L 360.1745 368.0626 L 360.9199 370.3463 L 363.1148 375.3969 L 363.6753 377.7324 L 363.9819 380.1615 L 364.2452 385.1301 L 359.4448 384.8325 L 355.9634 384.2407 L 353.8538 383.4934 L 349.0027 381.1746 L 345.4304 380.3504 L 340.4056 380.0144 L 327.5974 379.9492 L 322.6177 379.4694 L 320.2574 378.8508 L 315.393 376.5437 L 313.2916 375.7998 L 309.8409 375.1895 L 303.956 374.5726 L 300.5367 373.7685 L 298.5412 372.8624 L 294.7489 370.771 L 291.6356 369.3382 L 289.5824 368.1596 L 287.6307 366.6867 L 282.9369 362.6526 L 279.959 360.5512 L 275.8257 358.5584 L 270.1739 355.2632 L 265.9748 353.441 L 261.2057 350.8547 L 259.1136 350.0338 L 253.4763 348.7365 L 251.2814 348.0711 L 246.429 345.7206 L 244.3056 344.9649 L 240.8243 344.338 L 233.7481 343.5372 L 230.5533 339.4279 L 228.2424 336.9937 L 225.6219 335.041 L 222.6396 333.5581 L 220.7682 332.423 L 219.1275 330.9969 L 217.7144 329.3184 L 216.5885 327.3591 L 215.2518 324.1877 L 213.2795 320.2622 L 212.4244 318.2059 L 211.8476 315.9038 L 211.0521 311.1994 L 210.3762 308.8906 L 209.217 306.6838 L 206.8987 303.7464 L 204.1627 301.2136 L 202.1321 299.8411 L 201.0438 299.3061 L 198.8338 298.6157 L 193.2598 297.412 L 191.2192 296.4858 L 189.4299 295.2001 L 187.82 293.6738 L 184.4747 289.7149 Z" fill="#000000" fill-opacity="1" stroke="#000000" stroke-width="0" paint-order="fill" stroke-opacity="1" stroke-dasharray="" stroke-linecap="butt" stroke-linejoin="miter" stroke-miterlimit="10" transform="matrix(0.8999999761581421,0,0,0.8999999761581421,40.000038146972656,26.65003776550293)" clip-path="none" style="filter: url(#f1)"/>
<path data-code="207" d="M 373.5613 277.8518 L 383.3395 278.0491 L 389.8721 277.6512 L 393.5748 276.7985 L 399.4497 274.1454 L 401.9838 273.4833 L 404.6307 273.1256 L 408.7076 272.8999 L 425.8459 272.5739 L 429.9398 278.7713 L 432.4694 281.7772 L 439.5744 289.4742 L 441.1072 291.5439 L 442.3103 293.8259 L 442.9949 296.3069 L 443.3027 298.8765 L 443.3761 312.0787 L 443.5748 314.6767 L 444.0532 317.2062 L 444.4575 318.4233 L 445.6061 320.625 L 450.8854 327.4677 L 452.1913 329.5324 L 454.1035 333.8022 L 456.6557 338.7107 L 457.4469 340.8773 L 458.6644 346.7119 L 459.302 348.9772 L 461.5928 353.9709 L 462.3288 356.1727 L 462.8892 359.8022 L 463.0654 366.0815 L 462.8535 371.1705 L 462.1495 377.719 L 458.7935 376.1692 L 456.1874 375.4687 L 453.496 375.0842 L 449.441 374.8752 L 445.5434 375.0073 L 442.1109 375.5908 L 440.3687 376.3916 L 439.3255 377.4365 L 434.3232 379.1501 L 426.513 380.6079 L 424.0316 381.4354 L 421.2211 383.129 L 416.3191 387.0795 L 414.2471 388.4771 L 411.9181 389.4952 L 408.1007 390.2325 L 400.1299 390.5184 L 393.4249 390.388 L 389.464 390.1188 L 386.8942 389.7426 L 384.4379 389.0739 L 378.5906 386.3422 L 376.133 385.6902 L 370.9314 385.1886 L 364.2452 385.1301 L 363.9819 380.1615 L 363.6753 377.7324 L 363.1148 375.3969 L 360.9199 370.3463 L 360.1745 368.0626 L 359.7018 365.4763 L 358.9664 358.8526 L 358.4743 356.2713 L 357.7032 354.0027 L 355.8243 350.0322 L 355.0557 347.7284 L 354.4833 343.7729 L 354.4168 341.0763 L 354.5811 338.3897 L 355.04 335.7633 L 355.8525 333.4528 L 358.4486 328.5862 L 360.3043 324.3064 L 362.8565 319.4146 L 363.6345 317.1493 L 364.0809 314.6182 L 364.2897 312.0152 L 364.5279 298.7745 L 364.8238 296.1982 L 365.4282 293.7173 L 366.3078 291.6509 L 368.3353 287.7322 L 370.1859 283.4022 L 373.5613 277.8518 Z" fill="#000000" fill-opacity="1" stroke="#000000" stroke-width="0" paint-order="fill" stroke-opacity="1" stroke-dasharray="" stroke-linecap="butt" stroke-linejoin="miter" stroke-miterlimit="10" transform="matrix(0.8999999761581421,0,0,0.8999999761581421,40.000038146972656,26.65003776550293)" clip-path="none" style="filter: url(#f1)"/>
<path data-code="208" d="M 516.276 196.9747 L 517.2113 191.3423 L 517.637 182.9582 L 517.5054 172.6749 L 516.7995 164.9127 L 517.8539 162.2846 L 518.9862 160.0879 L 521.2287 157.0468 L 522.9452 155.2095 L 524.8078 153.5494 L 526.8479 152.1601 L 527.955 151.6218 L 529.0816 151.2356 L 531.395 150.7775 L 538.4661 150.1924 L 541.8829 149.4234 L 543.8633 148.5039 L 547.6425 146.3673 L 551.8015 144.5183 L 555.5079 142.4352 L 557.4677 141.6093 L 558.5736 141.3536 L 559.697 141.2349 L 561.9352 141.3669 L 567.8032 142.7779 L 564.3877 148.1227 L 562.7941 150.9247 L 560.971 155.248 L 559.045 159.0798 L 558.3241 161.1077 L 558.0783 163.3964 L 558.3868 165.6566 L 559.1278 167.626 L 560.8945 171.4745 L 561.4612 173.7633 L 561.7057 176.1707 L 561.6819 178.6215 L 561.381 181.059 L 560.8192 183.2006 L 559.7384 185.9424 L 557.4551 187.1193 L 551.7952 190.5833 L 547.645 192.4675 L 542.874 195.022 L 540.661 195.8127 L 538.1877 196.2792 L 535.6468 196.5082 L 522.618 196.6854 L 516.276 196.9747 Z" fill="#000000" fill-opacity="1" stroke="#000000" stroke-width="0" paint-order="fill" stroke-opacity="1" stroke-dasharray="" stroke-linecap="butt" stroke-linejoin="miter" stroke-miterlimit="10" transform="matrix(0.8999999761581421,0,0,0.8999999761581421,40.000038146972656,26.65003776550293)" clip-path="none" style="filter: url(#f1)"/>









</svg>