<?xml version="1.0" standalone="no"?>
<!-- Generator: Paintmaps.com , Online SVG vector map maker -->
<svg xmlns="http://www.w3.org/2000/svg" version="1.1" baseProfile="full"   style="background-color:false" width="800" height="500" viewBox="0 0 800 533">
<path data-code="200" d="M 294.0916 440.4257 L 295.387 443.2226 L 296.5992 446.8586 L 298.1012 449.9245 L 298.4491 451.3155 L 298.4179 452.8089 L 298.2461 453.5466 L 297.6545 454.8308 L 296.8538 455.9966 L 294.1661 459.3561 L 293.4111 460.5442 L 292.1228 463.1789 L 290.8378 464.841 L 289.2197 466.1508 L 286.6556 467.4361 L 285.4839 468.1952 L 281.5087 471.4895 L 280.391 472.3019 L 274.7673 475.2451 L 273.4867 475.8247 L 271.8634 476.2464 L 269.3245 476.508 L 265.8573 476.5667 L 257.9662 476.4759 L 255.7692 474.6622 L 254.5374 473.9512 L 253.764 473.6577 L 251.3285 473.2211 L 248.8389 473.2221 L 247.202 473.4324 L 245.6303 473.8637 L 242.5482 475.3913 L 240.3981 476.0649 L 237.1959 476.3724 L 230.6535 476.4791 L 228.2683 476.777 L 227.4997 476.9755 L 226.1186 477.5659 L 224.9381 478.3462 L 223.2908 479.6999 L 221.4805 477.4186 L 220.7191 476.1984 L 219.5089 473.4655 L 217.908 470.3238 L 217.4405 468.9072 L 217.1862 467.371 L 217.0141 463.403 L 219.2943 461.6929 L 220.5269 461.0267 L 221.9196 460.5666 L 225.4921 459.75 L 226.1931 459.4916 L 227.5562 458.739 L 228.8056 457.7815 L 229.9545 456.6862 L 230.9889 455.4745 L 231.8576 454.1327 L 232.4645 452.5912 L 232.8472 450.0793 L 232.9209 447.4959 L 232.8092 436.1193 L 232.9817 433.554 L 233.2644 431.9004 L 233.7411 430.4336 L 235.1847 427.2396 L 235.5946 425.7984 L 236.2235 422.8275 L 236.6839 421.3725 L 237.7055 419.4702 L 240.9005 414.8937 L 249.9189 414.2767 L 253.21 414.8168 L 254.6487 415.2353 L 255.9109 415.8449 L 258.3253 417.207 L 261.0098 418.3514 L 264.6087 420.4576 L 267.2689 421.6682 L 268.5111 422.4849 L 270.2469 423.9783 L 276.8041 430.724 L 278.5091 432.2869 L 279.7165 433.1953 L 281.0235 433.918 L 283.622 435.1179 L 286.6228 436.8612 L 289.3062 437.9981 L 292.285 439.6816 L 294.0916 440.4257 Z" fill="#000000" fill-opacity="1" stroke="#000000" stroke-width="0" paint-order="fill" stroke-opacity="1" stroke-dasharray="" stroke-linecap="butt" stroke-linejoin="miter" stroke-miterlimit="10" clip-path="none"/>
<path data-code="201" d="M 475.615 165.7272 L 475.1722 166.9687 L 474.8376 167.6295 L 473.5109 169.5233 L 471.9204 171.3317 L 466.7951 176.6587 L 464.7398 179.1567 L 463.9256 180.5082 L 462.4752 183.8965 L 459.7226 188.5765 L 459.2767 189.0708 L 458.235 189.7593 L 454.5613 191.1823 L 454.0429 185.0248 L 453.7374 182.9047 L 453.2878 181.6237 L 452.9296 181.0537 L 452.464 180.5573 L 451.3935 179.8025 L 449.1349 178.4713 L 447.2594 177.6162 L 445.0981 177.2202 L 441.5748 176.9811 L 440.2914 176.6843 L 439.6949 176.3982 L 439.1545 175.9658 L 438.7354 175.3979 L 438.4579 174.7649 L 438.2229 173.4048 L 438.2274 172.7003 L 438.4403 171.2794 L 438.9111 169.945 L 440.4559 166.8748 L 440.8959 165.3408 L 441.2346 162.8887 L 441.4115 158.6602 L 441.4031 153.5671 L 441.2746 151.0605 L 440.8971 148.6362 L 440.4035 147.1918 L 438.8038 144.0533 L 437.6561 141.2991 L 435.6189 137.5713 L 434.4723 134.8085 L 432.4739 131.0583 L 431.3494 128.2849 L 429.3366 124.5421 L 428.124 121.805 L 426.8342 119.8333 L 424.3546 116.7247 L 423.4515 115.4319 L 420.2593 108.8688 L 419.5888 106.7359 L 418.6809 102.2181 L 416.6684 96.9488 L 416.9783 95.608 L 417.2101 94.9899 L 418.7229 91.9272 L 419.5355 89.8604 L 420.2029 88.5388 L 421.5035 86.7774 L 423.5628 84.6787 L 425.2754 83.3496 L 426.5428 82.6546 L 428.5296 81.7398 L 429.7153 80.9808 L 433.6084 77.7259 L 435.3699 76.5143 L 438.0372 75.3047 L 440.4543 73.9458 L 441.7146 73.3501 L 443.1361 72.9445 L 444.5937 72.6765 L 447.7402 75.9378 L 457.5749 86.3387 L 459.2174 87.704 L 460.4644 88.3456 L 461.0413 88.4993 L 462.215 88.5794 L 463.3731 88.367 L 464.0165 88.1054 L 465.1942 87.3923 L 469.8948 83.9037 L 469.7114 96.2944 L 469.9 101.6277 L 470.1314 103.3433 L 470.5481 104.9766 L 472.1846 108.8079 L 472.5033 110.2811 L 472.601 111.7991 L 472.4981 113.3182 L 472.1742 114.7903 L 470.5197 118.6185 L 469.956 121.0706 L 469.7114 123.6625 L 469.617 126.31 L 469.7054 133.3791 L 469.9877 135.9508 L 470.3896 137.5862 L 472.0845 141.456 L 473.368 146.5887 L 475.2955 151.1683 L 475.691 152.791 L 475.9548 155.3413 L 476.0137 157.9535 L 475.9248 161.4731 L 475.615 165.7272 Z" fill="#000000" fill-opacity="1" stroke="#000000" stroke-width="0" paint-order="fill" stroke-opacity="1" stroke-dasharray="" stroke-linecap="butt" stroke-linejoin="miter" stroke-miterlimit="10" clip-path="none"/>
<path data-code="202" d="M 447.9856 224.4336 L 445.568 220.3684 L 444.9604 219.0639 L 444.7386 218.322 L 444.504 216.7922 L 444.5008 215.2443 L 444.7242 213.7156 L 445.1989 212.3065 L 446.8379 209.2107 L 448.026 206.4725 L 450.1165 202.765 L 451.275 200.0054 L 452.924 196.8605 L 453.6537 194.8279 L 454.5613 191.1823 L 458.235 189.7593 L 459.2767 189.0708 L 459.7226 188.5765 L 462.4752 183.8965 L 463.9256 180.5082 L 464.7398 179.1567 L 466.7951 176.6587 L 471.9204 171.3317 L 473.5109 169.5233 L 474.8376 167.6295 L 475.1722 166.9687 L 475.615 165.7272 L 477.7371 164.7398 L 481.9344 163.1513 L 483.8648 161.8767 L 487.5097 158.9442 L 488.866 158.1788 L 489.6575 157.8852 L 492.1499 157.4123 L 494.7259 157.2628 L 499.065 157.3045 L 501.6299 157.5244 L 503.286 157.851 L 504.7328 158.3848 L 507.772 160.0416 L 510.4301 161.2447 L 514.0298 163.3594 L 516.6876 164.5786 L 520.2872 166.6923 L 522.9458 167.8922 L 525.9858 169.5351 L 527.4166 170.0518 L 529.8673 170.4467 L 532.3978 170.5684 L 556.4743 170.466 L 559.8718 170.5674 L 562.3514 170.8524 L 563.9271 171.2634 L 567.038 172.7259 L 568.4431 173.2234 L 570.0356 173.5447 L 574.1181 174.0475 L 575.7134 174.3656 L 577.1241 174.8556 L 579.6049 176.0342 L 581.0108 176.5017 L 583.3923 176.8562 L 589.1021 177.1433 L 591.4808 177.5789 L 592.9608 178.2215 L 594.2887 179.1428 L 597.2767 181.9685 L 596.4704 183.9274 L 595.6926 186.8535 L 593.5461 187.3574 L 592.223 187.936 L 591.0377 188.7227 L 587.711 191.5015 L 586.5609 192.3438 L 585.2999 193.0366 L 583.2974 193.9216 L 580.2962 195.6851 L 577.6829 196.8861 L 576.3823 197.6077 L 574.5881 199.0436 L 569.5508 203.9905 L 567.6993 205.3462 L 566.2986 205.9355 L 564.8146 206.2259 L 563.2958 206.3401 L 558.6857 206.3903 L 557.1673 206.5002 L 555.6817 206.7831 L 554.2866 207.3596 L 553.0383 208.2029 L 551.8818 209.2011 L 545.355 215.9606 L 543.65 217.5203 L 542.4454 218.4234 L 541.1484 219.1354 L 539.146 220.0108 L 535.5255 222.0829 L 532.8309 223.2187 L 529.2076 225.3004 L 526.5171 226.4469 L 522.8989 228.535 L 520.2164 229.7114 L 519.0046 230.432 L 513.4073 234.1961 L 511.1111 232.9716 L 507.6827 231.6468 L 503.9529 229.8288 L 501.4057 229.262 L 496.9413 229.0357 L 472.3379 229.1477 L 466.944 228.9737 L 465.2026 228.7464 L 463.5341 228.3183 L 460.5381 226.9465 L 459.0076 226.4042 L 457.4212 226.0872 L 450.8615 225.3249 L 447.9856 224.4336 Z" fill="#000000" fill-opacity="1" stroke="#000000" stroke-width="0" paint-order="fill" stroke-opacity="1" stroke-dasharray="" stroke-linecap="butt" stroke-linejoin="miter" stroke-miterlimit="10" clip-path="none"/>
<path data-code="203" d="M 496.3784 273.6859 L 494.6358 271.4121 L 493.1262 269.8802 L 491.9913 269.0326 L 490.7231 268.4572 L 489.4028 268.1892 L 488.7331 268.1401 L 487.3924 268.1882 L 486.0702 268.4497 L 485.4281 268.6835 L 484.2079 269.3934 L 483.1086 270.289 L 481.5593 271.7996 L 473.9544 279.8231 L 453.1673 301.322 L 450.5184 303.9801 L 448.8699 305.4458 L 447.713 306.2924 L 446.5809 306.9062 L 444.4523 307.8488 L 443.2594 308.6089 L 441.5744 310.0095 L 439.9527 311.5617 L 436.2522 315.3919 L 433.7413 318.1675 L 432.4611 319.8307 L 431.1757 322.0245 L 430.7193 322.4589 L 430.0408 322.7792 L 427.5091 321.8601 L 423.0291 320.0111 L 422.3518 319.694 L 421.068 318.8827 L 419.2837 317.3893 L 417.5904 315.7357 L 415.4391 313.4138 L 413.9827 311.5777 L 413.1776 310.2667 L 411.9995 307.5168 L 410.3714 304.389 L 409.8746 302.9724 L 409.5872 301.4298 L 409.3994 299.0481 L 409.3682 296.6387 L 409.4807 294.2475 L 409.8794 291.9213 L 410.4454 290.5101 L 411.6752 288.6867 L 413.1568 287.0001 L 415.8202 284.3782 L 418.0836 282.5154 L 419.2901 281.7713 L 421.9547 280.5746 L 423.7157 279.3705 L 425.8294 277.3528 L 427.2133 275.6534 L 427.9695 274.4268 L 428.9219 272.2383 L 429.5256 271.0811 L 430.3366 269.8941 L 433.0532 266.4662 L 433.8438 265.2482 L 434.4091 264.0024 L 435.4611 260.2202 L 436.4099 257.5791 L 437.8382 257.3133 L 439.0864 256.7112 L 440.8619 255.3416 L 442.478 253.6431 L 443.8154 251.696 L 446.8459 245.1083 L 447.2294 243.5198 L 447.4748 241.0432 L 447.5673 229.9687 L 447.9856 224.4336 L 450.8615 225.3249 L 457.4212 226.0872 L 459.0076 226.4042 L 460.5381 226.9465 L 463.5341 228.3183 L 465.2026 228.7464 L 466.944 228.9737 L 472.3379 229.1477 L 496.9413 229.0357 L 501.4057 229.262 L 503.9529 229.8288 L 507.6827 231.6468 L 511.1111 232.9716 L 513.4073 234.1961 L 513.947 237.1286 L 514.3569 238.5964 L 515.8421 241.7968 L 516.3129 243.1964 L 516.5975 244.7176 L 517.1059 249.388 L 517.4049 250.8825 L 517.8841 252.2276 L 518.7728 254.0424 L 519.2504 255.3138 L 519.4302 256.7838 L 519.3741 257.5332 L 518.9422 258.9872 L 518.5887 259.6544 L 517.7164 260.8959 L 516.1743 262.6381 L 513.3401 265.3827 L 512.1459 266.3936 L 510.8997 267.2936 L 509.5786 268.0045 L 507.5702 268.8778 L 503.9289 270.9189 L 498.607 272.9728 L 496.3784 273.6859 Z" fill="#000000" fill-opacity="1" stroke="#000000" stroke-width="0" paint-order="fill" stroke-opacity="1" stroke-dasharray="" stroke-linecap="butt" stroke-linejoin="miter" stroke-miterlimit="10" clip-path="none"/>
<path data-code="204" d="M 436.4099 257.5791 L 431.4607 255.7312 L 427.0828 254.7854 L 425.6665 254.368 L 421.9375 252.5735 L 416.2429 251.08 L 413.1532 249.5439 L 411.8013 249.0389 L 410.3301 248.7069 L 404.8425 247.8668 L 407.5543 244.2511 L 408.7609 242.4587 L 412.1664 235.2839 L 412.5744 233.6217 L 412.7785 231.8966 L 412.9106 226.5633 L 412.8646 214.8846 L 412.6888 212.2563 L 412.4042 210.5611 L 411.9282 209.0751 L 410.5019 205.8747 L 410.0916 204.4335 L 409.4607 201.4615 L 409.0123 200.0043 L 408.3938 198.7062 L 404.8798 192.6374 L 409.9358 190.5397 L 412.433 190.0294 L 415.0147 189.849 L 419.3662 189.8746 L 422.7829 190.1628 L 425.1837 190.735 L 427.596 191.8356 L 428.8258 192.2765 L 430.2117 192.4452 L 430.9099 192.4046 L 432.2245 192.0887 L 434.6185 191.0051 L 436.0076 190.5162 L 437.6137 190.1991 L 440.1313 189.9653 L 444.4331 189.8821 L 448.7486 190.0604 L 451.289 190.4116 L 454.5613 191.1823 L 453.6537 194.8279 L 452.924 196.8605 L 451.275 200.0054 L 450.1165 202.765 L 448.026 206.4725 L 446.8379 209.2107 L 445.1989 212.3065 L 444.7242 213.7156 L 444.5008 215.2443 L 444.504 216.7922 L 444.7386 218.322 L 444.9604 219.0639 L 445.568 220.3684 L 447.9856 224.4336 L 447.5673 229.9687 L 447.4748 241.0432 L 447.2294 243.5198 L 446.8459 245.1083 L 443.8154 251.696 L 442.478 253.6431 L 440.8619 255.3416 L 439.0864 256.7112 L 437.8382 257.3133 L 436.4099 257.5791 Z" fill="#000000" fill-opacity="1" stroke="#000000" stroke-width="0" paint-order="fill" stroke-opacity="1" stroke-dasharray="" stroke-linecap="butt" stroke-linejoin="miter" stroke-miterlimit="10" clip-path="none"/>
<path data-code="205" d="M 185.1962 454.0291 L 185.4856 448.3018 L 185.5392 437.096 L 185.6637 415.9313 L 187.0765 415.5577 L 190.5569 414.3706 L 192.281 413.6415 L 195.2827 411.8801 L 197.4172 410.9289 L 198.5489 410.2916 L 199.6986 409.4354 L 201.3467 408.0028 L 204.1558 410.2585 L 205.4128 410.9727 L 207.3984 411.91 L 210.3776 413.729 L 213.6398 415.246 L 216.0009 416.5089 L 217.2515 416.9882 L 217.9549 417.1216 L 219.3732 417.1131 L 220.0678 416.9743 L 221.2971 416.5003 L 223.6919 415.3442 L 225.1959 414.9246 L 226.7864 414.6909 L 229.2491 414.5329 L 233.4273 414.5072 L 236.7824 414.6108 L 240.9005 414.8937 L 237.7055 419.4702 L 236.6839 421.3725 L 236.2235 422.8275 L 235.5946 425.7984 L 235.1847 427.2396 L 233.7411 430.4336 L 233.2644 431.9004 L 232.9817 433.554 L 232.8092 436.1193 L 232.9209 447.4959 L 232.8472 450.0793 L 232.4645 452.5912 L 231.8576 454.1327 L 230.9889 455.4745 L 229.9545 456.6862 L 228.8056 457.7815 L 227.5562 458.739 L 226.1931 459.4916 L 225.4921 459.75 L 221.9196 460.5666 L 220.5269 461.0267 L 219.2943 461.6929 L 217.0141 463.403 L 214.8548 462.9056 L 213.5181 462.391 L 210.4705 460.7385 L 207.7983 459.5546 L 204.205 457.4249 L 201.5501 456.2186 L 198.5209 454.5511 L 197.0961 454.0291 L 194.6586 453.6416 L 192.1425 453.5466 L 188.7434 453.6555 L 185.1962 454.0291 Z" fill="#000000" fill-opacity="1" stroke="#000000" stroke-width="0" paint-order="fill" stroke-opacity="1" stroke-dasharray="" stroke-linecap="butt" stroke-linejoin="miter" stroke-miterlimit="10" clip-path="none"/>
<path data-code="206" d="M 249.9189 414.2767 L 249.0662 412.0028 L 247.9694 408.337 L 246.1799 404.4853 L 245.7664 403.0271 L 244.9938 399.3004 L 244.511 397.9243 L 243.055 394.7175 L 242.6547 393.2528 L 241.738 388.7287 L 239.9233 383.8074 L 239.9878 382.8242 L 240.1263 382.1645 L 240.6603 380.9464 L 241.4425 379.7967 L 242.8833 378.1986 L 243.9593 377.2314 L 245.1139 376.386 L 246.2536 375.7732 L 248.3965 374.8445 L 249.6003 374.094 L 250.7436 373.193 L 252.3897 371.691 L 255.0571 369.0286 L 257.6624 366.3032 L 259.1363 364.6219 L 260.0242 363.4508 L 260.7636 362.2018 L 261.8321 359.3771 L 263.3113 355.8959 L 290.4879 356.0294 L 293.5564 355.8457 L 295.7573 355.3461 L 297.0292 354.759 L 299.4315 353.415 L 302.0788 352.1831 L 303.9575 350.8455 L 306.2742 348.6773 L 312.4507 342.2444 L 315.3006 339.4155 L 317.6625 337.4288 L 320.6425 335.5617 L 321.6317 334.5977 L 323.0012 332.974 L 323.8491 332.6442 L 324.767 332.1638 L 325.916 331.3557 L 327.0237 330.4205 L 329.1758 328.3613 L 331.8123 325.6583 L 333.8583 323.4507 L 335.2811 321.7405 L 336.462 319.9214 L 337.4084 317.7298 L 338.0161 316.5726 L 338.8359 315.3898 L 341.5954 311.9855 L 342.7603 310.1557 L 344.8664 304.8266 L 345.7235 302.2475 L 347.838 304.9921 L 349.8596 307.33 L 358.6975 316.595 L 362.0538 319.9865 L 363.7996 321.5387 L 365.0246 322.4365 L 366.32 323.1389 L 368.3072 324.0463 L 370.067 325.2516 L 372.1907 327.2564 L 373.585 328.9505 L 374.3481 330.1814 L 375.5094 332.9345 L 376.7956 335.4347 L 377.3545 336.7573 L 377.5622 337.5025 L 377.8785 339.8286 L 378.0514 345.4118 L 378.2896 347.755 L 378.6547 349.242 L 379.5198 351.1657 L 374.7836 356.0475 L 372.4565 356.5076 L 371.2536 356.972 L 368.2255 358.6555 L 365.547 359.8244 L 364.3504 360.6016 L 363.2263 361.5292 L 360.557 364.134 L 334.2651 391.3035 L 332.6458 392.8258 L 331.5393 393.7503 L 330.3992 394.5371 L 328.932 395.326 L 328.0229 395.9185 L 327.1345 396.7863 L 325.6766 398.5809 L 324.5104 399.0879 L 323.3431 399.8096 L 319.4608 402.994 L 318.3079 403.8256 L 315.0681 405.4461 L 313.229 406.7229 L 311.5004 408.2558 L 308.7125 411.0175 L 305.9884 413.8582 L 303.9555 416.2046 L 302.7017 418.1048 L 301.5296 420.8558 L 300.2369 423.3527 L 299.6781 424.6679 L 299.4711 425.4067 L 299.2181 426.9322 L 298.8494 431.609 L 298.57 433.1334 L 298.3398 433.8721 L 297.3398 435.7937 L 294.0916 440.4257 L 292.285 439.6816 L 289.3062 437.9981 L 286.6228 436.8612 L 283.622 435.1179 L 281.0235 433.918 L 279.7165 433.1953 L 278.5091 432.2869 L 276.8041 430.724 L 270.2469 423.9783 L 268.5111 422.4849 L 267.2689 421.6682 L 264.6087 420.4576 L 261.0098 418.3514 L 258.3253 417.207 L 255.9109 415.8449 L 254.6487 415.2353 L 253.21 414.8168 L 249.9189 414.2767 Z" fill="#000000" fill-opacity="1" stroke="#000000" stroke-width="0" paint-order="fill" stroke-opacity="1" stroke-dasharray="" stroke-linecap="butt" stroke-linejoin="miter" stroke-miterlimit="10" clip-path="none"/>
<path data-code="207" d="M 469.8948 83.9037 L 471.2915 83.5289 L 475.8644 81.8978 L 479.4941 79.8289 L 482.7947 78.3429 L 485.7972 76.5655 L 488.4913 75.4307 L 492.111 73.3554 L 494.115 72.4865 L 495.4233 71.7744 L 497.2363 70.3568 L 499.509 68.1705 L 511.0871 56.0093 L 512.8569 54.5233 L 514.1859 53.7781 L 514.9089 53.5358 L 516.3937 53.2999 L 517.8885 53.318 L 518.6275 53.413 L 520.0583 53.7973 L 523.0775 55.4029 L 524.4078 55.9164 L 526.6351 56.3039 L 529.72 56.4715 L 529.9226 60.432 L 530.1868 61.965 L 530.6548 63.3784 L 532.2304 66.5329 L 533.3734 69.2914 L 535.0939 72.3883 L 536.5699 75.7766 L 538.5919 79.5172 L 539.7173 82.2906 L 541.2993 85.4494 L 541.7877 86.8351 L 542.5203 90.5789 L 542.9142 92.051 L 545.59 97.8936 L 546.7393 99.7115 L 547.7193 100.7214 L 548.8382 101.5552 L 552.0211 103.1404 L 555.0239 104.8901 L 557.7033 106.058 L 560.7469 107.719 L 562.1645 108.2453 L 564.5688 108.6457 L 568.6945 108.7193 L 571.9411 108.367 L 573.4776 107.9389 L 576.5608 106.4103 L 577.9652 105.8989 L 579.564 105.5883 L 582.05 105.3876 L 602.1562 105.3513 L 605.8624 105.4292 L 607.6506 105.5616 L 609.3408 105.8253 L 610.8524 106.3067 L 611.9152 106.8789 L 611.5409 113.7335 L 611.609 120.6019 L 611.7683 122.2726 L 612.0665 123.891 L 612.5437 125.33 L 613.9641 128.5336 L 614.5041 130.9964 L 614.7223 133.5883 L 614.8047 137.1176 L 614.7603 141.5446 L 614.6134 144.1643 L 614.3936 145.8681 L 613.9905 147.5046 L 612.3011 151.3744 L 610.7827 157.2393 L 608.5409 161.7966 L 607.1678 165.439 L 605.8095 167.6061 L 604.6422 170.3443 L 602.9364 173.4443 L 601.7467 176.1356 L 601.0625 177.4412 L 599.7703 179.2079 L 597.2767 181.9685 L 594.2887 179.1428 L 592.9608 178.2215 L 591.4808 177.5789 L 589.1021 177.1433 L 583.3923 176.8562 L 581.0108 176.5017 L 579.6049 176.0342 L 577.1241 174.8556 L 575.7134 174.3656 L 574.1181 174.0475 L 570.0356 173.5447 L 568.4431 173.2234 L 567.038 172.7259 L 563.9271 171.2634 L 562.3514 170.8524 L 559.8718 170.5674 L 556.4743 170.466 L 532.3978 170.5684 L 529.8673 170.4467 L 527.4166 170.0518 L 525.9858 169.5351 L 522.9458 167.8922 L 520.2872 166.6923 L 516.6876 164.5786 L 514.0298 163.3594 L 510.4301 161.2447 L 507.772 160.0416 L 504.7328 158.3848 L 503.286 157.851 L 501.6299 157.5244 L 499.065 157.3045 L 494.7259 157.2628 L 492.1499 157.4123 L 489.6575 157.8852 L 488.866 158.1788 L 487.5097 158.9442 L 483.8648 161.8767 L 481.9344 163.1513 L 477.7371 164.7398 L 475.615 165.7272 L 475.9248 161.4731 L 476.0137 157.9535 L 475.9548 155.3413 L 475.691 152.791 L 475.2955 151.1683 L 473.368 146.5887 L 472.0845 141.456 L 470.3896 137.5862 L 469.9877 135.9508 L 469.7054 133.3791 L 469.617 126.31 L 469.7114 123.6625 L 469.956 121.0706 L 470.5197 118.6185 L 472.1742 114.7903 L 472.4981 113.3182 L 472.601 111.7991 L 472.5033 110.2811 L 472.1846 108.8079 L 470.5481 104.9766 L 470.1314 103.3433 L 469.9 101.6277 L 469.7114 96.2944 L 469.8948 83.9037 Z" fill="#000000" fill-opacity="1" stroke="#000000" stroke-width="0" paint-order="fill" stroke-opacity="1" stroke-dasharray="" stroke-linecap="butt" stroke-linejoin="miter" stroke-miterlimit="10" clip-path="none"/>
<path data-code="208" d="M 240.9005 414.8937 L 236.7824 414.6108 L 233.4273 414.5072 L 229.2491 414.5329 L 226.7864 414.6909 L 225.1959 414.9246 L 223.6919 415.3442 L 221.2971 416.5003 L 220.0678 416.9743 L 219.3732 417.1131 L 217.9549 417.1216 L 217.2515 416.9882 L 216.0009 416.5089 L 213.6398 415.246 L 210.3776 413.729 L 207.3984 411.91 L 205.4128 410.9727 L 204.1558 410.2585 L 201.3467 408.0028 L 203.5697 406.1421 L 204.7599 405.3735 L 207.4288 404.1736 L 211.0405 402.0759 L 213.0485 401.2048 L 214.3175 400.5205 L 215.4749 399.6804 L 218.7939 396.8579 L 219.9441 396.0156 L 221.1963 395.3206 L 223.1763 394.3791 L 223.8104 393.9852 L 225.0201 393.0596 L 226.1755 392.0209 L 230.6755 387.6302 L 232.5118 386.2413 L 233.8773 385.5944 L 237.4097 384.6379 L 239.9233 383.8074 L 241.738 388.7287 L 242.6547 393.2528 L 243.055 394.7175 L 244.511 397.9243 L 244.9938 399.3004 L 245.7664 403.0271 L 246.1799 404.4853 L 247.9694 408.337 L 249.0662 412.0028 L 249.9189 414.2767 L 240.9005 414.8937 Z" fill="#000000" fill-opacity="1" stroke="#000000" stroke-width="0" paint-order="fill" stroke-opacity="1" stroke-dasharray="" stroke-linecap="butt" stroke-linejoin="miter" stroke-miterlimit="10" clip-path="none"/>
<path data-code="209" d="M 204.4304 285.6859 L 205.0285 282.7374 L 205.45 281.2771 L 206.8824 278.0563 L 207.3359 276.6504 L 207.695 274.3446 L 207.8772 271.1762 L 211.8071 267.0107 L 212.7955 265.7478 L 213.6278 264.4081 L 214.8139 261.6602 L 216.822 257.9207 L 217.9365 255.143 L 219.9545 251.3992 L 221.0866 248.6258 L 223.119 244.8873 L 224.2619 242.1203 L 226.318 238.3957 L 227.4529 235.6287 L 229.0594 232.4848 L 229.3228 231.8166 L 229.6999 230.3252 L 230.2567 224.8841 L 230.5302 223.366 L 230.9965 221.9676 L 232.4913 218.7714 L 232.9201 217.31 L 233.5946 214.165 L 235.7367 213.1413 L 238.517 212.1453 L 239.8653 211.4589 L 241.1351 210.5589 L 244.1631 208.0492 L 246.1023 206.782 L 250.6219 205.0665 L 255.8465 209.8608 L 257.4962 211.2229 L 258.6592 211.9809 L 260.6395 212.9182 L 261.8909 213.6142 L 263.0403 214.4575 L 266.3733 217.2726 L 267.5387 218.1063 L 268.148 218.4618 L 271.4318 219.983 L 275.8902 222.8664 L 276.3309 223.3191 L 276.6728 223.8496 L 277.2929 225.6335 L 277.7649 227.8688 L 278.2709 229.246 L 279.9226 232.3749 L 281.0824 235.1333 L 282.415 237.6068 L 282.9827 238.9017 L 283.3326 240.3941 L 283.4142 242.7042 L 283.1929 244.2244 L 282.7245 245.6196 L 281.082 248.7315 L 279.9146 251.506 L 277.8514 255.2444 L 276.429 258.6552 L 273.6912 263.379 L 272.7737 264.3237 L 268.194 267.1388 L 264.8813 268.5863 L 261.234 270.6467 L 258.5331 271.7836 L 254.9141 273.8781 L 252.252 275.1004 L 250.495 276.3131 L 247.1831 279.1484 L 245.4237 280.3526 L 242.756 281.5536 L 239.7456 283.2947 L 237.1251 284.4668 L 235.8476 285.15 L 234.6851 286.0041 L 233.5834 286.9798 L 231.5246 289.1693 L 230.2163 290.8901 L 228.1394 294.2005 L 225.3284 293.6625 L 223.9064 293.2461 L 220.7839 291.7826 L 219.3664 291.3033 L 217.7671 291.0065 L 213.6822 290.5603 L 211.3075 289.9795 L 209.448 288.9963 L 204.4304 285.6859 Z" fill="#000000" fill-opacity="1" stroke="#000000" stroke-width="0" paint-order="fill" stroke-opacity="1" stroke-dasharray="" stroke-linecap="butt" stroke-linejoin="miter" stroke-miterlimit="10" clip-path="none"/>
<path data-code="210" d="M 400.7328 106.6675 L 400.417 112.5304 L 400.5051 114.927 L 400.6988 116.4855 L 401.3257 118.6526 L 402.8109 121.8424 L 403.2481 123.2878 L 404.0963 126.9782 L 405.6664 130.7968 L 405.9787 132.1739 L 405.9694 133.6332 L 405.8397 134.3506 L 405.397 135.6284 L 404.3201 138.1264 L 403.9486 139.59 L 403.7292 141.1315 L 403.5011 144.3106 L 401.3613 144.8368 L 400.0447 145.4218 L 398.8641 146.2054 L 397.192 147.5622 L 394.3285 148.2839 L 391.224 149.7987 L 389.8889 150.2972 L 386.2776 151.0915 L 384.8657 151.5281 L 381.1875 153.4806 L 378.5026 154.6367 L 374.8196 156.5775 L 373.4077 157.0088 L 370.5114 157.6279 L 369.1014 158.0688 L 365.4373 160.0619 L 362.7924 161.2554 L 359.8364 162.8545 L 358.4849 163.2356 L 357.0382 163.2559 L 356.3216 163.1235 L 355.0538 162.6367 L 350.7935 160.4174 L 350.163 160.0459 L 349.0682 159.1726 L 347.7147 157.5596 L 347.0333 156.301 L 345.7943 153.6066 L 344.426 151.6818 L 343.3644 150.4979 L 342.2014 149.4197 L 340.9156 148.5081 L 340.2114 148.1494 L 338.655 147.6775 L 336.2246 147.4106 L 321.1305 147.5281 L 318.6553 147.4096 L 316.2606 147.0327 L 314.8527 146.5374 L 311.7702 145.0311 L 310.3755 144.6073 L 307.4952 143.97 L 306.0844 143.5067 L 304.2325 142.4787 L 299.1693 139.148 L 302.1197 134.2128 L 303.283 131.4533 L 304.8643 128.2988 L 305.4908 126.1392 L 306.0516 120.7161 L 306.56 118.4594 L 307.1453 117.1431 L 308.5576 114.6313 L 310.5012 110.6611 L 312.5112 108.2357 L 313.6657 107.117 L 314.9071 106.1327 L 316.223 105.3748 L 318.8151 104.1428 L 321.8275 102.3825 L 324.5304 101.2456 L 326.9772 99.9389 L 328.2498 99.3753 L 329.6814 99.0123 L 334.6826 98.3782 L 335.9404 97.9288 L 336.4941 97.5712 L 337.3471 96.6072 L 338.904 94.3152 L 340.9648 91.9901 L 343.2603 89.9448 L 345.5169 88.447 L 346.0077 88.0147 L 346.7927 86.9504 L 348.8364 83.4062 L 349.4393 82.1123 L 349.8664 80.6306 L 350.9116 75.2738 L 354.6658 76.0082 L 356.1034 76.4363 L 357.3628 77.0491 L 360.8192 79.1009 L 361.8632 79.9122 L 362.6314 81.0043 L 364.8616 85.2316 L 365.3372 86.6141 L 366.2075 91.086 L 366.79 92.5324 L 367.6411 93.8765 L 369.7239 96.3478 L 380.5402 107.6678 L 382.2712 109.3556 L 384.1607 110.7722 L 385.5875 111.371 L 387.0715 111.623 L 388.5691 111.6219 L 390.0439 111.3849 L 391.3997 110.8864 L 394.4146 109.2339 L 397.921 108.0051 L 400.7328 106.6675 Z" fill="#000000" fill-opacity="1" stroke="#000000" stroke-width="0" paint-order="fill" stroke-opacity="1" stroke-dasharray="" stroke-linecap="butt" stroke-linejoin="miter" stroke-miterlimit="10" clip-path="none"/>
<path data-code="211" d="M 454.5613 191.1823 L 451.289 190.4116 L 448.7486 190.0604 L 444.4331 189.8821 L 440.1313 189.9653 L 437.6137 190.1991 L 436.0076 190.5162 L 434.6185 191.0051 L 432.2245 192.0887 L 430.9099 192.4046 L 430.2117 192.4452 L 428.8258 192.2765 L 427.596 191.8356 L 425.1837 190.735 L 422.7829 190.1628 L 419.3662 189.8746 L 415.0147 189.849 L 412.433 190.0294 L 409.9358 190.5397 L 404.8798 192.6374 L 403.6816 192.221 L 402.6184 191.5634 L 401.648 190.672 L 400.8193 189.596 L 397.9378 183.8762 L 397.447 182.3731 L 397.1844 180.679 L 397.1239 178.0913 L 397.391 175.5378 L 397.8105 173.9141 L 399.5395 170.0699 L 399.9602 168.4526 L 400.192 166.7584 L 400.3734 162.3837 L 400.3385 150.8235 L 401.6556 149.0984 L 402.4162 147.8804 L 402.9859 146.5203 L 403.5011 144.3106 L 403.7292 141.1315 L 403.9486 139.59 L 404.3201 138.1264 L 405.397 135.6284 L 405.8397 134.3506 L 405.9694 133.6332 L 405.9787 132.1739 L 405.6664 130.7968 L 404.0963 126.9782 L 403.2481 123.2878 L 402.8109 121.8424 L 401.3257 118.6526 L 400.6988 116.4855 L 400.5051 114.927 L 400.417 112.5304 L 400.7328 106.6675 L 402.1111 104.5165 L 402.2288 103.7457 L 402.156 103.0625 L 408.1588 101.7334 L 409.5912 101.2648 L 410.8562 100.6179 L 416.6684 96.9488 L 418.6809 102.2181 L 419.5888 106.7359 L 420.2593 108.8688 L 423.4515 115.4319 L 424.3546 116.7247 L 426.8342 119.8333 L 428.124 121.805 L 429.3366 124.5421 L 431.3494 128.2849 L 432.4739 131.0583 L 434.4723 134.8085 L 435.6189 137.5713 L 437.6561 141.2991 L 438.8038 144.0533 L 440.4035 147.1918 L 440.8971 148.6362 L 441.2746 151.0605 L 441.4031 153.5671 L 441.4115 158.6602 L 441.2346 162.8887 L 440.8959 165.3408 L 440.4559 166.8748 L 438.9111 169.945 L 438.4403 171.2794 L 438.2274 172.7003 L 438.2229 173.4048 L 438.4579 174.7649 L 438.7354 175.3979 L 439.1545 175.9658 L 439.6949 176.3982 L 440.2914 176.6843 L 441.5748 176.9811 L 445.0981 177.2202 L 447.2594 177.6162 L 449.1349 178.4713 L 451.3935 179.8025 L 452.464 180.5573 L 452.9296 181.0537 L 453.2878 181.6237 L 453.7374 182.9047 L 454.0429 185.0248 L 454.5613 191.1823 Z" fill="#000000" fill-opacity="1" stroke="#000000" stroke-width="0" paint-order="fill" stroke-opacity="1" stroke-dasharray="" stroke-linecap="butt" stroke-linejoin="miter" stroke-miterlimit="10" clip-path="none"/>
<path data-code="212" d="M 263.3113 355.8959 L 264.0415 353.3904 L 264.429 350.8209 L 264.5219 347.3589 L 264.2689 344.8065 L 263.8353 343.1721 L 263.489 342.3672 L 259.6227 335.977 L 264.6752 333.6519 L 267.4454 332.5812 L 271.0651 330.5038 L 273.1968 329.575 L 274.3273 328.9399 L 275.4703 328.0688 L 276.5555 327.0845 L 281.3266 322.3212 L 283.066 321.0487 L 283.7001 320.7263 L 285.142 320.2726 L 287.4054 320.0122 L 288.9359 320.0218 L 290.4575 320.1616 L 291.9447 320.4691 L 292.6629 320.7093 L 293.9311 321.3252 L 296.3254 322.7151 L 298.9791 323.9385 L 302.5612 326.0939 L 305.2277 327.2831 L 307.6493 328.6175 L 308.9187 329.1982 L 311.1029 329.7042 L 315.6341 330.1376 L 317.1185 330.4002 L 319.0689 331.0995 L 323.0012 332.974 L 321.6317 334.5977 L 320.6425 335.5617 L 317.6625 337.4288 L 315.3006 339.4155 L 312.4507 342.2444 L 306.2742 348.6773 L 303.9575 350.8455 L 302.0788 352.1831 L 299.4315 353.415 L 297.0292 354.759 L 295.7573 355.3461 L 293.5564 355.8457 L 290.4879 356.0294 L 263.3113 355.8959 Z" fill="#000000" fill-opacity="1" stroke="#000000" stroke-width="0" paint-order="fill" stroke-opacity="1" stroke-dasharray="" stroke-linecap="butt" stroke-linejoin="miter" stroke-miterlimit="10" clip-path="none"/>
<path data-code="213" d="M 346.2623 233.6815 L 348.8292 229.3666 L 349.3624 227.9361 L 349.6666 226.3444 L 349.8756 223.0436 L 349.8928 212.9128 L 349.7703 209.5854 L 349.4088 207.176 L 348.916 205.738 L 347.3091 202.6059 L 346.181 199.8442 L 344.1306 196.125 L 342.9252 193.3857 L 342.101 192.0524 L 339.1526 188.2957 L 338.2587 186.9955 L 337.5605 185.6291 L 336.7118 183.5506 L 335.0373 180.4398 L 333.8768 177.7924 L 333.1706 176.538 L 332.2811 175.4524 L 331.2402 174.5247 L 330.0401 173.7806 L 327.4648 172.443 L 321.9143 168.079 L 317.9824 165.9695 L 316.7354 165.0333 L 313.725 162.4649 L 311.8146 161.1326 L 309.1665 159.8847 L 305.5716 157.7582 L 302.8987 156.5892 L 300.4823 155.2527 L 299.2105 154.6698 L 297.0091 154.1755 L 293.1709 153.9748 L 293.4519 152.476 L 293.8602 151.0157 L 295.7433 147.211 L 296.8106 144.381 L 299.1693 139.148 L 304.2325 142.4787 L 306.0844 143.5067 L 307.4952 143.97 L 310.3755 144.6073 L 311.7702 145.0311 L 314.8527 146.5374 L 316.2606 147.0327 L 318.6553 147.4096 L 321.1305 147.5281 L 336.2246 147.4106 L 338.655 147.6775 L 340.2114 148.1494 L 340.9156 148.5081 L 342.2014 149.4197 L 343.3644 150.4979 L 344.426 151.6818 L 345.7943 153.6066 L 347.0333 156.301 L 347.7147 157.5596 L 349.0682 159.1726 L 350.163 160.0459 L 350.7935 160.4174 L 355.0538 162.6367 L 356.3216 163.1235 L 357.0382 163.2559 L 358.4849 163.2356 L 359.8364 162.8545 L 362.7924 161.2554 L 365.4373 160.0619 L 369.1014 158.0688 L 370.5114 157.6279 L 373.4077 157.0088 L 374.8196 156.5775 L 378.5026 154.6367 L 381.1875 153.4806 L 384.8657 151.5281 L 386.2776 151.0915 L 389.8889 150.2972 L 391.224 149.7987 L 394.3285 148.2839 L 397.192 147.5622 L 398.8641 146.2054 L 400.0447 145.4218 L 401.3613 144.8368 L 403.5011 144.3106 L 402.9859 146.5203 L 402.4162 147.8804 L 401.6556 149.0984 L 400.3385 150.8235 L 400.3734 162.3837 L 400.192 166.7584 L 399.9602 168.4526 L 399.5395 170.0699 L 397.8105 173.9141 L 397.391 175.5378 L 397.1239 178.0913 L 397.1844 180.679 L 397.447 182.3731 L 397.9378 183.8762 L 400.8193 189.596 L 401.648 190.672 L 402.6184 191.5634 L 403.6816 192.221 L 404.8798 192.6374 L 408.3938 198.7062 L 409.0123 200.0043 L 409.4607 201.4615 L 410.0916 204.4335 L 410.5019 205.8747 L 411.9282 209.0751 L 412.4042 210.5611 L 412.6888 212.2563 L 412.8646 214.8846 L 412.9106 226.5633 L 412.7785 231.8966 L 412.5744 233.6217 L 412.1664 235.2839 L 408.7609 242.4587 L 407.5543 244.2511 L 404.8425 247.8668 L 402.8742 247.3373 L 399.963 245.8182 L 397.3225 244.6674 L 393.6367 242.7512 L 391.2112 242.1875 L 388.6752 241.9922 L 386.0951 241.9516 L 365.2824 242.0819 L 362.7315 241.9655 L 360.2595 241.5748 L 358.8208 241.0602 L 355.7811 239.4205 L 353.1286 238.1897 L 346.2623 233.6815 Z" fill="#000000" fill-opacity="1" stroke="#000000" stroke-width="0" paint-order="fill" stroke-opacity="1" stroke-dasharray="" stroke-linecap="butt" stroke-linejoin="miter" stroke-miterlimit="10" clip-path="none"/>
<path data-code="214" d="M 323.0012 332.974 L 319.0689 331.0995 L 317.1185 330.4002 L 315.6341 330.1376 L 311.1029 329.7042 L 308.9187 329.1982 L 307.6493 328.6175 L 305.2277 327.2831 L 302.5612 326.0939 L 298.9791 323.9385 L 296.3254 322.7151 L 293.9311 321.3252 L 292.6629 320.7093 L 291.9447 320.4691 L 290.4575 320.1616 L 288.9359 320.0218 L 287.4054 320.0122 L 285.142 320.2726 L 283.7001 320.7263 L 283.066 321.0487 L 281.3266 322.3212 L 276.5555 327.0845 L 275.4703 328.0688 L 274.3273 328.9399 L 273.1968 329.575 L 271.0651 330.5038 L 267.4454 332.5812 L 264.6752 333.6519 L 259.6227 335.977 L 257.6612 330.1056 L 255.6663 326.3554 L 254.4802 323.6065 L 253.3012 321.7939 L 250.5502 318.3789 L 249.3777 316.5641 L 248.1988 313.8131 L 246.1839 310.0725 L 245.1039 307.2798 L 243.1379 303.5136 L 242.019 300.7348 L 240.8617 298.8901 L 239.4361 297.2163 L 238.3833 296.2021 L 237.2404 295.3075 L 235.9721 294.6094 L 234.5026 294.1941 L 232.9853 294.0297 L 230.8632 294.0329 L 228.1394 294.2005 L 230.2163 290.8901 L 231.5246 289.1693 L 233.5834 286.9798 L 234.6851 286.0041 L 235.8476 285.15 L 237.1251 284.4668 L 239.7456 283.2947 L 242.756 281.5536 L 245.4237 280.3526 L 247.1831 279.1484 L 250.495 276.3131 L 252.252 275.1004 L 254.9141 273.8781 L 258.5331 271.7836 L 261.234 270.6467 L 264.8813 268.5863 L 268.194 267.1388 L 272.7737 264.3237 L 273.6912 263.379 L 276.429 258.6552 L 277.8514 255.2444 L 279.9146 251.506 L 281.082 248.7315 L 282.7245 245.6196 L 283.1929 244.2244 L 283.4142 242.7042 L 283.3326 240.3941 L 282.9827 238.9017 L 282.415 237.6068 L 281.0824 235.1333 L 279.9226 232.3749 L 278.2709 229.246 L 277.7649 227.8688 L 277.2929 225.6335 L 301.5428 225.5865 L 303.1201 225.7253 L 304.6617 226.0402 L 305.4087 226.3039 L 306.747 227.0479 L 307.9655 227.9895 L 309.6709 229.5972 L 311.8146 231.9158 L 313.2986 233.7413 L 314.5396 235.6831 L 316.1537 239.0864 L 320.3959 244.804 L 321.1037 246.1651 L 321.9724 248.2265 L 323.9736 251.9778 L 325.0393 254.8132 L 327.3923 260.0739 L 327.924 263.0149 L 328.3411 264.486 L 330.2306 268.2906 L 331.3499 271.063 L 333.2302 274.8634 L 333.6398 276.3238 L 334.3836 280.0633 L 334.8752 281.4511 L 336.478 284.5992 L 337.3403 286.6574 L 338.0161 287.9502 L 339.2831 289.7084 L 341.6254 292.5704 L 342.8035 294.3895 L 343.942 297.1287 L 345.378 300.1466 L 345.6766 301.401 L 345.7235 302.2475 L 344.8664 304.8266 L 342.7603 310.1557 L 341.5954 311.9855 L 338.8359 315.3898 L 338.0161 316.5726 L 337.4084 317.7298 L 336.462 319.9214 L 335.2811 321.7405 L 333.8583 323.4507 L 331.8123 325.6583 L 329.1758 328.3613 L 327.0237 330.4205 L 325.916 331.3557 L 324.767 332.1638 L 323.8491 332.6442 L 323.0012 332.974 Z" fill="#000000" fill-opacity="1" stroke="#000000" stroke-width="0" paint-order="fill" stroke-opacity="1" stroke-dasharray="" stroke-linecap="butt" stroke-linejoin="miter" stroke-miterlimit="10" clip-path="none"/>
<path data-code="215" d="M 346.2623 233.6815 L 343.9609 238.922 L 342.918 241.7605 L 341.2239 244.8745 L 339.7611 248.2639 L 339.0133 249.5022 L 338.125 250.6722 L 336.6514 252.3504 L 332.94 256.0664 L 330.655 257.941 L 327.3923 260.0739 L 325.0393 254.8132 L 323.9736 251.9778 L 321.9724 248.2265 L 321.1037 246.1651 L 320.3959 244.804 L 316.1537 239.0864 L 314.5396 235.6831 L 313.2986 233.7413 L 311.8146 231.9158 L 309.6709 229.5972 L 307.9655 227.9895 L 306.747 227.0479 L 305.4087 226.3039 L 304.6617 226.0402 L 303.1201 225.7253 L 301.5428 225.5865 L 277.2929 225.6335 L 276.6728 223.8496 L 276.3309 223.3191 L 275.8902 222.8664 L 271.4318 219.983 L 268.148 218.4618 L 267.5387 218.1063 L 266.3733 217.2726 L 263.0403 214.4575 L 261.8909 213.6142 L 260.6395 212.9182 L 258.6592 211.9809 L 257.4962 211.2229 L 255.8465 209.8608 L 250.6219 205.0665 L 252.8177 202.4084 L 253.8317 201.3932 L 254.9414 200.505 L 256.1888 199.793 L 258.7849 198.592 L 261.8005 196.8509 L 264.505 195.7396 L 268.1344 193.6803 L 270.146 192.8188 L 271.4622 192.1121 L 272.6964 191.2058 L 273.873 190.181 L 277.2064 186.7948 L 278.7245 184.9907 L 279.9783 183.0489 L 281.136 180.2754 L 283.14 176.5327 L 284.2441 173.7603 L 286.2593 170.0187 L 287.4126 167.2506 L 291.6845 160.1889 L 292.6368 157.0066 L 293.1709 153.9748 L 297.0091 154.1755 L 299.2105 154.6698 L 300.4823 155.2527 L 302.8987 156.5892 L 305.5716 157.7582 L 309.1665 159.8847 L 311.8146 161.1326 L 313.725 162.4649 L 316.7354 165.0333 L 317.9824 165.9695 L 321.9143 168.079 L 327.4648 172.443 L 330.0401 173.7806 L 331.2402 174.5247 L 332.2811 175.4524 L 333.1706 176.538 L 333.8768 177.7924 L 335.0373 180.4398 L 336.7118 183.5506 L 337.5605 185.6291 L 338.2587 186.9955 L 339.1526 188.2957 L 342.101 192.0524 L 342.9252 193.3857 L 344.1306 196.125 L 346.181 199.8442 L 347.3091 202.6059 L 348.916 205.738 L 349.4088 207.176 L 349.7703 209.5854 L 349.8928 212.9128 L 349.8756 223.0436 L 349.6666 226.3444 L 349.3624 227.9361 L 348.8292 229.3666 L 346.2623 233.6815 Z" fill="#000000" fill-opacity="1" stroke="#000000" stroke-width="0" paint-order="fill" stroke-opacity="1" stroke-dasharray="" stroke-linecap="butt" stroke-linejoin="miter" stroke-miterlimit="10" clip-path="none"/>
<path data-code="216" d="M 430.0408 322.7792 L 428.2686 326.2508 L 427.2365 327.8179 L 425.2878 330.0554 L 423.6649 331.5446 L 422.4971 332.3944 L 421.3382 333.0071 L 419.1396 333.8569 L 416.6957 334.9682 L 414.0924 336.0133 L 410.4406 338.3992 L 409.1796 339.029 L 408.4703 339.2703 L 407.0035 339.5852 L 402.4987 340.0624 L 401.0315 340.3368 L 399.674 340.799 L 396.5571 342.2583 L 395.1496 342.6682 L 391.5403 343.4635 L 390.198 343.9781 L 383.8225 347.3034 L 381.9149 348.8374 L 379.5198 351.1657 L 378.6547 349.242 L 378.2896 347.755 L 378.0514 345.4118 L 377.8785 339.8286 L 377.5622 337.5025 L 377.3545 336.7573 L 376.7956 335.4347 L 375.5094 332.9345 L 374.3481 330.1814 L 373.585 328.9505 L 372.1907 327.2564 L 370.067 325.2516 L 368.3072 324.0463 L 366.32 323.1389 L 365.0246 322.4365 L 363.7996 321.5387 L 362.0538 319.9865 L 358.6975 316.595 L 349.8596 307.33 L 347.838 304.9921 L 345.7235 302.2475 L 345.6766 301.401 L 345.378 300.1466 L 343.942 297.1287 L 342.8035 294.3895 L 341.6254 292.5704 L 339.2831 289.7084 L 338.0161 287.9502 L 337.3403 286.6574 L 336.478 284.5992 L 334.8752 281.4511 L 334.3836 280.0633 L 333.6398 276.3238 L 333.2302 274.8634 L 331.3499 271.063 L 330.2306 268.2906 L 328.3411 264.486 L 327.924 263.0149 L 327.3923 260.0739 L 330.655 257.941 L 332.94 256.0664 L 336.6514 252.3504 L 338.125 250.6722 L 339.0133 249.5022 L 339.7611 248.2639 L 341.2239 244.8745 L 342.918 241.7605 L 343.9609 238.922 L 346.2623 233.6815 L 353.1286 238.1897 L 355.7811 239.4205 L 358.8208 241.0602 L 360.2595 241.5748 L 362.7315 241.9655 L 365.2824 242.0819 L 386.0951 241.9516 L 388.6752 241.9922 L 391.2112 242.1875 L 393.6367 242.7512 L 397.3225 244.6674 L 399.963 245.8182 L 402.8742 247.3373 L 404.8425 247.8668 L 410.3301 248.7069 L 411.8013 249.0389 L 413.1532 249.5439 L 416.2429 251.08 L 421.9375 252.5735 L 425.6665 254.368 L 427.0828 254.7854 L 431.4607 255.7312 L 436.4099 257.5791 L 435.4611 260.2202 L 434.4091 264.0024 L 433.8438 265.2482 L 433.0532 266.4662 L 430.3366 269.8941 L 429.5256 271.0811 L 428.9219 272.2383 L 427.9695 274.4268 L 427.2133 275.6534 L 425.8294 277.3528 L 423.7157 279.3705 L 421.9547 280.5746 L 419.2901 281.7713 L 418.0836 282.5154 L 415.8202 284.3782 L 413.1568 287.0001 L 411.6752 288.6867 L 410.4454 290.5101 L 409.8794 291.9213 L 409.4807 294.2475 L 409.3682 296.6387 L 409.3994 299.0481 L 409.5872 301.4298 L 409.8746 302.9724 L 410.3714 304.389 L 411.9995 307.5168 L 413.1776 310.2667 L 413.9827 311.5777 L 415.4391 313.4138 L 417.5904 315.7357 L 419.2837 317.3893 L 421.068 318.8827 L 422.3518 319.694 L 423.0291 320.0111 L 427.5091 321.8601 L 430.0408 322.7792 Z" fill="#000000" fill-opacity="1" stroke="#000000" stroke-width="0" paint-order="fill" stroke-opacity="1" stroke-dasharray="" stroke-linecap="butt" stroke-linejoin="miter" stroke-miterlimit="10" clip-path="none"/>
<path data-code="217" d="M 513.4073 234.1961 L 519.0046 230.432 L 520.2164 229.7114 L 522.8989 228.535 L 526.5171 226.4469 L 529.2076 225.3004 L 532.8309 223.2187 L 535.5255 222.0829 L 539.146 220.0108 L 541.1484 219.1354 L 542.4454 218.4234 L 543.65 217.5203 L 545.355 215.9606 L 551.8818 209.2011 L 553.0383 208.2029 L 554.2866 207.3596 L 555.6817 206.7831 L 557.1673 206.5002 L 558.6857 206.3903 L 563.2958 206.3401 L 564.8146 206.2259 L 566.2986 205.9355 L 567.6993 205.3462 L 569.5508 203.9905 L 574.5881 199.0436 L 576.3823 197.6077 L 577.6829 196.8861 L 580.2962 195.6851 L 583.2974 193.9216 L 585.2999 193.0366 L 586.5609 192.3438 L 587.711 191.5015 L 591.0377 188.7227 L 592.223 187.936 L 593.5461 187.3574 L 595.6926 186.8535 L 595.4596 190.8162 L 594.9832 193.0847 L 593.2554 196.9448 L 592.8291 198.3924 L 591.9884 202.101 L 591.4744 203.4599 L 590.2234 205.9793 L 589.9576 206.6465 L 589.5689 208.1442 L 589.3663 209.7007 L 589.3015 212.0727 L 589.4064 213.6473 L 589.671 215.1909 L 590.153 216.6161 L 591.7618 219.7631 L 592.9676 222.5045 L 593.8423 223.8784 L 594.8731 225.1467 L 596.5769 226.8664 L 598.3675 228.267 L 599.5245 228.899 L 601.6626 229.8502 L 603.4244 231.0501 L 605.6014 233.0378 L 608.2191 235.7354 L 606.5629 237.1552 L 605.4128 238.0018 L 604.2875 238.6316 L 602.1678 239.6137 L 600.9853 240.3877 L 597.0865 243.6928 L 595.9424 244.5254 L 594.8139 245.1446 L 592.675 246.0712 L 589.0613 248.1678 L 586.9176 249.0987 L 585.7818 249.7232 L 584.6249 250.5644 L 581.3107 253.3997 L 580.1621 254.2506 L 579.04 254.8879 L 576.9263 255.8903 L 575.7454 256.6664 L 571.8687 259.949 L 570.7141 260.7966 L 569.5804 261.4286 L 567.4435 262.3734 L 563.817 264.4497 L 561.07 265.466 L 558.4127 266.5709 L 555.1332 268.4444 L 553.6248 269.5375 L 551.9667 271.032 L 547.7273 275.2562 L 546.628 276.2277 L 545.4731 277.086 L 544.3346 277.7105 L 541.5779 278.9381 L 538.5751 280.6825 L 535.9014 281.8578 L 534.7096 282.6328 L 533.0435 284.0558 L 528.7765 288.2928 L 527.6436 289.2931 L 526.5154 290.1322 L 525.2608 290.8197 L 523.2873 291.6619 L 520.3809 293.086 L 519.1868 293.3614 L 518.212 293.3774 L 515.7616 292.5832 L 511.7492 290.9766 L 510.6995 290.4813 L 509.5786 289.6753 L 508.6015 288.6654 L 508.1755 288.0943 L 507.5498 286.9563 L 506.8965 285.3283 L 506.324 284.1754 L 505.5326 282.9915 L 504.6287 281.8535 L 502.6483 279.6566 L 500.5538 277.5247 L 496.3784 273.6859 L 498.607 272.9728 L 503.9289 270.9189 L 507.5702 268.8778 L 509.5786 268.0045 L 510.8997 267.2936 L 512.1459 266.3936 L 513.3401 265.3827 L 516.1743 262.6381 L 517.7164 260.8959 L 518.5887 259.6544 L 518.9422 258.9872 L 519.3741 257.5332 L 519.4302 256.7838 L 519.2504 255.3138 L 518.7728 254.0424 L 517.8841 252.2276 L 517.4049 250.8825 L 517.1059 249.388 L 516.5975 244.7176 L 516.3129 243.1964 L 515.8421 241.7968 L 514.3569 238.5964 L 513.947 237.1286 L 513.4073 234.1961 Z" fill="#000000" fill-opacity="1" stroke="#000000" stroke-width="0" paint-order="fill" stroke-opacity="1" stroke-dasharray="" stroke-linecap="butt" stroke-linejoin="miter" stroke-miterlimit="10" clip-path="none"/>


















</svg>